<?xml version="1.0" encoding="UTF-8"?>
<!-- Created with Inkscape (http://www.inkscape.org/) -->
<svg width="202.798mm" height="197.796mm" version="1.1" viewBox="0 0 202.798 197.796" xmlns="http://www.w3.org/2000/svg" xmlns:cc="http://creativecommons.org/ns#" xmlns:dc="http://purl.org/dc/elements/1.1/" xmlns:rdf="http://www.w3.org/1999/02/22-rdf-syntax-ns#">
 <title>Wappen der Stadt Neuerburg</title>
 <g transform="translate(-3.51715 -49.405)">
  <path d="m8.01631 50.955c-14.9939 88.7038 28.7 170.277 96.9 194.6v-194.6z" fill="#d7dae2"/>
  <path d="m104.916 50.955v194.6c68.2-24.3229 111.894-105.896 96.9-194.6z" fill="#d7dae2"/>
  <g fill="none" stroke="#000" stroke-width="2">
   <path d="m8.26077 51.123 96.7155 88.0285"/>
   <path d="m30.1799 51.1085 74.516 67.8229"/>
   <path d="m52.1482 51.0796 52.6434 47.9149"/>
   <path d="m73.9809 50.9274 30.8757 28.1024"/>
   <path d="m96.3324 50.9742 8.56281 7.79369"/>
   <path d="m6.01113 107.237 98.7619 89.891"/>
   <path d="m10.8387 132.531 94.0514 85.6036"/>
   <path d="m19.7057 161.001 85.24 77.5836"/>
   <path d="m104.877 59.6531-89.5429 89.4414"/>
   <path d="m91.6415 51.1943-81.2209 81.1289"/>
   <path d="m70.0835 51.272-63.256 63.1843"/>
   <path d="m49.5672 50.7608-44.2514 44.2013"/>
   <path d="m28.0374 51.0353-22.4912 22.4657"/>
   <path d="m105.017 81.2034-83.4421 83.3475"/>
   <path d="m104.791 103.119-75.8794 75.7933"/>
   <path d="m104.903 124.923-67.6701 67.5934"/>
   <path d="m104.955 146.104-58.3082 58.2421"/>
   <path d="m104.894 168.072-47.878 47.8238"/>
   <path d="m105.03 189.731-36.2387 36.1976"/>
   <path d="m104.715 211.951-22.7723 22.7465"/>
   <path d="m104.878 233.243-8.68705 8.67721"/>
  </g>
  <path d="m25.0044 95.3037c-4.79428 32.9827 9.98096 70.7422 33.8889 79.7553 23.6831-8.95697 38.6837-45.3677 33.8894-79.7553z" fill="#d7dae2" stroke="#000" stroke-width="2"/>
  <path d="m6.07689 66.9411-0.150895 0.165881c-0.587775 6.47502-0.83948 12.8868-0.823206 19.2304l98.6849 89.8204 1.12861-1.23972v-18.0154z" color="#000000" style="-inkscape-stroke:none"/>
  <path d="m117.591 78.5387v14.818l7.5 4.584v41.8589l-6.60014 3.54803v23.324l-3.22388 2.733v3.08l-3.13398 1.90002v6.61898h61.566v-6.61898l-2.955-1.90002v-3.08l-3.22401-2.733v-23.324l-6.59999-3.54803v-41.8589l7.5-4.584v-14.7386l-11.566-0.01817v4.72173h-8.066v-4.73403l-11.565-0.01814v4.75256h-8.066v-4.76548z" fill="#ed1c24" stroke="#000" stroke-width="1.5"/>
  <g fill="none" stroke="#000" stroke-width="1.5">
   <path d="m173.54 174.968h-61.2487"/>
   <path d="m170.719 171.068h-55.6061"/>
   <path d="m168.136 167.253-50.2417 2.9e-4"/>
   <path d="m168.036 163.049h-50.2417"/>
   <path d="m168.136 153.142h-50.2417"/>
   <path d="m168.136 148.542h-50.2417"/>
   <path d="m168.136 143.642h-50.2417"/>
   <path d="m162.075 140.367h-38.1185"/>
   <path d="m161.002 135.154h-35.933"/>
   <path d="m161.002 129.941h-35.933"/>
   <path d="m161.002 124.728h-35.933"/>
   <path d="m161.002 119.514h-35.933"/>
   <path d="m161.002 114.301h-35.933"/>
   <path d="m161.002 109.088h-35.933"/>
   <path d="m161.002 103.875h-35.933"/>
   <path d="m161.002 98.6622h-35.933"/>
   <path d="m167.492 93.9699h-49.0266"/>
   <path d="m168.476 88.7718h-50.6001"/>
   <path d="m168.476 83.3218h-50.6001"/>
   <path d="m123.973 83.0408v5.81628"/>
   <path d="m133.184 83.0408v5.81628"/>
   <path d="m142.916 83.0408v5.81628"/>
   <path d="m152.806 83.0408v5.81628"/>
   <path d="m162.017 83.0408v5.81628"/>
   <path d="m133.784 98.3866v5.81628"/>
   <path d="m142.916 98.3866v5.81628"/>
   <path d="m152.206 98.3866v5.81628"/>
   <path d="m133.784 108.97v5.81628"/>
   <path d="m142.916 108.97v5.81628"/>
   <path d="m152.206 108.97v5.81628"/>
   <path d="m133.784 119.024v5.81628"/>
   <path d="m142.916 119.024v5.81628"/>
   <path d="m152.206 119.024v5.81628"/>
   <path d="m133.784 129.607v5.81628"/>
   <path d="m143.011 129.607v5.81628"/>
   <path d="m152.206 129.607v5.81628"/>
   <path d="m138.071 134.899v5.81628"/>
   <path d="m147.861 134.899v5.81628"/>
   <path d="m138.071 124.316v5.81628"/>
   <path d="m147.861 124.316v5.81628"/>
   <path d="m138.071 113.933v5.81628"/>
   <path d="m147.861 113.933v5.81628"/>
   <path d="m138.071 103.55v5.81629"/>
   <path d="m147.861 103.55v5.81629"/>
   <path d="m137.442 88.4038v5.81628"/>
   <path d="m148.49 88.4038v5.81628"/>
   <path d="m126 88.4038v5.81628"/>
   <path d="m159.932 88.4038v5.81628"/>
  </g>
  <g stroke="#000" stroke-width="1.5">
   <path d="m143.002 146.752c-6.97881-2.7e-4 -12.6363 5.45777-12.636 12.1905v8.30992h25.272v-8.30992c2.9e-4 -6.73274-5.65722-12.1908-12.636-12.1905z" fill="#ed1c24" stroke-linecap="square" stroke-linejoin="round"/>
   <path d="m168.136 158.105h-12.4444l-6.18156 0.22478h-12.897l-6.15346-0.22478h-12.5652" fill="none"/>
   <path d="m168.136 163.049h-50.2417" fill="none"/>
   <path d="m143.011 152.901c-3.61658-1.4e-4 -6.54843 2.88651-6.54828 6.44733v15.6407h13.0966v-15.6407c1.5e-4 -3.56082-2.9317-6.44747-6.54828-6.44733z" fill="#d7dae2" stroke-linecap="square" stroke-linejoin="round"/>
  </g>
  <g fill="none" stroke="#000" stroke-width="1.5">
   <path d="m143.011 146.813v5.81628"/>
   <path d="m137.167 148.077 3.34366 5.36672"/>
   <path d="m148.778 148.077-3.34366 5.36672"/>
   <path d="m153.105 151.561-4.86095 4.29351"/>
   <path d="m132.827 151.561 4.86095 4.29351"/>
   <path d="m125.089 143.244v5.81628"/>
   <path d="m134.542 143.188v5.81628"/>
   <path d="m151.448 143.244v5.81628"/>
   <path d="m160.9 143.188v5.81628"/>
   <path d="m125.089 152.769v5.8163"/>
  </g>
  <path d="m160.9 152.713v5.8163" fill="#fff" stroke="#000" stroke-width="1.5"/>
  <g fill="none" stroke="#000">
   <g stroke-width="1.5">
    <path d="m122.813 157.602v5.8163"/>
    <path d="m128.967 147.908v5.8163"/>
    <path d="m156.98 147.965v5.8163"/>
    <path d="m163.218 157.658v5.8163"/>
   </g>
   <path d="m8.01631 50.955c-14.9939 88.7038 28.7 170.277 96.9 194.6 68.2-24.3229 111.894-105.896 96.9-194.6z" stroke-width="3.09999"/>
   <path d="m104.917 50.9548v195" stroke-width="3"/>
  </g>
 </g>
 <metadata>
  <rdf:RDF>
   <cc:Work rdf:about="">
    <dc:title>Wappen der Stadt Neuerburg</dc:title>
   </cc:Work>
  </rdf:RDF>
 </metadata>
</svg>
