<?xml version="1.0" encoding="UTF-8" standalone="no"?>
<!-- Created with Inkscape (http://www.inkscape.org/) -->

<svg
   width="119.40157mm"
   height="140.73877mm"
   viewBox="0 0 119.40157 140.73877"
   version="1.1"
   id="svg1"
   inkscape:version="1.3 (0e150ed6c4, 2023-07-21)"
   sodipodi:docname="Wappen Barmissen2.svg"
   xmlns:inkscape="http://www.inkscape.org/namespaces/inkscape"
   xmlns:sodipodi="http://sodipodi.sourceforge.net/DTD/sodipodi-0.dtd"
   xmlns="http://www.w3.org/2000/svg"
   xmlns:svg="http://www.w3.org/2000/svg">
  <sodipodi:namedview
     id="namedview1"
     pagecolor="#ffffff"
     bordercolor="#666666"
     borderopacity="1.0"
     inkscape:showpageshadow="2"
     inkscape:pageopacity="0.0"
     inkscape:pagecheckerboard="0"
     inkscape:deskcolor="#d1d1d1"
     inkscape:document-units="mm"
     inkscape:zoom="0.68061167"
     inkscape:cx="225.53242"
     inkscape:cy="265.93726"
     inkscape:current-layer="layer1" />
  <defs
     id="defs1" />
  <g
     inkscape:label="Ebene 1"
     inkscape:groupmode="layer"
     id="layer1"
     transform="translate(-45.508329,-78.052088)">
    <g
       id="g128"
       transform="translate(0.93796,0.038282)">
      <path
         id="path122"
         style="fill:#0000ff;fill-opacity:1;stroke:#000000;stroke-width:1.2;stroke-linecap:round;stroke-dasharray:none"
         d="m 45.170369,78.613806 v 84.930734 a 59.100609,54.608398 0 0 0 59.100781,54.60804 59.100609,54.608398 0 0 0 59.10079,-54.60804 V 78.613806 Z" />
      <path
         id="path127"
         style="fill:#ffff00;fill-opacity:1;stroke:#000000;stroke-width:1.2;stroke-linecap:round;stroke-dasharray:none"
         d="M 55.839486,78.613806 V 194.7106 a 59.100609,54.608398 0 0 0 48.431664,23.44198 59.100609,54.608398 0 0 0 48.43167,-23.44198 V 78.613806 Z" />
      <g
         id="g107"
         transform="translate(-0.64364588,0.74596473)">
        <g
           id="g106"
           transform="translate(28.045845)">
          <path
             style="fill:#009d00;fill-opacity:1;stroke:#000000;stroke-width:0.3;stroke-linecap:round;stroke-dasharray:none"
             d="m 84.350184,116.73529 c 0,0 -2.357537,0.28542 -3.250921,1.16636 -0.753425,0.74293 -1.464155,1.34008 -2.084558,1.6875 -0.620405,0.34743 -1.737132,0.39706 -1.737132,0.39706 l 0.09927,0.95543 c 0,0 1.433202,-0.45444 1.886028,-0.65763 0.967831,-0.43428 1.699908,-1.24082 1.699908,-1.24082 0,0 1.265626,0.69486 2.481619,0.59559 1.215994,-0.0993 2.307903,-0.50873 2.878675,-0.4591 0.570772,0.0496 3.275737,0.4467 3.275737,0.4467 l -0.161305,-0.73208 c 0,0 -2.779414,-0.54596 -3.796877,-0.39706 -1.017463,0.1489 -1.497901,0.37408 -2.221046,0.39706 -0.852402,0.0271 -1.600643,-0.17371 -1.600643,-0.44669 0,-0.27298 0.280404,-0.40198 0.943015,-0.64522 0.980237,-0.35983 1.960478,-0.24816 1.960478,-0.24816 z"
             id="path105"
             sodipodi:nodetypes="cssccscccccsssscc" />
          <ellipse
             style="fill:#009d00;fill-opacity:1;stroke:#000000;stroke-width:0.3;stroke-linecap:round;stroke-dasharray:none"
             id="ellipse105"
             cx="32.181381"
             cy="140.72421"
             rx="2.7670035"
             ry="1.8736213"
             transform="matrix(-0.64783059,0.76178443,0.76178443,0.64783059,0,0)" />
        </g>
        <g
           id="g105">
          <path
             style="fill:#009d00;fill-opacity:1;stroke:#000000;stroke-width:0.3;stroke-linecap:round;stroke-dasharray:none"
             d="m 84.350184,116.73529 c 0,0 -2.357537,0.28542 -3.250921,1.16636 -0.753425,0.74293 -1.464155,1.34008 -2.084558,1.6875 -0.620405,0.34743 -1.737132,0.39706 -1.737132,0.39706 l 0.09927,0.95543 c 0,0 1.433202,-0.45444 1.886028,-0.65763 0.967831,-0.43428 1.699908,-1.24082 1.699908,-1.24082 0,0 1.265626,0.69486 2.481619,0.59559 1.215994,-0.0993 2.307903,-0.50873 2.878675,-0.4591 0.570772,0.0496 3.275737,0.4467 3.275737,0.4467 l -0.161305,-0.73208 c 0,0 -2.779414,-0.54596 -3.796877,-0.39706 -1.017463,0.1489 -1.497901,0.37408 -2.221046,0.39706 -0.852402,0.0271 -1.600643,-0.17371 -1.600643,-0.44669 0,-0.27298 0.280404,-0.40198 0.943015,-0.64522 0.980237,-0.35983 1.960478,-0.24816 1.960478,-0.24816 z"
             id="path104"
             sodipodi:nodetypes="cssccscccccsssscc" />
          <ellipse
             style="fill:#009d00;fill-opacity:1;stroke:#000000;stroke-width:0.3;stroke-linecap:round;stroke-dasharray:none"
             id="ellipse104"
             cx="32.181381"
             cy="140.72421"
             rx="2.7670035"
             ry="1.8736213"
             transform="matrix(-0.64783059,0.76178443,0.76178443,0.64783059,0,0)" />
        </g>
        <g
           id="g40"
           transform="translate(28.045834)">
          <g
             id="g37"
             transform="translate(31.071837,0.68560685)">
            <g
               id="g36"
               transform="translate(-31.02431,-0.70190745)">
              <path
                 id="path20"
                 style="fill:#009d00;fill-opacity:1;stroke:#000000;stroke-width:0.3;stroke-linecap:round;stroke-dasharray:none"
                 d="m 76.929154,90.33092 c 0,0 -0.584284,0.215962 -1.649511,0.769462 -1.06038,0.550982 -1.501074,1.240752 -1.774052,1.240752 0,0 -0.471691,-0.06204 -0.719853,0 -0.264827,0.06621 -1.265774,0.8189 -1.910994,1.191141 -0.64522,0.372243 -1.811076,1.538282 -2.208134,1.811259 -0.397058,0.272978 -1.563603,2.717538 -1.836581,2.990515 -0.272977,0.272979 -1.166337,0.424264 -1.166337,0.424264 0,0 -3.902394,3.131297 0.420646,10.107397 5.980236,9.65031 10.844816,8.84442 10.844816,8.84442 0,0 4.864064,0.80589 10.8443,-8.84442 4.32304,-6.9761 0.421163,-10.107397 0.421163,-10.107397 0,0 -0.89336,-0.151285 -1.166337,-0.424264 -0.272978,-0.272977 -1.439523,-2.717537 -1.836581,-2.990515 -0.397058,-0.272977 -1.563431,-1.439016 -2.20865,-1.811259 -0.645221,-0.372241 -1.646168,-1.124934 -1.910995,-1.191141 -0.248162,-0.06204 -0.719336,0 -0.719336,0 -0.272978,0 -0.714189,-0.68977 -1.774569,-1.240752 -1.065227,-0.5535 -1.648995,-0.769462 -1.648995,-0.769462 z" />
              <path
                 style="fill:#000000;stroke:none;stroke-width:0.3;stroke-linecap:round;stroke-dasharray:none"
                 d="m 76.68339,123.78138 c 0,0 -0.520782,-10.62564 -0.371885,-16.82969 0.148897,-6.20404 0.465896,-16.471083 0.618641,-16.471912 0.350677,-0.0019 -0.03137,14.825372 -0.01027,20.806242 0.02433,6.89777 1.222014,13.67371 1.222014,13.67371 z"
                 id="path21"
                 sodipodi:nodetypes="cssscc" />
              <g
                 id="g28">
                <path
                   style="fill:none;stroke:#000000;stroke-width:0.3;stroke-linecap:round;stroke-dasharray:none"
                   d="m 76.876414,97.775709 c 0,0 1.544196,-1.035312 2.649702,-2.017983 1.105503,-0.98267 2.57951,-2.73744 2.57951,-2.73744"
                   id="path22" />
                <path
                   style="fill:none;stroke:#000000;stroke-width:0.3;stroke-linecap:round;stroke-dasharray:none"
                   d="m 76.830882,101.29963 c 0,0 2.829044,-1.836396 4.119486,-2.928307 1.290439,-1.091912 3.871322,-3.275735 3.871322,-3.275735"
                   id="path23" />
                <path
                   style="fill:none;stroke:#000000;stroke-width:0.3;stroke-linecap:round;stroke-dasharray:none"
                   d="m 76.781249,105.27022 c 0,0 2.928308,-1.8364 5.012867,-3.42463 2.08456,-1.58824 4.814338,-4.16912 4.814338,-4.16912"
                   id="path24"
                   sodipodi:nodetypes="csc" />
                <path
                   style="fill:none;stroke:#000000;stroke-width:0.3;stroke-linecap:round;stroke-dasharray:none"
                   d="m 76.880513,94.227022 2.680147,-2.33272"
                   id="path25" />
                <path
                   style="fill:none;stroke:#000000;stroke-width:0.3;stroke-linecap:round;stroke-dasharray:none"
                   d="m 76.756434,108.74448 c 0,0 3.623161,-1.6875 6.22886,-3.49908 2.605699,-1.81158 6.079962,-5.2362 6.079962,-5.2362"
                   id="path26"
                   sodipodi:nodetypes="csc" />
                <path
                   style="fill:none;stroke:#000000;stroke-width:0.3;stroke-linecap:round;stroke-dasharray:none"
                   d="m 76.753581,112.58596 c 0,0 3.438616,-1.52364 7.05417,-4.07107 3.364993,-2.37089 5.931117,-5.08883 5.931117,-5.08883"
                   id="path27"
                   sodipodi:nodetypes="csc" />
                <path
                   style="fill:none;stroke:#000000;stroke-width:0.3;stroke-linecap:round;stroke-dasharray:none"
                   d="m 76.753581,115.81473 c 0,0 2.986699,-1.29325 5.580163,-2.94801 2.750215,-1.75477 5.31695,-3.8254 5.31695,-3.8254"
                   id="path28"
                   sodipodi:nodetypes="csc" />
              </g>
              <g
                 id="g35"
                 inkscape:transform-center-x="6.3171703"
                 inkscape:transform-center-y="1.5137868"
                 transform="matrix(-1,0,0,1,153.85811,0)">
                <path
                   style="fill:none;stroke:#000000;stroke-width:0.3;stroke-linecap:round;stroke-dasharray:none"
                   d="m 77.025569,97.766054 c 0,0 1.395041,-1.025657 2.500547,-2.008328 1.105503,-0.98267 2.57951,-2.73744 2.57951,-2.73744"
                   id="path29"
                   sodipodi:nodetypes="csc" />
                <path
                   style="fill:none;stroke:#000000;stroke-width:0.3;stroke-linecap:round;stroke-dasharray:none"
                   d="m 77.131321,101.32844 c 0,0 2.528605,-1.865206 3.819047,-2.957117 1.290439,-1.091912 3.871322,-3.275735 3.871322,-3.275735"
                   id="path30"
                   sodipodi:nodetypes="csc" />
                <path
                   style="fill:none;stroke:#000000;stroke-width:0.3;stroke-linecap:round;stroke-dasharray:none"
                   d="m 77.195748,105.33839 c 0,0 2.513809,-1.90457 4.598368,-3.4928 2.08456,-1.58824 4.814338,-4.16912 4.814338,-4.16912"
                   id="path31"
                   sodipodi:nodetypes="csc" />
                <path
                   style="fill:none;stroke:#000000;stroke-width:0.3;stroke-linecap:round;stroke-dasharray:none"
                   d="M 76.977025,94.187411 79.56066,91.894302"
                   id="path32"
                   sodipodi:nodetypes="cc" />
                <path
                   style="fill:none;stroke:#000000;stroke-width:0.3;stroke-linecap:round;stroke-dasharray:none"
                   d="m 77.216308,108.67767 c 0,0 3.163287,-1.62069 5.768986,-3.43227 2.605699,-1.81158 6.079962,-5.2362 6.079962,-5.2362"
                   id="path33"
                   sodipodi:nodetypes="csc" />
                <path
                   style="fill:none;stroke:#000000;stroke-width:0.3;stroke-linecap:round;stroke-dasharray:none"
                   d="m 77.180488,112.58783 c 0,0 3.011709,-1.52551 6.627263,-4.07294 3.364993,-2.37089 5.931117,-5.08883 5.931117,-5.08883"
                   id="path34"
                   sodipodi:nodetypes="csc" />
                <path
                   style="fill:none;stroke:#000000;stroke-width:0.3;stroke-linecap:round;stroke-dasharray:none"
                   d="m 77.090359,115.77438 c 0,0 2.649921,-1.2529 5.243385,-2.90766 2.750215,-1.75477 5.31695,-3.8254 5.31695,-3.8254"
                   id="path35"
                   sodipodi:nodetypes="csc" />
              </g>
            </g>
            <path
               style="fill:#009d00;fill-opacity:1;stroke:none;stroke-width:0.3;stroke-linecap:round;stroke-dasharray:none"
               d="m 45.945021,122.79044 c 0,0 -0.351184,-7.24093 -0.426133,-10.05782 -0.02147,-0.8071 0.08774,-6.84643 0.08774,-6.84643 0,0 0.265921,9.79306 0.317685,10.83929 0.123813,2.50247 0.765194,6.7187 0.765194,6.7187 z"
               id="path36"
               sodipodi:nodetypes="cscscc" />
          </g>
          <path
             style="fill:#009d00;fill-opacity:1;stroke:#000000;stroke-width:0.3;stroke-linecap:round;stroke-dasharray:none"
             d="m 69.962627,116.35871 c 0,0 1.122321,0.15014 2.334723,0.69713 0.967145,0.43634 1.946913,1.42614 2.420699,1.75955 0.473787,0.3334 1.985018,0.94243 1.985018,0.94243 l 0.01028,1.17798 c 0,0 -1.047356,-0.61557 -1.503595,-0.94898 -0.45624,-0.33341 -1.246253,-0.82048 -1.246253,-0.82048 0,0 -2.239716,0.52092 -4.654757,0.47981 -2.022569,-0.0344 -3.509174,-1.17092 -3.509174,-1.17092 l 0.03935,-0.7478 c 0,0 2.043168,1.24287 3.464531,1.24287 1.421363,0 3.423898,-0.0256 3.619079,-0.39118 0.172697,-0.32342 -0.408584,-0.74853 -1.680533,-1.21329 -1.095768,-0.40038 -1.347432,-0.37364 -1.347432,-0.37364 z"
             id="path37"
             sodipodi:nodetypes="cssccscsccssscc" />
          <g
             id="g39">
            <ellipse
               style="fill:#009d00;fill-opacity:1;stroke:#000000;stroke-width:0.3;stroke-linecap:round;stroke-dasharray:none"
               id="ellipse37"
               cx="63.13982"
               cy="118.21611"
               rx="2.7670035"
               ry="1.8736213" />
            <ellipse
               style="fill:#009d00;fill-opacity:1;stroke:#000000;stroke-width:0.3;stroke-linecap:round;stroke-dasharray:none"
               id="ellipse38"
               cx="132.02057"
               cy="23.444742"
               rx="2.7670035"
               ry="1.8736213"
               transform="rotate(49.621763)" />
            <ellipse
               style="fill:#009d00;fill-opacity:1;stroke:#000000;stroke-width:0.3;stroke-linecap:round;stroke-dasharray:none"
               id="ellipse39"
               cx="126.86217"
               cy="26.856699"
               rx="2.7670035"
               ry="1.8736213"
               transform="rotate(48.944611)" />
          </g>
        </g>
        <path
           style="fill:#009d00;fill-opacity:1;stroke:#000000;stroke-width:0.3;stroke-linecap:round;stroke-dasharray:none"
           d="m 69.962627,116.35871 c 0,0 1.122321,0.15014 2.334723,0.69713 0.967145,0.43634 1.946913,1.42614 2.420699,1.75955 0.473787,0.3334 1.985018,0.94243 1.985018,0.94243 l 0.01028,1.17798 c 0,0 -1.047356,-0.61557 -1.503595,-0.94898 -0.45624,-0.33341 -1.246253,-0.82048 -1.246253,-0.82048 0,0 -2.239716,0.52092 -4.654757,0.47981 -2.022569,-0.0344 -3.509174,-1.17092 -3.509174,-1.17092 l 0.03935,-0.7478 c 0,0 2.043168,1.24287 3.464531,1.24287 1.421363,0 3.423898,-0.0256 3.619079,-0.39118 0.172697,-0.32342 -0.408584,-0.74853 -1.680533,-1.21329 -1.095768,-0.40038 -1.347432,-0.37364 -1.347432,-0.37364 z"
           id="path77"
           sodipodi:nodetypes="cssccscsccssscc" />
        <g
           id="g77"
           transform="translate(31.071837,0.68560685)">
          <g
             id="g76"
             transform="translate(-31.02431,-0.70190745)">
            <path
               id="path60"
               style="fill:#009d00;fill-opacity:1;stroke:#000000;stroke-width:0.3;stroke-linecap:round;stroke-dasharray:none"
               d="m 76.929154,90.33092 c 0,0 -0.584284,0.215962 -1.649511,0.769462 -1.06038,0.550982 -1.501074,1.240752 -1.774052,1.240752 0,0 -0.471691,-0.06204 -0.719853,0 -0.264827,0.06621 -1.265774,0.8189 -1.910994,1.191141 -0.64522,0.372243 -1.811076,1.538282 -2.208134,1.811259 -0.397058,0.272978 -1.563603,2.717538 -1.836581,2.990515 -0.272977,0.272979 -1.166337,0.424264 -1.166337,0.424264 0,0 -3.902394,3.131297 0.420646,10.107397 5.980236,9.65031 10.844816,8.84442 10.844816,8.84442 0,0 4.864064,0.80589 10.8443,-8.84442 4.32304,-6.9761 0.421163,-10.107397 0.421163,-10.107397 0,0 -0.89336,-0.151285 -1.166337,-0.424264 -0.272978,-0.272977 -1.439523,-2.717537 -1.836581,-2.990515 -0.397058,-0.272977 -1.563431,-1.439016 -2.20865,-1.811259 -0.645221,-0.372241 -1.646168,-1.124934 -1.910995,-1.191141 -0.248162,-0.06204 -0.719336,0 -0.719336,0 -0.272978,0 -0.714189,-0.68977 -1.774569,-1.240752 -1.065227,-0.5535 -1.648995,-0.769462 -1.648995,-0.769462 z" />
            <path
               style="fill:#000000;stroke:none;stroke-width:0.3;stroke-linecap:round;stroke-dasharray:none"
               d="m 76.68339,123.78138 c 0,0 -0.520782,-10.62564 -0.371885,-16.82969 0.148897,-6.20404 0.465896,-16.471083 0.618641,-16.471912 0.350677,-0.0019 -0.03137,14.825372 -0.01027,20.806242 0.02433,6.89777 1.222014,13.67371 1.222014,13.67371 z"
               id="path61"
               sodipodi:nodetypes="cssscc" />
            <g
               id="g68">
              <path
                 style="fill:none;stroke:#000000;stroke-width:0.3;stroke-linecap:round;stroke-dasharray:none"
                 d="m 76.876414,97.775709 c 0,0 1.544196,-1.035312 2.649702,-2.017983 1.105503,-0.98267 2.57951,-2.73744 2.57951,-2.73744"
                 id="path62" />
              <path
                 style="fill:none;stroke:#000000;stroke-width:0.3;stroke-linecap:round;stroke-dasharray:none"
                 d="m 76.830882,101.29963 c 0,0 2.829044,-1.836396 4.119486,-2.928307 1.290439,-1.091912 3.871322,-3.275735 3.871322,-3.275735"
                 id="path63" />
              <path
                 style="fill:none;stroke:#000000;stroke-width:0.3;stroke-linecap:round;stroke-dasharray:none"
                 d="m 76.781249,105.27022 c 0,0 2.928308,-1.8364 5.012867,-3.42463 2.08456,-1.58824 4.814338,-4.16912 4.814338,-4.16912"
                 id="path64"
                 sodipodi:nodetypes="csc" />
              <path
                 style="fill:none;stroke:#000000;stroke-width:0.3;stroke-linecap:round;stroke-dasharray:none"
                 d="m 76.880513,94.227022 2.680147,-2.33272"
                 id="path65" />
              <path
                 style="fill:none;stroke:#000000;stroke-width:0.3;stroke-linecap:round;stroke-dasharray:none"
                 d="m 76.756434,108.74448 c 0,0 3.623161,-1.6875 6.22886,-3.49908 2.605699,-1.81158 6.079962,-5.2362 6.079962,-5.2362"
                 id="path66"
                 sodipodi:nodetypes="csc" />
              <path
                 style="fill:none;stroke:#000000;stroke-width:0.3;stroke-linecap:round;stroke-dasharray:none"
                 d="m 76.753581,112.58596 c 0,0 3.438616,-1.52364 7.05417,-4.07107 3.364993,-2.37089 5.931117,-5.08883 5.931117,-5.08883"
                 id="path67"
                 sodipodi:nodetypes="csc" />
              <path
                 style="fill:none;stroke:#000000;stroke-width:0.3;stroke-linecap:round;stroke-dasharray:none"
                 d="m 76.753581,115.81473 c 0,0 2.986699,-1.29325 5.580163,-2.94801 2.750215,-1.75477 5.31695,-3.8254 5.31695,-3.8254"
                 id="path68"
                 sodipodi:nodetypes="csc" />
            </g>
            <g
               id="g75"
               inkscape:transform-center-x="6.3171703"
               inkscape:transform-center-y="1.5137868"
               transform="matrix(-1,0,0,1,153.85811,0)">
              <path
                 style="fill:none;stroke:#000000;stroke-width:0.3;stroke-linecap:round;stroke-dasharray:none"
                 d="m 77.025569,97.766054 c 0,0 1.395041,-1.025657 2.500547,-2.008328 1.105503,-0.98267 2.57951,-2.73744 2.57951,-2.73744"
                 id="path69"
                 sodipodi:nodetypes="csc" />
              <path
                 style="fill:none;stroke:#000000;stroke-width:0.3;stroke-linecap:round;stroke-dasharray:none"
                 d="m 77.131321,101.32844 c 0,0 2.528605,-1.865206 3.819047,-2.957117 1.290439,-1.091912 3.871322,-3.275735 3.871322,-3.275735"
                 id="path70"
                 sodipodi:nodetypes="csc" />
              <path
                 style="fill:none;stroke:#000000;stroke-width:0.3;stroke-linecap:round;stroke-dasharray:none"
                 d="m 77.195748,105.33839 c 0,0 2.513809,-1.90457 4.598368,-3.4928 2.08456,-1.58824 4.814338,-4.16912 4.814338,-4.16912"
                 id="path71"
                 sodipodi:nodetypes="csc" />
              <path
                 style="fill:none;stroke:#000000;stroke-width:0.3;stroke-linecap:round;stroke-dasharray:none"
                 d="M 76.977025,94.187411 79.56066,91.894302"
                 id="path72"
                 sodipodi:nodetypes="cc" />
              <path
                 style="fill:none;stroke:#000000;stroke-width:0.3;stroke-linecap:round;stroke-dasharray:none"
                 d="m 77.216308,108.67767 c 0,0 3.163287,-1.62069 5.768986,-3.43227 2.605699,-1.81158 6.079962,-5.2362 6.079962,-5.2362"
                 id="path73"
                 sodipodi:nodetypes="csc" />
              <path
                 style="fill:none;stroke:#000000;stroke-width:0.3;stroke-linecap:round;stroke-dasharray:none"
                 d="m 77.180488,112.58783 c 0,0 3.011709,-1.52551 6.627263,-4.07294 3.364993,-2.37089 5.931117,-5.08883 5.931117,-5.08883"
                 id="path74"
                 sodipodi:nodetypes="csc" />
              <path
                 style="fill:none;stroke:#000000;stroke-width:0.3;stroke-linecap:round;stroke-dasharray:none"
                 d="m 77.090359,115.77438 c 0,0 2.649921,-1.2529 5.243385,-2.90766 2.750215,-1.75477 5.31695,-3.8254 5.31695,-3.8254"
                 id="path75"
                 sodipodi:nodetypes="csc" />
            </g>
          </g>
          <path
             style="fill:#009d00;fill-opacity:1;stroke:none;stroke-width:0.3;stroke-linecap:round;stroke-dasharray:none"
             d="m 45.945021,122.79044 c 0,0 -0.351184,-7.24093 -0.426133,-10.05782 -0.02147,-0.8071 0.08774,-6.84643 0.08774,-6.84643 0,0 0.265921,9.79306 0.317685,10.83929 0.123813,2.50247 0.765194,6.7187 0.765194,6.7187 z"
             id="path76"
             sodipodi:nodetypes="cscscc" />
        </g>
        <ellipse
           style="fill:#009d00;fill-opacity:1;stroke:#000000;stroke-width:0.3;stroke-linecap:round;stroke-dasharray:none"
           id="ellipse77"
           cx="63.13982"
           cy="118.21611"
           rx="2.7670035"
           ry="1.8736213" />
        <ellipse
           style="fill:#009d00;fill-opacity:1;stroke:#000000;stroke-width:0.3;stroke-linecap:round;stroke-dasharray:none"
           id="ellipse78"
           cx="132.02057"
           cy="23.444742"
           rx="2.7670035"
           ry="1.8736213"
           transform="rotate(49.621763)" />
        <ellipse
           style="fill:#009d00;fill-opacity:1;stroke:#000000;stroke-width:0.3;stroke-linecap:round;stroke-dasharray:none"
           id="ellipse79"
           cx="126.86217"
           cy="26.856699"
           rx="2.7670035"
           ry="1.8736213"
           transform="rotate(48.944611)" />
        <g
           id="g104"
           transform="matrix(-1,0,0,1,210.12941,0)">
          <path
             style="fill:#009d00;fill-opacity:1;stroke:#000000;stroke-width:0.3;stroke-linecap:round;stroke-dasharray:none"
             d="m 69.962627,116.35871 c 0,0 1.122321,0.15014 2.334723,0.69713 0.967145,0.43634 1.946913,1.42614 2.420699,1.75955 0.473787,0.3334 1.985018,0.94243 1.985018,0.94243 l 0.01028,1.17798 c 0,0 -1.047356,-0.61557 -1.503595,-0.94898 -0.45624,-0.33341 -1.246253,-0.82048 -1.246253,-0.82048 0,0 -2.239716,0.52092 -4.654757,0.47981 -2.022569,-0.0344 -3.509174,-1.17092 -3.509174,-1.17092 l 0.03935,-0.7478 c 0,0 2.043168,1.24287 3.464531,1.24287 1.421363,0 3.423898,-0.0256 3.619079,-0.39118 0.172697,-0.32342 -0.408584,-0.74853 -1.680533,-1.21329 -1.095768,-0.40038 -1.347432,-0.37364 -1.347432,-0.37364 z"
             id="path101"
             sodipodi:nodetypes="cssccscsccssscc" />
          <g
             id="g103">
            <ellipse
               style="fill:#009d00;fill-opacity:1;stroke:#000000;stroke-width:0.3;stroke-linecap:round;stroke-dasharray:none"
               id="ellipse101"
               cx="63.13982"
               cy="118.21611"
               rx="2.7670035"
               ry="1.8736213" />
            <ellipse
               style="fill:#009d00;fill-opacity:1;stroke:#000000;stroke-width:0.3;stroke-linecap:round;stroke-dasharray:none"
               id="ellipse102"
               cx="132.02057"
               cy="23.444742"
               rx="2.7670035"
               ry="1.8736213"
               transform="rotate(49.621763)" />
            <ellipse
               style="fill:#009d00;fill-opacity:1;stroke:#000000;stroke-width:0.3;stroke-linecap:round;stroke-dasharray:none"
               id="ellipse103"
               cx="126.86217"
               cy="26.856699"
               rx="2.7670035"
               ry="1.8736213"
               transform="rotate(48.944611)" />
          </g>
        </g>
        <g
           id="g100"
           transform="translate(56.09167)">
          <g
             id="g97"
             transform="translate(31.071837,0.68560685)">
            <g
               id="g96"
               transform="translate(-31.02431,-0.70190745)">
              <path
                 id="path80"
                 style="fill:#009d00;fill-opacity:1;stroke:#000000;stroke-width:0.3;stroke-linecap:round;stroke-dasharray:none"
                 d="m 76.929154,90.33092 c 0,0 -0.584284,0.215962 -1.649511,0.769462 -1.06038,0.550982 -1.501074,1.240752 -1.774052,1.240752 0,0 -0.471691,-0.06204 -0.719853,0 -0.264827,0.06621 -1.265774,0.8189 -1.910994,1.191141 -0.64522,0.372243 -1.811076,1.538282 -2.208134,1.811259 -0.397058,0.272978 -1.563603,2.717538 -1.836581,2.990515 -0.272977,0.272979 -1.166337,0.424264 -1.166337,0.424264 0,0 -3.902394,3.131297 0.420646,10.107397 5.980236,9.65031 10.844816,8.84442 10.844816,8.84442 0,0 4.864064,0.80589 10.8443,-8.84442 4.32304,-6.9761 0.421163,-10.107397 0.421163,-10.107397 0,0 -0.89336,-0.151285 -1.166337,-0.424264 -0.272978,-0.272977 -1.439523,-2.717537 -1.836581,-2.990515 -0.397058,-0.272977 -1.563431,-1.439016 -2.20865,-1.811259 -0.645221,-0.372241 -1.646168,-1.124934 -1.910995,-1.191141 -0.248162,-0.06204 -0.719336,0 -0.719336,0 -0.272978,0 -0.714189,-0.68977 -1.774569,-1.240752 -1.065227,-0.5535 -1.648995,-0.769462 -1.648995,-0.769462 z" />
              <path
                 style="fill:#000000;stroke:none;stroke-width:0.3;stroke-linecap:round;stroke-dasharray:none"
                 d="m 76.68339,123.78138 c 0,0 -0.520782,-10.62564 -0.371885,-16.82969 0.148897,-6.20404 0.465896,-16.471083 0.618641,-16.471912 0.350677,-0.0019 -0.03137,14.825372 -0.01027,20.806242 0.02433,6.89777 1.222014,13.67371 1.222014,13.67371 z"
                 id="path81"
                 sodipodi:nodetypes="cssscc" />
              <g
                 id="g88">
                <path
                   style="fill:none;stroke:#000000;stroke-width:0.3;stroke-linecap:round;stroke-dasharray:none"
                   d="m 76.876414,97.775709 c 0,0 1.544196,-1.035312 2.649702,-2.017983 1.105503,-0.98267 2.57951,-2.73744 2.57951,-2.73744"
                   id="path82" />
                <path
                   style="fill:none;stroke:#000000;stroke-width:0.3;stroke-linecap:round;stroke-dasharray:none"
                   d="m 76.830882,101.29963 c 0,0 2.829044,-1.836396 4.119486,-2.928307 1.290439,-1.091912 3.871322,-3.275735 3.871322,-3.275735"
                   id="path83" />
                <path
                   style="fill:none;stroke:#000000;stroke-width:0.3;stroke-linecap:round;stroke-dasharray:none"
                   d="m 76.781249,105.27022 c 0,0 2.928308,-1.8364 5.012867,-3.42463 2.08456,-1.58824 4.814338,-4.16912 4.814338,-4.16912"
                   id="path84"
                   sodipodi:nodetypes="csc" />
                <path
                   style="fill:none;stroke:#000000;stroke-width:0.3;stroke-linecap:round;stroke-dasharray:none"
                   d="m 76.880513,94.227022 2.680147,-2.33272"
                   id="path85" />
                <path
                   style="fill:none;stroke:#000000;stroke-width:0.3;stroke-linecap:round;stroke-dasharray:none"
                   d="m 76.756434,108.74448 c 0,0 3.623161,-1.6875 6.22886,-3.49908 2.605699,-1.81158 6.079962,-5.2362 6.079962,-5.2362"
                   id="path86"
                   sodipodi:nodetypes="csc" />
                <path
                   style="fill:none;stroke:#000000;stroke-width:0.3;stroke-linecap:round;stroke-dasharray:none"
                   d="m 76.753581,112.58596 c 0,0 3.438616,-1.52364 7.05417,-4.07107 3.364993,-2.37089 5.931117,-5.08883 5.931117,-5.08883"
                   id="path87"
                   sodipodi:nodetypes="csc" />
                <path
                   style="fill:none;stroke:#000000;stroke-width:0.3;stroke-linecap:round;stroke-dasharray:none"
                   d="m 76.753581,115.81473 c 0,0 2.986699,-1.29325 5.580163,-2.94801 2.750215,-1.75477 5.31695,-3.8254 5.31695,-3.8254"
                   id="path88"
                   sodipodi:nodetypes="csc" />
              </g>
              <g
                 id="g95"
                 inkscape:transform-center-x="6.3171703"
                 inkscape:transform-center-y="1.5137868"
                 transform="matrix(-1,0,0,1,153.85811,0)">
                <path
                   style="fill:none;stroke:#000000;stroke-width:0.3;stroke-linecap:round;stroke-dasharray:none"
                   d="m 77.025569,97.766054 c 0,0 1.395041,-1.025657 2.500547,-2.008328 1.105503,-0.98267 2.57951,-2.73744 2.57951,-2.73744"
                   id="path89"
                   sodipodi:nodetypes="csc" />
                <path
                   style="fill:none;stroke:#000000;stroke-width:0.3;stroke-linecap:round;stroke-dasharray:none"
                   d="m 77.131321,101.32844 c 0,0 2.528605,-1.865206 3.819047,-2.957117 1.290439,-1.091912 3.871322,-3.275735 3.871322,-3.275735"
                   id="path90"
                   sodipodi:nodetypes="csc" />
                <path
                   style="fill:none;stroke:#000000;stroke-width:0.3;stroke-linecap:round;stroke-dasharray:none"
                   d="m 77.195748,105.33839 c 0,0 2.513809,-1.90457 4.598368,-3.4928 2.08456,-1.58824 4.814338,-4.16912 4.814338,-4.16912"
                   id="path91"
                   sodipodi:nodetypes="csc" />
                <path
                   style="fill:none;stroke:#000000;stroke-width:0.3;stroke-linecap:round;stroke-dasharray:none"
                   d="M 76.977025,94.187411 79.56066,91.894302"
                   id="path92"
                   sodipodi:nodetypes="cc" />
                <path
                   style="fill:none;stroke:#000000;stroke-width:0.3;stroke-linecap:round;stroke-dasharray:none"
                   d="m 77.216308,108.67767 c 0,0 3.163287,-1.62069 5.768986,-3.43227 2.605699,-1.81158 6.079962,-5.2362 6.079962,-5.2362"
                   id="path93"
                   sodipodi:nodetypes="csc" />
                <path
                   style="fill:none;stroke:#000000;stroke-width:0.3;stroke-linecap:round;stroke-dasharray:none"
                   d="m 77.180488,112.58783 c 0,0 3.011709,-1.52551 6.627263,-4.07294 3.364993,-2.37089 5.931117,-5.08883 5.931117,-5.08883"
                   id="path94"
                   sodipodi:nodetypes="csc" />
                <path
                   style="fill:none;stroke:#000000;stroke-width:0.3;stroke-linecap:round;stroke-dasharray:none"
                   d="m 77.090359,115.77438 c 0,0 2.649921,-1.2529 5.243385,-2.90766 2.750215,-1.75477 5.31695,-3.8254 5.31695,-3.8254"
                   id="path95"
                   sodipodi:nodetypes="csc" />
              </g>
            </g>
            <path
               style="fill:#009d00;fill-opacity:1;stroke:none;stroke-width:0.3;stroke-linecap:round;stroke-dasharray:none"
               d="m 45.945021,122.79044 c 0,0 -0.351184,-7.24093 -0.426133,-10.05782 -0.02147,-0.8071 0.08774,-6.84643 0.08774,-6.84643 0,0 0.265921,9.79306 0.317685,10.83929 0.123813,2.50247 0.765194,6.7187 0.765194,6.7187 z"
               id="path96"
               sodipodi:nodetypes="cscscc" />
          </g>
          <path
             style="fill:#009d00;fill-opacity:1;stroke:#000000;stroke-width:0.3;stroke-linecap:round;stroke-dasharray:none"
             d="m 69.962627,116.35871 c 0,0 1.122321,0.15014 2.334723,0.69713 0.967145,0.43634 1.946913,1.42614 2.420699,1.75955 0.473787,0.3334 1.985018,0.94243 1.985018,0.94243 l 0.01028,1.17798 c 0,0 -1.047356,-0.61557 -1.503595,-0.94898 -0.45624,-0.33341 -1.246253,-0.82048 -1.246253,-0.82048 0,0 -2.239716,0.52092 -4.654757,0.47981 -2.022569,-0.0344 -3.509174,-1.17092 -3.509174,-1.17092 l 0.03935,-0.7478 c 0,0 2.043168,1.24287 3.464531,1.24287 1.421363,0 3.423898,-0.0256 3.619079,-0.39118 0.172697,-0.32342 -0.408584,-0.74853 -1.680533,-1.21329 -1.095768,-0.40038 -1.347432,-0.37364 -1.347432,-0.37364 z"
             id="path97"
             sodipodi:nodetypes="cssccscsccssscc" />
          <g
             id="g99">
            <ellipse
               style="fill:#009d00;fill-opacity:1;stroke:#000000;stroke-width:0.3;stroke-linecap:round;stroke-dasharray:none"
               id="ellipse97"
               cx="63.13982"
               cy="118.21611"
               rx="2.7670035"
               ry="1.8736213" />
            <ellipse
               style="fill:#009d00;fill-opacity:1;stroke:#000000;stroke-width:0.3;stroke-linecap:round;stroke-dasharray:none"
               id="ellipse98"
               cx="132.02057"
               cy="23.444742"
               rx="2.7670035"
               ry="1.8736213"
               transform="rotate(49.621763)" />
            <ellipse
               style="fill:#009d00;fill-opacity:1;stroke:#000000;stroke-width:0.3;stroke-linecap:round;stroke-dasharray:none"
               id="ellipse99"
               cx="126.86217"
               cy="26.856699"
               rx="2.7670035"
               ry="1.8736213"
               transform="rotate(48.944611)" />
          </g>
        </g>
      </g>
      <g
         id="g122"
         transform="translate(-0.79036268,0.86331893)">
        <g
           id="g121">
          <rect
             style="fill:#ff0000;fill-opacity:1;stroke:#000000;stroke-width:0.4;stroke-linecap:round;stroke-dasharray:none"
             id="rect114"
             width="3.2287743"
             height="23.935043"
             x="103.53135"
             y="133.2868" />
          <rect
             style="fill:#ff0000;fill-opacity:1;stroke:#000000;stroke-width:0.4;stroke-linecap:round;stroke-dasharray:none"
             id="rect115"
             width="3.2287743"
             height="23.935043"
             x="188.27899"
             y="11.077604"
             inkscape:transform-center-x="-12.833801"
             inkscape:transform-center-y="-12.833799"
             transform="rotate(45)" />
          <rect
             style="fill:#ff0000;fill-opacity:1;stroke:#000000;stroke-width:0.4;stroke-linecap:round;stroke-dasharray:none"
             id="rect116"
             width="3.2287743"
             height="23.935043"
             x="161.78967"
             y="-135.26299"
             inkscape:transform-center-x="-18.149734"
             transform="rotate(90)" />
          <rect
             style="fill:#ff0000;fill-opacity:1;stroke:#000000;stroke-width:0.4;stroke-linecap:round;stroke-dasharray:none"
             id="rect117"
             width="3.2287743"
             height="23.935043"
             x="39.580475"
             y="-220.01064"
             inkscape:transform-center-x="-12.833801"
             transform="rotate(135)"
             inkscape:transform-center-y="12.833803" />
          <rect
             style="fill:#ff0000;fill-opacity:1;stroke:#000000;stroke-width:0.4;stroke-linecap:round;stroke-dasharray:none"
             id="rect118"
             width="3.2287743"
             height="23.935043"
             x="-106.76012"
             y="-193.52132"
             transform="scale(-1)"
             inkscape:transform-center-y="18.149735" />
          <rect
             style="fill:#ff0000;fill-opacity:1;stroke:#000000;stroke-width:0.4;stroke-linecap:round;stroke-dasharray:none"
             id="rect119"
             width="3.2287743"
             height="23.935043"
             x="-191.50777"
             y="-71.312119"
             transform="rotate(-135)"
             inkscape:transform-center-y="12.833803"
             inkscape:transform-center-x="12.8338" />
          <rect
             style="fill:#ff0000;fill-opacity:1;stroke:#000000;stroke-width:0.4;stroke-linecap:round;stroke-dasharray:none"
             id="rect120"
             width="3.2287743"
             height="23.935043"
             x="-165.01845"
             y="75.028473"
             transform="rotate(-90)"
             inkscape:transform-center-x="18.149735" />
          <rect
             style="fill:#ff0000;fill-opacity:1;stroke:#000000;stroke-width:0.4;stroke-linecap:round;stroke-dasharray:none"
             id="rect121"
             width="3.2287743"
             height="23.935043"
             x="-42.80925"
             y="159.77612"
             transform="rotate(-45)"
             inkscape:transform-center-x="12.833801"
             inkscape:transform-center-y="-12.833798" />
        </g>
        <path
           id="path107"
           style="fill:#ff0000;fill-opacity:1;stroke:#000000;stroke-width:0.4;stroke-linecap:round;stroke-dasharray:none"
           d="m 105.14552,126.62431 a 36.779949,36.779949 0 0 0 -36.779667,36.77967 36.779949,36.779949 0 0 0 36.779667,36.78018 36.779949,36.779949 0 0 0 36.78018,-36.78018 36.779949,36.779949 0 0 0 -36.78018,-36.77967 z m 0,8.84391 a 27.935915,27.935915 0 0 1 27.93628,27.93576 27.935915,27.935915 0 0 1 -27.93628,27.93576 27.935915,27.935915 0 0 1 -27.935763,-27.93576 27.935915,27.935915 0 0 1 27.935763,-27.93576 z" />
        <circle
           style="fill:#ff0000;fill-opacity:1;stroke:#000000;stroke-width:0.4;stroke-linecap:round;stroke-dasharray:none"
           id="circle109"
           cx="105.14574"
           cy="163.40407"
           r="8.9844141" />
        <circle
           style="fill:none;fill-opacity:1;stroke:#000000;stroke-width:0.4;stroke-linecap:round;stroke-dasharray:none"
           id="circle110"
           cx="105.14574"
           cy="163.40407"
           r="7.5891147" />
        <circle
           style="fill:none;fill-opacity:1;stroke:#000000;stroke-width:0.4;stroke-linecap:round;stroke-dasharray:none"
           id="circle111"
           cx="105.14574"
           cy="163.40407"
           r="4.7729692" />
        <circle
           style="fill:#ffff00;fill-opacity:1;stroke:#000000;stroke-width:0.4;stroke-linecap:round;stroke-dasharray:none"
           id="circle112"
           cx="105.14574"
           cy="163.40407"
           r="3.2638681" />
        <circle
           style="fill:none;fill-opacity:1;stroke:#000000;stroke-width:0.4;stroke-linecap:round;stroke-dasharray:none"
           id="circle113"
           cx="105.14574"
           cy="163.40408"
           r="35.656898" />
        <circle
           style="fill:none;fill-opacity:1;stroke:#000000;stroke-width:0.4;stroke-linecap:round;stroke-dasharray:none"
           id="circle114"
           cx="105.14574"
           cy="163.40408"
           r="29.058968" />
      </g>
    </g>
  </g>
</svg>
