<?xml version="1.0" encoding="UTF-8" standalone="no"?>
<!-- Created with Inkscape (http://www.inkscape.org/) -->
<svg
   xmlns:dc="http://purl.org/dc/elements/1.1/"
   xmlns:cc="http://creativecommons.org/ns#"
   xmlns:rdf="http://www.w3.org/1999/02/22-rdf-syntax-ns#"
   xmlns:svg="http://www.w3.org/2000/svg"
   xmlns="http://www.w3.org/2000/svg"
   xmlns:xlink="http://www.w3.org/1999/xlink"
   xmlns:sodipodi="http://sodipodi.sourceforge.net/DTD/sodipodi-0.dtd"
   xmlns:inkscape="http://www.inkscape.org/namespaces/inkscape"
   width="500"
   height="627.35999"
   id="svg2"
   sodipodi:version="0.32"
   inkscape:version="0.46"
   version="1.0"
   sodipodi:docname="Wappen Prilly.svg"
   inkscape:output_extension="org.inkscape.output.svg.inkscape">
  <defs
     id="defs4">
    <inkscape:perspective
       sodipodi:type="inkscape:persp3d"
       inkscape:vp_x="0 : 526.18109 : 1"
       inkscape:vp_y="0 : 1000 : 0"
       inkscape:vp_z="744.09448 : 526.18109 : 1"
       inkscape:persp3d-origin="372.04724 : 350.78739 : 1"
       id="perspective10" />
    <inkscape:perspective
       sodipodi:type="inkscape:persp3d"
       inkscape:vp_x="0 : 420.94501 : 1"
       inkscape:vp_y="0 : 1000 : 0"
       inkscape:vp_z="595.27502 : 420.94501 : 1"
       inkscape:persp3d-origin="297.63751 : 280.63 : 1"
       id="perspective2496" />
    <radialGradient
       r="300"
       fy="579.93323"
       fx="858.04236"
       cy="579.93323"
       cx="858.04236"
       gradientTransform="matrix(1.21503,0,0,1.26667,-839.192,-490.489)"
       gradientUnits="userSpaceOnUse"
       id="radialGradient3236"
       xlink:href="#linearGradient2893"
       inkscape:collect="always" />
    <linearGradient
       id="linearGradient2955">
      <stop
         id="stop2965"
         offset="0"
         style="stop-color: white; stop-opacity: 0;" />
      <stop
         id="stop2959"
         offset="1"
         style="stop-color: black; stop-opacity: 0.645833;" />
    </linearGradient>
    <linearGradient
       id="linearGradient2893">
      <stop
         id="stop2895"
         offset="0"
         style="stop-color: rgb(255, 255, 255); stop-opacity: 0.313726;" />
      <stop
         style="stop-color: rgb(255, 255, 255); stop-opacity: 0.25098;"
         offset="0.19"
         id="stop2897" />
      <stop
         id="stop2901"
         offset="0.60000002"
         style="stop-color: rgb(107, 107, 107); stop-opacity: 0.12549;" />
      <stop
         id="stop2899"
         offset="1"
         style="stop-color: rgb(0, 0, 0); stop-opacity: 0.12549;" />
    </linearGradient>
    <inkscape:perspective
       id="perspective28"
       inkscape:persp3d-origin="301.5 : 254.33333 : 1"
       inkscape:vp_z="603 : 381.5 : 1"
       inkscape:vp_y="0 : 1000 : 0"
       inkscape:vp_x="0 : 381.5 : 1"
       sodipodi:type="inkscape:persp3d" />
    <radialGradient
       inkscape:collect="always"
       xlink:href="#linearGradient2893"
       id="radialGradient2524"
       gradientUnits="userSpaceOnUse"
       gradientTransform="matrix(1.21503,0,0,1.26667,-839.192,-490.489)"
       cx="858.04236"
       cy="579.93323"
       fx="858.04236"
       fy="579.93323"
       r="300" />
    <radialGradient
       inkscape:collect="always"
       xlink:href="#linearGradient2893"
       id="radialGradient2527"
       gradientUnits="userSpaceOnUse"
       gradientTransform="matrix(1.21503,0,0,1.26667,-1540.692,-628.19825)"
       cx="858.04236"
       cy="579.93323"
       fx="858.04236"
       fy="579.93323"
       r="300" />
  </defs>
  <sodipodi:namedview
     id="base"
     pagecolor="#ffffff"
     bordercolor="#666666"
     borderopacity="1.0"
     inkscape:pageopacity="0.0"
     inkscape:pageshadow="2"
     inkscape:zoom="0.35"
     inkscape:cx="8.5714286"
     inkscape:cy="520"
     inkscape:document-units="px"
     inkscape:current-layer="layer1"
     showgrid="false"
     inkscape:window-width="1280"
     inkscape:window-height="750"
     inkscape:window-x="-8"
     inkscape:window-y="-8" />
  <metadata
     id="metadata7">
    <rdf:RDF>
      <cc:Work
         rdf:about="">
        <dc:format>image/svg+xml</dc:format>
        <dc:type
           rdf:resource="http://purl.org/dc/dcmitype/StillImage" />
      </cc:Work>
    </rdf:RDF>
  </metadata>
  <g
     inkscape:label="Ebene 1"
     inkscape:groupmode="layer"
     id="layer1"
     transform="translate(701.5,-17.927567)">
    <g
       id="g2534"
       transform="matrix(0.7960199,0,0,0.7960199,-133.09204,137.54526)">
      <path
         d="M -699.99819,-136.20825 L -699.99819,322.66075 C -699.99819,488.97175 -565.68419,623.79175 -399.99819,623.79175 C -234.31219,623.79175 -99.99819,488.97175 -99.99819,322.66075 L -99.99819,-136.20825 L -699.99819,-136.20825 z"
         id="path2503"
         style="fill:#e20909" />
      <path
         id="path2481"
         d="M -399.99919,623.79075 C -234.31319,623.79075 -99.99919,488.97075 -99.99919,322.65975 L -99.99919,-136.20825 L -399.99919,-136.20825 L -399.99919,623.79075 L -399.99919,623.79075 z"
         style="fill:#5ab532" />
      <line
         id="line2485"
         y2="-136.20825"
         x2="-399.99921"
         y1="623.79077"
         x1="-399.99921"
         style="fill:none;stroke:#000000;stroke-width:3" />
      <path
         id="path2487"
         d="M -330.19419,379.12775 C -366.87419,379.12775 -396.67419,346.46075 -396.67419,262.21275 C -396.67419,177.96375 -339.93719,100.02075 -339.93719,40.98975 C -339.93719,-18.04125 -392.66319,-45.551252 -399.99919,-58.732252 C -407.33419,-45.550252 -460.06119,-18.04125 -460.06119,40.98975 C -460.06119,100.02075 -403.32319,177.96375 -403.32319,262.21275 C -403.32319,346.46075 -433.12419,379.12775 -469.80419,379.12775 C -506.48319,379.12775 -513.93319,363.65375 -513.93319,363.65375 C -513.93319,398.04175 -508.20219,445.03575 -469.80419,445.03575 C -445.15919,445.03575 -431.97819,420.39175 -431.97819,420.39175 C -431.97819,420.39175 -433.01019,487.10175 -399.99919,520.11475 C -366.98719,487.10175 -368.02019,420.39175 -368.02019,420.39175 C -368.02019,420.39175 -354.83819,445.03575 -330.19519,445.03575 C -291.79719,445.03575 -286.06419,398.04175 -286.06419,363.65375 C -286.06319,363.65475 -293.51519,379.12775 -330.19419,379.12775 z M -469.23019,189.42775 C -424.08719,234.57175 -442.29419,286.85675 -457.76819,308.63575 C -473.24219,330.41375 -493.30119,321.81675 -493.30119,321.81675 C -493.30119,321.81675 -485.85119,347.60775 -467.51119,347.60775 C -449.17219,347.60775 -429.11319,323.53675 -429.11319,262.21275 C -429.11319,169.94175 -492.72919,70.79175 -560.93019,70.79175 C -588.43919,70.79175 -610.79119,89.13175 -618.81419,104.60575 C -626.83819,120.07975 -629.70419,146.44275 -606.20619,177.39175 C -582.70819,208.34075 -574.97119,228.39875 -583.28219,247.31175 C -557.49119,247.31175 -553.47919,219.22875 -543.73719,196.87675 C -538.10319,183.95475 -505.62419,153.03475 -469.23019,189.42775 z M -181.18419,104.60575 C -189.20619,89.13175 -211.55919,70.79175 -239.06919,70.79175 C -307.26919,70.79175 -370.88519,169.94075 -370.88519,262.21275 C -370.88519,323.53575 -350.82519,347.60775 -332.48719,347.60775 C -314.14619,347.60775 -306.69619,321.81675 -306.69619,321.81675 C -306.69619,321.81675 -326.75519,330.41475 -342.22919,308.63575 C -357.70319,286.85675 -375.91219,234.57075 -330.76619,189.42775 C -294.37419,153.03475 -261.89419,183.95575 -256.26219,196.87775 C -246.51919,219.22975 -242.50719,247.31275 -216.71619,247.31275 C -225.02719,228.39975 -217.28919,208.34075 -193.79219,177.39275 C -170.29519,146.44375 -173.16119,120.07975 -181.18419,104.60575 z"
         stroke-miterlimit="20"
         style="fill:#fcef3c;stroke:#000000;stroke-width:3;stroke-miterlimit:20" />
      <path
         id="path2489"
         d="M -350.25319,249.03175 L -449.74519,249.03175 C -457.34219,249.03175 -463.50019,255.18975 -463.50019,262.78675 C -463.50019,270.38275 -457.34219,276.54175 -449.74519,276.54175 L -350.25319,276.54175 C -342.65719,276.54175 -336.49819,270.38275 -336.49819,262.78675 C -336.49819,255.18975 -342.65719,249.03175 -350.25319,249.03175 z"
         stroke-miterlimit="20"
         style="fill:#fcef3c;stroke:#000000;stroke-width:3;stroke-miterlimit:20" />
      <path
         style="fill:none;fill-opacity:1;stroke:#000000;stroke-width:3;stroke-miterlimit:4;stroke-dasharray:none;stroke-opacity:1"
         d="M -700,-136.20925 L -700,322.65869 C -700,488.96929 -565.68546,623.79075 -400.00007,623.79075 C -234.3146,623.79075 -100,488.96929 -100,322.65869 L -100,-136.20925 L -700,-136.20925 z"
         id="path3239" />
    </g>
  </g>
</svg>
