<?xml version="1.0" encoding="UTF-8" standalone="no"?>
<!-- Created with Inkscape (http://www.inkscape.org/) -->
<svg
   xmlns:dc="http://purl.org/dc/elements/1.1/"
   xmlns:cc="http://creativecommons.org/ns#"
   xmlns:rdf="http://www.w3.org/1999/02/22-rdf-syntax-ns#"
   xmlns:svg="http://www.w3.org/2000/svg"
   xmlns="http://www.w3.org/2000/svg"
   xmlns:sodipodi="http://sodipodi.sourceforge.net/DTD/sodipodi-0.dtd"
   xmlns:inkscape="http://www.inkscape.org/namespaces/inkscape"
   width="500"
   height="627.35999"
   id="svg2"
   sodipodi:version="0.32"
   inkscape:version="0.46"
   version="1.0"
   sodipodi:docname="Wappen St-Sulpice.svg"
   inkscape:output_extension="org.inkscape.output.svg.inkscape">
  <defs
     id="defs4">
    <inkscape:perspective
       sodipodi:type="inkscape:persp3d"
       inkscape:vp_x="0 : 526.18109 : 1"
       inkscape:vp_y="0 : 1000 : 0"
       inkscape:vp_z="744.09448 : 526.18109 : 1"
       inkscape:persp3d-origin="372.04724 : 350.78739 : 1"
       id="perspective10" />
    <inkscape:perspective
       sodipodi:type="inkscape:persp3d"
       inkscape:vp_x="0 : 420.94501 : 1"
       inkscape:vp_y="0 : 1000 : 0"
       inkscape:vp_z="595.27502 : 420.94501 : 1"
       inkscape:persp3d-origin="297.63751 : 280.63 : 1"
       id="perspective2891" />
    <linearGradient
       id="linearGradient2955">
      <stop
         id="stop2965"
         offset="0"
         style="stop-color: white; stop-opacity: 0;" />
      <stop
         id="stop2959"
         offset="1"
         style="stop-color: black; stop-opacity: 0.645833;" />
    </linearGradient>
    <linearGradient
       id="linearGradient2893">
      <stop
         id="stop2895"
         offset="0"
         style="stop-color: rgb(255, 255, 255); stop-opacity: 0.313726;" />
      <stop
         style="stop-color: rgb(255, 255, 255); stop-opacity: 0.25098;"
         offset="0.19"
         id="stop2897" />
      <stop
         id="stop2901"
         offset="0.60000002"
         style="stop-color: rgb(107, 107, 107); stop-opacity: 0.12549;" />
      <stop
         id="stop2899"
         offset="1"
         style="stop-color: rgb(0, 0, 0); stop-opacity: 0.12549;" />
    </linearGradient>
    <inkscape:perspective
       id="perspective28"
       inkscape:persp3d-origin="301.5 : 254.33333 : 1"
       inkscape:vp_z="603 : 381.5 : 1"
       inkscape:vp_y="0 : 1000 : 0"
       inkscape:vp_x="0 : 381.5 : 1"
       sodipodi:type="inkscape:persp3d" />
  </defs>
  <sodipodi:namedview
     id="base"
     pagecolor="#ffffff"
     bordercolor="#666666"
     borderopacity="1.0"
     inkscape:pageopacity="0.0"
     inkscape:pageshadow="2"
     inkscape:zoom="0.35"
     inkscape:cx="8.5714286"
     inkscape:cy="909.02714"
     inkscape:document-units="px"
     inkscape:current-layer="layer1"
     showgrid="false"
     inkscape:window-width="1280"
     inkscape:window-height="750"
     inkscape:window-x="-8"
     inkscape:window-y="-8" />
  <metadata
     id="metadata7">
    <rdf:RDF>
      <cc:Work
         rdf:about="">
        <dc:format>image/svg+xml</dc:format>
        <dc:type
           rdf:resource="http://purl.org/dc/dcmitype/StillImage" />
      </cc:Work>
    </rdf:RDF>
  </metadata>
  <g
     inkscape:label="Ebene 1"
     inkscape:groupmode="layer"
     id="layer1"
     transform="translate(660.07143,133.501)">
    <g
       id="g3015"
       transform="matrix(0.7960199,0,0,0.7960199,-124.64144,106.65686)">
      <path
         d="M -658.57143,-287.63782 L -658.57143,171.23118 C -658.57143,337.54218 -524.25743,472.36218 -358.57143,472.36218 C -192.88443,472.36218 -58.57143,337.54218 -58.57143,171.23118 L -58.57143,-287.63782 L -658.57143,-287.63782 z"
         id="path1899_10_"
         style="fill:#ffffff" />
      <path
         d="M -658.57143,-37.94982 L -658.57143,171.23118 C -658.57143,337.54218 -524.25743,472.36218 -358.57143,472.36218 C -192.88443,472.36218 -58.57143,337.54218 -58.57143,171.23118 L -58.57143,-37.94982 L -658.57143,-37.94982 z"
         id="path2472"
         style="fill:#e20909" />
      <line
         style="fill:none;stroke:#000000;stroke-width:3"
         id="line2484"
         x1="-658.57141"
         y1="-37.949818"
         x2="-58.572407"
         y2="-37.949818" />
      <rect
         id="rect2688"
         height="134.24699"
         width="448.42899"
         y="135.13617"
         x="-582.78741"
         style="fill:#ffffff;stroke:#000000;stroke-width:3" />
      <polygon
         id="polygon2690"
         points="492.19,354.489 110.884,354.489 69.42,424.319 533.654,424.319 492.19,354.489 "
         style="fill:#ffffff;stroke:#000000;stroke-width:3"
         transform="translate(-660.10943,-289.18282)" />
      <line
         id="line2696"
         y2="128.16016"
         x2="-130.59737"
         y1="128.16016"
         x1="-286.57245"
         style="fill:none;stroke:#000000;stroke-width:3" />
      <line
         id="line2698"
         y2="121.09918"
         x2="-134.79237"
         y1="121.09918"
         x1="-286.57245"
         style="fill:none;stroke:#000000;stroke-width:3" />
      <line
         id="line2700"
         y2="114.03616"
         x2="-138.98439"
         y1="114.03616"
         x1="-286.57245"
         style="fill:none;stroke:#000000;stroke-width:3" />
      <line
         id="line2702"
         y2="106.97516"
         x2="-143.17738"
         y1="106.97516"
         x1="-286.57245"
         style="fill:none;stroke:#000000;stroke-width:3" />
      <line
         id="line2704"
         y2="99.913177"
         x2="-147.37038"
         y1="99.913177"
         x1="-286.57245"
         style="fill:none;stroke:#000000;stroke-width:3" />
      <line
         id="line2706"
         y2="92.852173"
         x2="-151.56343"
         y1="92.852173"
         x1="-286.57245"
         style="fill:none;stroke:#000000;stroke-width:3" />
      <line
         id="line2708"
         y2="85.790161"
         x2="-155.75642"
         y1="85.790161"
         x1="-286.57245"
         style="fill:none;stroke:#000000;stroke-width:3" />
      <line
         id="line2710"
         y2="78.729156"
         x2="-159.94942"
         y1="78.729156"
         x1="-286.57245"
         style="fill:none;stroke:#000000;stroke-width:3" />
      <line
         id="line2712"
         y2="71.666168"
         x2="-164.14241"
         y1="71.666168"
         x1="-286.57245"
         style="fill:none;stroke:#000000;stroke-width:3" />
      <line
         id="line2716"
         y2="128.16016"
         x2="-586.54645"
         y1="128.16016"
         x1="-430.57144"
         style="fill:none;stroke:#000000;stroke-width:3" />
      <line
         id="line2718"
         y2="121.09918"
         x2="-582.35345"
         y1="121.09918"
         x1="-430.57144"
         style="fill:none;stroke:#000000;stroke-width:3" />
      <line
         id="line2720"
         y2="114.03616"
         x2="-578.1604"
         y1="114.03616"
         x1="-430.57144"
         style="fill:none;stroke:#000000;stroke-width:3" />
      <line
         id="line2722"
         y2="106.97516"
         x2="-573.96741"
         y1="106.97516"
         x1="-430.57144"
         style="fill:none;stroke:#000000;stroke-width:3" />
      <line
         id="line2724"
         y2="99.913177"
         x2="-569.77441"
         y1="99.913177"
         x1="-430.57144"
         style="fill:none;stroke:#000000;stroke-width:3" />
      <line
         id="line2726"
         y2="92.852173"
         x2="-565.58142"
         y1="92.852173"
         x1="-430.57144"
         style="fill:none;stroke:#000000;stroke-width:3" />
      <line
         id="line2728"
         y2="85.790161"
         x2="-561.38843"
         y1="85.790161"
         x1="-430.57144"
         style="fill:none;stroke:#000000;stroke-width:3" />
      <line
         id="line2730"
         y2="78.729156"
         x2="-557.1944"
         y1="78.729156"
         x1="-430.57144"
         style="fill:none;stroke:#000000;stroke-width:3" />
      <line
         id="line2732"
         y2="71.666168"
         x2="-553.0014"
         y1="71.666168"
         x1="-430.57144"
         style="fill:none;stroke:#000000;stroke-width:3" />
      <rect
         id="rect2736"
         height="131.00101"
         width="144"
         y="4.1371741"
         x="-430.57144"
         style="fill:#ffffff;stroke:#000000;stroke-width:3" />
      <line
         style="fill:none;stroke:#000000;stroke-width:3"
         x1="-430.57144"
         y1="52.314175"
         x2="-286.57245"
         y2="52.314175"
         id="line2740" />
      <path
         id="path2744"
         d="M -377.04843,15.86618 C -385.21943,15.86618 -391.84343,22.49018 -391.84343,30.66218 L -391.84343,52.31418 L -362.25243,52.31418 L -362.25243,30.66218 C -362.25343,22.49018 -368.87743,15.86618 -377.04843,15.86618 z"
         style="fill:#ffffff;stroke:#000000;stroke-width:3" />
      <path
         id="path2746"
         d="M -340.09643,15.86618 C -331.92443,15.86618 -325.30043,22.49018 -325.30043,30.66218 L -325.30043,52.31418 L -354.89243,52.31418 L -354.89243,30.66218 C -354.89243,22.49018 -348.26843,15.86618 -340.09643,15.86618 z"
         style="fill:#ffffff;stroke:#000000;stroke-width:3" />
      <path
         id="path2750"
         d="M -377.04843,24.70718 C -380.33643,24.70718 -383.00243,27.37318 -383.00243,30.66218 L -383.00243,52.31418 L -371.09343,52.31418 L -371.09343,30.66218 C -371.09443,27.37318 -373.75943,24.70718 -377.04843,24.70718 z"
         style="stroke:#000000;stroke-width:3" />
      <path
         id="path2752"
         d="M -340.09643,24.70718 C -336.80643,24.70718 -334.14143,27.37318 -334.14143,30.66218 L -334.14143,52.31418 L -346.05043,52.31418 L -346.05043,30.66218 C -346.05043,27.37318 -343.38443,24.70718 -340.09643,24.70718 z"
         style="stroke:#000000;stroke-width:3" />
      <path
         id="path2756"
         d="M -557.03543,218.02318 L -557.03543,269.38318 C -557.03543,269.38318 -543.27043,276.42018 -508.62643,276.42018 C -473.98143,276.42018 -358.57243,276.42018 -358.57243,276.42018 C -358.57243,276.42018 -243.16243,276.42018 -208.51743,276.42018 C -173.87343,276.42018 -160.10943,269.38318 -160.10943,269.38318 L -160.10943,218.02318 L -557.03543,218.02318 z"
         style="fill:#ffffff;stroke:#000000;stroke-width:3" />
      <path
         id="path2758"
         d="M -220.78843,177.90018 L -496.35743,177.90018 L -560.73543,216.15418 C -560.73543,216.15418 -543.77443,225.89718 -523.56543,225.89718 L -193.57943,225.89718 C -179.03943,225.89718 -166.18043,220.85218 -160.10943,218.02218 C -157.74343,216.91918 -156.40843,216.15418 -156.40843,216.15418 L -220.78843,177.90018 z"
         style="fill:#ffffff;stroke:#000000;stroke-width:3" />
      <path
         style="stroke:#000000;stroke-width:3"
         d="M -209.06843,239.06918 C -212.54043,239.06918 -215.35343,241.88318 -215.35343,245.35318 L -215.35343,263.06618 L -202.78343,263.06618 L -202.78343,245.35318 C -202.78343,241.88418 -205.59843,239.06918 -209.06843,239.06918 z"
         id="path2762" />
      <path
         style="stroke:#000000;stroke-width:3"
         d="M -508.07543,239.06918 C -504.60443,239.06918 -501.79143,241.88318 -501.79143,245.35318 L -501.79143,263.06618 L -514.36143,263.06618 L -514.36143,245.35318 C -514.36143,241.88418 -511.54743,239.06918 -508.07543,239.06918 z"
         id="path2764" />
      <path
         id="path2770"
         d="M -164.57643,211.30118 C -164.57643,211.30118 -178.47543,218.02318 -198.13443,218.02318 C -221.23943,218.02318 -233.96043,218.02318 -251.26743,218.02318"
         style="fill:none;stroke:#000000;stroke-width:3" />
      <path
         id="path2772"
         d="M -251.26643,209.75218 L -202.82843,209.75218 C -184.69943,209.75218 -174.91043,205.16018 -174.91043,205.16018"
         style="fill:none;stroke:#000000;stroke-width:3" />
      <path
         id="path2774"
         d="M -251.26643,201.48218 L -207.51643,201.48218 C -191.19643,201.48218 -187.20343,197.85718 -187.20343,197.85718"
         style="fill:none;stroke:#000000;stroke-width:3" />
      <path
         id="path2776"
         d="M -251.26643,193.20818 L -212.19743,193.20818 C -203.91743,193.20818 -200.82843,192.52318 -199.09443,190.79018"
         style="fill:none;stroke:#000000;stroke-width:3" />
      <path
         id="path2778"
         d="M -251.26643,184.93818 L -216.90443,184.93818 C -212.57843,184.93818 -211.22343,183.58318 -211.22343,183.58318"
         style="fill:none;stroke:#000000;stroke-width:3" />
      <path
         id="path2782"
         d="M -552.56743,211.30118 C -552.56743,211.30118 -538.66943,218.02318 -519.01043,218.02318 C -495.90543,218.02318 -483.18343,218.02318 -465.87643,218.02318"
         style="fill:none;stroke:#000000;stroke-width:3" />
      <path
         id="path2784"
         d="M -465.87743,209.75218 L -514.31543,209.75218 C -532.44443,209.75218 -542.23343,205.16018 -542.23343,205.16018"
         style="fill:none;stroke:#000000;stroke-width:3" />
      <path
         id="path2786"
         d="M -465.87743,201.48218 L -509.62743,201.48218 C -525.94843,201.48218 -529.94143,197.85718 -529.94143,197.85718"
         style="fill:none;stroke:#000000;stroke-width:3" />
      <path
         id="path2788"
         d="M -465.87743,193.20818 L -504.94743,193.20818 C -513.22843,193.20818 -516.31743,192.52318 -518.05043,190.79018"
         style="fill:none;stroke:#000000;stroke-width:3" />
      <path
         id="path2790"
         d="M -465.87743,184.93818 L -500.24043,184.93818 C -504.56643,184.93818 -505.92143,183.58318 -505.92143,183.58318"
         style="fill:none;stroke:#000000;stroke-width:3" />
      <path
         id="path2794"
         d="M -465.87743,281.11118 C -465.87743,281.11118 -417.32443,307.09418 -358.57243,307.09418 C -299.82043,307.09418 -251.26643,281.11118 -251.26643,281.11118 L -251.26643,161.76418 L -465.87643,161.76418 L -465.87643,281.11118 L -465.87743,281.11118 z"
         style="fill:#ffffff;stroke:#000000;stroke-width:3" />
      <path
         style="fill:#ffffff;stroke:#000000;stroke-width:3"
         d="M -305.88043,187.51818 C -310.41843,188.39218 -314.03943,193.61118 -314.03943,199.19318 L -314.03943,282.77418 C -309.04843,281.85918 -303.36643,280.62518 -297.44743,279.08418 L -297.44743,196.34118 C -297.44843,190.57118 -301.25743,186.62918 -305.88043,187.51818 z M -272.94843,181.18618 C -278.09443,182.17618 -282.19443,187.77818 -282.19443,193.71618 L -282.19443,274.51418 C -275.49243,272.21418 -269.00343,269.54518 -263.37243,266.52118 L -263.37243,190.48018 C -263.37243,184.32918 -267.70143,180.17718 -272.94843,181.18618 z"
         id="path2798" />
      <path
         style="fill:#ffffff;stroke:#000000;stroke-width:3"
         d="M -375.90643,189.08618 C -381.04343,189.08618 -385.20643,193.61018 -385.20643,199.19218 L -385.20643,282.37418 L -366.60743,282.37418 L -366.60743,199.19218 C -366.60743,193.61018 -370.77043,189.08618 -375.90643,189.08618 z M -341.23743,189.08618 C -346.37443,189.08618 -350.53743,193.61018 -350.53743,199.19218 L -350.53743,282.37418 L -331.93943,282.37418 L -331.93943,199.19218 C -331.93943,193.61018 -336.10243,189.08618 -341.23743,189.08618 z"
         id="path2800" />
      <path
         style="fill:#ffffff;stroke:#000000;stroke-width:3"
         d="M -419.69543,196.34018 L -419.69543,279.08318 C -413.77743,280.62418 -408.09543,281.85818 -403.10543,282.77318 L -403.10543,199.19218 C -403.10543,193.61018 -406.72543,188.39118 -411.26443,187.51718 C -415.88643,186.62918 -419.69543,190.57118 -419.69543,196.34018 z M -453.77243,190.48018 L -453.77243,266.52118 C -448.14143,269.54518 -441.65143,272.21418 -434.94943,274.51418 L -434.94943,193.71618 C -434.94943,187.77818 -439.04843,182.17618 -444.19643,181.18618 C -449.44343,180.17718 -453.77243,184.32918 -453.77243,190.48018 z"
         id="path2802" />
      <path
         style="fill:#ffffff;stroke:#000000;stroke-width:3"
         d="M -358.57243,199.55318 C -374.47743,199.55318 -387.37143,209.85318 -387.37143,222.55918 L -387.37143,284.72018 L -329.77443,284.72018 L -329.77443,222.55918 C -329.77443,209.85318 -342.66743,199.55318 -358.57243,199.55318 z"
         id="path2806" />
      <path
         style="fill:#ffffff;stroke:#000000;stroke-width:3"
         d="M -340.87143,276.42018 L -376.27443,276.42018 L -376.27443,222.55918 C -376.27443,214.74818 -368.34943,208.41818 -358.57243,208.41818 C -348.79643,208.41818 -340.87143,214.74818 -340.87143,222.55918 L -340.87143,276.42018 z"
         id="path2808" />
      <path
         style="stroke:#000000;stroke-width:3"
         d="M -366.31243,232.30318 C -368.55443,232.30318 -370.37243,234.12018 -370.37243,236.36318 L -370.37243,276.42118 L -362.25243,276.42118 L -362.25243,236.36318 C -362.25343,234.12018 -364.06943,232.30318 -366.31243,232.30318 z M -350.83243,232.30318 C -353.07443,232.30318 -354.89343,234.12018 -354.89343,236.36318 L -354.89343,276.42118 L -346.77343,276.42118 L -346.77343,236.36318 C -346.77243,234.12018 -348.58943,232.30318 -350.83243,232.30318 z"
         id="path2810" />
      <path
         id="path2812"
         d="M -358.57243,177.53918 C -403.61143,177.53918 -466.04343,162.74318 -476.86943,158.41218 L -358.57243,98.14518 L -240.27543,158.41218 C -251.10243,162.74318 -313.53443,177.53918 -358.57243,177.53918 z"
         style="fill:#ffffff;stroke:#000000;stroke-width:3" />
      <line
         style="fill:none;stroke:#000000;stroke-width:3"
         x1="-358.57245"
         y1="98.146179"
         x2="-459.57843"
         y2="163.36917"
         id="line2816" />
      <line
         style="fill:none;stroke:#000000;stroke-width:3"
         x1="-358.57245"
         y1="98.146179"
         x2="-445.36444"
         y2="166.62317"
         id="line2818" />
      <line
         style="fill:none;stroke:#000000;stroke-width:3"
         x1="-358.57245"
         y1="98.146179"
         x2="-430.87445"
         y2="170.44717"
         id="line2820" />
      <line
         style="fill:none;stroke:#000000;stroke-width:3"
         x1="-358.57245"
         y1="98.146179"
         x2="-415.22342"
         y2="172.26718"
         id="line2822" />
      <line
         style="fill:none;stroke:#000000;stroke-width:3"
         x1="-358.57245"
         y1="98.146179"
         x2="-396.55945"
         y2="174.91516"
         id="line2824" />
      <line
         style="fill:none;stroke:#000000;stroke-width:3"
         x1="-358.57245"
         y1="98.146179"
         x2="-376.33142"
         y2="176.88116"
         id="line2826" />
      <line
         style="fill:none;stroke:#000000;stroke-width:3"
         x1="-358.57245"
         y1="98.146179"
         x2="-257.56644"
         y2="163.36917"
         id="line2828" />
      <line
         style="fill:none;stroke:#000000;stroke-width:3"
         x1="-358.57245"
         y1="98.146179"
         x2="-271.78043"
         y2="166.62317"
         id="line2830" />
      <line
         style="fill:none;stroke:#000000;stroke-width:3"
         x1="-358.57245"
         y1="98.146179"
         x2="-286.27045"
         y2="170.44717"
         id="line2832" />
      <line
         style="fill:none;stroke:#000000;stroke-width:3"
         x1="-358.57245"
         y1="98.146179"
         x2="-301.92145"
         y2="172.26718"
         id="line2834" />
      <line
         style="fill:none;stroke:#000000;stroke-width:3"
         x1="-358.57245"
         y1="98.146179"
         x2="-320.58643"
         y2="174.91516"
         id="line2836" />
      <line
         style="fill:none;stroke:#000000;stroke-width:3"
         x1="-358.57245"
         y1="98.146179"
         x2="-340.81345"
         y2="176.88116"
         id="line2838" />
      <line
         style="fill:none;stroke:#000000;stroke-width:3"
         x1="-358.57245"
         y1="98.146179"
         x2="-358.57245"
         y2="177.53915"
         id="line2840" />
      <path
         id="path2844"
         d="M -281.41543,4.13718 C -281.41543,4.13718 -339.51743,-86.80382 -358.57243,-147.97382 C -377.62743,-86.80482 -435.72943,4.13718 -435.72943,4.13718 L -430.57243,4.13718 C -430.42543,7.88418 -429.14643,10.81418 -427.59143,10.81418 C -426.03643,10.81418 -424.75743,7.88418 -424.61043,4.13718 L -418.02543,4.13718 C -417.87843,7.88418 -416.59943,10.81418 -415.04343,10.81418 C -413.48743,10.81418 -412.20943,7.88418 -412.06243,4.13718 L -405.47643,4.13718 C -405.32943,7.88418 -404.05043,10.81418 -402.49443,10.81418 C -400.93843,10.81418 -399.66043,7.88418 -399.51343,4.13718 L -392.92743,4.13718 C -392.78043,7.88418 -391.50143,10.81418 -389.94643,10.81418 C -388.39143,10.81418 -387.11143,7.88418 -386.96543,4.13718 L -380.38043,4.13718 C -380.23343,7.88418 -378.95443,10.81418 -377.39843,10.81418 C -375.84243,10.81418 -374.56443,7.88418 -374.41743,4.13718 L -367.83143,4.13718 C -367.68443,7.88418 -366.40543,10.81418 -364.85043,10.81418 C -363.29443,10.81418 -362.01643,7.88418 -361.86943,4.13718 L -355.28343,4.13718 C -355.13643,7.88418 -353.85743,10.81418 -352.30243,10.81418 C -350.74543,10.81418 -349.46743,7.88418 -349.32043,4.13718 L -342.73543,4.13718 C -342.58943,7.88418 -341.31043,10.81418 -339.75343,10.81418 C -338.19743,10.81418 -336.91943,7.88418 -336.77343,4.13718 L -330.18743,4.13718 C -330.04043,7.88418 -328.76143,10.81418 -327.20643,10.81418 C -325.64943,10.81418 -324.37143,7.88418 -324.22543,4.13718 L -317.64043,4.13718 C -317.49343,7.88418 -316.21443,10.81418 -314.65843,10.81418 C -313.10243,10.81418 -311.82443,7.88418 -311.67743,4.13718 L -305.09143,4.13718 C -304.94543,7.88418 -303.66643,10.81418 -302.11043,10.81418 C -300.55443,10.81418 -299.27543,7.88418 -299.13043,4.13718 L -292.54443,4.13718 C -292.39743,7.88418 -291.11843,10.81418 -289.56243,10.81418 C -288.00643,10.81418 -286.72843,7.88418 -286.58143,4.13718 L -281.41543,4.13718 z"
         style="fill:#ffffff;stroke:#000000;stroke-width:3" />
      <line
         style="fill:none;stroke:#000000;stroke-width:3"
         x1="-430.32443"
         y1="-4.5238366"
         x2="-286.82043"
         y2="-4.5238366"
         id="line2848" />
      <line
         style="fill:none;stroke:#000000;stroke-width:3"
         x1="-425.83142"
         y1="-11.889834"
         x2="-291.31244"
         y2="-11.889834"
         id="line2850" />
      <line
         style="fill:none;stroke:#000000;stroke-width:3"
         x1="-421.41342"
         y1="-19.256838"
         x2="-295.73145"
         y2="-19.256838"
         id="line2852" />
      <line
         style="fill:none;stroke:#000000;stroke-width:3"
         x1="-417.06644"
         y1="-26.621798"
         x2="-300.07843"
         y2="-26.621798"
         id="line2854" />
      <line
         style="fill:none;stroke:#000000;stroke-width:3"
         x1="-412.78741"
         y1="-33.988819"
         x2="-304.35645"
         y2="-33.988819"
         id="line2856" />
      <line
         style="fill:none;stroke:#000000;stroke-width:3"
         x1="-408.57843"
         y1="-41.354816"
         x2="-308.56543"
         y2="-41.354816"
         id="line2858" />
      <line
         style="fill:none;stroke:#000000;stroke-width:3"
         x1="-404.44144"
         y1="-48.721821"
         x2="-312.70444"
         y2="-48.721821"
         id="line2860" />
      <line
         style="fill:none;stroke:#000000;stroke-width:3"
         x1="-400.37643"
         y1="-56.087818"
         x2="-316.76944"
         y2="-56.087818"
         id="line2862" />
      <line
         style="fill:none;stroke:#000000;stroke-width:3"
         x1="-396.38745"
         y1="-63.453815"
         x2="-320.75644"
         y2="-63.453815"
         id="line2864" />
      <line
         style="fill:none;stroke:#000000;stroke-width:3"
         x1="-392.48145"
         y1="-70.819809"
         x2="-324.66342"
         y2="-70.819809"
         id="line2866" />
      <line
         style="fill:none;stroke:#000000;stroke-width:3"
         x1="-388.65942"
         y1="-78.185822"
         x2="-328.48544"
         y2="-78.185822"
         id="line2868" />
      <line
         style="fill:none;stroke:#000000;stroke-width:3"
         x1="-384.93045"
         y1="-85.552811"
         x2="-332.21445"
         y2="-85.552811"
         id="line2870" />
      <line
         style="fill:none;stroke:#000000;stroke-width:3"
         x1="-381.30045"
         y1="-92.918808"
         x2="-335.84543"
         y2="-92.918808"
         id="line2872" />
      <line
         style="fill:none;stroke:#000000;stroke-width:3"
         x1="-377.77744"
         y1="-100.28482"
         x2="-339.36743"
         y2="-100.28482"
         id="line2874" />
      <line
         style="fill:none;stroke:#000000;stroke-width:3"
         x1="-374.37344"
         y1="-107.65082"
         x2="-342.77142"
         y2="-107.65082"
         id="line2876" />
      <line
         style="fill:none;stroke:#000000;stroke-width:3"
         x1="-371.09943"
         y1="-115.01682"
         x2="-346.04544"
         y2="-115.01682"
         id="line2878" />
      <line
         style="fill:none;stroke:#000000;stroke-width:3"
         x1="-367.97345"
         y1="-122.38382"
         x2="-349.17145"
         y2="-122.38382"
         id="line2880" />
      <line
         style="fill:none;stroke:#000000;stroke-width:3"
         x1="-365.01144"
         y1="-129.74881"
         x2="-352.13245"
         y2="-129.74881"
         id="line2882" />
      <polygon
         id="polygon2884"
         points="319.51,99.257 305.597,99.257 305.597,85.345 297.478,85.345 297.478,99.257 283.565,99.257 283.565,107.377 297.478,107.377 297.478,153.142 305.597,153.142 305.597,107.377 319.51,107.377 319.51,99.257 "
         style="stroke:#000000;stroke-width:3"
         transform="translate(-660.10943,-289.18282)" />
      <path
         style="fill:none;fill-opacity:1;stroke:#000000;stroke-width:3;stroke-miterlimit:4;stroke-dasharray:none;stroke-opacity:1"
         d="M -658.57143,-287.63782 L -658.57143,171.23012 C -658.57143,337.54072 -524.25689,472.36218 -358.5715,472.36218 C -192.88603,472.36218 -58.57143,337.54072 -58.57143,171.23012 L -58.57143,-287.63782 L -658.57143,-287.63782 z"
         id="path3239" />
    </g>
  </g>
</svg>
