<?xml version="1.0" encoding="UTF-8"?>
<svg width="944" height="877pt" version="1.1" viewBox="0 0 708 877" xmlns="http://www.w3.org/2000/svg">
<path d="M.51.75S484.15.872 707.3.71l.7 1.1v528.56c-1.01 2.68-.16 5.81-.65 8.64-2.02 44.59-12.87 88.38-31.34 129-16.38 35.92-38.44 69.7-65.43 98.55-55.66 56.02-128.97 93.99-207.06 106.24-14.68 2.29-29.67 3.74-44.52 3.77-5.68.48-11.32-.28-17.01-.06-39.57-1.64-79.34-10.74-116.14-25.33-43.86-17.38-84.24-43.18-118.75-75.32-16.51-15.39-30.99-33.62-43.77-52.23-20.82-30.83-37.19-64.49-47.96-100.13C6.23 593.39 1.27 562.43.5 531 .51 354.26.51.75.51.75z" fill="#000"/>
 <path d="M351.03 10.77c-112.747-.03-227.76-.03-340.507.01-.06 173.16-.001 346.987-.031 520.222.9 36.05 7.64 71.87 19.88 105.803 9.55 26.72 22.36 52.18 37.87 75.937 12.27 18.56 26.02 36.489 41.95 52.07 52.43 50.58 119.91 85.14 191.783 97.387 15.5 2.54 33.348 4.44 49.068 4.28-.02-14.05.08-27.631-.05-41.671-17.09-12.95-30.738-33.428-37.178-53.618-1.26-3.56-.7-6.91-.52-10.56-11.75 8.33-26.167 7.416-37.82-.1-5.96-5.2-9.511-12.57-11.671-20.06-2.83-16.47 2.32-30.92 8.95-45.72 1.27-2.57 2.3-5.59 4.46-7.609 2.89-1.7 5.74-.051 6.45 3.009.72 3.8 1.601 7.88 4.711 10.52 4.53 3.39 12.26 3.43 15.43-1.88 4.46-7.83 8.97-17.61 8.45-26.79-.52-20.14-1.89-40.2-2.65-60.27-2.19 10.88-6.25 21.46-11.79 31.07-5.52 9.24-13.55 18.31-23.83 22.21-10.55 4.04-22.79 4.77-33.98 4.75-10.95-.51-22.021-3.37-31.171-9.56-14.11-10.779-23.79-27.44-28.44-44.4-3.26-9.74-6.34-19.51-10.08-29.08-2.61-6.8-5.33-13.4-9.87-19.179-2.68-3.31-5.849-6.27-10.469-5.52-7.02 1.68-11.65 7.73-15.8 13.16-2.15 2.37-5.99 2.09-6.78-1.32-1.41-7.32.8-14.43 3.18-21.29 3.65-8.25 7.849-16.46 13.23-23.74 2.94-4.17 7.01-7.04 11.24-9.77 7.84-4.92 17.27-7.59 26.44-5.26 5.4 1.43 9.19 4.84 12.95 8.77 4.7 5.07 8.98 10.769 12 17 6.08 12.759 8.4 28.39 15.39 40.55 3.27 5.22 7.4 9.97 12.24 13.78 2.13 1.96 5.16 2.33 7.921 2.6 4.9.49 9.49-2.351 12.529-5.991 5.36-6.27 7.931-13.45 10.841-21.01 3.9-10.779 7.38-22.23 8.56-33.67.42-11.81.729-23.22.569-35.06-4.57.42-8.07-.77-11.52-3.74-6.27-5.83-5.17-16.52 1.21-21.74-7.73-3.94-11.189-11.88-10.928-20.29-.58-7.77 3.878-14.87 10.738-18.36-.52-1.13-1.89-1.98-2.65-3.01-4.68-6.5-2.7-16.961 4.43-20.87 3.39-1.93 6.79-1.81 10.56-1.78.6-15.64-1.179-31.57-4.689-46.83-3.49-14.45-9.06-28.83-17.871-40.89-2.97-4.16-7.169-7.22-11.889-9.11-7.02-2.63-15.201-.86-21.041 3.66-5.65 5.52-10.38 12.691-12.96 20.18-3.35 12.22-6.689 25.23-12.209 36.67-5.86 9.49-15.41 18.67-26.68 20.91-8.78 1.92-17.5-.75-24.73-5.8-6.36-4.46-12.19-10.109-16.16-16.829-5.61-9.45-9.55-19.61-12.69-30.11-.65-1.65-.37-2.83.1-4.46 1.1-1.37 2.51-1.24 4.09-1.02 4.6 3.16 8.96 8.3 14.43 9.62 3.18.79 7.159 1.28 9.739-1.21 4.08-3.22 4.33-9.05 3.22-13.72-4.72-12.94-9.44-25.9-14.13-38.86-2.58-9.67-5.73-20.169-5.35-30.189-.23-3.93-.02-8.042.18-11.991.46-12.33 5.67-24.63 12.609-34.68 11.32-16.32 28.251-27.47 46.881-33.81 15.52-2.92 32.78-1.71 47.17 5.16 18.74 8.8 34.04 25.64 45.37 42.641 6.17 9.14 11.56 18.86 16.12 28.89-5.12-22.03-8.94-44.6-10.32-67.19.07-4.31-.21-8.72.15-13.01 2.72-14.32 7.45-30.01 17.05-41.3 9.14-11.64 18.11-23.349 26.22-35.739 4.2-6.44 8.998-12.99 12.009-20.06 3.45-7.27 8.379-15.021 10.07-22.9.08-16.06.04-32.17.02-48.23zm6.09 58.93c-.09 1.09-.13 2.18-.12 3.27.01 112.672-.019 225.352.021 338.01 12.41.02 24.84.05 37.26-.01-1.86-23.72-3.04-48.22-1.78-71.97 1.13-24.9 7.8-50.58 13.76-74.81 2.41-8.64 4.09-17.37 5.74-26.19 3.34-18.91 6.68-38.75 5.91-57.98-2.56-13.16-6.78-27.98-15.54-38.43-10.22-12.93-20.13-26.05-29.09-39.88-2.99-4.64-6.34-9.33-8.71-14.29-2.95-5.71-5.21-11.71-7.45-17.72zm149.01 116.332c-7.664-.037-15.347 1.08-22.64 3.336-14.37 4.89-25.772 14.159-35.992 25.119-18 20.06-31.119 44.96-39.369 70.52-3.94 11.42-7.01 23.5-8.63 35.43-.86 3.5-.54 7.18-1.38 10.73-.58 13.64-1.86 27.69-.77 41.81.16 6.7.7 13.34.66 20.06 1.01 6.04.71 11.9 1.49 17.95 9.219.02 18.45.01 27.67 0-.53-16.1 1.21-32.41 4.8-48.13 3.07-12.531 7.48-24.7 14.16-35.78 3.39-5.4 6.44-10.43 11.87-14.06 7.24-5.27 16.94-6.66 25.3-3.36 3.34 1.42 6.89 2.98 9.28 5.76 5.68 6.06 10.17 13.18 12.93 21.03 3.27 12.09 6.45 24.76 11.99 36.03 5.22 8.15 13.68 16.39 23.5 18.24 7.67 1.63 14.848-1.3 21.069-5.6 4.35-3.2 8.4-7.05 11.73-11.31 5.82-8.67 10.07-18.47 13.15-28.43-5.08 4.65-10.87 7.64-17.94 7.19-5.25.22-9.78-4.28-11.94-8.68-1.35-4.97-1.75-10.62.37-15.43 4.38-11.97 8.69-23.96 13.08-35.92 3.62-12 6.5-23.9 5.49-36.53.32-15.321-5.98-29.78-15.55-41.49-10.61-12.909-24.92-21.789-40.64-27.17a75.308 75.308 0 0 0-13.687-1.315zM396.534 415.997c-13.176-.001-26.35.002-39.516.022-.03 6-.04 12.01 0 18.02 27 .02 54.05.06 81.053-.02 3-1.39 5.689-2.96 6.369-6.47 1.26-5.54-2.449-11.35-8.379-11.55-13.17.005-26.348 0-39.524-.002zm37.891 23.158c-.48.006-.955.037-1.427.094-25.32.01-50.66-.01-75.967.01-.06 11.07-.03 22.15-.02 33.22 26.31.05 52.69 0 79.013.02 5.09-.31 9.99-3.57 12.4-8.07 1.8-3.87 2.04-8.24 1.75-12.44-.778-7.396-8.553-12.922-15.742-12.834zm-37.907 38.59c-13.17-.002-26.34.005-39.5.025-.03 5.99-.04 11.979.01 17.969 25.95.03 52.03-.01 77.992.01 4.1.44 8.88-2.64 9.46-6.9 1.1-5.29-2.542-11.42-8.461-11.09-13.16-.004-26.33-.013-39.5-.014zm0 23.204c-13.16-.01-26.34-.03-39.5.01-.05 106.238 0 212.55-.02 318.803 16.08-12.33 27.11-31.641 33.07-50.751 1.38-4-.99-7.37 1-10.93 1.29-2.8 5.04-3 7.34-1.45 2.43 1.82 4.72 3.481 7.75 4.171 2.66.72 5.1.37 7.84.45 3.86-.08 7.26.46 10.83-1.4 8.16-3.83 12.65-12.61 15.03-20.88 2.73-16.01-3.74-31.56-10.45-45.74-1.06 4.77-2.74 9.34-7.03 12.11-6.57 4.19-17.001 3.82-21.55-3.2-5.51-9.05-10.29-20.37-9.59-31.14.7-19.08 1.58-37.94 2.68-57.01.43-12.74 1-25.23.14-37.99-.09-12.65-.18-25.34.25-37.98 1-8.451.43-16.68 1.68-24.981-.09-4.05.41-8.07.53-12.09zm5.5 0c-1.36 12.39-2.11 30.289-2.67 43.059-1.09 25.84-.2 53.09 7.52 78 4.73 13.7 12.29 28.33 25.03 36.141 8.82 4.88 20.18 6.15 30.11 6.5 11.96.74 24.9-1.97 34.9-8.77 12.9-9.88 21.799-25.41 26.179-40.88 3.46-10.68 6.99-21.41 11.05-31.88 2.86-7.33 6.51-15.249 11.92-21.06 3.69-3.87 8.53-6.06 13.93-4.89 6.98 1.74 12.59 7.11 16.73 12.76-.43-6.95-2.45-13.85-5.59-20.049-2.93-6.16-6.3-12.21-10.28-17.76-2.96-4.22-7.68-7.361-12.08-9.911-6.35-3.52-13.79-5.53-20.94-3.34-3.84 1.07-6.61 3.831-9.4 6.561-5.4 5.7-10.36 12.37-13.249 19.72-4.79 11.55-6.761 23.25-12.511 34.519-2.5 5.34-6.56 10.14-10.59 14.4-3.29 2.76-5.85 5.78-10.25 6.74-4.73.94-10.11 1.33-14.46-1.16-7.37-3.66-12.28-12.26-15.46-19.54-6.47-15.85-12.6-33.87-12.58-51.12-.22-9.39-.41-18.62-.35-28.03-8.99-.05-17.978-.02-26.958-.01z" fill="#f5c801"/>
 <path d="M693 10.75c-111.233.03-336.022.03-336.022.03s-.05 32.852 0 48.252c9.024 23.339 10.498 25.009 18.398 36.578 9.4 14.72 19.82 28.69 30.65 42.38 9.46 11.24 14.78 26.676 16.81 40.99 1.006 7.089.23 14.42-.44 21.56-1.65 18.96-5.14 37.95-9.08 56.56l.14.239c8.5-17.64 19.21-34.8 32.84-49.03 10.95-11.21 23.841-20.68 39.151-24.81 11.72-2.85 24.249-3.37 36.079-.93 17.09 5.85 32.64 15.69 43.9 29.97 7.2 9.23 12.79 20.401 14.76 31.981 1.16 9.03 1.27 18.29.39 27.34-1.09 7.34-2.98 14.58-5.05 21.69-4.59 12.77-9.27 25.52-13.93 38.26-1.03 3.18-.74 7 .26 10.16 1.7 3.05 4.29 6 8.15 5.6 7.83.08 11.791-4.77 17.44-9.15 1.45-1.36 3.97-1.8 5.42-.23.76 1.68.87 3.09.19 4.82-3.62 11.9-8.39 24.26-15.61 34.46-6.69 8.16-16.04 16.15-26.66 18.2-9.47 1.88-18.74-1.43-26.09-7.37-4.66-3.96-8.969-8.64-12.019-13.96-4.78-10.15-7.94-21.328-10.88-32.139-1.63-7.74-5.93-15.03-10.96-21.06-6.15-8.03-18.46-10.76-27.26-5.56-7.52 3.85-11.531 11.389-15.571 18.439-11.39 21.42-15.53 46.96-16.02 70.98.02 1.93-.09 3.92.18 5.83 3.92.28 7.35-.079 10.88 2.101 8.12 4.9 9.212 17.84 1.261 23.48 5.97 3.25 10.33 8.64 10.93 15.57.11 4.59.06 9.19-1.77 13.5-1.69 4.23-5.221 7.74-9.21 9.85 6.27 4.78 7.41 15.08 2.03 20.96-3.3 3.41-7.51 4.97-12.26 4.5-.18 9.43.11 18.78.33 28.2-.06 14.66 4.819 29.91 9.959 43.53 2.83 7.39 6.61 16.2 13.03 21.17 4.49 3.53 10.55 3.52 15.6 1.3 5.42-3.74 9.93-9.03 13.541-14.51 8.06-13.93 9.47-29.81 17.12-43.87 3.8-6.519 8.65-12.7 14.3-17.72 4.05-3.78 9.548-5.9 15.089-5.91 10.51-.47 21.16 5.37 28.7 12.321 5.92 6.26 10.05 14.469 13.89 22.119 2.71 5.19 4.45 10.83 5.54 16.57.66 3.64.86 7.25-.35 10.8-1.33 2.53-4.23 2.4-6.18.67-2.7-3.15-4.71-6.459-8.03-9.07-3.31-2.799-6.95-5.02-11.48-4.32-5.76 1.99-8.99 8.18-11.93 13.09-6.17 13.071-10.56 27.13-15.07 40.84-4.75 16.86-14.119 33.13-28.11 43.96-11.74 8.14-26.94 10.75-40.98 9.55-10.82-.52-23.63-2.37-32.6-8.91-6.89-4.91-11.95-11.5-16.26-18.71-4.95-9.1-8.86-18.68-10.89-28.87-.59 2.32-.46 4.61-.6 6.97-1.07 17-1.71 34-2.41 51.01-.67 9.72 3.87 19.84 8.64 28.08 3.28 4.97 10.49 4.85 15.02 1.81 3.32-2.52 4.19-7.05 5-10.88.57-2.32 2.67-4.15 5.15-3.4 2.05.57 3 2.68 3.96 4.39 4.419 9.21 8.18 18.47 10.36 28.49 1.46 6.8 1.319 13.57.479 20.44-2.54 9.65-8.19 19.909-17.53 24.409-7.975 3.87-26.511 4.14-32.22-3.55.53 3.64.74 7.19-.48 10.72-6.43 19.95-20.32 40.82-37.43 53.42-.369 9.852.008 32.214-.228 41.54 21.95.1 46.108-3.18 67.517-7.899 67.27-15.12 129.78-49.84 178.44-98.64 32.48-34.71 57.66-76.372 74.08-120.93 13.51-36.77 20.601-75.832 20.751-114.997-.01-171.038.02-342.083-.01-513.128-1.56-.21-3.17-.1-4.74-.12zM351.502 69.72c-3.05 7.72-5.95 15.41-10.2 22.59-9.38 15.02-19.62 29.5-30.57 43.42-3.81 5.11-7.919 9.47-10.819 15.21-4.13 8.16-6.82 17.16-8.751 26.07-1.1 4.48-.52 9.32-.66 14 .91 18.11 3.86 36.22 7.38 53.99 2.46 13.42 6.45 26.479 9.4 39.799 3.55 15.39 6.84 30.381 8.16 46.18 2.05 26.32.99 52.961-1.23 79.238l.25.78c12.33-.06 24.73.12 37.05-.09-.03-113.73 0-227.46-.01-341.19zM201.196 186.039c-4.317.077-8.612.531-12.79 1.405-13.46 4.66-26.52 12.21-36.34 22.62-8.99 9.13-15.579 20.931-18.419 33.43-1.39 7.56-1.321 15.71-1.091 23.36.41 8.09 2.84 16.16 4.87 23.97 4.64 13.16 9.591 26.25 14.281 39.399 1.33 4.25.959 9.111-.171 13.36-1.53 3.64-4.829 7.06-8.539 8.48-4.17 1.12-8.971.48-12.971-1.06-3.26-1.11-5.58-3.48-8.35-5.36 3.09 9.92 7.33 19.82 13.24 28.41 5.96 7.35 14.52 14.92 24.08 16.7 8.13 1.71 15.83-1.71 22.01-6.77 4.48-4 9.14-8.87 11.47-14.48 4.44-10.36 7.53-21.62 10.38-32.52 2.89-8.72 8.24-16.939 14.87-23.29 5.27-3.75 11.73-6.179 18.28-5.759 6.08.18 11.84 2.75 16.51 6.57 5.59 4.66 9.44 11.76 12.96 18.04 12.28 23.65 16.31 51.99 16.02 78.367 9.14.2 18.32.07 27.46.06.26-3.34.41-6.661 1-9.971.14-5.65.36-11.35 1.02-16.97.22-20.79 1.16-42.5-1.87-63.04-2.3-17.45-7.491-33.81-13.851-50.17-5.03-13-11.59-25.19-19.18-36.86-6.54-9.669-13.65-18.83-22.329-26.7-8.75-8.32-19.56-15.3-31.22-18.68-6.881-1.757-14.137-2.673-21.33-2.545zm111.067 229.958c-13.108.011-26.221.04-39.276.01-4.79-.08-8.34 3.33-9.05 7.97-1 4.93 3.03 10.04 8.041 10.09h74.03c1.82-.01 3.7.09 5.51-.16-.01-5.94-.02-11.87 0-17.81-13.04-.104-26.145-.111-39.254-.1zm38.954 23.24c-26.63.07-53.48-.06-80.078.07-5.62 1.53-11.108 5.16-12.479 11.18-.85 3.89-.43 8.98.98 12.72 1.94 5.22 6.98 8.54 12.34 9.29 26.49 0 53.02.03 79.507-.01.05-10.88.01-21.77.02-32.65l-.29-.599zm-39.487 38.515c-13.254-.002-26.507.01-39.741.055-5.64-.17-9.151 6.24-7.921 11.2.61 3.69 4.3 6.56 7.92 6.75 26.4.01 52.82-.019 79.23.021.66-5.29.141-12.43.261-18-13.24-.01-26.494-.025-39.748-.026zm-18.621 23.187c-4.523.004-9.045.024-13.56.04-.02 11.84-.091 24.168-.721 36.018-1.62 14.89-6.68 29.691-12.37 43.481-3.18 7.11-7.83 15.3-14.99 19.01-4.36 2.62-9.65 2.3-14.47 1.41-4.59-.98-7.47-4.05-10.78-7.09-4.09-4.27-8.05-9.07-10.55-14.45-6.29-12.68-8.16-25.981-14.33-38.68-3.76-6.89-8.699-13.23-14.618-18.39-2.94-2.63-6.77-4.091-10.69-4.281-8.76-.59-17.76 4.26-24.291 9.731-4.6 4.04-7.8 9.94-10.79 15.22-4.33 7.89-8.88 17.38-8.95 26.54 4.01-4.86 8.01-9.15 14.01-11.53 4.16-1.7 9.19-1.44 12.93 1.16 5.049 3.31 8.58 9.37 11.37 14.6 7.07 15.291 11.959 31.77 17.229 47.76 4.74 13.02 12.821 25.62 23.81 34.221 9.87 6.85 22.77 9.61 34.65 8.98 10.01-.35 21.4-1.55 30.34-6.37 9.77-5.81 16.95-16.32 21.43-26.56 4.69-9.83 7.24-21.03 8.94-31.74 2.31-14.25 3.03-28.59 2.8-43.01-.35-18.681-1.42-37.37-2.84-56.01-4.514-.05-9.037-.063-13.56-.06zm18.859.04c-.07 6.37 1.29 12.638 1.04 19.048.74 6.98 1.05 13.96.999 20.99.95 10.59.83 21.31.66 31.95-1.24 10.78-.499 22.21-.389 33.04.99 22.98 2.58 45.99 3.03 69-.49 9.42-4.66 18.881-9.44 26.891-4.67 7.53-15.96 7.78-22.57 2.85-3.58-2.65-4.741-6.4-5.971-10.47l-.82.04c-6.42 14.33-12.59 28.85-9.78 44.9 2.3 7.46 5.59 14.3 12.03 19.04 3.08 1.99 6.53 3.25 10.25 3.01 5.25-.22 9.72.79 14.63-1.63 2.55-.97 4.6-4.03 7.35-3.9 3.06-.53 5.28 2.45 5.29 5.24 0 2.99-.77 5.59.35 8.52 5.94 18.97 16.971 38.03 32.91 50.28-.1-106.162.04-212.647-.07-318.802-13.16-.04-26.339-.06-39.499 0z" fill="#02739f"/>
</svg>
