<?xml version="1.0" encoding="UTF-8" standalone="no"?>
<svg
   xmlns:svg="http://www.w3.org/2000/svg"
   xmlns="http://www.w3.org/2000/svg"
   version="1.1"
   width="203"
   height="232">
  <defs />
  <path
     d="m 2,2 0.15625,128.28125 c 0,54.92358 44.201423,99.15625 99.125,99.15625 54.92358,0 99.15625,-44.23267 99.15625,-99.15625 L 200.59375,2 2,2 z"
     style="fill:#367ad5;stroke:#000000;stroke-width:4;" />     
  <g style="fill:#ffffff;fill-rule:nonzero;stroke:#000000;stroke-width:1;stroke-linecap:butt;stroke-linejoin:miter;stroke-miterlimit:9;">
    <path d="m 91.68756,42.60296 c 0,0 -19.16262,1.70756 -22.9572,0.18973 -3.79458,-1.51783 -7.019971,-4.36377 -7.019971,-4.36377 0,0 -1.138373,6.26106 4.363761,7.58916 5.50214,1.3281 26.56205,0 26.56205,0 M 84.25724,89.0378 c 8.07897,1.79533 18.7575,-19.64612 13.61246,-20.78946 0,0 -4.08579,5.76817 -11.89686,6.00851 -7.81107,0.24034 -6.72953,1.32187 -10.57498,-1.80255 -3.84545,-3.12443 -25.938555,-24.82302 -30.643426,-25.83662 -7.193625,-1.54977 -14.621535,5.55727 -13.218732,6.60937 4.766323,-2.00241 7.837596,-2.30977 11.055666,-2.76392 -4.133198,1.77903 -8.072685,3.70873 -9.373282,7.6909 l 10.334645,-4.4463 c -7.69223,4.94925 -6.423506,7.39142 -6.248855,9.49345 0,0 3.845449,-4.92698 7.811069,-5.76817 4.1295,-0.87596 3.845449,5.648 13.579242,14.18009 9.733793,8.53209 25.563053,17.4247 25.563053,17.4247 z m 18.62432,46.72205 c 0,0 -16.82693,-0.15949 -23.52638,1.51784 -6.82913,1.7098 -14.12896,7.22139 -14.03994,7.39942 l 4.17403,2.84594 c -7.607837,6.51714 -12.45035,12.57339 -17.075598,18.59343 -4.574413,-0.55021 -9.160333,-0.95083 -14.229668,4.93295 5.693877,-0.47482 7.354569,0.0587 9.106988,0.56919 -4.934178,5.30197 -4.867722,10.18722 -3.794578,14.98858 1.391345,-5.31241 4.04755,-9.61293 7.968614,-12.90156 2.685915,2.56216 2.93048,6.17061 2.087018,10.24536 3.576187,-2.82864 6.296697,-6.08513 1.897289,-12.90157 6.956728,-5.71032 13.913455,-10.41273 20.870185,-14.60912 l 3.60484,6.64051 c 9.96194,-7.31862 18.98055,-16.05224 33.77175,-16.12696" />
    <path d="m 113.34044,36.53163 c -4.10836,-0.0882 -4.2637,-1.59385 -6.47457,-1.3281 -2.21087,0.26575 -3.18365,1.61825 -5.50214,2.46648 2.30591,0.29491 3.70343,1.09768 5.8816,0.94864 2.17817,-0.14904 2.25734,-1.31773 6.09511,-2.08702 z M 124.875,20.78125 c -3.79106,3.17574 -9.96863,8.26361 -10.71875,11.5625 -0.0978,-1.36071 -1.46947,-4.02064 -10.71875,-3.59375 -7.77062,0.35864 -5.67422,3.97771 -12.125,5.875 -2.87797,0.84647 -15.75437,1.32374 -10.0625,5.6875 5.69186,4.36377 11.18295,3.24558 6.25,6.28125 -4.93295,3.03566 -4.71638,3.99108 3.0625,4.75 7.77889,0.75892 13.0625,-0.1875 13.0625,-0.1875 0,0 -1.75828,1.37788 -4.53125,8.15625 -1.68111,4.1094 -2.82307,9.28718 -3.625,14.5625 -0.73602,2.32195 -1.88922,4.99846 -3.78125,7.0625 -5.90993,6.44721 -32.638419,26.55582 -34.15625,27.125 -1.517831,0.56919 -12.136189,-3.41071 -13.84375,-3.03125 -1.70756,0.37946 -5.308042,1.51565 -5.6875,2.84375 -0.379458,1.32811 4.537982,-0.0111 6.625,0.9375 1.212603,0.55118 2.566992,0.66683 3.53125,0.65625 -2.250066,0.16898 -6.878924,0.71264 -7.875,2.5625 -1.328102,2.46648 -1.34375,4 -1.34375,4 0,0 4.734397,-1.90625 6.0625,-1.90625 1.134313,0 2.972902,-0.11586 3.5625,-0.15625 -1.504051,1.30829 -3.746434,3.4533 -4.125,5.09375 -0.569187,2.46648 -0.5625,5.3125 -0.5625,5.3125 0,0 4.921898,-5.11831 6.25,-5.6875 1.328103,-0.56918 11.770198,-1.89738 18.03125,-5.3125 5.99216,-3.26845 20.83508,-13.47821 25.09375,-17.34375 -0.13674,1.38194 -0.27278,2.57127 -0.4375,3.3125 -1.13837,5.12268 -3.79008,14.58724 2.28125,25.78125 6.07132,11.194 12.35058,18.0358 19.75,22.96875 -1.67009,13.13677 1.44468,25.11376 14.40625,34.71875 l 3.21875,-11.1875 11.96875,19.90625 c -9.63773,8.46495 -10.21378,14.67762 -7.78125,20.125 0.42226,-6.3054 2.85031,-10.02719 6.8125,-11.78125 -0.35594,3.80451 -0.0238,7.44666 3.625,10.25 1.01189,-2.51537 2.01936,-7.75308 3.03125,-12.125 4.20193,0.33296 6.27275,4.17797 9.09375,6.8125 -1.78893,-6.19717 -2.48656,-13.17789 -11.5625,-14.03125 -1.31735,-7.40481 -3.17086,-14.53859 -5.5,-21.4375 l 3.40625,-1.125 c -3.11682,-6.3338 -6.68405,-11.32609 -10.8125,-14.625 0,0 5.76781,-3.07605 4.0625,-12.09375 3.05035,-1.04324 9.81549,-3.69198 12.4375,-7.625 3.41513,-5.12269 2.86609,-12.14528 3.625,-23.71875 0.63618,-9.70173 -1.90407,-17.84835 -4.75,-25.4375 -2.84593,-7.58916 -4.55349,-13.0827 0,-19.34375 4.5535,-6.26106 9.68314,-8.53789 15.375,-5.3125 5.69187,3.22539 0.74109,9.68095 1.5,18.21875 0.75892,8.53781 12.53125,9.09375 12.53125,9.09375 0,0 -4.35043,-8.34839 -3.78125,-18.59375 0.24228,-4.36117 -3.43318,-11.77238 -11.78125,-15.1875 -8.34807,-3.41512 -15.54917,4.56482 -19.34375,9.6875 -3.79458,5.12268 -3.97762,26.38187 -0.5625,36.4375 3.41512,10.05563 5.47984,22.19432 1.875,29.59375 -2.26275,4.6446 -6.29289,5.97828 -9,6.34375 -0.2576,-0.58097 -0.53231,-1.16615 -0.84375,-1.78125 -7.58915,-14.98859 -16.14279,-23.35285 -11.96875,-33.21875 4.17404,-9.86591 10.06695,-18.40648 9.6875,-31.6875 -0.37946,-13.28103 -8.34375,-26.1875 -8.34375,-26.1875 5.32361,-5.94964 7.44045,-10.51174 9.28125,-14.96875 -4.37459,2.64538 -8.7843,5.25823 -13.65625,7.40625 4.71427,-4.80647 3.24285,-9.63103 3.78125,-14.4375 z" />
  </g>
</svg>
