<?xml version="1.0" encoding="UTF-8" standalone="no"?>
<!-- Created with Inkscape (http://www.inkscape.org/) -->
<svg
   xmlns:dc="http://purl.org/dc/elements/1.1/"
   xmlns:cc="http://creativecommons.org/ns#"
   xmlns:rdf="http://www.w3.org/1999/02/22-rdf-syntax-ns#"
   xmlns:svg="http://www.w3.org/2000/svg"
   xmlns="http://www.w3.org/2000/svg"
   xmlns:sodipodi="http://sodipodi.sourceforge.net/DTD/sodipodi-0.dtd"
   xmlns:inkscape="http://www.inkscape.org/namespaces/inkscape"
   version="1.0"
   width="500"
   height="580"
   id="svg2129"
   sodipodi:version="0.32"
   inkscape:version="0.46"
   sodipodi:docname="Adorf_Wappen.svg"
   sodipodi:docbase="/home/carsten/dokumente/inkscape/Wikipedia"
   inkscape:output_extension="org.inkscape.output.svg.inkscape">
  <metadata
     id="metadata2182">
    <rdf:RDF>
      <cc:Work
         rdf:about="">
        <dc:format>image/svg+xml</dc:format>
        <dc:type
           rdf:resource="http://purl.org/dc/dcmitype/StillImage" />
      </cc:Work>
    </rdf:RDF>
  </metadata>
  <sodipodi:namedview
     inkscape:window-height="778"
     inkscape:window-width="1280"
     inkscape:pageshadow="2"
     inkscape:pageopacity="0.0"
     borderopacity="1.0"
     bordercolor="#666666"
     pagecolor="#ffffff"
     id="base"
     inkscape:zoom="0.58054867"
     inkscape:cx="149.37933"
     inkscape:cy="456.07384"
     inkscape:window-x="1275"
     inkscape:window-y="-3"
     inkscape:current-layer="svg2129"
     showgrid="false"
     showguides="true"
     inkscape:guide-bbox="true" />
  <defs
     id="defs2132">
    <inkscape:perspective
       sodipodi:type="inkscape:persp3d"
       inkscape:vp_x="0 : 290.625 : 1"
       inkscape:vp_y="0 : 1000 : 0"
       inkscape:vp_z="500 : 290.625 : 1"
       inkscape:persp3d-origin="250 : 193.75 : 1"
       id="perspective3619" />
    <inkscape:perspective
       id="perspective2443"
       inkscape:persp3d-origin="372.04724 : 350.78739 : 1"
       inkscape:vp_z="744.09448 : 526.18109 : 1"
       inkscape:vp_y="0 : 1000 : 0"
       inkscape:vp_x="0 : 526.18109 : 1"
       sodipodi:type="inkscape:persp3d" />
    <inkscape:perspective
       id="perspective2510"
       inkscape:persp3d-origin="372.04724 : 350.78739 : 1"
       inkscape:vp_z="744.09448 : 526.18109 : 1"
       inkscape:vp_y="0 : 1000 : 0"
       inkscape:vp_x="0 : 526.18109 : 1"
       sodipodi:type="inkscape:persp3d" />
    <inkscape:perspective
       sodipodi:type="inkscape:persp3d"
       inkscape:vp_x="0 : 290.625 : 1"
       inkscape:vp_y="0 : 1000 : 0"
       inkscape:vp_z="500 : 290.625 : 1"
       inkscape:persp3d-origin="250 : 193.75 : 1"
       id="perspective2911" />
    <inkscape:perspective
       sodipodi:type="inkscape:persp3d"
       inkscape:vp_x="0 : 526.18109 : 1"
       inkscape:vp_y="0 : 1000 : 0"
       inkscape:vp_z="744.09448 : 526.18109 : 1"
       inkscape:persp3d-origin="372.04724 : 350.78739 : 1"
       id="perspective5028" />
    <inkscape:perspective
       sodipodi:type="inkscape:persp3d"
       inkscape:vp_x="0 : 526.18109 : 1"
       inkscape:vp_y="0 : 1000 : 0"
       inkscape:vp_z="744.09448 : 526.18109 : 1"
       inkscape:persp3d-origin="372.04724 : 350.78739 : 1"
       id="perspective3128" />
    <inkscape:perspective
       sodipodi:type="inkscape:persp3d"
       inkscape:vp_x="0 : 526.18109 : 1"
       inkscape:vp_y="0 : 1000 : 0"
       inkscape:vp_z="744.09448 : 526.18109 : 1"
       inkscape:persp3d-origin="372.04724 : 350.78739 : 1"
       id="perspective2992" />
    <inkscape:perspective
       sodipodi:type="inkscape:persp3d"
       inkscape:vp_x="0 : 526.18109 : 1"
       inkscape:vp_y="0 : 1000 : 0"
       inkscape:vp_z="744.09448 : 526.18109 : 1"
       inkscape:persp3d-origin="372.04724 : 350.78739 : 1"
       id="perspective2903" />
    <inkscape:perspective
       sodipodi:type="inkscape:persp3d"
       inkscape:vp_x="0 : 526.18109 : 1"
       inkscape:vp_y="0 : 1000 : 0"
       inkscape:vp_z="744.09448 : 526.18109 : 1"
       inkscape:persp3d-origin="372.04724 : 350.78739 : 1"
       id="perspective2812" />
    <inkscape:perspective
       sodipodi:type="inkscape:persp3d"
       inkscape:vp_x="0 : 526.18109 : 1"
       inkscape:vp_y="0 : 1000 : 0"
       inkscape:vp_z="744.09448 : 526.18109 : 1"
       inkscape:persp3d-origin="372.04724 : 350.78739 : 1"
       id="perspective3745" />
    <inkscape:perspective
       sodipodi:type="inkscape:persp3d"
       inkscape:vp_x="0 : 526.18109 : 1"
       inkscape:vp_y="0 : 1000 : 0"
       inkscape:vp_z="744.09448 : 526.18109 : 1"
       inkscape:persp3d-origin="372.04724 : 350.78739 : 1"
       id="perspective3656" />
    <inkscape:perspective
       sodipodi:type="inkscape:persp3d"
       inkscape:vp_x="0 : 526.18109 : 1"
       inkscape:vp_y="0 : 1000 : 0"
       inkscape:vp_z="744.09448 : 526.18109 : 1"
       inkscape:persp3d-origin="372.04724 : 350.78739 : 1"
       id="perspective3567" />
    <inkscape:perspective
       sodipodi:type="inkscape:persp3d"
       inkscape:vp_x="0 : 1149 : 1"
       inkscape:vp_y="0 : 1000 : 0"
       inkscape:vp_z="2330 : 1149 : 1"
       inkscape:persp3d-origin="1165 : 766 : 1"
       id="perspective1663" />
    <style
       type="text/css"
       id="style6">
   
    .fil4 {fill:#1FB53B}
    .fil0 {fill:#2B2C2A}
    .fil2 {fill:#F02C2D}
    .fil3 {fill:#FCD016}
    .fil1 {fill:white}
   
  </style>
    <metadata
       id="CorelCorpID_0Corel-Layer" />
    <inkscape:perspective
       sodipodi:type="inkscape:persp3d"
       inkscape:vp_x="0 : 526.18109 : 1"
       inkscape:vp_y="0 : 1000 : 0"
       inkscape:vp_z="744.09448 : 526.18109 : 1"
       inkscape:persp3d-origin="372.04724 : 350.78739 : 1"
       id="perspective3299" />
    <marker
       orient="auto"
       markerHeight="3"
       markerWidth="4"
       markerUnits="strokeWidth"
       refY="5"
       refX="10"
       viewBox="0 0 10 10"
       id="ArrowStart">
      <path
         id="path10"
         d="M 10,0 L 0,5 L 10,10 L 10,0 z" />
    </marker>
    <marker
       orient="auto"
       markerHeight="3"
       markerWidth="4"
       markerUnits="strokeWidth"
       refY="5"
       refX="0"
       viewBox="0 0 10 10"
       id="ArrowEnd">
      <path
         id="path7"
         d="M 0,0 L 10,5 L 0,10 L 0,0 z" />
    </marker>
    <inkscape:perspective
       id="perspective33"
       inkscape:persp3d-origin="268.63251 : 213.48834 : 1"
       inkscape:vp_z="537.26501 : 320.23251 : 1"
       inkscape:vp_y="0 : 1000 : 0"
       inkscape:vp_x="0 : 320.23251 : 1"
       sodipodi:type="inkscape:persp3d" />
  </defs>
  <path
     id="path11741"
     style="fill:#000000;fill-opacity:1;fill-rule:nonzero;stroke:#000000;stroke-width:5;stroke-linecap:round;stroke-linejoin:miter;stroke-miterlimit:4;stroke-dasharray:none;stroke-opacity:1;display:inline"
     d="M 497.5,350 C 497.5,473.75 373.75,577.5 250,577.5 C 123.75,577.5 2.5,473.75 2.5,350 L 2.5,2.5 L 497.5,2.5 L 497.5,350 L 497.5,350 L 497.5,350"
     sodipodi:nodetypes="cscccccc" />
  <g
     id="g2402"
     transform="translate(12.057559,-3.4450169)">
    <path
       sodipodi:nodetypes="csscssccsssssssccssscccssssssssssssssssssssssssccccccccccssssssssccssssscsscscsscscsssssscsscscsssssscssssssccsscscccccccsssssssssssssssssssssssssscccccccccscssssssssscscsscsssccccccsssssssssssssssssssssssssscccccccccccccsscsccssscsccccssscscssscsccssssscsssssccsccsccsccccccccccccccssssssssccssssssssscscsscssssssssssssssssssssscssssssssccsscsccccsssssssscccssscsssscsscscccccccscscscscscsssccssssssssccsssssccccccccsccsscccccc"
       d="M 373.37847,203.74468 C 367.82528,208.80788 365.70201,215.66769 366.192,220.73088 C 366.68198,225.79408 369.29525,231.18394 374.52177,235.10384 C 379.7483,239.02372 384.15818,239.51372 384.15818,239.51372 C 373.70514,232.81723 374.57483,229.76702 371.90851,227.10071 C 370.27522,225.46743 369.94857,218.93427 369.78523,217.13764 C 369.2917,211.70867 373.37847,203.74468 373.37847,203.74468 z M 263.13145,299.61876 C 261.03522,302.53593 269.50127,305.66193 273.42117,308.11186 C 276.26302,309.888 278.3793,312.56291 279.46435,317.42161 C 280.1941,320.68936 278.56604,323.34227 278.52519,325.87388 C 278.48507,328.3613 282.77175,332.73369 286.20165,332.08039 C 289.63157,331.42706 289.75406,328.03798 289.26408,324.28142 C 288.77409,320.52485 285.68497,311.69372 283.71089,309.25515 C 280.93429,305.82525 275.8711,300.59873 272.44119,299.78208 C 269.01129,298.96544 265.27929,296.62973 263.13145,299.61876 z M 258.09929,63.723731 C 264.56678,67.650426 262.71892,71.577121 265.25973,72.732032 C 267.80054,73.886944 276.11588,76.196758 280.50455,74.810867 C 284.8932,73.424977 278.65669,64.64766 272.18919,62.33784 C 267.61599,60.704547 261.56402,62.33784 258.09929,63.723731 z M 182.12031,143.80297 L 182.12031,143.80297 C 173.62721,137.59646 157.13099,126.4901 140.3081,111.62717 C 123.48523,96.764238 136.38821,108.03394 129.85505,102.31743 C 123.3219,96.600908 116.95207,88.924447 110.9089,85.821191 C 104.86572,82.717946 98.169245,82.554616 95.229305,81.084653 C 92.289395,79.61469 75.629835,61.648512 73.343233,57.728617 C 71.05662,53.808723 76.609807,45.642278 72.036601,44.335647 C 67.463395,43.029014 66.238426,42.784021 64.441809,44.825633 C 62.645183,46.867244 62.441521,50.073805 58.970295,51.848777 C 56.55329,53.084679 48.929739,53.327234 48.843893,56.50365 C 48.76223,59.525236 49.497204,63.526795 55.540376,62.138497 C 61.753087,60.711255 74.813189,75.694798 73.833218,78.144726 C 72.853247,80.594665 66.810075,81.574641 63.706826,79.45136 C 60.603577,77.32809 59.46028,71.28492 55.703702,69.814958 C 51.947142,68.344997 48.027247,74.061505 52.273802,77.654738 C 56.520348,81.247982 53.580434,92.027698 56.520348,95.130948 C 59.46028,98.234198 65.666769,95.620938 68.770027,90.067751 C 71.873266,84.514556 79.22307,91.211057 81.183012,94.640958 C 83.142965,98.070868 81.183012,103.62405 76.773142,104.93068 C 72.363261,106.23732 73.343233,111.46385 76.446481,112.28049 C 79.549721,113.09714 83.306295,110.32054 86.572885,110.81053 C 89.839455,111.30051 93.269375,117.50701 97.352595,114.56709 C 101.43582,111.62717 98.659225,106.72731 96.209285,106.07399 C 93.759355,105.42068 93.922675,99.704148 95.392645,98.560848 C 96.862605,97.417558 106.82568,107.87061 107.15234,110.48387 C 107.479,113.09714 107.15234,138.08646 107.15234,138.08646 C 114.50213,130.24666 115.15545,127.47007 119.23867,124.20349 C 116.29876,140.04639 116.78874,160.9525 116.78874,160.9525 C 121.85193,145.92624 129.20175,138.73977 130.83503,137.59646 C 128.87509,151.96941 130.01837,164.21908 131.32501,170.75223 C 133.77495,155.88931 138.67482,151.31609 140.14478,150.17278 C 139.1648,160.29918 140.3081,169.77226 140.96142,172.38552 C 147.16792,172.2222 155.66102,172.2222 155.66102,172.2222 C 163.35605,161.9993 171.82223,152.2905 182.12031,143.80297 z M 87.552855,47.438896 C 84.939585,52.502092 86.082895,57.565288 87.552855,57.891946 C 89.022815,58.218604 93.922675,59.851894 94.086015,63.771787 C 94.249335,67.691681 91.187345,72.393229 92.289395,73.734847 C 96.045955,78.308055 102.08913,80.594665 103.39577,79.45136 C 104.7024,78.308055 103.23244,69.4883 104.37574,67.691681 C 105.51904,65.895064 111.88888,67.528353 113.84883,63.771787 C 115.80876,60.015223 115.48211,55.278684 110.74557,54.29871 C 106.00903,53.318737 100.45584,53.808723 98.822545,52.665421 C 97.189265,51.522119 91.472745,44.008989 87.552855,47.438896 z M 298.95581,49.432313 C 290.40479,49.36873 286.01732,52.924105 282.12673,53.321105 C 275.68853,53.978063 274.02385,49.228911 266.40393,49.734029 C 259.0143,50.223877 258.20632,54.483043 252.89374,55.868934 C 247.58114,57.25483 233.86013,54.952032 230.16442,58.416763 C 226.46871,61.881491 224.61048,66.033754 225.30342,68.574556 C 225.89925,70.759253 226.15459,71.946305 229.86734,70.213878 C 226.74983,73.771632 224.36475,76.512141 224.36475,82.419995 C 224.36475,88.8875 228.31587,93.054508 234.3214,93.516468 C 240.32693,93.978428 246.3153,93.047138 247.93218,93.047138 C 252.89829,98.590698 259.71317,102.98904 264.79478,102.06511 C 268.65929,101.36247 273.19828,99.847188 283.83645,101.62929 C 275.36059,102.40335 271.72678,103.91324 270.79559,105.08228 C 268.16941,108.3792 266.12186,113.16228 265.49879,118.45838 C 264.80583,124.34841 265.04051,129.09518 265.73346,138.10348 C 257.64908,130.48108 237.51453,119.5528 231.77357,121.94488 C 229.00179,123.09979 227.71164,124.94645 227.95183,127.57693 C 229.19566,141.31367 234.71218,136.7711 243.20528,137.09775 C 251.69838,137.42441 254.65333,141.6844 254.00003,145.27763 C 253.34671,148.87087 249.06957,155.08382 245.14968,155.73714 C 241.22979,156.39046 225.89425,156.38723 219.03443,150.50739 C 212.17462,144.62754 209.55086,137.43139 202.03772,134.81812 C 194.5246,132.20487 186.3522,131.87335 178.83906,126.97349 C 171.32594,122.07362 168.38946,123.05088 157.28309,109.00459 C 163.16293,125.66414 168.87655,127.93189 174.48093,130.82876 C 180.24529,133.8083 186.82016,135.71675 191.94698,137.70119 C 199.03469,140.44463 201.83658,141.8917 201.83658,141.8917 C 194.02341,142.20192 184.71811,146.2375 177.53163,153.42398 C 170.34516,160.61046 166.78192,167.50036 158.28881,175.01348 C 169.06853,176.64678 175.2004,164.3102 179.50955,160.29641 C 186.00988,154.24163 188.13586,153.60185 192.9527,150.66991 C 196.08057,148.76602 200.74676,148.3236 203.42428,148.65847 C 207.94474,149.22382 210.82539,151.88408 213.36618,156.27272 C 215.90699,160.66138 218.84769,160.73556 221.85045,163.04539 C 224.85322,165.3552 231.53822,166.97911 235.69589,165.59321 C 239.85357,164.20733 246.08835,161.6709 246.08835,161.6709 C 238.0412,168.12197 234.069,169.51553 228.75641,169.51553 C 223.44382,169.51553 213.27266,164.44705 209.34597,157.74859 C 205.41928,151.05008 195.72449,152.19061 192.9527,154.73142 C 190.18092,157.27222 176.79145,170.66941 170.32395,175.75101 C 163.85646,180.83261 157.40418,190.54619 146.08605,191.23912 C 134.76794,191.93207 125.75711,190.07858 116.51783,180.37733 C 107.27854,170.67609 98.274735,165.12792 89.497415,163.28006 C 97.119825,170.67148 98.012525,176.22034 98.012525,176.22034 C 87.849325,166.28811 72.853115,161.42113 59.225178,162.57605 C 45.597232,163.73096 28.748108,175.76402 28.517132,187.08214 C 28.286146,198.40026 37.065769,210.61604 37.065769,210.61604 C 31.75319,192.36847 33.113272,189.36616 35.423092,185.43947 C 37.732903,181.51277 44.670314,174.6112 54.83353,174.6112 C 52.985672,185.9293 59.223799,192.37122 67.539147,193.9881 C 58.299866,184.97981 60.621791,178.9851 62.007677,173.67251 C 77.714439,172.28663 92.493035,181.97266 110.04767,197.91042 C 90.183225,195.83157 81.857266,202.55748 84.167075,212.25872 C 90.403605,200.47864 105.42804,203.92194 110.04767,206.69372 C 117.43188,215.86804 136.28307,227.00925 155.30517,228.11561 C 122.52377,226.81657 120.79139,232.85462 115.57914,236.02729 C 110.26657,239.26103 107.27694,243.89773 103.8122,245.5146 C 100.34748,247.13149 89.702935,246.88471 85.776245,250.8114 C 81.849552,254.7381 73.779343,269.08132 67.773815,273.239 C 61.768279,277.39666 42.839971,273.4542 39.144264,278.53581 C 35.448547,283.6174 38.42113,288.4663 41.423899,288.92826 C 44.426658,289.39024 47.197071,289.15117 49.737868,292.61591 C 52.278674,296.08064 50.918243,304.63562 53.45904,307.86936 C 55.999846,311.1031 64.302409,309.71054 63.147499,303.24305 C 61.992589,296.77555 64.081791,293.55124 68.008484,291.24142 C 71.935176,288.93159 71.930455,290.08721 74.0093,287.08444 C 76.088134,284.08169 82.080868,275.07914 83.697745,274.84815 C 85.314635,274.61718 86.030045,282.94151 83.027255,288.02312 C 80.024505,293.10471 75.853466,290.55148 73.774631,295.63308 C 71.695787,300.71468 74.683109,305.08686 76.992929,305.08686 C 79.30275,305.08686 82.098958,299.7827 86.949585,299.32073 C 91.800215,298.85877 96.406375,305.77648 100.79503,302.77371 C 105.1837,299.77095 96.410755,292.3893 96.872715,288.69359 C 97.334675,284.9979 102.4186,279.00584 105.42136,274.84815 C 108.42413,270.69049 110.95986,269.52152 113.50066,269.7525 C 116.04146,269.98348 120.19442,274.62051 119.50147,277.16132 C 118.80852,279.70213 112.56902,279.22771 115.10981,284.77128 C 117.65061,290.31482 125.28939,284.32441 128.75411,283.63146 C 132.21885,282.93853 137.52233,285.46089 138.67724,282.45812 C 139.83215,279.45536 135.67585,274.83375 130.36327,271.83099 C 125.05068,268.82823 126.42954,262.82074 127.81543,261.20386 C 129.20133,259.58699 136.60139,261.20581 143.06888,271.83099 C 141.683,261.89877 147.92988,255.20305 147.92988,255.20305 C 148.85381,266.52115 154.83584,267.43934 154.83584,267.43934 C 154.60485,257.73809 171.26263,254.49904 171.26263,254.49904 C 161.79237,264.20028 153.69292,289.17629 172.40245,298.41558 C 168.24477,276.70325 183.73358,264.69037 183.73358,264.69037 C 177.72805,291.94624 189.2684,298.61638 191.57821,300.69522 C 186.7276,277.82799 191.59192,270.67746 198.75237,263.51702 C 192.97782,280.60968 193.89898,298.17319 215.3803,299.79006 C 200.1355,285.00721 205.44577,273.67987 206.83167,265.59551 C 207.25566,263.12219 208.38508,260.38545 209.88235,257.71736 C 208.47479,263.23897 208.96813,269.56393 209.58064,273.239 C 210.50457,278.78255 218.36325,287.31542 222.52093,287.08444 C 226.67861,286.85348 237.29997,285.91847 245.38435,286.38044 C 253.46871,286.8424 266.48736,291.14844 278.64022,297.71158 C 286.49108,301.95142 289.76692,310.96976 292.28451,318.49649 C 294.77678,325.94752 291.75213,339.52687 289.06621,346.69024 C 286.18714,354.36869 280.05192,371.17583 280.2829,382.49395 C 280.51389,393.81207 284.65577,403.96708 285.5797,409.27967 C 286.50363,414.59227 283.28935,423.83615 280.51757,426.37695 C 277.74579,428.91776 273.10839,438.85389 275.18724,447.63121 C 280.26884,431.69343 281.66811,433.98358 284.43988,431.67375 C 287.21166,429.36395 291.5842,420.35068 291.81518,416.65497 C 295.27992,430.05192 295.29063,447.8615 294.59768,451.78819 C 293.90473,455.71487 274.02934,483.66451 270.79559,491.74888 C 267.56184,499.83326 267.34998,511.12511 267.81194,515.28278 C 271.50766,498.19009 276.56875,488.28149 279.10956,485.27874 C 281.65036,482.27597 297.119,460.7928 299.65981,451.55352 C 302.20061,442.31426 298.73589,415.5118 299.65981,413.20199 C 300.58373,410.89216 307.07128,427.74336 313.53878,431.43908 C 309.84307,422.43078 311.91084,420.12004 312.83477,414.57647 C 320.91914,427.51148 327.17536,424.52576 328.79223,424.06378 C 321.40081,416.67238 323.22723,413.906 323.22723,413.906 C 336.62417,423.37625 339.85517,421.51596 339.85517,421.51596 C 336.85241,414.58651 337.1062,415.28048 337.1062,415.28048 C 343.80466,422.20996 350.49671,416.21547 353.49947,415.98448 C 356.50222,415.7535 360.87879,422.67651 359.03094,432.37775 C 357.18308,442.07899 351.88397,457.32231 345.1855,463.78981 C 338.487,470.25731 322.09548,472.57679 318.39976,472.80779 C 314.70404,473.03876 307.74717,467.95751 304.05147,470.72929 C 300.35575,473.50108 302.89621,479.50119 306.12995,480.88709 C 309.36371,482.27297 308.90509,490.57486 308.44312,494.73253 C 307.98115,498.89021 308.91545,503.05421 313.30411,501.43734 C 317.69276,499.82045 317.9227,490.33385 319.53958,487.79304 C 321.15646,485.25226 327.39896,484.10206 328.32289,481.79223 C 329.24681,479.48242 335.01019,476.2403 336.1651,476.4713 C 337.32001,476.70227 330.39032,480.64436 329.69738,484.34006 C 329.00442,488.03579 329.23104,489.43573 333.61969,489.43573 C 338.00835,489.43573 341.03554,486.88386 343.57634,488.73172 C 346.11714,490.57957 346.57405,500.50603 351.65564,500.968 C 356.73725,501.42996 361.12453,495.66418 359.96961,493.12337 C 358.8147,490.58255 356.02483,485.03704 356.71777,482.49624 C 357.41071,479.95545 370.59605,467.49623 374.75372,466.5723 C 378.91142,465.64837 384.9038,467.93505 386.52067,471.39977 C 388.13756,474.86452 385.14918,480.88709 389.53783,480.88709 C 393.9265,480.88707 395.75823,479.94507 396.91313,477.63525 C 398.06804,475.32542 396.68179,472.80814 398.99162,470.72929 C 401.30143,468.65046 408.91843,468.6364 409.14941,465.63363 C 409.3804,462.63088 405.01926,455.02125 400.39963,455.94518 C 395.77999,456.8691 393.91509,461.93125 390.91232,461.00731 C 387.90954,460.0834 380.97779,458.24762 382.36369,455.47584 C 383.74956,452.70407 396.68481,445.99257 403.38327,444.14471 C 397.37774,442.29685 392.52148,443.00489 392.52148,443.00489 C 406.38038,433.07266 424.63753,426.61161 424.63753,426.61161 C 417.93907,424.76375 404.08728,427.51677 404.08728,427.51677 C 420.25603,416.19865 430.8646,408.80331 436.63915,406.2625 C 424.3971,406.72448 419.34072,409.74901 419.34072,409.74901 C 423.7294,398.66188 438.95231,389.16523 438.95231,389.16523 C 429.02008,387.31737 425.56145,391.02011 424.63753,391.71306 C 426.94737,385.01458 435.96866,379.47678 435.96866,379.47678 C 427.88429,377.85991 418.63672,378.77277 418.63672,378.77277 C 423.94932,373.22921 436.17684,370.46618 438.71764,370.92814 C 428.32344,367.6944 417.02757,369.55365 417.02757,369.55365 C 429.96257,364.47205 443.80189,355.00225 445.18779,344.37708 C 432.94573,355.92618 422.09811,358.23726 416.32356,359.16119 C 410.54903,360.08513 402.24748,365.38123 400.39963,368.61498 C 398.55177,371.84871 398.76801,377.62892 399.46096,379.47678 C 389.06677,373.47125 380.74819,370.45881 374.04972,370.45881 C 367.35125,370.45881 351.42535,370.9241 347.49866,372.77196 C 350.50143,357.9891 347.94392,327.96813 335.93285,310.18253 C 355.10436,328.19912 357.64263,326.59457 373.58038,325.67064 C 389.51814,324.74672 406.83925,316.66108 411.22791,310.88653 C 415.61657,305.11198 426.26443,287.54041 431.57702,278.30114 C 436.8896,269.06186 440.56504,258.44717 463.89422,260.06404 C 450.49725,249.43887 438.71465,254.2895 434.32599,260.06404 C 429.93733,265.83859 427.19308,268.13896 425.57621,272.06565 C 427.42406,247.58155 425.55615,225.1951 411.69724,203.94475 C 404.30584,206.0236 400.16496,210.85071 400.16496,210.85071 C 407.09443,219.16605 408.91474,232.32386 408.91474,237.63644 C 398.52057,237.86742 393.44944,239.74143 390.67765,237.20063 C 387.90586,234.65982 387.45163,225.8779 389.0685,220.10335 C 390.68538,214.3288 395.0686,207.84898 399.22629,204.61524 C 403.38396,201.38148 414.69897,198.61442 417.93272,198.61442 C 409.38638,194.22578 391.3599,198.85946 387.89516,203.71008 C 384.43042,208.5607 380.27344,218.02279 383.73817,230.49582 C 375.65381,218.71574 380.27379,207.3907 381.65968,204.84991 C 383.04557,202.3091 389.53311,195.60866 395.53864,194.22277 C 401.54419,192.83688 411.71129,193.29919 416.7929,192.14428 C 421.87451,190.98937 436.63547,187.05807 436.40448,175.047 C 424.16242,185.90317 420.25129,186.15821 410.08808,187.08214 C 399.92487,188.00607 393.92949,188.45663 393.92949,188.45663 C 402.93779,184.06798 409.17556,178.5198 408.7136,171.35936 C 404.32496,177.82685 389.2814,181.52821 385.81666,182.22115 C 382.35194,182.9141 367.35701,190.29941 361.81343,196.53594 C 356.26988,202.77245 354.68261,209.82693 354.87396,220.33802 C 354.97939,226.13006 357.40599,232.56993 362.71859,236.49662 C 368.03116,240.42331 375.43319,247.12744 388.59916,247.35842 C 401.76515,247.58941 409.61875,245.74927 409.61875,245.74927 C 411.23562,263.53487 404.30456,288.24903 396.91313,296.10242 C 389.52172,303.95579 381.66913,309.72425 369.65807,310.41719 C 357.64701,311.11014 341.73056,304.63032 331.10539,294.92908 C 320.48021,285.22782 301.89505,263.53659 297.58132,245.27993 C 295.76676,237.6003 295.35332,235.20358 295.06701,230.96515 C 294.88918,228.33249 295.7469,226.11652 295.90512,224.15977 C 302.61599,238.19205 306.92297,240.44184 312.38387,243.53685 C 302.68263,228.86949 300.60955,223.33883 301.30249,209.71089 C 301.99544,196.08295 306.82555,188.69267 312.6001,180.37733 C 309.13537,201.62766 313.54615,220.32961 315.16302,225.6422 C 313.77715,200.69614 320.40547,186.31747 321.14874,180.14267 C 321.89943,173.90615 321.14874,155.20076 321.14874,155.20076 C 324.49798,162.24571 324.9589,163.84875 327.38422,171.12469 C 326.00852,148.19438 327.3736,151.50281 327.61889,138.33815 C 327.84919,125.97728 323.74836,108.31481 321.11521,103.84188 C 320.8903,103.54355 320.71576,103.31594 320.47826,103.00378 C 320.67469,103.18237 320.89458,103.4671 321.11521,103.84188 C 328.54615,113.6985 329.22804,116.14521 329.22804,116.14521 C 329.69001,102.74825 331.07291,90.988113 324.83639,85.906497 C 322.29558,73.202485 331.5519,61.188547 334.3237,58.416763 C 322.31264,58.416762 321.97612,60.144924 319.20434,61.299833 C 321.51414,53.215461 326.233,53.336197 327.61889,52.181286 C 317.68666,49.640487 295.27992,67.176908 291.81518,72.027535 C 295.74187,62.326283 309.48236,55.299025 309.48236,55.299025 C 302.43743,55.991965 291.59964,58.647399 288.59687,60.495255 C 296.91222,54.489724 310.76699,52.184974 313.53878,52.415955 C 307.58377,50.250498 302.84263,49.461213 298.95581,49.432313 z M 73.082722,257.97957 C 74.635229,261.47273 67.539147,268.37376 64.998351,269.2977 C 62.457544,270.22162 61.071658,264.90904 58.761837,265.371 C 56.452017,265.83297 55.297107,270.68359 50.677466,269.99064 C 46.057825,269.2977 43.97899,264.90904 45.133901,261.21332 C 46.288801,257.51762 51.139437,256.82466 51.832376,254.97681 C 52.525324,253.12896 50.908442,245.96852 54.604159,243.19672 C 58.299875,240.42495 63.150492,244.12066 63.381478,246.19949 C 63.612454,248.27834 62.457544,251.74307 64.305403,253.59092 C 66.153261,255.43877 71.863447,255.23621 73.082722,257.97957 z M 269.37519,310.99224 C 265.14971,307.45463 257.33327,312.84839 255.04667,313.66504 C 252.76007,314.48168 236.01885,312.68506 230.30234,314.97168 C 224.58583,317.25828 217.78012,324.23418 216.25606,323.95476 C 206.45631,322.15815 193.22667,321.17817 183.7536,323.79143 C 174.28052,326.4047 160.88755,343.55423 152.06778,347.80079 C 143.24802,352.04734 138.83814,355.15058 128.54843,354.6606 C 118.2587,354.17061 111.56222,347.96412 105.35571,348.12744 C 99.149205,348.29077 86.572885,351.23069 80.856362,356.45722 C 75.13984,361.68374 65.340108,372.30013 57.663654,371.64681 C 49.98719,370.99349 39.697472,365.60364 35.777578,359.56047 C 37.247544,372.62678 49.98719,377.52665 56.357022,377.68998 C 62.726855,377.85331 71.546615,376.05669 83.796275,362.82705 C 96.209285,349.5974 112.21553,357.60052 114.99212,359.2338 C 117.76871,360.8671 128.54843,361.52042 137.20485,360.37711 C 145.86129,359.2338 150.10783,359.56047 161.54087,352.21067 C 152.06778,363.80701 152.88443,367.89025 152.88443,374.4234 C 152.88443,380.95656 152.72111,388.46969 150.43449,394.67618 C 148.14789,400.88268 135.89822,407.08919 131.97833,411.66239 C 128.05844,416.2356 122.34193,427.17864 117.60539,430.28189 C 112.86885,433.38514 100.29251,439.75498 94.902655,439.59164 C 89.512795,439.42832 84.776245,430.28189 79.549721,430.93521 C 74.323213,431.58852 72.689912,436.97838 73.669893,439.10166 C 74.649864,441.22492 79.876381,444.65484 79.876381,448.4114 C 79.876381,452.16796 74.976515,456.57784 77.426453,460.00776 C 79.876381,463.43766 85.756235,461.80437 87.716185,459.51777 C 89.676135,457.23116 90.492775,452.00464 92.616055,450.37134 C 94.739325,448.73806 96.699275,451.8413 98.659225,451.8413 C 100.61917,451.8413 107.31566,448.57473 108.78563,450.37134 C 110.25558,452.16796 108.29564,459.19111 106.82568,460.49774 C 105.35571,461.80437 96.862605,460.8244 95.229305,464.58097 C 93.596025,468.33753 93.596025,471.93076 97.025935,473.23739 C 100.45584,474.54403 104.04908,472.25742 106.66235,472.74741 C 109.2756,473.23739 110.25558,477.15729 115.31878,477.32062 C 120.38198,477.48395 122.17859,473.23739 121.36195,470.29748 C 120.5453,467.35755 117.76871,460.8244 119.07535,459.19111 C 120.38198,457.55782 128.3851,455.7612 130.50837,454.45457 C 132.63165,453.14794 142.43138,445.30814 145.3713,439.91829 C 149.94451,441.55158 151.74112,443.8382 149.94451,445.47148 C 148.14789,447.10477 144.88131,451.35132 145.20797,453.80125 C 145.53463,456.25118 148.47455,461.80437 154.02774,460.00776 C 159.58092,458.21113 155.66102,452.3313 158.60094,450.04469 C 161.54087,447.75808 168.72733,451.02466 170.85061,448.24808 C 172.97389,445.47148 171.83058,440.89826 169.21733,439.59164 C 166.60406,438.28501 160.0709,439.26498 158.60094,436.65172 C 157.13099,434.03845 155.98768,432.07851 159.41759,430.28189 C 162.8475,428.48528 176.24046,429.62858 182.28364,430.93521 C 179.67038,425.38202 177.38377,421.95211 177.38377,421.95211 C 190.28676,428.6486 193.22667,437.95835 194.04332,441.55158 C 194.85997,445.14482 197.47323,449.88137 192.73669,460.98772 C 188.00015,472.09409 187.34683,487.44701 187.67349,489.89695 C 190.61342,473.56405 201.39311,455.92453 200.57648,447.2681 C 199.75983,438.61167 195.0233,424.23872 190.61342,418.35889 C 203.35307,429.7919 213.96944,440.24495 216.09273,455.10789 C 216.25605,440.57161 209.23291,428.48528 199.26985,418.03222 C 222.62588,436.97838 235.03888,448.73806 242.38868,471.76743 C 238.95877,442.53155 225.89246,435.83507 220.01262,428.6486 C 214.13278,421.46212 209.7229,418.03222 208.74292,411.66239 C 207.76295,405.29256 206.78298,383.73315 208.41627,377.03666 C 210.04956,370.34018 212.98947,370.01353 215.76607,365.9303 C 218.54266,361.84708 218.18615,353.06121 222.13589,351.39403 C 231.69579,347.35877 244.04097,347.14367 248.43185,343.71756 C 252.83638,340.28079 261.00817,330.81458 262.96812,329.99793 C 264.92806,329.18129 274.61352,329.02087 274.67616,326.84271 C 274.95085,317.39875 272.17285,313.33448 269.37519,310.99224 z M 382.0349,180.55197 C 383.83151,177.93871 391.34465,176.95874 391.34465,176.95874 C 383.01486,171.56887 371.2552,155.39931 366.51866,147.88619 C 361.78213,140.37305 358.18888,130.40999 357.86222,122.73354 C 357.53556,115.05707 356.22893,106.56397 360.63882,99.377498 C 362.27975,96.703398 367.98861,92.191028 368.96859,91.374386 C 373.54179,96.437578 380.07496,101.33746 383.01486,102.1541 C 385.9548,102.97075 396.89783,103.78738 402.12436,102.31743 C 407.35088,100.84746 416.66062,93.007668 422.37714,90.557739 C 428.09366,88.10779 436.09677,86.637837 439.85333,86.801166 C 443.60989,86.964495 454.22627,90.721068 458.63616,94.967618 C 452.51007,85.015623 438.38336,80.594665 432.66686,81.574641 C 426.95035,82.554616 416.4973,85.821191 408.6575,91.047727 C 400.81773,96.274248 390.20134,96.274248 385.79146,94.477628 C 396.7345,89.251106 395.5912,92.191028 402.45102,90.231081 C 409.31082,88.271119 416.98728,80.757994 418.62057,77.981397 C 410.78079,82.554616 402.93527,88.384411 391.0598,86.63354 C 403.92751,77.883495 418.45724,72.591541 418.13058,59.851894 C 412.5774,66.875037 398.876,78.662233 391.52621,78.498904 C 403.44921,66.249238 412.25074,56.911973 411.59743,49.7255 C 406.04424,58.218604 393.4404,67.832852 387.88723,71.262761 C 401.01965,46.34277 394.28456,34.045924 393.46791,27.676096 C 393.14125,40.089095 394.58621,47.821308 387.28358,62.858289 C 383.95753,69.707017 373.05181,75.858127 373.05181,75.858127 C 373.54179,65.731734 376.4181,62.528771 380.50133,59.098864 C 384.58455,55.668957 385.79146,50.705474 384.81149,43.519001 C 382.85154,53.155408 376.31839,56.421986 374.35844,59.361907 C 372.39849,62.301828 369.29525,67.85501 368.80526,70.958262 C 367.66195,61.81184 370.60188,57.891946 373.54179,54.29871 C 376.48172,50.705474 374.52177,42.702356 374.52177,42.702356 C 370.11189,52.665421 368.31526,55.605342 364.5587,60.34188 C 360.80214,65.078419 358.18888,71.121591 360.63882,82.391287 C 352.79902,91.374386 347.57249,103.78739 347.24583,110.81053 C 346.91918,117.83367 347.40917,134.65654 351.00241,141.84302 C 354.59565,149.0295 358.35221,155.23599 364.39538,163.07577 C 370.43855,170.91556 372.23516,172.71218 382.0349,180.55197 z M 113.68549,427.34197 C 113.90256,430.45326 99.965845,434.20179 98.332565,434.20179 C 96.699275,434.20179 93.269375,424.7287 89.349475,423.42208 C 85.429575,422.11545 77.916438,425.38202 75.303175,423.09542 C 72.689912,420.80881 74.159878,416.2356 75.956496,413.78567 C 77.753113,411.33573 83.632945,411.17241 85.102915,409.86577 C 86.572885,408.55914 87.879515,402.35265 89.676135,399.41272 C 91.472745,396.4728 97.515925,398.43275 98.985875,401.20934 C 100.45584,403.98594 96.862605,412.47904 97.515925,413.949 C 98.169245,415.41895 113.41257,423.43012 113.68549,427.34197 z M 336.62946,462.29435 C 336.47254,465.57237 317.66199,470.84027 310.98682,467.35755 C 307.23025,465.3976 315.39671,461.15105 316.05001,459.84443 C 316.70333,458.53779 314.2534,449.06472 317.19332,447.2681 C 320.13324,445.47148 323.39982,447.43143 324.86978,450.698 C 326.33974,453.96459 324.86978,456.25118 327.97303,458.04781 C 331.07628,459.84443 336.88788,456.89585 336.62946,462.29435 z M 225.07582,94.804288 C 228.17907,101.66411 228.50572,101.66411 228.50572,101.66411 L 233.73224,97.744218 L 236.34552,102.48075 L 242.06202,100.03081 C 242.06202,100.03081 245.98191,103.46072 247.6152,103.62405 C 247.28854,96.764238 245.65525,96.437578 245.65525,96.437578 C 245.65525,96.437578 228.45814,96.987528 224.74916,91.864378 C 224.13587,91.01725 225.23914,94.804288 225.07582,94.804288 z M 227.52575,122.08022 C 230.629,118.97696 232.26229,119.14031 234.38556,119.05862 C 235.33722,119.02202 243.36865,121.59023 247.12521,123.38685 C 250.88178,125.18347 242.71534,117.50701 242.71534,117.50701 L 237.81546,118.16033 L 235.03888,115.05707 L 231.44564,117.34368 L 227.36242,114.89375 C 227.36242,114.89375 226.7091,119.1403 227.52575,122.08022 z"
       style="fill:#fff20f;fill-opacity:1;fill-rule:evenodd;stroke:none;stroke-width:1px;stroke-linecap:butt;stroke-linejoin:miter;stroke-opacity:1"
       id="path3946" />
    <path
       sodipodi:nodetypes="csscssccsscssccssccscccsccsscccssscsccssssccccccccccccccscssccccccccccccccccccccccccccccccc"
       d="M 204.2805,161.19813 C 192.50042,161.6601 181.87525,173.90214 175.86971,178.98374 C 169.86418,184.06535 157.16017,193.76659 149.76876,194.69052 C 142.37732,195.61445 135.21689,196.53838 125.51564,194.22855 C 139.37456,201.61997 150.92366,199.07917 158.08409,196.76936 C 165.24453,194.45953 186.72587,177.59785 192.26943,173.90214 C 197.813,170.20643 209.82406,171.13035 209.82406,171.13035 M 227.60967,178.98374 C 227.60967,178.98374 204.74246,177.59785 199.66086,180.36964 C 194.57926,183.14142 183.49212,192.84266 179.10346,196.53838 C 174.7148,200.23408 173.09794,203.9298 160.16294,206.70158 C 173.79088,207.62551 184.18507,199.54114 193.65533,193.30463 C 203.12558,187.06811 219.5253,187.53008 225.9928,186.60614 C 232.46029,185.68222 244.93332,183.14142 253.01768,176.44295 M 320.00246,66.264534 C 306.37453,67.650426 302.21685,75.503812 302.90979,78.506571 C 303.60273,81.509341 306.6055,84.281121 311.22514,82.664254 C 315.84478,81.047374 316.76872,72.501043 320.00246,66.264534 z M 318.61658,134.6352 C 320.46441,122.39316 318.84755,112.46094 313.99693,105.76247 C 309.14631,99.063988 302.21685,94.675318 299.44506,93.982378 C 314.22791,96.292198 319.07853,90.748628 323.00522,86.12898 M 300.83095,111.30603 C 310.53219,118.92843 312.38005,139.7168 312.84202,146.41528 C 313.30398,153.11377 313.76595,158.88831 312.84202,162.35305 C 311.45612,155.88555 307.29845,154.26867 306.37453,154.03769 C 310.07023,163.73893 304.52667,176.67392 301.75488,182.21749 C 298.98309,187.76106 290.66774,193.99758 288.58891,198.61722 C 286.51008,203.23685 285.81713,205.08471 284.20025,210.39729 C 281.89043,196.53838 295.74935,179.21473 295.74935,179.21473 M 297.36623,150.111 C 298.98309,163.04599 291.59168,173.44018 287.434,178.05982 C 283.27632,182.67945 267.56955,188.91597 260.17813,193.76659 C 252.7867,198.61722 246.55019,200.69605 243.08546,205.54667 C 239.62074,210.39729 239.38976,218.94363 239.62074,220.79148 C 245.16429,208.78041 245.62627,209.70435 252.55573,205.08471 C 259.48518,200.46507 274.49901,193.99758 274.49901,193.99758 M 264.10482,178.98374 C 255.78947,188.454 247.01215,192.14972 233.84619,193.99758 C 220.68021,195.84542 215.13665,194.69052 208.66915,197.23132 C 202.20165,199.77212 187.18783,211.78318 183.26113,214.32399 C 179.33444,216.86478 173.09794,218.48166 165.24453,219.1746 C 157.39115,219.86754 149.07581,214.78595 149.07581,214.78595 M 279.8116,108.53424 C 289.51284,108.30326 293.43954,109.45817 298.98309,108.53424 C 292.97757,114.53978 285.35516,116.61861 282.58338,116.61861 C 289.28186,119.3904 296.4423,120.08334 296.4423,120.08334 C 290.66774,124.70298 281.19749,125.16493 281.19749,125.16493 C 290.66774,129.5536 289.28186,129.78458 292.97757,131.40146 C 288.35793,136.71404 277.50177,134.17324 277.50177,134.17324 M 273.80606,137.17601 C 282.69888,141.1027 287.31852,150.34197 285.93262,158.77282 C 279.46513,147.57019 273.22861,146.2998 272.0737,145.83783 C 270.6878,161.54461 256.02045,165.24032 251.63179,165.58679 C 260.40911,159.0038 261.33304,151.15041 261.33304,151.15041 M 192.50042,218.71264 C 183.7231,227.48995 172.5379,232.25062 162.74266,234.21977 C 151.86356,236.40682 149.86225,237.46111 142.15391,237.21445 C 150.85695,241.54852 160.16294,241.11789 164.08963,241.34888 C 168.01632,241.57986 181.87525,238.34611 188.57371,233.95745 C 195.2722,229.56879 202.20165,221.9464 202.20165,221.9464 M 210.28603,257.28663 L 210.28603,257.28663 C 210.28603,257.28663 221.14218,242.50378 233.15324,237.65317 C 223.452,248.04735 221.37316,256.13172 221.37316,256.13172 C 234.07717,242.50378 245.39529,233.03353 249.55296,230.72371 C 237.31092,246.43048 226.68574,259.13449 225.76183,261.90626 C 241.4686,247.58539 267.33856,229.33781 268.95545,227.25898 C 252.7867,249.66422 252.08921,251.91187 247.97854,255.92855 C 255.71517,251.75873 278.19472,225.41112 280.04258,223.1013 C 274.96097,240.42495 267.99614,250.68622 262.65221,258.08926 C 276.02592,250.09485 285.58615,224.48719 285.58615,224.48719 C 284.8932,243.42772 289.28186,255.66976 291.59168,258.21057 C 289.74382,243.88968 292.28463,218.94363 292.28463,218.94363 M 325.84975,398.75941 L 325.84975,398.75941 C 325.84975,398.75941 332.38291,407.41584 344.63258,408.8858 C 336.13948,402.84263 333.03622,395.16617 333.03622,395.16617 M 344.63258,398.59609 C 352.6357,398.43275 357.04558,398.59609 359.33218,399.08606 C 349.85911,393.36956 339.24273,383.56982 337.4461,381.44654 C 348.06248,385.03978 356.22894,383.56982 356.22894,383.56982 C 350.67575,382.42652 345.2859,376.22002 345.2859,376.22002 M 162.52084,378.83328 C 165.78741,381.44654 169.05399,388.30636 169.05399,391.24627 C 173.30055,385.36644 172.32057,374.91338 172.32057,374.91338 M 177.5471,369.3602 C 180.81367,380.46657 180.81367,395.49283 180.81367,395.49283 C 187.02018,386.99973 188.00015,377.52665 188.00015,377.52665 C 189.30678,390.91962 198.4532,392.55291 198.4532,392.55291 C 195.83993,387.9797 197.47323,380.46657 197.47323,380.46657"
       style="fill:none;fill-rule:evenodd;stroke:#000000;stroke-width:3.29999995;stroke-linecap:round;stroke-linejoin:miter;stroke-miterlimit:40;stroke-dasharray:none;stroke-opacity:1"
       id="path3877" />
    <path
       d="M 95.229305,30.616017 C 107.31566,33.882595 113.19551,44.988962 111.88888,48.255541 C 110.58223,51.522119 101.76248,50.542144 97.515925,47.275567 C 93.269375,44.008989 96.862605,39.435778 95.229305,30.616017 z M 39.370812,43.355672 C 47.863922,36.822516 55.703702,39.109121 59.623596,40.742411 C 63.543501,42.375699 52.437128,53.482066 49.823864,52.175434 C 47.210601,50.868804 47.863922,45.31562 39.370812,43.355672 z M 40.677444,93.987648 C 38.717501,82.881264 43.290716,80.594665 46.883951,78.634714 C 50.477176,76.674774 52.763788,90.721068 52.110477,92.354358 C 51.457156,93.987648 47.210601,90.067751 40.677444,93.987648 z M 75.303175,131.55329 C 86.082895,131.55329 94.902655,123.06019 90.982765,117.50701 C 87.062865,111.95383 81.836333,113.58711 78.89641,116.20037 C 75.956496,118.81364 79.876381,123.38685 75.303175,131.55329 z M 28.041243,270.45261 C 24.576503,253.12896 34.739718,245.27558 40.976222,244.12066 C 47.212745,242.96575 49.019455,249.68206 47.443721,251.97404 C 42.362109,259.36547 41.207208,256.82466 35.663643,260.28939 C 30.120068,263.75411 29.889092,266.7569 28.041243,270.45261 z M 39.128364,315.49409 C 29.42712,308.10267 36.818553,294.01276 38.897387,292.62688 C 40.976222,291.24099 45.133901,293.5508 46.981749,296.09161 C 48.829608,298.6324 49.060593,301.86615 49.060593,304.63793 C 49.060593,307.40971 43.921244,307.12099 42.419864,308.73787 C 40.970812,310.2984 40.052298,311.56739 39.128364,315.49409 z M 99.645645,316.87998 C 88.096545,319.1898 80.012174,314.1082 79.319226,309.25757 C 78.626287,304.40695 84.631815,303.71401 86.941645,303.25204 C 89.251465,302.79007 96.642885,306.02383 96.642885,307.87169 C 96.642885,309.71954 97.104855,313.87721 99.645645,316.87998 z M 125.28467,303.94499 C 136.14082,299.55633 139.83652,290.54803 138.68161,289.39313 C 137.52671,288.23822 131.98313,287.0833 128.05644,288.00724 C 124.12975,288.93116 122.05091,290.08607 122.97484,292.62688 C 123.89877,295.16768 126.43958,300.71124 125.28467,303.94499 z M 60.276917,405.94588 C 67.30006,393.53289 83.796275,392.87957 85.102915,396.14615 C 86.409555,399.41272 81.999668,408.8858 75.793161,410.35576 C 69.586673,411.82572 68.606692,406.27254 60.276917,405.94588 z M 63.380166,463.92765 C 59.296946,451.51465 63.706826,443.02155 68.280041,441.0616 C 72.853247,439.10166 75.13984,448.08474 74.976515,451.67798 C 74.813189,455.27121 65.830094,458.04781 63.380166,463.92765 z M 109.76559,497.24675 C 97.760905,494.38848 95.229305,480.01555 96.699275,478.30059 C 98.169245,476.58564 106.17235,476.01398 109.60226,479.36223 C 113.03218,482.71047 107.80566,489.32529 109.76559,497.24675 z M 169.70732,471.93076 C 172.4839,462.94767 173.8722,454.29125 170.44229,452.57629 C 167.01239,450.86133 163.74581,452.98461 162.43917,454.45457 C 161.13254,455.92453 159.58092,459.10944 159.74425,461.23272 C 159.90758,463.35599 166.2774,467.03089 169.70732,471.93076 z M 298.08384,460.82441 C 302.82037,448.41139 310.00685,446.77811 312.13012,448.08474 C 314.2534,449.39137 311.47681,460.66106 309.84352,461.64104 C 308.21023,462.62101 302.16706,460.98773 298.08384,460.82441 z M 296.45056,501.65663 C 290.24405,493.00019 291.87733,482.05715 296.45055,480.42387 C 301.02375,478.79058 303.96368,481.24051 305.10698,485.81372 C 306.25028,490.38694 304.78032,492.34688 303.47369,493.98017 C 302.16706,495.61346 298.24717,498.88004 296.45056,501.65663 z M 340.54936,515.53959 C 330.25963,513.41631 326.50306,497.73673 328.78968,493.49019 C 331.07628,489.24363 341.36601,493.16353 344.63258,498.55338 C 347.89915,503.94323 339.40605,507.37314 340.54936,515.53959 z M 411.76076,491.04024 C 415.19067,481.40384 415.84398,475.36068 409.96414,472.58408 C 404.0843,469.80749 400.32773,475.03402 399.83775,479.77056 C 399.34776,484.50709 409.47415,487.28368 411.76076,491.04024 z M 188.81679,71.28492 C 183.52403,70.457933 180.16037,81.247982 180.81367,86.637837 C 181.46699,92.027698 192.08337,103.62405 201.22979,107.05397 C 210.37622,110.48387 231.11899,111.46385 237.65214,113.42378 C 244.1853,115.38373 251.37176,123.22353 253.98503,125.34679 C 256.59829,127.47007 260.35485,123.7135 260.84484,121.75356 C 261.33483,119.79361 260.68151,114.40376 249.57514,108.19727 C 238.46878,101.99077 219.03264,103.95071 212.33615,101.0108 C 205.63968,98.070868 198.94766,95.823488 194.36998,90.884398 C 188.16348,84.187898 199.20361,72.907859 188.81679,71.28492 z"
       style="fill:#ff0000;fill-opacity:1;fill-rule:evenodd;stroke:#000000;stroke-width:1.07277012px;stroke-linecap:butt;stroke-linejoin:miter;stroke-opacity:1"
       id="path3867" />
  </g>
</svg>
