<?xml version="1.0" encoding="UTF-8" standalone="no"?>
<!-- Created with Inkscape (http://www.inkscape.org/) -->
<svg
   xmlns:svg="http://www.w3.org/2000/svg"
   xmlns="http://www.w3.org/2000/svg"
   xmlns:xlink="http://www.w3.org/1999/xlink"
   version="1.0"
   width="239.59415"
   height="280.64725"
   id="svg2780">
  <defs
     id="defs2782" />
  <g
     transform="translate(-1.9315071,-796.8129)"
     id="layer1">
    <path
       d="M 2.9315071,797.8129 L 7.2513961,979.2576 C 10.337023,1108.861 233.12013,1108.861 236.20577,979.2576 L 240.52565,797.8129 L 2.9315071,797.8129 z"
       id="path3282"
       style="fill:#f7e742;fill-opacity:1;fill-rule:evenodd;stroke:none;stroke-width:2;stroke-linecap:butt;stroke-miterlimit:4;stroke-dashoffset:0;stroke-opacity:1" />
    <path
       d="M 2.9375,-6.53125 L 6.03125,124.03125 L 124.03125,124.03125 L 124.03125,-6.53125 L 2.9375,-6.53125 z"
       transform="translate(0,804.33069)"
       id="rect6318"
       style="opacity:1;fill:#ca3921;fill-opacity:1;fill-rule:evenodd;stroke:#000000;stroke-width:1.00000012px;stroke-linecap:butt;stroke-linejoin:miter;marker:none;marker-start:none;marker-mid:none;marker-end:none;stroke-miterlimit:4;stroke-dasharray:none;stroke-dashoffset:0;stroke-opacity:1;visibility:visible;display:inline;overflow:visible;enable-background:accumulate" />
    <path
       d="M 124.03125,124.03125 L 124.03125,272.09375 C 179.72035,271.22431 234.69692,238.85777 236.21875,174.9375 L 237.4375,124.03125 L 124.03125,124.03125 z"
       transform="translate(0,804.33069)"
       id="rect6320"
       style="opacity:1;fill:#000000;fill-opacity:1;fill-rule:evenodd;stroke:#000000;stroke-width:1.00000012px;stroke-linecap:butt;stroke-linejoin:miter;marker:none;marker-start:none;marker-mid:none;marker-end:none;stroke-miterlimit:4;stroke-dasharray:none;stroke-dashoffset:0;stroke-opacity:1;visibility:visible;display:inline;overflow:visible;enable-background:accumulate" />
    <path
       d="M 38.45877,944.7083 L 40.453752,940.03668 C 53.753628,948.59847 64.256888,943.05616 75.365926,940.90948 C 86.354741,938.78604 109.2425,946.79739 109.65467,961.67672 C 110.07029,976.68064 94.73387,981.99595 88.582677,983.80158 C 105.33083,986.49305 115.35726,996.1347 115.01618,1010.8585 C 114.67222,1025.7069 100.13861,1035.3801 83.844597,1035.297 C 67.549465,1035.2139 51.426149,1035.7958 40.703124,1036.0451 L 40.204379,1032.3045 C 44.451098,1031.3486 49.552107,1025.5686 49.45332,1019.9606 L 48.308991,954.99904 C 48.221755,950.04679 42.698106,946.72543 38.45877,944.7083 z M 64.019469,987.16811 L 63.894783,1030.933 C 83.987179,1032.3759 98.052621,1021.2256 98.183525,1008.7388 C 98.314449,996.25006 85.385136,984.86636 64.019469,987.16811 z M 63.146665,980.68442 L 63.021978,951.50782 C 84.052407,943.90195 92.175416,956.37064 92.323268,964.10114 C 92.468735,971.70701 85.385136,984.79907 63.146665,980.68442 z"
       id="path5778"
       style="fill:#000000;fill-opacity:1;fill-rule:evenodd;stroke:none;stroke-width:1px;stroke-linecap:butt;stroke-linejoin:miter;stroke-opacity:1" />
    <use
       transform="translate(108.99718,-120.10498)"
       id="use6295"
       style="fill:#000000;fill-opacity:1"
       x="0"
       y="0"
       width="248.03149"
       height="248.03149"
       xlink:href="#path5778" />
    <path
       d="M 187.26511,981.8716 C 205.8869,981.51999 221.90888,982.4579 228.93137,971.47682 C 230.25676,979.00232 228.0722,984.97747 223.76606,988.74859 C 228.0722,992.51971 230.25676,998.49489 228.93137,1006.0204 C 221.90888,995.03928 205.8869,995.97719 187.26511,995.62558 C 187.61672,1014.2474 186.67881,1030.2694 197.6599,1037.2919 C 190.13442,1038.6173 184.15924,1036.4328 180.38812,1032.1266 C 176.617,1036.4328 170.64182,1038.6173 163.11634,1037.2919 C 174.09743,1030.2694 173.15952,1014.2474 173.51113,995.62558 C 154.88934,995.97719 138.86736,995.03928 131.84487,1006.0204 C 130.51948,998.49489 132.70404,992.51971 137.01018,988.74859 C 132.70404,984.97747 130.51948,979.00229 131.84487,971.47681 C 138.86736,982.4579 154.88934,981.51999 173.51113,981.8716 C 173.15952,963.24981 174.09743,947.22783 163.11634,940.20534 C 170.64182,938.87995 176.617,941.06451 180.38812,945.37065 C 184.15924,941.06451 190.13442,938.87995 197.6599,940.20534 C 186.67881,947.22783 187.61672,963.24981 187.26511,981.8716 z"
       id="path6297"
       style="opacity:1;fill:#ffffff;fill-opacity:1;fill-rule:evenodd;stroke:none;stroke-width:1px;stroke-linecap:butt;stroke-linejoin:miter;marker:none;marker-start:none;marker-mid:none;marker-end:none;stroke-miterlimit:4;stroke-dasharray:none;stroke-dashoffset:0;stroke-opacity:1;visibility:visible;display:inline;overflow:visible;enable-background:accumulate" />
    <path
       d="M 57.5,-6.53125 L 57.5,53.78125 L 4.375,53.78125 L 4.75,69.25 L 57.5,69.25 L 57.5,124.01575 L 72.96875,124.01575 L 72.96875,69.25 L 124.01575,69.25 L 124.01575,53.78125 L 72.96875,53.78125 L 72.96875,-6.53125 L 57.5,-6.53125 z"
       transform="translate(0,804.33069)"
       id="rect6308"
       style="opacity:1;fill:#ffffff;fill-opacity:1;fill-rule:evenodd;stroke:#000000;stroke-width:1px;stroke-linecap:butt;stroke-linejoin:miter;marker:none;marker-start:none;marker-mid:none;marker-end:none;stroke-miterlimit:4;stroke-dasharray:none;stroke-dashoffset:0;stroke-opacity:1;visibility:visible;display:inline;overflow:visible;enable-background:accumulate" />
    <path
       d="M 2.9315071,797.8129 L 7.2513961,979.2576 C 10.337023,1108.861 233.12013,1108.861 236.20577,979.2576 L 240.52565,797.8129 L 2.9315071,797.8129 z"
       id="path6522"
       style="fill:none;fill-opacity:1;fill-rule:evenodd;stroke:#000000;stroke-width:2;stroke-linecap:butt;stroke-miterlimit:4;stroke-dashoffset:0;stroke-opacity:1" />
  </g>
</svg>
