<?xml version="1.0" encoding="UTF-8" standalone="no"?>
<!-- Created with Inkscape (http://www.inkscape.org/) -->

<svg
   xmlns:dc="http://purl.org/dc/elements/1.1/"
   xmlns:cc="http://creativecommons.org/ns#"
   xmlns:rdf="http://www.w3.org/1999/02/22-rdf-syntax-ns#"
   xmlns:svg="http://www.w3.org/2000/svg"
   xmlns="http://www.w3.org/2000/svg"
   xmlns:sodipodi="http://sodipodi.sourceforge.net/DTD/sodipodi-0.dtd"
   xmlns:inkscape="http://www.inkscape.org/namespaces/inkscape"
   width="426"
   height="496"
   id="svg2"
   version="1.1"
   inkscape:version="0.48.3.1 r9886"
   sodipodi:docname="Coat of arms Bad Haering.svg">
  <defs
     id="defs4" />
  <sodipodi:namedview
     id="base"
     pagecolor="#ffffff"
     bordercolor="#666666"
     borderopacity="1.0"
     inkscape:pageopacity="0.0"
     inkscape:pageshadow="2"
     inkscape:zoom="1.0384338"
     inkscape:cx="187.0579"
     inkscape:cy="332.69756"
     inkscape:document-units="px"
     inkscape:current-layer="layer1"
     showgrid="false"
     inkscape:window-width="1855"
     inkscape:window-height="1056"
     inkscape:window-x="65"
     inkscape:window-y="24"
     inkscape:window-maximized="1" />
  <metadata
     id="metadata7">
    <rdf:RDF>
      <cc:Work
         rdf:about="">
        <dc:format>image/svg+xml</dc:format>
        <dc:type
           rdf:resource="http://purl.org/dc/dcmitype/StillImage" />
      </cc:Work>
    </rdf:RDF>
  </metadata>
  <g
     inkscape:label="Layer 1"
     inkscape:groupmode="layer"
     id="layer1"
     transform="translate(0,-556.36218)">
    <g
       id="g4174">
      <g
         id="g4160">
        <g
           id="g4108">
          <rect
             style="fill:#3471ce;fill-opacity:1"
             id="rect3254"
             width="213"
             height="231"
             x="213"
             y="556.36218" />
          <path
             sodipodi:nodetypes="ccccccccccccccccccccc"
             inkscape:connector-curvature="0"
             id="path3216"
             d="m 305.15625,629.92468 -23.53125,21.1875 0,22.21875 15.90625,-13.6875 11.84375,13.1875 -27.75,30.90625 11.1875,10.0625 26.6875,-29.6875 26.65625,29.6875 11.21875,-10.0625 -27.75,-30.90625 11.84375,-13.1875 15.90625,13.6875 0,-22.21875 -23.53125,-21.1875 -11.375,12.625 7.78125,7 -10.75,11.96875 -10.75,-11.96875 7.78125,-7 z"
             style="fill:#fae300;fill-opacity:1;fill-rule:evenodd;stroke:#000000;stroke-width:2;stroke-linecap:butt;stroke-linejoin:miter;stroke-miterlimit:4;stroke-opacity:1;stroke-dasharray:none" />
        </g>
        <g
           id="g4156">
          <rect
             y="556.36218"
             x="0"
             height="231"
             width="213"
             id="rect3252"
             style="fill:#fbee01;fill-opacity:1" />
          <path
             sodipodi:nodetypes="ccccccccccccccccccccc"
             inkscape:connector-curvature="0"
             id="path3223"
             d="m 68.562493,583.73718 16.4375,22.4375 0,27.71875 -24,15.09375 0,74.53125 32.781249,19.40625 -32.781249,43.4375 47.999997,0 4,0 43,0 -32.78125,-43.4375 32.78125,-19.40625 0,-38.21875 c 44.29111,-26.61559 26.49038,-101.5625 -24,-101.5625 l -0.0625,0 c -23.52134,0 -40.609557,0 -63.374997,0 z m 63.437497,18.15625 c 23.20016,0.0585 39.3949,32.39125 24,47.34375 l 0,-0.25 -24,-15.09375 z"
             style="fill:#3471ce;fill-opacity:1;stroke:#000000;stroke-width:2;stroke-linecap:butt;stroke-linejoin:miter;stroke-miterlimit:4;stroke-opacity:1;stroke-dasharray:none" />
        </g>
        <g
           id="g4112">
          <path
             inkscape:connector-curvature="0"
             id="rect3258"
             d="m 213,787.3622 0,265 c 111.58363,0 213,-70.77302 213,-192.07563 l 0,-72.92437 -213,0 z"
             style="fill:#fbee01;fill-opacity:1" />
          <path
             style="fill:#3471ce;fill-opacity:1;stroke:#000000;stroke-width:2;stroke-linecap:butt;stroke-linejoin:miter;stroke-miterlimit:4;stroke-opacity:1;stroke-dasharray:none"
             d="m 265.74477,801.91137 16.4375,22.4375 0,27.71875 -24,15.09375 0,74.53125 32.78125,19.40625 -63.12546,83.45553 79.59827,-14.5785 19.76532,-9.3159 25.98062,-16.1236 -32.78125,-43.43753 32.78125,-19.40625 0,-38.21875 c 44.29108,-26.61559 26.49038,-101.5625 -24,-101.5625 l -0.0625,0 c -23.52134,0 -40.60957,0 -63.375,0 z m 63.4375,18.15625 c 23.20016,0.0585 39.3949,32.39125 24,47.34375 l 0,-0.25 -24,-15.09375 z"
             id="path3246"
             inkscape:connector-curvature="0"
             sodipodi:nodetypes="ccccccccccccccccccccc" />
        </g>
        <g
           id="g4104">
          <path
             inkscape:connector-curvature="0"
             id="rect3256"
             d="m 0,787.3622 0,72.92436 c 0,121.3026 101.43315,192.07564 213,192.07564 l 0,-265 -213,0 z"
             style="fill:#3471ce;fill-opacity:1" />
          <path
             style="fill:#fae300;fill-opacity:1;fill-rule:evenodd;stroke:#000000;stroke-width:2;stroke-linecap:butt;stroke-linejoin:miter;stroke-miterlimit:4;stroke-opacity:1;stroke-dasharray:none"
             d="m 100.77316,847.56012 -23.531253,21.1875 0,22.21875 15.90625,-13.6875 11.843753,13.1875 -27.750003,30.90625 11.1875,10.0625 26.687503,-29.6875 26.65625,29.6875 11.21875,-10.0625 -27.75,-30.90625 11.84375,-13.1875 15.90625,13.6875 0,-22.21875 -23.53125,-21.1875 -11.375,12.625 7.78125,7 -10.75,11.96875 -10.75,-11.96875 7.78125,-7 z"
             id="path4039"
             inkscape:connector-curvature="0"
             sodipodi:nodetypes="ccccccccccccccccccccc" />
        </g>
      </g>
      <g
         id="g4152">
        <path
           style="fill:none;stroke:#000000;stroke-width:1.93849862;stroke-linecap:butt;stroke-linejoin:miter;stroke-miterlimit:4;stroke-opacity:1;stroke-dasharray:none"
           d="m 214,556.07779 0,494.12111"
           id="path4028"
           inkscape:connector-curvature="0" />
        <path
           style="fill:none;stroke:#000000;stroke-width:1.99983895;stroke-linecap:butt;stroke-linejoin:miter;stroke-miterlimit:4;stroke-opacity:1;stroke-dasharray:none"
           d="m 0.99991947,786.36226 424.00032053,0"
           id="path4030"
           inkscape:connector-curvature="0" />
      </g>
      <path
         style="fill:none;stroke:#000000;stroke-width:10.14312649;stroke-linecap:butt;stroke-linejoin:miter;stroke-miterlimit:4;stroke-dasharray:none"
         inkscape:connector-curvature="0"
         id="path4036"
         d="m 5.0715632,561.43384 415.8578468,0 0,297.46329 c 0,118.98529 -99.01374,188.39347 -207.92892,188.39347 -108.91517,0 -207.9289268,-69.40818 -207.9289268,-188.39347 z" />
    </g>
  </g>
</svg>
