<svg fill-rule="evenodd" height="8.07087in" image-rendering="optimizeQuality" shape-rendering="geometricPrecision" text-rendering="geometricPrecision" viewBox="0 0 7480 8070" width="7.48031in" xmlns="http://www.w3.org/2000/svg"><path d="m3727 7967c1483-9 3136-1117 3064-3650 39-1039 57-1579 108-2618 41-385 211-518 456-500 65 2 72-29 43-60-145-135-309-336-669-814-9-9-29-9-28 0 19 167-68 212-247 153-883-276-1797-414-2727-414-929 0-1844 138-2727 414-179 59-266 14-247-153 1-9-14-9-22 0-310 478-499 694-651 828-19 22-22 50 28 49 244-18 406 112 447 497 71 1039 103 1579 173 2618 1 266 20 515 56 749 130 1915 1869 2901 2943 2901z"/><path d="m3727 7811c1529 0 2806-1190 2909-3064 29-1056 65-2112 93-3169 4-317 131-507 341-608-79-167-184-306-293-442-22-18-48-30-62 7-35 52-115 45-216 12-917-266-1790-395-2772-395s-1855 129-2772 395c-101 33-181 40-216-12-14-37-40-25-62-7-108 136-214 275-293 442 211 101 337 291 341 608 29 1057 65 2113 93 3169 16 1892 1380 3064 2909 3064z" fill="#0f47af"/><path d="m7070 970c-79-167-184-306-293-442-22-18-48-30-62 7-35 52-115 45-216 12-917-266-1790-395-2772-395s-1855 129-2772 395c-101 33-181 40-216-12-14-37-40-25-62-7-108 136-214 275-293 442 884-503 2229-756 3343-756s2339 253 3343 756z" fill="#fff"/><path d="m384 970c884-503 2229-756 3343-756s2339 253 3343 756" fill="none" stroke="#000" stroke-linecap="round" stroke-linejoin="round" stroke-width="20"/><path d="m3888 4809c7 239 31 1413 703 1504 14 2 269-2 468-68 85-31 109-52 97-156-1-191-179-421-283-477-74-37-91-16-300-110s-400-195-529-693c-16-79-5-150-1-225 14-118 56-229 90-343 349-1128 1430-1356 1063-541l-556 807c-420 623 135 909 503 806 145-46 292-154 424-405 215-539 106-530-140-193-246 385-710 437-478 8 87-175 700-472 892-696 159-165 382-509 451-806 27-134 47-288 17-431-102-653-656-812-677-820-1259-283-1720 1547-1709 2263z" fill="#fcdd09"/><path d="m3874 4809v12l28-1c0-4 0-8-1-12zm0 12c8 267 42 1415 715 1506l4-27c-650-89-683-1218-691-1480zm719 1479-2 13zm-4 27h1l3-27c-1-1 1 0 0 0zm3-27h1l-2 13zm-2 27c3 0 10 1 21 0v-27c-11 0-17 0-19 0zm21 0c12 0 27 0 44-1l-1-28c-18 1-32 1-43 2zm44-1c92-5 264-20 408-68l-8-27c-141 47-311 63-401 67zm399-95h1l4 14zm10 27c45-17 74-31 91-56l-23-16c-13 19-38 31-78 45zm91-56c17-25 21-59 14-115l-27 4c6 48 3 77-10 95zm14-115v2h-13zm0 2c0-5 0-10 0-15l-28 2c0 4 1 9 1 13zm0-15c-1-27-6-56-13-84l-27 7c7 26 11 53 12 79zm-13-84c-8-28-18-57-30-84l-25 11c11 26 21 53 28 80zm-30-84c-60-139-172-266-247-306l-13 24c71 38 177 159 235 293zm-260-282 7-12zm13-24c-31-16-52-22-81-29l-7 27c27 7 47 12 75 26zm-81-29c-40-11-96-26-219-82l-12 26c126 56 183 72 224 83zm-219-82c-104-46-202-94-290-191l-21 19c92 101 193 150 299 198zm-290-191c-89-98-168-246-232-493l-26 7c65 252 146 404 237 505zm-232-493 1 1-14 3zm1 1c-13-59-9-114-5-171l-27-2c-4 58-9 115 4 178zm-5-171c2-16 3-32 4-50l-28-1c-1 16-2 33-3 49zm4-50-1 1-13-2zm-1 1c11-89 38-175 65-261l-26-9c-28 88-55 175-66 267zm65-261c9-26 17-53 25-80l-27-8c-7 26-16 53-24 79zm25-80-13-4zm0 0c164-529 488-858 747-972l-11-26c-265 118-596 453-762 990zm747-972c80-36 152-50 212-44l2-28c-64-6-141 9-225 46zm212-44c57 5 101 31 127 76l24-14c-30-53-82-83-149-90zm127 76c42 75 35 204-49 390l25 11c88-195 94-332 48-415zm-49 390 1-3 12 8zm1-3-555 807 23 16 555-807zm-532 822v1l-12-8zm-23-15c-105 155-150 289-153 403l28 1c3-109 47-239 148-389zm-153 403c-3 106 30 195 87 264l21-18c-52-64-83-146-80-245zm87 264c56 68 134 118 221 148l9-26c-82-29-156-75-209-140zm221 148c116 40 248 44 363 13l-7-27c-110 30-236 26-347-12zm355-14h1l3 13zm8 27c74-24 149-63 222-129l-18-21c-70 63-142 101-212 123zm222-129c73-65 144-156 210-283l-25-13c-64 124-133 212-203 275zm185-295v-1l13 6zm26 10c78-195 113-320 116-384l-28-1c-2 61-37 183-114 375zm116-384c1-31-6-50-21-59l-14 24c5 3 7 14 7 34zm-21-59c-14-9-34-5-58 11l16 23c14-9 23-13 28-10zm-58 11c-46 30-115 108-201 226l22 16c84-115 152-191 195-219zm-178 241-1 1-11-8zm-24-15c-108 170-259 273-371 298l6 27c118-26 276-134 389-310zm-371 298c-35 8-65 7-89-1l-9 27c28 9 64 10 104 1zm-89-1c-23-7-39-22-48-45l-26 10c12 31 34 51 65 62zm-48-45c-17-46-4-121 55-229l-25-14c-63 117-76 200-56 253zm30-242v-1l12 7zm25 12-25-12zm-25-12 12 6zm25 12c44-88 232-213 429-342l-15-24c-200 132-392 258-439 354zm429-342c181-119 368-243 461-351l-21-18c-90 105-276 227-455 345zm461-351-1 1-10-10zm-1 1-19-20zm-20-20h1l9 10zm20 19c23-23 47-50 71-80l-21-17c-25 29-48 56-70 78zm71-80c24-29 49-62 74-97l-22-16c-25 34-50 66-73 96zm74-97c129-179 259-419 310-635l-27-6c-50 211-178 448-305 625zm282-641h1l13 3zm28 5c13-67 25-140 30-213l-28-2c-5 72-16 144-30 210zm30-213c4-74 2-150-13-222l-27 5c14 70 17 143 12 215zm-13-222-14 2zm0 0v-2l-28 5v2zm-28 3 14-2zm28-5c-101-633-621-807-682-827l-9 26c59 20 565 189 663 806zm-682-827c-2-1-4-1-4-2l-10 26c1 1 3 1 5 2zm-12 25-2-1 5-13zm6-27c-96-22-188-31-274-30v28c85-2 174 8 268 29zm-274-30c-393 6-694 229-918 543l22 16c220-307 514-526 896-531zm-918 543c-223 312-369 714-451 1078l27 6c81-361 226-759 446-1068zm-451 1078c-60 264-86 508-83 685h27c-2-175 24-417 83-679zm-83 685v-1l14 1zm0-1-35 576 27 1 35-575zm-8 576v1h-13z"/><g fill="#fcdd09"><path d="m3613 4584v227c-17 683-85 906-154 1071-27 60-195 487-268 627-20 39-9 88-9 101l452 653 60 19 60-19 452-653c0-13 11-62-9-101-73-140-241-567-268-627-69-165-137-388-154-1071l-1-239 69-337c-80-331-78-849-21-1093 26-107 46-189 94-272 112-195 257-357 257-699 0-540-133-726-395-1090-22-25-59-65-84-64-25-1-62 39-84 64-262 364-395 550-395 1090 0 342 145 504 257 699 47 83 73 165 94 272 57 244 59 762-22 1093z" stroke="#000" stroke-width="28"/><path d="m3508 4809c-7 239-32 1413-703 1504-14 2-269-2-468-68-85-31-109-52-97-156 1-191 178-421 283-477 74-37 90-16 300-110 209-94 399-195 529-693 16-79 5-150 1-225-14-118-56-229-90-343-349-1128-1430-1356-1063-541l555 807c421 623-134 909-502 806-145-46-293-154-424-405-215-539-106-530 140-193 245 385 709 437 477 8-87-175-699-472-892-696-158-165-381-509-450-806-27-134-47-288-17-431 102-653 656-812 677-820 1259-283 1719 1547 1709 2263z" stroke="#000" stroke-width="28"/><path d="m4145 4715c38 0 68-50 68-110 0-62-30-111-68-111h-860c-37 0-68 49-68 111 0 60 31 110 68 110z"/></g><path d="m4145 4701v28zm0 0c13 0 27-10 36-26l24 15c-15 24-36 39-60 39zm36-26c12-18 18-43 18-70h28c0 33-8 63-22 85zm18-70h28zm0 0v-1h28v1zm0-1c0-27-6-53-18-71l24-14c14 22 22 52 22 85zm-18-71c-1-3-3-5-5-7l22-18c2 4 5 7 7 11zm-5-7c-9-12-20-19-31-19v-27c20 0 38 10 53 28zm-31-19h-860v-27h860zm-860 0v-27zm0 0c-13 0-26 10-36 26l-24-14c15-24 36-39 60-39zm-36 26c-11 18-18 44-18 71h-28c0-33 9-63 22-85zm-18 71v1h-28v-1zm0 1h-28zm0 0c0 27 7 52 18 70l-24 15c-13-22-22-52-22-85zm18 70c10 16 23 26 36 26v28c-24 0-45-15-60-39zm36 26v28zm0 0h860v28h-860z"/><path d="m4213 4449c38 0 69-50 69-111s-31-111-69-111h-996c-38 0-69 50-69 111s31 111 69 111z" fill="#fcdd09"/><path d="m4213 4435v28zm0 0c14 0 27-10 37-26l24 15c-15 24-36 39-61 39zm37-26c11-18 18-43 18-71h28c0 34-9 64-22 86zm18-71h28zm0 0h28zm0 0c0-28-7-53-18-71l24-15c13 23 22 53 22 86zm-18-71c-10-16-23-26-37-26v-28c24 0 46 15 61 39zm-37-26v-28zm0 0h-996v-28h996zm-996 0v-28zm0 0c-14 0-27 10-37 26l-23-15c15-24 36-39 60-39zm-37 26c-11 18-18 43-18 71h-27c0-33 8-63 22-86zm-18 71h-27zm0 0h-27zm0 0c0 28 7 53 18 71l-23 15c-14-22-22-53-22-86zm18 71c10 16 23 26 37 26v28c-24 0-45-15-60-39zm37 26v28zm0 0h996v28h-996z"/><path d="m3966 4835h14v-1zm0 0c4 89 17 176 37 260l14-3c-21-84-33-170-37-257zm37 260c21 84 49 165 83 243l13-6c-34-77-62-157-82-240zm83 243c178 398 530 700 914 789l3-14c-379-88-728-387-904-781z"/><path d="m3701 6535v-1716h-14v1716z"/><path d="m3430 4835h-14v-1zm0 0c-4 89-17 176-37 260l-14-3c20-84 33-170 37-257zm-37 260c-21 84-49 165-84 243l-12-6c34-77 62-157 82-240zm-84 243c-178 398-530 700-913 789l-4-14c380-88 728-387 905-781z"/><path d="m3360 4134c-580-2643-3142-1665-1020 134 917 813-88 1465-581 268" fill="none" stroke="#000" stroke-width="14"/><path d="m3693 4235-2-3081h14l2 3081z"/><path d="m4043 4135c201-918 642-1398 1041-1557l-5-13c-403 161-847 644-1050 1567zm1041-1557c206-82 401-79 546-7l6-13c-149-73-347-77-557 7zm546-7c144 71 239 212 246 404h14c-8-198-105-343-254-417zm246 404c11 314-209 766-825 1288l9 11c620-525 841-982 830-1299zm-815 1299h-1l-4-6zm-10-11c-293 260-391 503-372 677l13-1c-18-170 79-409 369-665zm-372 677c10 94 54 168 120 213l8-12c-63-42-105-112-115-202zm120 213c67 44 154 59 252 36l-3-13c-94 22-178 7-241-35zm252 36c193-45 423-239 592-650l-12-5c-168 406-394 598-583 642z"/></svg>