<?xml version="1.0" encoding="UTF-8" standalone="no"?>
<svg
   inkscape:version="1.1.1 (3bf5ae0d25, 2021-09-20)"
   sodipodi:docname="CoA Alsenz.svg"
   id="svg2130"
   version="1.1"
   viewBox="0 0 448.33345 495.18555"
   height="495.18555"
   width="448.33347"
   xmlns:inkscape="http://www.inkscape.org/namespaces/inkscape"
   xmlns:sodipodi="http://sodipodi.sourceforge.net/DTD/sodipodi-0.dtd"
   xmlns="http://www.w3.org/2000/svg"
   xmlns:svg="http://www.w3.org/2000/svg">
  <defs
     id="defs2124" />
  <sodipodi:namedview
     inkscape:pagecheckerboard="false"
     fit-margin-bottom="5"
     fit-margin-right="5"
     fit-margin-left="5"
     fit-margin-top="5"
     lock-margins="true"
     units="px"
     inkscape:snap-smooth-nodes="true"
     inkscape:snap-object-midpoints="false"
     inkscape:window-maximized="1"
     inkscape:window-y="-11"
     inkscape:window-x="-11"
     inkscape:window-height="1506"
     inkscape:window-width="2560"
     showgrid="false"
     inkscape:document-rotation="0"
     inkscape:current-layer="g27490"
     inkscape:document-units="px"
     inkscape:cy="247.33333"
     inkscape:cx="224"
     inkscape:zoom="1.5"
     inkscape:pageshadow="2"
     inkscape:pageopacity="0"
     borderopacity="1.0"
     bordercolor="#666666"
     pagecolor="#333333"
     id="base"
     showguides="true"
     inkscape:guide-bbox="true"
     inkscape:snap-intersection-paths="true"
     inkscape:object-paths="true"
     inkscape:snap-grids="false"
     inkscape:snap-global="false"
     inkscape:lockguides="false"
     guidecolor="#00ffff"
     guideopacity="0.49803922"
     inkscape:snap-midpoints="false"
     inkscape:snap-to-guides="false" />
  <g
     id="layer1"
     inkscape:label="alsenz"
     inkscape:groupmode="layer"
     transform="translate(-81.833287,-64.314446)">
    <g
       id="g187246"
       inkscape:label="coa">
      <g
         id="g187220"
         inkscape:label="field1">
        <path
           style="display:inline;opacity:1;fill:#ffffff;fill-opacity:1;stroke:#000000;stroke-width:5;stroke-linecap:butt;stroke-linejoin:miter;stroke-miterlimit:4;stroke-dasharray:none"
           d="M 89.333287,331.66667 V 94.333336 c 65.267333,-18.228178 168.089893,-28.189471 216.666733,-19 V 331.66667 Z"
           id="path1924"
           sodipodi:nodetypes="ccccc"
           inkscape:label="field1-0" />
        <g
           id="g187180"
           inkscape:label="lion-r">
          <path
             style="opacity:1;fill:#0f47af;fill-opacity:1;stroke:#000000;stroke-width:2.5;stroke-linecap:butt;stroke-linejoin:miter;stroke-miterlimit:4;stroke-dasharray:none"
             d="m 160.0713,132.58252 c -1.50451,0.93705 -1.73021,2.78939 -1.14905,3.97748 2.13816,0.79549 4.52879,-0.17638 6.89429,-0.97227 0.37144,7.27055 3.9091,13.65539 2.20971,19.79898 -12.55198,2.24897 -9.39311,9.74652 -5.74524,9.63433 -1.85,4.80008 0.8575,7.38193 4.59619,6.0988 -2.37273,6.96574 5.13537,10.15602 7.68979,8.13173 -6.07515,11.06767 -6.98375,20.33828 -7.75449,29.56093 -4.15388,5.17742 -7.6307,10.15171 -9.4375,14.625 -11.62946,17.07977 -44.27071,15.29389 -24.125,-35.9323 7.09494,-18.04091 3.05461,-38.42383 -13.8125,-62 -7.32391,-10.23706 -4.65678,-17.33078 1.13001,-16.01086 0.59544,0.13582 1.16571,0.80699 1.31485,1.39973 1.55249,6.17007 4.09865,10.74091 8.49264,10.92363 1.3655,-1.35417 1.60892,-2.70833 1.3125,-4.0625 3.12734,2.5633 6.15648,4.21832 8.625,0.6875 -2.94703,-4.332 -3.90093,-8.56579 -4.625,-12.5 -4.27528,-23.229517 -50.96869,-12.26619 -20,28.6875 5.3437,6.14057 -4.17453,11.48068 -8.04122,5.19128 -0.93524,3.11394 -0.76773,6.06553 5.40242,8.9361 3.89997,1.81441 5.4719,5.33813 3.97747,10.78338 -5.77201,0.96958 -9.10307,-0.50179 -11.04854,-3.35875 -1.74672,5.35319 -0.84613,10.05441 4.33103,13.25825 5.0369,3.11704 6.35812,6.16254 6.01041,9.45755 -5.73217,0.57805 -8.12156,-1.70914 -10.42983,-4.06586 -0.8361,4.32502 0.64353,7.62621 4.68458,11.66726 9.07353,9.07353 6.80762,20.71214 1.608,18.7705 1.77753,3.332 2.55866,7.88632 2.45787,13.93319 -0.58572,35.13945 38.27178,28.03028 51.35363,6.8059 0.8731,5.91575 0.41278,11.43947 -4.24332,17.366 -4.35818,5.54733 -6.93486,11.10281 -4.75,18 -2.47998,0.73647 -3.14037,-1.13695 -4.875,-2.125 -3.28241,-1.86966 -7.63072,-1.69024 -12,2.25 -6.20037,5.59154 -10.1929,2.29616 -11.375,-1.1875 -3.47484,5.22917 3.4611,7.95833 4.375,10.5625 12.16061,-1.64567 21.41395,10.53163 6,10 0.45273,3.82114 1.19076,8.69606 15.875,7.875 0.94252,5.33835 -2.95245,5.21422 -5.875,5.625 0.46482,3.43329 2.60755,4.35679 7.875,3.125 6.5898,-1.54102 7.45118,5.37168 4.125,8.9375 2.69184,-0.008 4.33657,2.83765 8.875,1.1875 0.71182,1.62749 1.17833,3.07976 3,5.5 5.32046,-0.45295 6.74296,2.12585 7.625,5.125 1.93462,0.15791 3.31511,-0.70008 4.25,-2.375 0.50386,-0.95711 4.99754,-0.22661 6.75094,0.29012 2.09418,-0.70092 4.42705,-0.80362 6.09879,0.35355 2.35897,1.63287 8.95226,-2.20383 5.92202,-6.01041 -4.25637,-1.07945 -6.68745,-4.88775 -9.04559,-4.80045 1.3971,-1.39148 2.21716,-2.4803 2.06291,-4.03838 -0.91753,-1.60924 -0.70024,-3.59675 -0.79549,-5.48008 -1.70658,0.0699 -3.38392,0.0647 -5.65686,1.59099 -5.81619,2.13817 -7.98415,-1.2068 -9.89949,-3.71231 -2.46073,-5.63092 -4.76479,-9.69505 -7.06223,-13.69303 -1.13995,-2.15526 -0.80114,-5.25155 -0.125,-8.5625 3.91937,-3.89583 10.58518,-6.16667 14.5,-10.6875 0.826,6.02475 9.73986,13.61778 15.25,5.875 -5.44666,-3.26122 -7.09801,-7.08171 -7.3125,-11.5625 -0.45184,-9.43899 -1.31175,-15.45133 -5.125,-18.375 -1.9512,-1.496 -2.71385,-8.06228 1.875,-7.9375 17.7267,0.48204 14.589,11.1904 17.0625,20.5 5.85448,5.07445 3.71294,10.36253 -1.4375,12.09375 0.80816,1.21753 2.42061,2.05546 6.5,1.78125 0.12431,2.08778 1.16801,3.8078 3.375,5.0625 0.60718,2.00328 1.92326,3.93323 4.9375,5.6875 2.05388,-0.33256 3.81295,-1.58888 4.625,-5.8125 1.4893,-0.51379 3.12978,-1.24463 4.21875,-2.0625 0.81623,2.94528 -0.35412,5.3995 -3.90625,6.0625 5.07938,6.81643 9.63796,3.03959 10.9375,-3 1.5464,1.46177 2.83658,3.01962 5,4.25 1.05812,1.80452 2.56547,3.30709 8.625,1.75 1.72221,1.99082 3.09061,2.80965 5.46875,2.09375 -0.33732,1.17877 -0.42251,2.9589 0.73925,4.30338 0.21253,0.24596 0.45142,0.1537 0.50949,-0.16643 0.65873,-3.63148 2.72514,-6.29517 7.03251,-7.4182 1.87846,-3.1335 4.36983,-3.55264 6.8125,-4.1875 2.12974,3.22965 4.46038,5.03474 7.5,1.8125 -1.64559,-3.18751 -1.62524,-6.41666 0.0625,-9.6875 -3.0033,-0.60963 -6.65864,-0.2412 -10.3125,0.125 0.25383,-1.80079 0.76354,-3.55895 2.54888,-5.10449 0.30732,-0.26604 0.27019,-0.58077 -0.10448,-0.73872 -4.39957,-1.8548 -6.57608,-3.5905 -6.7569,-5.21929 -2.23404,-0.2421 -2.8482,3.8776 -4.0625,7.6875 -0.72891,2.28695 -7.33817,-1.21556 -11.375,-2.5 -10.76856,-5.15243 -22.68029,-5.05133 -22.75,-24.4375 4.45398,-0.75222 5.2434,-3.70317 4.41272,-7.62618 -1.71182,1.0965 -3.77671,1.95089 -9.54594,0.26517 -2.55464,-6.44973 -8.57966,-9.34195 -16.30765,-9.59014 -6.06608,-0.19482 -11.14648,-0.0653 -15.37958,-0.70711 -1.59061,-8.26703 0.28663,-14.64064 5.03814,-18.9151 6.85309,-6.16505 9.00135,-10.67975 10.25305,-15.64474 13.04147,-1.9671 13.83398,8.79163 7.52428,12.07479 2.04167,0.33083 2.71331,0.47122 4.75498,1.70581 2.11196,-0.88239 3.90747,-2.0285 5.3125,-3.5 0.57589,2.11878 1.28494,3.08973 3.31342,4.59781 0.61721,-1.10588 0.76862,-1.88428 1.81158,-2.22281 1.90687,2.01632 7.15232,1.06908 12.3125,1.5625 0.63182,1.73328 -0.52741,2.8923 -1.02995,3.446 2.12313,-0.0687 4.0341,-0.56407 5.02995,1.804 1.96645,-0.86673 3.78783,-1.7749 4.9375,-2.875 0.9025,1.09807 1.98977,2.11834 4,2.75 3.16254,-2.76465 7.6403,-1.16513 12.0625,0.25 0.30243,2.14242 -0.05,4.24119 1.46801,6.46465 0.19528,0.28604 0.58207,0.31339 0.84646,0.0893 2.35822,-1.99867 5.38012,-3.53135 9.06333,-2.76836 -0.71839,-1.90027 -0.87864,-3.59763 -0.87316,-5.56846 2.70924,-0.28927 4.90811,-0.52717 7.73398,1e-5 0.48441,4.19568 2.32098,6.38378 7.73398,3.66812 -0.95207,-3.07886 -0.26983,-6.15773 1.72357,-9.23659 -8.02633,0.45876 -19.36219,0.91903 -13.12567,-4.15425 2.45559,-1.99757 3.79825,-2.55747 5.17072,-4.77297 -3.37152,-0.94085 -5.89411,-2.62451 -7.38043,-5.21491 -4.01622,1.58542 -4.56817,5.2494 -4.5078,9.28078 -1.37539,0.23704 -3.0445,0.27826 -5.12653,0.0442 -3.79301,-2.62345 -7.42586,-4.87509 -11.04854,-5.39169 -2.9639,-0.42266 -8.65494,-3.31825 -15.73312,-9.23658 -2.82959,-2.36592 -5.85685,-4.46816 -9.104,-6.31977 -1.36091,-3.15995 0.0508,-4.51443 3.7565,-4.37522 2.48231,0.16646 4.75426,-0.29814 4.7777,-7.50828 2.338,-0.13203 4.36788,0.067 3.6875,-4.375 1.32991,-1.88528 2.8429,-3.22129 5,-2.625 -0.0652,-4.30489 0.47545,-7.85976 3.875,-7.875 -1.27047,-2.32857 0.13801,-4.52524 0.26838,-6.25315 -2.71135,-7.00415 1.32331,-9.36137 4.48162,-5.87185 -0.93968,-6.41713 2.71292,-8.93602 8.25,-8.75 4.65181,0.15628 4.95981,-1.70875 4.8125,-4.375 -0.42926,-2.55897 0.56949,-5.25092 4.33081,-4.98483 -3.21888,-1.83989 -5.4779,-2.43562 -8.51831,-2.89017 0.93337,-1.0045 1.77505,-2.68378 3.9375,-4.5 5.73514,1.59927 7.58855,-1.965894 6.0625,-7.875 -2.36053,-0.243633 -4.13776,-1.070572 -5,-2.8125 -2.84894,0.906143 -5.81832,2.534908 -9,5.4375 -2.07995,1.447207 -3.68825,2.069014 -4.4375,1.1875 -0.15069,-2.392799 -0.95349,-4.378026 -2.4375,-5.9375 -1.65757,2.472368 -3.4262,3.501069 -5.25,3.8125 -2.68779,1.611077 -3.47735,3.144005 0.4375,6.125 3.15778,2.40452 1.73438,4.94256 -1.1875,7 -15.45833,19.85417 -21.44616,19.34355 -29.5,27.125 -2.68796,-1.37646 -4.2199,-3.00981 -4.78694,-4.85758 2.10471,-0.46294 3.92765,-0.98224 4.86136,-1.67938 -2.37885,-1.90635 -4.53421,-3.90209 -5.74524,-6.27557 -3.79698,-0.39961 -8.96369,-0.11436 -14.14214,0.17677 0.21605,-4.44391 -0.0203,-6.39972 -0.26516,-8.3085 -2.82843,0.94405 -5.65685,1.63942 -8.48528,1.41421 -4.17626,4.18232 -9.58803,3.48651 -10.25305,-7.86656 -0.50679,-8.65177 10.04915,-10.950993 10.25305,-2.56326 1.30805,-0.0978 2.50345,-0.21821 4.94974,-0.0884 1.58068,-2.97339 2.59431,-6.57052 2.65625,-11.214512 0.0229,-1.715129 -1.60793,-2.679873 -3.32286,-2.629727 -5.43689,0.15898 -5.98844,-0.542202 -8.03205,-1.248722 -6.87132,-2.37556 -13.88244,-2.410978 -21.53015,0.332107 -3.35597,-7.877815 -8.09757,-1.941272 -6.17202,5.885408 0.72818,2.9598 1.04595,5.105596 1.39905,7.461246 -2.74454,3.74155 -4.76357,8.04738 -5.39169,13.43503 1.41421,0.61899 2.82843,0.18738 4.24264,-0.35356 2.90532,7.62291 2.67334,12.48019 -1.41421,15.02602 z"
             id="path112008"
             sodipodi:nodetypes="sssccsscssssscscsccccccccscscscsscccccsccccccsccccccccccsssccccccccccccsscccccssccccscsccccccccccccccccccsccccssccccccccsccccccccccsccccccccsccssscccccscss"
             inkscape:label="lion-r0" />
          <path
             style="opacity:1;fill:#da121a;fill-opacity:1;stroke:#000000;stroke-width:1.75;stroke-linecap:butt;stroke-linejoin:miter;stroke-miterlimit:4;stroke-dasharray:none"
             d="m 224.92468,94.363403 c -1.80144,-0.06832 -2.74135,1.058572 -2.86248,2.346019 -0.20343,2.162171 -2.86667,4.878428 -5.25922,6.336488 -2.90805,1.81718 -6.32131,2.65099 -9.62818,3.03665 -3.55365,0.41698 -7.15526,0.3428 -10.72009,0.16353 -1.39534,-0.0422 -2.78882,0.0651 -4.17932,0.16687 -0.0101,-1.46199 -0.22499,-3.04959 -1.27478,-4.15673 -1.17508,-1.26046 -3.20136,-1.408 -4.66808,-0.58679 -2.13801,1.01516 -3.39057,3.39225 -3.4673,5.70214 -0.0642,2.1567 0.22753,4.32673 0.81196,6.40226 0.5111,1.67889 1.35136,3.47553 3.01214,4.27719 1.45725,0.67429 3.14046,0.0721 4.37012,-0.80994 0.52405,-0.36343 0.99883,-0.79144 1.45642,-1.23413 1.57272,-0.01 3.16547,0.0504 4.70357,-0.34307 3.00163,-0.59593 5.83949,-1.87025 8.74784,-2.70759 2.28774,-0.63331 4.70927,-0.41484 7.00788,-1.0742 5.30794,-1.38022 9.96506,-5.06742 12.57294,-9.88576 0.87147,-1.672 1.57406,-3.493017 1.66369,-5.393313 0.0503,-0.899369 -0.49761,-1.79471 -1.36743,-2.079468 -0.29226,-0.112539 -0.60666,-0.166566 -0.91968,-0.160156 z"
             id="path144306"
             sodipodi:nodetypes="cscccccccccccccccccc"
             inkscape:label="tongue-r" />
          <path
             id="path161945"
             style="opacity:1;fill:#da121a;fill-opacity:1;stroke:#000000;stroke-width:1.75;stroke-linecap:butt;stroke-linejoin:miter;stroke-miterlimit:4;stroke-dasharray:none"
             d="m 191.62594,316.16512 c -0.0827,3.92669 -0.90506,7.23692 -3.96969,8.67863 -1.72909,-2.15998 -3.40378,-4.36531 -4.15181,-7.34284 0.5259,-0.35307 0.96278,-0.94968 1.37056,-1.62591 1.02432,-0.90794 3.88137,-0.31404 6.75094,0.29012 z m 12.57285,-2.48575 c 6.92834,1.6938 5.0295,6.01386 2.01996,10.66438 -1.25068,-4.48028 -3.43939,-6.93433 -6.16382,-7.53662 1.71828,-0.69318 3.49794,-1.32271 4.14386,-3.12776 z m -8.33021,-17.49002 c 5.22682,-3.68292 13.14615,2.45747 8.38142,8.24815 -3.12009,-3.07339 -5.36234,-2.95465 -7.58593,-2.76807 -0.53228,-1.41529 -1.02019,-3.55285 -0.79549,-5.48008 z M 266,274.25 c 5.86197,4.60421 3.27085,9.35672 -0.21875,14.125 -1.7266,-3.70386 -3.96018,-5.78324 -6.85042,-6.49489 0.45027,-3.47703 2.57404,-6.7802 7.06917,-7.63011 z m 14.48549,-12.34976 c 7.92768,0.45479 9.09707,8.68958 5.62759,13.34107 -1.93353,-3.54068 -3.64608,-4.83845 -5.80058,-3.36631 -2.11902,-5.03935 -0.90546,-7.64027 0.17299,-9.97476 z M 265.75,251.25 c 2.10038,-6.68241 14.01903,-7.64296 13.64557,0.48001 -3.93515,0.34062 -5.29481,2.33147 -6.34065,4.75483 -2.88695,-0.99393 -6.71961,-2.69676 -7.30492,-5.23484 z m 12.0653,-47.99564 c 3.11662,4.70942 -0.35561,12.90073 -7.7528,9.62064 1.26206,-2.81639 0.69771,-5.48667 -0.0933,-8.13882 3.00254,-1.67607 5.87844,-2.13118 7.8461,-1.48182 z m 16.12015,-11.58422 c 7.85817,-1.0339 9.05179,2.93061 3.12705,12.45486 -1.30147,-1.11757 -3.03607,-2.28946 -5.0274,-2.86472 -0.89055,-3.17078 -0.11862,-6.6019 1.90035,-9.59014 z M 278.3791,177.52801 c 5.06467,-2.23039 14.51123,-4.87855 12.94889,3.57971 -2.65463,0.24329 -4.18557,1.16708 -5.52427,1.98875 -5.36681,-2.00215 -6.66132,-3.98419 -7.42462,-5.56846 z M 258.75,127.375 c 4.27915,4.21565 2.65854,7.91027 1.0625,8.1875 -1.02319,-1.49775 -2.45566,-2.63534 -5.54412,-2.31565 -2.09155,-5.47291 -0.23812,-9.83514 4.48162,-5.87185 z m 17.39331,-18.45358 c 3.72379,0.4493 3.74823,7.11032 2.81032,9.34219 -2.10451,-2.94016 -4.2857,-5.02399 -7.09252,-6.32504 0.7169,-1.93557 1.68399,-3.33663 4.2822,-3.01715 z M 272.625,91.1875 c 2.45515,-4.262894 10.94827,-2.05046 11.375,2.1875 -2.74795,6.84e-4 -4.61192,0.296026 -6.375,0.625 -4.6015,-0.782119 -3.85704,-1.847273 -5,-2.8125 z m -21.125,4.5 c -3.65263,-11.143375 -1.04298,-16.317876 6.625,-10.4375 -2.28679,2.140613 -3.55653,4.318894 -1.375,6.625 -2.71647,3.429072 -3.97065,3.59268 -5.25,3.8125 z"
             inkscape:label="claws-r" />
          <g
             id="g187172"
             inkscape:label="lion-rc">
            <path
               id="path176200"
               style="opacity:1;fill:none;fill-opacity:1;stroke:#000000;stroke-width:1.75;stroke-linecap:round;stroke-linejoin:round;stroke-miterlimit:4;stroke-dasharray:none"
               d="m 196.22213,123.21336 c -0.0171,2.34464 1.07195,3.58317 2.20971,4.77297 m -11.1428,-4.21394 c -0.66239,2.39036 -0.27156,4.17889 0.71298,5.62815 m -8.75045,-20.94804 c -0.63873,10.59981 3.70433,16.06223 12.46276,15.73313 0.0554,1.98296 0.4504,4.23762 1.67937,7.15945 m 0,7.95496 c 0.45175,2.62223 1.34931,4.1745 2.38649,5.39168 m 5.25911,10.96016 c -0.069,6.05843 -0.17718,12.19133 2.16551,13.656 m 6.23138,-7.42462 c 3.41759,4.91878 3.75633,8.91391 1.28163,12.06501 M 202.875,147.75 c 1.80117,3.84416 5.68496,6.57899 12.625,8.25 3.50147,0.84308 6.77046,3.65661 8,8.125 m 17.36101,-4.90673 c -4.69721,-1.38446 -8.52619,-1.08717 -11.00711,-2.68251 -10.41981,-6.70041 -13.91478,-7.96236 -17.19154,-8.66205 m 6.40816,-2.60746 c 5.86726,2.03562 10.36424,4.07606 13.47922,5.87782 2.42853,1.40471 5.62884,3.3627 9.28078,2.85052 M 220.42136,135.9154 c 2.09169,1.2041 4.15666,2.00653 7.01614,2.3346 -4.37012,4.0149 -10.05474,1.67893 -14.125,-0.875 m 25.5,5 c 1.42548,1.38662 2.19727,3.97167 2.625,7.1875 m 2.29337,-15.34479 c -0.18327,2.44188 -0.0961,4.61231 1.01646,6.58492 1.62135,2.87476 -0.87878,5.05038 -0.0201,9.06479 m 7.17956,-28.15667 c 0.1751,3.18531 0.0602,6.16507 1.38688,8.88006 m 2.32543,58.38348 4.33103,1.5026 m -24.48357,-5.92202 c 1.41421,0.14039 2.82843,-0.0287 4.24264,-1.06066 m -19.44544,-5.92202 c 4.20582,4.63308 8.01573,4.9112 11.75565,4.41942 M 195.51502,97.227182 c -3.49504,1.44521 -4.08654,2.696851 -5.20328,3.983508 M 182.125,99.5 c -2.76111,0.0091 -3.98141,-0.421978 -5.125,-0.875 1.74367,-1.505085 3.15572,-2.289899 5.875,-2.75 -3.01118,0.783616 -3.3856,2.006691 -3.62343,3.252532 m -12.16045,-7.788218 c 0.52904,1.122179 0.97142,2.417665 1.14905,4.24265 m 3.41,38.945096 c 0.49017,2.49631 0.88067,4.91788 0.44194,6.71752 m -4.59619,-18.64994 c 0.73852,0.40018 1.53637,0.87453 2.74004,1.85615 m -4.06587,-16.35184 c 0.25829,1.04249 0.58331,1.99152 1.41422,3.44714 1.12215,1.96581 -0.0278,3.24159 -0.70711,4.5962 1.00173,0.13453 2.00347,0.92759 3.0052,2.12132 m -4.06586,-20.859651 c 0.24737,1.514982 0.41359,2.801341 2.03293,4.861361 m -0.59727,68.85452 c 0.80409,-2.68755 2.19188,-3.21802 3.91183,-3.84489 m -8.8674,-1.06641 c 0.40868,-1.68743 2.86884,-4.2665 7.32061,-4.41367 1.86892,-0.0618 3.41124,-0.48786 4.24264,-2.16551 m 18.11961,19.7106 c -0.7951,2.44541 -0.20637,4.89082 1.59099,7.33623 m -5.83363,-0.97227 c -0.1389,2.51416 0.76544,3.81121 2.03293,4.68458 m -6.09879,3.35876 c 0.42008,1.30729 1.37757,2.34588 2.74003,3.18198 m 32.43853,61.60668 c 0.12234,2.7306 -1.06231,4.40398 -4.39643,4.63596 m 8.99262,-0.74688 c -0.1106,3.30967 -3.61736,7.39261 -7.08636,4.55938 m 32.45382,-3.14516 c 2.46442,0.82178 3.58427,2.63955 3.8007,5.12652 m -14.76086,-9.98788 c -0.36536,2.57506 0.52212,4.09936 2.74004,4.5078 m -16.35184,-9.104 c 1.27133,1.26247 2.42021,2.64738 3.35875,4.24264 m -5.83363,-25.80939 c 0.81557,2.38029 1.43929,4.78456 1.59099,7.24784 m -24.34269,-15.36851 c -1.15747,2.32149 -8.41384,3.24817 -9.50917,5.82302 m 8.56659,-8.67024 c -0.28749,3.03683 2.57644,5.13494 10.11542,5.84048 m -16.7755,-6.18119 c 14.77124,0.64116 19.91535,1.35206 23.2833,4.67947 M 156.625,282.125 c 1.7149,1.26099 4.0962,1.52236 6.75,1.375 M 154.25,271 c 0.69931,1.70833 1.18719,3.41667 4.625,5.125 m 22.25,-21.25 c -0.49196,3.35794 -1.97431,5.39536 -3.875,6.875 m -4.125,-21.5 c -0.50396,4.69424 -2.12486,8.02332 -4.75,10.125 m 6.375,-35.5 c -0.16565,3.48645 -0.62766,6.87411 -1.5,10.125 m -46.32433,-69.08296 c 2.6592,6.70811 3.05467,13.8278 0.53033,21.47837 m -5.21492,12.28598 c 0.97044,4.03686 0.26738,8.4921 -0.61871,12.99309 m -1.94455,15.11441 c 0.18711,3.53295 0.81472,6.95578 1.94455,10.25305"
               inkscape:label="lion-rc2" />
            <path
               id="path176294"
               style="opacity:1;fill:none;fill-opacity:1;stroke:#000000;stroke-width:2.5;stroke-linecap:round;stroke-linejoin:round;stroke-miterlimit:4;stroke-dasharray:none"
               d="m 181.375,152.25 c 1.39652,1.68681 1.80418,4.36249 1.875,7.375 4.49516,4.2501 5.91716,7.70712 5.25,10.625 M 188.625,154 c 1.33924,2.94882 3.3702,5.75929 6.375,8.375 -0.3132,5.33156 -0.2385,10.36143 3.875,12.25 m 50.38014,-44.95929 c -0.20387,3.73994 -0.16976,7.44022 2.40826,10.71652 m -74.79832,25.61109 c 0.66434,5.32965 -0.37583,9.57462 -2.29809,13.25825 M 134.52698,119.7356 c -5.64899,-4.36001 -3.74987,-12.42508 -12.993,-19.14966 m 69.20807,113.7558 c 0.7589,4.51548 1.4167,11.9005 -1.23656,16.17552"
               inkscape:label="lion-rc1" />
          </g>
        </g>
      </g>
      <g
         id="g187210"
         inkscape:label="field2">
        <path
           style="opacity:1;fill:#0f47af;fill-opacity:1;stroke:#000000;stroke-width:5;stroke-linecap:butt;stroke-linejoin:miter;stroke-miterlimit:4;stroke-dasharray:none"
           d="M 522.66675,331.66667 V 94.333333 c -65.26733,-18.228178 -168.08989,-28.189471 -216.66673,-19 V 331.66667 Z"
           id="path1633"
           sodipodi:nodetypes="ccccc"
           inkscape:label="field2-0" />
        <g
           id="g187193"
           inkscape:label="lion-l">
          <path
             style="opacity:1;fill:#fcdd09;fill-opacity:1;stroke:#000000;stroke-width:2.5;stroke-linecap:butt;stroke-linejoin:miter;stroke-miterlimit:4;stroke-dasharray:none"
             d="m 475,116.16667 c 0.008,8.01642 -3.11691,6.94511 -7.08333,6.08333 -0.15757,4.95037 2.88144,7.10373 9.83333,5.83333 L 476.91667,129.5 c 10.25307,-0.84266 9.93145,-4.94579 14.08333,-13.33333 5.49629,-11.1035 10.59674,1.68096 7.08333,5.91666 -21.27507,25.64881 -33.03751,52.77459 -15.91666,84.5 16.77666,31.08761 -15.45854,41.93808 -25,24.91667 -3.80096,-6.7807 -7.91887,-14.02998 -13,-22.16669 0.29008,-10.7901 -1.15391,-19.84611 -3.75,-27.75002 0.63296,1.25 1.40474,2.5 2.91666,3.75 3.97799,-2.39843 4.52162,-6.49057 1.58333,-11.33333 5.97031,1.55343 10.99142,-0.15537 12.75001,-7.08333 L 455.5,166.83333 c 2.07968,-1.26184 2.25,-2.62697 2.25,-4.58333 -9.43221,0 -14.09244,-2.64461 -11.83333,-10.58333 1.05731,-3.71549 1.69226,-5.95333 1.79977,-9.36143 1.92676,1.99362 4.09375,2.08887 7.01215,1.11959 -0.53404,-2.24288 -0.0589,-4.04625 -0.70711,-5.53901 -0.59402,-1.36797 -1.29497,-2.23285 -3.12306,-3.41768 1.7492,-3.36047 2.44459,-9.13608 3.47661,-12.02082 2.87833,0.62804 5.21466,0.34147 5.59793,-3.2409 -2.00772,-0.86042 -4.04925,-1.88867 -4.24264,-4.18372 -0.23339,-2.76983 -2.05842,-3.92841 -4.00694,-5.18545 5.11743,-6.69226 5.93238,-19.97414 -6.59966,-15.909899 -5.66621,-0.143984 -10.80689,-0.195096 -14.37893,-1.608665 -0.42903,-0.169779 -1.1419,-0.296802 -1.57871,-0.149025 -3.00371,1.016195 -4.42296,5.190694 -15.64113,4.976397 -0.64297,-0.01228 -1.22598,0.481117 -1.28129,1.121913 -0.49292,5.711059 0.53276,9.216409 2.47447,12.099609 1.47811,0.0262 2.67134,-0.0564 6.28003,0.59371 0.33951,0.0612 0.88982,0.0221 1.15032,-0.20162 0.57167,-0.49101 0.89162,-1.37167 1.18927,-2.51667 0.0923,-0.35521 0.45806,-0.65144 0.82537,-0.65948 l 6.8589,-0.1502 c 0.3031,-0.007 0.57497,0.23238 0.60105,0.53444 0.33398,3.8693 0.18776,10.49833 -1.46487,15.81425 -0.0949,0.3054 -0.43747,0.56156 -0.75727,0.56716 -2.19547,0.0384 -4.23568,-0.19629 -5.63191,-0.87215 -0.32369,-0.15669 -0.47881,-0.60124 -0.38331,-0.94825 0.51864,-1.88443 0.6877,-3.54795 0.56947,-5.7571 -0.0204,-0.3804 -0.34695,-0.62516 -0.72201,-0.55903 -3.34524,0.58977 -5.77407,0.28004 -9.57571,-0.0114 -0.41176,2.93799 0.29608,4.48533 2.23918,6.0104 -2.03169,1.34533 -3.21445,2.81475 -3.65339,5.24438 -5.59176,0.93051 -8.41628,-0.28453 -10.54767,-2.06239 -1.92215,3.68717 -5.16283,4.61278 -8.0728,3.06413 -2.84099,4.80166 1.74327,5.7752 3.88908,6.42288 -6.98486,3.50428 -15.31346,-0.0191 -21.6846,-7.18892 -3.58538,-4.03485 -10.01097,-14.88273 -16.26346,-19.74006 4.0769,-3.62082 6.82625,-7.02387 6.39453,-9.32664 -2.08461,0.714104 -2.49595,-1.51459 -4.20833,-2.5 -1.40887,-0.81075 -3.02569,-0.129178 -4.04167,-2 -3.07124,-1.287962 -5.80375,-0.65646 -8.20833,1.833334 -2.06495,-2.197618 -4.28326,-4.050162 -6.79167,-5.25 -1.72876,2.419114 -4.06246,4.146868 -8.875,3.041666 -0.14535,4.789689 0.0384,9.33969 8.70834,7.70833 0.32108,5.32273 -1.06335,7.23442 -2.83334,8.375 0.59842,3.47285 1.16818,6.93777 -3.33333,9 2.01779,1.80591 4.48447,2.82178 9.25,-0.20833 1.2701,1.11073 2.59659,2.20793 6.58333,2.66667 0.94114,4.89967 11.899,11.8813 -1.16666,13 0.2772,2.31057 3.01148,3.08388 4.54166,4.16666 1.5616,1.10501 2.85492,4.02008 5,3 -1.10912,5.59374 0.76034,8.05999 4.08334,9 -0.42434,1.47588 -0.18438,2.15462 -0.0833,3 1.38232,1.15909 3.28984,1.44286 5.33334,1.5 -1.13546,0.97702 -1.70023,1.17028 -2.54167,1.75 0.84449,2.78947 2.90145,4.26191 5.75,5.25 -0.53038,1.2971 -1.50573,2.85057 -2.16666,3.58334 0.64921,0.45575 1.31348,0.65517 3.45833,0.75 2.32394,0.10274 3.14233,3.13742 2.33333,3.58333 -11.25213,6.20206 -17.02714,10.80777 -25.66671,15.95834 -7.21802,4.30309 -11.40984,4.52322 -13.45833,4.12499 -9.5e-4,-11.89598 -7.29133,-13.89757 -12.5523,-13.00096 -0.40981,0.0698 -1.34093,0.1526 -0.94016,0.2633 5.56145,1.53616 8.87527,3.61224 6.61746,5.40433 -3.67215,2.9147 -1.09816,4.86801 -0.70833,7.16667 0.23214,1.36883 -0.17003,2.45766 -0.20837,3.66666 -3.95775,0.28457 -8.61272,-0.16682 -10.70833,2.08334 1.58932,1.02389 3.01402,1.61979 5.125,4 0.85637,0.56999 2.4521,0.62242 4.41667,0.41666 -1.05551,3.28407 -0.99745,5.85949 4,5.29167 6.36777,-5.11922 9.10611,-3.59926 10.95833,-0.45833 0.60219,-0.55311 1.36135,-2.28768 1.70833,-3.54167 2.95171,0.72008 5.14223,0.0665 6.08335,-0.68819 0.97763,1.94535 4.6899,0.83553 7.62502,0.64649 1.40349,-1.25 2.51416,-1.79167 3.875,-2.33333 -0.60107,2.91386 3.74396,2.80074 7.875,2.33333 -0.43727,-1.40278 -1.02103,-2.63888 -0.25,-4.04166 0.67674,1.60607 -0.12014,2.74062 1.66666,2.87499 -0.85874,-1.32087 -0.42938,-2.44443 -0.125,-2.83333 1.85984,-0.68246 3.23422,-2.09311 4.66667,-3.41666 1.23349,0.73269 2.67355,0.63912 4.125,0.5 -0.0432,0.80555 -10e-4,1.61111 -0.25,2.41666 1.70833,0.14172 3.41667,-0.41305 5.125,-0.91666 v 1 c 2.77553,0.14548 3.69342,-2.11398 4.41667,-3.58333 0.50631,1.02903 1.53629,2.20634 3.125,2.95833 0.82395,-1.97111 1.93011,-3.00147 3.08333,-3.875 1.28048,1.06454 -0.051,1.78719 1.83333,1.29166 -4.77958,-2.00781 1.18507,-10.03782 5.16667,-8.375 1.19432,6.6979 5.47312,9.95235 10.40032,13.19407 8.58347,5.64727 10.38261,13.73139 10.07627,18.50264 -14.22132,-0.0102 -27.649,0.5852 -33.46972,5.71578 -6.03997,5.32385 -9.33682,3.07547 -12.55115,1.41421 -3.22277,6.3095 2.26247,9.02897 4.89083,9.54594 -1.8258,8.29667 -20.68574,23.54598 -34.35361,24.51304 -0.30838,-2.9193 -0.69899,-5.7598 -3.61794,-6.17731 -1.22868,2.9569 -4.50769,3.57057 -9.625,2.08333 0.20688,1.06944 1.45185,2.13889 2.375,3.20833 0.37624,1.65932 0.34293,2.99101 0.16667,4.20834 0.32761,1.65293 -4.65877,1.88886 -7.96008,2.76394 -0.7248,0.19212 -1.14468,0.20309 -0.4509,0.4889 4.77019,1.96512 5.27555,4.95848 3.74431,7.91382 1.49745,0.64324 3.55969,-0.14724 6.5,-3.16666 0.55121,1.63561 2.14764,2.15134 4.25,2.125 -0.94497,0.98405 -1.14946,2.07388 -1.33333,3.16666 3.77703,0.3751 6.05389,2.60337 7.95833,5.29167 0.75228,-0.85141 0.95594,-2.03199 1.16667,-3.20833 1.86494,-0.71207 3.75778,-1.39066 5.08333,-2.75 1.81725,0.48363 4.09133,0.32772 6.45833,0.0417 1.38594,-2.06496 2.44921,-2.90575 4.5,-4.41666 0.52879,3.2643 1.0116,4.92243 4.41667,6.08333 -1.93168,-5.07597 0.0484,-6.82944 4.58333,-7.79167 -0.0726,2.2853 1.79612,3.2555 5.16667,3.20834 3.38074,5.0486 8.65687,5.82304 9.16667,-1.91667 -5.65028,0.34746 -6.40784,-7.67 0,-6.20833 2.52778,4.1102 5.05555,3.15695 7.58333,0.875 1.35894,-1.37005 2.04797,-1.83658 3.20833,-2.125 -2.21954,-0.93691 -6.87448,-2.39344 -3,-6.04167 0.91299,-0.85968 2.18444,-1.85889 3.08334,-3 0,-4.99232 -1.01107,-6.43241 -0.91667,-11.29171 0.15639,-8.05105 10.88935,-9.57935 19.75,-9.66666 -0.83061,6.65778 -6.80893,11.90543 -5.49439,21.76504 1.78226,13.36768 -4.12857,17.14353 -8.54421,18.97403 3.54816,2.43161 11.12739,2.79664 16.02775,-8.01388 2.31992,2.51467 4.88163,4.75793 9.13347,6.54074 5.22292,2.18998 5.85282,6.13652 6.54073,9.89949 -2.71224,3.49126 -5.63079,6.36359 -7.60139,12.07975 -0.94282,2.73487 -1.88562,4.78643 -2.82843,6.42288 l -2.82843,-0.0589 c -1.36074,2.0122 -2.92174,3.62388 -4.59619,5.00867 -2.04138,-3.38563 -6.06316,-5.44543 -9.25132,-5.89256 2.43575,3.52577 3.27448,6.48117 -3.0052,6.89429 -0.56642,1.74813 -1.4258,3.49625 -3.24091,5.24438 0.62375,3.27321 0.34713,6.28917 -0.11785,9.25131 2.8109,0.12247 6.34244,1.94013 10.1352,1.8267 -0.20742,-5.56893 7.63021,-5.12805 13.49395,-1.41422 1.80243,-0.69491 2.00793,-1.57536 2.18025,-3.18198 4.27976,-0.24188 6.89437,-2.21552 7.24785,-6.54074 1.74618,0.75943 3.35886,1.96383 6.0104,-0.29462 1.7433,-0.2304 2.70998,-0.7208 3.41769,-1.47314 -3.67177,0.16525 -4.08527,-3.15512 -3.47661,-6.83537 2.84387,0.94672 5.6131,1.61352 7.8371,0.2357 6.06021,2.31199 11.04099,1.406 12.61007,-4.41941 -1.88597,0.38016 -3.18017,0.0699 -4.12479,-0.64818 2.22576,-0.81372 4.8367,-0.82205 5.42115,-5.0676 2.22709,-1.0531 3.95721,-2.60317 4.77297,-5.0676 -8.50874,-1.30008 -11.26052,-8.49912 -2.41595,-9.60487 12.72375,-1.59073 13.46297,-7.39846 12.1976,-11.78511 -5.17024,6.14344 -11.77228,5.9877 -14.25999,1.82667 1.68994,-6.61268 -3.73069,-5.70767 -8.24958,-4.94975 -1.32725,-3.96727 -1.72298,-8.20816 -6.59966,-12.02081 -2.43857,-1.90651 -4.26518,-6.05832 -3.94802,-15.79205 25.02194,30.59395 61.19942,6.85305 50.02781,-22.09709 -4.0232,-10.42574 -0.19269,-19.77906 9.66379,-24.04163 4.29941,-1.85934 5.15262,-5.72747 4.02123,-7.45669 -1.46905,1.80078 -5.47651,1.52614 -8.38172,1.91768 -4.29492,0.57884 -7.60163,2.50206 -10.84231,4.24265 -0.2085,-7.31118 2.48081,-13.66387 10.48876,-16.35272 5.1031,-1.71348 10.42951,-1.93416 9.89949,-8.39602 -3.86885,0.57538 -7.62917,0.97058 -10.8423,0.70711 -4.01114,-0.32891 -6.83925,0.37402 -9.78165,0.9428 2.10436,-7.70723 6.11284,-11.13319 11.07801,-12.49222 7.27863,-1.99225 8.50957,-5.88204 5.7747,-10.8423 -2.72132,2.99266 -5.54604,5.8376 -11.3137,4.47834 0.77928,-6.49544 3.94963,-10.32439 8.48528,-18.26692 C 522.80161,96.475808 474.96503,83.129115 475,116.16667 Z"
             id="path30673"
             sodipodi:nodetypes="scccssccsssscccsccscccsccsssscccccccccccsccsccccccccccscccccccssscsssccccccccccccccccccccccccscsccccscccccccccccccccccccscscsccscscccccccccccccccccccscccscsscscscscsccsssscsccssss"
             inkscape:label="lion-l0" />
          <path
             id="path77856"
             style="opacity:1;fill:#da121a;fill-opacity:1;stroke:#000000;stroke-width:1.75;stroke-linecap:butt;stroke-linejoin:miter;stroke-miterlimit:4;stroke-dasharray:none"
             inkscape:label="claws-l"
             d="m 414.95383,321.73361 c 0.43017,1.91816 1.56341,3.90845 3.97747,5.80415 3.3971,-4.78272 6.42162,-5.60912 9.51648,-7.21837 -4.08332,-2.62611 -12.87093,-5.5622 -13.49395,1.41422 z M 404.93648,310.6556 c -5.42522,-0.34044 -10.98598,2.00794 -6.51982,13.70017 2.95309,-0.95294 4.76767,-2.64258 6.40197,-4.44886 0.73662,-3.19862 0.42597,-6.22476 0.11785,-9.25131 z m 6.24611,-12.13867 c -6.46015,-3.03095 -10.03238,0.23684 -10.34926,5.5664 3.37433,-0.54985 5.51177,0.22555 7.34406,1.32789 6.5313,-0.6627 5.32403,-3.61412 3.0052,-6.89429 z M 350.375,280 c -2.52644,5.29884 -5.12766,8.31718 -7.81123,8.82366 -0.51195,-1.93678 -0.99855,-3.5509 -2.23917,-5.09706 -1.52177,-1.89655 0.0169,-5.75025 2.09207,-9.01827 3.39529,0.364 5.96932,2.27634 7.95833,5.29167 m -21.75,-15.54167 c -4.3622,1.63116 -5.80847,6.69694 -1.05778,12.31505 1.81093,-2.2304 3.62185,-3.18056 5.43278,-4.19005 2.28309,-4.05756 0.40782,-6.61554 -4.375,-8.125 z m 16.125,-12.54166 c -2.04658,-3.72548 -7.33053,-8.19682 -13.94188,-1.95442 0.99853,1.34592 2.37637,2.69183 4.31688,4.03775 4.87607,1.27218 8.52442,1.09661 9.625,-2.08333 z m -1.12503,-47.125 c -0.60155,6.94919 -3.2527,10.10059 -7.6314,10.05094 -1.6139,-3.13442 -2.59818,-6.34754 -3.32693,-9.59261 5.7457,-4.39676 9.2108,-4.16898 10.95833,-0.45833 z m -24.5,-9.25 c -5.65561,2.73481 -5.00053,9.67115 0.13374,13.82086 0.75241,-1.60873 1.80296,-2.94643 3.41769,-3.77123 2.79535,-1.26334 4.11558,-3.6614 5.99024,-5.63297 -2.80361,1.79865 -4.31843,-1.03946 -9.54167,-4.41666 z m 4.47919,-18.52084 c -4.05654,3.06861 -4.96806,5.96497 -4.14583,8.47917 1.50463,-0.14458 2.89696,-0.0473 4.04167,0.58333 1.28347,0.70706 3.94704,2.00858 5.95805,1.99762 -1.091,-2.51025 -0.56286,-3.98816 1.29195,-5.45595 2.39989,-2.0982 -1.48336,-3.99866 -7.14584,-5.60417 z m 16.10417,-67.1875 c -7.62876,-1.40082 -13.99489,5.12329 -7.375,10.875 1.34722,-1.64038 2.69445,-1.45377 4.04167,-1.875 3.74526,-1.68049 4.43461,-4.89177 3.33333,-9 z m 3,-19.124996 c -1.22332,-3.48926 -11.45551,-6.453803 -12.96087,0.979845 1.85486,0.333324 1.80038,1.239016 4.08587,2.061821 5.11234,1.19155 7.08237,-0.834244 8.875,-3.041666 z m 23.25,7.916666 C 366.8763,91.800753 364.75539,85.530186 357.75,87.25 c 1.37067,1.944763 1.01869,4.261074 -0.0417,6.875 0.0976,0.94362 2.25846,1.630307 4.04167,2 2.51691,2.615297 3.61282,3.242481 4.20836,2.5 z m -13.75,22.66669 c 1.07391,4.89811 12.29633,12.46133 -2.04166,12.875 -1.37861,-4.08333 0.65574,-8.54167 2.04166,-12.875" />
          <path
             style="opacity:1;fill:#da121a;fill-opacity:1;stroke:#000000;stroke-width:1.75;stroke-linecap:butt;stroke-linejoin:miter;stroke-miterlimit:4;stroke-dasharray:none"
             d="m 384.22579,94.106141 c -1.3297,1.052656 -1.99809,2.939837 -1.47248,4.584369 0.67686,2.11778 1.53039,4.18484 2.58306,6.14464 1.665,3.09977 4.01086,5.88555 7.00962,7.77 3.50212,2.20077 7.64768,3.12184 11.73239,3.37158 2.75492,0.16844 5.51029,-0.0725 8.2602,-0.24666 1.03667,-0.0657 2.0739,0.13032 3.10903,0.21417 1.93657,0.15688 3.8828,0.24017 5.82332,0.12799 0.73191,-0.0423 1.45008,-0.0185 2.18072,-0.0155 0.52524,0.002 0.88012,0.52872 0.8939,1.0465 0.0294,1.10454 0.0291,1.93367 -0.081,3.02428 -0.0791,0.78363 -0.33969,1.54074 -0.40379,2.32322 -0.0439,0.53589 0.47986,0.87462 0.95965,1.00379 1.39681,0.37605 2.84721,0.54544 4.28366,0.50623 0.56209,-0.0153 0.79141,-0.63529 0.91599,-1.12082 1.01175,-3.94326 1.40508,-8.02572 1.33294,-12.0871 -0.0135,-0.75941 0.038,-1.53467 -0.11014,-2.2795 -0.0994,-0.50008 -0.68144,-0.63883 -1.15119,-0.61506 -1.89838,0.096 -3.80573,0.039 -5.70224,0.13495 -0.49928,0.0252 -0.72204,0.53708 -0.8473,0.96625 -0.24032,0.82336 -0.54249,1.77385 -1.33166,2.21881 -0.73842,0.41635 -1.62666,0.11351 -2.41116,-0.0185 -2.72022,-0.45775 -5.48874,-0.36874 -8.21746,-0.46491 -3.74393,-0.13194 -7.57936,-0.34006 -11.20856,-1.48821 -1.06446,-0.33676 -2.08577,-0.77184 -3.03448,-1.31165 -1.45416,-0.82741 -2.71932,-1.96185 -3.68112,-3.34815 -1.18191,-1.70356 -1.75808,-3.72705 -2.12212,-5.745152 -0.31647,-1.754351 -0.94991,-3.576815 -2.33876,-4.776933 -0.67259,-0.581188 -1.53224,-0.938018 -2.44952,-0.928723 -0.91728,0.0093 -1.80675,0.444237 -2.5215,1.010069 z"
             id="path82065"
             sodipodi:nodetypes="ssssssssssssssssssssssssssssss"
             inkscape:label="tongue-l" />
          <path
             id="path104124"
             style="opacity:1;fill:#000000;fill-opacity:1;stroke:none;stroke-width:1.75;stroke-linecap:round;stroke-linejoin:round;stroke-miterlimit:4;stroke-dasharray:none"
             d="m 439.37457,182.41145 c -1.68625,-4.49314 -2.28951,-7.38029 -1.65338,-10.42982 0.7658,3.57507 2.60141,6.508 4.05806,9.5407 m -2.0312,-19.88756 c -0.4777,0.0704 -0.8081,0.5144 -0.73828,0.99218 0.21781,1.48101 0.63919,2.6606 1.43554,3.53711 0.79636,0.87652 1.90791,1.3656 3.25977,1.62891 2.70372,0.52662 6.56073,0.29636 12.51953,0.3125 0.48325,0.001 0.87587,-0.3898 0.87695,-0.87305 10e-4,-0.48325 -0.0883,-3.90365 -0.57159,-3.90473 -2.79521,4.42644 -10.21268,3.19027 -12.49091,2.74653 -1.13911,-0.22187 -1.82145,-0.56246 -2.29883,-1.08789 -0.47737,-0.52543 -0.8099,-1.32074 -1,-2.61328 -0.0704,-0.4777 -0.5144,-0.8081 -0.99218,-0.73828 z"
             inkscape:label="lion-lf" />
          <g
             id="g187184"
             inkscape:label="lion-lc">
            <path
               id="path105906"
               style="opacity:1;fill:none;fill-opacity:1;stroke:#000000;stroke-width:2.5;stroke-linecap:round;stroke-linejoin:round;stroke-miterlimit:4;stroke-dasharray:none"
               d="m 475.28906,128.39974 c 4.58402,-0.14134 8.30858,-8.15927 8.10681,-15.26266 -0.0691,-2.43354 1.60328,-5.25576 4.15425,-8.39689 M 435.5625,152.9375 c -3.29078,1.99773 -5.02511,4.65708 -4.1875,8.125 0.34212,1.41647 -0.36835,1.76105 -1.1875,2.1875 -4.84953,2.52468 -5.46563,6.04674 -5.1875,9.75 m -0.375,-19 c -0.9973,1.67193 -0.79177,3.59397 -0.5625,5.5873 0.20279,1.76314 -0.46059,2.59361 -2.125,2.9995 -3.3735,0.82267 -3.9397,3.53106 -3.625,6.76357 0.22173,2.27757 0.13014,4.60329 -2,6.58713 m -51.64583,-25.47915 c 1.23248,-3.77187 1.17205,-7.05377 3.39583,-9.95835 m -7.47917,0.95835 c 0.69858,-3.45391 1.75922,-6.03889 3.04633,-8.08033 m 6.28705,21.58033 c 6.88673,0.0919 13.84378,0.28335 16.83329,-5.14585 m 78.82089,142.28157 c -3.07594,1.69508 -8.4556,-2.11985 -9.4641,-0.77966 -0.91952,1.22194 -0.76895,2.6553 4.04295,5.84726 m -36.29815,-80.25664 c -0.13233,3.71235 -2.82815,10.25668 -3.22659,14.88666 m -37.90345,1.78927 c 1.00759,0.17197 2.05177,0.47367 3.61434,0.49021 2.64481,0.028 3.05658,2.32846 -0.25809,5.99199"
               inkscape:label="lion-lc1" />
            <path
               id="path109766"
               style="opacity:1;fill:none;fill-opacity:1;stroke:#000000;stroke-width:1.75;stroke-linecap:round;stroke-linejoin:round;stroke-miterlimit:4;stroke-dasharray:none"
               d="m 445.12372,93.927351 c 4.40314,5.815608 5.55401,9.320389 3.62392,10.636069 0.22804,-5.257521 -1.74724,-7.888013 -3.62392,-10.636069 z M 447.375,127.125 c -1.67979,0.875 -2.20747,1.75 -2.75,2.625 m 5.5,-14.9375 c -0.54816,1.46063 -1.80857,2.03096 -3,2.6875 1.02828,4.04326 -0.27483,4.73514 -1.875,5 m -25.5625,-21.5625 1.875,0.0625 m -3.875,30.0625 c 1.25958,0.51125 2.84477,0.6969 4.6875,0.625 -0.19905,0.5401 -0.56351,1.13482 -1.07763,1.77896 1.99245,0.13152 3.89717,-0.20488 5.64013,-1.40396 m 0,0 c -0.70885,1.0625 -1.43916,2.125 -2.3125,3.1875 m -5.6875,-5.625 c -0.52348,0.7996 -0.88977,1.12764 -1.25,1.4375 m 4.6875,0.625 c -0.85724,2.11703 -2.89295,3.84124 -6.25,5.125 m 20.8125,-25.6875 c 0.3352,2.73412 -0.2164,5.53563 -1.1875,8.3125 -1.31665,3.76499 -1.15729,7.70244 -2.1875,10.5 m 57.3125,71 c -0.4985,-2.9857 0.22558,-5.47944 1,-7.3125 m 3,27.625 c 0.5544,4.53246 -0.63792,8.50915 -3.75,11.875 m -5.1875,-75.3125 c -1.33537,4.29167 -2.122,8.58333 -2.125,12.875 M 435.25,165.5 c -1.63546,2.96016 -2.49678,6.148 -1.3125,9.9375 M 412.875,159.875 c -1.7071,2.76606 -3.55211,5.8645 -1.6875,9.5 0.98773,1.92582 0.82255,4.45987 -0.9375,7 m 7.875,-26.1875 c 0.3121,-1.22107 0.51195,-2.50949 1.625,-3.25 m -45.267,18.97854 c 10.73964,0.66149 8.44377,-3.76533 11.48889,-6.38703 m -12.4933,2.36305 c 5.08143,0.92071 10.04736,-0.69913 13.66237,-3.14659 3.33151,-2.25552 6.3759,-4.97813 10.82757,-5.12652 2.63977,-0.088 4.57757,-1.56076 5.74525,-3.18198 m -12.9489,11.57887 c 3.39881,-1.64961 6.77814,-3.56802 10.51822,-3.44714 3.46103,0.11187 6.77217,-1.78563 9.98788,-5.74525 m -30.84753,-12.37437 c 1.87565,-0.39394 3.67531,-0.90358 5.83363,-1.01646 6.06167,-0.31703 9.19237,-2.28297 12.07237,-4.59617 M 384,144.0625 c 4.53634,0.29306 8.185,-0.17477 11.5625,-0.875 0.0905,5.8771 -3.8633,6.60649 -8.71875,6.21875 M 357.70833,94.12502 c -1.87876,1.991389 -1.67627,4.092317 -0.39583,6.24998 m -6.59375,-5.02334 c -2.61953,2.530978 -0.0805,5.01371 1.03125,6.02334 m 20.0625,42.6875 c 0.57967,1.05233 0.64908,2.76071 0.0625,5.3125 M 361.75,123.5625 363,126.25 m 39.0344,41.77625 c -0.68535,2.78248 -0.38854,5.31941 1.28163,7.51301 M 377.0205,186.5878 c 1.00235,-0.8647 2.23751,-1.2269 4.19844,-1.10485 1.99084,0.12391 3.42484,-1.09048 4.5962,-2.56326 2.67764,-0.66291 6.71001,-1.50261 7.33623,-2.43068 m -31.90819,6.8059 c 1.51709,-0.54571 2.98627,-1.21919 4.15425,-2.69585 m -36.23913,14.92838 c 9.09841,-1.05725 6.81565,0.89287 6.40404,3.78477 m 87.37516,-3.87471 c 1.6801,-0.59039 2.26434,-1.45475 2.625,-2.375 m -7.25,-2.8125 c 4.24178,0.0393 6.47442,-2.84464 6.6875,-4.8125 m -12.625,0.375 c 5.15401,-0.22942 8.15829,-1.81237 8.8125,-4.875 m -39.34375,80.875 c -0.3973,1.6848 -0.84678,3.39848 0.0312,4.96875 M 360.6875,265.5625 c 1.35555,-0.37085 2.71901,-0.71797 3.75,-2.0625 m 8.75,-1.375 c 1.16778,-0.30259 2.32157,-0.64247 3,-2.25 m 13.375,-5.375 c -0.12431,-1.45788 0.065,-2.70664 0.9375,-3.5 m 39.6875,-33.4375 c 1.89453,1.22038 4.52848,1.51648 7.0625,1.9375 -0.0508,2.39414 0.60151,4.60527 2.875,6.5 m 5.0625,67.75 1.5,-1.1875 m -6.25,-46.5 c -0.16054,4.43137 1.99501,6.54666 4.8125,8 m -13.9375,3 c -0.1852,4.23698 1.77134,5.78134 4.875,6.6875 m 17.1875,10.875 c 0.89745,-1.23236 2.02319,-2.32775 3.75,-3.0625 m -9.1875,9.6875 c 2.69265,-0.72527 4.86537,-1.80094 6.0625,-3.6875 m -49.06352,33.09312 c 1.00875,0.68221 2.11795,0.93745 3.59446,-0.36833 m -3.71231,9.61962 c 3.26047,-0.30627 6.55791,-0.5734 7.86656,-2.9463 4.47285,-0.57477 7.5955,-1.7282 7.95496,-4.06586 m -14.14214,-84.14571 c 3.88536,-1.34291 8.51782,-2.40923 15.11288,-2.05617 l -0.98589,5.09882 c 1.02753,0.88945 2.00665,1.63369 3.3739,3.54229 m -25.0139,-9.1482 c 4.19744,-3.35438 14.82467,-3.59531 23.55501,-2.91358 M 433.875,99.1875 c 0.59237,1.43985 2.14073,2.45703 3.5,3.5625 l -4.5625,-0.0625 c 1.6465,-0.95055 2.67496,-0.78786 3.73755,-0.0686"
               inkscape:label="lion-lc2"
               sodipodi:nodetypes="cccccccccccccccccccccsccccccccccsccccccssccsccscccccccccccccccscccccccccccccccccccccccccccccccccccccccccccccccc" />
          </g>
        </g>
      </g>
      <g
         id="g187199"
         inkscape:label="field3">
        <path
           style="opacity:1;fill:#078930;fill-opacity:1;stroke:#000000;stroke-width:5;stroke-linecap:butt;stroke-linejoin:miter;stroke-miterlimit:4;stroke-dasharray:none"
           d="m 522.66675,331.66667 v 20 C 522.66675,444.94182 432.90119,552 306.00005,552 179.09892,552 89.33336,444.94182 89.33336,351.66667 v -20 z"
           id="path8244"
           sodipodi:nodetypes="cszscc"
           inkscape:label="field3-0" />
        <g
           id="g27490"
           inkscape:label="fess_wavy">
          <path
             id="path27098"
             style="opacity:1;fill:#ffffff;fill-opacity:1;stroke:#000000;stroke-width:5;stroke-linecap:butt;stroke-linejoin:miter;stroke-miterlimit:4;stroke-dasharray:none"
             d="m 306,376 c -29.65712,0 -42.36173,17.66602 -73.46094,17.66602 -29.20473,0 -35.70483,-12.9629 -75.94531,-12.9629 -16.85609,0 -39.15916,11.47616 -56.43945,28.7461 10.73905,29.26976 29.15125,57.45357 53.66211,80.94531 6.05477,-4.9512 13.83189,-8.96094 21.55273,-8.96094 27.96481,0 27.96513,8.23243 61.30469,8.23243 30.02227,0 44.52743,-12.5 69.32617,-12.5 24.79874,0 39.3039,12.5 69.32617,12.5 33.33956,0 33.33988,-8.23243 61.30469,-8.23243 7.72084,0 15.49796,4.00974 21.55273,8.96094 24.51086,-23.49174 42.92306,-51.67555 53.66211,-80.94531 -17.28029,-17.26994 -39.58336,-28.7461 -56.43945,-28.7461 -40.24048,0 -46.73863,12.9629 -75.94336,12.9629 C 348.36368,393.66602 335.65712,376 306,376 Z"
             inkscape:label="fess_wavy-0" />
          <path
             id="path26568"
             style="opacity:1;fill:none;fill-opacity:1;stroke:#000000;stroke-width:4;stroke-linecap:butt;stroke-linejoin:miter;stroke-miterlimit:4;stroke-dasharray:none"
             d="m 131.84278,466.13946 c 9.79208,-8.66615 22.58614,-17.71089 37.37382,-17.71089 30.45008,0 44.36676,9.04474 66.06972,9.04474 33.11717,0 50.56014,-14.80664 70.71369,-14.80664 20.15355,0 37.59652,14.80664 70.71369,14.80664 21.70296,0 35.61964,-9.04474 66.06972,-9.04474 14.78768,0 27.58174,9.04474 37.37382,17.71089 m 18.86546,-28.55232 c -11.75648,-10.23605 -30.04662,-23.23697 -49.88739,-23.23697 -36.80197,0 -40.46865,10.78519 -71.02878,10.78519 -30.64626,0 -46.25579,-16.63536 -72.10652,-16.63536 -25.85073,0 -41.46026,16.63536 -72.10652,16.63536 -30.56013,0 -34.22681,-10.78519 -71.02878,-10.78519 -19.84077,0 -38.13091,13.00092 -49.88739,23.23697"
             inkscape:label="fess_wavy-c" />
        </g>
      </g>
    </g>
  </g>
</svg>
