<?xml version="1.0" encoding="UTF-8" standalone="no"?>
<!-- Created with Inkscape (http://www.inkscape.org/) -->
<svg
   xmlns:svg="http://www.w3.org/2000/svg"
   xmlns="http://www.w3.org/2000/svg"
   version="1.0"
   width="420.01999"
   height="500"
   id="svg3414">
  <defs
     id="defs3416" />
  <path
     d="M 109.988,-10 L 109.988,280 C 109.988,396.347 203.639,490 319.984,490 C 436.329,490 530.011,396.347 530.011,280 L 530.011,-10 L 109.988,-10 z"
     transform="translate(-109.98799,10.000026)"
     id="feld"
     style="fill:#0f47af" />
  <path
     d="M 114.96,-5.028 L 114.96,279.205 C 114.96,393.238 206.395,485.028 319.984,485.028 C 433.575,485.028 525.04,393.238 525.04,279.205 L 525.04,-5.028 L 114.96,-5.028 z"
     transform="translate(-109.98799,10.000026)"
     id="schildrahmen"
     style="fill:none;stroke:#000000;stroke-width:9.9428997" />
  <path
     d="M 319.988,20 C 285.674,83.894 277.509,116.096 276.863,145 C 277.948,175.558 285.461,206.839 313.988,273.156 L 325.988,273.156 C 352.7,209.08 363.13,175.133 361.332,145 C 359.978,111.869 352.366,84.539 319.988,20 z"
     transform="translate(-109.98799,10.000026)"
     id="path9470"
     style="fill:#ffffff;stroke:#000000;stroke-width:3.05999994" />
  <path
     d="M 334.988,273.156 C 368.896,98.355 531.491,165.069 416.988,273 C 417.19,222.123 357.739,232.121 344.988,273.156 L 334.988,273.156 z"
     transform="translate(-109.98799,10.000026)"
     id="path3341"
     style="fill:#ffffff;stroke:#000000;stroke-width:3.05999994" />
  <path
     d="M 303.258,273.156 C 269.35,98.355 106.754,165.069 221.258,273 C 221.055,222.123 280.507,232.121 293.258,273.156 L 303.258,273.156 z"
     transform="translate(-109.98799,10.000026)"
     id="path3343"
     style="fill:#ffffff;stroke:#000000;stroke-width:3.05999994" />
  <path
     d="M 288.285,273.228 L 351.715,273.228 C 354.652,273.228 357.031,275.608 357.031,278.544 L 357.031,281.516 C 357.031,284.453 354.651,286.832 351.715,286.832 L 288.285,286.832 C 285.348,286.832 282.969,284.452 282.969,281.516 L 282.969,278.544 C 282.969,275.607 285.349,273.228 288.285,273.228 z"
     transform="translate(-109.98799,10.000026)"
     id="rect5573"
     style="fill:#ffffff;stroke:#000000;stroke-width:3.1566999" />
  <path
     d="M 314.988,315.906 C 314.921,338.386 264.519,405.118 319.988,444.969 C 370.519,404.893 325.627,338.582 324.988,315.906 L 314.988,315.906 z"
     transform="translate(-109.98799,10.000026)"
     id="path9475"
     style="fill:#ffffff;stroke:#000000;stroke-width:3.05999994" />
  <path
     d="M 288.285,302.228 L 351.715,302.228 C 354.652,302.228 357.031,304.608 357.031,307.544 L 357.031,310.516 C 357.031,313.453 354.651,315.832 351.715,315.832 L 288.285,315.832 C 285.348,315.832 282.969,313.452 282.969,310.516 L 282.969,307.544 C 282.969,304.607 285.349,302.228 288.285,302.228 z"
     transform="translate(-109.98799,10.000026)"
     id="rect5575"
     style="fill:#ffffff;stroke:#000000;stroke-width:3.1566999" />
  <path
     d="M 281.895,287.198 L 358.104,287.198 C 361.259,287.198 363.817,289.756 363.817,292.91 L 363.817,296.103 C 363.817,299.258 361.259,301.816 358.104,301.816 L 281.895,301.816 C 278.74,301.816 276.182,299.258 276.182,296.103 L 276.182,292.91 C 276.183,289.756 278.74,287.198 281.895,287.198 z"
     transform="translate(-109.98799,10.000026)"
     id="rect5577"
     style="fill:#ffffff;stroke:#000000;stroke-width:3.05900002" />
  <path
     d="M 334.988,315.906 C 352.718,433.503 477.994,392.192 412.988,303 C 413.19,353.877 357.739,356.941 344.988,315.906 L 334.988,315.906 z"
     transform="translate(-109.98799,10.000026)"
     id="path9481"
     style="fill:#ffffff;stroke:#000000;stroke-width:3.05999994" />
  <path
     d="M 303.544,315.906 C 285.814,433.503 160.538,392.192 225.544,303 C 225.342,353.877 280.793,356.941 293.544,315.906 L 303.544,315.906 z"
     transform="translate(-109.98799,10.000026)"
     id="path3339"
     style="fill:#ffffff;stroke:#000000;stroke-width:3.05999994" />
</svg>
