<?xml version="1.0" encoding="utf-8"?>
<!-- Generator: Adobe Illustrator 13.0.0, SVG Export Plug-In . SVG Version: 6.00 Build 14948)  -->
<!DOCTYPE svg PUBLIC "-//W3C//DTD SVG 1.1//EN" "http://www.w3.org/Graphics/SVG/1.1/DTD/svg11.dtd">
<svg version="1.1" id="Ebene_1" xmlns="http://www.w3.org/2000/svg" xmlns:xlink="http://www.w3.org/1999/xlink" x="0px" y="0px"
	 width="260px" height="330px" viewBox="0 0 260 330" enable-background="new 0 0 260 330" xml:space="preserve">
<g>
	<g>
		<polygon fill="#EBEBEB" points="5.023,208.234 9.923,238.123 21.193,265.072 40.793,289.572 57.943,304.271 80.482,315.543 
			103.022,322.893 140.752,325.342 182.401,313.582 204.451,300.842 233.36,272.422 250.511,236.652 254.921,200.883 
			256.433,146.985 5.023,146.985 		"/>
		<polygon fill="#D80F00" points="3.753,4.56 3.753,146.985 5.023,146.985 256.433,146.985 256.718,146.985 256.718,4.56 		"/>
	</g>
	<g>
		<path fill-rule="evenodd" clip-rule="evenodd" fill="#FDC91A" d="M197.395,256.752h-4.238H44.218H41.81l1.101-2.141
			c0.09-0.178,2.305-4.395,8.346-8.133c3.38-2.09,7.662-3.994,11.803-5.834c2.656-1.182,5.403-2.402,7.789-3.623
			c6.438-3.297,10.977-6.719,11.022-6.754c0.015-0.016,6.579-5.512,8.979-11.219c1.306-3.104,0.338-6.441-0.886-8.357
			c-1.641-2.566-5.381-4.645-9.529-5.291c-1.089-0.17-2.239-0.256-3.419-0.256c-1.976,0-3.361,0.244-3.375,0.248
			c-0.182,0.031-4.328,0.754-8.682,0.754c-2.262,0-4.19-0.197-5.728-0.59c-5.904-1.502-8.556-2.887-12.904-6.736
			c-3.487-3.09-6.221-7.094-7.502-10.99c-2.238-6.824-1.401-13.303-1.296-14.041c0.071-0.893,0.913-10.664,4.813-24.621
			c2.444-8.741,6.826-18.398,11.463-28.622c4.92-10.846,10.008-22.061,13.427-33.493c8.581-28.691,10.447-60.497,10.466-60.814
			l-0.002-0.18v-2.893l2.337,1.706c0.467,0.342,11.465,8.55,12.447,24.564c1.071,17.469-2.001,42.507-3.92,55.833
			c5.521-10.893,15.549-30.609,24.085-47.036c7.613-14.646,14.811-27.6,14.882-27.728l0.868-1.561l1.365,1.153
			c0.353,0.298,8.596,7.546,3.206,27.882c-2.538,9.568-7.791,20.828-12.872,31.719c-2.135,4.576-4.151,8.898-5.939,13.026
			c-3.82,8.825-6.439,16.378-7.925,21.01c4.552-4.173,12.769-12.237,22.424-24.131c6.435-7.926,12.579-16.708,18.519-25.199
			c1.441-2.058,2.855-4.08,4.239-6.039c9.395-13.295,18.957-24.901,19.053-25.016l1.137-1.375l1.133,1.377
			c0.281,0.342,6.845,8.552,1.501,22.3c-2.651,6.819-7.074,14.499-11.76,22.631c-2.295,3.985-4.669,8.104-6.791,12.078
			c-6.715,12.572-12.779,24.382-16.349,31.402c6.868-5.924,19.097-16.514,31.257-27.253c16.138-14.252,32.837-29.475,33.004-29.627
			l1.15-1.047l0.981,1.207c0.307,0.377,7.425,9.415-1.043,24.265c-3.547,6.222-9.93,13.23-16.103,20.006
			c-3.746,4.113-7.287,7.997-10.227,11.705c-6.412,8.08-11.396,15.27-14.396,19.791l60.154-33.986l0.947-0.536l0.788,0.75
			c0.191,0.182,1.868,1.872,1.886,5.179c0.025,4.347-2.775,9.29-8.324,14.692c-4.929,4.797-12.615,10.109-20.756,15.733
			c-6.526,4.509-13.275,9.172-18.379,13.486c-5.061,4.279-8.845,9.234-11.049,12.49c4.142-1.574,10.891-4.311,17.203-7.613
			l44.911-23.503l1.324-0.692l0.67,1.333c0.149,0.295,3.557,7.36-4.975,16.896c-4.49,5.021-12.394,10.451-20.036,15.703
			c-4.94,3.393-9.604,6.598-13.119,9.523c-4.209,3.504-7.28,6.523-9.262,8.617c3.374-0.629,8.466-1.65,13.925-2.996
			c14.246-3.518,35.729-10.521,35.945-10.594l1.803-0.588l0.121,1.895c0.017,0.307,0.329,7.596-11.991,16.6
			c-9.077,6.633-34.216,17.381-35.282,17.834l-0.104,0.045l-0.111,0.027c-0.094,0.025-9.325,2.396-12.776,6.568
			c-2.389,2.889-0.509,7.834-0.301,8.359c0.285,0.523,2.673,4.838,6.685,9.373c1.605,1.816,7.914,6.912,10.209,8.723
			L197.395,256.752L197.395,256.752z"/>
	</g>
	<path fill="none" d="M54.513,121.178"/>
	<line fill="none" x1="46.673" y1="113.992" x2="203.634" y2="239.756"/>
	<path d="M193.908,255.621c-0.013-0.008-8.429-6.654-10.45-8.943c-4.456-5.039-6.921-9.736-6.931-9.742
		c0.004,0.01-1.032-2.375-1.03-5.068c0-1.604,0.364-3.295,1.501-4.67c1.539-1.861,4.115-3.398,6.609-4.545l0.361-0.166l-0.31-0.248
		L55.045,119.188l-0.13,0.288c-4.824,10.639-9.441,20.695-11.965,29.723c-1.672,5.98-2.783,11.213-3.511,15.303l-0.025,0.139
		l110.339,91.418h44.71L193.908,255.621z"/>
	<g>
		<g>
			<path d="M252.796,6.52v189.438c0.05,1.414,0.082,2.828,0.082,4.254c0,67.664-54.99,122.518-122.825,122.518
				c-67.399,0-122.109-54.154-122.809-121.219H7.146V6.52H252.796 M257.796,1.52h-5H7.146h-5v5v194.99v5H2.39
				c1.549,31.919,14.837,61.697,37.732,84.315c24.089,23.798,56.027,36.903,89.931,36.903c34.141,0,66.239-13.263,90.381-37.345
				c24.146-24.086,37.443-56.109,37.443-90.173c0-1.33-0.026-2.751-0.082-4.341V6.52V1.52L257.796,1.52z"/>
		</g>
	</g>
	<rect x="53.594" y="146.433" fill="#EBEBEB" width="34.361" height="29.307"/>
	<rect x="87.975" y="175.771" fill="#EBEBEB" width="36.239" height="27.316"/>
	<rect x="124.215" y="203.109" fill="#EBEBEB" width="34.503" height="30.236"/>
	<polyline fill="#EBEBEB" points="158.8,258.131 183.626,259.111 194.896,257.232 196.774,255.682 194.896,252.66 189.099,247.76 
		184.034,244.086 181.626,240.451 179.829,237.021 178.563,233.346 158.719,233.346 	"/>
	<polygon fill="#EBEBEB" points="42.644,146.433 53.594,146.433 53.594,120.688 51.573,124.282 48.306,131.468 	"/>
	<path d="M79.166,26.06c0,0,10.897,7.958,11.848,23.466c1.523,24.837-5.315,64.657-5.315,64.657s15.649-31.02,28.253-55.271
		c7.69-14.797,14.861-27.691,14.861-27.691s7.948,6.712,2.733,26.382c-3.551,13.396-12.656,30.487-18.738,44.539
		c-6.458,14.92-9.472,26.086-9.472,26.086s11.431-9.183,26.461-27.698c8.058-9.928,15.814-21.403,22.818-31.315
		c9.469-13.403,18.985-24.929,18.985-24.929s6.358,7.729,1.266,20.834c-3.941,10.137-12.158,22.721-18.477,34.549
		c-10.742,20.108-19.698,38.032-19.698,38.032s18.393-15.766,36.877-32.089c16.332-14.425,33.021-29.643,33.021-29.643
		s6.889,8.465-1.179,22.61c-5.537,9.71-18.251,21.5-26.205,31.526c-10.966,13.819-17.689,24.906-17.689,24.906l65.324-36.908
		c0,0,5.954,5.671-6.452,17.752c-8.88,8.646-27.726,19.568-39.059,29.152c-8.672,7.332-13.608,16.461-13.608,16.461
		s11.178-3.814,21.394-9.16c18.625-9.746,44.91-23.503,44.91-23.503s3.204,6.355-4.756,15.256c-7.216,8.067-23.95,17.542-33,25.075
		c-8.312,6.92-12.218,11.93-12.218,11.93s8.453-1.354,18.172-3.75c14.463-3.57,36.05-10.623,36.05-10.623s0.421,6.689-11.393,15.322
		c-9.042,6.609-34.989,17.666-34.989,17.666s-9.744,2.457-13.547,7.057c-3.16,3.82-0.498,9.928-0.498,9.928s2.47,4.695,6.912,9.717
		c2.046,2.312,10.398,8.902,10.398,8.902H44.218c0,0,2.049-3.99,7.812-7.555c5.465-3.381,13.39-6.277,19.488-9.4
		c6.644-3.4,11.241-6.889,11.241-6.889s6.872-5.701,9.446-11.82c1.437-3.416,0.57-7.26-1.003-9.721
		c-1.9-2.971-6.069-5.252-10.54-5.951c-1.315-0.203-2.564-0.273-3.645-0.273c-2.155,0-3.64,0.271-3.64,0.271s-4.145,0.73-8.422,0.73
		c-1.875,0-3.775-0.141-5.363-0.543c-5.612-1.428-8.051-2.658-12.292-6.412c-3.224-2.857-5.861-6.643-7.079-10.35
		c-2.245-6.84-1.231-13.418-1.231-13.418s0.752-10.027,4.767-24.389c4.967-17.769,18.178-39.67,24.882-62.089
		c8.734-29.202,10.525-61.153,10.525-61.153V26.06 M76.226,20.272v5.788v0.174c-0.107,1.77-2.08,32.574-10.402,60.398
		c-3.391,11.337-8.458,22.507-13.358,33.309c-4.662,10.276-9.065,19.982-11.539,28.832c-3.875,13.861-4.763,23.677-4.859,24.854
		c-0.14,1.014-0.932,7.678,1.361,14.66c1.358,4.137,4.246,8.377,7.922,11.633c4.56,4.037,7.338,5.49,13.517,7.062
		c1.657,0.42,3.705,0.635,6.088,0.635c4.483,0,8.752-0.744,8.932-0.775c0.023-0.004,1.303-0.227,3.129-0.227
		c1.104,0,2.178,0.08,3.192,0.238c3.692,0.576,7.114,2.438,8.516,4.629c1.115,1.744,1.785,4.584,0.771,6.996
		c-1.864,4.432-6.759,9.146-8.561,10.654c-0.501,0.373-4.8,3.529-10.756,6.578c-2.349,1.205-4.954,2.361-7.712,3.588
		c-4.187,1.859-8.517,3.785-11.983,5.93c-6.277,3.883-8.633,8.229-8.881,8.711l-2.201,4.283h4.816h148.938h8.476l-6.653-5.248
		c-3.276-2.584-8.647-6.99-10.02-8.543c-3.754-4.242-6.045-8.285-6.449-9.021c-0.25-0.652-1.673-4.658,0.098-6.799
		c2.605-3.15,9.716-5.504,12.001-6.08l0.225-0.057l0.21-0.09c1.072-0.457,26.362-11.27,35.572-17.998
		c12.746-9.314,12.645-17.031,12.591-17.879l-0.239-3.791l-3.607,1.18c-0.215,0.07-21.65,7.061-35.841,10.562
		c-3.276,0.809-6.418,1.498-9.13,2.055c1.595-1.518,3.513-3.248,5.76-5.117c3.464-2.883,8.102-6.07,13.013-9.445
		c7.714-5.299,15.689-10.779,20.299-15.932c9.189-10.276,5.357-18.206,5.19-18.539l-1.343-2.666l-2.646,1.384l-44.911,23.502
		c-4.217,2.207-8.63,4.158-12.318,5.674c2.052-2.582,4.676-5.486,7.796-8.125c5.049-4.27,11.769-8.912,18.268-13.402
		c8.189-5.659,15.927-11.005,20.941-15.887c5.847-5.692,8.797-10.992,8.77-15.753c-0.021-3.914-2.104-6.008-2.341-6.235
		l-1.577-1.501l-1.896,1.071l-54.675,30.891c2.839-4.07,6.49-9.084,10.79-14.502c2.911-3.669,6.433-7.536,10.161-11.629
		c6.229-6.836,12.667-13.905,16.296-20.268c8.96-15.715,1.236-25.513,0.903-25.922l-1.962-2.413l-2.298,2.096
		c-0.167,0.152-16.859,15.369-32.987,29.612c-9.283,8.198-18.604,16.309-25.549,22.32c3.484-6.785,8.024-15.528,12.911-24.674
		c2.112-3.955,4.48-8.067,6.771-12.043c4.711-8.179,9.16-15.905,11.852-22.825c5.652-14.542-1.432-23.397-1.736-23.767l-2.266-2.754
		l-2.272,2.75c-0.096,0.116-9.694,11.766-19.119,25.104c-1.386,1.963-2.802,3.986-4.244,6.048
		c-5.928,8.469-12.055,17.227-18.454,25.111c-7.076,8.716-13.372,15.359-17.997,19.905c1.485-4.218,3.476-9.468,5.988-15.272
		c1.78-4.112,3.793-8.428,5.925-12.997c5.107-10.946,10.388-22.264,12.957-31.957c5.628-21.224-3.295-29.059-3.678-29.381
		l-2.729-2.306l-1.737,3.123c-0.072,0.129-7.279,13.099-14.9,27.764c-6.768,13.023-14.473,28.113-20.127,39.237
		c1.766-13.836,3.62-32.988,2.733-47.447C92.925,32.65,81.391,24.043,80.899,23.685L76.226,20.272L76.226,20.272z"/>
</g>
</svg>
