<?xml version="1.0" encoding="utf-8"?>
<!DOCTYPE svg PUBLIC "-//W3C//DTD SVG 1.1//EN" "http://www.w3.org/Graphics/SVG/1.1/DTD/svg11.dtd">
<svg version="1.1" id="Ebene_1" xmlns="http://www.w3.org/2000/svg" xmlns:xlink="http://www.w3.org/1999/xlink" x="0px" y="0px"
	 width="644px" height="770px" viewBox="0 0 644 770" enable-background="new 0 0 644 770" xml:space="preserve">
<g id="CHE_Tschiertschen-Praden_COA">
	<g id="Schild">
		<g id="Felder">
			<path id="Gelb_mittig" fill="#FCDB00" d="M189,4v731.524C227.378,754.53,271.712,766,322,766c50.288,0,94.621-11.47,133-30.476V4
				H189z"/>
			<path id="Blau_rechts_1_" fill="#0093DD" d="M188,738.459c-71.482-35.233-115.532-92.45-139.941-134.382
				C18.592,553.457,1,495.484,1,449V1h187V738.459z"/>
			<path id="Blau_links" fill="#0093DD" d="M456,1h187v448c0,46.484-17.592,104.457-47.059,155.077
				C571.532,646.009,527.482,703.226,456,738.458V1z"/>
		</g>
		<path id="Kontur_Felder" d="M0,0v449c0,115,107,321,322,321s322-206,322-321V0H0z M86.579,647.574
			c-24.697-30.338-45.104-65.86-59.016-102.727C14.948,511.417,8,477.378,8,449V8h177v721.086c-0.1-0.053-0.201-0.103-0.301-0.155
			C147.781,709.576,114.769,682.204,86.579,647.574z M193,733.11V8h258v725.109C411.364,752.284,368.017,762,322,762
			C275.984,762,232.636,752.284,193,733.11z M636,449c0,28.378-6.947,62.417-19.563,95.848
			c-13.912,36.866-34.32,72.389-59.017,102.727c-28.19,34.63-61.202,62.002-98.12,81.356c-0.1,0.053-0.201,0.103-0.301,0.155V8h177
			V449z"/>
	</g>
	<g id="Stern">
		<g id="Fläche_Stern">
			<polygon fill="#0093DD" points="293.436,387.234 212.931,401.621 264.781,334 212.931,266.379 293.436,280.765 322,198.973 
				350.563,280.765 431.069,266.379 379.219,334 431.069,401.621 350.563,387.234 322,469.027 			"/>
		</g>
		<path id="Kontur_Stern" d="M322,213.264l25.4,72.731l72.697-12.991L373.328,334l46.77,60.994L347.4,382.003L322,454.735
			l-25.399-72.732l-72.698,12.991L270.672,334l-46.77-60.996l72.698,12.991L322,213.264 M322,189l-30.704,87.921L205,261.5
			l55.591,72.5L205,406.499l86.296-15.421L322,479l30.705-87.922L439,406.499L383.409,334L439,261.5l-86.295,15.421L322,189L322,189
			z"/>
	</g>
	<g id="Ähre_links">
		<path id="Ährenkorpus" fill="#FCDB00" d="M506,682.5l-24-9.5c22-64.5,23.973-65.857,33.5-98.5c12.49-42.797,18-89,18-89
			l-12.5-20l8.5-18.5l-12-25l9.243-310.188L546,81.5l24.5,25.5l9.5,190l-4.5,78.5l3,50.5l-12,22.5l9,20l-14,15c0,0-10,64-21.5,99
			C528.203,618.403,506,682.5,506,682.5z"/>
		<path id="Kontur_Ährenkorpus" d="M508.412,687.757l-31.428-12.44l1.23-3.607c9.051-26.538,14.75-42.493,18.91-54.143
			c5.964-16.694,8.957-25.075,14.535-44.188c11.053-37.873,16.664-78.968,17.693-86.966l-12.889-20.623l8.616-18.753l-11.608-24.184
			l9.305-312.259l22.578-35.539l29.064,30.251l9.586,191.708l-4.499,78.481l3.053,51.392l-11.606,21.762l9.286,20.635l-14.979,16.05
			c-1.479,9.265-10.726,65.746-21.459,98.415c-11.672,35.522-33.799,99.419-34.021,100.061L508.412,687.757L508.412,687.757z
			 M570.761,467.716l-8.714-19.365l12.394-23.238l-2.947-49.608l4.501-78.519l-9.414-188.292l-19.936-20.749l-15.936,25.085
			l-9.182,308.117l12.392,25.816l-8.384,18.247l12.104,19.364l-0.167,1.399c-0.056,0.466-5.692,47.025-18.132,89.647
			c-5.645,19.339-8.664,27.793-14.68,44.637c-3.961,11.089-9.318,26.087-17.643,50.427l16.568,6.558
			c5.018-14.522,22.643-65.645,32.613-95.991c11.266-34.285,21.249-97.731,21.349-98.368l0.19-1.214L570.761,467.716
			L570.761,467.716z"/>
		<path id="Fläche_Körner" fill="#FCDB00" d="M585.333,392c11,4.667,9.254,23.845,5.055,38.345
			c-4.198,14.501-19.055,30.322-27.722,23.989c-9.752-7.126-5.666-19.667,0-35.667C567.706,404.438,578.417,389.065,585.333,392z
			 M507.006,426.663c7,20.667,21.077,34.671,29.744,28.338c9.752-7.126,3.402-30.316-3.078-46.005c-6.333-15.333-19-33-26.332-28
			C500.887,385.396,500.303,406.871,507.006,426.663z M589.666,368c7-17,11.983-40.626,1-45.333
			c-9.333-4-19.893,13.013-24.666,27.333c-7,21-10.045,32.08-4.001,39.332C568.666,397.332,583.918,381.959,589.666,368z
			 M533.006,347.663c-8-14.999-20.766-32.304-28.334-27.667c-10.332,6.334-5.666,24.667,3,44
			c8.926,19.911,22.997,33.661,31.668,27.334C551.672,382.33,540.994,362.641,533.006,347.663z M591.666,299
			c6.666-22.668,7.049-39.995,1-45.333C586.999,248.666,574.332,266.999,569,281c-7.879,20.687-7.732,37.09,0.332,41.999
			C576.999,327.666,587.407,313.483,591.666,299z M547.006,329.33c13.003-8.002,1.654-27.356-6.333-42.333
			c-7.999-15-20.479-31.8-28.333-27.667c-12.668,6.667-7.667,27.667,1,47C522.266,326.24,534.006,337.33,547.006,329.33z
			 M587.333,238c6.666-22.668,5.376-39.987-0.667-45.333c-8.666-7.667-15,13.999-20.333,28
			c-7.879,20.687-10.731,35.758-2.667,40.667C571.333,266,583.074,252.483,587.333,238z M510.672,236.663
			c6.418,20.855,18.667,31.333,31.667,23.333c13.003-8.002,2.45-25.142-6.333-39.667c-8.667-14.333-20-29.333-25.334-25.667
			C504.189,199.12,504.006,214.997,510.672,236.663z M562,158.333c-7.879,20.687-8,30-0.667,38.667
			c5.798,6.852,18.971-5.904,23.667-21.333c7-23,7.421-39.878-4-46.333C573.333,125,567.332,144.333,562,158.333z M504.34,131.33
			c-7.245,3.065-6.668,18,3.332,42.333c7.578,18.44,19.055,34.239,30.668,24.333c11.332-9.667,1.631-27.647-6-41
			C524.34,142.997,513.006,127.663,504.34,131.33z M579.999,114.663c6.666-22.668,4.472-38.583-6.327-43
			c-5.282-2.161-8.834,4.5-11.657,13.876c1.927-23.462-5.091-35.014-16.675-36.209c-7.883-0.813-17.021,16.761-15,31.667
			c0.568,4.19,1.369,8.288,2.338,12.181c-5.596-10.209-10.748-16.112-16.338-14.514c-8.754,2.501-8,17.333-3.668,38.667
			c3.969,19.538,13.439,33.041,24,26c7.807-5.204,8.422-15.406,6.063-25.715c2.521,3.569,5.059,5.578,7.271,5.382
			c2.256-0.2,4.542-4.172,6.522-9.903c-1.135,14.026,1.196,24.247,6.144,25.236C567.841,139.363,575.74,129.146,579.999,114.663z"/>
		<path id="Kontur_Körner_und_Grannen" d="M481.325,360.271c3.551,11.26,10.234,21.178,17.519,30.361
			c-1.604,10.535,0.221,25.053,4.373,37.313c6.5,19.188,18.367,32.59,28.861,32.59c0,0,0,0,0.001,0c2.571,0,4.938-0.776,7.03-2.306
			c13.33-9.74,3.224-38.744-1.74-50.762c-1.266-3.063-3.089-6.899-5.309-10.825c0.839,0.153,1.68,0.241,2.523,0.241c0,0,0,0,0.001,0
			c2.606,0,4.999-0.782,7.112-2.323c15.015-10.958,3.494-32.556-4.919-48.325l-0.243-0.455c-1.69-3.17-4.303-7.789-7.476-12.48
			c3.07,1.745,6.231,2.646,9.458,2.646c0,0-0.001,0,0,0c3.561,0,7.122-1.08,10.584-3.211c15.533-9.559,4.461-30.183-3.624-45.242
			l-1.275-2.38c-2.42-4.538-6.745-12.059-11.925-18.488c0.447,0.033,0.898,0.056,1.352,0.056l0,0c3.635,0,7.27-1.104,10.807-3.28
			c16.248-10,4.121-30.05-4.732-44.69l-0.274-0.453c-3.245-5.366-6.14-9.704-8.72-13.22c0.088,0.001,0.174,0.011,0.262,0.011
			c0.001,0,0.001,0,0.002,0c3.491,0,6.843-1.35,9.963-4.011c14.239-12.146,2.119-33.356-5.123-46.028
			c-1.186-2.076-2.357-4.019-3.518-5.867c2.242-0.232,4.456-1.06,6.596-2.487c7.072-4.715,9.232-12.177,9.07-19.871
			c0.579,0.14,1.16,0.223,1.746,0.223c0.218,0,0.436-0.01,0.65-0.029c0.771-0.068,1.509-0.28,2.22-0.621
			c0.523,4.887,1.662,8.877,3.41,11.576c1.929,2.978,4.273,3.991,5.901,4.316c0.496,0.099,1.008,0.149,1.523,0.149
			c0.121,0,0.242-0.013,0.363-0.018c-1.258,3.087-2.48,6.383-3.719,9.726c-0.607,1.64-1.205,3.253-1.795,4.801
			c-7.266,19.076-9.414,31.527,0.018,42.674c1.835,2.168,4.275,3.314,7.057,3.314c1.236,0,2.479-0.227,3.715-0.643
			c-1.544,3.619-3.006,7.614-4.49,11.679c-0.672,1.838-1.326,3.629-1.966,5.309c-7.052,18.514-12.686,38.399-1.008,45.507
			c1.659,1.009,3.487,1.521,5.437,1.521c1.871,0,3.741-0.475,5.572-1.328c-3.27,5.334-5.898,10.862-7.334,14.632
			c-8.701,22.848-7.939,40.795,1.991,46.84c1.622,0.987,3.389,1.488,5.249,1.488c0.094,0,0.188-0.01,0.283-0.013
			c-4.855,6.441-8.555,14.765-10.58,20.844c-7.16,21.483-10.844,34.079-3.279,43.157c1.984,2.38,4.643,3.639,7.689,3.639
			c1.719,0,3.473-0.414,5.226-1.144c-5.641,6.263-10.372,15.679-12.944,22.944c-5.423,15.31-11.029,31.142,1.41,40.231
			c2.003,1.464,4.29,2.206,6.797,2.206c11.155,0,23.249-14.921,27.127-28.313c1.875-6.475,6.263-24.608,0.549-35.696
			c13.414-19.885,19.988-43.289,23.893-65.82c-7.143,21.646-16.311,42.262-30.969,58.769c-0.268-0.132-0.525-0.272-0.808-0.392
			c-1.065-0.452-2.202-0.681-3.378-0.681c-0.894,0-1.785,0.141-2.671,0.391c5.417-5.318,10.062-12.538,12.519-18.504
			c6.317-15.342,10.479-33.975,5.422-44.194c12.407-17.992,18.25-39.339,21.568-59.746c-6.74,19.76-15.387,38.406-29.316,52.975
			c-1.051-0.317-2.131-0.483-3.229-0.483c-0.295,0-0.586,0.021-0.877,0.043c3.664-5.077,6.678-11.551,8.57-17.989
			c2.903-9.873,8.229-31.432,3.633-43.623c11.712-17.672,17.325-38.402,20.553-58.245c-6.412,18.796-14.543,36.588-27.311,50.818
			c-0.617-0.167-1.262-0.254-1.924-0.254c-1.205,0-2.43,0.309-3.658,0.856c1.822-3.368,3.322-6.976,4.373-10.553
			c4.817-16.379,5.84-30.917,3.195-40.472c11.998-17.808,17.711-38.794,20.977-58.872c-6.242,18.294-14.116,35.633-26.303,49.668
			c-1.488-1.245-3.058-2.013-4.688-2.272c1.876-3.32,3.416-6.873,4.475-10.349c3.975-13.058,7.867-29.928,2.742-41.472
			c12.124-17.865,17.877-38.961,21.158-59.141c-6.451,18.914-14.641,36.814-27.546,51.089c-0.693-0.516-1.421-1.009-2.212-1.457
			c-0.811-0.458-1.646-0.762-2.496-0.943c1.328-2.962,2.467-6.066,3.363-9.117c6.125-20.824,5-36.356-2.897-44.067
			c5.593-15.506,6.14-32.192,5.063-47.728c-1.822,15.504-5.126,30.452-12.537,43.437c-0.581-0.119-1.162-0.179-1.739-0.179
			c-2.271,0-4.219,0.842-5.918,2.336c-1.936-14.765-8.852-20.624-14.641-22.914c-1.209-15.073-3.152-29.837-4.111-44.799
			c-1.755,14.5-2.573,29.193-4.049,43.6c-2.766,0.532-5.502,2.277-7.991,5.126c-4.91,5.621-9.19,16.252-8.939,26.948
			c-2.325-1.91-4.745-2.983-7.356-3.121c-4.522-15.458-9.893-30.344-14.227-45.678c1.493,16.377,4.195,32.742,5.746,48.907
			c-7.393,7.188-4.75,24.395-1.486,40.466c0.688,3.383,1.51,6.522,2.445,9.412c-1.407-0.487-2.786-0.759-4.127-0.759
			c-0.773,0-1.533,0.083-2.276,0.239c-10.987-13.926-17.677-30.825-22.761-48.598c1.883,18.304,5.833,37.549,15.187,54.54
			c-3.156,6.341-2.926,18.672,6.753,42.224c2.037,4.956,4.556,10.254,7.52,14.995c-1.111,0.154-2.164,0.554-3.086,1.188
			c-1.584,1.089-2.885,2.586-3.904,4.459c-12.939-12.555-22.209-28.563-30.051-45.612c5.358,19.857,13.299,40.384,27.342,56.97
			c-0.383,8.015,1.293,18.425,5.057,30.655c2.068,6.723,4.693,12.389,7.746,16.875c-1.454,0.051-2.84,0.402-4.119,1.076
			c-0.512,0.269-1.016,0.568-1.514,0.894c-13.815-13.705-22.96-31.371-30.386-50.153c4.237,19.98,10.981,40.759,23.921,58.015
			c-3.291,7.88-2.797,21.14,7.191,43.42c1.609,3.591,3.289,6.837,5.027,9.757c-2.004-1.282-4.027-2.136-6.031-2.398l0.325-0.283
			c-15.323-14.025-25.155-32.731-33.049-52.696c4.161,19.62,10.734,40.012,23.222,57.081c-10.578,11.787,0.855,37.32,4.839,46.207
			c1.553,3.463,3.421,7.066,5.529,10.542c-1.608,0.102-3.113,0.595-4.466,1.517c-1.012,0.69-1.896,1.617-2.671,2.725
			c-14.942-14.957-23.186-35.441-30.222-56.355C474.442,336.246,477.264,348.351,481.325,360.271z M583.518,395.637
			c0.128,0,0.199,0.022,0.253,0.046c7.685,3.26,6.931,19.199,2.774,33.55c-3.453,11.926-13.748,22.537-19.441,22.537
			c-0.796,0-1.456-0.211-2.077-0.665c-6.877-5.025-4.734-13.75,1.411-31.103C571.443,405.868,580.115,395.637,583.518,395.637z
			 M587.811,326.074c0.438,0,0.856,0.088,1.28,0.27c6.388,2.738,5.017,20.366-3.123,40.133
			c-4.587,11.142-14.644,21.055-19.353,21.055c-0.547,0-1.018-0.13-1.543-0.76c-4.58-5.495-1.941-15.516,4.723-35.506
			C574.346,337.609,582.596,326.074,587.811,326.074z M572.738,282.424c4.969-13.046,14.182-24.821,17.486-25.564
			c3.623,3.681,4.398,17.908-2.396,41.012c-3.649,12.408-11.235,22.033-15.327,22.033c-0.383,0-0.729-0.102-1.09-0.322
			C566.396,316.529,564.673,303.6,572.738,282.424z M570.071,222.091c0.651-1.712,1.319-3.539,2.003-5.412
			c2.055-5.625,4.18-11.44,6.494-15.857c2.883-5.505,4.487-5.752,4.502-5.752c0.059,0,0.389,0.101,0.945,0.594
			c3.559,3.148,6.564,17.119-0.52,41.208c-3.486,11.854-11.862,21.4-16.473,21.4c-0.473,0-0.879-0.113-1.277-0.355
			C560.726,254.861,562.181,242.807,570.071,222.091z M565.738,159.757c0.598-1.57,1.204-3.207,1.82-4.869
			c2.091-5.645,4.253-11.481,6.541-15.942c3.006-5.859,4.7-6.23,4.717-6.233c0,0.003,0.082,0.027,0.215,0.103
			c8.515,4.812,9.215,18.448,2.142,41.687c-3.601,11.832-11.959,20.396-15.837,20.396c-0.352,0-0.606-0.077-0.949-0.482
			C558.85,187.873,557.641,181.018,565.738,159.757z M560.454,113.975c0.333-4.523,1.083-9.776,2.444-15.757
			c0.886-3.886,1.902-8.096,3.061-11.883c0.605-1.981,1.248-3.853,1.934-5.488c1.916-4.565,3.446-5.593,3.832-5.593
			c0.061,0,0.197,0.015,0.434,0.111c8.512,3.482,10.008,17.751,4.004,38.169c-4.231,14.387-10.87,20.81-12.726,20.866
			C562.003,133.935,559.492,127.005,560.454,113.975z M540.609,99.925c-1.434-2.971-2.824-5.729-4.193-8.249
			c-0.846-3.481-1.572-7.229-2.113-11.218c-1.287-9.491,2.511-19.754,6.736-24.593c1.652-1.89,3.029-2.564,3.769-2.564
			c0.04,0,0.081,0.002,0.121,0.006c13.377,1.38,14.019,20.045,13.134,31.464c-1.076,3.628-2.035,7.592-2.963,11.669
			c-1.254,5.504-2.088,10.842-2.516,15.812c-1.163,3.322-2.305,5.676-3.215,6.636c-0.766-0.345-1.778-1.331-2.924-2.891
			C544.771,109.118,542.125,103.07,540.609,99.925z M531.004,141.22c-4.67,0.001-11.119-8.479-14.412-24.687
			c-4.303-21.187-4.018-32.634,0.846-34.024c0.249-0.071,0.483-0.105,0.717-0.105c3.233,0,7.461,6.296,10.771,12.246
			c1.934,3.477,3.554,6.835,4.478,8.751c2.365,4.902,4.411,10.425,5.551,15.736c1.886,8.795,1.281,17.011-4.5,20.865
			C533.241,140.81,532.08,141.22,531.004,141.22z M511.372,172.143c-10.132-24.654-8.825-35.711-5.474-37.129
			c0.372-0.158,0.756-0.234,1.172-0.234c3.852,0,11.6,6.357,21.796,24.202c7.776,13.609,15.363,28.734,6.878,35.972
			c-1.654,1.411-3.216,2.097-4.772,2.098C525.196,197.051,517.687,187.507,511.372,172.143z M514.496,235.487
			c-7.031-22.848-4.973-34.708-1.78-37.359c2.362,0.467,9.581,7.26,19.867,24.271l0.274,0.453
			c9.879,16.335,16.191,28.317,7.385,33.737c-2.256,1.389-4.481,2.093-6.613,2.093C526.229,258.683,518.898,249.795,514.496,235.487
			z M516.989,304.693c-4.721-10.532-14.442-35.689-2.787-41.824c0.231-0.121,0.461-0.175,0.745-0.175
			c3.99,0,13.125,9.177,22.196,26.185l1.286,2.4c8.832,16.453,14.918,29.452,6.48,34.644c-2.184,1.344-4.334,2.024-6.393,2.024
			C531.357,327.947,523.712,319.689,516.989,304.693z M511.322,362.359c-9.604-21.425-11.182-34.895-4.56-38.952
			c0.202-0.124,0.397-0.177,0.651-0.177c3.946,0,13.277,9.843,22.063,26.314l0.244,0.457c9.115,17.09,15.955,31.752,7.261,38.097
			c-0.735,0.536-1.497,0.786-2.397,0.786C529.072,388.886,519.046,379.59,511.322,362.359z M508.287,386.017l0.157-0.153
			c-0.019-0.016-0.036-0.032-0.055-0.047c0.374-0.71,0.779-1.227,1.203-1.516c0.181-0.123,0.329-0.168,0.546-0.168
			c4.132,0,13.697,11.527,19.837,26.391c8.44,20.434,10.214,37.01,4.414,41.248c-0.714,0.521-1.448,0.765-2.312,0.765
			c-5.813,0.001-15.602-10.382-21.283-27.156C504.674,407.312,505.608,391.443,508.287,386.017z"/>
	</g>
	<g id="Keule_rechts">
		<path id="Fläche_Keule" fill="#FCDB00" d="M155.868,666.425c-5.525,0-9.171-6.214-11.257-11.427
			c-18.824-47.047-61.353-139.209-70.991-156.321c-4.391-7.797-0.097-13.073,1.323-14.505c0.333-0.335,0.712-0.667,1.161-1.016
			l3.011-2.343l-2.197-3.118c-1.547-2.195-3.103-5.062-4.623-8.52c-3.205-7.29-6.441-23.678-10.188-42.654
			c-5.03-25.472-10.727-54.323-17.633-65.984c2.542-3.733,5.076-7.344,7.53-10.733l1.011-1.396l-0.321-1.694
			c-0.471-2.484-1.245-6.408-2.259-10.995c-0.457-2.068-2.462-7.291-5.696-15.64c-7.241-18.697-18.184-46.952-15.833-54.602
			c0.933-3.034,2.484-4.94,4.61-5.665c0.209-0.072,0.449-0.133,0.754-0.195l3.269-0.658l-0.058-3.333
			c-0.127-7.292-0.7-25.903-3.275-41.19c-3.263-19.377-11.836-48.872-11.922-49.167l11.601-10.737l-1.813-2.821
			c-1.366-2.124-2.908-5.802-2.501-11.261c0.342-4.604,1.375-6.378,2.286-7.942c0.981-1.687,1.572-2.922,1.523-5.873
			c-0.048-2.935-0.586-5.934-1.209-9.406c-1.523-8.499-3.25-18.129,1.209-31.567c4.649-14.01,17.436-16.672,21.244-17.154
			l2.931-0.371l0.507-2.91c2.638-15.126,6.721-26.743,10.923-31.074c3.977-4.099,11.372-6.748,18.841-6.748
			c0.636,0,1.273,0.019,1.911,0.057c8.965,0.532,16.886,4.737,22.305,11.842c25.13,32.951,15.369,67.044,11.779,76.708l-0.932,2.508
			l1.962,1.819c2.294,2.126,3.222,5.427,2.757,9.809c-0.667,6.291-6.008,12.955-9.132,16.367l-2.802,3.061l3.162,2.688
			c4.34,3.69,9.557,10.891,9.767,24.245c0.094,5.952-5.073,24.817-12.285,44.857c-3.51,9.752-6.746,17.752-9.618,23.776
			l-0.373,0.783l-0.016,0.868c-0.01,0.571-0.019,1.109-0.008,1.673c0.078,4.282,0.953,6.154,3.749,8.012
			c2.129,1.415,4.541,3.017,4.421,11.966c-0.115,8.64-2.194,21.381-4.395,34.869c-2.971,18.206-6.337,38.829-4.991,51.607
			c2.175,20.644,7.27,30.586,7.888,31.73l0.521,1.376l1.174,0.73c1.554,0.95,4.182,4.268,4.328,15.8
			c0.106,8.422-0.206,13.8-0.508,19.001c-0.646,11.123-1.256,21.63,2.164,59.668c3.8,42.268,24.82,92.295,37.379,122.186
			c3.93,9.354,7.034,16.741,8.659,21.573c6.464,19.226-0.764,36.218-8.381,39.021C157.881,666.16,156.991,666.425,155.868,666.425
			L155.868,666.425z"/>
		<path id="Kontur_Keule" d="M170.481,625.708c-1.671-4.972-4.801-12.421-8.764-21.851c-12.469-29.678-33.337-79.348-37.082-120.993
			c-3.393-37.741-2.792-48.104-2.154-59.077c0.306-5.271,0.623-10.723,0.514-19.283c-0.131-10.385-2.18-16.678-6.24-19.162
			c-0.071-0.188-0.141-0.374-0.241-0.554c-0.053-0.094-5.272-9.603-7.451-30.29c-1.29-12.242,2.03-32.585,4.959-50.533
			c2.226-13.644,4.329-26.53,4.448-35.471c0.137-10.275-2.857-13.124-6.206-15.35c-1.344-0.893-1.901-1.263-1.964-4.756
			c-0.01-0.525,0-1.026,0.008-1.528c2.684-5.63,5.903-13.396,9.771-24.143c6.114-16.987,12.64-38.714,12.521-46.274
			c-0.239-15.2-6.585-23.327-11.175-27.229c3.833-4.187,9.39-11.391,10.16-18.646c0.745-7.02-1.683-11.002-4.015-13.165
			c3.976-10.703,13.913-46.094-12.348-80.527c-6.136-8.045-15.103-12.807-25.247-13.409c-9.299-0.551-18.671,2.548-23.861,7.899
			c-6.822,7.032-10.647,25.455-11.993,33.172c-7.939,1.005-19.91,5.916-24.538,19.863c-4.779,14.403-2.877,25.01-1.35,33.533
			c0.592,3.303,1.104,6.155,1.146,8.767c0.034,2.05-0.263,2.56-0.98,3.793c-1.016,1.745-2.407,4.135-2.817,9.658
			c-0.491,6.588,1.449,11.115,3.125,13.722l-9.14,8.458c-1.113,1.029-1.548,2.601-1.123,4.057
			c0.085,0.293,8.583,29.498,11.818,48.712c2.526,14.995,3.093,33.3,3.221,40.595c-0.418,0.084-0.837,0.188-1.256,0.33
			c-2.343,0.799-5.484,2.883-7.143,8.276c-2.552,8.3,5.703,30.824,15.925,57.22c2.626,6.781,5.106,13.186,5.521,15.061
			c1.03,4.658,1.805,8.605,2.234,10.876c-2.131,2.942-4.686,6.554-7.596,10.827c-0.874,1.282-0.926,2.955-0.136,4.289
			c6.557,11.072,12.183,39.567,17.147,64.708c3.794,19.215,7.071,35.809,10.454,43.504c1.895,4.308,3.624,7.238,5.014,9.212
			c-0.535,0.416-1.054,0.862-1.543,1.355c-3.958,3.987-6.553,11.147-1.97,19.285c9.597,17.042,51.985,108.916,70.762,155.846
			c4.654,11.631,10.815,13.94,14.97,13.94c1.678,0,3.029-0.377,3.822-0.668C170.226,665.88,177.235,645.794,170.481,625.708z
			 M156.927,662.248c-4.132,1.519-7.628-6.303-8.602-8.736c-17.687-44.205-60.611-137.963-71.219-156.799
			c-2.932-5.206-0.503-8.534,0.677-9.724c2.088-2.104,5.096-2.808,7.149-1.671c1.932,1.069,4.366,0.37,5.437-1.563
			c1.069-1.933,0.37-4.367-1.563-5.437c-2.283-1.264-4.887-1.731-7.482-1.465c-0.828-0.928-2.835-3.532-5.366-9.288
			c-3.028-6.888-6.38-23.862-9.929-41.833c-4.796-24.287-10.195-51.629-16.874-64.952c2.269-3.296,4.297-6.152,6.039-8.559
			c0.879-0.546,1.51-1.415,1.763-2.415c3.053-4.146,4.85-6.397,4.881-6.437c1.381-1.724,1.104-4.241-0.62-5.622
			s-4.241-1.105-5.623,0.619c-0.032,0.039-0.169,0.211-0.391,0.493c-0.263-1.251-0.551-2.594-0.863-4.005
			c-0.521-2.359-2.372-7.186-5.872-16.223c-5.739-14.82-17.683-45.658-15.739-51.979c0.367-1.192,1.022-2.688,2.067-3.052
			c1.499-0.521,4.104,0.746,5.064,1.407c1.804,1.262,4.288,0.831,5.56-0.968c1.275-1.805,0.847-4.301-0.957-5.576
			c-0.26-0.184-1.366-0.93-2.96-1.631c-0.077-6.446-0.544-26.385-3.354-43.063c-2.803-16.645-9.219-39.778-11.342-47.241
			l16.408-15.184c1.622-1.5,1.719-4.031,0.219-5.653c-1.5-1.621-4.031-1.719-5.653-0.219l-3.03,2.804
			c-0.753-1.627-1.449-4.108-1.194-7.532c0.274-3.686,0.993-4.92,1.754-6.228c0.952-1.635,2.136-3.67,2.065-7.949
			c-0.054-3.256-0.645-6.555-1.271-10.046c-1.439-8.029-3.071-17.128,1.068-29.602c4.847-14.606,19.683-14.58,20.296-14.587
			c2.042,0.051,3.751-1.424,4.043-3.42c1.419-9.705,5.481-26.968,10.34-31.977c2.981-3.074,9.59-5.962,17.645-5.483
			c5.506,0.327,13.334,2.375,19.36,10.275c27.752,36.388,10.884,73.913,10.155,75.486c-0.512,1.094-0.652,2.32-0.123,3.406
			c0.519,1.065,1.338,1.804,2.479,2.088c0.511,0.242,2.827,1.647,2.257,7.017c-0.679,6.402-8.26,14.53-11.121,17.119
			c-1,0.902-1.457,2.256-1.253,3.587s1.087,2.48,2.312,3.041c0.438,0.201,10.751,5.125,11.034,23.097
			c0.07,4.438-4.154,21.161-11.345,41.466c-0.808,2.281-1.593,4.436-2.356,6.48c-1.006,0.121-1.967,0.619-2.648,1.473
			c-0.231,0.29-5.186,6.677-5.867,18.838c-2.163,4.426-3.857,7.213-4.985,8.568c-0.042-0.176-0.083-0.35-0.121-0.51
			c-0.235-0.996-0.527-2.236-0.971-3.617c-0.677-2.104-2.934-3.261-5.033-2.583c-2.103,0.677-3.26,2.93-2.583,5.032
			c0.347,1.078,0.578,2.057,0.801,3.004c0.626,2.656,1.74,7.379,7.104,7.379c0.578,0,1.204-0.056,1.885-0.174
			c1.142-0.197,3.021-0.533,6.153-4.949c0.923,1.211,2.037,2.057,3.202,2.832c1.522,1.011,2.725,1.811,2.635,8.58
			c-0.111,8.344-2.168,20.946-4.345,34.287c-3.157,19.347-6.421,39.352-5.019,52.66c1.651,15.672,4.961,25.468,6.917,30.145
			c-3.616,1.968-6.484,5.632-7.744,7.241c-1.362,1.739-1.056,4.253,0.683,5.615c1.741,1.363,4.253,1.057,5.616-0.684
			c3.674-4.691,5.621-5.363,6.038-5.456c0.664,0.59,2.271,3.807,2.38,12.408c0.104,8.277-0.204,13.585-0.502,18.718
			c-0.654,11.276-1.273,21.927,2.173,60.258c3.855,42.883,25.026,93.27,37.674,123.375c3.899,9.279,6.979,16.608,8.556,21.301
			C168.707,645.533,162.244,660.292,156.927,662.248z"/>
	</g>
</g>
</svg>
