<svg height="480" viewBox="21 15 438 480" width="438" xmlns="http://www.w3.org/2000/svg" xmlns:xlink="http://www.w3.org/1999/xlink"><clipPath id="a"><path d="m360 4140a3240 3240 0 0 0 6480 0v-3870h-6480z"/></clipPath><g fill="none" fill-rule="evenodd" stroke-miterlimit="10" stroke-width="10" transform="scale(.066667)"><g clip-path="url(#a)"><path d="m-225-225v7650h7650v-7650z" fill="#fcdb00"/><path d="m-225 2250v2880h7650v-2880z" fill="#0093dd"/><g stroke="#202020"><path d="m-225 2250h7650" stroke-width="45"/><path d="m-225 5130h7650" stroke-width="45"/><path d="m3600 2430-314 714-778-84 462 630-462 630 778-84 314 714 316-714 776 84-462-630 462-630-776 84z" fill="#fcdb00" stroke-width="30"/></g></g><path d="m360 4140a3240 3240 0 0 0 6480 0v-3870h-6480z" stroke="#202020" stroke-width="90"/></g></svg>