<?xml version="1.0" encoding="UTF-8" standalone="no"?>
<!-- Created with Inkscape (http://www.inkscape.org/) -->
<svg
   xmlns:svg="http://www.w3.org/2000/svg"
   xmlns="http://www.w3.org/2000/svg"
   version="1.0"
   width="513.65997"
   height="575.22998"
   id="svg2">
  <defs
     id="defs4">
    <clipPath
       id="clipPath3342">
      <path
         d="M 418.2,612.72 L 421.44,612.72 L 421.44,600.36 L 418.2,600.36 L 418.2,612.72 z"
         id="path3344" />
    </clipPath>
    <clipPath
       id="clipPath3322">
      <path
         d="M 354.48,610.32 L 418.19,610.32 L 418.19,538.68 L 354.48,538.68 L 354.48,610.32 z"
         id="path3324" />
    </clipPath>
    <clipPath
       id="clipPath3310">
      <path
         d="M 354.48,610.32 L 418.19,610.32 L 418.19,538.68 L 354.48,538.68 L 354.48,610.32 z"
         id="path3312" />
    </clipPath>
    <clipPath
       id="clipPath3234">
      <path
         d="M 418.2,512.64 L 421.44,512.64 L 421.44,500.28 L 418.2,500.28 L 418.2,512.64 z"
         id="path3236" />
    </clipPath>
    <clipPath
       id="clipPath3204">
      <path
         d="M 354.48,510.24 L 418.19,510.24 L 418.19,438.61 L 354.48,438.61 L 354.48,510.24 z"
         id="path3206" />
    </clipPath>
    <clipPath
       id="clipPath3192">
      <path
         d="M 354.48,510.24 L 418.19,510.24 L 418.19,438.61 L 354.48,438.61 L 354.48,510.24 z"
         id="path3194" />
    </clipPath>
    <clipPath
       id="clipPath3116">
      <path
         d="M 418.2,412.68 L 421.44,412.68 L 421.44,400.32 L 418.2,400.32 L 418.2,412.68 z"
         id="path3118" />
    </clipPath>
    <clipPath
       id="clipPath3054">
      <path
         d="M 354.48,410.28 L 418.19,410.28 L 418.19,338.65 L 354.48,338.65 L 354.48,410.28 z"
         id="path3056" />
    </clipPath>
    <clipPath
       id="clipPath3042">
      <path
         d="M 354.48,410.28 L 418.19,410.28 L 418.19,338.65 L 354.48,338.65 L 354.48,410.28 z"
         id="path3044" />
    </clipPath>
    <clipPath
       id="clipPath2970">
      <path
         d="M 418.2,312.72 L 421.44,312.72 L 421.44,300.36 L 418.2,300.36 L 418.2,312.72 z"
         id="path2972" />
    </clipPath>
    <clipPath
       id="clipPath2940">
      <path
         d="M 354.48,310.32 L 418.19,310.32 L 418.19,238.69 L 354.48,238.69 L 354.48,310.32 z"
         id="path2942" />
    </clipPath>
    <clipPath
       id="clipPath2928">
      <path
         d="M 354.48,310.32 L 418.19,310.32 L 418.19,238.69 L 354.48,238.69 L 354.48,310.32 z"
         id="path2930" />
    </clipPath>
    <clipPath
       id="clipPath2836">
      <path
         d="M 418.2,212.64 L 421.44,212.64 L 421.44,200.29 L 418.2,200.29 L 418.2,212.64 z"
         id="path2838" />
    </clipPath>
    <clipPath
       id="clipPath2802">
      <path
         d="M 354.48,210.24 L 418.19,210.24 L 418.19,138.6 L 354.48,138.6 L 354.48,210.24 z"
         id="path2804" />
    </clipPath>
    <clipPath
       id="clipPath2790">
      <path
         d="M 354.48,210.24 L 418.19,210.24 L 418.19,138.6 L 354.48,138.6 L 354.48,210.24 z"
         id="path2792" />
    </clipPath>
    <clipPath
       id="clipPath2710">
      <path
         d="M 422.04,110.76 L 422.04,135.12 L 549.12,135.12 L 549.12,110.76 L 545.88,110.76 L 545.88,125.88 L 425.28,125.88 L 425.28,110.76 L 422.04,110.76 z"
         id="path2712" />
    </clipPath>
    <clipPath
       id="clipPath2688">
      <path
         d="M 351.12,110.76 L 351.12,135.12 L 354.48,135.12 L 354.48,110.76 L 351.12,110.76 z M 418.32,110.76 L 418.32,135.12 L 421.56,135.12 L 421.56,110.76 L 418.32,110.76 z"
         id="path2690" />
    </clipPath>
    <clipPath
       id="clipPath2666">
      <path
         d="M 288.84,110.76 L 288.84,135.12 L 350.64,135.12 L 350.64,110.76 L 347.4,110.76 L 347.4,132.84 L 292.08,132.84 L 292.08,110.76 L 288.84,110.76 z"
         id="path2668" />
    </clipPath>
    <clipPath
       id="clipPath2650">
      <path
         d="M 147.12,110.76 L 147.12,135.12 L 288.36,135.12 L 288.36,110.76 L 285.12,110.76 L 285.12,125.88 L 150.36,125.88 L 150.36,110.76 L 147.12,110.76 z"
         id="path2652" />
    </clipPath>
    <clipPath
       id="clipPath2634">
      <path
         d="M 67.68,110.76 L 67.68,135.12 L 146.64,135.12 L 146.64,110.76 L 143.28,110.76 L 143.28,125.88 L 70.92,125.88 L 70.92,110.76 L 67.68,110.76 z"
         id="path2636" />
    </clipPath>
    <clipPath
       id="clipPath2502">
      <path
         d="M 70.92,803.76 L 574.44,803.76 L 574.44,774.97 L 70.92,774.97 L 70.92,803.76 z"
         id="path2504" />
    </clipPath>
    <clipPath
       id="clipPath2480">
      <path
         d="M 70.92,803.76 L 574.44,803.76 L 574.44,801.97 L 70.92,801.97 L 70.92,803.76 z"
         id="path2482" />
    </clipPath>
    <clipPath
       id="clipPath2470">
      <path
         d="M 70.92,776.76 L 574.44,776.76 L 574.44,774.97 L 70.92,774.97 L 70.92,776.76 z"
         id="path2472" />
    </clipPath>
  </defs>
  <g
     transform="translate(-80.97676,-80.637164)"
     id="layer1">
    <g
       transform="matrix(6.2193476,0,0,6.2193476,-2349.1458,-1778.6893)"
       id="g5552">
      <g
         transform="matrix(1.25,0,0,1.25,-50.89375,2.07865)"
         id="g2932">
        <path
           d="M 354.59,238.79 L 418.09,238.79 L 418.09,278.47 L 418.09,278.47 L 418.09,280.1 L 417.92,281.71 L 417.75,283.28 L 417.47,284.85 L 417.08,286.42 L 416.68,287.93 L 416.18,289.39 L 415.62,290.84 L 414.95,292.24 L 414.28,293.58 L 413.5,294.92 L 412.71,296.21 L 411.82,297.44 L 410.86,298.67 L 409.85,299.8 L 408.8,300.92 L 407.73,301.98 L 406.55,302.93 L 405.38,303.88 L 404.09,304.78 L 402.8,305.62 L 401.51,306.35 L 400.11,307.07 L 398.71,307.69 L 397.26,308.24 L 395.8,308.75 L 394.29,309.2 L 392.77,309.53 L 391.21,309.81 L 389.59,310.04 L 388.02,310.15 L 386.34,310.21 L 386.34,310.21 L 384.71,310.15 L 383.09,310.04 L 381.52,309.81 L 379.96,309.53 L 378.44,309.2 L 376.93,308.75 L 375.42,308.24 L 374.02,307.69 L 372.62,307.07 L 371.22,306.35 L 369.88,305.62 L 368.59,304.78 L 367.36,303.88 L 366.18,302.93 L 365,301.98 L 363.95,300.92 L 362.88,299.8 L 361.87,298.67 L 360.92,297.44 L 360.02,296.21 L 359.23,294.92 L 358.45,293.58 L 357.73,292.24 L 357.11,290.84 L 356.55,289.39 L 356.05,287.93 L 355.6,286.42 L 355.26,284.85 L 354.98,283.28 L 354.76,281.71 L 354.64,280.1 L 354.59,278.47 L 354.59,238.79 z"
           id="path2934"
           style="fill:#000000;fill-opacity:1;fill-rule:evenodd;stroke:none" />
      </g>
      <path
         d="M 432.31875,366.46615 L 432.38125,366.46615 L 432.38125,366.46615 L 432.38125,366.32865 L 432.24375,366.19115 L 432.24375,366.19115 L 432.09375,364.92865 L 431.81875,363.39115 L 431.81875,363.39115 L 431.81875,362.76615 L 431.95625,362.05365 L 432.09375,361.35365 L 432.31875,360.72865 L 432.31875,360.72865 L 432.59375,360.17865 L 432.86875,359.67865 L 432.86875,359.67865 L 432.79375,359.54115 L 432.65625,359.40365 L 432.65625,359.40365 L 432.31875,359.26615 L 432.31875,359.26615 L 432.09375,359.26615 L 432.09375,359.26615 L 431.74375,359.32865 L 431.40625,359.40365 L 431.11875,359.61615 L 430.84375,359.81615 L 430.84375,359.81615 L 430.28125,360.30365 L 430.28125,360.30365 L 429.93125,361.35365 L 429.93125,361.35365 L 429.85625,361.77865 L 429.85625,361.77865 L 429.79375,362.12865 L 429.79375,362.47865 L 429.79375,362.47865 L 429.85625,362.96615 L 429.99375,363.52865 L 430.21875,364.01615 L 430.49375,364.44115 L 430.49375,364.44115 L 430.90625,365.14115 L 431.40625,365.69115 L 431.40625,365.69115 L 431.81875,366.11615 L 432.31875,366.46615 L 432.31875,366.46615 z"
         id="path2944"
         style="fill:#fcdb00;fill-opacity:1;fill-rule:evenodd;stroke:#fcdb00;stroke-width:0.14999999;stroke-linecap:round;stroke-linejoin:round;stroke-miterlimit:10;stroke-dasharray:none;stroke-opacity:1" />
      <path
         d="M 435.45625,366.32865 L 435.45625,366.32865 L 435.31875,364.86615 L 435.31875,364.86615 L 435.31875,363.95365 L 435.31875,363.95365 L 435.31875,363.52865 L 435.31875,363.52865 L 435.45625,362.96615 L 435.66875,362.34115 L 435.66875,362.34115 L 435.74375,361.85365 L 435.74375,361.85365 L 436.01875,361.15365 L 436.23125,360.52865 L 436.23125,360.52865 L 436.15625,360.24115 L 436.15625,360.24115 L 435.88125,359.89115 L 435.53125,359.61615 L 435.53125,359.61615 L 435.10625,359.61615 L 435.10625,359.61615 L 434.75625,359.67865 L 434.40625,359.81615 L 434.40625,359.81615 L 434.13125,360.02865 L 434.13125,360.02865 L 433.85625,360.30365 L 433.85625,360.30365 L 433.35625,361.07865 L 433.35625,361.07865 L 433.29375,361.42865 L 433.29375,361.42865 L 433.21875,361.85365 L 433.14375,362.26615 L 433.14375,362.26615 L 433.14375,362.90365 L 433.14375,363.25365 L 433.21875,363.59115 L 433.21875,363.59115 L 433.70625,364.44115 L 433.99375,364.92865 L 434.19375,365.27865 L 434.19375,365.27865 L 434.48125,365.55365 L 434.48125,365.55365 L 435.18125,366.19115 L 435.18125,366.19115 L 435.45625,366.32865 L 435.45625,366.32865 z"
         id="path2946"
         style="fill:#fcdb00;fill-opacity:1;fill-rule:evenodd;stroke:#fcdb00;stroke-width:0.14999999;stroke-linecap:round;stroke-linejoin:round;stroke-miterlimit:10;stroke-dasharray:none;stroke-opacity:1" />
      <path
         d="M 425.79375,366.32865 L 425.79375,366.32865 L 425.45625,365.21615 L 425.24375,364.01615 L 425.24375,364.01615 L 425.16875,363.66615 L 425.16875,363.66615 L 425.16875,362.76615 L 425.16875,362.76615 L 425.16875,362.12865 L 425.16875,362.12865 L 425.24375,361.71615 L 425.30625,361.21615 L 425.59375,360.24115 L 425.59375,360.24115 L 425.79375,359.89115 L 425.79375,359.89115 L 425.65625,359.75365 L 425.65625,359.75365 L 425.24375,359.75365 L 424.89375,359.89115 L 424.89375,359.89115 L 424.61875,359.95365 L 424.39375,360.10365 L 424.05625,360.52865 L 423.76875,360.94115 L 423.63125,361.35365 L 423.63125,361.35365 L 423.49375,361.91615 L 423.49375,362.40365 L 423.49375,362.40365 L 423.41875,362.76615 L 423.49375,363.11615 L 423.49375,363.11615 L 423.69375,363.87865 L 423.69375,363.87865 L 424.19375,364.79115 L 424.48125,365.27865 L 424.74375,365.62865 L 424.74375,365.62865 L 425.10625,365.90365 L 425.10625,365.90365 L 425.45625,366.19115 L 425.65625,366.26615 L 425.79375,366.32865 L 425.79375,366.32865 z"
         id="path2948"
         style="fill:#fcdb00;fill-opacity:1;fill-rule:evenodd;stroke:#fcdb00;stroke-width:0.14999999;stroke-linecap:round;stroke-linejoin:round;stroke-miterlimit:10;stroke-dasharray:none;stroke-opacity:1" />
      <path
         d="M 428.88125,366.26615 L 428.88125,366.26615 L 428.88125,365.84115 L 428.80625,365.35365 L 428.66875,364.44115 L 428.66875,364.44115 L 428.60625,363.74115 L 428.66875,363.04115 L 428.66875,363.04115 L 428.66875,362.40365 L 428.66875,361.71615 L 428.66875,361.71615 L 428.74375,361.50365 L 428.74375,361.50365 L 428.80625,361.00365 L 428.80625,361.00365 L 429.16875,360.30365 L 429.30625,359.95365 L 429.36875,359.61615 L 429.36875,359.61615 L 429.30625,359.40365 L 429.30625,359.40365 L 429.16875,359.26615 L 429.01875,359.19115 L 428.66875,359.12865 L 428.03125,359.26615 L 428.03125,359.26615 L 427.63125,359.54115 L 427.26875,359.89115 L 427.26875,359.89115 L 426.84375,360.52865 L 426.84375,360.52865 L 426.43125,361.42865 L 426.43125,361.42865 L 426.35625,361.99115 L 426.35625,361.99115 L 426.43125,363.04115 L 426.43125,363.04115 L 426.50625,363.45365 L 426.64375,363.87865 L 427.05625,364.64115 L 427.05625,364.64115 L 427.40625,365.14115 L 427.40625,365.14115 L 427.89375,365.55365 L 427.89375,365.55365 L 428.45625,365.97865 L 428.45625,365.97865 L 428.66875,366.11615 L 428.88125,366.26615 L 428.88125,366.26615 z"
         id="path2950"
         style="fill:#fcdb00;fill-opacity:1;fill-rule:evenodd;stroke:#fcdb00;stroke-width:0.14999999;stroke-linecap:round;stroke-linejoin:round;stroke-miterlimit:10;stroke-dasharray:none;stroke-opacity:1" />
      <path
         d="M 437.34375,361.42865 L 437.34375,361.42865 L 437.63125,361.29115 L 437.84375,361.07865 L 437.84375,361.07865 L 438.04375,360.52865 L 438.25625,360.02865 L 438.25625,360.02865 L 438.25625,359.47865 L 438.25625,359.47865 L 438.04375,358.49115 L 438.04375,358.49115 L 437.84375,357.86615 L 437.84375,357.86615 L 437.56875,356.81615 L 437.41875,355.76615 L 437.41875,355.76615 L 437.34375,355.49115 L 437.34375,355.12865 L 437.34375,355.12865 L 437.48125,354.57865 L 437.63125,354.29115 L 437.76875,354.15365 L 437.76875,354.15365 L 437.90625,354.15365 L 438.04375,354.15365 L 438.39375,354.29115 L 438.39375,354.29115 L 439.09375,354.44115 L 439.38125,354.44115 L 439.73125,354.36615 L 439.73125,354.36615 L 440.00625,354.21615 L 440.21875,354.07865 L 440.64375,353.59115 L 440.64375,353.59115 L 440.85625,353.17865 L 441.05625,352.82865 L 441.05625,352.82865 L 440.91875,352.54115 L 440.78125,352.26615 L 440.78125,352.26615 L 440.78125,351.97865 L 440.78125,351.97865 L 441.05625,350.86615 L 441.05625,350.86615 L 441.34375,349.60365 L 441.34375,349.60365 L 441.69375,348.55365 L 442.03125,347.44115 L 442.03125,347.44115 L 442.31875,346.04115 L 442.59375,344.56615 L 442.59375,344.56615 L 442.88125,342.96615 L 442.88125,342.96615 L 443.01875,341.56615 L 443.01875,341.56615 L 443.30625,339.11615 L 443.30625,339.11615 L 443.30625,338.41615 L 443.30625,338.41615 L 443.36875,335.19115 L 443.36875,335.19115 L 443.36875,332.81615 L 443.36875,332.81615 L 443.30625,331.27865 L 443.15625,329.74115 L 443.15625,329.74115 L 443.01875,329.04115 L 443.01875,329.04115 L 442.80625,327.85365 L 442.80625,327.85365 L 441.96875,327.85365 L 441.19375,327.91615 L 441.19375,327.91615 L 439.86875,328.05365 L 439.86875,328.05365 L 436.93125,328.34115 L 435.38125,328.47865 L 433.91875,328.54115 L 433.91875,328.54115 L 431.60625,328.54115 L 431.60625,328.54115 L 429.08125,328.54115 L 429.08125,328.54115 L 426.91875,328.41615 L 426.91875,328.41615 L 425.73125,328.26615 L 425.73125,328.26615 L 422.29375,327.91615 L 422.29375,327.91615 L 422.23125,329.10365 L 422.23125,329.10365 L 422.23125,329.52865 L 422.23125,329.52865 L 422.36875,330.57865 L 422.36875,330.57865 L 422.58125,332.87865 L 422.93125,335.12865 L 422.93125,335.12865 L 423.20625,337.15365 L 423.20625,337.15365 L 423.69375,339.11615 L 424.19375,341.00365 L 424.19375,341.00365 L 424.39375,341.49115 L 424.39375,341.49115 L 424.89375,342.82865 L 424.89375,342.82865 L 425.45625,344.15365 L 425.73125,344.84115 L 426.08125,345.47865 L 426.08125,345.61615 L 426.08125,345.61615 L 425.73125,346.11615 L 425.45625,346.66615 L 425.45625,346.66615 L 425.24375,347.29115 L 425.24375,347.29115 L 424.89375,348.20365 L 424.89375,348.20365 L 424.74375,348.55365 L 424.74375,348.55365 L 424.39375,350.02865 L 424.11875,351.49115 L 424.11875,351.49115 L 423.91875,352.89115 L 423.91875,352.89115 L 423.76875,354.21615 L 423.69375,355.55365 L 423.69375,355.55365 L 423.63125,357.86615 L 423.63125,357.86615 L 423.63125,359.40365 L 423.63125,359.40365 L 423.84375,359.19115 L 424.11875,359.05365 L 424.61875,358.70365 L 424.61875,358.70365 L 424.95625,358.62865 L 425.24375,358.56615 L 425.24375,358.56615 L 425.45625,358.49115 L 425.59375,358.42865 L 425.59375,358.42865 L 425.93125,358.49115 L 426.29375,358.56615 L 426.64375,358.62865 L 426.91875,358.62865 L 426.91875,358.62865 L 427.13125,358.56615 L 427.40625,358.49115 L 427.40625,358.49115 L 427.89375,358.27865 L 428.45625,358.14115 L 428.45625,358.14115 L 429.01875,358.14115 L 429.64375,358.21615 L 429.64375,358.21615 L 430.06875,358.42865 L 430.06875,358.42865 L 430.41875,358.62865 L 430.69375,358.84115 L 430.69375,358.84115 L 430.84375,358.84115 L 431.04375,358.70365 L 431.40625,358.49115 L 431.40625,358.49115 L 432.09375,358.27865 L 432.09375,358.27865 L 432.59375,358.35365 L 432.59375,358.35365 L 433.00625,358.35365 L 433.00625,358.35365 L 433.50625,358.62865 L 433.99375,358.97865 L 433.99375,358.97865 L 434.69375,358.70365 L 434.69375,358.70365 L 435.18125,358.62865 L 435.66875,358.56615 L 435.66875,358.56615 L 436.29375,358.76615 L 436.29375,358.76615 L 436.43125,358.90365 L 436.58125,359.05365 L 436.79375,359.32865 L 436.79375,359.32865 L 437.06875,359.81615 L 437.20625,360.17865 L 437.14375,360.52865 L 437.00625,361.07865 L 437.00625,361.07865 L 437.06875,361.29115 L 437.06875,361.29115 L 437.20625,361.35365 L 437.34375,361.42865 L 437.34375,361.42865 z"
         id="path2952"
         style="fill:#fcdb00;fill-opacity:1;fill-rule:evenodd;stroke:#fcdb00;stroke-width:0.14999999;stroke-linecap:round;stroke-linejoin:round;stroke-miterlimit:10;stroke-dasharray:none;stroke-opacity:1" />
      <path
         d="M 441.19375,358.42865 L 441.19375,358.42865 L 441.34375,358.14115 L 441.48125,357.79115 L 441.48125,357.79115 L 441.69375,357.22865 L 441.90625,356.66615 L 441.90625,356.66615 L 441.96875,356.11615 L 441.96875,355.49115 L 441.90625,354.85365 L 441.83125,354.29115 L 441.83125,354.29115 L 441.69375,354.07865 L 441.69375,354.07865 L 441.26875,354.57865 L 440.98125,354.79115 L 440.71875,354.99115 L 440.71875,354.99115 L 440.21875,355.20365 L 440.21875,355.20365 L 440.29375,355.49115 L 440.49375,355.90365 L 440.85625,356.66615 L 440.85625,356.66615 L 441.05625,357.51615 L 441.19375,358.42865 L 441.19375,358.42865 z"
         id="path2954"
         style="fill:#fcdb00;fill-opacity:1;fill-rule:evenodd;stroke:#fcdb00;stroke-width:0.14999999;stroke-linecap:round;stroke-linejoin:round;stroke-miterlimit:10;stroke-dasharray:none;stroke-opacity:1" />
      <path
         d="M 437.90625,323.30365 L 432.03125,319.24115 L 426.08125,323.30365 L 428.18125,316.44115 L 422.15625,311.89115 L 429.64375,311.89115 L 432.03125,305.11615 L 434.40625,311.89115 L 441.83125,311.89115 L 435.88125,316.44115 L 437.90625,323.30365 z"
         id="path2956"
         style="fill:#fcdb00;fill-opacity:1;fill-rule:nonzero;stroke:#fcdb00;stroke-width:0.14999999;stroke-linecap:round;stroke-linejoin:round;stroke-miterlimit:10;stroke-dasharray:none;stroke-opacity:1" />
      <path
         d="M 413.48125,339.39115 L 407.53125,335.26615 L 401.65625,339.39115 L 403.68125,332.46615 L 397.80625,327.99115 L 405.15625,327.91615 L 407.53125,321.20365 L 409.98125,327.91615 L 417.33125,327.99115 L 411.45625,332.46615 L 413.48125,339.39115 z"
         id="path2958"
         style="fill:#fcdb00;fill-opacity:1;fill-rule:nonzero;stroke:#fcdb00;stroke-width:0.14999999;stroke-linecap:round;stroke-linejoin:round;stroke-miterlimit:10;stroke-dasharray:none;stroke-opacity:1" />
      <path
         d="M 463.10625,339.17865 L 457.23125,335.12865 L 451.34375,339.17865 L 453.38125,332.32865 L 447.28125,327.77865 L 454.85625,327.77865 L 457.23125,320.99115 L 459.60625,327.77865 L 467.03125,327.77865 L 461.08125,332.32865 L 463.10625,339.17865 z"
         id="path2960"
         style="fill:#fcdb00;fill-opacity:1;fill-rule:nonzero;stroke:#fcdb00;stroke-width:0.14999999;stroke-linecap:round;stroke-linejoin:round;stroke-miterlimit:10;stroke-dasharray:none;stroke-opacity:1" />
      <path
         d="M 439.51875,325.54115 L 436.93125,316.79115 L 444.55625,310.99115 L 435.04375,310.99115 L 432.03125,302.39115 L 428.94375,310.99115 L 419.50625,310.99115 L 427.05625,316.79115 L 424.48125,325.54115 L 432.03125,320.36615 L 439.51875,325.54115 z M 415.09375,341.56615 L 412.50625,332.81615 L 419.99375,327.00365 L 410.60625,327.00365 L 407.53125,318.40365 L 404.51875,327.00365 L 395.14375,327.00365 L 402.63125,332.81615 L 400.04375,341.56615 L 407.53125,336.37865 L 415.09375,341.56615 z M 464.79375,341.42865 L 462.13125,332.60365 L 469.40625,326.86615 L 460.24375,326.86615 L 457.23125,318.19115 L 454.14375,326.86615 L 444.90625,326.86615 L 452.33125,332.60365 L 449.66875,341.42865 L 457.23125,336.24115 L 464.79375,341.42865 z M 427.63125,368.07865 L 427.63125,368.07865 L 427.26875,367.45365 L 427.26875,367.45365 L 426.91875,366.60365 L 426.70625,366.04115 L 426.64375,365.76615 L 426.64375,365.76615 L 426.78125,365.84115 L 426.78125,365.84115 L 427.26875,366.32865 L 427.55625,366.54115 L 427.83125,366.74115 L 427.83125,366.74115 L 428.74375,367.24115 L 429.71875,367.65365 L 429.71875,367.65365 L 430.14375,367.80365 L 430.55625,367.86615 L 430.55625,367.86615 L 430.41875,367.45365 L 430.28125,367.02865 L 430.28125,367.02865 L 429.93125,366.11615 L 429.79375,365.62865 L 429.64375,365.14115 L 429.64375,365.14115 L 429.99375,365.62865 L 430.35625,365.97865 L 430.35625,365.97865 L 430.98125,366.67865 L 430.98125,366.67865 L 431.40625,367.02865 L 431.89375,367.30365 L 432.86875,367.72865 L 432.86875,367.72865 L 433.35625,367.94115 L 433.85625,368.07865 L 433.85625,368.07865 L 434.05625,368.00365 L 434.05625,368.00365 L 433.85625,367.59115 L 433.50625,367.09115 L 433.50625,367.09115 L 433.43125,366.74115 L 433.29375,366.40365 L 433.21875,365.69115 L 433.21875,365.69115 L 433.50625,366.04115 L 433.50625,366.04115 L 434.48125,366.95365 L 434.48125,366.95365 L 435.04375,367.24115 L 435.04375,367.24115 L 435.80625,367.65365 L 436.65625,368.00365 L 436.65625,368.00365 L 436.93125,368.07865 L 436.93125,368.07865 L 436.71875,367.24115 L 436.71875,367.24115 L 436.50625,366.74115 L 436.50625,366.74115 L 436.29375,365.76615 L 436.29375,365.76615 L 436.29375,365.06615 L 436.23125,364.44115 L 436.29375,363.87865 L 436.36875,363.52865 L 436.36875,363.52865 L 436.58125,363.25365 L 436.79375,363.04115 L 437.28125,363.04115 L 437.28125,363.04115 L 437.98125,362.61615 L 438.33125,362.40365 L 438.68125,362.12865 L 438.68125,362.12865 L 438.89375,361.85365 L 439.09375,361.50365 L 439.09375,361.50365 L 439.38125,361.00365 L 439.59375,360.45365 L 439.59375,360.45365 L 439.66875,360.02865 L 439.66875,359.67865 L 439.59375,358.97865 L 439.59375,358.97865 L 439.51875,358.56615 L 439.51875,358.56615 L 439.09375,357.45365 L 438.75625,356.39115 L 438.75625,356.39115 L 438.68125,355.90365 L 438.68125,355.90365 L 438.81875,355.84115 L 438.81875,355.69115 L 438.81875,355.69115 L 439.01875,355.84115 L 439.30625,356.04115 L 439.80625,356.74115 L 440.00625,357.22865 L 440.21875,357.65365 L 440.35625,358.14115 L 440.49375,358.62865 L 440.49375,358.62865 L 440.49375,359.26615 L 440.49375,359.26615 L 440.43125,359.95365 L 440.35625,360.30365 L 440.35625,360.66615 L 440.35625,360.66615 L 440.56875,360.66615 L 440.56875,360.66615 L 440.85625,360.37865 L 441.11875,360.17865 L 441.11875,360.17865 L 441.69375,359.40365 L 441.69375,359.40365 L 442.03125,358.84115 L 442.31875,358.21615 L 442.31875,358.21615 L 442.59375,357.36615 L 442.59375,357.36615 L 442.73125,357.09115 L 442.73125,357.09115 L 442.80625,356.46615 L 442.88125,355.90365 L 442.88125,355.90365 L 442.88125,355.20365 L 442.88125,354.57865 L 442.88125,354.57865 L 442.73125,354.21615 L 442.73125,354.21615 L 442.53125,353.66615 L 442.16875,353.10365 L 442.16875,353.10365 L 442.16875,352.67865 L 442.16875,352.26615 L 442.16875,352.26615 L 442.16875,351.35365 L 442.16875,351.35365 L 442.25625,350.86615 L 442.25625,350.86615 L 442.39375,350.44115 L 442.59375,349.81615 L 442.88125,349.19115 L 443.08125,348.49115 L 443.08125,348.49115 L 443.44375,347.29115 L 443.64375,346.25365 L 444.06875,343.94115 L 444.06875,343.94115 L 444.28125,342.32865 L 444.49375,340.92865 L 444.63125,339.60365 L 444.69375,337.99115 L 444.69375,337.99115 L 444.76875,336.66615 L 444.76875,335.32865 L 444.76875,335.32865 L 444.76875,333.59115 L 444.69375,331.90365 L 444.69375,331.90365 L 444.69375,331.06615 L 444.69375,331.06615 L 444.41875,329.04115 L 444.13125,326.94115 L 444.13125,326.94115 L 443.93125,326.59115 L 443.93125,326.59115 L 442.39375,326.80365 L 440.85625,327.00365 L 440.85625,327.00365 L 439.24375,327.21615 L 437.70625,327.36615 L 437.70625,327.36615 L 435.60625,327.50365 L 435.60625,327.50365 L 434.40625,327.56615 L 434.40625,327.56615 L 432.03125,327.56615 L 432.03125,327.56615 L 430.84375,327.64115 L 429.64375,327.64115 L 429.64375,327.64115 L 427.55625,327.50365 L 427.55625,327.50365 L 425.65625,327.36615 L 423.84375,327.14115 L 423.84375,327.14115 L 423.06875,327.00365 L 422.29375,326.86615 L 422.29375,326.86615 L 421.59375,326.66615 L 421.24375,326.51615 L 421.04375,326.51615 L 421.04375,326.51615 L 420.83125,327.14115 L 420.83125,327.14115 L 420.83125,327.64115 L 420.83125,328.12865 L 420.90625,329.10365 L 420.90625,329.10365 L 420.96875,330.44115 L 420.96875,330.44115 L 421.24375,333.10365 L 421.66875,335.75365 L 421.66875,335.75365 L 421.95625,337.79115 L 421.95625,337.79115 L 422.29375,339.11615 L 422.64375,340.57865 L 423.20625,342.19115 L 423.20625,342.19115 L 423.34375,342.75365 L 423.34375,342.75365 L 424.11875,344.56615 L 424.11875,344.56615 L 424.25625,344.91615 L 424.39375,345.26615 L 424.39375,345.26615 L 424.25625,345.75365 L 423.98125,346.80365 L 423.49375,348.34115 L 423.49375,348.34115 L 423.34375,349.25365 L 423.14375,350.16615 L 423.14375,350.16615 L 422.93125,351.29115 L 422.79375,352.34115 L 422.79375,352.34115 L 422.58125,354.21615 L 422.51875,355.97865 L 422.51875,355.97865 L 422.51875,357.36615 L 422.51875,358.70365 L 422.51875,358.70365 L 422.51875,360.10365 L 422.51875,360.10365 L 422.58125,361.71615 L 422.58125,361.71615 L 422.58125,362.69115 L 422.64375,363.39115 L 422.86875,364.09115 L 423.20625,364.99115 L 423.20625,364.99115 L 423.34375,365.27865 L 423.34375,365.27865 L 423.69375,365.76615 L 423.69375,365.76615 L 424.74375,366.67865 L 424.74375,366.67865 L 425.30625,367.09115 L 425.93125,367.51615 L 425.93125,367.51615 L 426.64375,367.80365 L 426.64375,367.80365 L 426.91875,367.94115 L 427.26875,368.07865 L 427.63125,368.07865 z M 413.06875,382.97865 L 413.06875,382.97865 L 410.96875,381.65365 L 409.00625,380.25365 L 407.10625,378.64115 L 405.29375,377.02865 L 403.61875,375.21615 L 402.08125,373.31615 L 400.66875,371.36615 L 399.34375,369.26615 L 398.14375,367.09115 L 397.09375,364.86615 L 396.19375,362.55365 L 395.49375,360.17865 L 395.14375,358.90365 L 394.86875,357.65365 L 394.65625,356.46615 L 394.44375,355.12865 L 394.30625,353.87865 L 394.23125,352.61615 L 394.16875,351.29115 L 394.09375,349.95365 L 394.09375,302.31615 L 469.95625,302.31615 L 469.95625,349.95365 L 469.95625,349.95365 L 469.95625,351.29115 L 469.89375,352.61615 L 469.75625,353.94115 L 469.61875,355.26615 L 469.40625,356.52865 L 469.19375,357.79115 L 468.91875,359.05365 L 468.56875,360.30365 L 468.21875,361.57865 L 467.79375,362.76615 L 467.36875,363.95365 L 466.89375,365.14115 L 466.31875,366.26615 L 465.76875,367.37865 L 464.56875,369.61615 L 463.25625,371.71615 L 461.70625,373.74115 L 460.10625,375.64115 L 458.41875,377.37865 L 456.53125,379.05365 L 454.56875,380.60365 L 452.53125,382.06615 L 450.36875,383.32865 L 450.36875,383.32865 L 450.85625,382.49115 L 451.14375,381.65365 L 451.34375,380.74115 L 451.41875,379.90365 L 451.41875,378.99115 L 451.28125,378.15365 L 451.06875,377.31615 L 450.79375,376.46615 L 450.79375,376.46615 L 450.43125,375.77865 L 450.01875,375.06615 L 449.51875,374.51615 L 448.96875,373.87865 L 448.33125,373.39115 L 447.70625,372.96615 L 447.01875,372.55365 L 446.30625,372.27865 L 445.54375,372.06615 L 444.76875,371.92865 L 444.00625,371.92865 L 443.15625,371.99115 L 442.31875,372.20365 L 441.48125,372.49115 L 440.64375,372.90365 L 439.80625,373.46615 L 439.80625,373.46615 L 439.38125,372.62865 L 438.81875,371.71615 L 438.11875,370.87865 L 437.70625,370.45365 L 437.20625,370.04115 L 436.71875,369.67865 L 436.23125,369.32865 L 435.60625,369.05365 L 435.04375,368.77865 L 434.33125,368.56615 L 433.64375,368.42865 L 432.86875,368.35365 L 432.03125,368.27865 L 432.03125,368.27865 L 431.11875,368.35365 L 430.28125,368.50365 L 429.44375,368.64115 L 428.66875,368.91615 L 427.96875,369.19115 L 427.34375,369.55365 L 426.70625,369.96615 L 426.15625,370.37865 L 425.65625,370.80365 L 425.24375,371.29115 L 424.89375,371.71615 L 424.54375,372.20365 L 424.33125,372.62865 L 424.11875,373.04115 L 423.98125,373.39115 L 423.91875,373.74115 L 423.91875,373.74115 L 423.20625,373.25365 L 422.51875,372.82865 L 421.74375,372.49115 L 421.04375,372.27865 L 420.26875,372.14115 L 419.56875,372.06615 L 418.80625,372.14115 L 418.10625,372.20365 L 417.46875,372.41615 L 416.76875,372.62865 L 416.14375,372.96615 L 415.58125,373.31615 L 415.01875,373.74115 L 414.46875,374.24115 L 413.96875,374.72865 L 413.55625,375.27865 L 413.55625,375.27865 L 412.99375,376.11615 L 412.64375,377.02865 L 412.36875,377.94115 L 412.21875,378.91615 L 412.21875,379.96615 L 412.36875,380.95365 L 412.64375,382.00365 L 413.06875,382.97865 L 413.06875,382.97865 z"
         id="path2962"
         style="fill:#0093dd;fill-opacity:1;fill-rule:evenodd;stroke:#0093dd;stroke-width:0.14999999;stroke-linecap:round;stroke-linejoin:round;stroke-miterlimit:10;stroke-dasharray:none;stroke-opacity:1" />
      <path
         d="M 415.23125,384.10365 L 415.23125,384.10365 L 414.88125,383.67865 L 414.53125,383.19115 L 414.18125,382.62865 L 413.89375,382.06615 L 413.69375,381.44115 L 413.48125,380.80365 L 413.41875,380.17865 L 413.34375,379.47865 L 413.34375,378.85365 L 413.48125,378.15365 L 413.69375,377.45365 L 413.96875,376.75365 L 414.39375,376.11615 L 414.94375,375.49115 L 415.58125,374.86615 L 416.28125,374.30365 L 416.28125,374.30365 L 417.13125,373.81615 L 417.95625,373.46615 L 418.73125,373.25365 L 419.43125,373.19115 L 420.13125,373.19115 L 420.76875,373.31615 L 421.39375,373.46615 L 421.95625,373.74115 L 422.44375,374.01615 L 422.93125,374.30365 L 423.69375,374.86615 L 424.48125,375.56615 L 424.48125,375.56615 L 424.48125,375.27865 L 424.61875,374.51615 L 424.81875,374.01615 L 425.03125,373.54115 L 425.30625,372.96615 L 425.65625,372.41615 L 426.08125,371.85365 L 426.58125,371.36615 L 427.20625,370.87865 L 427.96875,370.37865 L 428.80625,370.04115 L 429.71875,369.75365 L 430.84375,369.55365 L 432.03125,369.47865 L 432.03125,369.47865 L 433.08125,369.55365 L 434.05625,369.75365 L 434.90625,370.04115 L 435.66875,370.37865 L 436.29375,370.87865 L 436.93125,371.36615 L 437.41875,371.85365 L 437.84375,372.41615 L 438.19375,372.96615 L 438.54375,373.54115 L 438.95625,374.51615 L 439.16875,375.27865 L 439.16875,375.56615 L 439.16875,375.56615 L 439.93125,374.86615 L 440.71875,374.30365 L 441.19375,374.01615 L 441.69375,373.74115 L 442.25625,373.46615 L 442.88125,373.31615 L 443.50625,373.19115 L 444.20625,373.19115 L 444.98125,373.25365 L 445.74375,373.46615 L 446.51875,373.81615 L 447.35625,374.30365 L 447.35625,374.30365 L 448.19375,374.92865 L 448.83125,375.56615 L 449.38125,376.26615 L 449.80625,377.02865 L 450.09375,377.72865 L 450.23125,378.50365 L 450.36875,379.27865 L 450.29375,379.96615 L 450.23125,380.66615 L 450.01875,381.36615 L 449.80625,382.06615 L 449.45625,382.69115 L 449.11875,383.25365 L 448.75625,383.74115 L 448.33125,384.24115 L 447.84375,384.59115 L 447.84375,384.59115 L 446.03125,385.35365 L 444.20625,386.05365 L 442.31875,386.69115 L 440.43125,387.17865 L 438.46875,387.52865 L 436.43125,387.80365 L 434.26875,388.01615 L 432.03125,388.07865 L 432.03125,388.07865 L 429.58125,388.01615 L 427.26875,387.80365 L 424.95625,387.37865 L 422.79375,386.96615 L 420.76875,386.34115 L 418.80625,385.70365 L 416.98125,384.94115 L 415.23125,384.10365 L 415.23125,384.10365 z"
         id="path2964"
         style="fill:#009944;fill-opacity:1;fill-rule:nonzero;stroke:#009944;stroke-width:0.14999999;stroke-linecap:round;stroke-linejoin:round;stroke-miterlimit:10;stroke-dasharray:none;stroke-opacity:1" />
    </g>
  </g>
</svg>
