<?xml version="1.0" encoding="UTF-8" standalone="no"?>
<!-- Created with Inkscape (http://www.inkscape.org/) -->

<svg
   xmlns:dc="http://purl.org/dc/elements/1.1/"
   xmlns:cc="http://creativecommons.org/ns#"
   xmlns:rdf="http://www.w3.org/1999/02/22-rdf-syntax-ns#"
   xmlns:svg="http://www.w3.org/2000/svg"
   xmlns="http://www.w3.org/2000/svg"
   xmlns:sodipodi="http://sodipodi.sourceforge.net/DTD/sodipodi-0.dtd"
   xmlns:inkscape="http://www.inkscape.org/namespaces/inkscape"
   version="1.0"
   width="208.86046"
   height="244.65999"
   id="svg2780"
   inkscape:version="0.92.4 (5da689c313, 2019-01-14)"
   sodipodi:docname="Walterswil_SO-blazon.svg">
  <metadata
     id="metadata27">
    <rdf:RDF>
      <cc:Work
         rdf:about="">
        <dc:format>image/svg+xml</dc:format>
        <dc:type
           rdf:resource="http://purl.org/dc/dcmitype/StillImage" />
        <dc:title></dc:title>
      </cc:Work>
    </rdf:RDF>
  </metadata>
  <sodipodi:namedview
     pagecolor="#ffffff"
     bordercolor="#666666"
     borderopacity="1"
     objecttolerance="10"
     gridtolerance="10"
     guidetolerance="10"
     inkscape:pageopacity="0"
     inkscape:pageshadow="2"
     inkscape:window-width="3259"
     inkscape:window-height="1417"
     id="namedview25"
     showgrid="false"
     inkscape:zoom="2.0000001"
     inkscape:cx="53.263599"
     inkscape:cy="146.58136"
     inkscape:window-x="-8"
     inkscape:window-y="-8"
     inkscape:window-maximized="1"
     inkscape:current-layer="svg2780"
     inkscape:measure-start="104.255,149.787"
     inkscape:measure-end="104.255,126.383"
     showguides="true"
     inkscape:object-paths="true"
     inkscape:snap-intersection-paths="true" />
  <defs
     id="defs2782" />
  <path
     inkscape:connector-curvature="0"
     style="fill:#ffffff;fill-opacity:1;fill-rule:evenodd;stroke:#000000;stroke-width:1.99999988;stroke-linecap:butt;stroke-miterlimit:4;stroke-dashoffset:0;stroke-opacity:1"
     id="path4212"
     d="m 1,1 3.761095,158.00304 c 2.686489,112.85918 196.651755,112.85918 199.338255,0 L 207.86045,1 Z" />
  <path
     style="opacity:1;fill:#cc2918;fill-opacity:1;stroke:#000000;stroke-width:1;stroke-miterlimit:4;stroke-dasharray:none;stroke-dashoffset:4.57999992;stroke-opacity:1"
     d="M 3.7967197,118.48978 H 205.06373 L 207.86045,1 H 1.0000014 Z"
     id="path18193"
     inkscape:connector-curvature="0" />
  <path
     style="opacity:1;fill:#ffffff;fill-opacity:1;stroke:#000000;stroke-width:1;stroke-miterlimit:4;stroke-dasharray:none;stroke-dashoffset:4.57999992;stroke-opacity:1"
     d="M 1.6850345,29.778152 79.780889,118.48978 H 129.07958 L 25.649346,1 H 1.0000014 Z"
     id="path18195"
     inkscape:connector-curvature="0" />
  <path
     style="opacity:1;fill:#cc2918;fill-opacity:1;stroke:#000000;stroke-width:1;stroke-miterlimit:4;stroke-dasharray:none;stroke-dashoffset:4.57999992;stroke-opacity:1"
     d="m 79.78089,118.48978 91.89622,104.38791 c 9.34721,-6.98553 17.69065,-15.92407 24.10214,-28.62158 l -66.69967,-75.76633 z"
     id="path18197"
     inkscape:connector-curvature="0"
     sodipodi:nodetypes="ccccc" />
  <g
     id="g18538">
    <path
       sodipodi:nodetypes="cscc"
       inkscape:connector-curvature="0"
       id="path18201"
       d="m 120.09658,224.33618 c -0.37965,-3.86405 -1.55596,-7.47301 -2.48916,-11.51876 -1.35846,-5.88944 -0.70633,-13.74367 1.86114,-20.29419 7.16581,11.56638 9.08919,22.40775 0.62802,31.81295 z"
       style="opacity:1;fill:#009645;fill-opacity:1;stroke:#000000;stroke-width:1;stroke-miterlimit:4;stroke-dasharray:none;stroke-dashoffset:4.57999992;stroke-opacity:1" />
    <path
       sodipodi:nodetypes="cscc"
       inkscape:connector-curvature="0"
       id="path18201-1"
       d="m 107.83307,212.75033 c -1.12492,-3.8986 -1.77361,-6.65366 -2.48916,-10.33152 -1.04596,-5.37617 -0.70633,-12.32711 1.86114,-18.20247 7.16581,10.37423 9.08919,20.09818 0.62802,28.53399 z"
       style="opacity:1;fill:#009645;fill-opacity:1;stroke:#000000;stroke-width:1;stroke-miterlimit:4;stroke-dasharray:none;stroke-dashoffset:4.57999992;stroke-opacity:1" />
    <path
       sodipodi:nodetypes="cscc"
       inkscape:connector-curvature="0"
       id="path18201-3"
       d="m 117.32351,229.35191 c -3.64168,-0.0777 -8.65151,-1.90927 -12.53624,-1.82065 -5.602237,0.12779 -11.330885,0.60182 -17.240958,3.67036 10.008214,5.84944 18.304238,6.35966 29.777198,-1.84971 z"
       style="opacity:1;fill:#009645;fill-opacity:1;stroke:#000000;stroke-width:1;stroke-miterlimit:4;stroke-dasharray:none;stroke-dashoffset:4.57999992;stroke-opacity:1" />
    <path
       sodipodi:nodetypes="cscc"
       inkscape:connector-curvature="0"
       id="path18201-3-6"
       d="m 106.26581,218.46104 c -3.23132,-0.34436 -8.382418,-1.65814 -11.752755,-2.472 -4.927695,-1.18992 -9.369708,-0.4012 -14.862379,1.81481 8.441918,5.84172 15.777181,6.9156 26.615134,0.65719 z"
       style="opacity:1;fill:#009645;fill-opacity:1;stroke:#000000;stroke-width:1;stroke-miterlimit:4;stroke-dasharray:none;stroke-dashoffset:4.57999992;stroke-opacity:1" />
    <path
       sodipodi:nodetypes="cscc"
       inkscape:connector-curvature="0"
       id="path18201-3-4"
       d="m 78.723581,208.98441 c -2.355647,2.13429 -7.248546,4.0672 -9.654239,6.44809 -3.469298,3.43352 -6.227795,7.10885 -8.054471,12.51272 10.329415,-2.15678 16.055459,-6.68664 17.70871,-18.96081 z"
       style="opacity:1;fill:#009645;fill-opacity:1;stroke:#000000;stroke-width:0.99999994;stroke-miterlimit:4;stroke-dasharray:none;stroke-dashoffset:4.57999992;stroke-opacity:1" />
    <path
       sodipodi:nodetypes="cscc"
       inkscape:connector-curvature="0"
       id="path18201-3-8"
       d="m 64.941566,208.89764 c -2.667824,0.63547 -6.762557,1.87263 -9.32412,3.53941 -3.694071,2.40369 -7.299118,5.16136 -9.722999,10.25874 13.504674,0.0551 17.052674,-5.61725 19.047119,-13.79815 z"
       style="opacity:1;fill:#009645;fill-opacity:1;stroke:#000000;stroke-width:1;stroke-miterlimit:4;stroke-dasharray:none;stroke-dashoffset:4.57999992;stroke-opacity:1" />
    <path
       sodipodi:nodetypes="cscc"
       inkscape:connector-curvature="0"
       id="path18201-3-8-9"
       d="m 63.544497,207.15693 c -2.513886,-0.74649 -6.372347,-2.19979 -8.786104,-4.15777 -3.480917,-2.82363 -6.877947,-6.06308 -9.161967,-12.05101 12.725434,-0.0647 16.068709,6.59862 17.948071,16.20878 z"
       style="opacity:1;fill:#009645;fill-opacity:1;stroke:#000000;stroke-width:1;stroke-miterlimit:4;stroke-dasharray:none;stroke-dashoffset:4.57999992;stroke-opacity:1" />
    <path
       sodipodi:nodetypes="cscc"
       inkscape:connector-curvature="0"
       id="path18201-0"
       d="m 67.960957,180.52675 c -3.735297,-0.42373 -7.10242,-1.14509 -10.799369,-1.47908 -5.095961,-0.46038 -10.775217,0.95938 -16.082786,3.47207 10.359335,4.68361 19.66467,5.33698 26.882155,-1.99299 z"
       style="opacity:1;fill:#009645;fill-opacity:1;stroke:#000000;stroke-width:1;stroke-miterlimit:4;stroke-dasharray:none;stroke-dashoffset:4.57999992;stroke-opacity:1" />
    <path
       sodipodi:nodetypes="cscc"
       inkscape:connector-curvature="0"
       id="path18201-0-8"
       d="m 58.409446,171.10891 c -3.290758,0.005 -6.293713,-1.28646 -9.799369,-1.54158 -6.518984,-0.47441 -11.775217,1.02188 -17.082786,3.53457 10.359335,4.68361 19.66467,5.33698 26.882155,-1.99299 z"
       style="opacity:1;fill:#009645;fill-opacity:1;stroke:#000000;stroke-width:1;stroke-miterlimit:4;stroke-dasharray:none;stroke-dashoffset:4.57999992;stroke-opacity:1" />
    <path
       sodipodi:nodetypes="csccc"
       inkscape:connector-curvature="0"
       id="path18201-0-6"
       d="m 48.229888,161.15035 c -3.281291,-0.24948 -6.365684,-1.1254 -9.814109,-1.80589 -5.019917,-0.99056 -11.655688,-0.38058 -17.141666,1.71417 9.896494,5.88853 19.096973,7.41832 26.955775,0.0917 z"
       style="opacity:1;fill:#009645;fill-opacity:1;stroke:#000000;stroke-width:1;stroke-miterlimit:4;stroke-dasharray:none;stroke-dashoffset:4.57999992;stroke-opacity:1" />
    <path
       sodipodi:nodetypes="csccc"
       inkscape:connector-curvature="0"
       id="path18201-0-6-2"
       d="m 37.419667,150.53443 c -2.975279,-0.74494 -5.681564,-2.07897 -8.749397,-3.27519 -4.465889,-1.74132 -10.639994,-2.14653 -15.968608,-0.90994 7.308036,7.67955 16.631356,9.6849 24.718008,4.18511 z"
       style="opacity:1;fill:#009645;fill-opacity:1;stroke:#000000;stroke-width:0.99999988;stroke-miterlimit:4;stroke-dasharray:none;stroke-dashoffset:4.57999992;stroke-opacity:1" />
    <path
       sodipodi:nodetypes="csccc"
       inkscape:connector-curvature="0"
       id="path18201-0-6-6"
       d="m 49.337859,158.85198 c -0.244136,-3.28169 -1.740031,-6.36751 -2.414903,-9.81704 -0.982382,-5.02152 -0.361596,-11.65629 1.742087,-17.13885 5.45441,9.97503 7.435361,19.20421 0.6728,26.95589 z"
       style="opacity:1;fill:#009645;fill-opacity:1;stroke:#000000;stroke-width:1;stroke-miterlimit:4;stroke-dasharray:none;stroke-dashoffset:4.57999992;stroke-opacity:1" />
    <path
       sodipodi:nodetypes="cscc"
       inkscape:connector-curvature="0"
       id="path18201-0-6-6-8"
       d="m 39.735451,150.14893 c -0.792334,-3.19395 -2.169581,-6.08945 -3.414736,-9.37644 -1.812551,-4.78492 -2.315946,-11.42962 -1.163853,-17.1878 7.053652,8.91615 9.94179,17.78605 4.578573,26.56424 z"
       style="opacity:1;fill:#009645;fill-opacity:1;stroke:#000000;stroke-width:1;stroke-miterlimit:4;stroke-dasharray:none;stroke-dashoffset:4.57999992;stroke-opacity:1" />
    <path
       sodipodi:nodetypes="cscc"
       inkscape:connector-curvature="0"
       id="path18201-3-1"
       d="m 71.456339,168.01161 c -1.563086,-2.51513 -2.457404,-6.79384 -4.249756,-9.3954 -2.584773,-3.75175 -5.477933,-7.4252 -10.34137,-9.99047 0.191201,9.5875 3.50943,15.47529 14.591126,19.38587 z"
       style="opacity:1;fill:#009645;fill-opacity:1;stroke:#000000;stroke-width:0.99999994;stroke-miterlimit:4;stroke-dasharray:none;stroke-dashoffset:4.57999992;stroke-opacity:1" />
    <path
       sodipodi:nodetypes="cscc"
       inkscape:connector-curvature="0"
       id="path18201-3-1-2"
       d="m 71.76511,152.66444 c -1.563086,-2.51513 -2.457404,-6.79384 -4.249756,-9.3954 -2.584773,-3.75175 -5.477933,-7.4252 -10.34137,-9.99047 0.191201,9.5875 3.50943,15.47529 14.591126,19.38587 z"
       style="opacity:1;fill:#009645;fill-opacity:1;stroke:#000000;stroke-width:0.99999994;stroke-miterlimit:4;stroke-dasharray:none;stroke-dashoffset:4.57999992;stroke-opacity:1" />
    <path
       sodipodi:nodetypes="cscc"
       inkscape:connector-curvature="0"
       id="path18201-3-1-2-9"
       d="m 73.67525,166.4052 c 1.818209,-2.17268 3.310054,-6.1473 5.35003,-8.36694 2.941876,-3.20095 6.151114,-6.27792 10.971855,-7.97796 -1.69806,9.19221 -5.645101,14.33212 -16.321885,16.3449 z"
       style="opacity:1;fill:#009645;fill-opacity:1;stroke:#000000;stroke-width:1;stroke-miterlimit:4;stroke-dasharray:none;stroke-dashoffset:4.57999992;stroke-opacity:1" />
    <path
       sodipodi:nodetypes="cscc"
       inkscape:connector-curvature="0"
       id="path18201-3-1-2-9-1"
       d="m 73.420648,153.30347 c 1.711358,-2.05376 3.115531,-6.51793 5.035623,-8.61608 2.768989,-3.02574 5.459411,-4.86466 10.327067,-6.83416 -1.59827,8.68906 -5.313353,13.54763 -15.36269,15.45024 z"
       style="opacity:1;fill:#009645;fill-opacity:1;stroke:#000000;stroke-width:0.99999994;stroke-miterlimit:4;stroke-dasharray:none;stroke-dashoffset:4.57999992;stroke-opacity:1" />
    <path
       sodipodi:nodetypes="ccc"
       inkscape:connector-curvature="0"
       id="path18266-6-0"
       d="m 72.506306,144.66116 c 5.93112,-7.60644 5.66875,-15.12352 -0.2121,-22.55951 -4.301546,6.50577 -5.534243,13.7233 0.2121,22.55951 z"
       style="opacity:1;fill:#009645;fill-opacity:1;stroke:#000000;stroke-width:1;stroke-miterlimit:4;stroke-dasharray:none;stroke-dashoffset:4.57999992;stroke-opacity:1" />
    <path
       sodipodi:nodetypes="ccc"
       inkscape:connector-curvature="0"
       id="path18266-6"
       d="m 32.182706,144.43635 c -2.044076,-10.61365 -8.455735,-16.8347 -18.829474,-19.07098 2.301431,8.54025 7.392937,15.54809 18.829474,19.07098 z"
       style="opacity:1;fill:#009645;fill-opacity:1;stroke:#000000;stroke-width:1;stroke-miterlimit:4;stroke-dasharray:none;stroke-dashoffset:4.57999992;stroke-opacity:1" />
    <path
       sodipodi:nodetypes="ccc"
       inkscape:connector-curvature="0"
       id="path18266"
       d="m 55.060039,208.12213 c -8.171157,-6.01255 -16.651269,-6.15497 -25.41165,-0.97227 7.039766,4.41204 15.083794,5.95477 25.41165,0.97227 z"
       style="opacity:1;fill:#009645;fill-opacity:1;stroke:#000000;stroke-width:1;stroke-miterlimit:4;stroke-dasharray:none;stroke-dashoffset:4.57999992;stroke-opacity:1" />
    <path
       sodipodi:nodetypes="csccccccccscc"
       inkscape:connector-curvature="0"
       id="path18199"
       d="m 122.8598,234.80468 -20.5061,-20.19673 c -6.98425,-6.87888 -31.2275,-5.3285 -48.083256,-5.83363 l 0.176778,-1.50261 c 13.728385,-0.15154 27.160761,-0.48934 41.279198,0.52145 l -64.525332,-63.36556 1.149048,-0.97227 39.703372,35.98478 c -1.262857,-6.42085 -0.129187,-23.45952 -0.193781,-35.18928 l 1.476713,-0.0259 c 0.365156,14.23189 -0.657588,35.31374 4.091753,39.80064 l 49.585857,46.84583 z"
       style="opacity:1;fill:#792819;fill-opacity:1;stroke:#000000;stroke-width:1;stroke-miterlimit:4;stroke-dasharray:none;stroke-dashoffset:4.57999992;stroke-opacity:1" />
    <g
       id="g18502">
      <circle
         style="opacity:1;fill:#000000;fill-opacity:1;stroke:#000000;stroke-width:1;stroke-miterlimit:4;stroke-dasharray:none;stroke-dashoffset:4.57999992;stroke-opacity:1"
         id="path18340-6"
         cx="77.8125"
         cy="180.97249"
         r="10.8125" />
      <circle
         style="opacity:1;fill:#ffffff;fill-opacity:1;stroke:#000000;stroke-width:1;stroke-miterlimit:4;stroke-dasharray:none;stroke-dashoffset:4.57999992;stroke-opacity:1"
         id="path18342-3"
         cx="74.201363"
         cy="176.89168"
         r="3.423636" />
    </g>
    <g
       transform="translate(1.6464466,-0.53033007)"
       id="g18498">
      <circle
         style="opacity:1;fill:#000000;fill-opacity:1;stroke:#000000;stroke-width:1;stroke-miterlimit:4;stroke-dasharray:none;stroke-dashoffset:4.57999992;stroke-opacity:1"
         id="path18340"
         cx="87.8125"
         cy="187.53499"
         r="10.1875" />
      <circle
         style="opacity:1;fill:#ffffff;fill-opacity:1;stroke:#000000;stroke-width:1;stroke-miterlimit:4;stroke-dasharray:none;stroke-dashoffset:4.57999992;stroke-opacity:1"
         id="path18342"
         cx="84.8125"
         cy="183.90999"
         r="2.9375" />
    </g>
    <g
       transform="translate(0,1.1161165)"
       id="g18506">
      <circle
         style="opacity:1;fill:#000000;fill-opacity:1;stroke:#000000;stroke-width:1;stroke-miterlimit:4;stroke-dasharray:none;stroke-dashoffset:4.57999992;stroke-opacity:1"
         id="path18340-4"
         cx="75.75"
         cy="193.65999"
         r="10.8125" />
      <circle
         style="opacity:1;fill:#ffffff;fill-opacity:1;stroke:#000000;stroke-width:1;stroke-miterlimit:4;stroke-dasharray:none;stroke-dashoffset:4.57999992;stroke-opacity:1"
         id="path18342-9"
         cx="70.875"
         cy="189.19124"
         r="2.9375" />
    </g>
  </g>
  <path
     inkscape:connector-curvature="0"
     style="fill:none;fill-opacity:1;fill-rule:evenodd;stroke:#000000;stroke-width:1.99999988;stroke-linecap:butt;stroke-miterlimit:4;stroke-dashoffset:0;stroke-opacity:1"
     id="path4212-2"
     d="M 1,0.99999834 4.761095,159.00304 c 2.686489,112.85918 196.651755,112.85918 199.338255,0 l 3.7611,-158.00304166 z" />
</svg>
