<!-- Created with Inkscape (http://www.inkscape.org/) -->
<svg xmlns:rdf="http://www.w3.org/1999/02/22-rdf-syntax-ns#" xmlns="http://www.w3.org/2000/svg" height="497" width="427" version="1.1" xmlns:cc="http://creativecommons.org/ns#" xmlns:xlink="http://www.w3.org/1999/xlink" xmlns:dc="http://purl.org/dc/elements/1.1/">
 <defs></defs>
 <metadata>
  <rdf:RDF>
   <cc:Work rdf:about="">
    <dc:format>image/svg+xml</dc:format>
    <dc:type rdf:resource="http://purl.org/dc/dcmitype/StillImage"/>
    <dc:title/>
   </cc:Work>
  </rdf:RDF>
 </metadata>
 <g transform="translate(0,25)">
  <g transform="translate(0,0.01006982)">
   <path d="M5.2742,267.19,421.94,267.95c11.1,125.16-87.54,220.38-207.2,222.93-119.67,2.55-215.89-85.42-209.47-223.69z" transform="translate(0,-25)" fill="#FFF"/>
   <path id="path9003-1-1" d="M6.8204,238.84,73.471,260.23,96.276,320.06,29.626,298.67z" fill="#0f47af"/>
   <use xlink:href="#path9003-1-1" transform="translate(44.452512,118.83592)" height="497" width="427" y="0" x="0"/>
   <use xlink:href="#path9003-1-1" transform="translate(43.073504,-38.295906)" height="497" width="427" y="0" x="0"/>
   <use xlink:href="#path9003-1-1" transform="translate(174.64554,3.16483)" height="497" width="427" y="0" x="0"/>
   <use xlink:href="#path9003-1-1" transform="translate(218.89616,-34.413964)" height="497" width="427" y="0" x="0"/>
   <use xlink:href="#path9003-1-1" transform="translate(131.62542,41.835598)" height="497" width="427" y="0" x="0"/>
   <use xlink:href="#path9003-1-1" transform="translate(88.57267,80.507394)" height="497" width="427" y="0" x="0"/>
   <use xlink:href="#path9003-1-1" transform="translate(263.40204,84.043348)" height="497" width="427" y="0" x="0"/>
   <use xlink:href="#path9003-1-1" transform="translate(220.33742,122.33861)" height="497" width="427" y="0" x="0"/>
   <path d="M5.8843,290.49,29.814,298.17,52.619,358,19.685,347.43c-7.399-21.21-11.168-39.85-13.801-56.94z" fill="#0f47af"/>
   <path d="m183.76,399.48,66.651,21.393,14.332,37.602c-9.8516,2.0447-25.732,7.2275-38.461,7.1652l-19.716-6.3285z" fill="#0f47af"/>
   <path d="m358.38,247.36,62.444,20.043c1.9421,23.19-2.3426,36.455-5.4821,50.753l-34.156-10.963z" fill="#0f47af"/>
   <path d="m139.65,438.45,66.959,20.409,3.2727,8.2204c-35.241-2.7806-44.638-3.6926-62.965-10.378z" fill="#0f47af"/>
   <path d="m316.56,286.35,66.651,21.393,17.127,47.004c-2.036,2.5161-2.4515,7.014-4.4148,9.5888l-56.557-18.154z" fill="#0f47af"/>
   <path stroke-linejoin="miter" d="m299.45,242.96,62.126,163.52m-287.72,10.46,148.35,47.68m-200.38-116.51,289.35,92.99m37.212-196.77,72.667,23.866m-241.68-25.8,236.6,76.05m-405.29-78.49,382.86,123.14m-386.5-125.03,68.268,179.69m-8.744-175.17,81.309,214.03m210.28-213.27,41.98,110.48m-160.27-111.99,74.7,196.63m-131.97-194.37,81.52,214.56m-138.2-213.41,83.85,220.72m-201.21-174.76,353.86,113.73" stroke="#000" stroke-linecap="butt" stroke-miterlimit="4" stroke-dasharray="none" stroke-width="3" fill="none"/>
   <rect transform="translate(0,-25)" height="265.22" width="415.16" y="6.496" x="6.0277" fill="#000"/>
   <g transform="translate(414.18238,-2.6864047)">
    <path d="m-130.13,105.11c24.4-1.0899,39.993,9.2138,53.671,10.107,12.782,0.83474,24.73-7.5376,22.337-21.051-1.2434-7.0225-6.5625-17.378-19.544-17.018-9.3402,0.25928-24.087,5.45-21.759,18.441-6.1332-3.5868-6.822-8.6859-0.17498-15.823-17.373,2.9331-33.365,8.0143-56.114,8.1967-18.797,0.15066-37.459-0.56804-42.46-20.077-2.9408-11.47,2.4918-21.722-14.407-28.053,11.472-6.3606,13.337,7.406,17.109,4.163,12.288-12.691,33.06-12.646,56.928-10.815,21.618-5.6567,30.984,5.1754,45.277,2.4354,7.7799-7.5944,20.057-11.229,31.113-5.9742-3.8476,3.3159-14.924-1.3306-15.381,5,1.3315,2.3066,19.978-0.82288,30.9-1.7733-6.1491,12.749-45.038,3.7051-46.677,8.1588,0.34777,3.0562,14.486,0.3368,13.334,5.0914-3.8854,4.3883-24.854-1.9055-26.988,1.2405-0.0329,3.3232,21.292,2.4066,21.5,10.457-9.5058-1.9761-21.191-1.1661-32.041-0.74562-14.915,0.57805-21.326-7.2155-24.956-16.538-13.338-1.8402-31.167-3.3793-42.993,3.9501,6.7233,1.2035,12.741,2.8185,11.081,8.9123-18.628-6.4017-18.284,3.1114-14.978,10.366,5.748,12.61,20.275,16.742,38.427,15.069,23.478-2.164,46.224-7.5778,69.539-10.373,12.047-1.4446,21.752,5.0905,28.852,14.491,7.8521,0.25147,8.0848-3.1736,2.2147-13.38,11.302-1.3278,14.172,17.766,2.6182,19.278,0.76661,7.5273,1.3031,18.136-6.614,21.721,5.3842,1.6702,9.5606,7.6801,5.0078,11.743-0.7958-5.508-6.6398-8.4032-8.5143-6.1691-11.259,13.419-30.939,8.7662-53.125,3.513,5.6987,9.4467,9.2659,17.181,18.349,19.628,12.653,3.4087,22.839,5.1533,35.101-8.1588-1.5438,5.5728-0.70798,10.806-6.7812,17.025,7.3422-5.0063,12.076-3.9273,17.413-4.2544-0.98513,3.7372-4.1589,6.9882-11.523,9.3079,3.8303,5.0664,15.182,7.0384,27.528,7.8467-7.7328,6.0814-17.435,5.2699-26.463,6.819,18.54,11.068,19.725,19.465,20.169,27.749-6.584-5.8512-13.897-14.254-19.194-15.602,1.9313,4.5489,6.7306,10.054,4.8786,13.342-6.5575,0.52654-10.02-10.091-13.075-22.17-6.1885,0.13317-0.71164,9.0154-1.0656,13.524-4.068-0.0959-8.6688-9.3775-12.204-10.37-2.2409,2.5368,4.3245,9.0746,0.41497,11.588-8.682-3.5565-9.0585-19.594-11.743-19.202-4.1526,0.52021,0.2537,23.985-6.0277,29.644-4.5158-10.519-12.158-27.606-15.427-26.858,0.57083,12.116,5.0751,26.974-1.7276,28.365-1.9376-5.563-1.1867-17.358-12.005-28.457-5.0864-5.219-7.3559-13.246-14.937-18.736-16.554-11.989-28.325-2.7631-40.291,3.4931-27.851,14.562-51.338,39.076-85.652,35.017-12.746,2.824-26.151,20.527-33.212,22.771-7.0056,2.2264-13.519,14.063-11.401,21.576,4.1168,14.603-1.6704,7.6578-6.8391,7.56-16.694,4.8496,0.36708-6.2899-4.1808-8.4428-2.8078-1.3292-8.3772,16.16-15.12,8.5288-10.624-2.3341,5.7536-7.7654,3.2953-9.8683-2.5889-2.2147-13.151,12.15-14.7,3.5621-9.2216-9.4306,7.4383-4.796,6.5383-8.6002-0.92304-3.9015-12.406,2.0055-10.077-5.7456,2.8641-12.407,10.523-2.551,15.785,1.4912,15.175-12.031,25.531-23.787,35.093-48.084-11.477,11.204-35.741,15.861-35.496,6.5069,5.3288-3.1638,20.297-1.4622,24.773-13.95-11.581,0.85222-28.4,3.7381-33.289-7.626,14.526,7.8484,68.545-17.636,33.784-10.145-10.473-0.95953-7.2411-10.353-9.445-16.401-12.224-3.7561-15.907-19.158-20.618-33.16-1.2676-1.206-6.019,7.5644-7.418,7.535-5.693-0.11947-8.6261-2.3444-11.86-9.529l-0.42798-8.3772c0.96077-7.132,9.6357,0.66962,10.847-2.4755,1.6296-4.2306-12.047-2.0556-4.1173-9.7114,4.3369-11.033,7.645,3.0737,9.4829,1.6976,4.0537-3.0351-6.7547-11.695,3.6837-11.622,4.9984-7.8038,7.682-7.2165,7.0018,5.5642,1.2084,24.695,21.504,30.133,35.276,51.79,6.8135-9.2787,9.1302-26.368,24.331-25.976,8.2525-2.2273,20.387,1.0025,5.0536-4.163-8.7031-0.84076-17.782-7.6986-17.862-14.499,11.449-6.7661,30.867,7.9078,25.351-8.4174-8.414-2.7781-20.068,0.39985-22.013-12.138-0.38498-2.4818-1.9253-6.3472-1.299-10.154,0.83629-5.0828,26.821-4.365,22.65,3.5923,5.7765,2.7195,10.754-1.7662,16.53,6.9561,2.7343-5.4598,6.6354-3.9484,7.139-8.0674l-13.92-1.7276c-4.332-0.4109-2.4271-4.6113,0.26639-4.6958,9.6264-0.302,19.241-0.6814,28.099,4.1251,1.7761-4.0922,7.5198-8.6875,10.061-4.7036,3.4275,5.3725-0.0447,15.306-8.4709,16.355,2.9867,2.015,7.6243,2.3286,7.2761,8.8587-0.49352,9.2557-4.7485,6.6425-8.6002,7.3596,9.7754,7.7736,3.4213,18.724,15.069,26.196-5.4087,7.136-15.08-8.7729-17.558-7.0475-1.5439,7.0428,15.426,12.011,12.771,18.312-6.7952,1.7095-13.732-13.484-18.707-7.9381,15.618,25.957,67.421,0.18907,97.554-1.157z" transform="translate(0,-25)" fill="#fcdd09"/>
    <path d="m-217.75,232.72c-7.3091-10.47,11.463-2.3061,17.028-5.4624,10.184-5.7768,17.855-12.609,24.413-19.59-7.1865-4.1098,5.7255-18.062,1.6953-22.039-4.0745,3.4059-13.486,12.103-13.751,8.4764-0.34907-4.774,14.306-15.813,12.984-17.771-1.7701-2.6218-17.435,13.042-18.635,5.7156,14.88-11.804,30.957-33.445,43.324-33.152,20.442,0.48435,25.577,27.174,28.632,40.31,1.4836,6.3798-8.4541-8.5672-10.548-6.4044-1.8161,1.8755,3.5847,15.75,2.2604,18.083-2.0552,3.6209-7.8192-14.695-9.4183-12.809-1.4671,1.7308,3.7231,14.555,0.37673,18.837-3.8924,4.9805-4.4758-12.924-6.2161-12.997-1.3794-0.0581,1.4754,8.8318-1.9285,12.775-3.1525,3.6521-7.3586,4.0353-9.185,7.0032-6.9067,6.2771-13.941,14.253-20.72,18.083-15.304,8.646,1.1998,15.524-11.115,13.464-6.2593,1.7485-3.3309-6.277-6.0274-6.4983-1.7733,0.43633-2.0133,13.035-8.8562,6.9682-5.4201,1.3942,1.8805-5.4352,0.66948-7.2658-2.6156-0.90757-6.1868,13.044-10.084,4.2573-11.114-0.65567,4.7976-6.312,3.4442-8.1955-1.2132-2.3228-11.913,9.6363-8.3417-1.7878z" transform="translate(0,-25)" fill="#fcdd09"/>
    <path d="m-319.47,32.49c1.8268-4.9093,11.261,0.20797,13.562,10.925,1.7624,8.2078,2.2013,21.425,11.302,23.357,12.064,2.5615,21.947,1.9181,34.659,7.9114-0.98904,1.6225-30.309-1.0138-47.845-1.8837-7.9291-0.39331-0.39393-26.3-11.679-40.31z" transform="translate(0,-25)" fill="#da121a"/>
    <path d="m-107.56,240.07c-12.561-10.396,15.845-1.1792,20.909-14.127,4.0344-10.316,3.8619-40.138,6.2161-40.687,6.0238-1.4039,5.8288,6.6631,8.6648,9.9834,1.563-5.668,3.5289-10.13,5.9325-8.9224,3.5734,1.796,1.6463,16.371-1.035,24.557-2.2831,7.1216-4.9455,17.346-6.8493,21.075-1.4483,2.8366-6.07,8.7178-2.9457,9.0637,5.0503,0.55913,9.819,3.2446,2.0268,5.3254-1.9716,11.578-3.3358,1.4405-5.7175,1.766-2.2858,0.31241-0.16506,13.066-8.5033,6.4376-9.9722-0.0839,2.1514-4.2324-1.7451-6.9362-2.0507-1.423-9.2447,5.8641-13.298,1.8991-6.1474-2.0346,5.0824-4.6966,4.1699-7.2339-0.67309-1.8716-8.8809,6.8098-7.8245-2.1998z" transform="translate(0,-25)" fill="#fcdd09"/>
    <path stroke-linejoin="round" d="m-167.68,139.06c6.5657-3.621,11-6.8234,16.5-5.9487m-16.5,12.342c6.3084-3.9174,12.1-6.2113,16.234-5.9487m-11.705,12.875c3.1029-0.47211,5.8297-2.8245,9.5743-0.0882m8.8065-19.891c2.6587,1.1908,5.3173,2.4411,7.976,7.1043m-7.976,1.4201c3.2782,0.86466,6.3668,2.2981,8.2424,7.3707m-8.2424,0.35455c5.5948,2.2793,6.4472,4.5586,7.1768,6.838m-11.439,8.0798c3.6149,0.61271,4.2169,10.266,4.3569,14.354m-2.4922-22.878c3.3552,0.92022,7.4385,7.9144,9.4963,14.504m-53.717,37.708c2.3923,0.12404,4.7845-0.87317,7.1768,2.5757m-5.3121-7.6371c4.2806,0.007,8.6087,1.8593,10.906,7.9035m-3.9801-14.83c3.1836,2.9245,6.9074,4.2282,8.7752,11.1m-1.3163-13.498c3.1992,2.2716,4.7574,6.1842,5.0457,10.035m-2.6482-15.629c4.189,1.4934,6.6248,5.6164,7.976,11.367m-13.212-15.863c6.0185-2.3462,10.333-12.557,14.017-22.564,3.4764,11.448-2.7512,18.748,1.4618,25.73,2.6857-1.3424,5.3714-9.8431,8.0571-18.094,2.4176,2.8972,2.5974,10.27,2.1968,18.803m73.539,12.608c2.3256-0.37331,3.6001,0.82992,4.5129,2.5757m-13.837,4.6168c3.175,2.4091,8.8394,2.8332,10.737,8.4363m-5.1427-11.1c2.3035-0.0835,4.607-1.066,6.9104,1.5102m-3.7138-10.834c2.2147-0.19629,4.4294-1.048,6.644,2.8421m-5.3121-8.1699c3.1914-1.3073,6.3829,1.2668,9.5743,3.3749m-10.906-11.1c3.1138,1.6552,5.3397,4.537,7.7096,2.8421m-7.5764-10.434c3.1433,1.696,5.8922,7.4315,10.373,4.7068" stroke="#000" stroke-linecap="round" stroke-miterlimit="4" stroke-dasharray="none" stroke-width="3" fill="none"/>
    <path stroke-linejoin="round" d="m-268.65,52.614c-0.91398,2.0129-2.6355,4.0259,0.51709,6.0388m-66.582,22.198c3.8603-2.4665,9.2019-2.4641,11.173-8.0798m-3.7138,11.277c4.6966-2.6717,10.877-4.0712,10.906-10.744m22.925,77.874c2.9325,3.2037,5.7016,7.5519,9.3079,6.0388m14.933-5.506c3.578,2.629,7.0214,5.662,11.972,4.1741m-39.943,1.4201c2.3915,2.9963,4.6413,7.269,7.7096,4.1741m-8.7752,3.5512c1.5476,3.3491,3.882,3.5513,6.1113,4.1741m-9.3079-0.9774c1.1491,3.7678,2.2982,2.5983,3.4474,2.3093m-6.1113,3.5512c0.73886,1.7954,1.3369,3.9429,3.4474,2.3093m-7.976,3.9508c0.21473,2.3271,1.108,3.5232,3.4474,2.3093m156.1-74.767c2.0428,3.6626,1.2252,6.1811-0.2507,8.4363m5.0457-36.141c-1.9412,4.6528-2.3654,8.9264,1.3476,12.166m21.562-0.711c-1.4329,1.2601-3.3023,2.3456-1.3162,4.9732m-12.27-12.699c-0.93952,3.5225-3.0592,7.0449,0.0157,10.567m-4.8107,13.141c0.0714,3.156,0.59283,6.537-3.4474,7.6371m13.837-4.7068c-0.595,4.3536-1.1486,8.7694-4.5129,8.9691m11.173-3.6413c-0.22191,6.1426-3.1613,7.9372-6.9104,8.4363m8.7908,9.4118c2.201-0.29074,3.7994-1.3346,3.181-5.1496m2.1468-19.625c5.2076,0.65486,5.4688-3.6367,7.4432-6.2151m-0.2507,12.342c2.5744-0.6796,5.1862-1.2279,6.3776-6.7479m-1.0499,15.272c4.8047-1.1786,7.9499-6.2292,10.64-12.342m0.01569,12.342c2.1259-2.4133,4.2518-3.0719,6.3776-9.4118m-40.254-27.047c-3.1502,2.9897-2.0966,5.9794-1.8804,8.9691m-101.9-51.026c-0.10298,5.8459-1.2697,9.9189-5.6099,8.7027m4.0305-17.432c3.1703,0.83325,6.2044,2.075,7.976,7.1043m-4.319-12.904c3.9906-2.5296,7.182,7.2523,11.972,6.3052m-64.768-7.5457c6.8297,2.3657,8.3122,0.71615,9.5743-2.4857m-44.508,73.817c1.2171,2.0555,6.4392-6.1452,8.2402-3.675,4.6263,6.3453,11.112,5.1955,13.51,0.5139m18.508-39.408c-3.3796-0.15366-1.7173-3.3324-1.8804-5.4159m38.165-13.18c-3.811,10.329-10.227,19.645-26.719,25.042,7.2833,1.152,13.8,2.8768,21.979-5.4404-3.6906,9.9913-11.808,9.7371-12.324,12.81m-69.615,23.974c6.3932-1.7823,13.06-2.3316,18.099-10.211m-17.467,1.9843c4.3702-0.88078,9.5172-0.72941,11.173-5.6823m74.41-17.87c-9.4432,8.3667-3.3428,15.438-4.889,23.147,4.2066-9.1363,12.225-4.9901,9.9346-19.772m-23.452,13.494c-16.627-4.1313-5,8.9157-12.667,21.276,8.4592-12.381,15.403-5.2321,15.581-17.368m-21.119-4.891c-6.0878,4.6246,1.6003,23.761-21.155,22.69,2.2539,10.073-6.7585,13.834-0.77913,20.304,6.6487-0.70663,12.643-5.34,17.871-14.57-4.1313,13.724-9.2813,26.059-21.126,29.265,7.9299,2.1112,16.416,0.67228,20.169-5.6553,6.248-10.533,7.9216-20.306,14.228-22.836-8.6862,10.493-4.491,20.128-3.1233,29.951,5.0876-11.492,5.8316-24.07,15.968-34.299-8.7255,21.789,4.0565,17.006,0.24545,29.874,6.8869-10.71,9.6158-21.42,7.2699-32.13,5.7801,5.5008,5.1723,14.994,5.5136,23.894,2.4056-10.234,13.107-18.303,0.70194-32.4,6.7056,1.0232,11.118,8.2824,15.383,15.941,1.3986-4.7732,0.89543-9.8182-2.6723-15.301,7.1665,6.1371,14.333,7.4218,21.499,7.2078-8.7354-4.2659-16.373-10.563-20.558-19.801m73.29,1.0369c0.90693,5.5245,1.3188,11.874,4.2465,14.03m61.557,30.318c3.4106-0.5467,5.9639-1.7792,5.8449-5.1496m-77.033-12.546c2.4394,2.6109,3.6539,5.8343,1.849,10.567m-135.42,23.11c5.9721,6.9428,11.218,8.0758,16.5,9.5018m14.784-7.1579c6.9042,4.5233,10.858,1.5831,3.9785,9.6702-7.8095,9.1803-10.319,6.5592-15.715,3.0283m-10.175,9.084c3.2253-0.00004,6.2181,1.6276,10.107-3.0184m101.35-56.365c1.1456,3.4187,0.65504,8.1464,5.0457,8.9691m-12.158-6.0199c0.80542,5.0921,2.8388,7.1144,5.0457,8.7027m-11.211-3.5388c1.1138,4.8538,3.6103,6.2512,6.1113,7.6371m-16.88-8.2802c2.641,6.541,4.625,8.9084,7.976,11.899m-17.33-8.5679c3.0847,7.3058,6.9338,12.318,11.439,15.362" stroke="#000" stroke-linecap="round" stroke-miterlimit="4" stroke-dasharray="none" stroke-width="3" fill="none"/>
    <path stroke-linejoin="round" d="m-354.06,27.707c10.908-1.5412,17.679,2.2774,20.216,7.3326,2.9626,5.9039-7.5368,9.6121-9.175,4.8793-3.3096-5.3121-6.597-9.583-11.041-12.212z" stroke="#000" stroke-linecap="round" stroke-miterlimit="4" stroke-dasharray="none" stroke-width="3" fill="#da121a"/>
    <path stroke-linejoin="round" d="m-369.66,44.707c9.7191-5.1866,17.389-3.9202,21.505-0.04062,4.8067,4.5309-3.7857,11.613-6.9468,7.7285-4.9298-3.8559-9.4819-6.7414-14.558-7.6879z" stroke="#000" stroke-linecap="round" stroke-miterlimit="4" stroke-dasharray="none" stroke-width="3" fill="#da121a"/>
    <path stroke-linejoin="round" d="m-373.55,75.13c3.3691-10.489,9.7578-14.917,15.413-14.996,6.6049-0.09195,5.3642,10.974,0.3907,10.384-6.2236,0.66232-11.5,1.7586-15.804,4.6118z" stroke="#000" stroke-linecap="round" stroke-miterlimit="4" stroke-dasharray="none" stroke-width="3" fill="#da121a"/>
    <path stroke-linejoin="round" d="m-364.94,83.167c10.616,2.9451,17.825,0.03847,20.997-4.6444,3.7044-5.4691-6.2244-10.51-8.4634-6.0298-3.9716,4.8371-7.7859,8.6448-12.534,10.674z" stroke="#000" stroke-linecap="round" stroke-miterlimit="4" stroke-dasharray="none" stroke-width="3" fill="#da121a"/>
    <path stroke-linejoin="round" d="m-364.84,201.83c4.3692-10.113,11.157-13.902,16.793-13.433,6.5828,0.54827,4.276,11.442-0.61701,10.373-6.2585,0.0564-11.617,0.63631-16.176,3.0592z" stroke="#000" stroke-linecap="round" stroke-miterlimit="4" stroke-dasharray="none" stroke-width="3" fill="#da121a"/>
    <path stroke-linejoin="round" d="m-360.66,220.82c1.9708-10.839,7.7267-16.064,13.324-16.88,6.5364-0.9535,6.751,10.179,1.7432,10.244-6.0838,1.4692-11.172,3.245-15.067,6.6357z" stroke="#000" stroke-linecap="round" stroke-miterlimit="4" stroke-dasharray="none" stroke-width="3" fill="#da121a"/>
    <path stroke-linejoin="round" d="m-338.93,236.21c-4.0472-10.246-1.9163-17.722,2.4063-21.37,5.0484-4.26,11.107,5.0824,6.8879,7.781-4.3918,4.4591-7.7764,8.6534-9.2942,13.589z" stroke="#000" stroke-linecap="round" stroke-miterlimit="4" stroke-dasharray="none" stroke-width="3" fill="#da121a"/>
    <path stroke-linejoin="round" d="m-325.83,232.06c10.985-0.83846,16.777-6.0227,18.168-11.505,1.6249-6.4026-9.426-7.7683-10.009-2.7941-2.091,5.8991-4.3839,10.777-8.1594,14.299z" stroke="#000" stroke-linecap="round" stroke-miterlimit="4" stroke-dasharray="none" stroke-width="3" fill="#da121a"/>
    <path stroke-linejoin="round" d="m-235.57,220.28c1.6102-10.898,7.1896-16.311,12.756-17.313,6.5012-1.1698,7.085,9.9499,2.082,10.181-6.0318,1.6702-11.059,3.6138-14.838,7.1318z" stroke="#000" stroke-linecap="round" stroke-miterlimit="4" stroke-dasharray="none" stroke-width="3" fill="#da121a"/>
    <path stroke-linejoin="round" d="m-222.08,238.12c-4.101-10.225-2.0094-17.712,2.294-21.382,5.0259-4.2865,11.134,5.024,6.9287,7.7447-4.3683,4.4822-7.7308,8.6941-9.2227,13.637z" stroke="#000" stroke-linecap="round" stroke-miterlimit="4" stroke-dasharray="none" stroke-width="3" fill="#da121a"/>
    <path stroke-linejoin="round" d="m-197.36,241.99c-8.9694-6.3963-11.248-13.829-9.6048-19.241,1.919-6.3207,12.085-1.7769,10.012,2.7825-1.2597,6.1306-1.8184,11.491-0.40745,16.458z" stroke="#000" stroke-linecap="round" stroke-miterlimit="4" stroke-dasharray="none" stroke-width="3" fill="#da121a"/>
    <path stroke-linejoin="round" d="m-193.13,240.55c9.3705-5.7928,12.132-13.059,10.849-18.568-1.4993-6.4332-11.942-2.5674-10.174,2.1184,0.85398,6.2002,1.0591,11.586-0.6753,16.449z" stroke="#000" stroke-linecap="round" stroke-miterlimit="4" stroke-dasharray="none" stroke-width="3" fill="#da121a"/>
    <path stroke-linejoin="round" d="m-125.26,228.37c1.535-10.909,7.0769-16.36,12.636-17.4,6.4929-1.2146,7.1534,9.9008,2.1522,10.166-6.0201,1.7118-11.033,3.6901-14.789,7.234z" stroke="#000" stroke-linecap="round" stroke-miterlimit="4" stroke-dasharray="none" stroke-width="3" fill="#da121a"/>
    <path stroke-linejoin="round" d="m-115.88,241.16c-0.30248-11.012,4.2546-17.31,9.5635-19.261,6.2001-2.2786,8.7018,8.5718,3.8146,9.6663-5.6511,2.6901-10.265,5.4753-13.378,9.595z" stroke="#000" stroke-linecap="round" stroke-miterlimit="4" stroke-dasharray="none" stroke-width="3" fill="#da121a"/>
    <path stroke-linejoin="round" d="m-97.59,247.05c-1.7634-10.874,1.9163-17.722,6.9188-20.361,5.8423-3.0824,9.7638,7.3392,5.0654,9.0735-5.2435,3.4173-9.4465,6.791-11.984,11.288z" stroke="#000" stroke-linecap="round" stroke-miterlimit="4" stroke-dasharray="none" stroke-width="3" fill="#da121a"/>
    <path stroke-linejoin="round" d="m-61.099,239.06c1.0536-10.966-3.0629-17.56-8.2262-19.869-6.0301-2.6965-9.2667,7.9577-4.4656,9.3833,5.4543,3.0696,9.8674,6.1634,12.692,10.486z" stroke="#000" stroke-linecap="round" stroke-miterlimit="4" stroke-dasharray="none" stroke-width="3" fill="#da121a"/>
    <path d="m-256.51,17.83c11.531-3.1454,26.051-1.1813,36.16,1.5728,2.1849-4.4975,4.0023-10.191,9.44-12.628,8.4835-3.8023,0.66661-13.324-3.8116-5.4478-2.3655-10.055-13.382-3.3222-4.7074,4.2289-5.2145,7.04-13.305,6.4522-15.15-0.80861,9.1229-0.53327,4.282-12.237-0.61605-5.7226,5.8688-8.4854-11.168-8.7397-4.3839,0-6.106-6.8847-7.78,7.1291,0.14627,5.8581-4.7671,7.8205-13.683,8.0365-17.069,1.037,6.4983-1.5429,1.1589-15.224-4.9284-3.6911-4.1162-10.694-11.237,0.77351-5.4729,4.14,4.6948,3.9865,9.8997,6.7181,10.392,11.462z" stroke-miterlimit="4" fill="#da121a"/>
   </g>
   <path stroke-linejoin="miter" d="m6-18.14,415,0,0,295c0,94.354-91.465,189.12-210.57,189.13-119.1,0-204.39-94.51-204.43-189.13z" stroke="#000" stroke-linecap="butt" stroke-miterlimit="4" stroke-dasharray="none" stroke-width="6" fill="none"/>
  </g>
 </g>
</svg>
