<?xml version="1.0" encoding="UTF-8"?>
<!DOCTYPE svg PUBLIC "-//W3C//DTD SVG 1.1//EN" "http://www.w3.org/Graphics/SVG/1.1/DTD/svg11.dtd">
<!-- Created using CorelDRAW and proton32 text editor -->
<svg xmlns="http://www.w3.org/2000/svg" xmlns:xlink="http://www.w3.org/1999/xlink" xml:space="preserve" width="176mm" height="212mm"
style="shape-rendering:geometricPrecision; text-rendering:geometricPrecision; image-rendering:optimizeQuality; fill-rule:evenodd; clip-rule:evenodd"
viewBox="0 0 176 212">
 <defs>
  <style type="text/css">
   <![CDATA[
    .str1 {stroke:#1F1A17;stroke-width:0.5}
    .str0 {stroke:black;stroke-width:3.9089}
    .fil0 {fill:none}
    .fil1 {fill:white}
    .fil2 {fill:#ffcc00}
    .fil3 {fill:#e83629}
    .fil4 {fill:#0762bc}
   ]]>
  </style>

	<!-- Border and fill of COA -->
	<path id="coaBorder" d="M0,0 l176,0 0,125 c0,58 -50,86 -88,86 -38,0 -88,-28 -88,-86 z" />
	<use id="coaFill" xlink:href="#coaBorder" transform="scale(0.98,0.98) translate(1.97,1.97)" />
	
	<!-- Clip path for COA -->
  <clipPath id="clipCoa">
	  <use xlink:href="#coaFill" />
  </clipPath>
 </defs>

 <g id="COA_Strande">
  <use id="border" xlink:href="#coaBorder" fill="black" />
	<use id="background" xlink:href="#coaFill" class="fil4" />
  <polygon id="sail1" class="fil1 str1" points="88,26 88,119.5 166,119.5 "/>
  <path id="sail2" class="fil2 str1" d="M87 26c-42,11 -42,82.5 0,93.5l-27 0c-60,0 -60,-93.5 0,-93.5z"/>
  <path id="redLine" class="fil3 str1" d="M58.2129 55c-3.6074,11.3277 -3.6055,24.173 0.0002,35.5l-40.1863 0c-4.0218,-11.2938 -4.0237,-24.2054 -0.0001,-35.5z"/>

  <!-- clip waves to content area -->
	<g id="waves" clip-path="url(#clipCoa)">
  	<path id="wave" class="fil1 str1" d="M0 151c0,0 0,-10 0,-10 11.5,8 23.5,8 35,0 11.5,8 23.5,8 35,0 11.5,8 23.5,8 35,0 11.5,8 23.5,8 35,0 11.5,8 23.5,8 35,0 0,0 0,10 0,10 -11.5,9 -23.5,9 -35,0 -11.5,9 -23.5,9 -35,0 -11.5,9 -23.5,9 -35,0 -11.5,9 -23.5,9 -35,0 -11.5,9 -23.5,9 -35,0z"/>
		<use xlink:href="#wave" y="18.5" />
    <use xlink:href="#wave" y="37" clip-path="url(#COA)" />
    <use xlink:href="#wave" y="55.5" clip-path="url(#COA)" />
	</g>
 </g>
</svg>