<?xml version="1.0" encoding="UTF-8"?>
<svg width="540" height="670" version="1.1" viewBox="0 0 142.88 177.27" xml:space="preserve" xmlns="http://www.w3.org/2000/svg"><path d="M140.04 58.11c0 63.566-23.411 98.886-68.595 116.15C26.496 156.93 2.849 121.674 2.849 58.11V3.01h137.19z" fill="#fff"/><g transform="matrix(.22865 0 0 .22865 2.5275 3.0727)"><path d="m101.5 1.5017v603.69c27.729 36.358 61.104 67.06 99.999 92.715v-696.41zm200 0v747.17c8e-3 3e-3 0.0166 6e-3 0.0249 9e-3 36.612-13.989 67.81-30.698 97.839-50.392v-696.79zm197.87 0v604.45c65.729-85.976 101.64-203.8 102.13-361.72v-242.73z" fill="#0093dd" stroke="#000800" stroke-width="4.6288"/><path d="m501.5 1.501v683.3m-400-683.3v683.3m99.999 59.543v-742.84m99.999 0v760m99.999-17.159v-742.84" fill="none"/></g><path d="m140.04 61.767c0 63.566-23.411 95.182-68.595 112.45-44.949-17.33-68.596-48.882-68.596-112.45v-58.804h137.19z" fill="none" stroke="#000" stroke-width="2.3813"/><g transform="matrix(.15199 0 0 .15199 -140.14 -36.879)"><path d="m1375.7 700.91c-4.8711 5.8716-7.7379 10.883-10.662 16.878-21.419-6.2935-32.644-8.56-50.83-14.363-3.1154-1.5033-10.182-3.2821-16.829-6.5698-21.377 12.183-36.117 26.47-54.504 36.16-6.6147 2.5319-15.677 7.2665-21.39 2.8932-8.1917-6.2704-14.117-18.056-4.0031-30.688 4.0176-4.4295 9.476-12.037-0.655-14.965-27.206-2.643-48.108 31.157-68.53 26.232-15.337-9.5732-11.728-22.203 0.8747-30.727s14.306-20.373-1.9031-19.723-24.162 10.904-36.596 15.616c-8.0598 3.9118-17.719 6.2342-26.309 4.1131-17.221-4.2525-19.352-15.316-5.8481-27.115 8.1695-7.1385 27.641-8.7363 26.357-19.612-1.2149-10.293-17.489-15.59-28.58-12.243-19.376 7.4846-41.714 15.566-58.713 3.9408-6.4837-6.398-8.9276-7.723-9.0987-14.583 2.6314-12.961 23.717-21.383 24.492-30.911 0.7119-5.5533 0.087-11.337-10.94-11.977-11.027-0.64011-31.212-1.1366-45.35-8.1339-15.766-5.2923-18.003-29.831-7.5228-34.136s40.028-8.4907 36.638-22.244c-2.5762-8.9724-11.087-12.749-16.708-19.077-11.826-11.055-19.181-23.893-12.068-38.318 16.031-26.214 37.303-11.686 50.194 6.0694 4.6312 4.9772 9.479 9.3976 16.753 7.5819 14.617-1.5001 13.289-21.463 16.56-28.715s20.044-15.048 28.984-7.8689c6.4888 5.2105 8.907 14.71 7.7363 22.947 0.1941 11.83-8.4399 34.004 3.6434 38.216 11.985 4.1785 15.957-19.843 26.397-27.444 12.24-8.9114 26.514 2.0587 27.872 15.199 1.6238 15.71-9.7867 55.986 2.4064 59.235 11.312 2.1394 14.006-15.505 19.276-23.839 12.143-20.319 37.068-14.629 37.867 5.8692-1.7527 19.571-16.078 69.547 0.7536 67.183 6.0857-1.6093 7.2651-10.529 9.8722-15.84 2.8266-7.3972 4.988-16.346 10.694-21.725 14.354-9.7709 30.176 7.7952 25.01 23.86-1.6598 15.972-19.902 39.215-10.385 46.834s17.975-3.9301 22.792-10.697c16.899-22.062 37.932 4.1665 35.524 23.039s-2.1486 27.266-1.8197 53.617c19.943 8.9678 35.59 15.742 68.547 16.033z" fill="#f00000" stroke="#000" stroke-linejoin="round" stroke-miterlimit="8.1" stroke-width="7.0623"/><path d="m1073.7 506.22c1.1197-16.474 2.0867-28.402 3.5566-41.12 1.2951-11.205 2.4834-18.68 2.4834-18.68s-2.4043 7.1765-4.9467 18.256c-2.6439 11.523-5.0251 25.609-6.0818 41.205-0.756 11.141-1.0843 21.79-1.185 31.691l1.8507-2.3888c-10.772 2.8967-21.435 4.9994-31.825 6.4168-14.204 1.9365-25.741 3.0224-36.778 3.5787-10.108 0.50957-16.915 0.4538-16.915 0.4538s6.6801 1.3035 16.886 2.0458c10.582 0.76963 23.531 0.78012 37.482-1.1242 10.591-1.4449 21.463-3.5887 32.447-6.5425a257.73 257.73 0 0 0 1.8342-0.50048 663.44 663.44 0 0 1 0.016-1.8883c0.1-9.8277 0.4255-20.378 1.1737-31.403z"/><path d="m1082.8 589.38c-23.926 7.7892-46.238 19.353-46.238 19.353s6.0232-1.7813 15.003-4.4794c7.9603-2.3918 21.949-6.5916 32.783-10.119 11.364-3.6997 22.809-7.1723 34.331-10.489a1261.6 1261.6 0 0 1 1.4863-0.42686 3846.3 3846.3 0 0 0 0.2807-1.5227c1.5907-8.6362 3.0632-16.797 4.515-24.667 3.3684-18.251 6.5094-36.525 9.1901-50.182 2.6801-13.654 4.7631-22.734 4.7631-22.734s-3.2808 8.7192-7.1914 22.143c-4.1132 14.119-8.1715 30.844-11.679 49.866-1.4531 7.8772-2.9256 16.038-4.5152 24.669l1.767-1.9496c-11.568 3.3298-23.069 6.8192-34.496 10.54z"/><path d="m1187.1 584.66c1.1229-13.151 1.9222-23.04 3.1434-34.591 1.0532-9.9389 1.9105-16.585 2.9582-22.935 0.9361-5.674 1.6752-9.0337 1.6752-9.0337s-1.2277 3.2116-2.8485 8.7665c-1.7295 5.9272-3.4742 13.095-5.2611 22.695-1.9847 10.652-3.5942 22.308-4.6491 34.674-1.0992 12.878-1.7758 24.606-2.1776 33.113-0.3454 7.3113-0.3126 4.7896-0.5297 13.818l1.6224-2.2811c-23.198 8.6886-12.829 4.8192-27.129 10.409-13.324 5.2076-25.62 10.613-36.295 15.737v1e-5c-6.0609 2.9093-10.686 5.2796-14.819 7.5718-2.2124 1.227-3.8625 2.2009-5.3217 3.1256-2.3025 1.458-3.447 2.4484-3.447 2.4484s1.2796-0.80331 3.7268-1.9348c1.5815-0.73008 3.275-1.4561 5.6283-2.4157 4.6017-1.8761 8.9154-3.5127 15.443-5.9577 9.2933-3.4805 25.35-9.401 36.906-13.918 14.265-5.576 3.893-1.7052 27.062-10.383a69194 69194 0 0 1 1.5821-0.59256 4363.3 4363.3 0 0 1 0.04-1.6885c0.2155-8.9663 0.1824-6.4389 0.5255-13.702 0.3997-8.4625 1.0725-20.124 2.1651-32.924z"/><path d="m1227.5 662.21c-12.298 4.3268-23.735 9.3277-34.172 14.762v1e-5c-11.82 6.1364-20.043 11.439-26.745 16.869-6.1561 4.9873-9.2611 8.6235-9.2611 8.6235s3.533-3.2276 10.062-7.5303c7.298-4.8097 15.395-9.0281 27.611-14.519 10.717-4.8 21.907-9.1747 34.165-13.489 3.6683-1.2909 2.8179-1.0566 7.0877-2.3868a1025.7 1025.7 0 0 1 2.0478-0.63563 272.97 272.97 0 0 1-0.3178-2.1133c-1.0745-7.3417-1.7664-14.158-2.0975-20.622-0.6112-11.959-0.2312-23.088 1.0817-33.623 2.4255-19.524 6.8346-33.789 6.8346-33.789s-6.442 13.474-10.415 33.206c-2.127 10.587-3.1231 22.22-2.495 34.462 0.34 6.64 1.0494 13.614 2.1437 21.09l1.73-2.7489c-4.3666 1.3604-3.5236 1.1291-7.2602 2.444z"/><path d="m1285.4 666.68c-0.3518-10.828-0.577-17.068-0.5901-25.642-0.011-7.0321 0.1374-11.776 0.1374-11.776s-1.3841 4.5394-2.6275 11.558c-1.2832 7.243-2.2366 16.276-1.9171 26.024 0.1369 4.1956 0.3545 9.6459 1.0737 15.12l1.6312-2.6776c-6.0688 2.1867-12.048 4.5616-17.853 7.1542-9.3093 4.1516-17.159 9.1148-23.272 13.821-5.8626 4.5127-9.2462 8.08-9.2462 8.08s4.1766-2.5945 10.597-5.9785c7.4485-3.9259 14.114-6.9524 23.961-11.357 5.6776-2.5358 11.539-4.8646 17.509-7.0156a296.26 296.26 0 0 1 1.9165-0.68316 87.765 87.765 0 0 1-0.2853-1.9945c-0.6942-5.2839-0.902-10.592-1.0338-14.632z"/><path d="m1053.4 517.04c-29.551-30.778-59.032-61.899-59.032-61.899s25.668 34.369 55.425 65.362c69.418 72.301 150.17 137.57 241.96 167.15 0.8461 0.2727 2.4397-1.8447 2.4397-1.8447s-0.08-2.6482-0.9059-2.9142c-90.71-29.236-170.73-93.83-239.89-165.86z"/><g transform="rotate(120,1386.9,711.17)"><path d="m1375.7 700.91c-4.8711 5.8716-7.7379 10.883-10.662 16.878-21.419-6.2935-32.644-8.56-50.83-14.363-3.1154-1.5033-10.182-3.2821-16.829-6.5698-21.377 12.183-36.117 26.47-54.504 36.16-6.6147 2.5319-15.677 7.2665-21.39 2.8932-8.1917-6.2704-14.117-18.056-4.0031-30.688 4.0176-4.4295 9.476-12.037-0.655-14.965-27.206-2.643-48.108 31.157-68.53 26.232-15.337-9.5732-11.728-22.203 0.8747-30.727s14.306-20.373-1.9031-19.723-24.162 10.904-36.596 15.616c-8.0598 3.9118-17.719 6.2342-26.309 4.1131-17.221-4.2525-19.352-15.316-5.8481-27.115 8.1695-7.1385 27.641-8.7363 26.357-19.612-1.2149-10.293-17.489-15.59-28.58-12.243-19.376 7.4846-41.714 15.566-58.713 3.9408-6.4837-6.398-8.9276-7.723-9.0987-14.583 2.6314-12.961 23.717-21.383 24.492-30.911 0.7119-5.5533 0.087-11.337-10.94-11.977-11.027-0.64011-31.212-1.1366-45.35-8.1339-15.766-5.2923-18.003-29.831-7.5228-34.136s40.028-8.4907 36.638-22.244c-2.5762-8.9724-11.087-12.749-16.708-19.077-11.826-11.055-19.181-23.893-12.068-38.318 16.031-26.214 37.303-11.686 50.194 6.0694 4.6312 4.9772 9.479 9.3976 16.753 7.5819 14.617-1.5001 13.289-21.463 16.56-28.715s20.044-15.048 28.984-7.8689c6.4888 5.2105 8.907 14.71 7.7363 22.947 0.1941 11.83-8.4399 34.004 3.6434 38.216 11.985 4.1785 15.957-19.843 26.397-27.444 12.24-8.9114 26.514 2.0587 27.872 15.199 1.6238 15.71-9.7867 55.986 2.4064 59.235 11.312 2.1394 14.006-15.505 19.276-23.839 12.143-20.319 37.068-14.629 37.867 5.8692-1.7527 19.571-16.078 69.547 0.7536 67.183 6.0857-1.6093 7.2651-10.529 9.8722-15.84 2.8266-7.3972 4.988-16.346 10.694-21.725 14.354-9.7709 30.176 7.7952 25.01 23.86-1.6598 15.972-19.902 39.215-10.385 46.834s17.975-3.9301 22.792-10.697c16.899-22.062 37.932 4.1665 35.524 23.039s-2.1486 27.266-1.8197 53.617c19.943 8.9678 35.59 15.742 68.547 16.033z" fill="#f00000" stroke="#000" stroke-linejoin="round" stroke-width="7.0623"/><path d="m1073.7 506.22c1.1197-16.474 2.0867-28.402 3.5566-41.12 1.2951-11.205 2.4834-18.68 2.4834-18.68s-2.4043 7.1765-4.9467 18.256c-2.6439 11.523-5.0251 25.609-6.0818 41.205-0.756 11.141-1.0843 21.79-1.185 31.691l1.8507-2.3888c-10.772 2.8967-21.435 4.9994-31.825 6.4168-14.204 1.9365-25.741 3.0224-36.778 3.5787-10.108 0.50957-16.915 0.4538-16.915 0.4538s6.6801 1.3035 16.886 2.0458c10.582 0.76963 23.531 0.78012 37.482-1.1242 10.591-1.4449 21.463-3.5887 32.447-6.5425a257.73 257.73 0 0 0 1.8342-0.50048 663.44 663.44 0 0 1 0.016-1.8883c0.1-9.8277 0.4255-20.378 1.1737-31.403z"/><path d="m1082.8 589.38c-23.926 7.7892-46.238 19.353-46.238 19.353s6.0232-1.7813 15.003-4.4794c7.9603-2.3918 21.949-6.5916 32.783-10.119 11.364-3.6997 22.809-7.1723 34.331-10.489a1261.6 1261.6 0 0 1 1.4863-0.42686 3846.3 3846.3 0 0 0 0.2807-1.5227c1.5907-8.6362 3.0632-16.797 4.515-24.667 3.3684-18.251 6.5094-36.525 9.1901-50.182 2.6801-13.654 4.7631-22.734 4.7631-22.734s-3.2808 8.7192-7.1914 22.143c-4.1132 14.119-8.1715 30.844-11.679 49.866-1.4531 7.8772-2.9256 16.038-4.5152 24.669l1.767-1.9496c-11.568 3.3298-23.069 6.8192-34.496 10.54z"/><path d="m1187.1 584.66c1.1229-13.151 1.9222-23.04 3.1434-34.591 1.0532-9.9389 1.9105-16.585 2.9582-22.935 0.9361-5.674 1.6752-9.0337 1.6752-9.0337s-1.2277 3.2116-2.8485 8.7665c-1.7295 5.9272-3.4742 13.095-5.2611 22.695-1.9847 10.652-3.5942 22.308-4.6491 34.674-1.0992 12.878-1.7758 24.606-2.1776 33.113-0.3454 7.3113-0.3126 4.7896-0.5297 13.818l1.6224-2.2811c-23.198 8.6886-12.829 4.8192-27.129 10.409-13.324 5.2076-25.62 10.613-36.295 15.737v1e-5c-6.0609 2.9093-10.686 5.2796-14.819 7.5718-2.2124 1.227-3.8625 2.2009-5.3217 3.1256-2.3025 1.458-3.447 2.4484-3.447 2.4484s1.2796-0.80331 3.7268-1.9348c1.5815-0.73008 3.275-1.4561 5.6283-2.4157 4.6017-1.8761 8.9154-3.5127 15.443-5.9577 9.2933-3.4805 25.35-9.401 36.906-13.918 14.265-5.576 3.893-1.7052 27.062-10.383a69194 69194 0 0 1 1.5821-0.59256 4363.3 4363.3 0 0 1 0.04-1.6885c0.2155-8.9663 0.1824-6.4389 0.5255-13.702 0.3997-8.4625 1.0725-20.124 2.1651-32.924z"/><path d="m1227.5 662.21c-12.298 4.3268-23.735 9.3277-34.172 14.762v1e-5c-11.82 6.1364-20.043 11.439-26.745 16.869-6.1561 4.9873-9.2611 8.6235-9.2611 8.6235s3.533-3.2276 10.062-7.5303c7.298-4.8097 15.395-9.0281 27.611-14.519 10.717-4.8 21.907-9.1747 34.165-13.489 3.6683-1.2909 2.8179-1.0566 7.0877-2.3868a1025.7 1025.7 0 0 1 2.0478-0.63563 272.97 272.97 0 0 1-0.3178-2.1133c-1.0745-7.3417-1.7664-14.158-2.0975-20.622-0.6112-11.959-0.2312-23.088 1.0817-33.623 2.4255-19.524 6.8346-33.789 6.8346-33.789s-6.442 13.474-10.415 33.206c-2.127 10.587-3.1231 22.22-2.495 34.462 0.34 6.64 1.0494 13.614 2.1437 21.09l1.73-2.7489c-4.3666 1.3604-3.5236 1.1291-7.2602 2.444z"/><path d="m1285.4 666.68c-0.3518-10.828-0.577-17.068-0.5901-25.642-0.011-7.0321 0.1374-11.776 0.1374-11.776s-1.3841 4.5394-2.6275 11.558c-1.2832 7.243-2.2366 16.276-1.9171 26.024 0.1369 4.1956 0.3545 9.6459 1.0737 15.12l1.6312-2.6776c-6.0688 2.1867-12.048 4.5616-17.853 7.1542-9.3093 4.1516-17.159 9.1148-23.272 13.821-5.8626 4.5127-9.2462 8.08-9.2462 8.08s4.1766-2.5945 10.597-5.9785c7.4485-3.9259 14.114-6.9524 23.961-11.357 5.6776-2.5358 11.539-4.8646 17.509-7.0156a296.26 296.26 0 0 1 1.9165-0.68316 87.765 87.765 0 0 1-0.2853-1.9945c-0.6942-5.2839-0.902-10.592-1.0338-14.632z"/><path d="m1053.4 517.04c-29.551-30.778-59.032-61.899-59.032-61.899s25.668 34.369 55.425 65.362c69.418 72.301 150.17 137.57 241.96 167.15 0.8461 0.2727 2.4397-1.8447 2.4397-1.8447s-0.08-2.6482-0.9059-2.9142c-90.71-29.236-170.73-93.83-239.89-165.86z"/></g><g transform="rotate(240 1387.4 709)"><path d="m1375.7 700.91c-4.8711 5.8716-7.7379 10.883-10.662 16.878-21.419-6.2935-32.644-8.56-50.83-14.363-3.1154-1.5033-10.182-3.2821-16.829-6.5698-21.377 12.183-36.117 26.47-54.504 36.16-6.6147 2.5319-15.677 7.2665-21.39 2.8932-8.1917-6.2704-14.117-18.056-4.0031-30.688 4.0176-4.4295 9.476-12.037-0.655-14.965-27.206-2.643-48.108 31.157-68.53 26.232-15.337-9.5732-11.728-22.203 0.8747-30.727s14.306-20.373-1.9031-19.723-24.162 10.904-36.596 15.616c-8.0598 3.9118-17.719 6.2342-26.309 4.1131-17.221-4.2525-19.352-15.316-5.8481-27.115 8.1695-7.1385 27.641-8.7363 26.357-19.612-1.2149-10.293-17.489-15.59-28.58-12.243-19.376 7.4846-41.714 15.566-58.713 3.9408-6.4837-6.398-8.9276-7.723-9.0987-14.583 2.6314-12.961 23.717-21.383 24.492-30.911 0.7119-5.5533 0.087-11.337-10.94-11.977-11.027-0.64011-31.212-1.1366-45.35-8.1339-15.766-5.2923-18.003-29.831-7.5228-34.136s40.028-8.4907 36.638-22.244c-2.5762-8.9724-11.087-12.749-16.708-19.077-11.826-11.055-19.181-23.893-12.068-38.318 16.031-26.214 37.303-11.686 50.194 6.0694 4.6312 4.9772 9.479 9.3976 16.753 7.5819 14.617-1.5001 13.289-21.463 16.56-28.715s20.044-15.048 28.984-7.8689c6.4888 5.2105 8.907 14.71 7.7363 22.947 0.1941 11.83-8.4399 34.004 3.6434 38.216 11.985 4.1785 15.957-19.843 26.397-27.444 12.24-8.9114 26.514 2.0587 27.872 15.199 1.6238 15.71-9.7867 55.986 2.4064 59.235 11.312 2.1394 14.006-15.505 19.276-23.839 12.143-20.319 37.068-14.629 37.867 5.8692-1.7527 19.571-16.078 69.547 0.7536 67.183 6.0857-1.6093 7.2651-10.529 9.8722-15.84 2.8266-7.3972 4.988-16.346 10.694-21.725 14.354-9.7709 30.176 7.7952 25.01 23.86-1.6598 15.972-19.902 39.215-10.385 46.834s17.975-3.9301 22.792-10.697c16.899-22.062 37.932 4.1665 35.524 23.039s-2.1486 27.266-1.8197 53.617c19.943 8.9678 35.59 15.742 68.547 16.033z" fill="#f00000" stroke="#000" stroke-linejoin="round" stroke-width="7.0623"/><path d="m1073.7 506.22c1.1197-16.474 2.0867-28.402 3.5566-41.12 1.2951-11.205 2.4834-18.68 2.4834-18.68s-2.4043 7.1765-4.9467 18.256c-2.6439 11.523-5.0251 25.609-6.0818 41.205-0.756 11.141-1.0843 21.79-1.185 31.691l1.8507-2.3888c-10.772 2.8967-21.435 4.9994-31.825 6.4168-14.204 1.9365-25.741 3.0224-36.778 3.5787-10.108 0.50957-16.915 0.4538-16.915 0.4538s6.6801 1.3035 16.886 2.0458c10.582 0.76963 23.531 0.78012 37.482-1.1242 10.591-1.4449 21.463-3.5887 32.447-6.5425a257.73 257.73 0 0 0 1.8342-0.50048 663.44 663.44 0 0 1 0.016-1.8883c0.1-9.8277 0.4255-20.378 1.1737-31.403z"/><path d="m1082.8 589.38c-23.926 7.7892-46.238 19.353-46.238 19.353s6.0232-1.7813 15.003-4.4794c7.9603-2.3918 21.949-6.5916 32.783-10.119 11.364-3.6997 22.809-7.1723 34.331-10.489a1261.6 1261.6 0 0 1 1.4863-0.42686 3846.3 3846.3 0 0 0 0.2807-1.5227c1.5907-8.6362 3.0632-16.797 4.515-24.667 3.3684-18.251 6.5094-36.525 9.1901-50.182 2.6801-13.654 4.7631-22.734 4.7631-22.734s-3.2808 8.7192-7.1914 22.143c-4.1132 14.119-8.1715 30.844-11.679 49.866-1.4531 7.8772-2.9256 16.038-4.5152 24.669l1.767-1.9496c-11.568 3.3298-23.069 6.8192-34.496 10.54z"/><path d="m1187.1 584.66c1.1229-13.151 1.9222-23.04 3.1434-34.591 1.0532-9.9389 1.9105-16.585 2.9582-22.935 0.9361-5.674 1.6752-9.0337 1.6752-9.0337s-1.2277 3.2116-2.8485 8.7665c-1.7295 5.9272-3.4742 13.095-5.2611 22.695-1.9847 10.652-3.5942 22.308-4.6491 34.674-1.0992 12.878-1.7758 24.606-2.1776 33.113-0.3454 7.3113-0.3126 4.7896-0.5297 13.818l1.6224-2.2811c-23.198 8.6886-12.829 4.8192-27.129 10.409-13.324 5.2076-25.62 10.613-36.295 15.737v1e-5c-6.0609 2.9093-10.686 5.2796-14.819 7.5718-2.2124 1.227-3.8625 2.2009-5.3217 3.1256-2.3025 1.458-3.447 2.4484-3.447 2.4484s1.2796-0.80331 3.7268-1.9348c1.5815-0.73008 3.275-1.4561 5.6283-2.4157 4.6017-1.8761 8.9154-3.5127 15.443-5.9577 9.2933-3.4805 25.35-9.401 36.906-13.918 14.265-5.576 3.893-1.7052 27.062-10.383a69194 69194 0 0 1 1.5821-0.59256 4363.3 4363.3 0 0 1 0.04-1.6885c0.2155-8.9663 0.1824-6.4389 0.5255-13.702 0.3997-8.4625 1.0725-20.124 2.1651-32.924z"/><path d="m1227.5 662.21c-12.298 4.3268-23.735 9.3277-34.172 14.762v1e-5c-11.82 6.1364-20.043 11.439-26.745 16.869-6.1561 4.9873-9.2611 8.6235-9.2611 8.6235s3.533-3.2276 10.062-7.5303c7.298-4.8097 15.395-9.0281 27.611-14.519 10.717-4.8 21.907-9.1747 34.165-13.489 3.6683-1.2909 2.8179-1.0566 7.0877-2.3868a1025.7 1025.7 0 0 1 2.0478-0.63563 272.97 272.97 0 0 1-0.3178-2.1133c-1.0745-7.3417-1.7664-14.158-2.0975-20.622-0.6112-11.959-0.2312-23.088 1.0817-33.623 2.4255-19.524 6.8346-33.789 6.8346-33.789s-6.442 13.474-10.415 33.206c-2.127 10.587-3.1231 22.22-2.495 34.462 0.34 6.64 1.0494 13.614 2.1437 21.09l1.73-2.7489c-4.3666 1.3604-3.5236 1.1291-7.2602 2.444z"/><path d="m1285.4 666.68c-0.3518-10.828-0.577-17.068-0.5901-25.642-0.011-7.0321 0.1374-11.776 0.1374-11.776s-1.3841 4.5394-2.6275 11.558c-1.2832 7.243-2.2366 16.276-1.9171 26.024 0.1369 4.1956 0.3545 9.6459 1.0737 15.12l1.6312-2.6776c-6.0688 2.1867-12.048 4.5616-17.853 7.1542-9.3093 4.1516-17.159 9.1148-23.272 13.821-5.8626 4.5127-9.2462 8.08-9.2462 8.08s4.1766-2.5945 10.597-5.9785c7.4485-3.9259 14.114-6.9524 23.961-11.357 5.6776-2.5358 11.539-4.8646 17.509-7.0156a296.26 296.26 0 0 1 1.9165-0.68316 87.765 87.765 0 0 1-0.2853-1.9945c-0.6942-5.2839-0.902-10.592-1.0338-14.632z"/><path d="m1053.4 517.04c-29.551-30.778-59.032-61.899-59.032-61.899s25.668 34.369 55.425 65.362c69.418 72.301 150.17 137.57 241.96 167.15 0.8461 0.2727 2.4397-1.8447 2.4397-1.8447s-0.08-2.6482-0.9059-2.9142c-90.71-29.236-170.73-93.83-239.89-165.86z"/></g></g></svg>
