<?xml version="1.0" encoding="UTF-8" standalone="no"?>
<!-- Created with Inkscape (http://www.inkscape.org/) -->

<svg
   xmlns:dc="http://purl.org/dc/elements/1.1/"
   xmlns:cc="http://creativecommons.org/ns#"
   xmlns:rdf="http://www.w3.org/1999/02/22-rdf-syntax-ns#"
   xmlns:svg="http://www.w3.org/2000/svg"
   xmlns="http://www.w3.org/2000/svg"
   xmlns:sodipodi="http://sodipodi.sourceforge.net/DTD/sodipodi-0.dtd"
   xmlns:inkscape="http://www.inkscape.org/namespaces/inkscape"
   version="1.0"
   width="208.86046"
   height="244.65999"
   id="svg2780"
   inkscape:version="0.92.4 (5da689c313, 2019-01-14)"
   sodipodi:docname="Rüttenen-blazon.svg">
  <metadata
     id="metadata27">
    <rdf:RDF>
      <cc:Work
         rdf:about="">
        <dc:format>image/svg+xml</dc:format>
        <dc:type
           rdf:resource="http://purl.org/dc/dcmitype/StillImage" />
        <dc:title></dc:title>
      </cc:Work>
    </rdf:RDF>
  </metadata>
  <sodipodi:namedview
     pagecolor="#ffffff"
     bordercolor="#666666"
     borderopacity="1"
     objecttolerance="10"
     gridtolerance="10"
     guidetolerance="10"
     inkscape:pageopacity="0"
     inkscape:pageshadow="2"
     inkscape:window-width="3259"
     inkscape:window-height="1417"
     id="namedview25"
     showgrid="false"
     inkscape:zoom="2"
     inkscape:cx="191.21794"
     inkscape:cy="187.57139"
     inkscape:window-x="-8"
     inkscape:window-y="-8"
     inkscape:window-maximized="1"
     inkscape:current-layer="svg2780"
     inkscape:measure-start="104.255,149.787"
     inkscape:measure-end="104.255,126.383"
     showguides="true"
     inkscape:object-paths="true"
     inkscape:snap-intersection-paths="true" />
  <defs
     id="defs2782" />
  <path
     inkscape:connector-curvature="0"
     style="fill:#1b63c6;fill-opacity:1;fill-rule:evenodd;stroke:#000000;stroke-width:1.99999988;stroke-linecap:butt;stroke-miterlimit:4;stroke-dashoffset:0;stroke-opacity:1"
     id="path4212"
     d="m 1,1 3.761095,158.00304 c 2.686489,112.85918 196.651755,112.85918 199.338255,0 L 207.86045,1 Z" />
  <path
     id="path18134-1"
     style="opacity:1;fill:#ffffff;fill-opacity:1;stroke:#000000;stroke-width:1;stroke-miterlimit:22;stroke-dasharray:none;stroke-dashoffset:4.57999992;stroke-opacity:1"
     d="M 112.125,189.65999 V 32.17125 c 0,-4.156405 -3.2716,-7.69476 -7.69476,-7.69476 -4.42316,0 -7.69476,3.538355 -7.69476,7.69476 v 157.48874 c 5.12984,0 10.25968,0 15.38952,0 z"
     inkscape:connector-curvature="0"
     sodipodi:nodetypes="cscscc" />
  <path
     id="path1639-9"
     style="opacity:1;fill:#feeb00;fill-opacity:1;stroke:#000000;stroke-width:1.00157475;stroke-miterlimit:4;stroke-dasharray:none;stroke-dashoffset:4.57999992;stroke-opacity:1"
     d="m 142.91602,237.60778 c 10.63447,-5.29855 21.48869,-22.21964 9.24918,-34.19472 -6.57546,-6.43341 -19.04522,-6.54224 -27.41852,3.08382 2.81645,-15.20731 -8.17448,-24.85751 -20.31644,-24.85751 -12.141947,0 -23.132883,9.6502 -20.316437,24.85751 -8.373298,-9.62606 -20.84306,-9.51723 -27.41852,-3.08382 -12.239509,11.97508 -1.385287,28.89619 9.249188,34.19474 15.687159,4.20303 22.21052,5.42245 38.485769,6.03929 16.27526,-0.61684 22.79862,-1.83628 38.48578,-6.03931 z"
     inkscape:connector-curvature="0"
     sodipodi:nodetypes="cscccsccc" />
  <path
     id="path18140-1"
     style="opacity:1;fill:#ffffff;fill-opacity:1;stroke:#000000;stroke-width:1;stroke-miterlimit:22;stroke-dasharray:none;stroke-dashoffset:4.57999992;stroke-opacity:1"
     d="M 25.496135,74.843444 C 39.390017,66.483842 56.393203,59.689526 73.362329,59.287095 L 95.724581,58.756764 V 36.129352 L 73.362329,35.599021 C 56.393203,35.19659 39.390017,28.402274 25.496135,20.042672 c -4.01472,8.494176 -6.098796,18.468338 -6.098796,27.400386 0,8.932048 2.084076,18.90621 6.098796,27.400386 z"
     inkscape:connector-curvature="0"
     sodipodi:nodetypes="csccsccc" />
  <path
     id="path18172-6-2"
     style="opacity:1;fill:#ffffff;fill-opacity:1;stroke:#000000;stroke-width:1;stroke-miterlimit:22;stroke-dasharray:none;stroke-dashoffset:4.57999992;stroke-opacity:1"
     d="m 104.43024,33.050613 c -3.56981,0 -7.418898,0.860365 -11.11774,2.5 v 23.78489 c 3.698842,1.639635 7.54793,2.5 11.11774,2.5 2.79056,0 6.76825,-0.879298 9.69495,-1.892051 4.03108,-7.188703 7.66944,-13.251693 22.30222,-13.251693 9.7636,0 19.37404,2.495978 26.5607,10.960155 3.1595,3.721146 7.01743,4.449558 11.22532,4.640388 L 191.4375,47.443058 C 180.17075,36.827992 170.71615,31.11709 158.625,29.909988 c -16.2771,-1.625 -30.004,1.558603 -43.07702,8.925775 v -3.285162 c -3.69884,-1.639635 -7.54793,-2.5 -11.11774,-2.5"
     inkscape:connector-curvature="0"
     sodipodi:nodetypes="cccccssccsccc" />
  <path
     style="opacity:1;fill:none;fill-opacity:1;stroke:#000000;stroke-width:1;stroke-miterlimit:22;stroke-dasharray:none;stroke-dashoffset:4.57999992;stroke-opacity:1"
     d="m 174.21343,62.292302 c -8.99,-14.40194 -20.12156,-21.830082 -33.72329,-22.517582 -8.16171,-0.412534 -16.30093,1.492044 -24.94216,4.265387 v -5.204344"
     id="path18219"
     inkscape:connector-curvature="0"
     sodipodi:nodetypes="cscc" />
  <path
     inkscape:connector-curvature="0"
     style="fill:none;fill-opacity:1;fill-rule:evenodd;stroke:#000000;stroke-width:1.99999988;stroke-linecap:butt;stroke-miterlimit:4;stroke-dashoffset:0;stroke-opacity:1"
     id="path4212-8"
     d="M 1,0.99999834 4.761095,159.00304 c 2.686489,112.85918 196.651755,112.85918 199.338255,0 l 3.7611,-158.00304166 z" />
</svg>
