<svg xmlns="http://www.w3.org/2000/svg" width="540" height="585"><path style="stroke:#000;stroke-width:2;stroke-linecap:round;stroke-linejoin:round;stroke-miterlimit:4;stroke-dasharray:none;stroke-opacity:1" d="M974.5 35.47c26.21 32.62 62.79 73.78 104 119 0 0-57.1-4.47-61 74l-25 503c-3.97 81.4-19.86 133.3-54.19 199.8-30.81 59.7-76 108.7-131.8 151.1-61.52 46.8-162.4 83.23-250 84.11-96.99.97-194.6-24.74-277-87.03-74-56-128.1-127.2-160.5-212.5-17-47-23.42-87-27-145l-30.98-502c-4.13-66.98-59.52-63.51-59.52-63.51s62.99-65.68 98.5-122.5c-3 24.52 9 30.17 28.5 24.47C260.01 19.94 393.01.94 537.01.94c129 0 268 17.21 401 55 18.55 5.27 36.65 13 36.49-20.53z" transform="matrix(.5 0 0 .5 -.002 .638)"/><path style="fill:#fff;stroke:#000;stroke-width:2;stroke-linecap:round;stroke-linejoin:round;stroke-miterlimit:4;stroke-dasharray:none;stroke-opacity:1" d="M94 58c11.51 17.09 36 7 63 0C283.9 26 402 9.46 537 9.46c144 0 280 21.54 390.9 51.58C955.16 68.425 970 72 980 58l50 70C928 75 747 25 537 25c-167-.02-355 33-493 103Z" transform="matrix(.5 0 0 .5 -.002 .638)"/><path d="M293 358c147.994-71.942 326.362-74.894 492 0-26.806 13.238-24.104 49.543-25 65-5.166 89.096 6.281 243.414-32.437 321.75C688.766 823.242 616.49 868.457 530 865c-132.021-5.278-203.189-116.166-206-222l-7-240c-.625-21.442-8.456-36.383-24-45z" style="fill:#fcdd09;stroke:#000;stroke-width:2;stroke-linecap:round;stroke-linejoin:round;stroke-miterlimit:4;stroke-dasharray:none;stroke-opacity:1" transform="translate(-270 -291.5)"/><path d="M351.24 751C455 668 537.609 534 537.5 304c-.108 230 82.959 364 186.718 447-81.949 155.945-295.978 149.252-372.977 0z" style="fill:#0f47af;stroke:#000;stroke-width:4;stroke-linecap:round;stroke-linejoin:round;stroke-miterlimit:4;stroke-dasharray:none;stroke-opacity:1" transform="translate(-270 -291.5)"/><path d="m407 736 19-7.6V763l-19 8z" style="fill:none;stroke:#000;stroke-width:3;stroke-linecap:round;stroke-linejoin:round;stroke-miterlimit:4;stroke-dasharray:none;stroke-opacity:1" transform="translate(-270 -291.5)"/><path style="fill:#fcdd09;stroke:#000200;stroke-width:3;stroke-linecap:round;stroke-linejoin:round;stroke-miterlimit:4;stroke-dasharray:none;stroke-opacity:1" d="m407 736 17-7v33l-17 7z" transform="translate(-270 -291.5)"/><path style="fill:none;stroke:#000;stroke-width:3;stroke-linecap:round;stroke-linejoin:round;stroke-miterlimit:4;stroke-dasharray:none;stroke-opacity:1" d="m407 736 19-7.6V763l-19 8z" transform="translate(-20 -291.5)"/><path d="m407 736 17-7v33l-17 7z" style="fill:#fcdd09;stroke:#000200;stroke-width:3;stroke-linecap:round;stroke-linejoin:round;stroke-miterlimit:4;stroke-dasharray:none;stroke-opacity:1" transform="translate(-20 -291.5)"/><path d="m407 736 19-7.6V763l-19 8z" style="fill:none;stroke:#000;stroke-width:3;stroke-linecap:round;stroke-linejoin:round;stroke-miterlimit:4;stroke-dasharray:none;stroke-opacity:1" transform="translate(-146.5 -485.5)"/><path style="fill:#fcdd09;stroke:#000200;stroke-width:3;stroke-linecap:round;stroke-linejoin:round;stroke-miterlimit:4;stroke-dasharray:none;stroke-opacity:1" d="m407 736 17-7v33l-17 7z" transform="translate(-146.5 -485.5)"/><path d="M421 545v43h36l-7-185h15v-33h-15v13h-10v-13h-15v13h-10v-13h-15v13h-10v-13h-15v13h-10v-13h-15v33h15l-7 185h36v-43c0-10 4-17 13.5-17s13.5 7 13.5 17z" style="fill:#0f47af;stroke:#000;stroke-width:3;stroke-linecap:round;stroke-linejoin:round;stroke-miterlimit:4;stroke-dasharray:none;stroke-opacity:1" transform="translate(-270 -291.5)"/><path style="fill:none;stroke:#000;stroke-width:3;stroke-linecap:round;stroke-linejoin:round;stroke-miterlimit:4;stroke-dasharray:none;stroke-opacity:1" d="M434 423v18m-53-18v18m53 20v20m-53-20v20m53 62v21m-53-21v21m53-63v21m-53-21v21m26.5-41v20m0 21.208V528m0-87v20m0-58v20M365 403h85m-85.7 20h86.4m-87.2 18h87.7m-88.5 20H452m-89.8 20h90.6m-91.4 20h92.2m-93.3 21h94m-95.2 21h34.822m27.065 0H455.4m-96.3 21h34.822m27.065 0H455.8" transform="translate(-270 -291.5)"/><path style="fill:none;stroke:#000;stroke-width:2;stroke-linecap:round;stroke-linejoin:round;stroke-miterlimit:4;stroke-dasharray:none;stroke-opacity:1" d="m444 394.674 14 .154m-13-4.154 13 .154M439 579.9h12m-13-4.9h14m-13-5h12m-11-11h10m-12-5h10m-6-5h9m-11-11h10m-13-4.8h14m-13-5h12M440 517h10m-12-5h10m-8-5h9m-11-11h10m-13-5h14m-13-5h12m-9.2-10h10m-11-5h9m-8-5h9M436 455.7h9m-10-5h9m-10-5h12m-8.3-9.2h10m-10-5h8m-8-5h9M432 418h10m-9-5h9m-8-5h8M488.128 845.851c-7.815 1.18-17.854.963-25.551.365m14.882-4.935c-8.125.56-17.059.446-28.468-1.08m15.778-5.09c-8.588.25-19.492-.097-29.664-2.395m17.995-4.11c-9.826-.676-20.795-1.976-30.967-4.275m17.748-4.262c-9.826-.677-19.168-1.778-29.34-4.54m18.614-3.514c-9.362-.832-19.066-2.553-30.011-6.553m19.056-2.993c-8.28-1.605-20.115-5.042-30.441-8.732m20.714-1.175c-10.444-2.224-18.763-5.062-29.708-9.526m21.42-.304c-9.053-2.378-20.43-6.27-29.984-11.353m23.649 2.721c-9.053-3.152-22.663-9.1-31.288-14.646m18.845-6.405c-9.517-3.46-23.526-9.13-31.996-16.997m27.238 6.812c-9.98-4.234-24.654-11.939-32.506-19.65m43.147 40.606c-9.671-3.46-25.34-10.917-33.811-18.938m18.523-13.772c-9.98-4.235-23.631-10.456-31.483-18.168m28.487 9.241c-9.052-5.007-24.14-13.137-31.991-20.85m29.615 12.7c-9.052-5.007-25.398-13.92-33.25-21.632m30.96 12.513c-9.053-5.008-25.032-14.905-32.884-22.617m30.745 12.44c-8.124-5.007-24.891-15.994-32.28-22.778m30.502 12.364c-8.125-5.007-24.38-17.95-31.768-24.733m30.462 15.138c-8.125-5.008-23.607-17.331-30.995-24.115m30.04 15.2c-7.468-6.976-22.738-19.185-30.345-25.094m29.544 15.056c-7.468-6.976-22.225-18.994-29.831-24.903m29.453 15.266c-7.469-6.976-22.128-19.005-29.735-24.913m29.473 15.953c-7.468-6.976-22.127-19.005-29.734-24.913m29.46 15.516c-7.468-6.976-22.127-19.005-29.734-24.914m29.8 15.729c-7.469-6.976-22.474-19.451-30.081-25.36m30.324 15.504c-7.468-6.976-23.017-19.873-30.624-25.782m30.956 17.489c-7.468-6.976-23.604-20.326-31.211-26.234m27.304 12.138c-7.468-6.976-20.023-17.407-27.63-23.316m28.006 13.48c-7.469-6.977-20.706-18.076-28.312-23.984m28.673 14.513c-8.124-7.85-20.041-17.352-28.96-24.354m29.328 14.736c-8.125-7.85-20.71-18.014-29.628-25.016m30.028 14.532c-8.125-7.851-21.466-19.768-30.385-26.77m30.779 16.457c-8.125-7.85-22.16-19.752-31.08-26.754m31.423 17.761c-8.124-7.85-22.771-19.944-31.69-26.946m32.017 18.395c-8.125-7.851-23.366-20.565-32.285-27.568m32.638 18.323c-8.125-7.85-23.993-20.723-32.912-27.726m33.229 19.419c-8.125-7.851-24.578-21.614-33.497-28.616m33.883 18.507c-8.125-7.85-24.634-21.801-34.21-29.678m34.527 21.379c-8.125-7.851-25.864-22.447-35.439-30.325m35.808 20.648c-8.124-7.85-25.863-22.447-35.438-30.324m35.763 21.815c-8.124-7.851-26.456-23.112-36.031-30.989m36.367 22.201c-8.125-7.85-27.085-24.39-36.66-32.267m37.067 21.598c-8.124-7.85-27.791-23.969-37.366-31.846m37.61 25.488c-8.125-7.85-28.265-25.279-37.84-33.156m38.19 23.949c-8.124-7.85-30.009-28.08-39.584-35.958m39.951 26.361c-8.124-7.85-29.439-27.2-39.014-35.078m24.374 5.353c-8.125-7.85-28.784-25.232-38.359-33.11m53.325 54.309c-8.125-7.851-34.689-31.138-44.264-39.015m29.795 10.095c-8.125-7.85-23.29-22.006-32.866-29.883m34.247 20.778c-7.197-6.769-19.114-17.212-27.452-23.698m31.53 16.464c-7.043-5.995-17.105-14.892-23.742-19.676m33.138 18.735c-7.97-7.232-18.496-16.438-26.06-21.532m417.194 8.482c-1.53-2.193-3.309-4.313-5.505-6.715m-4.076 3.832c-1.748-2.63-3.91-5.117-6.325-7.629m-5.307 4.71c-2.514-3.068-5.534-6.788-8.605-9.409m-4.458 6.115c-2.514-3.067-6.469-7.868-10.634-10.926m-.677 8.263c-4.701-4.817-8.426-8.585-14.122-12.518m-1.452 9.164c-4.701-4.817-10.132-9.697-15.828-13.63m2.672 11.103c-4.702-4.817-11.71-10.557-17.407-14.49m2.083 11.936c-4.701-4.817-12.426-11.17-17.684-15.103m3.629 13.165c-6.233-6.349-12.877-11.92-21.635-16.29m8.768 14.888c-7.326-7.442-15.32-11.835-25.61-17.3m13.766 16.353c-6.232-5.91-15.361-11.838-26.088-17.959m14.05 17.226c-6.233-5.91-15.362-11.839-26.089-17.959m13.1 17.916c-6.67-6.567-16.893-13.37-26.525-19.271m15.809 19.511c-6.67-6.567-16.893-13.37-26.526-19.271m13.878 20.054c-7.326-7.66-15.612-14.624-24.589-21.182m14.299 22.259c-7.326-7.661-17.796-15.892-26.773-22.45m17.753 23.748c-7.326-7.66-18.47-16.04-28.76-23.692m18.853 25.535c-8.857-9.191-18.405-16.736-30.007-25.263m20.11 27.41c-8.858-9.192-18.788-18.439-30.39-26.965m23.6 29.031c-8.857-9.191-20.561-19.991-32.163-28.518m24.358 31.025c-9.733-10.504-21.44-20.385-34.792-30.223m25.719 33.621c-13.232-14.441-21.09-21.953-35.754-32.666m28.484 35.8c-13.231-14.44-24.351-24.076-37.484-34.789m30.897 37.977c-13.232-14.44-26.725-26.11-39.857-36.824m-85.075 54.474c-9.671-9.088-21.744-18.449-31.32-25.398m41.356 24.46c-11.692-11.018-21.196-18.873-32.401-27.686m42.73 28.26c-11.694-11.019-21.333-19.193-35.465-30.75m42.762 28.365c-11.693-11.02-21.332-19.194-35.464-30.75m47.533 31.746c-15.113-15.296-23.52-22.037-38.745-34.468m52.178 36.889c-15.112-15.296-28.768-26.849-43.994-39.28m79.77 35.591c-13.232-14.441-33.863-33.16-45.684-44.092m34.818 42.28c-13.68-15.198-30.725-28.886-43.182-40.407m38.568 45.387c-15.436-15.614-30.722-29.838-46.112-43.58m34.368 41.75c-15.113-15.296-28.769-26.85-43.994-39.28m99.54 27.481c-13.232-14.44-29.764-28.691-41.584-39.623m36.093 42.936c-13.68-15.198-31.81-30.092-44.266-41.613m37.673 45.99c-14.124-16.052-33.145-32.237-46.348-44.448m40.178 48.906c-14.457-16.827-33.336-34.676-47.25-47.544" transform="translate(-270 -291.5)"/><path d="M485.3 840.15c.782.813-.169 2.31-1.154 1.5-.985-.809.15-2.177 1.153-1.5m-13.15-6.038c.782.813-.169 2.31-1.154 1.5-.985-.809.15-2.177 1.153-1.5m-11.295-6.099c.783.813-.168 2.31-1.153 1.5-.985-.809.15-2.177 1.153-1.5m-13.526-8.374c.783.812-.168 2.31-1.153 1.5-.985-.809.15-2.177 1.153-1.5m-11.27-8.134c.782.812-.169 2.31-1.154 1.5-.985-.81.15-2.177 1.153-1.5m-9.556-8.023c.783.813-.168 2.31-1.153 1.5-.985-.809.15-2.177 1.153-1.5m-10.587-10.238c.783.813-.168 2.31-1.153 1.5-.985-.809.15-2.177 1.153-1.5m-8.764-9.815c.783.813-.168 2.31-1.153 1.5-.985-.809.15-2.177 1.153-1.5m-6.645-8.799c.783.813-.168 2.31-1.153 1.5-.985-.809.15-2.177 1.153-1.5m-6.37-9.399c.782.813-.169 2.31-1.154 1.5-.985-.809.15-2.177 1.153-1.5m-11.273-20.953c.783.813-.168 2.31-1.153 1.5-.985-.809.15-2.177 1.153-1.5m4.82 10.025c.783.813-.168 2.31-1.153 1.5-.985-.809.15-2.177 1.153-1.5m-9.582-21.193c.783.813-.168 2.31-1.153 1.5-.985-.809.15-2.177 1.153-1.5m-3.238-9.1c.783.813-.168 2.31-1.153 1.5-.985-.809.15-2.177 1.153-1.5m-2.68-8.702c.782.813-.169 2.31-1.154 1.5-.985-.809.15-2.177 1.153-1.5m-2.664-10.109c.783.813-.168 2.31-1.153 1.5-.985-.809.15-2.177 1.153-1.5m-2.153-9.276c.783.813-.168 2.31-1.153 1.5-.985-.809.15-2.177 1.153-1.5m-1.743-9.249c.783.813-.168 2.31-1.153 1.5-.985-.809.15-2.177 1.153-1.5m-1.45-9.5c.783.812-.168 2.31-1.153 1.5s.15-2.178 1.153-1.5m-1.015-8.2c.783.813-.168 2.31-1.153 1.5-.985-.809.15-2.177 1.153-1.5m-.844-9.35c.783.813-.168 2.31-1.153 1.5-.985-.809.15-2.177 1.153-1.5m-.8-11.7c.783.813-.168 2.31-1.153 1.5-.985-.809.15-2.177 1.153-1.5m-.4-8.2c.783.812-.168 2.31-1.153 1.5-.985-.809.15-2.177 1.153-1.5m-.239-9.358c.783.813-.168 2.31-1.153 1.5-.985-.809.15-2.177 1.153-1.5m.055-9.399c.783.813-.168 2.31-1.153 1.5-.985-.809.15-2.177 1.153-1.5m.004-8.475c.783.813-.168 2.31-1.153 1.501-.985-.81.15-2.178 1.153-1.5m.306-8.576c.783.813-.168 2.31-1.153 1.5-.985-.809.15-2.177 1.153-1.5m.5-10.9c.783.813-.168 2.31-1.153 1.501-.985-.81.15-2.178 1.153-1.5m113.6-224.77c.783.812-.168 2.31-1.153 1.5s.15-2.178 1.153-1.5m6.099-4.25c.783.813-.168 2.31-1.153 1.5-.985-.809.15-2.177 1.153-1.5m6.252-4.015c.783.813-.168 2.31-1.153 1.5-.985-.809.15-2.177 1.153-1.5m5.961-3.392c.783.813-.168 2.31-1.153 1.5-.985-.809.15-2.177 1.153-1.5m7.394-3.876c.783.813-.168 2.31-1.153 1.5-.985-.809.15-2.177 1.153-1.5m6.908-3.147c.783.813-.168 2.31-1.153 1.5-.985-.809.15-2.177 1.153-1.5m7.245-2.996c.783.813-.168 2.31-1.153 1.5-.985-.809.15-2.177 1.153-1.5m8.637-3.097c.783.813-.168 2.31-1.153 1.5-.985-.809.15-2.177 1.153-1.5m7.653-2.34c.783.812-.168 2.31-1.153 1.5s.15-2.178 1.153-1.5m17.634-4.172c.783.813-.168 2.31-1.153 1.5-.985-.809.15-2.177 1.153-1.5m9.551-1.669c.783.813-.168 2.31-1.153 1.5-.985-.809.15-2.177 1.153-1.5m9.896-1.329c.783.813-.168 2.31-1.153 1.5-.985-.809.15-2.177 1.153-1.5m9.959-.897c.783.813-.168 2.31-1.153 1.5-.985-.809.15-2.177 1.153-1.5m12.383-.59c.783.813-.168 2.31-1.153 1.5-.985-.809.149-2.177 1.153-1.5m11.372-.123c.783.813-.168 2.31-1.153 1.5-.985-.809.15-2.177 1.153-1.5m11.918.307c.783.813-.168 2.31-1.153 1.5-.985-.809.149-2.177 1.153-1.5m11.386.586c.783.813-.168 2.31-1.153 1.5-.985-.809.15-2.177 1.153-1.5m11.358.95c.783.812-.168 2.31-1.153 1.5s.149-2.178 1.153-1.5m14.944 1.682c.784.813-.167 2.31-1.152 1.5-.985-.809.149-2.177 1.152-1.5m12.687 1.902c.783.813-.168 2.31-1.153 1.5-.985-.809.15-2.177 1.153-1.5m14.473 2.436c.783.813-.168 2.31-1.153 1.501-.985-.81.15-2.178 1.153-1.5m14.487 2.81c.783.812-.168 2.31-1.153 1.5s.149-2.178 1.153-1.5m12.18 2.625c.784.813-.167 2.31-1.152 1.5-.985-.809.149-2.177 1.152-1.5m13.248 3.107c.783.812-.168 2.31-1.153 1.5s.15-2.177 1.153-1.5m13.32 3.366c.783.813-.168 2.31-1.153 1.501-.985-.81.149-2.178 1.153-1.5m11.096 2.976c.783.812-.167 2.31-1.153 1.5-.985-.81.15-2.177 1.153-1.5m10.537 2.96c.783.813-.168 2.311-1.153 1.501s.15-2.177 1.153-1.5" style="fill:none;stroke:#000;stroke-width:1;stroke-linecap:round;stroke-linejoin:round;stroke-miterlimit:4;stroke-dasharray:none;stroke-opacity:1" transform="translate(-270 -291.5)"/><path style="fill:#fff;stroke:#000;stroke-width:2;stroke-linecap:round;stroke-linejoin:round;stroke-miterlimit:4;stroke-dasharray:none;stroke-opacity:1" d="M502.761 688.058c-3.154 4.08-4.24 7.124-4.1 9.556 4.27-.628 8.541 1.56 12.812 2.339-1.38-2.066-1.268-5.998-4.185-6.144-3.262.032-2.473 2.763-3.539 4.259 1-2.23.484-5.721-.988-10.01zM491.65 662.435c-.738 5.813 1.114 10.43 5.737 13.767 2.254-2.46 1.567-7.398 1.096-13.047 1.719 8.465 4.642 10.907 7.568 13.332-.236-4.448 1.53-9.563 3.745-14.828-6.328.885-12.977 2.489-18.146.776z" transform="translate(-270 -291.5)"/><path style="fill:#fcdd09;stroke:#000;stroke-width:3;stroke-linecap:round;stroke-linejoin:round;stroke-miterlimit:4;stroke-dasharray:none;stroke-opacity:1" d="M526.311 661.485c-.025 7.736 3.819 7.765 5.391 12.769-5.131-.733-3.771 5.698-3.07 7.646 1.861 5.178.254 11.808-1.857 18.714-8.867 1.875-17.734-1.416-26.601-3.402-9.426 1.772-.35 11.17-3.093 14.383-5.083 5.952-9.145 5.745-9.435-2.165-9.365 7.33-2.245 11.937 2.63 13.456-6.902 1.862-9.273 7.123-12.992 13.3-4.457 7.404-8.61 1.788-11.445-3.402-9.742 3.734.249 14.284 6.65 12.527-5.864 7.32-3.49 7.833 0 7.424-4.807 2.724-6.252 8.815-5.877 10.672 1.566 7.736-4.23 7.971-7.269 5.258-2.244-2.003-2.741-4.795-3.093-8.042-5.443 7.514-3.727 12.436 1.083 16.703 5.48 4.862 10.88 3.267 14.692 0 .498 7.662 1.443 13.276 4.795 7.888-.143 3.97.24 7.85-2.01 12.218-3.506 6.802-5.774 2.463-8.198.155.183 3.876 1.565 6.494 4.33 7.578 3.915 1.534 9.126.157 12.064-3.248-.646 3.802 9.06 5.062 10.363.619 6.92 11.707 7.587 6.734 8.645 4.371-.75 5.955 2.677 4.824 3.084 7.244 1.043 6.195 3.84 6.068 5.593 4.47-2.68 6.035-5.62 8.502-10.363 8.351 3.63 6.838 14.62 2.013 16.55-4.485 7.326.122 8.974-5.842 10.67-11.754.512 19.073 9.516 13.273 8.043 8.661 1.34 4.361 4.32 8.988 2.01 12.682-1.894 3.03-3.505 3.243-5.258 4.021 3.902 1.078 10.181 4.143 11.754-1.855 1.264-4.817 7.996-13.42 6.77-20.13 4.398 4.116 7.482 4.95 7.769-1.214-.06 5.834 4.69 6.667 8.351 8.97 6.449 4.058 1.286 7.916-1.082 11.6 7.104-2.512 11.168-7.668 8.815-18.404 4.52-2.043 3.753-6.553 2.166-11.445 3.3 2.627 15.014 2.307 10.671-2.32 6.177.483 8.46 3.644 8.043 8.66 5.516-9.923-.806-14.822-5.259-21.497 6.729 5.633 6.95 4.36 5.413-2.165 4.312 8.211 19.88 9.382 19.488-4.64-4.418 2.702-8.621 2.18-12.219-7.424 3.331-3.47 3.764-7.452.089-12.159 6.938 5.85 8.232-1.047 2.54-10.421 7.477 15.096 18.416 6.014 17.632-4.64-7.388 10.255-12.872 1.93-14.074-4.021 5.67-.064 4.492-9.144-1.547-11.91 6.443.244 3.687-8.384 1.392-12.218 10.678-2.406 12.44-8.812 9.589-16.548-.455 7.286-6.219 7.238-9.898 4.794-4.43-2.942-2.6-10.922-11.755-14.074 3.05.357 8.082 2.849 6.806-1.701-1.324-4.718-4.812-5.302-7.988-5.941-2.41-.485-3.032-4.823-4.385-7.67 3.98 8.52 11.261 8.742 15.1 5.423 2.146-1.855 1.167-7.91.52-11.454-6.34 12.349-12.135-.405-18.095-5.568 3.716 1.81 8.67 6.103 9.01 1.403.241-3.349-6.519-7.483-9.938-10.837 8.467 6.832 12.52 4.465 13.709 1.063.887-2.538.266-6.254-1.027-9.106-5.096 8.96-10.585 2.97-16.084-3.402 3.63 1.819 7.37 4.44 10.207.31-1.292-2.579-7.32-5.156-10.98-7.734 10.808 4.744 16.302-.679 10.826-11.445-2.621 3.782-8.375 9.887-8.507.31-.135-9.825-5.767-11.937-11.29-8.816 2.191-4.514.857-9.742-7.888-2.939 4.659-4.537 7.68-10.022 3.712-12.837-2.329-1.652-4.245 7.27-11.445 9.125-7.556 1.947-16.854.627-25.21 1.083-6.235.34-13.654-2.787-19.178 1.083-4.214 2.952-1.445 7.88-6.34 8.97-6.136 1.366-13.898.405-17.168 5.568-2.032 3.208-.997 6.474-.155 9.898.922 3.745-3.492 9.016-3.557 11.754-.157 6.602 2.47 13.232 5.413 13.456 14.94 1.134 20.87-4.71 33.252-1.547z" transform="translate(-270 -291.5)"/><path style="fill:#da121a;stroke:#000;stroke-width:3;stroke-linecap:round;stroke-linejoin:round;stroke-miterlimit:4;stroke-dasharray:none;stroke-opacity:1" d="M480.996 662.877c-.337 7.219 1.09 12.404 6.34 15.776 8.892 5.707 16.843 1.464 26.323 2.096 6.966.465 13.612 1.32 18.653 1.894 3.023.344 5.129 2.164 7.455.185-.125 2.988 1.18 4.83-.773 9.28-6.78-2.787-13.824-.995-20.725-2.939-10.604-2.986-21.8.544-33.252-1.237-10.016-1.107-17.054-3.592-17.94-11.754-.994-9.14 3.285-14.417 13.919-13.3z" transform="translate(-270 -291.5)"/><path style="fill:#000;stroke:#000;stroke-width:.5;stroke-linecap:butt;stroke-linejoin:miter;stroke-miterlimit:4;stroke-dasharray:none;stroke-opacity:1" d="M515.86 651.375c-1.692-.679-4.033 2.886-2.844 5.577 1.272 2.878 10.777.094 15.749.875 6.333.995 12.654 2.719 14.982 12.358 1.875 7.761 2.605 16.168 1.312 24.06-1.213 7.413-7.744 10.312-12.685 12.467-6.112 2.665-14.236 2.163-20.232 2.078-3.05-.044-5.267-.29-7-.766-1.238-.34-4.28-.628-5.266-2.456-1.087-2.016.885-5.373-1.077-5.637-1.374-.185-2.377 2.427-1.859 4.593 2.045 8.54-2.165 9.885-6.78 11.702 6.335 1.24 9.753-6.453 12.569-5.89 1.741.347.851 5.434 2.96 5.78 1.739.287.412-6.187 5.906-5.03 4.428.933-.719 4.084.875 4.812 3.616 1.652 4.926-6.086 8.311-3.937 2.1 1.334-6.52 5.192-2.625 4.812 5.512-.537 7.998-6.514 12.249-6.562 4.86-.054-.611 4.323 3.062 2.844 2.16-.87 2.484-3.343 4.457-4.691 1.016-.694 3.073.038 4.51-1.434 1.036-1.06 1.843-3.309 2.664-4.705.634-1.078 1.058-1.01 2.04-2.075.924-1.003.43-3.537 2.296-4.593 1.672-.946-.48-5.838-1.094-7.218-.577-1.301 3.891-.177 4.047-3.062.152-2.833-4.01-.483-4.047-2.187-.047-2.146 3.758-1.23 2.188-4.156-1.127-2.1-2.888-2.808-2.625-4.047.45-2.118 7.994-3.53 6.78-5.796-.706-1.319-1.968-2.157-2.952-3.062-1.454-1.337.228-4.662-1.094-5.577-.647-.448-2.049 1.2-4.173 1.524-2.669.408-5.177-.187-5.123-.978.152-2.2 8.372-3.312 9.843-5.14 2.133-2.65 7.427-6.031 6.452-8.092-.592-1.254-1.74-.014-3.306-1.17-1.305-.964-.688-4.217-3.037-3.314-1.946.748.185 4.813-.984 6.124-1.707 1.913-6.017 2.577-8.968 4.375-1.645 1.002-1.645 4.03-5.03 3.28-2.193-.485-4.235-1.578-6.125-3.28-1.528-1.212-2.732-3.401-4.812-2.844-1.387.372-2.698 1.377-4.374-.219-1.525 2.482-2.982 1.522-5.14.657z" transform="translate(-270 -291.5)"/><path style="fill:none;stroke:#000;stroke-width:3;stroke-linecap:round;stroke-linejoin:round;stroke-miterlimit:4;stroke-dasharray:none;stroke-opacity:1" d="M473.974 676.747c-.567 6.859 2.895 7.315 3.905 9.97m61.115 5.391c-4.073 9.249-8.255 7.994-12.219 8.506m7.286-6.558c-3.607 2.818-2.213 4.137-3.205 6.17m.846-25.972c1.476.492 1.338 6.73 2.258 8.713m-7.649-21.482c10.158.97 13.782 9.016 13.456 21.343m-26.68-29.374c-2.64-.957-2.724-4.579-3.351-7.547m17.279-.875c-3.796-.918-2.168 2.91-1.526 5.877m21.976-6.643c1.106 3.519-3.443 2.791-5.468 4.484m17.389-12.14c-1.149-.018-1.617 1.3-1.422 2.954m6.562 83.77c1.76-6.988-.678-8.634-2.187-11.264 2.027 1.535 4.689 7.99 6.124 4.047.98-2.694-1.289-6.759-4.703-11.92 2.302 1.915 5.427 9.65 5.906 3.062.267-3.678-4.518-9.042-7.765-11.265m1.993 46.998c-3.633-1.057.494-7.805-4.677-11.645 3.17 3.324 6.913 1.843 4.258-.438-2.685-2.308-5.466-4.36-4.84-9.88m-7.423 10.827c.454 3.367 1.473 5.802 4.71 6.753 1.851.543 1.178 3.872.239 7.166m-5.771 11.336c-1.329-4.74 1.106-5.447.693-8.515-.445-3.303-3.108-2.49-1.108-8.698m-2.784 11.755c-2.124 2.46-2.79 6.034-2.219 10.313m-4.586-45.267c3.747 11.233-6.414 9.501-6.168 17.978m-35.735-71.522c-3.933-3.58-5-6.851-.784-9.558-6.48 1.874-2.666-7.692-1.856-13.919-.731-1.646-2.484-2.067-4.668-1.97 2.99 1.034 5.983 2.108 8.69-1.123 1.875 2.279 4.817 2.51 8.128 2.492 3.486 2.604 7.225 5.144 7.867 12.298m.889-15.762c-5.695-4.302-11.322-8.471-8.756 3.464m11.265-9.515c-4.926-1.726-10.144-4.145-11.97 1.455.747-3.727-7.5-1-8.866-7.215m41.707 13.292c-4.453-5.572-8.583-4.021-12.757-3.44m-1.215-5.874c.576-2.51 1.595-4.29 3.493-4.224 2.418.083 3.605 5.784 5.786 8.389 3.092 3.692 10.508-.09 15.776 2.165m-15.415-21.878c-8.808 2.984-20.382 5.553-12.424 11.052m27.423-5.93c1.196 1.45 2.721 2.505 5.365 2.218-2.292 1.74-3.735 2.916-4.277 3.49m17.322 3.018c-4.371-.02-1.93 4.904-2.633 7.412-.84 2.99-1.298 6.41-3.641 8.532 3.89-1.543 5.298-6.237 6.274-15.944m25.823 112.784c1.524.384 2.522 1.22 2.016 3.343m-18.3-2.127c2.576 2.34 5.016 5.13 6.727 10.354m-2.4-25.383c1.971 3.592 4.022 7.072 7.424 8.66m-8.352-24.126c4.321 1.216 5.115 5.288 7.024 7.714m-7.002-15.647c2.067 4.246 4.775 5.927 7.402 7.933m-14.229-49.182 7.28 7.937m-23.421-38.654c2.29 3.61-5.036 1.725-2.362-.053 5.492-3.653 7.94-10.689 16.956-7.896 4.268 1.322 5.622 5.84 5.84 11.883.367 10.161-3.588 13.521-8.958 16.788l4.057-1.94 3.083 4.201m.309 97.437c4.636 2.042 4.223 8.172 2.8 15.12 2.048-4.71 3.036-8.209 4.549-14.792 1.213-5.282 1.397-9.109-3.328-11.464-3.689-1.838-10.439-6.805-4.534-10.21 3.545 5.616 7.46 10.117 12.886 4.952 2.689-2.56 4.284-4.997.928-6.805-2.63-1.417-3.068-5.753-2.256-9.608 1.337-6.35.953-13.709-3.003-17.613-2.704-2.668-6.589-3.477-10.517-5.567 5.16 1.969 9.368-2.563 10.37-7.262 1.74-8.161-6.334-2.013-5.677-7.039.688-5.263 3.391-11.089 1.91-16.36 2.019-6.317-1.502-8.264-4.437-10.789-4.8-4.127-11.088-.508-15.504-4.424 3.342 3.513 7.429 6.376.247 7.395 1.937 1.22 5.385-1.406 5.468 5.03.054 4.174-1.781 1.914-3.062 2.953 2.967 2.08 2.844 7.036-1.53 8.421 1.573 2.179 2.535 4.94-.766 6.452 1.765 3.001 3.937 2.86 5.14 7.218.725 2.629-1.999 1.694-3.828 1.969.795 1.193 5.401 2.046.984 4.265m-1.997 70.84c-.864 13.203 8.332 12.742 6.877 4.221.397 9.843 6.896 7.942 11.373 9.08-2.286-2.746-5.662-4.903-4.95-9.28.851-5.223-1.52-8.134-2.474-12.063m-9.898 21.962c.925 1.96.133 4.262-1.856 6.805m-3.165-15.195c2.875 11.146-3.372 11.878-3.293 19.816m-2.512-14.829c.572 8.447-5.065 6.192-5.44 15.466m-3.802-6.367c-.207 3.31-.805 4.576-2.584 5.345m-4.878-12.588c-6.425 7.62.4 9.336-1.621 17.066m-7.205-15.282c1.127-4.185 4.153-6.919 2.4-13.085-.783-2.75 2.606-8.381 4.461-12.554-2.398 3.538-7.424 7.78-6.696 12.341m-20.03 6.655c.72 2.8 2.39 4.078 4.564 4.55m-13.866-21.672c-2.056 4.073-6.386 11.296-1.665 11.589 3.678.228 1.056 6.559.628 9.536m20.818-37.972c-5.842 4.676-2.476 9.35-.837 14.026m-12.501-29.33c-.932 2.873-2.534 3.064-4.022 3.712m94.087-27.657c-1.955.552-3.61-.337-3.455-3.584m8.97 23.508c3.084 1.16 5.339 2.229 8.661 1.856.11-2.787-4.777-7.572-8.842-12.029m7.45 24.248c-4.08-1.392-5.768-2.784-7.269-4.176m8.816 16.084-4.485-4.64m.927 13.302c-1.228-1.332-2.222-2.429-3.711-4.022m-4.95 2.784c1.673 2.6 3.875 7.054 6.12 11.66m-7.666-1.143c4.516 1.947 5.139 8.76 7.578 13.301m-12.682 14.229c-4.173-3.262-3.547-9.998-5.394-15.066m-3.112 18.778c.112 4.477 2.732 6.95 5.722 9.125m-10.671 2.32c-4.55-4.274-5.772-10.088-2.2-15.232m-8.627 10.901c.297 6.683 2.547 12.292 8.661 15.776m-16.703-11.445c-2.338 4.493 2.442 5.207.619 9.28m-5.421-14.086c-5.05 3.18-6.63 8.91-2.348 15.299m-5.842-13.587c-5.205 3.626-3.827 16.354 1.739 27.696m-10.962-14.995c-2.12 2.056-.867 4.112-.21 6.168m-5.105-18.25c-3.284.892-2.68 5.672-2.938 9.589m-1.577 4.938c-2.596-5.706-8.58-9.663-2.796-19.695m-7.499 8.424c-3.5 5.433 3.677 11.142 1.2 18.087m-7.77-11.898c2.03 1.858 2.76 4.425 1.584 8.032m-5.568-28.028c-4.92 4.62-3.47 10.582-3.109 16.314m-6.48-19.373c-4.143 4.598-2.776 9.845-2.165 15.002m-5.259-12.218c1.012 5.1-3.595 5.06-5.104 11.6M480.43 779.2c-2.157.955-2.615 3.025-3.61 6.013m2.139-17.345c-2.83 1.102-6.8 4.127-6.934 9.457m19.488-43.923c-5.884 1.87-.954 4.612-.294 7.001.464 1.683-3.796 2.435-3.2 7.99m122.619 34.66c-10.726 1.948-15.49-6.04-19.305-15.61m-5.119-83.304c-6.308 1.046-8.061 2.97-6.9 10.245m-99.865 47.679c-1.332 2.07-3.962 2.624-6.96 3.247" transform="translate(-270 -291.5)"/><path style="fill:#0f47af;stroke:#000;stroke-width:2.5;stroke-linecap:round;stroke-linejoin:round;stroke-miterlimit:4;stroke-dasharray:none;stroke-opacity:1" d="M655.608 579.05c-2.677 4.309-13.302 10.507-12.218 14.539 5.532-4.961 14.156 1.212 16.549-6.805-1.277 5.635 5.69 5.206 4.949 15.157 4.824-2.286 9.92-4.373 8.733-11.066 4.001 1.03 7.76 1.49 11.218.549 8.04-2.187-2.254-6.911-3.867-10.208 3.195 3.085 5.893 4.682 7.85 4.058 6.096 7.122 9.524 2.36 16.278 6.304-3.815-3.805-7.63-5.261-11.445-12.372 8.39 6.075 17.099 13.731 21.498-.155-6.887 2.855-10.552-.862-14.848-3.712-4.912-3.258-7.862-4.997-11.445-5.258-4.337-.318-8.63 1.42-10.517-7.579 1.22-9.405 2.148-18.325.928-23.663-1.118-4.892-2.196-11.56-1.89-16.98.188-3.324 1.476-5.793 1.89-8.23 1.444-8.5-4.461-12.11-5.131-18.723-.46-4.55 3.987-8.48 7.451-12.364 3.802-4.262 6.442-3.153 11.87-.315 2.236 1.17 3.599.605 5.603-.802 2.087-1.466 2.984 3.248 5.262 1.89 5.31-3.162 7.105-1.293 10.986-1.647 3.236-.295 7.816-2.693 11.13-3.301 5.96-1.095 9.93-3.722 9.59-13.92-2.992-.242-4.396 1.632-9.59-1.547 1.568-5.28-3.35-.36-8.042-8.97-2.861 2.22-7.123 5.256-9.28 3.712-4.04-2.894-7.485 4.813-12.037-1.824-2.999 4.84-4.997.43-7.759.587-2.34.132-3.747 4.46-11.445 2.474 4.14-1.708 6.27-4.17 7.115-7.114 4.662 1.066 8.13-.852 11.15-3.89 3.005 7.818 14.72-.204 22.411 5.591 4.063-4.66 16.033 1.345 16.394-5.104.222-3.961 3.72-6.282 1.701-10.517-1.52-3.19-4.387-2.407-7.114-2.01.29-7.267-3.738-6.682-7.888-5.877-1.353-7.064-8.268-3.161-12.991 1.546 7.855-13.983-4.254-3.824-7.27-4.949-2.706-1.01-5.159 1.554-7.738 3.338-1.75-5.555-5.565-3.33-8.655-1.327-2.919 1.891-8.298.635-11.29.309 1.568-4.507 8.088-4.256 8.97-6.96-1.672-3.169-3.376-3.684-5.568-1.546-5.15 5.022-8.305 5.988-7.578-1.547-6.234.167-12.513-.786-13.92 3.403-3.35-1.033-5.382-6.641-10.053-3.094-1.807 1.373 2.782 5.395 1.547 6.96-1.308 1.656-5.945.024-9.045.412-2.31.289-1.094 5.673.004 8.288-3.392-2.074-1.463-6.4-3.088-8.46-1.362-1.726-4.732-1-6.216-1.5-3.24-1.088-5.378-3.073-7.174-2.761-4.24.736-6.004-.313-10.053 2.938-5.635 4.525-11.79 8.8-16.394 10.363-3.617 1.228-.187 3.01.628 5.918.451 1.61-.3 4.019.3 5.372 2.292 5.176 11.442-1.435 13.92 7.578 1.296-3.066 5.046-10.002 10.516.155-.608-3.41 6.892-8.026 8.832-1.17 1.875.284 3.624.316 5.088-.222 6.4-4.44 10.096-2.674 14.847 5.259-4.588-.86-9.176-.59-13.765-3.712-5.207-.641-10.414-.027-15.62 1.392-5.812-1.94-11.959-.751-16.24 4.64-4.176.103-6.856 3.608-6.032 7.733-3.427 5.439-.423 4.811 3.016 6.142 2.23.862 2.009 4.883 6.728 4.375 3.92-.423 2.168 4.397 8.352 3.557 6.411-.871 17.149-2.54 23.818-3.867 4.504-.896 11.131 5.255 13.3 9.125 2.52 4.496.565 11.03 1.392 16.24.479 3.013-2.875 7.27-3.125 11.133-.196 3.033 1.677 5.453 1.888 9.746.658 13.36.3 26.031.155 39.438-.062 5.627-4.616 10.486-8.816 7.424-5.6-4.084-7.653-3.088-11.445-.31-4.408 3.232-7.912 8.414-14.074 7.889 5.516 4.462 12.27 3.247 16.549-1.392-2.203 4.528-2.85 10.755-9.28 10.671 6.882 1.646 10.011.524 13.92-4.33 2.364-2.937 8.956 1.77 15.62-5.104z" transform="translate(-270 -291.5)"/><path style="fill:#0f47af;stroke:#000;stroke-width:2.5;stroke-linecap:round;stroke-linejoin:round;stroke-miterlimit:4;stroke-dasharray:none;stroke-opacity:1" d="m678.189 394.076 8.506-5.877c4.846-1.34 15.256-.803 16.085-5.877.956-5.859-4.226-3.556-5.413-11.6-.505-3.416-4.48-5.27-8.816-3.557-1.123.444-2.78-3.721-4.643-5.25-9.048 2.715-11.847-2.595-17.474-3.256-6.295-.74-13.473 1.837-17.786 2.165-3.812.29-7.662 3.852-12.373 7.27-2.379 1.725-1.853 3.238-3.242 5.262-2.147 3.127-4.684 6.27-4.181 7.883 1.548 4.97 4.755 2.196 8.04 2.537 2.09.218 2.644 4.874 6.189 4.114 2.324-.5 2.954-3.37 7.114-1.856 5.466 1.988 2.082 4.134 1.392 6.186-.392 1.167-7.453 4.557-11.136.464-1.602-1.78-3.577-3.501-4.794-2.01-2.067 2.531-3.864 2.547-5.568.928-3.145-2.99-4.669-.222-6.805 2.474-1.547 1.953-5.962 3.968-9.59 6.187-3.662 2.24-2.455 8.942.31 10.826 2.61 1.778 5.85 4.566 8.197 8.816 2.475-4.031 6.619-4.477 7.424-1.547.921 3.352 4.496 1.541 6.032.619 2.565-1.541 4.537-3.377 6.805-.464 4.17-1.34 7.906-4.44 13.765-2.01 3.315 1.374 8.699 2.752 13.3 2.319 3.018-2.793 6.426-4.078 3.545 3.593 2.422-4.858 6.276-7.089 6.663-9.315-1.073 6.212.945 10.11 10.362 5.722 1.634-.76 1.103 2.73 5.44 3 1.545.097 3.2.412 5.387-.525 3.185-1.422 6.469 1.135 8.506 2.01 1.344-6.515 8.272-3.578 7.578-10.98-.26-2.787 3.225-2.374 3.974-5.007.517-1.82-.574-4.862-1.19-6.748-1.511-4.632-6.103-2.83-8.97-4.485-2.253-1.3-2.296-4.565-6.032-3.712-1.981.453-4.314 2.274-6.65 2.165-1.515-.07-2.478-3.731-4.795-3.712-1.603.014-3.205 1.135-5.877 2.939-3.159 2.133-5.265 2.192-9.28.31z" transform="translate(-270 -291.5)"/><path style="fill:#fcdd09;stroke:#000;stroke-width:2.5;stroke-linecap:round;stroke-linejoin:round;stroke-miterlimit:4;stroke-dasharray:none;stroke-opacity:1" d="M658.392 459.653c11.309-.597 6.209 12.251 1.237 11.6.467 3.735-2.411 5.382-4.949 6.65-2.165-.51-4.33-4.498-6.496-7.579 3.663.779 7.57 2.044 10.053.464 1.263-4.923 2.145-9.465.155-11.135zM667.362 481.15c-.37-3.177-3.386-6.812 0-10.98 3.54 2.822 7.447 3.804 12.219.463-.257 4.185.724 4.026-1.547 7.115-4.759 6.474-7.138-.668-6.032-4.795-3.464.276-3.65 6.947-4.64 8.197zM673.085 452.693c1.34-6.956-1.612-7.332-4.64-9.125-.478 2.214-1.086 3.904-.773 9.28 2.01 2.297 3.402-.256 5.413-.155zM656.536 445.733c-3.536 2.255-4.77 1.632-6.805 2.01.124 2.697 2.217 4.408 4.794 5.878 2.363-1.4 1.936-4.582 2.011-7.888zM659.784 383.869c1.609 1.098 1.174 5.058.773 8.97-1.598-1.55-3.815-1.812-5.413-6.341 1.591-2.034 3.457-2.227 4.64-2.63zM665.97 383.405c2.052.819 4.763 4.996.619 8.97-5.962-2.07-2.727-9.812-.619-8.97zM675.25 385.57c1.542 3.733.694 7.727-5.104 8.197.607-3.449 1.762-8.656 5.104-8.197z" transform="translate(-270 -291.5)"/><path style="fill:none;stroke:#000;stroke-width:2.5;stroke-linecap:round;stroke-linejoin:round;stroke-miterlimit:4;stroke-dasharray:none;stroke-opacity:1" d="M671.338 453.15c5.01-1.109 10.174-5.14 13.656-1.385-.825-3.945-8.35-2.579-12.533-5.497m1.242-17.393c-3.336-.666-6.576.228-9.622 4.216m-7.545 12.642c3.008-2.318 8.255.747 8.352-9.125.057-5.84-5.185-7.123-8.97-7.733-3.362-.541-6.015-.727-8.856-2.736" transform="translate(-270 -291.5)"/><path style="fill:none;stroke:#000;stroke-width:1.5;stroke-linecap:round;stroke-linejoin:round;stroke-miterlimit:4;stroke-dasharray:none;stroke-opacity:1" d="M671.61 585.958c.443 1.492.385 2.594-1.773 2.063m-.31-64.957c.132 3.13 1.044 5.724-.154 10.671-1.224 5.056-.46 5.403.155 7.888.357 1.443-.395 4.681-1.019 7.352-.563 2.412-.504 4.607-.219 7.34.461 4.422 1.538 10.343.253 14.24m.83-81.354c-.577 1.598.48 3.961-2.165 5.56.898 1.915 1.87 4.35.98 7.86-1.247 4.93.156 7.002-.671 10.699m56.451-45.006c-.865 1.185-2.563 2.371-1.546 3.557m-7.67-2.128c-.23.94-.817 1.701-.527 2.901m3.447-11.128c.004 1.577-.068 3.667 1.275 3.904m-15.858.11c.832 2.455 2.434 3.948 2.23 7.698m-8.88-5.997c-1.694 1.577-3.618 2.77-4.486 5.722m-5.567-.154c-1.57.996-3.456 1.874-2.784 3.712m-10.981-16.24c-.139.809-.61 1.552-1.91 2.072m-21.588 7.808c-2.113.182-5.08-2.593-4.805-4.621m-5.413 1.856c.154 2.227-.534 4.791.928 6.495m-7.733-12.063c-.052 2.065 1.446 2.27 2.802 2.645m-6.05 4.16c.223 1.983-.312 3.36-1.547 4.176m-7.269 3.712c-1.008 1.44-2.044 2.867-1.347 5.16m-.509-8.872c-1.92-2.744-4.53-.667-6.805-.928-1.367-.157-2.471-2.399-3.557-4.795m107.18-22.116c-.722-.732-1.444-.193-2.165-2.475m9.743 3.712c-1.598-3.887-3.196-3.815-4.794-5.722m7.424-1.392c2.752-.271 3.617 1.974 3.757 5.186m-17.677-9.672c1.02 2.148 1.56 1.417 2.32 2.011m-14.229-.773c2.253-.543 4.189-.24 5.568 1.546m-28.303-1.856c-.844 1.048-1.935 2.014-1.098 3.622m23.222 6.514c3.052-1.733-3.617-1.725-6.349-3.95-3.36-2.735-6.825-6.167-11.445-2.01m-24.127.099c-.502-.652-1.068-1.252-.154-3.037m-8.043 4.949c-.4-2.242-1.049-3.985-2.32-4.485m-6.96 6.65c-.401-3.369-3.374-2.826-4.047-5.843m-25.338 4.606c-2.454-.265-5.076.811-7.269-1.547m17.167 2.939c-1.288.046-2.577.795-3.866-.773m11.826-10.435c.337-2.867-1.87-2.693-2.856-4.104-1.622-2.322 2.296-2.868 3.867-4.02m-2.63-17.632c.494 2.486-.125 3.58-.773 4.64m8.352-4.486c.36 1.938.465 3.723-.619 4.795m18.405-4.176c-1.365-.38-2.48.995-3.557 2.63m17.476-13.61c-1.498.561-3 1.109-4.783-.038m13.599 6.378c-1.859-1.036-2.682-.004-3.712.619m-6.496 7.578c-.114-2.874-1.059-2.839-1.7-3.866m25.364 2.784c.968.537.796 2.481.89 4.768m13.493-2.139c3.767-.01 6.949 1.734 8.97 6.96m-9.898-12.064c-1.65-.41-3.3-1.276-4.95-3.712m12.29 6.67c.597-3.856-.103-4.474-.626-5.532m3.03-4.386c-1.347 2.308-2.372 5.258-5.104 4.795-1.76.507-1.94-2.936-2.63-5.104-.277-3.662-3.095-4.362-4.949-6.186m-4.485 5.103c-1.807-1.023-3.68-1.848-4.64-5.413m-5.103 7.888c-2.28-1.851-4.855-2.97-6.032-7.578m-47.481 6.031c1.613-.522 2.767-1.351 6.032-.773m7.733-19.023c-2.026-.976-3.378-2.626-3.656-5.35m6.749-.373c-.646-.63-1.264-1.07-2.192-3.674m9.472-3.493c-1.028-1.28-2.516-1.642-4.123-1.765m10.608 7.54c-.725 5.408-5.193 6.061-9.053 3.12m13.538-6.522c.688 1.167-.284 4.734.928 6.341m23.2-3.557c.164 2.412 1.141 4.013 2.164 5.568m-10.188-10.28c1.203.9 1.687 2.28 1.154 3.573m-5.968-6.44c.745 3.908-.437 3.645-2.165 4.339-2.936 1.179-.951 6.504 2.01 6.295 3.19-.224 6.04 3.785 8.246 4.606m-22.938-16.94c3.266-.06 6.368-.514 8.197-4.022" transform="translate(-270 -291.5)"/></svg>