<!-- Created with Inkscape (http://www.inkscape.org/) -->
<svg xmlns:rdf="http://www.w3.org/1999/02/22-rdf-syntax-ns#" xmlns="http://www.w3.org/2000/svg" height="493" width="426" version="1.1" xmlns:cc="http://creativecommons.org/ns#" xmlns:xlink="http://www.w3.org/1999/xlink" xmlns:dc="http://purl.org/dc/elements/1.1/">
 <defs></defs>
 <metadata>
  <rdf:RDF>
   <cc:Work rdf:about="">
    <dc:format>image/svg+xml</dc:format>
    <dc:type rdf:resource="http://purl.org/dc/dcmitype/StillImage"/>
    <dc:title/>
   </cc:Work>
  </rdf:RDF>
 </metadata>
 <g transform="translate(0,21)">
  <g transform="translate(-1,0)">
   <path fill="#da121a" d="m7-15,412,0,0,292c0,94.35-89.47,189-208.57,189s-203.39-94.38-203.43-189z"/>
   <path d="M5.8449,189.74,213.73-11.749,420.14,198.34c-1.6034,50.554,5.2286,99.893-15.714,146.51l-191.74-195.24-196.62,189.05c-13.927-43.08-9.9304-108.7-10.229-148.92z" fill="#fcdd09"/>
   <path d="m196.47,185.67,57.272-0.79825-0.91765,41.741c-24.71-8.5027-36.184-20.005-56.355-40.943z" transform="matrix(0.70469322,0.70951213,-0.70951213,0.70469322,0,0)" fill="#0f47af"/>
   <path d="m490.38-102.1c19.361,17.76,27.416,28.99,39.543,57.961l-42.476-1.2083z" transform="matrix(0.70469322,0.70951213,-0.70951213,0.70469322,0,0)" fill="#0f47af"/>
   <rect id="rect3774-1" width="57.542" transform="matrix(0.69819981,0.71590295,-0.71590295,0.69819981,0,0)" height="57.542" y="-162.71" x="199.68" fill="#0f47af"/>
   <path fill="#0f47af" d="m416.71,193.84c3.3078,23.007,2.2762,57.694,1.6185,82.5l-42.813-42.324z"/>
   <use xlink:href="#rect3774-1" transform="translate(-82.553597,80.177286)" height="497" width="427" y="0" x="0"/>
   <use xlink:href="#rect3774-1" transform="translate(80.349923,82.387228)" height="497" width="427" y="0" x="0"/>
   <use xlink:href="#rect3774-1" transform="translate(-1.016634,81.369619)" height="497" width="427" y="0" x="0"/>
   <use xlink:href="#rect3774-1" transform="translate(79.337536,163.41782)" height="497" width="427" y="0" x="0"/>
   <use xlink:href="#rect3774-1" transform="translate(-81.309971,-0.81663578)" height="497" width="427" y="0" x="0"/>
   <use xlink:href="#rect3774-1" transform="translate(-163.73613,79.433842)" height="497" width="427" y="0" x="0"/>
   <use xlink:href="#rect3774-1" transform="translate(-164.76353,160.59198)" height="497" width="427" y="0" x="0"/>
   <path fill="#0f47af" d="M9.7137,188.98,49.889,230.17,8.695,270.35z"/>
   <path stroke-linejoin="round" d="m199.99,267.19c7,12,3,19-4,10-8.4996-10.928-23.674,6.2653-5,10,10,2,0.0868,18.166-8.6639,12.131-15.664-10.803-25.862,7.1002-9.2622,9.5328,8.6669,1.2701,6.7294,8.8033,1.1228,7.5328-20.106-4.5562-10.964,13.547-2.3323,8.6932,8.3814-4.7133,8.5553,4.9145-0.86441,7.1101-16,3.7294-2.9153,14.557,8.5508,7.6393,8.544-5.1548,13.449,7.3607,10.449,13.361-7.0977,14.195-28,5-36-10-9,13-18.688,31.182-31,24-12.312-7.1822-11.66-21.38-0.507-16.415,12.31,5.4802,22.507-12.585,6.3933-9.0572-9.764,2.1379-15.977-4.3637-5.8606-5.3278,10.95-1.0434,4.9087-16.34-3.1967-7.9917-12.133,12.497-18.886,6.5208-8.5244-3.1967,10.55-9.8941-6.0997-18.881-8.5245-3.1967-2.8512,18.442-10.846,10.914-8.928-8.4598,1.1249-11.364-28.148-11.938-16.113,6.3287,4.3654,6.6259,6.8151,14.544,2.6639,23.975-5.3847,12.234,5.984,21.04,13.319,30.368,8.4224,10.71,6.237,27.023,16.516,34.631,14.516,10.743,52.908,17.341,103.3,17.478,50.395-0.13784,88.786-6.7364,103.3-17.479,10.279-7.6073,8.0938-23.92,16.516-34.631,7.3355-9.328,18.704-18.134,13.319-30.368-4.1512-9.4314-1.7015-17.349,2.6639-23.975,12.035-18.267-17.237-17.692-16.113-6.3287,1.9178,19.374-6.0768,26.902-8.928,8.4598-2.4248-15.684-19.075-6.6974-8.5245,3.1967,10.362,9.7174,3.6087,15.693-8.5244,3.1967-8.1053-8.3481-14.146,6.9482-3.1967,7.9917,10.117,0.96408,3.9034,7.4656-5.8606,5.3278-16.114-3.5281-5.917,14.537,6.3933,9.0572,11.153-4.9649,11.805,9.2325-0.507,16.415-12.312,7.1822-22-11-31-24-8,15-28.902,24.195-36,10-3-6,1.9053-18.516,10.449-13.361,11.466,6.9178,24.551-3.9099,8.5508-7.6393-9.4197-2.1956-9.2458-11.823-0.86441-7.1101,8.6318,4.8541,17.773-13.249-2.3323-8.6932-5.6067,1.2706-7.5441-6.2626,1.1228-7.5328,16.599-2.4326,6.4017-20.336-9.2622-9.5328-8.7507,6.0353-18.664-10.131-8.6639-12.131,18.674-3.7347,3.4996-20.928-5-10-7,9-11,2-4-10,4.5899-7.8685-3.7271-12.849-13.541-12.711-9.8143-0.1369-18.131,4.8434-13.541,12.712z" stroke="#000" stroke-linecap="round" stroke-miterlimit="4" stroke-dasharray="none" stroke-width="3" fill="#fcdd09"/>
   <path id="path4231" stroke-linejoin="round" d="m223.02,335.01c0,4.1613-3.8794,7.5346-8.6648,7.5346s-8.6648-3.3734-8.6648-7.5346,3.8794-7.5346,8.6648-7.5346,8.6648,3.3734,8.6648,7.5346z" transform="matrix(0.89050463,0,0,1.0240803,22.65613,-39.060551)" stroke-dashoffset="0" stroke="#000" stroke-linecap="round" stroke-miterlimit="4" stroke-dasharray="none" stroke-width="2.82734418" fill="#0f47af"/>
   <use xlink:href="#path4231" transform="translate(-57.616448,69.220871)" height="497" width="427" y="0" x="0"/>
   <use xlink:href="#path4231" transform="translate(57.227461,69.220417)" height="497" width="427" y="0" x="0"/>
   <path stroke-linejoin="round" d="m121.05,379.95-24.836-2.8576c-0.013,0.026,6.5838,22.58,7.6484,21.012z" stroke="#000" stroke-linecap="round" stroke-miterlimit="4" stroke-dasharray="none" stroke-width="3" fill="#0f47af"/>
   <path stroke-linejoin="miter" d="m114.99,410.89c61.915-21.712,136.04-21.463,197.68,0.74762m-203.66-4.8087c65-25,145-25,210,0m84.95-62.82-190.78-194.03-194.67,188.83m-11.319-148.04,206.52-202.58,204.11,208.32m-411.77,77.07,208.77-203.71,204.49,207.56m-409.67-88.86,78.653,80.64m-38.061-120.76,78.65,80.63m-36.997-120.21,78.657,80.63m-37.26-121.02,80.24,81.715m80.903-78.65-80.898,78.117m121.02-36.993-80.109,79.19m120.5-38.329-80.109,79.19m120.23-38.065-80.109,79.19m82.305,0.74368-41.915,39.851m-328.16-4.05-41.101-42.31m250.19-239.16-43.27,42.772m-39.236-43.866,42.482,43.554" stroke="#000" stroke-linecap="butt" stroke-miterlimit="4" stroke-dasharray="none" stroke-width="3" fill="none"/>
   <path stroke-linejoin="round" d="m306.73,379.68,24.836-2.8576c-2.2114,2.6951-8.7271,25.268-7.6484,21.012z" stroke="#000" stroke-linecap="round" stroke-miterlimit="4" stroke-dasharray="none" stroke-width="3" fill="#0f47af"/>
   <path stroke-linejoin="round" d="m191.1,368.22,22.164-11.566,22.551,10.791-22.164,11.566z" stroke="#000" stroke-linecap="round" stroke-miterlimit="4" stroke-dasharray="none" stroke-width="3" fill="#0f47af"/>
   <path stroke-linejoin="miter" d="m7-15,412,0,0,292c0,94.35-89.47,189-208.57,189s-203.39-94.38-203.43-189z" stroke="#000" stroke-linecap="butt" stroke-miterlimit="4" stroke-dasharray="none" stroke-width="6" fill="none"/>
  </g>
 </g>
</svg>
