<?xml version="1.0" encoding="UTF-8"?>
<svg width="540" height="670" viewBox="0 0 142.88 177.27" xml:space="preserve" xmlns="http://www.w3.org/2000/svg"><path d="M140.03 58.07c0 63.566-23.411 98.886-68.595 116.15C26.486 156.89 2.839 121.634 2.839 58.07V2.97h137.19z" fill="#0093dd"/><g stroke="#000"><path d="M104.69 9.875c-2.155 0-3.894 1.802-3.894 3.967 0 .132.086.229.1.357-.08-.005-.14-.058-.22-.058-2.154 0-3.906 1.796-3.906 3.964s1.756 3.956 3.906 3.956c.289 0 .51-.181.782-.243v13.08h-13.1c.067-.284.261-.514.261-.818 0-2.15-1.786-3.9-3.953-3.9-2.166 0-3.967 1.745-3.967 3.9 0 .082.056.146.061.227-.128-.013-.228-.1-.36-.1-2.162 0-3.964 1.734-3.964 3.889s1.798 3.9 3.965 3.9c.135 0 .234-.09.365-.103-.006.086-.067.152-.067.24 0 2.155 1.805 3.888 3.967 3.888 2.163 0 3.953-1.738 3.953-3.888 0-.308-.196-.54-.265-.828h13.104V54.44c-.285-.069-.512-.262-.817-.262-2.15 0-3.9 1.788-3.9 3.955s1.746 3.965 3.9 3.965c.082 0 .145-.054.225-.059-.013.128-.1.227-.1.358 0 2.162 1.734 3.966 3.889 3.966s3.9-1.8 3.9-3.966c0-.136-.09-.234-.103-.366.087.006.154.067.242.067 2.154 0 3.889-1.802 3.889-3.965s-1.738-3.955-3.889-3.955c-.309 0-.541.198-.83.267v-13.14h13.156c-.076.3-.283.542-.283.865 0 2.15 1.792 3.888 3.955 3.888 2.162 0 3.965-1.734 3.965-3.888 0-.088-.059-.156-.065-.242.131.013.229.103.364.103 2.166 0 3.966-1.745 3.966-3.9s-1.802-3.895-3.966-3.895c-.132 0-.23.087-.358.1.005-.079.059-.14.059-.219 0-2.154-1.796-3.906-3.965-3.906-2.169 0-3.955 1.755-3.955 3.906 0 .289.18.51.242.781h-13.113v-13.12c.3.075.541.282.863.282 2.15 0 3.889-1.79 3.889-3.953 0-2.162-1.734-3.966-3.889-3.966-.087 0-.154.058-.24.064.014-.13.104-.228.104-.363 0-2.165-1.744-3.96-3.895-3.963l-.006-.002a.893.893 0 0 0-.002-.002z" fill="#fff" stroke-linejoin="bevel" stroke-width="1.323"/><path d="m2.84 2.97-.001 38.506 104.273 111.198c9.143-8.532 16.411-18.85 21.769-31.195L17.754 2.97H2.84z" fill="#fcdb00" stroke-linecap="round" stroke-linejoin="bevel" stroke-miterlimit="0" stroke-width="1.323"/><path d="M140.03 58.07c0 63.566-23.411 98.886-68.595 116.15C26.486 156.89 2.839 121.634 2.839 58.07V2.97h137.19z" fill="none" stroke-width="2.646"/></g></svg>
