<svg id="Ebene_1" data-name="Ebene 1" xmlns="http://www.w3.org/2000/svg" viewBox="0 0 207.53 253.14"><defs><style>.cls-1{fill:#e30613;}.cls-1,.cls-2,.cls-3,.cls-4{fill-rule:evenodd;}.cls-2{fill:#1d1d1b;}.cls-3{fill:#dadada;}.cls-4{fill:#d7b46a;}</style></defs><path class="cls-1" d="M139,258.23c-1.15-2.4-4.08-4-6.54-4.51-2.8-.57-5.22-.5-7.22,1.71a8.3,8.3,0,0,0-1.81,5.83,101.33,101.33,0,0,0,15.57-3Z" transform="translate(-8 -10.74)"/><path class="cls-2" d="M163.43,76.62c7.2-13.85,7.88-28.25.17-40.94-6.71,12.79-8.24,27.63-.17,40.94ZM165.59,83c6.21-14.32,16.95-23.93,31.66-26C191.56,70.32,181,80.87,165.59,83Zm-5,0C154.42,68.68,143.68,59.07,129,57c5.69,13.28,16.25,23.83,31.67,26Zm0,25.09c-6.21-14.32-16.95-23.93-31.67-26,5.69,13.28,16.25,23.82,31.67,26Zm5,0c6.21-14.32,16.95-23.93,31.66-26-5.69,13.28-16.24,23.82-31.66,26ZM102,261.47c.28-2.48.39-5.78-1.2-7.54-1.91-2.11-5.26-1.82-7.78-1.32-3,.6-6.58,2.81-7,6a101.51,101.51,0,0,0,16,2.82Zm-2.27,1.72A103.8,103.8,0,0,1,8,160.12H8V10.74H215.53V160.12A103.78,103.78,0,0,1,111.76,263.88c-1.86,0-3.71-.05-5.55-.14-2.44-.13-4-.27-6.46-.55Zm59.81-50.37V170a72.1,72.1,0,0,1-7,6.86,74.13,74.13,0,0,0-13.86,16,26,26,0,0,0-4.09,12.1l-.11,7.82Zm0,34.79V214.77H134.43l-.09,6.28c-.11,7.51.61,10.55,6.48,15.58,5.34,4.56,12.19,8.1,18.74,11ZM10,112H58.52V65H10v47ZM58.52,246.9V214.77H25.86A102.26,102.26,0,0,0,58.52,246.9Zm6.8,3.83A34.16,34.16,0,0,1,72.74,246c2.93-1.57,6.31-3.32,8.43-6,4-5,7.65-10.94,9.3-17.2a44.75,44.75,0,0,0,1.29-8H60.47v33.3c1.59.93,3.2,1.82,4.85,2.66Zm94.24-.7v-.29c-7-3-14.3-6.75-20-11.63-6.34-5.42-7.28-9-7.16-17.09q.12-8,.23-16.09A28.08,28.08,0,0,1,137,191.88a75.67,75.67,0,0,1,14.22-16.44c3-2.72,6.69-5.8,8.74-9.31,3.17-5.41,2.62-11.1,2.65-17.11,0-7.88,0-15.76,0-23.65q-.27,6.9-.58,13.8a76.52,76.52,0,0,1-2,15.38c-1.8,6.94-6,13.67-12.52,17.07-3.45,1.8-9.31,3.27-12.77.87-3-2.09-3.29-4.75-3.22-8.14.05-2.11.59-13.51,0-16.9-.78,1.5-1.91,4.66-2.19,5.42-.6,1.6-2.27,6.87-4.15,7.23-3,.59-3.18-5.51-4.16-5.45s-.74,4.85-3.15,5.84c-2.56,1.06-4.54-1.6-5.86-1.5a.74.74,0,0,0-.14,0c-.16.2-.33.79-.51,1.08a2.5,2.5,0,0,1-2.31,1.15,2.29,2.29,0,0,1-1.37-.42c-1.43-1-1.39-3.05-1.86-3.82-.71.71-1.11,4-3.39,4.3-1.31.15-2.14-1.61-2.59-2.57-.72-1.52-1.32-3.13-1.93-4.69a34.55,34.55,0,0,0-2.63-5.71c-.8,2.14-.91,11.13-.94,12.85C94.06,175.79,94,190.38,94,205c0,6.15,0,12.35-1.59,18.34-1.72,6.53-5.45,12.71-9.67,17.93-2.33,2.88-5.82,4.73-9,6.44a37.09,37.09,0,0,0-6.46,4,100.84,100.84,0,0,0,17,6.47c.67-4,4.77-6.69,8.5-7.44,3.29-.66,7.17-.79,9.61,1.92,2.08,2.29,2,6,1.7,9q3.87.28,7.8.29,4.93,0,9.75-.47a10.25,10.25,0,0,1,2.31-7.34c2.48-2.74,5.56-3,9.06-2.32,3.22.65,6.71,2.77,8,5.89A101.55,101.55,0,0,0,159.56,250Zm38.12-35.26H161.51v33.69l.38.16.13,0a102.38,102.38,0,0,0,35.66-33.9Zm-44.51-50.52H133.43v.14c-.05,2.68,0,4.84,2.38,6.5,2.78,1.91,8,.43,10.75-1a20.52,20.52,0,0,0,6.61-5.64Zm-60.85,0H60.47v48.57H91.88c.13-2.61.13-5.24.12-7.85,0-13.57.1-27.15.32-40.72ZM60.47,162.3H92.35l0-1.14.06-2.76c.06-2.51.14-5.08.41-7.58.14-1.23.4-4,1.77-4.55s2.49,1.21,3,2.26a45.69,45.69,0,0,1,2.07,4.82c.35.88,1.9,5.05,2.66,6,.88-.58,1.28-4.23,3.42-4.33,2.5-.11,2,4.33,3.24,4.33h0v-45.4H60.47V162.3ZM10,164.25,10,162.3H58.52V113.91H10v46.21a101.23,101.23,0,0,0,14.7,52.7H58.52V164.25Zm194.34,38.22-40.88-39.62a19.56,19.56,0,0,1-1.86,4.27l-.12.2v45.5h37.38a100.13,100.13,0,0,0,5.48-10.35ZM60.46,63,10,14.05V63H60.46ZM111,112,60.47,63V112H111Zm46.28,44.84L111,112v45.27a2.59,2.59,0,0,1,.85-.2c1.94-.16,3.93,2.19,5.28,1.64s.7-5.8,3.77-6c2.88-.18,3,4.85,3.88,5.46.78-.69,2.38-5.06,2.72-6,.59-1.57,1.16-3.19,1.85-4.72.43-.95,1.21-2.76,2.5-2.62a.92.92,0,0,1,.58.21c1.2.8,1.23,3.95,1.27,5.23.09,2.84,0,5.73-.1,8.57,0,1.15-.07,2.29-.11,3.44h21.07a28.07,28.07,0,0,0,2.7-5.5Zm7.25-.48v0c15.42-2.14,26-12.69,31.66-26-14.71,2-25.45,11.63-31.66,25.95Zm-6.24-24.53c-6.21-14.32-16.95-23.93-31.66-26,5.69,13.28,16.24,23.82,31.66,26Zm7.33,0c6.21-14.32,16.95-23.93,31.66-26-5.69,13.28-16.24,23.82-31.66,26Zm-.43-54.27c7.24-13.92,8.43-29.14.11-42.86l-1.79-2.95-1.61,3.06c-7.21,13.75-8.37,29.23-.11,42.87l.71,1.17V79l-.13,3c-6.26-14.3-17.28-24.74-33.1-26.92l-3.42-.47,1.36,3.17c6.12,14.28,17.4,24.94,33.19,27.13l1.83.25q-.42,10-.79,19.91C155,91.84,144.3,82.28,129.23,80.2l-3.42-.47,1.36,3.17c6.12,14.27,17.4,24.94,33.19,27.13l.85.11q-.41,10.8-.84,21.6l-.32-.72c-6.24-14.41-17.29-24.93-33.19-27.12l-3.42-.48,1.36,3.18c6.12,14.27,17.41,24.93,33.19,27.12l2.28.32c-.07,1.68-.15,3.36-.22,5a74,74,0,0,1-2,15l-.18.68L11.35,12.69H213.58V160.14a101.34,101.34,0,0,1-8.36,40.44L164,160.66c.14-.78.25-1.55.33-2.33l.4-.06c15.79-2.19,27.07-12.85,33.19-27.13l1.37-3.17-3.43.47c-14.42,2-24.86,10.85-31.33,23.24,0-.87,0-1.75,0-2.65q0-7.56,0-15.13l1.3-.18c15.78-2.19,27.07-12.85,33.19-27.12l1.36-3.18-3.42.48c-15.28,2.1-26.08,11.91-32.44,25.45q0-9.55-.09-19.13l1.4-.19c15.78-2.19,27.07-12.86,33.19-27.13l1.36-3.17L197,80.2c-15.37,2.12-26.21,12-32.55,25.69q0-10.38,0-20.75l1.46-.2c15.78-2.19,27.07-12.85,33.19-27.13l1.36-3.17-3.42.47c-15.39,2.12-26.25,12.06-32.58,25.76V79l.75-1.45ZM139,258.23c-1.15-2.4-4.08-4-6.54-4.51-2.8-.57-5.22-.5-7.22,1.71a8.3,8.3,0,0,0-1.81,5.83,101.33,101.33,0,0,0,15.57-3Z" transform="translate(-8 -10.74)"/><path class="cls-1" d="M160.63,83C154.42,68.68,143.68,59.07,129,57c5.69,13.28,16.25,23.83,31.67,26Zm2.8-6.38c7.2-13.85,7.88-28.25.17-40.94-6.71,12.79-8.24,27.63-.17,40.94ZM165.59,83c6.21-14.32,16.95-23.93,31.66-26C191.56,70.32,181,80.87,165.59,83Zm-1.09,73.32v0c15.42-2.14,26-12.69,31.66-26-14.71,2-25.45,11.63-31.66,25.95Zm1.09-24.53c6.21-14.32,16.95-23.93,31.66-26-5.69,13.28-16.24,23.82-31.66,26Zm-7.33,0c-6.21-14.32-16.95-23.93-31.66-26,5.69,13.28,16.24,23.82,31.66,26Zm2.37-23.7c-6.21-14.32-16.95-23.93-31.67-26,5.69,13.28,16.25,23.82,31.67,26Zm5,0c6.21-14.32,16.95-23.93,31.66-26-5.69,13.28-16.24,23.82-31.66,26Z" transform="translate(-8 -10.74)"/><path class="cls-3" d="M10,112H58.52V65H10v47ZM10,164.25h0a101.16,101.16,0,0,0,14.62,48.56H58.52V164.25H10Zm55.29,86.48A34.16,34.16,0,0,1,72.74,246c2.93-1.57,6.31-3.32,8.43-6,4-5,7.65-10.94,9.3-17.2a44.75,44.75,0,0,0,1.29-8H60.47v33.3c1.59.93,3.2,1.82,4.85,2.66ZM60.47,162.3H92.35l0-1.14.06-2.76c.06-2.51.14-5.08.41-7.58.14-1.23.4-4,1.77-4.55s2.49,1.21,3,2.26a45.69,45.69,0,0,1,2.07,4.82c.35.88,1.9,5.05,2.66,6,.88-.58,1.28-4.23,3.42-4.33,2.5-.11,2,4.33,3.24,4.33h0v-45.4H60.47V162.3Zm99.09,50.52V170a72.1,72.1,0,0,1-7,6.86,74.13,74.13,0,0,0-13.86,16,26,26,0,0,0-4.09,12.1l-.11,7.82Zm-6.39-48.57H133.43v.14c-.05,2.68,0,4.84,2.38,6.5,2.78,1.91,8,.43,10.75-1a20.52,20.52,0,0,0,6.61-5.64Zm44.51,50.52H161.51v33.69l.38.16.13,0a102.38,102.38,0,0,0,35.66-33.9ZM102,261.47c.28-2.48.39-5.78-1.2-7.54-1.91-2.11-5.26-1.82-7.78-1.32-3,.6-6.58,2.81-7,6a101.51,101.51,0,0,0,16,2.82Z" transform="translate(-8 -10.74)"/><path class="cls-1" d="M10.1,162.3H58.52V113.91H10v46.21c0,.73,0,1.46,0,2.18Zm48.42,84.6V214.77H25.86A102.26,102.26,0,0,0,58.52,246.9Zm33.8-82.65H60.47v48.57H91.88c.13-2.61.13-5.24.12-7.85,0-13.57.1-27.15.32-40.72Zm67.24,83.36V214.77H134.43l-.09,6.28c-.11,7.51.61,10.55,6.48,15.58,5.34,4.56,12.19,8.1,18.74,11Zm44.81-45.14-40.88-39.62a19.56,19.56,0,0,1-1.86,4.27l-.12.2v45.5h37.38a100.13,100.13,0,0,0,5.48-10.35ZM157.25,156.8,111,112v45.27a2.59,2.59,0,0,1,.85-.2c1.94-.16,3.93,2.19,5.28,1.64s.7-5.8,3.77-6c2.88-.18,3,4.85,3.88,5.46.78-.69,2.38-5.06,2.72-6,.59-1.57,1.16-3.19,1.85-4.72.43-.95,1.21-2.76,2.5-2.62a.92.92,0,0,1,.58.21c1.2.8,1.23,3.95,1.27,5.23.09,2.84,0,5.73-.1,8.57,0,1.15-.07,2.29-.11,3.44h21.07a28.07,28.07,0,0,0,2.7-5.5ZM111,112,60.47,63V112H111ZM60.46,63,10,14.05V63H60.46Z" transform="translate(-8 -10.74)"/><path class="cls-4" d="M165.16,77.52c7.24-13.92,8.43-29.14.11-42.86l-1.79-2.95-1.61,3.06c-7.21,13.75-8.37,29.23-.11,42.87l.71,1.17V79l-.13,3c-6.26-14.3-17.28-24.74-33.1-26.92l-3.42-.47,1.36,3.17c6.12,14.28,17.4,24.94,33.19,27.13l1.83.25q-.42,10-.79,19.91C155,91.84,144.3,82.28,129.23,80.2l-3.42-.47,1.36,3.17c6.12,14.27,17.4,24.94,33.19,27.13l.85.11q-.41,10.8-.84,21.6l-.32-.72c-6.24-14.41-17.29-24.93-33.19-27.12l-3.42-.48,1.36,3.18c6.12,14.27,17.41,24.93,33.19,27.12l2.28.32c-.07,1.68-.15,3.36-.22,5a74,74,0,0,1-2,15l-.18.68L11.35,12.69H213.58V160.14a101.34,101.34,0,0,1-8.36,40.44L164,160.66c.14-.78.25-1.55.33-2.33l.4-.06c15.79-2.19,27.07-12.85,33.19-27.13l1.37-3.17-3.43.47c-14.42,2-24.86,10.85-31.33,23.24,0-.87,0-1.75,0-2.65q0-7.56,0-15.13l1.3-.18c15.78-2.19,27.07-12.85,33.19-27.12l1.36-3.18-3.42.48c-15.28,2.1-26.08,11.91-32.44,25.45q0-9.55-.09-19.13l1.4-.19c15.78-2.19,27.07-12.86,33.19-27.13l1.36-3.17L197,80.2c-15.37,2.12-26.21,12-32.55,25.69q0-10.38,0-20.75l1.46-.2c15.78-2.19,27.07-12.85,33.19-27.13l1.36-3.17-3.42.47c-15.39,2.12-26.25,12.06-32.58,25.76V79l.75-1.45ZM159.56,250v-.29c-7-3-14.3-6.75-20-11.63-6.34-5.42-7.28-9-7.16-17.09q.12-8,.23-16.09A28.08,28.08,0,0,1,137,191.88a75.67,75.67,0,0,1,14.22-16.44c3-2.72,6.69-5.8,8.74-9.31,3.17-5.41,2.62-11.1,2.65-17.11,0-7.88,0-15.76,0-23.65q-.27,6.9-.58,13.8a76.52,76.52,0,0,1-2,15.38c-1.8,6.94-6,13.67-12.52,17.07-3.45,1.8-9.31,3.27-12.77.87-3-2.09-3.29-4.75-3.22-8.14.05-2.11.59-13.51,0-16.9-.78,1.5-1.91,4.66-2.19,5.42-.6,1.6-2.27,6.87-4.15,7.23-3,.59-3.18-5.51-4.16-5.45s-.74,4.85-3.15,5.84c-2.56,1.06-4.54-1.6-5.86-1.5a.74.74,0,0,0-.14,0c-.16.2-.33.79-.51,1.08a2.5,2.5,0,0,1-2.31,1.15,2.29,2.29,0,0,1-1.37-.42c-1.43-1-1.39-3.05-1.86-3.82-.71.71-1.11,4-3.39,4.3-1.31.15-2.14-1.61-2.59-2.57-.72-1.52-1.32-3.13-1.93-4.69a34.55,34.55,0,0,0-2.63-5.71c-.8,2.14-.91,11.13-.94,12.85C94.06,175.79,94,190.38,94,205c0,6.15,0,12.35-1.59,18.34-1.72,6.53-5.45,12.71-9.67,17.93-2.33,2.88-5.82,4.73-9,6.44a37.09,37.09,0,0,0-6.46,4,100.84,100.84,0,0,0,17,6.47c.67-4,4.77-6.69,8.5-7.44,3.29-.66,7.17-.79,9.61,1.92,2.08,2.29,2,6,1.7,9q3.87.28,7.8.29,4.93,0,9.75-.47a10.25,10.25,0,0,1,2.31-7.34c2.48-2.74,5.56-3,9.06-2.32,3.22.65,6.71,2.77,8,5.89A101.55,101.55,0,0,0,159.56,250Z" transform="translate(-8 -10.74)"/></svg>