<?xml version="1.0" encoding="UTF-8" standalone="no"?>
<!-- Created with Inkscape (http://www.inkscape.org/) -->
<svg
   xmlns:svg="http://www.w3.org/2000/svg"
   xmlns="http://www.w3.org/2000/svg"
   version="1.0"
   width="545"
   height="610"
   id="svg2">
  <defs
     id="defs4" />
  <g
     id="layer1">
    <path
       d="M 240.36423,603.93637 C 130.84854,592.0395 35.08903,505.28664 12.06235,397.6838 C 1.70282,344.32969 5.8036,81.82001 5.79119,5.00081 C 183.86054,5.00081 361.92988,5.00081 539.99922,5.00081 C 539.49026,126.67372 540.36183,248.36455 538.58237,370.02295 C 527.27825,486.18957 429.99717,587.00867 314.26974,602.68654 C 289.85514,605.68074 264.88797,605.39018 240.36423,603.93637 z "
       style="fill:#fcdb00;fill-opacity:1;stroke:#000000;stroke-width:10.00160885;stroke-miterlimit:4;stroke-dasharray:none;stroke-opacity:1"
       id="path2310" />
    <path
       d="M 73.71005,453.1516 C 121.38019,452.82519 168.36522,453.13266 216.1736,453.1516 C 216.29034,453.14877 216.21982,446.39026 216.1736,446.52179 C 176.56717,446.43 123.91098,446.6592 83.76558,446.52179 C 83.74967,446.59759 83.76678,437.55611 83.76558,437.57813 C 114.82145,437.62639 185.16725,437.88263 216.22292,437.78534 C 216.22922,437.69927 216.33155,431.25856 216.22292,431.15138 C 182.65997,431.02727 117.47828,431.1458 83.67915,431.15138 C 83.5099,346.31249 83.34065,261.98765 83.17139,177.14876 C 128.02116,177.32011 173.01787,177.22204 217.72088,177.14876 C 218.05429,238.48273 218.38769,299.8167 218.72119,361.15066 C 225.38987,361.15066 233.05896,361.15066 239.72773,361.15066 C 239.81646,352.3952 239.83467,343.29725 239.72773,334.15039 C 246.39641,334.15039 254.0655,334.15039 260.73427,334.15039 C 260.67616,343.34617 260.74338,352.27132 260.73427,361.27142 C 268.03715,361.39286 274.81846,361.34332 281.23806,361.27142 C 281.33889,361.27029 281.12182,334.1405 280.99628,334.04029 C 281.01329,334.07952 301.50877,334.09585 301.50527,334.04029 C 301.39203,342.0297 301.65561,353.16126 301.74704,361.15066 C 308.74922,361.15066 316.75171,361.15066 323.75389,361.15066 C 323.74539,352.32148 323.84782,343.15048 323.75389,334.15039 C 369.10131,334.15039 414.44883,334.15039 459.79635,334.15039 C 459.79635,366.15072 459.79635,398.15104 459.79635,430.15137 C 415.29399,430.32276 370.86656,430.49415 326.36421,430.66553 C 326.36211,430.68842 326.36421,438.686 326.36421,438.686 C 358.86692,438.71088 427.16439,438.68048 459.66701,438.686 C 459.66741,438.69063 459.67981,446.62307 459.66701,446.7003 C 418.82069,446.85744 366.71077,446.50863 325.86445,446.66576 C 325.84765,446.69485 325.97709,453.32807 325.86445,453.38649 C 370.3367,453.54435 426.82768,453.50687 471.29993,453.66477 C 471.29993,463.55094 471.29993,474.76574 471.29993,484.65193 C 337.97082,484.636 207.43658,484.64196 73.71005,484.65193 C 73.80208,479.56854 73.66313,453.18094 73.71005,453.1516 z M 302.50464,293.16984 C 302.50464,293.16984 303.07297,258.05662 302.63213,258.04347 C 302.47343,258.03873 326.08324,257.91337 326.08275,258.04347 L 325.95526,291.38595 L 354.1692,291.38595 C 354.1692,291.38595 354.35219,258.01777 354.15794,257.94557 C 354.00919,257.89029 378.39855,257.98137 378.39812,257.94557 L 378.79184,291.47439 C 378.79184,291.47439 407.12981,291.62199 407.41289,291.47439 C 407.53278,291.41188 407.27975,257.88878 407.41289,257.95806 C 407.57709,258.04351 430.86351,257.85158 430.86351,257.95806 L 430.86351,291.38595 L 459.07749,291.38595 C 459.07749,291.38595 459.06915,258.18859 459.06601,258.18791 C 459.06552,258.18781 482.29212,258.13701 482.29212,258.18791 L 482.29212,293.38597 C 482.29212,293.38597 460.3709,328.88634 459.0876,328.88634 L 323.66924,328.88634 L 302.50464,293.16984 z M 335.492,280.80615 C 335.492,280.25155 335.94214,279.51966 336.49231,279.17974 C 338.00108,278.24755 337.69238,274.67969 336.10299,274.67969 C 335.33865,274.67969 333.65793,273.82538 332.36813,272.78122 C 330.17444,271.00539 330.09882,270.60166 331.19746,266.53116 C 332.33271,262.32545 332.22768,261.91136 328.06278,254.17948 L 323.75344,246.1794 L 315.42775,245.88588 C 307.19579,245.59566 307.07515,245.62663 304.71942,248.63591 C 302.13691,251.93472 300.06657,252.35905 295.87336,250.44904 C 293.53354,249.38327 293.02528,249.46177 292.07508,251.03567 C 288.96251,256.1914 288.69193,256.35004 287.6524,253.62887 C 285.88275,248.99691 287.3168,245.89267 292.95405,242.15196 C 296.01191,240.12289 299.43477,238.67932 301.18812,238.67932 C 302.83853,238.67932 306.95571,238.39021 310.33747,238.03686 C 315.09965,237.53926 316.48608,237.02573 316.48608,235.75934 C 316.48608,232.97127 313.54336,229.75202 310.18932,228.87097 C 307.09526,228.05823 306.98312,227.84503 306.98312,222.77785 C 306.98312,218.6869 306.54228,217.20368 304.9874,216.06353 C 303.27637,214.80887 303.20495,214.46527 304.48725,213.6549 C 309.89493,210.23721 316.66824,215.42676 322.79144,227.67921 C 325.12777,232.35426 327.66866,236.1793 328.4378,236.1793 C 329.68919,236.1793 352.36495,205.26304 352.45888,203.42896 C 352.5219,202.19797 349.59769,202.5752 346.44571,204.20465 C 342.38244,206.30521 342.5507,204.48183 347.00338,198.16041 C 352.74877,190.0038 355.0928,186.70197 362.96415,175.67868 C 367.08793,169.90362 371.81631,162.88291 373.47172,160.0771 L 376.48156,154.97564 L 374.28007,140.81436 C 372.96706,132.36738 371.65986,126.78919 371.04076,126.99041 C 370.46979,127.17596 368.96312,131.11915 367.69242,135.75306 C 363.52322,150.95759 357.39192,169.09223 354.82322,173.81654 C 349.93439,182.8077 340.25198,189.67882 332.47086,189.67882 C 328.96206,189.67882 328.87344,189.3533 331.41243,185.78879 C 334.8682,180.93707 338.11772,172.37801 343.24041,154.63428 C 349.47395,133.04323 349.78825,131.67823 348.52666,131.67823 C 347.97228,131.67823 341.62271,140.56582 334.41646,151.42843 C 316.30712,178.72605 309.82511,184.87929 296.26899,187.64067 C 291.44749,188.62281 289.61001,188.53881 284.48822,187.10216 C 281.15068,186.16598 278.23867,185.10667 278.017,184.74813 C 277.79534,184.3896 284.84373,176.69979 293.67998,167.65966 C 320.63057,140.0875 335.98345,123.34193 334.70325,122.91531 C 334.03324,122.69205 329.7042,124.31394 325.08306,126.51951 C 306.73735,135.27557 291.1879,138.26104 283.90084,134.42642 C 280.06684,132.40894 273.21761,124.94649 273.74257,123.35867 C 273.95724,122.70937 276.12241,121.92268 278.55427,121.61046 C 282.22111,121.13965 300.43908,113.96746 323.6281,103.86538 C 328.39379,101.78928 330.62088,99.74884 328.29876,99.58618 C 327.57863,99.53573 320.46232,99.56971 312.48483,99.6617 C 293.48552,99.88076 285.89316,98.14968 280.00672,92.25665 C 277.3729,89.61994 275.32066,86.28094 274.20242,82.8129 C 272.36194,77.10554 271.99423,73.67701 273.22261,73.67862 C 273.63524,73.67916 281.40016,74.977 290.47798,76.56271 C 312.0634,80.33324 324.46186,82.03775 325.16798,81.33183 C 325.73316,80.7668 317.31544,76.69612 310.36207,74.17189 C 303.35819,71.62937 289.92701,64.68465 285.15473,61.13825 C 278.48765,56.18381 274.4727,47.73633 274.4794,38.67728 C 274.4844,31.85709 275.98337,24.67714 277.40221,24.67714 C 277.86126,24.67714 279.38763,26.18548 280.79417,28.02901 C 283.22283,31.21216 297.06984,41.05267 332.99122,65.12317 C 341.79396,71.02179 350.00902,76.78807 351.2469,77.93713 C 354.35637,80.82343 354.24063,86.30413 350.96852,91.12442 L 348.43943,94.85014 L 350.50817,98.19654 C 354.59294,104.80377 366.69761,106.65369 372.18862,101.50989 C 376.04502,97.89737 381.1185,87.94734 383.32069,79.6777 C 385.73654,70.6056 386.76136,61.67068 385.5993,59.81111 C 384.73493,58.42796 379.61954,58.60226 374.75422,60.18061 C 372.15541,61.0237 371.67876,58.97066 373.7161,55.70937 C 374.38291,54.64184 374.60327,53.44317 374.20565,53.04568 C 373.64087,52.48103 360.2346,51.10368 351.70154,50.73361 C 349.638,50.6441 345.49511,45.96432 345.49511,43.72279 C 345.49511,41.30379 349.10894,37.37968 350.80927,37.9523 C 351.46257,38.17231 351.99714,39.64409 351.99714,41.22293 C 351.99714,43.52606 352.78818,44.54337 355.99838,46.36901 C 358.19907,47.62052 361.06496,48.65188 362.36696,48.66093 C 364.36229,48.67479 364.62577,48.32376 364.04339,46.42736 C 363.66337,45.18985 363.1094,42.1013 362.8123,39.56391 C 362.34056,35.53456 362.56803,34.74329 364.60946,33.31385 C 365.89496,32.4137 368.13006,31.67721 369.57621,31.67721 C 371.02236,31.67721 374.41071,30.50008 377.10605,29.06136 C 381.57704,26.67472 382.75151,26.48779 390.50913,26.92803 C 397.84961,27.34461 399.94606,27.90717 405.847,31.04389 C 411.28309,33.93357 413.79117,34.67724 418.10082,34.67724 C 423.96704,34.67724 424.36957,35.08094 421.69413,38.28046 C 419.14694,41.32673 416.15581,42.67732 411.9565,42.67732 C 408.32757,42.67732 408.27556,42.73273 408.90145,45.92736 C 409.79033,50.46459 412.48777,53.85121 416.99377,56.08716 L 420.84237,57.99688 L 418.56896,59.8372 C 417.31857,60.84938 414.99505,61.67752 413.40545,61.67752 C 411.17276,61.67752 410.51535,62.13697 410.51535,63.69741 C 410.51535,67.09525 415.14339,73.35182 418.52975,74.53196 C 422.74486,76.00091 421.41845,77.67768 416.04137,77.67768 C 413.44427,77.67768 411.51326,78.18293 411.26389,78.92769 C 410.46854,81.30355 415.37447,96.62455 418.056,100.13925 C 419.70762,102.30401 422.214,104.1055 424.54572,104.8039 C 427.84995,105.79357 428.93649,105.65529 432.89022,103.7419 C 438.30601,101.12096 443.52563,95.51068 443.52563,92.31058 C 443.52563,90.75226 442.31856,89.23435 439.77446,87.59348 C 435.11591,84.58882 434.19082,79.6406 437.50126,75.43336 C 439.51428,72.87497 442.11529,71.16729 466.53279,56.373 C 482.34712,46.79129 498.96679,35.64828 505.51543,30.23627 C 512.00205,24.87555 513.10649,25.58118 512.28984,34.5644 C 511.32864,45.13663 509.69853,48.64019 502.34554,55.93783 C 496.39649,61.84202 493.63833,63.61523 480.56816,69.93797 C 472.3371,73.91981 465.5868,77.51518 465.56749,77.92768 C 465.54819,78.34019 467.67065,78.67586 470.28396,78.67363 C 478.32616,78.66676 507.85246,75.71295 511.36375,74.56401 C 513.18872,73.96687 514.92436,73.72082 515.22085,74.01722 C 515.51734,74.31363 515.01059,76.51765 514.0948,78.91505 C 511.66434,85.27695 505.00557,92.55433 499.09903,95.30394 C 494.46159,97.46274 492.72545,97.65915 478.20313,97.66811 C 466.08035,97.67559 462.46143,97.9677 462.77672,98.91329 C 463.00329,99.59276 472.60628,104.9727 484.11677,110.8687 C 501.85039,119.95242 505.77001,121.59553 509.79626,121.63342 C 512.96175,121.6632 514.54774,122.10454 514.54774,122.95563 C 514.54774,127.65651 503.98155,134.64693 495.74789,135.39331 C 490.60169,135.8598 488.96078,135.50108 481.75673,132.33462 C 477.26814,130.36168 470.72,126.93184 467.2053,124.71278 C 463.69051,122.49372 460.47781,120.67812 460.06578,120.67812 C 458.45378,120.67812 461.16722,124.65975 479.3897,149.03352 C 496.03768,171.30143 505.04518,181.67874 507.72562,181.67874 C 508.17676,181.67874 508.54587,182.30127 508.54587,183.06213 C 508.54587,186.29945 498.85536,186.50759 488.53964,183.49183 C 481.82345,181.52836 480.3736,180.62774 474.70364,174.8967 C 467.16089,167.27283 459.71567,156.01595 451.97206,140.52754 C 445.61898,127.82049 445.78433,128.08688 444.83864,129.03226 C 444.46042,129.41033 444.90116,132.74786 445.81794,136.449 C 446.73473,140.15015 448.90751,149.92842 450.64625,158.1785 C 454.12443,174.68179 456.06644,179.53715 460.49972,182.81384 C 462.12422,184.01449 463.21936,185.37527 462.93337,185.83781 C 461.78492,187.69549 453.85415,186.59455 447.81707,183.73938 C 442.89834,181.41315 440.97104,179.79989 438.55948,175.99009 C 434.62646,169.77689 430.95252,157.80866 428.0125,141.6325 C 425.57364,128.2137 424.85012,125.93455 423.47609,127.34106 C 422.27151,128.574 416.15461,155.61974 416.31626,158.99792 C 416.42389,161.24725 427.0403,176.98046 437.01901,189.67882 C 445.12033,199.988 446.13454,202.24083 441.96004,200.65419 C 438.75815,199.43717 436.52345,199.4038 436.52345,200.57299 C 436.52345,201.44833 441.75298,209.41126 453.83264,226.9292 C 457.15117,231.74175 460.56794,235.67929 461.4254,235.67929 C 462.28297,235.67929 467.49649,230.97166 473.01121,225.21788 C 483.76366,213.99922 486.88363,212.23946 491.46416,214.80969 C 494.88182,216.72736 495.35547,219.42594 492.34923,219.85192 C 490.51316,220.1121 489.97739,220.89612 489.73402,223.67917 C 489.3649,227.90016 487.29996,229.67923 482.76985,229.67923 C 480.33919,229.67923 478.53433,230.5276 476.37726,232.68407 C 474.72404,234.33673 473.55668,236.24925 473.78315,236.93412 C 474.04463,237.72509 477.26734,238.40937 482.6176,238.80997 C 494.68646,239.71361 498.54276,241.64244 498.54276,246.77538 C 498.54276,250.10516 496.64807,251.62007 495.36037,249.31983 C 494.15639,247.16907 492.9019,247.2504 489.81294,249.67944 C 486.4725,252.30623 484.64753,252.20087 481.13184,249.17821 C 478.66187,247.05469 477.23463,246.68171 471.62888,246.69472 C 464.02901,246.71236 463.96779,246.74102 459.12629,252.55172 C 456.25299,256.00016 455.53317,257.6657 455.71963,260.43417 C 455.91949,263.40051 455.37732,264.43009 452.22024,267.07984 C 448.90951,269.85849 448.5579,270.58325 449.13098,273.44754 C 449.62513,275.91776 449.43097,276.67971 448.30712,276.67971 C 445.52405,276.67971 443.71489,273.19477 443.00717,266.47036 L 442.30095,259.76103 L 446.91459,254.36241 C 449.45198,251.39317 451.52812,248.44981 451.52812,247.82161 C 451.52812,247.14337 449.79008,246.67941 447.24949,246.67941 C 443.7475,246.67941 442.49281,247.22396 440.33754,249.67944 C 437.13144,253.33212 435.57826,253.4315 432.52221,250.17944 C 430.14246,247.64709 426.15142,246.84912 425.01987,248.67943 C 424.02136,250.29451 422.51909,249.82744 422.51909,247.90193 C 422.51909,245.06246 425.36598,241.77056 429.21017,240.16482 C 431.44967,239.22936 436.0548,238.67932 441.64715,238.67932 C 449.08486,238.67932 450.52781,238.42186 450.52781,237.09473 C 450.52781,235.46156 433.61304,210.82893 431.00663,208.66646 C 429.41614,207.34685 429.25969,207.5764 428.07502,212.96996 C 427.39271,216.07642 425.86893,215.72661 424.50921,212.15135 C 423.30654,208.98913 413.09046,193.40037 411.18426,191.81888 C 408.92856,189.94738 408.00987,192.27916 404.81698,207.98008 C 402.15185,221.08584 402.11904,221.63034 403.78376,225.12025 C 407.18882,232.2586 417.03368,232.52505 419.81715,225.55419 C 420.77655,223.15135 422.48718,226.73785 422.50009,231.17925 C 422.52399,239.46521 415.25323,245.61071 405.37075,245.65744 C 400.30578,245.68139 399.55864,246.48297 399.44921,252.01125 C 399.37409,255.80585 394.37883,270.17965 393.13524,270.17965 C 391.711,270.17965 386.63112,255.52028 386.55099,251.17945 C 386.44476,245.42077 385.50857,244.40097 381.08869,245.22989 C 372.67007,246.80876 365.50134,239.7859 365.50134,229.95975 C 365.50134,227.23877 365.78563,224.72831 366.13314,224.38094 C 366.48054,224.03357 368.01162,225.08359 369.5354,226.71429 C 372.82292,230.23254 378.19959,230.77955 380.83861,227.86428 C 384.35161,223.98367 384.69382,220.57494 383.01989,206.13663 C 381.33737,191.62393 380.99826,190.25669 379.33585,191.28377 C 377.8945,192.17429 367.9318,207.74962 367.07283,210.45543 C 366.14184,213.38771 364.67798,213.27444 363.50072,210.17903 C 362.97775,208.80402 361.93563,207.67901 361.1848,207.67901 C 359.50377,207.67901 340.99371,234.05715 340.99371,236.45264 C 340.99371,237.935 342.36514,238.25007 350.68593,238.67932 C 359.72474,239.14562 360.58461,239.37735 363.4399,242.11645 C 365.64799,244.23467 366.50165,245.97725 366.50165,248.36651 C 366.50165,251.76073 364.89345,252.86542 363.86243,250.17944 C 363.54573,249.35443 362.4897,248.67943 361.5156,248.67943 C 360.5414,248.67943 359.18407,249.35443 358.49916,250.17944 C 356.44172,252.65774 352.16129,251.98208 348.9962,248.67943 C 346.44381,246.01614 345.4649,245.6794 340.27499,245.6794 C 336.05857,245.6794 334.27182,246.08852 333.86559,247.14702 C 333.55569,247.95421 335.27983,251.89175 337.69698,255.89711 C 340.11414,259.90246 342.67643,264.6163 343.39096,266.3723 C 344.96725,270.24625 344.06227,276.87607 341.67102,278.9724 C 339.44893,280.92056 335.492,282.09485 335.492,280.80615 z M 60.96435,132.05354 C 61.12874,118.38673 60.79994,104.71992 60.96435,91.05312 C 68.77169,91.05312 76.57904,91.05312 84.3864,91.05312 C 84.7117,104.05325 85.03701,117.05338 85.36232,130.05352 C 94.14558,130.05352 102.92886,130.05352 111.71213,130.05352 C 112.03743,117.05338 112.36274,104.05325 112.68805,91.05312 C 120.37818,91.06193 137.60524,90.99816 137.57398,91.18149 C 137.76993,91.34901 137.39934,123.32274 137.40719,130.2117 C 146.1767,130.2117 155.47544,130.2117 164.24496,130.2117 C 164.42136,117.04489 164.23533,104.21991 164.41175,91.05312 C 172.5444,91.05312 181.65297,91.05312 189.78565,91.05312 C 190.11094,104.05325 189.46033,117.05338 189.78565,130.05352 C 198.56891,130.05352 208.3281,130.05352 217.11136,130.05352 C 217.26987,116.88248 217.20303,104.30962 217.11136,91.05312 C 224.91871,91.05312 233.25325,91.05312 241.06061,91.05312 C 241.23631,104.42535 240.88486,117.79759 241.06061,131.16983 C 233.69098,143.82545 225.23294,157.94269 217.82833,170.55393 C 217.73905,170.56564 121.35589,170.51478 82.92914,170.55393 C 81.77162,168.63724 67.2609,142.98964 60.96435,132.05354 z "
       style="fill:#000000;fill-opacity:1"
       id="path3253" />
    <path
       d="M 141.14728,380.94544 C 141.24787,380.80093 162.97472,380.90271 168.34321,380.94544 C 168.40794,380.86213 168.35341,369.11283 168.34321,369.06997 C 163.90353,369.16095 145.04562,369.13423 141.00584,369.06997 C 140.96594,364.44697 141.1166,344.41066 141.00584,338.94382 C 136.78174,338.89721 132.07267,338.93053 128.49203,338.94382 C 128.31085,348.95174 128.67325,359.11619 128.49203,369.12411 C 120.61641,369.18405 104.55452,369.18781 104.43875,369.12411 C 104.38497,369.08533 104.10634,380.94289 104.14748,380.96769 C 104.15442,380.98598 127.70793,380.96634 128.40245,380.96769 C 128.56421,392.05289 128.38499,402.93765 128.40245,413.93803 C 134.00717,413.98169 137.38334,414.00801 140.9163,413.93803 C 140.9163,413.93803 141.04868,391.15275 141.14728,380.94544 z M 372.66637,48.52494 C 378.66004,48.5 377.52508,43.65707 371.11509,41.90511 C 368.2546,41.12331 366.89134,45.986 364.72321,47.76049 C 363.25592,48.96138 361.10038,48.15613 363.08819,48.48812 C 364.44773,48.71518 366.21795,48.67906 367.38333,48.62817 C 368.50977,48.57898 370.86101,48.53245 372.66637,48.52494 z M 394.92056,41.10484 C 397.24588,38.60969 397.66141,34.29333 395.57636,34.29333 C 394.81533,34.29333 393.95716,35.19334 393.66947,36.29335 C 392.92324,39.14573 389.51158,38.80405 388.11374,35.73695 C 386.75692,32.75998 384.95646,33.35467 384.95646,36.77979 C 384.95646,39.20277 389.10005,43.29342 391.55441,43.29342 C 392.28404,43.29342 393.79881,42.30856 394.92056,41.10484 z M 267.53867,444.30996 L 267.53867,420.43516 L 255.46781,420.43516 C 255.46781,420.43516 255.52308,444.41064 255.46781,444.30996 C 255.44488,444.26816 267.54482,444.31407 267.53867,444.30996 z M 282.479,420.29206 C 282.479,420.29206 271.64809,420.3005 271.66536,420.29206 C 271.72118,420.26476 271.63052,444.31027 271.66536,444.31027 L 282.479,444.31027 L 282.479,420.29206 z M 250.65427,388.23996 C 250.25652,386.9413 240.50531,392.13771 240.48021,394.47959 C 240.40217,401.762 240.38689,415.38498 240.48021,415.38498 L 250.53338,415.38498 C 250.53338,415.38498 250.65845,388.2536 250.65427,388.23996 z M 267.26005,382.88465 C 264.03721,382.88465 255.88249,385.60362 255.84525,386.29848 C 255.7559,387.96563 255.55587,415.38498 255.84525,415.38498 L 267.26005,415.38498 C 267.26005,415.38498 267.35231,382.88465 267.26005,382.88465 z M 313.45487,415.38496 C 315.60058,411.66576 306.34888,395.41062 302.79503,395.01763 C 302.73568,395.01106 302.90758,415.38248 302.83956,415.38496 C 302.82875,415.38537 313.46005,415.37928 313.45487,415.38496 z M 267.73282,476.47326 L 267.73282,450.30231 L 255.66196,450.30231 C 255.66196,450.30231 255.71723,476.58362 255.66196,476.47326 C 255.63903,476.42744 267.73897,476.47776 267.73282,476.47326 z M 282.72854,450.1592 C 282.72854,450.1592 271.89763,450.16844 271.91489,450.1592 C 271.97072,450.12929 271.88005,476.4736 271.91489,476.4736 L 282.72854,476.4736 L 282.72854,450.1592 z M 298.753,450.24535 L 288.03848,450.24535 C 288.03848,450.24535 288.04538,476.4736 288.03848,476.4736 L 298.753,476.4736 C 298.753,476.4736 298.70794,450.23055 298.753,450.24535 z M 313.86403,450.24575 L 303.14952,450.24575 C 303.14952,450.24575 303.15641,476.474 303.14952,476.474 L 313.86403,476.474 C 313.86403,476.474 313.81897,450.23095 313.86403,450.24575 z M 251.00213,450.24575 L 240.28762,450.24575 C 240.28762,450.24575 240.29451,476.474 240.28762,476.474 L 251.00213,476.474 C 251.00213,476.474 250.95707,450.23095 251.00213,450.24575 z M 235.28665,450.24575 L 225.90191,450.24575 C 225.90191,450.24575 225.90794,476.474 225.90191,476.474 L 235.28665,476.474 C 235.28665,476.474 235.24718,450.23095 235.28665,450.24575 z M 235.46122,420.29186 C 235.46122,420.29186 225.96119,420.3003 225.97633,420.29186 C 226.0253,420.26456 225.94577,444.31007 225.97633,444.31007 L 235.46122,444.31007 L 235.46122,420.29186 z M 251.78114,420.29186 C 251.78114,420.29186 240.95022,420.3003 240.96749,420.29186 C 241.02332,420.26456 240.93265,444.31007 240.96749,444.31007 L 251.78114,444.31007 L 251.78114,420.29186 z M 298.80668,420.29206 C 298.80668,420.29206 287.97576,420.3005 287.99303,420.29206 C 288.04886,420.26476 287.95819,444.31027 287.99303,444.31027 L 298.80668,444.31027 L 298.80668,420.29206 z M 313.57511,444.30996 L 313.57511,420.43516 L 302.83403,420.43516 C 302.83403,420.43516 302.88321,444.41064 302.83403,444.30996 C 302.81361,444.26816 313.5806,444.31407 313.57511,444.30996 z M 226.5626,415.38498 C 224.68387,411.9968 232.78436,397.18844 235.89601,396.83043 C 235.94798,396.82444 235.79746,415.38272 235.85702,415.38498 C 235.86648,415.38536 226.55805,415.37981 226.5626,415.38498 z M 288.44066,388.66295 C 292.94861,388.45195 298.46873,392.13771 298.49383,394.47959 C 298.57186,401.762 298.58715,415.38498 298.49383,415.38498 L 288.44066,415.38498 C 288.44066,415.38498 288.42641,388.66362 288.44066,388.66295 z M 272.18858,382.88465 C 275.41141,382.88465 283.56613,385.60362 283.60337,386.29848 C 283.69272,387.96563 283.89275,415.38498 283.60337,415.38498 L 272.18858,415.38498 C 272.18858,415.38498 272.09631,382.88465 272.18858,382.88465 z "
       style="fill:#fcdb00;fill-opacity:1"
       id="path3227" />
  </g>
</svg>
