<?xml version="1.0" encoding="UTF-8" standalone="no"?>
<!-- Created with Inkscape (http://www.inkscape.org/) -->

<svg
   xmlns:dc="http://purl.org/dc/elements/1.1/"
   xmlns:cc="http://creativecommons.org/ns#"
   xmlns:rdf="http://www.w3.org/1999/02/22-rdf-syntax-ns#"
   xmlns:svg="http://www.w3.org/2000/svg"
   xmlns="http://www.w3.org/2000/svg"
   xmlns:sodipodi="http://sodipodi.sourceforge.net/DTD/sodipodi-0.dtd"
   xmlns:inkscape="http://www.inkscape.org/namespaces/inkscape"
   version="1.1"
   id="svg2"
   width="1145.3333"
   height="1290.6667"
   viewBox="0 0 1145.3333 1290.6667"
   sodipodi:docname="Bredenbek_Wappen.svg"
   inkscape:version="0.92.3 (2405546, 2018-03-11)">
  <metadata
     id="metadata8">
    <rdf:RDF>
      <cc:Work
         rdf:about="">
        <dc:format>image/svg+xml</dc:format>
        <dc:type
           rdf:resource="http://purl.org/dc/dcmitype/StillImage" />
        <dc:title></dc:title>
      </cc:Work>
    </rdf:RDF>
  </metadata>
  <defs
     id="defs6" />
  <sodipodi:namedview
     pagecolor="#ffffff"
     bordercolor="#666666"
     borderopacity="1"
     objecttolerance="10"
     gridtolerance="10"
     guidetolerance="10"
     inkscape:pageopacity="0"
     inkscape:pageshadow="2"
     inkscape:window-width="1920"
     inkscape:window-height="1017"
     id="namedview4"
     showgrid="false"
     inkscape:zoom="0.36570246"
     inkscape:cx="397.04368"
     inkscape:cy="119.11587"
     inkscape:window-x="-8"
     inkscape:window-y="-8"
     inkscape:window-maximized="1"
     inkscape:current-layer="layer1" />
  <g
     transform="matrix(1.3943574,0,0,1.3949074,32.704155,-129.26394)"
     id="layer1"
     inkscape:label="Ebene 1">
    <path
       id="path2377"
       d="m 362.24662,1005.4088 c -10.25532,-0.7066 -23.65436,-2.9548 -29.17644,-3.7979 -5.52209,-0.843 -14.06799,-1.7147 -19.59007,-2.53602 -5.5221,-0.82134 -12.06646,-1.6406 -13.64419,-2.12005 -1.57776,-0.47946 -7.47668,-1.45287 -12.2099,-2.46273 -22.82231,-4.86926 -27.96101,-7.08596 -45.80328,-13.69065 -10.557,-3.90791 -22.63684,-10.59257 -26.84416,-12.4589 -41.0205,-18.19593 -76.34669,-39.73783 -101.35789,-61.80794 -15.334121,-13.53099 -37.770163,-35.32553 -37.770163,-36.69012 0,-0.69009 -0.349969,-1.25474 -0.777588,-1.25474 -1.677471,0 -21.309159,-24.00452 -27.761641,-33.94533 -3.75493,-5.78505 -7.257518,-11.16371 -7.783334,-11.95258 -0.525907,-0.78887 -2.311244,-3.58578 -3.967395,-6.21534 -1.656242,-2.62957 -4.432397,-6.99761 -6.169151,-9.70675 C 27.654559,804.06063 22.821607,795.02448 18.65149,786.68942 12.610842,774.61548 9.3140379,766.1893 2.4339357,745.23911 l -8.635502,-26.29568 -2.4854702,-22.94896 -2.4855625,-22.94897 0.0042,-110.68091 c 0.0026,-70.50659 1.135857,-110.37455 1.7239197,-110.37455 0.507749,0 5.8101251,3.54103 12.0077782,8.16845 17.6680271,13.19161 21.9493541,15.6599 37.8127091,25.41338 21.587128,12.28396 40.574434,19.37501 67.985532,25.39022 13.76832,3.02133 25.39597,6.20588 32.29462,8.84481 9.59248,3.66934 12.12049,5.17404 22.94791,13.65903 12.36308,9.68857 26.34927,20.91163 38.75222,33.0107 3.77387,3.6814 7.86451,7.57422 9.09046,8.65071 8.35859,7.33974 23.93688,28.80437 30.16982,42.6603 3.332,7.40706 20.74571,47.20596 26.01318,61.34166 7.13228,19.14038 19.62499,40.25417 35.06274,56.90565 16.91186,18.24146 44.73308,41.62923 63.41201,53.20917 11.9652,7.41787 38.46341,17.59449 108.96232,34.01187 15.30075,3.56313 33.41871,11.53488 47.58691,21.85398 5.79989,4.22423 9.25958,7.94066 9.78549,8.55818 0.52592,0.61751 6.5448,3.48599 11.27802,7.57243 10.23726,8.83833 29.39067,30.2007 39.54578,42.78877 5.21123,6.45985 9.62652,13.81199 15.53836,25.25672 4.54218,8.79319 8.25826,16.56836 8.25798,16.97866 -10e-4,1.63473 -29.21412,17.68079 -45.41932,24.40407 -20.5552,8.52802 -60.54238,20.756 -76.52088,23.68068 -6.31096,1.1551 -13.47077,3.43754 -15.31146,3.87404 -3.23695,0.76759 -8.69875,-0.18473 -38.08384,3.90358 -17.86842,2.4861 -45.34277,4.9445 -69.47724,3.2817 z M 763.77623,512.56422 c -19.23391,-6.35333 -41.93319,-12.12881 -54.35211,-14.13579 -11.77597,-1.90294 -30.5234,-7.66057 -36.95848,-11.125 -8.10299,-4.36233 -33.49925,-19.707 -41.69003,-25.19077 -14.43384,-9.66353 -42.83269,-38.1021 -56.72561,-56.80494 -6.34806,-8.54582 -8.50192,-13.05663 -21.23104,-44.4636 -2.02495,-4.99618 -4.0785,-9.94455 -4.56349,-10.99638 -0.48499,-1.05182 -2.44989,-6.21533 -4.36642,-11.47447 -1.91652,-5.25914 -4.11016,-11.23035 -4.87475,-13.26934 -2.33218,-6.2193 -16.70932,-34.32634 -19.37244,-37.87274 -1.37608,-1.83245 -2.93222,-4.05358 -3.45812,-4.93585 -0.86968,-1.45895 -2.83171,-4.30459 -9.25169,-13.41831 -15.21086,-21.5932 -36.02699,-39.26607 -64.87211,-55.07634 -10.19661,-5.58881 -28.45202,-11.79313 -55.4422,-18.84268 -46.73929,-12.2078 -73.8222,-22.54939 -97.73712,-37.32094 -27.50685,-16.99012 -43.16889,-28.66788 -53.69663,-40.03678 -5.06503,-5.46959 -8.51569,-9.85972 -8.51569,-10.17937 0,-0.31968 124.73714,-0.92776 278.04095,-0.92776 l 279.85482,0.51822 0.10507,203.55369 c 0.0579,112.23953 -0.36621,205.27069 -0.68549,206.10259 -0.71485,2.49171 -3.12651,1.53865 -20.20742,-4.10344 z"
       style="fill:#ff0000;fill-opacity:1"
       inkscape:connector-curvature="0"
       sodipodi:nodetypes="cccssccsssccccccccccscccccccccsccscccscsccccccccscccccccccsccsscsc" />
    <path
       id="path2383"
       d="m 711.55696,837.17374 c -7.80288,-17.83434 -23.03063,-42.00698 -34.56258,-55.08548 -15.00246,-17.01441 -33.67084,-34.69772 -52.12288,-47.82001 -21.01828,-14.9473 -34.04379,-20.27256 -77.78008,-30.82342 -52.56635,-12.68101 -63.13305,-15.49315 -71.42004,-20.75325 -3.42076,-2.17129 -6.32336,-4.80953 -6.89962,-4.81453 -0.57628,-0.005 -2.6851,-0.74715 -3.63764,-1.79897 -0.95254,-1.05183 -1.35278,-1.29982 -1.78829,-1.29982 -1.4677,0 -17.76167,-9.14983 -26.33209,-16.25482 -18.34794,-15.21071 -44.38733,-43.02154 -44.38733,-46.18607 0,-0.41368 0.44401,-2.9427 -1.5556,-5.62007 -4.27216,-5.72016 -15.80902,-21.60968 -17.28993,-25.7377 -2.70719,-7.54638 -7.42032,-20.91945 -15.32141,-41.19969 -17.24845,-44.27276 -26.03462,-56.17697 -53.6576,-81.8539 -13.71518,-12.74895 -32.50705,-33.44469 -40.91555,-40.25928 -1.04971,-0.85071 -8.96722,-5.21615 -17.5945,-9.70095 -15.33491,-7.97176 -16.11399,-8.25534 -34.82297,-12.67483 -10.5254,-2.48635 -21.50531,-5.29689 -24.3998,-6.24566 -2.89448,-0.94877 -13.87438,-2.86584 -24.39977,-4.26012 C 126.02081,379.93035 114.53243,374.26588 77.509248,342.79593 58.429581,326.57804 53.743768,322.02077 42.288595,308.54162 26.130968,289.52914 23.525734,284.73846 10.953918,250.92078 5.8706286,237.247 -1.1484607,219.84894 -4.6440465,212.25843 l -6.3557165,-13.80096 v -46.21165 -46.21163 l 39.948667,0.24953 39.94866,0.24955 4.028734,8.12778 c 8.205504,16.55436 16.461536,36.24636 20.846605,49.72285 8.623937,26.50357 20.808617,45.77091 43.629397,68.99007 15.29647,15.56352 53.57437,47.66738 56.83446,47.66738 0.21156,0 3.05226,1.56243 6.31276,3.47204 16.23282,9.50737 35.22936,15.02289 83.64028,24.28445 32.52184,6.2218 56.85145,16.13769 72.24249,29.44349 18.69264,16.1601 41.29985,38.55576 47.95361,47.50488 3.12817,4.20732 6.92956,9.19042 8.4475,11.07358 1.51796,1.88316 4.36443,6.6164 6.32551,10.5183 1.96107,3.90191 4.51951,8.38526 5.68541,9.96301 1.1659,1.57774 2.44649,3.94436 2.84574,5.25914 0.39925,1.3148 1.51365,3.89656 2.47644,5.73725 4.13941,7.91391 15.51993,36.41726 20.04369,50.20097 2.61333,7.96267 9.91375,23.56334 16.26418,34.75573 1.77619,3.13047 5.16861,7.67881 14.01615,18.79196 9.37737,11.77863 36.78072,38.31216 46.13627,44.67186 2.43727,1.65679 6.72674,1.89159 6.98988,2.21595 1.99836,2.46337 25.80117,18.61203 36.56568,23.42809 13.23296,5.92044 17.46123,7.38433 29.29093,10.14095 3.42075,0.79713 7.72659,1.83001 9.56853,2.29529 1.84195,0.46528 6.14778,1.48516 9.56854,2.26639 21.83136,4.9858 54.58637,13.4792 57.41126,14.88678 1.84194,0.91781 5.7172,2.42396 8.61168,3.34698 2.8945,0.92303 10.8603,4.61292 17.7018,8.19974 11.52519,6.04234 13.89821,7.80797 32.29839,24.03142 19.66535,17.33893 19.97607,17.67326 31.81541,34.23313 6.57587,9.19773 11.95611,17.42172 11.95611,18.27551 0,0.85379 -1.04905,6.66746 -2.33119,12.91928 -3.24915,15.8428 -11.18286,36.88968 -22.33919,59.26226 -12.36484,24.79613 -32.71547,58.17489 -35.47968,58.23006 -0.52628,0.0105 -3.54037,-6.05902 -6.69798,-13.2761 z"
       style="fill:#0000ff;fill-opacity:1;stroke-width:1.00033975"
       inkscape:connector-curvature="0"
       sodipodi:nodetypes="sssscscsssccssccscccscccccccccsscsscccccccscccsccccccscscscs" />
    <path
       id="path2381"
       d="m 356.66163,1016.8955 c -44.43291,-3.7478 -78.26244,-10.6722 -117.13528,-23.97558 -13.49763,-4.61923 -16.22061,-5.71804 -37.29206,-15.04786 -30.62862,-13.5615 -67.38683,-35.94669 -91.30309,-55.6022 -2.62144,-2.15447 -5.8192,-4.77782 -7.10595,-5.82964 C 71.801508,890.26347 38.851005,850.81397 18.366679,814.12612 7.532291,794.72154 -4.9783395,764.38011 -10.41514,744.32304 c -1.425513,-5.25914 -3.193154,-11.71353 -3.928088,-14.34311 -1.977444,-7.07501 -3.998861,-18.2078 -6.423994,-35.37963 L -22.927959,679.301 -23.191302,385.98464 -23.454643,92.668275 H 387.2482 797.95096 V 386.5884 680.50853 l -2.81947,19.47657 c -6.07315,41.95273 -13.63331,67.48263 -29.97785,101.23223 -8.97944,18.54155 -18.00316,33.16888 -32.34674,52.43322 -22.10932,29.69443 -36.79492,45.11655 -64.42193,67.65281 -15.24289,12.43415 -43.2084,31.55491 -59.2848,40.53462 -11.08397,6.19112 -37.99639,18.78944 -51.15705,23.94788 -11.84321,4.64204 -45.66958,15.46184 -57.8505,18.50424 -9.79902,2.4475 -34.53656,7.2194 -47.33223,9.1306 -28.36883,4.2372 -69.44957,5.7225 -96.09876,3.4748 z m 75.06222,-14.7684 c 29.38508,-4.08835 35.96752,-5.06811 39.20447,-5.83582 1.84069,-0.43649 8.51023,-1.73878 14.82119,-2.89387 15.9785,-2.92469 54.98513,-15.15267 75.54033,-23.68064 16.2052,-6.72328 45.41818,-21.78915 45.41933,-23.42391 2.9e-4,-0.41029 -3.71582,-7.94042 -8.25799,-16.73362 -5.91184,-11.44475 -10.32712,-18.55183 -15.53836,-25.01167 -10.1551,-12.58809 -29.55366,-32.97031 -39.7909,-41.80862 -4.73323,-4.08641 -9.03617,-7.93508 -9.56207,-8.55261 -0.52592,-0.61752 -5.70158,-4.57896 -11.50144,-8.80321 C 507.8902,835.06402 491.48819,827.33734 476.18745,823.77418 405.68854,807.35678 381.27037,800.299 369.30517,792.88119 350.62625,781.30122 318.99159,754.7946 302.07982,736.55318 286.64207,719.90165 273.10936,698.44134 265.97701,679.301 c -5.26746,-14.13571 -20.60097,-52.54847 -23.93297,-59.95551 -6.23304,-13.85592 -20.77129,-34.97404 -29.12987,-42.31377 -1.22595,-1.07648 -5.31671,-4.9693 -9.09046,-8.65069 -12.40295,-12.0991 -26.73584,-24.70832 -39.09891,-34.39684 -10.82742,-8.48502 -13.35544,-9.98978 -22.9479,-13.65909 -6.89866,-2.6389 -18.52631,-5.82345 -32.29464,-8.84483 -40.719391,-8.93561 -67.219218,-21.60262 -106.4109604,-50.86483 -6.1976531,-4.62743 -11.6838931,-8.41351 -12.1916417,-8.41351 -0.5881561,0 -0.9247359,40.17426 -0.9273199,110.68091 l -0.0041,110.6809 2.4854582,22.94897 2.4855629,22.94896 8.6355021,26.29568 c 6.8800098,20.95018 10.1768138,29.37636 16.2174628,41.45026 4.170104,8.33504 9.003056,17.37118 10.739915,20.08034 1.736847,2.70918 4.512909,7.07722 6.169152,9.70679 1.656243,2.62957 3.44158,5.42647 3.967395,6.21534 0.52592,0.78886 4.028404,6.16753 7.783332,11.95258 6.452483,9.94082 26.084172,33.94533 27.761643,33.94533 0.427618,0 0.777587,0.56462 0.777587,1.25471 0,1.36463 22.436043,23.15915 37.770162,36.69008 25.01121,22.07017 60.33739,43.61208 101.3579,61.80799 4.2073,1.86629 16.28715,6.59062 26.84414,10.49853 17.84222,6.60479 23.96147,8.33142 46.78374,13.20056 4.73322,1.00975 9.89674,2.22832 11.47447,2.70788 1.57775,0.47934 7.38671,1.54364 12.9088,2.36498 5.52208,0.82132 14.55824,2.18314 20.08033,3.02628 28.12079,4.2933 72.43302,4.9604 97.53307,1.4681 z m 198.89096,-70.25732 c 11.68868,-7.79602 27.4809,-19.66262 36.31951,-27.29105 9.02429,-7.78879 28.02114,-26.32198 34.69795,-33.85114 l 5.77138,-6.50815 -4.58473,-11.65978 c -7.9214,-20.14588 -16.2098,-35.34596 -27.99629,-51.34233 -5.81144,-7.88715 -38.89944,-41.32541 -47.14223,-47.64127 -26.22615,-20.09517 -42.5552,-28.02312 -70.21539,-34.09041 -6.31097,-1.38432 -15.77741,-3.59114 -21.03654,-4.90405 -13.95851,-3.48465 -16.18657,-3.99258 -27.2519,-6.21285 -28.68504,-5.75564 -52.92344,-18.2273 -79.84323,-41.0825 -26.77293,-22.73061 -41.04613,-37.53361 -51.58066,-53.49537 -10.68436,-16.18891 -14.05462,-22.58513 -19.14039,-36.32589 -2.04379,-5.52209 -6.39998,-16.92484 -9.68044,-25.33947 -3.28036,-8.41462 -7.45095,-19.17301 -9.26803,-23.90753 -7.45315,-19.42023 -16.93565,-34.97445 -30.03455,-49.26622 -9.48136,-10.34469 -41.76786,-39.53045 -53.23325,-48.12088 -9.28417,-6.95613 -27.60118,-16.4679 -37.90621,-19.6842 -10.51369,-3.28142 -48.57978,-11.361 -61.18872,-12.9874 -21.93097,-2.82882 -32.4566,-5.97844 -48.65197,-14.55823 C 95.890645,376.84202 89.895231,372.3141 67.88727,352.81668 38.407519,326.69973 30.288081,318.20019 19.417266,302.07751 10.364383,288.65108 6.3405647,280.13466 -0.53159284,259.85657 -10.600356,230.14582 -9.5268143,221.63378 -9.8360522,333.63232 l -0.2706148,98.01118 4.0954355,3.71224 c 32.4381505,29.40303 86.3880895,58.39675 115.9716015,62.3252 15.24527,2.02446 28.69489,5.56014 38.72636,10.18054 16.90277,7.78528 26.82905,15.29234 57.20859,43.2657 31.22273,28.74977 42.29569,43.94481 53.68496,73.67004 2.21658,5.78505 5.88851,15.03634 8.15978,20.55844 2.27128,5.52209 5.52516,14.12795 7.23084,19.12413 11.51157,33.71905 27.47086,56.73004 57.63048,83.09451 37.48013,32.76394 56.9442,43.55041 90.61023,50.2139 6.62536,1.31137 18.02813,3.88737 25.33947,5.72446 7.31125,1.83711 18.43967,4.48069 24.72969,5.87462 28.5465,6.32621 50.7742,18.35112 77.27402,41.80444 35.26816,31.21354 53.91198,55.23268 66.10075,85.1586 1.01395,2.48941 1.87598,3.42526 2.70387,2.9353 0.66838,-0.39561 5.7333,-3.73274 11.2554,-7.41584 z m 91.44099,-86.03235 c 13.71238,-18.662 37.24318,-63.3051 45.9022,-87.08643 4.48013,-12.30432 9.91262,-33.52117 9.91262,-38.71415 0,-0.85379 -5.37655,-9.07775 -11.94798,-18.27548 -11.83211,-16.5609 -12.14039,-16.89281 -31.77609,-34.21222 -17.46187,-15.40194 -21.14249,-18.18909 -30.84226,-23.35476 -19.25255,-10.25311 -32.95422,-14.77063 -74.60189,-24.59666 -9.20349,-2.1714 -18.23964,-4.33018 -20.08035,-4.79729 -1.84069,-0.4671 -6.14361,-1.50145 -9.56205,-2.29857 -11.48471,-2.67804 -15.7167,-4.14592 -29.16431,-10.11567 -19.70598,-8.74804 -42.00528,-23.10283 -56.16346,-36.15429 -16.33258,-15.05584 -26.9393,-25.84564 -33.60674,-34.18672 -6.09466,-7.62463 -8.54007,-10.98645 -15.01626,-20.64354 -3.83907,-5.7248 -12.30054,-24.02781 -15.21153,-32.90404 -4.51971,-13.78174 -15.89273,-42.28593 -20.02986,-50.20084 -0.96213,-1.8407 -2.07582,-4.42246 -2.47475,-5.73724 -0.39901,-1.31478 -1.67871,-3.68139 -2.84385,-5.25914 -1.16513,-1.57774 -3.72184,-6.06108 -5.68149,-9.96299 -1.95975,-3.9019 -4.80513,-8.63512 -6.32291,-10.51828 -1.51789,-1.88313 -5.06685,-6.55373 -7.88661,-10.37908 -4.86107,-6.5946 -21.16038,-23.86342 -28.39436,-30.08329 -1.8407,-1.58266 -5.71334,-5.09639 -8.60586,-7.8083 -11.426,-10.71258 -18.07001,-15.90387 -26.77378,-20.91974 -12.22587,-7.04563 -36.00529,-15.08149 -54.50378,-18.41862 -7.62574,-1.3757 -23.58856,-4.62423 -35.47294,-7.21897 -22.86166,-4.99143 -38.33059,-10.34511 -50.50119,-17.47813 -3.25828,-1.90961 -6.09716,-3.47202 -6.30858,-3.47202 -3.25789,0 -41.50988,-32.1038 -56.79598,-47.66729 C 114.49651,210.15459 102.32008,190.8873 93.701985,164.38377 89.31978,150.90732 81.069441,131.21535 72.869491,114.66103 l -4.026007,-8.12775 -39.921633,-0.24955 -39.921614,-0.24954 v 46.21153 46.21154 l 6.3514143,13.80091 c 3.4933124,7.59051 10.507558,24.98853 15.5874067,38.66229 12.563307,33.81758 15.166777,38.60827 31.313468,57.62069 11.447315,13.47913 16.129956,18.03639 35.196813,34.25426 36.998031,31.46988 48.478621,37.13433 85.102391,41.98912 10.51826,1.3943 21.49073,3.31135 24.38325,4.26011 2.89253,0.94877 13.86501,3.75931 24.38328,6.24565 18.69623,4.41948 19.47487,4.70307 34.79941,12.6748 8.62143,4.48479 16.53355,8.85021 17.58252,9.70095 8.40286,6.81455 27.87485,24.04489 41.58074,36.79379 26.72693,24.86079 37.13475,40.70658 51.83395,78.91686 6.06119,15.75595 11.44865,29.73292 16.91329,43.87869 2.002,5.18233 5.74191,12.47427 8.93518,17.42132 0.50926,0.78888 1.64218,2.72267 2.51759,4.29732 0.8755,1.57466 3.24756,5.0561 5.27127,7.73655 2.02381,2.68043 3.67958,5.21199 3.67958,5.62567 0,3.17248 26.02469,29.24442 44.45022,44.53089 8.25684,6.85017 26.99735,19.95828 30.40192,21.26474 0.90171,0.34602 4.04561,2.16828 6.98643,4.04949 7.61857,4.87356 19.92839,8.46075 72.1107,21.01374 41.5813,10.00278 54.75391,15.23975 75.5403,30.0321 18.12452,12.89804 37.51361,30.37136 52.10179,46.95359 11.51492,13.08895 27.61228,38.85325 35.39111,56.64475 3.15549,7.21708 6.16754,13.11335 6.69345,13.10285 0.52591,-0.0105 2.30255,-1.85144 3.94809,-4.09096 z M 783.51607,687.6303 c 0.66351,-6.22867 1.048,-36.24634 1.048,-81.8107 v -71.97206 l -3.67824,-1.62285 c -5.20493,-2.2964 -58.93045,-17.49571 -64.69053,-18.3014 -13.01674,-1.82069 -36.63811,-8.24612 -47.99832,-13.05635 -9.87972,-4.18336 -43.52222,-25.98399 -56.7063,-36.74612 -9.50115,-7.7558 -29.20474,-28.11345 -40.68859,-42.03939 -2.60213,-3.15548 -4.97094,-5.95238 -5.26393,-6.21534 -0.29297,-0.26296 -2.74602,-3.70531 -5.45113,-7.64965 -4.79146,-6.98634 -11.70597,-22.22092 -11.70597,-25.79151 0,-0.97851 -0.39272,-1.92255 -0.87264,-2.09785 -1.0155,-0.3709 -10.09305,-22.14267 -17.27626,-41.43561 -8.81384,-23.67245 -20.42878,-44.0795 -39.11795,-68.72837 -10.99187,-14.49711 -15.99283,-19.47308 -26.70416,-26.57077 -5.42571,-3.59529 -10.0133,-6.53687 -10.1944,-6.53687 -0.1812,0 -5.27415,-2.98198 -11.31767,-6.62662 -18.4958,-11.15413 -19.07345,-11.38049 -46.55377,-18.24318 -22.73563,-5.67779 -30.88108,-8.00945 -50.20085,-14.37018 -39.69835,-13.07005 -46.76643,-16.15188 -63.58774,-27.72551 -2.36661,-1.62832 -11.0372,-7.34539 -19.26793,-12.7046 -20.32512,-13.23409 -39.99907,-31.26986 -49.68505,-45.54772 l -3.2406,-4.77696 -61.97882,-0.0247 -61.978811,-0.0246 0.677665,2.13508 c 0.372726,1.1743 2.173072,5.36966 4.000854,9.32301 8.524589,18.43804 11.941112,26.89812 16.461482,40.76249 10.61916,32.56938 22.72808,49.8481 54.44344,77.6872 21.48089,18.8555 24.37074,21.20131 34.98731,28.40098 19.20254,13.02226 40.73229,20.6043 74.58409,26.26588 48.66603,8.13923 74.68385,18.64914 98.96738,39.97799 30.26489,26.58242 47.09479,45.58906 61.52328,69.48087 2.84807,4.71605 14.01704,26.77461 14.01704,27.68348 0,0.25737 1.12603,2.92965 2.50229,5.93841 3.32809,7.27609 6.44666,15.6094 11.03511,29.48775 4.20567,12.72071 8.76363,24.04501 11.75293,29.20052 12.93058,22.30064 21.09897,32.91785 37.50051,48.74312 26.42935,25.50077 44.48645,37.69968 74.42479,50.27937 5.13091,2.15596 21.47173,6.88233 29.16431,8.43544 3.41844,0.69017 13.96062,3.20029 23.42706,5.57804 9.46644,2.37777 20.43891,5.05541 24.38326,5.95034 16.18552,3.67225 22.84665,6.14469 41.24808,15.31014 19.68868,9.80663 35.69223,21.79678 54.85069,41.09507 7.46892,7.52345 15.92265,17.14909 19.12289,21.77402 3.1548,4.5592 6.01798,7.98771 6.36258,7.61889 0.34463,-0.36881 1.09812,-5.09793 1.67462,-10.50917 z m 0.46758,-170.96264 c 0.31927,-0.83188 0.58042,-93.34486 0.58042,-205.58439 V 107.01138 H 505.82986 c -153.30382,0 -278.7342,0.26154 -278.7342,0.58121 0,0.31966 4.14411,5.05633 9.20903,10.52592 10.52775,11.3689 26.18972,23.04666 53.69652,40.03676 23.91502,14.77157 50.99786,25.11316 97.73714,37.32094 26.99026,7.04956 45.24559,13.25387 55.4422,18.84267 28.8451,15.81027 49.66125,33.48313 64.8721,55.07634 6.41997,9.11373 8.38201,11.95936 9.25169,13.41831 0.52591,0.88227 2.08205,3.10341 3.45812,4.93586 2.66312,3.54637 17.04027,31.65344 19.37246,37.87273 0.76458,2.039 2.95821,8.0102 4.87473,13.26935 1.91653,5.25913 3.88144,10.42264 4.36642,11.47447 0.48499,1.05182 2.53865,6.00019 4.56349,10.99637 12.72912,31.40697 14.88298,35.91779 21.23106,44.46361 13.89291,18.70283 42.29176,47.1414 56.7256,56.80493 8.19078,5.48378 33.15369,20.56855 41.25669,24.93089 6.43516,3.46442 25.52918,9.09207 37.30516,10.99509 12.41892,2.00689 35.26986,8.04232 54.50376,14.39561 17.08092,5.64212 18.19863,5.86043 19.02182,3.71522 z"
       style="fill:#000000"
       inkscape:connector-curvature="0" />
    <path
       id="path2379"
       d="m 616.71873,936.35112 c -9.56497,-23.48397 -24.93025,-45.73763 -45.49921,-65.89687 -20.54497,-20.13575 -37.40413,-34.19098 -50.02715,-41.70691 -16.65414,-9.91609 -30.48141,-15.51056 -47.84841,-19.35927 -6.29003,-1.39394 -17.4184,-4.03751 -24.72974,-5.87461 -7.31134,-1.8371 -18.71409,-4.41311 -25.33948,-5.72447 -27.4544,-5.43403 -49.00968,-15.70301 -71.48607,-34.0561 -46.09085,-37.63544 -63.32871,-59.92594 -76.75459,-99.25231 -1.70568,-4.99618 -4.95956,-13.60203 -7.23085,-19.12413 -2.27129,-5.52209 -5.94318,-14.77339 -8.15973,-20.55844 -11.38937,-29.72523 -22.46234,-44.92026 -53.68497,-73.67003 -30.37954,-27.97337 -40.30582,-35.48043 -57.20858,-43.26572 -10.03148,-4.62038 -23.4811,-8.15607 -38.72638,-10.18053 C 80.440079,493.75327 26.490037,464.75957 -5.948022,435.35654 l -4.095435,-3.71225 0.2706142,-98.01117 c 0.309238,-111.99853 -0.7643042,-103.4865 9.30445944,-73.77575 6.87206486,20.27809 10.89597536,28.79451 19.94885836,42.22093 10.870724,16.12269 18.990162,24.62222 48.470017,50.73917 22.007948,19.49741 28.003362,24.02534 40.761848,30.78439 16.19526,8.57978 26.72099,11.7294 48.65187,14.55822 12.60902,1.62641 50.67513,9.70599 61.18882,12.98741 10.30503,3.2163 28.62202,12.72806 37.90618,19.6842 11.46544,8.59042 43.75187,37.77618 53.23321,48.12088 13.09897,14.29176 22.58143,29.84599 30.03461,49.26622 1.81704,4.73453 5.98767,15.49291 9.26805,23.90752 3.2804,8.41462 7.63659,19.81739 9.68044,25.33948 3.61458,9.76591 8.01665,19.00025 12.30744,25.81757 12.14653,19.29877 21.02724,30.17515 36.01112,44.10352 27.78784,25.83038 45.50086,39.00367 65.43175,48.66198 12.98612,6.29296 22.2881,9.40608 36.81395,12.32069 11.06535,2.22026 13.29337,2.7282 27.25189,6.21284 5.25914,1.31292 14.72558,3.51974 21.03654,4.90406 27.66019,6.06728 43.98922,13.99523 70.21538,34.09042 8.24278,6.31586 41.33077,39.7541 47.1422,47.64125 11.78648,15.99637 20.07489,31.19644 27.99635,51.34233 l 4.58467,11.65977 -5.77138,6.50816 c -6.67681,7.52916 -25.67362,26.06236 -34.69798,33.85114 -11.16497,9.63637 -36.74153,28.295 -47.57492,34.7069 -0.82783,0.48995 -1.68986,-0.4459 -2.7038,-2.9353 z M 775.54209,690.52138 c -3.20029,-4.62493 -11.65395,-14.25057 -19.12293,-21.77403 -19.15847,-19.29829 -35.16206,-31.28843 -54.85071,-41.09506 -18.40138,-9.16546 -25.06255,-11.63791 -41.24803,-15.31016 -3.94436,-0.89492 -14.91683,-3.57256 -24.38328,-5.95031 -9.46644,-2.37778 -20.00861,-4.8879 -23.42705,-5.57806 -7.69259,-1.5531 -24.03336,-6.27948 -29.16431,-8.43543 -29.93832,-12.5797 -47.99547,-24.77861 -74.42481,-50.27937 -16.40153,-15.82527 -24.56989,-26.44248 -37.50046,-48.74314 -2.98933,-5.15551 -7.54725,-16.4798 -11.75296,-29.20052 -4.58843,-13.87833 -7.70699,-22.21164 -11.03515,-29.48772 -1.37624,-3.00876 -2.50225,-5.68106 -2.50225,-5.93842 0,-0.90887 -11.16896,-22.96744 -14.01704,-27.68347 -14.42853,-23.89182 -31.25837,-42.89848 -61.52328,-69.48088 -24.28354,-21.32885 -50.30132,-31.83876 -98.96737,-39.97799 -33.85179,-5.66159 -55.38154,-13.24362 -74.58408,-26.26589 -10.61657,-7.19968 -13.50643,-9.54548 -34.98732,-28.40097 -18.16716,-15.94682 -27.69613,-26.12817 -35.78526,-38.23544 -8.65262,-12.95063 -13.04725,-22.24285 -18.65818,-39.45176 -4.52036,-13.86436 -7.936893,-22.32445 -16.461472,-40.76249 -1.827793,-3.95336 -3.628139,-8.14871 -4.000864,-9.32301 l -0.677665,-2.13509 61.978821,0.0247 61.97883,0.0247 3.24057,4.77695 c 9.6859,14.27787 29.35995,32.31364 49.68505,45.54772 8.23075,5.35922 16.90133,11.0763 19.26795,12.70461 16.82123,11.57363 23.88932,14.65546 63.58773,27.72551 19.31979,6.36073 27.46521,8.69239 50.20085,14.37019 27.48025,6.86267 28.0579,7.08904 46.55372,18.24317 6.04354,3.64464 11.13651,6.62661 11.31768,6.62661 0.18118,0 4.76867,2.9416 10.19442,6.53686 10.71135,7.09771 15.71232,12.07367 26.7042,26.57078 18.6891,24.64887 30.3041,45.05592 39.11788,68.72836 2.74133,7.36279 7.57289,19.62614 10.73682,27.25189 3.16393,7.62575 7.63645,18.57482 9.93895,24.33125 3.3298,8.32482 11.59255,22.66518 14.63027,25.39148 0.293,0.26296 2.66175,3.05988 5.26387,6.21536 11.48394,13.92594 31.18746,34.28357 40.68864,42.03939 13.18406,10.76213 46.82659,32.56274 56.7063,36.7461 11.36021,4.81024 34.98159,11.23567 47.99833,13.05637 5.76012,0.80568 59.4856,16.00499 64.69049,18.30138 l 3.67827,1.62285 v 71.97209 c 0,66.72569 -0.69066,90.14509 -2.72262,92.31986 -0.34458,0.3688 -3.20774,-3.0597 -6.36255,-7.61889 z"
       style="fill:#ffffff;fill-opacity:1"
       inkscape:connector-curvature="0" />
  </g>
</svg>
