<?xml version="1.0" encoding="UTF-8" standalone="no"?>
<!-- Created with Inkscape (http://www.inkscape.org/) -->

<svg
   xmlns:dc="http://purl.org/dc/elements/1.1/"
   xmlns:cc="http://creativecommons.org/ns#"
   xmlns:rdf="http://www.w3.org/1999/02/22-rdf-syntax-ns#"
   xmlns:svg="http://www.w3.org/2000/svg"
   xmlns="http://www.w3.org/2000/svg"
   version="1.1"
   width="378.26752"
   height="478.92783"
   viewBox="0 0 302.61403 383.14224"
   id="svg2"
   style="fill-rule:evenodd">
  <metadata
     id="metadata48">
    <rdf:RDF>
      <cc:Work
         rdf:about="">
        <dc:format>image/svg+xml</dc:format>
        <dc:type
           rdf:resource="http://purl.org/dc/dcmitype/StillImage" />
        <dc:title></dc:title>
      </cc:Work>
    </rdf:RDF>
  </metadata>
  <defs
     id="defs46" />
  <g
     id="g3188">
    <path
       d="m 70.857522,10.749931 c 20.972558,13.500877 54.662398,11.22189 76.045038,-0.355887 l 4.39733,-2.3815098 4.40126,2.3730198 c 23.34035,12.581447 53.33874,12.579488 76.67911,-6.52e-4 l 6.95841,-3.7502081 35.38242,46.4071021 -2.63095,5.180941 c -8.86193,17.450904 -12.96673,37.173612 -7.38157,56.311883 4.69053,16.07241 15.35214,29.07178 28.58789,39.01051 l 3.72932,2.80009 -0.0314,4.66377 c -0.40224,59.03163 -22.91459,111.06829 -62.82168,154.00924 -22.2851,23.979 -49.58397,44.66424 -78.52712,60.01246 l -4.33594,2.29989 -4.33661,-2.29989 C 118.03059,359.68051 90.734338,338.99788 68.448586,315.01823 28.541495,272.07728 6.0278439,220.04128 5.6249399,161.00963 l -0.031997,-4.66441 3.7299642,-2.80009 C 22.55997,143.6064 33.222887,130.60638 37.91277,114.53201 43.497268,95.394389 39.391825,75.672336 30.529242,58.22339 l -2.63161,-5.181594 35.772265,-46.918405 7.187625,4.62654 z"
       id="path18"
       style="fill:#eeeeee;stroke:#000000;stroke-width:3.20000029" />
    <path
       d="M 65.847667,18.532445 38.781266,54.032404 C 59.896833,95.607923 49.703427,134.80062 14.879979,160.94629 15.775249,292.05989 129.43663,355.25378 151.30969,366.85441 173.18535,355.25378 286.84674,292.05989 287.7394,160.94629 252.91856,134.80062 242.72515,95.607923 263.83811,54.032404 l -27.0664,-35.499959 c -25.82699,13.920106 -59.12763,14.195674 -85.46202,0 -24.96699,13.51916 -62.078569,15.052416 -85.462023,0 z m 0,0"
       id="path20"
       style="fill:#ffffff;stroke:#000000;stroke-width:3.20000029" />
    <path
       d="m 14.879979,160.94629 c 0.89527,131.1136 114.556651,194.30749 136.429711,205.90812 21.87566,-11.60063 135.53705,-74.79452 136.42971,-205.90812 l -272.859421,0 z m 0,0"
       id="path8"
       style="fill:#d40000;fill-opacity:1;stroke:none" />
    <path
       d="m 14.879979,160.94629 272.859421,0"
       id="path16"
       style="fill:none;stroke:#000000;stroke-width:1.60000014" />
    <path
       d="M 239.33867,6.6346928 236.77171,18.532444"
       id="path3074"
       style="fill:none;stroke:#000000;stroke-width:1.59994042;stroke-linecap:butt;stroke-linejoin:miter;stroke-opacity:1" />
    <path
       d="m 297.01857,156.35628 -9.28386,4.57971 C 286.84205,292.04959 173.18975,355.2481 151.3141,366.84872 l 0,10.47858 4.3308,-2.28985 c 28.94315,-15.34822 56.242,-36.03014 78.52711,-60.00914 39.90708,-42.94096 62.41943,-94.98601 62.82167,-154.01765 l 0.0249,-4.65438 z"
       id="path3221"
       style="fill:#000000;stroke:none" />
    <path
       d="m 263.84057,54.034593 c -8.73496,17.200825 -12.1124,34.000224 -10.60303,49.630127 l 9.30875,0 c -1.71236,-15.629839 2.34008,-31.2848 9.53278,-45.448651 l 2.14051,-4.181476 -10.37901,0 z"
       id="path5460"
       style="fill:#000000;stroke:none" />
    <path
       d="m 151.3141,8.0383711 0,10.5034669 c 7.78846,4.198213 16.18148,7.122837 24.81505,8.810965 l 0,-9.458098 c -7.12742,-1.55772 -14.03383,-4.066482 -20.43447,-7.516699 L 151.3141,8.0383711 z"
       id="path5470"
       style="fill:#000000;stroke:none" />
    <path
       d="m 28.184596,53.611468 2.339635,4.604601 c 2.354124,4.634875 4.358266,13.416754 5.948645,18.318841 l 9.706995,-3.982357 c -1.781153,-6.095668 -4.223544,-12.278934 -7.39225,-18.51796 l 0.323567,-0.423125 z"
       id="path5478"
       style="fill:#000000;stroke:none" />
    <path
       d="m 5.60961,156.35628 0.02489,4.65438 c 0.040782,5.98503 0.3309392,15.86465 0.8213611,21.70384 l 9.2589799,-3.98235 c -0.50671,-5.79397 -0.779934,-11.71128 -0.821361,-17.79616 z"
       id="path5488"
       style="fill:#000000;stroke:none" />
    <path
       d="m 46.193525,72.56142 c 5.135231,17.579545 4.581483,34.40487 -1.093783,49.62837 l 212.422508,0 c -5.67788,-15.2235 -6.22902,-32.048825 -1.09379,-49.62837 l -210.234935,0 z m 0,0"
       id="path12"
       style="fill:#000000;stroke:none" />
    <path
       d="m 151.30969,18.54028 c -7.42271,4.019898 -15.92483,6.955809 -24.81419,8.733942 l 0,133.672068 49.62837,0 0,-133.605463 c -8.62946,-1.68867 -17.02644,-4.601725 -24.81418,-8.800547 z m 0,0"
       id="path14"
       style="fill:#000000;stroke:none" />
    <path
       d="M 63.983734,7.2218219 66.109198,20.520082"
       id="path3015"
       style="fill:none;stroke:#000000;stroke-width:6.4000001" />
    <g
       id="g3183">
      <path
         d="m 74.913684,175.04073 38.643406,0 0,11.04098 11.04097,0 0,-11.04098 22.08195,0 0,11.04098 -11.04097,0 0,11.04097 -11.04098,0 0,11.04097 11.04098,0 0,11.04098 11.04097,0 0,11.04097 -22.08195,0 0,-11.04097 -11.04097,0 0,11.04097 -38.643406,0 0,-22.08195 16.56146,0 0,11.04098 11.040976,0 0,-11.04098 11.04097,0 0,-11.04097 -11.04097,0 0,-11.04097 -11.040976,0 0,11.04097 -16.56146,0 z"
         id="path3009"
         style="fill:#ffff00;stroke:#000000;stroke-width:1.60000014;stroke-linecap:butt;stroke-linejoin:miter;stroke-opacity:1" />
      <path
         d="m 146.68001,169.52025 0,102.23251 -11.04097,0 0,10.14389 c -13.78305,3.4036 -24.16648,10.93344 -27.1884,20.11527 l -5.93452,0 0,5.52049 0,5.52049 5.93452,0 c 3.02192,9.18184 13.40535,16.71167 27.1884,20.11527 l 0,10.14389 33.12291,0 0,-10.14389 c 13.78305,-3.4036 24.16648,-10.93343 27.1884,-20.11527 l 5.93452,0 0,-5.52049 0,-5.52049 -5.93452,0 c -3.02192,-9.18183 -13.40535,-16.71167 -27.1884,-20.11527 l 0,-10.14389 -11.04097,0 0,-102.23251 -11.04097,0 z"
         id="rect2990"
         style="fill:#ffff00;stroke:#000000;stroke-width:1.60000014" />
      <path
         d="m 146.68001,279.92998 0,12.5591 c -14.27364,1.30021 -25.08371,7.53123 -25.08371,15.04333 0,7.5121 10.81007,13.74312 25.08371,15.04333 l 0,12.5591 11.04097,0 0,-12.5591 c 14.27364,-1.30021 25.08371,-7.53123 25.08371,-15.04333 0,-7.5121 -10.81007,-13.74312 -25.08371,-15.04333 l 0,-12.5591 -11.04097,0 z"
         id="path3014"
         style="fill:#d40000;fill-opacity:1;stroke:#000000;stroke-width:1.60000014" />
    </g>
  </g>
</svg>
