<svg height="576.15979" viewBox="0 0 132.29166 152.44228" width="500" xmlns="http://www.w3.org/2000/svg" xmlns:xlink="http://www.w3.org/1999/xlink"><clipPath id="a"><path d="m0 0h595.276v841.89h-595.276z"/></clipPath><clipPath id="b"><path d="m24.67 805.696v-56.852c0-22.091 18.731-40 41.836-40 23.106 0 41.837 17.909 41.837 40v56.852z"/></clipPath><clipPath id="c"><path d="m0 0h595.276v841.89h-595.276z"/></clipPath><g clip-path="url(#c)" transform="matrix(1.5288784 0 0 -1.5288784 -35.533908 1233.994887)"><path d="m0 0v56.852h-83.673v-56.852c0-22.092 18.731-40.001 41.837-40.001 23.105 0 41.836 17.909 41.836 40.001" fill="#fcdd09" transform="translate(108.3426 748.8445)"/></g><g stroke="#000"><g clip-path="url(#b)" fill="#0f47af" stroke-linecap="square" stroke-width=".75" transform="matrix(1.5288784 0 0 -1.5288784 -35.533908 1233.994887)"><path d="m0 0s.27-23.903-1.382-30.063c-1.651-6.16 3.544-7.632 3.544-7.632s18.523-9.628 35.565-8.536c0 0 .728 21.995-10.633 35.395l-3.569 6.409z" transform="translate(22.5072 816.532)"/><path d="m0 0 .364-27.966-6.003-3.117s-18.522-9.628-35.564-8.536c0 0-.729 21.995 10.633 35.395l1.22 4.297z" transform="translate(113.9814 809.92)"/><path d="m0 0s.169-30.652-12.241-44.46c-9.38-6.89-24.376 21.858-24.82 32.802-.029.721 1.333 2.469 1.36 3.146 0 0 11.935 9.629 35.701 8.512" transform="translate(60.3711 757.3439)"/><path d="m0 0s-.169-30.652 12.241-44.46c10.256-3.758 26.717 22.183 27.662 33.02.105 1.212-4.159 1.826-4.202 2.928 0 0-11.935 9.629-35.701 8.512" transform="translate(72.6223 757.3439)"/></g><g clip-path="url(#a)" stroke-width="1.5" transform="matrix(1.5288784 0 0 -1.5288784 -35.533908 1233.994887)"><path d="m0 0v56.852h-83.673v-56.852c0-22.092 18.731-40.001 41.837-40.001 23.105 0 41.836 17.909 41.836 40.001z" fill="none" stroke="#000" stroke-width="1.125" transform="translate(108.3426 748.8445)"/></g></g></svg>