<?xml version="1.0" encoding="UTF-8" standalone="no"?>
<!-- Generator: Adobe Illustrator 14.0.0, SVG Export Plug-In . SVG Version: 6.00 Build 43363)  -->

<svg
   xmlns:dc="http://purl.org/dc/elements/1.1/"
   xmlns:cc="http://creativecommons.org/ns#"
   xmlns:rdf="http://www.w3.org/1999/02/22-rdf-syntax-ns#"
   xmlns:svg="http://www.w3.org/2000/svg"
   xmlns="http://www.w3.org/2000/svg"
   xmlns:sodipodi="http://sodipodi.sourceforge.net/DTD/sodipodi-0.dtd"
   xmlns:inkscape="http://www.inkscape.org/namespaces/inkscape"
   version="1.1"
   id="Ebene_1"
   x="0px"
   y="0px"
   width="500"
   height="614.84283"
   viewBox="0 0 500 614.84283"
   enable-background="new 0 0 408.19 504.57"
   xml:space="preserve"
   sodipodi:docname="Wappen_Hohenems.svg"
   inkscape:version="0.92.2 (5c3e80d, 2017-08-06)"><metadata
     id="metadata27"><rdf:RDF><cc:Work
         rdf:about=""><dc:format>image/svg+xml</dc:format><dc:type
           rdf:resource="http://purl.org/dc/dcmitype/StillImage" /><dc:title /></cc:Work></rdf:RDF></metadata><defs
     id="defs25" /><sodipodi:namedview
     pagecolor="#ffffff"
     bordercolor="#666666"
     borderopacity="1"
     objecttolerance="10"
     gridtolerance="10"
     guidetolerance="10"
     inkscape:pageopacity="0"
     inkscape:pageshadow="2"
     inkscape:window-width="1920"
     inkscape:window-height="1017"
     id="namedview23"
     showgrid="false"
     fit-margin-top="5"
     fit-margin-left="5"
     fit-margin-bottom="5"
     fit-margin-right="5"
     inkscape:zoom="0.66146302"
     inkscape:cx="300.47416"
     inkscape:cy="164.10918"
     inkscape:window-x="-8"
     inkscape:window-y="-8"
     inkscape:window-maximized="1"
     inkscape:current-layer="Ebene_1" /><path
     d="m 493.18751,364.84523 c 0,134.31017 -108.88097,243.18509 -243.19234,243.18509 -134.30292,0 -243.1826823,-108.87492 -243.1826823,-243.18509 v 0.0109 V 6.8124877 H 493.1851 v 358.0411923 -0.0109 l 0.002,0.002 z"
     id="path2"
     style="fill:#0f47af;fill-opacity:1;stroke:#000000;stroke-width:3.62497544"
     inkscape:connector-curvature="0" /><g
     id="g20"
     transform="matrix(1.2083251,0,0,1.2083251,1.9381042,1.0717037)"><path
       d="m 309.992,76.947 c 0.164,0.16 4.226,4.39 4.469,4.628 1.479,1.453 3.104,2.772 4.54,4.289 0.703,0.746 4.03,5.701 4.552,6.42 0.638,0.88 4.455,5.774 5.212,6.942 0.631,0.98 4.055,5.383 4.318,5.849 0.896,1.596 1.708,3.265 2.511,4.91 0.589,1.213 1.037,2.479 1.58,3.711 0.362,0.815 2.584,3.504 2.78,3.794 0.785,1.171 1.327,2.715 1.884,4.027 0.968,2.288 2.229,4.809 2.519,7.224 0.104,0.884 0.125,6.173 0.488,6.918 0.43,0.878 0.488,7.23 0.562,7.645 0.264,1.526 0.982,2.999 1.23,4.538 0.238,1.505 1.073,6.349 1.455,7.24 0.381,0.889 0.873,7.636 0.873,7.831 -0.006,1.43 0.051,2.856 0.062,4.278 0.019,1.891 0.226,3.677 0.562,5.524 0.137,0.738 0.903,3.851 0.938,4.699 0.037,0.926 0.354,2.06 0.408,2.741 -0.01,0.954 1.031,4.563 1.031,5.33 0.002,1.126 0.633,6.612 0.699,6.988 0.204,1.098 0.566,2.177 0.698,3.285 0.179,1.459 0.362,2.294 0.815,3.704 0.433,1.344 0.791,2.697 1.143,4.053 0.027,0.102 0.357,3.255 0.488,3.773 0.082,0.33 0.47,3.352 0.629,3.71 0.902,2.042 1.398,4.282 2.531,6.24 0.254,0.438 3.512,4.729 3.696,5.126 0.366,0.805 1.815,2.395 2.074,2.64 0.968,0.913 2.043,1.705 3.062,2.561 0.59,0.495 1.17,0.854 1.823,1.281 0.424,0.276 0.695,0.647 1.122,0.9 0.803,0.478 1.611,0.876 2.375,1.417 0.27,0.19 2.344,1.143 3.021,1.576 0.379,0.245 1.111,0.183 1.543,0.25 0.9,0.14 1.309,0.557 1.301,-0.638 -0.004,-0.585 0.122,-1.395 -0.08,-1.954 -0.133,-0.364 -0.723,-0.574 -0.924,-0.692 -1.227,-0.71 -2.317,-0.875 -3.4,-1.809 -0.318,-0.273 -2.068,-1.526 -2.357,-1.813 -0.104,-0.103 -2.176,-2.195 -2.467,-2.458 -1.207,-1.089 -1.461,-1.816 -2.478,-3.106 -0.259,-0.331 -1.896,-3.873 -2.521,-4.731 -0.58,-0.793 -1.791,-3.874 -1.828,-4.742 -0.015,-0.349 -0.393,-1.849 -0.428,-2.259 -0.111,-1.358 -0.398,-2.689 -0.508,-4.024 -0.074,-0.891 -0.564,-4.05 -0.852,-4.82 -0.354,-0.956 -0.512,-2.007 -0.543,-3.029 -0.021,-0.607 -0.142,-2.751 0.188,-3.115 v 0 c 0.431,-0.473 0.599,-1.826 0.989,-2.329 0.482,-0.625 0.906,-1.429 1.232,-2.165 0.303,-0.676 0.276,-1.017 0.575,-1.699 0.261,-0.586 0.185,-1.087 0.083,-1.727 -0.207,-1.3 -1.25,-3.56 -1.279,-3.913 -0.028,-0.363 -0.123,-1.883 0.127,-2.445 0.119,-0.267 1.693,-2.415 1.811,-2.686 0.175,-0.404 1.281,-1.746 1.379,-2.15 0.135,-0.548 0.276,-1.135 0.358,-1.695 0.085,-0.588 0.038,-3.866 -0.196,-4.753 -0.161,-0.602 -1.244,-2.292 -1.411,-2.737 -0.532,-1.414 -1.012,-2.84 -0.735,-4.367 0.06,-0.341 0.83,-2.035 1.191,-2.509 0.104,-0.137 1.855,-2.583 1.917,-2.805 0.242,-0.854 0.329,-1.804 0.325,-2.694 -0.004,-1.192 0.055,-2.389 -0.083,-3.566 -0.05,-0.414 -0.368,-1.752 -0.455,-2.02 -0.45,-1.363 -1.231,-2.543 -2.146,-3.633 -0.828,-0.986 -1.27,-2.549 -0.953,-3.861 0.427,-1.788 1.466,-3.436 2.619,-4.816 0.562,-0.675 0.743,-1.793 0.875,-2.617 0.047,-0.309 0.391,-2.567 0.442,-3.409 0.062,-0.972 -0.53,-3.243 -0.719,-4.02 -0.198,-0.821 -0.269,-2.514 -0.898,-3.066 -0.229,-0.204 -3.718,-3.886 -3.905,-4.158 -0.252,-0.37 -1.403,-2.792 -1.09,-3.808 0.346,-1.122 0.616,-2.283 0.616,-3.463 v 0 c 0,-1.785 -1.198,-3.576 -1.047,-5.358 0.063,-0.744 -1.694,-3.292 -2.096,-3.611 -0.814,-0.646 -1.634,-1.024 -2.656,-2.05 -0.979,-0.983 -1.474,-1.555 -1.49,-2.982 -0.01,-0.892 -0.041,-5.232 -0.138,-5.8 -0.055,-0.327 -0.578,-4.865 -1.137,-5.229 -0.496,-0.323 -1.688,-1.97 -1.909,-2.11 -0.566,-0.354 -2.237,-2.388 -2.541,-2.679 -0.433,-0.413 -1.823,-1.049 -4.157,-1.867 -0.508,-0.176 -1.791,-1.763 -1.857,-2.326 -0.076,-0.652 -0.308,-2.087 -0.595,-2.68 -0.217,-0.449 -0.502,-1.71 -0.762,-1.927 -0.224,-0.186 -1.574,-2.789 -1.826,-3.018 -0.206,-0.186 -3.385,-3.084 -3.639,-3.208 -0.336,-0.162 -2.315,-0.614 -2.607,-0.776 -0.421,-0.232 -3.097,-0.35 -3.31,-0.786 l -1.46,-0.822 c -0.267,-0.541 -0.61,-1.687 -0.665,-2.228 -0.062,-0.602 -1.039,-3.658 -1.818,-4.333 -0.191,-0.167 -1.258,-1.526 -1.609,-1.77 -0.524,-0.373 -2.256,-1.926 -2.73,-2.357 -0.396,-0.359 -1.948,-0.919 -2.139,-0.982 -1.555,-0.521 -5.07,-0.378 -5.495,-0.39 -0.472,-0.01 -3.06,-0.029 -3.323,-0.233 -0.102,-0.079 -1.929,-2.005 -2.268,-2.485 -0.391,-0.552 -3.144,-3.355 -3.467,-3.393 -0.906,-0.105 -3.799,-1.301 -7.07,-0.877 -1.883,0.244 -4.528,0.795 -6.004,-0.078 -0.678,-0.401 -1.748,-1.134 -2.326,-1.593 -0.561,-0.445 -0.805,-1.172 -1.454,-1.59 -0.306,-0.195 -1.733,-1.102 -1.974,-1.206 -0.391,-0.171 -2.857,-0.812 -3.111,-0.876 -0.486,-0.123 -0.646,-0.397 -1.094,-0.567 -0.573,-0.219 -1.397,-0.798 -1.73,-1.327 -0.181,-0.286 -1.021,-1.23 -1.236,-1.499 -0.188,-0.232 -1.408,-2.303 -1.63,-2.399 -0.353,-0.153 -3.169,-1.411 -3.497,-1.614 -0.597,-0.369 -3.24,-1.472 -3.513,-1.918 -0.219,-0.363 -3.185,-0.583 -3.521,-0.521 -0.627,0.117 -1.951,-0.206 -2.584,-0.14 -0.851,0.089 -3.914,-0.406 -4.088,-0.406 -0.471,0 -0.957,0.029 -1.429,0.002 -0.366,-0.021 -3.983,0.969 -4.315,0.939 -0.26,-0.024 -2.033,-1.148 -2.795,-1.281 -0.338,-0.059 -2.194,-1.308 -2.328,-1.397 -0.391,-0.259 -2.092,-1.296 -2.795,-1.282 -0.446,0.009 -1.168,-0.349 -2.127,-0.601 -0.422,-0.109 -3.028,-0.255 -3.317,-0.252 -0.298,0.003 -2.405,-0.658 -4.455,0.736 -1.622,1.104 -2.241,1.826 -2.47,2.097 -0.793,0.932 -2.737,1.746 -2.938,1.864 -1.35,0.815 -2.9,0.098 -3.447,-0.116 -0.404,-0.16 -3.856,-2.375 -6.473,-2.749 -0.941,-0.134 -3.771,0.571 -4.193,0.769 -0.761,0.358 -3.924,1.709 -4.588,2.33 -0.397,0.371 -2.809,3.145 -3.037,3.366 -1.11,1.082 -2.483,2.954 -2.789,2.923 -0.506,-0.054 -2.773,-0.816 -5.052,-0.816 -0.435,0 -5.168,-0.011 -5.778,0 -1.993,0.037 -3.82,0.816 -5.476,1.748 -0.855,0.482 -3.165,1.866 -3.448,2.112 -0.382,0.33 -1.532,1.732 -2.208,3.557 -0.122,0.326 -0.831,1.216 -1.377,1.413 -0.674,0.244 -4.078,-0.014 -4.506,-0.196 -0.428,-0.182 -1.938,-1.793 -2.258,-2.277 -0.26,-0.392 -3.1,-1.21 -4.073,-1.015 -0.427,0.085 -2.042,0.446 -2.721,0.833 -1.119,0.317 -3.995,1.476 -5.224,1.027 -0.301,-0.109 -2.636,-0.087 -2.947,0.16 -0.283,0.226 -0.039,1.318 -0.215,1.686 -0.264,0.551 -0.303,1.966 0.012,2.329 0.251,0.289 1.255,1.542 1.524,2.064 0.265,0.509 1.615,0.669 1.959,1.12 1.1,1.439 1.535,3.279 1.989,5.065 0.131,0.51 1.185,3.058 1.368,3.321 0.35,0.515 1.074,2.974 1.031,3.532 -0.064,0.853 -1.473,4.675 -1.729,4.994 -0.429,0.529 -1.574,3.016 -1.574,3.354 0,1.588 -0.75,2.93 -0.896,4.508 -0.15,1.607 -0.052,2.372 -0.5,3.529 -0.187,0.486 -0.83,2.875 -1.037,3.193 -0.564,0.865 -2.725,2.644 -3.086,2.871 -0.544,0.341 -3.843,2.559 -4.12,2.84 -0.24,0.246 -3.416,4.236 -3.603,4.336 -0.513,0.275 -4.231,8.316 -4.755,8.665 -0.454,0.302 -2.271,8.665 -2.481,9.901 -0.108,0.637 -0.794,3.143 -0.852,3.83 -0.101,1.229 -0.019,2.989 0.469,4.1 0.258,0.588 3.345,2.998 3.995,3.447 0.267,0.185 5.148,-1.253 5.626,-1.732 0.356,-0.357 1.9,-1.934 2.31,-2.185 0.265,-0.162 4.006,-1.521 4.758,-2.017 0.439,-0.291 2.868,-1.218 3.163,-1.349 0.536,-0.239 3.308,-2.372 3.931,-3.252 0.344,-0.486 0.47,-0.723 1.124,-0.951 0.595,-0.208 1.28,-0.162 1.921,-0.132 0.554,0.025 1.035,0.241 1.163,0.756 0.084,0.336 -0.381,3.692 -0.387,4.14 -0.01,0.638 -0.329,1.101 -0.663,1.659 -0.274,0.462 -2.579,4.185 -2.784,4.702 -0.259,0.651 -1.492,2.749 -1.625,3.042 -0.118,0.261 -1.382,2.484 -1.312,2.897 0.132,0.776 1.479,1.521 2.211,1.358 0.383,-0.086 1.527,-0.998 1.971,-1.312 0.716,-0.506 3.374,-1.106 3.848,-0.938 0.498,0.176 1.377,1.61 1.652,1.751 0.636,0.333 1.325,0.599 1.478,1.298 0.364,1.668 -0.335,3.065 -0.363,4.335 -0.003,0.128 -1.512,1.883 -1.814,2.448 -0.348,0.646 -0.312,1.069 -0.312,1.799 0,0.466 2.277,1.662 2.842,1.665 1.284,0.006 2.228,-0.177 3.178,-1.042 0.275,-0.252 1.139,-1.06 1.324,-1.238 0.43,-0.418 1.551,-2.265 1.677,-2.529 0.146,-0.312 1.404,-1.904 1.611,-2.479 0.163,-0.45 1.992,-3.411 2.75,-4.518 0.792,-1.157 0.596,-2.459 0.596,-3.792 0,-0.901 0.092,-1.854 -0.013,-2.746 -0.104,-0.914 -0.456,-2.626 0.003,-3.446 0.273,-0.489 1.172,-0.468 1.707,-0.634 0.539,-0.167 1.601,-0.68 2.192,-0.482 0.771,0.258 1.649,1.668 1.931,2.414 0.245,0.647 0.838,3.161 0.776,3.673 -0.058,0.471 -0.845,2.979 -0.889,3.289 -0.073,0.538 -1.076,3.3 -1.22,3.708 -0.08,0.22 -1.662,3.045 -2.324,3.771 -0.348,0.379 -1.744,3.327 -2.333,4.21 -0.092,0.138 -3.54,3.145 -3.582,3.449 -1.061,1.535 -1.776,2.028 -2.796,2.486 -0.327,0.146 -2.71,1.909 -3.453,2.33 -0.95,0.538 -4.466,1.585 -5.097,1.817 -0.606,0.223 -3.406,1.691 -3.768,1.831 -0.398,0.156 -3.733,1.492 -4.699,2.329 -0.877,0.76 -3.146,1.487 -4.076,2.169 -1.389,1.02 -2.771,1.385 -4.311,2.138 -0.809,0.395 -4.746,2.624 -5.427,3.371 -0.321,0.352 -4.03,3.039 -5.021,3.746 -0.934,0.667 -4.003,3.112 -4.67,3.604 -0.558,0.411 -0.884,0.644 -1.572,0.653 -0.341,0.004 -3.424,0.969 -3.845,0.548 -1.171,-1.786 -2.629,-3.033 -3.262,-3.7 -1.395,-1.471 -2.527,-2.793 -4.075,-4.064 -0.867,-0.712 -2.358,-2.212 -3.043,-3.106 -0.357,-0.469 -3.193,-3.438 -3.753,-3.846 -0.828,-0.604 -3.307,-3.16 -3.572,-3.453 -0.557,-0.614 -4.054,-3.338 -4.426,-3.728 -0.384,-0.402 -3.959,-3.653 -3.96,-3.343 -10e-4,0.764 -2.206,-3.536 -2.096,-3.371 0.396,0.604 -0.661,-5.496 -1.102,-5.919 -0.318,-0.307 -1.412,-3.023 -1.927,-3.673 -0.505,-0.638 -1.854,-1.918 -1.855,-1.918 -1.423,-1.318 -2.315,-2.342 -3.89,-3.439 -0.472,-0.329 -3.215,-1.643 -4.225,-2.176 -1.235,-0.649 -3.356,-0.652 -4.471,-1.474 -0.657,-0.484 -4.898,-3.979 -5.437,-4.339 -0.553,-0.371 -9.628,-9.188 -9.814,-9.388 -0.679,-0.727 -8.236,-7.438 -9.922,-8.563 -1.427,-0.952 -7.457,-5.65 -8.925,-6.846 -0.283,-0.229 -4.499,-3.697 -4.792,-3.918 -1.6,-1.198 -1.457,-3.953 -2.985,-5.234 -0.335,-0.28 -1.952,-2.325 -2.008,-2.53 -0.102,-0.358 -3.617,-1.79 -4.99,-3.018 -0.925,-0.83 -1.517,-4.052 -2.476,-4.843 -0.805,-0.664 -1.846,-3.061 -2.441,-4.042 -0.438,-0.724 -1.208,-1.593 -1.993,-1.957 -1.018,-0.47 -1.533,-1.234 -2.375,-0.738 -0.574,0.338 -1.488,-0.003 -1.858,0.578 -0.292,0.46 -0.367,1.338 -0.318,1.865 0.041,0.433 0.544,1.69 0.546,2.043 0.003,0.555 1.007,3.368 0.332,3.276 -0.18,-0.024 -1.84,-0.896 -1.997,-0.973 -0.206,-0.103 -1.193,-2.525 -1.376,-2.797 -0.482,-0.718 -0.872,-1.667 -1.472,-2.284 -1.14,-1.171 -2.358,1.311 -2.942,2.884 -0.642,1.735 -0.184,5.005 -0.349,6.769 -0.333,3.554 0.203,2.486 -0.35,6.009 -0.286,1.827 0.7,0.2 -0.348,4.593 -0.067,0.287 0.856,4.977 1.047,5.401 0.736,1.628 0.867,1.279 2.096,2.586 1.525,1.622 2.42,1.795 4.146,3.214 0.693,0.569 2.327,2.462 2.982,3.075 0.443,0.416 2.496,2.271 2.865,2.47 2.095,1.133 3.791,-0.549 5.869,0.675 0.379,0.223 2.816,5.021 3.146,5.304 2.026,1.746 2.579,2.376 4.892,3.812 0.754,0.468 2.853,0.568 3.494,1.157 0.331,0.303 6.064,2.544 6.848,2.91 1.454,0.678 5.241,4.266 7.199,4.917 0.986,0.328 4.656,3.793 5.158,4.091 0.852,0.504 4.755,3.209 5.469,3.842 1.662,1.474 4.089,3.003 5.445,4.716 1.407,1.78 2.278,3.185 3.842,4.822 0.91,0.951 2.149,1.928 3.074,2.866 0.974,0.984 2.164,2.505 3.146,3.354 1.034,0.896 0.957,2.577 1.676,3.704 0.319,0.501 1.827,2.629 1.955,3.285 0.323,1.624 4.056,4.49 4.961,5.171 0.734,0.552 1.898,1.472 2.307,2.375 0.427,0.945 0.446,1.883 0.956,2.796 0.963,1.723 0.159,2.298 1.706,3.649 1.439,1.261 2.425,2.643 3.507,4.269 0.577,0.866 2.827,6.084 3.226,6.764 0.441,0.757 3.135,4.23 3.984,5.015 1.51,1.396 3.298,2.606 4.149,4.445 0.678,1.468 1.132,3.88 1.575,6.255 -1.174,0.594 -3.405,1.091 -3.726,1.048 -2.096,-0.279 -2.386,-0.482 -3.004,-0.629 -0.776,-0.184 -2.677,-1.075 -3.113,-1.283 -1.21,-0.58 -2.946,-1.306 -4.007,-2.215 -0.467,-0.399 -2.199,-1.62 -2.683,-1.81 -1.178,-0.461 -2.396,-0.799 -3.513,-1.351 -2.62,-1.294 -3.951,-1.225 -6.313,-3.009 -1.065,-0.803 -4.689,-2.937 -5.845,-3.608 -0.941,-0.547 -4.173,-2.368 -4.435,-2.516 -1.067,-0.606 -2.221,-1.485 -3.314,-2.008 -1.522,-0.726 -2.85,-0.501 -4.652,-0.508 -1.728,-0.007 -3.466,0.712 -5.17,1.27 -1.411,0.461 -4.569,2.535 -5.45,3.481 -0.572,0.613 -3.675,4.615 -4.053,5.311 -0.805,1.479 -1.625,6.393 -2.033,6.989 -0.751,1.098 -1.004,4.193 -1.638,5.692 -0.6,1.414 -0.603,2.807 -1.22,4.231 -0.254,0.587 -1.089,2.578 -1.576,4.027 -0.195,0.579 -2.547,7.482 -2.923,8.64 -0.453,1.396 -1.747,2.171 -2.286,3.558 -0.599,1.54 -1.215,2.75 -1.881,4.32 -0.5,1.183 -1.479,3.401 -2.375,4.333 -0.628,0.651 -2.386,3.409 -2.796,3.914 -0.305,0.375 -3.448,1.729 -3.875,2.097 -0.138,0.118 -3.998,4.664 -4.472,5.251 -1.416,1.755 -7.787,9.288 -8.004,9.565 -0.535,0.682 -2.342,1.87 -2.707,2.361 -0.755,1.008 -1.759,2.563 -2.103,3.744 -0.159,0.554 0.907,2.927 1.232,3.048 1.141,0.428 2.276,0.604 3.036,1.555 0.888,1.108 0.82,1.682 0.82,3.09 0,1.147 0.01,2.297 0,3.445 -0.013,1.746 4.614,0.166 4.614,0.166 2.166,0.211 5.918,-0.451 6.429,-0.638 0.742,-0.267 4.654,-1.14 5.451,-1.242 2.136,-0.271 5.561,-1.646 6.801,-2.393 1.385,-0.827 2.376,-2.763 2.843,-4.193 0.168,-0.519 2.366,-3.208 2.517,-4.19 0.2,-1.331 3.273,-6.438 2.654,-7.706 -0.359,-0.734 -1.651,-2.952 -1.746,-3.278 -0.384,-1.307 3.173,-4.085 3.672,-4.533 0.61,-0.548 3.447,-2.04 3.944,-2.904 0.885,-1.541 0.26,-3.649 0.419,-5.342 0.164,-1.732 0.439,-3.839 0.421,-5.59 -0.014,-1.009 1.034,-5.13 1.751,-5.642 1.821,-1.296 0.862,-2.719 1.881,-4.701 0.552,-1.075 3.669,-9.74 4.892,-10.761 0.542,-0.454 3.106,-2.186 3.774,-2.516 0.624,-0.308 5.169,-0.303 6.351,0 0.926,0.238 7.635,4.823 8.259,5.171 0.725,0.407 9.711,7.183 10.408,7.827 0.875,0.812 4.033,2.68 4.487,2.92 1.541,0.812 4.709,3.04 5.811,4.203 0.742,0.783 5.989,4.747 6.868,5.425 0.849,0.657 3.537,2.989 4.089,3.533 0.619,0.609 2.291,2.192 2.515,2.271 0.17,0.06 5.749,1.891 6.861,2.473 1.064,0.556 5.405,-0.632 6.683,-0.56 0.838,0.047 3.475,1.805 3.774,3.773 0.144,0.653 0.744,3.047 0.849,3.557 0.103,0.482 3.197,5.477 3.761,6.225 0.566,0.757 0.832,2.162 1.321,2.938 1.194,1.894 2.158,2.216 2.303,4.292 0.087,1.234 1.968,3.26 1.407,4.375 -0.366,0.724 -0.559,2.647 -0.977,3.353 -0.033,0.059 -1.422,2.817 -0.326,3.455 0.62,0.356 4.44,-2.994 4.907,-3.313 0.932,-0.638 1.953,-4.154 2.268,-5.31 0.307,-1.125 2.136,-3.164 2.517,-3.775 0.454,-0.729 0.428,-4.728 0.558,-5.589 0.152,-1.006 2.022,-2.639 4.117,-0.549 0.878,0.875 1.089,4.349 0.775,5.464 -0.388,1.39 0.245,3.026 0,4.449 0.839,2.235 1.952,2.491 2.795,2.235 1.818,-0.56 1.415,-0.672 2.516,-2.235 1.004,-1.427 0.831,-2.081 1.539,-3.636 0.507,-1.122 -0.239,-3.747 0.381,-4.249 0.325,-0.262 2.856,-2.17 3.178,-2.412 0.315,-0.24 1.194,0.646 2.413,1.487 0.237,0.163 1.017,0.559 1.296,1.816 0.637,2.131 -2.71,5.873 -3.215,6.85 -0.634,1.229 -2.167,2.055 -2.436,3.4 -0.25,1.256 -0.847,2.891 -0.522,4.168 1.284,0.325 2.853,0.292 3.656,-0.564 0.566,-0.607 1.577,-1.396 2.517,-1.551 0.737,-0.121 3.307,-3.152 3.353,-3.215 0.449,-0.624 1.833,-2.094 2.517,-2.376 1.417,-0.59 3.655,0.888 5.17,1.169 2.103,0.389 2.952,0.732 4.944,1.348 0.642,0.199 2.682,1.203 3.302,1.575 1.834,1.099 4.64,-0.146 6.569,0.802 0.504,0.246 3.138,1.795 4.613,2.25 0.943,0.293 2.315,1.457 2.787,2.287 0.176,0.305 -0.009,3.062 0.144,3.569 0.134,0.46 -0.021,5.192 -0.144,5.578 -0.08,0.252 -1.521,2.7 -1.678,2.944 -0.391,0.615 -3.204,1.654 -3.633,2.098 -0.292,0.305 -2.073,1.409 -2.376,1.816 -0.568,0.77 -4.94,1.375 -5.365,1.602 -0.628,0.339 -2.625,0.831 -3.172,1.146 -0.948,0.553 -2.22,0.776 -3.099,1.377 v 0 c -1.245,0.855 -6.053,3.625 -7.373,4.453 -0.752,0.477 -4.288,2.272 -5.19,3 -0.542,0.438 -3.883,2.283 -4.868,2.537 -0.268,0.068 -1.669,0.752 -1.984,0.967 -0.485,0.328 -3.431,3.077 -4.007,3.748 -0.894,1.037 -2.158,2.06 -3.165,2.997 -0.909,0.849 -3.219,4.305 -3.339,5.216 -0.129,0.974 -1.824,4.194 -2.188,5.104 -0.576,1.435 -1.235,2.945 -1.537,4.471 -0.425,2.146 -0.884,4.348 -0.872,6.531 0.007,1.179 0.172,3.806 0.172,5.209 0,1.204 0.735,4.707 0.419,5.87 -0.464,1.71 0,3.215 0.839,6.147 0.595,2.075 -0.42,6.082 -0.42,8.244 0,0.883 -2.895,3.39 -3.494,4.053 -0.409,0.456 -1.881,2.403 -2.796,2.936 -0.198,0.114 -1.8,1.81 -2.096,2.033 -0.364,0.277 -2.686,-0.266 -2.967,0.151 -0.822,2.096 -0.914,1.59 0.346,3.56 0.666,1.039 1.129,0.62 1.643,0.963 0.942,0.216 2.081,0.279 3.073,0.279 2.436,0 2.927,0.361 5.034,-0.839 1.092,-0.627 3.125,0.008 4.395,-0.421 1.455,-0.488 3.07,-0.993 4.41,-1.676 2.068,-1.057 2.503,-0.271 3.774,-2.331 0.413,-0.663 2.22,-1.311 2.376,-2.002 0.129,-0.571 1.289,-1.549 1.537,-2.098 0.263,-0.574 1.639,-1.95 2.237,-2.096 0.761,-0.186 1.366,0.771 1.819,1.258 1.279,1.379 1.06,4.021 0.116,5.638 -0.723,1.237 -0.406,4.719 0.535,4.498 1.097,-0.252 2.018,-0.836 2.811,-1.619 1.234,-1.214 0.247,-3.265 0.884,-4.822 0.38,-0.93 0.613,-2.172 1.102,-2.997 0.354,-0.597 0.768,-0.576 0.98,-1.133 0.593,-1.548 2.195,-2.564 3.723,-1.533 0.662,0.445 1.069,1.284 1.301,2.015 0.415,1.295 -0.251,2.092 -0.706,3.313 -0.866,2.327 -1.781,5.085 -3.305,7.061 -0.693,0.899 -0.851,1.709 -1.285,2.733 -0.377,0.884 -1.094,1.485 -1.492,2.362 -0.407,0.905 -1.961,4.611 -2.482,5.631 -0.702,1.378 -1.049,3.164 -2.066,4.317 -0.595,0.671 -6.102,6.596 -6.801,7.1 -1.257,0.905 -1.868,2.233 -2.966,3.354 -0.659,0.673 -6.037,6.761 -6.506,6.989 -0.11,0.055 -2.62,2.169 -3.277,2.655 -0.602,0.443 -2.622,1.338 -3.214,1.818 -0.817,0.655 -3.392,2.714 -3.891,3.383 -1.138,1.519 -1.223,5.878 -1.887,6.476 -0.693,0.623 -1.98,2.808 -2.084,3.072 -0.534,1.383 -1.145,2.9 -1.82,4.218 -0.684,1.333 -0.664,3.354 -1.686,4.373 -0.357,0.355 -2.02,1.503 -2.469,1.819 -0.536,0.374 -2.375,0.855 -2.993,1.788 -0.221,0.331 -2.388,3.003 -2.445,3.182 0,0 -0.658,3.215 -0.934,4.826 -0.122,0.71 -0.417,1.46 -0.472,2.173 -0.061,0.828 0.273,1.691 0.313,2.521 0.021,0.458 -0.811,2.47 -1.14,2.833 -0.588,0.653 -1.146,1.297 -1.702,1.968 -0.518,0.626 -2.122,2.869 -2.134,3.603 -0.011,0.575 -0.494,2.33 -0.889,2.792 -0.675,0.787 -0.333,3.745 0.11,4.255 0.401,0.462 2.233,2.34 2.485,2.436 1.093,0.402 2.19,-1.166 2.652,-1.889 0.279,-0.438 0.639,-1.349 1.256,-2.916 0.658,-0.31 0.658,-0.31 1.296,-0.457 0.768,-0.179 1.342,0.488 1.828,1.012 0.581,0.624 0.913,0.708 0.925,1.512 0.011,0.668 0.095,1.438 -0.03,2.093 -0.097,0.012 1.016,0.947 1.731,1.253 0.802,0.345 1.37,0.423 2.299,0.421 0.637,0 3.141,-0.991 3.571,-1.259 0.918,-0.565 2.583,-1.36 3.494,-1.956 0.888,-0.579 2.473,-0.785 3.494,-1.118 0.483,-0.157 4.773,-3.056 5.591,-3.774 1.516,-1.33 0.143,-1.937 1.12,-3.646 0.427,-0.751 1.673,-3.854 1.954,-4.876 0.156,-0.568 1.448,-2.534 1.259,-3.075 -0.228,-0.649 0.813,-2.442 0.557,-3.074 -0.265,-0.657 -0.288,-2.73 -0.634,-3.29 -0.319,-0.514 -1.016,-1.803 -0.981,-2.297 0.038,-0.524 1.315,-1.796 1.406,-2.176 0.08,-0.333 4.111,-3.32 4.62,-3.948 0.516,-0.643 1.699,-2.174 1.821,-3.882 -0.003,-0.901 -0.019,-1.582 0.192,-2.557 0.426,-0.812 4.129,-5.897 4.337,-6.448 0.334,-0.884 2.269,-3.831 2.741,-4.633 0.738,-1.26 3.677,-4.961 4.287,-5.723 1.225,-1.524 2.899,-2.669 4.59,-3.557 1.215,-0.641 1.654,-2.141 2.199,-3.341 0.64,-1.411 1.736,-2.539 2.632,-3.774 0.675,-0.931 3.939,-4.207 4.834,-5.146 0.928,-0.974 4.258,-4.021 4.958,-4.662 1.041,-0.952 2.239,-1.812 3.36,-2.668 0.772,-0.589 1.515,-1.306 2.358,-1.787 0.57,-0.321 1.234,-0.476 1.791,-0.816 1.705,-1.045 2.469,-3.114 3.66,-4.614 0.387,-0.489 1.721,-2.309 1.883,-2.758 0.127,-0.346 1.509,-2.604 1.625,-2.988 0.193,-0.629 0.402,-1.221 0.65,-1.832 0.365,-0.911 0.615,-1.745 0.145,-2.636 -0.356,-0.671 -1.635,0.203 -2.027,-0.406 -0.679,-1.072 -0.57,-1.9 -1.115,-3.032 -0.302,-0.628 -0.642,-2.79 -0.918,-3.424 -0.338,-0.773 -0.97,-3.196 -0.763,-4.402 0.082,-0.464 0.202,-3.463 0.256,-3.599 0.063,-0.17 0.2,-0.317 0.386,-0.376 0.229,-0.071 0.502,0.037 0.713,0.111 0.58,0.217 2.371,0.229 2.846,0.65 0.183,0.16 1.525,1.494 1.675,1.673 0.229,0.271 1.582,0.461 1.989,0.703 1.01,0.592 4.146,1.755 4.721,1.91 1.962,0.522 4.505,-1.092 4.614,-1.91 0.048,-0.382 -0.902,-1.606 -0.979,-1.958 -0.097,-0.438 -2.307,-2.118 -2.935,-2.936 -1.111,-1.445 -1.688,-3.3 -1.935,-4.014 -0.418,-1.223 -0.231,-4.837 -0.174,-5.201 0.104,-0.622 0.815,-2.661 0.996,-3.013 0.11,-0.225 0.688,-4.408 0.791,-4.707 0.167,-0.471 1.289,-2.493 1.498,-3.066 0.221,-0.592 0.741,-2.984 0.928,-3.501 0.092,-0.256 2.088,-2.078 2.164,-2.232 0.373,-0.753 2.01,-1.499 2.354,-1.458 0.659,0.071 1.301,0.304 1.931,0.504 0.48,0.153 2.57,2.361 2.869,2.685 0.252,0.279 2.842,1.491 3.199,1.611 0.087,0.027 2.811,1.224 3.443,1.438 0.59,0.197 3.193,0.949 3.887,1.193 0.789,0.275 2.822,1.865 3.242,2.177 v 0 c 0.364,0.271 2.153,-0.027 2.564,-0.339 0.475,-0.357 1.09,-0.553 1.657,-0.742 0.834,-0.28 3.013,-0.955 3.294,-0.914 0.456,0.07 0.956,0.363 1.334,0.603 0.447,0.281 0.874,0.624 1.051,1.132 0.135,0.388 0.027,0.925 0.033,1.336 0.008,0.384 -0.934,2.546 -1.212,3.284 -0.097,0.252 -1.376,3.001 -1.468,3.195 -0.116,0.254 -1.229,5.515 -1.348,5.855 -0.057,0.161 -0.169,2.334 -0.169,2.783 0,0.94 0.362,6.316 0.421,6.639 0.133,0.771 0.674,1.354 0.873,2.093 0.229,0.847 0.689,1.617 1.092,2.4 0.138,0.269 2.439,3.457 2.685,3.961 0.262,0.533 2.045,1.425 2.532,1.545 0.24,0.062 1.726,0.515 1.89,0.458 0.438,-0.146 0.433,-0.315 0.433,-0.722 0,-0.553 0.119,-1.221 -0.074,-1.729 -0.125,-0.329 -1.301,-2.448 -1.479,-2.688 -0.13,-0.175 -1.12,-3.319 -1.293,-3.729 -0.295,-0.701 -0.122,-1.354 0.067,-2.076 0.222,-0.827 0.75,-1.783 1.357,-2.368 0.391,-0.381 1.676,-1.745 1.969,-2.036 0.346,-0.345 1.961,-2.035 2.194,-2.299 0.453,-0.515 0.722,-1.152 1.062,-1.733 0.429,-0.729 0.965,-1.46 1.604,-2.021 0.622,-0.548 1.295,0.474 1.055,1.108 -0.065,0.184 -0.478,1.991 -0.569,2.384 -0.078,0.318 -0.229,1.774 -0.212,2.189 0.051,1.014 0.588,2.121 0.999,3.03 0.438,0.967 1.144,1.738 1.657,2.645 0.158,0.278 1.354,2.647 1.438,2.896 0.066,0.189 0.494,1.147 0.795,1.437 0.344,0.33 1.381,1.394 1.747,1.377 0.424,-0.02 1.994,-0.559 2.271,-0.821 0.119,-0.114 0.229,-1.271 0.229,-1.641 0,-0.421 -0.11,-1.146 -0.283,-2.193 -0.521,-1.103 -0.988,-2.24 -1.361,-3.113 -0.297,-0.847 -0.795,-3.522 -0.795,-4.05 0,-1.089 -0.158,-2.241 0.49,-3.184 0.506,-0.726 1.969,-2.688 2.276,-3.017 v 0 c 0.545,-0.576 1.946,-1.493 2.757,-1.58 1.116,-0.12 2.629,2.021 3.309,2.769 0.394,0.433 1.051,1.228 1.276,1.767 0.155,0.372 0.94,1.35 1.413,1.836 0.37,0.38 2.473,1.503 2.891,1.863 1.164,1.006 3.705,0.626 4.053,0.469 0.754,-0.347 1.199,-0.726 1.77,-1.308 0.48,-0.487 0.113,-1.642 -0.046,-2.096 -0.212,-0.597 -0.522,-0.933 -0.933,-1.396 -0.551,-0.624 -1.83,-0.897 -2.562,-1.304 -1.625,-0.902 -1.218,-0.784 -2.655,-1.956 -1.156,-0.941 -1.117,-4.328 0.406,-4.88 0.844,-0.303 3.369,-1.061 3.77,-1.049 0.82,0.021 2.119,1.006 2.57,1.671 0.479,0.712 0.688,1.623 1.215,2.264 0.761,0.919 2.101,1.939 3.33,1.541 0.646,-0.21 5.551,0.342 6.379,0.449 1.062,0.139 1.93,0.323 2.948,0.694 0.843,0.306 1.625,0.897 2.009,1.742 0.596,1.295 1.364,2.664 1.564,4.101 0.145,1.023 0.636,1.857 0.841,2.883 0.163,0.827 -0.43,4.15 -0.636,5.173 -0.236,1.189 -0.963,1.274 -1.084,2.484 -0.158,1.611 -0.717,2.125 -0.93,3.728 -0.107,0.801 -1.553,6.144 -2.334,7.571 -0.562,1.037 -1.332,3.388 -1.861,4.445 -0.598,1.198 -3.864,9.639 -4.675,10.889 -0.854,1.31 -3.454,6.117 -3.999,7.292 -0.762,1.646 -1.905,3.26 -2.885,4.764 -0.655,1.013 -2.603,4.599 -3.084,5.447 -1.012,1.779 -3.309,2.802 -4.576,4.435 -1.705,2.191 -1.162,5.835 -2.68,8.155 -0.988,1.509 -1.646,3.676 -2.681,5.142 -1.005,1.421 -2.938,1.733 -3.719,3.292 -0.663,1.318 -0.752,2.716 -1.257,4.09 -0.35,0.962 -0.969,1.796 -1.28,2.813 -0.763,2.501 0.703,5.522 -0.501,7.893 -0.25,0.49 -1.783,2.692 -2.214,3.092 -0.399,0.37 -1.151,1.938 -1.396,2.257 -0.551,0.716 -1.036,1.777 -1.317,2.635 -0.295,0.896 -0.327,2.867 0.215,3.711 0.392,0.604 1.218,1.098 1.8,1.532 0.587,0.436 0.815,0.924 1.514,1.048 0.759,0.138 0.987,-0.205 1.515,-0.699 0.617,-0.578 2.485,-1.908 2.695,-2.326 0.256,-0.515 1.512,-1.265 2.077,-1.282 0.858,-0.023 0.769,1.784 0.935,2.567 0.193,0.913 -1.018,2.646 -1.166,3.139 -0.265,0.868 -0.008,1.521 0.582,2.214 0.406,0.479 1.721,-0.38 2.213,0 0.458,0.354 1.722,-0.384 1.98,-0.584 0.391,-0.299 3.825,-1.772 4.893,-2.096 1.021,-0.308 3.16,-2.194 3.861,-2.759 1.377,-1.11 2.155,-0.479 3.477,-1.667 1.404,-1.269 2.937,-1.913 4.371,-3.144 1.615,-1.382 2.367,-3.794 3.779,-5.359 1.532,-1.694 1.299,-1.854 1.282,-4.193 -0.021,-2.495 1.222,-2.633 0.349,-5.007 -0.317,-0.869 -0.119,-5.485 -0.467,-5.938 -0.269,-0.353 -1.396,-1.532 -1.513,-2.33 -0.106,-0.724 0.966,-1.464 1.646,-1.827 0.615,-0.328 4.067,-2.634 4.748,-3.575 0.804,-1.108 1.261,-2.419 1.967,-3.617 0.518,-0.884 0.988,-1.962 1.154,-2.979 v 0 c 0.254,-1.573 -0.258,-3.2 0.215,-4.739 0.494,-1.623 0.279,-2.861 0.518,-4.573 0.164,-1.173 2.281,-6.244 2.562,-7.574 0.268,-1.257 1.899,-6.291 2.33,-6.52 0.504,-0.267 2.37,-3.438 2.562,-4.661 0.286,-1.855 1.171,-2.903 1.165,-4.774 -0.004,-0.984 0.585,-2.375 0.925,-3.261 0.467,-1.226 0.979,-2.414 1.87,-3.495 1.021,-1.234 1.214,-2.74 2.096,-4.077 0.762,-1.154 1.965,-2.424 2.68,-3.609 0.476,-0.785 1.5,-1.647 2.023,-2.401 0.318,-0.456 0.496,-0.942 0.773,-1.383 0.201,-0.323 1.279,-1.347 1.865,-1.923 0.604,-0.596 1.711,-2.2 2.436,-2.644 0.558,-0.339 1.324,-1.25 1.642,-2.287 0.165,-0.968 -0.51,-1.46 -0.231,-2.407 0.539,-1.841 -0.396,-2.543 0,-4.425 0.236,-1.138 0.225,-2.571 0.225,-3.729 0,-0.982 0.169,-2.512 0.105,-3.493 -0.07,-1.173 0.757,-2.691 0.217,-3.726 -0.564,-1.082 -3.012,-3.62 -3.344,-3.963 -0.689,-0.715 -1.276,-0.967 -1.864,-1.513 -0.765,-0.716 -2.181,-1.689 -3.072,-2.212 -0.748,-0.438 -1.004,-1.363 -1.004,-1.363 -0.749,-0.464 -1.981,-0.803 -2.608,-1.47 -0.684,-0.727 -1.4,-1.508 -2.014,-2.291 -0.704,-0.898 -1.65,-1.934 -2.458,-2.739 -0.832,-0.827 -1.09,-1.513 -1.79,-2.459 -0.465,-0.63 -0.949,-1.644 -1.285,-2.348 -0.322,-0.676 -0.736,-2.446 -1.126,-3.047 -0.622,-0.97 -1.155,-3.237 -1.053,-4.313 0.091,-1.02 1.248,-2.159 1.731,-2.312 0.646,-0.199 3.035,-0.079 3.429,-0.558 0.485,-0.595 1.192,-1.227 1.212,-2.022 0.016,-0.622 0.572,-0.562 0.225,-1.024 -0.386,-0.515 -0.337,-1.336 -0.894,-1.723 -0.521,-0.363 -1.812,0.021 -2.291,-0.434 -0.649,-0.607 -1.735,-0.846 -2.404,-1.479 -0.711,-0.673 -0.618,-1.582 -1.006,-2.544 -0.405,-1.002 0.226,-3.088 0.76,-3.956 0.688,-1.114 1.185,-2.942 2.218,-3.79 0.682,-0.562 2.037,-0.675 2.894,-0.712 0.478,-0.022 0.946,0.608 1.425,0.683 0.425,0.063 1.739,0.818 2.127,1 1.328,0.621 1.074,0.168 2.243,1.021 1.075,0.785 2.006,0.086 2.694,0.086 0.695,0 2.023,1.983 2.718,2.011 1.759,0.063 1.999,0.004 3.759,0 1.135,-0.007 2.794,-0.438 3.93,-0.438 0.963,0 2.104,-0.997 3.059,-1.136 1.07,-0.154 1.266,-0.912 2.271,-1.311 0.352,-0.143 0.311,-0.331 0.61,-0.575 0.791,-0.642 1.291,-1.594 0.565,-1.915 -1.525,-0.675 -1.112,-2.604 -2.539,-2.959 -1.373,-0.343 -2.733,-0.58 -4.055,-1.074 -1.39,-0.516 -1.908,-0.092 -4.279,-0.028 -0.541,0.018 1.602,-0.567 2.185,-0.608 1.245,-0.089 3.065,0.34 4.19,0.7 1.365,0.433 2.018,0.438 3.408,0.608 2.844,0.345 5.779,-0.12 6.202,-0.438 1.157,-0.859 4.636,-3.111 5.998,-3.492 1.308,-0.365 1.002,0.088 2.446,-0.859 0.893,-0.586 2.755,-3.393 3.025,-4.148 0.319,-0.895 0.693,-1.531 1.047,-2.408 0.24,-0.599 0.511,-1.75 0.117,-2.365 -0.787,-1.237 -0.635,-1.174 -1.938,-0.875 -0.448,0.104 -1.503,0.285 -1.962,0.35 -0.236,0.033 -1.377,1.336 -1.82,1.675 -0.667,0.509 -2.977,0.504 -3.857,0.511 -1.729,0.012 -2.822,-0.451 -4.543,-0.594 -1.648,-0.132 -6.097,-2.68 -7.498,-3.226 -1.147,-0.446 -2.506,-1.384 -3.42,-2.267 -0.438,-0.424 -3.31,-4.257 -3.719,-5.011 -0.371,-0.694 -0.925,-1.252 -1.615,-1.632 -0.406,-0.229 -1.049,-0.462 -1.487,-0.561 -0.964,-0.217 -2.554,0.676 -3.382,1.209 -1.155,0.746 -2.351,1.267 -3.549,1.916 -0.564,0.307 -1.196,0.717 -1.67,1.164 -0.897,0.842 -1.844,1.633 -2.727,2.506 -2.438,2.414 -6.155,3.314 -9.52,3.285 -3.482,-0.031 -7.468,0.713 -10.312,-1.761 -1.223,-1.059 -2.811,-2.651 -4.066,-3.676 -0.365,-0.302 -3.966,-4.062 -4.429,-4.665 -0.962,-1.252 -2.614,-2.361 -3.412,-3.728 -0.935,-1.609 -2.202,-2.979 -3.342,-4.425 -0.94,-1.193 -3.724,-6.498 -4.661,-7.805 -0.768,-1.069 -1.062,-1.511 -1.863,-2.562 -0.634,-0.83 -1.018,-1.466 -1.748,-2.212 -0.475,-0.486 -2.242,-1.809 -3.226,-3.144 -0.822,-1.117 -6.094,-5.652 -6.987,-6.756 -0.681,-0.843 -2.055,-1.801 -2.716,-2.661 -0.927,-1.21 -1.817,-2.651 -3.146,-3.396 -0.471,-0.264 -2.236,-2.044 -2.852,-2.329 -0.47,-0.217 -2.691,-1.759 -3.438,-1.908 -0.729,-0.145 -2.668,-1.95 -3.379,-2.168 -1.31,-0.402 -5.213,-2.022 -5.707,-2.096 -1.27,-0.192 -2.705,-0.536 -3.961,-0.815 -0.43,-0.096 -2.006,-1.136 -2.563,-1.397 l -1.862,-1.586 c -1.199,-0.563 -4.246,-1.496 -4.543,-3.189 -0.273,-1.582 0.058,-2.509 1.049,-2.796 1.043,-0.299 1.535,-0.458 2.445,-1.003 1.242,-0.743 2.107,-0.811 3.262,-1.675 0.438,-0.329 1.703,-1.027 1.98,-1.514 0.467,-0.819 0.864,-1.244 1.343,-2.097 0.562,-0.992 1.026,-1.35 0.966,-2.698 -0.018,-0.774 0.075,-1.836 -0.535,-2.193 -0.996,-0.581 -1.445,-0.546 -2.476,-0.233 -0.694,0.212 -1.159,0.274 -1.862,0.815 -0.197,0.353 -0.715,1.618 -0.92,1.905 -0.601,0.342 -1.293,0.308 -1.945,0.308 -0.996,0 -3.024,0.608 -3.889,0.232 -1.465,-0.635 -1.141,-1.64 -1.504,-3.387 -0.256,-1.234 -0.863,-1.927 -0.477,-3.135 0.354,-1.104 0.39,-2.327 0.699,-3.423 0.295,-1.051 1.199,-5.686 1.631,-7.526 0.412,-1.759 1.761,-12.2 2.248,-14.622 0.767,-2.404 4.462,-15.618 4.482,-16.127 0.079,-1.869 0.771,-3.702 0.762,-5.59 -0.016,-2.482 -0.071,-7.434 -0.467,-9.225 -0.255,-1.149 -0.062,-6.65 -0.154,-7.827 -0.096,-1.231 -2.131,-14.944 -2.795,-16.957 -0.297,-0.89 -0.398,-5.694 -0.885,-6.518 -0.49,-0.825 -1.748,-0.197 -2.801,-0.282 -1.388,-0.113 -2.293,-0.114 -3.688,-0.107 -1.713,0.009 -2.159,0.157 -4.109,0.142 -0.742,-0.086 -3.23,-0.373 -3.969,-0.248 -1.496,-0.096 -1.746,-0.084 -3.047,-0.177 -2.323,-0.166 -2.09,-0.056 -4.608,-0.745 -1.524,-0.418 -3.94,-0.943 -5.453,-1.568 -0.524,-0.175 -3.05,-0.419 -5.078,-1.817 1.912,0.186 3.25,0.896 3.542,0.885 0.545,-0.022 2.701,0.739 3.217,0.886 1.371,0.391 1.479,0.458 3.586,1.024 1.145,0.308 2.937,0.456 4.472,0.559 1.315,0.088 2.637,0.153 3.688,0.187 1.758,0.056 3.563,0.04 5.232,0.046 1.417,0.006 3.352,-0.217 4.775,-0.327 3.028,-0.232 4.614,-0.792 6.896,-1.397 1.377,-0.365 2.98,-0.978 5.287,-2.375 0.441,-0.267 1.913,-1.262 2.307,-1.747 0.963,-1.187 1.704,-1.572 1.885,-3.145 0.125,-1.059 -0.229,-1.293 -1.115,-1.817 -1.369,-0.809 -4.895,-0.372 -6.43,-0.559 -2.006,-0.243 -3.009,-0.629 -4.754,-1.538 -1.254,-0.651 -2.757,-1.403 -3.771,-2.375 -0.967,-0.921 -1.348,-1.711 -2.444,-2.446 -0.309,-0.205 -2.499,-2.501 -3.146,-3.079 -0.375,-0.334 -2.641,-2.366 -3.406,-3.02 -1.102,-0.94 -4.014,-1.987 -3.79,-3.475 0.217,-1.44 3.964,-1.921 5.131,-1.911 1.806,0.016 3.599,-0.205 5.362,-0.442 1.129,-0.153 2.261,-0.592 3.351,-0.809 1.196,-0.239 2.489,-0.217 3.724,-0.168 1.008,0.04 4.742,-0.846 5.354,-0.768 0.712,0.089 4.783,1.6 5.871,1.583 0.807,-0.011 4.412,-0.601 5.312,-0.699 2.545,-0.278 5.664,0.16 7.828,1.912 0.865,0.699 0.471,1.772 0.524,2.801 0.132,2.452 2.303,4.422 3.747,6.213 0.984,1.223 3.87,5.824 4.479,6.845 0.385,0.64 1.354,8.17 1.588,9.917 0.232,1.724 0.871,4.202 0.885,5.102 0.021,1.843 0.439,3.529 0.619,5.335 0.093,0.933 -0.142,5.909 -0.14,7.495 0.005,2.183 -0.233,4.355 -0.42,6.529 -0.163,1.971 -0.881,8.276 -1.045,9.485 -0.272,1.993 -0.26,3.988 -0.274,5.994 -0.021,2.245 0.597,4.412 0.566,6.65 -0.034,2.305 0.248,4.574 0.287,6.871 0.035,2.063 0.064,10.555 0.107,12.719 0.058,2.587 0.607,5.128 0.604,7.708 -0.004,2.453 1.312,8.602 1.442,9.316 0.268,1.479 0.873,2.87 1.199,4.333 0.474,2.125 0.525,4.325 1.057,6.459 0.27,1.08 0.578,2.061 0.611,3.173 0.006,0.219 0.76,3.457 1.375,4.586 0.412,0.756 0.531,1.51 1.078,2.158 0.781,0.931 1.254,2.16 1.672,3.297 0.211,0.579 1.276,2.977 1.381,3.488 0.418,2.017 0.996,3.723 2.057,5.512 1.506,2.552 3.046,5.011 4.92,7.3 1.287,1.567 2.865,2.867 4.27,4.356 1.314,1.392 2.668,2.875 4.193,4 0.502,0.369 3.159,2.167 4.007,2.682 1.544,0.937 3.169,1.638 4.78,2.424 0.779,0.379 1.527,0.881 2.314,1.21 1.021,0.427 1.893,1.181 2.926,1.564 0.667,0.248 3.104,1.069 3.693,1.137 0.52,0.06 3.188,0.314 3.463,-0.079 -0.031,-0.815 -1.566,-2.785 -2.035,-3.442 -1.235,-1.741 -2.825,-3.121 -4.389,-4.566 -1.023,-0.948 -1.869,-2.061 -2.867,-3.038 -1.383,-1.357 -2.973,-2.458 -4.336,-3.838 -2.043,-2.066 -3.938,-4.219 -6.07,-6.19 -0.799,-0.738 -1.486,-1.834 -2.094,-2.749 -0.484,-0.73 -0.72,-1.633 -1.102,-2.417 -0.718,-1.468 -1.627,-2.813 -2.234,-4.34 -0.428,-1.071 -0.879,-2.157 -1.219,-3.259 -0.419,-1.357 -0.217,-2.763 -0.365,-4.151 -0.31,-2.813 -0.996,-5.641 -1.634,-8.399 -0.434,-1.88 -1.262,-3.605 -1.438,-5.553 -0.149,-1.603 -0.099,-3.247 -0.195,-4.856 -0.101,-1.646 -0.342,-3.494 -0.043,-5.126 0.263,-1.416 2.269,-2.758 2.448,-4.188 0.169,-1.337 0.305,-3.426 -0.508,-5.108 -0.62,-1.189 -1.075,-2.062 -0.819,-3.083 0.134,-0.65 0.944,-2.797 1.696,-3.523 1.158,-1.119 1.246,-1.193 2.098,-2.562 0.461,-1.257 0.896,-2.321 0.583,-3.727 0.026,-1.831 -0.329,-4.491 -1.315,-6.164 -0.271,-0.807 -1.389,-1.581 -1.597,-1.99 -0.264,-1.016 -0.374,-2.216 0.466,-2.679 0.409,-0.224 3.125,-2.475 3.264,-3.216 0.801,-1.211 1.062,-1.484 1.512,-3.073 0.396,-1.385 0.012,-1.722 0.218,-3.145 0.193,-1.34 0.308,-2.164 0,-3.494 0.14,-1.676 0.05,-2.373 -0.332,-3.61 0.035,-1.619 -0.946,-4.459 -1.397,-5.242 -0.39,-0.667 -0.811,-1.27 -0.815,-2.097 0.222,-0.821 1.039,-3.195 1.417,-3.482 0.844,-1.494 1.131,-3.633 1.34,-5.602 -0.012,-0.901 0.342,-2.27 0.217,-3.261 -0.132,-1.031 0.153,-2.3 -0.227,-4.122 0.186,-1.362 -0.562,-2.431 -1.232,-4.031 -0.763,-1.827 -0.972,-1.22 -1.865,-3.029 -0.596,-1.209 -1.754,-2.425 -1.746,-3.763 0.01,-1.492 -0.588,-3.748 0.016,-5.211 0.607,-1.473 0.384,-3.687 -0.191,-6.245 z"
       id="path4"
       style="fill:#fcdd09;fill-opacity:1;stroke:#000000;stroke-width:3"
       inkscape:connector-curvature="0" /><path
       d="m 270.144,63.638 c 0.998,0.14 8.162,1.119 9.002,1.258 0.33,0.056 2.724,0.622 3.053,0.671 0.136,0.02 2.408,0.811 3.111,0.978 0.763,0.181 1.586,0.757 2.306,1.049 0.325,0.132 3.575,0.915 4.223,1.159 0.229,0.088 1.818,0.78 2.417,1.006 0.094,0.032 2.967,1.24 3.955,1.467 0.352,0.081 3.021,1.307 3.633,1.608"
       id="path6"
       inkscape:connector-curvature="0"
       style="fill:#f1e21a" /><path
       d="m 270.144,63.638 c 0.998,0.14 8.162,1.119 9.002,1.258 0.33,0.056 2.724,0.622 3.053,0.671 0.136,0.02 2.408,0.811 3.111,0.978 0.763,0.181 1.586,0.757 2.306,1.049 0.325,0.132 3.575,0.915 4.223,1.159 0.229,0.088 1.818,0.78 2.417,1.006 0.094,0.032 2.967,1.24 3.955,1.467 0.352,0.081 10.05,4.511 10.662,4.812"
       id="path8"
       inkscape:connector-curvature="0"
       style="fill:#f1e21a;stroke:#000000;stroke-width:3" /><path
       d="m 197.537,46.28 c 0.248,-0.171 0.431,-0.34 0.713,-0.503 0.422,-0.244 0.861,-0.484 1.312,-0.685 0.316,-0.14 1.038,-0.841 1.119,-0.88 0.811,-0.392 1.816,-0.518 2.265,-0.656 0.986,-0.309 2.11,0 3.128,0 1.51,0 2.748,-0.035 4.254,-0.071 1.845,-0.043 3.071,0.383 4.891,0.503 0.55,0.04 3.433,0.977 3.433,0.977"
       id="path10"
       inkscape:connector-curvature="0"
       style="fill:#f1e21a;stroke:#000000;stroke-width:3;stroke-linecap:round" /><path
       d="m 223.251,40.187 c 0.102,-0.043 -1.768,1.176 -1.691,1.13 0.606,-0.349 2.612,-2.016 2.812,-2.25 0.296,-0.349 0.939,-0.909 1.38,-1.118 0.269,-0.125 0.526,-0.363 0.785,-0.447 0.198,-0.065 1.267,-0.557 1.478,-0.587 0.668,-0.092 1.399,-0.339 1.875,-0.339 0.959,0 2.527,0.165 3.168,0.198 0.815,0.045 3.217,0.503 3.822,0.606 1.092,0.188 3.073,0.838 3.073,0.838 0.86,0.128 1.603,0.823 2.437,1.031 0.724,0.182 1.566,-0.292 2.176,-0.631 0.371,-0.208 1.627,-1.249 2.035,-1.434 0.379,-0.173 0.76,-0.322 1.139,-0.517 0.378,-0.194 0.754,-0.491 1.142,-0.647 1.05,-0.423 1.838,-0.46 2.912,-0.678 1.417,-0.287 2.163,-0.329 3.617,-0.329 0.39,0 1.834,0.12 2.214,0.183 0.354,0.058 2.29,0.701 2.926,0.89 0.49,0.144 1.917,0.596 2.105,0.669 0.471,0.182 0.91,0.42 1.324,0.682 v 0 c 0.51,0.327 0.951,0.778 1.518,1.02 0.639,0.275 1.169,0.012 1.745,-0.294 0.349,-0.186 0.601,-0.247 0.959,-0.395 0.425,-0.173 1.696,-0.363 2.114,-0.499 0.783,-0.253 1.68,-0.454 2.485,-0.466 1.433,-0.022 1.854,-0.009 3.247,0.232 0.381,0.065 1.18,0.34 1.493,0.544 0.446,0.292 1.535,0.178 2.019,0.31 0.35,0.096 2.918,1.151 3.312,1.151"
       id="path12"
       inkscape:connector-curvature="0"
       style="fill:#f1e21a;stroke:#000000;stroke-width:3" /><path
       d="m 165.197,117.895 c -0.376,0.237 -3.536,3.133 -3.804,3.25 -0.245,0.105 -2.154,0.962 -2.425,1.043 -0.723,0.213 -1.362,0.675 -2.068,0.937 -0.325,0.121 -3.486,1.138 -3.714,1.16 -0.646,0.06 -3.646,-0.005 -4.436,0.132 -0.339,0.059 -5.01,0.263 -5.388,0.17 -0.206,-0.05 -4.071,-0.33 -4.477,-0.475 -0.865,-0.311 -4.071,-1.655 -4.978,-1.922 -0.908,-0.267 -3.827,-0.875 -4.275,-0.874 -0.485,0.003 -3.909,-0.586 -4.256,-0.587 -0.4,-0.001 -4.03,1.825 -4.291,2.019 -0.696,0.517 -1.63,1.03 -2.097,1.653 0.109,0.188 0.83,1.194 1.054,1.585 0.109,0.195 1.483,1.176 1.884,1.446 0.318,0.212 3.627,0.13 4.082,0.121 0.765,-0.015 1.664,-0.34 2.418,-0.118 0.15,0.046 2.759,1.498 2.975,1.733 0.241,0.263 1.35,2.393 1.468,2.603 0.353,0.636 0.87,1.224 1.392,1.724 0.71,0.679 1.392,1.388 2.116,2.045 0.18,0.163 3.047,2.203 3.374,2.315 0.35,0.121 5.302,1.318 5.75,1.32 0.863,0.004 1.726,0.003 2.589,0.002 0.186,0 4.394,-1.466 5.119,-1.583 0.495,-0.08 1.98,-1.837 2.444,-1.951 0.116,-0.053 1.95,-1.856 2.097,-2.009 0.556,-0.572 0.667,-2.126 1.136,-2.796 0.186,-0.267 0.841,-1.677 1.305,-2.283 0.171,-0.224 0.696,-1.893 0.879,-2.259 0.486,-0.97 1.209,-2.208 1.571,-3.145 0.571,-0.745 0.979,-1.022 1.481,-1.762 0.564,-0.732 1.439,-1.47 1.359,-1.523 -0.11,-0.075 0.776,-1.464 0.064,-1.971 z"
       id="path14"
       style="fill:#fcdd09;fill-opacity:1;stroke:#000000;stroke-width:3"
       inkscape:connector-curvature="0" /><path
       d="m 188.219,77.976 c -0.479,0.005 -1.002,-0.326 -1.479,-0.329 -0.508,-0.003 -1.993,0.193 -2.219,0.243 -0.15,0.033 -1.235,0.93 -1.56,1.243 -0.145,0.139 -0.699,0.84 -0.847,1.062 -0.267,0.401 -0.47,0.869 -0.701,1.301 -0.146,0.274 -0.346,1.292 -0.224,1.443 0.21,0.26 1.228,1.396 1.437,1.519 0.388,0.228 0.837,-0.894 1.135,-1.168 0.419,-0.385 0.943,-0.874 1.397,-1.048 0.24,-0.093 0.699,0 1.015,-0.088 0.598,-0.165 1.335,-0.942 1.959,-1.043 0.166,-0.027 0.978,-0.117 1.235,-0.177 0.29,-0.068 0.504,-0.145 0.75,-0.308 0.248,-0.164 -0.127,-0.972 -0.314,-1.248 -0.243,-0.358 -0.307,-0.675 -0.635,-0.966 -0.372,-0.33 -1.753,-0.53 -2.148,-0.792"
       id="path16"
       inkscape:connector-curvature="0"
       style="fill:#f1e21a" /><path
       d="m 188.219,77.976 c -0.479,0.005 -1.002,-0.326 -1.479,-0.329 -0.508,-0.003 -1.993,0.193 -2.219,0.243 -0.15,0.033 -1.235,0.93 -1.56,1.243 -0.145,0.139 -0.699,0.84 -0.847,1.062 -0.267,0.401 -0.47,0.869 -0.701,1.301 -0.146,0.274 -0.346,1.292 -0.224,1.443 0.21,0.26 1.228,1.396 1.437,1.519 0.388,0.228 0.837,-0.894 1.135,-1.168 0.419,-0.385 0.943,-0.874 1.397,-1.048 0.24,-0.093 0.699,0 1.015,-0.088 0.598,-0.165 1.335,-0.942 1.959,-1.043 0.166,-0.027 0.978,-0.117 1.235,-0.177 0.29,-0.068 0.504,-0.145 0.75,-0.308 0.248,-0.164 -0.127,-0.972 -0.314,-1.248 -0.243,-0.358 -0.307,-0.675 -0.635,-0.966 -0.372,-0.33 -1.753,-0.53 -2.148,-0.792"
       id="path18"
       style="fill:#fcdd09;fill-opacity:1;stroke:#000000;stroke-width:3"
       inkscape:connector-curvature="0" /></g></svg>