<?xml version="1.0" encoding="UTF-8"?>
<svg width="244.62" height="286.18" version="1.1" viewBox="0 0 183.47 214.63" xmlns="http://www.w3.org/2000/svg">
 <path d="m1.688 1.688v121.22c6e-3 49.726 40.32 90.034 90.046 90.034s90.04-40.308 90.046-90.034v-121.22z" fill="#fff" stroke="none" />
 <path transform="scale(.75)" d="M176.92 5.637c-2.684-.005-5.792 1.201-8.982 4.761 1.083.675 1.946 1.246 3.46 2.622-11.56-3.76-22.88-1.121-33.546 3.892-2.814 1.4-5.92 3.466-9.053 3.826-3.307 0-6.159-.88-9.186.934.787 1.533 1.666 2.747 2.946 3.933-2.494 2.52-2.215 5.18-.746 8.135 4.997.933 4.893 2.346 6.466 6.412-9.589.997-9.795 5.11-24.287 2.23-.168 2.208 2.588 4.886 3.494 5.82 6.4 5.2 17.082 1.964 20.202.632 1.306 3.307 3.164 7.012 4.404 10.346 5.958.117 11.701 2.015 17.676 2.004 9.774-1.466 19.77-3.497 25.076-8.286 2.914-2.836 6.008-6.724 7.219-10.878 1.399-4.803 1.326-10.174-.274-15-.879-2.602-1.11-5.738.783-7.63 1.966-1.963 4.952-3.094 8.123-2.011.172.059.338.123.5.191 1.983.874 3.099 2.607 3.694 4.014.593 1.403.707 2.387.707 2.387s-.367-.918-1.155-2.15c-.797-1.25-1.967-2.656-3.636-3.33a6.45 6.45 0 0 0-.434-.165c-2.765-.944-5.36.042-7.092 1.772-1.521 1.52-1.37 4.154-.543 6.605 1.664 5.018 1.742 10.607.287 15.598-1.273 4.37-4.522 8.436-7.496 11.328l-.008.006-.006.006c-7.229 6.525-22.7 8.088-34.718 9.832-1.914.273-3.9.665-5.914 1.197-.583.154-1.135.32-1.692.48-6.146 1.87-12.423 5.163-17.539 10.813-4.649 5.13-7.656 11.463-7.656 11.463s2.047-6.755 6.914-12.133a36.593 36.593 0 0 1 4.574-4.252c-1.637-3.168-4.705-4.154-7.63-6.154-8.226-5.24-18.96-6.362-26.907-11.828-4.733-4.347-5.199-9.68-6.105-15.653-1.012-3.712-2.539-6.947-4.27-10.062a57.378 57.378 0 0 1-.02-.033c-2.479-4.214-6.064-8.312-9.007-10.207.938 2.638 1.495 4.56 1.48 6.562-.022 2.198-1.23 3.953-1.23 3.953s.09-1.094.158-2.351c-2.865.711-2.544 4.57-2.406 6.775l.002.008v.014c.407 3.826 3.254 8.903 4.087 10.693.08.17.181.38.303.621.11.217.233.458.367.717.243.466.52.988.807 1.523 1.012 1.887-.113-.126 2.467 4.508.55.987.95 2.01 1.23 3.05.719 2.702.485 5.348.086 7.36-.392 1.98-.873 3.22-.873 3.22s.236-1.308.375-3.286c.143-2.029.132-4.526-.553-7.033a12.382 12.382 0 0 0-1.14-2.825c-2.582-4.638-1.456-2.625-2.473-4.521-.288-.538-.567-1.063-.812-1.533-.136-.262-.261-.507-.373-.729a24.396 24.396 0 0 1-.316-.648c-.804-1.724-3.758-7.01-4.178-11.036l-.002-.01v-.01c-.138-2.215-.581-7.164 3.449-7.892.005-.203.024-.374.025-.576.016-2.117-.667-4.163-1.875-7.47-.125-.343-.25-.686-.377-1.028.362.109.716.243 1.059.402.966.449 2.021 1.178 3.105 2.104l1.764-1.729c-.369-2.207-1.119-3.805-2.445-5.738-1.88-3.005-5.932-3.475-11.022-1.51 2.307 1.316 3.996 4.639 4.288 6.424l-.032.018.032.053c-2.351 1.438-3.564 3.838-3.598 5.732-.02 1.117.436 2.367 1.242 3.443 1.075 1.425 2.611 2.588 2.611 2.588s-.5-.015-1.209-.297a5.154 5.154 0 0 1-2.203-1.691c-.906-1.21-1.466-2.694-1.441-4.063.023-1.26.479-2.665 1.334-3.939-2.158-2.327-3.875-4.19-6.08-4.37-3.409-.275-7.526.43-9.17 4.745 3.135-.128 6.507.39 8.207 2.42-.018.147-.026.296-.043.443a.227.227 0 0 1-.004.153l-.023.136a167.213 167.213 0 0 0-.504 5.274c.01.57.058 1.1.158 1.535 0 0 .092.608 1.119 1.959.161.196.34.393.537.586 1.031.96 1.925 1.695 2.897 2.08.881.35 1.586.281 1.586.281s-.635.325-1.704.196c-1.123-.136-2.418-.754-3.478-1.842a8.409 8.409 0 0 1-.611-.666l-.006-.008-.006-.008c-1.159-1.52-1.309-2.353-1.309-2.353-.334-1.45-.16-3.694.065-5.42-1.92-.147-3.887-.929-5.5-.053-3.287 1.784-5.6 5.134-6 9.48 2.311-1.552 4.435-1.385 5.92-.746 2.506 1.147 1.772 5.093 3.732 6.96 1.107 1.066 2.748 1.653 4.121 2.32.347 2.746.466 5.241 2.066 7.601.027 2.894 1.693 5.732 2.987 8.252.623-5.197 1.12-9.759 5.666-13.119-2.627 4.04-4.96 9.693-4.254 14.533 1.747 4.6 4.385 8.569 8.014 12.467 2.48 3.093 5.04 7.934 8.96 9.174.134.88.268 1.772.4 2.652.948.414 1.894.813 2.84 1.227.574.866 1.133 1.733 1.706 2.6.953.226 2.459.663 2.459.663s.728 1.525 1.328 2.245c4.147 2.91 7.281 4.807 11.816 7.091l8.27-3.941c9.735-4.886 19.437-8.512 29.598-10.938 5.878-1.403 11.886-1.755 11.886-1.755s-5.847 1.342-11.654 2.728c-10.079 2.406-19.71 6.004-29.39 10.863-6.294 2.79-12.846 6.495-19.046 8.577-9.84 2.186-19.919 1.04-29.345-2.147 2.746.293 5.452.787 8.185 1.147-.453-3.2-2.626-3.346-5.066-4.559-3.64-1.533-6.12-4.415-8.426-7.508-2.48-3.347-.614-9.467-3.627-12.4-3.08-2.987-7.44-2.12-11.04-.694 2.157.903 4.24 2.934 5 4.868-1.48 1.213-3.12 2.134-4.76 3.12 1.226 1.507 2.4 2.986 3.253 4.733-4.16-5.427-12.264-6.192-17.09-2.418-1.24.973-3.696 4.129-3.442 6.665 3.54-2.127 8.038-2.94 11.892-2.3-4.042 1.021-6.985.806-5.069 9.243 2.086-1.48 6.522-3.096 9.936-.936-3.574-.067-7.442.402-10.135 2.621-3.207 2.642-4.802 6.568-5.373 11.246 3.598-2.897 7.905-5.13 13.123-2.873-.973.227-5.101-.5-6.47.337.506 1.533 2.014 3.761 3.534 4.788 2.16-.947 4.32-1.573 6.694-1.627-5.6 1.214-12.722 5.772-11.444 12.841 2.057-1.741 6.335-4.758 8.833-5.364 1.036 1.36 2.05 2.11 4.224 2.484 7.453 1.467 15.001 3.64 22.574 4.266 5.027-.52 9.933.093 14.907.707 3.626-2.507 3.546 2.025 7.533.531 1.065 1.174 2.78 2.813 2.78 2.813l2.099-2.168 3.25 3.45 2.205-2.23 2.676 2.582 2.789-2.445 2.785 2.494c.76-.533 1.642-2.586 1.642-2.586l4.133 2.319s.8-1.654 1.213-2.467c.72.68 1.454 1.347 2.174 2.027 6.276.55 10.027.642 15.225.408 5.066-.782 8.448-3.077 9.953-6.668.604-1.44 1.449-2.927 1.449-2.927s.138 1.723-.527 3.314c-1.521 3.629-4.127 5.918-9.204 6.994-3.706.577-13.865 1.336-16.695 1.36-1.592.314 13.451 1.68 13.451 1.68h60.244c-1.835-5.988-3.752-12.267-4.709-17.575 1.867-1.84 1.854-4.385 3.534-6.398-.494-.774-.988-1.561-1.48-2.334l2.439-.627c1.026-6.6 1.132-15.24-2.788-20.973 1.427-2.2 2.948-4.334 4.4-6.508-.84-.76-1.679-1.505-2.519-2.265 1.187.293 2.375.585 3.575.892.24-.39.458-.78.658-1.172.1-.195-2.528-2.146-2.528-2.146s3.118.679 3.2.482c.164-.393.3-.48.433-.877.067-.198-2.467-1.367-2.467-1.367l2.85.027s.171-.692.258-1.1c.021-.101-2.086-.864-2.086-.864s2.105-.118 2.125-.221c.039-.206.224-.634.26-.842.017-.104-2.584-.93-2.584-.93l2.718-.507.342-.791L189 67.18l2.678-1.407-2.477-2.552 2.611-1.371-2.529-1.602 2.748-.52.133-.957-1.953-1.302 2.057-.701-1.998-1.479 2.263-.67s-1.456-1.852-1.724-2.176c2-2.453 1.482-3.53.175-6.343 1.698-.186 2.803-.323 2.803-.323l-3.44-2.81 2.92-.91-4.386-2.55 4.482-.462s-3.724-2.118-5.164-2.385c3.44-1.587 8.545-3.208 9.92-7.348 1.534-4.615.16-8.52-2.826-11.88-1.843-1.75-5.16-2.75-7.676-2.688-.26.006-.498.037-.738.067-1.031.118-2 .332-2.877.64-1.37.491-2.452 1.042-3.332 1.737-.812.64-1.238 1.242-1.238 1.242s.193-.713.886-1.592c.723-.916 1.863-1.817 3.354-2.33.882-.31 1.839-.53 2.85-.66-.183-1.813-.973-3.329-2.069-4.625-1.33-1.574-4.082-3.58-7.533-3.586zM72.793 10.275c.147 2.606-.609 4.36-2.379 6.088-.679.551-2.05 1.49-2.2 1.543 2.33 2.095 4.21 4.446 5.911 6.87 1.477-1.531 2.914-4.428 3.113-6.17.382-3.342-2.112-6.304-4.445-8.33zm89.295 8.399c.48-.004.947.005 1.404.021a24.22 24.22 0 0 1 7.645 1.559 13.298 13.298 0 0 1 .619.258l-.178-.033c-.117-.022-.268-.051-.48-.086a42.767 42.767 0 0 0-1.752-.252c-1.742-.218-3.571-.367-5.889-.448a30.394 30.394 0 0 0-5.762.332c-3.177.5-6.006 1.356-8.261 2.204a42.143 42.143 0 0 0-3.996 1.736c-.607.304-.895.442-1.446.773-.246.148-.489.301-.728.46l-.043-1.352c-.066-2.035.369-4.084.369-4.084s.498 1.798.61 3.71c1.153-.628 2.365-1.157 3.267-1.536 2.491-1.048 6.004-2.259 10.074-2.899a30.7 30.7 0 0 1 4.547-.363zm1.555 3.705c.55.025 1.073.095 1.568.219.404 2.13.283 3.727-.223 5.232-1.12 3.12-4.722 5.243-8.029 4.43-4.28-.734-5.134-4.28-9.107-6.6 2.416-1.424 5.456-2.18 7.78-2.394-1.35.663-2.735 1.257-2.548 2.8.32 2.642 3.586 5.023 6.115 4.194.74-.23 1.297-.677 1.766-1.217.773-.89 1.232-2.061 1.58-3.166.457-1.31.116-2.446-.633-3.45.604-.054 1.18-.073 1.73-.048zM134.81 32.803c.534-.102 1.114.05 1.64.51 1.212 1.033-2.25 6.724-2.25 6.724s-1.954-5.037-.762-6.228c.346-.55.837-.904 1.372-1.006zm3.857.496c4.382-.05 6.464 5.606 6.525 8.806-2.712-1.095-8.48-1.804-8.48-1.804s1.168-4.269 1.955-7.002zm-9.094 1.228c.249-.03.498 0 .787.11 1.404.477.08 5.295.08 5.295s-2.868-4.373-1.644-5.137c.282-.144.529-.237.777-.268zm6.446 12.78c2.333.12 6.57.779 8.783 1.459.046 1.437.182 2.424-.682 2.927-1.74 1.495-5.016 1.305-6.463.319-.766-1.25-1.066-2.77-1.638-4.705zm-1.971.343c1.482.93 1.914 2.199 2.629 4.434-1.207.523-2.232.574-2.946.291-.116-.513-.71-2.004.317-4.725z"/>
 <path transform="scale(.75)" d="M138.972 41.95c-6.46-1.161-10.583-.654-17.845 1.886-4.06 1.103-9.96 1.71-14.793.48 3.861 6.34 14.62 4.922 18.006 3.242 0 0 3.818-2.06 5.896-2.605 4.432-.89 10.278.482 14.602 1.599.227-.95.266-2.07.146-3.298z" fill="#f00000" stroke-width="1.3333"/>
 <g stroke="#000">
  <path d="m31.575 101.59v88.44c8.707 7.369 18.829 14.727 29.905 18.38v-106.82m29.904 0v111.31c10.507-0.193 20.574-2.173 29.905-5.671v-105.64m29.905 0 2.161 87.05c17.148-16.048 28.002-38.716 28.5-63.936v-23.114" fill="#0093dd" stroke-width="1.5"/>
  <path d="m1.688 1.688v121.22c6e-3 49.726 40.32 90.034 90.046 90.034s90.04-40.308 90.046-90.034v-121.22z" fill="none" stroke-width="3.375"/>
  <path d="m1.688 101.23v21.685c6e-3 49.726 40.32 90.034 90.046 90.034s90.04-40.308 90.046-90.034v-21.685z" fill="none" stroke-width="1.5"/>
 </g>
</svg>
