<?xml version="1.0" encoding="UTF-8"?>
<svg width="540" height="670" viewBox="0 0 142.88 177.27" xml:space="preserve" xmlns="http://www.w3.org/2000/svg"><path d="M140.03 58.07c0 63.566-23.411 98.886-68.595 116.15C26.486 156.89 2.839 121.634 2.839 58.07V2.97h137.19z" fill="#f00000"/><g stroke="#000"><path d="m2.84 2.97v55.1c0 63.558 23.642 98.814 68.583 116.15v-171.25z" fill="#0093dd" stroke-width="1.323"/><path transform="rotate(-45)" d="m-0.092521 4.1078-14.863 14.863v163.65c13.56-2.1693 27.125-7.5062 40.885-16.272l3.66e-4 -136.22-26.022-26.022z" fill="#fcdb00" stroke="#000" stroke-width="1.323"/><path d="m140.03 58.07c0 63.566-23.411 98.886-68.595 116.15-44.949-17.33-68.596-52.586-68.596-116.15v-55.1h137.19z" fill="none" stroke="#000"  stroke-width="2.6459"/></g></svg>
