<!-- Created with Inkscape (http://www.inkscape.org/) -->
<svg xmlns:rdf="http://www.w3.org/1999/02/22-rdf-syntax-ns#" xmlns="http://www.w3.org/2000/svg" height="497" width="442" version="1.1" xmlns:cc="http://creativecommons.org/ns#" xmlns:xlink="http://www.w3.org/1999/xlink" xmlns:dc="http://purl.org/dc/elements/1.1/">
 <defs></defs>
 <metadata>
  <rdf:RDF>
   <cc:Work rdf:about="">
    <dc:format>image/svg+xml</dc:format>
    <dc:type rdf:resource="http://purl.org/dc/dcmitype/StillImage"/>
    <dc:title/>
   </cc:Work>
  </rdf:RDF>
 </metadata>
 <g transform="translate(0,25)">
  <g transform="translate(11,-1)" stroke="#000" stroke-miterlimit="4" stroke-dasharray="none" stroke-width="6">
   <path stroke-linejoin="miter" d="M-5,7,425,7,415,297c-3.79,110-105,195-205,195s-201.21-85-205-195z" transform="translate(0,-25)" stroke-linecap="butt" fill="#078930"/>
   <path stroke-linejoin="round" d="m181.46,27.663c-1.3655-15.739,50.695-23.698,53.59-10.214,4.2381,23.258,7.919,46.655,4.2622,71.887,38.422,9.4144,73.722,9.6905,114.95-1.313-19.76,164.24-69.31,266.29-135.2,334.28-70.18-72.28-129.93-167.32-156.19-335.41,44.112,11.835,85.402,11.67,123.03,2.637,2.49-12.69-1.06-37.444-4.44-61.867z" stroke-linecap="round" fill="#FFF"/>
   <path stroke-linejoin="round" d="m238.15,114.51c2.3982,84.188-3.8227,156.62-17.049,219.5m-39.42-304.22c3.2959,15.754,57.091,5.2568,53.278-7.4589" stroke-linecap="round" fill="none"/>
  </g>
 </g>
</svg>
