<svg height="577.80176" width="500" xmlns="http://www.w3.org/2000/svg" xmlns:xlink="http://www.w3.org/1999/xlink"><g transform="matrix(2.417142 0 0 2.417142 -155.26393 -157.62834)"><path d="m68.303069 69.28125v99.375 14.75 17.40625c0 55.04829 44.326701 99.37501 99.375001 99.375 55.04829 0 99.34374-44.3267 99.34375-99.375v-17.40625-14.75-99.375h-99.34375z" fill="#0f47af" stroke="#000" stroke-linecap="square" stroke-width="4"/><path id="a" d="m161.9375 162.46875s4-9.97081 4-18.625c0-3.72955-.69165-6.61385-1.15625-8.125-1.72613-7.07334-4.77714-14.40623-4.6875-17.8125.10748-3.97599.5962-8.63086 7.46875-8.5625 6.58544.0658 7.23628 4.58651 7.34375 8.5625.0895 3.40105-2.95994 10.71793-4.6875 17.78125-.58072 2.30392-1.18741 5.6632-1.15625 8.15625.10817 8.65351 4.00001 18.625 4 18.625" fill="#fcdd09" fill-rule="evenodd" stroke="#000" stroke-width="2"/><g fill="#fcdd09"><use height="1052.3622" transform="matrix(.70710678 -.70710678 .70710678 .70710678 -75.287023 169.946449)" width="744.09448" xlink:href="#a"/><use height="1052.3622" transform="matrix(0 -1 1 0 -8.35271 343.35271)" width="744.09448" xlink:href="#a"/><use height="1052.3622" transform="matrix(-.70710678 -.70710678 .70710678 -.70710678 161.593742 418.63974)" width="744.09448" xlink:href="#a"/><use height="1052.3622" transform="matrix(-1 0 0 -1 335 351.70542)" width="744.09448" xlink:href="#a"/><use height="1052.3622" transform="matrix(.70710678 .70710678 -.70710678 .70710678 173.406262 -66.93431)" width="744.09448" xlink:href="#a"/><use height="1052.3622" transform="matrix(0 1 -1 0 343.35271 8.35271)" width="744.09448" xlink:href="#a"/><use height="1052.3622" transform="matrix(-.70710678 .70710678 -.70710678 -.70710678 410.28703 181.758968)" width="744.09448" xlink:href="#a"/><g stroke="#000" stroke-linecap="square"><path d="m167.59745 93.013775c-45.67519 0-82.75 37.074805-82.75 82.749995s37.07481 82.75001 82.75 82.75c45.67519 0 82.75001-37.07481 82.75-82.75 0-45.67519-37.07481-82.749995-82.75-82.749995zm0 16.249995c36.71411 0 66.5 29.78588 66.5 66.5 0 36.71411-29.78588 66.53125-66.5 66.53125s-66.53125-29.81713-66.53125-66.53125 29.81713-66.5 66.53125-66.5z" stroke-width="2"/><path d="m167.59375 158.65625c-9.44983 0-17.125 7.67518-17.125 17.125 0 9.44983 7.67518 17.12499 17.125 17.125 9.44983 0 17.12499-7.67516 17.125-17.125 0-9.44983-7.67517-17.12499-17.125-17.125zm0 8.3125c4.87322 0 8.8125 3.93928 8.8125 8.8125 0 4.87323-3.93928 8.8125-8.8125 8.8125s-8.8125-3.93928-8.8125-8.8125 3.93928-8.8125 8.8125-8.8125z" stroke-width="2.156673"/></g></g></g></svg>