<?xml version="1.0" encoding="UTF-8" standalone="no"?>
<svg xmlns="http://www.w3.org/2000/svg" height="540" width="452">
 <g stroke="#000" stroke-linejoin="round" stroke-linecap="round">
  <path d="m5.7 5.7v308.35a220.3 220.25 0 0 0 440.6 0v-308.35z" fill="#078930" stroke-width="6"/>
  <path d="m51.989 181.61c.014 35.498.023 105.2.047 144.7 50.08-24.01 89.75-32.2 143.35-40.4-7.345 58.21-17.485 104.51-40.74 159.14 49.2.006 88.47-.057 140.78-.135-22.31-54.43-31.11-90.91-41.39-158.23 68.967 9.531 100.27 19.422 145.98 39.67.018-32.14-.024-129.44-.024-142.72-81.967 26.929-90.45 28.03-144.84 36.423 6.929-68.73 20.394-109.06 40.28-157.09-30.17-.006-109.11.02-139.3-.016 20.07 50.5 33.517 102.56 38.682 156.84-53.87-6.173-95.41-18.08-142.82-38.18z" fill="#fff" fill-rule="evenodd" stroke-width="3"/>
 </g>
</svg>
