<?xml version="1.0" encoding="UTF-8"?>
<svg width="159.55mm" height="175.36mm" version="1.1" viewBox="0 0 159.55 175.36" xml:space="preserve" xmlns="http://www.w3.org/2000/svg" xmlns:xlink="http://www.w3.org/1999/xlink"><path d="m0.9282 1.0632c-0.30376 3.5834-0.04346 7.2723-0.12984 10.896 0.05268 21.022-0.13011 42.047 0.22034 63.066 0.93898 17.704 6.5937 35.145 16.454 49.897 12.465 18.912 30.571 33.576 50.465 44.105 3.8712 1.9762 7.7976 3.9678 11.863 5.4578 13.105-5.2741 25.301-12.715 36.355-21.484 15.989-12.819 29.368-29.406 36.416-48.798 2.9869-8.2254 4.976-16.845 5.7074-25.569 0.49742-13.148 0.2399-26.313 0.34837-39.468 0.0241-12.589 0.0483-25.178 0.0724-37.767-0.74527-1.0587-2.553-0.24554-3.7326-0.50088h-153.67l-0.19711 0.0871z" fill="#f00000"/><path class="UnoptimicedTransforms" transform="translate(.0042011 -7.8808)" d="m31.893 109.25c0.36018-0.8046 0.47428-1.7174 0.32324-2.5859-0.14155-0.81391-0.50861-1.5769-0.98223-2.2538-0.47362-0.67689-1.0526-1.2733-1.6532-1.8406-3.0716-2.9012-6.7557-5.1053-9.7553-8.0809-3.1149-3.0899-5.4763-7.1475-5.7105-11.529-0.10512-1.9659 0.22402-3.9606 1.0105-5.7654 0.78653-1.8048 2.0346-3.4144 3.6225-4.5782 2.7706-2.0306 6.3717-2.5934 9.8049-2.4782 6.0164 0.20197 11.847 2.2892 17.132 5.1718 8.2279 4.488 15.434 11.065 19.933 19.286 2.9992 5.481 4.7537 11.588 5.6028 17.778 0.87679 6.3921 0.77361 13.078-1.6162 19.071-2.0728 5.1981-5.9411 9.7618-10.99 12.175-2.4206 1.1571-5.0943 1.8141-7.777 1.7819-2.6827-0.0323-5.3706-0.76712-7.6306-2.2128-2.1581-1.3805-3.9018-3.4009-4.9487-5.7391-1.0469-2.3382-1.3925-4.9856-0.97734-7.5136 0.35284-2.1488 1.2505-4.206 2.5859-5.926m0 0c-0.45396 2.0827-0.05834 4.3377 1.0775 6.1415 0.94636 1.5029 2.3759 2.6757 3.9864 3.4246 1.6105 0.7489 3.396 1.0853 5.172 1.1007 4.7114 0.0408 9.3366-2.2306 12.391-5.8183 2.0621-2.4222 3.4355-5.3998 4.0943-8.5119 0.78152-3.6918 0.56944-7.567-0.43098-11.206-1.5917-5.7892-5.1539-10.944-9.6971-14.869-4.2981-3.7134-9.4532-6.3683-14.869-8.0809-2.5086-0.7933-5.1808-1.3933-7.7577-0.86196-0.70505 0.14537-1.3991 0.37729-2.0105 0.7573-0.61141 0.38001-1.1381 0.91553-1.4374 1.5703-0.26496 0.57973-0.34364 1.2343-0.28552 1.869 0.05812 0.63476 0.24865 1.2518 0.50102 1.8372 0.63304 1.4682 1.6441 2.736 2.6425 3.985 0.99836 1.2489 2.0079 2.5183 2.637 3.9882 0.85922 2.0075 0.93353 4.383 0 6.357-0.782 1.6536-2.2547 2.9671-3.9866 3.5556m95.755 0c-0.36018-0.8046-0.47428-1.7174-0.32324-2.5859 0.14155-0.81391 0.50862-1.5769 0.98223-2.2538 0.47362-0.67689 1.0526-1.2733 1.6532-1.8406 3.0716-2.9012 6.7557-5.1053 9.7553-8.0809 3.1149-3.0899 5.4763-7.1475 5.7105-11.529 0.10512-1.9659-0.22402-3.9606-1.0106-5.7654-0.78653-1.8048-2.0346-3.4144-3.6225-4.5782-2.7706-2.0306-6.3717-2.5934-9.8049-2.4782-6.0164 0.20197-11.847 2.2892-17.132 5.1718-8.2279 4.488-15.434 11.065-19.933 19.286-2.9992 5.481-4.7537 11.588-5.6028 17.778-0.87679 6.3921-0.77361 13.078 1.6162 19.071 2.0728 5.1981 5.9411 9.7618 10.99 12.175 2.4206 1.1571 5.0943 1.8141 7.777 1.7819 2.6827-0.0323 5.3706-0.76712 7.6306-2.2128 2.1581-1.3805 3.9018-3.4009 4.9487-5.7391 1.0469-2.3382 1.3924-4.9856 0.97735-7.5136-0.35285-2.1488-1.2505-4.206-2.5859-5.926m0 0c0.45396 2.0827 0.0583 4.3377-1.0775 6.1415-0.94636 1.5029-2.3759 2.6757-3.9864 3.4246-1.6105 0.7489-3.396 1.0853-5.172 1.1007-4.7114 0.0408-9.3366-2.2306-12.391-5.8183-2.0621-2.4222-3.4355-5.3998-4.0943-8.5119-0.78152-3.6918-0.56944-7.567 0.43098-11.206 1.5917-5.7892 5.1539-10.944 9.6971-14.869 4.2981-3.7134 9.4532-6.3683 14.869-8.0809 2.5086-0.7933 5.1808-1.3933 7.7577-0.86196 0.70505 0.14537 1.3991 0.37729 2.0105 0.7573s1.1381 0.91553 1.4374 1.5703c0.26496 0.57973 0.34365 1.2343 0.28553 1.869-0.0581 0.63476-0.24866 1.2518-0.50102 1.8372-0.63304 1.4682-1.6441 2.736-2.6425 3.985-0.99836 1.2489-2.0079 2.5183-2.637 3.9882-0.85921 2.0075-0.93353 4.383 0 6.357 0.782 1.6536 2.2547 2.9671 3.9866 3.5556" fill="#fff" stroke="#000" stroke-linecap="round" stroke-linejoin="round" stroke-width=".52917" style="paint-order:markers fill stroke"/><g transform="translate(.0042011 -7.8808)"><path transform="scale(.26458)" d="m300.99 121.36c-2.3649 8.9816-3.7793 18.368-6.7938 27.22-7.4799 24.038-19.721 46.776-37.292 64.955-12.36 13.538-26.056 27.582-30.28 46.06-2.5963 11.287-0.34149 23.24 5.3123 33.265 11.063 20.821 24.916 40.332 32.437 62.885 7.8038 23.196 11.627 47.612 15.303 71.723 3.287 22.402 3.2576 45.769-4.4588 67.259-6.8578 20.472-17.435 39.569-29.928 57.194-1.869 1.9304-0.71086 4.2486 0.68981 6.0347 12.824 21.562 31.887 39.662 54.846 49.996 4.374-0.23601 8.0691-3.52 11.896-5.4208 19.42-11.502 35.496-28.467 46.346-48.224-2.3077-4.9117-6.3701-9.0991-9.0961-13.942-15.727-24.97-28.422-53.201-28.777-83.153-0.14498-22.102 4.192-44.007 8.2227-65.697 4.3291-22.26 10.438-44.523 21.97-64.206 8.0467-15.235 18.703-29.257 24.348-45.671 4.0202-13.287 0.56778-27.661-6.4168-39.314-11.602-19.614-30.706-33.476-42.221-53.186-12.685-20.338-20.383-43.376-24.728-66.832-0.0357-0.65351-0.64726-1.4876-1.379-0.94598z" fill="#fff" style="paint-order:markers fill stroke"/><path d="m95.108 146.53c-0.58865 1.0934-1.2364 2.1549-1.9394 3.1785-2.1532 3.1349-4.8326 5.913-7.9193 8.1348-1.7228 1.2401-3.5433 2.3039-5.4787 3.1759m-6.09e-4 -130.96c0.35783 3.1774 1.0174 6.3207 1.9669 9.3739 1.6386 5.2689 4.162 10.292 7.6606 14.559 2.5695 3.1336 5.6553 5.8567 7.8654 9.2533 1.8449 2.8352 3.0473 6.2384 2.5859 9.5894-0.35826 2.6018-1.6753 4.9611-3.0169 7.219-2.0381 3.4301-4.198 6.8052-5.8183 10.451-2.4249 5.4569-3.5802 11.38-4.6139 17.262-0.97555 5.55-1.8616 11.21-1.1428 16.799 0.51952 4.0396 1.8696 7.9375 3.6018 11.624 1.7164 3.6524 3.8145 7.1252 6.2492 10.344m-30.676 0c0.58865 1.0934 1.2364 2.1549 1.9394 3.1785 2.1532 3.1349 4.8326 5.913 7.9193 8.1348 1.7228 1.2401 3.5445 2.3039 5.4799 3.1759m-6.09e-4 -130.96c-0.35783 3.1774-1.0174 6.3207-1.9669 9.3739-1.6386 5.2689-4.162 10.292-7.6606 14.559-2.5695 3.1336-5.6553 5.8567-7.8654 9.2533-1.8449 2.8352-3.0473 6.2384-2.5859 9.5894 0.35826 2.6018 1.6753 4.9611 3.0169 7.219 2.0381 3.4301 4.198 6.8052 5.8183 10.451 2.4249 5.4569 3.5802 11.38 4.6139 17.262 0.97555 5.55 1.8616 11.21 1.1428 16.799-0.51952 4.0396-1.8696 7.9375-3.6018 11.624-1.7164 3.6524-3.8145 7.1252-6.2492 10.344" fill="none" stroke="#000" stroke-linecap="round" stroke-linejoin="round" stroke-width=".52917" style="paint-order:markers fill stroke"/></g><g transform="translate(.0042011 -7.8808)" stroke="#000" stroke-linecap="round" stroke-linejoin="round"><path d="m79.77 54.42c-0.0059 11.499 0.15576 22.997 0.48483 34.491 0.26624 9.2991 0.64206 18.595 1.1274 27.885m-1.6116 38.088c-0.07684-6.0794 0.0061-12.161 0.24854-18.236 0.26458-6.6286 0.71919-13.25 1.3631-19.852m-1.6122-62.377c-0.23952 11.498-0.51936 22.995-0.83952 34.491-0.25802 9.2647-0.54222 18.529-0.8526 27.792m1.6927 38.182c-0.13946-6.0805-0.34095-12.16-0.60446-18.236-0.28848-6.6523-0.65127-13.301-1.0883-19.946" fill="none" stroke-width=".13229" style="paint-order:markers fill stroke"/><path transform="scale(.26458)" d="m300.29 259.51c-0.94271 59.804-2.4908 121.83-5.197 181.57 2.3635 36.18 4.7244 79.569 6.153 123.41 0.67028-35.962 4.0317-92.137 6.3358-123.05-3.0601-62.112-5.303-124.83-6.2967-187.01-0.39126-8.3583 0.30789-27.139 0.0934-35.778-0.19774 7.1717-0.75512 31.862-1.0886 40.858z" stroke-width=".17678" style="paint-order:markers fill stroke"/></g><path d="m38.13 108.05c5.0892 0.23374 10.161 0.84216 15.161 1.8187 6.1243 1.1961 12.151 2.945 18.348 3.6763 6.849 0.80826 13.812 0.35554 20.59-0.91301 4.4408-0.83102 8.8104-2.0088 13.245-2.87 5.2531-1.0199 10.593-1.5934 15.943-1.7121m-83.287 0c5.0892-0.23374 10.161-0.84216 15.161-1.8187 6.1243-1.1961 12.151-2.945 18.348-3.6763 6.849-0.80826 13.812-0.35554 20.59 0.91301 4.4408 0.83102 8.8104 2.0088 13.245 2.87 5.2531 1.0199 10.593 1.5934 15.943 1.7121" fill="#fff" stroke="#000" stroke-linecap="round" stroke-linejoin="round" stroke-width=".52917" style="paint-order:markers fill stroke"/><g transform="translate(.0042011 -7.8808)"><g id="g5236" transform="translate(-1.3625 -.095812)"><path transform="scale(.26458)" d="m204.38 415.32s0.16915-3.9212 3.9196-4.0156c0.87557-0.022 0.64679 0 98.346 0 97.699 0 97.565-0.39755 98.346 0 4.6341 0 5.4676 8.7554 0 8.7554-0.8839 0-2.8431 4e-3 -98.346 0-97.021-4e-3 -70.523 0-98.346 0-4.6688 0-3.9196-4.7398-3.9196-4.7398z" fill="#fff" stroke="#000" stroke-linecap="round" stroke-linejoin="round" stroke-width=".40723" style="paint-order:markers fill stroke"/><path d="m107.15 108.82c0.26677 0.0285 0.52232 0.15261 0.70972 0.3446s0.30526 0.45047 0.32733 0.71785c0.0247 0.29925-0.0719 0.60676-0.26323 0.83815-0.19135 0.2314-0.47526 0.384-0.77382 0.41593m-52.041-2.3165c-0.26677 0.0285-0.52232 0.15261-0.70972 0.3446-0.1874 0.19199-0.30526 0.45047-0.32733 0.71785-0.0247 0.29925 0.07188 0.60676 0.26323 0.83816 0.19135 0.23139 0.47526 0.38399 0.77382 0.41592m0-2.3165h52.041m-52.041 2.3165h52.041" fill="none" stroke="#000" stroke-linecap="round" stroke-linejoin="round" stroke-width=".52917" style="paint-order:markers fill stroke"/></g><use transform="translate(1.8564e-6 12.213)" xlink:href="#g5236"/></g><path class="UnoptimicedTransforms" transform="translate(.0042011 -7.8808)" d="m39.008 15.685 3.2407 13.291 13.131-3.8391-9.8903 9.4522 9.8903 9.4522-13.131-3.8391-3.2407 13.291-3.2407-13.291-13.131 3.8391 9.8903-9.4522-9.8903-9.4522 13.131 3.8391zm81.524 0-3.2407 13.291-13.131-3.8391 9.8903 9.4522-9.8903 9.4522 13.131-3.8391 3.2407 13.291 3.2407-13.291 13.131 3.8391-9.8903-9.4522 9.8903-9.4522-13.131 3.8391z" fill="#fcdb00" stroke="#000" stroke-linecap="round" stroke-linejoin="round" stroke-width=".52917" style="paint-order:markers fill stroke"/><path d="m79.776 174.7s79.113-29.008 79.113-105.48v-68.564h-158.23v68.564c0 76.476 79.113 105.48 79.113 105.48z" fill="none" stroke="#000" stroke-width="1.3184"/></svg>
