<?xml version="1.0" encoding="UTF-8"?>
<svg width="159.54mm" height="175.41mm" version="1.1" viewBox="0 0 159.54 175.41" xml:space="preserve" xmlns="http://www.w3.org/2000/svg" xmlns:xlink="http://www.w3.org/1999/xlink"><path d="m0.924 1.064c-0.30376 3.5834-0.04346 7.2723-0.12984 10.896 0.05268 21.022-0.13011 42.047 0.22034 63.066 0.93898 17.704 6.5937 35.145 16.454 49.897 12.465 18.912 30.571 33.576 50.465 44.105 3.8712 1.9762 7.7976 3.9678 11.863 5.4578 13.105-5.2741 25.301-12.715 36.355-21.484 15.989-12.819 29.368-29.406 36.416-48.798 2.9869-8.2254 4.976-16.845 5.7074-25.569 0.49742-13.148 0.2399-26.313 0.34837-39.468 0.0241-12.589 0.0483-25.178 0.0724-37.767-0.74527-1.0587-2.553-0.24554-3.7326-0.50088h-153.67l-0.19711 0.0871z" fill="#f00000"/><g transform="matrix(.26458 0 0 -.26458 -.091548 181.59)"><g transform="translate(36.335 -131.74)"><path d="m244.46 371.58h41.416l-6 385.86-14.708 33.355-14.708-33.355z" fill="#fff" stroke="#000" stroke-width="3"/><path d="m263.16 375.06 1.4955 367.03 4.5045-367.03z" fill-rule="evenodd"/></g><g fill="none" stroke="#000"><g stroke-linecap="square"><path d="m301.69 553.18 13.384-7.5878"/><g stroke-width=".99146"><path d="m301.8 546.88 13.384-7.5878"/><path d="m301.91 540.59 13.384-7.5878"/><path d="m302.01 534.3 13.384-7.5878"/><path d="m302.12 528.01 13.384-7.5878"/><path d="m302.23 521.71 13.384-7.5878"/><path d="m302.33 515.42 13.384-7.5878"/><path d="m302.44 509.13 13.384-7.5878"/></g><g stroke-width="1.0209"><path d="m303.11 389.65 14.198-7.5842"/><path d="m303.22 383.36 14.198-7.5842"/><path d="m303.34 377.07 14.198-7.5841"/><path d="m303.45 370.78 14.198-7.5842"/><path d="m303.56 364.49 14.198-7.5841"/><path d="m303.67 358.2 14.198-7.5842"/><path d="m303.79 351.91 14.198-7.5842"/><path d="m303.9 345.62 14.198-7.5841"/><path d="m304.01 339.33 14.198-7.5842"/><path d="m304.13 333.04 14.198-7.5841"/><path d="m304.24 326.75 14.198-7.5842"/><path d="m304.35 320.46 14.198-7.5842"/><path d="m304.47 314.17 14.198-7.5842"/><path d="m304.58 307.88 14.198-7.5841"/><path d="m304.69 301.6 14.198-7.5841"/><path d="m304.8 295.31 14.198-7.5842"/><path d="m304.92 289.02 14.198-7.5842"/><path d="m305.03 282.73 14.198-7.5842"/><path d="m305.14 276.44 14.198-7.5842"/><path d="m305.26 270.15 14.198-7.5842"/><path d="m305.37 263.86 14.198-7.5841"/></g><path d="m302.55 502.84 13.384-7.5878" stroke-width=".99146"/><g stroke-width="1.0441"><path d="m301.19 496.57 14.849-7.5841"/><path d="m301.31 490.28 14.849-7.5842"/><path d="m301.43 483.99 14.849-7.5841"/><path d="m302.61 421.1 14.849-7.5842"/></g><g stroke-width="1.0209"><path d="m302.66 414.81 14.198-7.5841"/><path d="m302.77 408.52 14.198-7.5842"/><path d="m302.88 402.23 14.198-7.5842"/><path d="m303 395.94 14.198-7.5842"/></g><g stroke-width="1.0441"><path d="m302.49 427.39 14.849-7.5842"/><path d="m302.37 433.67 14.849-7.5841"/><path d="m302.25 439.96 14.849-7.5842"/><path d="m302.13 446.25 14.849-7.5842"/><path d="m302.02 452.54 14.849-7.5842"/><path d="m301.9 458.83 14.849-7.5841"/><path d="m301.78 465.12 14.849-7.5842"/><path d="m301.66 471.41 14.849-7.5842"/><path d="m301.54 477.7 14.849-7.5842"/></g><path d="m300.99 610.35 13.984-8.1321" stroke-width=".1"/></g><path d="m301.07 603.97 13.906-8.0454" stroke-linecap="round" stroke-width=".2"/><path d="m301.14 597.66 13.828-8.0206" stroke-linecap="round" stroke-width=".3"/><g stroke-linecap="square"><path d="m301.59 572.05 13.384-7.5878" stroke-width=".7"/><path d="m301.59 559.47 13.384-7.5878" stroke-width=".9"/><path d="m301.59 565.76 13.384-7.5878" stroke-width=".8"/></g><g stroke-linecap="round"><path d="m301.38 578.58 13.594-7.8186" stroke-width=".7"/><path d="m301.3 584.87 13.671-7.8174" stroke-width=".5"/><path d="m301.22 591.03 13.747-7.6904" stroke-width=".4"/></g></g><path d="m286.07 95.478c10.214-41.607 23.143-41.607 32.857 0s12.714 92.821 2 134.43-28.143 41.607-38.857 0-6.2143-92.821 4-134.43z" fill="#fcdb00" stroke="#000" stroke-width="3"/><path transform="matrix(1 0 0 -1 .34601 686.34)" d="m201.64 412.76c-2.729-0.015-5.4558 0.56991-7.8633 1.8789-6.3669 3.0438-9.0155 12.51-10.163 19.346-0.71733 4.9291 1.3642 4.6753 3.7984 9.0632 3.5348 6.4956 7.7059 8.8462 14.762 10.641 14.021 5.9637 23.729 3.3853 36.461 2.8726 10.206-2.9515 27.565 0.83384 33.56-1.0085 0.48637-0.23834 0.67339-0.5999 0.71094-1.0117 0.0386 0.0831 0.0688 0.1696 0.10937 0.25196 1.4652 1.6471 3.7487 2.2774 5.668 3.2559 6.6973 2.8701 13.953 4.6949 21.279 4.4238 4.8004 4e-3 9.6675-0.0757 14.301-1.4824 5.5147-1.4578 10.916-3.5721 15.699-6.7051 0.0351-0.0438 0.0645-0.0901 0.0977-0.13477 13.529 1.3064 49.414 3.022 55.897 2.4108 6.2915-0.61472 8.8771-0.61551 14.861-2.8726 9.8484-4.6934 17.361-9.1219 18.56-19.704 0.0871-2.5974 1.5622-3.9324 0.66563-6.3904-1.8898-5.8225-6.146-11.032-11.824-13.479-2.3324-1.0258-4.8583-1.4041-7.3945-1.3535-5.8209 0.0549-11.473 3.62-13.924 8.9219-2.0008 4.0715-2.0437 9.4578 1.043 13.016 2.73 3.3604 7.8757 4.5098 11.686 2.3438 1.094-0.60003 2.0576-1.4193 2.8848-2.3496-0.28313 2.9527-2.1888 5.7322-4.9805 6.8359-3.3298 1.6545-7.184 1.2095-10.756 1.2129-17.972-0.58099-35.96-2.2819-53.539-6.084-0.91589-0.19898-2.1843-0.56036-2.6934 0.52539-0.20836-0.65405-0.44799-1.2983-0.73437-1.9277-1.0425-1.4417-2.7838-0.0547-4.0312 0.3164-1.7254 0.72773-3.4871 1.3716-5.2754 1.9316 0.61003-0.95085-0.35707-2.3358-1.0254-3.1172-4.447-5.9318-11.728-9.5009-19.143-9.3477-7.414 0.11918-14.58 4.0295-18.855 10.057-0.23579 0.44258-0.23793 0.81051-0.0996 1.1191-2.2205-0.83831-4.3722-1.9251-6.6289-2.5781-0.4309-0.14593-0.69316 0.21219-1.041 0.39258-0.52651 1.0371-0.93318 2.123-1.2617 3.2344-0.29554-0.66261-1.1453-1.0534-1.8828-0.74414-9.9024 2.033-19.846 3.7093-29.904 4.6602-9.3974 0.89346-18.913 1.4624-28.363 1.623-3.4086 0.0811-7.0932-0.67258-9.5918-3.1484-1.2439-1.3631-2.0568-3.1335-2.2383-4.9727 2.7766 3.588 8.2765 4.5269 12.109 2.1211 3.3646-1.9964 5.2492-6.0235 4.8848-9.8867-0.28748-6.2721-5.1924-11.76-11.102-13.516-1.527-0.48343-3.1234-0.68726-4.7227-0.64063z" fill="#fcdb00" style="paint-order:markers fill stroke"/><g class="UnoptimicedTransforms" transform="matrix(3.7795 0 0 -3.7795 -1.1989 686.34)" fill="none" stroke="#000" stroke-linecap="round" stroke-linejoin="round" stroke-width=".79375"><path d="m72.422 115.53c-2.7726 0.5749-5.5762 1.0005-8.3945 1.2744-2.2388 0.21756-4.486 0.33937-6.7341 0.41287-0.57538 0.0188-1.1556 0.0341-1.7225-0.0662-0.56688-0.10032-1.1262-0.32547-1.5368-0.72898-0.41943-0.41218-0.65908-1.0013-0.64648-1.5892m34.547 0.69717c2.7726 0.5749 5.5762 1.0005 8.3945 1.2744 2.2388 0.21756 4.486 0.33937 6.7341 0.41287 0.57538 0.0188 1.1556 0.0341 1.7225-0.0662 0.56688-0.10032 1.1262-0.32547 1.5368-0.72898 0.41943-0.41218 0.65908-1.0013 0.64648-1.5892" style="paint-order:markers fill stroke"/><path d="m53.388 114.83c0.37949 0.5554 1.0029 0.93751 1.6701 1.0236 0.44607 0.0576 0.90742-0.0137 1.3172-0.19909 0.4098-0.18537 0.76711-0.48381 1.0262-0.85143 0.29711-0.42149 0.46346-0.92994 0.49738-1.4445 0.03392-0.51457-0.06216-1.0345-0.25495-1.5128-0.31591-0.78376-0.89294-1.4557-1.6072-1.9073s-1.5613-0.68379-2.4063-0.68439c-0.94123-6.6e-4 -1.8813 0.286-2.6599 0.8149-0.77858 0.5289-1.392 1.2982-1.7308 2.1764-0.31465 0.8157-0.39192 1.7172-0.25079 2.5801 0.14113 0.86282 0.49745 1.6861 1.005 2.398 0.94539 1.3259 2.3837 2.2367 3.9058 2.8155 3.5288 1.3419 7.439 1.017 11.206 0.76003 2.5096-0.17119 5.0219-0.3035 7.5357-0.39687m34.329-5.5722c-0.3795 0.5554-1.0029 0.93751-1.6701 1.0236-0.44608 0.0576-0.90742-0.0137-1.3172-0.19909-0.4098-0.18537-0.76711-0.48381-1.0262-0.85143-0.29712-0.42149-0.46346-0.92994-0.49738-1.4445-0.0339-0.51457 0.0622-1.0345 0.25495-1.5128 0.31591-0.78376 0.89294-1.4557 1.6072-1.9073s1.5613-0.68379 2.4063-0.68439c0.94123-6.6e-4 1.8813 0.286 2.6599 0.8149 0.77857 0.5289 1.392 1.2982 1.7308 2.1764 0.31464 0.8157 0.39191 1.7172 0.25078 2.5801-0.14112 0.86282-0.49744 1.6861-1.005 2.398-0.9454 1.3259-2.3837 2.2367-3.9058 2.8155-3.5288 1.3419-7.4389 1.017-11.206 0.76003-2.5096-0.17119-5.0219-0.3035-7.5357-0.39687" style="paint-order:markers fill stroke"/></g><g stroke="#000" stroke-linejoin="round" stroke-width=".79375"><path transform="matrix(3.7795 0 0 -3.7795 .34601 686.34)" d="m82.394 167.13a2.6796 2.5031 0 0 1-2.8241 2.3095 2.6796 2.5031 0 0 1-2.5254-2.5939 2.6796 2.5031 0 0 1 2.7284-2.4078 2.6796 2.5031 0 0 1 2.6288 2.5026" fill="#fcdb00" stroke-linecap="square" style="paint-order:markers fill stroke"/><path transform="matrix(3.7795 0 0 -3.7795 .34601 686.34)" d="m84.82 162.55a5.1194 2.2466 0 0 1-5.3956 2.0729 5.1194 2.2466 0 0 1-4.8249-2.3281 5.1194 2.2466 0 0 1 5.2127-2.1611 5.1194 2.2466 0 0 1 5.0224 2.2462" fill="#fcdb00" stroke-linecap="square" style="paint-order:markers fill stroke"/><g transform="matrix(3.7795 0 0 -3.7795 -1.1989 686.34)" fill="none" stroke-linecap="round"><path d="m72.641 120.4c-0.35915-1.0318-0.49565-2.1405-0.3975-3.2287 0.08063-0.89394 0.31883-1.7734 0.70035-2.5859" style="paint-order:markers fill stroke"/><path d="m72.944 114.59c2.121 1.2148 4.5491 1.8882 6.9928 1.9394 2.6488 0.0555 5.3093-0.62267 7.6083-1.9394" style="paint-order:markers fill stroke"/><path d="m72.641 120.4c2.5081 1.4674 5.4633 2.1585 8.362 1.9553 2.4083-0.16875 4.7713-0.94902 6.8066-2.2475" style="paint-order:markers fill stroke"/><path d="m87.545 114.59c0.26965 0.71145 0.44796 1.4575 0.52916 2.214 0.11877 1.1064 0.02852 2.2349-0.26458 3.3084" style="paint-order:markers fill stroke"/><path d="m74.743 115.44c0.59062-0.99694 1.4701-1.8205 2.5037-2.3444 1.0336-0.5239 2.2177-0.74639 3.3709-0.63339 1.9706 0.1931 3.8135 1.4057 4.7707 3.139" style="paint-order:markers fill stroke"/></g></g><g transform="matrix(3.7795 0 0 -3.7795 .34601 686.34)"><g id="g2497"><path d="m85.831 127.25c-0.83843 0.25531-1.6944 0.45287-2.5599 0.59082-1.1414 0.18191-2.2992 0.26004-3.4547 0.2331" fill="#fcdb00" stroke="#000" stroke-linecap="round" stroke-linejoin="round" stroke-width=".79375" style="paint-order:markers fill stroke"/><path d="m85.831 127.25c-1.9439 0.59264-3.983 0.87197-6.0146 0.82392-1.6588-0.0392-3.3124-0.29609-4.905-0.76192" fill="none" stroke="#000" stroke-dasharray="2.38125, 2.38125" stroke-linecap="round" stroke-linejoin="round" stroke-width=".79375" style="paint-order:markers fill stroke"/></g><path id="path2491" d="m86.352 131.5c-1.5858 0.48335-3.2349 0.75885-4.8917 0.81723-2.0324 0.0716-4.076-0.18443-6.0279-0.75523" fill="none" stroke="#000" stroke-linecap="round" stroke-linejoin="round" stroke-width=".79375" style="paint-order:markers fill stroke"/><use id="use2499" transform="matrix(1.0784 0 0 .97546 -6.2995 11.079)" stroke-width=".77391" xlink:href="#g2497"/><use id="use2501" transform="matrix(.92062 0 0 1.0266 6.8837 3.8976)" stroke-width=".81646" xlink:href="#path2491"/><use id="use2518" transform="matrix(.92581 0 0 1.0266 6.4835 3.5488)" xlink:href="#use2499"/><use id="use2538" transform="matrix(.96496 0 0 .96496 2.4877 12.305)" xlink:href="#use2501"/><use id="use2540" transform="matrix(.90666 0 0 1.0113 7.1204 5.8514)" xlink:href="#use2518"/><use transform="matrix(.89744 0 0 1.0322 7.7771 1.7682)" xlink:href="#use2538"/><use transform="matrix(.77456 0 0 .90192 18.121 20.748)" xlink:href="#use2540"/></g></g><path d="m79.772 174.7s79.113-29.008 79.113-105.48v-68.564h-158.23v68.564c0 76.476 79.113 105.48 79.113 105.48z" fill="none" stroke="#000" stroke-width="1.3184"/></svg>
