<?xml version="1.0" encoding="UTF-8"?>
<svg width="720" height="888.65" version="1.1" xmlns="http://www.w3.org/2000/svg">
 <path d="m101.44-97.279c-1.138 1.49-1.505 9.532-1.266 10.763 0.24 1.232 3.856 0.616 5.332 1.315-0.312-1.832-1.807-11.168-4.066-12.078z" fill="#fff"/>
 <g transform="matrix(1.3333 0 0 1.3333 -.0039986 .0053334)">
  <path d="m3.926 3.918-6e-3 279.23c3.73 152.38 83.243 298.51 266.08 379.05 182.86-80.542 262.35-226.69 266.08-379.05v-279.23z" fill="#fcdb00" stroke="#000" stroke-width="7.834"/>
  <path transform="scale(.75)" d="m120 5.225v698.08c32.501 41.095 72.303 78.98 120 112.47v-810.55zm240 0v877.71l4e-3 2e-3c44.54-19.617 84.43-42.183 119.99-67.156v-810.56h-120zm240 0v698.1c75.925-95.995 111.94-209.52 114.78-325.78v-372.31h-114.78z" fill="#0093dd" stroke-width="1.2"/>
  <g stroke="#000">
   <path transform="translate(342.43,12.285)" d="m107.57-12.285v527.97m-360-527.97v529.47m90 83.59v-613.06m90 0v663m90-49.944v-613.06" fill="none" stroke-width="2.7"/>
   <g transform="matrix(.99465 0 0 .99465 -29.886 -77.304)" fill="#f00000" stroke-width="3">
    <path d="m377.73 429.66 1e-3 104.19h104.19v-104.19zm81.424 41.187c-3.291 3.29-12.124 3.475-12.124 10.906 0 7.429 8.833 7.615 12.124 10.905 5.088 5.09 5.088 13.337 0 18.426-5.088 5.086-13.337 5.086-18.425 0-3.291-3.293-3.475-12.126-10.906-12.126s-7.615 8.833-10.905 12.126c-5.088 5.086-13.336 5.086-18.424 0-5.09-5.089-5.09-13.336 0-18.426 3.29-3.29 12.123-3.474 12.123-10.905 0-7.434-8.833-7.616-12.123-10.906-5.09-5.089-5.088-13.336 0-18.425s13.336-5.089 18.424 0c3.29 3.291 3.475 12.125 10.905 12.125 7.432 0 7.615-8.834 10.906-12.125 5.088-5.089 13.336-5.089 18.425 0 5.088 5.089 5.088 13.336 0 18.425zm-335.12-254.8-9.794-9.793-9.794 9.793 9.794 9.794-15.485 15.485-9.794-9.794-24.75 24.75 19.588 19.588 12.375-12.375 37.323 37.324-12.375 12.375 19.588 19.588 24.75-24.75-9.794-9.794 15.485-15.485 9.794 9.794 9.794-9.794-9.794-9.794 16.412-16.412-56.912-56.912zm30.926 34.632-8.647 8.647 8.647 8.648-8.647 8.647-8.647-8.648-8.647 8.648-8.647-8.647 8.647-8.648-8.647-8.647 8.647-8.646 8.647 8.647 8.647-8.647z"/>
    <path transform="rotate(-45)" d="m-49.239 216.38h25.027v340.98h-25.027z"/>
    <circle transform="translate(-.038 -.045)" cx="106.13" cy="158.06" r="15.723"/>
    <path d="m128.11 148.9a7.3 7.3 0 0 0-10.323 0l-20.807 20.807a7.3 7.3 0 0 0 0 10.324 7.299 7.299 0 0 0 10.323 0l20.807-20.807a7.302 7.302 0 0 0 0-10.324z"/>
    <path d="m136.35 160.32a6.6 6.6 0 0 0-9.332 0l-18.622 18.623a6.597 6.597 0 0 0 0 9.331 6.597 6.597 0 0 0 9.331 0l18.623-18.622a6.599 6.599 0 0 0 0-9.332zm265.95 258.54a8.294 8.294 0 0 1-1e-3 11.729l-23.638 23.639a8.294 8.294 0 0 1-11.728-11.729l23.638-23.639a8.293 8.293 0 0 1 11.729 0z"/>
    <path d="m389.33 409.49a7.497 7.497 0 0 1 1e-3 10.602l-21.156 21.156a7.496 7.496 0 0 1-10.603 0 7.499 7.499 0 0 1 1e-3 -10.602l21.156-21.156a7.497 7.497 0 0 1 10.601 0zm-15.909 112.04a5.653 5.653 0 0 0-7.997 0 5.656 5.656 0 0 0 0 7.996l16.623 16.621a5.651 5.651 0 0 0 7.995 0 5.652 5.652 0 0 0 0-7.994z"/>
    <path d="m381.41 513.54a5.65 5.65 0 0 0-7.994 0 5.65 5.65 0 0 0 0 7.994l16.621 16.623a5.654 5.654 0 0 0 7.996-7.996zm88.198 24.618a5.653 5.653 0 0 0 0 7.994 5.651 5.651 0 0 0 7.995 0l16.622-16.621a5.655 5.655 0 0 0-7.995-7.996z"/>
    <path d="m461.61 530.16a5.652 5.652 0 0 0 0 7.996 5.653 5.653 0 0 0 7.995 0l16.622-16.623a5.652 5.652 0 0 0 0-7.994 5.655 5.655 0 0 0-7.995 0zm7.994-104.82a5.653 5.653 0 1 1 7.995-7.994l16.622 16.623a5.653 5.653 0 1 1-7.995 7.994z"/>
    <path d="m461.61 433.34a5.655 5.655 0 0 1 7.995-7.996l16.622 16.623a5.654 5.654 0 0 1-7.996 7.996zm-340.53-3.681v104.19h104.19l1e-3 -104.19zm22.764 22.762c5.089-5.089 13.337-5.089 18.425 0 3.29 3.291 3.474 12.125 10.905 12.125 7.432 0 7.616-8.834 10.906-12.125 5.087-5.089 13.336-5.089 18.424 0 5.087 5.089 5.089 13.336 0 18.425-3.29 3.29-12.123 3.473-12.123 10.906 0 7.432 8.833 7.615 12.123 10.905 5.089 5.09 5.089 13.337 0 18.426-5.088 5.086-13.336 5.086-18.424 0-3.29-3.293-3.474-12.126-10.906-12.126-7.431 0-7.615 8.833-10.905 12.126-5.088 5.086-13.337 5.086-18.425 0-5.087-5.089-5.087-13.336 0-18.426 3.291-3.29 12.125-3.477 12.125-10.905 0-7.432-8.833-7.616-12.125-10.906-5.088-5.089-5.088-13.336 0-18.425zm318.7-252.79-56.911 56.912 16.411 16.412-9.795 9.794 9.795 9.794 9.793-9.794 15.487 15.485-9.796 9.794 24.751 24.75 19.588-19.588-12.375-12.375 37.323-37.324 12.375 12.375 19.589-19.588-24.75-24.75-9.794 9.794-15.484-15.485 9.793-9.794-9.793-9.793-9.796 9.793zm-5.868 42.397 8.647 8.647 8.647-8.647 8.646 8.646-8.646 8.647 8.646 8.648-8.646 8.647-8.647-8.648-8.647 8.648-8.647-8.647 8.647-8.648-8.647-8.647z"/>
    <path transform="rotate(225)" d="m-475.61-130.98h25.027v340.98h-25.027z"/>
    <circle transform="translate(-.038 -.045)" cx="496.95" cy="158.06" r="15.722"/>
    <path d="m474.89 148.9a7.302 7.302 0 0 1 10.324 0l20.807 20.807a7.3 7.3 0 0 1 0 10.324 7.299 7.299 0 0 1-10.323 0l-20.808-20.807a7.302 7.302 0 0 1 0-10.324z"/>
    <path d="m466.65 160.32a6.598 6.598 0 0 1 9.331 0l18.623 18.623a6.6 6.6 0 0 1-9.333 9.331l-18.621-18.622a6.599 6.599 0 0 1 0-9.332zm-265.95 258.54a8.293 8.293 0 0 0 1e-3 11.729l23.638 23.639a8.296 8.296 0 0 0 11.728 0 8.293 8.293 0 0 0 0-11.729l-23.638-23.639a8.293 8.293 0 0 0-11.729 0z"/>
    <path d="m213.67 409.49a7.497 7.497 0 0 0-1e-3 10.602l21.157 21.156a7.497 7.497 0 1 0 10.601-10.602l-21.157-21.156a7.496 7.496 0 0 0-10.6 0zm15.909 112.04a5.654 5.654 0 0 1 7.996 7.996l-16.622 16.621a5.652 5.652 0 0 1-7.996 0 5.652 5.652 0 0 1 0-7.994z"/>
    <path d="m221.59 513.54a5.651 5.651 0 0 1 7.995 0 5.65 5.65 0 0 1 0 7.994l-16.622 16.623a5.654 5.654 0 0 1-7.995-7.996zm-88.197 24.618a5.652 5.652 0 0 1 0 7.994 5.651 5.651 0 0 1-7.995 0l-16.622-16.621a5.655 5.655 0 0 1 7.995-7.996z"/>
    <path d="m141.38 530.16a5.652 5.652 0 0 1 0 7.996 5.653 5.653 0 0 1-7.995 0l-16.622-16.623a5.652 5.652 0 0 1 0-7.994 5.655 5.655 0 0 1 7.995 0zm-7.994-104.82a5.653 5.653 0 1 0-7.995-7.994l-16.622 16.623a5.65 5.65 0 0 0 0 7.994 5.653 5.653 0 0 0 7.995 0z"/>
    <path d="m141.38 433.34a5.655 5.655 0 0 0-7.995-7.996l-16.622 16.623a5.654 5.654 0 0 0 0 7.996 5.653 5.653 0 0 0 7.995 0z"/>
   </g>
   <path d="m3.926 3.918-6e-3 279.23c3.73 152.38 83.243 298.51 266.08 379.05 182.86-80.542 262.35-226.69 266.08-379.05v-279.23z" fill="none" stroke-width="7.834"/>
  </g>
 </g>
</svg>
