<?xml version="1.0" encoding="UTF-8"?>
<svg width="202.99mm" height="236.609mm" version="1.1" viewBox="0 0 202.99 236.609" xmlns="http://www.w3.org/2000/svg">
 <title>Wappen von Merenberg</title>
 <path d="m101.356 236.109c52.4847 0 94.5506-42.5499 95.0317-95.032l0.896362-97.7791c0.0653096-7.12426 1.38257-9.60555 5.20598-12.255v-14.948c-15.2523-6.03192-33.8413-9.81417-51.0149-12.268-16.6604-2.38056-33.3328-3.40251-50-3.32216-16.0833 0.077539-30.4273 0.174924-50 3.36543-21.2681 3.46688-40.5136 8.48122-50.975 12.7248v15.0438c2.46008 3.63911 3.08308 7.08188 3.17045 10.4742l2.55955 99.3852c0.527664 20.4887 6.57023 39.4673 17.5497 54.9909 17.1365 24.2289 45.587 39.62 77.5761 39.62z" stroke="#000"/>
 <path d="m1.328 27.5195-9e-16 -10.3939c33.3073-11.7418 66.7735-16.2238 100.147-16.175 29.5163 0.0431387 70.449 5.20466 98.047 15.475v11.0939" fill="#fff" stroke="#000"/>
 <path d="m101.464 5.80185c-32.91 0-70.0725 6.13824-100.136 21.099v3.88917l5.70198 5.86941v106.008c0 51.5458 41.7865 93.3323 93.3323 93.3323 51.5458 0 93.3318-41.7865 93.3318-93.3323v-105.95l5.82858-5.93814-5.16764e-4 -3.93619c-30.8175-14.5748-65.1481-21.0416-98.0581-21.0416z" fill="#078930"/>
 <path d="m27.0731 16.6446c-8.95069 2.80965-17.6093 6.20749-25.7452 10.2562v3.88917l5.70198 5.86941v0.98547l74.8218 76.5312-64.0258 60.0687c4.22049 10.1619 9.66227 18.1408 15.6728 25.4538l66.4227-62.6624 71.6641 66.1261c6.99961-7.77566 11.7129-16.3936 15.5159-25.049l-66.9352-63.9956 73.5278-75.2424v-2.15749l5.82858-5.93814-5.16764e-4 -3.93619c-8.067-3.81521-16.3762-7.06898-24.8362-9.8025l-73.6611 75.6589z" stroke="#000" stroke-linejoin="round"/>
 <g fill="#fcdd09" stroke="#000" stroke-linecap="round" stroke-miterlimit="5" stroke-width="2">
  <path d="m97.049 151.545c0.497864 3.40762 0.920601 6.89006 1.0353 10.4619-3.33729-0.137857-6.6745-0.59621-10.0118-1.15773v9.768c3.32857-0.547553 6.66601-1.29056 10.0128-1.4184-0.108612 3.40256-0.514134 6.7555-1.33634 10.3694h9.426c-0.81192-3.57738-1.22194-6.96809-1.11459-10.3771 3.32562 0.119085 6.56038 0.556453 9.90559 1.12615v-9.768c-3.33987 0.836546-6.57967 1.35609-9.91955 1.4753 0.105844-3.58259 0.545129-7.02665 1.34355-10.4795z"/>
  <path d="m97.049 151.545c0.497864 3.40762 0.920601 6.89006 1.0353 10.4619-3.33729-0.137857-6.6745-0.59621-10.0118-1.15773v7.96816c3.32857-0.547553 6.66601-0.89071 10.0128-1.01854-0.108612 3.40256-0.511791 6.88831-1.03634 10.4691h7.64058c-0.508209-3.57738-0.813692-7.06783-0.929142-10.4769 3.32562 0.119085 6.66037 0.4566 10.0056 1.02629v-7.96816c-3.33987 0.605036-6.67967 1.05609-10.0195 1.1753 0.105844-3.58259 0.425309-7.07342 0.943095-10.4795z"/>
  <path d="m71.6045 179.061c0.497864 3.40762 0.920601 6.89006 1.0353 10.4619-3.33729-0.137857-6.6745-0.59621-10.0118-1.15773v9.768c3.32857-0.547553 6.66601-1.29056 10.0128-1.4184-0.108612 3.40256-0.514134 6.7555-1.33634 10.3694h9.426c-0.81192-3.57738-1.22194-6.96809-1.11459-10.3771 3.32562 0.119085 6.56038 0.556453 9.90559 1.12615v-9.768c-3.33987 0.836546-6.57967 1.35609-9.91955 1.4753 0.105844-3.58259 0.545129-7.02665 1.34355-10.4795z"/>
  <path d="m71.6045 179.061c0.497864 3.40762 0.920601 6.89006 1.0353 10.4619-3.33729-0.137857-6.6745-0.59621-10.0118-1.15773v7.96816c3.32857-0.547553 6.66601-0.89071 10.0128-1.01854-0.108612 3.40256-0.511791 6.88831-1.03634 10.4691h7.64058c-0.508209-3.57738-0.813692-7.06783-0.929142-10.4769 3.32562 0.119085 6.66037 0.4566 10.0056 1.02629v-7.96816c-3.33987 0.605036-6.67967 1.05609-10.0195 1.1753 0.105844-3.58259 0.425309-7.07342 0.943095-10.4795z"/>
  <path d="m123.428 179.061c0.497864 3.40762 0.920601 6.89006 1.0353 10.4619-3.33729-0.137857-6.6745-0.59621-10.0118-1.15773v9.768c3.32857-0.547553 6.66601-1.29056 10.0128-1.4184-0.108612 3.40256-0.514134 6.7555-1.33634 10.3694h9.426c-0.81192-3.57738-1.22194-6.96809-1.11459-10.3771 3.32562 0.119085 6.56038 0.556453 9.90559 1.12615v-9.768c-3.33987 0.836546-6.57967 1.35609-9.91955 1.4753 0.105844-3.58259 0.545129-7.02665 1.34355-10.4795z"/>
  <path d="m123.428 179.061c0.497864 3.40762 0.920601 6.89006 1.0353 10.4619-3.33729-0.137857-6.6745-0.59621-10.0118-1.15773v7.96816c3.32857-0.547553 6.66601-0.89071 10.0128-1.01854-0.108612 3.40256-0.511791 6.88831-1.03634 10.4691h7.64058c-0.508209-3.57738-0.813692-7.06783-0.929142-10.4769 3.32562 0.119085 6.66037 0.4566 10.0056 1.02629v-7.96816c-3.33987 0.605036-6.67967 1.05609-10.0195 1.1753 0.105844-3.58259 0.425309-7.07342 0.943095-10.4795z"/>
 </g>
 <g stroke="#000">
  <g stroke-linecap="round" stroke-miterlimit="5" stroke-width="2">
   <path d="m97.049 46.3416c0.497864 3.40762 0.920601 6.89006 1.0353 10.4619-3.33729-0.137857-6.6745-0.59621-10.0118-1.15773v9.768c3.32857-0.547553 6.66601-1.29056 10.0128-1.4184-0.108612 3.40256-0.514134 6.7555-1.33634 10.3694h9.426c-0.81192-3.57738-1.22194-6.96809-1.11459-10.3771 3.32562 0.119085 6.56038 0.556453 9.90559 1.12615v-9.768c-3.33987 0.836546-6.57967 1.35609-9.91955 1.4753 0.105844-3.58259 0.545129-7.02665 1.34355-10.4795z" fill="none"/>
   <path d="m97.049 46.3416c0.497864 3.40762 0.920601 6.89006 1.0353 10.4619-3.33729-0.137857-6.6745-0.59621-10.0118-1.15773v7.96816c3.32857-0.547553 6.66601-0.89071 10.0128-1.01854-0.108612 3.40256-0.511791 6.88831-1.03634 10.4691h7.64058c-0.508209-3.57738-0.813692-7.06783-0.929142-10.4769 3.32562 0.119085 6.66037 0.4566 10.0056 1.02629v-7.96816c-3.33987 0.605036-6.67967 1.05609-10.0195 1.1753 0.105844-3.58259 0.425309-7.07342 0.943095-10.4795z" fill="#fcdd09"/>
   <path d="m71.6045 18.9215c0.497864 3.40762 0.920601 6.89006 1.0353 10.4619-3.33729-0.137857-6.6745-0.59621-10.0118-1.15773v9.768c3.32857-0.547553 6.66601-1.29056 10.0128-1.4184-0.108612 3.40256-0.514134 6.7555-1.33634 10.3694h9.426c-0.81192-3.57738-1.22194-6.96809-1.11459-10.3771 3.32562 0.119085 6.56038 0.556453 9.90559 1.12615v-9.768c-3.33987 0.836546-6.57967 1.35609-9.91955 1.4753 0.105844-3.58259 0.545129-7.02665 1.34355-10.4795z" fill="none"/>
   <path d="m71.6045 18.9215c0.497864 3.40762 0.920601 6.89006 1.0353 10.4619-3.33729-0.137857-6.6745-0.59621-10.0118-1.15773v7.96816c3.32857-0.547553 6.66601-0.89071 10.0128-1.01854-0.108612 3.40256-0.511791 6.88831-1.03634 10.4691h7.64058c-0.508209-3.57738-0.813692-7.06783-0.929142-10.4769 3.32562 0.119085 6.66037 0.4566 10.0056 1.02629v-7.96816c-3.33987 0.605036-6.67967 1.05609-10.0195 1.1753 0.105844-3.58259 0.425309-7.07342 0.943095-10.4795z" fill="#fcdd09"/>
   <path d="m123.428 18.9215c0.497864 3.40762 0.920601 6.89006 1.0353 10.4619-3.33729-0.137857-6.6745-0.59621-10.0118-1.15773v9.768c3.32857-0.547553 6.66601-1.29056 10.0128-1.4184-0.108612 3.40256-0.514134 6.7555-1.33634 10.3694h9.426c-0.81192-3.57738-1.22194-6.96809-1.11459-10.3771 3.32562 0.119085 6.56038 0.556453 9.90559 1.12615v-9.768c-3.33987 0.836546-6.57967 1.35609-9.91955 1.4753 0.105844-3.58259 0.545129-7.02665 1.34355-10.4795z" fill="none"/>
   <path d="m123.428 18.9215c0.497864 3.40762 0.920601 6.89006 1.0353 10.4619-3.33729-0.137857-6.6745-0.59621-10.0118-1.15773v7.96816c3.32857-0.547553 6.66601-0.89071 10.0128-1.01854-0.108612 3.40256-0.511791 6.88831-1.03634 10.4691h7.64058c-0.508209-3.57738-0.813692-7.06783-0.929142-10.4769 3.32562 0.119085 6.66037 0.4566 10.0056 1.02629v-7.96816c-3.33987 0.605036-6.67967 1.05609-10.0195 1.1753 0.105844-3.58259 0.425309-7.07342 0.943095-10.4795z" fill="#fcdd09"/>
   <path d="m161.12 117c-3.40762-0.497864-6.89006-0.920601-10.4619-1.0353 0.137857 3.33729 0.728502 6.6745 1.29002 10.0118h-9.80107c0.547553-3.32857 1.19134-6.66601 1.31918-10.0128-3.40256 0.108612-6.7555 0.514134-10.3694 1.33634v-9.426c3.57738 0.81192 6.96809 1.22194 10.3771 1.11459-0.119085-3.32562-0.556453-6.66396-1.12615-10.0092h9.768c-0.836546 3.33987-1.12458 6.68325-1.24379 10.0231 3.58259-0.105844 6.79514-0.545129 10.248-1.34355z" fill="none"/>
   <path d="m159.82 115.696c-3.40762-0.497864-6.89006-0.920601-10.4619-1.0353 0.137857 3.33729 0.59621 6.6745 1.15773 10.0118h-7.96816c0.547553-3.32857 0.89071-6.66601 1.01854-10.0128-3.40256 0.108612-6.88831 0.511791-10.4691 1.03634v-7.64058c3.57738 0.508209 7.06783 0.813692 10.4769 0.929142-0.119085-3.32562-0.4566-6.65999-1.02629-10.0052l7.96816-3.85966e-4c-0.605036 3.33987-1.05609 6.67967-1.1753 10.0195 3.58259-0.105844 7.07342-0.425309 10.4795-0.943095z" fill="#fcdd09"/>
   <path d="m188.622 142.351c-3.40762-0.497864-6.89006-0.920601-10.4619-1.0353 0.137857 3.33729 0.728502 6.6745 1.29002 10.0118h-9.80107c0.547553-3.32857 1.19134-6.66601 1.31918-10.0128-3.40256 0.108612-6.7555 0.514134-10.3694 1.33634v-9.426c3.57738 0.81192 6.96809 1.22194 10.3771 1.11459-0.119085-3.32562-0.556453-6.66396-1.12615-10.0092h9.768c-0.836546 3.33987-1.12458 6.68325-1.24379 10.0231 3.58259-0.105844 6.79514-0.545129 10.248-1.34355z" fill="none"/>
   <path d="m187.322 141.047c-3.40762-0.497864-6.89006-0.920601-10.4619-1.0353 0.137857 3.33729 0.59621 6.6745 1.15773 10.0118h-7.96816c0.547553-3.32857 0.89071-6.66601 1.01854-10.0128-3.40256 0.108612-6.88831 0.511791-10.4691 1.03634v-7.64058c3.57738 0.508209 7.06783 0.813692 10.4769 0.929142-0.119085-3.32562-0.4566-6.65999-1.02629-10.0052l7.96816-3.85966e-4c-0.605036 3.33987-1.05609 6.67967-1.1753 10.0195 3.58259-0.105844 7.07342-0.425309 10.4795-0.943095z" fill="#fcdd09"/>
   <path d="m188.622 90.5926c-3.40762-0.497864-6.89006-0.920601-10.4619-1.0353 0.137857 3.33729 0.728502 6.6745 1.29002 10.0118h-9.80107c0.547553-3.32857 1.19134-6.66601 1.31918-10.0128-3.40256 0.108612-6.7555 0.514134-10.3694 1.33634v-9.426c3.57738 0.81192 6.96809 1.22194 10.3771 1.11459-0.119085-3.32562-0.556453-6.66396-1.12615-10.0092h9.768c-0.836546 3.33987-1.12458 6.68325-1.24379 10.0231 3.58259-0.105844 6.79514-0.545129 10.248-1.34355z" fill="none"/>
   <path d="m187.322 89.2887c-3.40762-0.497864-6.89006-0.920601-10.4619-1.0353 0.137857 3.33729 0.59621 6.6745 1.15773 10.0118h-7.96816c0.547553-3.32857 0.89071-6.66601 1.01854-10.0128-3.40256 0.108612-6.88831 0.511791-10.4691 1.03634v-7.64058c3.57738 0.508209 7.06783 0.813692 10.4769 0.929142-0.119085-3.32562-0.4566-6.65999-1.02629-10.0052l7.96816-3.85966e-4c-0.605036 3.33987-1.05609 6.67967-1.1753 10.0195 3.58259-0.105844 7.07342-0.425309 10.4795-0.943095z" fill="#fcdd09"/>
   <path d="m43.1012 143.609c-3.40762-0.497864-6.89006-0.920601-10.4619-1.0353 0.137857 3.33729 0.728502 6.6745 1.29002 10.0118h-9.80107c0.547553-3.32857 1.19134-6.66601 1.31918-10.0128-3.40256 0.108612-6.7555 0.514134-10.3694 1.33634v-9.426c3.57738 0.81192 6.96809 1.22194 10.3771 1.11459-0.119085-3.32562-0.556453-6.66396-1.12615-10.0092h9.768c-0.836546 3.33987-1.12458 6.68325-1.24379 10.0231 3.58259-0.105844 6.79514-0.545129 10.248-1.34355z" fill="none"/>
   <path d="m41.801 142.305c-3.40762-0.497864-6.89006-0.920601-10.4619-1.0353 0.137857 3.33729 0.59621 6.6745 1.15773 10.0118h-7.96816c0.547553-3.32857 0.89071-6.66601 1.01854-10.0128-3.40256 0.108612-6.88831 0.511791-10.4691 1.03634v-7.64058c3.57738 0.508209 7.06783 0.813692 10.4769 0.929142-0.119085-3.32562-0.4566-6.65999-1.02629-10.0052l7.96816-3.85966e-4c-0.605036 3.33987-1.05609 6.67967-1.1753 10.0195 3.58259-0.105844 7.07342-0.425309 10.4795-0.943095z" fill="#fcdd09"/>
   <path d="m43.1012 91.8506c-3.40762-0.497864-6.89006-0.920601-10.4619-1.0353 0.137857 3.33729 0.728502 6.6745 1.29002 10.0118h-9.80107c0.547553-3.32857 1.19134-6.66601 1.31918-10.0128-3.40256 0.108612-6.7555 0.514134-10.3694 1.33634v-9.426c3.57738 0.81192 6.96809 1.22194 10.3771 1.11459-0.119085-3.32562-0.556453-6.66396-1.12615-10.0092h9.768c-0.836546 3.33987-1.12458 6.68325-1.24379 10.0231 3.58259-0.105844 6.79514-0.545129 10.248-1.34355z" fill="none"/>
   <path d="m41.801 90.5467c-3.40762-0.497864-6.89006-0.920601-10.4619-1.0353 0.137857 3.33729 0.59621 6.6745 1.15773 10.0118h-7.96816c0.547553-3.32857 0.89071-6.66601 1.01854-10.0128-3.40256 0.108612-6.88831 0.511791-10.4691 1.03634v-7.64058c3.57738 0.508209 7.06783 0.813692 10.4769 0.929142-0.119085-3.32562-0.4566-6.65999-1.02629-10.0052l7.96816-3.85966e-4c-0.605036 3.33987-1.05609 6.67967-1.1753 10.0195 3.58259-0.105844 7.07342-0.425309 10.4795-0.943095z" fill="#fcdd09"/>
   <path d="m70.5322 118.221c-3.40762-0.497864-6.89006-0.920601-10.4619-1.0353 0.137857 3.33729 0.728502 6.6745 1.29002 10.0118h-9.80107c0.547553-3.32857 1.19134-6.66601 1.31918-10.0128-3.40256 0.108612-6.7555 0.514134-10.3694 1.33634v-9.426c3.57738 0.81192 6.96809 1.22194 10.3771 1.11459-0.119085-3.32562-0.556453-6.66396-1.12615-10.0092h9.768c-0.836546 3.33987-1.12458 6.68325-1.24379 10.0231 3.58259-0.105844 6.79514-0.545129 10.248-1.34355z" fill="none"/>
   <path d="m69.2319 116.917c-3.40762-0.497864-6.89006-0.920601-10.4619-1.0353 0.137857 3.33729 0.59621 6.6745 1.15773 10.0118h-7.96816c0.547553-3.32857 0.89071-6.66601 1.01854-10.0128-3.40256 0.108612-6.88831 0.511791-10.4691 1.03634v-7.64058c3.57738 0.508209 7.06783 0.813692 10.4769 0.929142-0.119085-3.32562-0.4566-6.65999-1.02629-10.0052l7.96816-3.85966e-4c-0.605036 3.33987-1.05609 6.67967-1.1753 10.0195 3.58259-0.105844 7.07342-0.425309 10.4795-0.943095z" fill="#fcdd09"/>
  </g>
  <path d="m25.3802 17.181c-8.34995 2.70262-16.43 5.92667-24.0523 9.71982v3.88917l81.5237 83.3861-64.6922 60.5684c3.84092 8.43383 8.53197 16.9605 14.2901 23.596l67.9814-63.7698 71.4732 68.0475c6.41499-7.16989 11.1129-15.1922 14.4539-23.2115l-68.3085-65.289 81.4731-83.3732-5.16764e-4 -3.90105c-7.82686-3.70164-15.8809-6.87757-24.0802-9.56014l-74.9825 77.0242-0.139526-0.157613z" fill="#fcdd09" stroke-linejoin="round"/>
  <path d="m9.96875 40.7203 0.647518 101.296c0.120793 18.8966 6.41914 35.2556 16.1383 49.3458 12.2403 17.7451 28.229 28.7141 41.2421 32.9465-16.0148-6.17915-30.0865-17.6703-40.402-32.9967-9.79066-14.5466-15.8477-31.9944-15.749-49.2245l0.570508-99.6495z" stroke-linejoin="round" stroke-width=".75"/>
 </g>
 <path d="m7.03 36.6596v113.324" fill="none" stroke="#9116a1"/>
 <path d="m101.464 5.80185c-32.91 0-70.0725 6.13824-100.136 21.099v3.88917l5.70198 5.86941v106.008c0 51.5458 41.7865 93.3323 93.3323 93.3323 51.5458 0 93.3318-41.7865 93.3318-93.3323v-105.95l5.82858-5.93814-5.16764e-4 -3.93619c-30.8175-14.5748-65.1481-21.0416-98.0581-21.0416z" fill="none" stroke="#000"/>
</svg>
