<?xml version="1.0" encoding="UTF-8"?>
<svg width="540" height="670" viewBox="0 0 142.88 177.27" xml:space="preserve" xmlns="http://www.w3.org/2000/svg"><path d="M140.03 58.07c0 63.566-23.411 98.886-68.595 116.15C26.486 156.89 2.839 121.634 2.839 58.07V2.97h137.19z" fill="#fcdb00"/><path class="UnoptimicedTransforms" d="M18.492 68.668c-3.176 0-6.03 1.573-8.814 3.147-2.02 1.142-4.064 2.275-6.257 2.815 3.873 53.233 27.13 83.828 68.014 99.59 41.09-15.7 64.172-46.336 68.017-99.565-2.232-.53-4.31-1.683-6.379-2.84-2.783-1.573-5.61-3.147-8.814-3.147-3.176 0-6.002 1.574-8.813 3.147-2.784 1.573-5.639 3.147-8.815 3.147s-6.001-1.574-8.813-3.147c-2.784-1.573-5.61-3.147-8.814-3.147-3.176 0-6.002 1.574-8.814 3.147-2.784 1.573-5.639 3.147-8.814 3.147s-6.03-1.574-8.814-3.147c-2.783-1.573-5.61-3.147-8.814-3.147-3.176 0-6.03 1.574-8.814 3.147-2.783 1.573-5.61 3.147-8.814 3.147-3.176 0-6.002-1.574-8.814-3.147-2.783-1.573-5.638-3.147-8.814-3.147z" fill="#0093dd" stroke="#000" stroke-width="1.323"/><path d="M140.03 58.07c0 63.566-23.411 98.886-68.595 116.15C26.486 156.89 2.839 121.634 2.839 58.07V2.97h137.19z" fill="none" stroke="#000" stroke-width="2.646"/></svg>
