<svg xmlns="http://www.w3.org/2000/svg" height="494" width="409"><path d="m 6.816 246.86 l 394.21 -0.915 l 1.424 36.859 c 0.949 114.31 -86.93 204.77 -198.59 204.77 -111.65 0 -197.86 -91.66 -197.86 -201.63 z" fill="#da121a"/><g fill="#fff"><path d="m 6.01 6 h 395.02 v 239.95 h -395.02 z"/><g stroke="#000" stroke-width="3"><g stroke-linejoin="round" stroke-linecap="round"><path d="m 224.36 347.09 l 7.601 13.161 c 31.3 -10.389 31.3 -10.389 55.947 -32.29 l -7.601 -13.161 c -31.3 10.389 -31.3 10.389 -55.947 32.29 z"/><path d="m 196.95 339.89 h 15.201 c 6.65 -32.29 6.65 -32.29 0 -64.59 h -15.201 c -6.65 32.29 -6.65 32.29 0 64.59 z"/><path d="m 196.95 458.8 h 15.201 c 6.65 -32.29 6.65 -32.29 0 -64.59 h -15.201 c -6.65 32.29 -6.65 32.29 0 64.59 z"/><path d="m 121.36 406.55 l 7.601 13.161 c 31.3 -10.389 31.3 -10.389 55.947 -32.29 l -7.601 -13.161 c -31.3 10.389 -31.3 10.389 -55.947 32.29 z"/><path d="m 184.96 346.98 l -7.601 13.161 c -31.3 -10.389 -31.3 -10.389 -55.947 -32.29 l 7.601 -13.161 c 31.3 10.389 31.3 10.389 55.947 32.29 z"/><path d="m 287.97 406.44 l -7.601 13.161 c -31.3 -10.389 -31.3 -10.389 -55.947 -32.29 l 7.601 -13.161 c 31.3 10.389 31.3 10.389 55.947 32.29 z"/></g><g color="#000"><path d="m 204.54 339.12 c -15.324 0 -28.16 12.474 -28.16 28.15 0 15.675 12.832 28.15 28.16 28.15 15.324 0 28.16 -12.474 28.16 -28.15 0 -15.675 -12.832 -28.15 -28.16 -28.15 z m 0 9.827 c 10.637 0 18.871 8.33 18.871 18.322 0 9.992 -8.234 18.322 -18.871 18.322 -10.637 0 -18.871 -8.33 -18.871 -18.322 0 -9.992 8.234 -18.322 18.871 -18.322 z"/><path d="m 204.49 258.09 c -60.06 0 -109.22 48.815 -109.22 109.19 0 60.38 49.16 109.22 109.22 109.22 60.06 0 109.25 -48.845 109.25 -109.22 0 -60.38 -49.19 -109.19 -109.25 -109.19 z m 0 18.917 c 50.45 0 90.86 40.467 90.86 90.28 0 49.811 -40.41 90.31 -90.86 90.31 -50.45 0 -90.86 -40.496 -90.86 -90.31 0 -49.811 40.41 -90.28 90.86 -90.28 z" stroke-linecap="round" stroke-linejoin="round"/></g></g></g><g stroke="#000"><g stroke-linecap="round"><g stroke-linejoin="round"><path d="m 333.61 431.01 a 110.67 107.12 0 1 1 -221.33 0 110.67 107.12 0 1 1 221.33 0 z" transform="matrix(0.9303 0 0 0.96086 -2.843 -46.904)" fill="none" stroke-width="3.173"/><path d="m 105.99 112.58 c -6 -9.998 2 -15.996 5 -20.995 -20 5.999 -23 23.995 -9 33.993 -14 9.998 -10.546 28.16 9 33.993 -3 -4.999 -11 -9.998 -5 -19.996 h 85 v 84.981 c -10 5.999 -16 -2 -21 -4.999 6 19.996 24 22.995 34 8.998 10 13.997 28.16 10.543 34 -8.998 -5 2.999 -10 10.998 -20 4.999 v -84.981 h 85 c 6 9.998 -2 14.997 -5 19.996 19.546 -5.837 23 -23.995 9 -33.993 14 -9.998 11 -27.994 -9 -33.993 3 4.999 11 10.998 5 20.995 h -85 v -84.981 c 10 -5.999 15 2 20 4.999 -5.839 -19.541 -24 -22.995 -34 -8.998 -10 -13.997 -28 -10.998 -34 8.998 5 -2.999 11 -10.998 21 -4.999 v 84.981 z" fill="#da121a" stroke-width="3"/></g><path d="m 6.01 6 h 198.49 h 198.49 v 277.53 c 1.228 149.92 -128.47 204.47 -198.49 204.47 -68.794 0 -199.72 -54.55 -198.49 -204.47 v -277.53 z" fill="none" display="block" stroke-width="6"/></g><path d="m 7 247 h 395 m -149.04 210.12 l -5.411 -10.03 m -86.13 -159.67 l -5.411 -10.03 m 0.153 179.43 l 5.411 -10.03 m 86.13 -159.67 l 5.411 -10.03 m -150.6 89.87 h 11.401 m 181.46 0 h 11.401 m -147.4 -40.22 l -12.351 21.386 m 115.36 38.07 l -12.351 21.386 m -0.058 -80.74 l 12.351 21.386 m -115.36 38.07 l 12.351 21.386 m 32.893 -100.08 h 24.701 m -24.701 118.91 h 24.701 m 72.5 -13.07 c 1.375 0.801 1.841 2.565 1.039 3.94 -0.801 1.375 -2.566 1.84 -3.941 1.039 -1.375 -0.801 -1.841 -2.565 -1.039 -3.94 0.801 -1.375 2.566 -1.84 3.941 -1.039 z m -166.83 -97.18 c 1.375 0.801 1.841 2.565 1.039 3.94 -0.801 1.375 -2.566 1.84 -3.941 1.039 -1.375 -0.801 -1.841 -2.565 -1.039 -3.94 0.801 -1.375 2.566 -1.84 3.941 -1.039 z m -0.136 101.98 c -1.378 0.798 -3.141 0.328 -3.939 -1.05 -0.798 -1.377 -0.328 -3.14 1.05 -3.938 1.378 -0.798 3.141 -0.328 3.939 1.049 0.798 1.377 0.328 3.14 -1.05 3.938 z m 167.09 -96.74 c -1.378 0.798 -3.141 0.328 -3.939 -1.049 -0.798 -1.377 -0.328 -3.14 1.05 -3.938 1.377 -0.798 3.141 -0.328 3.939 1.049 0.798 1.377 0.328 3.14 -1.05 3.938 z m -82.2 142.31 c 0 1.591 -1.29 2.881 -2.882 2.881 -1.592 0 -2.882 -1.29 -2.882 -2.881 0 -1.591 1.29 -2.881 2.882 -2.881 1.592 0 2.882 1.29 2.882 2.881 z m 0 -193.03 c 0 1.591 -1.29 2.881 -2.882 2.881 -1.592 0 -2.882 -1.29 -2.882 -2.881 0 -1.591 1.29 -2.881 2.882 -2.881 1.592 0 2.882 1.29 2.882 2.881 z" fill="none" stroke-width="3"/></g></svg>