<?xml version="1.0"?>
<svg xmlns="http://www.w3.org/2000/svg" height="785" width="676" xmlns:xlink="http://www.w3.org/1999/xlink" viewBox="0 0 540.8 628">
<defs>
<clipPath id="b" clipPathUnits="userSpaceOnUse">
<use xlink:href="#a"/>
</clipPath>
</defs>
<use clip-path="url(#b)" xlink:href="#a" stroke="#fff" stroke-width="22.4" fill="#002d71"/>
<g fill="#fff">
<path d="m263.6 53.27c1.1 0.44 2.2 0.85 3.2 1.38 1.8 2.52-1 7.21-4.2 5.39-2.8-0.77-2.5-3.76-1.4-5.78 0.6-0.24 1.8-0.74 2.4-0.99z"/>
<path d="m285.4 63.87c-0.4-1.06-0.2-1.81 0.6-2.22 1 0.28 1.8-0.46 2.7-0.76l3.2 1.36c-0.9 1.12-1.7 2.23-2.6 3.3-1.1-0.52-2-2.24-3.4-1.66l-0.5-0.02z"/>
<path d="m430.3 68.4c7.8-3.37 16.1-6.24 24.7-5.41 7.7 0.63 15.5 2.73 21.9 7.23 5.7 4.45 11.5 9.25 14.5 16.04 6.6 12.21 6.8 27.44 0.8 39.94-2.8 8.3-9.5 14.5-16.6 19.3-15.8 10.3-38.1 8.4-52.4-3.6 2.3-3.4 4.3-7.1 5-11.2-0.7-0.3-2.2-1-2.9-1.3-3.6 0.3-7 1.3-9 4.5-2.8-2.6-3.8-6.3-5.4-9.6-5-11.3-4.7-24.64 0.4-35.89 3-4.56 5.3-9.85 9.8-13.14 3.1-2.23 5.5-5.61 9.2-6.87m0.2 14.17c-3.5 2.61-5.5 6.63-7.7 10.24-4.6 7.39-4.4 16.69-1.8 24.69 1.6 4.9 4.9 8.9 8.1 12.9-0.3 2.3-0.9 4.5-1.1 6.8 4.5 3.1 9.8 4.5 15.1 5.5 0.7-0.9 1.4-1.9 1.9-3 4 0.5 8.1 0.9 12.2 0.1 9.1-0.9 16.9-6.7 22.5-13.6 2.1-4.7 4.8-9.4 5.1-14.7 1.7-12.67-4.3-26.29-15.5-32.67-4.9-2.77-10.6-3.73-16.1-4.5-8.1 0.36-16.5 2.79-22.7 8.24z"/>
<path d="m238.9 65.53c0.4-1.35 2.6-2.11 2.8-0.48-2.2 0.39-0.3 2.09 0.4 3-0.1 0.61-0.5 1.83-0.7 2.43-0.8-0.03-2.4-0.08-3.1-0.11-0.4-0.9-0.7-1.8-1-2.69 0.6-0.7 1.1-1.42 1.6-2.15z"/>
<path d="m448.5 77.48c1-0.19 3-0.56 4-0.75 0.7 7.02 0.9 14.06 1.1 21.1-1-0.09-3-0.28-4-0.37-0.2-6.66-0.4-13.34-1.1-19.98z"/>
<path d="m138.5 93.03c7.8-2.96 14.3-8.31 21.1-12.91-0.1 5.38 0.8 10.7 1.2 16.04 0.2 2.8 0.9 5.54 2 8.14-4.9 1.4-9.6 4-13.3 7.4-8.7 18.9-16.6 38.1-25.3 56.9l-2.4-3.9c-1.3-0.9-2.4-1.9-3.6-2.8 6-14.1 12.5-28.1 18.5-42.1 2.4-5.7 6-11.2 5.4-17.6-0.7-3.22-1.6-6.47-3.6-9.17z"/>
<path d="m68.69 82.08c2.98 1.4 5 4.13 7.71 5.95 4.07 2.65 8.25 5.19 12.78 7.01-2.42 5.16-4.52 11.56-1.75 17.06 8.45 19 16.97 38 25.27 57-0.6 1.3-1.1 2.6-1.7 3.9-1.3-3.5-5.5-4.4-8.5-6.2-6.47-14.8-13.17-29.5-19.74-44.3-2.03-4.1-3.23-9-7.03-11.9-3.25-2.4-7.12-3.9-11.12-4.5 2.34-7.75 4.29-15.82 4.08-24.02z"/>
<path d="m113.5 81.34c3.7 7.49 7.2 15.35 13.1 21.36-2.3 2.4-5.3 4.1-7.1 7-0.7 1.7-1.3 3.4-1.9 5.1 0 13.5 0 27 0.1 40.5 0.1 1.7-0.4 3.3-1.1 4.9-2.1-1.3-4.2-3.7-6.9-2.6-0.8-3-0.5-6.2-0.6-9.4 0-11 0.1-22 0-33-0.3-5.6-5.3-9-9.39-12.1 4.89-7.07 9.89-14.1 13.79-21.76z"/>
<path d="m257.2 82.12c1 1 2.1 2.01 3.1 2.98 4 0.87 7.5 3.1 11.6 3.8 2.6 2.51 5.5 4.89 7.5 7.96 2.5 4.84 4.8 9.84 5.2 15.44-0.5 7.1-3.9 13.6-8.5 19-2.2 2.6-6.3 2.5-9.2 1.2-6.4-2.3-11.2-7.6-14.8-13.3-1.8-4-2.6-8.4-2.8-12.8 1.1-1.1 2.2-2.3 3.3-3.4 1.8-0.4 3.6-0.7 5.4-0.7 0.2 4.7 1.2 9.2 1.8 13.8 1.4 2 4.6 1.4 6.7 1.7 1.1-1.3 4.2-3.9 1.7-5.3-0.9 1.3-1.8 2.7-2.8 3.9-1.4-0.3-2.8-0.7-4.1-1-0.6-5.1-1.4-10.2-2.2-15.2-3.7 0-7.4 0.7-10.6 2.8-0.1-6.21 4-10.98 8.1-15.05 0.2-1.94 0.4-3.88 0.6-5.83m5.9 17.3c0 0.78 0 2.38 0.1 3.18 2.4-2.2 4.9-4.36 8.2-5.14 2-0.83 4.6-0.36 6.2-2.17-5.1 0.07-10.7 0.26-14.5 4.13m7.5 0.24c-1.2 0.94-2.5 1.94-3.7 2.84 0.4 1 0.9 2 1.4 2.9 0.5-1.6 1.7-2.6 3.5-3.1-0.1 0.8-0.3 2.3-0.4 3.1 2-1 2.8-3.2 3.8-5.1-1.5-0.41-3.1-0.56-4.6-0.64m-20.7 6.84c0.1 1.2 0.2 2.4 0.5 3.6 1.6-1.2 3.4-2.1 5.3-2.7-0.2 0.6-0.7 1.8-0.9 2.4 2.6-0.6 3.8-4.2 1.3-5.7-2.1 0.7-4.5 0.8-6.2 2.4m11.3 17.7c1.5 1.1 2.8 3.2 5 3.1 4.7-0.2 7.2-5.1 9.2-8.7-4.8 1.7-9.4 3.7-14.2 5.6z"/>
<path d="m459.5 100.8c5.8-3.8 11.6-7.5 17.5-11.2 0.6 1.1 1.2 2.21 1.8 3.32-5.9 3.45-11.4 7.48-17.4 10.88-0.4-0.7-1.4-2.2-1.9-3z"/>
<path d="m424.4 94.89c0.7-1.15 1.5-2.29 2.3-3.41 5.9 3.29 11.8 6.53 18 9.42-1.1 0.9-2.1 1.8-2.6 3.1-6-2.8-11.8-6.1-17.7-9.11z"/>
<path d="m444.3 104.3c1.9-2.2 4.3-3.9 7-5.1 2.8 0.8 6.1 1.4 7.5 4.4 3.9 5.1-1.3 13.5-7.6 12.2-5.6 0-8.9-6.8-6.9-11.5m6.9-2.9c-4.6 0.5-7 7-3.2 10 2.9 3.7 9.3 1.5 10-3 1-3.8-2.9-7.9-6.8-7z"/>
<path d="m451.1 103.4c2.5-0.7 5.3 1.3 5.1 3.9 0.2 2.9-3.3 5-5.8 3.7-3.4-1.3-2.9-7.1 0.7-7.6m0 2.7c-2.4 1-0.2 4.9 2 3.6 3.5-0.6 0.5-5.9-2-3.6z"/>
<path d="m460.2 113.6c0.4-0.9 1.3-2.6 1.8-3.4 5.9 3.2 12 6.2 17.9 9.6-0.4 0.8-1.2 2.3-1.5 3.1-6.1-3.1-12-6.4-18.2-9.3z"/>
<path d="m425.9 122.2c5.8-3.4 11.2-7.3 17-10.6 0.4 1.2 0.7 2.4 1.1 3.6-5.3 3.3-10.5 6.7-15.8 10.1-0.5-0.8-1.7-2.3-2.3-3.1z"/>
<path d="m450.6 117.8h3.9c0.6 6.6 0.7 13.2 1.1 19.8-0.9 0.1-2.9 0.2-3.9 0.3-0.6-6.7-0.6-13.4-1.1-20.1z"/>
<path d="m277.8 132.9c2.1-3.1 4.4-6.1 5.8-9.5 0.2 4.6 1.8 9 3.1 13.4 1.8 2.3 3.6 4.6 5.8 6.5 2.9 1.7 6.2 2.5 9.5 2.7-5.3 3.5-10.4 7.4-16.4 9.9-4.6 3.1-10.6-2-15 2.4-7.9-0.8-14.2-6.3-20.3-11 2.6-2.9 7-3.3 9.5-6.4 1.4-2.6 1.7-5.5 2.4-8.3 3.7 2.1 7.7 3.3 12 2.7l3.6-2.4z"/>
<path d="m417.6 135.7c1.8-3.1 5.3-4.1 8.7-4.6-2.2 3.4-2.2 9.4-7 10.1 1.3 3 4.6 4.1 7 5.9 3.1 2.3 6.8 3.6 10.6 4-3 4.2-6.6 8.1-10.6 11.3-2.1 1.8-4.7 2.5-7.4 2.4-3.3-3.6-3.9-8.5-5.2-13l-0.8-1c1.5-5.1 2.3-10.4 4.7-15.1z"/>
<path d="m430.1 136.2c0.7-2.1-0.1-6.8 3.7-5.3-0.2 2-1.2 3.8-1.9 5.7-0.5-0.1-1.4-0.3-1.8-0.4z"/>
<path d="m435.7 132.4c0.6 0.3 1.2 0.6 1.8 1-0.2 0.8-0.4 1.7-0.6 2.5-1 1.2-2 2.6-3.7 2.6 0.8-2 1.6-4.1 2.5-6.1z"/>
<path d="m439.7 134.4c0.4 0.6 0.9 1.3 1.3 1.9-1.1 1.4-1.8 4.2-4.1 3 1-1.6 2-3.2 2.8-4.9z"/>
<path d="m442.4 137.2c2.5-1 0.9 4.4-1 3.1-0.3-1.2 0-2.2 1-3.1z"/>
<path d="m110.9 159c3.8 1.9 6.8 5 9.8 7.9 3 4.7 6 9.3 9 14-2.5 2-2.7 5.3-4 8-1 1.2-2.2 2.2-3.4 3.2-2.2-1.4-4.2-3.3-4.5-6.1 0.8-2 1.6-4 2-6.1 1-3.8-0.8-7.6-1.3-11.3-2.9-2.7-6.8-5.5-7.6-9.6z"/>
<path d="m102 169.2c2.8 0.5 5 2.4 7.3 4.1-2.9 0.4-6.8-0.8-7.3-4.1z"/>
<path d="m115.2 169.1 0.9-0.2c0.6 2.8 1.5 5.5 2 8.3-0.4 4-2.1 7.6-2.7 11.5-3.7 8.8-7.6 17.5-11.5 26.2-0.7 0.7-1.3 1.5-1.7 2.5-4.71 11-9.55 21.9-14.3 32.9-1.55 2.8-2.89 6.1-5.78 7.9 0.05-2.6 0.46-5.1 0.66-7.7-1.18-0.4-2.35-0.9-3.53-1.3-0.48-2-1.01-3.9-1.64-5.9 0.62-3.4 1.16-7.2 4.01-9.6 4.03-3.3 7.84-7 9.95-11.9 4.72-10.7 9.63-21.4 14.13-32.2 0.5 0 1.3-0.1 1.8-0.1 1.7-3.1 3.1-6.4 4.1-9.8-0.3-3.8 1.7-7.4 3.6-10.6z"/>
<path d="m100.7 172.8c1.7 0.5 3.2 1.4 4.6 2.4 1.3 0.1 2.5 0.1 3.8 0.1 0.2 0.9 0.6 2.9 0.9 3.8-3.1-0.8-6.3-1.4-9.1-2.9-0.1-0.9-0.2-2.5-0.2-3.4z"/>
<path d="m100.2 178.4c3 1 6 1.9 9 2.9-0.3 0.4-0.8 1.4-1 1.8-3.4-0.2-7.1-0.9-8-4.7z"/>
<path d="m103.6 184.2c1.4-0.9 4.9 0.5 3.5 2.4-1.4 0.6-3.2-1.2-3.5-2.4z"/>
<path d="m116.9 190.6c0.9 1.1 3.5 1.5 3.1 3.2-0.5 0.3-1.5 0.8-2 1.1 2.1 2.8 4 6.4 7.8 6.7 0.5 1.6 1.1 3.4 2.5 4.6 2.8 2.5 3.7 6.4 5.1 9.8l13.5 30.3c2 3.7 3.2 7.8 3.6 12-2.4-1.5-4.3-3.7-6.3-5.7-0.6 0.5-1.8 1.4-2.4 1.8-4.6-0.9-8.6-4.6-9.5-9.4-2.4-5.6 0.3-12.1-2.6-17.6-4.6-10.6-9.5-21.1-14.1-31.8-1.1-1.7 0.8-3.4 1.3-5z"/>
<path d="m109.1 211.4c-0.4-5.3 3.5-9.4 4.8-14.2 1.5 3.6 4.1 7 3.8 11.1-0.1 19.7-0.1 39.3-0.1 59 0 3.1-0.7 6.2-1.2 9.2-1.2-2.5-2.2-5.2-3.4-7.8-1.8-0.1-4 0.6-5.3-0.9-3.2-3.5-4.6-9-2.7-13.4 1.7-4.6 4.2-9 4.1-14.1 0.1-9.6 0-19.3 0-28.9z"/>
<path d="m139.1 223.4c5.7 6.5 13.5 11.2 17.7 18.9 1.6 3.9-1.5 8.3-5.7 8-4.2-8.8-8.3-17.8-12-26.9z"/>
<path d="m100.8 225.3c0.3 7.6-0.4 15.1-0.93 22.6-0.57 3.9-4.02 9.6-8.61 7.5-0.99-0.6-2.89-1.8-1.94-3.2 3.73-9 7.92-17.8 11.48-26.9z"/>
<path d="m119.6 238.8c3.2 8.1 6.7 16.1 8.8 24.5-0.5 2.4-1.2 5.6-4 6.2-1.6 0.7-3.3 0-4.8-0.4 0.1-10.1 0-20.2 0-30.3z"/>
<path d="m187.5 319.8l0.2-0.1-0.2 0.1z"/>
<path d="m209.3 328c18.9-2.1 37.8-4.3 56.8-4.9 5.7-1 11.4 0.4 17.1 0.2 17.3 0.9 34.6 2.9 51.9 4.9 22.3 3.4 44.4 7.7 66.6 11.8 0 2-0.2 4-0.7 6-10.8-2-21.3-5-32-7.1-14.6-2.4-29.1-4.8-43.7-7.3-16.3-2.1-32.7-3.3-49.2-4.3-15 0.5-30 1.4-45 2.8-30.6 3.7-60.9 9.4-91 16.1-0.4-2.1-0.5-4.2-0.5-6.3 23.2-4 46.3-8.6 69.7-11.9z"/>
<path d="m268.2 330.3c1.3-0.1 2.6-0.3 3.9-0.5-37.2 24.2-74.5 48.3-111.7 72.6-2.4-13.2-7.7-25.6-12.3-38.1-1.9-5.4-4.4-10.5-6.6-15.7 30-6.8 60.3-12.4 90.9-16.1 11.9-0.9 23.8-2.2 35.8-2.2z"/>
<path d="m273.3 329.8c12.3 0.5 24.6 1.3 36.8 2.7 16.5 1.4 32.7 4.9 49.1 7.4 13.6 1.9 26.9 5.7 40.4 8.6-7.1 16.9-16 33.5-18.7 51.9-35.9-23.5-71.8-47-107.6-70.6z"/>
<path d="m155.7 471.5c38.9-26.4 77.6-53.1 116.4-79.7 1.9-0.2 3.1 1.6 4.7 2.5 35.7 24.4 71.6 48.6 107.3 73 1.6 6.3 0.8 12.8-0.6 19-2.8 9-6.1 18.1-11.3 26.1-33.3-23-66.7-45.8-99.9-69-30.8 21-61.4 42.3-92.1 63.4-3.4 2.4-6.9 4.6-10.2 7.2-7.1-9.9-11.9-21.5-13.8-33.5-0.4-3-1.4-6-0.5-9z"/>
<path d="m260.7 514.9c3.9-2.7 7.5-5.8 11.6-8.2 16.5 11.6 32.9 23.3 49.4 35 3.5 2.3 6.8 5 10.5 7.1-7.7 4.7-14.7 10.3-22.2 15.4-11.9 7.7-22.4 17.4-33.4 26.4-2.2 1.8-4.3 3.6-6.2 5.7-13.7-12.8-28.9-24-43.8-35.4-5-3.3-10.2-6.5-15.1-9.9 16.4-12 32.8-24.1 49.2-36.1z"/>
</g>
<g fill="#010102">
<path d="m238.1 36.33c14.7-10.52 34-11.34 51.2-8.32 6.5 0.67 12.1 4.23 17.7 7.39 8.4 5.39 15.9 12.63 20.6 21.55 2.6 6.92 5.6 13.92 5.7 21.43 0.3 7.87 0.4 16.09-2.7 23.52-2.4 7.4-6.8 13.9-11.6 20 2.3 0.6 5.1 0.7 6.8 2.7 3.3 3.7 5.6 8.3 9.2 11.8 3.9 3.5 10.2 0.3 14 4.1 4.4 3 1 9.1 3.9 12.9 2.1 3.9 7.1 4.1 10.8 5.4 4.7 1 7.7 4.9 11.6 7.4 2.3 1.3 3.4 3.8 3.6 6.3 2.3 1.4 4.7 2.7 7.1 3.8 5-8.2 10.8-15.8 17.2-22.9 2.2-2.5 5.3-3.5 8.1-5 1.6-3.9 2.1-8.2 3.4-12.3-10.4-13.4-13-32.6-6-48.16 3.5-6 7-12.23 12.8-16.32 5.8-6.11 14.3-8.09 22.1-10.6 11.4-1.68 23.7-0.1 33.4 6.36 5 3.56 10 7.44 13.6 12.44 5.2 8.12 8.9 17.6 8.4 27.38 0.4 7.8-2.3 15.3-5.5 22.2-2.6 6.9-8.3 11.9-13.9 16.4-11.4 8.8-27.2 11.2-40.8 7-3.3 3.4-6.3 7.2-10 10.4 0.6 2.9 0.9 6.2-0.8 8.9-4.9 7.7-9.2 15.9-15.5 22.6-3.4 4.8-8.1 8.5-11.8 13.1-5.1 3.2-9.6 7.1-14.6 10.5-2.7 1.6-2 5.3-2 8 1.2 9.6 0.2 19.3 0.7 28.9 0.6 9.1-0.4 18.1 0.6 27.2 0.6 9.3-0.5 18.6 0.9 27.8-0.1 7.5-0.5 15 0.4 22.5 0.3 0.2 0.8 0.7 1 1 5.7 1.2 11.4 2.5 17.1 3.1 0.3 3 1.1 6.2-0.2 9.1-6.5 14.6-13.1 29.3-18.1 44.5-3.3 12-4.1 24.6-3.8 37-0.2 13.5 3.1 26.6 4.9 39.9 2.8 12.3-1.5 24.8-6.5 36-5.2 13-14.7 23.6-24.5 33.4-8.1 7.3-17.9 12.3-27 18.1-5.7 3.9-11.3 8-16.9 12-15.2 10-28.7 22.3-42.5 34.1-3.8-3.8-7.8-7.3-12-10.6-10.1-9.1-21.3-16.8-32-25.2-12.9-8.8-26.4-16.7-39-25.9-4.1-2.8-7.1-6.9-10.6-10.3-7.7-9-14.3-19-19.1-29.9-2.9-8.2-5.1-16.9-5.7-25.7 3.2-15.5 5.7-31.2 5.8-47.1 0.9-12.4-0.3-25.1-4.1-37-4.8-14.2-10.3-28.2-16.4-41.8-1.6-3.4-1.1-7.1-0.7-10.6 9.7-1.2 19.2-3.6 28.8-4.9 1.6-0.5 4.9-0.2 4.7-2.6-0.6-16.7-2.5-33.3-3.2-49.9 2.1-17.3 4.4-34.6 6.2-52-13.6-2.6-26.7-7.9-38.6-15 0.9 3 3.1 5.3 4.9 7.7 5.3 7.1 13.3 11.6 18.2 19 2.4 3.3 2.2 8.6-0.9 11.5-1.5 1.1-3.3 1.7-5 2.4 0.8 2.5 1.5 5.1 1.9 7.7-3.7 0.1-6.6-2.3-9.2-4.7-6.1 1.2-11.9-3.4-13.5-9.1-2.2-5.1-1.3-10.7-2-16-2.8-6.9-5.7-13.9-9-20.5-0.2 3.6-0.1 7.2-0.1 10.9-1.2 14.9 7.7 28 11 42-0.5 3-2.1 6.1-4.7 7.8-2 1.3-4.4 0.5-6.5 0.5-0.5 2.9-0.9 5.9-2.2 8.6-3.4-1.9-4-6-5.7-9.2-4.4 0.1-7.8-3.3-8.6-7.5-2.1-5.4 0.7-10.9 2.6-15.9 2.7-6.8 1.5-14.2 1.5-21.3 0-4.1 1.1-8.4-0.6-12.2-4.9 11-2.9 23.4-4.7 35.1-0.5 3.4-2.77 6.3-5.6 8.2-3.07 1.4-6.06-0.5-8.71-1.9-1.54 2.2-2.92 4.5-4.59 6.6-3.26-1.7-2.21-6.7-2.35-9.8-3.67-1.4-4.07-5.7-4.75-9 0.74-3.9 1.2-8.3 4.39-11.1 3.5-3.1 7.33-6.2 9.31-10.6 2.94-6.5 5.65-13 8.64-19.4 1.88-4.9 4.76-9.4 5.96-14.6-6.49-4.3-6.87-13.6-3.4-20-7.49-17-15.12-34-22.8-51-2.62-6-9.53-7.7-15.31-8.9 0.31-4.6 2.41-8.86 2.93-13.44 1.24-5.33 1.05-10.83 1.97-16.21 5.72 3.91 10.38 9.29 16.71 12.34 2.28 1.57 5.57 1.68 7.33 3.86-0.7 3.4-2.82 6.45-2.99 9.95-1.05 4.8 1.85 8.9 3.57 13 4.14 9.8 8.79 19.4 12.89 29.2 0.4 1.3 1.2 2.3 2.1 3.2 0.6-9.1 0.1-18.2 0.3-27.4-0.1-3.8 0.4-8-1.9-11.2-2.6-3.3-6.25-5.3-9.17-8.2 3.87-2.8 5.77-7.24 8.57-10.91 3.5-4.59 5.5-10.03 9-14.58 2.4 3.66 3.6 7.87 5.7 11.65 2.8 4.83 5.8 9.63 10 13.44-2.1 2.7-4.7 4.8-7.1 7.1-2 2.4-3 5.6-2.9 8.8 0.2 11.3-0.1 22.7 0.2 34.1 0.7-0.9 1.3-1.9 1.7-3 5.9-13.4 11.8-26.8 17.7-40.1 2.6-6.2-0.9-12.04-2.9-17.67 9.3-3.09 16.8-9.62 24.6-15.28 1.9 9.67 0.7 19.94 4.6 29.15-5.3 1.9-11.2 3.7-14.7 8.4-8.5 18.9-16.5 38-25.2 56.8 2 3 3.9 6.1 6 9 1.6 0.4 3.6 0.1 4.8 1.4 2.2 2.5 3.3 6.1 6.5 7.5 4.8 2.1 9.9 3.3 14.5 5.5 3.9 1.9 8.4 3.6 12.7 2.1 1.4-1 2.9-2.1 4.4-2.9 1.9-3.1 1.7-6.8 2.5-10.3 2.7-5.5 6.3-10.8 11.3-14.5 5.1-4 8.6-9.5 13.3-13.8 5.3-5 9-11.7 14.9-16.1 1.3-0.8 2.6-1.9 4.3-1.9 3.3 0 6.6-1 9.9-0.7 2.8 0.3 5.5 0.3 8.3 0.2 1-3 3-6.3 1.5-9.4-3.6-9.4-5.6-19.5-5.8-29.54-0.4-5.36 3.4-9.55 5.8-13.96-2.6-3.18-5.1-6.46-7.8-9.56-3.4-3.97-8.5-5.62-12.6-8.54 0.3-2.07-0.2-4.77 2-5.96 3-2.63 7.1-2.23 10.8-2.75 2.2-1.35 4.2-2.93 6.4-4.21 1.9 1.22 3.7 2.56 5.4 4.03 0.1-1.55-0.1-3.18 0.4-4.66 1.6-2.07 4-3.28 6.3-4.26-1.2 1.56-2.6 2.88-4.1 4.11 0 1.56-0.1 3.12-0.1 4.69 2.7 2.22 5.5 4.2 8.3 6.28-3.6 0.35-6.9 1.45-10.1 3.04-0.2-1.89-0.3-3.79-0.5-5.69 0.5 1.02 1.3 3.07 1.7 4.09 0.7-0.38 2.1-1.15 2.8-1.54-4.3-1.86-5.9-6.72-10-8.81-1.8 1.22-3.6 2.59-5.2 4.11-3.5 0.3-7.6-0.45-10.6 2-0.3 1.16-0.5 2.33-0.6 3.51 3.8 2.19 8 4.03 11.3 7.04 3 2.95 5.2 6.59 8.1 9.55 3.4-0.75 6.1-2.93 9.4-4.05 5.2-1.92 10.8-3.43 16.4-3.5 6.9-0.27 13.4 2.05 20.1 3.49 3.5-5.06 5.9-11.26 11.1-14.94 2-1.4 3.4-3.39 5-5.18 0.4 0.15 1.2 0.44 1.6 0.59-2.6 3.22-6.1 5.38-9 8.13-2.8 3.38-4.8 7.35-7 11.15 3.5 6.18 7.1 12.22 10.6 18.34 2.2 3.21 0.4 7.1 0.2 10.6-1.3 5.4-0.3 11.1 2.3 16 1.1 1.9 3.5 2.1 5.3 2.8 7.7-8.4 13.7-18.6 15.9-29.95 1.4-9.25 1.1-18.97-2.4-27.76-3.8-14.59-15.9-25.4-28.9-31.99-6.9-4.08-15.1-4.55-22.8-5.52-10.9 0.91-22.4 3.09-31.2 10.04-4.3 3.38-9.1 6.23-12.4 10.68-8.3 10.58-13.1 24.16-12.1 37.7 0.5 12.66 6 24.9 14.4 34.3 2.7 3.7 6.8 6 10.1 9 0 0.5 0.1 1.5 0.1 2-13.5-8.9-23.5-23.5-25.6-39.66-2.9-17.04 2.7-35.35 14.7-47.8 3.2-2.86 6.7-5.3 10-7.91m192.2 32.07c-3.7 1.26-6.1 4.64-9.2 6.87-4.5 3.29-6.8 8.58-9.8 13.14-5.1 11.25-5.4 24.59-0.4 35.89 1.6 3.3 2.6 7 5.4 9.6 2-3.2 5.4-4.2 9-4.5 0.7 0.3 2.2 1 2.9 1.3-0.7 4.1-2.7 7.8-5 11.2 14.3 12 36.6 13.9 52.4 3.6 7.1-4.8 13.8-11 16.6-19.3 6-12.5 5.8-27.73-0.8-39.94-3-6.79-8.8-11.59-14.5-16.04-6.4-4.5-14.2-6.6-21.9-7.23-8.6-0.83-16.9 2.04-24.7 5.41m-174.5 10.25c5.1 3.09 11 4.39 16.4 6.66 2.2 1.03 5.3 0.98 6.3 3.61 1.2 2.58 2.5 5.18 4.1 7.56-0.1-5.77 2.4-13.53-3.5-17.33-7-4.45-15.7-2.34-23.3-0.5m-117.3 14.38c2 2.7 2.9 5.95 3.6 9.17 0.6 6.4-3 11.9-5.4 17.6-6 14-12.5 28-18.5 42.1 1.2 0.9 2.3 1.9 3.6 2.8l2.4 3.9c8.7-18.8 16.6-38 25.3-56.9 3.7-3.4 8.4-6 13.3-7.4-1.1-2.6-1.8-5.34-2-8.14-0.4-5.34-1.3-10.66-1.2-16.04-6.8 4.6-13.3 9.95-21.1 12.91m111.7-11.75c-0.8 2.21-1.3 4.53-2.4 6.6-1.3 1.25-2.8 2.16-4.1 3.37 0.3 2.65 0.8 5.27 1 7.92 2-3.97 3.2-8.55 6.7-11.46 2.1-1.51 2.7-4.04 3.4-6.34-1.5-0.03-3-0.06-4.6-0.09m-181.5 0.8c0.21 8.2-1.74 16.27-4.08 24.02 4 0.6 7.87 2.1 11.12 4.5 3.8 2.9 5 7.8 7.03 11.9 6.57 14.8 13.27 29.5 19.74 44.3 3 1.8 7.2 2.7 8.5 6.2 0.6-1.3 1.1-2.6 1.7-3.9-8.3-19-16.82-38-25.27-57-2.77-5.5-0.67-11.9 1.75-17.06-4.53-1.82-8.71-4.36-12.78-7.01-2.71-1.82-4.73-4.55-7.71-5.95m44.81-0.74c-3.9 7.66-8.9 14.69-13.79 21.76 4.09 3.1 9.09 6.5 9.39 12.1 0.1 11 0 22 0 33 0.1 3.2-0.2 6.4 0.6 9.4 2.7-1.1 4.8 1.3 6.9 2.6 0.7-1.6 1.2-3.2 1.1-4.9-0.1-13.5-0.1-27-0.1-40.5 0.6-1.7 1.2-3.4 1.9-5.1 1.8-2.9 4.8-4.6 7.1-7-5.9-6.01-9.4-13.87-13.1-21.36m143.7 0.78c-0.2 1.95-0.4 3.89-0.6 5.83-4.1 4.07-8.2 8.84-8.1 15.05 3.2-2.1 6.9-2.8 10.6-2.8 0.8 5 1.6 10.1 2.2 15.2 1.3 0.3 2.7 0.7 4.1 1 1-1.2 1.9-2.6 2.8-3.9 2.5 1.4-0.6 4-1.7 5.3-2.1-0.3-5.3 0.3-6.7-1.7-0.6-4.6-1.6-9.1-1.8-13.8-1.8 0-3.6 0.3-5.4 0.7-1.1 1.1-2.2 2.3-3.3 3.4 0.2 4.4 1 8.8 2.8 12.8 3.6 5.7 8.4 11 14.8 13.3 2.9 1.3 7 1.4 9.2-1.2 4.6-5.4 8-11.9 8.5-19-0.4-5.6-2.7-10.6-5.2-15.44-2-3.07-4.9-5.45-7.5-7.96-4.1-0.7-7.6-2.93-11.6-3.8-1-0.97-2.1-1.98-3.1-2.98m34.2 12.9c-0.2 2.15-2 5.58 1.3 6.18 0.9-1.29 1.7-2.63 2.2-4.11-1.2-0.7-2.3-1.39-3.5-2.07m-1.4 9.08c-1.1 4.6-1.4 9.9 0.4 14.4 1.5-2.9 2.4-6.2 1.2-9.3 0.6-2.2 1.9-4.4 1.3-6.8-1.3-0.5-2.7 0.2-2.9 1.7m-45.1 16.8c1.1 3.2 3.5 6 3.7 9.4 0 4.7-3.6 9.2-8.3 9.8-7.6 2.1-17-2.6-23.2 3.7 4.2 0.4 7.9-2.3 12-2 4.4-0.4 8.7 0.6 13.1 0.5 5.2-0.2 9.2-4.9 10.1-9.8-2.3-3.9-3.6-8.9-7.4-11.6m32.9 12l-3.6 2.4c-4.3 0.6-8.3-0.6-12-2.7-0.7 2.8-1 5.7-2.4 8.3-2.5 3.1-6.9 3.5-9.5 6.4 6.1 4.7 12.4 10.2 20.3 11 4.4-4.4 10.4 0.7 15-2.4 6-2.5 11.1-6.4 16.4-9.9-3.3-0.2-6.6-1-9.5-2.7-2.2-1.9-4-4.2-5.8-6.5-1.3-4.4-2.9-8.8-3.1-13.4-1.4 3.4-3.7 6.4-5.8 9.5m139.8 2.8c-2.4 4.7-3.2 10-4.7 15.1l0.8 1c1.3 4.5 1.9 9.4 5.2 13 2.7 0.1 5.3-0.6 7.4-2.4 4-3.2 7.6-7.1 10.6-11.3-3.8-0.4-7.5-1.7-10.6-4-2.4-1.8-5.7-2.9-7-5.9 4.8-0.7 4.8-6.7 7-10.1-3.4 0.5-6.9 1.5-8.7 4.6m-112 11c-6.8 4.7-13.8 9.3-21.4 12.6 0.4 0.9 0.9 1.7 1.3 2.6 6.7-0.1 13.4 0.2 20-1.2 7.1-0.2 14-2.3 20.2-5.9 1.5-0.5 1.6-2.3 2.2-3.6-3.2-2.1-6.6-3.9-9.8-6-3.8-2.8-9.2-1.5-12.5 1.5m-82.4 0.2c1.8 2 4.2 3.2 6.7 4.3-1.1-1.8-2.3-3.5-3.7-5-0.8 0.2-2.3 0.5-3 0.7m11.4-1.1c0.7 2.7 1.4 5.6 3.1 7.9 2.8 1.7 6.2 2.2 9.4 3.1 5.8 1.8 11.9 3.1 18.1 3-7.7-2.5-13.2-8.8-20-12.8-3.4-1.1-7-1.2-10.6-1.2m-29.3 16.4c-0.9 0.8-0.6 2.1-0.6 3.2 5.4 1.8 10.8 3.6 16.5 4.4 4.9 0 8.6-3.6 12.8-5.5-0.8 3.4-4.2 6.4-7.8 6.4-5.9 0.5-12 0.3-17.9-0.7-3.5-0.4-7 0.6-10.5 0.8-2 2.1-4 4.2-6.1 6.3-0.1 0.4-0.2 1.3-0.3 1.7 13.6 4.2 27 9.5 40.8 13.1 7.6 0.2 14-4.9 20-9-5-0.3-10.1-0.2-15.1-0.8-0.1-0.9-0.5-2.5-0.6-3.3 6 0.3 12-0.6 17.8-1.9 4.7-1.1 8.7-4.1 12.7-6.6-0.3-2.4-0.3-4.8-0.2-7.1-17.4-0.9-33-9.7-49.8-13.6-4.1 4-8.1 8.1-11.7 12.6m199-6.8c1.8 4.4 6.4 6.2 10.5 7.9-2.2-3.5-2.5-7.7-3.5-11.6-2.8 0-4.8 2.3-7 3.7m-72.4-0.1c-4.7 0.4-8.6 2.9-12.8 4.7-10.6 3-21.7 4.2-32.7 3.8 0.4 1.3 0.2 2.9 1.4 3.7 7.6 2.1 15.5 3.6 23.3 1.9-0.1 0.6-0.3 1.8-0.3 2.3-6.4 2-13.1 1-19.5-0.1 2.8 3.1 5.9 5.8 9.2 8.3 4.9 0.5 9.8 0.3 14.7-0.2 1.3-1.3 2.9-2.3 4.9-2.1-2.7 5-9.2 5-14 6.3 5 5.1 12.2 7.4 19.1 8.1 7.9-0.6 14.3-5.9 20.7-9.9 5.8-4.6 11.2-9.6 17.1-14 1.2-0.8 2.5-1.2 3.7-1.7v-1.6c-4.5-1.2-9.2-1.1-13.6-2.7-7.6-1.1-14.7 2.5-21.6 5 0-0.5 0.1-1.6 0.1-2.2 3.9-1.3 7.6-3.2 11.3-5.2 0-0.4-0.1-1.3-0.1-1.8-3.6-1-7-3.8-10.9-2.6m-221 3.7c0.8 4.1 4.7 6.9 7.6 9.6 0.5 3.7 2.3 7.5 1.3 11.3-0.4 2.1-1.2 4.1-2 6.1 0.3 2.8 2.3 4.7 4.5 6.1 1.2-1 2.4-2 3.4-3.2 1.3-2.7 1.5-6 4-8-3-4.7-6-9.3-9-14-3-2.9-6-6-9.8-7.9m160.5 1.6c-2 2.7-3.4 6.6-1.3 9.7 2.4 5.3 10.7 5.2 13.1 0 2.1-3.2 0.5-6.9-1.4-9.7-3.2-2.3-7.1-2.3-10.4 0m128.8 0.6c1.3 3.7 3.9 6.6 6 9.7-4.2 0.4-7.8-2.6-12-2.6-1.7 3.1-4.2 5.8-5.7 9-0.6 1.4 1.8 1.4 2.6 2 3.1 1.4 6.5 0.4 9.7 0.3-0.1 0.4-0.3 1.4-0.4 1.9-2.1 0.8-4.2 1.9-6.4 2.3-3.5-0.4-6.4-2.6-9.8-3.3-5.2 3.1-9.2 8.2-10.8 14-2.6 7.2-1.6 15-1.8 22.5-1.1 0-2.2-0.1-3.2-0.1 0.1-5.5 0.3-11.1 1.1-16.5 1.1-5.7 3.3-11.1 5.7-16.3-2.7 1.1-4.7 3.4-6.5 5.7-5.7 8.1-6.9 18.1-9.4 27.3-0.8 0-2.2-0.2-2.9-0.3 0.8-6.7 3-13.2 5.9-19.3 1.5-4.9 3.8-9.6 6.8-13.9-4.7 3.9-8 9.1-11.1 14.3-2.1 4.5-3.6 9.2-5.7 13.8-1.3 2.5-3 4.8-4.2 7.3 4.5 1.1 9.3 0.9 14 1.3 4.3 0.3 8.8 0.9 13.1 0 7.7-1.3 13.5-7 19.3-11.7 0-4-3.5-7.1-3.8-10.8 4.1 0 7.5 3.3 11.5 4.2 5.4-4.7 10-10.4 14.1-16.2-1.6-0.5-3.6-0.3-5-1.4-0.2-3.9 4.7-1.8 7-1.9 2-2.5 3.6-5.2 5.2-7.9 1.6-2.8 4-5.5 3.3-8.9-2.7 0.9-5.6 1.9-8.5 1.2-5.9-1.4-12.4-2.8-16.3-7.9-0.6 0.7-1.2 1.4-1.8 2.2m-34.5 8.3c-0.6 2.2-0.8 4.4-1.4 6.5-2.8 1.4-3.3 5-6 6.4-6.3 3.9-11.6 9-17.2 13.9-5.6 3.3-12.4 5.9-19 3.8-2.3-2.1-4.2-4.6-5.8-7.2-5.8-2-10.7-5.7-15.5-9.4-5-4.3-10.4-8.3-14.2-13.8-1.4 2-2.7 4-4.4 5.7 4.5 7.4 9.4 14.6 14.1 21.9 4.4 5.5 8.1 11.7 14 15.8 0.8 2.8 3.6 3.9 5.8 5.4 6.2 3.6 12.3 8.6 20 7.7 1.6-1.3 3.6-2.4 5-4 3.7-4.7 8.9-8.7 10.2-15-2.7 2.5-4.7 5.6-7.5 7.9l-3 5.7c-4.6 2.1-9.6 2.4-14.5 1.8-3.6-1.4-5.8-4.7-8-7.7-0.3-1.3 0.2-1.8 1.6-1.5 2.9 2.5 4.6 6.4 8.5 7.7 3.2 0 6.3-1.1 9.4-2.1-0.2-0.4-0.7-1.3-0.9-1.7 4.9-3.1 10.1-6.5 12.6-12 3.2-7.5 9-13.4 13.8-19.8 1.7-2 2.9-4.5 5.1-5.8 3.3-1.5 5.8-4.1 8.5-6.3-0.7-2-1.1-4.2-2.8-5.5-2.9-0.3-5.8 0.4-8.4 1.6m-263.7-0.3c0.5 3.3 4.4 4.5 7.3 4.1-2.3-1.7-4.5-3.6-7.3-4.1m13.2-0.1c-1.9 3.2-3.9 6.8-3.6 10.6-1 3.4-2.4 6.7-4.1 9.8-0.5 0-1.3 0.1-1.8 0.1-4.5 10.8-9.41 21.5-14.13 32.2-2.11 4.9-5.92 8.6-9.95 11.9-2.85 2.4-3.39 6.2-4.01 9.6 0.63 2 1.16 3.9 1.64 5.9 1.18 0.4 2.35 0.9 3.53 1.3-0.2 2.6-0.61 5.1-0.66 7.7 2.89-1.8 4.23-5.1 5.78-7.9 4.75-11 9.59-21.9 14.3-32.9 0.4-1 1-1.8 1.7-2.5 3.9-8.7 7.8-17.4 11.5-26.2 0.6-3.9 2.3-7.5 2.7-11.5-0.5-2.8-1.4-5.5-2-8.3l-0.9 0.2m232.5 14.9c-7.5 4.8-15.2 10.5-24.5 10.7 4.5 0.9 9.1 2.7 13.7 1.8 6.5-4.5 11.9-10.5 18.8-14.6 3.3-2.1 5.3-5.6 6-9.4-5 3.4-9.2 7.8-14 11.5m-247-11.2c0 0.9 0.1 2.5 0.2 3.4 2.8 1.5 6 2.1 9.1 2.9-0.3-0.9-0.7-2.9-0.9-3.8-1.3 0-2.5 0-3.8-0.1-1.4-1-2.9-1.9-4.6-2.4m167.8 0.7c-6.4 5.7-13.4 10.8-20.6 15.4-5.4 3.2-11.7 6.8-18.2 4.9-13.9-3.6-27.2-9.1-41-13.1-1.2 1.8-3.5 3.6-3.3 5.8 6.8 1.2 13.8 1.2 20.3 3.3 3.8 1.1 6 4.6 9.2 6.6 5.6 3.5 10.5 7.9 15.8 11.7 8.2-2.5 14.9-8 22.8-11.2 1 0.2 1.9 1 2.9 0.8 2.2-1.9 3.8-4.5 5.3-6.9 3.3-5.3 7-10.2 9.3-16-0.8-0.4-1.7-0.9-2.5-1.3m7.3 3.2c-0.3 4.2-1.1 8.3-2 12.4-0.4 3.7-0.1 7.4-0.4 11.1-0.8 9.4 2.6 18.4 4.4 27.5 1.4 0.1 2.7 0.2 4.1 0.4 3.8-4 9.2-7.7 9.3-13.8 1.3-6.7-0.6-13.4-2.1-20-0.7-6.9-6.1-11.9-9.2-17.8-1.4 0.1-2.8 0.2-4.1 0.2m-14.8 19.6c-1.3 1.9-3.3 3.6-4 5.9 0 3.2 1 6.2 1.6 9.3-0.4 0.5-1.2 1.4-1.6 1.9-1.6-2.7-2-5.9-2.5-8.9-0.5 0.1-1.4 0.4-1.9 0.5 0.2 8.6 0.9 17.5 5.1 25.2 5.7-1.4 11.6-1.9 17.4-2.2-1.2-6.6-3.2-13.1-4.3-19.8-0.7-4.9 0.1-9.9 0.1-14.9 0-5.5 2.2-10.6 1.8-16.1-3.5 6.6-7.3 13-11.7 19.1m-160.8-17.9c0.9 3.8 4.6 4.5 8 4.7 0.2-0.4 0.7-1.4 1-1.8-3-1-6-1.9-9-2.9m31.2 4.2c-2.4 2.3-2 6.2-4.3 8.6-1.5 1.5-3.3 2.6-4.7 4.2-0.1 4 5.4 4.1 8.2 3.3 3.8-2.5 6.1-6.9 6.4-11.4-0.7-2.4-2.5-6.1-5.6-4.7m-27.8 1.6c0.3 1.2 2.1 3 3.5 2.4 1.4-1.9-2.1-3.3-3.5-2.4m36.2 5.3c-2.1 5.4-5.1 11.7-11.5 12.6 3.1 4.8 7.5 8.7 12.6 11.2 3-3.3 5.5-6.9 7.6-10.7 0.5 0.1 1.5 0.2 2.1 0.3 0.3 4.8-1.4 9.4-2.1 14.1 9 4.3 18.8 6.9 28.5 8.7 4.5-1.1 9.1-1.9 13.6-3.1 9-3.1 15.4-10.4 22.6-16.2 0.6-0.7 2.4-1.7 1.4-2.8-9.5-7.8-21.5-11.8-33.4-14-3.5 2.9-6.1 6.8-9.8 9.6 1.7 3.7 4.2 7 5.6 10.9-0.6-0.1-1.9-0.2-2.6-0.3-2-3.3-3.5-6.8-5.7-9.9-3.3-0.2-6.4-1.3-9.6-2.1-1 2.4-1.3 6-4.8 5.6-0.3-2.8 1.1-6.7-1.7-8.6-4.1-2.2-9.2-2.1-12.8-5.3m-22.9 1.1c-0.5 1.6-2.4 3.3-1.3 5 4.6 10.7 9.5 21.2 14.1 31.8 2.9 5.5 0.2 12 2.6 17.6 0.9 4.8 4.9 8.5 9.5 9.4 0.6-0.4 1.8-1.3 2.4-1.8 2 2 3.9 4.2 6.3 5.7-0.4-4.2-1.6-8.3-3.6-12l-13.5-30.3c-1.4-3.4-2.3-7.3-5.1-9.8-1.4-1.2-2-3-2.5-4.6-3.8-0.3-5.7-3.9-7.8-6.7 0.5-0.3 1.5-0.8 2-1.1 0.4-1.7-2.2-2.1-3.1-3.2m90.4 4.8c2.9 2 5.7 4.2 8.8 5.8-1.5-3.5-5.4-4.8-8.8-5.8m-98.2 16c0 9.6 0.1 19.3 0 28.9 0.1 5.1-2.4 9.5-4.1 14.1-1.9 4.4-0.5 9.9 2.7 13.4 1.3 1.5 3.5 0.8 5.3 0.9 1.2 2.6 2.2 5.3 3.4 7.8 0.5-3 1.2-6.1 1.2-9.2 0-19.7 0-39.3 0.1-59 0.3-4.1-2.3-7.5-3.8-11.1-1.3 4.8-5.2 8.9-4.8 14.2m144.4-12.2c-1 0.4-2.5 1.5-2 2.8 1.6 1.3 4.2-2.4 2-2.8m41 0.1c0.6 7.3 1.5 15.4-2.4 22-1.4 2.7-5.1 3.9-5.9 7 3.2 2 7.6 2.2 11.4 2.9 1.2-6.9 2.8-13.8 6.3-20-3-4-6.2-8-9.4-11.9m-49.4 7.9c-2 1.1-4.4 1.2-6.1 2.9 4.2-1 8.7-3.1 11-6.9-1.7 1.2-3.2 2.8-4.9 4m-31.6 0c0.2 5.9 1.2 11.7 3 17.2 0.9 7.9-1 15.8-4.5 22.8-2.2 8.1-1.3 16.7-2.6 24.9 0.6 0 1.7 0.1 2.2 0.1 1-9.8 2.9-19.5 4.9-29.1 0.7-3 2.2-5.8 2.8-8.8 0.4 0.1 1.1 0.4 1.4 0.5-1.3 10-3.2 20-4.1 30.1 0.5 0 1.7 0.1 2.2 0.1 1.5-5.4 0.9-11.2 2.3-16.7 1.7-10.8 6.3-21.1 5.9-32.2-0.8-2.4-0.3-6.7-3.7-7.1-0.8 8-1.4 16.1-2.4 24.2l-0.7-0.1c-0.5-3.7 0.7-7.6-0.7-11.3-1.3-3.5-2.3-7.2-1.9-11-1.3-1.2-2.5-2.6-4.1-3.6m31.2 3.6c-2.8 1.9-6.4 1.1-9.7 1.5 1.9 7.4 5.8 14.1 6.8 21.7 4.3-1.4 8.6-2.5 13-3.4-1.3-3.3-2.2-6.6-3.2-10-1.2-4.3-0.7-8.8-2-13.1-1.6 1.1-3.2 2.3-4.9 3.3m60.9 3c-3.4 5.5-4.7 12.1-5.1 18.6 3.8-4.6 5.7-10.5 7.1-16.2 0.5-1.3-0.6-3.3-2-2.4m-2.3 19.7c3.1 0.9 6.1 2 9.2 2.7 0.4-5.2 1.4-10.3 2.4-15.4l-4.8-3.3c-1.6 5.6-3.8 11-6.8 16m-106.5-10.3c0.4 8.4 0.3 16.8-1 25.1 0.5 5.1 1.2 10.3 1.7 15.5 3.1 10.5 4 21.5 6.3 32.2 0.2 0 0.7 0.1 0.9 0.1 4-4.6 3.1-11.3 2.3-16.8-2.9-11.5-4.4-23.2-4.8-35 0.5-8.4 1.2-16.7 1.7-25-2.1 1.7-4.5 3.1-7.1 3.9m177.7-0.2c-1.3 5-0.5 10.2-1.3 15.3-1 10.9-2.3 22-0.4 32.9 1.1 12 2.9 24 3.2 36.1 1.2 8.1 0.5 16.4 1.7 24.6 2 0.4 4.1 0.8 6.2 1.1-0.8-10.5 0.4-21.2-0.9-31.7 0-21-0.6-42-0.6-63 0.4-5.7-1.6-11.2-0.8-16.9-2.4 0.6-4.7 1.1-7.1 1.6m-21.7-0.3c-0.9 6.5-1.7 13-2.9 19.5-0.8 8-1.1 16-1.3 24-1 4.3-0.7 8.8 0.8 13 2.9 5.1 6.8 9.5 11.4 13.1-1-16.3-3.2-32.6-1.5-49-0.7-6.8 0.5-13.6 0.3-20.4-2.3-0.2-4.6-0.3-6.8-0.2m9.9 0.2c0 10.1-0.1 20.2 0 30.3-0.5 12.7-1 25.4-0.8 38.1 0.5 2.8-2 4.8-2.6 7.5-1.4 0.7-3 1.4-4.3 2.4-1.7 3.7 0.9 7.3 3 10.2 3.7 6.5 7.7 12.8 12.6 18.5 0.9 1.1 2.6 1 3.9 1.6 0.5-7.8-0.6-15.5-0.9-23.2-0.9-20.7-5.7-41.2-3.6-62 0.9-7.5 0.6-15.2 1.8-22.7-3-0.8-6.1-0.7-9.1-0.7m-223.6 0.5c3.7 9.1 7.8 18.1 12 26.9 4.2 0.3 7.3-4.1 5.7-8-4.2-7.7-12-12.4-17.7-18.9m93.6 1.4c-1.3 5.3-1.2 10.8-2.9 16-0.9 3.8-2.9 7.3-4 11.1 3.7-1.3 5-5.7 8.3-7.6 2.9-1.7 4.2-4.8 4.7-8-1.6-4.1-3.2-8.2-4.7-12.3-0.4 0.2-1.1 0.6-1.4 0.8m-131.9 0.5c-3.56 9.1-7.75 17.9-11.48 26.9-0.95 1.4 0.95 2.6 1.94 3.2 4.59 2.1 8.04-3.6 8.61-7.5 0.53-7.5 1.23-15 0.93-22.6m88 0.4c-0.5 22.1-6.5 43.6-8.1 65.5 0 10.1-0.4 20.5 2.4 30.2 3.3-3.9 4.1-9.7 7.9-13.3 3.5-3.2 7.3-6 11-8.9-3.8-12-3.9-24.7-6.9-36.9-1.1-4.9 0.2-10-1-14.9-0.6-7.4-1-14.7-2.2-22-1.1 0.1-2.1 0.2-3.1 0.3m153.6 1.2c-1.3 6.4-2.2 12.9-3.2 19.3 0.2 6.3 0.8 12.6 1.6 18.9l1.5-0.6c2.3-6.1 1.6-12.9 1-19.3 1.2-6.7 4.3-12.9 5.7-19.6-2.2 0.5-4.4 0.9-6.6 1.3m-158.9 0.4c-1.7 4.9-3 9.9-3.7 15-0.7 5.3 0.2 10.5 1 15.7h0.6c2.6-9.8 3.3-19.9 4-30-0.5-0.2-1.5-0.5-1.9-0.7m-8.1 2.3c-2.2 14.5-3.2 29.1-5.5 43.6-1.5 10.6 0.7 21.1 1 31.6 1.2 8.4-0.1 17.2 2.1 25.4 2.9-0.7 6.8 0.4 8.7-2.4-3.4-4.6-4.1-10.3-5.6-15.6-3.7-16.5 0.6-33.2 3.9-49.3l-2-1.6c-2.3-10.9-2-22.4 1.9-32.8-1.5 0.4-3 0.7-4.5 1.1m101 2.2c5.4 2.3 11.4 2.4 16.9 4.2 6.4 1.4 12.8 2.8 18.9 5.3 0.1-0.5 0.2-1.5 0.3-2-5-2.8-10.7-3.6-15.9-5.6-3.2-0.9-6.1-2.7-9.3-3.5-1.8 0-3.5 0.6-5.1 1.1-2-0.1-5-2.3-5.8 0.5m-33.5 4.5c0.6 0.9 1.1 1.7 1.7 2.6 2.1-0.8 4.2-2.3 6.6-1.9 3.8 0.3 7.4-1.1 10.9-2.1l0.3-0.1c0.8 0.5 1.6 1.1 2.4 1.6-5.4 9.5-7.1 20.4-9.1 31 0 6.6-1.2 13.2-0.7 19.9 1.1 9.6 0.4 19.3 0.6 29-0.2 1.4 0.5 2.5 1.1 3.7 7.5 0 14.9-0.9 22.4-0.2-2.8-22.1 3.7-44.6-1.3-66.6-1.2-5.9-3-11.6-3.2-17.6-1.1-0.1-2.2-0.1-3.3-0.2-2.2 7.4-1.7 15.2-3.2 22.6h-2.6c0.2-6.6 0.7-13.2 1.8-19.8-0.3-1.3-0.6-2.5-0.8-3.8 1.5-0.1 3-0.4 4.4-0.8-0.3-0.9-0.7-1.8-1.1-2.7-2.5 0.6-5.1 1.1-7.7 0.9-6.7-0.5-13 2.2-19.2 4.5m86.5-3.2c-0.9 6.9-0.3 15-5.8 20.3 0.4 0.4 1.2 1.2 1.6 1.5 2.3-1.1 3.6-3.4 5.3-5.2 2.7-2.7 2.9-6.8 3-10.4-0.9-2.3-2.7-4.2-4.1-6.2m-49.3 12.2c4.6 15.2 4 31.3 2.6 47 0.3 9.1-1.8 18.6 1.3 27.5 0.4-0.2 1.3-0.7 1.8-1 2.9 2.8 7.5 0.7 11.1 2 0.9-3.9-0.6-7.8-1.2-11.6-1.4-8.3-3.7-16.5-4.2-24.9-0.3-4-0.9-8-1.3-12.1h2.2c1.4 2.8 2.6 5.9 2.5 9.2 0 7.1 2.2 14 3.6 20.9 1.1 6.1 3.6 12 3 18.3 7.4 1.8 15.1 1.6 22.6 2.6-4.9-13.7-9.5-27.6-11.3-42-0.4-5.6-0.7-11.3-1.3-16.9-0.5-4.9 2-9.9 0.3-14.7-1.3-2.6-3.1-4.9-5-7.1-1.8-2-4.7-2.1-7.2-2.6 1.5 8 0.5 16.5 2.8 24.4 0.5 4.6 2.9 10.2-0.4 14.1-2.3-13-5.6-26-5.7-39.4-5.6-2.4-11.6-3.3-17.6-4.3 0 3.6 0.2 7.2 1.4 10.6m-36.1-4.7c-1.4 0.3-2.9 0.6-3.8 1.7-10.3 14.7-21.3 29.6-26.6 47.1-3.3 11.2-1.4 22.9-1.8 34.4 1.7 0 3.3 0.1 5 0.1 1.3-5.1 0.5-10.4 1.5-15.6 0-6.3 3.2-12 5.1-17.9 0.6 0.1 1.9 0.2 2.6 0.2-1.3 5.8-5.2 10.8-5.1 16.8-0.1 5.3-1.1 10.5-1.1 15.7 10.7-1 21.3-2.3 32-2.9-0.6-11.7 0.4-23.4-1.1-35 0.3-12.4 1.6-24.9 5.6-36.7 1.2-3.9 3-7.7 3.5-11.7-5.3 0.9-10.5 2.6-15.8 3.8m-124.4-1.8c0 10.1 0.1 20.2 0 30.3 1.5 0.4 3.2 1.1 4.8 0.4 2.8-0.6 3.5-3.8 4-6.2-2.1-8.4-5.6-16.4-8.8-24.5m195 14.7c0.3 2.6-0.2 5.2-0.6 7.8 0.7 12.1 1.4 24.3 4.4 36 2.6 8.9 5.5 17.6 8.6 26.3 2.9 0.3 5.8 0.7 8.7 1.2 0.4-1.8 0.9-3.6 0.7-5.5-1-7.3-1.1-14.7-2.3-22-0.9-4.6-1.3-9.3-1.7-13.9-0.2 0.9-0.5 1.8-0.7 2.8 0-1.6 0.1-3.3-0.3-4.9-1.8-6.9-3.8-13.9-7-20.4-1.6-0.4-3.2-0.8-4.9-1.1-1.6-2.1-3-4.4-4.9-6.3m15.5 8.6c2.1 10 3.6 20.1 5.6 30.1 0.9 3.8 0.3 7.9 2 11.6 1.7 7.4 3.5 14.7 6.1 21.8 0.6 0.3 1.8 0.7 2.4 0.9-2.3-9.8-5.8-19.3-7.4-29.3-0.9-12.1-4.5-23.8-6.4-35.7-0.7 0.2-1.5 0.4-2.3 0.6m21.4 24.8c-0.7 1.1-1.4 2.2-2.1 3.3 2.7 2.2 3.8 6 6.5 8.1-1.5-3.8-2.1-8-4.4-11.4m5 6.1c0.8 1.5 1.6 3 2.5 4.4 0.5-1.7 0.6-3.5 0.2-5.2-0.7 0.2-2.1 0.6-2.7 0.8m-13.9 1.9c2.2 7.9 2.9 16.2 6.1 23.8 2.3 3.9 4.4 10.2 10.1 9.6-4.6-3.2-6.1-8.8-8.4-13.6-2.4-6.5-4.5-13.3-5.5-20.3-0.5 0.2-1.7 0.4-2.3 0.5m-139.2 13.2c0.5 3.2 2.5 5.8 4.1 8.4 0.4-0.3 1.3-0.9 1.7-1.2-1.3-2.9-2-6-2.2-9.2-1.2 0.7-2.4 1.4-3.6 2m-10.4 3.2c2.5 4.9 5 9.7 8.4 14h2.7c-1.3-2.6-3.2-4.8-5-7-1.2-2.6-2.2-5.2-3.9-7.4-0.5 0.1-1.6 0.3-2.2 0.4m160.3-0.2c-0.1 0.5-0.4 1.6-0.6 2.1 3.1 5.4 6.3 10.7 9.6 15.9l4.5 0.9c-4-6.6-7.4-14-13.5-18.9m-165.8 8.7c-2 2.1-0.4 5.6 0.2 8.1 2.2-0.5 4.3-0.9 6.5-1.3-1.4-0.8-2.9-1.5-4.1-2.6-0.6-1.6-1.1-3.3-1.6-5l-0.8 0.7-0.2 0.1m21.8 8.2c-23.4 3.3-46.5 7.9-69.7 11.9 0 2.1 0.1 4.2 0.5 6.3 30.1-6.7 60.4-12.4 91-16.1 15-1.4 30-2.3 45-2.8 16.5 1 32.9 2.2 49.2 4.3 14.6 2.5 29.1 4.9 43.7 7.3 10.7 2.1 21.2 5.1 32 7.1 0.5-2 0.7-4 0.7-6-22.2-4.1-44.3-8.4-66.6-11.8-17.3-2-34.6-4-51.9-4.9-5.7 0.2-11.4-1.2-17.1-0.2-19 0.6-37.9 2.8-56.8 4.9m58.9 2.3c-12 0-23.9 1.3-35.8 2.2-30.6 3.7-60.9 9.3-90.9 16.1 2.2 5.2 4.7 10.3 6.6 15.7 4.6 12.5 9.9 24.9 12.3 38.1 37.2-24.3 74.5-48.4 111.7-72.6-1.3 0.2-2.6 0.4-3.9 0.5m5.1-0.5c35.8 23.6 71.7 47.1 107.6 70.6 2.7-18.4 11.6-35 18.7-51.9-13.5-2.9-26.8-6.7-40.4-8.6-16.4-2.5-32.6-6-49.1-7.4-12.2-1.4-24.5-2.2-36.8-2.7m-3.3 4.3c-36.4 23.7-72.9 47.4-109.3 71 0.2 4.8 1 9.5 0.9 14.2 0 4-0.7 8-0.7 12-0.1 12.1-2.9 24-4 36.1 6.6-3.6 12.5-8.5 18.9-12.5 32.1-22.1 64.3-44.2 96.5-66.3 2.7 0.6 4.7 3 7 4.4 34.6 23.4 69 47.1 103.7 70.4 0.2-5.2-1.7-10.1-2-15.2-0.4-5-1.6-9.9-1.6-14.9-0.1-10.1-0.5-20.2 1.1-30.2-35.5-23.2-71-46.5-106.5-69.8-1.3-1.3-2.8 0.2-4 0.8m-114.3 137.4c-0.9 3 0.1 6 0.5 9 1.9 12 6.7 23.6 13.8 33.5 3.3-2.6 6.8-4.8 10.2-7.2 30.7-21.1 61.3-42.4 92.1-63.4 33.2 23.2 66.6 46 99.9 69 5.2-8 8.5-17.1 11.3-26.1 1.4-6.2 2.2-12.7 0.6-19-35.7-24.4-71.6-48.6-107.3-73-1.6-0.9-2.8-2.7-4.7-2.5-38.8 26.6-77.5 53.3-116.4 79.7m15.5 44.7c4.6 6.6 9.9 12.7 15.7 18.3 6.7 5.1 13.7 9.7 20.8 14.1 1.4 1.1 2.8 0.1 3.9-0.8 15.2-11.1 30.4-22.3 45.6-33.4 5.1-3.4 9.7-7.7 15-10.8 20.8 14.2 41.1 29.5 62 43.6 6.7-2.7 12.5-7.3 18.4-11.6 6.7-6 12.3-13 17.9-20.1 0.4-0.7 0.1-1.3-0.8-1.8-32.5-22.4-65-44.8-97.6-67.2-33.6 23.3-67.4 46.3-100.9 69.7m89.5-1.3c-16.4 12-32.8 24.1-49.2 36.1 4.9 3.4 10.1 6.6 15.1 9.9 14.9 11.4 30.1 22.6 43.8 35.4 1.9-2.1 4-3.9 6.2-5.7 11-9 21.5-18.7 33.4-26.4 7.5-5.1 14.5-10.7 22.2-15.4-3.7-2.1-7-4.8-10.5-7.1-16.5-11.7-32.9-23.4-49.4-35-4.1 2.4-7.7 5.5-11.6 8.2z"/>
<path d="m261.4 35.21c3.5 2.32 7.3 4.53 9.6 8.1 0 0.65-0.2 1.95-0.2 2.6 2.4-0.43 5.1-0.97 7.3 0.66 2 1.19 2.3 3.73 2.3 5.87-1-2.71-2.4-5.41-5.5-6.12-1.9 0.4-3.9 0.75-5.9 1.11 0.3-1.33 0.7-2.65 1.1-3.97-2.4-2.56-5.2-4.77-8.2-6.63-3.3 1.45-4.7 5.39-6.6 8.29 0.5 1.18 1.1 2.36 1.7 3.53-2-0.17-4-0.13-5.9 0.1 2-5.54 6.2-9.54 10.3-13.54z"/>
<path d="m280.2 60.05c-2.3-5.23 2.4-9.14 6.2-11.8 2.5 0.26 4.4 2.03 6.7 2.89 4.3-1.03 9.2-1.15 12.7 2.06-1.6 1.95-3-1.17-4.7-1.29-3-1.11-5.9 0.41-8.9 0.22-1.9-0.89-3.7-2.87-5.9-2.43-1.7 1.37-2.6 3.38-3.7 5.15 0.2 2.36 0.5 4.71 0.7 7.07-3.4-0.86-6.8-1.38-10.3-1.16 1.1-1.84 2.7-3.33 4.2-4.9 0.4 0.46 0.9 0.92 1.3 1.39-0.7 0.59-2.2 1.78-3 2.37 1.6 0.15 3.1 0.29 4.7 0.43z"/>
<path d="m258.9 57.33c0.8-1.62 1.1-4.18 3.2-4.72 2.9-0.99 5.8 0.97 6.9 3.57-0.9 1.67-1.3 3.79-2.9 4.89-1.7 0.75-3.6-0.08-5.3-0.35-0.6-1.14-1.3-2.26-1.9-3.39m4.7-4.06c-0.6 0.25-1.8 0.75-2.4 0.99-1.1 2.02-1.4 5.01 1.4 5.78 3.2 1.82 6-2.87 4.2-5.39-1-0.53-2.1-0.94-3.2-1.38z"/>
<path d="m278.2 53.82c2.8-1.83 1.2 2.81 0 0z"/>
<path d="m285.7 60.22c2.8-1.69 5.3 0.09 7.3 1.93-0.5 3.2-5 6.23-7.1 2.63v-0.89c1.4-0.58 2.3 1.14 3.4 1.66 0.9-1.07 1.7-2.18 2.6-3.3l-3.2-1.36c-0.9 0.3-1.7 1.04-2.7 0.76-0.1-0.36-0.2-1.07-0.3-1.43z"/>
<path d="m238.6 64.76c0.1 0.19 0.3 0.58 0.3 0.77-0.5 0.73-1 1.45-1.6 2.15 0.3 0.89 0.6 1.79 1 2.69 0.7 0.03 2.3 0.08 3.1 0.11 0.2-0.6 0.6-1.82 0.7-2.43-0.7-0.91-2.6-2.61-0.4-3 0.5 0.02 1.3 0.04 1.7 0.05-0.4 2.56 0 6.07-3.1 6.97l-3-1.14c-0.4-1.18-0.8-2.37-1.2-3.57 0.6-0.65 1.9-1.95 2.5-2.6z"/>
<path d="m430.5 82.57c6.2-5.45 14.6-7.88 22.7-8.24 5.5 0.77 11.2 1.73 16.1 4.5 11.2 6.38 17.2 20 15.5 32.67-0.3 5.3-3 10-5.1 14.7-5.6 6.9-13.4 12.7-22.5 13.6-4.1 0.8-8.2 0.4-12.2-0.1-0.5 1.1-1.2 2.1-1.9 3-5.3-1-10.6-2.4-15.1-5.5 0.2-2.3 0.8-4.5 1.1-6.8-3.2-4-6.5-8-8.1-12.9-2.6-8-2.8-17.3 1.8-24.69 2.2-3.61 4.2-7.63 7.7-10.24m18-5.09c0.7 6.64 0.9 13.32 1.1 19.98 1 0.09 3 0.28 4 0.37-0.2-7.04-0.4-14.08-1.1-21.1-1 0.19-3 0.56-4 0.75m6.1 0.31c0.8 6.97 0.8 13.99 1.1 20.99 1.4 0.14 3 0.25 4.2-0.76 5.3-3.5 11-6.58 16-10.56-5.4-5.94-13.1-10.34-21.3-9.67m-26.9 11.68c2.5 1.75 5.1 3.21 7.8 4.49 3.9 1.83 7.4 4.49 11.7 5.44 0.9-4.66-0.2-9.34-0.2-14.02 0-2.52-0.2-5.04-0.6-7.52-7.4 1.24-14.6 5.13-18.7 11.61m31.8 11.33c0.5 0.8 1.5 2.3 1.9 3 6-3.4 11.5-7.43 17.4-10.88-0.6-1.11-1.2-2.22-1.8-3.32-5.9 3.7-11.7 7.4-17.5 11.2m-35.1-5.91c5.9 3.01 11.7 6.31 17.7 9.11 0.5-1.3 1.5-2.2 2.6-3.1-6.2-2.89-12.1-6.13-18-9.42-0.8 1.12-1.6 2.26-2.3 3.41m52.1 1.83c-4.6 3.04-9.2 6.18-14 8.98-0.1 0.5-0.1 1.7-0.2 2.3 5.8 3.6 12.3 6.1 18.1 9.7 3.7-6.9 2-15 0.2-22.18-1.4 0.01-2.9 0.31-4.1 1.2m-52.8 20.98c0.3 1.2 1.2 3 2.6 1.9 5.2-3.5 10.5-6.7 15.6-10.1-0.4-1.4-0.1-3.5-1.8-4.2-5.4-2.8-10.9-5.39-16.2-8.5-3.6 6.4-2.2 14.2-0.2 20.9m20.6-13.4c-2 4.7 1.3 11.5 6.9 11.5 6.3 1.3 11.5-7.1 7.6-12.2-1.4-3-4.7-3.6-7.5-4.4-2.7 1.2-5.1 2.9-7 5.1m15.9 9.3c6.2 2.9 12.1 6.2 18.2 9.3 0.3-0.8 1.1-2.3 1.5-3.1-5.9-3.4-12-6.4-17.9-9.6-0.5 0.8-1.4 2.5-1.8 3.4m-34.3 8.6c0.6 0.8 1.8 2.3 2.3 3.1 5.3-3.4 10.5-6.8 15.8-10.1-0.4-1.2-0.7-2.4-1.1-3.6-5.8 3.3-11.2 7.2-17 10.6m19-5.1c-5.1 3.3-10.5 6.1-15.1 10.2 2.3 1.7 5.5 1.8 7.8 3.6 4.1 2 7 6.6 11.9 6.4-0.2-6.6-0.7-13.2-0.8-19.8-1.3-0.4-2.6-1.4-3.8-0.4m11.8 2.2c0.5 5.8 0.4 11.7 1.1 17.5 8.1-0.3 14.4-6.2 19.8-11.6-5.2-3.5-10.9-6.2-16.5-8.9-2.1-1.7-4.8 0.7-4.4 3m-6.1-1.5c0.5 6.7 0.5 13.4 1.1 20.1 1-0.1 3-0.2 3.9-0.3-0.4-6.6-0.5-13.2-1.1-19.8h-3.9m-20.5 18.4c0.4 0.1 1.3 0.3 1.8 0.4 0.7-1.9 1.7-3.7 1.9-5.7-3.8-1.5-3 3.2-3.7 5.3m5.6-3.8c-0.9 2-1.7 4.1-2.5 6.1 1.7 0 2.7-1.4 3.7-2.6 0.2-0.8 0.4-1.7 0.6-2.5-0.6-0.4-1.2-0.7-1.8-1m4 2c-0.8 1.7-1.8 3.3-2.8 4.9 2.3 1.2 3-1.6 4.1-3-0.4-0.6-0.9-1.3-1.3-1.9m2.7 2.8c-1 0.9-1.3 1.9-1 3.1 1.9 1.3 3.5-4.1 1-3.1z"/>
<path d="m263.1 99.42c3.8-3.87 9.4-4.06 14.5-4.13-1.6 1.81-4.2 1.34-6.2 2.17-3.3 0.78-5.8 2.94-8.2 5.14-0.1-0.8-0.1-2.4-0.1-3.18z"/>
<path d="m270.6 99.66c1.5 0.08 3.1 0.23 4.6 0.64-1 1.9-1.8 4.1-3.8 5.1 0.1-0.8 0.3-2.3 0.4-3.1-1.8 0.5-3 1.5-3.5 3.1-0.5-0.9-1-1.9-1.4-2.9 1.2-0.9 2.5-1.9 3.7-2.84z"/>
<path d="m451.2 101.4c3.9-0.9 7.8 3.2 6.8 7-0.7 4.5-7.1 6.7-10 3-3.8-3-1.4-9.5 3.2-10m-0.1 2c-3.6 0.5-4.1 6.3-0.7 7.6 2.5 1.3 6-0.8 5.8-3.7 0.2-2.6-2.6-4.6-5.1-3.9z"/>
<path d="m249.9 106.5c1.7-1.6 4.1-1.7 6.2-2.4 2.5 1.5 1.3 5.1-1.3 5.7 0.2-0.6 0.7-1.8 0.9-2.4-1.9 0.6-3.7 1.5-5.3 2.7-0.3-1.2-0.4-2.4-0.5-3.6z"/>
<path d="m451.1 106.1c2.5-2.3 5.5 3 2 3.6-2.2 1.3-4.4-2.6-2-3.6z"/>
<path d="m261.2 124.2c4.8-1.9 9.4-3.9 14.2-5.6-2 3.6-4.5 8.5-9.2 8.7-2.2 0.1-3.5-2-5-3.1z"/>
<path d="m247.9 245.8c1-2.5 1.1-7 5-5.8-3.4 8.4-5.6 17.3-8.4 25.9-1.8 8.8-4.7 17.4-5.8 26.3-0.5 0-1.5-0.2-2.1-0.3-0.1-6.8 2.4-13.2 3.8-19.7 1.7-9 5.1-17.6 7.5-26.4z"/>
</g>
<g fill="#fed102">
<path d="m238.9 38.02c8.8-6.95 20.3-9.13 31.2-10.04 7.7 0.97 15.9 1.44 22.8 5.52 13 6.59 25.1 17.4 28.9 31.99 3.5 8.79 3.8 18.51 2.4 27.76-2.2 11.35-8.2 21.55-15.9 29.95-1.8-0.7-4.2-0.9-5.3-2.8-2.6-4.9-3.6-10.6-2.3-16 0.2-3.5 2-7.39-0.2-10.6-3.5-6.12-7.1-12.16-10.6-18.34 2.2-3.8 4.2-7.77 7-11.15 2.9-2.75 6.4-4.91 9-8.13-0.4-0.15-1.2-0.44-1.6-0.59-1.6 1.79-3 3.78-5 5.18-5.2 3.68-7.6 9.88-11.1 14.94-6.7-1.44-13.2-3.76-20.1-3.49-5.6 0.07-11.2 1.58-16.4 3.5-3.3 1.12-6 3.3-9.4 4.05-2.9-2.96-5.1-6.6-8.1-9.55-3.3-3.01-7.5-4.85-11.3-7.04 0.1-1.18 0.3-2.35 0.6-3.51 3-2.45 7.1-1.7 10.6-2 1.6-1.52 3.4-2.89 5.2-4.11 4.1 2.09 5.7 6.95 10 8.81-0.7 0.39-2.1 1.16-2.8 1.54-0.4-1.02-1.2-3.07-1.7-4.09 0.2 1.9 0.3 3.8 0.5 5.69 3.2-1.59 6.5-2.69 10.1-3.04-2.8-2.08-5.6-4.06-8.3-6.28 0-1.57 0.1-3.13 0.1-4.69 1.5-1.23 2.9-2.55 4.1-4.11-2.3 0.98-4.7 2.19-6.3 4.26-0.5 1.48-0.3 3.11-0.4 4.66-1.7-1.47-3.5-2.81-5.4-4.03-2.2 1.28-4.2 2.86-6.4 4.21-3.7 0.52-7.8 0.12-10.8 2.75-2.2 1.19-1.7 3.89-2 5.96 4.1 2.92 9.2 4.57 12.6 8.54 2.7 3.1 5.2 6.38 7.8 9.56-2.4 4.41-6.2 8.6-5.8 13.96 0.2 10.04 2.2 20.14 5.8 29.54 1.5 3.1-0.5 6.4-1.5 9.4-2.8 0.1-5.5 0.1-8.3-0.2-3.3-0.3-6.6 0.7-9.9 0.7 1.1-1.9 3.4-2 5.4-2.2 3.7-0.2 7.4 0.2 11.2 0.3 0.6-1 1.1-2.1 1.7-3.1 0-0.5-0.1-1.5-0.1-2-3.3-3-7.4-5.3-10.1-9-8.4-9.4-13.9-21.64-14.4-34.3-1-13.54 3.8-27.12 12.1-37.7 3.3-4.45 8.1-7.3 12.4-10.68m22.5-2.81c-4.1 4-8.3 8-10.3 13.54 1.9-0.23 3.9-0.27 5.9-0.1-0.6-1.17-1.2-2.35-1.7-3.53 1.9-2.9 3.3-6.84 6.6-8.29 3 1.86 5.8 4.07 8.2 6.63-0.4 1.32-0.8 2.64-1.1 3.97 2-0.36 4-0.71 5.9-1.11 3.1 0.71 4.5 3.41 5.5 6.12 0-2.14-0.3-4.68-2.3-5.87-2.2-1.63-4.9-1.09-7.3-0.66 0-0.65 0.2-1.95 0.2-2.6-2.3-3.57-6.1-5.78-9.6-8.1m18.8 24.84c-1.6-0.14-3.1-0.28-4.7-0.43 0.8-0.59 2.3-1.78 3-2.37-0.4-0.47-0.9-0.93-1.3-1.39-1.5 1.57-3.1 3.06-4.2 4.9 3.5-0.22 6.9 0.3 10.3 1.16-0.2-2.36-0.5-4.71-0.7-7.07 1.1-1.77 2-3.78 3.7-5.15 2.2-0.44 4 1.54 5.9 2.43 3 0.19 5.9-1.33 8.9-0.22 1.7 0.12 3.1 3.24 4.7 1.29-3.5-3.21-8.4-3.09-12.7-2.06-2.3-0.86-4.2-2.63-6.7-2.89-3.8 2.66-8.5 6.57-6.2 11.8m-21.3-2.72c0.6 1.13 1.3 2.25 1.9 3.39 1.7 0.27 3.6 1.1 5.3 0.35 1.6-1.1 2-3.22 2.9-4.89-1.1-2.6-4-4.56-6.9-3.57-2.1 0.54-2.4 3.1-3.2 4.72m19.3-3.51c1.2 2.81 2.8-1.83 0 0m7.5 6.4c0.1 0.36 0.2 1.07 0.3 1.43-0.8 0.41-1 1.16-0.6 2.22l0.5 0.02v0.89c2.1 3.6 6.6 0.57 7.1-2.63-2-1.84-4.5-3.62-7.3-1.93m-46.8 5.31c0-0.19-0.2-0.58-0.3-0.77-0.6 0.65-1.9 1.95-2.5 2.6 0.4 1.2 0.8 2.39 1.2 3.57l3 1.14c3.1-0.9 2.7-4.41 3.1-6.97-0.4-0.01-1.2-0.03-1.7-0.05-0.2-1.63-2.4-0.87-2.8 0.48z"/>
<path d="m255.8 78.65c7.6-1.84 16.3-3.95 23.3 0.5 5.9 3.8 3.4 11.56 3.5 17.33-1.6-2.38-2.9-4.98-4.1-7.56-1-2.63-4.1-2.58-6.3-3.61-5.4-2.27-11.3-3.57-16.4-6.66z"/>
<path d="m250.2 81.28c1.6 0.03 3.1 0.06 4.6 0.09-0.7 2.3-1.3 4.83-3.4 6.34-3.5 2.91-4.7 7.49-6.7 11.46-0.2-2.65-0.7-5.27-1-7.92 1.3-1.21 2.8-2.12 4.1-3.37 1.1-2.07 1.6-4.39 2.4-6.6z"/>
<path d="m291.4 95.02c1.2 0.68 2.3 1.37 3.5 2.07-0.5 1.48-1.3 2.82-2.2 4.11-3.3-0.6-1.5-4.03-1.3-6.18z"/>
<path d="m290 104.1c0.2-1.5 1.6-2.2 2.9-1.7 0.6 2.4-0.7 4.6-1.3 6.8 1.2 3.1 0.3 6.4-1.2 9.3-1.8-4.5-1.5-9.8-0.4-14.4z"/>
<path d="m244.9 120.9c3.8 2.7 5.1 7.7 7.4 11.6-0.9 4.9-4.9 9.6-10.1 9.8-4.4 0.1-8.7-0.9-13.1-0.5-4.1-0.3-7.8 2.4-12 2 6.2-6.3 15.6-1.6 23.2-3.7 4.7-0.6 8.3-5.1 8.3-9.8-0.2-3.4-2.6-6.2-3.7-9.4z"/>
<path d="m271.4 160.6c3.3-2.3 7.2-2.3 10.4 0 1.9 2.8 3.5 6.5 1.4 9.7-2.4 5.2-10.7 5.3-13.1 0-2.1-3.1-0.7-7 1.3-9.7z"/>
<path d="m365.7 169.5c2.6-1.2 5.5-1.9 8.4-1.6 1.7 1.3 2.1 3.5 2.8 5.5-2.7 2.2-5.2 4.8-8.5 6.3-2.2 1.3-3.4 3.8-5.1 5.8-4.8 6.4-10.6 12.3-13.8 19.8-2.5 5.5-7.7 8.9-12.6 12 0.2 0.4 0.7 1.3 0.9 1.7-3.1 1-6.2 2.1-9.4 2.1-3.9-1.3-5.6-5.2-8.5-7.7-1.4-0.3-1.9 0.2-1.6 1.5 2.2 3 4.4 6.3 8 7.7 4.9 0.6 9.9 0.3 14.5-1.8l3-5.7c2.8-2.3 4.8-5.4 7.5-7.9-1.3 6.3-6.5 10.3-10.2 15-1.4 1.6-3.4 2.7-5 4-7.7 0.9-13.8-4.1-20-7.7-2.2-1.5-5-2.6-5.8-5.4-5.9-4.1-9.6-10.3-14-15.8-4.7-7.3-9.6-14.5-14.1-21.9 1.7-1.7 3-3.7 4.4-5.7 3.8 5.5 9.2 9.5 14.2 13.8 4.8 3.7 9.7 7.4 15.5 9.4 1.6 2.6 3.5 5.1 5.8 7.2 6.6 2.1 13.4-0.5 19-3.8 5.6-4.9 10.9-10 17.2-13.9 2.7-1.4 3.2-5 6-6.4 0.6-2.1 0.8-4.3 1.4-6.5z"/>
<path d="m347.7 184c4.8-3.7 9-8.1 14-11.5-0.7 3.8-2.7 7.3-6 9.4-6.9 4.1-12.3 10.1-18.8 14.6-4.6 0.9-9.2-0.9-13.7-1.8 9.3-0.2 17-5.9 24.5-10.7z"/>
<path d="m268.5 173.5c0.8 0.4 1.7 0.9 2.5 1.3-2.3 5.8-6 10.7-9.3 16-1.5 2.4-3.1 5-5.3 6.9-1 0.2-1.9-0.6-2.9-0.8-7.9 3.2-14.6 8.7-22.8 11.2-5.3-3.8-10.2-8.2-15.8-11.7-3.2-2-5.4-5.5-9.2-6.6-6.5-2.1-13.5-2.1-20.3-3.3-0.2-2.2 2.1-4 3.3-5.8 13.8 4 27.1 9.5 41 13.1 6.5 1.9 12.8-1.7 18.2-4.9 7.2-4.6 14.2-9.7 20.6-15.4z"/>
<path d="m207.3 195.4c3.4 1 7.3 2.3 8.8 5.8-3.1-1.6-5.9-3.8-8.8-5.8z"/>
<path d="m253.5 199.2c2.2 0.4-0.4 4.1-2 2.8-0.5-1.3 1-2.4 2-2.8z"/>
<path d="m245.1 207.2c1.7-1.2 3.2-2.8 4.9-4-2.3 3.8-6.8 5.9-11 6.9 1.7-1.7 4.1-1.8 6.1-2.9z"/>
<path d="m213.5 207.2c1.6 1 2.8 2.4 4.1 3.6-0.4 3.8 0.6 7.5 1.9 11 1.4 3.7 0.2 7.6 0.7 11.3l0.7 0.1c1-8.1 1.6-16.2 2.4-24.2 3.4 0.4 2.9 4.7 3.7 7.1 0.4 11.1-4.2 21.4-5.9 32.2-1.4 5.5-0.8 11.3-2.3 16.7-0.5 0-1.7-0.1-2.2-0.1 0.9-10.1 2.8-20.1 4.1-30.1-0.3-0.1-1-0.4-1.4-0.5-0.6 3-2.1 5.8-2.8 8.8-2 9.6-3.9 19.3-4.9 29.1-0.5 0-1.6-0.1-2.2-0.1 1.3-8.2 0.4-16.8 2.6-24.9 3.5-7 5.4-14.9 4.5-22.8-1.8-5.5-2.8-11.3-3-17.2z"/>
<path d="m232.7 224.8c0.3-0.2 1-0.6 1.4-0.8 1.5 4.1 3.1 8.2 4.7 12.3-0.5 3.2-1.8 6.3-4.7 8-3.3 1.9-4.6 6.3-8.3 7.6 1.1-3.8 3.1-7.3 4-11.1 1.7-5.2 1.6-10.7 2.9-16z"/>
<path d="m342.4 226.9c2.2-0.4 4.4-0.8 6.6-1.3-1.4 6.7-4.5 12.9-5.7 19.6 0.6 6.4 1.3 13.2-1 19.3l-1.5 0.6c-0.8-6.3-1.4-12.6-1.6-18.9 1-6.4 1.9-12.9 3.2-19.3z"/>
<path d="m276.4 231.8c0.8-2.8 3.8-0.6 5.8-0.5 1.6-0.5 3.3-1.1 5.1-1.1 3.2 0.8 6.1 2.6 9.3 3.5 5.2 2 10.9 2.8 15.9 5.6-0.1 0.5-0.2 1.5-0.3 2-6.1-2.5-12.5-3.9-18.9-5.3-5.5-1.8-11.5-1.9-16.9-4.2z"/>
<path d="m242.9 236.3c6.2-2.3 12.5-5 19.2-4.5 2.6 0.2 5.2-0.3 7.7-0.9 0.4 0.9 0.8 1.8 1.1 2.7-1.4 0.4-2.9 0.7-4.4 0.8-1.4 0-2.8 0-4.1 0.4l-0.3 0.1c-3.5 1-7.1 2.4-10.9 2.1-2.4-0.4-4.5 1.1-6.6 1.9-0.6-0.9-1.1-1.7-1.7-2.6z"/>
<path d="m329.4 233.1c1.4 2 3.2 3.9 4.1 6.2-0.1 3.6-0.3 7.7-3 10.4-1.7 1.8-3 4.1-5.3 5.2-0.4-0.3-1.2-1.1-1.6-1.5 5.5-5.3 4.9-13.4 5.8-20.3z"/>
<path d="m330.1 262.1c0.8-0.2 1.6-0.4 2.3-0.6 1.9 11.9 5.5 23.6 6.4 35.7 1.6 10 5.1 19.5 7.4 29.3-0.6-0.2-1.8-0.6-2.4-0.9-2.6-7.1-4.4-14.4-6.1-21.8-1.7-3.7-1.1-7.8-2-11.6-2-10-3.5-20.1-5.6-30.1z"/>
<path d="m351.5 286.9c2.3 3.4 2.9 7.6 4.4 11.4-2.7-2.1-3.8-5.9-6.5-8.1 0.7-1.1 1.4-2.2 2.1-3.3z"/>
<path d="m356.5 293c0.6-0.2 2-0.6 2.7-0.8 0.4 1.7 0.3 3.5-0.2 5.2-0.9-1.4-1.7-2.9-2.5-4.4z"/>
<path d="m342.6 294.9c0.6-0.1 1.8-0.3 2.3-0.5 1 7 3.1 13.8 5.5 20.3 2.3 4.8 3.8 10.4 8.4 13.6-5.7 0.6-7.8-5.7-10.1-9.6-3.2-7.6-3.9-15.9-6.1-23.8z"/>
<path d="m203.4 308.1c1.2-0.6 2.4-1.3 3.6-2 0.2 3.2 0.9 6.3 2.2 9.2-0.4 0.3-1.3 0.9-1.7 1.2-1.6-2.6-3.6-5.2-4.1-8.4z"/>
<path d="m193 311.3c0.6-0.1 1.7-0.3 2.2-0.4 1.7 2.2 2.7 4.8 3.9 7.4 1.8 2.2 3.7 4.4 5 7h-2.7c-3.4-4.3-5.9-9.1-8.4-14z"/>
<path d="m353.3 311.1c6.1 4.9 9.5 12.3 13.5 18.9l-4.5-0.9c-3.3-5.2-6.5-10.5-9.6-15.9 0.2-0.5 0.5-1.6 0.6-2.1z"/>
<path d="m187.7 319.7 0.8-0.7c0.5 1.7 1 3.4 1.6 5 1.2 1.1 2.7 1.8 4.1 2.6-2.2 0.4-4.3 0.8-6.5 1.3-0.6-2.5-2.2-6-0.2-8.1l0.2-0.1z"/>
</g>
<g fill="#e20a17">
<path d="m305.6 146.7c3.3-3 8.7-4.3 12.5-1.5 3.2 2.1 6.6 3.9 9.8 6-0.6 1.3-0.7 3.1-2.2 3.6-6.2 3.6-13.1 5.7-20.2 5.9-6.6 1.4-13.3 1.1-20 1.2-0.4-0.9-0.9-1.7-1.3-2.6 7.6-3.3 14.6-7.9 21.4-12.6z"/>
<path d="m223.2 146.9c0.7-0.2 2.2-0.5 3-0.7 1.4 1.5 2.6 3.2 3.7 5-2.5-1.1-4.9-2.3-6.7-4.3z"/>
<path d="m234.6 145.8c3.6 0 7.2 0.1 10.6 1.2 6.8 4 12.3 10.3 20 12.8-6.2 0.1-12.3-1.2-18.1-3-3.2-0.9-6.6-1.4-9.4-3.1-1.7-2.3-2.4-5.2-3.1-7.9z"/>
<path d="m205.3 162.2c3.6-4.5 7.6-8.6 11.7-12.6 16.8 3.9 32.4 12.7 49.8 13.6-0.1 2.3-0.1 4.7 0.2 7.1-4 2.5-8 5.5-12.7 6.6-5.8 1.3-11.8 2.2-17.8 1.9 0.1 0.8 0.5 2.4 0.6 3.3 5 0.6 10.1 0.5 15.1 0.8-6 4.1-12.4 9.2-20 9-13.8-3.6-27.2-8.9-40.8-13.1 0.1-0.4 0.2-1.3 0.3-1.7 2.1-2.1 4.1-4.2 6.1-6.3 3.5-0.2 7-1.2 10.5-0.8 5.9 1 12 1.2 17.9 0.7 3.6 0 7-3 7.8-6.4-4.2 1.9-7.9 5.5-12.8 5.5-5.7-0.8-11.1-2.6-16.5-4.4 0-1.1-0.3-2.4 0.6-3.2z"/>
<path d="m404.3 155.4c2.2-1.4 4.2-3.7 7-3.7 1 3.9 1.3 8.1 3.5 11.6-4.1-1.7-8.7-3.5-10.5-7.9z"/>
<path d="m331.9 155.3c3.9-1.2 7.3 1.6 10.9 2.6 0 0.5 0.1 1.4 0.1 1.8-3.7 2-7.4 3.9-11.3 5.2 0 0.6-0.1 1.7-0.1 2.2 6.9-2.5 14-6.1 21.6-5 4.4 1.6 9.1 1.5 13.6 2.7v1.6c-1.2 0.5-2.5 0.9-3.7 1.7-5.9 4.4-11.3 9.4-17.1 14-6.4 4-12.8 9.3-20.7 9.9-6.9-0.7-14.1-3-19.1-8.1 4.8-1.3 11.3-1.3 14-6.3-2-0.2-3.6 0.8-4.9 2.1-4.9 0.5-9.8 0.7-14.7 0.2-3.3-2.5-6.4-5.2-9.2-8.3 6.4 1.1 13.1 2.1 19.5 0.1 0-0.5 0.2-1.7 0.3-2.3-7.8 1.7-15.7 0.2-23.3-1.9-1.2-0.8-1-2.4-1.4-3.7 11 0.4 22.1-0.8 32.7-3.8 4.2-1.8 8.1-4.3 12.8-4.7z"/>
<path d="m400.2 161.2c0.6-0.8 1.2-1.5 1.8-2.2 3.9 5.1 10.4 6.5 16.3 7.9 2.9 0.7 5.8-0.3 8.5-1.2 0.7 3.4-1.7 6.1-3.3 8.9-1.6 2.7-3.2 5.4-5.2 7.9-2.3 0.1-7.2-2-7 1.9 1.4 1.1 3.4 0.9 5 1.4-4.1 5.8-8.7 11.5-14.1 16.2-4-0.9-7.4-4.2-11.5-4.2 0.3 3.7 3.8 6.8 3.8 10.8-5.8 4.7-11.6 10.4-19.3 11.7-4.3 0.9-8.8 0.3-13.1 0-4.7-0.4-9.5-0.2-14-1.3 1.2-2.5 2.9-4.8 4.2-7.3 2.1-4.6 3.6-9.3 5.7-13.8 3.1-5.2 6.4-10.4 11.1-14.3-3 4.3-5.3 9-6.8 13.9-2.9 6.1-5.1 12.6-5.9 19.3 0.7 0.1 2.1 0.3 2.9 0.3 2.5-9.2 3.7-19.2 9.4-27.3 1.8-2.3 3.8-4.6 6.5-5.7-2.4 5.2-4.6 10.6-5.7 16.3-0.8 5.4-1 11-1.1 16.5 1 0 2.1 0.1 3.2 0.1 0.2-7.5-0.8-15.3 1.8-22.5 1.6-5.8 5.6-10.9 10.8-14 3.4 0.7 6.3 2.9 9.8 3.3 2.2-0.4 4.3-1.5 6.4-2.3 0.1-0.5 0.3-1.5 0.4-1.9-3.2 0.1-6.6 1.1-9.7-0.3-0.8-0.6-3.2-0.6-2.6-2 1.5-3.2 4-5.9 5.7-9 4.2 0 7.8 3 12 2.6-2.1-3.1-4.7-6-6-9.7z"/>
<path d="m275.8 176.7c1.3 0 2.7-0.1 4.1-0.2 3.1 5.9 8.5 10.9 9.2 17.8 1.5 6.6 3.4 13.3 2.1 20-0.1 6.1-5.5 9.8-9.3 13.8-1.4-0.2-2.7-0.3-4.1-0.4-1.8-9.1-5.2-18.1-4.4-27.5 0.3-3.7 0-7.4 0.4-11.1 0.9-4.1 1.7-8.2 2-12.4z"/>
<path d="m261 196.3c4.4-6.1 8.2-12.5 11.7-19.1 0.4 5.5-1.8 10.6-1.8 16.1 0 5-0.8 10-0.1 14.9 1.1 6.7 3.1 13.2 4.3 19.8-5.8 0.3-11.7 0.8-17.4 2.2-4.2-7.7-4.9-16.6-5.1-25.2 0.5-0.1 1.4-0.4 1.9-0.5 0.5 3 0.9 6.2 2.5 8.9 0.4-0.5 1.2-1.4 1.6-1.9-0.6-3.1-1.6-6.1-1.6-9.3 0.7-2.3 2.7-4 4-5.9z"/>
<path d="m131.4 182.6c3.1-1.4 4.9 2.3 5.6 4.7-0.3 4.5-2.6 8.9-6.4 11.4-2.8 0.8-8.3 0.7-8.2-3.3 1.4-1.6 3.2-2.7 4.7-4.2 2.3-2.4 1.9-6.3 4.3-8.6z"/>
<path d="m139.8 189.5c3.6 3.2 8.7 3.1 12.8 5.3 2.8 1.9 1.4 5.8 1.7 8.6 3.5 0.4 3.8-3.2 4.8-5.6 3.2 0.8 6.3 1.9 9.6 2.1 2.2 3.1 3.7 6.6 5.7 9.9 0.7 0.1 2 0.2 2.6 0.3-1.4-3.9-3.9-7.2-5.6-10.9 3.7-2.8 6.3-6.7 9.8-9.6 11.9 2.2 23.9 6.2 33.4 14 1 1.1-0.8 2.1-1.4 2.8-7.2 5.8-13.6 13.1-22.6 16.2-4.5 1.2-9.1 2-13.6 3.1-9.7-1.8-19.5-4.4-28.5-8.7 0.7-4.7 2.4-9.3 2.1-14.1-0.6-0.1-1.6-0.2-2.1-0.3-2.1 3.8-4.6 7.4-7.6 10.7-5.1-2.5-9.5-6.4-12.6-11.2 6.4-0.9 9.4-7.2 11.5-12.6z"/>
<path d="m294.5 199.3c3.2 3.9 6.4 7.9 9.4 11.9-3.5 6.2-5.1 13.1-6.3 20-3.8-0.7-8.2-0.9-11.4-2.9 0.8-3.1 4.5-4.3 5.9-7 3.9-6.6 3-14.7 2.4-22z"/>
<path d="m244.7 210.8c1.7-1 3.3-2.2 4.9-3.3 1.3 4.3 0.8 8.8 2 13.1 1 3.4 1.9 6.7 3.2 10-4.4 0.9-8.7 2-13 3.4-1-7.6-4.9-14.3-6.8-21.7 3.3-0.4 6.9 0.4 9.7-1.5z"/>
<path d="m305.6 213.8c1.4-0.9 2.5 1.1 2 2.4-1.4 5.7-3.3 11.6-7.1 16.2 0.4-6.5 1.7-13.1 5.1-18.6z"/>
<path d="m303.3 233.5c3-5 5.2-10.4 6.8-16l4.8 3.3c-1 5.1-2 10.2-2.4 15.4-3.1-0.7-6.1-1.8-9.2-2.7z"/>
<path d="m196.8 223.2c2.6-0.8 5-2.2 7.1-3.9-0.5 8.3-1.2 16.6-1.7 25 0.4 11.8 1.9 23.5 4.8 35 0.8 5.5 1.7 12.2-2.3 16.8-0.2 0-0.7-0.1-0.9-0.1-2.3-10.7-3.2-21.7-6.3-32.2-0.5-5.2-1.2-10.4-1.7-15.5 1.3-8.3 1.4-16.7 1-25.1z"/>
<path d="m374.5 223c2.4-0.5 4.7-1 7.1-1.6-0.8 5.7 1.2 11.2 0.8 16.9 0 21 0.6 42 0.6 63 1.3 10.5 0.1 21.2 0.9 31.7-2.1-0.3-4.2-0.7-6.2-1.1-1.2-8.2-0.5-16.5-1.7-24.6-0.3-12.1-2.1-24.1-3.2-36.1-1.9-10.9-0.6-22 0.4-32.9 0.8-5.1 0-10.3 1.3-15.3z"/>
<path d="m352.8 222.7c2.2-0.1 4.5 0 6.8 0.2 0.2 6.8-1 13.6-0.3 20.4-1.7 16.4 0.5 32.7 1.5 49-4.6-3.6-8.5-8-11.4-13.1-1.5-4.2-1.8-8.7-0.8-13 0.2-8 0.5-16 1.3-24 1.2-6.5 2-13 2.9-19.5z"/>
<path d="m362.7 222.9c3 0 6.1-0.1 9.1 0.7-1.2 7.5-0.9 15.2-1.8 22.7-2.1 20.8 2.7 41.3 3.6 62 0.3 7.7 1.4 15.4 0.9 23.2-1.3-0.6-3-0.5-3.9-1.6-4.9-5.7-8.9-12-12.6-18.5-2.1-2.9-4.7-6.5-3-10.2 1.3-1 2.9-1.7 4.3-2.4 0.6-2.7 3.1-4.7 2.6-7.5-0.2-12.7 0.3-25.4 0.8-38.1-0.1-10.1 0-20.2 0-30.3z"/>
<path d="m188.8 225.7c1-0.1 2-0.2 3.1-0.3 1.2 7.3 1.6 14.6 2.2 22 1.2 4.9-0.1 10 1 14.9 3 12.2 3.1 24.9 6.9 36.9-3.7 2.9-7.5 5.7-11 8.9-3.8 3.6-4.6 9.4-7.9 13.3-2.8-9.7-2.4-20.1-2.4-30.2 1.6-21.9 7.6-43.4 8.1-65.5z"/>
<path d="m183.5 227.3c0.4 0.2 1.4 0.5 1.9 0.7-0.7 10.1-1.4 20.2-4 30h-0.6c-0.8-5.2-1.7-10.4-1-15.7 0.7-5.1 2-10.1 3.7-15z"/>
<path d="m175.4 229.6c1.5-0.4 3-0.7 4.5-1.1-3.9 10.4-4.2 21.9-1.9 32.8l2 1.6c-3.3 16.1-7.6 32.8-3.9 49.3 1.5 5.3 2.2 11 5.6 15.6-1.9 2.8-5.8 1.7-8.7 2.4-2.2-8.2-0.9-17-2.1-25.4-0.3-10.5-2.5-21-1-31.6 2.3-14.5 3.3-29.1 5.5-43.6z"/>
<path d="m262.4 234.8c1.3-0.4 2.7-0.4 4.1-0.4 0.2 1.3 0.5 2.5 0.8 3.8-1.1 6.6-1.6 13.2-1.8 19.8h2.6c1.5-7.4 1-15.2 3.2-22.6 1.1 0.1 2.2 0.1 3.3 0.2 0.2 6 2 11.7 3.2 17.6 5 22-1.5 44.5 1.3 66.6-7.5-0.7-14.9 0.2-22.4 0.2-0.6-1.2-1.3-2.3-1.1-3.7-0.2-9.7 0.5-19.4-0.6-29-0.5-6.7 0.7-13.3 0.7-19.9 2-10.6 3.7-21.5 9.1-31-0.8-0.5-1.6-1.1-2.4-1.6z"/>
<path d="m280.1 245.3c-1.2-3.4-1.4-7-1.4-10.6 6 1 12 1.9 17.6 4.3 0.1 13.4 3.4 26.4 5.7 39.4 3.3-3.9 0.9-9.5 0.4-14.1-2.3-7.9-1.3-16.4-2.8-24.4 2.5 0.5 5.4 0.6 7.2 2.6 1.9 2.2 3.7 4.5 5 7.1 1.7 4.8-0.8 9.8-0.3 14.7 0.6 5.6 0.9 11.3 1.3 16.9 1.8 14.4 6.4 28.3 11.3 42-7.5-1-15.2-0.8-22.6-2.6 0.6-6.3-1.9-12.2-3-18.3-1.4-6.9-3.6-13.8-3.6-20.9 0.1-3.3-1.1-6.4-2.5-9.2h-2.2c0.4 4.1 1 8.1 1.3 12.1 0.5 8.4 2.8 16.6 4.2 24.9 0.6 3.8 2.1 7.7 1.2 11.6-3.6-1.3-8.2 0.8-11.1-2-0.5 0.3-1.4 0.8-1.8 1-3.1-8.9-1-18.4-1.3-27.5 1.4-15.7 2-31.8-2.6-47z"/>
<path d="m244 240.6c5.3-1.2 10.5-2.9 15.8-3.8-0.5 4-2.3 7.8-3.5 11.7-4 11.8-5.3 24.3-5.6 36.7 1.5 11.6 0.5 23.3 1.1 35-10.7 0.6-21.3 1.9-32 2.9 0-5.2 1-10.4 1.1-15.7-0.1-6 3.8-11 5.1-16.8-0.7 0-2-0.1-2.6-0.2-1.9 5.9-5.1 11.6-5.1 17.9-1 5.2-0.2 10.5-1.5 15.6-1.7 0-3.3-0.1-5-0.1 0.4-11.5-1.5-23.2 1.8-34.4 5.3-17.5 16.3-32.4 26.6-47.1 0.9-1.1 2.4-1.4 3.8-1.7m3.9 5.2c-2.4 8.8-5.8 17.4-7.5 26.4-1.4 6.5-3.9 12.9-3.8 19.7 0.6 0.1 1.6 0.3 2.1 0.3 1.1-8.9 4-17.5 5.8-26.3 2.8-8.6 5-17.5 8.4-25.9-3.9-1.2-4 3.3-5 5.8z"/>
<path d="m314.6 253.5c1.9 1.9 3.3 4.2 4.9 6.3 1.7 0.3 3.3 0.7 4.9 1.1 3.2 6.5 5.2 13.5 7 20.4 0.4 1.6 0.3 3.3 0.3 4.9 0.2-1 0.5-1.9 0.7-2.8 0.4 4.6 0.8 9.3 1.7 13.9 1.2 7.3 1.3 14.7 2.3 22 0.2 1.9-0.3 3.7-0.7 5.5-2.9-0.5-5.8-0.9-8.7-1.2-3.1-8.7-6-17.4-8.6-26.3-3-11.7-3.7-23.9-4.4-36 0.4-2.6 0.9-5.2 0.6-7.8z"/>
<path d="m270 334.1c1.2-0.6 2.7-2.1 4-0.8 35.5 23.3 71 46.6 106.5 69.8-1.6 10-1.2 20.1-1.1 30.2 0 5 1.2 9.9 1.6 14.9 0.3 5.1 2.2 10 2 15.2-34.7-23.3-69.1-47-103.7-70.4-2.3-1.4-4.3-3.8-7-4.4-32.2 22.1-64.4 44.2-96.5 66.3-6.4 4-12.3 8.9-18.9 12.5 1.1-12.1 3.9-24 4-36.1 0-4 0.7-8 0.7-12 0.1-4.7-0.7-9.4-0.9-14.2 36.4-23.6 72.9-47.3 109.3-71z"/>
<path d="m171.2 516.2c33.5-23.4 67.3-46.4 100.9-69.7 32.6 22.4 65.1 44.8 97.6 67.2 0.9 0.5 1.2 1.1 0.8 1.8-5.6 7.1-11.2 14.1-17.9 20.1-5.9 4.3-11.7 8.9-18.4 11.6-20.9-14.1-41.2-29.4-62-43.6-5.3 3.1-9.9 7.4-15 10.8-15.2 11.1-30.4 22.3-45.6 33.4-1.1 0.9-2.5 1.9-3.9 0.8-7.1-4.4-14.1-9-20.8-14.1-5.8-5.6-11.1-11.7-15.7-18.3z"/>
</g>
<g stroke="#000" stroke-width="3.36" fill="none">
<path id="a" d="m447.2 515.2c-37.6-12.5-1.6-56.5 18.4-25.3 45.5-78.8 50.4-132.8 52-208-10.4-3.2-18.4-15.7-20.8-22.4-22.4-62.4 7.2-116 41.6-162.4-20.1-18-37.4-40.22-47.2-60.8-98.4 6.4-132-32-168.8-33.6-27.3-1.186-35.2 2.4-52 11.2-17.6-8.8-24.7-12.39-52-11.2-36.8 1.6-70.4 40-168.8 33.6-9.84 20.58-27.06 42.8-47.2 60.8 34.4 46.4 64 100 41.6 162.4-2.4 6.7-10.4 19.2-20.8 22.4 1.6 75.2 6.5 129.2 52 208 20-31.2 56 12.8 18.4 25.3 51.2 52.3 130.4 45.1 176.8 109.9 42.4-60.8 128-59.2 176.8-109.9z"/>
</g>
</svg>
