<?xml version="1.0" encoding="UTF-8"?>
<svg width="1221.3" height="1522.9" version="1.1" viewBox="-2.5 -2.5 1225.4 1327.6" xml:space="preserve" xmlns="http://www.w3.org/2000/svg" xmlns:xlink="http://www.w3.org/1999/xlink"><path d="m3.258-96.888h1213.8v706.03c-1.6167 54.888-8.1631 107.06-20.474 160.6-26.344 114.92-77.031 223.88-147.08 318.82-40.351 54.994-87.367 105.38-138.9 150.05-88.692 76.819-191.7 136.88-300.47 180.49v0c-82.425-33.063-162-75.693-233.96-127.82-100.13-72.327-186.13-163.56-250.03-269.42-75.361-124.51-119.14-267.38-122.93-412.83z" fill="#f00000" stroke="#000" stroke-linecap="round" stroke-miterlimit="1e3" stroke-width="11.516" style="paint-order:fill markers stroke"/><g id="g10770" transform="matrix(2.203 0 0 2.203 -50.77 23.794)"><path d="m99.865-1.8528c7.4109 20.778 9.2232 25.719 12.477 33.266 1.8904-0.52781 2.4927-0.81931 4.1099-1.1452-2.1703 29.932-5.1971 73.917-7.2717 103.15-7.3771 10.447-12.481 18.482-19.442 28.496-3.1934 19.337-6.7538 40.837-9.4876 59.747 12.843 5.7889 27.14 8.2821 40.383 10.273 23.242 3.2581 47.068 2.5216 70.431 1.1658 19.652-2.1176 40.765-5.4013 59.305-12.36-3.7644-20.187-7.009-42.437-11.198-60.53-6.4951-10.252-13.442-19.328-20.061-30.073-3.8036-34.819-8.9142-67.94-11.746-101.47 2.5368 7.05e-4 0.15294-0.06801 3.8671 0.61679 4.3464-13.856 10.918-26.639 13.246-31.14-5.1174-2.1832-9.7474-3.6888-13.915-5.45-2.3416 4.6311-4.9544 11.059-7.7758 17.436-4.0632-1.0244-10.215-2.1287-14.647-3.2214 0.5561-3.7972 2.8957-17.484 2.8957-17.484s-12.242-1.4659-16.392-1.7617c-0.84676 3.0074-1.4598 11.068-2.3848 17.507-3.7066-0.21709-16.758-0.20968-22.111 0.31711-0.29544-4.0392-1.0308-11.193-1.52-17.978-4.4264 0.37583-11.564 1.2528-16.1 1.7471 0.52127 6.0437 1.5361 11.634 2.1749 18.206-4.8209 0.97713-8.1603 1.6917-14.763 3.512-1.8078 0.49839-6.1621-15.72-6.5725-16.767-5.4205 1.0207-7.0191 2.0909-13.502 3.942z" fill="#fff"/><g stroke="#000"><g stroke-width="1.3043"><path d="m133 107.58c1.0855-9.9612 2.1121-19.929 3.0796-29.902 0.58448-6.0248 1.1474-12.052 1.6888-18.08 0.17711-2.0514 1.2487-4.0099 2.881-5.2652 1.1863-0.91228 2.6774-1.4582 4.1724-1.3908 1.3085 0.05896 2.5796 0.58556 3.5965 1.4112 1.0169 0.82563 1.7837 1.9403 2.2648 3.1586 0.82607 2.092 0.81329 4.4069 0.79474 6.656-0.0418 5.0664-0.0541 10.133 0 15.199 0.10659 9.9746 0.47101 19.946 1.0928 29.902" fill="#040404"/><path d="m180.42 108.44c-0.5065-9.0294-0.7876-18.071-0.84296-27.115-0.012-1.9669-0.0134-3.9338 0-5.9007 0.0201-2.9504 0.0735-5.9014 0-8.851-0.0385-1.5456-0.11172-3.0942 0-4.6362 0.12757-1.7608 0.50971-3.5361 1.4049-5.0577 0.97808-1.6624 2.6071-2.9803 4.4958-3.3718 1.6048-0.33265 3.3413 0.02865 4.6802 0.97378 1.3389 0.94514 2.2609 2.4604 2.4848 4.0839 0.7763 8.5296 1.6193 17.053 2.5288 25.57 0.75078 7.0296 1.5469 14.054 2.3884 21.074"/><path d="m143.33 233.83c0.53826-11.637 1.1002-23.274 1.6859-34.909 0.25812-5.1279 0.52085-10.256 0.77271-15.384 0.18318-3.7299 0.39924-7.6044 2.1776-10.888 1.3902-2.567 3.6759-4.596 6.2898-5.8959s5.5436-1.8957 8.4618-1.9716c3.5459-0.0923 7.1501 0.58785 10.275 2.2657 3.1251 1.6779 5.7413 4.3949 7.0053 7.7092 0.85085 2.231 1.0765 4.6443 1.2644 7.0246 0.21056 2.6676 0.38355 5.3381 0.56197 8.008 0.35994 5.3865 0.74199 10.772 1.1239 16.157 0.65593 9.2478 1.3116 18.496 1.9669 27.744"/></g><path d="m83.133 203.55c8.0253 2.8483 16.225 5.2053 24.538 7.0533 11.819 2.6276 23.867 4.2251 35.962 4.7684m-57.122-31.992c7.5693 2.3404 15.267 4.2649 23.048 5.7619 5.9526 1.1453 11.953 2.0404 17.981 2.6823m56.33 24.146c10.042-1.0105 20.03-2.5699 29.902-4.6691 11.135-2.3675 22.123-5.4218 32.882-9.1395m-45.104-10.831c6.8054-1.2103 13.567-2.6686 20.266-4.3711 7.0291-1.7863 13.99-3.8414 20.862-6.1592m-104.27-9.1397c-8.9855-0.20415-17.948-1.407-26.669-3.5794-7.2253-1.7997-14.285-4.2639-21.061-7.3514m93.53 10.371c6.2579-0.31751 12.499-0.97443 18.685-1.9669 12.047-1.9325 23.889-5.1406 35.263-9.5534m-102.14 38.78-0.98344 16.578m98.063-8.858 3.7933 18.685m-33.713-11.795 1.9669 18.123m-9.4169-17.423-1.4049-18.545m29.785 13.205-3.2313-21.026m-83.729-1.454 1.5454-21.495m51.705 6.465 1.8264 13.347m-34.566-44.817 1.8264 25.57m12.924-25.99-2.1074 26.412m1.5474-17.142 12.504 8.57m-37.094 0 10.677-8.4295m-10.247 24.73-15.173-15.314 8.1485-9.6939 13.628 18.545m18.256 0.8429 18.685-16.719 6.3221 8.289-17.842 15.735m2.2549 11.795 17.14-4.3552 2.6693 11.099-18.826 4.0743m-37.033-11.008-17.368-0.88703-1.0857 12.469 17.858 0.93523m-18.284 15.103-1.1921 18.08m-33.575-5.96 2.9803-18.08m16.487-18.58-2.3842 21.557m-11.917-24.637 3.9737-21.259m125.57-1.591 3.3776 21.16m-33.778-48.57 20.067 30.2m-104.91 1.7804 20.465-30.988m71.815-3.222-4.6362-28.66m-19.804 32.88-2.3884-28.941m-24.172 29.921 1.5454-29.082m-25.705 26.272 2.9503-28.801m-22.2 24.301c17.624 5.1288 36.018 7.6004 54.37 7.3056 18.74-0.30108 37.432-3.4876 55.213-9.413m-56.053-19.683v-30.698m38.64-0.052-3.0908-28.801m-71.089 28.942 1.8264-28.66m61.394-1.827-4.0743-24.446m-24.306 22.857v-24.262m-25.57 26.131 1.6859-23.884m-27.006 76.85c16.614 5.4993 34.093 8.1651 51.59 7.8481 17.893-0.32423 35.794-3.7692 52.521-10.133m-102.33-20.564h22.749m15.199 0h27.717m16.094 0h17.782m-97.951-25.432c15.539-4.1613 31.434-6.3696 47.52-6.5566 15.969-0.18563 32.126 1.6209 47.651 5.3645m-93.481-22.65-7.2804 103.31-19.809 28.801-9.413 59.569s22.455 12.504 83.452 12.504c52.565 0 87.105-13.628 87.105-13.628l-11.366-60.219-20.067-30.002-11.768-101.69m-11.924-2.221 4.2717-16.888m-25.032 13.808 2.7319-17.633m-31.342 0.4468 2.9803 17.435m-23.94-13.71 4.5315 16.912m-23.722-11.025 6.1258 15.685s26.453-8.4295 50.294-8.4295c24.204 0 33.053 2.7199 48.753 6.4626l5.4093-14.81m0.6579 0.0629c-17.392-6.5236-35.969-9.8745-54.544-9.8387-19.572 0.037684-39.131 3.8396-57.292 11.137m97.336-6.0796 7.5866-17.28 14.19 5.1982-7.8676 16.578m-44.259-9.5539 2.2479-17.421 16.438 1.8264-2.8098 17.421m-53.666 0.843-2.1074-18.404 16.157-1.8264 1.6859 18.404m-30.486 5.058-6.6031-16.859-13.628 4.2148 6.1841 17.129" fill="none" stroke-width="2.5083"/></g></g><use transform="translate(594.24)" xlink:href="#g10770"/><use transform="translate(299.61 685.86)" xlink:href="#g10770"/></svg>
