<?xml version="1.0" encoding="UTF-8"?>
<svg width="720" height="888.63" version="1.1" viewBox="0 0 540 666.48" xmlns="http://www.w3.org/2000/svg">
 <path d="M270 3.915H3.924l-.005 279.228c3.73 152.38 83.243 298.51 266.084 379.052V3.885z" fill="#fff" stroke="#000" stroke-width="3.9389"/>
 <path d="M270 3.915v658.31c182.855-80.542 262.354-226.687 266.083-379.052V3.945H270z" fill="#0093dd" stroke="#000" stroke-width="5.2519"/>
 <path d="M257.485 165.014c.49.5.49.5 0 0z" fill="#fff"/>
 <g stroke-width="5.683">
  <path d="m308.834 354.231 29.41-23.616c3.752 2.643 6.967 5.957 11.807 7.24-4.84 7.458-10.417 14.4-12.956 24.157-8.094.506-16.565 2.895-25.253 6.366-.495-4.86-.537-9.85-3.008-14.147zm-11.808-18.153 27.96-20.72 8.912 6.127L298.586 349z" fill="#fff"/>
  <g stroke-width="5.704">
   <g stroke-linecap="round" stroke-linejoin="round">
    <path d="M361.617 453.577c-.43-4.356-.23-8.898.665-13.542 5.328-23.701 28.897-38.618 52.599-33.29a44.379 44.379 0 0 1 5.065 1.46c1.738.461 11.25-10.264 10.347-10.985a57.955 57.955 0 0 0-12.158-4.189c-31.123-6.996-62.046 12.579-69.042 43.701-1.628 7.243-1.731 18.405-.772 24.225m39.875-67.247c-7.391-15.407-21.51-27.406-39.465-31.442-31.123-6.996-62.045 12.578-69.041 43.7s12.571 62.073 43.694 69.069l.027.006c9.77 2.192 20.022 1.697 29.254-.928 6.156-1.999 8.687-2.954 13.532-5.867 13.155-8.626 21.577-18.88 26.263-36.932.202-.784-8.485-.974-13.04-2.18-3.148 14.816-14.04 26.725-31.31 32.013-8.688 2.66-16.305 1.958-21.935.694l-.006.027c-23.702-5.328-38.618-28.898-33.29-52.6s28.898-38.618 52.6-33.29c13.594 3.057 24.889 11.966 30.54 23.608m57.222 16.145c12.37 10.232 18.69 26.889 14.93 43.611-5.326 23.696-28.895 38.581-52.592 33.262l-.006.028c-13.785-4.083-24.135-12.65-29.665-24.128-.026-.047.407-.28.362-.251-5.235 3.229-9.192 4.39-13.619 5.904-.048.016.085-.105.102-.058 7.996 16.671 23.904 27.39 40.035 31.7l.027.007c31.118 6.984 62.054-12.612 69.048-43.728 4.899-21.793-3.243-43.491-19.25-56.944M337.75 360.25c6.997-31.124 37.92-50.698 69.042-43.702s50.725 37.925 43.728 69.047c-6.996 31.116-37.93 50.713-69.048 43.729l-.027-.007a57.87 57.87 0 0 1-12.176-4.199c-1.577-.27 8.437-10.868 10.166-10.243 1.162.42 2.097.665 3.145.906.51.117 1.047.233 1.65.368l.006-.027c23.698 5.32 47.266-9.568 52.593-33.262 5.328-23.702-9.59-47.271-33.29-52.6-23.223-5.22-46.32 8.996-52.255 31.866m41.941 45.304c.078-.025 1.077 10.101.646 9.701-3.972-.179-10.95-.607-13.444-2.194-1.655-1.055 2.517-4.182 12.798-7.507zm-27.309-.231c-8.858-8.007-15.147-19.42-15.697-29.444-.063-1.13-10.24-2.685-13.769-2.784.467 16.598 8.018 31.668 20.426 42.154" fill="#fff"/>
    <path d="M357.127 325.308c-10.348 8.025-18.11 19.465-21.492 33.075-27.422.184-52.16 19.15-58.426 47.033-7.297 32.459 13.149 64.8 45.608 72.097a2.532 2.532 0 0 0 .012 0l.027.006c9.562 2.145 19.475 1.745 28.6-.549 8.63 16.416 24.521 26.965 40.67 31.28a2.532 2.532 0 0 0 .046.011l.026.007a2.532 2.532 0 0 0 .054.013c32.455 7.283 64.776-13.191 72.072-45.643 4.97-22.112-2.998-44.097-18.815-58.208 3.384-5.51 5.978-11.623 7.473-18.276 7.297-32.46-13.183-64.778-45.642-72.074-18.258-4.105-36.472.572-50.212 11.226zm3.094 3.971c12.574-9.756 29.25-14.024 46.005-10.257 29.786 6.696 48.508 36.238 41.813 66.023-6.273 27.904-32.614 46.093-60.409 42.774-.063-.007-.117-.021-.18-.028a55.885 55.885 0 0 1-5.434-.934 2.532 2.532 0 0 0-.027-.006c-3.173-.713-6.173-1.758-9.075-2.963.878-1.098 1.785-2.165 2.764-3.162.925-.913 1.878-1.828 2.655-2.45.102-.087.216-.16.32-.247.312-.234.57-.414.756-.525.846.272 1.671.526 2.446.707 1.382.394 2.838.667 4.405.868.141.018.25.014.391.03 12.551 1.978 24.78-1.41 34.47-8.437.444-.152.76-.404 1.08-.592.634-.375 1.22-.83 1.848-1.361.486-.413 1.008-1.001 1.519-1.491.199-.185.382-.383.579-.571.614-.612 1.219-1.13 1.82-1.788 1.295-1.415 2.494-2.854 3.377-4.08.056-.079.086-.147.14-.223 3.64-4.983 6.367-10.75 7.805-17.146 5.628-25.039-10.167-49.997-35.206-55.626-23.953-5.383-47.783 8.856-54.737 32.027-.024-.005-.046-.015-.07-.02-2.825-.634-5.643-.986-8.45-1.212 3.233-12.037 10.182-22.162 19.394-29.31zM302.159 375c12.575-9.756 29.251-14.023 46.007-10.256 16.38 3.682 29.33 14.317 36.635 28.064a60.545 60.545 0 0 0-7.752 3.477c-6.309-11.263-17.575-19.746-31.027-22.77-25.038-5.628-49.996 10.167-55.625 35.206-5.628 25.038 10.166 49.995 35.205 55.624a2.532 2.532 0 0 0 .032-.021c5.908 1.323 14.015 2.065 23.206-.75 17.102-5.235 28.43-16.985 32.39-31.61 1.832.321 3.676.635 5.434.825.133.016.266.045.397.06.12.013.26.045.376.058.756.083 1.224.152 1.826.227-4.64 15.945-12.283 25-24.43 32.974-.966.579-1.647.85-2.455 1.288-1.318.694-2.685 1.474-3.9 1.97-1.78.736-3.701 1.4-6.515 2.314l-.01.002c-.01.003-.007.005-.017.008l-.008.004-.008.004c-8.83 2.504-18.664 2.974-27.972.885a2.532 2.532 0 0 0-.011 0l-.019-.004-.004-.006c-29.78-6.7-48.467-36.257-41.771-66.041 2.93-13.032 10.23-23.94 20.01-31.529zm63.829-32.513c9.66-8.755 23.289-12.829 36.984-9.75 22.364 5.028 36.402 27.21 31.375 49.573-.973 4.329-2.751 8.223-4.887 11.848-3.43-1.487-7.006-2.743-10.782-3.592a59.913 59.913 0 0 0-28.98.659c-7.142-13.935-19.626-24.981-35.412-29.984 2.238-7.41 6.289-13.848 11.702-18.753zm-58.652 46.264c7.17-6.755 16.677-10.7 26.782-11.112 1.128 15.741 8.362 30.01 19.932 40.32-3.367 5.496-5.95 11.59-7.441 18.222-1.568 6.976-1.755 16.448-1.027 22.948-7.41 1.89-13.916 1.358-18.864.247a2.532 2.532 0 0 0-.031.02c-22.347-5.04-36.374-27.21-31.349-49.566a41.307 41.307 0 0 1 11.998-21.08zm31.875-10.892c1.638.173 3.13.282 4.961.614 1.44.261 2.773.558 3.624.814.03.008.026.01.053.019.985 9.82 6.673 20.037 14.614 27.911-1.992 2.024-3.869 4.17-5.57 6.477-10.171-9.295-16.537-21.888-17.682-35.835zm14 3.396c8.385 3.75 15.238 9.985 19.472 17.58-2.289 1.484-4.451 3.151-6.524 4.932-6.538-6.468-11.44-14.846-12.948-22.512zm18.352 24.51c12.575-9.756 29.25-14.024 46.005-10.257 3.173.713 6.174 1.759 9.075 2.962-1.19 1.54-2.44 3.026-3.824 4.372-.283.287-.548.548-.82.808-.74.68-1.588 1.215-2.372 1.839-1.378-.448-2.763-.885-4.203-1.209-7.77-1.746-15.46-1.224-22.64.792l-.351-.044c-.66.214-1.088.415-1.7.626-1.33.44-2.638.89-3.92 1.445-2.364.962-4.392 1.903-5.82 2.797a11.847 11.847 0 0 0-1.876 1.429c-1.043.709-2.003 1.525-2.987 2.317-.267.187-.536.331-.811.548-.182.143-.378.365-.563.518a46.003 46.003 0 0 0-2.456 2.262c-.341.335-.685.592-1.017.936-1.323 1.366-2.528 2.738-3.392 3.925-.128.178-.204.373-.318.54-3.625 4.979-6.338 10.735-7.773 17.114a2.532 2.532 0 0 0-.016.077 49.57 49.57 0 0 0-.707 13.919c-2.58 1.586-5.46 2.927-8.55 4.083-.479-5.812-.257-14.57 1.024-20.272a55.039 55.039 0 0 1 20.011-31.528zm7.964 11.66c.017-.01.067-.048.08-.056.114-.06.103.02-.08.057zm5.532-3.818a41.581 41.581 0 0 1 3.333-1.689c.76-.315 1.758-.651 2.655-.982.054.581.107 1.087.158 1.7.055.663.078 1.17.117 1.764-.381-.024-.744-.059-1.14-.088-1.473-.134-2.945-.24-4.427-.536-.308-.059-.412-.106-.696-.169zm-15.088 14.54a60.177 60.177 0 0 0 6.421 2.37c-2.001 7.542-6.138 14.18-12.351 19.373-.055-3.04.1-6.138.711-9.328 1.027-4.55 2.914-8.645 5.22-12.416zm26.016-18.765c5.818-1.338 11.974-1.554 18.191-.177-5.39 3.035-11.435 4.816-17.78 5.2-.045-.716-.08-1.393-.145-2.187-.084-1.025-.179-1.972-.265-2.837zm-1.468 23.831c14.302-.096 27.842-5.315 38.448-14.243 10.722 9.711 16.125 24.693 12.723 39.823-5.026 22.357-27.204 36.366-49.567 31.347a2.532 2.532 0 0 0-.015.01c-12.334-3.698-21.558-11.087-26.925-20.917 12.282-8.457 20.652-19.02 25.336-36.02zm-38.093 42.291a73.463 73.463 0 0 0 4.08-1.513c1.39-.579 2.909-1.422 4.323-2.183 6.083 11.021 16.532 19.265 30.013 23.258a2.532 2.532 0 0 0 .242-.03l-.072.046c25.032 5.618 49.99-10.144 55.618-35.177 3.769-16.77-2.128-33.437-13.923-44.348a60.184 60.184 0 0 0 5.946-6.858c14.135 12.94 21.232 32.79 16.728 52.83-6.691 29.764-36.217 48.477-65.983 41.82-14.66-3.926-29.011-13.428-36.972-27.845zm10.796-4.906c.084-.051.147-.065.231-.117a2.246 2.246 0 0 1-.047.033l-.007.005v-.001a2.139 2.139 0 0 1-.065.03c-.018.009-.04.02-.086.04l-.024.008z"/>
   </g>
   <g stroke="#000" stroke-width="5.0643">
    <g fill="#0093dd" stroke-linecap="round" stroke-linejoin="round">
     <path d="m102.61 64.061a14.374 14.374 0 0 1-20.206-2.205 14.374 14.374 0 0 1 2.204-20.207 14.374 14.374 0 0 1 20.207 2.202 14.374 14.374 0 0 1-2.202 20.207"/>
     <path d="m294.33 337.16-215.75-273.06 29.485-23.296 215.75 273.06z"/>
     <path d="m122.26 241.11 43.953-34.728-11.85-15 15.281-12.074-70.915-89.748-15.26 12.057-11.868-15.02-43.973 34.745 13.656 17.284 15.543-12.28 12.127 15.346-15.544 12.281 15.43 19.526 15.565-12.298 12.126 15.347-15.565 12.298 15.377 19.462 15.587-12.315 12.143 15.368-15.587 12.316zm13.631-58.47-48.435-61.302 9.404-7.43 48.436 61.302z" stroke-linejoin="miter"/>
     <path d="m294.2 276.38-24.076 30.142 24.207 30.636 29.484-23.296z" fill="#fff"/>
     <path d="m108.07 40.8-29.487 23.294 167.54 212.04 24.075-30.142z" stroke-linejoin="miter"/>
    </g>
    <path d="m297.392 349.197 37.326-29.387 6.047 7.68-37.326 29.386zm21.458-24.339a5.466 5.466 0 0 1 .852-7.683 5.466 5.466 0 0 1 7.683.853 5.466 5.466 0 0 1-.851 7.683 5.466 5.466 0 0 1-7.683-.851m-10.484 8.342a5.466 5.466 0 0 1 .853-7.683 5.466 5.466 0 0 1 7.682.852 5.466 5.466 0 0 1-.851 7.683 5.466 5.466 0 0 1-7.683-.851m-10.456 8.118a5.466 5.466 0 0 1 .852-7.683 5.466 5.466 0 0 1 7.683.851 5.466 5.466 0 0 1-.852 7.683 5.466 5.466 0 0 1-7.683-.85" fill="#fff" stroke-linecap="round" stroke-linejoin="round"/>
    <path d="m323.51 313.48c2.892 3.627 4.139 5.895 11.22 6.299m-40.79 16.854c2.847 3.664 4.759 5.408 3.49 12.387m10.145 5.22c3.018 3.956 5.154 6.527 2.896 13.043m27.638-36.981c3.138 3.864 4.873 6.575 11.737 5.91" fill="none"/>
   </g>
  </g>
  <g fill="#fff" stroke="#000" stroke-linecap="round" stroke-linejoin="round">
   <path d="m439.49 64.12a14.428 14.428 0 0 0 20.294-2.108 14.428 14.428 0 0 0-2.106-20.294 14.428 14.428 0 0 0-20.294 2.104 14.428 14.428 0 0 0 2.103 20.294" stroke-width="5.0651"/>
   <path d="m245.6 337.23 218.01-272.95-29.473-23.54-218.01 272.95z" stroke-linejoin="miter" stroke-width="5.0643"/>
   <path d="m418.82 241.73-43.934-35.09 11.975-14.993-15.275-12.202 71.656-89.717 15.254 12.184 11.993-15.015 43.956 35.108-13.8 17.277-15.537-12.409-12.252 15.34 15.536 12.41-15.59 19.52-15.559-12.428-12.253 15.34 15.56 12.428-15.539 19.454-15.58-12.445-12.27 15.363 15.58 12.444zm-13.372-58.762 48.943-61.276-9.4-7.508-48.944 61.276z" stroke-linejoin="miter" stroke-width="5.0643"/>
  </g>
  <g fill="#0093dd">
   <g transform="matrix(.6973 .55495 -.55495 .6973 1186.3 855.16)">
    <path d="m-1232.4 211.7 47.06-.84.256 8.269-47.06.839zm1.338 15.203 43.366.528 7.48 26.763-55.76-1.056z"/>
    <rect transform="matrix(.9976 -.0692 -.07206 .9974 0 0)" x="-1223.9" y="119.54" width="43.477" height="22.545" ry="0"/>
   </g>
   <path d="m269.903 246.35-53.778 67.312 29.494 23.532 24.284-30.411zm-27.43 102.952-37.311-29.696-6.11 7.677 37.31 29.696zm-21.39-24.541a5.487 5.487 0 0 0-.816-7.716 5.487 5.487 0 0 0-7.716.815 5.487 5.487 0 0 0 .814 7.716 5.487 5.487 0 0 0 7.716-.814m10.486 8.435a5.487 5.487 0 0 0-.815-7.717 5.487 5.487 0 0 0-7.716.815 5.487 5.487 0 0 0 .813 7.716 5.487 5.487 0 0 0 7.717-.813m10.44 8.204a5.487 5.487 0 0 0-.815-7.715 5.487 5.487 0 0 0-7.716.814 5.487 5.487 0 0 0 .814 7.716 5.487 5.487 0 0 0 7.716-.813" stroke="#000" stroke-linecap="round" stroke-linejoin="round" stroke-width="5.0643"/>
  </g>
  <path d="m216.45 313.31c-2.923 3.625-4.187 5.894-11.297 6.263m40.854 17.134c-2.878 3.663-4.805 5.403-3.568 12.415m-10.28 5.13c-3.051 3.955-5.318 7.57-3.087 14.123m-27.366-38.257c-3.17 3.86-6.184 6.88-13.071 6.178" fill="none" stroke="#000" stroke-width="5.0643"/>
  <g stroke-linecap="round" stroke-linejoin="round">
   <path d="M203.632 360.619c32.018-.341 58.272 25.356 58.612 57.376.341 32.018-25.357 58.3-57.375 58.64-32.012.341-58.288-25.364-58.64-57.376v-.028a58.097 58.097 0 0 1 1.294-12.863c-.1-1.604 12.563 5.736 12.351 7.57a25.273 25.273 0 0 0-.159 3.281c.003.526.013 1.077.02 1.697h.028c.267 24.378 20.245 43.97 44.622 43.712 24.383-.26 43.972-20.267 43.712-44.651-.254-23.893-19.468-43.18-43.18-43.705m-44.874 40.65c.648-1.86 4.665 1.494 10.284 10.773.043.07-9.62 3.38-9.328 2.867m21.575-10.945c13.347-10.774 21.815-27.335 21.618-45.805-.34-32.019-26.594-57.717-58.613-57.375-32.019.341-57.744 26.594-57.404 58.613v.028c.353 32.012 27.568 59.814 58.641 57.376.81-.065-.997-9.126-.867-13.852-24.379.26-43.972-19.49-44.24-43.867l-.027.001c-.26-24.383 19.327-44.392 43.712-44.651 24.383-.26 44.391 19.327 44.651 43.712.149 13.985-6.232 26.531-16.302 34.737m10.215 66.88c-9.452 18.741-28.773 31.7-51.194 31.938-32.012.34-58.29-25.364-58.64-57.376l-.002-.027c-.194-18.333 8.696-35.645 21.878-46.416 3.553 5.67 6.186 8.89 8.063 10.982-10.584 8.183-16.588 20.724-16.434 35.118h.027c.268 24.379 20.245 43.97 44.623 43.713 17.204-.183 32.02-10.198 39.164-24.643m4.292-14.724a44.576 44.576 0 0 0 .257-5.285c-.26-24.383-20.267-43.971-44.651-43.712-5.164.055-9.881.918-14.471 2.598-2.179-1.862-6.968-6.737-9.243-11.264 6.876-2.976 15.942-4.896 23.898-4.98 32.02-.34 58.273 25.356 58.614 57.375a58.173 58.173 0 0 1-1.288 12.844m-24.594-60.593c5.78-10.5 15.48-19.274 25.147-22.124 1.089-.32.466-10.727-.251-14.198-16.108 4.283-29.294 15.24-36.678 29.78" fill="#0093dd"/>
   <path d="M242.237 371.502c-10.226-8.26-23.194-13.203-37.27-13.368-6.499-26.75-30.732-46.543-59.416-46.238-33.389.356-60.263 27.783-59.908 61.172a2.533 2.533 0 0 0 .001.013l.001.027c.112 9.94 2.74 19.462 7.173 27.906-12.872 11.317-21.421 28.554-21.226 46.954a2.533 2.533 0 0 0 .003.011l-.001.03c.372 33.378 27.821 60.225 61.2 59.869 22.749-.242 42.389-13.097 52.525-31.805 6.165 2.038 12.736 3.162 19.582 3.09 33.391-.356 60.236-27.811 59.88-61.2-.2-18.78-8.964-35.492-22.539-46.456zm-3.155 3.923c12.432 10.038 20.447 25.348 20.63 42.588.326 30.65-24.222 55.755-54.87 56.082-28.53.303-52.237-20.975-55.642-48.642-.02-.176-.027-.297-.048-.479-.08-.687-.082-1.263-.162-1.987-.098-1.25-.216-2.493-.23-3.764a2.533 2.533 0 0 0-.003-.01v-.02l.004-.005c-.035-3.266.295-6.44.804-9.554 1.277.605 2.53 1.247 3.73 1.974 1.109.696 2.229 1.415 3.016 2.033.11.08.206.173.314.255.304.252.539.465.69.621-.074.944-.138 1.86-.133 2.709.004.548.014 1.101.021 1.71a2.533 2.533 0 0 0 .032.074c.324 25.71 21.454 46.416 47.178 46.142 25.753-.274 46.49-21.455 46.216-47.209-.262-24.64-19.67-44.636-43.91-46.083 0-.028.004-.055.004-.083-.031-2.91-.338-5.746-.766-8.542 12.513.38 24.014 4.835 33.125 12.19zm-58.055-46.182c12.433 10.038 20.448 25.347 20.631 42.588.18 16.858-7.227 31.969-18.98 42.278a60.77 60.77 0 0 0-5.59-7.211c8.735-7.883 14.456-18.986 15.31-31.415.011-.111.04-.21.05-.325.019-.247-.006-.595.006-.86.037-.848.13-1.68.122-2.537-.027-2.52-.31-4.974-.722-7.383-.095-.696-.11-1.72-.221-2.261a2.533 2.533 0 0 0-.286-.407c-4.842-20.881-23.684-36.403-45.98-36.165-25.755.274-46.492 21.455-46.218 47.209a2.533 2.533 0 0 0 .031.07c.101 8.159 2.442 15.719 6.17 22.386a2.533 2.533 0 0 0 .013.234c.323.642.76 1.25 1.142 1.877.404.642.752 1.312 1.185 1.933 1.11 1.562 2.235 2.834 3.412 4.118a46.375 46.375 0 0 0 4.121 4.123c7.673 6.764 17.474 11.094 28.388 11.534.077 1.4.166 2.755.327 4.177.07.935.116 1.877.229 2.8.089.773.141 1.36.197 1.957-14.756.424-28.48-6.299-38.369-17.047a2.533 2.533 0 0 0-.05-.102c-1.8-2.007-4.319-5.077-7.8-10.636a2.533 2.533 0 0 0-.03-.018c-4.584-8.108-7.301-17.408-7.408-27.118a2.533 2.533 0 0 0-.003-.01v-.02c-.327-30.648 24.248-55.728 54.897-56.054 13.41-.142 25.752 4.477 35.422 12.284zm46.48 54.861c10.784 7.421 17.908 19.8 18.057 33.892.245 23.013-18.193 41.847-41.206 42.092-4.457.047-8.676-.792-12.713-2.045.663-3.696 1.066-7.48 1.024-11.368a60.135 60.135 0 0 0-7.327-28.161c11.971-10.192 19.886-24.941 21.132-41.523 7.759.476 14.99 2.955 21.033 7.114zm-58.72-46.635c8.247 5.444 14.29 13.815 17.027 23.583-15.05 4.77-27.405 15.172-34.792 28.809-6.146-2.024-12.698-3.14-19.524-3.067-7.537.08-15.762 1.741-22.645 4.366-2.795-5.576-4.538-11.787-4.61-18.463a2.533 2.533 0 0 0-.024-.052c-.214-22.989 18.207-41.794 41.202-42.039a41.486 41.486 0 0 1 23.368 6.863zm18.081 28.558c.25 1.647.506 3.292.556 4.998a37.461 37.461 0 0 1-.019 3.085c-.012.259-.02.516-.037.773-9.373 3.223-18.05 11.143-23.915 20.723-2.44-1.483-4.974-2.827-7.624-3.957 6.73-12.058 17.699-21.26 31.04-25.623zm-.224 14.548c-1.818 8.946-6.514 16.824-13.082 22.696a60.938 60.938 0 0 0-5.902-4.86c4.804-7.871 11.848-14.587 18.985-17.837zm-19.67 23.565c12.434 10.038 20.448 25.349 20.631 42.59.035 3.268-.294 6.446-.802 9.564-3.068-1.391-5.877-3.188-8.494-5.249.12-1.45.228-2.905.212-4.387a2.533 2.533 0 0 0 .001-.002c-.085-7.993-2.368-15.386-5.994-21.935l-.038-.348c-.356-.587-.646-.952-.989-1.494-.743-1.21-1.49-2.395-2.337-3.528-1.482-2.085-2.866-3.844-4.066-5.029a11.87 11.87 0 0 0-1.829-1.504c-.934-.858-1.957-1.612-2.96-2.392-.242-.215-.442-.444-.713-.66-.18-.143-.44-.282-.633-.427a46.26 46.26 0 0 0-2.776-1.88c-.406-.257-.737-.532-1.15-.779-1.64-.976-3.26-1.835-4.618-2.406-.2-.084-.403-.111-.591-.184a46.379 46.379 0 0 0-18.517-3.649c-4.83.051-9.32.894-13.676 2.307-1.698-1.58-4.23-4.244-6.22-7.135 6.122-2.212 13.568-3.684 20.137-3.754 13.41-.143 25.752 4.475 35.424 12.282zm-9.552 10.472c.011.014.06.053.07.065.086.097.006.104-.07-.064zm4.885 4.382c.89.966 1.739 1.965 2.537 3.012.484.672 1.047 1.57 1.577 2.373-.557.188-1.043.359-1.635.551-.657.214-1.168.362-1.756.542-.364-2.122-.693-4.257-.723-6.477zm-17.562-11.249a60.306 60.306 0 0 0-.806 6.136c-8.082-.305-15.543-2.829-21.753-7.143 2.935-.705 5.933-1.2 9.18-1.233 4.7-.05 9.15.852 13.378 2.24zm24.324 21.086c2.656 5.389 4.293 11.367 4.378 17.775-4.222-4.574-7.366-10.082-9.21-16.208.693-.21 1.35-.403 2.116-.651.985-.321 1.89-.631 2.717-.915zm-23.59 4.17c3.407 13.91 11.613 25.897 22.756 34.178-7.015 12.72-20.413 21.458-35.984 21.624-23.007.245-41.812-18.197-42.064-41.208a2.533 2.533 0 0 0-.025-.025c-.131-12.787 4.85-23.81 13.638-31.485 10.898 11.013 25.716 17.687 41.68 16.915zm-50.063-27.514c1.52 2.397 3.152 4.714 4.967 6.871-9.845 8.66-15.438 21.19-15.288 35.292a2.533 2.533 0 0 0 .03.03c.299 25.733 21.44 46.46 47.18 46.187 17.252-.184 32.174-9.791 40.112-23.832a60.4 60.4 0 0 0 8.088 4.237c-9.382 16.8-27.145 28.318-47.771 28.537-30.642.327-55.746-24.23-56.083-54.871a2.533 2.533 0 0 0-.002-.011v-.018c-.175-16.438 7.413-32.06 18.763-42.425z"/>
  </g>
 </g>
 <path d="m3.922 3.915-5e-3 279.23c3.73 152.38 83.242 298.51 266.08 379.05 182.86-80.542 262.35-226.69 266.08-379.05v-279.23z" fill="none" stroke="#000" stroke-width="7.8336"/>
</svg>
