<?xml version="1.0" encoding="UTF-8" standalone="no"?>
<svg xmlns="http://www.w3.org/2000/svg" width="449" height="519">
 <g stroke="#000" stroke-linejoin="round" stroke-linecap="round" stroke-width="3">
  <rect y="4.5" x="4.5" height="240" width="440" fill="#fff"/>
  <path d="m4.5 244.5h440v60c0 120-115 210-220 210-105 0-220-95-220-210z" fill="#da121a"/>
  <g fill="#fff">
   <path d="m28.326 268.81c18.611-5.283 26.759 1.018 22.632 5.593-6.194 6.866 4.458 12.07 7.551 11.04 4.379-1.455 6.03-3.752 7.555-15.476 13.531 9.356 5.924 14.343 3.178 21.06-10.05 24.585 26.991 36.448 31.08 60.46 3.5-5.593 14.661-6.929 27.328-7.429.78-4.843-8.163-4.824-12.862-6.927 2.98-3.47 4.356-5.247 13.888-6.845-6.137-15.609 7.632-12.913 22.508-2.383 2.593 1.46 7.627-2.923 8.869-5.581-30.13-19.16-38.989-5.951-59.985-8.245-19.737-2.157-7.202-20.321-2.78-17.24 7.56 5.269 15.534 9.669 24.804 9.248 9.709-.44 19.851.249 30.488 3.932 5.291 3.212 8.645 5.322 8.951-7.418 1.026-8.738-9.781-7.723-16.982-7.652-2.754.027-5.722.283-8.62 6.704-1.02 2.26-3.379-1.613-4.695-2.365-5.078-2.902-6.57-5.396-6-9.06 1.336-8.592-1.944-16.859 23.445-17.848 2.567-7.905 23.02-2.507 29.26-6.946 5.622-3.998 25.332-6.801 16.758 2.897-7.81 8.834-1.134 20.784 5.184 32.574 1.809 6.594-11.05-2.829-16.579-5.339 3.39 6.251 15.178 9.434 16.954 13.838 2.137 2.691.186 6.695-4.197 7.523 4.767 1.461 8.112 3.775 9.244 7.418-1.96 2.247-3.495 5.265-10.589 7.512 11.186 1.36 28.72-5.138 27.648 9.294-15.251-2.79-21.641-.273-25.21 1.147 4.579 6.621 13.494 5.431 24.12 6.01-3.071 7.977-5.335 9.509-16.397 12.492 7.339-.523 23.358.358 17.948 13.1 34.2-4.348 47.28-3.642 81.35-12.746 18.01-4.812 27.27-.534 38.701 3.237 10.914-18.671 47.23-23.321 50.1-45.601 2.549-19.777-19.481-16.418-33.947-10.374-21.469 8.969-36.559 9.683-55.948 13.932-21.256 4.658-45.03 18.659-57.61 3.728-18.796-22.311-6.546-46.19 13.319-54.12 3.056-6.227 16.884-18.17 31.33-15.382 2.01 3.696-2.934 11.1-5.99 13.783 6.089 1.373 11.634 3.291 15.675 6.712-13.171 7.455-20.698 12.758-36.583 5.04-19.19 18.765-22.08 43.537 7.573 36.517-1.03-9.34-4.03-17.988 10.07-23.374-2.567 12.306 3.915 11.329-2.788 18.677-1.561 1.711 10 1.885 14.215 1.713 5.996-3.521 2.326-7.04 1.693-10.562 13.03.222 19.913 1.195 24.797 5.488-2.241-15.837 12.925-26.773 32.24-35.425.133 12.47-15 12.325-15.339 25.16 11.247-4.127 22.67-9.306 32.933-7.523 7.599-.708 4.267-4.339 2.454-10.242 10.118 1.202 16.601 10.934 21.494 8.764 4.82-11.77 10.216-13.721 24.93-21.736-1.588 24.826-12.265 13.68-14.01 33.974-.705 8.2 6.948 12.1 17.98 5.01 1.143 7.03-13.487 21.971-21.19 28.05-11.12 8.771-21.519 13.357-37.13 23.479-8.488 5.503-17.1 14.933-13.1 24.02 5.155 11.731 17.671 4.01 27.968-1.384 5.678-2.974 10.792-4.685 17.15-.706-6.146 5.388-14.867 10.261-6.9 18.471-3.114 12.279-2.76 28.474-24.891 37.78-12.973 5.456-14.776 10.254-17.846 16.907 1.503 6.795-.256 13.696-8.854 15.44 5.116-7.456 2-9.235-7.219-10.546-6.04 5.01-5.396 10.372-4.263 16.408-6.549-1.84-10.201-6.439-9.773-12.266-8.631.507-10.1 7.398-11.654 11.919-4.959-5.711-4.073-10.461 1.053-17.18-.134-6.621-6.446-6.733-10.441-5.62 4.298-16.819 13.145-2.727 20.699-4.087 13.256-2.387 16.911-12.473 24.17-19.309 6.991-2.535 8.377-5.07.971-7.605-9.909-2.812-28.549 30.915-27.27 12.746-1.125-.428.26-2.906-.508-3.555-1.241-1.049-3.213 3.619-4.88-1.943-2.054-6.848 3.099-17.416 1.897-25.16-1.906-12.284-10.677-6.733-10.981-4.175-.99 8.347 9.184 21.04-2.427 22.795-2.499 17.672-8.08 20.974-13.584 24.61 10.337 12.09 3.591 28.24 12.862 36.13-16.656-3.946-24.462 13.494-33.732 3.888-7.488 8.089-18.07 7.621-25.553 3.358-2.413 9.794-9.464 13.322-17.02 10.772 4.55-4.637 6.7-13.624-2.184-14.29-11.191-.215-11.161 8.231-9.403 15.647-13.09-2.362-7.709-9.851-11.174-11.544-9.179-4.486-10.226 3.539-15.73 6.459-3.184-20.547 10.331-16.05 17.379-17.192-1.986-6.327-2.909-9.553-12.862-6.916 5.089-12.891 13.915-11.666 20.14-2.168 6.548 9.997 24.402-8.786 47.62-3.53 11.561 2.617 3.02-9.509-.304-13.877-12.175-7.774-18.224-2.267-28.553-1.732.325-18.421 30.868-9.532 34.37-15.581 17.597-17.472 18.243-21.771 19.2-29.458-12.78 3.639-31.522 6.817-46.963 13.916-14.288 6.569-41.472 14.53-42.678 5.167l-10.975 4.053c-2.835 26.521-9.134 21.641-15.78 24.34 2.265 4.571 11.452 6.254 9.481 13.424-9.757-1.569-20.996-.207-30.401-9.801l-13.877 10.441c1.615-7.44 4.06-14.88.745-22.321-5.525 7.165-10.226 15.814-20.683 14.1 7.55-11.659 8.619-18.999 6.938-24.505-4.221 6.569-9.387 11.01-17.699 8.378 2.902-6.074 6.882-11.717 4.887-19.75-8.451 1.68-21.996 10.799-21.632-4.658-7.863 2.74-13.404.534-17.17-3.891 5.514-1.825 15.916-1.417 12.625-7.446-6.59-12.07-13.328-2.873-17.726 1.318-7.215-8.233.867-10.903 4.048-15.355-2.969-10.261-9.104-4.692-13.904-5.796 6.63-13.823 16.331-11.518 19.364-8.4 2.311 2.375 4.119 5.369 1.026 9.08 12.661 7.162 9.51-3.746 9.497-10.187 10.23 3.216 7.538 11.601 8.135 18.67 4.901-3.583 9.802-6.04 14.704-4.517 6.05-11.645-2.179-11.608-6.712-14.594-8.235-.426-4.825-12.497-7.192-18.791 1.174 7.719-4.115 9.885-10.137 12.465-1.215-9.104-3.265-11.259-3.607-17.274-3.363.941-10.479 6.363-10.496-3.249-9.951.786-6.161-9.61-7.07-16.182-6.096 2.884-6.583-2.646-6.607-8.869-8.654 3.634-12.722-.374-15.234-6.977 3.895-.301 11.674 1.329 7.2-9.47-2.076-4.929-7.421-7.409-14.618-5.168 4.783-8.999 9.29-10.869 19.271-6.299-3.118-5.01-8.765-9.624-4.887-16.634 6.656-9.388-6.01-10.436-11.06-14.01z"/>
   <path d="m205.5 439.5l-4 12h9l4-12z"/>
   <path d="m369.39 317.75l-4 12h9l4-12z"/>
   <path d="m319.97 333.59l-4 12h9l4-12z"/>
   <path d="m244.89 349.15l-4 12h9l4-12z"/>
   <path d="m284.21 341.5l-4 12h9l4-12z"/>
   <path d="m219.78 271.07l-4 12h9l4-12z"/>
   <path d="m312.54 262.88l-4 12h9l4-12z"/>
   <path d="m380.03 262.88l-4 12h9l4-12z"/>
   <path d="m93.1 268.88l-4 12h9l4-12z"/>
   <path d="m389.86 360.07l-4 12h9l4-12z"/>
  </g>
 </g>
 <path d="m184.5 4.5v83h-180v70h180v86.1h80v-86.1h180v-70h-180v-83z"/>
 <g stroke="#000" stroke-linejoin="round" stroke-linecap="round">
  <path d="m174.01 284.18c-6.06-.372-7.782.038-9.459 1.617-2.753-1.94-4.71-6.643-10.521-9.242 10.566-1.95 13.92-5.354 19.98 7.625z"/>
  <path d="m195.06 388.81c-3.832-6.568-5.777-16.654-10.618-19.691-4.108 5.335-10.1 16.551-9.07 25.482l-10.425-14.286c-3.575 2.828-6.27 8.886-8.301 17.374-4.621-5.255-4.921-11.383-16.988-15.251-.515 7.207 1.328 15.572-1.93 22.78-13.994-17.29-15.948-10.709-10.811-30.12-8.623 7.354-17.246 9.794-25.868 9.942-9.905-14.264-7.218-25.331-.869-33.01 4.708 11.436 10.913 20.11 12.838 18.822 14.656-7.17 11.617-9.622 9.845-19.11 8.217 1.353 13 .775 15.04-2.505m88.79 24.355c-11.432 1.744-21.552 1.952-26.807-.421 6.661 8.763 17.86 19.13 16.602 25.1-5.64.868-13.63-4.73-21.235-9.266-5.251 4.387-19.18 11.667-1.615 20.836-16.873 2.23-7.798 9.158-5.712 17.01-10.599 4.636-18.82 4.542-25.1-12.364-4.774 2.9-8.997 8.555-12.741 16.602-4.878-3.087-9.119-12.544-13.513-20.463-1.911 6.67-2.052 14.466-9.266 17.76-6.553-4.64-10.838-12.348-8.687-28.764-15.848 8.305-16.27 4.167-33.59-.965m42.479-54.41c14.734.136 12.973 14 18.717 22.363 1.091-5.739 4.856-12.205 6.95-12.934.788 8.03 3.79 9.975 6.564 12.548 10.31-6.669 12.215-17.923 10.232-26.641 4.964 1.613 9.08 8.552 14.479 6.564-.886-5.071-2.929-9.853-7.915-13.899 3.354-2.149 7.862-1.604 9.845-6.95-.442-4.09-3.493-6.787-7.529-11.39 3.985-3.416 11.12-3.68 4.44-17.76" fill="none" stroke-width="3"/>
 </g>
 <path transform="matrix(.82804.56067-.56067.82804 184.56-48.35)" d="m171.4372 282.62131a4.354731 2.170366 0 1 1 -8.70946 0 4.354731 2.170366 0 1 1 8.70946 0" fill="#fff"/>
 <path d="m185 158l79.5-70.5m-80 0l80.5 70.5m-40-151v234m-217-117h434" fill="none" fill-rule="evenodd" stroke="#fefcfe" stroke-linejoin="round" stroke-linecap="round" stroke-width="3"/>
</svg>
