<?xml version="1.0" encoding="UTF-8" standalone="no"?>
<!-- Created with Inkscape (http://www.inkscape.org/) -->

<svg
   width="117.18005mm"
   height="138.04466mm"
   viewBox="0 0 117.18005 138.04466"
   version="1.1"
   id="svg1701"
   inkscape:version="1.2.2 (732a01da63, 2022-12-09)"
   sodipodi:docname="Wappen Bendfeld2.svg"
   xmlns:inkscape="http://www.inkscape.org/namespaces/inkscape"
   xmlns:sodipodi="http://sodipodi.sourceforge.net/DTD/sodipodi-0.dtd"
   xmlns="http://www.w3.org/2000/svg"
   xmlns:svg="http://www.w3.org/2000/svg">
  <sodipodi:namedview
     id="namedview1703"
     pagecolor="#ffffff"
     bordercolor="#666666"
     borderopacity="1.0"
     inkscape:showpageshadow="2"
     inkscape:pageopacity="0.0"
     inkscape:pagecheckerboard="0"
     inkscape:deskcolor="#d1d1d1"
     inkscape:document-units="mm"
     showgrid="false"
     inkscape:zoom="1.0259442"
     inkscape:cx="221.74695"
     inkscape:cy="261.71014"
     inkscape:current-layer="layer1" />
  <defs
     id="defs1698" />
  <g
     inkscape:label="Ebene 1"
     inkscape:groupmode="layer"
     id="layer1"
     transform="translate(-532.89302,-83.253089)">
    <g
       id="g1681"
       transform="translate(491.04021,1.8729782)">
      <path
         id="path1631"
         style="fill:#ffffff;stroke:#000000;stroke-width:2.1;stroke-linecap:round;stroke-dasharray:none"
         d="M 42.902808,82.430111 V 160.9571 a 57.4179,57.4179 0 0 0 57.417682,57.41768 57.4179,57.4179 0 0 0 57.41769,-57.41768 57.4179,57.4179 0 0 0 0,-5.2e-4 V 82.430111 Z" />
      <path
         id="path1642"
         style="fill:#ff0000;stroke:#000000;stroke-width:1.1;stroke-linecap:round;stroke-dasharray:none"
         d="M 42.902808,82.430111 V 160.9571 a 57.4179,57.4179 0 0 0 9.152929,31.03635 L 157.73818,82.430111 Z" />
      <path
         id="path1648"
         style="fill:none;stroke:#000000;stroke-width:2.1;stroke-linecap:round;stroke-dasharray:none"
         d="M 42.902808,82.430111 V 160.9571 a 57.4179,57.4179 0 0 0 57.417682,57.41768 57.4179,57.4179 0 0 0 57.41769,-57.41768 57.4179,57.4179 0 0 0 0,-5.2e-4 V 82.430111 Z" />
      <g
         id="g1673"
         transform="translate(-121.17915)">
        <path
           id="path915"
           style="fill:#ffffff;stroke:#000000;stroke-width:0.4;stroke-linecap:round;stroke-dasharray:none"
           d="m 197.43639,92.266126 c -11.24219,2.7e-5 -20.35584,9.113674 -20.35587,20.355864 2e-5,7.55738 4.11854,14.15289 10.23349,17.66455 v 3.48713 c -1.40138,0.0693 -2.50264,1.22465 -2.50476,2.62774 0.002,1.4031 1.10337,2.55844 2.50476,2.62775 v 20.18895 l 11.90211,-12.19667 v -7.98866 c 1.40279,-0.0694 2.50458,-1.22687 2.50476,-2.63137 -1.9e-4,-1.40449 -1.10198,-2.56197 -2.50476,-2.63136 v -0.87695 c 0.01,-8.7e-4 0.0189,-0.002 0.0284,-0.003 -0.005,-0.37777 -0.0127,-0.76267 -0.0284,-1.13637 -0.0376,-0.89388 0.009,-1.68299 -0.25011,-2.16886 -1.73204,-3.25029 -19.36492,-5.19808 -15.29002,-20.98683 3.18321,-12.333851 17.22577,-12.20259 22.86488,-8.51912 12.74595,8.32568 7.06823,20.87477 5.49514,21.38603 0,0 -1.67719,-1.76843 -3.83749,-1.76578 -1.97009,0.002 -4.33737,1.87251 -4.00441,4.5129 0.4874,3.86512 4.80276,4.21995 6.94532,2.66599 5.20021,-3.77162 6.5959,-9.57133 6.65282,-14.25649 -3e-5,-11.24219 -9.11367,-20.355837 -20.35586,-20.355864 z m -4.17133,41.500304 c 1.45527,-3e-5 2.63502,1.17971 2.63499,2.63498 3e-5,1.45528 -1.17972,2.63502 -2.63499,2.63498 -1.45527,3e-5 -2.63501,-1.17971 -2.63498,-2.63498 -3e-5,-1.45527 1.17971,-2.635 2.63498,-2.63498 z"
           sodipodi:nodetypes="cscccccccccccscssccsscccccccc" />
        <path
           id="path1515"
           style="fill:#0000ff;stroke:#000000;stroke-width:0.4;stroke-linecap:round;stroke-dasharray:none"
           d="m 225.89641,151.22968 c 0,0 2.79728,2.31704 6.11125,9.62474 1.78063,3.92652 2.59657,8.01406 2.97088,10.95799 -1.26694,-2.2294 -3.66699,-6.08421 -6.36447,-8.53643 -3.97659,-3.61512 -9.00979,-4.33824 -9.00979,-4.33824 0,0 2.79725,2.317 6.11126,9.62474 1.87166,4.12722 2.67778,8.43367 3.02514,11.40137 -1.08476,-2.06394 -3.55274,-6.38154 -6.49728,-9.05836 -3.97661,-3.61512 -9.0103,-4.33824 -9.0103,-4.33824 0,0 2.79725,2.31703 6.11125,9.62473 0.76934,1.69649 1.94736,5.66402 2.39882,7.31584 0,0 3.27428,0.83175 8.63048,1.00872 5.35622,0.17697 10.03919,0.19482 10.03919,0.19482 0,0 4.68296,-0.0179 10.03918,-0.19482 5.3562,-0.17697 8.63048,-1.00872 8.63048,-1.00872 0.45146,-1.65182 1.62949,-5.61935 2.39882,-7.31584 3.31399,-7.3077 6.11125,-9.62473 6.11125,-9.62473 0,0 -5.03369,0.72312 -9.0103,4.33824 -2.94454,2.67682 -5.41252,6.99442 -6.49728,9.05836 0.34736,-2.9677 1.15348,-7.27415 3.02514,-11.40137 3.31401,-7.30774 6.11125,-9.62474 6.11125,-9.62474 0,0 -5.03319,0.72312 -9.00978,4.33824 -2.69748,2.45222 -5.09753,6.30703 -6.36447,8.53643 0.37431,-2.94393 1.19025,-7.03147 2.97088,-10.95799 3.31397,-7.3077 6.11125,-9.62474 6.11125,-9.62474 0,0 -5.0337,0.72312 -9.0103,4.33824 -3.97663,3.61512 -5.50612,7.36906 -5.50612,7.36906 0,0 -1.5295,-3.75394 -5.50613,-7.36906 -3.97659,-3.61512 -9.0103,-4.33824 -9.0103,-4.33824 z" />
      </g>
    </g>
  </g>
</svg>
