<?xml version="1.0" encoding="UTF-8" standalone="no"?>
<!-- Created with Inkscape (http://www.inkscape.org/) -->

<svg
   xmlns:dc="http://purl.org/dc/elements/1.1/"
   xmlns:cc="http://creativecommons.org/ns#"
   xmlns:rdf="http://www.w3.org/1999/02/22-rdf-syntax-ns#"
   xmlns:svg="http://www.w3.org/2000/svg"
   xmlns="http://www.w3.org/2000/svg"
   xmlns:sodipodi="http://sodipodi.sourceforge.net/DTD/sodipodi-0.dtd"
   xmlns:inkscape="http://www.inkscape.org/namespaces/inkscape"
   version="1.0"
   width="208.86046"
   height="244.65999"
   id="svg2780"
   inkscape:version="0.92.4 (5da689c313, 2019-01-14)"
   sodipodi:docname="Gunzgen-blazon.svg">
  <metadata
     id="metadata27">
    <rdf:RDF>
      <cc:Work
         rdf:about="">
        <dc:format>image/svg+xml</dc:format>
        <dc:type
           rdf:resource="http://purl.org/dc/dcmitype/StillImage" />
        <dc:title></dc:title>
      </cc:Work>
    </rdf:RDF>
  </metadata>
  <sodipodi:namedview
     pagecolor="#ffffff"
     bordercolor="#666666"
     borderopacity="1"
     objecttolerance="10"
     gridtolerance="10"
     guidetolerance="10"
     inkscape:pageopacity="0"
     inkscape:pageshadow="2"
     inkscape:window-width="3259"
     inkscape:window-height="1417"
     id="namedview25"
     showgrid="false"
     inkscape:zoom="2.8284271"
     inkscape:cx="63.99064"
     inkscape:cy="114.34579"
     inkscape:window-x="-8"
     inkscape:window-y="-8"
     inkscape:window-maximized="1"
     inkscape:current-layer="svg2780"
     inkscape:measure-start="104.255,149.787"
     inkscape:measure-end="104.255,126.383"
     showguides="true"
     inkscape:object-paths="true"
     inkscape:snap-intersection-paths="true"
     inkscape:guide-bbox="true" />
  <defs
     id="defs2782" />
  <path
     inkscape:connector-curvature="0"
     style="fill:#1b63c6;fill-opacity:1;fill-rule:evenodd;stroke:#000000;stroke-width:1.99999988;stroke-linecap:butt;stroke-miterlimit:4;stroke-dashoffset:0;stroke-opacity:1"
     id="path4212"
     d="m 1,1 3.761095,158.00304 c 2.686489,112.85918 196.651755,112.85918 199.338255,0 L 207.86045,1 Z" />
  <path
     style="opacity:1;fill:#ffffff;fill-opacity:1;stroke:#000000;stroke-width:1;stroke-miterlimit:7;stroke-dasharray:none;stroke-dashoffset:4.57999992;stroke-opacity:1"
     d="M 3.7967197,118.48978 H 205.06373 L 207.86045,1 H 1 Z"
     id="path6306"
     inkscape:connector-curvature="0" />
  <path
     inkscape:connector-curvature="0"
     style="opacity:1;fill:#feeb00;fill-opacity:1;stroke:#000000;stroke-width:1;stroke-miterlimit:7;stroke-dasharray:none;stroke-dashoffset:4.57999992;stroke-opacity:1"
     d="m 100.43488,137.29249 h 7.99072 v 35.04005 h -7.99072 z"
     id="rect6119" />
  <path
     inkscape:connector-curvature="0"
     style="opacity:1;fill:#feeb00;fill-opacity:1;stroke:#000000;stroke-width:1;stroke-miterlimit:7;stroke-dasharray:none;stroke-dashoffset:4.57999992;stroke-opacity:1"
     d="m 146.92071,175.78759 -1e-5,7.99073 h -35.04003 l -10e-6,-7.99074 z"
     id="rect6119-11-9" />
  <path
     inkscape:connector-curvature="0"
     style="opacity:1;fill:#feeb00;fill-opacity:1;stroke:#000000;stroke-width:1;stroke-miterlimit:7;stroke-dasharray:none;stroke-dashoffset:4.57999992;stroke-opacity:1"
     d="m 61.93979,183.7783 10e-6,-7.99072 35.040049,-1e-5 v 7.99073 z"
     id="rect6119-11" />
  <path
     inkscape:connector-curvature="0"
     style="opacity:1;fill:#feeb00;fill-opacity:1;stroke:#000000;stroke-width:1;stroke-miterlimit:7;stroke-dasharray:none;stroke-dashoffset:4.57999992;stroke-opacity:1"
     d="m 71.55981,152.5628 5.650297,-5.65029 24.777063,24.77705 -5.650301,5.6503 z"
     id="rect6119-1" />
  <path
     inkscape:connector-curvature="0"
     style="opacity:1;fill:#feeb00;fill-opacity:1;stroke:#000000;stroke-width:1;stroke-miterlimit:7;stroke-dasharray:none;stroke-dashoffset:4.57999992;stroke-opacity:1"
     d="m 77.210107,212.65339 -5.650286,-5.65031 24.777048,-24.77706 5.650301,5.6503 z"
     id="rect6119-9" />
  <path
     inkscape:connector-curvature="0"
     style="opacity:1;fill:#feeb00;fill-opacity:1;stroke:#000000;stroke-width:1;stroke-miterlimit:7;stroke-dasharray:none;stroke-dashoffset:4.57999992;stroke-opacity:1"
     d="m 137.30069,207.0031 -5.65029,5.65029 -24.77708,-24.77705 5.6503,-5.65031 z"
     id="rect6119-1-1" />
  <path
     inkscape:connector-curvature="0"
     style="opacity:1;fill:#feeb00;fill-opacity:1;stroke:#000000;stroke-width:1;stroke-miterlimit:7;stroke-dasharray:none;stroke-dashoffset:4.57999992;stroke-opacity:1"
     d="m 131.6504,146.91251 5.65028,5.65031 -24.77706,24.77705 -5.65029,-5.6503 z"
     id="rect6119-9-5" />
  <path
     inkscape:connector-curvature="0"
     style="opacity:1;fill:#feeb00;fill-opacity:1;stroke:#000000;stroke-width:1;stroke-miterlimit:7;stroke-dasharray:none;stroke-dashoffset:4.57999992;stroke-opacity:1"
     d="m 108.42562,222.27341 h -7.99072 l -1e-5,-35.04006 7.99073,1e-5 z"
     id="rect6119-2" />
  <path
     style="opacity:1;fill:#feeb00;fill-opacity:1;stroke:#000000;stroke-width:1;stroke-miterlimit:7;stroke-dasharray:none;stroke-dashoffset:4.57999992;stroke-opacity:1"
     d="m 104.42967,167.43994 c -6.816437,5.8e-4 -12.341785,5.52685 -12.341246,12.34328 5.86e-4,6.81563 5.525606,12.34065 12.341246,12.34124 6.81643,5.4e-4 12.34269,-5.52481 12.34328,-12.34124 5.4e-4,-6.81723 -5.52606,-12.34383 -12.34328,-12.34328 z m 0,7.35244 c 2.75631,1.2e-4 4.99071,2.23452 4.99083,4.99084 -1.2e-4,2.75631 -2.23452,4.99072 -4.99083,4.99084 -2.75633,-1.2e-4 -4.990732,-2.23452 -4.990843,-4.99084 1.16e-4,-2.75632 2.234523,-4.99072 4.990843,-4.99084 z"
     id="path6117"
     inkscape:connector-curvature="0"
     sodipodi:nodetypes="cccccccccc" />
  <g
     id="g8060">
    <path
       sodipodi:nodetypes="ccccsssssssssssssssssssssssssscccccssssssssssssssssssssssssscccscccscccsssssssssssssssssssssssscccccscssssssssssssssssssssscssccccsssssssssssssssssssssssssc"
       inkscape:connector-curvature="0"
       d="M 102.81943,66.488618 C 99.31634,58.518357 94.37381,54.974705 89.54798,50.72253 l -2.1875,1.5 c 5.36938,4.434452 11.71844,11.049263 12.90533,17.979471 C 93.69225,62.817474 81.77504,57.498895 72.8819,54.178028 c -2.84255,-1.06146 -0.650259,-3.77716 -2.765883,-4.53822 -2.762144,-0.993634 -0.802077,-3.479911 -3.167487,-3.255057 -3.427762,0.325841 -2.014569,-3.440748 -4.291563,-4.216819 -2.85889,-0.974399 -0.699945,3.951037 -3.158374,2.272039 -2.059936,-1.406843 -1.953068,-5.221469 -3.018447,-7.503104 -0.771303,-1.651834 -4.311513,-2.830768 -4.605258,-0.789567 -0.216873,1.507014 -1.299483,3.510769 -2.099988,1.428679 -1.254609,-3.263208 -1.556424,-9.773292 -5.723015,-9.155408 -2.842992,0.421604 -3.946685,5.943356 -6.600845,4.033978 -1.660619,-1.194636 -3.841694,-2.234675 -5.739556,-1.513697 -2.090592,0.794193 0.150595,4.320996 -2.645471,4.179088 -2.004226,-0.10172 -4.697609,-1.034874 -5.394465,1.158905 -0.669509,2.107691 1.764703,4.124148 3.003041,4.759159 1.749383,0.897072 1.002696,3.004032 -0.546142,4.177044 -2.077464,1.573369 0.213205,3.300599 1.312029,4.005571 1.872114,1.20109 5.4941,-1.892045 6.847732,-0.417368 1.214397,1.322993 -2.444092,4.674317 0.809967,5.410192 3.065491,0.693231 6.334667,0.434302 8.6176,-1.60281 1.041694,-0.929527 6.766562,-2.383837 5.498177,-0.06613 -1.084855,1.982346 -0.958231,5.208117 1.991446,4.467878 2.002002,-0.502416 2.729893,-2.34276 4.445253,-3.468392 1.219415,-0.800189 4.300908,-2.136176 3.844577,0.4558 -0.400888,2.277053 1.628042,2.824693 2.982203,1.476768 1.308891,-1.302862 2.489896,1.782693 3.506037,2.21529 3.92282,1.670044 1.093858,-3.568959 5.894603,-1.583168 8.463864,3.501009 23.099344,10.311361 25.398194,17.160915 -6.41591,-5.30892 -14.121874,-5.827016 -18.853284,-5.047066 l 0.875,2.78125 c 6.86699,-1.33104 17.122,1.66065 17.125,11.6875 v 13.85708 c -11.695,-6.78745 -22.90244,-10.46228 -35.01352,-10.54268 -3.03419,-0.02014 -1.164201,-3.345386 -3.47609,-2.649609 -3.434361,1.033592 -1.653483,-1.1378 -4.12625,-1.386441 -3.760846,-0.37816 -2.56368,-1.414381 -4.79468,-1.540635 -2.836612,-0.160526 0.44868,3.61709 -2.33772,3.228672 -2.334732,-0.325456 -2.212784,-3.364824 -4.068663,-4.949668 -1.343591,-1.147372 -4.839209,-0.577452 -4.23681,1.419587 0.444751,1.474415 -1.260619,3.316405 -2.808499,1.790404 -2.42595,-2.39166 -4.604292,-7.16038 -9.50669,-4.22416 -2.41248,1.44492 -0.03781,5.788195 -3.08639,5.280712 -1.907399,-0.317516 -4.191892,-0.252348 -5.50135,1.28645 -1.442452,1.695085 3.01372,3.9169 0.58216,5.086404 -1.74295,0.838306 -4.601808,1.126036 -4.27778,3.44942 0.311312,2.232204 2.3191,3.004257 3.63471,3.007684 1.85857,0.0048 2.271058,0.898584 1.44634,2.687279 -1.106212,2.399213 1.55796,2.909523 2.7844,3.041683 2.08953,0.22516 3.705152,-2.902959 5.46893,-2.187589 1.582372,0.641795 -0.12348,5.396059 2.94448,4.555209 2.89019,-0.79213 5.555938,-2.54678 6.643,-5.464141 0.496018,-1.331172 2.430374,-4.829599 3.44619,-2.377772 0.885238,2.136657 1.953632,4.879913 4.14749,2.834958 1.489014,-1.387955 1.93624,-3.327683 2.922032,-5.150546 0.700768,-1.295815 2.757902,-3.945057 3.45215,-1.370449 0.609882,2.261736 3.79468,2.869993 5.11517,-0.19553 1.285736,-2.984841 1.808502,-3.98034 5.8954,-4.011742 7.131693,-0.0548 16.75612,2.10045 22.34574,5.71287 -4.95989,0.33582 -10.92488,1.2174 -15.21875,2.71875 l 1.5625,3.25 c 5.80831,-3.04064 25.71599,-5.61578 25.71599,6.062512 v 12.57979 h 8.353769 8.35377 v -12.57979 c 0,-11.678288 19.90768,-9.103143 25.71599,-6.062503 l 1.5625,-3.25 c -4.29387,-1.501356 -10.25886,-2.38293 -15.21875,-2.71875 5.58962,-3.612418 15.21384,-5.705706 22.34574,-5.712868 4.97465,-0.005 2.10066,3.080529 4.62055,3.619249 1.02199,0.218489 2.67663,-1.225882 3.2436,0.424372 0.58658,1.707338 1.98802,1.866667 3.14642,0.03605 2.22799,-3.520903 1.88236,4.54718 6.37418,5.993164 2.74985,0.885216 3.64713,-0.76885 3.55374,-2.892686 -0.10918,-2.483131 3.54392,-0.157167 4.03994,2.472508 0.53627,2.843064 3.71386,5.572584 6.643,5.021844 3.03671,-0.57096 1.36211,-3.596636 2.94448,-4.186481 1.76378,-0.657466 3.3794,2.217441 5.46893,2.010501 1.22644,-0.12146 3.89061,-0.59046 2.7844,-2.795462 -0.82472,-1.64391 -0.41223,-2.46511 1.44634,-2.469765 1.31561,-0.0033 3.3234,-0.712711 3.63471,-2.764229 0.32403,-2.135315 -2.53483,-2.39976 -4.27778,-3.17021 -2.43156,-1.074841 2.02461,-3.116814 0.58216,-4.674686 -1.30946,-1.414242 -3.59395,-1.474137 -5.50135,-1.18232 -3.04858,0.466407 -1.38995,-2.713558 -3.08639,-4.85327 -2.4649,-3.10896 -6.95574,1.49667 -9.38169,3.694738 -1.54788,1.402478 -2.2292,-0.265386 -1.78445,-1.620451 0.6024,-1.835389 -2.89322,-2.359178 -4.23681,-1.304678 -1.85588,1.456562 -2.88298,4.412377 -5.21771,4.711487 -2.7864,0.356977 0.39634,-3.282568 -2.33772,-2.967326 -2.25632,0.260158 -2.81533,3.396198 -6.23218,1.290929 -3.0727,-1.893223 -2.6641,3.413395 -6.16484,3.446484 -12.11081,0.11447 -23.31852,3.755232 -35.01352,10.542681 V 82.691237 c 0.003,-10.02685 10.25801,-13.018539 17.125,-11.6875 l 0.875,-2.78125 c -4.73141,-0.779957 -10.86534,-0.715173 -17.28125,4.59375 3.7676,-7.443307 15.78478,-13.206593 23.82616,-16.707602 4.56111,-1.985791 1.33081,1.907046 5.22053,0.327436 1.00756,-0.409173 1.96601,-2.395832 3.22349,-1.079872 1.30097,1.361477 3.30591,0.857706 2.96153,-1.406118 -0.39201,-2.576918 2.60601,-1.1942 3.7865,-0.378012 1.66061,1.14814 2.86432,2.645371 4.82002,3.181501 2.88147,0.789916 1.98765,-2.156823 2.0532,-4.388737 0.0856,-2.914462 3.86781,-0.429999 4.87092,0.510938 2.19837,2.062119 3.90413,3.318759 6.93047,2.690579 3.2125,-0.666821 1.19143,-4.99491 2.4131,-6.282515 1.36171,-1.435213 4.14021,0.569828 6.00529,-0.584396 1.0947,-0.677466 3.38236,-2.344983 1.37577,-3.943681 -1.496,-1.191896 -1.47144,-2.16478 0.26648,-3.020124 1.23023,-0.605473 2.7975,-2.202012 2.18557,-4.303171 -0.63693,-2.186983 -3.4298,-1.130572 -5.40081,-1.068157 -2.74971,0.08708 0.52293,-3.902634 -1.51347,-4.729563 -1.84867,-0.750694 -4.01376,0.238046 -5.67094,1.389919 -2.64868,1.841041 -3.09655,-3.558974 -6.81764,-3.781135 -4.13044,-0.2466 -4.44981,4.349718 -5.75306,7.558954 -0.83153,2.047648 -2.16935,0.530992 -2.34967,-0.96634 -0.24426,-2.028088 -3.74747,-0.927752 -4.54099,0.694152 -1.09606,2.240292 -0.40249,6.59318 -2.45654,7.947671 -2.45141,1.616519 -0.95912,-3.298654 -3.4952,-1.762689 -2.02887,1.228772 -0.50515,3.935458 -3.86524,3.546989 -2.31871,-0.268075 -0.13468,2.776153 -3.01852,2.951996 -3.72992,0.227433 0.60797,3.902264 -2.23458,4.963724 -8.89314,3.320867 -20.18627,9.347473 -26.75983,16.732003 0.87439,-6.961461 6.91187,-14.253049 12.28125,-18.687501 l -2.1875,-1.5 c -4.82583,4.252175 -10.20586,8.733327 -13.27145,16.359836 V 54.394821 c 0,-4.974853 3.30851,-2.469752 3.56489,-5.037263 0.10398,-1.041307 -1.81572,-2.502108 0.0176,-3.271203 1.89669,-0.795681 2.08412,-2.781306 -0.41914,-3.126183 -2.84947,-0.392574 0.73717,-3.31284 2.01748,-4.157188 1.80102,-1.187748 3.55565,-0.07338 5.06878,-3.491608 1.23312,-2.785672 -1.42719,-3.522197 -3.8798,-3.16368 -2.86753,0.419167 0.75447,-3.363039 2.10249,-4.008309 2.95427,-1.414144 3.91704,-4.260788 4.32482,-7.219375 0.43287,-3.140568 -3.84269,-0.901173 -4.75949,-2.397259 -1.0219,-1.667601 1.19596,-3.365232 0.6495,-5.412424 -0.32074,-1.201589 -1.25571,-3.7860957 -3.65417,-2.412562 -1.78815,1.024022 -2.80222,0.71757 -3.07992,-1.1257917 -0.19658,-1.3048589 -1.31457,-3.2080483 -3.7425,-3.2600978 -2.5271,-0.054176 -3.03403,2.4617389 -3.67334,4.2874245 -0.891878,2.546982 -4.269576,-1.6185224 -5.867304,0.0076 -1.450422,1.476199 -0.212986,4.103761 0.405352,5.959631 0.988283,2.966217 -3.691664,1.254804 -5.183628,3.669645 -2.186557,3.539093 2.996572,6.8167 5.901127,8.945937 1.858784,1.362616 -0.305999,2.63047 -1.944725,2.358848 -2.219599,-0.367903 -2.315683,3.165783 -0.894284,4.366808 1.963338,1.658943 5.279222,1.631483 5.263406,4.012358 -0.01689,2.543015 -3.811096,-0.08315 -3.103279,2.690776 0.566255,2.219145 4.785772,1.574581 3.184213,4.547166 -2.193698,4.071629 4.480382,2.247651 4.480352,6.50754 z"
       style="opacity:1;fill:#009645;fill-opacity:1;stroke:#000000;stroke-width:1;stroke-miterlimit:12;stroke-dasharray:none;stroke-dashoffset:4.57999992;stroke-opacity:1"
       id="path7856-1" />
    <path
       sodipodi:nodetypes="cscc"
       inkscape:connector-curvature="0"
       id="path6321-61"
       d="m 67.805565,107.65066 c -4.958679,4.15317 -15.243194,8.89639 -18.473491,2.03044 -2.959565,-6.2905 3.116242,-10.914669 12.210424,-13.522309 z"
       style="opacity:1;fill:#009645;fill-opacity:1;stroke:#000000;stroke-width:1;stroke-miterlimit:7;stroke-dasharray:none;stroke-dashoffset:4.57999992;stroke-opacity:1" />
    <path
       sodipodi:nodetypes="ssssss"
       inkscape:connector-curvature="0"
       id="path6319-8"
       d="m 71.357618,98.147038 c -2.419584,-3.692293 -6.55787,-4.652581 -9.420299,-3.633632 -1.587035,0.564943 -1.857795,1.948301 -0.878467,3.120274 2.516534,3.01156 3.514677,6.05936 4.737693,9.10934 0.609425,1.51979 1.708422,2.30407 3.230989,1.68581 3.454541,-1.40278 4.72616,-6.62537 2.330084,-10.281792 z"
       style="opacity:1;fill:#009645;fill-opacity:1;stroke:#000000;stroke-width:1;stroke-miterlimit:7;stroke-dasharray:none;stroke-dashoffset:4.57999992;stroke-opacity:1" />
    <path
       sodipodi:nodetypes="cscc"
       inkscape:connector-curvature="0"
       id="path6321"
       d="M 76.01398,76.810514 C 70.817057,80.6614 60.268633,84.784515 57.452427,77.738592 54.872249,71.283193 61.212335,67.028595 70.445514,64.966476 Z"
       style="opacity:1;fill:#009645;fill-opacity:1;stroke:#000000;stroke-width:1;stroke-miterlimit:7;stroke-dasharray:none;stroke-dashoffset:4.57999992;stroke-opacity:1" />
    <path
       sodipodi:nodetypes="ssssss"
       inkscape:connector-curvature="0"
       id="path6319"
       d="m 80.125001,67.534987 c -2.19569,-3.829669 -6.269534,-5.034394 -9.1875,-4.1875 -1.617827,0.469549 -1.970387,1.834354 -1.0625,3.0625 2.332957,3.15591 3.148056,6.257683 4.1875,9.375 0.517952,1.553351 1.568356,2.401614 3.125,1.875 3.53186,-1.194831 5.111857,-6.332539 2.9375,-10.125 z"
       style="opacity:1;fill:#009645;fill-opacity:1;stroke:#000000;stroke-width:1;stroke-miterlimit:7;stroke-dasharray:none;stroke-dashoffset:4.57999992;stroke-opacity:1" />
    <path
       sodipodi:nodetypes="cscc"
       inkscape:connector-curvature="0"
       id="path6321-9"
       d="m 81.214661,51.961591 c -5.595019,-3.245472 -13.560629,-11.296458 -8.207515,-16.67421 4.904466,-4.927039 11.32315,-0.791971 16.875297,6.86816 z"
       style="opacity:1;fill:#009645;fill-opacity:1;stroke:#000000;stroke-width:1;stroke-miterlimit:7;stroke-dasharray:none;stroke-dashoffset:4.57999992;stroke-opacity:1" />
    <path
       sodipodi:nodetypes="ssssss"
       inkscape:connector-curvature="0"
       id="path6319-10"
       d="m 91.359912,52.060427 c 2.64606,-3.533524 2.13781,-7.751254 0.203939,-10.094736 -1.072208,-1.299312 -2.46499,-1.082176 -3.232822,0.238065 -1.973062,3.392563 -4.497902,5.370077 -6.948113,7.559729 -1.220933,1.091098 -1.583507,2.391652 -0.483151,3.612176 2.496589,2.76924 7.8398,2.183963 10.460147,-1.315234 z"
       style="opacity:1;fill:#009645;fill-opacity:1;stroke:#000000;stroke-width:1;stroke-miterlimit:7;stroke-dasharray:none;stroke-dashoffset:4.57999992;stroke-opacity:1" />
    <path
       sodipodi:nodetypes="cscc"
       inkscape:connector-curvature="0"
       id="path6321-6"
       d="m 118.55263,42.767521 c 2.47557,-5.975685 9.40022,-14.93774 15.43981,-10.344313 5.53339,4.20845 2.28518,11.118404 -4.57182,17.63649 z"
       style="opacity:1;fill:#009645;fill-opacity:1;stroke:#000000;stroke-width:1;stroke-miterlimit:7;stroke-dasharray:none;stroke-dashoffset:4.57999992;stroke-opacity:1" />
    <path
       sodipodi:nodetypes="ssssss"
       inkscape:connector-curvature="0"
       id="path6319-2"
       d="m 119.79879,52.836437 c 3.85295,2.154576 7.96616,1.092 10.03277,-1.135304 1.1458,-1.234902 0.74604,-2.586638 -0.66429,-3.172781 -3.62406,-1.506194 -5.91865,-3.746777 -8.41364,-5.885279 -1.24323,-1.065613 -2.58035,-1.252683 -3.64434,-3.18e-4 -2.41405,2.841475 -1.12601,8.060034 2.6895,10.193682 z"
       style="opacity:1;fill:#009645;fill-opacity:1;stroke:#000000;stroke-width:1;stroke-miterlimit:7;stroke-dasharray:none;stroke-dashoffset:4.57999992;stroke-opacity:1" />
    <path
       sodipodi:nodetypes="cscc"
       inkscape:connector-curvature="0"
       id="path6321-0"
       d="m 137.98854,65.429753 c 6.43798,0.624337 17.03049,4.632829 14.39909,11.74984 -2.41085,6.520527 -9.96788,5.429766 -18.20302,0.772903 z"
       style="opacity:1;fill:#009645;fill-opacity:1;stroke:#000000;stroke-width:1;stroke-miterlimit:7;stroke-dasharray:none;stroke-dashoffset:4.57999992;stroke-opacity:1" />
    <path
       sodipodi:nodetypes="ssssss"
       inkscape:connector-curvature="0"
       id="path6319-1"
       d="m 128.72134,69.559506 c -0.93665,4.313943 1.2798,7.938152 4.01317,9.264979 1.51547,0.735635 2.69175,-0.04112 2.84091,-1.561099 0.38326,-3.90584 1.85685,-6.75433 3.17435,-9.764694 0.6565,-1.500064 0.4453,-2.833587 -1.063,-3.485867 -3.42219,-1.479961 -8.03788,1.27465 -8.96543,5.546681 z"
       style="opacity:1;fill:#009645;fill-opacity:1;stroke:#000000;stroke-width:1;stroke-miterlimit:7;stroke-dasharray:none;stroke-dashoffset:4.57999992;stroke-opacity:1" />
    <path
       sodipodi:nodetypes="cscc"
       inkscape:connector-curvature="0"
       id="path6321-09"
       d="m 147.91198,95.463706 c 6.14208,2.02782 15.59076,8.272164 11.45559,14.634284 -3.78861,5.82889 -10.91944,3.0995 -17.9258,-3.25774 z"
       style="opacity:1;fill:#009645;fill-opacity:1;stroke:#000000;stroke-width:1;stroke-miterlimit:7;stroke-dasharray:none;stroke-dashoffset:4.57999992;stroke-opacity:1" />
    <path
       sodipodi:nodetypes="ssssss"
       inkscape:connector-curvature="0"
       id="path6319-27"
       d="m 137.96249,97.449587 c -1.86436,4.001453 -0.50111,8.025033 1.87265,9.921623 1.31608,1.05154 2.63463,0.55317 3.11509,-0.89663 1.23463,-3.72535 3.29976,-6.17903 5.2483,-8.825039 0.97095,-1.318491 1.05883,-2.665771 -0.26865,-3.63443 -3.01189,-2.197768 -8.12116,-0.528102 -9.96739,3.434476 z"
       style="opacity:1;fill:#009645;fill-opacity:1;stroke:#000000;stroke-width:1;stroke-miterlimit:7;stroke-dasharray:none;stroke-dashoffset:4.57999992;stroke-opacity:1" />
  </g>
  <path
     inkscape:connector-curvature="0"
     style="fill:none;fill-opacity:1;fill-rule:evenodd;stroke:#000000;stroke-width:1.99999988;stroke-linecap:butt;stroke-miterlimit:4;stroke-dashoffset:0;stroke-opacity:1"
     id="path4212-9"
     d="M 1,0.99999834 4.761095,159.00304 c 2.686489,112.85918 196.651755,112.85918 199.338255,0 l 3.7611,-158.00304166 z" />
  <path
     style="opacity:1;fill:#feeb00;fill-opacity:1;stroke:#000000;stroke-width:1;stroke-miterlimit:12;stroke-dasharray:none;stroke-dashoffset:4.57999992;stroke-opacity:1"
     d="m 89.4222,124.72624 c -9.003834,5.1193 -11.725294,9.48977 -9.287236,13.2782 l 14.441428,-4.39505 c -6.017187,-0.56628 -6.665216,-5.25554 -5.154192,-8.88315 z"
     id="path8283-3"
     inkscape:connector-curvature="0"
     sodipodi:nodetypes="cccc" />
  <path
     style="opacity:1;fill:#feeb00;fill-opacity:1;stroke:#000000;stroke-width:1;stroke-miterlimit:12;stroke-dasharray:none;stroke-dashoffset:4.57999992;stroke-opacity:1"
     d="m 54.88699,151.46428 c -2.746781,9.98656 -1.580754,15.00132 2.822037,15.95617 l 7.103862,-13.3194 c -4.655214,3.85437 -8.429247,0.99679 -9.925899,-2.63677 z"
     id="path8283-3-1"
     inkscape:connector-curvature="0"
     sodipodi:nodetypes="cccc" />
  <path
     style="opacity:1;fill:#feeb00;fill-opacity:1;stroke:#000000;stroke-width:1;stroke-miterlimit:12;stroke-dasharray:none;stroke-dashoffset:4.57999992;stroke-opacity:1"
     d="m 49.373552,194.79101 c 5.119297,9.00383 9.489774,11.7253 13.278198,9.28723 l -4.395049,-14.44142 c -0.566282,6.01718 -5.255541,6.66521 -8.883149,5.15419 z"
     id="path8283-3-2"
     inkscape:connector-curvature="0"
     sodipodi:nodetypes="cccc" />
  <path
     style="opacity:1;fill:#feeb00;fill-opacity:1;stroke:#000000;stroke-width:1;stroke-miterlimit:12;stroke-dasharray:none;stroke-dashoffset:4.57999992;stroke-opacity:1"
     d="m 76.111581,229.32623 c 9.98656,2.74678 15.001322,1.58076 15.956175,-2.82203 l -13.319402,-7.10387 c 3.854379,4.65522 0.996793,8.42925 -2.636773,9.9259 z"
     id="path8283-3-8"
     inkscape:connector-curvature="0"
     sodipodi:nodetypes="cccc" />
  <path
     style="opacity:1;fill:#feeb00;fill-opacity:1;stroke:#000000;stroke-width:1;stroke-miterlimit:12;stroke-dasharray:none;stroke-dashoffset:4.57999992;stroke-opacity:1"
     d="m 119.43831,234.83967 c 9.00385,-5.1193 11.7253,-9.48977 9.28724,-13.2782 l -14.44143,4.39504 c 6.01719,0.56629 6.66522,5.25555 5.15419,8.88316 z"
     id="path8283-3-9"
     inkscape:connector-curvature="0"
     sodipodi:nodetypes="cccc" />
  <path
     style="opacity:1;fill:#feeb00;fill-opacity:1;stroke:#000000;stroke-width:1;stroke-miterlimit:12;stroke-dasharray:none;stroke-dashoffset:4.57999992;stroke-opacity:1"
     d="m 153.97352,208.10162 c 2.74679,-9.98657 1.58077,-15.00132 -2.82203,-15.95616 l -7.10387,13.3194 c 4.65523,-3.85438 8.42925,-0.99679 9.9259,2.63676 z"
     id="path8283-3-1-7"
     inkscape:connector-curvature="0"
     sodipodi:nodetypes="cccc" />
  <path
     style="opacity:1;fill:#feeb00;fill-opacity:1;stroke:#000000;stroke-width:1;stroke-miterlimit:12;stroke-dasharray:none;stroke-dashoffset:4.57999992;stroke-opacity:1"
     d="m 159.48697,164.77489 c -5.1193,-9.00383 -9.48977,-11.7253 -13.2782,-9.28723 l 4.39504,14.44143 c 0.56628,-6.01718 5.25554,-6.66521 8.88316,-5.1542 z"
     id="path8283-3-2-7"
     inkscape:connector-curvature="0"
     sodipodi:nodetypes="cccc" />
  <path
     style="opacity:1;fill:#feeb00;fill-opacity:1;stroke:#000000;stroke-width:1;stroke-miterlimit:12;stroke-dasharray:none;stroke-dashoffset:4.57999992;stroke-opacity:1"
     d="m 132.74894,130.23967 c -9.98656,-2.74678 -15.00132,-1.58076 -15.95618,2.82204 l 13.31941,7.10386 c -3.85439,-4.65523 -0.9968,-8.42925 2.63677,-9.9259 z"
     id="path8283-3-8-2"
     inkscape:connector-curvature="0"
     sodipodi:nodetypes="cccc" />
  <path
     inkscape:connector-curvature="0"
     style="opacity:1;fill:#feeb00;fill-opacity:1;stroke:#000000;stroke-width:1;stroke-miterlimit:7;stroke-dasharray:none;stroke-dashoffset:4.57999992;stroke-opacity:1"
     d="m 104.42967,130.28752 a 49.495128,49.495128 0 0 0 -49.493666,49.4957 49.495128,49.495128 0 0 0 49.493666,49.49571 49.495128,49.495128 0 0 0 49.4957,-49.49571 49.495128,49.495128 0 0 0 -49.4957,-49.4957 z m 0,11.76718 a 37.727948,37.727948 0 0 1 37.72852,37.72852 37.727948,37.727948 0 0 1 -37.72852,37.72853 37.727948,37.727948 0 0 1 -37.726486,-37.72853 37.727948,37.727948 0 0 1 37.726486,-37.72852 z"
     id="path6187" />
</svg>
