<?xml version="1.0" encoding="UTF-8"?>
<svg width="1069.7" height="1335.3" viewBox="0 0 802.24 1001.5" xmlns="http://www.w3.org/2000/svg">
<path d="m6.539 6.532-9e-3 425.68c5.532 225.97 123.45 442.67 394.59 562.1 271.15-119.44 389.06-336.15 394.59-562.1l-1e-3 -425.68z"/>
<path d="m5.744 7.746-0.01 294.76s14.615 0.11 17.895 0.13c44-0.01 87.998-0.01 132-0.01 3.5-0.03 7.118 0.22 10.588-0.29 0.38-3.31-0.14-6.48-0.51-9.76 0.29-3.37 2.25-6.38 2.17-9.91 0.24-17.71 1.42-35.37 1.8-53.08 0.25-3.66-1.92-6.699-2.58-10.469-1.73-7.28 0.75-13.04 0.85-20.49 0.16-7.33 0.3-14.699 0.1-22.019-1.01-3.61-4.38-6.8-6.43-9.94-1.85-2.24-2.87-5.411-5.65-6.381-6.44-2.16-8.16-11.34-3.94-16.23 1.71-2.35 4.41-3.14 7.08-3.9 1.99-0.53 4.18 0.55 6.11 0.06 2.95-3 4.82-6.34 8.91-8.11 2.73-1.24 5.62-0.27 8.23 0.79 3.21 1.38 4.722 5.34 7.861 7.06 3.15 1.85 6.14 3.71 8.75 6.32 1.25 1.15 1.129 2.77 1.389 4.34 0.36 4.07 0.75 8.54-0.29 12.52-1.14 2.28-4.62 3.05-6.52 4.67-0.89 5.11-0.08 10.61-0.38 15.82 0.16 11.34-2.749 22.74-1.869 34-0.15 22.41-0.46 44.65-0.49 66.899-0.12 2.7 2.92 4.99 3.43 7.34 0.39 3.47-0.06 7.12 0.46 10.61 3.29 0.29 6.63 0.13 9.93 0.15h104c3.24-0.03 6.53 0.18 9.76-0.16 2.27-4.89 4.45-9.89 5.97-15.08 2.2-7.39 6.08-14.42 10.01-21.03 5.16-8.62 14.98-13 24.21-15.8 4.17-1.25 5.54-4.82 7.921-8.05 5.33-7.69 11.9-15.56 20.47-19.71-0.518-0.386-1-0.786-1.516-1.17-0.939-2.04-12.408-26.971-13.917-30.751-1.57-3.935-12.679-50.307-12.679-50.307l29.095-62.684 50.191-10.53 51.581 31.304 18.756 27.892 5.27 20.447-4.641 26.815 0.46 20.651-2.31 9.334c3.4 2.91 5.84 7.24 8.18 11.029 4.65 7.56 8.207 15.662 12.657 23.332 3.1 5.54 7.472 10.608 12.383 14.609 8.21 4.62 15.959 9.912 23.609 15.401 3.36 2.37 6.13 5.44 7.72 9.26 3.3 7.87 5.57 16.24 8.989 24.06 3.25 0.33 6.57 0.14 9.83 0.16 61.072-0.02 205.88 1.363 205.88 1.363v-295.26l-790.8-3e-3zm474.41 391.22s-1.982 3.463-3.492 4.713c-2.04-1.25-6.895-4.69-6.895-4.69l-2.985 3.254 6.777 6.737-4.706 9.569 3.407 1.728 4.846-7.732 12.016 8.337 2.387-3.658-12.157-10.097 3.102-6.526zm133.67 125.6v0.012c-1.298-4e-3 -2.577 0.082-3.702 0.497-6.22 10.83-16.082 16.668-26.862 22.177-8.43 4.15-14.888 11.15-23.738 13.33-3.82 1.12-7.88 1.06-11.66 2.23 1.88 5.28 5.7 9.78 7.35 15.25 2.52 7.18 1.43 15.951 1.65 23.571-0.19 7.56 0.67 14.29-1.51 21.67-0.95 3.59-3.44 7.44-2.72 11.2 1.52 4.15 4.54 7.689 6.45 11.688 3.76 6.68 5.84 13.842 7.91 21.162 2.07 6.94 3.84 14.07 4.72 21.26 0.52 11.42-0.8 23.66 1.1 34.97 1.32 10.72 6.43 20.03 7.36 31 0.25 3.72 0.66 7.33 0.64 11.05-0.09 8.61 0.31 16.9-0.96 25.48-0.49 3.09-2.26 5.25-4.02 7.701 1.47 3.64 5.85 6.46 6.54 10.91 0.84 5.55 0.87 11.15-1.24 16.43-2.13 7.11-4.71 13.919-8.89 20.109-3.42 4.92-6.89 9.92-9.84 15.14-3.44 6.56-9.87 11.54-16.541 14.51-9.92 3.02-21.301 4.081-31.311 0.971-4.84-1.31-10.64-2.36-14.7-5.42-2.72-1.69-3.4-6.05-3.78-8.98-0.37-2.11 0.6-3.64 1.16-5.58-1.97-1.83-3.89-3.36-4.75-6.04-1.03-4.69-0.77-9.87 3.1-13.24 3.51-2.15 7.08-2.77 9.62-6.38 2.19-2.38 0-6.18 2.16-8.91 3.62-4.98 8.63-9.78 10.97-15.52-9.95 0.19-19.8-0.84-29.74-1.1-19.37-1.87-38.54-6.15-57.94-7.85-7.42 0.535-14.354 0.667-21.22 1.65-7.89 1.09-15.83 1.46-23.76 2.22-10.68 0.21-21.36-0.14-32.04 0.35-5.89 0.31-11.78-0.62-17.64-0.17-0.28 3.71-0.32 8.23 2.06 11.32 3.07 3.96 6.3 7.81 9.56 11.62 1.17 4.97-0.071 9.19-1.761 13.82 2.24 5.09 2.55 9.66 0.87 15-1.17 3.56-2.918 2.976-9.11 3.586-8.265 0.432-15.743 0.097-23.25-2.326-1.42-0.29-3.01 0.66-4.27 1.23-7.14 3.77-14.358 7.21-21.957 10.01-6.24 2.45-13.751 1.35-20.5 1.61-6.28 0.33-12.18-1.2-18.13-2.99-7.57-2.22-14.58-7.68-21.29-11.73-1.58-0.97-2.051-2.62-2.011-4.39 0.06-3.85 0.851-7.86 1.891-11.55 2.01-4.05 8.31-3.61 11.99-4.81 0.88-3.45 0.41-8.13 4.28-9.81 5.17-1.25 10.71 0.35 15.97-1.26 8.93-2.73 18.45-5.38 26.13-10.76 3.41-2.19 6.56-4.01 7.8-8.15 0.65-3.32 0.64-7.8-0.06-11.11-3.24-0.76-6.421-0.709-8.982-3.129-1.95-1.73-1.84-4.08-1.78-6.47 0.51-7.14 3.36-14.01 5.13-21 3.98-15.77 6.911-31.85 8.911-48 1.12-8.32 2.7-16.53 4.61-24.7 3.41-15.3 1.93-32.701 2.51-48.322 1.33-10.23 0.85-21.479 3.86-31.25 1.51-5.29 2.39-10.71 3.94-15.99 4.91-15.27 9.78-30.48 15.58-45.45 2.67-6.47 3.94-14.27 2.73-21.17-5.68-0.3-11.39-0.03-17.08-0.12-39.28 0.08-78.847-0.14-118.09 0.12-0.92 1.63-0.3 4.07-0.3 5.89 0.96 8.961 0.149 17.881 0.619 26.851 0.74 13.08-0.03 26.28 1.32 39.31-0.16 3.4 4.59 5.64 4.5 8.73-2.06 4.87-6.57 7.11-6.6 13.12-0.59 3.69 3.63 4.43 3.67 7.959 0.69 4.29-1.22 7.73-1.85 11.74 3.78 4.19 2.64 9.03 3.2 14.31 0.13 14.98 0.11 30.02 0.09 45.011 0.41 5.08-1.13 9.739-3.27 14.269-0.53 1.18-1.2 2.37-1.22 3.69-0.23 6.27 0.73 12.75 0.24 19.01-0.25 4.43-0.79 8.71 0.65 12.98 1.5 4.37 1.11 8.48 1.34 13.03 0.19 4.08-1.05 7.891-1.08 11.96-0.09 4.34-0.21 8.7-0.1 13.041 0.02 4.11 3.01 7.219 3.3 11.228 0.21 3.17 0.591 6.381 0.471 9.55-4.17 4.68-9.86 5.68-15.89 5.72-3.65 0.13-9.632-0.38-11.841-3.76-0.74-4.78-0.71-9.92-0.46-14.75 0.9-5.98 1.19-11.99 0.38-18-0.57-3.65-0.59-7.31-0.57-11 0.13-12.58 0.36-25.15 1.07-37.72 0.57-4.47 2.06-8.67 2.06-13.24 0.85-9.4-0.64-18.54-1.15-27.92-3.25-10.82-0.32-23.92-1.08-35.11-3.27-5.87-6.44-13.08-6.19-19.91 0.11-3.46 2.6-4.89 4.4-7.49 0.55-2.97 0.18-6.32-0.12-9.33-1.98-5-6.3-9.289-5.57-15.238 0.09-2.93 2.83-4.45 4.44-6.58 0.83-6.04 1.32-12.36 1.31-18.46 0.15-16.35 1.68-32.19 1.18-48.84-3.26-0.3-6.59-0.14-9.86-0.16-47.738-0.112-100.03 0.08-146.02 0.1 32.358 190.85 152.14 365.77 385.56 468.58 233.43-102.82 353.2-278.75 385.56-469.59-55.953-0.284-119.57-0.09-170.1-0.119-1.195 0.06-2.511-0.033-3.809-0.036z" fill="#fcdb00"/>
<path d="m435.7 53.408a92.525 92.525 0 0 0-92.524 92.525 92.525 92.525 0 0 0 41.988 77.243l0.814-0.39-4e-3 -0.02c2.946-1.664 3.596-3.839 4.601-6.957l0.125-3.017-0.065-3c-0.023-1.026 0.087-2.044-0.177-3.034l0.038-0.012c-0.633-1.36-0.428-2.754-0.391-4.214l0.198-3.875c0.159-0.1 0.078-0.588 0.083-0.811-1.85-0.3-3.7-0.59-5.51-1.07-1.442-1.575-2.756-2.858-3.272-3.597-3.057-3.87-3.685-8.91-4.097-13.472 0.449-3.397 4.25-7.56 6.83-11.31 1.31-1.77 3.153-3.055 5.26-4.74-1.24-2.62-1.73-5.2-4.85-6.11-0.627-0.362-1.875-0.481-2.883-0.787-0.353-1.582 0.263-2.803 0.583-3.313-0.45-0.33-0.91-0.64-1.39-0.92-4.32-3.047-9.085-6.58-12.52-9.951-0.642-0.68-0.314-1.337 0.05-1.84 1.919-3.001 2.9-5.54 5.07-8.07 2.14-2.36 5.48-3.999 7.23-6.659 1.358-3.206 2.378-6.344 4.793-8.972l10.71-9.088c2.959-1.886 4.696-3.73 7.297-5.768l2.779-14.821c0.549-2.133 2.02-3.785 3.375-5.801 2.64-2.283 5.509-2.919 8.87-3.848-0.01 0.016-0.015 0.031-0.024 0.048 6.275-0.94 12.956-0.433 18.445 2.53 2.503 2.15 4.62 4.71 6.854 7.132 2.31 3.612 5.51 6.185 8.36 9.448 1.74 0.55 4.46 1.7 6.13 0.62 0.532-0.744 1.36-0.784 2.461-1.67 2.45-1.925 5.124-1.674 7.945-1.408 8.063 7.303 11.75 15.185 15.712 24.744 2.534 5.831 4.948 11.074 9.689 13.367l12.122 5.432c0.678 0.786 1.535 1.171 1.926 2.445 1.183 4.12 0.723 9.556 0.147 13.09-1.567 6.537-5.108 10.677-9.42 12.53 0.94 1.1 1.999 2.07 2.909 3.19 1.33 2.92 0.67 6.92 2.6 9.44 3e-3 -0.254 0.406 0.917 0.402 0.659 1.184 1.29 1.806 2.432 2.306 3.524-0.302 1.72-0.723 3.707-1.151 5.218l-2.844 8.257v3e-3l-0.033 9e-3c-0.26 0.66-0.22 1.19 0.1 1.59 3e-3 -3e-3 8e-3 -3e-3 0.013-4e-3l1.413 4.124 0.93 0.921c-0.047 0.095-0.102 0.184-0.146 0.28l0.605 0.522-9e-3 0.043c0.273 0.205 0.64 0.488 0.932 0.74a92.525 92.525 0 0 0 21.14-58.6 92.525 92.525 0 0 0-92.524-92.525z" fill="#feef8d"/>
<path d="m378.89 86.877c0.56 0.47 0.56 0.47 0 0z" fill="#f0bf97"/>
<path d="m433.43 105.73c-4.25 0.22-8.459 1.46-12.699 1.61-1.06-0.43-2.04-1.01-3.08-1.5-0.41 0.58-0.77 1.19-1.08 1.83 0.43 1.33 2.59 1.31 3.75 1.26 4.35-0.39 8.72-0.25 13.069-0.62 0.07-0.85 0.08-1.71 0.04-2.58zm22.857 3.895c-0.861 0.011-1.716 0.339-2.527 1.156 1.6 2.14 4.53 3.82 6.67 5.54 1.27-1.2 1.43-2.67 0.88-4.28-1.471-1.136-3.26-2.439-5.023-2.416zm-52.222 20.106c-0.96-0.024-1.705 1.446-2.335 2.05-1.83 2.49-4.14 4.51-6.12 6.86 4.42-0.99 8.9-3.782 8.88-8.802a1.019 1.019 0 0 0-0.425-0.108zm-232.82 31.875c-2.073 8e-3 -3.957 0.846-5.62 2.153 0.56 1.17 1.531 3.15 2.901 3.47 1.99-0.7 4.01-1.73 5.76-2.89 0.63-0.92-0.859-2.78-1.869-2.65a7.924 7.924 0 0 0-1.172-0.083zm1.141 39.444-0.63 0.07c-0.96 2.68-1.73 5.5-2.02 8.34 1.8 0.06 2.75-0.62 3.65-2.13 0.37-2.04-0.37-4.34-1-6.28zm285.19 31.581c-1.3 0.26-0.88 3.43-1.41 4.54-2.1 2.02-4.56 2.649-7.03 4.009-1.24 2.82-2.53 5.05-4.5 7.44 1.95-0.36 4.65-1.58 6.53-0.68 1.34 1.05 2.47 2.3 3.81 3.33 1.1 0.52 2.67-0.18 3.85-0.28 1.05-0.4 3.51-0.169 3.84-1.399-1.51-2.2-3.64-3.72-5.18-5.95 1.63-3.36 3.71-2.85 6.93-3.16 1.88-0.07 2.62-1.821 1.9-3.451-3.6-1.03-5.86-1.959-8.74-4.399zm33.83 18.609c-2.71 0.09-5.6 0.27-8.21 0.98-2.86 0.99-2.81 3.61-3.12 6.16 1.54 1.88 4.85 3.21 7.2 2.86 2.31-2.09 4.589-4.09 7.069-6 1.09-1.96-1.45-3.35-2.94-4zm36.27 0.27c-2.07 2.69-6.71 6.26-5.98 9.97 2.76 0.56 5.15-0.27 7.83-0.73 1.53 0.19 2.38 3.23 4.08 2.91 2.28 0.27 3.229-1.99 3.719-3.81-3.79-2.38-6.509-5.26-9.649-8.34zm-97.33 0.65c-2.86 0.55-5.29 1.9-7.66 3.54-2.27 1.55-6.29 2.03-7.09 5.02 0.12 1.41 1.3 2.68 1.84 3.98-0.39 2.27-2.19 3.24-3.65 4.82 3.1 1.01 6.46 2.16 9.74 2.16 2.6 0.17 3.47-2.56 4.94-4.18 1.76-2.48 4.61-4.22 6.08-6.84-1.2-2.93-3.07-5.51-4.2-8.5zm41.007 5.5c-0.55 5e-3 -1.101 0.039-1.657 0.1-0.36 2.26 0.73 3.97 2.01 5.7 1.73-0.31 2.08-4.27 1.76-5.69a17.367 17.367 0 0 0-2.113-0.11zm-16.736 6.935c-0.956-2e-3 -1.91 0.06-2.86 0.195-0.66 1.52 1.968 3.59 3.008 4.51 0.88-0.07 1.73-0.4 2.55-0.99 0.31-1.11 0.36-2.28 0.17-3.52a22.547 22.547 0 0 0-2.868-0.195zm-89.092 2.145c-3.07 1.57-0.969 3.84 0.041 6.01-0.31 1.23-0.881 2.39-1.201 3.62 0.3 0.78 0.59 1.57 0.89 2.35-0.28 1.03-0.75 2.01-1.14 3.01 1.81-0.85 3.79-1.06 4.26-3.33 1.4-3.83 1.22-9.55-2.85-11.66zm-21.79 0.93c-1.15 0.85-1.69 2.5-2.46 3.68-2.78 4.67-6.13 8.77-7.96 13.99-2.03 5.72-5.39 11.36-5.71 17.3-0.62 6.55-1.84 13.49-1.29 20.01 0.37 4.33-0.58 8.59-0.76 12.98-0.28 5.3-2.78 9.42-4.59 14.37-1.7 4.82-5.25 8.211-5.13 13.421l1.56 0.2c1.52-2.39 1.35-5.58 3.27-7.92 1.82-2.31 2.81-4.55 3.8-7.29 1.54-1.21 4.02-1.29 5.85-2 0.84-1.43-2.7-3.06-3.47-4.09-0.28-1.34 0.71-2.93 1.42-4.01 1.9-1.19 5.35-0.52 6.41-2.69-0.19-1.32-2.89-0.82-3.91-1.22-1.98-0.07-3.46-2.81-3.11-4.6 0.66-1.88 2.28-3.88 4.06-4.83 2.19-0.04 5.11 1.54 6.59-0.73 1.55-1.65 0.49-4.06-0.66-5.59-1.91-1.75-5.45-0.5-7.36-1.75-2.34-2.26-1.8-6.18-1.48-9.1 0.65-6.04 4.11-10.69 5.32-16.57 0.64-3.34 3.11-6.24 5.02-9.06 1.38-2.03 4.43-2.37 5.9-4.1 1.35-2.59 2.82-6.07 2.26-9.03-1.11-0.75-2.19-1.4-3.57-1.37zm109.64 8.925c-0.222 1e-3 -0.435 0.02-0.636 0.056-1.79 0.52-3.25 2.45-4.23 3.97 1.38 4.06 8.93 4.54 9.66-0.17 0.29-2.33-2.648-3.87-4.794-3.856zm82.465 2.405c-0.694 0.016-1.255 0.196-1.63 1.17-2.43 8.96-3.12 18.2-2.39 27.45 0.66 5.71 4.119 10.05 5.349 15.34 0.45 1.29 0.4 3.24 1.55 4.09 2.11-0.87 0.87-3.309 0.65-4.939-0.75-3.77-2.03-7.02-3.74-10.44-1.74-5.02-1.62-10.67-2.46-15.92 1.08-4.29 2.44-8.541 3.86-12.741 0.52-1.34 0.42-2.609 0.19-3.999-0.5 0.03-0.963-0.02-1.379-0.01zm-172.52 13.85c-2.57 0.22-5.14 1.01-7.5 2.05-0.87 4.85 3.73 2.2 5.51 5.08 0.53 2.44 0.25 5.05 0.48 7.54 2.18 0.14 3.6-1.2 4.78-2.84-0.9-1.15-1.9-2.17-2.76-3.35-0.47-2.78-0.17-5.67-0.51-8.48zm-193.66 7.84c-0.27 4.62 0.271 9.01-0.359 13.62-0.39 2.76-0.69 5.52-0.67 8.32 0.04 6.66-1.051 14.19 0.159 20.75 1.93 0.4 3.911 0.63 5.881 0.73-0.63-4.23-5.98-4.62-5.04-9.35 0.22-3.09 3.53-3.65 4.51-5.84-1.2-0.9-3.98-1.56-3.87-3.34-0.46-3.8 1.87-5.71 3.19-8.91-1.16-2.22-2.71-3.769-2.66-6.439-0.25-1.68 0.88-2.42 1.75-3.66 2.53-1.85-1.631-4.57-2.891-5.88zm370.83 28.97c-0.67 4.3 1.37 8.56 0.96 12.97 0.31 4.01-1.22 7.95-0.86 11.88l2.06 0.05c0.67-3.88 0.22-7.99 0.34-11.93-0.06-4.44 0.62-8.75-1.55-12.8zm-98.91 33.14c-1.11-0.02-1.761 1.71-2.321 2.49-2.35 4.61-4.7 9.2-7.38 13.64-3.63 5.93-6.31 12.28-9.63 18.38-2.94 5.61-7.44 11.418-9.63 17.458-1.11 3.49 0.56 6.45 3.16 8.67 3.03 2.44 6.66 4.27 10.21 5.82 2.74 1.59 5.08-2.428 5.71-4.568-1.77-3.27-9.05-4.041-9.63-8.281 0.47-5.43 5.07-11.06 7.39-15.91 2.09-4.53 4.31-8.9 6.74-13.26 2.7-4.85 2.73-10.15 7.26-13.74 1.63-1.57 4.72-3.15 4.71-5.67-1.4-2.35-4.13-3.99-6.59-5.03zm98.95 2.879c-0.74 4.5 2.399 6.35 3.569 10.05-0.98 6.03-2.78 12.78-6.96 17.43-2.36 3.15-3.44 7.1-5.64 10.39-1.48 2.62-3.81 3.9-5.84 6.01 1.15 0.79 2.18 1.7 3.65 1.65 6.39-7.98 11.43-17.34 15.11-26.85 1.07-2.4 4.67-3.18 5.21-5.88 0.82-3.47-1.05-6.2-3.66-8.26-1.77-1.21-3.37-4.24-5.44-4.54zm-222.64 1.371c-1.28 3.2-1.47 8.38-4.89 10.03-2.67 1.82-6.39-1.65-9.24-1.33-2.25 0.52-3.87 3.1-5.29 4.77-1.55 2.08-3.67 3.669-5.19 5.749-0.83 2.68-0.571 6.33-2.691 8.33-1.27 0.82-2.69 1.44-4 2.2-0.08 2.27 2.94 2.54 4.2 1.08 2.39-2.83 4.06-7.36 7.2-9.92 1.07-0.77 2.72-1.43 3.97-0.7 1.29 0.93 2.41 2.08 3.69 3.02 0.77-0.23 1.29-0.67 1.57-1.33-1.55-1.25-4.11-2.25-4.82-4.18-1.03-1.9 0.23-4.629 2.38-4.979 4.46-1.32 10.05-0.57 14.07-2.88 2.19-1.86 1.431-6.44 1.381-9.02-0.69-0.42-1.47-0.69-2.34-0.84zm-145.51 2.574c-1.238-3e-3 -2.112 0.192-1.876 2.036 0.48 2.6 1.34 5.16 2.35 7.6 1.1 0.17 2.07-1.71 2.36-2.59-1.47-2.63-2.76-3.8-1.93-7.03-0.315-4e-3 -0.62-0.016-0.905-0.016zm294.17 4.006c-1.54 0.99-2.43 3.08-3.36 4.61-2.58 4.98-5.81 9.55-8.51 14.47-2.59 4.66-5.36 9.2-8.45 13.55-1.14 1.67-2.34 3.27-2.91 5.24 1.57 1.57 4.9 1.22 6.91 2.5 4.43 2.43 9.24 3.98 14.14 5.13 1.5-2.71 5.081-9.725 5.081-9.725s-4.486-3.967-7.604-7.015c1.61-2.39 5.978-6.672 5.978-6.672l6.694 4.444 4.405-4.077 4.456 4.198s-1.78 3.796-2.04 6.236c3.33 3.46 7.35 6.28 10.87 9.53 0.86 1.13-3.59 7.411-3.59 7.411l-11.09-5.86s-2.627 2.28-4.013 3.85c2.31 2.34 5.334 5.3 7.904 7.34 2.32 2.2 6.92 1.08 9.72 0.43 4.918-7.357 10.64-17.08 13.21-23.59-0.08-1.08-1.431-1.89-2.141-2.62-12.42-10.508-22.388-18.01-35.66-29.38zm-78.07 7.27c-2.7 0.63-4.47 0.849-7.19 0.069 0.05 2.67 0.95 3.68 3.38 4.62 1.78 0.51 4.48 1.92 5.69-0.26 0.43-1.09-0.79-3.979-1.88-4.429zm-119.14 7.06c-2.65 0.38-5.29 1.52-7.51 2.99-0.21 1.48-0.23 3.03-0.24 4.52 1.61-1.24 3.22-3.25 5.21-3.77 1.56-0.12 3.16 0.27 4.7 0.41-0.47-1.39-0.83-3.35-2.16-4.15zm-27.59 0.9c-0.53 3.45-0.17 7.11 0.23 10.56 0.25 1.34 0.3 3.16 1.45 4.06 0.41-3.61-0.2-7.07-0.42-10.65 1.07-2 4.03 0.13 5.67 0.33 0.14-1.15 0.03-2.21-0.34-3.18-2.12-0.75-4.35-1.06-6.59-1.12zm-69.227 4.89c-0.999-0.01-1.347 0.926-1.973 1.869-1.28 2.36-2 4.93-1.73 7.63 2.36 0.53 1.58-1.57 2.3-3.09 0.44-2.1 1.6-3.75 2.56-5.63l-0.35-0.61a2.43 2.43 0 0 0-0.807-0.17zm220.57 1.895c-0.808 2e-3 -1.605 0.047-2.322 0.054 1.62 2.72 3.66 5.03 6.84 5.87 3.35 0.84 6.19 2.01 9.27 3.53 2.11 0.07 4.25-0.13 6.37-0.17 0.41-0.67 0.76-1.38 1.05-2.13-3.28-0.21-7.1 0.43-10.21-0.7-3.07-1.15-4.64-3.89-7.21-5.72-1.069-0.619-2.442-0.737-3.788-0.734zm-28.352 5.435c0.79 3.1 0.99 6.179 1.1 9.369 1.89-1.66 3.4-3.69 4.61-5.88-1.28-1.56-3.97-2.35-5.71-3.49zm-192.98 6.87c-2.22 1.33-3.45 4.2-3.7 6.68 0.16 2.76 1.65 5.499 2.41 8.159 1.18 3.6 1.11 7.101 1.09 10.84-0.13 6.03 0.59 12.01 0.34 18.04 0.14 1.57-0.12 5.11 1.55 5.91 0.21-2.62 0.04-5.27 0.34-7.88 0.53-3.1 1.9-5.799 1.85-9.039 0.28-4.28-0.73-8.26-1.74-12.37-0.6-2.21 0.3-4.181 0.47-6.531-1.21-2.09-3.17-3.4-2.87-6.05 0.43-1.86 2.05-3.39 2.82-5.16-0.1-1.49-1.23-2.25-2.56-2.6zm350.85 3.067c-0.78 0.066-1.648 1.001-2.257 1.342-3.65 2.81-8.5 5.46-10.4 9.94 2.35 1.36 4.61 2.46 6.17 4.8 1.62 1.79 2.64 4.89 4.51 6.23 0.52-0.23 1.03-0.49 1.53-0.79-2-3.66-5.81-7.69-6.22-11.9-0.48-2.78 2.89-3.02 4.81-3.52 1.56-0.45 2.75 1.78 3.92 2.56 0.86-0.37 1.11-0.98 0.74-1.83-0.71-2.25-1.42-4.519-2.28-6.719a0.88 0.88 0 0 0-0.522-0.113zm-136.63 0.097c-2.316 0.034-4.677 1.013-6.337 2.625 0.89 1.1 2.29 2.17 3.73 2.31 2.55-1.09 4.11-3.01 7.13-2.42 4.12 1.27 9.09 3.34 13.57 3.28 1.56-0.24 5.589-1.139 5.469-3.179-3.95-2-9.61-0.77-13.96-1.01-3.31 0.3-6.06-0.65-9.14-1.6-0.153-6e-3 -0.308-8e-3 -0.462-6e-3zm-173.42 6.696-0.9 0.01c-0.37 4.03 0.25 7.73 0.18 11.81-0.03 3.74-0.58 7.22 0.01 10.871 0.46 2.66 0.73 5.329 0.97 8.029l0.85-0.18c0.06-2.41-0.41-4.679-0.77-7.049-0.94-7.88-0.33-15.65-0.34-23.49zm226.87 1.85c-1.34 0.77-1.999 2.72-2.839 3.98-1.14 2.17-2.9 3.74-4.35 5.66-0.54 1.28-0.25 2.87 1.03 3.58 2.52 1.44 5.03 2.98 7.64 4.24 2.83 0.1 5.81-0.71 8.43-1.74 0.68-0.18 1.04-0.74 1.09-1.68-1.11-2.7-4.03-4.81-6.02-6.9-2.19-2.12-3.311-4.65-4.981-7.14zm-48.86 2.1c-2.45 1.71-3.839 2.84-6.999 2.58 0.35 1.53 0.88 2.86 2.19 3.83 1.96-0.17 4.08-0.691 5.69-1.861 0.46-1.69-0.151-3.06-0.881-4.55zm16.937 5.415c-1.24 0.011-2.49 0.119-3.737 0.294l0.18 0.84c4.77 1.91 10.131 2.28 14.971 4.04 1.14 0.44 1.941 1.26 2.731 2.17-0.91 0.71-1.93 1.08-3.06 1.1-3.27 0.19-6.64 0.39-9.89-0.02-2.53-0.89-4.67-2.689-7.2-3.639 0.51 2.03 3.079 2.739 4.409 4.339 1.26 1.13 2.111 2.96 3.911 3.09 6.13 0.7 10.5-2.67 16.49-4.04-3.05-2.85-7.09-4.78-10.86-6.52-2.53-1.237-5.216-1.68-7.944-1.654zm-19.646 8.575c-1.03 1.29-1.32 2.05-1.08 3.7 3.02 0.25 6-0.67 8.71-1.91-1.38-1.75-5.52-1.69-7.63-1.79zm-174.35 14.06c0.71 3.26 1.53 7.47 3.94 9.91a96.676 96.676 0 0 0-3.149-9.82zm303.15 8.86c0.63 2.42 1.53 5.75 3.95 6.95-0.87-2.55-1.86-5.14-3.95-6.95zm-46.677 111.1a1.373 1.373 0 0 0-0.113 0.01c-0.1 4.55-1.2 10.97 1.83 14.75 1.21 1.43 3.55 3.5 5.56 2.88 2.13-1.23 2.54-3.2 2.24-5.49-1.4-1.07-3.23-1.51-4.6-2.61-2.32-2.22-2.07-5.77-3.5-8.47-0.385-0.74-0.857-1.094-1.417-1.069zm-130.38 5.64c-1.52 1.59-2.3 3.97-3.35 5.89-1.97 3.96-4.84 6.59-6.2 10.8-2.93 9.49-5.32 19.13-6.97 28.93-1.03 6.82-1.59 13.71-2.38 20.56-0.24 9.68 0.42 18.82-1.65 28.47-0.67 3.47-1.89 6.75-2.88 10.13-0.77 2.6-0.43 5.49-0.82 8.24-0.83 4.93-2.92 9.02-2.81 14.17 0.1 4.8 0.32 9.4-0.8 14.12-0.47 7.61-0.27 15.34 0.75 22.89 0.32 7 0.09 14.05 0.11 21.06-0.15 8.39-3.2 15.77-4.62 23.84 4.94 1.2 9.75 1.74 14.509 3.74 0.47-6.02-0.93-11.63-1.06-17.65-0.61-6.26-1.41-12.3-0.56-18.74 0.45-2.42 0.72-4.781 0.76-7.251 0.07-4.81 1.43-8.82 0.48-13.57-1.2-5.74-2.87-11.57-3.47-17.41-0.23-5.42-0.23-10.9 0.37-16.29 0.69-6.67 0.71-13.83 1.86-20.45 0.7-4.06 2.33-7.81 3.1-11.84 2.24-13.68 1.121-26.94 4.561-40.48 2.41-9.74 2.7-19.44 6-28.98 2.2-5.89 4.53-11.91 6.04-18.01 0.1-1.18-0.23-1.91-0.97-2.17zm19.53 11.01c-3.81 2.21-4.25 8.64-6.5 12.22-1.62 2.54-2.47 4.84-2.65 7.87 0.81 0.02 1.44-0.179 1.89-0.619 4.3-5.7 7.06-12.26 7.26-19.47zm118.19 11.455a3.331 3.331 0 0 0-0.379 0.015c-0.29 2.35-0.61 5.03 0.07 7.33 5.27 10.38 12.32 19.4 16.84 30.16 2.06 4.32 3.241 9.19 5.741 13.25 1.11 1.56 2.5 3.37 4.67 2.77 2.22-2.93 2.83-7.14 2.28-10.69-1.28-5.75-4.64-11.08-9.11-14.9-2.57-2.23-5.16-4.018-7.19-6.818-4.01-5.4-5.01-12.82-8.89-18.13-1.116-1.312-2.196-2.95-4.033-2.985zm-62.759 42.006c-1.16-0.07-1.089 2.39-1.459 3.2-1.06 6.46-3.13 12.98-3.47 19.49 1.5 6.65 2.59 13.35 4.06 20.01 1.48 7.09 1.85 13.8 4.31 20.64 1.86 5.13 2.7 10.11 5.14 14.86 3.04 5.8 5.04 12.02 8.18 17.78 4.95 11.33 8.7 23.09 15.029 34.02 3.99 6.5 4.451 13.97 8.181 20.83 0.51 0.68 1.08 1.31 1.72 1.9-0.36-2.96-0.65-5.91-0.93-8.88-1.35-8.89-5.55-15.68-9.19-23.64-2.4-6.09-5.911-11.222-9.131-16.872-2.29-4.03-3.229-9.108-4.449-13.569-2.09-8.63-5.44-16.04-6.01-24.98-0.43-9.45 0.729-18.65-0.781-28.05-0.33-8.7-0.24-16.78-4.39-24.78-2.15-3.94-3.8-8.6-6.81-11.96zm100.91 14.02c-2.34 2.42-4.21 4.879-7.54 6.009-1.08 0.67-3.679 0.86-3.209 2.6 1.51 2.67 4.34 5.561 7.2 6.731 1.58 0.84 3.06-1.6 3.44-2.82 0.46-4.13 0.159-8.37 0.109-12.52zm-29.65 24.91c-2.38 3.35-5.01 6.91-6.27 10.85-0.18 0.96-0.91 2.52-0.28 3.39 2.39 1.37 6.26 1.74 7.72 4.18 1.22 2.71 0.81 6.09 2.18 8.82 1.35 2.72 4.05 4.87 5.54 7.46 2.07 3.75 2.581 8 4.131 11.77l0.73 0.16c1.17-3.53 1.33-7.78 0.59-11.41-1.58-5.93-4.89-10.65-8.53-15.45-3.98-5.01-1.721-11.84-2.301-17.63-0.96-1.06-2.05-1.94-3.51-2.14zm-85.119 7.03c-3.19 9.54-4.08 19.92-6.12 29.77-2.17 8.85-0.11 18.3 3.55 26.47 1.84 4.53 3.62 9.09 5.39 13.641 1.05 2.69 0.8 5.33 0.43 8.12-0.69 4.96 0.38 9.14-1.2 13.9-0.82 3.08-2.93 4.9-4.54 7.5-0.82 1.61-1.1 3.54-1.34 5.32 3.37 0.22 6.37-0.67 9.69-0.94 4.18-0.3 8.36-0.22 12.51 0.47 4.77 0.89 9.48 0.069 14.25-0.661-1.79-2.63-3.95-5.09-6.43-7.09-2.72-2.13-7.52-2.699-9.3-5.729-0.65-1.04-1.55-3.27-0.13-4.05 2.62-1.75 5.18-2.5 6.02-5.94-1.24-4.8-5.23-5.07-9.01-6.9-1.98-2.28-3.58-5.73-2.71-8.79 1.36-1.63 3.22-2.93 4.74-4.43-3.06-6.08-11.071-9.09-14.861-14.89-1.5-2.35-1.55-5.16-0.9-7.8 1.32-4.59 3.77-8.58 6.78-12.261 0.54-0.58 0.81-1.18 0.79-1.81-0.87-2.32-2.229-4.42-3.049-6.77-1.89-5.58-2.58-11.33-3.86-17zm143.08 20.93c-0.14 3.31-0.19 6.4-1.44 9.53-2.3 5.77 1.31 11.01 3.34 16.24 2.9 5.96 2.77 12.52 5.45 18.55 2.8 6.98 2.29 14.09 3.85 21.24 2.39 0.75 5.26-1.68 7.15-2.97-0.78-2.5-3.201-4.48-4.551-6.73-3.46-4.97-3.16-11.54-4.66-17.37-2.03-10.27-7.53-19.17-7.45-29.66-0.34-2.66-0.059-6.63-1.689-8.83zm-67.01 10.04c-0.39 5.38-0.831 11.77 2.819 16.22 3.6-2.32 0.68-5.42 0.27-8.63-0.8-2.22-0.62-6.57-3.09-7.59zm-9.656 2.027a0.757 0.757 0 0 0-0.354 0.103c-0.32 2.18-1.44 5.59-0.05 7.53 2.32 0.45 2.69-3.48 2.02-4.97-0.356-0.65-0.72-2.673-1.616-2.663zm96.255 58.022c-2.33 1.16-4.74 2.241-6.97 3.611-1.03 0.7-0.469 2.86-0.499 3.95 1.38 0.84 3.359-0.15 4.619-0.84 2.28-1 2.3-4.6 2.85-6.72zm5.4 25.601c1.38 3.11 3.96 5.739 3.89 9.179 0.51 4.58-2.13 8.011-4.09 11.991-1.16 2.2-3.76 3.12-4.57 5.39-1.07 2.59-2.259 4.86-3.829 7.19-4.24 6.56-3.84 15.42-8.52 21.47-1.88 2.7-4.79 4.73-7.55 6.45-5.58 2.3-12.402 1.95-18.082 0.08-5.43-1.61-10.12 0.78-15.16-1.88-1.56-0.89-2.85-0.19-4.48 0-2.19 0.41-4.27 0.26-6.48 0.34 0.43 1.89 0.491 5.32 2.681 5.99 12.22 5 25.53 6.73 38.43 3.39 4.84-0.7 7.82-3.64 11.6-6.4 1.59-1.16 2.59-2.75 3.56-4.43 2.27-4.02 4.939-7.79 7.239-11.791 3.7-5.38 7.95-10.78 9.84-17.16 1.65-5.27 3.63-9.959 3.4-15.62-0.19-3.01 0.59-7.23-1.43-9.68-1.79-2.18-3.35-4.47-6.45-4.51zm-230.86 31.48c-6.01 3.22-12.56 3.77-19.25 3.8-6.07 1.04-11.85 3.27-18 4.05-7.18 2.13-14.51 3.469-22 3.959-3 0.08-5.24 3.68-8.13 3.93-5.23-0.23-9.54-1.6-13.28-5.37-2.81 0.04-5.11 0.85-7.81-0.54-3.13-1.87-6.11-3.72-8.16-6.83-3.07 0.14-6.4 1-9.28 2.06-1.61 2.32-1.76 5.93-2.32 8.68-0.41 1.49 1.17 2.03 2.1 2.79 4.46 2.83 8.83 6.16 13.68 8.26 5.98 2.24 12.69 4.22 19.12 3.94 5.67-0.13 11.35 0.06 17.02-0.05 3.8-0.05 6.95-2.17 10.41-3.53 4.93-1.91 9.51-4.45 14.21-6.82 2.48-1.3 5.36-2.1 8.16-2.07 5.53 3.55 12.78 3.066 19.696 2.739 2.386-0.113 6.382 0.62 7.732-1.86 0.441-2.412 0.274-4.648-0.297-7.318-0.78-1.88-1.911-2.59-3.501-1.74-5.83 2.52-12 4.419-18.32 5.169-1.25-0.166-2.237-1.449-1.85-2.36 0.666-1.564 2.06-1.88 3.7-2.23 5.5-1.21 10.85-2.86 16.07-4.94 2.32-1.2 6.033-1.637 5.19-3.85-0.498-1.613-3.313-0.549-4.89 0.13zm209.61 18.87c-0.517 0-1.028 0.038-1.534 0.12-1.65 1.57-2.24 4.618-2.99 6.768 2.24-0.94 6.651-4.03 5.461-6.85a11.18 11.18 0 0 0-0.937-0.039z" fill="#7a3f28"/>
<path d="m416.04 139.19c4.11-0.77 8.42-1.01 12.6-0.97 3.44 0.08 6.22 1.73 9.32 3.03 4.59 1.76 9.21 4.8 12.62 8.3-1.78 1.18-5.5 1.79-6.01 4.1 0.46 1.46 0.99 3.31 2.94 2.96 2.96-1.2 4.43-3.65 7.96-2.99 3.72 1.44 7.19 3.26 11.17 4.03 3.91 1.19 8.29 1.26 12 2.95-2.36 1.58-4.2 4.08-6.71 5.33-3.97 1.22-7.21 3.08-11.44 2.07 0.94 4.41 4.44 8.28 6.34 12.38 1.34 2.98 4.08 4.54 5.84 7.13 0.94 2.29 1.63 4.7 2.27 7.09-2.06 1.93-6.21 2.19-8.82 3.52-4.27 1.45-7.28 4.96-11.41 6.51-0.17-2.25 1.08-5.75-0.61-7.5-2.61-1.5-4.83 0.23-7.26 1.11-0.71-2.28-1.01-4.42-2.45-6.41-1.52-2.18-3.72-3.47-5.66-5.21 0.85-1.62 2.06-3.2 2.63-4.94-0.84-1.67-2.04-3.82-4.23-2.58-0.42 1.43 0.6 3.41-1 4.11-2.23 1.23-4.9 2.56-7.47 2.67-2.13-1.02-4.51-2.52-5.92-4.44 0.05-1.69 1.4-3.31 1.85-4.95 0.04-3.03-1.17-6.38-4.49-7.03 0.32 2.14 1.28 3.83 0.37 5.96-1.14 2.91-1.54 5.85-2.08 8.9-2.54 2.86-7.41 4.73-8.46 8.57-0.72 1.55-1.03 3.97-2.43 5.02-2.15-0.51-4.55-2.64-5.84-4.42-0.11-2.41 0.48-5.27-0.33-7.55-1.31-2.47-4.22-3.88-5.55-6.22 1.87-3.04 4.06-5.28 4.25-9.08 0.35-3.25-1.66-4.78-3.07-7.35-0.41-2.06-0.28-4.24-0.77-6.28-0.61-1.88-1.67-3.55-2.45-5.37 0.98-1.52 2.76-2.62 4.23-3.63 5.46-3.6 11.65-7.34 18.07-8.82z" fill="#f0bf97"/>
<path d="m403.81 150.91c4.28-0.7 8.27 0.2 12.42 1.08 2.01 0.49 3.48 1.92 4.44 3.69-1.08 2.76-3.54 0.98-5.45 0.42-4.12-1.88-8.15-1.34-12.5-1.62 0.18-1.25 0.5-2.45 1.09-3.57z"/>
<path d="m388.58 153.6c-0.66 0.028-1.21 0.299-1.214 0.938 1.97 2.47 4.23 4.14 5.26 7.27 0.23 1.84 0.129 3.74-0.211 5.55-1.85 1.45-4.41 2.41-5.83 4.26-2.29 2.99-4.45 6.08-4.73 9.96 0.21 3.59 1.05 7.4 3.85 9.88 2.74 2.3 7.21 2.23 10.23 0.54 1.4-0.87 2.85-1.32 2.61-3.29-0.4-4.3-7.37-2.78-8.6-6.36-0.31-1.52 0.02-2.21 1.08-3.29 2.34-2.57 5.08-4.8 5.53-8.5 0.32-2.27-2.5-3.96-2.85-6.11-0.79-3.23-0.55-7.54-2.96-10.01-0.287-0.506-1.317-0.873-2.165-0.838zm94.175 7.418c-1.29 2.63-2.03 5.67-3.62 8.13-3.08 2.62-6.53 2.82-10.26 3.78l-0.39 0.65c4.6 6.32 8.85 13.29 11.49 20.67 0.68 1.52 1.8 4.09 3.59 4.48 2.74-1.59 4.16-3.96 7.26-4.9 2.45-0.78 6.32 1.35 8.22-0.62 1.09-4.08 4.32-8.531 1.45-12.551-2.36-3.39-1.59-7.35-4.48-10.47-3.09-4.79-7.96-7.47-13.26-9.17zm-60.019 25.91c-3.48 2.84-9.43 6.03-10.04 10.83-0.46 2.3 0.57 3.27 2.36 4.42 3.69 0.72 7.14 0.04 10.66-1.08 4.82-0.56 7.25 3.49 11.73 3.34 1.75-0.38 3.43-1.23 4.99-2.1 0.52-2.27 0.27-5.06-0.17-7.34-2.19-2.4-4.47-5.03-6.75-7.28-2.77 0.84-4.841 2.39-7.861 2-1.88-0.01-3.249-2.36-4.919-2.79zm-26.407 10.718c-0.44 0.018-0.909 0.086-1.414 0.21-0.39 2.18-0.31 4.13 0.17 6.28 1.09 5.29 0.49 10.622-1.3 15.682-0.7 5.52 0.9 11.479 3.06 16.529 2.09 2.52 5.17 4.3 7.79 6.24 3.79 2.59 7.48 1.47 11.54 2.52 6.54 2.41 14.17 2.04 20.96 0.93 3.2-0.46 3.88-2.94 5.7-5.17 2.4-3.5 6.009-5.19 8.759-8.22 1.51-2.3 1.89-5.25 3.3-7.65 1.63-3.43 4.39-5.56 7.44-7.65 3-1.86 3.14-5.23 5.02-7.95 2.63-2.61 6.53-4.25 8.93-7.11 0.29-0.69 0.29-1.47 0-2.34-4.28-1.72-8.61 2.22-12.31 4.09-4.45 3.47-10.51 7.399-16.42 6.499-1.02-4.06 3.08-5.92 3.98-10.02-4.23 0.74-6.69 6.02-11.02 7.05-1.94 0.32-4.01-0.04-5.97-0.05-2.62-0.06-5.299 0.93-7.819 1.11-1.7-0.65-2.25-2.53-4.23-2.84-2.87-0.7-5.65-1.65-8.47-2.5-3.51-0.93-7.07 0.23-10.16-1.98-2.782-1.532-4.455-3.79-7.536-3.661zm56.506 170.34c-1.49 1.89-2.57 3.87-4.47 5.42-2.46 2.13-5 3.7-5.99 7.01-1.14 3.94-2.96 7.451-5.01 10.98-3.42 6.05-4.5 12.82-8.29 18.71-1.01 2.08-3.04 4.15-3.46 6.38 1.86 1.51 5.35 3.2 7.74 3.1 2.08-3.43 3.25-7.31 5.52-10.67 6.82-10.51 13.529-21.08 20.399-31.55 0.89-1.46 2.4-3.88 1.53-5.57-2.5-1.51-5.2-2.88-7.97-3.81z" fill="#fff"/>
<path d="m419.15 159.17c0.33 0.76 0.42 1.48 0.27 2.18-0.71 0.54-1.44 1.08-2.16 1.61 0.29 0.8 0.65 1.57 0.96 2.37-2.62 0.24-5.17-0.03-7.77-0.33-2.29-0.35-4.7 1.39-6.8 2.22-0.35-0.48-0.68-0.99-0.97-1.53 2.18-3.83 5.93-5.16 10.05-5.88 2.01-0.23 4.44-1.11 6.42-0.64zm25.69 0.59c2.66-0.54 5.2-0.68 7.17 1.49 1.83 2.09 6.9 2.69 7.61 5.32-3.72-0.06-7.08-0.55-10.74 0.54-2.17 0.57-3.8 1.71-6.06 1.43-0.61-3.05 2.63-2.19 4.51-2.99 0-1.5-2.85-2.7-3.73-3.95-0.01-0.72 0.4-1.33 1.24-1.84zm-16.72 57.27c0.87 0.45 3.3 1.08 2.38 2.43-2.96 0.06-5.96 0.31-8.92 0.17l-0.31-0.94c1.28-1.94 4.75-2.65 6.85-1.66z"/><g fill="#0093dd">
<path d="m583.67 312.78h210.34s8e-3 132.1-7.04 198.66c-0.42 1.83 0.346 2.18 0.346 2.18s-169.64 0.438-173.36-0.08c1.03-4.7 2.68-8.96 2.77-13.87 0.04-6.9-1.4-14.23-4.93-20.23-5.99-9.75-13.45-17.51-20.98-26.03-3.07-3.51-7.03-6.73-9.38-10.77 2.42-4.44 6.36-7.88 8.77-12.39 4.18-7.79 8.99-15.49 12.36-23.66 3.07-8.08 1.92-16.14-0.82-24.1-5.28-14.92-7.76-30.1-11.49-45.48-1.42-8.31-6.58-24.23-6.58-24.23zm-574.16 1c3.94-0.33 11.128-0.11 15.078-0.14 43 0.01 86-0.03 129-0.01 3.6 0.03 7.25-0.17 10.84 0.16 0.27 7.89-0.21 15.83-0.35 23.72-0.01 4.13-1 8.07-1.53 12.14-0.45 3.45 1.26 5.77 2.2 8.91-2.06 3.64-7.98 4.5-10.02 8.22-1.72 2.93-0.95 7.24-1.56 10.55-0.62 1.29-1.87 2.26-2.72 3.43-0.65 3.75 0.52 7.51-0.46 11.3-0.68 2.65-0.11 5.11 0.23 7.75 0.71 3.19-2.42 5.01-1.19 8.35 1.49 4.1 5.53 7.45 8.7 10.33 2.41 2.3 5.16 3.03 8.31 3.78 1.18 8.54 0.85 17.57 1.76 26.21 0.75 6.53 0.41 13.1 1.13 19.63 0.65 6.06 0.28 12.14 0.94 18.2 0.35 3.43 0.5 6.87 0.55 10.32 0.05 6.37 1.2 12.46 0.97 18.85-3.57 0.31-7.21 0.13-10.8 0.15h-130c-3.21-0.02-11.01 0.2-14.2-0.2-1.293-70.138-12.383-140.06-6.878-201.65zm189.16-0.19c-1.641 0-3.282 0.038-4.907 0.193-0.34 10.26-0.01 20.57-0.07 30.84 0.12 4.54-0.25 9.15 0.22 13.67 3.49 3.43 7.4 5.62 9.69 10.27 0.97 1.62 1.41 4.04 3.24 4.8 3.56 1.97 7.46 3.39 11.31 4.68 3.35 1.39 5.881-1.3 9.301-0.34 3.74 0.91 7.44 2 11.21 2.83 5.04 1.14 9.81 3.35 14.91 3.26 6.21-0.14 12.24-1.36 17.62-4.58 6.45-3.86 12.08-8.79 18.9-12.11 5.86-3.55 12.94-4.64 17.12-9.85 2.9-3.67 4.96-8.1 6.49-12.5 2.5-6.82 1.88-14.88 2.12-22.13-0.05-2.89 0.47-6.04-0.21-8.86-3.66-0.3-7.37-0.11-11.03-0.14h-101c-1.63 5e-3 -3.271-0.033-4.913-0.033zm11.754 106.14c-1.8 1.08-3.43 2.431-5.27 3.451-3.26 1.53-7.83-0.45-10.92 0.19-0.3 1.02-0.45 2.09-0.45 3.2 0.06 29.26 0.17 58.5 0.23 87.75 3.46 0.52 7.08 0.289 10.57 0.309 38.33-0.01 76.67-9e-3 115-9e-3 3.58-0.03 7.249 0.209 10.799-0.221 0.77-2.09 0.87-4.549 1.15-6.759 1.48-13.8 5.031-27.4 9.571-40.48 2.47-7.19 5.68-13.93 9.55-20.47 3.08-5.1 5.14-10.66 8.33-15.68 0.89-1.46 1.9-2.961 2.51-4.571 0.44-1.78-0.98-3.4-2.02-4.69-2.61 2.32-4.7 5.13-7.36 7.4-9.04 8.46-19.55 13.89-30.4 19.62-5.67 2.98-11.59 5.29-17.66 7.32-17.03 5.46-34.63 8.96-52.43 10.58-5.67 0.3-11.361 0.05-17.041 0.1-5.17 0.07-10.39-0.44-15.34-1.97-2.82-0.74-4.301-4.05-5.341-6.5-2.73-7.33-3.099-16.04-4.049-23.76-0.62-4.99-0.2-9.88 0.57-14.81z"/></g><g fill="#f0bf97">
<path d="m173.83 348.39c3.49 2.84 6.06 6.59 9.73 9.28 4.14 3.52 9.17 5.13 13.11 8.89 3.67 3.21 3.39 8.39 7.81 11.19 4.42 2.04 9.09 3.64 13.65 5.35 2.64 0.95 3.74 4 4.45 6.47 1.39 5.52 1.71 11.4 2.07 17.07 0.06 2.61 0.39 5.56-1.17 7.83-3.52-0.58-7.18-1.76-10.76-1.79-4.18 0.72-5.92 4.3-9.23 5.99-2.97 0.06-6.92 0.79-9.65-0.21-0.92-4.61-1.66-10.12-0.06-14.64 1.51-2.96 4.36-5.16 5.88-8.19-2.42-4.07-5.9-6.83-8.88-10.3-0.71-1.76 2.29-3.91 2.83-5.62-1.74-4.7-8.43-0.74-11.23-3.84-1.28-1.06-2.51-2.28-3.41-3.68-1.63-2.36 0.51-6.33-1.65-8.3-3.22-3.42-2.91-0.623-5.49-4.643-0.59-1.48-1.222-1.93-1.763-4.493-0.52-2.465 1.933-8.084 3.763-6.364zm-6.89 15.76c0.07 0.9 0.063 2.387-0.07 4.548-1.82 1.24-0.784 0.404-2.184 2.114-0.48 2.38 4.04 3.04 4.88 5.03 0.95 2.04 0.36 5.09-1.09 6.79-3.52-1.8-7-3.63-10.55-5.36 0.12-2.82-0.79-7.58 2.06-9.24 2.63-2.13 3.494-3.542 6.954-3.882zm-10.3 17.62c2.93 1.03 5.63 2.92 8.26 4.54 1.38 0.93 3.11 1.94 3.94 3.41 0.353 3.02-0.644 4.868-2.34 5.79-3.81-1.87-7.68-4.12-10.93-6.87-2.15-1.8-0.86-5.48 1.07-6.87zm-2.07 11.94c4.48 1.31 8.19 5.65 11.22 9.03 2.07 3.212 0.863 4.642-0.22 5.73-3.68-1.58-6.93-4.26-9.9-6.89-2.44-1.84-1.49-5.31-1.1-7.87z"/>
<path d="m193.73 394.85c2.46-1.3 2.21 3.38-0.05 2.42-0.62-0.79-0.6-1.59 0.05-2.42zm-40.25 11.91c3.64 1.45 7.23 3.42 10.59 5.44 1.27 1.38 0.52 4.52 0.47 6.28-2.6-1.47-4.92-3.66-7.08-5.72-1.76-1.8-3.48-3.42-3.98-6zm291.25 9.97c3.18-0.88 5.59 1.15 8.39 2.33 3.86 1.93 7.95 3.02 12.14 3.96 5.55 1.7 10.74 4.98 14.63 9.31 1.78 1.93 3.96 2.92 6.62 2.46 5.51-1.34 10.54-6.14 16.16-7.19 4.27-0.56 7.64 2.82 10.08 5.87 2.54 3.38 5.27 7.65 5.72 11.92-8.605 2.926-16.541 5.696-24.505 7.704-1.915 3.441-6.976 8.392-15.085 11.816-3.351 1.186-6.91 1.87-10.08 1.5-4.49-1.84-10.094-4.48-13.984-7.38-4-2.95-7.386-4.43-11.016-7.58-1.47-1.33-0.81-2.5-3.1-2.77-6.19-1.81-12.86 0.89-17.69-3.03 0.6-1.79 2.59-5.18 4.61-4.97 8.08-0.33 17.77-0.38 25.31-3.66 2.45-0.92 3.97-3.63 2.35-5.96-2.9-3.72-7.23-6.28-10.26-9.92-1.08-1.03-0.44-3.11-0.29-4.41zm-146.08 375.05c11.08 1.72 22.36 4.57 32.7 8.88-1.89 4.45-1.06 9.2 0.62 13.58 3.33 3.77 6.92 7.8 9.41 12.21-3.41 4.16-8.04 4.83-13 5.94-7.24 0.61-14.4 1.57-21.39 3.65-2.23 0.39-4.86 1.71-7.09 1.39-1.04-4.31-1.29-8.35-4.12-11.99-2.88-3.42-6.67-6.25-9.37-9.81 3.7-2.8 7.37-5.24 9.94-9.24 3.37-4.42 1.88-9.44 2.3-14.61zm264.35 8.84c0.27 1.3-0.07 2.53 1.09 3.44 3.73 2.91 6 8.17 3.55 12.63-0.71 1.3-1.51 3.52-2.99 4.05-4.58-3.35-8.95-5.96-14.35-7.85-6.96-3.78-14.7-3.93-22.32-6.48l-0.33-0.69c11.84-1.07 23.66-2.88 35.35-5.1z"/></g>
<path d="m317.58 810.49c2.13 1.53 4.08 3.46 5.73 5.5 0.55 3.38 1.14 6.92-2.56 8.63-1.8-1.8-0.83-5.23-1.41-7.61-1.3-1.29-2.76-1.95-3.5-3.68-0.86-1.33 0.79-2.25 1.74-2.84z"/><g fill="#f0bf97">
<path d="m245.87 825.22c8.27 0.23 15.28-0.68 22.95 3.17 0.98 1.41 1.72 2.99 2.48 4.52 1.99 3.32 1.3 7.85 1.16 11.61-2.78 0.3-9.16 0.49-10.89-1.89l0.6-1.37c1.28-3.74 5.38-1.99 8.36-4.78-0.83-1.61-2.4-3.62-4.38-2.32-4 1.42-7 4.09-10.47 6.36-1.72-1.65-0.98-2.87 0.53-4.27 1.16-1.45 3.98-2.16 3.12-4.38l-1.59-0.13c-3.74 1.83-6.31 4.22-6.42 8.65-2.23-0.23-1.68-3.96-1.5-5.5 0.74-3.66 4.76-3.05 6.59-5.13-1.96-1.14-4.26-1.75-6.45-0.87-2.28 1.33-2.56 4.49-4.4 5.95-1.2-0.51-2.65-1.08-3.27-2.32-0.8-2.82 0.79-6.3 3.58-7.3zm263.55 6.63c0.03 2.5 0.05 5.05-0.34 7.53-0.55 2.81-1.71 5.3-1.74 8.24-0.24 2.17 0.32 5.1-1.01 6.93-3.66 0.61-7.59-0.9-10.33-3.29-1.92-1.83-1.39-4.62-0.76-6.89 0.79-2.81 3.91-4.29 6.04-6.06 3.17-2.18 4.18-5.46 8.14-6.46zm31.89 1.29c3.22 0.55 7.32 0.86 9.99 2.87 0.88 3.14-0.53 5.63-2.1 8.22-1.64 2.87-5.58 4.11-7.42 6.56-0.98 1.86-1.35 4.06-2.1 6.03-1.42 0.99-3.87 0.73-3.97-1.33-0.65-4.32 1.04-7.68 1.81-11.77-1.05 0.21-1.87 0.68-2.48 1.38-3.8 3.5-0.75 10.62-4.29 14.67-1.69 1.17-5.62 1.29-6.19-1.31-0.84-3.41 0.39-7.2-0.06-10.73-1.69-0.06-2.31 0.32-2.96 1.88-0.67 2.55-0.52 5.28-1.09 7.86-2.32 0.51-5.04 1.21-6.67-1.05-1.49-2.48-1.65-6-1.45-8.82 1.56-7.16 7.64-11.93 14.54-13.57 4.81-0.96 9.54-1.7 14.44-0.89zm14.51 3.71 0.55 0.01-0.01 0.55-0.55-0.01z"/></g>
<path d="m6.54 6.532-6e-3 348.53-2e-3 77.151c5.532 225.97 123.45 442.67 394.59 562.1 271.15-119.44 389.06-336.15 394.59-562.1l-2e-3 -425.68z" fill="none" stroke="#000" stroke-width="13.064"/></svg>
