<?xml version="1.0" encoding="UTF-8" standalone="no"?>
<!-- Created with Inkscape (http://www.inkscape.org/) -->

<svg
   xmlns:dc="http://purl.org/dc/elements/1.1/"
   xmlns:cc="http://creativecommons.org/ns#"
   xmlns:rdf="http://www.w3.org/1999/02/22-rdf-syntax-ns#"
   xmlns:svg="http://www.w3.org/2000/svg"
   xmlns="http://www.w3.org/2000/svg"
   xmlns:sodipodi="http://sodipodi.sourceforge.net/DTD/sodipodi-0.dtd"
   xmlns:inkscape="http://www.inkscape.org/namespaces/inkscape"
   version="1.0"
   width="208.86046"
   height="244.65999"
   id="svg2780"
   inkscape:version="0.92.5 (2060ec1f9f, 2020-04-08)"
   sodipodi:docname="VuisternensDevantRomont-blazon.svg">
  <metadata
     id="metadata27">
    <rdf:RDF>
      <cc:Work
         rdf:about="">
        <dc:format>image/svg+xml</dc:format>
        <dc:type
           rdf:resource="http://purl.org/dc/dcmitype/StillImage" />
        <dc:title></dc:title>
      </cc:Work>
    </rdf:RDF>
  </metadata>
  <sodipodi:namedview
     pagecolor="#ffffff"
     bordercolor="#666666"
     borderopacity="1"
     objecttolerance="10"
     gridtolerance="10"
     guidetolerance="10"
     inkscape:pageopacity="0"
     inkscape:pageshadow="2"
     inkscape:window-width="3287"
     inkscape:window-height="1417"
     id="namedview25"
     showgrid="false"
     inkscape:zoom="2.0000001"
     inkscape:cx="121.83436"
     inkscape:cy="103.49341"
     inkscape:window-x="-8"
     inkscape:window-y="-8"
     inkscape:window-maximized="1"
     inkscape:current-layer="svg2780"
     inkscape:measure-start="104.255,149.787"
     inkscape:measure-end="104.255,126.383"
     showguides="true"
     inkscape:object-paths="true"
     inkscape:snap-intersection-paths="true"
     inkscape:snap-object-midpoints="true" />
  <defs
     id="defs2782" />
  <path
     id="path4212-6"
     style="fill:#cc2918;fill-opacity:1;fill-rule:evenodd;stroke:#000000;stroke-width:1.99999988;stroke-linecap:butt;stroke-miterlimit:4;stroke-dashoffset:0;stroke-opacity:1"
     d="M 1.000033,149.10355 V 0.99999834 c 68.953472,0 137.906947,0 206.860417,0 V 149.10355 c 0,51.44535 -51.71515,94.56785 -103.43021,94.56785 -51.71506,0 -103.430207,-43.1225 -103.430207,-94.56785 z"
     inkscape:connector-curvature="0"
     sodipodi:nodetypes="sccscs" />
  <g
     id="g6758"
     transform="translate(205.09855,-1.162143)" />
  <path
     style="opacity:1;fill:#ffffff;fill-opacity:1;stroke:#000000;stroke-width:1;stroke-miterlimit:8;stroke-dasharray:none;stroke-dashoffset:4.57999992;stroke-opacity:1"
     d="M 22.128013,0.99999834 H 15.085341 L 190.13601,199.84576 l 3.13124,-4.44313 z"
     id="path7876"
     inkscape:connector-curvature="0" />
  <path
     style="opacity:1;fill:#ffffff;fill-opacity:1;stroke:#000000;stroke-width:1;stroke-miterlimit:8;stroke-dasharray:none;stroke-dashoffset:4.57999992;stroke-opacity:1"
     d="m 1.000033,17.000038 v 8 l 170.715587,193.921392 4.028,-3.42446 z"
     id="path7878"
     inkscape:connector-curvature="0" />
  <g
     id="g7888">
    <path
       id="path9987-9-9-4-6-0-8-2-2"
       d="m 149.71539,86.247592 c -7.87851,0 -14.96441,7.162108 -22.84375,7.162108 -7.74361,0 -14.7249,-6.902297 -22.4414,-7.140623 v 22.220703 c 6.5e-4,0 0.001,0 0.002,0 7.87852,0 14.96441,7.16016 22.84375,7.16016 7.87934,0 14.96524,-7.16016 22.84375,-7.16016 2.05317,0 4.05181,0.49184 6.02539,1.21094 V 87.612827 c -2.10507,-0.801349 -4.23594,-1.365232 -6.42969,-1.365235 z"
       style="opacity:1;fill:#1b63c6;fill-opacity:1;stroke:#000000;stroke-width:1;stroke-miterlimit:20;stroke-dasharray:none;stroke-dashoffset:4.57999992;stroke-opacity:1"
       inkscape:connector-curvature="0" />
    <path
       id="path9987-9-9-4-6-0-8-2-5"
       d="m 195.40294,86.247592 c -7.87852,0 -14.96441,7.162108 -22.84375,7.162108 -5.68537,0 -10.95905,-3.720288 -16.41406,-5.796873 v 22.087893 c 5.59953,2.04027 10.99241,5.94922 16.81836,5.94922 7.87934,0 14.96718,-7.16016 22.8457,-7.16016 4.16044,0 8.10082,1.99042 12.05274,3.875 V 90.314 c -4.08909,-1.939199 -8.15593,-4.066402 -12.45899,-4.066408 z"
       style="opacity:1;fill:#feeb00;fill-opacity:1;stroke:#000000;stroke-width:1;stroke-miterlimit:20;stroke-dasharray:none;stroke-dashoffset:4.57999992;stroke-opacity:1"
       inkscape:connector-curvature="0" />
    <path
       id="path9987-9-9-4-6-0-8-2-1-0"
       d="m 195.40294,108.46829 c -7.87852,0 -14.96441,7.16211 -22.84375,7.16211 -5.68537,0 -10.95905,-3.72029 -16.41406,-5.79687 v 22.08789 c 5.59953,2.04027 10.99241,5.94922 16.81836,5.94922 7.87934,0 14.96718,-7.16016 22.8457,-7.16016 4.16044,0 8.10082,1.99042 12.05274,3.875 V 112.5347 c -4.08909,-1.9392 -8.15593,-4.0664 -12.45899,-4.06641 z"
       style="opacity:1;fill:#1b63c6;fill-opacity:1;stroke:#000000;stroke-width:1;stroke-miterlimit:20;stroke-dasharray:none;stroke-dashoffset:4.57999992;stroke-opacity:1"
       inkscape:connector-curvature="0" />
    <path
       id="path9987-9-9-4-6-0-8-2-1-5"
       d="m 149.71539,108.46829 c -7.87851,0 -14.96441,7.16211 -22.84375,7.16211 -7.74361,0 -14.7249,-6.9023 -22.4414,-7.14062 v 22.2207 c 6.5e-4,0 0.001,0 0.002,0 7.87852,0 14.96441,7.16016 22.84375,7.16016 7.87934,0 14.96524,-7.16016 22.84375,-7.16016 2.05317,0 4.05181,0.49184 6.02539,1.21094 v -22.08789 c -2.10507,-0.80135 -4.23594,-1.36523 -6.42969,-1.36524 z"
       style="opacity:1;fill:#feeb00;fill-opacity:1;stroke:#000000;stroke-width:1;stroke-miterlimit:20;stroke-dasharray:none;stroke-dashoffset:4.57999992;stroke-opacity:1"
       inkscape:connector-curvature="0" />
    <path
       id="path9987-9-9-4-6-0-8-2-2-3"
       d="m 59.14509,86.247592 c 7.87851,0 14.96441,7.162108 22.84375,7.162108 7.74361,0 14.7249,-6.902297 22.4414,-7.140623 v 22.220703 c -6.5e-4,0 -0.001,0 -0.002,0 -7.87852,0 -14.96441,7.16016 -22.84375,7.16016 -7.87934,0 -14.96524,-7.16016 -22.84375,-7.16016 -2.05317,0 -4.05181,0.49184 -6.02539,1.21094 V 87.612827 c 2.10507,-0.801349 4.23594,-1.365232 6.42969,-1.365235 z"
       style="opacity:1;fill:#feeb00;fill-opacity:1;stroke:#000000;stroke-width:1;stroke-miterlimit:20;stroke-dasharray:none;stroke-dashoffset:4.57999992;stroke-opacity:1"
       inkscape:connector-curvature="0" />
    <path
       id="path9987-9-9-4-6-0-8-2-5-3"
       d="m 13.45754,86.247592 c 7.87852,0 14.96441,7.162108 22.84375,7.162108 5.68537,0 10.95905,-3.720288 16.41406,-5.796873 v 22.087893 c -5.59953,2.04027 -10.99241,5.94922 -16.81836,5.94922 -7.87934,0 -14.96718,-7.16016 -22.8457,-7.16016 -4.16044,0 -8.10082,1.99042 -12.05274,3.875 V 90.314 c 4.08909,-1.939199 8.15593,-4.066402 12.45899,-4.066408 z"
       style="opacity:1;fill:#1b63c6;fill-opacity:1;stroke:#000000;stroke-width:1;stroke-miterlimit:20;stroke-dasharray:none;stroke-dashoffset:4.57999992;stroke-opacity:1"
       inkscape:connector-curvature="0" />
    <path
       id="path9987-9-9-4-6-0-8-2-1-0-0"
       d="m 13.45754,108.46829 c 7.87852,0 14.96441,7.16211 22.84375,7.16211 5.68537,0 10.95905,-3.72029 16.41406,-5.79687 v 22.08789 c -5.59953,2.04027 -10.99241,5.94922 -16.81836,5.94922 -7.87934,0 -14.96718,-7.16016 -22.8457,-7.16016 -4.16044,0 -8.10082,1.99042 -12.05274,3.875 V 112.5347 c 4.08909,-1.9392 8.15593,-4.0664 12.45899,-4.06641 z"
       style="opacity:1;fill:#feeb00;fill-opacity:1;stroke:#000000;stroke-width:1;stroke-miterlimit:20;stroke-dasharray:none;stroke-dashoffset:4.57999992;stroke-opacity:1"
       inkscape:connector-curvature="0" />
    <path
       id="path9987-9-9-4-6-0-8-2-1-5-6"
       d="m 59.14509,108.46829 c 7.87851,0 14.96441,7.16211 22.84375,7.16211 7.74361,0 14.7249,-6.9023 22.4414,-7.14062 v 22.2207 c -6.5e-4,0 -0.001,0 -0.002,0 -7.87852,0 -14.96441,7.16016 -22.84375,7.16016 -7.87934,0 -14.96524,-7.16016 -22.84375,-7.16016 -2.05317,0 -4.05181,0.49184 -6.02539,1.21094 v -22.08789 c 2.10507,-0.80135 4.23594,-1.36523 6.42969,-1.36524 z"
       style="opacity:1;fill:#1b63c6;fill-opacity:1;stroke:#000000;stroke-width:1;stroke-miterlimit:20;stroke-dasharray:none;stroke-dashoffset:4.57999992;stroke-opacity:1"
       inkscape:connector-curvature="0" />
  </g>
  <path
     id="path6552-1-5-1"
     style="opacity:1;fill:#009645;fill-opacity:1;stroke:#000000;stroke-width:1;stroke-miterlimit:8;stroke-dasharray:none;stroke-dashoffset:4.57999992;stroke-opacity:1"
     d="m 82.294653,211.91892 c -3.82512,-9.3584 -15.56957,-11.58171 -24.09321,-7.36697 -7.064263,3.49311 -13.883933,12.99521 -7.074963,24.05692 16.883933,9.8185 32.154023,15.06253 53.30376,15.06253 21.14974,0 36.41983,-5.24403 53.30376,-15.06253 6.80897,-11.06171 -0.0107,-20.56381 -7.07496,-24.05692 -8.52364,-4.21474 -20.26809,-1.99143 -24.09321,7.36697 1.01501,-12.79593 -10.84409,-22.33528 -22.13559,-22.33528 -11.291497,0 -23.150597,9.53935 -22.135587,22.33528 z"
     inkscape:connector-curvature="0"
     sodipodi:nodetypes="cscccsccc" />
  <path
     id="path4212-6-7"
     style="fill:none;fill-opacity:1;fill-rule:evenodd;stroke:#000000;stroke-width:1.99999988;stroke-linecap:butt;stroke-miterlimit:4;stroke-dashoffset:0;stroke-opacity:1"
     d="M 1.000033,149.10355 V 0.99999834 c 68.953472,0 137.906947,0 206.860417,0 V 149.10355 c 0,51.44535 -51.71515,94.56785 -103.43021,94.56785 -51.71506,0 -103.430207,-43.1225 -103.430207,-94.56785 z"
     inkscape:connector-curvature="0"
     sodipodi:nodetypes="sccscs" />
</svg>
