<?xml version="1.0" encoding="utf-8" standalone="no"?>
<!DOCTYPE svg PUBLIC "-//W3C//DTD SVG 1.1//EN" "http://www.w3.org/Graphics/SVG/1.1/DTD/svg11.dtd">
<svg version="1.1"
   xmlns="http://www.w3.org/2000/svg"
   xmlns:xlink="http://www.w3.org/1999/xlink"
   width="520" height="585" viewBox="0,0 100,112.5">
  <title>Wappen von Endingen</title>
  <desc>Wappen der Schweizer Gemeinde Endingen, Kanton Aargau</desc>
  <g stroke="black" stroke-width="2">
    <path d="M 1,1 H 99 V 62.5 A 49,49 0 0,1 1,62.5 z" fill="white" />
    <path d="M 50,1 H 99 V 62.5 A 49,49 0 0,1 50,111.5" fill="#fcdb00" />
    <g stroke-width="1" stroke-miterlimit="10" fill="#f00000">
      <path d="M 50,2 c 0,3 -3,6.5 -8,10 -3,2 -8.5,6 -8.5,12 0,13 11,22 11,43 0,12 -5.5,15 -5.5,23 0,5 3,7 6,11 2.5,3 5,8 5,9.5 z M 10,67.5 C 12,66 12.5,63.5 12.5,61 12.5,53.5 4.5,51 4.5,41 4.5,31 12,27 17.5,27 31,27 42,50 42,67 42,78 35.5,81 36,90 32.5,85 28,81 23,77.5 32,80.5 37.3,75 37.3,67 37.3,58 32,48.5 25,48.5 18,48.5 17.8,57 16.5,61 15.8,63 15.5,66.5 10,67.5 z" />
      <path d="M 50,65 H 35.25 a 2.75,2.75 0 0,0 0,5.5 H 50 z" />
    </g>
  </g>
</svg>
