<svg xmlns="http://www.w3.org/2000/svg" height="493" width="422"><path d="m 210.15 7.739 h 205.2 c 0 0 0 250 0 330 0 80 -150 150 -205 150" fill="#fff"/><path d="m 210.35 487.74 c -55 0 -205 -70 -205 -150 0 -92.5 0 -330 0 -330 h 204.8" fill="#078930"/><g stroke="#000"><g stroke-linejoin="round" stroke-linecap="round"><path d="m 50.935 354.4 c -4.534 -3.597 -1.609 -10.825 -7.522 -8.07 -4.935 2.299 -7.101 20.5 -20.748 9.845 -7.78 -6.074 -1.406 -15.175 10.01 -16.65 1.791 -9.757 -6.66 -19.344 -4.646 -27.21 3.235 -12.641 8.417 -22.92 25.352 -24.846 0.283 -18.438 -11.567 -64.4 7.691 -59.875 0.371 -12.851 -6.507 -30.564 4.02 -34.19 1.781 -11.449 -5.05 -36.24 12.212 -32.03 0.581 -11.325 -3.099 -50.862 16.05 -37.536 1.033 -5.991 -6.375 -18.584 5.714 -19.05 -4.084 -22.1 3.073 -28.727 8.094 -28.759 4.815 -0.031 8.624 4.234 7.496 19.621 16.87 -7.451 14.56 43.475 12.862 73.61 17.264 -15.617 15.751 8.798 17.532 20.247 16.983 -2.838 7.445 38.437 7.816 51.29 19.257 -4.526 10.447 28.516 10.731 46.954 16.935 1.927 19.457 11.446 22.692 24.09 2.01 7.869 -6.438 17.456 -4.646 27.21 9.139 1.855 12.576 13.03 6.214 16.65 -11.767 6.694 -12.815 -9.895 -16.948 -9.845 -6.522 0.078 0.107 14.596 -8.662 13.391 -5.674 -0.78 -5.186 -9.176 -6.769 -10.991 -4.02 -4.605 -33.378 -0.653 -48.32 -3.049 -13.531 2.546 -38.28 -12.1 -42.706 2.102 -3.76 12.05 -9.793 10.05 -13.519 7.091 z" fill="#fff" stroke-width="3"/><g fill="#0f47af"><g stroke-width="2.97"><path d="m 266.8 188.38 a 14.198 14.494 0 1 1 -28.396 0 14.198 14.494 0 1 1 28.396 0 z" transform="matrix(1.02047 0 0 0.99965 -10.786 -2.301)"/><path d="m 266.8 188.38 a 14.198 14.494 0 1 1 -28.396 0 14.198 14.494 0 1 1 28.396 0 z" transform="matrix(1.02047 0 0 0.99965 124.21 -2.301)"/><path d="m 266.8 188.38 a 14.198 14.494 0 1 1 -28.396 0 14.198 14.494 0 1 1 28.396 0 z" transform="matrix(1.02047 0 0 0.99965 9.214 40.699)"/><path d="m 266.8 188.38 a 14.198 14.494 0 1 1 -28.396 0 14.198 14.494 0 1 1 28.396 0 z" transform="matrix(1.02047 0 0 0.99965 104.21 40.699)"/><path d="m 266.8 188.38 a 14.198 14.494 0 1 1 -28.396 0 14.198 14.494 0 1 1 28.396 0 z" transform="matrix(1.02124 0 0 0.99962 54.03 154.71)"/><path d="m 266.8 188.38 a 14.198 14.494 0 1 1 -28.396 0 14.198 14.494 0 1 1 28.396 0 z" transform="matrix(1.02047 0 0 0.99965 54.21 -112.3)"/></g><path d="m 345.02 162.17 l 17.06 -24.757 c -2.414 -3.764 -11.846 -3.559 -18.536 -4.05 21.05 -11.909 29.44 -16.226 45.499 -33.434 -7.466 22.322 -7.261 31.753 -7.689 55.936 -3.11 -6.506 -7.939 -14.03 -12.399 -14.362 l -13.624 26.803 z" stroke-width="3"/></g><g stroke-width="3"><path d="m 267.31 347.5 l 25.571 -42.966 l -7.264 -17.12 c 0 0 47.41 -75.74 71.11 -113.62 4.245 -6.783 -13.249 -17.195 -17.19 -10.228 -21.984 38.895 -65.953 116.68 -65.953 116.68 l -18.516 1.781 l -25.571 42.966 l 23.814 -6.774 l -8.694 14.609 c -3.598 6.05 5.239 10.75 8.593 5.114 l 8.694 -14.609 z" fill="#da121a"/><path d="m 282.52 162.17 l -17.06 -24.757 c 2.414 -3.764 11.846 -3.559 18.536 -4.05 c -21.05 -11.909 -29.44 -16.226 -45.499 -33.434 c 7.466 22.322 7.261 31.753 7.689 55.936 3.11 -6.506 7.939 -14.03 12.399 -14.362 l 13.624 26.803 z" fill="#0f47af"/><path d="m 360.24 347.5 l -25.571 -42.966 l 7.264 -17.12 c 0 0 -47.41 -75.74 -71.11 -113.62 -4.245 -6.783 13.249 -17.195 17.19 -10.228 21.984 38.895 65.953 116.68 65.953 116.68 l 18.516 1.781 l 25.571 42.966 l -23.814 -6.774 l 8.694 14.609 c 2.894 4.863 -5.503 10.307 -8.593 5.114 l -8.694 -14.609 z" fill="#da121a"/><g fill="#078930"><path d="m 148.39 325.47 c -1.028 6.228 -11.754 5.105 -12.541 -0.38 -0.994 -6.931 -10.622 -4.866 -16.341 -5.89 9.04 -3.8 31.25 -8.06 28.882 6.27 z"/><path d="m 64.25 326.57 c 4.054 4.839 9.592 0.583 8.526 -4.854 -0.629 -3.208 10.03 -4.081 14.14 -8.474 -10.41 -3.553 -31.981 2.213 -22.669 13.328 z"/><path d="m 146.11 298.49 c 11.788 1.601 21.462 1.846 31.16 17.861 3.179 5.249 -8.17 6.955 -11.781 1.14 -7.49 -12.06 -12.921 -13.68 -19.381 -19 z"/><path d="m 95.19 314.07 c 0.785 -15.946 -4.355 -44.08 -12.541 -66.5 -4.8 -13.147 -9.99 -16.206 -11.02 0 -0.595 9.355 -3.094 21.03 2.28 30.402 15.176 -13.02 15.16 21.06 21.281 36.1 z"/><path d="m 115.71 306.09 c 3.04 -22.421 -4.145 -50.666 7.981 -70.3 4.213 -6.823 16.15 7.575 12.161 26.602 -18.17 -8.398 -18.261 18.828 -20.14 43.703 z"/><path d="m 135.85 215.64 c 3.642 6.728 2.654 19.02 9.501 29.26 1.808 -12.414 3.562 -28.691 -4.56 -40.663 -13.191 -19.441 -19.689 -3.277 -17.671 13.11 3.937 -1.978 2.974 -19.735 12.731 -1.71 z"/><path d="m 78.85 303.43 c -11.781 -9.434 -26.714 -12.764 -35.722 -1.14 -9.914 12.793 -1.485 24.444 4.94 14.821 8.05 -12.06 20.18 -11.936 30.782 -13.681 z"/><path d="m 98.61 257.44 c -0.239 -12.287 3.946 -25.679 -3.8 -36.862 -8.204 -11.843 -12.325 1.318 -11.02 11.401 9.109 -2.251 11.152 13.643 14.821 25.462 z"/><path d="m 106.59 329.68 c 4.645 -0.06 2.848 -105.75 8.361 -192.7 0.296 -4.666 9.405 -14.449 0 -23.18 12.778 0.747 11.519 -16.474 0.38 -11.02 -5.247 -6.209 -9.825 -4.402 -14.06 1.52 -14.605 1.013 -9.369 11.907 -7.981 20.14 2.736 -6.883 11.794 -12.328 17.1 -8.361 5.229 3.909 1.757 9.121 1.9 13.681 -14.298 -11.26 -8.89 20.711 -13.301 31.922 -17.02 -26.739 -18.12 25.09 -7.378 10.744 8.487 -19.11 12.11 27.396 12.318 35.999 0.94 39.521 -0.724 121.3 2.66 121.25 z"/></g><path d="m 60 330 h 101 c 15 0 13 7 -4 11 -1 7 -3 15 -11 15 0 12 -15 12 -15 0 h -15 c 0 12 -15 12 -15 0 h -15 c 0 12 -15 12 -15 0 -8 0 -10 -9 -11 -15 -13 -4 -15 -11 0 -11 z" fill="#da121a"/><path d="m 131 356 c 0 -10 14.84 -9.87 15 0 m -45 0 c 0 -10 15 -10 15 0 m -45 0 c 0 -10 15 -10 15 0 m 71 -15 h -97 m 292.86 -62.89 l 21.497 40.04 m -33.32 -32.515 l 25.797 39.502 m -105.07 -1.344 l 25.26 -38.427 m -33.858 33.05 l 22.304 -41.38" fill="none"/></g></g><g fill="none" stroke-width="6"><path d="m 211.85 6.247 v 478.83"/><path d="m 6,7 410,0 c 0,0 0,250 0,330 0,80 -150,150 -205,150 C 156,487 6,417 6,337 6,244.5 6,7 6,7 z"/></g></g></svg>