<?xml version="1.0" encoding="UTF-8" standalone="no"?>
<svg
   xmlns:dc="http://purl.org/dc/elements/1.1/"
   xmlns:cc="http://creativecommons.org/ns#"
   xmlns:rdf="http://www.w3.org/1999/02/22-rdf-syntax-ns#"
   xmlns:svg="http://www.w3.org/2000/svg"
   xmlns="http://www.w3.org/2000/svg"
   viewBox="0 0 260 300"
   height="300"
   width="260"
   xml:space="preserve"
   id="svg2"
   version="1.1"><metadata
     id="metadata8"><rdf:RDF><cc:Work
         rdf:about=""><dc:format>image/svg+xml</dc:format><dc:type
           rdf:resource="http://purl.org/dc/dcmitype/StillImage" /><dc:title></dc:title></cc:Work></rdf:RDF></metadata><defs
     id="defs6" /><g
     transform="matrix(1.3333333,0,0,1.3333333,0,7.5e-6)"
     id="g10"><g
       id="g12"><g
         id="g14"><path
           id="path16"
           style="fill:#f5f5f5;stroke:#000000;stroke-width:2.25"
           d="m 4.875,4.875 v 121.746 c 0,51.641 41.469,93.504 92.625,93.504 51.156,0 92.625,-41.859 92.625,-93.504 V 4.875 Z" /></g><g
         id="g18"><path
           id="path20"
           style="fill:#046eb1;stroke:#000000;stroke-width:0.75"
           d="m 97.5,4.875 v 215.25 c 51.156,0 92.625,-41.859 92.625,-93.504 V 4.875 Z" /></g><g
         id="g22"><path
           id="path24"
           style="fill:none;stroke:#000000;stroke-width:2.25"
           d="m 4.875,4.875 v 121.746 c 0,51.641 41.469,93.504 92.625,93.504 51.156,0 92.625,-41.859 92.625,-93.504 V 4.875 Z" /></g><g
         transform="matrix(1,0.0447076,-0.0447076,1,0,0)"
         id="g26"><path
           id="path28"
           style="fill:#f5f5f5;stroke:#000000;stroke-width:0.69231701;stroke-linecap:round;stroke-linejoin:round"
           d="m 67.433,164.868 c 0.095,-0.325 0.167,-0.73 0.25,-0.972 0.148,-0.265 0.314,-0.659 0.633,-1.212 0.301,-0.525 0.676,-0.874 1.15,-1.114 1.129,-0.589 2.679,-0.358 3.634,-1.631 0.193,0.401 0.483,0.931 0.646,1.604 0.201,0.741 0.242,1.934 -0.532,3.313 -0.188,0.332 -0.395,0.592 -0.609,0.785 -0.949,0.89 -1.997,0.429 -2.757,0.111 -0.844,-0.353 -1.702,-0.674 -2.415,-0.884 z m 0.788,-7.109 c -0.394,-0.952 -0.979,-2.843 -0.33,-4.845 0.78,-2.398 3.294,-1.386 4.628,-3.086 0.419,0.813 1.305,2.11 0.629,4.195 -0.845,2.596 -3.791,1.185 -4.927,3.736 z m -0.538,-10.207 c -0.359,-1.031 -0.811,-3.007 0.012,-4.969 0.982,-2.329 3.405,-1.074 4.868,-2.69 0.359,0.87 1.119,2.235 0.271,4.234 -1.049,2.48 -3.909,0.819 -5.151,3.425 z m 0.22,-10.279 c -0.289,-1.042 -0.62,-3.019 0.303,-4.92 1.098,-2.26 3.464,-0.897 4.996,-2.458 0.317,0.885 1.021,2.306 0.058,4.279 -1.188,2.436 -3.942,0.602 -5.357,3.099 z m 0.74,-10.178 c -0.258,-1.043 -0.521,-3.016 0.434,-4.875 0.448,-0.656 1.078,-1.235 1.926,-1.223 1.302,0.024 2.399,0.018 3.36,-0.423 0.282,0.878 0.499,2.079 -0.27,3.574 -1.25,2.431 -3.953,0.517 -5.45,2.947 z" /></g><g
         transform="matrix(1,0.0447076,-0.0447076,1,0,0)"
         id="g30"><path
           id="path32"
           style="fill:#046eb1;stroke:#000000;stroke-width:0.69231701;stroke-linecap:round;stroke-linejoin:round"
           d="m 73.641,124.872 c -1.547,1.557 -3.895,0.166 -5.025,2.404 -0.944,1.874 -0.656,3.85 -0.387,4.896 1.469,-2.456 4.19,-0.57 5.417,-3.004 0.994,-1.962 0.305,-3.404 -0.005,-4.296 z M 72.828,134.9 c -1.504,1.583 -3.895,0.264 -4.94,2.557 -0.883,1.926 -0.501,3.909 -0.182,4.942 1.34,-2.544 4.141,-0.783 5.269,-3.24 0.916,-1.982 0.189,-3.375 -0.147,-4.259 z m -0.382,9.974 c -1.407,1.653 -3.877,0.482 -4.771,2.862 -0.16,0.433 -0.262,0.863 -0.321,1.288 -0.2,1.552 0.217,2.928 0.533,3.707 0.562,-1.326 1.588,-1.607 2.576,-1.873 1,-0.276 1.933,-0.536 2.409,-1.784 0.028,-0.068 0.052,-0.135 0.073,-0.202 0.641,-1.908 -0.127,-3.174 -0.499,-3.998 z m 0.37,9.937 c -1.28,1.788 -3.792,0.814 -4.595,3.127 -0.47,1.357 -0.365,2.665 -0.161,3.64 0.072,0.396 0.18,0.723 0.269,0.965 0.286,-0.419 0.604,-0.734 0.98,-0.974 1.417,-0.911 3.42,-0.317 4.146,-2.427 0.736,-2.146 -0.201,-3.519 -0.639,-4.331 z" /></g><g
         transform="matrix(-1,0.0447076,0.0447076,1,0,0)"
         id="g34"><path
           id="path36"
           style="fill:#f5f5f5;stroke:#000000;stroke-width:0.69231701;stroke-linecap:round;stroke-linejoin:round"
           d="m -126.991,173.56 c 0.095,-0.324 0.167,-0.73 0.25,-0.972 0.148,-0.264 0.314,-0.658 0.629,-1.212 0.305,-0.525 0.676,-0.874 1.15,-1.113 1.134,-0.59 2.679,-0.359 3.638,-1.632 0.19,0.402 0.479,0.932 0.642,1.604 0.201,0.741 0.246,1.935 -0.532,3.313 -0.184,0.333 -0.391,0.592 -0.605,0.785 -0.953,0.89 -2.001,0.429 -2.757,0.111 -0.848,-0.352 -1.706,-0.673 -2.415,-0.884 z m 0.784,-7.109 c -0.39,-0.951 -0.978,-2.843 -0.326,-4.845 0.776,-2.398 3.294,-1.385 4.624,-3.085 0.419,0.813 1.309,2.109 0.629,4.194 -0.845,2.596 -3.791,1.185 -4.927,3.736 z m -0.538,-10.206 c -0.359,-1.031 -0.81,-3.007 0.016,-4.97 0.978,-2.329 3.405,-1.074 4.868,-2.69 0.355,0.871 1.116,2.235 0.271,4.234 -1.049,2.48 -3.908,0.819 -5.155,3.426 z m 0.224,-10.28 c -0.289,-1.042 -0.619,-3.019 0.303,-4.92 1.099,-2.26 3.46,-0.897 4.996,-2.457 0.317,0.884 1.021,2.305 0.058,4.278 -1.191,2.436 -3.945,0.602 -5.357,3.099 z m 0.736,-10.177 c -0.253,-1.044 -0.521,-3.016 0.435,-4.875 0.447,-0.657 1.081,-1.236 1.929,-1.223 1.302,0.024 2.4,0.017 3.36,-0.424 0.282,0.878 0.496,2.079 -0.273,3.575 -1.247,2.431 -3.95,0.516 -5.451,2.947 z" /></g><g
         transform="matrix(-1,0.0447076,0.0447076,1,0,0)"
         id="g38"><path
           id="path40"
           style="fill:#046eb1;stroke:#000000;stroke-width:0.69231701;stroke-linecap:round;stroke-linejoin:round"
           d="m -120.783,133.564 c -1.547,1.557 -3.894,0.166 -5.025,2.404 -0.947,1.875 -0.656,3.85 -0.39,4.897 1.468,-2.457 4.189,-0.57 5.42,-3.004 0.994,-1.963 0.305,-3.405 -0.005,-4.297 z m -0.813,10.029 c -1.507,1.583 -3.894,0.263 -4.944,2.556 -0.879,1.927 -0.497,3.909 -0.178,4.942 1.34,-2.544 4.141,-0.783 5.269,-3.239 0.912,-1.983 0.186,-3.376 -0.147,-4.259 z m -0.382,9.974 c -1.411,1.653 -3.877,0.482 -4.771,2.861 -0.164,0.433 -0.266,0.864 -0.321,1.288 -0.2,1.552 0.217,2.928 0.533,3.707 0.562,-1.326 1.584,-1.606 2.572,-1.873 1.004,-0.275 1.937,-0.536 2.413,-1.784 0.024,-0.067 0.052,-0.135 0.073,-0.202 0.637,-1.908 -0.126,-3.174 -0.499,-3.997 z m 0.37,9.936 c -1.28,1.788 -3.796,0.814 -4.595,3.128 -0.47,1.356 -0.369,2.664 -0.161,3.64 0.072,0.395 0.177,0.722 0.266,0.964 0.286,-0.419 0.607,-0.734 0.983,-0.973 1.413,-0.911 3.416,-0.317 4.142,-2.428 0.74,-2.146 -0.2,-3.518 -0.635,-4.331 z" /></g><path
         id="path42"
         style="fill:#000000;fill-opacity:0.21568598"
         d="m 125.84,123.898 c -0.242,0.891 -0.402,2.102 0.433,3.563 1.356,2.375 3.973,0.34 5.582,2.703 0.207,-1.059 0.387,-3.039 -0.656,-4.855 -0.476,-0.637 -1.133,-1.188 -1.98,-1.137 -1.301,0.078 -2.399,0.125 -3.379,-0.274 z m 0.914,4.266 c -0.27,0.906 -0.895,2.375 0.187,4.297 1.34,2.379 3.977,0.371 5.555,2.762 0.219,-1.059 0.422,-3.047 -0.609,-4.879 -1.231,-2.188 -3.516,-0.696 -5.133,-2.18 z m 0.664,5.004 c -0.277,0.902 -0.914,2.352 0.133,4.281 1.301,2.383 3.972,0.426 5.496,2.86 0.242,-1.055 0.484,-3.047 -0.524,-4.907 -1.199,-2.211 -3.5,-0.742 -5.105,-2.234 z m 0.598,4.988 c -0.293,0.899 -0.957,2.324 0.043,4.266 1.238,2.406 3.961,0.519 5.414,3.004 0.273,-1.047 0.566,-3.047 -0.399,-4.934 -1.152,-2.246 -3.48,-0.82 -5.058,-2.336 z m 0.488,4.981 c -0.316,0.886 -1.016,2.285 -0.082,4.246 1.16,2.433 3.945,0.644 5.308,3.195 0.313,-1.047 0.676,-3.043 -0.238,-4.965 -1.086,-2.289 -3.453,-0.925 -4.988,-2.476 z m 0.34,4.976 c -0.305,0.766 -0.906,1.918 -0.465,3.539 0.453,-2.957 5.973,-2.464 5.652,1.407 -0.074,-0.297 -0.16,-2 -0.289,-2.297 -1,-2.34 -3.414,-1.059 -4.898,-2.649 z" /><path
         id="path44"
         style="fill:#ffea97"
         d="m 167.059,79.117 c 0,0 -19.336,41.746 -58.793,48.051 -29.852,4.77 -51.153,-12.445 -58.727,-28.5 C 48.363,98.602 47.914,97.59 48.324,95.91 46.738,91.945 46.602,89.078 46.77,85.797 41.781,69.648 4.539,113.734 14.59,122.809 c 2.512,0.89 5.551,1.355 8.656,2.125 1.024,-0.536 2.277,0 2.676,0.777 1.961,0.621 3.746,1.367 5.547,2.566 4.761,3.172 39.051,26.953 74.543,19.907 35.492,-7.043 61.605,-51.161 66.656,-65.653 z" /><path
         id="path46"
         style="fill:#ffea97"
         d="m 173.312,66.781 c -1.691,-1.031 -3.671,0.258 -4.605,2.856 -0.934,2.593 -0.848,7.347 -1.648,9.48 l 5.609,3.414 c 1.531,-1.691 5.785,-3.801 7.66,-5.824 1.879,-2.019 2.113,-4.371 0.422,-5.402 z" /><path
         id="path48"
         style="fill:#ffea97"
         d="m 134.266,117.125 c -0.454,2.063 4.558,10.418 7.449,10.941 0.519,0.395 0.371,1.633 -0.254,2.176 l -3.773,3.266 c -0.594,0.515 -1.18,0.183 -1.899,-0.449 -3.926,-3.434 -6.621,-7.45 -8.223,-11.989 -0.316,-0.902 -0.136,-1.855 0.543,-2.25 l 4.008,-2.32 c 1.106,-0.484 1.528,-0.117 2.149,0.625 z" /><path
         id="path50"
         style="fill:#ffea97"
         d="m 58.711,111.664 c 3.32,4.813 -14.621,24.957 -17.504,22.703 -0.492,0.43 -0.297,1.879 0.441,2.266 l 5.707,2.972 c 0.7,0.364 2.028,-0.125 2.895,-0.535 4.266,-2 15.023,-15.547 15.816,-21.375 0.129,-0.949 -0.101,-1.687 -0.691,-2.211 l -4.363,-3.879 c -0.922,-0.683 -1.637,-0.328 -2.301,0.059 z" /><g
         id="g52"><path
           id="path54"
           style="fill:none;stroke:#000000;stroke-width:1.07592201"
           d="m 173.312,66.781 c -1.691,-1.031 -3.671,0.258 -4.605,2.856 -0.934,2.593 -0.848,7.347 -1.648,9.48 l 5.609,3.414 c 1.531,-1.691 5.785,-3.801 7.66,-5.824 1.879,-2.019 2.113,-4.371 0.422,-5.402 z" /></g><path
         id="path56"
         style="fill:#ffea97"
         d="m 168.355,78.418 4.336,2.637 c 1.45,0.883 2.118,2.414 1.5,3.429 -0.621,1.02 -2.285,1.129 -3.738,0.246 l -4.332,-2.636 c -1.449,-0.883 -2.117,-2.414 -1.5,-3.43 0.621,-1.019 2.285,-1.129 3.734,-0.246 z" /><path
         id="path58"
         style="fill:#ffea97"
         d="m 156.738,94.09 7.836,5.465 c 0.887,0.617 0.852,2.187 -0.074,3.515 -0.926,1.328 -2.387,1.903 -3.273,1.282 l -7.836,-5.465 c -0.887,-0.617 -0.852,-2.184 0.074,-3.516 0.93,-1.328 2.387,-1.898 3.273,-1.281 z" /><path
         id="path60"
         style="fill:#be8c32"
         d="m 134.371,116.922 -0.476,-0.067 -0.415,0.071 c -0.554,-0.117 -0.597,0.812 -0.535,1.695 0.961,3.227 2.657,5.524 4.403,7.895 0.89,0.441 -2.442,3.382 -3.969,3.914 -0.426,0.148 -1.238,-1.098 -1.348,-1.028 -21.058,16.438 -51.219,15.926 -73.691,2.086 l -2.09,1.871 c -2.039,-0.75 -3.711,-1.847 -5.164,-3.148 l -4.465,4.008 c -1.648,1.328 -2.383,0.418 -2.394,-0.172 -0.004,-0.32 -0.184,0.055 1.25,-0.887 0.293,-0.191 3.714,-3.769 2.8,-3.59 l -11.984,-10.058 -0.516,0.148 c -0.386,-0.133 -1.593,-1.39 -1.355,-2.375 l -3.145,-2.914 -7.129,6.113 -6.82,2.715 2.059,0.906 3.804,0.657 1.618,-0.028 1.316,1.075 2,0.554 6.863,4.211 5.899,3.707 -0.051,1.141 0.66,1.211 6.141,3.094 2.832,-0.676 8.316,3.719 13.375,4.109 11.125,2.324 11.469,0.121 11.023,-0.937 10.715,-3.387 10.598,-5.559 5.629,-4.171 2.863,-2.68 1.52,1.25 4.945,-4.578 -0.254,-1.129 c 6.477,-7.914 15.098,-15.539 18.812,-23.821 -0.019,-0.015 1.383,0.59 2.454,-0.101 1.019,-0.656 1.695,-2.594 2.105,-3.399 0.293,-0.57 -0.391,-1.191 -0.992,-1.628 -0.285,-0.211 5.66,-9.407 7.281,-13.395 0.09,-0.223 1.871,-0.144 2.481,-1.113 0.539,-0.852 -0.067,-2.762 -0.25,-2.942 -0.067,-0.062 3.711,-2.238 5.793,-4.379 2.035,-2.097 2.378,-4.156 2.234,-4.468 -0.086,-0.184 -0.289,-1.055 -1.969,-2.176 -0.773,-0.52 -3.152,-1.484 -2.32,-0.859 3.301,2.488 -2.832,7.976 -5.77,10.003 -0.246,0.172 -0.414,0.415 -0.734,0.727 1.555,1.281 0.312,3.758 -1.379,2.965 -0.066,1.121 -0.281,0.828 -0.117,0.933 0.285,0.188 -4.883,10.075 -6.625,12.422 -0.156,0.211 -3.242,-1.898 -4.496,-2.652 -0.199,-0.121 -0.207,0.242 -0.309,0.188 -0.238,-0.126 1.785,1.441 1.766,1.441 -0.133,-0.012 2.601,2.168 2.789,2.848 0.422,1.543 -1.235,4.007 -2.879,3.968 -0.676,-0.015 -0.856,0.18 -0.961,0.391 -3.191,6.453 -14.977,18.023 -18.863,21.156 -2.282,-2.336 -4.707,-6.039 -4.524,-7.39 z" /><g
         id="g62"><path
           id="path64"
           style="fill:none;stroke:#000000;stroke-width:1.07592201"
           d="m 58.727,111.629 c -4.02,-4.094 -7.118,-8.57 -9.188,-12.961 C 48.363,98.602 47.914,97.59 48.324,95.91 46.738,91.945 46.602,89.078 46.77,85.797 41.781,69.648 4.539,113.734 14.59,122.809 c 2.512,0.89 5.551,1.355 8.656,2.125 1.024,-0.536 2.277,0 2.676,0.777 1.961,0.621 3.746,1.367 5.547,2.566 1.285,0.856 4.711,3.207 9.73,6.051 m 9.059,4.695 c 14.285,6.743 34.812,13.321 55.754,9.161 10.937,-2.168 20.984,-7.86 29.797,-15.122 M 141.512,128 c 7.828,-7.461 14.476,-15.945 19.656,-23.781 m 3.105,-4.903 c 3.329,-5.484 5.829,-10.433 7.395,-14.187 m -5.93,-3.426 c -1.492,2.758 -4.242,7.465 -8.265,12.852 m -3.602,4.566 c -5.098,6.109 -11.676,12.598 -19.758,17.871 m -6.66,3.863 c -5.762,2.938 -12.156,5.188 -19.187,6.313 C 90.973,129.934 76.547,125.316 66,117.824" /></g><g
         id="g66"><path
           id="path68"
           style="fill:none;stroke:#000000;stroke-width:1.07592201"
           d="m 134.266,117.125 c -0.454,2.063 4.558,10.418 7.449,10.941 0.519,0.395 0.371,1.633 -0.254,2.176 l -3.773,3.266 c -0.594,0.515 -1.18,0.183 -1.899,-0.449 -3.926,-3.434 -6.621,-7.45 -8.223,-11.989 -0.316,-0.902 -0.136,-1.855 0.543,-2.25 l 4.008,-2.32 c 1.106,-0.484 1.528,-0.117 2.149,0.625 z" /></g><path
         id="path70"
         style="fill:#000000"
         d="m 133.156,117.039 c -0.078,0.113 -0.156,0.277 -0.187,0.52 -0.024,0.183 -0.024,0.402 0.011,0.664 0.063,0.468 0.231,1.027 0.5,1.668 0.59,1.414 1.473,2.769 1.997,3.586 0.085,0.128 0.183,0.281 0.293,0.449 0.703,1.078 1.722,2.531 2.871,3.703 0.5,0.516 0.953,0.898 1.351,1.156 0.227,0.149 0.426,0.246 0.602,0.309 0.226,0.078 0.398,0.094 0.527,0.078 -0.129,0.016 -0.301,0.016 -0.539,-0.047 -0.18,-0.047 -0.391,-0.129 -0.637,-0.258 -0.429,-0.226 -0.922,-0.578 -1.472,-1.062 -1.239,-1.09 -2.391,-2.532 -3.125,-3.594 -0.118,-0.168 -0.219,-0.32 -0.305,-0.457 -0.52,-0.805 -1.348,-2.301 -1.824,-3.766 -0.219,-0.679 -0.332,-1.269 -0.348,-1.754 -0.008,-0.273 0.016,-0.496 0.059,-0.683 0.058,-0.239 0.148,-0.399 0.226,-0.512 z" /><path
         id="path72"
         style="fill:#000000"
         d="m 49.332,98.68 c 0,0.015 0.016,0.031 0.043,0.031 0.008,0 0.02,-0.004 0.027,-0.012 0.012,-0.004 0.02,-0.011 0.032,-0.015 0.015,-0.004 0.027,0 0.046,0.007 0.016,0.008 0.032,0.02 0.047,0.036 0.032,0.023 0.059,0.058 0.078,0.089 -0.035,0.903 -0.293,1.969 -0.699,3.106 -0.437,1.223 -1.047,2.531 -1.742,3.832 -1.785,3.336 -4.035,6.426 -5.797,8.59 -0.109,0.136 -0.222,0.273 -0.328,0.402 -1.617,1.953 -4.203,4.809 -7.25,7.223 -1.254,0.988 -2.59,1.91 -3.953,2.636 -1.262,0.672 -2.547,1.176 -3.801,1.411 -0.004,-0.004 -0.004,-0.012 0,-0.02 0.004,-0.004 0.008,-0.008 0.016,-0.016 0.004,-0.003 0.015,-0.011 0.035,-0.027 0.008,-0.008 0.023,-0.023 0.035,-0.039 0.016,-0.016 0.031,-0.047 0.043,-0.082 0.008,-0.043 0.008,-0.086 -0.008,-0.129 -0.015,-0.035 -0.035,-0.062 -0.054,-0.078 -0.032,-0.027 -0.059,-0.031 -0.067,-0.031 -0.015,-0.004 -0.023,-0.004 -0.027,0 -0.012,0.004 -0.016,0.011 -0.016,0.015 0,0.008 0.004,0.016 0.004,0.02 0.008,0.012 0.016,0.027 0.027,0.039 0.008,0.012 0.02,0.023 0.028,0.035 0.011,0.012 0.019,0.024 0.023,0.031 0,0.004 0,0.008 0,0.008 0,0.004 0,0.004 0,0.004 0,0.004 0,0.004 0,0.004 0,0 0,0 -0.004,0.004 0,0 -0.004,0.004 -0.004,0.004 0,0 -0.004,0.004 -0.004,0.008 -0.003,0.004 -0.003,0.007 -0.003,0.011 0.003,0.008 0.003,0.008 0.007,0.012 0,0 0.004,0.004 0.004,0.004 0.004,0 0.004,0 0.004,0 0,0 0.004,0 0.004,-0.004 0,-0.004 0,-0.004 -0.004,-0.008 0,0 0,-0.004 -0.004,-0.004 -0.004,-0.004 -0.008,-0.004 -0.015,-0.004 0.007,0 0.011,0 0.015,-0.003 0.004,0 0.004,-0.004 0.008,-0.004 0,0 0,-0.004 0.004,-0.004 0,0 0,-0.004 0.004,-0.004 0,0 0.004,0 0.004,0 0.004,0 0.004,0 0.008,0.004 0,0 0.004,0.004 0.004,0.008 0,0.007 0,0.011 0,0.015 -0.004,0.004 -0.004,0.004 -0.008,0.008 0,0 -0.004,0.004 -0.004,0.004 0,0 -0.004,0.004 -0.004,0.004 0,0 0,0.004 0,0.004 -0.004,0 -0.004,0.004 -0.004,0.004 0,0.003 -0.004,0.003 -0.004,0.007 -0.008,0.012 -0.016,0.02 -0.023,0.032 -0.012,0.011 -0.024,0.023 -0.039,0.039 -0.008,0.008 -0.028,0.023 -0.039,0.035 -0.008,0.004 -0.016,0.012 -0.024,0.016 -0.008,0.003 -0.019,0.011 -0.031,0.015 -0.008,0 -0.02,0 -0.035,0 -0.012,-0.004 -0.039,-0.012 -0.075,-0.039 -0.015,-0.016 -0.039,-0.039 -0.05,-0.078 -0.016,-0.043 -0.02,-0.086 -0.008,-0.129 0.008,-0.039 0.027,-0.066 0.043,-0.086 0.012,-0.016 0.027,-0.027 0.035,-0.035 0.016,-0.016 0.039,-0.031 0.043,-0.035 0.012,-0.008 0.02,-0.012 0.023,-0.02 0.012,-0.008 0.024,-0.015 0.036,-0.027 1.179,-0.242 2.406,-0.746 3.621,-1.418 1.308,-0.727 2.605,-1.645 3.824,-2.629 2.965,-2.406 5.496,-5.242 7.094,-7.176 0.109,-0.129 0.218,-0.261 0.328,-0.398 1.75,-2.145 3.988,-5.172 5.797,-8.442 0.703,-1.269 1.316,-2.543 1.761,-3.722 0.418,-1.098 0.68,-2.102 0.739,-2.93 0.023,-0.012 0.047,-0.008 0.074,0 0.016,0.004 0.031,0.012 0.043,0.012 0.015,0.004 0.027,0 0.039,-0.008 0.008,-0.008 0.016,-0.02 0.019,-0.031 0.008,-0.012 0.016,-0.02 0.024,-0.032 0.019,-0.023 0.035,-0.035 0.035,-0.05 z" /><path
         id="path74"
         style="fill:#000000"
         d="m 47.871,95.086 c -0.004,0.047 0.016,0.105 0.051,0.172 0.031,0.054 0.066,0.097 0.109,0.16 0.078,0.105 0.176,0.246 0.211,0.449 -0.047,0.86 -0.328,1.918 -0.769,3.074 -0.473,1.247 -1.125,2.61 -1.875,3.977 -1.922,3.523 -4.313,6.848 -6.203,9.211 -0.129,0.16 -0.254,0.316 -0.379,0.469 -1.715,2.105 -4.469,5.23 -7.676,7.863 -1.324,1.086 -2.735,2.098 -4.168,2.891 -1.328,0.734 -2.676,1.289 -3.984,1.531 -0.274,0.008 -0.512,-0.074 -0.715,-0.153 -0.278,-0.105 -0.45,-0.171 -0.614,-0.164 0.133,-0.007 0.379,-0.023 0.645,-0.043 0.226,-0.019 0.414,-0.05 0.586,-0.132 1.234,-0.258 2.519,-0.805 3.801,-1.539 1.382,-0.79 2.754,-1.797 4.043,-2.883 3.128,-2.621 5.836,-5.731 7.535,-7.817 0.121,-0.152 0.246,-0.308 0.375,-0.464 1.879,-2.344 4.261,-5.61 6.207,-9.071 0.758,-1.347 1.418,-2.672 1.898,-3.879 0.449,-1.125 0.735,-2.121 0.797,-2.902 0.059,-0.113 0.078,-0.215 0.09,-0.359 0.004,-0.075 0.008,-0.141 0.012,-0.204 0.007,-0.078 0.019,-0.14 0.023,-0.187 z" /><g
         transform="matrix(-0.761511,0.982249,-1,-0.738046,0,0)"
         id="g76"><path
           id="path78"
           style="fill:#ffea97;stroke:#000000;stroke-width:0.86580098"
           d="m 72.969,-69.125 c 0,4.133 -9.272,7.486 -20.707,7.484 -11.437,10e-4 -20.709,-3.352 -20.711,-7.483 0,-4.133 9.274,-7.484 20.71,-7.486 11.435,0.003 20.708,3.352 20.708,7.485 z" /></g><path
         id="path80"
         style="fill:#be8c32"
         d="m 16.707,118.59 c -2.809,-1.496 0.574,-10.16 7.559,-19.356 6.98,-9.195 14.918,-15.437 17.726,-13.945 2.809,1.496 -0.574,10.16 -7.558,19.356 -6.981,9.195 -14.918,15.437 -17.727,13.945 z" /><path
         id="path82"
         style="fill:#f7d676"
         d="m 29.156,110.234 c -9.172,6.852 -6.027,-8.711 1.649,-17.703 l 2.722,-3.347 3.551,-2.692 3.473,-1.566 1.879,0.633 0.472,1.601 -0.05,2.652 -2.184,5.274 -3.969,6.523 -6.48,8.43 z" /><g
         transform="matrix(-0.684892,0.902027,-1,-0.531723,0,0)"
         id="g84"><path
           id="path86"
           style="fill:none;stroke:#000000;stroke-width:0.95615798"
           d="m 86.642,-76.048 c -0.002,2.811 -8.265,5.087 -18.46,5.085 -10.194,10e-4 -18.457,-2.277 -18.458,-5.085 0.002,-2.81 8.265,-5.086 18.461,-5.085 10.193,-0.001 18.456,2.278 18.457,5.085 z" /></g><g
         id="g88"><path
           id="path90"
           style="fill:none;stroke:#000000;stroke-width:1.04206502"
           d="m 58.711,111.664 c 3.32,4.813 -14.621,24.957 -17.504,22.703 -0.492,0.43 -0.297,1.879 0.441,2.266 l 5.707,2.972 c 0.7,0.364 2.028,-0.125 2.895,-0.535 4.266,-2 15.023,-15.547 15.816,-21.375 0.129,-0.949 -0.101,-1.687 -0.691,-2.211 l -4.363,-3.879 c -0.922,-0.683 -1.637,-0.328 -2.301,0.059 z" /></g><g
         transform="matrix(1,-0.0719849,0.0719849,1,0,0)"
         id="g92"><path
           id="path94"
           style="fill:#ffea97;stroke:#000000;stroke-width:0.760342;stroke-linecap:round;stroke-linejoin:round"
           d="m 56.457,107.17 c -1.571,0.773 -2.771,2.136 -3.339,3.79 -0.565,1.659 -0.449,3.472 0.321,5.043 0.769,1.575 2.136,2.775 3.79,3.339 1.659,0.569 3.472,0.453 5.043,-0.316 1.571,-0.774 2.775,-2.137 3.339,-3.795 0.569,-1.655 0.453,-3.471 -0.32,-5.043 -0.77,-1.571 -2.133,-2.77 -3.791,-3.339 -1.655,-0.564 -3.472,-0.449 -5.043,0.321 z m 0.937,1.911 c 2.219,-1.091 4.899,-0.171 5.989,2.044 1.087,2.219 0.171,4.899 -2.048,5.989 -2.219,1.087 -4.899,0.171 -5.985,-2.048 -1.09,-2.219 -0.175,-4.899 2.044,-5.985 z" /></g><g
         transform="matrix(1,-0.0719849,0.0719849,1,0,0)"
         id="g96"><path
           id="path98"
           style="fill:#ffea97;stroke:#000000;stroke-width:0.760342"
           d="m 53.929,118.148 1.84,-2.606 c 1.048,-1.491 3.475,0.344 2.469,1.728 l -1.948,2.692 c -0.603,0.832 -3.166,-0.673 -2.361,-1.814 z" /></g><g
         transform="matrix(-1,-0.140465,-0.140465,1,0,0)"
         id="g100"><path
           id="path102"
           style="fill:#ffea97;stroke:#000000;stroke-width:0.75489902;stroke-linecap:round;stroke-linejoin:round"
           d="m -139.437,85.371 c -1.738,-0.002 -3.405,0.69 -4.637,1.919 -1.227,1.23 -1.919,2.898 -1.92,4.636 0.001,1.739 0.693,3.406 1.923,4.634 1.225,1.231 2.895,1.918 4.633,1.92 1.738,-0.002 3.405,-0.689 4.636,-1.919 1.228,-1.23 1.919,-2.898 1.917,-4.637 0.002,-1.738 -0.689,-3.405 -1.919,-4.633 -1.23,-1.231 -2.894,-1.922 -4.633,-1.92 z m 0,2.113 c 2.453,0.001 4.44,1.987 4.443,4.441 -0.001,2.453 -1.992,4.443 -4.445,4.442 -2.453,-0.001 -4.443,-1.988 -4.442,-4.441 0.001,-2.453 1.991,-4.443 4.444,-4.442 z" /></g><g
         transform="matrix(-1,-0.140465,-0.140465,1,0,0)"
         id="g104"><path
           id="path106"
           style="fill:#ffea97;stroke:#000000;stroke-width:0.75489902"
           d="m -144.836,96.941 1.825,-2.591 c 1.044,-1.479 3.452,0.344 2.454,1.719 l -1.933,2.67 c -0.601,0.826 -3.145,-0.668 -2.346,-1.798 z" /></g><g
         id="g108"><path
           id="path110"
           style="fill:#046eb1;stroke:#000000;stroke-width:0.69300902;stroke-linecap:round;stroke-linejoin:round"
           d="m 123.695,107.309 c -0.117,-0.594 -0.062,-1.102 0.141,-1.598 0.476,-1.184 1.797,-2.02 1.691,-3.609 2.192,0.308 3.481,2.562 3.114,4.968 -0.489,3.227 -5.555,3.028 -4.946,0.239 z m -3.293,-3.672 c -0.918,-0.465 -2.597,-1.52 -3.414,-3.461 -0.976,-2.328 1.594,-3.203 1.492,-5.364 0.852,0.344 2.372,0.747 3.219,2.774 1.055,2.519 -2.101,3.371 -1.297,6.051 z m -7.074,-7.395 c -0.945,-0.543 -2.578,-1.75 -3.234,-3.773 -0.782,-2.41 1.879,-3.043 1.933,-5.223 0.84,0.43 2.305,0.965 2.973,3.035 0.82,2.567 -2.43,3.172 -1.672,5.961 z m -6.547,-7.937 c -0.898,-0.602 -2.441,-1.891 -2.98,-3.934 -0.645,-2.43 2.039,-2.937 2.179,-5.125 0.821,0.465 2.282,1.082 2.84,3.207 0.692,2.625 -2.597,3.035 -2.039,5.852 z m -6.09,-8.203 c -0.875,-0.629 -2.363,-1.946 -2.851,-3.985 -0.09,-0.789 0.012,-1.64 0.664,-2.183 1,-0.836 1.832,-1.555 2.269,-2.52 0.789,0.484 1.735,1.254 2.129,2.891 0.641,2.66 -2.656,2.972 -2.211,5.797 z M 93.785,71 c -0.734,-0.719 -1.512,-1.75 -1.844,-3.113 -0.605,-2.465 2.079,-2.918 2.321,-5.067 0.789,0.481 2.414,1.391 2.933,3.52 -0.746,0.816 -0.941,1.754 -1.164,2.84 -0.758,0.402 -1.219,0.418 -2.246,1.82 z m -4.847,-7.605 c -0.653,-0.551 -1.665,-1.59 -2.2,-3.086 -0.156,-0.446 -0.265,-0.926 -0.312,-1.43 -0.114,-1.32 0.578,-1.941 1.32,-2.477 0.766,-0.554 1.578,-1.023 1.953,-2.031 0.66,0.629 1.785,1.406 1.989,3.344 0.003,0.051 0.011,0.097 0.015,0.148 0.102,1.305 -0.601,1.953 -1.371,2.657 -0.746,0.683 -1.547,1.414 -1.394,2.875 z m -4.54,-9.747 c -0.648,-0.933 -1.648,-2.847 -1.23,-5.062 0.246,-1.293 1.074,-1.711 1.934,-2.035 0.882,-0.332 1.796,-0.574 2.414,-1.453 0.492,0.8 1.414,1.894 1.007,3.933 -0.253,1.278 -1.105,1.711 -2.035,2.184 -0.898,0.457 -1.883,0.957 -2.09,2.433 z M 82.555,43.031 c -0.403,-1.066 -0.914,-3.258 0.187,-5.371 0.641,-1.226 1.59,-1.359 2.5,-1.387 0.965,-0.027 1.863,0.047 2.75,-0.511 0.196,0.875 0.738,2.093 -0.195,3.875 -0.598,1.144 -1.535,1.34 -2.574,1.558 -0.996,0.207 -2.098,0.442 -2.668,1.836 z m 1.75,-11.093 c 0.109,-0.887 0.476,-2.379 1.613,-3.692 0.43,-0.465 0.937,-0.875 1.523,-1.18 1.325,-0.687 2.184,-0.132 2.864,0.426 0.757,0.629 1.336,1.25 2.336,1.508 -0.477,0.832 -0.672,1.766 -2.243,2.531 -0.007,0.004 -0.015,0.008 -0.027,0.012 -1.07,0.5 -1.883,0.234 -2.902,-0.082 -0.926,-0.289 -2.02,-0.606 -3.164,0.477 z m 8.527,-8.27 c 0.859,-0.598 2.531,-1.414 4.574,-1.121 0.461,0.074 0.918,0.199 1.356,0.394 1.363,0.602 1.472,1.618 1.461,2.5 -0.012,0.985 -0.137,1.829 0.293,2.77 -0.848,0.133 -1.727,0.539 -3.11,-0.039 -0.09,-0.039 -0.183,-0.082 -0.281,-0.129 -1.023,-0.5 -1.348,-1.297 -1.773,-2.293 -0.375,-0.883 -0.868,-1.992 -2.52,-2.082 z m 11.953,1.344 c 1.086,0.32 3,1.242 3.985,3.324 0.113,0.266 0.207,0.539 0.277,0.82 0.351,1.399 -0.317,2.106 -0.992,2.68 -0.731,0.617 -1.469,1.098 -1.844,2.062 -0.59,-0.496 -1.477,-0.98 -1.977,-2.203 -0.058,-0.179 -0.113,-0.379 -0.164,-0.601 -0.25,-1.114 0.168,-1.86 0.676,-2.813 0.453,-0.847 1.008,-1.926 0.039,-3.269 z m 6.676,9.672 c 0.641,1.035 1.543,3.144 0.824,5.398 -0.41,1.289 -1.32,1.594 -2.219,1.793 -0.929,0.203 -1.882,0.313 -2.621,1.09 -0.386,-0.887 -1.14,-2.059 -0.476,-3.992 0.41,-1.203 1.297,-1.555 2.269,-1.95 0.918,-0.375 1.985,-0.812 2.223,-2.339 z m 0.578,11.058 c 0.227,1.106 0.395,3.254 -0.859,5.129 -0.735,1.094 -1.66,1.152 -2.578,1.113 -0.942,-0.039 -1.872,-0.179 -2.79,0.383 -0.132,-0.926 -0.554,-2.289 0.614,-4.004 0.734,-1.078 1.687,-1.144 2.73,-1.211 1.008,-0.07 2.106,-0.14 2.883,-1.41 z m -2.516,10.481 c -0.062,0.965 -0.359,2.636 -1.523,4.047 -0.203,0.242 -0.43,0.472 -0.684,0.687 -0.996,0.844 -1.898,0.656 -2.769,0.375 -0.895,-0.285 -1.77,-0.664 -2.801,-0.344 0.102,-0.836 0.094,-2.121 1.254,-3.34 0.129,-0.128 0.27,-0.257 0.426,-0.386 0.992,-0.828 1.922,-0.641 2.945,-0.43 0.988,0.199 2.07,0.418 3.152,-0.609 z m -5.085,9.39 c -0.301,1.067 -1.067,2.938 -2.852,4.067 -2.121,1.343 -3.422,-1.075 -5.555,-0.5 0.192,-0.938 0.344,-2.535 2.207,-3.711 1.145,-0.723 2.059,-0.344 3.012,0.051 0.938,0.39 1.934,0.812 3.188,0.093 z m -5.934,8.321 c -0.328,0.312 -0.688,0.761 -0.692,1.601 -0.476,0.832 -1.21,1.735 -2.261,2.36 -2.164,1.296 -3.387,-1.145 -5.524,-0.692 0.223,-0.914 0.411,-2.476 2.289,-3.598 2.329,-1.386 3.637,1.653 6.188,0.329 z m -6.231,8.128 c -0.375,1.012 -1.261,2.813 -3.117,3.817 -2.215,1.199 -3.34,-1.289 -5.496,-0.918 0.258,-0.902 0.516,-2.465 2.449,-3.508 2.391,-1.289 3.559,1.805 6.164,0.609 z m -6.55,7.84 c -0.407,0.996 -1.352,2.758 -3.235,3.703 -2.246,1.122 -3.297,-1.394 -5.465,-1.078 0.286,-0.898 0.59,-2.461 2.559,-3.445 2.438,-1.219 3.5,1.914 6.141,0.82 z m -6.77,7.621 c -0.457,1.024 -1.469,2.731 -3.351,3.594 -2.239,1.028 -3.254,-1.515 -5.461,-1.113 0.293,-0.926 0.652,-2.559 2.683,-3.496 2.496,-1.156 3.426,2.082 6.129,1.015 z m -6.664,7.364 c -0.141,0.422 -0.355,0.992 -0.672,1.574 -1.996,3.695 -7.547,1.305 -5.574,-1.555 0.973,-1.008 1.945,-0.769 2.68,-0.488 1.121,0.43 2.129,1.09 3.566,0.469 z" /></g><g
         id="g112"><path
           id="path114"
           style="fill:#ffffff;stroke:#000000;stroke-width:0.69300902;stroke-linecap:round;stroke-linejoin:round"
           d="m 100.156,22.906 c -0.449,-0.011 -0.855,0.02 -1.176,0.067 1.458,0.808 1.407,2.027 1.356,2.98 -0.055,1.07 -0.121,1.949 0.602,2.836 1.124,1.383 2.117,1.348 3.011,1.606 0.02,-1.04 0.481,-1.731 0.91,-2.629 0.387,-0.793 0.715,-1.754 -0.257,-2.879 -1.309,-1.512 -3.094,-1.942 -4.446,-1.981 z m -7.535,0.832 c -2.664,0.094 -4.363,2.055 -5.016,3.176 1.54,-0.629 2.457,0.176 3.168,0.813 0.801,0.714 1.442,1.312 2.586,1.308 1.786,-0.004 2.379,-0.801 3.141,-1.336 -0.797,-0.664 -1.047,-1.461 -1.477,-2.359 -0.378,-0.797 -0.921,-1.656 -2.402,-1.602 z m 16.535,5.606 c 0.254,1.586 -0.656,2.312 -1.41,2.91 -0.82,0.648 -1.535,1.195 -1.66,2.387 -0.195,1.914 0.648,2.773 1.191,3.597 0.618,-0.875 1.504,-1.152 2.379,-1.535 0.832,-0.359 1.668,-0.844 1.758,-2.219 0.16,-2.425 -1.328,-4.3 -2.258,-5.14 z m -23.195,1.937 c -0.57,-0.004 -1.16,0.188 -1.746,0.848 -1.633,1.836 -1.613,4.172 -1.434,5.328 0.836,-1.312 1.973,-1.316 2.969,-1.32 1.062,-0.004 1.973,-0.004 2.785,-0.907 1.258,-1.398 1.086,-2.523 1.18,-3.414 -1.027,0.211 -1.813,-0.113 -2.75,-0.367 -0.324,-0.09 -0.66,-0.164 -1.004,-0.168 z m 26.324,9 c -0.59,1.407 -1.711,1.629 -2.699,1.824 -1.024,0.207 -1.984,0.399 -2.551,1.555 -0.012,0.02 -0.019,0.035 -0.027,0.055 -0.91,1.828 -0.324,3.117 -0.074,4.012 0.836,-0.68 1.777,-0.665 2.718,-0.743 0.918,-0.078 1.828,-0.257 2.414,-1.433 0.239,-0.481 0.399,-0.973 0.496,-1.457 0.344,-1.547 0.024,-2.961 -0.277,-3.813 z m -24.914,0.043 c -0.754,0.778 -1.687,0.891 -2.625,1.11 -0.902,0.207 -1.797,0.523 -2.187,1.793 -0.09,0.289 -0.149,0.574 -0.188,0.859 -0.293,1.824 0.32,3.437 0.77,4.309 0.402,-1.43 1.441,-1.801 2.394,-2.141 0.981,-0.348 1.887,-0.672 2.297,-1.91 0.074,-0.223 0.129,-0.438 0.168,-0.641 0.355,-1.594 -0.301,-2.633 -0.629,-3.379 z m 0.938,9.492 c -0.508,0.95 -1.379,1.305 -2.211,1.75 -0.813,0.43 -1.578,0.95 -1.649,2.266 -0.125,2.258 1.129,4.027 1.903,4.867 0,-1.496 0.91,-2.125 1.734,-2.699 0.855,-0.594 1.641,-1.137 1.723,-2.43 0.132,-2.066 -0.914,-3.019 -1.5,-3.754 z m 22.816,1.243 c -0.934,1.16 -2.031,1.089 -3.039,1.027 -1.039,-0.066 -1.992,-0.125 -2.859,0.84 -1.379,1.539 -1.149,2.929 -1.145,3.863 0.984,-0.422 1.883,-0.16 2.816,0.012 0.899,0.164 1.829,0.234 2.7,-0.758 1.496,-1.695 1.609,-3.855 1.527,-4.984 z M 91.707,58.68 c -0.227,1.058 -0.973,1.632 -1.66,2.281 -0.668,0.633 -1.262,1.328 -1.016,2.598 0.418,2.144 1.942,3.535 2.809,4.171 -0.223,-1.429 0.508,-2.207 1.211,-2.953 0.707,-0.757 1.367,-1.472 1.117,-2.781 -0.398,-2.094 -1.715,-2.777 -2.461,-3.316 z m 10.863,2.265 c -0.492,-0.023 -0.996,0.082 -1.539,0.457 -1.765,1.215 -1.867,2.739 -2.047,3.676 2.114,-0.551 3.461,1.852 5.563,0.383 1.785,-1.242 2.445,-3.227 2.668,-4.34 -1.203,0.856 -2.238,0.496 -3.192,0.176 -0.492,-0.168 -0.964,-0.328 -1.453,-0.352 z m -5.992,8.211 c -0.371,0.008 -0.762,0.106 -1.183,0.356 -0.04,0.023 -0.083,0.047 -0.122,0.07 -1.847,1.168 -1.996,2.73 -2.195,3.652 2.125,-0.504 3.406,1.907 5.539,0.555 0.156,-0.098 0.289,-0.211 0.43,-0.32 0.488,-0.426 0.922,-0.84 1.262,-1.293 0.054,-0.074 0.113,-0.153 0.164,-0.231 0.082,-0.125 0.144,-0.246 0.218,-0.371 0.028,-0.051 0.059,-0.105 0.082,-0.16 0.004,0.004 0.004,0.004 0.008,0.008 0.328,-0.598 0.559,-1.164 0.692,-1.598 -2.024,1.047 -3.285,-0.691 -4.895,-0.668 z m 6.457,5.992 c -0.16,2.192 -2.847,2.668 -2.242,5.106 0.508,2.039 2.019,3.351 2.902,3.965 -0.492,-2.821 2.805,-3.168 2.149,-5.813 -0.528,-2.14 -1.992,-2.785 -2.809,-3.258 z m -12.551,2.067 c -0.379,0 -0.785,0.094 -1.226,0.344 -1.906,1.078 -2.133,2.644 -2.375,3.554 2.148,-0.41 3.32,2.055 5.508,0.809 1.839,-1.043 2.691,-2.863 3.043,-3.883 -2.098,1.02 -3.305,-0.816 -4.95,-0.824 z m 18.485,6.07 c -0.11,2.184 -2.781,2.742 -2.078,5.168 0.589,2.039 2.171,3.289 3.089,3.867 -0.644,-2.804 2.629,-3.3 1.883,-5.898 -0.605,-2.102 -2.066,-2.684 -2.894,-3.137 z m -24.852,1.707 c -0.379,-0.015 -0.785,0.063 -1.238,0.297 -1.953,1.012 -2.234,2.574 -2.508,3.477 2.164,-0.344 3.246,2.164 5.477,1.004 1.871,-0.973 2.793,-2.75 3.183,-3.754 -2.133,0.925 -3.265,-0.957 -4.914,-1.024 z m 31.074,6.11 c 0.012,2.175 -2.625,2.898 -1.746,5.285 0.157,0.433 0.364,0.828 0.594,1.187 0.863,1.309 2.078,2.078 2.828,2.461 -0.441,-1.371 0.156,-2.25 0.727,-3.101 0.582,-0.86 1.117,-1.668 0.668,-2.926 -0.028,-0.067 -0.051,-0.137 -0.078,-0.199 -0.762,-1.868 -2.172,-2.325 -2.993,-2.707 z M 77.48,92.566 c -0.378,-0.023 -0.789,0.043 -1.25,0.27 -0.484,0.234 -0.871,0.508 -1.179,0.797 -0.938,0.863 -1.192,1.902 -1.422,2.582 2.18,-0.266 3.164,2.316 5.453,1.176 0.023,-0.012 0.047,-0.024 0.066,-0.036 1.848,-0.925 2.797,-2.644 3.215,-3.621 -2.16,0.86 -3.238,-1.058 -4.883,-1.168 z m 44.485,5.829 c 0.195,2.195 -2.348,3.097 -1.445,5.375 0.531,1.339 1.46,2.261 2.257,2.867 0.313,0.25 0.606,0.433 0.832,0.554 -0.058,-0.503 -0.019,-0.949 0.11,-1.379 0.476,-1.613 2.386,-2.472 1.554,-4.546 -0.839,-2.11 -2.449,-2.539 -3.308,-2.871 z m -51.363,1.632 c -0.387,-0.015 -0.805,0.075 -1.27,0.328 -1.461,0.805 -2.008,1.969 -2.258,2.895 -0.113,0.371 -0.179,0.719 -0.238,1.02 0.57,-0.243 1.098,-0.204 1.559,-0.086 1.41,0.375 2.429,1.421 4.003,0.574 1.723,-0.922 2.637,-2.531 3.075,-3.516 -1.317,0.473 -2.223,-0.062 -3.121,-0.566 -0.551,-0.313 -1.106,-0.625 -1.75,-0.649 z" /></g><path
         id="path116"
         style="fill:#000000;fill-opacity:0.21568598"
         d="m 25.305,124.828 c 5.273,0.082 21.914,-17.41 23.047,-26.668 L 47.77,96.523 c -1.391,9.024 -15.016,24.676 -24.297,28.149 z" /><path
         id="path118"
         style="fill:#000000;fill-opacity:0.21568598"
         d="m 51.457,139.488 c 2.598,0.446 15.813,-14.445 15.465,-20.871 l -0.82,-0.426 c -2.629,8.934 -10.582,17.059 -15.473,20.852 z" /><path
         id="path120"
         style="fill:#000000"
         d="m 60.797,112.402 c 0.09,0.258 0.183,0.629 0.187,1.164 0.008,0.403 -0.039,0.883 -0.152,1.454 -0.207,1.019 -0.621,2.222 -1.242,3.574 -1.274,2.777 -3.074,5.465 -4.192,6.949 -0.273,0.367 -0.609,0.801 -1.007,1.289 -1.731,2.129 -4.235,4.824 -6.789,6.785 -1.161,0.891 -2.192,1.52 -3.075,1.899 -0.504,0.218 -0.933,0.343 -1.3,0.406 -0.481,0.078 -0.832,0.047 -1.086,-0.012 0.257,0.059 0.609,0.074 1.074,-0.035 0.359,-0.082 0.777,-0.23 1.258,-0.477 0.843,-0.425 1.82,-1.101 2.922,-2.039 2.437,-2.074 4.765,-4.804 6.445,-6.964 0.379,-0.493 0.707,-0.926 0.98,-1.286 1.125,-1.5 2.981,-3.992 4.41,-6.691 0.684,-1.297 1.172,-2.449 1.446,-3.434 0.152,-0.554 0.23,-1.023 0.25,-1.422 0.031,-0.523 -0.039,-0.898 -0.129,-1.16 z" /><g
         transform="matrix(1,0.608458,-0.608458,1,0,0)"
         id="g122"><path
           id="path124"
           style="fill:none;stroke:#000000;stroke-width:0.91914898"
           d="m 157.69,-17.529 4.335,-0.002 c 1.449,10e-4 2.617,0.822 2.618,1.837 -0.001,1.02 -1.167,1.839 -2.619,1.84 l -4.333,-0.001 c -1.45,0 -2.617,-0.821 -2.618,-1.837 0.001,-1.019 1.167,-1.838 2.617,-1.837 z" /></g><g
         transform="matrix(1,0.697588,-0.697588,1,0,0)"
         id="g126"><path
           id="path128"
           style="fill:none;stroke:#000000;stroke-width:0.882429"
           d="m 149.583,-10.257 7.835,-10e-4 c 0.886,-0.001 1.599,1.071 1.6,2.399 0,1.328 -0.713,2.4 -1.601,2.398 l -7.835,0.001 c -0.886,0.001 -1.598,-1.069 -1.6,-2.4 0.002,-1.329 0.715,-2.396 1.601,-2.397 z" /></g><g
         id="g130"><path
           id="path132"
           style="fill:none;stroke:#000000;stroke-width:1.07592201"
           d="m 173.52,81.746 c 1.894,-1.531 5.214,-3.316 6.808,-5.039 1.879,-2.019 2.113,-4.371 0.422,-5.402 l -7.438,-4.524 c -1.691,-1.031 -3.671,0.258 -4.605,2.856 -0.793,2.211 -0.852,5.988 -1.344,8.379" /></g><path
         id="path134"
         style="fill:#000000;fill-opacity:0.21568598"
         d="m 61.078,143.301 c -0.012,0.855 0.129,1.609 0.262,2.125 0.539,-0.914 1.246,-1.235 1.988,-1.399 z m 2.504,0.808 c -0.894,0.141 -1.73,0.387 -2.262,1.504 -0.91,1.922 -0.547,3.918 -0.234,4.965 1.359,-2.551 4.144,-0.762 5.305,-3.195 0.402,-0.848 0.492,-1.582 0.449,-2.227 z m 2.387,4.004 c -1.481,1.59 -3.899,0.309 -4.899,2.649 -0.179,0.426 -0.242,1.195 -0.316,1.613 -0.274,1.547 0.023,2.598 0.305,3.391 0.621,-1.301 1.66,-1.536 2.66,-1.758 1.011,-0.231 1.957,-0.453 2.488,-1.676 0.031,-0.066 0.059,-0.133 0.086,-0.199 0.723,-1.879 0.012,-3.18 -0.324,-4.02 z m -0.149,4.953 c -1.41,1.645 -3.879,0.516 -4.765,2.883 -0.145,0.383 -0.231,0.758 -0.289,1.129 0.195,-2.39 5.621,-3.539 5.195,0.051 1.094,-0.969 0.086,-3.567 -0.141,-4.063 z" /><g
         id="g136"><path
           id="path138"
           style="fill:#046eb1;stroke:#000000;stroke-width:0.75"
           d="m 64.402,164.523 -4.699,0.442 -3.664,2.676 c -0.195,0.441 -0.027,0.976 0.191,1.179 -1.351,0.528 -2.644,3.114 -3.496,6.325 -1.343,5.054 -2.082,11.566 -4.05,13.347 l -3.34,0.836 c -0.637,0.996 -0.274,1.785 0.715,2.442 l 1.253,-0.176 c 0.645,0.164 1.083,0.551 0.833,1.668 0,0.41 -0.524,1.039 -1.309,1.785 -0.191,0.461 0.031,1.433 1.309,1.191 1.488,-0.156 1.914,-1.121 2.742,-1.785 0.351,0.777 0.984,0.957 1.726,0.895 -0.211,0.394 -0.593,0.582 -0.89,1.367 0.32,0.57 0.894,0.578 1.488,0.539 0.883,-0.188 1.133,-1.086 1.609,-1.731 0.735,1.297 1.602,1.141 2.504,0.539 0.36,0.918 0.906,1.168 1.43,1.489 0.473,0.203 0.891,-0.133 1.308,-0.418 0.301,-0.832 0.27,-2.195 0.297,-3.453 0.36,3.043 2.129,2 3.102,0.593 0.406,1.223 0.633,2.704 1.785,2.86 0.621,0.164 1.227,0.222 1.789,-0.059 0.176,-0.363 0.227,-0.847 0.117,-1.492 0.825,0.434 1.637,0.996 2.567,0.18 0.597,0.843 1.129,1.769 2.32,1.906 0.715,0.219 1.301,-0.086 1.91,-0.297 l -0.062,-0.715 c 1.523,1.227 1.855,1.305 3.218,-0.058 l -0.417,-0.836 0.953,-1.012 c 1.625,0.004 2.027,-1.078 1.968,-2.562 -2.445,-0.606 -3.574,-1.934 -4.23,-4.231 -1.902,-6.617 -0.742,-16.082 -5.836,-19.402 0.484,-0.258 0.508,-0.797 0.465,-1.168 l -0.297,-2.211 z" /></g><g
         id="g140"><path
           id="path142"
           style="fill:#046eb1;stroke:#000000;stroke-width:0.75"
           d="m 56.012,167.609 c -2.121,-0.617 -2.309,-3.836 -1.918,-5.484 0.539,-2.262 2.863,-3.684 5.851,-2.77 3.176,-1.484 4.825,-0.57 5.809,0.059 9.168,-0.676 6.789,7.012 4.262,7.984 -1.328,-0.945 -2.758,-0.527 -3.606,-0.804 -1.301,0.789 -5.297,0.836 -6.914,0.152 -1.664,-0.016 -2.641,0.219 -3.484,0.863 z" /></g><path
         id="path144"
         style="fill:#000000"
         d="m 59.895,159.383 c 0,0 -0.215,-0.305 -0.215,-0.305 -0.293,0.203 -0.594,0.524 -0.817,1.004 -0.164,0.352 -0.269,0.75 -0.332,1.199 -0.058,0.531 -0.035,1.016 0.028,1.461 0.082,0.758 0.324,1.485 0.418,1.828 -0.102,-0.375 -0.231,-1.07 -0.196,-1.836 0.035,-0.433 0.121,-0.875 0.27,-1.347 0.109,-0.407 0.242,-0.727 0.402,-0.996 0.215,-0.348 0.453,-0.555 0.66,-0.703 0,0 -0.218,-0.305 -0.218,-0.305 z" /><path
         id="path146"
         style="fill:#000000"
         d="m 65.715,159.383 c 0,0 -0.215,0.305 -0.215,0.305 0.215,0.152 0.465,0.351 0.684,0.636 0.16,0.215 0.3,0.473 0.398,0.778 0.191,0.597 0.203,1.285 0.117,2.007 -0.011,0.129 -0.019,0.289 -0.023,0.446 -0.008,0.175 -0.016,0.336 -0.024,0.5 -0.011,0.183 -0.023,0.34 -0.043,0.468 -0.023,0.161 -0.054,0.266 -0.093,0.329 0.039,-0.063 0.078,-0.161 0.121,-0.325 0.031,-0.129 0.062,-0.277 0.097,-0.461 0.028,-0.156 0.055,-0.328 0.086,-0.496 0.032,-0.152 0.063,-0.3 0.098,-0.418 0.184,-0.711 0.293,-1.457 0.18,-2.168 -0.059,-0.379 -0.18,-0.718 -0.356,-1.023 -0.234,-0.406 -0.543,-0.695 -0.808,-0.883 0,0 -0.219,0.305 -0.219,0.305 z" /><path
         id="path148"
         style="fill:#000000"
         d="m 60.297,166.977 c 0,0 0.199,-0.317 0.199,-0.317 -0.047,-0.031 -0.148,-0.062 -0.32,-0.199 -0.125,-0.102 -0.266,-0.238 -0.414,-0.418 -0.364,-0.434 -0.633,-0.957 -0.719,-1.273 0.105,0.402 0.152,0.808 0.391,1.46 0.086,0.231 0.179,0.442 0.281,0.614 0.133,0.23 0.265,0.379 0.383,0.453 0,0 0.199,-0.32 0.199,-0.32 z" /><path
         id="path150"
         style="fill:#000000"
         d="m 65.93,166.789 c 0,0 0.242,0.289 0.242,0.289 0.098,-0.082 0.203,-0.23 0.269,-0.433 0.051,-0.153 0.071,-0.313 0.079,-0.493 0.019,-0.414 -0.024,-0.937 0.007,-1.242 -0.035,0.32 -0.183,0.832 -0.367,1.141 -0.082,0.137 -0.164,0.226 -0.238,0.289 -0.074,0.062 -0.16,0.101 -0.234,0.164 0,0 0.242,0.285 0.242,0.285 z" /><path
         id="path152"
         style="fill:#000000"
         d="m 50.816,194.504 c 0,0 0.325,0.184 0.325,0.184 0.636,-1.114 1.257,-2.672 1.757,-5.047 0.372,-1.778 0.606,-3.621 0.856,-5.676 0.25,-2.055 0.476,-3.879 0.844,-5.625 0.484,-2.336 1.086,-3.84 1.695,-4.906 -0.613,1.074 -1.262,2.531 -1.84,4.871 -0.433,1.746 -0.734,3.562 -1.07,5.609 -0.336,2.047 -0.637,3.856 -1.071,5.59 -0.582,2.324 -1.222,3.762 -1.824,4.812 0,0 0.328,0.188 0.328,0.188 z" /><path
         id="path154"
         style="fill:#000000"
         d="m 52.605,195.352 c 0,0 0.325,0.191 0.325,0.191 0.582,-0.992 1.172,-2.477 1.629,-4.859 0.339,-1.77 0.55,-3.707 0.73,-5.805 0.188,-2.176 0.305,-3.918 0.504,-5.707 0.262,-2.313 0.574,-3.652 0.922,-4.559 -0.356,0.926 -0.711,2.211 -1.067,4.539 -0.273,1.793 -0.457,3.516 -0.73,5.688 -0.266,2.094 -0.547,3.992 -0.949,5.719 -0.539,2.328 -1.149,3.691 -1.684,4.605 0,0 0.32,0.188 0.32,0.188 z" /><path
         id="path156"
         style="fill:#000000"
         d="m 54.816,195.641 c 0,0 0.336,0.168 0.336,0.168 0.567,-1.114 1.153,-2.809 1.633,-5.5 0.352,-1.989 0.582,-4.157 0.766,-6.391 0.179,-2.18 0.304,-4.215 0.449,-5.742 0.082,-0.887 0.168,-1.582 0.266,-2.137 0.125,-0.723 0.257,-1.133 0.386,-1.383 -0.129,0.25 -0.281,0.653 -0.441,1.375 -0.121,0.551 -0.238,1.242 -0.359,2.129 -0.207,1.524 -0.414,3.555 -0.672,5.719 -0.27,2.23 -0.571,4.359 -0.989,6.316 -0.562,2.653 -1.175,4.227 -1.707,5.274 0,0 0.332,0.172 0.332,0.172 z" /><path
         id="path158"
         style="fill:#000000"
         d="m 57.133,196.02 c 0,0 0.371,0.074 0.371,0.074 0.351,-1.778 1.301,-5.942 2.176,-10.551 1.008,-5.336 1.246,-8.551 1.203,-11.18 0.043,2.512 -0.379,5.949 -1.571,11.102 -1.054,4.558 -2.187,8.683 -2.546,10.48 0,0 0.367,0.075 0.367,0.075 z" /><path
         id="path160"
         style="fill:#000000"
         d="m 60.359,193.891 c 0,0 0.375,0.015 0.375,0.015 0.039,-1.051 0.157,-2.375 0.524,-4.66 0.262,-1.609 0.621,-3.504 0.957,-5.418 0.344,-1.969 0.621,-3.777 0.777,-5.488 0.211,-2.309 0.137,-3.813 0,-4.906 0.133,1.082 0.153,2.617 -0.144,4.89 -0.223,1.692 -0.578,3.488 -1,5.434 -0.414,1.894 -0.852,3.769 -1.18,5.379 -0.457,2.246 -0.645,3.679 -0.684,4.742 0,0 0.375,0.012 0.375,0.012 z" /><path
         id="path162"
         style="fill:#000000"
         d="m 63.434,194.375 c 0,0 0.375,0.02 0.375,0.02 0.05,-1.129 0.152,-2.418 0.461,-5.016 0.199,-1.688 0.5,-4.039 0.714,-6.117 0.227,-2.231 0.375,-4.301 0.383,-6.196 0.008,-2.558 -0.246,-4.168 -0.523,-5.273 0.277,1.098 0.472,2.738 0.375,5.269 -0.074,1.883 -0.301,3.942 -0.61,6.157 -0.289,2.074 -0.671,4.379 -0.933,6.078 -0.395,2.515 -0.567,3.973 -0.617,5.062 0,0 0.375,0.016 0.375,0.016 z" /><path
         id="path164"
         style="fill:#000000"
         d="m 67.203,195.684 c 0,0 0.359,-0.11 0.359,-0.11 -0.273,-0.918 -0.554,-2.297 -0.683,-4.703 -0.094,-1.785 -0.086,-3.762 -0.043,-5.969 0.039,-2.3 0.102,-4.136 0.105,-6.105 0.004,-2.567 -0.101,-4.039 -0.242,-5.152 0.133,1.078 0.188,2.625 0.094,5.148 -0.074,1.941 -0.207,3.82 -0.332,6.098 -0.125,2.199 -0.211,4.195 -0.184,6 0.039,2.425 0.274,3.914 0.567,4.898 0,0 0.359,-0.105 0.359,-0.105 z" /><path
         id="path166"
         style="fill:#000000"
         d="m 69.754,195.828 c 0,0 0.371,-0.055 0.371,-0.055 -0.16,-1.05 -0.324,-2.398 -0.488,-4.785 -0.125,-1.824 -0.203,-3.519 -0.325,-5.664 -0.113,-2.054 -0.234,-3.914 -0.414,-5.629 -0.242,-2.316 -0.519,-3.711 -0.765,-4.699 0.238,0.965 0.469,2.418 0.617,4.711 0.109,1.711 0.156,3.578 0.188,5.633 0.035,2.109 0.046,3.879 0.097,5.68 0.07,2.347 0.192,3.832 0.348,4.867 0,0 0.371,-0.059 0.371,-0.059 z" /><path
         id="path168"
         style="fill:#000000"
         d="m 73.883,196.82 c 0,0 0.293,-0.234 0.293,-0.234 -0.164,-0.207 -0.399,-0.598 -0.66,-1.418 -0.2,-0.621 -0.399,-1.422 -0.606,-2.461 -0.367,-1.871 -0.676,-4.105 -1.035,-6.703 -0.359,-2.602 -0.687,-4.957 -1.094,-7.047 -0.226,-1.164 -0.453,-2.117 -0.687,-2.906 -0.305,-1.039 -0.586,-1.68 -0.824,-2.11 0.238,0.426 0.503,1.082 0.773,2.121 0.207,0.793 0.402,1.754 0.59,2.922 0.336,2.09 0.594,4.461 0.871,7.067 0.273,2.597 0.512,4.863 0.812,6.761 0.172,1.055 0.344,1.895 0.532,2.559 0.242,0.863 0.492,1.375 0.742,1.684 0,0 0.293,-0.235 0.293,-0.235 z" /><path
         id="path170"
         style="fill:#000000"
         d="m 76.727,195.809 c 0,0 0.281,-0.247 0.281,-0.247 -0.332,-0.382 -0.738,-0.984 -1.16,-2.011 -0.325,-0.781 -0.629,-1.746 -0.926,-2.946 -0.535,-2.152 -0.93,-4.605 -1.367,-7.363 -0.438,-2.75 -0.821,-5.156 -1.336,-7.203 -0.285,-1.141 -0.582,-2.043 -0.899,-2.758 -0.41,-0.941 -0.816,-1.465 -1.168,-1.785 0.352,0.32 0.743,0.859 1.121,1.805 0.289,0.722 0.555,1.629 0.801,2.769 0.446,2.051 0.758,4.465 1.11,7.227 0.351,2.754 0.679,5.254 1.152,7.445 0.262,1.223 0.547,2.235 0.859,3.067 0.414,1.093 0.848,1.789 1.25,2.246 0,0 0.282,-0.246 0.282,-0.246 z" /><path
         id="path172"
         style="fill:#000000"
         d="m 48.066,193.465 c 0,0 0.278,0.254 0.278,0.254 0.511,-0.567 1.129,-1.446 1.726,-2.785 0.446,-1 0.825,-2.125 1.16,-3.372 0.77,-2.847 1.243,-5.874 1.555,-7.273 -0.234,1.047 -1.07,4.684 -1.914,7.164 -0.41,1.215 -0.851,2.281 -1.34,3.219 -0.656,1.258 -1.273,2.023 -1.742,2.539 0,0 0.277,0.254 0.277,0.254 z" /><path
         id="path174"
         style="fill:#000000"
         d="m 47.031,191.625 c 0,0 0.094,0.363 0.094,0.363 0.426,-0.109 0.996,-0.429 1.531,-0.953 0.524,-0.519 0.809,-1.012 1.008,-1.269 -0.187,0.246 -0.644,0.648 -1.234,0.968 -0.649,0.352 -1.114,0.43 -1.492,0.528 0,0 0.093,0.363 0.093,0.363 z" /><path
         id="path176"
         style="fill:#000000"
         d="m 56.012,168.949 c 0,0 0.164,0.336 0.164,0.336 0.289,-0.14 0.691,-0.312 1.371,-0.426 0.508,-0.086 1.066,-0.125 1.707,-0.14 1.441,-0.039 2.902,-0.074 3.551,-0.157 -0.649,0.083 -2.086,-0.07 -3.539,-0.218 -0.637,-0.067 -1.227,-0.106 -1.782,-0.082 -0.746,0.027 -1.269,0.172 -1.636,0.351 0,0 0.164,0.336 0.164,0.336 z" /><path
         id="path178"
         style="fill:#000000"
         d="m 69.953,168.742 c 0,0 0.086,-0.367 0.086,-0.367 -0.719,-0.16 -1.738,-0.191 -3.187,-0.078 -1.317,0.098 -2.653,0.25 -3.301,0.25 0.379,0 2.258,0.055 3.304,0.125 1.547,0.101 2.262,0.266 3.016,0.433 0,0 0.082,-0.363 0.082,-0.363 z" /><g
         id="g180"><path
           id="path182"
           style="fill:#f5f5f5;stroke:#000000;stroke-width:0.75"
           d="m 133.164,164.523 -4.695,0.442 -3.668,2.676 c -0.192,0.441 -0.028,0.976 0.191,1.179 -1.351,0.528 -2.644,3.114 -3.496,6.325 -1.34,5.054 -2.082,11.566 -4.051,13.347 l -3.336,0.836 c -0.64,0.996 -0.273,1.785 0.715,2.442 l 1.25,-0.176 c 0.645,0.164 1.082,0.551 0.836,1.668 -0.004,0.41 -0.527,1.039 -1.312,1.785 -0.188,0.461 0.031,1.433 1.312,1.191 1.485,-0.156 1.914,-1.121 2.738,-1.785 0.356,0.777 0.985,0.957 1.731,0.895 -0.215,0.394 -0.594,0.582 -0.895,1.367 0.321,0.57 0.895,0.578 1.489,0.539 0.886,-0.188 1.132,-1.086 1.609,-1.731 0.738,1.297 1.602,1.141 2.504,0.539 0.363,0.918 0.906,1.168 1.43,1.489 0.476,0.203 0.89,-0.133 1.312,-0.418 0.297,-0.832 0.266,-2.195 0.297,-3.453 0.355,3.043 2.129,2 3.098,0.593 0.41,1.223 0.632,2.704 1.789,2.86 0.617,0.164 1.222,0.222 1.785,-0.059 0.176,-0.363 0.226,-0.847 0.121,-1.492 0.82,0.434 1.633,0.996 2.562,0.18 0.598,0.843 1.129,1.769 2.325,1.906 0.715,0.219 1.297,-0.086 1.906,-0.297 l -0.059,-0.715 c 1.524,1.227 1.856,1.305 3.215,-0.058 l -0.414,-0.836 0.953,-1.012 c 1.625,0.004 2.024,-1.078 1.965,-2.562 -2.441,-0.606 -3.57,-1.934 -4.23,-4.231 -1.899,-6.617 -0.743,-16.082 -5.836,-19.402 0.488,-0.258 0.507,-0.797 0.465,-1.168 l -0.297,-2.211 z" /></g><g
         id="g184"><path
           id="path186"
           style="fill:#f5f5f5;stroke:#000000;stroke-width:0.75"
           d="m 124.773,167.609 c -2.121,-0.617 -2.308,-3.836 -1.918,-5.484 0.54,-2.262 2.864,-3.684 5.852,-2.77 3.176,-1.484 4.824,-0.57 5.809,0.059 9.168,-0.676 6.789,7.012 4.261,7.984 -1.328,-0.945 -2.757,-0.527 -3.605,-0.804 -1.301,0.789 -5.293,0.836 -6.91,0.152 -1.664,-0.016 -2.641,0.219 -3.489,0.863 z" /></g><path
         id="path188"
         style="fill:#000000"
         d="m 128.66,159.383 c 0,0 -0.219,-0.305 -0.219,-0.305 -0.293,0.203 -0.593,0.524 -0.816,1.004 -0.164,0.352 -0.266,0.75 -0.332,1.199 -0.055,0.531 -0.035,1.016 0.031,1.461 0.082,0.758 0.324,1.485 0.414,1.828 -0.101,-0.375 -0.23,-1.07 -0.195,-1.836 0.035,-0.433 0.121,-0.875 0.269,-1.347 0.11,-0.407 0.243,-0.727 0.407,-0.996 0.211,-0.348 0.449,-0.555 0.656,-0.703 0,0 -0.215,-0.305 -0.215,-0.305 z" /><path
         id="path190"
         style="fill:#000000"
         d="m 134.48,159.383 c 0,0 -0.218,0.305 -0.218,0.305 0.215,0.152 0.465,0.351 0.683,0.636 0.164,0.215 0.301,0.473 0.399,0.778 0.191,0.597 0.203,1.285 0.117,2.007 -0.012,0.129 -0.016,0.289 -0.023,0.446 -0.008,0.175 -0.012,0.336 -0.024,0.5 -0.008,0.183 -0.023,0.34 -0.043,0.468 -0.023,0.161 -0.055,0.266 -0.09,0.329 0.035,-0.063 0.074,-0.161 0.117,-0.325 0.036,-0.129 0.067,-0.277 0.098,-0.461 0.027,-0.156 0.059,-0.328 0.09,-0.496 0.027,-0.152 0.059,-0.3 0.094,-0.418 0.183,-0.711 0.297,-1.457 0.179,-2.168 -0.058,-0.379 -0.179,-0.718 -0.355,-1.023 -0.234,-0.406 -0.539,-0.695 -0.809,-0.883 0,0 -0.215,0.305 -0.215,0.305 z" /><path
         id="path192"
         style="fill:#000000"
         d="m 129.059,166.977 c 0,0 0.199,-0.317 0.199,-0.317 -0.047,-0.031 -0.145,-0.062 -0.317,-0.199 -0.129,-0.102 -0.269,-0.238 -0.418,-0.418 -0.363,-0.434 -0.632,-0.957 -0.714,-1.273 0.105,0.402 0.148,0.808 0.386,1.46 0.086,0.231 0.184,0.442 0.282,0.614 0.132,0.23 0.265,0.379 0.382,0.453 0,0 0.2,-0.32 0.2,-0.32 z" /><path
         id="path194"
         style="fill:#000000"
         d="m 134.695,166.789 c 0,0 0.239,0.289 0.239,0.289 0.097,-0.082 0.203,-0.23 0.269,-0.433 0.051,-0.153 0.074,-0.313 0.082,-0.493 0.016,-0.414 -0.027,-0.937 0.008,-1.242 -0.039,0.32 -0.188,0.832 -0.371,1.141 -0.082,0.137 -0.16,0.226 -0.238,0.289 -0.075,0.062 -0.157,0.101 -0.231,0.164 0,0 0.242,0.285 0.242,0.285 z" /><path
         id="path196"
         style="fill:#000000"
         d="m 119.578,194.504 c 0,0 0.324,0.184 0.324,0.184 0.637,-1.114 1.262,-2.672 1.758,-5.047 0.375,-1.778 0.606,-3.621 0.856,-5.676 0.254,-2.055 0.48,-3.879 0.843,-5.625 0.485,-2.336 1.09,-3.84 1.696,-4.906 -0.614,1.074 -1.258,2.531 -1.84,4.871 -0.434,1.746 -0.735,3.562 -1.07,5.609 -0.336,2.047 -0.637,3.856 -1.071,5.59 -0.582,2.324 -1.222,3.762 -1.824,4.812 0,0 0.328,0.188 0.328,0.188 z" /><path
         id="path198"
         style="fill:#000000"
         d="m 121.371,195.352 c 0,0 0.32,0.191 0.32,0.191 0.586,-0.992 1.172,-2.477 1.629,-4.859 0.34,-1.77 0.551,-3.707 0.735,-5.805 0.187,-2.176 0.3,-3.918 0.504,-5.707 0.261,-2.313 0.574,-3.652 0.918,-4.559 -0.352,0.926 -0.711,2.211 -1.067,4.539 -0.273,1.793 -0.457,3.516 -0.73,5.688 -0.266,2.094 -0.547,3.992 -0.946,5.719 -0.543,2.328 -1.152,3.691 -1.687,4.605 0,0 0.324,0.188 0.324,0.188 z" /><path
         id="path200"
         style="fill:#000000"
         d="m 123.582,195.641 c 0,0 0.332,0.168 0.332,0.168 0.566,-1.114 1.156,-2.809 1.633,-5.5 0.351,-1.989 0.582,-4.157 0.769,-6.391 0.18,-2.18 0.305,-4.215 0.446,-5.742 0.086,-0.887 0.168,-1.582 0.265,-2.137 0.125,-0.723 0.258,-1.133 0.387,-1.383 -0.129,0.25 -0.277,0.653 -0.437,1.375 -0.122,0.551 -0.239,1.242 -0.36,2.129 -0.211,1.524 -0.414,3.555 -0.676,5.719 -0.269,2.23 -0.57,4.359 -0.984,6.316 -0.562,2.653 -1.176,4.227 -1.711,5.274 0,0 0.336,0.172 0.336,0.172 z" /><path
         id="path202"
         style="fill:#000000"
         d="m 125.898,196.02 c 0,0 0.368,0.074 0.368,0.074 0.351,-1.778 1.3,-5.942 2.175,-10.551 1.012,-5.336 1.247,-8.551 1.207,-11.18 0.04,2.512 -0.382,5.949 -1.574,11.102 -1.054,4.558 -2.187,8.683 -2.543,10.48 0,0 0.367,0.075 0.367,0.075 z" /><path
         id="path204"
         style="fill:#000000"
         d="m 129.121,193.891 c 0,0 0.375,0.015 0.375,0.015 0.039,-1.051 0.156,-2.375 0.527,-4.66 0.258,-1.609 0.622,-3.504 0.954,-5.418 0.343,-1.969 0.625,-3.777 0.781,-5.488 0.207,-2.309 0.133,-3.813 -0.004,-4.906 0.137,1.082 0.152,2.617 -0.145,4.89 -0.222,1.692 -0.574,3.488 -1,5.434 -0.41,1.894 -0.851,3.769 -1.179,5.379 -0.457,2.246 -0.641,3.679 -0.684,4.742 0,0 0.375,0.012 0.375,0.012 z" /><path
         id="path206"
         style="fill:#000000"
         d="m 132.195,194.375 c 0,0 0.375,0.02 0.375,0.02 0.051,-1.129 0.157,-2.418 0.465,-5.016 0.199,-1.688 0.496,-4.039 0.711,-6.117 0.227,-2.231 0.375,-4.301 0.383,-6.196 0.012,-2.558 -0.242,-4.168 -0.52,-5.273 0.274,1.098 0.473,2.738 0.371,5.269 -0.074,1.883 -0.296,3.942 -0.605,6.157 -0.293,2.074 -0.676,4.379 -0.937,6.078 -0.391,2.515 -0.567,3.973 -0.618,5.062 0,0 0.375,0.016 0.375,0.016 z" /><path
         id="path208"
         style="fill:#000000"
         d="m 135.969,195.684 c 0,0 0.359,-0.11 0.359,-0.11 -0.273,-0.918 -0.558,-2.297 -0.683,-4.703 -0.094,-1.785 -0.09,-3.762 -0.047,-5.969 0.043,-2.3 0.101,-4.136 0.105,-6.105 0.004,-2.567 -0.101,-4.039 -0.242,-5.152 0.137,1.078 0.191,2.625 0.094,5.148 -0.075,1.941 -0.203,3.82 -0.332,6.098 -0.125,2.199 -0.207,4.195 -0.18,6 0.035,2.425 0.269,3.914 0.566,4.898 0,0 0.36,-0.105 0.36,-0.105 z" /><path
         id="path210"
         style="fill:#000000"
         d="m 138.516,195.828 c 0,0 0.371,-0.055 0.371,-0.055 -0.157,-1.05 -0.325,-2.398 -0.485,-4.785 -0.125,-1.824 -0.207,-3.519 -0.324,-5.664 -0.117,-2.054 -0.238,-3.914 -0.418,-5.629 -0.238,-2.316 -0.519,-3.711 -0.765,-4.699 0.242,0.965 0.472,2.418 0.621,4.711 0.109,1.711 0.156,3.578 0.187,5.633 0.031,2.109 0.043,3.879 0.098,5.68 0.066,2.347 0.187,3.832 0.344,4.867 0,0 0.371,-0.059 0.371,-0.059 z" /><path
         id="path212"
         style="fill:#000000"
         d="m 142.645,196.82 c 0,0 0.293,-0.234 0.293,-0.234 -0.165,-0.207 -0.395,-0.598 -0.661,-1.418 -0.199,-0.621 -0.398,-1.422 -0.601,-2.461 -0.371,-1.871 -0.68,-4.105 -1.039,-6.703 -0.356,-2.602 -0.688,-4.957 -1.094,-7.047 -0.227,-1.164 -0.453,-2.117 -0.684,-2.906 -0.304,-1.039 -0.589,-1.68 -0.828,-2.11 0.239,0.426 0.504,1.082 0.778,2.121 0.207,0.793 0.402,1.754 0.589,2.922 0.336,2.09 0.594,4.461 0.868,7.067 0.273,2.597 0.511,4.863 0.816,6.761 0.168,1.055 0.344,1.895 0.527,2.559 0.243,0.863 0.493,1.375 0.746,1.684 0,0 0.29,-0.235 0.29,-0.235 z" /><path
         id="path214"
         style="fill:#000000"
         d="m 145.488,195.809 c 0,0 0.285,-0.247 0.285,-0.247 -0.335,-0.382 -0.742,-0.984 -1.164,-2.011 -0.324,-0.781 -0.629,-1.746 -0.925,-2.946 -0.532,-2.152 -0.93,-4.605 -1.368,-7.363 -0.433,-2.75 -0.82,-5.156 -1.336,-7.203 -0.285,-1.141 -0.582,-2.043 -0.894,-2.758 -0.414,-0.941 -0.82,-1.465 -1.168,-1.785 0.348,0.32 0.738,0.859 1.117,1.805 0.289,0.722 0.555,1.629 0.805,2.769 0.441,2.051 0.754,4.465 1.105,7.227 0.356,2.754 0.68,5.254 1.153,7.445 0.261,1.223 0.547,2.235 0.863,3.067 0.414,1.093 0.844,1.789 1.246,2.246 0,0 0.281,-0.246 0.281,-0.246 z" /><path
         id="path216"
         style="fill:#000000"
         d="m 116.828,193.465 c 0,0 0.277,0.254 0.277,0.254 0.516,-0.567 1.133,-1.446 1.731,-2.785 0.445,-1 0.82,-2.125 1.156,-3.372 0.77,-2.847 1.242,-5.874 1.555,-7.273 -0.235,1.047 -1.07,4.684 -1.91,7.164 -0.414,1.215 -0.856,2.281 -1.344,3.219 -0.656,1.258 -1.273,2.023 -1.742,2.539 0,0 0.277,0.254 0.277,0.254 z" /><path
         id="path218"
         style="fill:#000000"
         d="m 115.793,191.625 c 0,0 0.094,0.363 0.094,0.363 0.425,-0.109 0.996,-0.429 1.531,-0.953 0.527,-0.519 0.812,-1.012 1.008,-1.269 -0.188,0.246 -0.645,0.648 -1.231,0.968 -0.652,0.352 -1.113,0.43 -1.496,0.528 0,0 0.094,0.363 0.094,0.363 z" /><path
         id="path220"
         style="fill:#000000"
         d="m 124.773,168.949 c 0,0 0.168,0.336 0.168,0.336 0.286,-0.14 0.688,-0.312 1.368,-0.426 0.507,-0.086 1.066,-0.125 1.707,-0.14 1.441,-0.039 2.902,-0.074 3.55,-0.157 -0.648,0.083 -2.082,-0.07 -3.535,-0.218 -0.64,-0.067 -1.23,-0.106 -1.781,-0.082 -0.746,0.027 -1.273,0.172 -1.641,0.351 0,0 0.164,0.336 0.164,0.336 z" /><path
         id="path222"
         style="fill:#000000"
         d="m 138.719,168.742 c 0,0 0.082,-0.367 0.082,-0.367 -0.715,-0.16 -1.739,-0.191 -3.184,-0.078 -1.32,0.098 -2.652,0.25 -3.305,0.25 0.379,0 2.258,0.055 3.305,0.125 1.551,0.101 2.266,0.266 3.02,0.433 0,0 0.082,-0.363 0.082,-0.363 z" /><path
         id="path224"
         style="fill:#000000;fill-opacity:0.21568598"
         d="m 62.793,158.898 c 1.613,0.161 2.269,7.321 0.547,7.946 l 1.051,0.636 c 0.211,0.012 0.949,0.887 0.093,1.047 l -2.148,0.102 c 0.59,-0.004 2.437,0.035 2.59,3.449 0.039,0.887 0.234,1.945 0.32,3.227 0.02,-1.461 0.324,-1.969 0.52,-2.211 0.472,-0.582 1.035,0.578 1.089,2.449 2.668,-3.344 1.29,14.68 1.79,19.754 -0.028,0.488 -0.196,0.801 -0.536,0.894 l 0.805,-0.121 0.652,-0.207 1.582,1.282 1.071,0.683 1.34,-0.18 0.656,-0.503 c 0,0 -0.297,-0.477 -0.117,-0.239 0.175,0.239 1.281,0.504 1.281,0.504 l 0.805,-0.058 0.535,-0.446 0.445,-0.687 -0.566,-0.477 1.105,-0.894 1.012,-0.266 0.625,-0.894 0.297,-1.461 -2.235,-0.864 -1.726,-2.504 -0.895,-3.754 -0.894,-7.148 -1.52,-6.168 -1.547,-2.144 -0.984,-0.805 0.148,-1.25 0.985,-0.926 1.222,-2.055 0.086,-1.996 -0.625,-1.551 -2.324,-1.488 -2.5,-0.179 h -0.926 l -2.351,-0.833 z" /><path
         id="path226"
         style="fill:#000000;fill-opacity:0.21568598"
         d="m 131.18,159.004 c 1.613,0.16 2.308,7.215 0.586,7.84 l 1.054,0.636 c 0.207,0.012 0.946,0.887 0.09,1.047 l -2.148,0.102 c 0.59,-0.004 2.808,0.035 2.961,3.449 0.039,0.887 0.234,1.945 0.324,3.227 0.019,-1.461 0.32,-1.969 0.515,-2.211 0.473,-0.582 1.016,0.578 1.071,2.449 2.668,-3.344 0.937,14.68 1.437,19.754 -0.023,0.488 -0.195,0.801 -0.535,0.894 l 0.805,-0.121 0.652,-0.207 1.582,1.282 1.071,0.683 1.339,-0.18 0.657,-0.503 c 0,0 -0.297,-0.477 -0.118,-0.239 0.176,0.239 1.282,0.504 1.282,0.504 l 0.804,-0.058 0.536,-0.446 0.445,-0.687 -0.567,-0.477 1.106,-0.894 1.012,-0.266 0.625,-0.894 0.296,-1.461 -2.234,-0.864 -1.726,-2.504 -0.895,-3.754 -0.895,-7.148 -1.519,-6.168 -1.547,-2.144 -0.984,-0.805 0.148,-1.25 0.985,-0.926 1.222,-2.055 0.086,-1.996 -0.625,-1.551 -2.324,-1.488 -2.5,-0.179 h -0.926 l -2.351,-0.833 z" /></g></g></svg>