<?xml version="1.0" encoding="UTF-8"?>
<!DOCTYPE svg PUBLIC "-//W3C//DTD SVG 1.1//EN" "http://www.w3.org/Graphics/SVG/1.1/DTD/svg11.dtd">
<!-- Creator: CorelDRAW 2019 (64-Bit) -->
<svg xmlns="http://www.w3.org/2000/svg" xml:space="preserve" width="93.98mm" height="105.495mm" version="1.1" style="shape-rendering:geometricPrecision; text-rendering:geometricPrecision; image-rendering:optimizeQuality; fill-rule:evenodd; clip-rule:evenodd"
viewBox="0 0 9398000 10549460"
 xmlns:xlink="http://www.w3.org/1999/xlink">
 <defs>
  <style type="text/css">
   <![CDATA[
    .str0 {stroke:black;stroke-width:200000;stroke-miterlimit:22.9256}
    .str1 {stroke:black;stroke-width:150000;stroke-miterlimit:22.9256}
    .str3 {stroke:black;stroke-width:150000;stroke-linejoin:round;stroke-miterlimit:22.9256}
    .str2 {stroke:black;stroke-width:100000;stroke-miterlimit:22.9256}
    .fil2 {fill:black}
    .fil1 {fill:red}
    .fil0 {fill:white}
   ]]>
  </style>
 </defs>
 <g id="Слой_x0020_1">
  <metadata id="CorelCorpID_0Corel-Layer"/>
  <path class="fil0 str0" d="M9294610 5852700c0,2538090 -2057520,4595610 -4595610,4595610 -2538090,0 -4595610,-2057520 -4595610,-4595610l0 -5751560 9191220 0 0 5751560z"/>
  <path class="fil1 str1" d="M9294610 5852700c0,242730 -18960,481020 -55220,713580l-6465130 -6465140 6520350 0 0 5751560z"/>
  <path class="fil2 str2" d="M103390 2755530l7008680 7008690c-701370,433600 -1527910,684090 -2413070,684090 -2538090,0 -4595610,-2057520 -4595610,-4595610l0 -3097170z"/>
  <path class="fil1 str3" d="M3181190 2393670l878440 -437980 0 1473610 1087500 -564420c212980,185680 536380,384490 640700,1045960 198070,1255950 -1039260,2188310 -793450,2889250 59280,169040 430240,201230 626910,-164040 0,191380 0,464910 0,681420 -312520,161990 -986150,-44670 -992040,-710520 -7960,-899620 1230010,-1878930 38370,-3148560l-607990 402170 0 1727740 -489480 343960 0 -3415790 -388960 174630 0 -297430z"/>
 </g>
</svg>
