<?xml version="1.0" encoding="UTF-8"?>
<svg width="491.26" height="613.23" viewBox="0 0 368.44 459.93" xmlns="http://www.w3.org/2000/svg">
<path d="m3.002 3-.004 195.5c2.541 103.78 56.694 203.3 181.22 258.15 124.53-54.855 178.68-154.38 181.22-258.15V3z" fill="#fff"/>
<g stroke="#000">
<path d="m3.002 3-.004 195.5c2.541 103.78 56.694 203.3 181.22 258.15 124.53-54.855 178.68-154.38 181.22-258.15V3z" fill="none" stroke-width="6"/>
<g stroke-width="3">
<path d="M3 120.94v30.104l131.12 111.45-90.416 76.85c11.069 17.941 24.528 34.949 40.492 50.734l100.02-85.009 100.02 85.012c15.964-15.784 29.423-32.792 40.492-50.731l-90.42-76.854 131.13-111.46V120.94h-64.772l-116.45 98.981-116.45-98.981z" fill="#0093dd" stroke-linecap="round"/>
<path d="M3.003 3 3 130.06h362.44V3z" fill="#fff" stroke-linecap="round"/>
<path d="m301.22 19.761 12.697 35.975h38.091l-29.626 23.278 10.581 35.975-31.743-21.162-31.743 21.162 10.581-35.975-29.626-23.278h38.091zm-117 0 12.697 35.975h38.091l-29.626 23.278 10.581 35.975-31.743-21.162-31.743 21.162 10.581-35.975-29.626-23.278h38.091zm-117 0 12.697 35.975h38.091L88.381 79.014l10.581 35.975-31.743-21.162-31.743 21.162 10.581-35.975L16.43 55.736h38.091z" fill="#0093dd"/>
</g>
</g>
</svg>
