<?xml version="1.0" encoding="UTF-8"?>
<!DOCTYPE svg PUBLIC "-//W3C//DTD SVG 1.1//EN" "http://www.w3.org/Graphics/SVG/1.1/DTD/svg11.dtd">
<!-- Creator: CorelDRAW -->
<svg xmlns="http://www.w3.org/2000/svg" xml:space="preserve" width="1875px" height="2061px" style="shape-rendering:geometricPrecision; text-rendering:geometricPrecision; image-rendering:optimizeQuality; fill-rule:evenodd; clip-rule:evenodd"
viewBox="0 0 1840.03 2022.26"
 xmlns:xlink="http://www.w3.org/1999/xlink">
 <defs>
  <style type="text/css">
   <![CDATA[
    .str2 {stroke:#181715;stroke-width:8.17728}
    .str1 {stroke:#181715;stroke-width:9.09527}
    .str0 {stroke:#181715;stroke-width:9.20074}
    .fil3 {fill:none}
    .fil2 {fill:#DA251D}
    .fil0 {fill:white}
    .fil1 {fill:#014C91;fill-rule:nonzero}
   ]]>
  </style>
 </defs>
 <g id="Ebene_x0020_1">
  <metadata id="CorelCorpID_0Corel-Layer"/>
  <g id="layer3">
   <path id="path2855" class="fil0 str0" d="M920.016 2017.36c0,0 915.416,-344.455 915.416,-1219.86 0,-875.4 0,-792.905 0,-792.905l-1830.83 0 0 792.905c0,875.4 915.416,1219.86 915.416,1219.86z"/>
  </g>
  <path id="rect3679" class="fil1 str1" d="M268.243 4.63399l0 1532.12c81.381,101.455 172.807,185.35 260.863,253.099l0 -1785.21 -260.863 0zm521.342 0l0 1951.87c78.7662,41.3709 130.432,60.855 130.432,60.855 0,0 51.6971,-19.4076 130.432,-60.7588l0 -1951.97 -260.864 0zm521.343 0l0 1785.21c88.0562,-67.7491 179.482,-151.644 260.863,-253.099l0 -1532.12 -260.863 0z"/>
  <rect class="fil2 str2" x="7.35318" y="562.509" width="1824.78" height="323.685"/>
  <g id="layer3_0">
   <path id="path2855_1" class="fil3 str0" d="M920.016 2017.36c0,0 915.416,-344.455 915.416,-1219.86 0,-875.4 0,-792.905 0,-792.905l-1830.83 0 0 792.905c0,875.4 915.416,1219.86 915.416,1219.86z"/>
  </g>
 </g>
</svg>
