<svg xmlns="http://www.w3.org/2000/svg" viewBox="0 0 412 640" enable-background="new 0 0 595.275 706.354" width="412" height="640"><g stroke="#000"><g stroke-linejoin="round"><path d="m 6 184 h 400 v 380 c 0 30 -10 40 -40 40 h -130 c -20 0 -25 15 -30 30 -5 -15 -10 -30 -30 -30 h -130 c -30 0 -40 -10 -40 -40 z" fill="#da121a" stroke-linecap="round" stroke-width="6"/><g fill="#fcdd09" stroke-width="3"><path d="m 33.903 5 h 10 l -0.303 9 h 11 l 0.303 -9 h 11 l -0.303 9 h 11 l 0.303 -9 h 10 l -0.303 9 h 12 l 0.303 -9 h 11 v 19 l -5 5 v 63 h -66 v -63 l -5 -5 z"/><path d="m 165.9 5 h 10 l -0.303 9 h 11 l 0.303 -9 h 11 l -0.303 9 h 11 l 0.303 -9 h 10 l -0.303 9 h 12 l 0.303 -9 h 11 v 19 l -5 5 v 63 h -66 v -63 l -5 -5 z"/><path d="m 303.4 5 h 10 l -0.303 9 h 11 l 0.303 -9 h 11 l -0.303 9 h 11 l 0.303 -9 h 10 l -0.303 9 h 12 l 0.303 -9 h 11 v 19 l -5 5 v 63 h -66 v -63 l -5 -5 z"/><path d="m 9 80.63 h 24 v 10.375 h 17 v -10.375 h 16 v 10.375 h 15 v -10.375 h 16 v 10.375 h 18 v -10.375 h 16 v 10.375 h 15 v -10.375 h 17 v 10.375 h 16 v -10.375 h 16 v 10.375 h 16 v -10.375 h 18 v 10.375 h 17 v -10.375 h 16 v 10.375 h 16 v -10.375 h 16 v 10.375 h 16 v -10.375 h 16 v 10.375 h 17 v -10.375 h 18 v 10.375 h 21 v -10.375 h 21 v 16.375 l -8.097 7 l 0.097 55 l 12 11 v 13.908 h -402 v -13.908 l 12 -11 l -0.097 -55 l -7.903 -7 z"/></g></g><g fill="none" stroke-width="2"><path d="m 17 114 h 378 m -378.1 9 h 378 m -377.9 9 h 378 m -378 8 h 378 m -378 8 h 378 m -378 8.853 h 378 m -384.54 8.697 l 391.02 -0.101 m -396.48 9.872 h 402"/><path d="m 11.08 175.29 l 0.201 8.622 m 21.799 -8.622 l 0.201 8.622 m 18.799 -8.622 l 0.201 8.622 m 22.799 -8.622 l 0.201 8.622 m 21.799 -8.622 l 0.201 8.622 m 22.799 -8.622 l 0.201 8.622 m 19.799 -8.622 l 0.201 8.622 m 20.799 -8.622 l 0.201 8.622 m -7.284 -18.459 l 0.083 9.837 m -23.08 -9.837 l 0.083 9.837 m -22.08 -9.837 l 0.083 9.837 m -23.08 -9.837 l 0.083 9.837 m -21.08 -9.837 l 0.083 9.837 m -24.08 -9.837 l 0.083 9.837 m -18.08 -9.837 l 0.083 8.837 m 9.917 -17.13 v 8.294 m 18 -8.294 v 8.294 m 24 -8.294 v 8.294 m 22 -8.294 v 8.294 m 23 -8.294 v 8.294 m 20 -8.294 v 8.294 m 21 -8.294 v 8.294 m 5 -17.45 v 8 m -21 -8 v 8 m -20 -8 v 8 m -23 -7 v 7 m -21 -7 v 7 m -23 -7 v 7 m -20 -7 v 7 m -5 -16 v 8 m 5 -15 v 7 m 13 0 v 8 m 24 -8 v 8 m -17 -16 v 8 m 23 -7 v 7 m 16 1 v 7 m 5 -15 v 7 m 18 0 v 8 m 19 -8 v 8 m 22 -8 v 8 m -36 -15 v 7 m 20 -7 v 7 m 21 -7 v 7 m 18 -35.708 v 9.708 m -23 -9.708 v 9.708 m -22 -9.708 v 9.708 m -19 -9.708 v 9.708 m -23 -10.708 v 9.708 m -22 -8.708 v 9.708 m -24 -9.708 v 9.708 m -18 10 v 8 m 18 -8 v 8 m 24 -8 v 8 m 22 -8 v 8 m 23 -8 v 8 m 19 -8 v 8 m 22 -8 v 8 m 5 -18 v 10 m -21 -10 v 10 m -20 -10 v 10 m -23 -10 v 10 m -21 -10 v 10 m -23 -10 v 10 m -20 -10 v 10 m -5 -19.708 v 9.708"/><path d="m 400.72 175.29 l 0.201 8.622 m -22.2 -8.622 l 0.201 8.622 m -19.2 -8.622 l 0.201 8.622 m -23.2 -8.622 l 0.201 8.622 m -22.2 -8.622 l 0.201 8.622 m -23.2 -8.622 l 0.201 8.622 m -20.2 -8.622 l 0.201 8.622 m -21.2 -8.622 l 0.201 8.622 m 6.716 -18.459 l 0.083 9.837 m 22.917 -9.837 l 0.083 9.837 m 21.917 -9.837 l 0.083 9.837 m 22.917 -9.837 l 0.083 9.837 m 20.917 -9.837 l 0.083 9.837 m 23.917 -9.837 l 0.083 9.837 m 17.917 -9.837 l 0.083 8.837 m -10.08 -17.13 v 8.294 m -18 -8.294 v 8.294 m -24 -8.294 v 8.294 m -22 -8.294 v 8.294 m -23 -8.294 v 8.294 m -20 -8.294 v 8.294 m -21 -8.294 v 8.294 m -5 -17.45 v 8 m 21 -8 v 8 m 20 -8 v 8 m 23 -7 v 7 m 21 -7 v 7 m 23 -7 v 7 m 20 -7 v 7 m 5 -16 v 8 m -5 -15 v 7 m -13 0 v 8 m -24 -8 v 8 m 17 -16 v 8 m -23 -7 v 7 m -16 1 v 7 m -5 -15 v 7 m -18 0 v 8 m -19 -8 v 8 m -22 -8 v 8 m 36 -15 v 7 m -20 -7 v 7 m -21 -7 v 7 m -18 -35.708 v 9.708 m 23 -9.708 v 9.708 m 22 -9.708 v 9.708 m 19 -9.708 v 9.708 m 23 -10.708 v 9.708 m 22 -8.708 v 9.708 m 24 -9.708 v 9.708 m 18 10 v 8 m -18 -8 v 8 m -24 -8 v 8 m -22 -8 v 8 m -23 -8 v 8 m -19 -8 v 8 m -22 -8 v 8 m -5 -18 v 10 m 21 -10 v 10 m 20 -10 v 10 m 23 -10 v 10 m 21 -10 v 10 m 23 -10 v 10 m 20 -10 v 10 m 5 -19.708 v 9.708"/></g></g><path d="m 75.903 42 c 0 -10 15 -10 15 0 v 23 h -15 z"/><path d="m 174.1 186.23 v -8.383 h 4 v -43.592 h -3 v -6.706 h 6 c -1.022 -6.606 10.369 -17.609 17 -16.981 v -3.353 h 12 v 3.353 c 7.422 -0.238 17.716 9.929 18 16.981 h 5 v 5.868 h -3 v 44.43 h 4 v 8.383 z" fill="#fcdd09" stroke="#000" stroke-linejoin="round" stroke-width="1.831"/><path d="m 182.05 134.19 l 0.093 43.655 l 2.784 0.006 l -0.23 7.612 l 38.803 -0.07 l 0.126 -7.443 l 2.529 -0.247 l -0.219 -44.01 c -0.006 -0.787 -2.063 -0.007 -2.183 -0.785 -0.671 -8.428 -6.286 -16.846 -14.05 -17.914 -2.715 -0.373 -7.804 -0.265 -10.743 -0.267 -9.164 -0.009 -13.332 10.08 -14.461 18.718 -0.137 1.045 -2.471 -0.314 -2.447 0.747 z" fill="#fff"/><g stroke="#000" stroke-linejoin="round"><path d="m 185.1 179.52 l 14 6.755 m 10.885 0.065 l 13.11 -6.82 m -41 -8.383 l 21.892 11.469 l 22.11 -11.469 m -44 -7.545 l 22 11.736 l 22 -11.736 m -44 14.251 v -43.592 m 0 21.796 l 22 10.898 l 22 -10.898 m -44 -8.383 l 22 10.898 l 22 -10.898 m -44 -7.545 l 22 10.898 l 22 -10.898 m -48 -5.868 h 7 v -6.706 m 0 6.706 l 19 9.221 l 19 -10.06 m -38 -6.706 l 19 9.221 l 18.427 -9.577 m -34.555 -4.936 l 16.13 7.821 l 15.658 -7.672 m -27.445 -4.408 l 11.934 5.669 l 11.857 -5.437 m -17 -3.471 l 1 1.677 h 8 l 1 -1.677 m 14 13.628 v 5.868 h 3 v 44.43 h -3 v 7.712 m 7 -7.712 h -4 m 4 -44.43 h -4 m -16 -22.849 l -1 3.353 c 6.422 0 14 9.921 14 13.628 h 5 m -47 0 h 4 c 0 -4.184 7.294 -13.39 14 -13.628 l -1 -3.353 m -13 75.66 v -8.383 h -8 m 27 -62.25 v 70.956" fill="none" stroke-width="1.831"/><path d="m 211.5 578.11 c -4.194 -3.953 2.876 -7.292 1.79 -9.259 -1.602 -2.904 1.071 -3.132 3.227 -5.59 6.01 -6.857 7.984 -7.73 18.16 -11.862 5.02 -2.04 10.668 -3.527 12.514 -10.523 -7.677 -0.147 -11.214 -3.363 -7.963 -7.394 4.271 -5.296 -1.237 -5.948 -4.55 -8.248 5.089 -0.655 10.211 -1.39 13.08 3.128 7.27 -3.835 2.089 14.472 12.514 10.807 6.965 -2.449 10.997 -11.799 16.495 -8.816 4.078 -12.246 14.589 -16.342 14.22 -23.04 -0.432 -7.836 -1.732 -15.829 -10.238 -20.477 -5.49 -3 -12.226 6.411 -17.06 17.06 0.036 -11.11 5.723 -18.222 1.706 -21.899 -2.939 11.846 -7.3 18.822 -11.66 22.468 1.941 -6.784 6.218 -17.04 3.413 -22.468 -3.128 5.741 -6.257 11.599 -9.385 13.651 7.393 -17.892 -0.066 -16.88 4.835 -30.715 -3.602 -2.584 -7.205 2.657 -10.807 4.835 3.11 -6.787 6.116 -14.401 9.954 -15.358 -4.362 0.301 -4.353 -4.496 -4.266 -9.385 -24.935 -0.556 -27.14 -3.231 -40.39 10.238 -2.186 2.222 1.118 8.375 -5.479 10.773 -8.809 3.202 -4.284 10.567 -7.887 16.245 10.442 0.281 20.316 -2.56 28.725 4.55 3.975 3.361 3.703 7.317 11.376 5.688 -1.187 1.697 -4.407 3.801 -9.385 6.257 5.179 0.11 10.1 0.578 11.559 5.903 -2.562 -0.134 -5.066 -2 -7.745 1.35 1.236 4.335 4.347 4.502 1.765 8.448 -4.97 -1.874 -11.131 1.341 -13.826 4.776 2.21 5.515 5.253 10.892 1.422 17.917 -3.128 -8.164 -6.257 -6.913 -9.385 -6.257 0.555 3.946 0.089 8.097 -3.128 12.798 -2.366 -6.779 -7.502 -11.04 -10.238 -5.688 -1.778 3.48 -0.263 7.438 -4.835 10.523 -2.842 -7.433 -5.794 -12.361 -9.385 -2.56 -3.894 -5.804 -7.873 -9.473 -12.514 3.413 -2.939 0.162 -5.878 -6.973 -8.816 -11.66 -8.541 2.4 -8.644 10.07 -11.66 15.926 l -1.706 -13.936 c -7.116 9.781 -8.783 12.953 -17.06 6.257 -1.077 5.553 5.815 22.774 -4.835 16.78 -1.383 3.167 3.54 10.934 -8.532 13.936 1.462 -7.403 5 -8.253 0.569 -9.954 -3.708 -1.422 -10.247 -11.607 1.991 -9.67 -5.119 -9.575 -0.76 -12.623 1.991 -16.78 -8.761 -0.251 -16.31 -0.805 -19.05 -2.56 -16.412 4.368 -16.377 -0.664 -17.349 -5.119 -4.099 -1.915 -6.41 3.717 -9.824 5.225 -0.745 -10.58 4.171 -11.681 8.971 -11.766 10.13 -8.308 17.01 -2.642 30.715 1.991 3.954 1.336 10.312 -7.737 5.119 -9.67 -7.107 -2.645 -9.913 -3.651 -5.119 -8.816 2.22 -6.382 -3.063 -4.465 -7.11 -5.972 4.786 -3.158 8.729 -8.661 14.789 -0.853 3.659 2.162 11.365 2.553 3.697 9.67 4.338 -0.555 6.439 -0.686 7.11 6.826 23.941 -4.813 32.34 -15.197 31.569 -25.881 -0.99 4.308 -4.963 3.5 -10.238 7.11 0.818 -13.03 -4.259 -7.524 -8.532 -4.55 3.267 -16.814 -5.13 -5.287 -7.394 1.706 3.114 -17.226 -3.952 -11.731 -11.376 -2.275 0.163 -5.58 2.523 -12.258 10.238 -21.615 -4.906 4.272 -10.03 8.27 -17.917 8.816 4.943 -3.984 12.656 -8.363 12.798 -11.66 l -12.229 1.991 c 5.24 -3.608 14.254 -6.139 14.789 -11.09 -0.116 -2.42 -7.896 1.73 -12.798 3.413 3.753 -4.891 6.565 -10.03 17.348 -13.08 3.921 -3.792 -3.046 -7.584 -5.972 -11.376 16.02 -0.798 18.342 -4.352 29.29 -10.523 27.577 -15.54 52.647 -15.425 89.87 -1.706 -3.147 -4.046 -4.735 -12.147 -11.376 -7.11 1.928 -7.672 -2.423 -5.579 -7.196 -2.828 3.782 -7.672 1.374 -10.392 1.792 -15.374 -4.568 6.864 -9.504 12.531 -17.06 9.67 0.431 -5.287 -8.211 1.919 -13.08 -7.394 -10.172 2.149 -20.15 -1.177 -30.15 -2.844 -4.92 -1 -2.095 5.607 -6.257 12.514 -2.399 -1.848 -3.573 -5.736 -3.697 -11.376 -10.455 -1.864 -3.091 -11.169 -0.569 -17.349 -4.921 6.209 -9.156 15.835 -16.211 18.486 -3.195 5.601 5.554 9.874 8.532 14.789 -5.153 -2.632 -10.06 -4.058 -15.926 -10.238 0.054 5.04 -4.829 5.329 -10.807 0.569 v 8.248 c -2.295 -2.863 -5.748 -5.693 -6.885 -2.588 -2.402 6.562 -9.166 3.035 -13.02 7.138 3.701 1.121 10.383 0.867 4.835 6.257 2.855 3.965 4.433 6.466 0 12.229 -1.494 -4.04 -1.319 -6.988 -4.266 -7.394 -6.653 7.774 -11.632 -2.654 -8.248 -3.982 -2.962 3.962 -4.789 8.897 -12.798 8.532 -1.464 3.03 -4.731 6.933 -0.853 8.532 6.516 2.686 15.855 2.835 8.07 12.11 0.643 3.068 4.614 4.805 8.994 6.378 -5.688 2.828 -11.376 2.83 -17.06 -3.413 -7.803 8.59 -7.094 -7.653 -9.385 -14.22 -4.144 4.217 -8.678 7.784 -15.07 8.248 -1.73 5.331 3.874 13.963 -11.66 13.08 -3.71 -2.541 -6.366 1.24 -9.385 2.844 0.317 -4.471 -0.429 -9.208 5.688 -12.229 1.333 -4.449 3.458 -8.106 9.296 -8.05 4.064 -4.863 2.47 -11.341 12.888 -15.839 -10.13 0.771 -12.744 -3.662 -13.08 -9.67 -11.825 5.818 -10.273 1.075 -7.963 -4.266 -1.472 -4.372 -5.404 -1.959 -9.101 -1.138 2.243 -5.468 7.269 -7.646 12.514 -7.11 7.118 -10.1 3.883 8.482 12.229 9.101 11.29 0.837 16.495 -4.848 22.18 -8.816 13.07 -9.118 18.614 -20.287 18.771 -30.431 2.91 -5.256 7.662 -9.693 19.727 -14.186 -2.521 -1.886 -8.795 -0.018 -15.177 1.956 12.08 -4.269 16.01 -12.62 22.23 -19.819 -7.957 8.628 -17.07 12.623 -26.599 14.972 8.624 -6.846 17.17 -13.283 26.553 -23.936 -10.807 7.472 -21.615 13.86 -32.422 17.406 11.717 -11.86 16.212 -8.213 17.837 -24.19 -11.577 18.751 -10.641 9.05 -21.775 16.268 11.739 -10.721 10.394 -18.318 21.844 -27.44 -13.829 8.311 -27.15 15 -37.09 10.853 5.743 -2.545 12.155 2.811 12.01 -10.03 -5.122 -2.45 -4.316 -4.901 -5.915 -7.351 -6.756 -3.946 -6.251 -9.494 -5.484 -17.245 -2.919 -2.904 -4.85 2.092 -7.03 5.096 -1.898 -7.813 0.306 -16.447 2.229 -25.02 -5.949 3.279 -12.892 11.03 -15.886 1.01 -5.31 10.129 -9.883 0.05 -13.06 -1.216 3.572 0.486 9.288 0.965 11.287 -4.844 2.263 -7.118 6.672 -7.368 12.878 -1.865 2.096 -8.801 2.365 -21.983 -6.326 -19.227 -8.01 3.673 -16.394 9.446 -16.15 1.115 -6.866 -3.274 -7.591 1.129 -11.376 1.706 2.741 -5.516 4.176 -13.642 11.376 -10.238 4.574 -16.426 14.945 2.112 21.319 -1.798 8.641 -5.302 -4.559 -16.693 -0.546 -21.933 -8.946 6.673 -10.335 2.01 -9.897 -5.392 1.323 -6.5 -4.364 -7.159 -7.282 -10.124 4.945 0.225 10.227 -2.924 14.447 4.55 4.541 -4.479 18.19 -6.777 9.239 7.894 3.281 -0.468 10.327 4.696 9.08 9.494 -1.866 7.16 3.596 1.165 6.941 7.981 -1.095 -2.19 -5.503 -7.156 -1.509 -8.845 6.294 -2.662 10.178 -14.478 14.979 -8.288 5.134 -0.033 3.952 -7.633 6.981 -11.172 4.058 3.072 4.97 13.657 -2.319 17.16 3.403 18.437 -8.05 3.845 -8.167 6.438 -0.272 6.263 -6.936 15.01 -9.397 5.683 -4.626 13.348 10.718 26.2 6.757 43.05 -1.371 5.834 22.05 8.784 35.28 6.536 -1.212 -4.817 4.01 -4.139 15.615 -6.924 -4.611 -1.099 -7.399 -2.502 -7.282 -4.39 7.639 -2.825 15.306 -5.735 20.638 -1.638 l 19.362 -18.04 c -7.328 -9.592 -4.076 -19.668 7.394 -15.926 -6.803 -5.637 -5.893 -12.817 -0.888 -20.816 -2.793 -6.934 -4.997 -13.578 8.693 -12.376 -5.431 -6.4 0.944 -12.864 10.488 -5.736 3.664 -5.672 11.21 -9.185 18.11 -2.025 4.253 -3.609 17.19 -6.445 11.376 5.119 6.992 0.966 17.07 1.347 10.807 14.22 17.11 -6.111 20.04 11.773 5.461 15.835 10.206 3.413 3.739 9.193 -1.479 12.605 -1.309 18.541 4.975 28.01 6.826 44.869 l -11.741 -12.697 c 6.172 11.385 12.475 23.446 13.13 27.736 -4.589 0.21 -9.177 -7.236 -13.766 -12.06 l 8.351 19.839 c -7.24 -10.445 -9.337 -4.309 -17.975 -15.404 3.02 17.247 21.624 26.579 21.502 36.791 -9.302 -6.75 -16.387 -17.642 -22.09 -24.392 0.365 15.14 8.566 14.312 14.13 24.1 -7.703 -6.186 -13.409 -7.714 -18.773 -8.443 9.563 7.547 24.934 13.724 20.977 34.2 -0.468 -8.78 -4.832 -13.11 -10.236 -19.546 l -1.204 16.881 c -7.818 -19.13 -11.725 -11.369 -19.09 -23.39 -2.562 10.693 9.06 18.652 16.225 25.826 11.43 11.45 24.421 20.857 40.727 28.828 10.529 4.456 20.05 15.923 32.741 9.874 8.897 -4.241 7.358 -15.636 7.679 -25.881 -20.434 -0.229 -39.33 -15.04 -45.659 -33.445 -5.537 -26.825 -2.144 -40.19 17.787 -56.14 5.261 -4.21 -0.397 -9.26 -8.248 -13.08 8.693 -2.989 14.371 1.589 21.05 3.982 12.193 -7.787 22.734 -12.821 32.991 -21.615 9.1 -7.8 15.666 -17.511 7.963 -32.422 -3.327 -2.163 -9.926 0.229 -15.358 2.275 15.168 -10.05 3.425 -19.529 13.936 -29.29 6.04 4.378 -2.173 10.688 5.119 18.486 4.647 -8.756 8.306 -11.287 15.642 -14.504 -3.532 7.369 1.296 19.686 -5.119 31.569 -5.284 48.25 -56.33 35.793 -77.64 82.48 4.558 1.731 8.96 2.211 20.19 -1.991 -4.209 7.14 -5.129 12.02 -20.19 13.367 -0.08 18.903 9.07 38.36 38.963 40.669 6.146 0.474 14.705 -6.35 22.18 -17.917 6.943 -10.74 13.704 -22.381 -13.651 -37.26 2.343 -1.855 9.472 -0.839 15.358 -0.569 -16.704 -33.86 -42.931 -32.735 -61.43 -58.3 -5.61 -7.754 -5.846 -18.202 -3.39 -29.503 2.071 -9.529 -0.071 -17.259 -5.995 -23.68 8.629 -0.173 15.674 1.081 16.78 7.679 0.632 -10.691 13.647 -1.049 25.312 -13.367 -0.728 5.794 -2 10.399 -11.376 17.633 7.06 -0.736 9.333 3.783 8.816 11.376 -5.02 -3.559 -10.01 -6.291 -15.07 -5.972 -11.847 0.745 -15.7 11.133 -12.229 19.339 10.577 25.01 24.16 29.19 51.761 47.5 1.198 -7.618 6.252 -11.381 11.945 -14.504 3.965 13.805 -7.92 16.758 -2.275 25.596 11.435 17.904 15.779 26.624 11.376 44.08 -4.808 19.07 -25.359 31.18 -27.871 47.5 -2.513 16.321 -12.178 29.456 -23.792 28.627 -6.374 -0.455 -17.234 -6.214 -24.272 -9.572 12.804 11.908 21.11 28.25 15.07 49.2 6.628 0.577 12.282 -0.148 13.651 5.688 5.01 -5.433 14.852 -4.686 21.33 -5.688 7.526 -1.164 13.779 0.389 19.05 -5.688 5.436 -6.262 -2.723 -8.308 -6.826 -11.09 7.914 -2.271 17.808 -2.071 15.926 14.504 -0.893 7.868 -8.207 12.649 -15.926 15.358 5 1.018 9.549 2.672 18.202 -1.422 -9.29 14.711 -14.884 6.366 -21.899 20.477 3.234 2.968 7.108 2.097 11.09 0.569 -7.361 3.053 -3.847 10.351 -2.56 16.78 -7.45 -3.929 -10.371 1.237 -13.08 6.826 -0.474 -3.508 -2.086 -5.119 -4.835 -4.835 0.131 7.157 -2.031 10.184 -5.688 10.523 7.135 0.932 12.949 2.743 11.09 9.67 -2.939 -2.788 -5.878 -3.847 -8.816 -2.844 3.733 3.318 4.28 6.636 4.266 9.954 -3.128 -4.286 -6.257 -6.04 -9.385 -6.541 2.625 2.843 3.246 6.545 0.569 11.66 -3.792 -6.512 -7.584 -4.068 -11.376 -4.266 2.727 1.867 5.673 3.551 3.982 9.101 -3.506 -4.727 -6.342 -4.768 -9.101 -4.266 1.959 3.176 4.111 6.06 3.128 13.651 -3.054 -6.832 -7.04 -5.273 -10.807 -5.688 1.046 3.977 -0.09 8.05 -2.844 15.07 -2.749 -7.674 -3.792 -7.374 -6.541 -9.385 3.411 5.915 -0.829 8.542 -0.853 13.08 -4.266 -6.075 -6.257 -6.296 -10.523 -8.816 1.56 6.877 1.523 11.125 -3.697 16.495 -1.473 -7.234 -3.459 -9.629 -5.688 -13.08 -0.713 3.791 -4.708 5.211 -7.186 6.492 -3.761 1.944 16.06 12.143 -3.052 11.995 -0.519 5.784 -0.486 11.11 -10.845 12.7 1.435 -4.262 8.463 -9.472 2.597 -12.416 -12 -6.02 5.121 -8.831 3.413 -21.33 -7.716 3.918 -16.888 9.701 -25.312 5.119 3.069 5.921 -5.392 13.153 -7.635 12.238 -5.04 -2.055 -10.312 0.727 -12.41 3.666 z" fill="#fcdd09" stroke-linecap="round" stroke-width="3"/></g><path d="m 192.58 259.57 c -7.578 -1.345 -19.857 2.173 -23.619 5.687 -10.458 9.769 1.909 10.915 4.344 21.887 2.151 9.694 22.905 2.644 30.578 0.267 6.46 -2 8.488 -8.203 11.56 -10.532 4.85 -3.678 11.03 -4.587 10.244 -9.505 -1.358 -8.465 -16.461 -0.47 -23.904 -0.837 -4.112 -0.203 2.784 -4.837 -9.203 -6.965 z"/><path d="m 188.31 287.37 c -9.02 5.615 -18.12 -3.819 -13.889 -8.403 5.01 -5.432 13.217 -15.539 18.833 -13.305 2.685 1.068 -2.198 19.999 -4.945 21.708 z" fill="#da121a"/><g fill="#fff"><path transform="matrix(1.7292 0 0 1 579.74 -32.08)" d="m -202.08 270.51 a 1.976 2.47 0 1 1 -3.953 0 1.976 2.47 0 1 1 3.953 0 z"/><path transform="matrix(1.46404 0 0 1.28284 507.04 -120.87)" d="m -202.08 270.51 a 1.976 2.47 0 1 1 -3.953 0 1.976 2.47 0 1 1 3.953 0 z"/></g><path d="m 293.06 212.55 c -3.29 5.868 -6.58 5.307 -9.87 7.67 m 73.61 5.67 c -2.456 -2.403 -0.879 -5.612 -0.236 -8.635 m 0.73 116.59 c -1.185 -6.126 1.261 -8.621 2.482 -12.341 m -61.03 -36.574 c 1.747 -5 -2.628 -10.574 -6.782 -12.958 m -230.87 9.747 c 2.434 -3.055 0.622 -4.897 -1.471 -6.659 m -9.893 -19.03 c 2.589 -2.796 1.276 -5.592 0.011 -8.388 m 17.775 -35.09 c -0.439 4.426 -3.477 4.932 -6.165 5.199 m 49.4 8.882 c -3.961 0.233 -3.808 -2.961 -3.941 -5.917 m 105.97 8.388 c -10.303 2.803 -5.734 -3.891 -9.376 -6.782 4.835 0.783 9.209 0.909 10.117 10.735 m 18.03 3.953 c -3.362 6.266 -8.524 5.502 -8.635 -2.829 7.139 3.242 10.899 -1.512 17.528 2.088 m -26.433 -14.328 c -2.089 -6.962 -2.893 -4.832 -8.635 -5.176 m 25.681 35.562 c -10.781 -1.852 -9.27 2.131 -11.846 4.211 m 13.576 6.659 c 16.882 -11.09 12.11 -13.765 6.429 -15.928 16.579 -3.193 10.04 -7.89 7.664 -10.494 m -7.67 -8.905 c -3.666 2.367 -6 0.747 -8.388 -0.73 m -4.211 -9.399 c -3.602 1.286 -4.914 -2.01 -5.917 -5.917 m 21.234 53.844 c -3.6 12.327 -8.722 7.908 -13.576 6.435 m 20.74 24.94 c -3.698 -4.328 -1.269 -10.08 -5.917 -14.317 m -13.352 4.682 c -0.178 -5.084 -2.105 -6.265 -3.941 -7.647 m 13.329 22.22 c -4.288 -7.07 0.959 -18.25 -3.447 -18.517 m -16.316 -42.997 c -6.859 -3.02 -4.696 7.05 -9.87 10.881 m 0.236 -14.834 c -7.414 4.369 -10.16 8.737 -5.076 13.11 -1.35 4.612 -2.121 9.803 -7.264 10.621 m 19.752 14.07 c -3.938 9.637 -6.2 21.11 -29.516 21.498 -19.15 0.315 -20.18 -10.606 -23.442 -20.239 m 33.935 30.609 c -0.945 -1.973 -1.194 -3.945 -5.917 -5.917 m -3.223 5.423 c -4.01 1.286 -5.156 -2.01 -5.917 -5.917 m 33.586 -4.952 c 4.296 -0.477 7.05 -3.01 5.446 -11.352 m 5.917 25.434 c 0.167 -6.801 -1.157 -10.122 -2.953 -12.341 m -0.012 14.564 c -2.496 -0.154 -4.402 -2.081 -4.929 -8.141 m -12.611 15.799 c -2.717 0.452 -2.892 -3.136 -2.212 -8.141 m 7.647 -5.446 c -4.441 0.99 -4.515 -3.261 -5.917 -5.917 m -25.951 28.645 c 13.572 -0.087 6.752 -8.913 7.917 -14.317 m 40.997 16.787 c -11.371 1.107 -10.766 -7.285 -13.2 -13.266 -6.476 8.565 -13.06 16.01 -22.12 -2.533 m 49.15 28.645 c -19.402 -11.738 -12.26 -17.682 -15.305 -25.681 m -57.57 26.17 c -8.895 4.065 -13.644 -2.172 -4.682 -11.11 m 26.422 19.258 c -7.636 -2.01 -2.206 -11.969 -9.43 -13.362 -2.75 0.539 -4.02 12.452 -6.03 12.326 -2.713 0.546 -2.913 -4 -0.966 -12.669 2.367 -10.535 -6.135 -19.395 2.219 -28.908 -24.68 3.516 -49.667 9.353 -60.4 27.28 m 8.89 47.45 c 5.437 -2.137 5.546 -4.274 4.458 -6.412 m 6.659 -22.986 c -7.463 2.73 -4.74 9.371 -12.1 14.523 3.648 1.922 11.48 -0.242 8.644 4.746 m 20.01 -27.916 c -12.279 16.02 -13.02 0.627 -21.728 5.693 m 31.363 6.412 c -18.8 1.995 -17.694 12.837 -25.928 19.528 m 1.224 24.693 c 4.556 -0.871 4.367 -11.233 4.451 -21.05 1.842 4.95 5.302 14.913 6.411 9.982 3.841 -17.09 10.448 -13.228 13.854 -26.718 m 31.363 -1.988 c 13.825 -6.665 7.249 -19.726 -0.483 -22.22 m 43.22 29.881 c -1.345 -3.163 -1.826 -6.04 0.753 -7.894 m 24.446 32.845 c -5.337 -10.566 -16.682 -12.657 -18.399 -21.981 -5.888 19.11 -7.337 3.035 -10.741 -0.982 m -4.458 -1.988 c -2.236 -15.946 -14.317 -9.468 -18.517 -30.13 m 13.823 31.61 c -10.08 8.456 -4.948 -5.406 -10.611 -12.09 m 9.623 38.28 c 5.554 -7.871 -5.737 -5.395 -6.906 -20.246 m -6.188 22.963 c 3.739 -8.22 2.145 -14.155 1.494 -20.493 m -8.164 -1.741 c 4.448 22.03 6 2.095 7.917 -12.588 m -15.575 40.503 c 8.958 -17.19 6.625 -25.694 7.67 -36.798 m -3.717 7.894 c -4.234 18.12 -12.982 18.816 -7.664 0.957 m -9.629 25.476 c 2.352 -10.725 6.643 -22.448 13.599 -31.857 m -24.716 31.363 c 1.189 -18.28 15.16 -27.27 15.08 -42.727 m -8.164 -3.223 c -12.818 7.286 -3.132 17.791 -15.06 29.656 m -50.16 42.23 c -2.411 0.535 -2.401 2.684 -2.953 4.458 m 171.68 6.412 c 1.131 -12.167 -1.736 -15.339 -2.953 -22.22 m 12.835 33.586 c -7.964 -13.614 -5.05 -31.433 -12.341 -40.01 m -86.97 71.14 c -5.102 1.488 -10.203 -0.377 -15.305 5.199 m -32.13 43.47 c -3.2 3.585 -7.01 4.104 -10.858 4.458 m 30.869 -7.917 c -7.722 2.392 -9.677 4.784 -13.08 7.176 m 52.855 -12.12 c 0.263 -3.463 -2.243 -5.079 -5.917 -5.917 m 11.846 -13.846 c 0.38 -4.557 -2.915 -6.663 -6.412 -8.635 m -7.67 33.833 c -1.668 -3.239 -2.996 -6.527 -9.129 -9.129 m 33.34 54.58 c -2.303 -2.931 -3.987 -7.305 -8.141 -5.917 m 47.667 10.858 c -1.555 -2.673 -3.716 -1.101 -5.917 0.753 m 77.56 -91.66 c 0.276 -6.303 0.396 -9.759 -3.2 -15.552 m -0.753 23.21 c -8.141 20.07 -19.56 31.954 -31.61 42.26 m 1.718 -17.551 c -3.563 4.402 -4.246 8.582 -15.799 13.599 m 42.23 -43.738 c -0.851 -6.848 -2.437 -7.453 -3.694 -10.858 m -74.12 49.644 c -2.693 2.452 -5.118 3.569 -7.153 2.729 m -144.28 -72.15 c -4.142 -2.728 -5.135 1.894 -7.525 3.253 m -35.574 -48.914 c 1.133 3.951 -0.359 6.03 -3.835 6.686 m -0.741 39.774 c 1.941 1.728 3.764 3.551 2.479 7.86 m 191.57 -23.851 c -0.599 -1.973 -5.959 -5.057 -8.02 -7.03 m 3.941 6.535 l -6.906 -6.288 m 3.324 6.288 l -6.782 -6.288 m 3.2 5.917 l -5.917 -5.917 m 2.953 6.412 l -5.917 -5.917 m 2.088 6.782 c -0.309 -1.326 -3.454 -4.07 -5.547 -6.288 m -4.941 0.73 c 2.255 1.299 5.537 2.602 7.153 5.817 m -1.718 -21.875 c 3.929 2.195 6.811 1.574 12.835 9.399 m 39.04 25.681 c -0.98 -7.207 -4.399 -5.65 -4.952 -15.06 m 35.832 -36.33 c 5.592 0.659 13.501 3.635 15.552 0.753 m 13.352 -33.12 c 3.105 -3.835 2.422 -7.47 11.11 -11.599 m -96.09 41.24 c 0.455 -4.372 1.803 -8.447 -1.494 -14.07 m -126.91 177.68 c 1.13 -4.088 3.496 -4.468 5.917 -4.682 m -40.24 -30.438 c 2.904 -2.489 1.118 -4.197 -0.592 -5.917 m 31.363 -20.12 c 2.42 -0.536 5.697 0.355 5.917 -3.846 m 131.66 -74.26 c 2.17 8.688 -2.762 4.434 -4.892 16 -2.487 -2.647 -4.661 -5.451 -8.397 -7.475 m -49.14 26.98 c 5.819 -11.289 14.301 -11.602 20.12 -12.13 m -25.741 8.876 c 2.545 -3.725 1.698 -5.997 9.172 -11.835 m -12.427 12.13 c 1.768 -5.121 2.665 -10.198 11.539 -15.681 m -0.888 -14.794 c 1.103 -3.626 6.437 -3.518 10.651 -3.255 m -46.748 33.73 c -4.22 -6.03 7.722 -10.254 13.61 -21.599 m -72.802 -15.765 c 9.404 -6.553 19.214 -18.05 24.02 -24.601 m 12.846 -56.57 c 3.762 -7.195 17.806 -16.86 26.856 -18.13 m -58.25 1.523 c 3.694 -15.53 16.467 -17.443 26.17 -23.952 m -11.479 24.431 c 16.838 -20.1 40.1 -12.634 57.06 -30.869 m -75.885 18.439 c 6.36 -9.973 16.808 -14.835 28.398 -18.27" fill="none" stroke="#000" stroke-linejoin="round" stroke-linecap="round" stroke-width="3"/><path transform="translate(407.01 -21.7)" d="m -200.64 270.51 a 3.416 2.47 0 1 1 -6.832 0 3.416 2.47 0 1 1 6.832 0 z"/><path transform="translate(413.92 -18.983)" d="m -201.09 270.51 a 2.964 2.47 0 1 1 -5.929 0 2.964 2.47 0 1 1 5.929 0 z"/><path d="m 322.83 268.68 l -12.847 7.746 l 4.295 3.127 l 13.359 -7.354 z" fill="#fcdd09"/><path d="m 52.903 42 c 0 -10 15 -10 15 0 v 23 h -15 z"/><g fill="none" stroke="#000" stroke-width="2"><path d="m 9.903 97 h 393"/><path d="m 16.903 104 h 379"/><path d="m 39.903 34 h 11 m 42 0 h 11 m -9 7 h 10 m -65 0 h 9 m -9 8 h 10 m 45 0 h 10 m -10 8 h 10 m -66 0 h 10 m 18 -12 h 10 m -10 -4 h 10 m 18 24 v -25 c 0 -13 -23 -12 -23 0 m -23 25 v -25 c 0 -13 23 -12 23 0 m -38 -16 h 75 m -70 5 h 66 m -33 53 v 8 m 17 -17 v 8 m -12 -8 v 8 m -11 -8 v 8 m -11 -7 v 8 m 42 -17 v 8 m -12 -8 v 8 m -13 -8 v 8 m -13 -9 v 9 m -12 -8 v 8 m -8 -8 h 66 m -66 17 h 11.149 m 15.851 0 h 15.4 m 16.6 0 h 7 m -66 -9 h 66"/></g><path d="m 207.9 42 c 0 -10 15 -10 15 0 v 23 h -15 z"/><path d="m 184.9 42 c 0 -10 15 -10 15 0 v 23 h -15 z"/><path d="m 171.9 34 h 11 m 42 0 h 11 m -9 7 h 10 m -65 0 h 9 m -9 8 h 10 m 45 0 h 10 m -10 8 h 10 m -66 0 h 10 m 18 -12 h 10 m -10 -4 h 10 m 18 24 v -25 c 0 -13 -23 -12 -23 0 m -23 25 v -25 c 0 -13 23 -12 23 0 m -38 -16 h 75 m -70 5 h 66 m -33 53 v 8 m 17 -17 v 8 m -12 -8 v 8 m -11 -8 v 8 m -11 -7 v 7 m 42 -16 v 8 m -12 -8 v 8 m -13 -8 v 8 m -13 -9 v 9 m -12 -8 v 8 m -8 -8 h 66 m -66 17 h 8 m 16 0 h 16 m 19 0 h 7 m -66 -9 h 66" fill="none" stroke="#000" stroke-width="2"/><path d="m 345.4 42 c 0 -10 15 -10 15 0 v 23 h -15 z"/><path d="m 322.4 42 c 0 -10 15 -10 15 0 v 23 h -15 z"/><path d="m 309.4 34 h 11 m 42 0 h 11 m -9 7 h 10 m -65 0 h 9 m -9 8 h 10 m 45 0 h 10 m -10 8 h 10 m -66 0 h 10 m 18 -12 h 10 m -10 -4 h 10 m 18 24 v -25 c 0 -13 -23 -12 -23 0 m -23 25 v -25 c 0 -13 23 -12 23 0 m -38 -16 h 75 m -70 5 h 66 m -8.5 54 v 7 m -7.5 -17 v 8 m -12 -8 v 8 m -11 -8 v 8 m -11 -7 v 8 m 42 -17 v 8 m -12 -8 v 8 m -13 -8 v 8 m -13 -9 v 9 m -12 -8 v 8 m -8 -8 h 66 m -47.5 17 h 16 m 19 0 h 12.5 m -66 -9 h 66" fill="none" stroke="#000" stroke-width="2"/></svg>