<?xml version="1.0" encoding="iso-8859-1"?>
<!DOCTYPE svg PUBLIC "-//W3C//DTD SVG 1.1//EN" "http://www.w3.org/Graphics/SVG/1.1/DTD/svg11.dtd">
<!-- Auto-generated by fig2svg tool
     Date: Thu Oct 26 13:16:34 2006 -->
<svg xmlns="http://www.w3.org/2000/svg"
     width="438" height="480" viewBox="21 15 438 480">
<metadata>
 xmlns:rdf="http://www.w3.org/1999/02/22-rdf-syntax-ns#"
         xmlns:dc="http://purl.org/dc/elements/1.1/">

 dc:title="Wappen Davos (CH-GR)"
 dc:date="2006-10-26"
 dc:format="image/svg+xml"
 dc:language="de">
 dc:creator="http://de.wikipedia.org/wiki/Benutzer:Bernina"

</metadata>
<title>
Wappen Davos (CH-GR)
</title>
<defs>
<clipPath id="clippath">
<path d="M360,4140 A3240,3240 0.0 0 0 6840,4140 L6840,270 L360,270 L360,4140 Z" />
</clipPath>
<style type="text/css">
  <![CDATA[
  .Rand3 { stroke: #202020; stroke-width:45; }
  .Rand6 { stroke: #202020; stroke-width:90; }
  .Blau { fill: #0000ff; }
  .Gold { fill: #ffef00; }
  ]]>
</style>
</defs>
<g stroke="none" stroke-miterlimit="10" stroke-width="10"
   stroke-linecap="butt" stroke-linejoin="miter"
   fill="none" fill-rule="evenodd" transform="scale(0.066667)">
<g clip-path="url(#clippath)">
<path id="feldor-1" class="Blau"
      d="M-225,3600 L3600,3600 L3600,-225 L-225,-225 L-225,3600 Z" />
<path id="feldul-1" class="Blau"
      d="M3600,7425 L7425,7425 L7425,3600 L3600,3600 L3600,7425 Z" />
<path id="feldol-1" class="Gold"
      d="M3600,-225 L3600,3600 L7425,3600 L7425,-225 L3600,-225 Z" />
<path id="feldur-1" class="Gold"
      d="M-225,3600 L-225,7425 L3600,7425 L3600,3600 L-225,3600 Z" />
<path id="kreuzor-1" class="Gold"
      d="M-225,3600 L3600,3600 L3600,-225 L2880,-225 L2880,2880 L-225,2880
         L-225,3600 Z" />
<path id="kreuzul-1" class="Gold"
      d="M7425,3600 L3600,3600 L3600,7425 L4320,7425 L4320,4320 L7425,4320
         L7425,3600 Z" />
<path id="kreuzol-1" class="Blau"
      d="M3600,-225 L3600,3600 L7425,3600 L7425,2880 L4320,2880 L4320,-225
         L3600,-225 Z" />
<path id="kreuzur-1" class="Blau"
      d="M3600,7425 L3600,3600 L-225,3600 L-225,4320 L2880,4320 L2880,7425
         L3600,7425 Z" />
<path id="linie-1" class="Rand3" d="M2880,-225 L2880,2880 L-225,2880" />
<path id="linie-2" class="Rand3" d="M-225,4320 L2880,4320 L2880,7425" />
<path id="linie-3" class="Rand3" d="M4320,-225 L4320,2880 L7425,2880" />
<path id="linie-4" class="Rand3" d="M7425,4320 L4320,4320 L4320,7425" />
<path id="linie-5" class="Rand3" d="M-225,3600 L7425,3600" />
<path id="linie-6" class="Rand3" d="M3600,-225 L3600,7425" />
</g>
<path id="clip-boundary" class="Rand6"
      d="M360,4140 A3240,3240 0.0 0 0 6840,4140 L6840,270 L360,270 L360,4140 Z" />
</g>
</svg>
