<svg height="477" width="412" xmlns="http://www.w3.org/2000/svg"><g fill-rule="evenodd"><path d="m206.04 6h200v250c0 135-90 215-200 215" fill="#0f47af"/><g stroke="#000"><g stroke-linecap="round" stroke-linejoin="round" stroke-width="2"><g fill="#fcdd09"><path d="m303.81 50.48c-1.179 1.011-2.299 4.803-1.257 10.857 1.916-.907 4.402-3.604 6.872-6.524.228 2.796.156 6.106 1.458 8.415 1.235-1.172 2.5-2.87 4.269-5.01.629 3.85 1 6.576 1.354 7.658 1.944-.866 4-.924 5.945-4.052-6.1-5.117-12.265-9.482-18.641-11.343z"/><path d="m304.01 69.28c-1.527 1.01-2.499 3.53-2.915 7.564l18.742 6.807-1.458-9.455c-2.765 1.019-3.589 3.801-4.165 6.807-1.041-1.587-2.082-3.452-3.124-8.509-1.597.328-3.193 3.519-4.79 5.673z"/></g><path d="m249.43 326.1c3.321.617 8.872-.797 4.51 7.157-3.719 6.782 16.36 4.04 27.988 5.961 2.68-9.569-3.851-25.58-5.913-28.627-4.384-6.479-4.098-13.563-4.658-20.537-1.899 5.132-5.233 5.707-8.208 7.419 3.998-5.89-.619-10.754 5.162-14.06-8.536 1.427-10.636-2.622-12.08-6.866 4.742 2.025 9.1 4.588 16.341-6.408 8.758-13.298 19.08-3.852 28.628-5.531-7.314-9.824-3.838-16.945-7.672-27.728l8.608 11.04c-9.669-15.993-19.607-30.31-30.381-39.34-10.22-8.566-18.09-16.94-24.26-28.09-5.058-9.135-6.793-19.465-5.451-30.15-3.453.112-6.724-.931-9.604-4.458 4-1.133 8-1.503 12-5.598l-3.796-46.656c-5.631 12.46-9.01 11.64-11.321 4.492-.949-4.734-2.033-9.02 6.24-5.382 1.425-2.059-.635-5.614-2.407-8.641-3.27.62-10.774 2.042-6.301-6.442-2.243-11.676 6.492-3.942 6.727.781.163 3.293 3.043 3.565 4.84 2.867 4.293-1.667-15.18-19.367.646-15.816 7.145-3.981 6.637 2.792 6.842 11.257 3.079-8.885 7.118-4.442 6.233-.358 3.812 6.58 3.191 9.683-5.193 6.698l12.828 48.773c1.126-12.05 3.194-19.824 3.328-36.38.109-13.476 4.188-24.06 2.117-39.3-3.065 10.778-5.312 8.944-7.272 2.671-4.943-6.84 4.293-1.685 2.615-9.598-1.01-3.857-4.075-2.184-6.213-.465-3.871 3.112-6.333-1.054-3.102-7.083-1.8-12.02 3.562-7.996 5.491-3.053.952 2.438 4 2.352 5.19 1.353 4.351-3.661-16.709-10.846-4.591-15.441 7.982-10.188 5.798 5.311 9.783 9.364-.246-5.206-1.06-11.446 6.05-3.285 5.524 1.358 7.736 4.942-2.154 9.336l10.466 76.36c9.379-.444 13.906-3.953 23.288.877-7.251-2.954-7.438-7.282-6.768-11.777 4.242 6.23 9.441 8.552 15.978 5.403-4.338-1.063-6.672-3.425-6.989-7.095 11.508 2.995 14.161-3.033 22.03-3.216 5.877-.136 12.185-1.106 17.847-1.89-6.02 1.253-12.407 1.345-17.292-.256-5.296-1.736-8.935-5.364-12.554-6.901-11.746-4.986-20.594-10.38-18.314-15.293 9.208 2.126 27.07 12.861 28.847 6.929 1.883-6.299 3.256-13.459-3.224-19.582-8.638-8.162-15.242-9.636-22.863-14.453-1.794-1.531-8.282-2.894-2.356-10.05-4.299-3.145-2.599-7.855-1.446-9.436 8.335 3.695 15.03 7.436 21.15 7.095 2.474-.138 4.899 2.508 11.806 3.676 3.661.619 4.881-1.612 11.406 2.091 4.242 2.407 7.752-.854 12.866 2.792 2.369-6.272 5.53-8.233 8.423-11.649-.557 7.92 2.634 7.757 2.578 14.772 5.781-7.904 10.135-3.601 15.406-10.218-.732 12.468 6.755 25.923-9.426 29.934 6.526.15 5.6 8.402 3.851 15.592-2.239 9.202 4.79 13.1 9.193 9.906-1.766 9.1-9.05 10.654-10.89 2.676-.4 3.781-.586 7.57-2.147 11.06-5.268 11.765-1.832 13.567 4.799 10.414-2.172 8.133-7.853 9.521-12.68 2.02 1.618 6.804-3.05 11.156-8.03 17.02-7.439 8.758-3.82 11.306 2.473 11.129-3.213 10.585-14.332 6.728-11.573-1.106-11.825 6.316-13.254 11.32-4.405 15.03-5.04 7.05-16.759.633-10.213-6.179-7.899 4.859-10.342 9.717-3.335 14.576-1.652 3.173-12.297 4.351-9.635-7.03-7.276 11.962-13.764 24.11-.505 47.924 6.105 10.966 12.286 25.365 17.547 33.24 7.586 6.873 13.486 21 12.367 36.35 8.369 3.164 23.699 2.79 21.504-15.1-1.644-13.395-7.326-19.741-11.284-28.757-3.386-7.713-5.148-15.234-8.386-23.14-8.843-21.59-2.902-41.84 13.818-60.704 4.686-5.286 7.659-10.283 7.679-18.651 10.866 14.817-12.972 30.11-10.798 43.2-.026-7.379 8.568-16.845 16.926-26.25 1.164 11.852-8.874 25.27-14.379 38.05 4.929-8.02 5.905-16.05 14.803-24.07 5.774 10.215-15.11 29.328-10.995 40.23-.845-8.899 7.8-13.203 15.228-18.1-8.191 7.752-8.294 19.584-11.899 29.65 3.351-8.601 5.725-19.707 17.886-16.308-12.786 9.591-10.977 16.248-14.336 24.08 4.045-3.77 4.8-9.78 15.12-9.274-16.239 11.17-11.288 22.993-11.04 34.649.18 8.384 3.165 17.428-.007 24.56-6.684 15.03-16.799 15.236-27.551 14.576 3.613 6.384 7.902 12.584 11.87 17.595 5.453 6.886 4.49 16.668 4.508 24.34-8.097-6.391-4.161-16.502-11.358-21.436.42 8.69-.072 13.954 9.42 24.789 3.827 4.369 3.678 9.741 1.723 16.532-2.681-16.13-12.38-13.992-15.302-26.454-.324 12.09 11.615 23.17 6.306 35.896-2.536-9.79-9.908-14.13-11.395-25.61-2.437 10.302-3.832 22.495-7.808 30-2.465 6.127.704 11.333 8.528 15.19 7.204 2.527 5.13 6.423 0 7.581-1.99 2.722-3.979 1.962-5.969-.517 1.72-3.964-2.126-5.04-4.072-7.103-1 3.7-2.226 6.465-4.873 3.196 5.2 9.785 6.374 16.207-2.252 14.442-14.351 4.648-2.428-5.418-2.756-13.241-2.948 4.87-6.32 6.275-9.82 6.637-1.064 10.01-4.242 10.09-8.632 4.492-3.354-3-10.638-6.392.707-7.967 6.425-1.13 7.424-4.449 9.04-7.52-7.285 1.018-16.1 3.647-13.259-5.983-.697-14.311 4.697-3.39 11-.782 13.483 5.578 10.521-11.11 13.326-19.2l-2.615-31.27c-.336 7.782-3.586 11.731-9.03 8.721 6.791-7.819 3.2-16.908 2.867-25.727-.421-11.157-5.966-17.515-10.89-24.705-5.05 4.513-6.229 9.638-2.363 17.638 3.224 6.671 5.683 9.922 3.497 15.723-1.805-6.737-8.892-10.346-10.628-18.394.71 4.813 12.248 19.822 8.482 22.23-4.221-3.956-13.524-18.776-8.395-22.01-7.705 9.235 14.704 25.879 8.871 35.09-.666-8.76-8.356-10.429-12.07-19.863-1.738 9.641 12.646 17.603 6.441 28.13-.712-6.689-3.715-10.258-6.663-13.9 1.94 6.982-1.023 9.892-1.895 15.291-.335 2.075-2.24 4.302-.233 6.139 3.731 3.414-1.121 12.585-8.116 9.06l-24.377-9.598c5.543 7.05 10.231 14.11-1.212 13.308-13.285 5.186 3.439-16.13-9.672-11.905-3.416-3.964-5.099-2.02-6.233 3.346-.433 4.869-2.303 7.274-7.881 3.319-7.405-2.774-2.534-8.12 4.836-13.989-4.33 2.841-11.476 5.854-8.669-2.536-1.602-10.881 1.869-8.611 5.47-5.58 2.02 1.699 3.782 4.576 5.434 3.23 3.45-2.811-7.119-15.802 4.539-9.885z" fill="#fff"/><path d="m247.27 316.23c3.431 3.07 8.438 6.05 5.807 10.585-1.299 2.237-7.439.787-6.461-1.564 1.198-2.879 2.149-4.516.653-9.02z" fill="#fcdd09"/><path d="m282.79 46.21c4.609 6.215 9.242 13.284 17.659 16.04 10.491 3.429 17.615 4.174 28.632 13.55l-.71 4.379c-13.06-8.601-21.23-8.08-28.959-12.27-9.248-5.01-15.594-11.972-16.622-21.695z" fill="#da121a"/><path d="m301.42 264.72 9.277 16.848m35.635 37.04c.127 4.32-.164 6.743-.589 8.557m-46.619-288.12c1.672 1.377 4.523 3.01 7.912 3.486-6.04-1.126-6.39 2.125-5.556 6.564m53.42-3.832c2.555 2.306 5.691 3.296 7.205 7.967.778-3.115 2.266-4.045 3.796-4.844m1.686 11.03c2.979-2.217 6.06-5.086 9.431-9.786-2.781 16.16-6.271 12.583-9.431 9.786m-24.786 18.04c-.036 1.466-.425 3.01 1.031 4.139m16.319 21.364c-.42 1.388-.512 2.627-.147 3.659m-26.27-60.15c6.569 6.26 11.904 12.706 21.676 18.481m-8.528 50.885c1 4.095.165 7.08-.432 10.202m-6.877-1.352c2.487 5.453.584 6.122.609 8.892m-6.716-2.269c1.248 4.724.308 6.135.016 8.528m-7.309-2.723c1.052 3.653.338 6.837-.193 9.05m-7.726-3.782c.839 3.968.648 7-.177 9.459m-45.45-2.5c-3.258-1.743-4.592-3.776-9.961-5.2-.317-3.211-1.01-6.931-2.884-12.269 2.379-3.353 6.982-3.071 11.237-3.356-6.25-2.717-6.538-8.141-9.288-12.447 6.827 10.878 15.858 8.06 23.04 7.116-5.742-2.109-6.818-5.631-9.295-8.728l6.02 1.896m-15.708 58.3c-7.473-.526-11.873-5.318-19.03-8.752 2.053-9.05-.66-17.226-2.309-25.6" fill="none"/><path d="m336.63 54.615c-1.936 6.73 9.312 10.791 10.782 4.775 2.02-8.268-8.787-11.71-10.782-4.775z" fill="#fff"/></g><path d="m342.21 56.27-.147-5.081 4.565 2.407z"/><g fill="#fcdd09" stroke-linecap="round" stroke-linejoin="round" stroke-width="2"><path d="m227.41 346.04c.606-5.309 2.638-11.201 6.614-11.148 2.785.037 3.13 5.648.38 5.933-3.368.349-4.723 2.893-6.994 5.215z"/><path d="m234.21 364.96c-1.238-5.218-1.32-11.391 2.478-12.461 2.66-.75 4.906 4.487 2.388 5.533-3.083 1.28-3.501 4.081-4.866 6.928z"/><path d="m257.95 370.34c4.79-3.093 9.437-7.6 7.429-10.716-1.407-2.183-6.955.307-5.874 2.621 1.324 2.834-.448 5.157-1.555 8.095z"/><path d="m295.96 379.68c2.187-4.954 5.922-10.113 9.729-9.07 2.667.73 1.303 6.211-1.428 5.8-3.344-.504-5.416 1.605-8.301 3.272z"/><path d="m305.17 405.66c-1.361-5.192-1.588-11.363 2.183-12.506 2.642-.801 5.01 4.391 2.518 5.485-3.052 1.34-3.404 4.148-4.702 7.02z"/><path d="m332.59 409.36c-4.02-3.895-7.588-9.15-4.938-11.842 1.856-1.886 6.749 1.555 5.184 3.628-1.917 2.539-.688 5.135-.245 8.214z"/><path d="m347.55 398.15c3.467-4.31 6.305-9.92 3.315-12.3-2.095-1.667-6.491 2.289-4.659 4.174 2.243 2.308 1.371 5.02 1.344 8.126z"/><path d="m271.72 20.278c2.645 3.656 6.852 7.715 4.274 10.7-1.719 1.99-7.455-.648-5.955-2.76 1.837-2.587 2.103-3.25 1.682-7.939z"/><path d="m249.98 18.628c4.661 1.103 10.224.657 10.44 5.777.106 2.527-4.969 3.868-5.416 1.388-.547-3.038-1.249-3.941-5.02-7.165z"/><path d="m240.53 45.37c3.03-3.398 4.886-8.181 10.11-6.243 2.578.957 1.824 5.708-.848 5.05-3.272-.804-4.469-.597-9.261 1.192z"/><path d="m247.91 57.32c3.405 3.094 5.794 7.677 10.768 5.257 2.455-1.195 1.162-5.849-1.42-4.944-3.163 1.108-4.376 1.015-9.348-.313z"/><path d="m232.44 56.934c4.291 1.987 9.829 2.639 8.827 7.681-.495 2.489-5.769 2.807-5.618.297.185-3.074-.286-4.093-3.209-7.978z"/><path d="m216.35 81.43c3.073-3.369 4.982-8.133 10.182-6.145 2.567.982 1.757 5.725-.907 5.04-3.263-.835-4.461-.64-9.275 1.102z"/><path d="m253.79 66.18c1.696 4.094 5.304 7.964.823 11.08-2.212 1.536-6.346-1.456-4.372-3.217 2.418-2.158 2.826-3.199 3.549-7.859z"/><path d="m219.35 94.67c3.246 3.231 5.405 7.908 10.494 5.696 2.512-1.092 1.454-5.795-1.171-4.998-3.215.976-4.423.833-9.322-.698z"/></g></g><path d="m206.04 471c-110 0-200-80-200-215v-250h200" fill="#fff"/></g><path d="m6.04 148.91h200v130h-200z" fill="#da121a"/><g fill="none" fill-rule="evenodd" stroke="#000" stroke-linecap="round" stroke-linejoin="round"><path d="m206.04 6v465m-198.49-192.09h198.49m-200-130h200" stroke-width="3"/><path d="m6.04 6h400v250c0 135-90 215-200 215s-200-80-200-215v-250" stroke-width="6"/></g></svg>