<!-- Created with Inkscape (http://www.inkscape.org/) -->
<svg xmlns:rdf="http://www.w3.org/1999/02/22-rdf-syntax-ns#" xmlns="http://www.w3.org/2000/svg" height="497" width="427" version="1.1" xmlns:cc="http://creativecommons.org/ns#" xmlns:xlink="http://www.w3.org/1999/xlink" xmlns:dc="http://purl.org/dc/elements/1.1/">
 <defs></defs>
 <metadata>
  <rdf:RDF>
   <cc:Work rdf:about="">
    <dc:format>image/svg+xml</dc:format>
    <dc:type rdf:resource="http://purl.org/dc/dcmitype/StillImage"/>
    <dc:title/>
   </cc:Work>
  </rdf:RDF>
 </metadata>
 <g transform="translate(0,25)">
  <rect height="255" width="208" y="-16.644" x="5.5" fill="#FFF"/>
  <rect height="255" width="207" y="-16.644" x="213.5" fill="#000"/>
  <path stroke-linejoin="miter" d="m80.5-16.644,0,100-75,0,0,60,75,0,0,95,60,0,0-95,75,0,0-60-75,0,0-100z" stroke="#000" stroke-linecap="butt" stroke-miterlimit="4" stroke-dasharray="none" stroke-width="3" fill="#da121a"/>
  <path d="m7.4261,238.4,412.9,0c16.07,161.77-113.3,228.41-205.65,229.09-92.35,0.69-225.52-69.61-207.25-229.09z" fill="#da121a"/>
  <g id="g3997" stroke-linejoin="round" transform="matrix(1.1,0,0,1.2,-32.180486,-61.020439)" stroke="#000" stroke-linecap="round" stroke-dasharray="none" stroke-miterlimit="4">
   <path d="m363.33,316.96c1.5618-5.881-3.7685-8.4626-12.661-8.2579,4.1874-4.8962-2.7572-5.9532-3.1986-11.188-0.29188-3.4618,7.7067-0.85541,10.368-2.5849,2.6774-1.7398,3.4311-3.1746-7.303-3.6751,19.161-0.70309,22.477-7.7626,0.66637-6.7928,7.6385-1.5496,19.808,2.2546,22.524-8.3912-8.6826-1.3788-26.369-2.9588-36.384,5.3277-16.643-13.5-41.748-13.089-55.925,0.0318-10.015-8.2865-27.702-6.7066-36.384-5.3277,2.7155,10.646,14.885,6.8416,22.524,8.3912-21.811-0.96972-18.495,6.0898,0.66638,6.7928-10.734,0.50054-9.9804,1.9354-7.303,3.6751,2.6616,1.7295,10.66-0.87685,10.368,2.5849-0.44138,5.235-7.386,6.292-3.1986,11.188-8.8926-0.20461-14.223,2.377-12.661,8.2579,10.194,17.305,35.142,21.68,54.067,21.716,18.925,0.0364,48.949-6.8502,53.835-21.748z" stroke-width="3.00088859" fill="#fcdd09"/>
   <path d="m280.6,281.85c2.7643,5.6222-3.437,7.869-2.2643,10.656,0.99548,2.3655,2.8865,2.8502,2.3975,4.9282-0.92416,3.9273-6.0822,2.9401-4.129,4.9282,9.7995,9.9748-5.608,7.0848-5.8197,12.84m65.269-33.8c-1.4323,4.5566,2.771,7.869,1.5983,10.656-0.99548,2.3655-2.6201,3.7826-2.1311,5.8606,0.92416,3.9273,5.6203,3.308,5.3278,5.0614-2.2402,13.427,5.9532,8.2641,8.7908,6.3933,1.5057,11.848-21.037,16.046-39.803,16.148-9.868,0.0534-31.217-0.35366-39.181-10.287-4.0284,0.53638-6.0026-2.9297-3.7294-6.3933" stroke-width="3" fill="none"/>
  </g>
  <use xlink:href="#g3997" transform="matrix(1.0019345,0,0,0.99998735,-190.52554,0.00278349)" height="497" width="427" y="0" x="0"/>
  <use xlink:href="#g3997" transform="translate(-94.617034,99.097059)" height="497" width="427" y="0" x="0"/>
  <path stroke-linejoin="miter" d="m6-18.13,415,0,0,295c0,94.35-91.47,189.13-210.57,189.13s-204.39-94.51-204.43-189.13z" stroke="#000" stroke-linecap="butt" stroke-miterlimit="4" stroke-dasharray="none" stroke-width="6" fill="none"/>
  <path d="m253.25,147.34c5.4003-7.3928,8.346,10.04,13.586,10.922,12.91,2.1729,20.716,3.3681,21.591-6.8938,0.55143-6.4648-6.7172-7.1294-10.817-8.5111,0.39453-2.9257,11.796-1.8815,6.2752-6.7054-6.5971-1.1344-14.865,2.4496-19.842,1.4935,6.7859-5.2346,15.544-6.3565,23.305-4.4238,3.8614-5.1627,8.2157-6.8296,12.52-6.127,9.5822,1.564,17.889,1.2305,26.795,0.76685-7.5109-14.701-15.022-19.914-22.533-28.738-2.9891-4.1424-4.1854,0.36108-5.7274,2.0074-0.94759-0.59128-1.8952-3.3496-2.8428-5.6131l0.3121,10.532c-1.7746,4.6138-7.1017-8.1753-7.8222-7.6339-1.8728,1.7444,2.2954,24.418-3.8209,15.235-2.5767-3.8686-0.75545-13.079-2.4755-18.524-2.5032,3.363-2.3286,8.5112-1.8647,13.852-2.9671,0.005-6.6876-8.0157-10.031-8.9792,2.2105,6.3535,5.7889,12.602,1.7867,19.433-2.2242-5.9282-4.3456-17.186-9.6546-15.074-6.1009,2.4277,8.8322,9.8007-1.7544,10.467-6.0261,11.008-3.2674-9.8264-9.6302-6.1459-5.9974,3.4692,3.6124,17.96-7.849,9.0572-12.078,7.2367,4.0087-8.8509-2.9681-9.9935-4.8462-0.79365-13.047,19.568-13.449,6.0891-15.352-6.9607,14.375-9.671,9.9132-14.977-2.0466-2.4336-16.318,5.8046-6.38-6.3019,0.25411-14.851,5.8937,4.6039,15.808,2.0531,8.3589-2.1506,14.877-11.906,22.753-15.73l-8.1343-1.2539c8.4762-6.4388,13.246-6.258-0.68882-2.976,2.0646-13.099-0.35158-2.0183-4.9054,0.97415-1.1428-3.8719,4.9018-12.685,2.0074-21.518-2.1636,0.66983,0.32429,7.621-3.1967,9.59-1.6425-26.064-1.6568,1.3742-6.127-0.79917-0.0597-6.5476,3.288-13.911-0.26639-19.713-1.5834-2.5847-1.757,16.131-6.6597,4.5286-10.755-0.83613,2.0259-7.1225,0.79917-10.389-2.8678-7.6368-14.916,10.67-13.852-0.79917-10.193-11.017,3.9135-3.6155,6.9261-7.1925,4.1464-4.9233-19.437-7.3105-5.1985-12.813,3.5195-12.687,6.9977,3.623,9.9935,3.4898,3.0678-0.13632,5.4104-16.662,10.058-8.3172,13.534-1.6498-7.0579,9.4241-0.73454,16.042,15.161,15.869,29.254,22.169,44.799,24.066-7.5407-4.1154-14.396-10.239-14.339-13.852,8.5573,4.942,16.453,9.1123,22.019,10.564-0.3132-4.2748-6.2625-4.621-5.2041-6.9261,9.661,2.3502,9.9085,2.102,1.41-3.3527,1.2286-2.5008,5.4866-5.8169,9.1219-3.5734,11.662,7.1974,15.332,6.0163,17.062-0.73453,1.487-6.2059,8.3699-14.048,3.3716-12.91-5.4195,1.2333-19.007,2.0468-15.639-3.1376,3.1098-4.7864-5.9984-10.451,5.5942-7.9917,6.1244-1.149,13.76-1.9873,23.975,5.3278,7.4282,5.3194,14.403,10.387,8.5244,21.578-2.3962,4.1871,1.8338,6.3354,5.7825,8.5702-4.5261,2.4173-7.107-1.6496-10.233-3.8989,2.7188,5.3526,2.6996,8.3583,1.9294,10.72-2.8934-4.1794-7.4389-12.312-7.868-3.404-0.23399,4.8583,1.9893,9.4763,7.4589,13.319-6.2164,4.1344-10.568-2.9225-13.774-16.847-1.9586,11.128,3.0963,17.419,7.6473,23.24-5.9608,0.55402-9.8628-2.0871-12.52-6.6597-0.42848,5.892,3.5291,9.9042,10.123,12.787-5.3796,2.0056-10.573-0.11107-15.451-2.9303,2.9092,3.6815,9.2956,5.9663,9.3236,11.188,0.076,14.178,9.5195,19.618,15.983,26.905,5.8163,6.5574,10.702,14.7,12.254,23.975,0.8158,4.8753,3.1877,7.3624,13.586,6.9261,15.027-0.6305,13.338-12.397,8.6616-24.669-7.24-18.986-19.66-25.08-20.66-50.466-0.66-16.75,11.97-20.607,15.45-39.426,1.75-9.461,7.1-16.261,15.72-23.975-9.59,19.009-3.29,20.062-13.65,33.065,7.59-1.385,15.04-7.6,18.76-14.372,3.79-6.921,9.29-13.002,15.45-14.073-6.35,5.971-10.76,12.695-12.57,18.289l10.031-2.1634c-3.1129,10.754-18.939,5.4461-24.416,14.95,5.9563,2.8206,13.724,0.39505,21.155-1.2082-2.8718,4.2016-7.4777,6.6302-11.831,7.8679l11.441,4.9053c-5.2605-0.85871-11.84,0.82-17.1-4.0605-3.7339,0.04022,0.0999,5.1861,1.0065,8.0106-3.2855-1.5554-7.5128-2.907-10.798-10.187-1.6677-4.6777-3.8212-2.4829-6.127,1.8647-10.974,15.012-9.3542,29.71-0.26639,44.221,1.4101-10.82-0.14228-25.461,5.7368-34.493,0.17719,7.1779-1.4808,17.292,0.9229,20.908,1.6766-5.313,3.6829-8.3178,5.8606-10.123l-0.75346,10.857c1.4384-4.6454,5.8941-7.6672,11.285-9.2267,5.1098-1.4781,8.5658-5.1155,12.91-8.8232-1.3391,8.6757-10.684,12.681-17.582,18.114l14.385-3.1967c-3.2205,6.7088-10.889,5.972-16.783,8.2581-11.409,4.425-13.177,13.187-6.9718,23.728,3.3903-11.282,11.678-22.954,17.894-23.728-4.3203,7.1091-8.9421,14.399-10.844,20.057,6.141-0.58753,9.1505-5.8722,13.508-9.1352,0.10083,4.1519-4.6207,8.3038-9.9667,12.456,5.6913,0.35619,11.945,2.3079,16.678,0.26639-3.7274,8.2116-12.603,3.7718-18.432,2.4621-4.1667-1.0772-8.0621-1.9104-2.3975,5.8606,3.8737,7.822,3.428,15.027,3.9958,22.377l9.8564-1.5983c-0.75195,2.3279-5.0979,4.0023-11.363,5.3278,1.3032,2.2196,6.673,4.2286,10.551,5.5942-4.8838,1.6532-11.086,0.97176-15.97-2.3975-5.864,4.2342-14.697,3.1244-22.942,3.073-3.2356,15.004,4.2382,22.753,9.0896,27.984,9.3796-6.2704,17.46-8.0073,21.844,1.7087-5.1844-1.6375-10.315-4.1997-15.983,2.3975,3.8379,3.0806,14.093,4.6022,8.3495,11.519-10.516-13.295-9.0825,0.8086-1.0143,6.8615-2.6666,0.67939-7.2169-1.7924-9.8835-3.57-0.21867,5.2259,4.2826,7.3106,7.0769,9.4306-2.3975,2.087-5.7368-0.27148-8.1343-1.0198,0.43731,3.433,4.3275,4.4807,6.6463,5.5618-5.2909,3.6814-11.276,5.1517-17.568,3.6971-7.8928,2.1579,5.4833,13.038-4.1196,11.207-4.937,9.0022-6.1037-4.2338-9.8564-4.2622-5.4343-0.0412,0.33,11.76-6.9395,7.3809-8.2984,3.1095-3.408-6.7813-5.8472-6.7054-2.0949,4.9598-7.7217,7.4234-7.9917,1.9884-8.6083-6.8986,4.5999-5.2973,8.0886-7.9136,4.176-3.1318-15.708-5.9856-4.6256-10.467,2.9765-10.941,11.439,10.031,18.114,1.5983,6.9874-8.8264,2.933-22.289-5.5942-30.102-9.1968-8.4268-16.68-17.85-14.918-31.168-8.7736,1.3169-21.665,2.4611-20.512,15.983,0.73719,8.6436,9.3176,10.584,17.582,5.8606-0.25176,4.1881-3.7571,5.1225-7.4589,5.8606,1.9006,4.2464,3.5575,8.4196,0.53278,11.188-0.68003-4.7214-5.1491-11.598-7.5235-11.046-0.19273,3.1614,2.2318,8.6129-1.5337,8.6482-2.4648-0.75063-4.1078-6.4319-6.127-9.8564,0.32657,6.1579-2.8333,7.4348-4.795,10.389l-0.79916-9.8564c-1.4207,0.37895-2.8415,3.5946-4.2622,6.9261-0.71946-1.7607,0.22428-3.8981-1.332-5.8472-4.203,9.164-0.10988,16.451,6.9261,21.031-3.5539,0.87967-7.6526,2.594-12.52-4.795-2.9639-4.4991-0.29511-10.333,0.26639-14.651-3.5859,1.9956-5.304,10.528-7.946,15.827-2.7435-3.0264,0.16673-22.053-3.9501-18.569-1.905,1.6118,1.5282,12.493-5.874,6.2184-9.0432,2.988-6.2709-2.5632-5.1851-6.7645-1.3774,0.18676-8.6962,1.7676-12.044,6.1301-4.58,5.9679-10.728,14.136-12.152,5.1497-7.4313-3.9514,0.48545-8.7155,5.9235-8.4154,3.7854,0.20891,5.0098-3.036,4.7912-5.2942-0.40782-3.903-26.161-0.20959-17.108-9.7327,1.4394-12.642,14.484,2.8262,17.315,1.0656,3.7172-2.3114-11.987-10.544,1.0656-10.123z" fill="#fcdd09"/>
  <path stroke-linejoin="round" d="m328.76,143.82c2.4772-9.534-2.3363-9.2269-3.1777-16.004m8.754-95.316c1.383-0.23159,2.7661-0.29982,4.1491,0.70809-1.0112,1.9008-3.8759,1.4131-5.5551,1.9779,0.0885,0.78702,2.3102,1.7204,3.9683,2.6151-0.95629,1.0971-2.5559,1.1222-4.256,0.9795,0.41831,2.4854,1.819,3.399,3.4832,3.8911m-29.197,5.8393,1.8837-7.3463m1.2244,8.759,1.6011-7.0637m1.1302,7.8172,1.2244-6.8753m2.2604,6.7812,0.18836-5.7452m3.2022,5.2742,0.0942-4.8975m2.8255,4.3324,0.0942-4.7091m20.909-13.374c0.75213-2.3546,4.4092-3.3906,5.651-7.0637m-30.515-8.0997c0.32412-1.586-2.9878-2.5924,0.18837-4.0499m-3.9557,5.8393c0.63158-0.83435,0.39165-2.0314-0.18836-3.108m14.787,2.8255c11.471-4.7933,6.1707,2.9266,10.925,6.5928m-0.47091-0.37673c-2.6685-1.9676-5.8079-2.8947-8.4764-6.9695" stroke="#000" stroke-linecap="round" stroke-miterlimit="4" stroke-dasharray="none" stroke-width="2" fill="none"/>
  <path stroke-linejoin="round" d="m301.05,98.53c0.83657-9.821,7.2772-6.6605,10.316-25.175,0.5536,15.472,11.692,6.021,12.394,21.156,5.822-6.6625-3.1418-14.742-6.6428-21.937,3.9438,5.0849,10.6,9.3303,15.518,11.95m-37.71-1.578c-0.006,4.8091-2.9616,7.8032-7.5766,9.7761,7.2821,3.8704,12.615-4.6202,16.286-12.488m118.14,157.1-415,0m256.71-157.58c14.337-0.44605,27.938-2.4988,38.404-11.391-9.1287,6.7211-20.914,21.036-30.185,21.157,12.79,5.6802,22.559-7.0855,35.488-20.708m-41.576,3.75c10.463-1.8085,21.897,0.89918,30.92-7.6126m-37.447,11.742c13.34-10.154,27.661-9.7972,38.422-18.873-9.4711,2.501-18.942,1.8914-28.413,1.2712m-10.59,14.19c7.1083-21.03,24.236-16.677,34.048-21.25" stroke="#000" stroke-linecap="round" stroke-miterlimit="4" stroke-dasharray="none" stroke-width="3" fill="none"/>
  <path stroke-linejoin="round" d="m216.69,16.563c6.9376-6.6752,11.553-4.2955,13.872-2.421,4.2632,3.1226-0.26099,7.7284-3.1539,4.9564-2.9624-1.2427-5.2626-2.5514-10.718-2.5354z" stroke="#000" stroke-linecap="round" stroke-miterlimit="4" stroke-dasharray="none" stroke-width="2" fill="#da121a"/>
  <path stroke-linejoin="round" d="m241.8,1.842c9.4711,1.7281,10.238,6.8641,10.072,9.841-0.0422,5.2843-6.4236,4.3051-5.8651,0.3376-0.72302-3.1301-1.0055-5.7614-4.2067-10.179z" stroke="#000" stroke-linecap="round" stroke-miterlimit="4" stroke-dasharray="none" stroke-width="2" fill="#da121a"/>
  <path stroke-linejoin="round" d="m221.76,47.495c-3.9024-8.8011-0.0887-12.326,2.4653-13.864,4.3915-2.9394,7.174,2.8864,3.5802,4.6578-2.1802,2.3594-4.1962,4.0739-6.0455,9.2061z" stroke="#000" stroke-linecap="round" stroke-miterlimit="4" stroke-dasharray="none" stroke-width="2" fill="#da121a"/>
  <path stroke-linejoin="round" d="m227.88,53.888c8.802,3.9005,12.326,0.08603,13.863-2.4683,2.9384-4.3922-2.888-7.1733-4.6586-3.5792-2.3589,2.1807-4.073,4.1971-9.2047,6.0475z" stroke="#000" stroke-linecap="round" stroke-miterlimit="4" stroke-dasharray="none" stroke-width="2" fill="#da121a"/>
  <path stroke-linejoin="round" d="m215.8,95.966c4.7594-8.3688,9.8604-7.3961,12.615-6.2562,4.9738,1.7852,1.9418,7.485-1.6185,5.6474-3.1932-0.35137-5.7702-0.9539-10.997,0.60872z" stroke="#000" stroke-linecap="round" stroke-miterlimit="4" stroke-dasharray="none" stroke-width="2" fill="#da121a"/>
  <path stroke-linejoin="round" d="m220.27,125.84c-4.0311-8.7429-0.26955-12.323,2.2616-13.899,4.3479-3.0035,7.2155,2.7808,3.6482,4.6048-2.1454,2.3911-4.136,4.135-5.9098,9.2938z" stroke="#000" stroke-linecap="round" stroke-miterlimit="4" stroke-dasharray="none" stroke-width="2" fill="#da121a"/>
  <path stroke-linejoin="round" d="m248.04,131.26c-8.8742-3.7334-8.5132-8.9137-7.708-11.784,1.1828-5.1504,7.202-2.8158,5.7995,0.93739,0.0298,3.2123-0.26291,5.8426,1.9085,10.847z" stroke="#000" stroke-linecap="round" stroke-miterlimit="4" stroke-dasharray="none" stroke-width="2" fill="#da121a"/>
  <path stroke-linejoin="round" d="m254.66,126.87c9.2899-2.5271,9.6172-7.7097,9.1986-10.662-0.49132-5.2616-6.7664-3.7434-5.8726,0.16225-0.4543,3.1802-0.512,5.8261-3.3261,10.499z" stroke="#000" stroke-linecap="round" stroke-miterlimit="4" stroke-dasharray="none" stroke-width="2" fill="#da121a"/>
  <path stroke-linejoin="round" d="m243.43,141.48c9.426-1.9592,12.067,2.5118,13.033,5.3327,1.9475,4.9125-4.334,6.4042-5.3079,2.5178-1.8467-2.6286-3.0977-4.9608-7.7246-7.8505z" stroke="#000" stroke-linecap="round" stroke-miterlimit="4" stroke-dasharray="none" stroke-width="2" fill="#da121a"/>
  <path stroke-linejoin="round" d="m223.34,159.83c4.5289-8.4958,9.6546-7.6628,12.44-6.5985,5.0207,1.6486,2.1456,7.4292-1.4636,5.6896-3.2016-0.26399-5.7941-0.79588-10.976,0.90897z" stroke="#000" stroke-linecap="round" stroke-miterlimit="4" stroke-dasharray="none" stroke-width="2" fill="#da121a"/>
  <path stroke-linejoin="round" d="m233.33,189.64c-1.2903-9.5406,3.3557-11.86,6.2376-12.624,5.0375-1.5965,6.083,4.7744,2.1376,5.4721-2.7522,1.6569-5.1667,2.7405-8.3752,7.1524z" stroke="#000" stroke-linecap="round" stroke-miterlimit="4" stroke-dasharray="none" stroke-width="2" fill="#da121a"/>
  <path stroke-linejoin="round" d="m259.05,183.09c9.3669,2.2247,12.133-2.17,13.178-4.9624,2.0854-4.8556-4.1513-6.5241-5.2347-2.6667-1.9202,2.5754-3.2366,4.8713-7.9433,7.6291z" stroke="#000" stroke-linecap="round" stroke-miterlimit="4" stroke-dasharray="none" stroke-width="2" fill="#da121a"/>
  <path stroke-linejoin="round" d="m320.29,201.93c6.9376-6.6752,11.553-4.2955,13.872-2.421,4.2632,3.1226-0.26099,7.7284-3.1539,4.9564-2.9624-1.2427-5.2626-2.5514-10.718-2.5354z" stroke="#000" stroke-linecap="round" stroke-miterlimit="4" stroke-dasharray="none" stroke-width="2" fill="#da121a"/>
  <path stroke-linejoin="round" d="m321.21,231.21c-2.7031-9.2402,1.5436-12.229,4.2788-13.416,4.742-2.3322,6.7288,3.8106,2.9321,5.0908-2.4733,2.05-4.6986,3.4826-7.2109,8.3248z" stroke="#000" stroke-linecap="round" stroke-miterlimit="4" stroke-dasharray="none" stroke-width="2" fill="#da121a"/>
  <path stroke-linejoin="round" d="m342.57,236.81c-7.4345-6.1169-5.606-10.977-4.013-13.497,2.6073-4.5965,7.7066-0.63681,5.2887,2.558-0.89083,3.0865-1.924,5.523-1.2757,10.939z" stroke="#000" stroke-linecap="round" stroke-miterlimit="4" stroke-dasharray="none" stroke-width="2" fill="#da121a"/>
  <path stroke-linejoin="round" d="m355.28,234.67c8.6643-4.1974,8.03-9.3514,7.0741-12.175-1.4535-5.0806-7.3408-2.431-5.7419,1.2427,0.14013,3.2094,0.57147,5.8205-1.3322,10.933z" stroke="#000" stroke-linecap="round" stroke-miterlimit="4" stroke-dasharray="none" stroke-width="2" fill="#da121a"/>
  <path d="m282.82,10.411c8.2436,6.1472,16.55,9.3891,24.508,13.053,3.8775,1.7852,7.3556,3.3011,12.52,1.3319,7.2514-2.7647,4.9024-0.60624,2.9303,5.5942-3.9381,12.382-7.7351,6.1429-9.8564,2.6639-1.9199-3.1488-5.0309-6.2468-11.188-7.7253-7.0077-1.6826-16.152-3.9012-21.578-9.8564-5.2549-5.7676-2.0676-8.5897,2.6639-5.0614z" fill="#da121a"/>
  <path d="m331.31,6.8533c-0.59302,1.5791,4.8648,2.8832,11.512,7.1635,4.7472,3.0571,8.3261,8.7412,10.486,8.3537,4.2079-0.75487,9.1817-4.6895,14.263-4.317,7.9274,0.58078,5.9082-9.757-0.65799-5.6465,2.2996-8.5267-8.7227-7.9301-5.2586,1.2725-6.781,3.1823-12.631-0.54293-11.073-6.7558,7.0821,3.3005,8.1878-7.4715,1.8584-4.5567,7.8599-4.0046-4.8582-11.109-3.2992-1.7789-1.8017-7.6589-8.7479,2.2083-2.2669,4.468-6.761,3.9512-13.558,0.49604-13.266-6.1455,5.5166,1.4756,7.0496-10.987-2.2112-4.7777,1.2417-9.7186-8.7706-3.9775-5.7987,0.89492,1.9156,4.9052,7.1467,8.0082,5.7131,11.825z" stroke-miterlimit="4" fill="#da121a"/>
 </g>
</svg>
