<!-- Created with Inkscape (http://www.inkscape.org/) -->
<svg xmlns:rdf="http://www.w3.org/1999/02/22-rdf-syntax-ns#" xmlns="http://www.w3.org/2000/svg" height="497" width="427" version="1.1" xmlns:cc="http://creativecommons.org/ns#" xmlns:xlink="http://www.w3.org/1999/xlink" xmlns:dc="http://purl.org/dc/elements/1.1/">
 <defs></defs>
 <metadata>
  <rdf:RDF>
   <cc:Work rdf:about="">
    <dc:format>image/svg+xml</dc:format>
    <dc:type rdf:resource="http://purl.org/dc/dcmitype/StillImage"/>
    <dc:title/>
   </cc:Work>
  </rdf:RDF>
 </metadata>
 <g transform="translate(0,25)">
  <path stroke-linejoin="miter" d="m6-18.14,415,0,0,295c0,97.018-97.859,188.06-210.57,189.13s-203.33-83.32-204.43-189.13z" stroke="#000" stroke-linecap="butt" stroke-miterlimit="4" stroke-dasharray="none" stroke-width="6" fill="#fcdd09"/>
  <path stroke-linejoin="round" d="m252.92,301.55,24.67-15.427,19.004,44.256c5.3698,12.505,17.581,15.978,31.196,4.7709,6.2118-5.1135,18.681-15.773,23.052-3.3587,20.201-2.6638,10.677,11.507,9.816,19.632-0.76825-11.174-4.9797-9.7222-8.6313-10.324-1.6519,5.3997-6.0359,7.6395-15.654,3.8259-5.196,6.5347-9.9894,6.6959-13.999,6.8232,29.988,9.5352,37.597-4.6308,38.336,13.136,13.454-6.9562,17.017,16.492,2.5515,21.559,6.7294-7.9354-1.1604-10.877-5.8972-15.271-2.9601,8.7856-10.298,9.7984-12.433-1.5753-14.113-2.0169-18.25-2.9981-27.688-6.7604,4.4973,8.3414,7.1579,12.225,24.732,20.755,3.9119,1.8988,2.7559,8.0238-3.0725,10.701,1.9956,16.647-9.2251,15.666-19.658,17.809,7.4254-4.0391,12.55-8.8812,8.2409-17.015-6.4462,1.6819-15.185,7.2893-9.4253-11.925-10.2-4.6536-14.399-11.212-15.423-19.798-10.001,9.9806-14.676,5.7847-22.851,0.7129-5.8363,10.362-10.818,11.51-14.711,0.91124-8.1262-0.12631-7.5114,6.3477-9.3084,11.001-2.1898-7.1301-10.949-21.716,3.7495-22.21,1.439-10.4,10.13-8.3905,22.164-2.4046,13.564,6.7465,12.593-3.6276,3.0531-11.922-12.837-12.114-21.414-25.446-31.815-37.903z" stroke="#000" stroke-linecap="round" stroke-miterlimit="4" stroke-dasharray="none" stroke-width="4" fill="#da121a"/>
  <path stroke-linejoin="round" d="m170.96,300.77-24.67-15.427-19.004,44.256c-5.3698,12.505-17.581,15.978-31.196,4.7709-6.2118-5.1135-18.681-15.773-23.052-3.3587-20.201-2.6638-10.677,11.507-9.816,19.632,0.76825-11.174,4.9797-9.7222,8.6313-10.324,1.6519,5.3997,6.0359,7.6395,15.654,3.8259,5.196,6.5347,9.9894,6.6959,13.999,6.8232-29.988,9.5352-37.597-4.6308-38.336,13.136-13.454-6.9562-17.017,16.492-2.5515,21.559-6.7294-7.9354,1.1604-10.877,5.8972-15.271,2.9601,8.7856,10.298,9.7984,12.433-1.5753,14.113-2.0169,18.25-2.9981,27.687-6.7604-4.4973,8.3414-7.1579,12.225-24.732,20.755-3.9119,1.8988-2.7559,8.0238,3.0725,10.701-1.9956,16.647,9.2251,15.666,19.658,17.809-7.4254-4.0391-12.55-8.8812-8.2409-17.015,6.4462,1.6819,15.185,7.2893,9.4253-11.925,10.2-4.6536,14.399-11.212,15.423-19.798,10.001,9.9806,14.676,5.7847,22.851,0.7129,5.8363,10.362,10.818,11.51,14.711,0.91124,8.1262-0.12631,7.5114,6.3477,9.3084,11.001,2.1898-7.1301,10.949-21.716-3.7495-22.21-1.439-10.4-10.13-8.3905-22.164-2.4046-13.564,6.7465-12.593-3.6276-3.0531-11.922,12.837-12.114,21.414-25.446,31.815-37.903z" stroke="#000" stroke-linecap="round" stroke-miterlimit="4" stroke-dasharray="none" stroke-width="4" fill="#da121a"/>
  <path d="m200.73,413.96c-2.3402-9.347-8.58-16.493-6.6726-35.176-9.2653,2.3827-17.625-1.0779-24.5-9.3332-14.034-16.852-6.3568-17.602-3.5-15.944,15.443,8.9605,29.941-2.6927,30.333-12.055,0.79539-19.003,2.421-63.192-6.2221-52.499-3.7235,4.6062-7.4879,14.719-10.889,22.944-3.3176,8.0236,6.1657,23.623-8.9443,17.111-9.3527-7.6222-15.096-11.145-24.889-5.4444-8.3598,4.6195-14.081-3.8521-17.889-10.111-5.7406-9.4357,1.6984-9.8263,9.3332-6.9999,3.5752,1.3235,12.109-2.6978,15.166-9.3332,7.2121-15.654,13.989-31.112,20.222-52.499,6.612-22.689,6.4738-27.986,2.7222-32.277-8.3529,30.918-15.885,64.058-37.333,71.555-10.027,3.5049-8.8658-6.4049-4.2777-8.9443,8.1566-4.5146,12.773-18.18,11.667-42.388-22.613,47.718-53.108,99.875-78.943,73.499-4.5666-4.6622-8.5807-17.515,6.2221-8.9443,5.1876,3.0035,16.378-9.2115,21.389-18.278,13.617-24.64,15.8-46.277,21-69.999-11.742,22.46-22.999,41.767-39.666,52.499-11.578,7.4555-23.326,6.023-25.666-3.1111-3.5541-13.869,10.175-3.5775,16.722-10.111,17.223-17.188,25.892-44.219,30.333-73.888-12.869,20.716-26.253,61.225-49.999,53.636-14.031-4.484-14.644-17.949-3.6674-17.47,15.182,0.66248,28.825-32.669,29.944-56.777-10.939,14.792-24.438,28.516-38.888,21-12.482-6.4922-4.4025-14.992,0.38888-15.944,20.225-4.0186,18.587-31.327,24.5-50.166,1.7041-5.4298,4.815-11.105-4.2777-16.722-21.921-13.55-4.007-16.826,4.04-18.414,12.398-2.448,10.676-29.7,35.227-40.322,25.234-10.918,40.58,1.5793,42.388,25.666,1.0571,14.076-30.726,32.753-14.778,42.777,10.356,6.5087,31.108,1.8378,23.333,27.222-5.5114,17.994,25.175,30.253,29.005,17.775,7.1433-23.27,25.549-38.961,40.216-56.274,10.087-15.393-14.808-34.791-37.105-45.472-7.8399-11.28,6.9044-12.23,18.439-15.611,27.6-8.0893,38.56,10.527,52.472-4.4388,12.132,13.257-0.15005,26.708,4.6747,41.638,4.482,13.87,10.602,6.3788,12.656,7.9502,1.2659,10.7-2.7813,18.921-12.514,24.488,4.0982,3.063,9.2964-2.2536,12.295-1.4221-0.99153,11.363-11.144,17.27-14.542,35.188-2.1543,11.361-0.45839,18.827,8.8435,18.534,14.607-0.45893,21.41-7.443,16.602-20.374-9.2525-24.884,12.977-20.713,23.333-27.222,15.949-10.024-15.835-28.701-14.778-42.777,1.8088-24.087,17.154-36.585,42.388-25.666,24.551,10.623,23.929,37.874,36.327,40.322,8.0464,1.5887,24.861,4.8648,2.95,18.4-9.0928,5.6168-5.9818,11.292-4.2777,16.722,5.9124,18.839,4.2743,46.147,24.5,50.166,4.7914,0.95202,12.871,9.4521,0.38888,15.944-14.45,7.5159-27.95-6.208-38.888-21,1.1192,24.108,14.762,57.44,29.944,56.777,10.977-0.479,10.364,12.986-3.6674,17.47-23.745,7.5884-37.405-34.296-50.274-55.011,4.4409,29.669,13.384,58.074,30.608,75.263,6.5468,6.5334,20.276-3.7582,16.722,10.111-2.3407,9.1341-14.088,10.567-25.666,3.1111-16.667-10.732-27.925-32.79-39.666-55.249,5.1999,23.722,7.3824,48.109,21,72.749,5.0103,9.066,16.201,21.281,21.389,18.278,14.803-8.5704,10.789,4.2821,6.2221,8.9443-25.835,26.376-56.056-27.156-78.668-74.874-1.1066,24.208,3.2349,39.249,11.392,43.763,4.5881,2.5394,5.7497,12.449-4.2777,8.9443-21.448-7.4968-28.43-43.386-36.783-74.304-3.7516,4.2913-4.4398,12.338,2.1722,35.027,6.2326,21.387,13.01,35.195,20.222,50.849,3.057,6.6355,11.591,10.932,15.166,9.6082,7.6348-2.8264,15.074-2.4358,9.3332,6.9999-3.8079,6.2589-9.5288,14.731-17.889,10.111-9.7929-5.7003-15.536-2.1778-24.889,5.4444-15.11,6.5125-5.6267-7.7124-8.9443-15.736-3.4009-8.2248-6.8903-19.988-10.614-24.594-8.6432-10.692-6.1926,32.946-5.3972,51.949,0.39188,9.3627,13.79,21.841,29.233,12.88,2.8568-1.6576,11.909-0.63299-2.125,16.219-6.8748,8.2553-16.059,11.441-25.325,9.0582,1.9074,18.684-4.5589,25.916-7.2226,35.176-2.6553,9.2307-2.5021,26.413-9.4596,26.262-7.2602-0.15756-6.8043-16.264-9.4596-26.87z" transform="translate(0,-25)" fill="#000"/>
  <path stroke-linejoin="round" d="m168.64,55.555c-17.199-16.89-7.8418-33.255,12.193-36.958,20.433,6.2157,37.143,30.444,35.208,44.004-8.9396-2.9726-29.748,21.977-33.965,8.2089,13.599-6.7914,16.481-16.972,23.189-25.631-23.3,7.0684-25.256,24.09-34.52,30.601-14.975,10.525-26.231,8.0703-28.112-7.2648,7.8822,6.86,20.47-1.1231,29.934-11.721,10.42-11.672,18.65-15.35,32.89-11.615-11.65-4.512-35.96-20.817-36.82,10.376z" stroke="#000" stroke-linecap="round" stroke-miterlimit="4" stroke-dasharray="none" stroke-width="4" fill="#da121a"/>
  <path d="m128.3,106.76a9.107,3.9998,0,1,1,-18.214,0,9.107,3.9998,0,1,1,18.214,0z" transform="matrix(0.76934452,0.6388341,-0.6388341,0.76934452,181.08529,-137.24702)" fill="#FFF"/>
  <path stroke-linejoin="round" d="m326.42,395.46c1.3333-3.857,8.441-5.0163,12.888-1.647m-79.296-39.762c5.4501,0.23126,6.696,4.1996,4.0227,11.652m93.011,6.1581c-0.11802-2.5533,0.63439-6.415,3.2465-9.661m-9.746-31.024c-1.0977,3.0645-2.7063,7.3043,0.79085,11.528" stroke="#000" stroke-linecap="round" stroke-miterlimit="4" stroke-dasharray="none" stroke-width="4" fill="none"/>
  <path stroke-linejoin="round" d="m97.459,394.68c-1.3333-3.857-8.441-5.0163-12.888-1.647m79.296-39.762c-5.4501,0.23126-6.696,4.1996-4.0227,11.652m-93.011,6.1581c0.11802-2.5533-0.63439-6.415-3.2465-9.661m9.746-31.024c1.0977,3.0645,2.7063,7.3043-0.79085,11.528" stroke="#000" stroke-linecap="round" stroke-miterlimit="4" stroke-dasharray="none" stroke-width="4" fill="none"/>
 </g>
</svg>
