<svg height="626.40967" viewBox="0 0 500 626.40967" width="500" xmlns="http://www.w3.org/2000/svg" xmlns:xlink="http://www.w3.org/1999/xlink"><g transform="matrix(3.0020483 0 0 3.0020483 -619.88735 -1304.9618)"><path d="m210.156 438.356.13437 115.12014c0 47.0158 35.41956 85.28007 79.39071 86.20553v.004c.0279-.00052.0557-.003.0835-.004.0279.00057.0556.003.0835.004v-.004c43.97116-.92546 79.39071-39.18971 79.39071-86.20553l.13443-115.12014z" fill="#d50b2b"/><path d="m291.94821 453.96875c-20.70259 0-37.63262 14.65523-40.1875 33.53125h6.3125c5.60383-15.19349 18.624-25.84375 33.78125-25.84375 15.15724 0 28.17742 10.65026 33.78125 25.84375h6.5c-2.55961-18.87543-19.48536-33.53125-40.1875-33.53125z" fill="#fff" stroke="#000" stroke-dashoffset="4.3" stroke-linecap="round" stroke-width="1.101477"/><path d="m241.32321 487.5h101.25v8h-101.25z" fill="#fff" stroke="#000" stroke-dashoffset="4.3" stroke-linecap="round"/><g id="a" fill="#fff" stroke="#000"><path d="m248.72481 498.44754h8.66206c1.04201 16.46504.83899 32.61882 0 48.61361h-8.66206c-.94172-16.01619-1.39625-32.12982 0-48.61361z" fill="#fff" stroke="#000" stroke-dashoffset="4.3" stroke-linecap="round"/><path d="m247.05583 495.5h12v4.25h-12z" fill="#fff" stroke="#000" stroke-dashoffset="4.3" stroke-linecap="round"/></g><use id="b" height="240" transform="translate(78)" width="210" xlink:href="#a"/><use id="c" height="240" transform="translate(-18)" width="210" xlink:href="#b"/><use height="240" transform="translate(-42)" width="210" xlink:href="#c"/><g fill="#fff"><path d="m296.5 448.625a4.125 4.125 0 1 1 -8.25 0 4.125 4.125 0 1 1 8.25 0z" stroke="#000" stroke-dashoffset="4.3" stroke-linecap="round" transform="matrix(1.4324324 0 0 1.4324324 -126.85921 -195.03033)"/><path d="m291.93259 453.25c-12.48315 0-22.90502 9.29413-24.5 21.34375l-.0625 12.90625h6.78125l.0312-5.46875c.43582-12.0571 5.78304-20.57322 17.73928-20.57322 11.95493 0 17.68827 8.86968 17.41697 20.57322l.0312 5.46875h7.15625l-.0625-12.90625c-1.59487-12.04961-12.048-21.34376-24.53115-21.34375z" stroke="#000" stroke-dashoffset="4.3" stroke-linecap="round"/><path d="m246.61768 551.30389h90.66106v24.91256h-90.66106z" stroke="#000" stroke-dashoffset="4.3" stroke-linecap="round" stroke-width="1.02538"/><path d="m236.97067 575.87573h109.95508v11.66733h-109.95508z" stroke="#000" stroke-dashoffset="4.3" stroke-linecap="round"/><path d="m227.7285 585.91437h128.43942v11.59012h-128.43942z" stroke="#000" stroke-dashoffset="4.3" stroke-linecap="round" stroke-width="1.077209"/><path d="m239.7092 546.00043h101.82335v5.65685h-101.82335z" stroke="#000" stroke-dashoffset="4.3" stroke-linecap="round"/><path d="m266.76706 550.76709h48.215862v45.215862h-48.215862z" stroke="#000" stroke-dashoffset="4.3" stroke-linecap="round" stroke-width="1.034138"/><path d="m221.9595 593.96441c1.98814 4.03115 4.26901 7.859 6.80201 11.47743h124.25209c2.533-3.61842 4.81387-7.44628 6.80201-11.47743z" stroke="#000" stroke-dashoffset="4.3" stroke-linecap="round" stroke-width="1.196649"/></g><path d="m300.34361 571.10272a8.1317282 8.1317282 0 1 1 -16.26345 0 8.1317282 8.1317282 0 1 1 16.26345 0z" transform="matrix(.9609291 0 0 .9609291 11.153311 19.308272)"/><path d="m261.85122 545.89245h60.28931v5.87281h-60.28931z" fill="#fff" stroke="#000" stroke-dashoffset="4.3" stroke-linecap="round" stroke-width=".78403"/><path d="m292.65625 599c-3.1046-.002-6.19648.20697-8.65625.625-4.91955.83606-10.95031 5.5583-15 5.25s-6.74922-5.38296-9.875-5.25-4.98301 5.10817-8.125 5.25-6.8092-5.36148-10-5.25-5.46917 4.83317-8.5 5.25c-1.83805.25279-5.10413-.83623-7.40625-1.75 4.88655 7.36423 10.82918 13.86755 17.59375 19.28125l92.75 1.09375c6.76706-5.17967 12.76757-11.42511 17.75-18.53125-.53589.0147-1.03518-.006-1.4375-.0937-2.80283-.60936-4.78466-5.15013-7.75-5.25-2.96534-.0999-5.76015 5.18611-9 5.25-3.23985.0639-6.733-5.37274-9.875-5.25s-4.35667 4.78025-8.25 5.25-10.50633-4.42725-15.5-5.25c-2.49684-.41138-5.61415-.62334-8.71875-.625z" fill="#057843" fill-rule="evenodd" stroke="#000"/><path d="m249.3125 610c-2.97035.15428-4.74173 4.21536-7.625 4.75-2.06097.38216-6.39898-.79239-8.75-1.5 8.32382 9.2052 18.54725 16.4374 30 21h53.65625c10.69693-4.26148 20.30625-10.86584 28.3125-19.21875-2.94264-1.11131-6.10081-2.79264-8.21875-5.03125-3.98643.1397-6.88815 4.85782-9.875 4.75-2.98684-.10782-5.04605-4.65927-8-4.75-2.95394-.0907-6.1138 4.74148-9.25 4.75-3.13619.009-6.38815-4.83973-9.375-4.75-2.98684.0897-5.44584 4.84001-8.125 4.75-2.67915-.09-4.17657-4.57784-7-4.75-2.82342-.17216-6.26315 4.8217-9.25 4.75-2.98684-.0717-5.36152-4.7315-8.25-4.75-2.88847-.0185-5.41381 4.66317-8.5 4.75-3.08618.0868-6.77966-4.90428-9.75-4.75z" fill="#057843" fill-rule="evenodd" stroke="#000"/><path d="m258.375 623.40625c-.3775.0299-.72518.16492-1.0625.46875-1.96978 1.7742-5.56223 2.67837-8.4375 3.03125 11.91581 7.82155 25.86467 12.46664 40.8125 12.78125.0279-.00052.0346.00057.0625 0 .0279.0006.0659-.00052.0937 0 15.63373-.32903 30.17341-5.39065 42.4375-13.875-.92324-.56516-1.86116-1.19037-2.78125-1.9375-2.40601-1.95372-6.27739 4.81939-9.1875 4.875-2.91012.0556-4.92102-4.733-8.125-4.875-3.20399-.142-6.47924 4.89405-9.875 4.875-3.39577-.019-6.30965-4.90427-9.625-4.875-3.31536.0293-6.06179 4.92575-9.25 4.875-3.18822-.0507-5.70137-4.9618-8.6875-4.875-2.98614.0868-4.53029 4.7573-7.5625 4.875-2.65319.10299-6.16999-5.55282-8.8125-5.34375z" fill="#057843" fill-rule="evenodd" stroke="#000"/><path d="m297.84375 571.96875h-10.4375c-1.47639 1.31292-2.7847 2.66239-3.90625 4.0625-1.16552 1.455-2.13245 2.93285-2.96875 4.46875s-1.53167 3.11547-2.09375 4.71875-1.00087 3.24911-1.34375 4.90625c-.68577 3.31428-.98596 6.70763-1.125 10.15625-.12694 3.14836-.13415 6.32588-.15625 9.5h32.125c-.21562-2.30636-.3828-4.60095-.53125-6.96875-.18439-2.94108-.41919-5.95837-.96875-9.1875-.27478-1.61457-.63029-3.27327-1.09375-5s-1.03293-3.5406-1.75-5.40625-1.55814-3.78116-2.59375-5.8125c-.88409-1.73414-1.99616-3.56453-3.15625-5.4375z" fill="#057843"/><g fill="none" stroke="#000" transform="translate(181.57321 -2)"><path d="m106.625 573.625c-12.398054 10.49125-12.245316 25.72808-12.375 39.125"/><path d="m115.75 573.625c11.35255 17.1473 9.39544 28.82095 10.75 39.875"/><path d="m114 577.75c1.21315 1.16667.79087 2.33333.75 3.5"/><path d="m115.5 582.5c.84585 1.66667 1.86092 3.33333 1.75 5"/><path d="m117.5 589.25c1.79092 2.06969 1.6649 4.77837 1.5 7.5"/><path d="m120 599.5v7.5"/><path d="m112.5 585.75v3"/><path d="m113.75 590.25c.76213 2.58333 1.219 5.79167 1 8.375"/><path d="m115.75 599.5v8.5"/><path d="m107.75 599.5v9.25"/><path d="m107 590c-4.76642 4.54058-2.97031 11.89368-3.5 18.25"/><path d="m108.875 573.875c-2.69209 4.76083-6.49824 10.94562-7.25 17"/><path d="m99.75 596.375c-1.645299 4.20812-1.455342 7.68214-1.5 11.25"/></g><path d="m289.82277 639.68525c43.97117-.92547 79.41608-39.19329 79.41608-86.20911l.13437-115.12014h-159.21722l.13437 115.12014c0 47.0158 35.56124 85.28364 79.5324 86.20911z" fill="none" stroke="#000" stroke-dashoffset="4.3" stroke-linecap="round" stroke-width="4"/></g></svg>