<?xml version="1.0" encoding="UTF-8" standalone="no"?>
<!-- Created with Inkscape (http://www.inkscape.org/) -->

<svg
   version="1.1"
   width="700.02319"
   height="850.05035"
   id="svg2"
   sodipodi:docname="Coat_of_arms_Steegen.svg"
   inkscape:version="1.1 (c68e22c387, 2021-05-23)"
   xmlns:inkscape="http://www.inkscape.org/namespaces/inkscape"
   xmlns:sodipodi="http://sodipodi.sourceforge.net/DTD/sodipodi-0.dtd"
   xmlns="http://www.w3.org/2000/svg"
   xmlns:svg="http://www.w3.org/2000/svg"
   xmlns:rdf="http://www.w3.org/1999/02/22-rdf-syntax-ns#"
   xmlns:cc="http://creativecommons.org/ns#"
   xmlns:dc="http://purl.org/dc/elements/1.1/">
  <sodipodi:namedview
     id="namedview2862"
     pagecolor="#ffffff"
     bordercolor="#666666"
     borderopacity="1.0"
     inkscape:pageshadow="2"
     inkscape:pageopacity="0.0"
     inkscape:pagecheckerboard="0"
     showgrid="false"
     inkscape:zoom="0.61172847"
     inkscape:cx="350.64577"
     inkscape:cy="337.56807"
     inkscape:window-width="1360"
     inkscape:window-height="705"
     inkscape:window-x="-8"
     inkscape:window-y="-8"
     inkscape:window-maximized="1"
     inkscape:current-layer="svg2" />
  <defs
     id="defs4" />
  <metadata
     id="metadata7">
    <rdf:RDF>
      <cc:Work
         rdf:about="">
        <dc:format>image/svg+xml</dc:format>
        <dc:type
           rdf:resource="http://purl.org/dc/dcmitype/StillImage" />
      </cc:Work>
    </rdf:RDF>
  </metadata>
  <g
     transform="translate(-12.812499,-16.913385)"
     id="layer1">
    <g
       transform="matrix(1.0000331,0,0,0.99991808,-4.2462443e-4,0.0710149)"
       id="g3961">
      <path
         d="M 331.71654,857.39164 C 201.95437,846.82869 87.510158,758.48033 43.658987,635.01771 27.942603,590.76818 26.240836,576.41602 23.708465,466.76423 22.386348,409.51527 21.193419,286.64034 21.057322,193.70881 L 20.809863,24.7424 l 170.430737,0 c 93.7368,0 247.63167,0.852735 341.98834,1.894967 l 171.55771,1.894967 -1.09851,264.031076 c -1.07625,258.68177 -1.22706,264.58624 -7.44413,291.43348 -16.48472,71.18616 -47.20362,125.62304 -99.65162,176.59229 -48.85584,47.47842 -93.37393,72.79771 -155.07602,88.19832 -19.66334,4.9079 -33.34659,6.78766 -71.57853,9.83322 -6.42745,0.512 -23.62705,-0.0411 -38.2213,-1.22908 z"
         id="path3853"
         style="fill:#559f00;fill-opacity:1;fill-rule:nonzero;stroke:#000000;stroke-width:7.98553371;stroke-linecap:round;stroke-linejoin:miter;stroke-miterlimit:4;stroke-opacity:1;stroke-dasharray:none" />
      <path
         d="m 24.715425,557.74478 69.00744,-65.39648 -49.678819,-53.05753 85.695824,-77.73544 52.16269,54.29142 83.21191,-75.26765 -48.43679,-62.92869 84.45388,-72.79985 54.64663,56.75921 90.66372,-78.96934 -52.16269,-56.75921 83.2119,-76.501552 L 538.3476,104.90499 625.28541,29.637337 352.05228,28.403439 19.204736,324.53845 z"
         id="path3855"
         style="fill:#f2d400;fill-opacity:1;stroke:#000000;stroke-width:8;stroke-linecap:butt;stroke-linejoin:miter;stroke-miterlimit:4;stroke-opacity:1;stroke-dasharray:none" />
      <path
         d="M 331.71655,857.50417 C 201.95438,846.94122 87.510158,758.59286 43.658987,635.13024 27.942603,590.88071 26.240836,576.52854 23.708465,466.87675 22.386348,409.62779 21.193419,286.75286 21.057322,193.82134 l -0.247459,-168.966412 170.430747,0 c 93.7368,0 247.63167,0.852735 341.98834,1.894967 l 171.55771,1.894967 -1.09851,264.031058 c -1.07625,258.68178 -1.22706,264.58626 -7.44413,291.4335 -16.48472,71.18616 -47.20362,125.62303 -99.65162,176.59229 -48.85584,47.47841 -93.37393,72.79771 -155.07602,88.19832 -19.66334,4.9079 -33.34659,6.78765 -71.57853,9.83322 -6.42745,0.512 -23.62705,-0.0411 -38.2213,-1.22908 z"
         id="path3853-1"
         style="fill:none;stroke:#000000;stroke-width:16;stroke-linecap:round;stroke-linejoin:miter;stroke-miterlimit:4;stroke-opacity:1;stroke-dasharray:none" />
      <g
         id="g3957">
        <path
           d="m 230.49754,532.46395 c -10.86144,0.0581 -22.96212,0.90739 -27.97806,2.26972 -7.86622,2.13654 -21.09594,8.45442 -29.85579,14.24011 -15.51564,10.2478 -26.31575,23.33134 -36.4278,44.11948 -9.44169,19.41013 -12.06179,30.59935 -12.95629,55.15711 -0.96159,26.39711 1.8619,45.29744 9.76416,65.16872 6.92123,17.40443 21.66291,35.64431 33.42345,41.35229 5.22206,2.53452 7.14928,2.92264 14.61494,2.92264 7.93022,0 8.88819,-0.23565 12.39296,-2.89155 5.53688,-4.19567 7.9202,-10.20915 7.32312,-18.49971 -0.41012,-5.69485 -1.57657,-8.90975 -8.0742,-22.47947 -11.17146,-23.3307 -13.70437,-33.40534 -13.70738,-54.13108 -0.004,-25.38058 5.61134,-44.61128 16.58655,-56.68062 9.69442,-10.66081 32.85637,-16.33407 47.22471,-11.56621 7.04527,2.33782 18.96916,10.20871 23.6593,15.60816 4.92393,5.66859 10.0828,15.82471 12.58074,24.78028 4.02016,14.41294 3.691,29.2426 -1.12664,51.70591 -2.47267,11.52949 -4.04433,15.60099 -12.95628,33.45494 -8.08604,16.19925 -9.35766,22.13239 -6.41555,29.78608 2.51139,6.53329 6.14137,10.29253 13.01888,13.525 11.98806,5.63455 22.19892,3.33485 33.14179,-7.52425 12.83089,-12.73258 28.14795,-46.50221 32.98532,-72.69298 2.19313,-11.87423 3.09374,-39.5994 1.59606,-49.12527 -1.56359,-9.94515 -8.06792,-29.53825 -13.55089,-40.73045 -16.15997,-32.98662 -41.33858,-51.17656 -78.83304,-56.96046 -3.83787,-0.59204 -9.9132,-0.84328 -16.43006,-0.80839 z m 259.93933,-1.36804 c -17.27315,-10e-4 -26.38441,1.8876 -39.77641,8.20827 -24.69548,11.65555 -37.91811,24.79486 -51.07405,50.74207 -5.90956,11.65545 -10.39166,24.59865 -12.39296,35.81792 -1.78556,10.01001 -1.82448,46.77811 -0.0626,56.71171 7.47793,42.16058 30.39941,73.00031 55.33021,74.43412 8.27543,0.47598 13.6749,-1.93795 17.68188,-7.95954 2.43391,-3.6575 2.75399,-5.09589 2.75399,-12.18804 0,-7.95486 -0.0732,-8.16718 -7.66736,-23.9408 -11.36542,-23.6069 -13.84447,-33.55493 -13.83255,-55.03275 0.0146,-26.24807 6.89792,-47.45332 18.8711,-57.98648 9.53471,-8.38796 25.99235,-13.07627 38.58719,-10.97545 12.73166,2.1236 27.47265,11.87772 34.58139,22.88367 8.37472,12.96609 12.21837,31.76497 10.26488,50.15131 -2.18622,20.5767 -5.18492,30.85386 -14.77142,50.61769 -10.46822,21.58159 -11.4064,26.20678 -7.01016,35.1339 3.02728,6.14735 7.09339,9.71282 14.27069,12.49896 19.36599,7.51759 35.94385,-6.24247 51.73124,-42.96907 10.11136,-23.52233 13.55074,-38.79006 14.39587,-63.76958 0.63961,-18.9049 -0.30482,-26.83031 -4.81948,-40.66827 -8.38986,-25.71597 -17.48053,-41.36045 -32.07776,-55.15712 -11.21413,-10.59902 -21.12943,-16.22323 -37.42926,-21.20471 -13.73845,-4.19865 -21.7836,-5.34682 -37.55444,-5.34781 z M 361.28088,310.12545 c -2.71986,0.0462 -5.4603,0.17656 -8.16809,0.40419 -12.45992,1.04744 -20.4804,3.14145 -30.51298,7.92845 -24.22059,11.55674 -38.6454,26.16345 -51.26182,51.89246 -10.38833,21.18518 -13.34389,35.09629 -13.42571,63.48975 -0.093,32.29604 5.75832,54.69938 19.71608,75.61561 11.45581,17.16694 23.20266,25.82483 36.20874,26.67689 7.97241,0.52235 12.41136,-0.98862 16.74303,-5.75201 8.02659,-8.82683 7.3826,-17.40187 -2.81659,-37.8078 -12.42058,-24.85037 -15.48545,-39.79204 -13.5196,-65.79056 1.63571,-21.63247 6.7674,-35.71821 16.68043,-45.82954 11.4241,-11.6526 32.32619,-16.48427 47.60026,-11.00654 7.63147,2.73687 18.96555,10.28166 23.15857,15.4527 12.90764,15.9184 17.39665,38.08178 13.17535,64.8267 -2.59005,16.40985 -5.85075,26.31004 -14.33328,43.31109 -7.04789,14.12574 -7.7456,16.01484 -8.0742,22.47947 -0.28749,5.65615 0.0624,7.86925 1.72124,11.09983 2.57523,5.01501 9.12145,10.64757 14.55235,12.56115 18.93,6.66989 35.10943,-6.30459 50.32295,-40.35735 9.8825,-22.12019 14.54358,-40.99844 15.96064,-64.54688 1.37962,-22.92621 -3.56068,-44.59564 -15.61639,-68.43337 -10.81675,-21.38797 -24.21689,-35.03952 -43.56315,-44.46149 -16.39465,-7.98448 -35.50881,-12.07578 -54.54783,-11.75275 z"
           id="path3928"
           style="fill:#f2f2f2;stroke:none" />
        <path
           d="m 271.58798,760.3189 c -6.8775,-3.23247 -10.50573,-7.00628 -13.01712,-13.53957 -2.94211,-7.6537 -1.66085,-13.59509 6.42519,-29.79435 8.91195,-17.85394 10.48398,-21.91121 12.95665,-33.4407 4.81764,-22.46331 5.13872,-37.31084 1.11856,-51.72377 -2.49794,-8.95557 -7.6486,-19.10448 -12.57252,-24.77307 -4.69014,-5.39945 -16.62475,-13.26805 -23.67003,-15.60587 -14.36834,-4.76785 -37.5166,0.90112 -47.21102,11.56193 -10.97521,12.06935 -16.61115,31.30685 -16.60746,56.68743 0.003,20.72575 2.55796,30.79894 13.72942,54.12964 6.49763,13.56972 7.64535,16.77055 8.05548,22.4654 0.59707,8.29056 -1.79384,14.33413 -7.33072,18.52981 -3.50477,2.65589 -4.45658,2.87697 -12.3868,2.87697 -7.46566,0 -9.37694,-0.38186 -14.599,-2.91637 -11.76054,-5.70799 -26.50892,-23.95414 -33.43016,-41.35856 -7.90225,-19.87129 -10.73746,-38.77161 -9.77587,-65.16872 0.8945,-24.55777 3.52882,-35.7633 12.97051,-55.17343 10.11206,-20.7881 20.9055,-33.85922 36.42115,-44.10697 8.75984,-5.78568 22.00042,-12.09467 29.86663,-14.23114 8.02552,-2.17972 34.16299,-3.03997 44.39731,-1.46122 37.49445,5.78392 62.65921,23.96792 78.81918,56.95453 5.48297,11.19216 12.01178,30.77631 13.57538,40.72145 1.49768,9.52588 0.59638,37.26069 -1.59675,49.13493 -4.83737,26.19076 -20.16002,59.94687 -32.99091,72.67944 -10.94288,10.8591 -21.15903,13.18677 -33.1471,7.55221 z m 21.4338,-3.55045 c 12.56994,-6.32823 26.29704,-28.96993 36.07933,-59.50969 4.48737,-14.00938 6.25252,-25.03305 6.85635,-42.81923 0.65241,-19.21691 -0.40831,-26.47124 -6.42032,-43.90909 -14.07487,-40.82424 -35.4246,-61.71445 -72.92787,-71.35816 -7.83837,-2.01558 -11.42771,-2.32019 -27.53992,-2.3372 -14.68724,-0.0155 -19.87592,0.34681 -25.0363,1.74823 -14.58765,3.96161 -33.2636,14.98245 -43.69994,25.78772 -13.90075,14.39222 -26.08171,38.01163 -30.94937,60.01219 -2.12898,9.62278 -3.04952,40.36252 -1.54884,51.72426 3.80511,28.80905 13.61764,50.98801 29.50387,66.68691 7.6966,7.60573 14.03276,10.74468 22.65944,11.22543 5.54296,0.30883 7.02984,0.0149 10.01452,-1.98182 5.26455,-3.5214 7.22588,-8.02471 6.69683,-15.37634 -0.36256,-5.03819 -1.76085,-8.86901 -7.98954,-21.88873 -11.22269,-23.45865 -13.73194,-33.49573 -13.72625,-54.90529 0.009,-34.84647 10.02387,-58.29626 28.95003,-67.78811 8.57068,-4.29829 16.26921,-6.10478 26.127,-6.13075 10.24596,-0.027 15.75734,1.53645 25.34165,7.18887 10.11285,5.96418 16.72297,12.88878 21.70988,22.74279 9.64081,19.04996 11.11247,38.52785 5.07445,67.16269 -2.65414,12.58701 -4.26245,16.88685 -12.66391,33.85699 -4.32658,8.73917 -7.65099,16.83114 -8.02178,19.52574 -1.20695,8.77101 3.26661,16.32611 12.08193,20.40438 6.6965,3.09805 13.19349,3.07735 19.42876,-0.0617 z M 282.48702,753.277 c -9.05123,-2.19793 -13.85223,-8.21902 -12.74236,-15.98057 0.78523,-5.49138 1.58644,-7.07334 6.09138,-12.02736 5.09029,-5.59774 8.43468,-5.3698 18.61242,1.26865 5.95006,3.88098 8.2941,4.92079 9.45392,4.19398 2.4647,-1.54454 9.0075,-12.98419 12.34741,-21.58855 1.69062,-4.35546 4.67255,-14.01804 6.62651,-21.47235 3.19462,-12.18745 3.60478,-15.25774 4.07011,-30.46722 0.44988,-14.70475 0.22945,-18.40862 -1.68756,-28.35586 -4.93239,-25.59399 -12.71209,-40.2898 -31.49851,-59.50051 -10.46466,-10.70101 -17.427,-15.62207 -27.83602,-19.67481 -6.81335,-2.65279 -10.78614,-3.07885 -10.87502,-1.1663 -0.65055,13.99887 -1.9223,23.94456 -3.33582,26.08784 -1.60162,2.42849 -2.01896,2.51459 -11.90161,2.45524 -12.85391,-0.0772 -24.43196,-1.20166 -25.7385,-2.49971 -0.55032,-0.54674 -2.08604,-6.72881 -3.41271,-13.73793 -1.32667,-7.00912 -2.85465,-13.18349 -3.3955,-13.72083 -1.50141,-1.49165 -14.31024,3.31423 -23.42747,8.79001 -9.925,5.96093 -20.73975,15.71226 -26.06319,23.50034 -5.68735,8.32066 -14.25877,26.58398 -17.18301,36.61231 -6.84522,23.47516 -6.52516,54.13978 0.86626,82.99778 2.69991,10.54122 7.76345,22.16901 10.03034,23.03322 0.9662,0.36833 3.26172,-0.63229 5.79189,-2.52467 6.68987,-5.00366 14.02242,-9.04731 16.4243,-9.05746 4.8845,-0.0209 14.75696,11.64451 15.9081,18.79665 0.82204,5.10724 -1.67812,12.16417 -5.31709,15.00801 -3.48678,2.72485 -9.59366,4.21677 -13.94283,3.40619 -10.23326,-1.90731 -26.40511,-25.89775 -31.79682,-47.16952 -7.49477,-29.56879 -7.87612,-61.64981 -1.01537,-85.4157 3.09308,-10.71463 13.64998,-32.49368 19.62244,-40.48122 9.86299,-13.19094 29.16212,-26.00179 46.40573,-30.80434 7.90781,-2.20243 36.22533,-3.15753 46.50791,-1.56864 17.57399,2.71557 32.52924,10.59843 45.44266,23.95265 19.84112,20.51841 28.12602,36.49999 33.26788,64.17382 1.31683,7.08727 1.55437,12.68869 1.13913,26.86344 -0.45529,15.54199 -0.92407,19.48684 -3.54699,29.84827 -5.99163,23.66888 -10.95574,34.33854 -25.88604,55.63866 -6.92847,9.88436 -11.01145,12.28485 -18.00597,10.58649 z m 11.69221,-7.77229 c 2.30536,-2.59929 4.80553,-5.9029 5.55594,-7.34128 1.19705,-2.29454 1.154,-2.79529 -0.35099,-4.08275 -4.45917,-3.81451 -14.34954,-9.7185 -16.28042,-9.7185 -2.43346,0 -7.69644,5.13142 -9.14486,8.91628 -1.41643,3.70128 -1.25607,9.76476 0.30801,11.64659 2.57126,3.09368 7.37354,5.29817 11.54971,5.30185 3.72207,0 4.62227,-0.50503 8.36261,-4.72219 z m -116.99939,-1.2784 c 4.4734,-1.23433 8.51205,-5.74221 9.41135,-10.5047 0.90624,-4.79931 -1.58458,-9.94555 -7.71921,-15.94873 l -4.92989,-4.82418 -4.25094,2.24051 c -5.02352,2.64764 -15.73068,10.83174 -15.73068,12.02388 0,1.48276 9.72965,13.64882 12.20312,15.25893 2.02636,1.3191 3.73072,1.98412 6.82445,2.66297 0.2754,0.0607 2.16172,-0.34853 4.1918,-0.90868 z m 71.92938,-171.60584 c 1.56199,-1.86985 3.13252,-23.19822 1.8811,-25.54622 -1.26327,-2.37023 -7.38241,-3.04876 -23.85888,-2.64564 -10.33266,0.25281 -14.38043,0.70096 -14.97513,1.65797 -0.83877,1.34979 2.21321,20.83765 3.87682,24.75474 1.0239,2.41088 3.29506,2.72798 22.17703,3.09642 7.55526,0.14742 9.91363,-0.13761 10.89906,-1.31727 z m -98.11325,59.75721 c -0.67017,-0.80222 -0.90912,-2.37652 -0.53738,-3.54011 0.97902,-3.06462 5.87843,-2.37532 6.3435,0.89257 0.52096,3.66069 -3.448,5.47049 -5.80612,2.64754 z m 149.56105,-0.9845 c -1.06673,-2.76186 0.0724,-5.03281 2.52433,-5.03281 3.15899,0 4.94847,2.76156 3.16946,4.89123 -1.6441,1.9682 -4.95647,2.05048 -5.69379,0.14158 z M 157.93673,610.40587 c -1.81963,-2.17823 -0.0621,-4.93929 3.14306,-4.93929 1.99288,0 2.39446,0.50055 2.39446,2.98483 0,2.26846 -0.50172,3.05596 -2.09052,3.28151 -1.14976,0.16327 -2.70101,-0.43399 -3.447,-1.32705 z m 137.89607,-4.11021 c -1.51541,-1.50554 -0.60163,-5.1931 1.44694,-5.83901 2.81703,-0.88829 5.3244,1.60275 4.4303,4.40142 -0.65019,2.03526 -4.36183,2.94314 -5.87724,1.43759 z M 170.05773,587.19755 c -1.28268,-2.38112 0.82488,-5.47207 3.38989,-4.97161 2.80603,0.54749 4.20139,3.34853 2.61445,5.24824 -1.77794,2.12835 -4.7834,1.98989 -6.00434,-0.27663 z m 111.39703,-1.76508 c -0.82845,-2.14488 0.95061,-4.83949 3.19516,-4.83949 0.98153,0 2.24344,0.72266 2.80423,1.60592 1.52994,2.4097 0.11576,4.86121 -2.80423,4.86121 -1.45226,0 -2.83943,-0.70662 -3.19516,-1.62764 z m -14.75944,-11.87515 c -0.86554,-0.85991 -1.57371,-1.94724 -1.57371,-2.41629 0,-0.81804 2.77638,-3.97977 3.49471,-3.97977 3.2363,0 4.72929,4.36573 2.31371,6.76561 -1.58376,1.57346 -2.34594,1.50694 -4.23471,-0.36955 z m -77.75372,-2.00221 c -0.95426,-1.14235 -1.02733,-2.03182 -0.26564,-3.23356 1.4935,-2.35636 4.48756,-2.67311 5.98867,-0.63356 2.77967,3.77672 -2.7035,7.48177 -5.72303,3.86712 z m 347.26546,188.65285 c -7.1773,-2.78613 -11.24378,-6.34604 -14.27106,-12.49339 -4.39624,-8.92712 -3.47509,-13.55549 6.99313,-35.13708 9.5865,-19.76383 12.58939,-30.05353 14.77561,-50.63023 1.95349,-18.38633 -1.89131,-37.159 -10.26603,-50.12509 -7.10874,-11.00595 -21.85157,-20.76221 -34.58322,-22.88583 -12.59484,-2.10081 -29.04025,2.5715 -38.57495,10.95946 -11.97319,10.53315 -18.88292,31.73388 -18.8975,57.98195 -0.0119,21.47782 2.49571,31.4357 13.86113,55.0426 7.59417,15.77361 7.66417,15.9923 7.66417,23.94716 0,7.09215 -0.3212,8.51084 -2.75511,12.16835 -4.00698,6.02159 -9.41238,8.46218 -17.68781,7.9862 -24.9308,-1.43381 -47.86741,-32.28687 -55.34534,-74.44745 -1.76188,-9.93361 -1.71816,-46.7017 0.0674,-56.71171 2.0013,-11.21927 6.47758,-24.16258 12.38715,-35.81797 13.15593,-25.94724 26.37767,-39.08215 51.07314,-50.7377 13.392,-6.32065 22.52729,-8.20318 39.80045,-8.2018 15.77083,9.9e-4 23.79006,1.1426 37.52851,5.34126 16.29983,4.98147 26.23323,10.60652 37.44737,21.20558 14.59723,13.7966 23.69629,29.43698 32.08614,55.1529 4.51467,13.83796 5.45319,21.76815 4.81358,40.67305 -0.84513,24.97951 -4.29214,40.23865 -14.4035,63.76097 -15.7874,36.72661 -32.34731,50.48636 -51.71331,42.96877 z m 19.10475,-4.57723 c 12.51936,-6.19809 26.28659,-28.77074 36.08403,-59.16305 5.49258,-17.03838 6.63716,-25.22178 6.67457,-47.72111 0.0324,-19.48674 -0.0905,-20.80982 -2.75746,-29.66719 -5.21671,-17.32583 -12.6105,-33.79101 -19.51655,-43.46111 -5.15555,-7.21899 -16.89154,-18.99026 -23.25812,-23.32804 -16.74528,-11.40915 -37.84797,-17.26626 -62.09001,-17.23325 -16.41404,0.0224 -24.92137,1.76178 -37.67724,7.70358 -16.44164,7.65867 -29.97131,18.39625 -39.04096,30.98414 -6.13363,8.51294 -14.90442,26.06344 -18.37674,36.77211 -4.7809,14.74444 -5.5365,20.88901 -5.49634,44.69688 0.0402,23.82877 1.48123,33.89858 7.08107,49.48207 5.74854,15.99728 18.23235,34.83253 27.51392,41.51237 5.61074,4.03797 14.00902,7.00738 19.81897,7.00738 8.74841,0 15.13231,-6.76143 15.13231,-16.02723 0,-5.7635 -1.22576,-9.20013 -8.83312,-24.7654 -9.98095,-20.42189 -13.20564,-33.28431 -13.19061,-52.61355 0.031,-39.80834 11.73444,-63.52458 35.43142,-71.79924 8.94619,-3.12389 19.5277,-4.33864 26.8554,-3.08298 8.37478,1.43509 21.27125,8.0032 28.51563,14.52295 14.72498,13.25204 22.33134,38.15505 19.42945,63.61154 -2.52663,22.16453 -4.78546,29.80399 -15.21564,51.45981 -9.34906,19.41102 -10.38459,24.07382 -6.92383,31.17632 5.29131,10.85939 18.85141,15.37325 29.83985,9.933 z m -15.46397,-5.33856 c -5.67824,-2.56138 -7.77435,-6.00726 -7.62068,-12.52811 0.13442,-5.70341 1.69815,-9.38609 5.82261,-13.7123 5.57412,-5.84688 8.32492,-5.57406 19.60426,1.94442 3.7687,2.51203 7.50233,4.31954 8.29698,4.01658 2.10085,-0.80093 9.33666,-13.33024 12.76689,-22.10682 1.62711,-4.16304 4.56493,-13.6924 6.52849,-21.17626 3.24794,-12.37917 3.61578,-15.17824 4.07619,-31.01852 0.44531,-15.32022 0.23533,-18.7858 -1.7481,-28.85332 -4.72001,-23.95781 -11.57111,-37.2606 -29.37124,-57.03043 -7.10628,-7.89263 -15.55459,-14.53421 -23.64293,-18.58673 -6.68687,-3.35033 -15.33954,-6.09828 -16.27518,-5.16872 -0.45482,0.45186 -1.09087,5.26987 -1.41346,10.70669 -0.73535,12.3937 -1.87597,17.00465 -4.55939,18.43144 -2.00204,1.0645 -29.77668,0.49694 -34.03929,-0.69557 -2.20828,-0.61779 -2.63444,-1.87228 -5.31105,-15.63393 -1.25833,-6.46963 -2.7554,-12.22746 -3.32681,-12.79515 -0.71761,-0.71295 -2.69283,-0.49415 -6.3865,0.70744 -12.89513,4.19496 -26.71258,13.22618 -37.03245,24.20476 -12.14988,12.92542 -23.95537,39.65269 -26.93685,60.98425 -2.70356,19.34317 -0.0708,51.62805 5.69064,69.78257 2.9302,9.23316 7.89761,19.6129 9.3861,19.6129 0.54493,0 4.89136,-2.68635 9.65873,-5.96966 11.36886,-7.8298 13.25318,-7.87705 20.26809,-0.50801 7.64019,8.0258 9.26324,12.75993 7.06753,20.6144 -2.17622,7.78473 -11.35378,12.84093 -19.33423,10.65176 -7.66857,-2.10361 -16.45813,-12.78561 -24.60364,-29.90071 -12.93757,-27.18411 -16.22066,-71.99064 -7.48789,-102.19221 3.04073,-10.51604 12.87095,-31.07992 18.81003,-39.3487 10.08969,-14.04753 30.02045,-27.53739 47.14496,-31.90941 10.12541,-2.58509 26.3857,-3.66033 38.37163,-2.53736 14.30999,1.34071 20.87057,3.09569 32.17827,8.60785 7.55545,3.68304 11.217,6.30057 18.43288,13.17712 14.17232,13.50587 24.59875,28.46316 30.26306,43.414 1.4432,3.80933 3.76876,12.52901 5.16791,19.3771 2.34693,11.4871 2.50297,13.87636 2.01513,30.85763 -0.44061,15.33694 -0.96565,20.14848 -3.14852,28.85333 -3.52893,14.07247 -7.24398,25.13752 -10.85654,32.33563 -5.44641,10.85193 -19.47569,31.19989 -22.97118,33.31723 -4.13723,2.50606 -10.03152,2.53452 -15.48445,0.0746 z m 16.11682,-5.35617 c 4.86402,-5.12037 7.72308,-9.84416 6.77397,-11.19201 -0.3776,-0.53627 -3.89018,-3.12631 -7.8057,-5.75554 -8.6143,-5.7845 -11.30378,-5.85335 -15.73026,-0.40255 -3.93719,4.84835 -5.00482,13.56375 -2.06317,16.84238 2.49443,2.78017 7.09838,4.7206 11.31428,4.76846 2.7677,0.0318 4.21157,-0.7876 7.51088,-4.26074 z M 444.3808,740.42553 c 3.2749,-2.4212 5.41771,-8.12102 4.62011,-12.28963 -0.7917,-4.13767 -9.02842,-14.53103 -12.12841,-15.304 -1.73761,-0.4333 -4.22053,0.68342 -9.68176,4.35436 -4.03966,2.7154 -8.17593,5.85852 -9.19173,6.9847 -1.80644,2.00262 -1.78145,2.14161 1.14069,6.34275 9.0741,13.04598 16.864,16.10493 25.2411,9.91182 z m 67.08919,-168.77654 c 1.30295,-1.55974 3.31446,-22.68803 2.43354,-25.5611 -0.74601,-2.43306 -5.21256,-3.09415 -20.95164,-3.10103 -17.20784,-0.008 -18.52685,0.32928 -18.52685,4.73055 0,3.65297 3.70411,22.45809 4.60038,23.3553 0.6386,0.63928 13.34475,1.63696 24.06874,1.88987 5.26031,0.12405 7.46353,-0.22147 8.37583,-1.31359 z m -97.56324,59.61296 c -1.97442,-1.96153 -1.97405,-2.86732 0.002,-4.83054 1.79527,-1.78364 1.73214,-1.76792 3.85236,-0.95963 2.21678,0.84521 1.98268,5.08386 -0.34927,6.32376 -1.45938,0.77595 -2.31868,0.64512 -3.50508,-0.53359 z m 149.03064,-0.86371 c -1.06672,-2.76186 0.0724,-5.03282 2.52433,-5.03282 3.15899,0 4.94848,2.76157 3.16946,4.89124 -1.6441,1.9682 -4.95647,2.05048 -5.69379,0.14158 z M 420.38653,609.49401 c -0.67014,-0.80223 -0.90912,-2.37652 -0.53739,-3.54011 0.97904,-3.06462 5.8784,-2.37532 6.34346,0.89256 0.52099,3.6607 -3.44792,5.4705 -5.80607,2.64755 z m 138.3232,-4.40392 c -0.73668,-0.46394 -1.18734,-1.91218 -1.00145,-3.21834 0.27012,-1.89805 0.93842,-2.37483 3.32862,-2.37483 3.32348,0 4.56702,2.52099 2.47742,5.02247 -1.36229,1.63081 -2.84204,1.80652 -4.80459,0.5707 z M 432.74866,586.62075 c -1.06673,-2.76177 0.0724,-5.03283 2.52433,-5.03283 3.15899,0 4.94847,2.76166 3.16945,4.89133 -1.64409,1.96811 -4.95646,2.05045 -5.69378,0.1415 z m 111.44419,-1.21887 c -0.3672,-0.36481 -0.66764,-1.67782 -0.66764,-2.91779 0,-2.87307 3.61192,-4.20125 5.72259,-2.10431 2.11066,2.09695 0.77379,5.68539 -2.11808,5.68539 -1.24808,0 -2.56968,-0.29848 -2.93687,-0.66329 z m -16.20711,-14.31395 c -0.43805,-1.37121 -0.14483,-2.69991 0.80382,-3.6424 2.3744,-2.35896 5.91153,-0.73621 5.53045,2.53723 -0.41522,3.56659 -5.27694,4.41485 -6.33427,1.10517 z m -76.07943,-0.57266 c -0.89722,-0.89139 -1.38006,-2.27117 -1.07298,-3.0662 0.30707,-0.79502 0.55832,-1.63274 0.55832,-1.8616 0,-1.25801 5.8799,-0.19479 6.40229,1.1577 0.81361,2.10644 0.82943,2.04372 -0.96584,3.82732 -1.98808,1.97515 -2.88664,1.96471 -4.92179,-0.0572 z m -43.19118,-30.83149 c -5.43091,-1.91356 -11.96699,-7.56997 -14.54221,-12.58501 -1.6589,-3.23057 -1.99859,-5.43173 -1.71111,-11.0878 0.3286,-6.46469 1.00449,-8.35134 8.05239,-22.47704 8.48253,-17.00105 11.76201,-26.89667 14.35206,-43.30651 4.2213,-26.74493 -0.2901,-48.90291 -13.19773,-64.82131 -4.19302,-5.17104 -15.49748,-12.73119 -23.12896,-15.46805 -15.27407,-5.47774 -36.19324,-0.63945 -47.61733,11.01316 -9.91303,10.11132 -15.03697,24.19538 -16.67268,45.82784 -1.96585,25.99852 1.1043,40.93084 13.52489,65.7812 10.19918,20.40592 10.83615,28.97632 2.80955,37.80306 -4.33167,4.76348 -8.76827,6.29275 -16.74068,5.77044 -13.00608,-0.8521 -24.76271,-9.51222 -36.21851,-26.67915 -13.95777,-20.91619 -19.79508,-43.31957 -19.70205,-75.61561 0.0818,-28.39346 3.02056,-42.30933 13.40889,-63.49451 12.61642,-25.72901 27.05126,-40.33969 51.27184,-51.89643 10.03259,-4.78699 18.06485,-6.87052 30.52477,-7.91796 21.66229,-1.82102 43.9751,2.21311 62.71185,11.33823 19.34625,9.42197 32.7236,23.08623 43.54035,44.47419 12.0557,23.83774 17.00423,45.51354 15.62461,68.43975 -1.41707,23.54844 -6.08768,42.4253 -15.97017,64.54549 -15.21353,34.05273 -31.38977,47.02595 -50.31977,40.35602 z m 18.57586,-4.5538 c 10.15066,-4.8463 20.29365,-19.01483 29.77668,-41.59445 9.10932,-21.68977 12.76019,-37.40906 13.98033,-60.19401 0.82476,-15.40136 -0.69401,-26.56555 -5.69043,-41.82967 -11.17815,-34.14932 -27.47781,-54.85273 -52.52182,-66.7119 -17.23723,-8.16239 -40.40269,-12.17421 -59.637,-10.328 -12.82771,1.23128 -19.87303,3.19642 -30.28123,8.44627 -25.59941,12.9122 -38.95895,27.74245 -51.71776,57.41117 -5.52878,12.85639 -7.94868,23.87762 -9.06398,41.28123 -2.82208,44.03701 8.36707,79.35264 32.04057,101.12766 6.83758,6.28925 14.48992,9.6 22.18903,9.6 6.65793,0 11.04645,-2.70208 13.90003,-8.55845 3.32867,-6.83144 2.22511,-11.92017 -6.55892,-30.2443 -12.15998,-25.3666 -15.22941,-40.49437 -13.49333,-66.5023 1.0675,-15.99206 2.99744,-24.34283 8.00305,-34.62878 7.77169,-15.96991 19.37396,-24.67496 37.06393,-27.80862 14.59782,-2.5859 24.47622,-0.26839 38.57079,9.04885 12.90759,8.5326 20.25334,19.91395 24.66096,38.20924 3.57857,14.85403 1.39867,43.06317 -4.8128,62.28024 -0.88438,2.73609 -5.03142,11.91386 -9.21566,20.39503 -6.41985,13.01262 -7.66838,16.36715 -7.99636,21.48442 -0.46426,7.24367 1.06071,10.75755 6.71558,15.47425 7.32625,6.11077 16.12973,7.44186 24.08834,3.64212 z m -15.48932,-5.77426 c -5.78176,-2.84339 -7.87555,-6.83485 -7.16636,-13.66152 0.93054,-8.95747 7.30497,-16.58785 13.70646,-16.40702 1.72453,0.0488 5.97065,2.14467 10.51027,5.18807 4.18923,2.80849 8.33924,4.96584 9.22224,4.79411 2.79261,-0.54309 11.16465,-16.60864 15.4147,-29.58004 6.84897,-20.90353 8.22458,-29.01723 8.27956,-48.83515 0.0535,-19.27373 -1.52195,-29.00741 -7.19404,-44.44827 -7.30013,-19.87284 -26.66596,-43.89238 -43.03094,-53.37154 -7.48479,-4.33544 -18.23234,-8.24021 -20.40287,-7.41271 -1.21378,0.46274 -1.66419,2.91308 -2.09043,11.37233 -0.53886,10.69435 -1.7786,16.01696 -4.06745,17.46288 -1.42022,0.89718 -13.79469,0.86748 -26.06421,-0.0626 -6.45643,-0.4894 -9.17521,-1.11035 -10.04687,-2.29466 -0.65727,-0.89304 -2.24344,-7.02969 -3.52482,-13.637 -1.28138,-6.6073 -2.90228,-12.48534 -3.60202,-13.0623 -1.63655,-1.34939 -13.31193,2.7379 -21.59074,7.55845 -15.93021,9.27576 -26.49352,20.37045 -34.53261,36.26978 -9.2144,18.2238 -12.61952,29.25986 -14.56295,47.19892 -1.90332,17.56866 0.57561,45.25421 5.65695,63.17884 2.31696,8.17313 8.52785,20.89379 10.20146,20.89379 0.79777,0 3.09264,-1.28672 5.0997,-2.85938 6.94914,-5.44508 13.56836,-9.0799 16.53507,-9.0799 2.23312,0 4.08379,1.14454 7.38439,4.56685 6.70495,6.95218 8.26307,10.04844 8.26736,16.42854 0.006,9.54359 -6.57282,16.20015 -16.01194,16.20015 -6.39872,0 -10.99633,-3.06754 -17.53615,-11.70014 -9.82293,-12.96634 -16.09975,-27.42491 -19.43363,-44.76509 -6.23351,-32.42188 -4.7928,-62.8757 4.02093,-84.99473 9.10012,-22.83768 19.16285,-37.07618 33.84504,-47.88978 7.81962,-5.75924 22.98298,-13.12812 31.14273,-15.13431 7.67363,-1.88666 43.5632,-1.86466 51.00228,0.0312 14.66919,3.73859 26.83566,10.65724 37.69624,21.43655 23.49551,23.31965 34.56173,48.14178 36.17808,81.14943 0.96339,19.67367 -2.23193,39.141 -10.13413,61.74163 -4.78684,13.69058 -21.52286,40.49021 -27.45931,43.97099 -3.94109,2.31082 -10.72848,2.20436 -15.71199,-0.24647 z m 14.80273,-2.96817 c 2.65362,-2.07377 8.76402,-10.90475 8.76402,-12.6661 0,-1.54466 -15.31384,-11.23144 -17.75578,-11.23144 -3.30412,0 -9.07557,7.39556 -9.86788,12.64474 -0.86111,5.70494 0.53852,8.64852 5.29911,11.1446 4.93067,2.58527 10.33567,2.62839 13.56053,0.1082 z M 314.43426,521.2426 c 3.90446,-1.5329 6.76865,-6.63819 6.76865,-12.06482 0,-3.74801 -0.65879,-5.34091 -3.86055,-9.33451 -5.6883,-7.09512 -7.70565,-8.63407 -10.36979,-7.91069 -3.68757,1.00127 -17.81612,11.4603 -17.81612,13.18887 0,1.84083 5.57758,9.60793 9.67955,13.47933 5.04972,4.76586 8.63947,5.37384 15.59826,2.64182 z m 68.60677,-169.8081 c 1.86273,-1.17511 3.38134,-10.99935 3.04878,-19.72325 l -0.29326,-7.69277 -3.40767,-0.87433 c -5.02834,-1.29017 -33.77554,-0.5167 -35.24675,0.94834 -0.92525,0.92137 -0.68312,3.83751 1.07395,12.93425 1.24769,6.45958 2.7041,12.28476 3.23646,12.94485 1.378,1.70864 29.15954,2.99524 31.58849,1.46291 z m -96.68864,59.32183 c -2.99848,-2.97898 0.40599,-7.68054 4.08174,-5.63686 2.89646,1.61041 1.53733,6.83079 -1.7784,6.83079 -0.60588,0 -1.64238,-0.53726 -2.30334,-1.19393 z m 148.98646,-1.32881 c -1.81959,-2.17823 -0.0626,-4.93932 3.14307,-4.93932 1.9929,0 2.39448,0.50058 2.39448,2.98482 0,2.26847 -0.50173,3.05605 -2.09054,3.28158 -1.14979,0.16321 -2.70095,-0.43397 -3.44701,-1.32708 z M 293.20219,388.61691 c -2.08538,-2.4964 -0.84624,-5.02251 2.4637,-5.02251 2.06926,0 3.08266,0.54545 3.3237,1.78895 0.39761,2.05123 -1.46874,4.67817 -3.3237,4.67817 -0.69131,0 -1.79998,-0.65007 -2.4637,-1.44461 z m 137.0893,-5.1059 c -0.95427,-1.14235 -1.02733,-2.03182 -0.26565,-3.23356 1.49351,-2.35635 4.48757,-2.6731 5.98867,-0.63356 2.77967,3.77672 -2.7035,7.48177 -5.72302,3.86712 z m -125.6295,-18.37614 c -0.43805,-1.37121 -0.14483,-2.69991 0.80382,-3.6424 2.3744,-2.35896 5.91153,-0.73621 5.53044,2.53723 -0.41521,3.56659 -5.27694,4.41485 -6.33426,1.10517 z m 111.64928,-1.4747 c -1.8196,-2.17823 -0.0626,-4.93932 3.14307,-4.93932 1.99289,0 2.39448,0.50058 2.39448,2.98483 0,2.26846 -0.50173,3.05604 -2.09054,3.28157 -1.14979,0.16321 -2.70095,-0.43397 -3.44701,-1.32708 z m -15.68375,-13.03409 c -0.82845,-2.14488 0.95061,-4.83948 3.19516,-4.83948 0.98154,0 2.24345,0.72265 2.80423,1.60591 1.52995,2.4097 0.11577,4.86121 -2.80423,4.86121 -1.45226,0 -2.83942,-0.70662 -3.19516,-1.62764 z m -76.38033,-0.81192 c -2.08538,-2.4964 -0.84623,-5.0225 2.46371,-5.0225 2.06926,0 3.08265,0.54544 3.32369,1.78894 0.39762,2.05124 -1.46873,4.67818 -3.32369,4.67818 -0.69132,0 -1.79998,-0.65007 -2.46371,-1.44462 z"
           id="path3877"
           style="fill:#000000;stroke:none" />
      </g>
    </g>
  </g>
</svg>
