<?xml version="1.0" encoding="UTF-8" standalone="no"?>
<!-- Created with Inkscape (http://www.inkscape.org/) -->

<svg
   version="1.1"
   id="svg2"
   width="290.17334"
   height="334.88"
   viewBox="0 0 290.17334 334.88"
   sodipodi:docname="commune-saillon-blason-CMJN.svg"
   inkscape:version="1.2.1 (9c6d41e410, 2022-07-14)"
   xmlns:inkscape="http://www.inkscape.org/namespaces/inkscape"
   xmlns:sodipodi="http://sodipodi.sourceforge.net/DTD/sodipodi-0.dtd"
   xmlns="http://www.w3.org/2000/svg"
   xmlns:svg="http://www.w3.org/2000/svg">
  <defs
     id="defs6" />
  <sodipodi:namedview
     id="namedview4"
     pagecolor="#ffffff"
     bordercolor="#000000"
     borderopacity="0.25"
     inkscape:showpageshadow="2"
     inkscape:pageopacity="0.0"
     inkscape:pagecheckerboard="0"
     inkscape:deskcolor="#d1d1d1"
     showgrid="false"
     inkscape:zoom="1.2885212"
     inkscape:cx="242.91413"
     inkscape:cy="199.45345"
     inkscape:window-width="1920"
     inkscape:window-height="1017"
     inkscape:window-x="-8"
     inkscape:window-y="-8"
     inkscape:window-maximized="1"
     inkscape:current-layer="g12">
    <inkscape:page
       x="0"
       y="0"
       id="page8"
       width="290.17334"
       height="334.88" />
  </sodipodi:namedview>
  <g
     id="g10"
     inkscape:groupmode="layer"
     inkscape:label="Page 1"
     transform="matrix(1.3333333,0,0,-1.3333333,0,334.88)">
    <g
       id="g12"
       transform="scale(0.1)">
      <g
         id="g1699">
        <path
           style="fill:#ffffff;stroke-width:1.46661"
           d="m 4.4834958,118.54675 c 0.2132341,37.68669 -1.7572773,72.70162 -1.2083807,110.34328 4.4310857,20.92553 18.6441789,46.50321 37.0812249,57.90616 14.596121,8.96668 32.343195,14.04812 47.90948,21.05132 19.05259,7.78801 37.96198,17.15149 57.24983,24.32682 32.69951,-13.36682 68.55014,-28.6369 100.87872,-42.86345 20.66046,-11.24556 37.73782,-34.72759 40.68726,-58.25022 1.69333,-38.37711 -0.3513,-76.82415 0.0462,-115.23019 0.0841,-36.540605 -0.65494,-74.727526 -0.57084,-111.2681239 L 4.2470328,4.0135722 Z"
           id="path1599"
           transform="matrix(7.5000002,0,0,-7.5000002,0,2511.6001)"
           sodipodi:nodetypes="ccccccccccc" />
      </g>
      <path
         d="m 1335.58,1819.25 c -60.85,8.38 -136.11,14.07 -246.2,14.11 v -91.51 c 94.5,-0.04 177.85,-3.95 246.2,-8.99 v 86.39"
         style="fill:#231f20;fill-opacity:1;fill-rule:nonzero;stroke:none"
         id="path14" />
      <path
         d="m 1210.06,1460.17 c 35.85,0.67 71.06,1.57 104.28,2.57 v 106.37 c -31.91,0.53 -66.79,1 -104.28,1.34 v -110.28"
         style="fill:#231f20;fill-opacity:1;fill-rule:nonzero;stroke:none"
         id="path16" />
      <path
         d="m 1134.98,1381.77 v 197 h -69.47 v -197 h 69.47"
         style="fill:#231f20;fill-opacity:1;fill-rule:nonzero;stroke:none"
         id="path18" />
      <path
         d="m 1255.62,1433.71 c -15,-0.36 -30.22,-0.68 -45.56,-0.97 V 1331.82 H 966.277 v 100.92 c -25.886,0.48 -51.441,1.09 -76.164,1.76 v -145.86 c 58.301,-1.39 125.037,-2.36 198.057,-2.36 60.57,0 116.75,0.67 167.45,1.69 v 145.74"
         style="fill:#231f20;fill-opacity:1;fill-rule:nonzero;stroke:none"
         id="path20" />
      <path
         d="m 898.23,1597.09 c 21.59,0.3 44.27,0.57 68.047,0.78 v 80.42 h 243.783 v -80.42 c 15.71,-0.14 30.79,-0.31 45.56,-0.49 v 112.92 c -50.49,2.49 -106.61,4.12 -167.45,4.12 -70.05,0 -133.857,-2.15 -189.94,-5.31 v -112.02"
         style="fill:#231f20;fill-opacity:1;fill-rule:nonzero;stroke:none"
         id="path22" />
      <path
         d="m 985.684,1259.49 v -128.76 c 32.506,-0.68 66.706,-1.08 102.486,-1.08 26.5,0 52.12,0.22 76.87,0.61 v 128.95 c -24.75,-0.22 -50.38,-0.36 -76.87,-0.36 -35.76,0 -69.97,0.24 -102.486,0.64"
         style="fill:#231f20;fill-opacity:1;fill-rule:nonzero;stroke:none"
         id="path24" />
      <path
         d="M 1180.82,1650.46 H 995.516 V 1357.9 h 17.424 l 33.31,29.87 v 209.99 h 95.29 l 39.28,52.7"
         style="fill:#231f20;fill-opacity:1;fill-rule:nonzero;stroke:none"
         id="path26" />
      <path
         d="m 1192.45,1130.77 c 52.76,1.12 100.83,2.98 143.13,5.14 v 126.63 c -42.36,-1.27 -90.42,-2.37 -143.13,-3.03 v -128.74"
         style="fill:#231f20;fill-opacity:1;fill-rule:nonzero;stroke:none"
         id="path28" />
      <path
         d="m 878.863,971.84 c 51.27,-4.262 109.492,-7.481 173.117,-8.391 v 138.921 c -63.523,0.47 -121.734,2.11 -173.117,4.31 V 971.84"
         style="fill:#231f20;fill-opacity:1;fill-rule:nonzero;stroke:none"
         id="path30" />
      <path
         d="m 1263.74,969.262 v 136.088 c -52.84,-1.88 -111.81,-3.13 -175.57,-3.13 -2.96,0 -5.85,0.02 -8.78,0.02 V 963.199 c 2.93,-0.008 5.82,-0.039 8.78,-0.039 63.84,0 122.83,2.43 175.57,6.102"
         style="fill:#231f20;fill-opacity:1;fill-rule:nonzero;stroke:none"
         id="path32" />
      <path
         d="m 604.52,800.949 1.789,1.391 c 52.308,-12.231 261.386,-57.61 481.861,-57.61 220.47,0 429.55,45.379 481.86,57.61 l 1.79,-1.391 1.56,-25.551 c -57.75,-13.359 -265.84,-57.679 -485.21,-57.679 -219.377,0 -427.463,44.32 -485.213,57.679 z m 107.281,190.84 c 34.64,-5.539 81.969,-12.09 139.652,-17.527 v 133.658 c -52.277,2.53 -96.203,5.54 -130.23,8.23 l 2.07,27.34 c 17.125,-1.36 36.777,-2.79 58.82,-4.21 v 125.24 c -18.125,0.69 -34.601,1.38 -49.496,2.05 l 2.071,27.36 c 34.32,-1.54 77.519,-3.2 128.011,-4.58 v 145.93 c -43.402,1.29 -83.32,2.76 -116.988,4.11 l 2.07,27.36 c 15.797,-0.63 32.907,-1.29 51.172,-1.94 v 103.08 c -15.637,-0.35 -30.109,-0.7 -43.59,-1.05 l 2.082,27.48 c 32.024,0.82 70.071,1.65 113.371,2.35 v 110.8 c -39.949,-2.59 -75.211,-5.63 -105.457,-8.67 l 2.106,27.76 c 13.961,1.37 28.832,2.75 44.812,4.07 v 84.33 c -13.648,-2.2 -26.562,-4.56 -39.234,-6.97 l 1.848,27.75 c 82.293,15.23 166.101,24.64 313.279,24.64 147.17,0 230.98,-9.41 313.28,-24.64 l 1.85,-27.75 c -13.01,2.48 -26.27,4.89 -40.31,7.14 v -84.4 c 16.38,-1.36 31.61,-2.76 45.89,-4.17 l 2.1,-27.77 c -35.8,3.59 -78.76,7.2 -127.95,10.04 v -111.81 c 52.77,-0.76 98.38,-1.74 135.86,-2.7 l 2.09,-27.48 c -23.23,0.61 -49.75,1.21 -79.23,1.78 v -105.03 c 31.77,1.04 61.08,2.13 86.81,3.16 l 2.07,-27.36 c -41.46,-1.67 -92.43,-3.5 -147.6,-4.98 v -145.84 c 63.84,1.5 117.54,3.52 158.62,5.36 l 2.07,-27.36 c -23.08,-1.04 -50.07,-2.13 -80.73,-3.16 v -126.02 c 35.01,2 65.19,4.14 90.06,6.1 l 2.07,-27.34 c -41.12,-3.25 -96.8,-6.97 -163.97,-9.74 V 971.32 c 72.94,5.871 132.22,13.891 173.39,20.461 l 2.07,-27.422 c -76.32,-12.097 -211.08,-28.621 -378.44,-28.621 -167.365,0 -302.123,16.524 -378.447,28.621 z M 750,1932.49 c -11.191,-2.44 -22.398,-4.88 -33.77,-7.28 -2.347,0.72 -4.109,2.85 -4.039,5.51 l 0.414,21.33 c 10.633,2.25 21.157,4.54 31.641,6.83 85.352,18.61 173.609,37.88 343.924,37.88 170.3,0 258.56,-19.27 343.91,-37.88 10.49,-2.29 21.02,-4.57 31.65,-6.83 l 0.42,-21.33 c 0.07,-2.66 -1.69,-4.79 -4.04,-5.51 -11.38,2.4 -22.59,4.84 -33.79,7.28 -83.95,18.31 -170.76,37.26 -338.15,37.26 -167.4,0 -254.217,-18.95 -338.17,-37.26 z M 1088.17,487.461 c 257.99,0 500.65,61.09 503.07,61.711 l 17.32,4.406 -1.09,17.844 -14.09,230.848 -0.59,9.781 -7.75,5.988 -87.63,67.813 c 17.05,3.269 28.47,19.519 25.59,36.726 -2.74,16.32 -17.48,27.524 -33.56,26.512 l -60.3,795.93 -5.77,86.7 c 7.54,-1.2 15.03,-2.39 22.78,-3.69 18.03,-2.96 34.98,9.11 38,27.09 3.02,17.95 -9.11,34.98 -27.07,38 -1.22,0.2 -2.37,0.37 -3.57,0.58 3.52,4.33 6.59,7.81 8.81,9.85 5.92,0.85 11.49,3.65 15.69,7.96 5.11,5.24 7.93,12.45 7.73,19.78 l -4.62,237.46 c -0.3,11.67 -7.84,21.81 -18.76,25.38 -16.3,5.33 -57.81,17.94 -91.13,20.04 l -0.68,0.04 -1.02,0.01 c -7.29,0 -14.38,-3.01 -19.48,-8.26 -4.98,-5.15 -7.73,-11.93 -7.72,-19.1 v -48.31 l -130.9,19.86 v 55.98 c 0,31.17 -23.13,45.36 -44.62,45.36 h -78.64 -78.65 c -21.485,0 -44.614,-14.19 -44.614,-45.36 v -55.98 l -130.894,-19.86 v 48.32 c 0,15.08 -12.199,27.35 -27.196,27.35 h -0.675 l -1.02,-0.05 c -33.332,-2.1 -74.84,-14.71 -91.141,-20.04 -10.921,-3.57 -18.464,-13.71 -18.761,-25.24 l -4.629,-237.75 c -0.188,-7.18 2.633,-14.39 7.738,-19.63 4.203,-4.31 9.774,-7.11 15.688,-7.96 2.222,-2.04 5.293,-5.52 8.82,-9.85 -1.211,-0.21 -2.359,-0.38 -3.57,-0.58 -17.973,-3.02 -30.09,-20.05 -27.071,-38 2.703,-16.13 16.672,-27.55 32.496,-27.55 1.813,0 3.653,0.16 5.504,0.46 7.743,1.3 15.235,2.49 22.778,3.69 l -5.793,-86.9 -60.278,-795.718 c -16.144,1.019 -30.824,-10.204 -33.566,-26.524 -2.887,-17.207 8.543,-33.457 25.594,-36.726 l -87.633,-67.813 -7.746,-5.988 -0.598,-9.781 -14.086,-230.848 -1.09,-17.844 17.317,-4.406 c 2.422,-0.621 245.09,-61.711 503.076,-61.711"
         style="fill:#231f20;fill-opacity:1;fill-rule:nonzero;stroke:none"
         id="path34" />
      <path
         d="m 1061.97,1833.22 c -97.204,-0.84 -165.986,-6.33 -222.279,-14.12 v -86.33 c 62.465,4.63 137.539,8.33 222.279,8.98 v 91.47"
         style="fill:#231f20;fill-opacity:1;fill-rule:nonzero;stroke:none"
         id="path36" />
      <path
         d="m 966.277,1570.44 c -51.922,-0.47 -98.98,-1.18 -139.91,-1.98 v -104.6 c 43.141,-1.43 90.918,-2.77 139.91,-3.69 v 110.27"
         style="fill:#231f20;fill-opacity:1;fill-rule:nonzero;stroke:none"
         id="path38" />
      <path
         d="m 958.27,1259.87 c -55.77,0.87 -105.813,2.21 -148.743,3.67 v -125.93 c 42.844,-2.48 92.887,-4.76 148.743,-6.23 v 128.49"
         style="fill:#231f20;fill-opacity:1;fill-rule:nonzero;stroke:none"
         id="path40" />
      <path
         d="m 2131.47,870.031 c 0,-237.492 -141.89,-449.5 -361.44,-540.109 L 1088.18,48.5391 406.336,329.922 C 186.762,420.531 44.8672,632.539 44.8672,870.031 V 2466.73 H 2131.47 Z M 0,2511.65 V 870.031 C 0,614.301 152.766,385.961 389.215,288.391 L 1088.18,0 1787.15,288.391 c 236.42,97.57 389.19,325.91 389.19,581.64 V 2511.65 H 0"
         style="fill:#231f20;fill-opacity:1;fill-rule:nonzero;stroke:none"
         id="path42" />
    </g>
  </g>
</svg>
