<?xml version="1.0" encoding="UTF-8"?>
<svg width="608" height="768"  xmlns="http://www.w3.org/2000/svg">
 <path d="M4 4v458.9A300.6 300.6 0 0 0 304 764c165.7 0 300-134.8 300-301.1V4z" fill="#fcdb00" stroke="none"/>
 <g stroke="#000">
 <g stroke-width="4">
  <path d="m4 4 512.1 671.8a300.8 300.8 0 0 0 87.9-213V4.1z" fill="#1c63b7" stroke-linejoin="bevel"/>
  <path d="M304 565.7c-51 0-65 46.4-58.6 77.3 0 0-44.8-39.1-81.3 3.1-22.3 25.7-17.8 55.9-4.7 80.6A297.7 297.7 0 0 0 304 764c52.4 0 101.7-13.5 144.6-37.3 13-24.7 17.6-55-4.7-80.6-36.5-42.2-81.3-3.1-81.3-3.1 6.3-31-7.5-77.3-58.6-77.3z" fill="#00a94d"/>
  <path d="m287.5 442.3 22-6c8.8 12.5 24.6 30.5 40 33.5 12.5 2.5 31.6 8.8 37.7 6.7-7.4-7.8-1.4-12 1.4-16.8 4 3.1 7.3 6 11.5 8.2 5.9 3 13 2.9 19.5 2.6-5.4-6.4-3.9-10.1 1.3-12.1 7 1 13.3.8 19-.5-1-1.6-4.4-3.3-4-5.4a69.4 69.4 0 0 0 33.4-14c-16.5-2.5-38-19.6-34.6-24.6 17.4 1 28.8-4.4 39.3-10.8-8.7-1-12-7-16-12 8.8-.8 17.7-.8 25-3.7 7.3-3 9-9.3 10-15-6.4.9-11.8-1.2-16.9-3.8 13.6-.2 33.2-25.8 29.8-38-8 2.2-15.8 2.6-23.3-.5a78 78 0 0 1 23.8-25.5 24 24 0 0 1-14.7 0c-.9-8.3 13.6-32 16.4-35.4-5.4 2.5-11 4.5-16.8 4.8l.8-15.1c2-12.3 11-24.5 22-36.7-16.7-1.7-35.1 14.9-45.7 18.1-7.3-2.5-5.1-10.4-4.8-17.3-5.7 5-12.7 9.4-17.7 14.7-5.2 5.7-8.6 12.3-17.7 16.4-4.6-5.3-3.1-10.6-2.2-16-14.7 12.8-29.9 25.1-38 44.5-6.7-22.4 1-39 29.8-52.6-7.2-.7-15.2-.3-19.2-5.3-4.8-13.5.2-20.8 4.3-28.8-5.8.5-12.3 3-16-3.2-1.2-15.5 3.3-27.5 7.7-39.7-7.9 4.3-12.9 10.2-18.5 3.4-2.8-9-5.4-18.3-6-30.7-3.5 8.3-13.4 8.7-18.3 10.6-4.2-12.7-1.2-28.1-.8-40.9a34.8 34.8 0 0 1-21.6 15.4c-4-8.5-1.2-21.8-5.3-30.3-4-8.5-15-12.3-20.1-20.8-5 8.5-16 12.3-20.1 20.8-4 8.5-1.3 21.8-5.3 30.3-7.1-1-16.8-7.5-21.6-15.4.4 12.8 3.4 28.2-.8 41-5-2-14.8-2.4-18.4-10.7-.5 12.4-3 21.7-5.9 30.7-5.6 6.8-10.6.9-18.5-3.4 4.4 12.2 9 24.2 7.7 39.7-3.7 6.1-10.2 3.7-16 3.2 4 8 9.1 15.3 4.3 28.8-4 5-12 4.6-19.2 5.3 28.8 13.7 36.5 30.2 29.8 52.6-8.1-19.4-23.3-31.7-38-44.4 1 5.3 2.4 10.6-2.2 16-9-4.2-12.5-10.8-17.7-16.5-5-5.3-12-9.6-17.7-14.7.3 6.9 2.5 14.8-4.8 17.3-10.6-3.2-29-19.8-45.7-18.1 11 12.2 20 24.4 22 36.7l.8 15a46.6 46.6 0 0 1-16.8-4.7c2.8 3.4 17.3 27.1 16.4 35.4a24 24 0 0 1-14.7 0 78 78 0 0 1 23.8 25.5c-7.5 3-15.4 2.7-23.3.5-3.4 12.2 16.2 37.8 29.8 38a27.8 27.8 0 0 1-16.9 3.8c1 5.7 2.7 12 10 15s16.2 2.9 25 3.6c-4 5.2-7.3 11.1-16 12.1a63.2 63.2 0 0 0 39.3 10.8c3.4 5-18 22-34.6 24.7 5 5 21.1 12.7 33.4 13.9.4 2.1-3 3.8-4 5.4 5.7 1.3 12 1.5 19 .5 5.2 2 6.7 5.7 1.3 12 6.5.4 13.6.5 19.5-2.5 4.2-2.3 7.6-5 11.5-8.2 2.8 4.7 8.8 9 1.4 16.8 6.1 2 25.5-2.9 37.8-6.7 13.6-4.2 20.8-18.4 28.9-27.5z" fill="#00a94d" fill-rule="evenodd"/>
  <path d="M268.1 137.7c14.8 17.5 32 26 60-4m-84 43c19.2 23 51 69.2 104-4m-111 69c55.5 93 84.4 45.7 115 7m-214 53.9c17.7.3 38.7 6 36-46m-16 92c24.4-8.5 68.5 20.9 48-74m-15 147c31.7-19.3 75-21.8 66-101m7.7-7.7c15.2 17 17.6 59 85-1.4m26.7-6.8c-18.3 39.4-16.4 62.6 55.4 46.1m-20.8 57.8c-101.8 16.9-77.8-28.8-73-65m91-85.9c-20 46.5 4.7 43 29 40m-202 134.9c17.3-5.6 26.2-18.2 25.6-38" fill="none"/>
  <path d="M309.5 436c1.4 50 15 98.7 112.1 98.7l-40.7 25.6c-47.2-25.7-85.2-59.3-93.4-118-53-51-100.5-114.3-150.8-173.5 51.3 51.5 100.4 106.5 154.4 151.7.5-99.3 4.9-200.8 6-307.5 7.4 97.3 10.9 200.7 6 307.5 58-37.1 105-97.3 154.5-151.7-47.3 64.2-87.2 120-148 167.2z" fill="#00a94d" />
 </g>
 <path d="M4 4v458.9A300.6 300.6 0 0 0 304 764c165.7 0 300-134.8 300-301.1V4z" fill="none" stroke-width="7"/>
 </g>
</svg>
