<?xml version="1.0" encoding="UTF-8"?>
<svg width="406.52" height="492.83" version="1.1" viewBox="-176.12 -213.83 406.52 492.83" xmlns="http://www.w3.org/2000/svg" xmlns:xlink="http://www.w3.org/1999/xlink">
 <path d="m27.018-212.31h201.87v296.7c0 106.63-90.328 193.07-201.74 193.07-111.43 0-201.75-86.438-201.75-193.07v-296.7z" fill="#f00000"/>
 <defs>
  <path id="a" d="M-176.12-213.83H230.4V279h-406.52z"/>
 </defs>

 <path d="m27.018-212.31h201.87v296.7c0 106.63-90.328 193.07-201.74 193.07-111.43 0-201.75-86.438-201.75-193.07v-296.7z" clip-path="url(#b)" fill="none" stroke="#000" stroke-width="3.048"/>
 <path d="M158.78-163.86c.002.003.003.009.006.012v-.012zm.006.012a41.81 41.81 0 0 1-.474 10.309c-.669 3.894-1.89 7.673-3.316 11.358-2.045 5.283-4.55 10.432-7.954 14.96-2.247 2.988-4.878 5.694-7.855 7.955-2.158 1.638-4.494 3.042-6.532 4.826a22.881 22.881 0 0 0-5.383 6.97 78.343 78.343 0 0 1 1.312-14.544c-.52.87-1.158 1.668-1.892 2.367-1.386 1.32-3.086 2.265-4.545 3.503-1.091.925-2.04 2.005-2.935 3.122-3.737 4.66-6.617 9.992-8.616 15.622-1.396 3.93-2.37 8.043-2.46 12.213a29.683 29.683 0 0 0 2.079 11.55 29.894 29.894 0 0 0 9.753 12.782 24.896 24.896 0 0 0-9.466 7.386c-3.703 4.735-5.593 10.853-5.207 16.852a29.188 29.188 0 0 0-8.142 7.668c-1.858 2.59-3.282 5.482-4.259 8.517A32.814 32.814 0 0 0 91.471-7.27a16.222 16.222 0 0 1-2.554-9.847c.12-1.782.535-3.529.756-5.301a24.355 24.355 0 0 0-.153-7.064 35.484 35.484 0 0 1-2.009 2.548c-1.43 1.65-3.02 3.17-4.288 4.95-2.047 2.877-3.176 6.316-3.883 9.776-1.15 5.63-1.197 11.715 1.341 16.87 1.735 3.522 4.547 6.37 7.228 9.237a176.63 176.63 0 0 1 8.84 10.175c1.632 2.036 3.248 4.181 3.948 6.695.587 2.113.481 4.391-.135 6.496a14.693 14.693 0 0 1-2.741 5.155c-.96 1.17-2.13 2.22-3.55 2.741a7.026 7.026 0 0 1-2.074.404c-2.489.126-4.899-.803-7.234-1.675-2.86-1.069-5.778-2.092-8.3-3.813a17.474 17.474 0 0 1-2.613-2.191 55.218 55.218 0 0 1 0-5.301c.07-1.452.197-2.912 0-4.352-.226-1.659-.874-3.23-1.61-4.733-1.735-3.54-3.985-6.806-5.77-10.321-2.308-4.545-3.81-9.474-4.739-14.486-.537-2.902-.887-5.861-.662-8.804a22.9 22.9 0 0 1 5.02-12.594 12.281 12.281 0 0 0 5.114 1.33 12.272 12.272 0 0 0 5.395-1.043 29.478 29.478 0 0 1-1.986-9.466c-.064-1.52-.018-3.052.275-4.545a14.529 14.529 0 0 1 2.935-6.297 9.97 9.97 0 0 0 4.452 2.653c2.428.68 5.11.381 7.333-.808a21.89 21.89 0 0 1-1.277-7.808 22.026 22.026 0 0 1 4.593-12.97 9.232 9.232 0 0 0 3.643.188 9.293 9.293 0 0 0 4.317-1.845 45.3 45.3 0 0 1-5.87-13.303c1.061.211 2.163.195 3.217-.046a7.738 7.738 0 0 0 3.174-1.564 16.973 16.973 0 0 1-3.034-5.395 16.959 16.959 0 0 1-.896-5.254c1.005-.07 2.004-.23 2.981-.475 1.305-.327 2.59-.822 3.644-1.657.293-.233.574-.5.709-.85.14-.367.1-.784-.036-1.153-.134-.37-.36-.703-.585-1.026-1.277-1.835-2.71-3.556-4.165-5.254-2.78-2.723-4.16-6.032-4.797-9.161 1.773-.382 6.2-2.575 7.21-3.573 1.87-1.85 3.566-3.881 4.973-6.104 1.15-1.814 2.101-3.745 3.029-5.681.518-1.083 1.032-2.171 1.517-3.269.146-.33.291-.658.38-1.007.09-.35.119-.72.042-1.072a2.354 2.354 0 0 0-.37-.82c-.17-.249-.373-.473-.573-.697-.82-.916-1.644-1.83-2.56-2.648-1.583-1.412-3.433-2.51-5.395-3.315-2.486-1.02-5.135-1.733-7.808-1.892s-7.047-.27-7.047-.27 1.086-2.525 2.004-5.067c.917-2.541 1.124-4.619 1.13-7.017-2.499 1.594-4.673 2.005-7.632 2.18-1.417.083-2.854-.007-4.218-.4-1.409-.406-2.708-1.126-4.053-1.71-2.022-.877-4.163-1.455-6.326-1.874-4.48-.867-9.057-1.055-13.62-1.101-4.645-.048-9.32.05-13.893.867-3.58.638-7.066 1.713-10.473 2.981-2.86 1.065-5.68 2.271-8.64 3.011-2.25.562-4.555.85-6.86 1.107-2.763.307-5.534.57-8.264 1.101-1.63.317-3.283.745-4.657 1.675-.734.498-1.386 1.142-1.775 1.94-.422.865-.513 1.85-.568 2.811-.06 1.039-.08 2.092.105 3.116.11.602.292 1.197.633 1.705.356.528.881.943 1.476 1.171.018 2.567-.018 5.132-.105 7.697-.043 1.255-.092 2.529.205 3.749.373 1.533 2.257 5.975 5.63 6.215 1.4 2.73 2.002 4.515 5.212 7.31-3.292-.35-6.595-.572-9.905-.668-3.69-.108-7.406-.062-11.047-.674-1.754-.294-3.498-.742-5.09-1.534-2.19-1.09-4.048-2.822-5.354-4.891-1.65-2.617-2.4-5.702-2.811-8.77a45.48 45.48 0 0 1-.334-8.498 23.587 23.587 0 0 0-8.904 7.093c-1.865 2.438-3.265 5.314-3.55 8.37-.36 3.871.71 7.893 2.707 11.23a18.168 18.168 0 0 0 6.666 6.443c2.606 1.442 5.656 1.847 8.634 1.939 2.836.087 5.678-.086 8.505-.334 3.212-.282 6.42-.657 9.641-.803 2.03-.091 7.437.143 9.466.234-1.614 1.77-1.935 2.943-2.864 5.056-1.699-.06-3.628-.454-4.557-.123-.98.348-1.448.689-1.963 1.593-.46.81-.652 1.751-.662 2.683-.009.931.152 1.854.375 2.759.411 1.663 1.03 3.3 2.039 4.686.965 1.325 2.27 2.393 3.737 3.128 1.994.998 4.26 1.383 6.49 1.37 1.95-.012 3.883-.318 5.822-.521a55.143 55.143 0 0 1 4.4-.281 7.43 7.43 0 0 1-2.39 3.462 7.438 7.438 0 0 1-3.896 1.593c-1.049.105-2.107-.015-3.145-.2-2.64-.47-5.194-1.362-7.633-2.477-3.047-1.392-5.956-3.145-9.173-4.083-11.195-3.437-29.01-2.833-38.426 2.209-2.905 1.655-5.502 3.86-7.562 6.496-1.66 2.124-2.96 4.507-4.082 6.958a58.642 58.642 0 0 0-2.209 5.56 49.637 49.637 0 0 1-12.605.743c-4.35-.3-8.66-1.181-12.78-2.607a24.623 24.623 0 0 0-1.043-4.024c-.6-1.706-1.41-3.373-2.654-4.686-1.702-1.795-4.103-2.789-6.531-3.262A19.097 19.097 0 0 0-93.1-72.5a17.313 17.313 0 0 1-11.123-.287c-1.458-.541-2.832-1.276-4.259-1.892-2.22-.959-4.589-1.63-7.005-1.705-1.674-.05-3.362.188-4.933.768-1.57.58-3.022 1.506-4.158 2.735-3.266 4.653-2.422 7.698-1.164 11.306-3.564 1.758-5.74 4.188-6.691 7.819-.539 2.104-.85 4.34-.287 6.437a8.127 8.127 0 0 0 3.502 4.733h.006c-1.4 3.26-1.414 7.09-.04 10.362a13.484 13.484 0 0 0 2.81 4.218c1.266 1.287 2.782 2.318 4.418 3.08 2.789 1.301 5.897 1.82 8.973 1.875 2.66.047 5.327-.246 7.896-.937 2.943-.792 5.722-2.097 8.435-3.485 2.391-1.224 4.825-2.544 7.498-2.812 2.107-.211 4.22.254 6.297.674a211.88 211.88 0 0 0 10.842 1.874 322.729 322.729 0 0 0 16.6 2.003c4.634.445 9.275.803 13.923 1.072a45.561 45.561 0 0 1-7.176 3.474c-2.645 1.004-5.379 1.76-8.142 2.366-4.972 1.093-10.057 1.707-15.148 1.705-4.38-.002-8.757-.457-13.068-1.23-2.345-.42-4.673-.938-7.005-1.424-2.856-.594-5.724-1.144-8.617-1.511-4.337-.55-8.76-.681-13.062.094-2.52.453-5.03 1.24-7.1 2.747-2.29 1.668-3.945 4.216-4.451 7.005-.586 3.23.02 5.98 2.232 8.403-1.626.587-2.63 2.504-3.48 4.01-1.117 1.98-1.246 4.356-1.27 6.63-.016 1.44.005 2.899.403 4.282a8.049 8.049 0 0 0 2.296 3.696 8.04 8.04 0 0 0 3.89 1.945 8.004 8.004 0 0 0-.234 4.405c.586 2.533 2.417 4.66 4.639 6.01 1.958 1.189 4.212 1.834 6.49 2.08 2.278.245 4.586.106 6.86-.183 4.303-.545 8.514-1.624 12.727-2.653 3.578-.874 7.208-1.732 10.462-3.456 2.227-1.18 4.23-2.738 6.203-4.305 1.532-1.216 3.071-2.454 4.827-3.316 1.496-.734 3.13-1.18 4.786-1.37 1.208-.14 2.426-.147 3.643-.147 7.826-.001 15.651.094 23.477 0 4.39-.053 8.783-.16 13.162-.468 2.616-.184 5.228-.439 7.831-.762a31.132 31.132 0 0 0 4.417 9.636c2.044 2.98 4.608 5.597 7.498 7.767 2.793 2.097 5.89 3.786 8.57 6.027a26.45 26.45 0 0 1 7.227 9.636 41.124 41.124 0 0 1-6.29 5.225C2.525 53.35-.205 54.773-3.135 55.54c-2.664.697-5.436.833-8.165 1.2-5.175.696-10.253 2.228-14.861 4.686-5.066 2.703-9.509 6.499-13.256 10.848a56.56 56.56 0 0 0-4.352 5.758 19.284 19.284 0 0 0-10.842 5.419c-3.025 3.028-4.962 7.01-6.163 11.118a38.835 38.835 0 0 0-1.066 4.75 17.218 17.218 0 0 1 6.69-4.282 17.23 17.23 0 0 1 6.496-.937 39.133 39.133 0 0 0-6.227 9.103c-1.663 3.373-2.845 7.024-3.081 10.778-.259 4.114.615 8.202 1.406 12.248.374 1.915.732 3.835 1.072 5.758a92.016 92.016 0 0 1 4.352-11.516c1.945-4.262 4.274-8.447 7.697-11.645a22.422 22.422 0 0 1 6.63-4.288 88.394 88.394 0 0 1-.667 13.859c-.54 4.237-1.42 8.515-3.486 12.254-1.77 3.205-4.36 5.901-7.292 8.095a34.134 34.134 0 0 1-14.661 6.297c-.145-3.501-.19-7.01-.135-10.514.032-1.986.093-3.971.065-5.957-.015-1.058-.058-2.125-.334-3.146-.504-1.864-1.938-3.28-3.011-4.885-3.693-5.522-6.772-5.572-11.071-7.966-.642 5.836-1.315 7.69-1.183 10.04l-5.354 4.82a14.067 14.067 0 0 0-5.822-5.623 14.04 14.04 0 0 0-6.227-1.54 20.424 20.424 0 0 0-10.643-2.677c-3.738.102-7.42 1.25-10.643 3.145a24.683 24.683 0 0 0-7.1 6.291 43.767 43.767 0 0 1 16.87 5.225 12.68 12.68 0 0 0-1.669 5.085c-.44 4.185 1.372 8.543 4.65 11.182a8.99 8.99 0 0 0-1.71.937 8.932 8.932 0 0 0-1.57 1.406 21.536 21.536 0 0 0-4.287.568c-2.793.662-5.464 1.903-7.662 3.749-2.46 2.065-4.258 4.824-5.623 7.732a35.24 35.24 0 0 0-2.477 7.228 18.16 18.16 0 0 1 5.687-3.749 18.289 18.289 0 0 1 11.985-.668 16.764 16.764 0 0 0 6.76 5.02c2.497 1.008 5.21 1.4 7.902 1.476 2.508.07 5.022-.128 7.497-.539 1.315-.218 2.62-.498 3.948-.603.444-.035.894-.047 1.33.041.436.09.86.294 1.148.633.22.26.354.584.41.92.056.335.04.681-.006 1.019-.138 1.016-.552 1.972-.873 2.946-.418 1.273-.683 2.654-.333 3.948.202.751.605 1.443 1.113 2.032.507.59 1.117 1.083 1.763 1.518 1.85 1.243 3.982 1.987 6.027 2.876.952.413 1.89.862 2.812 1.341a9.748 9.748 0 0 1-.604 3.415 9.859 9.859 0 0 1-4.955 5.424 22.033 22.033 0 0 0 8.036.867c2.587-.2 5.197-.888 7.299-2.407 2.387-1.726 3.984-4.503 4.282-7.434a17.738 17.738 0 0 0 3.684-3.479 17.712 17.712 0 0 0 2.273-3.749 15.693 15.693 0 0 0 8.505-2.278c3.266-1.994 5.746-5.233 6.824-8.904a19.788 19.788 0 0 0 9.173-1.74c3.097-1.408 5.828-3.647 7.697-6.49a16.84 16.84 0 0 0 1.675-3.28 14.556 14.556 0 0 0 9.84-3.55c3.353-2.927 5.217-7.475 4.886-11.914a29.096 29.096 0 0 0 4.756-1.341c1.69-.636 3.353-1.457 4.616-2.747.969-.99 1.666-2.22 2.144-3.52.478-1.3.746-2.67.937-4.042.658-4.715.42-9.502.2-14.257-.107-2.3-.2-4.673.603-6.83.906-2.438 2.851-4.321 4.756-6.092 1.826-1.698 3.67-3.375 5.418-5.155a64.866 64.866 0 0 0 3.35-3.684 13.922 13.922 0 0 0 6.696 3.081c2.03.336 4.105.225 6.156.404 2.862.251 5.703 1.094 8.101 2.677 1.671 1.103 3.132 2.588 3.948 4.417 1.021 2.29.955 4.951.27 7.363a15.501 15.501 0 0 1-4.288 7.029c1.567.29 3.19.29 4.756 0 2.362-.436 4.589-1.528 6.426-3.075A14.964 14.964 0 0 0 61 111.234a26.2 26.2 0 0 1 5.155 4.891 26.013 26.013 0 0 1 4.217 7.562c1.048 2.955 1.549 6.073 2.01 9.173.304 2.051.591 4.102.866 6.157.508-.8 1.048-1.582 1.611-2.343 1.146-1.551 2.402-3.017 3.48-4.616a25.225 25.225 0 0 0 4.141-11.328c2.91.575 5.73 1.6 8.33 3.028 3.889 2.138 7.263 5.17 9.94 8.71 2.113 2.796 3.807 5.926 4.826 9.279.918 3.016 1.28 6.168 1.799 9.278.087.52.18 1.038.205 1.564.024.526-.024 1.063-.205 1.558-.243.665-.714 1.222-1.23 1.705a9.462 9.462 0 0 1-5.179 2.448c-.24-2.027-.599-4.042-1.072-6.027-.392-1.648-.881-3.314-1.874-4.686-1.135-1.569-2.86-2.638-4.686-3.28-2.395-.842-4.967-1.002-7.498-1.207-2.745-.222-5.486-.506-8.235-.668-2.674-.157-5.409-.19-7.967.604-2.93.908-5.468 2.875-7.363 5.289a18.988 18.988 0 0 0-2.876 5.155 27.396 27.396 0 0 1 10.04-.27 7.106 7.106 0 0 1 2.876 3.216 7.095 7.095 0 0 1 .463 4.282 17.868 17.868 0 0 0-5.817 3.749 17.966 17.966 0 0 0-4.96 8.634 9.825 9.825 0 0 0-4.277 4.082c-.812 1.481-1.225 3.15-1.47 4.821a29.766 29.766 0 0 0-.21 6.496c.137 1.872.431 3.729.872 5.553 1.114-2.603 2.711-5 4.686-7.029 1.643-1.69 3.611-3.157 5.893-3.749a9.03 9.03 0 0 1 2.876-.263 12.704 12.704 0 0 0 6.994.21c.893.801 1.637 1.77 2.179 2.841a9.71 9.71 0 0 1 1.036 4.446 14.921 14.921 0 0 0-2.08 7.574c-.001 3.847 1.562 7.672 4.26 10.415a38.417 38.417 0 0 1 8.698-12.7c3.2.103 6.421-.5 9.372-1.745a22.417 22.417 0 0 0 8.968-6.894c-.153 1.702-.502 3.02-1.093 5.797 3.782-.011 12.085-4.426 13.956-9.54a5.2 5.2 0 0 0 2.671 2.314 5.194 5.194 0 0 0 3.532.047c.972-.341 1.833-.974 2.502-1.758.668-.784 1.15-1.717 1.476-2.694.61-1.828.678-3.784 1.042-5.676a18.252 18.252 0 0 1 2.18-5.776 8.63 8.63 0 0 0 6.437-2.934c1.733-2 2.448-4.742 2.366-7.387-.055-1.805-.456-3.588-.474-5.394a12.843 12.843 0 0 1 .849-4.733 20.138 20.138 0 0 0 1.898-10.795 20.105 20.105 0 0 0-3.696-9.654 16.512 16.512 0 0 0-1.705-6.63 16.455 16.455 0 0 0-2.548-3.737c.198-2.904.06-5.826-.404-8.699-.646-3.994-1.955-7.936-4.282-11.247-2.308-3.284-5.58-5.858-9.243-7.498-3.26-1.458-6.793-2.186-10.309-2.811-3.02-.537-6.067-1.012-8.968-2.01-3.033-1.042-5.857-2.641-8.435-4.55a41.581 41.581 0 0 1-7.632-7.363c-1.81-2.25-3.435-4.78-3.884-7.633a10.348 10.348 0 0 1 .54-5.225 94.142 94.142 0 0 0 23.828-2.009c5.563-1.195 11.078-2.92 15.933-5.887 5.042-3.081 9.325-7.554 11.651-12.986 2.414-5.637 2.625-12.029 1.605-18.076-.854-5.063-2.533-9.949-4.416-14.726-2.363-5.991-5.056-11.847-7.498-17.807a229.286 229.286 0 0 1-6.83-19.014 34.326 34.326 0 0 1 7.1-2.677c3.444-.879 7.028-1.218 10.572-.937 3.84.305 7.613 1.337 11.112 2.947 3.364 1.547 6.527 3.669 8.84 6.56 1.01 1.263 1.851 2.669 2.39 4.194.537 1.525.766 3.17.556 4.774-.268 2.04-1.22 3.919-2.144 5.758-1.813 3.61-3.59 7.292-4.417 11.246a24.879 24.879 0 0 0 1.94 15.792 44.778 44.778 0 0 1 5.002-8.827c1.455-2 3.078-3.874 4.844-5.606-5.535 8.21-10.768 18.64-9.777 28.49.422 4.184 2.936 8.71 5.758 11.92.131-3.6.806-7.175 2.004-10.572a35.815 35.815 0 0 1 6.695-11.516 69.361 69.361 0 0 0-2.677 12.453c-.57 4.74-.637 9.634.802 14.187a22.609 22.609 0 0 0 6.696 10.18c3.644 3.166 8.246 5.104 12.986 6.022 4.408.853 8.982.853 13.39 0a35.897 35.897 0 0 1-7.229-5.22c-3.112-2.9-5.717-6.385-7.362-10.309-1.537-3.662-2.218-7.694-1.875-11.65.321-3.704 1.514-7.275 2.94-10.709 1.996-4.801 4.46-9.414 6.163-14.328 1.816-5.239 2.745-10.792 2.677-16.337-.093-7.592-2.226-15.425-7.363-21.017-2.967-3.228-6.866-5.601-11.112-6.695a22.366 22.366 0 0 0-8.3-.539 85.763 85.763 0 0 0-8.172-6.56c-4.376-3.095-9.117-5.808-14.322-7.094-3.622-.894-7.386-1.077-11.118-1.072a113.91 113.91 0 0 0-15.394 1.072 27.513 27.513 0 0 1 4.552-4.153 28.355 28.355 0 0 1 5.758-3.21c3.275-1.36 6.762-2.114 10.175-3.08 6.867-1.946 13.49-4.79 19.547-8.57 6.074-3.792 11.629-8.589 15.534-14.591 2.776-4.268 4.672-9.082 5.752-14.058 1.333-6.144 1.425-12.541.404-18.744a53.392 53.392 0 0 0-2.366-9.179 70.483 70.483 0 0 1-8.804 20.548 70.343 70.343 0 0 1-8.142 10.508 96.853 96.853 0 0 0 7.48-12.213c3.133-6.087 5.651-12.663 5.869-19.506.155-4.875-.881-9.774-2.935-14.199a32.511 32.511 0 0 0-8.329-10.983 39.59 39.59 0 0 1-.38 14.767 41.953 41.953 0 0 1-3.123 9.09 44.8 44.8 0 0 1-10.983 14.487 65.546 65.546 0 0 0 4.64-6.818c2.724-4.602 4.875-9.526 6.624-14.58 1.595-4.607 2.871-9.42 2.654-14.291-.245-5.486-2.362-10.715-4.827-15.622-.752-1.498-1.54-2.98-2.36-4.44zm-131.79 51.224a30.052 30.052 0 0 1 1.81 5.02c.432 1.645.72 3.326.867 5.02a48.52 48.52 0 0 0-11.844-4.147 12.9 12.9 0 0 0 1.406-2.947 12.91 12.91 0 0 0 .533-2.343 9.29 9.29 0 0 0 4.75 4.019 4.846 4.846 0 0 0 1.81-1.74 4.857 4.857 0 0 0 .668-2.882zM15.252-98.191l3.105.392a7.797 7.797 0 0 0-1.108 3.427 11.363 11.363 0 0 0-1.997-3.819zm7.28.68a16.563 16.563 0 0 1 6.86 1.487 4.595 4.595 0 0 1-1.494 3.052 14.469 14.469 0 0 0-5.365-4.54zm86.365 76.323a206.59 206.59 0 0 0 7.193 22.534c2.108 5.493 4.458 10.905 6.063 16.565.925 3.264 1.602 6.653 1.323 10.034-.319 3.873-1.933 7.632-4.545 10.508a17.595 17.595 0 0 1-5.301 3.978 26.398 26.398 0 0 0 2.366-14.011c-.353-3.293-1.325-6.48-2.272-9.654a681.057 681.057 0 0 1-4.734-16.57c-1.177-4.34-2.313-8.759-2.272-13.257a25.817 25.817 0 0 1 2.179-10.128z"/>
 <path d="m59.93 107.35a10.376 10.376 0 0 1 1.532-3.668 10.382 10.382 0 0 1 3.124-3.03m14.757 16.208a25.498 25.498 0 0 0-4.912-9.86" fill="none" stroke="#000" stroke-width="2.999"/>
 <path d="M64.87-27.341c1.138.898 2.504 1.418 3.598 1.94 1.306.463 2.685.72 4.07.758a36.03 36.03 0 0 1-.757-10.13c.176-2.622.66-5.279 1.94-7.574 1.207-2.16 1.885-2.527 2.866-3.236-.748-3.729.583-6.676.583-6.676.628 2.992 2.691 6.76 4.031 7.972 1.222 1.105 3.071 1.37 4.686 1.041a21.04 21.04 0 0 1-.426-5.633c.165-2.768.878-5.479 1.8-8.094.99-2.815 1.692-3.995 3.46-5.988-.85-.503-7.46-3.356-5.471-8.732-.223 1.813 4.749 7.905 8.746 7.33 1.096-.157 2.203-.195 2.788-.516a36.756 36.756 0 0 1-3.92-7.678c-.981-2.66-.977-3.784-1.077-4.925-4.66-2.759-4.23-4.896-4.381-6.677 1.082 1.552 4.744 3.872 5.819 3.944a9.46 9.46 0 0 0 3.644-.474 30.257 30.257 0 0 1-2.32-5.254c-1.526-4.127-2.096-7.337-3.013-11.33.86 1.316 2.552 4.504 5.523 4.608 1.299.045 2.598-.413 3.645-1.184a33.54 33.54 0 0 1-4.923-6.059c-1.813-2.535-2.864-6.115-3.361-7.876-12.233 1.709-18.624-2.44-15.574-7.157 1.393 7.405 19.134 3.395 20.875 2.253 2.826-1.855 5.207-4.348 7.1-7.148a30.407 30.407 0 0 0 3.93-8.284 14.816 14.816 0 0 0-3.078-3.455c-1.576-1.291-3.414-2.248-5.349-2.888-2.184-.722-4.48-1.045-6.769-1.278-3.349-.341-3.951-.265-7.318-.239-8.029 6.13-14.152 5.905-15.464 5.764 12.751-4.387 14.213-8.826 14.83-10.306a37.386 37.386 0 0 0 1.84-5.64 22.222 22.222 0 0 1-10.644-.2c-1.773-.475-3.479-1.166-5.222-1.741-3.889-1.283-7.96-1.981-12.05-2.21-3.322-.185-6.657-.063-9.974.201-2.856.228-5.71.562-8.502 1.205-3.365.776-6.61 1.992-9.84 3.214-2.028.767-4.06 1.539-6.16 2.075-2.323.593-4.71.892-7.095 1.138-2.165.223-4.334.403-6.494.67-1.66.204-3.329.463-4.887 1.07-.463.181-.917.394-1.32.686-.4.293-.75.67-.956 1.122-.26.569-.28 1.217-.234 1.84.027.37.077.742.198 1.092.121.35.319.681.605.917.225.186.498.308.779.386.28.078.571.117.861.15 1.435.164 2.884.215 4.327.155a52.171 52.171 0 0 1-4.662 1.686c.136 1.96.202 3.925.201 5.89 0 1.746-.054 3.506.268 5.222.173.923.46 1.835.95 2.635.49.801 1.197 1.487 2.063 1.85.837.35 1.77.385 2.677.402 4.761.09 9.528-.134 14.26-.67h-.001a21.744 21.744 0 0 1 3.548 6.56c1.155 3.452 1.424 7.14 1.406 10.779-.006 1.396-.056 2.8-.336 4.168-.28 1.369-.8 2.708-1.672 3.798-.641.801-1.488 1.468-2.477 1.74-.78.215-1.603.178-2.41.135-2.88-.152-5.756-.34-8.636-.469a202.994 202.994 0 0 0-9.104-.2 6.98 6.98 0 0 0-.402 3.815c.338 1.907 1.499 3.634 3.08 4.753 1.134.803 2.463 1.301 3.822 1.591 1.36.29 2.754.379 4.143.417 2.187.061 4.374 0 6.561 0 1.957 0 3.913.05 5.868.145 16.863.383 18.49-5.72 18.456-12.658 4.981 2.03 1.7 16.635-18.772 14.926-2.47 8.97-9.138 7.14-10.997 7.27-3.408.235-6.86-.353-10.035-1.61-2.85-1.129-5.47-2.781-8.331-3.882-12.95-5.028-29.554-3.119-37.301.853-2.473 1.251-4.474 3.267-6.249 5.396-1.797 2.157-3.417 4.477-4.639 7.006-.818 1.693-1.586 2.546-2.026 4.374 2.267.52 3.98.436 6.911-.095 2.931-.53 5.636-1.715 8.201-3.718.885-.632 1.853-1.178 2.914-1.413.589-.13 1.2-.163 1.799-.095a26.208 26.208 0 0 0-8.426 7.952c-1.796 2.68-3.094 5.714-3.598 8.9a19.57 19.57 0 0 0 .852 9.467c3.087.426 6.323-.33 8.9-2.083.913-.621 1.742-1.359 2.65-1.988 1-.693 2.09-1.25 3.22-1.704 1.54-.619 3.158-1.048 4.638-1.799a11.8 11.8 0 0 0 3.692-2.935 40.037 40.037 0 0 0-3.503 11.55c-.56 3.895-.538 7.892.284 11.74a28.728 28.728 0 0 0 2.935 7.857A34.532 34.532 0 0 1-8.88-30.183c2.882-2.467 6.238-4.477 9.94-5.302.625-.139 1.258-.244 1.873-.418.616-.173 1.22-.42 1.725-.812a3.529 3.529 0 0 0 1.326-2.367c.356 7.124 4.222 13.99 10.13 17.988a23.203 23.203 0 0 0 9.372 3.692 23.129 23.129 0 0 1-1.325-6.532c-.077-1.388-.027-2.794.311-4.142.338-1.348.977-2.64 1.961-3.622 1.339-1.334 3.23-2.004 5.112-2.177 1.497-.137 2.61-.327 4-.9 1.38-.568 2.184-1.448 3.196-2.982a12.24 12.24 0 0 1-1.23 2.367c-1.03 1.543-2.43 2.884-3.03 4.64-.435 1.27-.407 2.669-.095 3.975a9.81 9.81 0 0 0 2.187 4.192 10.288 10.288 0 0 0 3.872 2.72c1.85.74 3.912.94 5.87.567a13.67 13.67 0 0 1-.474-5.112c.27-2.773 1.45-5.5 3.503-7.384 1.78-1.633 3.55-2.55 5.623-3.787 2.067-1.234 4.306-2.902 6.022-4.639-.701.992-.998 2.108-1.297 3.086-.558 2.932.133 3.792 1.297 5.718a24.24 24.24 0 0 0 3.882 4.071" fill="#fff"/>
 <path d="M160.58-152.02a44.834 44.834 0 0 1-1.798 9.273c-.88 2.872-2.048 5.657-3.41 8.335-1.847 3.634-4.052 7.078-6.53 10.315-2.218 2.895-4.666 5.636-7.48 7.954-1.477 1.216-3.05 2.312-4.546 3.503-2.84 2.26-5.413 4.879-7.48 7.861a31.903 31.903 0 0 0-5.114 12.213 70.318 70.318 0 0 1-.85-4.926 70.414 70.414 0 0 1-.474-14.486 71.394 71.394 0 0 0-7.76 12.213c-1.94 3.87-3.547 7.99-3.884 12.307-.286 3.646.35 7.329 1.517 10.795 2.326 6.915 6.814 13.084 12.682 17.42a24.93 24.93 0 0 0-8.043 4.352c-2.842 2.303-5.18 5.258-6.63 8.616-1.598 3.699-2.985 8.517-2.308 12.488-2.448 1.765-4.325 3.558-6.256 5.483-3.474 3.462-5.368 6.53-6.584 11.282-1.2 4.688-1.256 9.652-.281 14.392a33.923 33.923 0 0 0 3.028 8.616 27.656 27.656 0 0 1-8.048-7.673c-3.572-5.151-5.306-11.545-4.827-17.795a40.15 40.15 0 0 0-2.934 8.804c-.81 3.875-1.03 7.972.187 11.739 1.042 3.225 3.081 6.046 5.395 8.523 1.813 1.94 3.808 3.7 5.682 5.582 2.974 2.988 5.656 6.29 7.767 9.94 1.505 2.604 2.73 5.436 3.028 8.43.33 3.317-.527 6.717-2.273 9.559-.835 1.36-1.875 2.606-3.122 3.602-1.246.996-2.705 1.738-4.264 2.08-1.651.362-3.375.27-5.037-.036-1.663-.305-3.28-.816-4.903-1.288-3.638-1.06-7.395-1.962-10.602-3.977a17.327 17.327 0 0 1-4.259-3.79 57.365 57.365 0 0 1 0-6.244c.077-1.421.207-2.857 0-4.265-.292-1.987-1.238-3.807-2.179-5.582-1.368-2.582-2.76-5.15-4.07-7.761-1.198-2.387-2.33-4.812-3.316-7.293-1.237-3.11-2.248-6.335-2.648-9.659-.362-3.013-.214-6.058 0-9.085.231-3.272.55-6.588 1.705-9.66 1.08-2.87 1.76-4.206 4.077-6.214a16.774 16.774 0 0 1-4.1-4.124c-.922-1.323-1.978-2.902-1.887-4.698-1.151.685-2.561 1.775-3.69 2.496-1.589 1.015-3.193 2.104-4.264 3.655-1.248 1.806-1.651 4.087-1.547 6.28.075 1.566.392 3.12.937 4.591a13.481 13.481 0 0 1-6.964.65 13.48 13.48 0 0 1-6.344-2.946c-1.184-.994-2.196-2.205-2.894-3.584-.697-1.38-1.074-2.932-.995-4.476a8.088 8.088 0 0 1 1.265-3.936 12.918 12.918 0 0 0-3.562 1.406c-1.045.605-2.028 1.385-2.624 2.437-.636 1.122-.777 2.459-.75 3.748a16.206 16.206 0 0 0 3.562 9.747A22.696 22.696 0 0 1 16.76-17.08c-6.386-3.24-11.036-9.693-12.09-16.776a26.1 26.1 0 0 0-9.56 4.217c-3.641 2.588-6.582 6.104-8.716 10.028a33.974 33.974 0 0 0-3.046 7.732 27.85 27.85 0 0 1-6.607-9.231c-1.706-3.87-2.512-8.157-2.156-12.371a23.495 23.495 0 0 1 2.671-9.044 16.66 16.66 0 0 0-5.388 3.14c-.935.813-1.78 1.732-2.765 2.483-1.997 1.521-4.49 2.28-6.982 2.577a21.79 21.79 0 0 1-4.733.047 22.51 22.51 0 0 1-1.828-6.842c-.542-5.256.846-10.69 3.843-15.042a29.443 29.443 0 0 1-11.153.123c-5.862 1.94-12.316 2.421-18.387 1.81a54.373 54.373 0 0 1-10.052-2.026 21.642 21.642 0 0 0-2.208-6.361c-1.211-2.265-2.905-4.374-5.22-5.489a8.642 8.642 0 0 0-7.099-.135l-11.31-3.01a25.387 25.387 0 0 0-5.425-1.342c-1.754-.232-3.542-.28-5.29 0-1.818.291-3.316.514-4.556 1.875-3.546 3.153-2.306 8.46-1.198 10.65-3.287 2.505-5.755 2.765-7.032 7.361-.3 2.256.38 4.602 1.74 6.426a9.652 9.652 0 0 0 4.82 3.415 9.285 9.285 0 0 0-2.554 4.64 9.038 9.038 0 0 0 .118 4.31 8.653 8.653 0 0 0 2.155 3.738c1.044 1.058 2.353 1.823 3.737 2.366 1.385.543 2.849.871 4.312 1.136 3.94.715 8.085-.003 11.926-1.136 2.52-.743 3.42-1.934 5.488-3.315a12.866 12.866 0 0 1 5.776-2.18c2.425-.285 4.874.129 7.292.475 3.398.487 6.81.845 10.221 1.23 5.593.631 11.18 1.336 16.758 2.086 8.209 1.103 16.432 2.31 24.713 2.46 3.823.069 7.305.298 7.305.298s-6.06 4.172-11.375 6.14a127.062 127.062 0 0 1-18.937 5.394c-5.025 1.014-10.12 1.71-15.241 1.892-4.602.163-9.245-.089-13.73-1.13-3.611-.84-7.089-2.182-10.696-3.035-4.576-1.081-9.316-1.37-14.011-1.136-2.095.104-4.225.322-6.157 1.136-2.074.875-3.844 2.435-5.014 4.358-.593.976-1.041 2.05-1.206 3.181-.166 1.13-.042 2.317.445 3.35.953 1.754 2.717 3.62 3.45 4.167-2.5 1.087-2.796 1.641-4.206 3.975-1.315 2.177-1.984 4.751-1.798 7.287.102 1.4.492 2.835 1.423 3.884 1.553 1.546 4.138 2.047 6.958 1.97-3.79 3.187-2.944 6.837-1.85 8.163.448.78 1.115 1.42 1.874 1.904.759.483 1.61.815 2.484 1.03 1.97.489 4.03.418 6.056.282a95.682 95.682 0 0 0 9.056-1.043 55.082 55.082 0 0 0 8.968-1.605c3.225-.858 6.424-2.036 9.109-4.018 2.093-1.545 3.83-3.544 6.021-4.95 2.852-1.83 6.279-2.528 9.642-2.946 5.19-.645 10.436-.711 15.663-.539 7.276.24 14.556.94 21.825.539a72.525 72.525 0 0 0 14.456-2.279c-.064 2.175.255 4.36.937 6.426 1.053 3.193 2.97 6.071 5.36 8.435 2.56 2.533 5.634 4.472 8.57 6.56 3.796 2.703 7.424 5.712 10.308 9.373a33.06 33.06 0 0 1 4.147 6.83 47.032 47.032 0 0 1-7.093 6.56C6.94 55.479 3.904 57.265.609 58.354c-3.76 1.242-7.751 1.547-11.645 2.272-5.556 1.035-10.974 2.95-15.798 5.893a40.763 40.763 0 0 0-13.795 13.994 17.936 17.936 0 0 0-7.626 2.407 18.024 18.024 0 0 0-7.164 7.902 13.649 13.649 0 0 1 7.029-.673c2.24.38 4.376 1.336 6.156 2.747a61.25 61.25 0 0 0-8.165 9.905c-1.238 1.872-2.38 3.823-3.175 5.922-.795 2.1-1.234 4.36-1.042 6.596a12.058 12.058 0 0 0 1.001 3.883 51.298 51.298 0 0 1 4.352-8.364c1.85-2.877 4.04-5.615 6.895-7.498a16.341 16.341 0 0 1 8.64-2.677c.074 3.972.03 7.945-.135 11.914-.184 4.48-.527 8.985-1.675 13.32-1.087 4.103-2.915 8.049-5.623 11.317-2.458 2.966-5.611 5.333-9.103 6.959-3.71 1.728-7.747 2.61-11.715 3.614-1.433.362-2.864.746-4.288 1.142v-.34c-.006-3.057-.165-6.11-.134-9.167.024-2.367.161-4.734.269-7.1.063-1.383.118-2.773-.065-4.146-.304-2.687-1.628-4.263-3.122-2.953-2.2 2.072-2.688 2.035-6.455 1.547-1.686-.348-2.39-.302-4.082.937-2.066 1.502-4.2 3.211-2.876 5.764 3.37 6.506 1.44 8.294 1.44 8.294s-3.964-9.608-6.062-12.318c-1.269-1.639-2.653-3.205-4.282-4.487-1.098-.864-2.357-1.613-3.749-1.74a4.647 4.647 0 0 0-2.612.534 5.24 5.24 0 0 1 .468 3.35c-.297 1.52-1.296 2.863-2.612 3.679-1.15.712-2.527 1.052-3.544 1.944-.554.487-.973 1.116-1.253 1.799-.28.682-.425 1.414-.487 2.15a9.472 9.472 0 0 0 .697 4.445 9.102 9.102 0 0 0 2.712 3.59c2.21 1.75 5.149 2.348 7.967 2.274 1.453-.04 2.919-.241 4.352 0a7.195 7.195 0 0 1 4.089 2.225 7.187 7.187 0 0 1 1.833 4.276 10.785 10.785 0 0 0-4.54-3.883c-2.64-1.193-5.689-1.266-8.522-.662-2.259.482-4.492 1.425-6.057 3.122a7.212 7.212 0 0 0-1.523 2.496 6.02 6.02 0 0 0-.275 2.905c.073.459.204.902.287 1.359.082.457.114.934-.006 1.382-.116.432-.368.812-.615 1.183-.248.372-.498.753-.615 1.184-.176.642-.027 1.343.293 1.927.32.583.801 1.062 1.317 1.482 1.34 1.09 2.946 1.832 4.616 2.273 1.67.44 3.404.586 5.131.568 3.12-.033 6.206-.6 9.279-1.137 1.043-.182 2.098-.363 3.157-.334 1.059.03 2.138.286 3 .903.84.6 1.435 1.536 1.61 2.554.131.763.03 1.553-.146 2.307-.176.755-.43 1.486-.615 2.238-.21.85-.328 1.727-.287 2.6.04.874.249 1.746.667 2.514.5.917 1.286 1.66 2.168 2.22.881.56 1.862.95 2.852 1.283 2.68.901 5.504 1.403 8.33 1.323 1.289-.036 2.58-.194 3.807-.591 1.227-.398 3.057-1.041 3.96-1.963.953-.972 1.93-2.023 2.302-3.333 1.895-3.94 1.452-5.615 1.189-13.074 1.167 1.24 1.645 2.602 2.009 4.218.465 2.065.538 4.31-.603 6.092 3.036.8 6.446.024 8.839-2.01 1.32-1.123 2.328-2.591 3.004-4.188 1.516-3.028 2.15-7.15 2.459-10.19.187-2.21-.374-5 .628-6.978a18.424 18.424 0 0 1 1.406 5.758 18.482 18.482 0 0 1-.738 6.765 23.846 23.846 0 0 0 6.894-1.007c1.51-.453 2.987-1.057 4.306-1.922 1.318-.864 2.48-2 3.262-3.368 1.341-1.992 2.023-4.807 2.396-9.218.112-1.73-.387-3.672-.053-5.373a10.044 10.044 0 0 1 1.002 9.706c1.806.09 3.626-.136 5.354-.668 1.325-.407 2.609-1 3.708-1.845 1.099-.845 2.01-1.955 2.518-3.245.497-1.256.6-2.643.487-3.989-.769-4.263-1.973-8.789-.743-12.226.722-1.998 1.869-4.603 3.806-5.476a18.55 18.55 0 0 0-2.009 4.622c-.67 2.385-.124 4.905.194 7.363 1.579.006 2.433-.198 3.96-.604 2.007-.534 3.973-1.457 5.353-3.01.871-.981 1.476-2.181 1.868-3.433.393-1.251.578-2.558.674-3.866.258-3.518-.123-7.051-.135-10.579-.009-2.687.205-5.402 1.008-7.966 1.11-3.543 3.334-6.69 6.156-9.103 1.983-1.695 4.255-3.042 6.162-4.82a18.112 18.112 0 0 0 3.345-4.218 10.001 10.001 0 0 0 5.09 2.677c1.89.364 3.829.174 5.752.134 3.923-.081 7.95.511 11.381 2.414 3.52 1.951 6.288 5.326 7.234 9.237.805 3.327.262 6.956-1.476 9.905a9.016 9.016 0 0 0 4.417-1.47c2.353-1.556 3.895-4.28 4.018-7.1a26.41 26.41 0 0 1 8.435 6.028c4.378 4.678 6.959 10.997 7.1 17.403a18.821 18.821 0 0 0 3.21-6.156c.76-2.504.988-5.17.667-7.767a38.681 38.681 0 0 1 18.744 7.632c4.38 3.35 8.049 7.693 10.31 12.723 2.08 4.63 2.94 9.828 2.278 14.861-.327 2.483-1.076 5.02-2.812 6.824-1.308 1.36-3.1 2.206-4.955 2.548a11.2 11.2 0 0 1-5.09-.246 16.493 16.493 0 0 0-.662-5.682c-.632-2.108-1.701-4.095-3.175-5.728-1.135-1.258-2.526-2.311-4.118-2.888-1.137-.412-2.348-.572-3.55-.709-.92-.104-1.85-.197-2.77-.094-.921.104-1.843.422-2.53 1.042-.796.717-1.203 1.75-1.705 2.695-.235.442-.497.88-.85 1.236-.601.607-1.435.956-1.991 1.605-.348.406-.566.911-.674 1.435a4.783 4.783 0 0 0-.035 1.593c.077.576.233 1.147.498 1.664.265.517.642.984 1.113 1.323.776.56 1.766.745 2.724.75.957.006 1.904-.16 2.858-.234 4.183-.328 8.477 1.128 11.598 3.93a25.129 25.129 0 0 0-6.343-1.558c-2.918-.325-5.885-.139-8.757.469-2.81.594-5.562 1.605-7.902 3.268-1.687 1.2-3.126 2.71-4.499 4.259-.314.354-.629.715-.843 1.136-.215.422-.323.92-.2 1.377.108.398.385.733.721.972.336.24.732.388 1.13.492.337.089.68.149 1.014.246.334.098.662.235.925.463.341.295.553.728.633 1.171.08.444.036.902-.064 1.342-.08.347-.201.685-.258 1.036-.057.352-.044.725.117 1.043.106.209.274.386.469.516.195.13.417.213.644.269.455.11.926.099 1.394.117 1.476.057 2.924.42 4.4.475 1.448.053 2.95-.213 4.17-.996 1.196-.768 2.037-1.963 3.028-2.982a13.011 13.011 0 0 1 5.588-3.38c2.11-.626 4.384-.7 6.531-.216a24.397 24.397 0 0 0-7.34 2.788c-1.89 1.097-3.655 2.48-4.92 4.264-1.168 1.649-1.882 3.66-1.75 5.676.065 1.017.348 2.033.919 2.876.57.844 1.44 1.502 2.437 1.717.774.166 1.583.069 2.366.193a4.923 4.923 0 0 1 1.898.755c.502.328.951.732 1.464 1.043.947.573 2.074.809 3.18.802 1.108-.006 2.199-.246 3.258-.568 2.106-.64 4.104-1.61 6.015-2.7.868-.495 1.72-1.015 2.484-1.658s1.437-1.413 1.869-2.314c.623-1.3.712-2.792 1.136-4.17a8.85 8.85 0 0 1 1.136-2.367 7.269 7.269 0 0 0 .328 3.93c.303.802.749 1.547.996 2.367a5.316 5.316 0 0 1-.615 4.358 15.09 15.09 0 0 0 5.114-2.466c2.475-1.838 4.346-4.418 5.588-7.24a22.113 22.113 0 0 0 1.85-9.53c.751 1.882 1.054 3.94.874 5.957a13.01 13.01 0 0 1-1.342 4.686c.47.463 1.019.848 1.611 1.137.568.276 1.185.47 1.816.492.631.02 1.277-.136 1.798-.492.547-.374.929-.945 1.178-1.558.249-.614.377-1.271.498-1.922.406-2.2.771-4.414 1.405-6.56.726-2.455 1.801-4.825 2.138-7.363a13.02 13.02 0 0 0-1.47-7.902 14.11 14.11 0 0 1 2.542 4.153 14.12 14.12 0 0 1 .937 6.291 10.224 10.224 0 0 0 4.622-3.749c.493-.734.89-1.536 1.125-2.39.234-.853.303-1.759.146-2.63-.107-.588-.315-1.15-.492-1.722-.177-.57-.322-1.16-.31-1.757.014-.755.284-1.476.468-2.208.358-1.417.4-2.905.2-4.352-.488-3.526-2.468-6.821-5.355-8.904a15.9 15.9 0 0 1 3.415 2.407 15.933 15.933 0 0 1 3.28 4.288c.6-2.173.845-4.443.733-6.695-.161-3.23-1.083-6.44-2.812-9.173a17.124 17.124 0 0 0-8.821-6.976c1.08-.01 2.16.104 3.216.334 1.06.23 2.098.576 3.08 1.036a18.075 18.075 0 0 0-1.85-4.586 19.165 19.165 0 0 0-4.352-5.16 20.437 20.437 0 0 0-7.387-3.931c1.783.042 3.559.35 5.254.902a18.396 18.396 0 0 1 5.173 2.648 22.08 22.08 0 0 0-1.605-8.834c-1.43-3.524-3.798-6.677-6.83-8.973-2.644-2.003-5.757-3.338-8.974-4.148-3.075-.773-6.246-1.073-9.372-1.605-3.244-.551-6.485-1.368-9.372-2.946-2.466-1.347-4.6-3.213-6.69-5.09-3.098-2.784-6.198-5.703-8.17-9.372-1.26-2.341-2.03-4.974-2.01-7.633.009-1.34.221-2.674.135-4.012a9.203 9.203 0 0 0-1.47-4.422c3.43.239 6.87.375 10.308.404 4.116.034 8.245-.083 12.318-.668a54.204 54.204 0 0 0 15.798-4.82c3.436-1.657 6.717-3.697 9.507-6.298 3.595-3.35 6.346-7.67 7.498-12.447 1.045-4.336.756-8.915-.27-13.256-.88-3.726-2.29-7.308-3.748-10.848-2.491-6.046-5.141-12.024-7.633-18.07-2.997-7.275-5.952-14.929-8.487-22.377 3.256-2.03 7.033-3.245 10.766-4.135 5.861-1.397 12.026-1.282 17.942-.135 5.67 1.1 11.333 3.254 15.394 7.363 2.482 2.512 4.295 5.751 4.82 9.243.618 4.1-.547 8.282-2.278 12.05-1.454 3.162-3.319 6.162-4.282 9.506-.663 2.303-.879 4.705-1.072 7.094-.227 2.807.04 1.341-.135 4.153a25.451 25.451 0 0 1 5.489-8.705 25.463 25.463 0 0 1 8.704-5.892c-3.57 4.27-6.35 9.2-8.165 14.462a46.082 46.082 0 0 0-2.01 21.69 19.92 19.92 0 0 1 4.283-11.38c1.81-2.273 4.097-4.118 6.162-6.162a42.466 42.466 0 0 0 8.704-12.447 143.969 143.969 0 0 0-7.1 20.619c-.929 3.556-1.725 7.167-1.956 10.836-.23 3.669.121 7.41 1.424 10.848 1.947 5.142 6.024 9.395 10.977 11.785a23.35 23.35 0 0 0 8.839 2.272 27.697 27.697 0 0 1-5.09-6.021c-2.114-3.385-3.474-7.204-4.282-11.112-.674-3.254-.975-6.617-.54-9.911.43-3.243 1.558-6.351 2.812-9.372 1.596-3.844 3.41-7.595 4.821-11.51 1.856-5.154 3.004-10.59 3.081-16.067.07-5.007-.776-10.084-2.946-14.597-1.446-3.006-3.497-5.756-6.162-7.761-2.17-1.634-4.715-2.748-7.363-3.35a21.864 21.864 0 0 0-8.3-.27c-5.44-6.938-13.26-11.975-21.825-14.059-5.674-1.38-11.604-1.49-17.403-.802-4.501.534-10.395 3.094-14.92 5.87-.14-6.668 3.246-8.783 5.09-11.195 2.196-2.87 5.258-4.986 8.524-6.53 3.097-1.466 6.398-2.45 9.659-3.504 4.967-1.605 9.888-3.392 14.579-5.681 5.46-2.665 10.597-6.01 15.148-10.034 3.538-3.13 6.735-6.692 9.085-10.79 2.721-4.748 4.252-10.158 4.545-15.622a37.126 37.126 0 0 0-.85-10.134 103.446 103.446 0 0 1-3.789 9.09c-1.682 3.55-3.596 7.044-6.25 9.94a24.54 24.54 0 0 1-14.011 7.575 79.26 79.26 0 0 0 9.94-13.631c3.401-5.894 6.05-12.265 7.387-18.937.754-3.768 1.088-7.659.474-11.452a23.483 23.483 0 0 0-5.395-11.551c.384 2.792.347 5.64-.1 8.423-.667 4.16-2.247 8.136-4.258 11.838-1.72 3.164-3.781 6.178-6.437 8.61-2.641 2.418-5.806 4.205-8.523 6.537a27.241 27.241 0 0 0-6.291 7.855 145.971 145.971 0 0 1 6.197-11.17c2.266-3.691 4.705-7.29 6.63-11.17 1.953-3.931 3.36-8.108 4.64-12.307 1.194-3.917 2.284-7.93 2.267-12.026a22.592 22.592 0 0 0-2.173-9.56zM110.293-27.86a492.023 492.023 0 0 0 6.748 19.869c2.806 7.718 5.808 15.373 8.154 23.243.878 2.947 1.666 5.937 1.968 8.997.488 4.955-.4 10.185-3.28 14.246a16.457 16.457 0 0 1-6.45 5.372 16.465 16.465 0 0 1-8.265 1.47 16.939 16.939 0 0 0 3.28-6.842c.777-3.468.44-7.091-.187-10.59-1.308-7.306-3.84-14.326-6.186-21.368-1.942-5.834-3.783-11.85-3.561-17.994.143-3.977 1.183-7.958 3.28-11.34a19.87 19.87 0 0 1 4.499-5.06z" fill="#fff"/>
 <g stroke="#000">
  <path d="M42.858-143.02c-1.669.09-3.316.571-4.771 1.392-.506.284-.993.614-1.383 1.042-.39.429-.68.966-.738 1.542-.047.463.059.938.285 1.344.226.407.57.745.974.976.471.27 1.014.392 1.555.433.541.04 1.085 0 1.626-.036 7.5-.506 15.033-.506 22.532 0M38.153-136a3.404 3.404 0 0 0-.861 2.12c-.035.873.28 1.746.828 2.425.548.68 1.318 1.168 2.154 1.42.917.275 1.892.273 2.85.265 3.58-.033 7.158-.121 10.735-.266" fill="none" stroke-linecap="round" stroke-linejoin="round" stroke-width="2.04"/>
  <path d="M44.581-135.73a3.216 3.216 0 0 0-1.308.55c-.385.282-.7.665-.879 1.107a2.451 2.451 0 0 0-.159 1.186c.044.4.185.789.401 1.129.431.68 1.159 1.153 1.945 1.33.843.188 1.767.04 2.476-.453.355-.246.654-.575.859-.955.204-.38.315-.812.31-1.243a2.6 2.6 0 0 0-.332-1.226 2.824 2.824 0 0 0-.86-.938c-.704-.486-1.612-.644-2.453-.487z" fill="#000004" stroke-width="2.999"/>
  <path d="M77.982-126.39a12.467 12.467 0 0 0 5.17-.729 12.482 12.482 0 0 0 5.036-3.446v0a34.277 34.277 0 0 1 5.368.066c1.045.095 2.091.24 3.094.55 1.003.31 1.965.794 2.737 1.505 1.146 1.054 1.823 2.621 1.724 4.175-.095 1.472-.86 2.848-1.91 3.885-1.049 1.038-2.365 1.767-3.723 2.344a21.732 21.732 0 0 1-8.417 1.723" fill="none" stroke-linecap="round" stroke-linejoin="round" stroke-width="2.04"/>
 </g>
 <path d="M-22.75-127.51c-4.706 3.21-7.216 8.341-7.157 13.188.093 3.312 1.795 6.443 4.175 8.748 2.19 2.12 4.95 3.621 7.886 4.44 4.282 1.193 8.818.95 13.254.662 4.634-.3 9.274-.637 13.917-.53 6.574.153 14.086 1.438 20.378 3.35.09-.9.188-1.698.133-2.718-2.186-.896-4.853-1.772-7.124-2.421-3.184-.91-6.443-1.572-9.742-1.856-3.721-.32-7.466-.157-11.2-.265-4.03-.116-8.054-.548-11.995-1.391-4.946-.98-7.768-3.189-10.019-6.904-1.895-3.625-3.436-9.382-2.507-14.303z" fill="#fff"/>
 <g fill="none" stroke="#000" stroke-linecap="round">
  <g stroke-linejoin="round" stroke-width="2.04">
   <path d="M77.589-105.74a14.491 14.491 0 0 0 1.78 8.247 14.478 14.478 0 0 0 5.53 5.53M72.622-89.528a39.392 39.392 0 0 1 4.873 11.246M69.061-74.813a18.338 18.338 0 0 1 3.655 8.154c.824 4.687-.278 9.684-2.999 13.59M52.285-41.074a26.361 26.361 0 0 0 8.622-10.028"/>
  </g>
  <path d="M-15.848 11.583A69.842 69.842 0 0 0 5.078 3.267" stroke-width="2.999"/>
  <path d="m83.628 61.146c-1.43-4.46-5.515-6.846-8.757-9.624" stroke-width="2.04"/>
 </g>
 <g fill="#fff">
  <path d="M11.75-114.6a17.037 17.037 0 0 0 4.358 6.326 12.724 12.724 0 0 0 1.547-4.03c.189-.955.314-1.37.28-2.343zM20.56-114.83a9.452 9.452 0 0 0 3.843 4.733 7.995 7.995 0 0 0 1.312-5.202c-1.328.205-2.837.388-5.155.469zM16.317-92.327c-.16-.925-.439-1.595-.828-2.45a10.957 10.957 0 0 0-1.458-2.352 14.237 14.237 0 0 0-1.558 3.081c-.218.606-.395.851-.53 1.481zM26.687-92.284c-.71-1.026-2.149-2.639-3.147-3.387a11.65 11.65 0 0 0-3.71-1.855 5.896 5.896 0 0 0-.83 2.55c-.054.656-.232 2.07-.068 2.706z"/>
 </g>
 <g fill="none" stroke="#000" stroke-width="2.04">
  <path d="m107.49-33.576 2.29 7.45"/>
  <path d="m115.64-38.234c-0.573 2.775 1 6.007 1.841 8.302m6.129-29.723a21.236 21.236 0 0 1-3.406-7.632 21.25 21.25 0 0 1 0-9.278" stroke-linecap="round"/>
 </g>
 <g fill="#fff">
  <path d="M-105.42 130.05a33.912 33.912 0 0 0-11.763-5.534 15.843 15.843 0 0 1 8.085-3.446c3.348-.403 6.82.305 9.742 1.989a5.818 5.818 0 0 1-.199 3.147 5.832 5.832 0 0 1-2.283 2.912 5.833 5.833 0 0 1-3.582.932zM-75.293 123.78c.956.14 1.937.108 2.882-.094a8.198 8.198 0 0 0 3.257-1.5 10.149 10.149 0 0 0-1.898-2.506 10.168 10.168 0 0 0-3.853-2.325 20.86 20.86 0 0 0-.388 6.425zM-107.31 153.67a16.498 16.498 0 0 1-1.259 8.151 42.325 42.325 0 0 0-13.122.398 25.945 25.945 0 0 1 4.507-4.97c2.06-1.752 4.479-3.208 7.157-3.579a9.908 9.908 0 0 1 2.717 0zM-59.088 188.44c-1.433 3.456-3.447 5.319-5.502 5.994-1.686.545-3.302.43-4.962.338 2.478-1.81 2.653-4.347 2.76-5.811 2.245.553 5.278.12 7.704-.521zM76.921 145.92a6.41 6.41 0 0 1-.53 2.717 6.445 6.445 0 0 1-2.783 3.049 11.518 11.518 0 0 0-2.452-1.26 11.56 11.56 0 0 0-5.633-.596c1.434-1.75 3.399-3.06 5.566-3.711a11.516 11.516 0 0 1 5.832-.199zM58.829 185.95a9.72 9.72 0 0 1 .464-5.567 9.758 9.758 0 0 1 4.838-5.169 5.926 5.926 0 0 1 2.187 1.657 5.944 5.944 0 0 1 1.325 3.314 14.37 14.37 0 0 0-3.976 1.458 14.399 14.399 0 0 0-4.838 4.307zM82.09 202.12a14.379 14.379 0 0 1-.331-6.826c.294-1.509.833-2.97 1.59-4.307a11.594 11.594 0 0 1 6.097 2.982 34.04 34.04 0 0 0-7.356 8.151z"/>
 </g>
 <g stroke="#000">
  <g fill="#fcdb00" fill-rule="evenodd" stroke-linecap="round" stroke-linejoin="round" stroke-width="2.834">
   <path d="m-102.32-162.47c-7.695 0-9.232 4.862-9.232 4.862v203.51s1.537 4.862 9.232 4.862 9.226-4.862 9.226-4.862v-203.51s-1.531-4.862-9.226-4.862z" style="paint-order:markers fill stroke"/>
   <path d="m-143.32-155.43s-2.595 3.846-2.589 22.2 2.589 22.2 2.589 22.2h84.261s2.59-3.846 2.595-22.2c6e-3 -18.354-2.595-22.2-2.595-22.2z" style="paint-order:markers fill stroke"/>
  </g>
  <path d="M15.224 46.93a8.863 8.863 0 0 1 1.567 6.578c-.34 2.074-1.416 3.978-1.704 6.06-.16 1.164-.052 2.409.568 3.407.368.593.896 1.069 1.45 1.493.554.423 1.141.804 1.674 1.253.866.73 2.798 2.762 3.302 3.775" fill="none" stroke-width="2.999"/>
  <path d="M26.246 53.774c.791 2.97.691 6.173-.284 9.088-.87 2.603-2.396 4.925-3.787 7.29-1.652 2.81-3.153 5.78-3.692 8.994-.864 5.15.973 10.676 4.748 14.283" fill="none" stroke-linecap="round" stroke-width="2.999"/>
 </g>
 <path d="M-37.09-20.619s-12.498 4.096-18.937 5.395c-5.024 1.013-10.119 1.71-15.241 1.892-4.602.163-9.245-.089-13.73-1.13-3.61-.84-7.088-2.182-10.696-3.035-4.575-1.082-9.316-1.37-14.011-1.136-2.094.104-4.224.322-6.156 1.136-2.075.875-3.845 2.434-5.014 4.358-.594.976-1.041 2.05-1.207 3.18-.165 1.131-.042 2.318.445 3.351.954 1.753 2.718 3.62 3.451 4.167-2.5 1.087-2.797 1.641-4.207 3.975-1.314 2.177-1.983 4.751-1.798 7.287.102 1.4.492 2.835 1.424 3.884 1.552 1.546 4.137 2.047 6.957 1.97-3.79 3.187-2.943 6.837-1.85 8.163.448.78 1.116 1.42 1.875 1.904.758.483 3.15 1.38 4.024 1.596 1.971.488 1.822.982 3.848.846 3.032-.203 6.725-1.682 9.724-2.173a55.082 55.082 0 0 0 8.968-1.605c3.224-.858 6.423-2.036 9.108-4.018 2.094-1.545 3.831-3.544 6.022-4.95 2.852-1.83 6.278-2.528 9.641-2.946 5.19-.646 15.663-.539 15.663-.539z" fill="#fff"/>
 <g stroke="#000" stroke-width="2.04">
  <g fill="none">
   <path d="M-118.84 15.509c3.883.26 7.748.838 11.813-2.115M-120.66-2.757l6.795 1.218" stroke-linecap="round"/>
   <path d="M-111.95-19.477a36.754 36.754 0 0 0 8.733 1.85c3.358.291 6.757.118 10.068-.514M-93.159 25.323c-2.984.242-5.248.05-7.86-.187-1.512.77-3.216 1.984-5.08 2.26s-3.893.444-5.9-.063"/>
  </g>
  <g fill="#fff">
   <path d="M-123.91-60.071c-.746-2.062-.85-5.018-.595-7.196.141-1.208.453-2.428 1.162-3.415.547-.76 1.31-1.35 2.143-1.779.833-.428 1.738-.702 2.652-.909a19.694 19.694 0 0 1 3.668-.472 7.09 7.09 0 0 1 5.013 1.38c1.077.817 1.899 1.932 2.523 3.13 1.237 2.921 1.128 6.375.68 9.263-.292 1.685-.848 3.336-2.28 4.27-3.369.57-5.764.177-8.924-1.119-2.187-.897-4.352-1.5-6.042-3.153z"/>
   <path d="M-107.64-60.957a9.116 9.116 0 0 1 1.598 2.47c.606 1.386.876 3.451.745 4.958-1.116-.089-2.938-.395-3.923-.926-.874-.472-2.042-1.107-2.687-1.862.113-1.583 1.666-3.63 4.267-4.64zM-107.69-31.41a9.115 9.115 0 0 0 2.703-1.162c1.275-.814 2.65-2.379 3.38-3.703-.977-.548-2.661-1.309-3.775-1.415-.989-.095-2.312-.218-3.269.05-.787 1.378-.637 3.943.961 6.23zM-84.812-46.299c-1.598.056-4.089-.958-5.907-1.876-1.817-.917-4.318-3.225-6.797-6.176a15.918 15.918 0 0 1-3.605-8.045c-.16-1.154-.193-2.34.06-3.477.255-1.137.81-2.228 1.687-2.995.75-.656 1.7-1.05 2.676-1.252.975-.2 1.98-.217 2.974-.187 2.144.064 4.516.154 6.37.822s2.889 1.841 3.904 2.877c2.5 2.583 3.975 7.246 3.266 10.352"/>
  </g>
  <path d="M-84.812-46.299c-1.598.056-4.089-.958-5.907-1.876" fill="none" stroke-linecap="round"/>
  <g fill="#fff">
   <path d="M-98.978-63.601a9.116 9.116 0 0 1-1.598-2.47c-.606-1.386-.876-3.451-.745-4.958 1.116.089 2.938.395 3.923.926.874.472 2.042 1.107 2.687 1.862-.113 1.583-1.666 3.63-4.267 4.64zM-108.68-41.809a9.116 9.116 0 0 0 2.912-.42c1.442-.454 3.176-1.608 4.226-2.697-.8-.782-2.23-1.955-3.277-2.348-.93-.348-2.176-.811-3.17-.801-1.118 1.126-1.64 3.643-.691 6.266z"/>
   <path d="M-125.78-42.773a12.486 12.486 0 0 1-1.49-1.181c-1.304-1.208-2.35-2.704-2.98-4.367-.648-1.715-.844-3.64-.307-5.394.613-2.006 2.127-3.634 3.852-4.828a15.155 15.155 0 0 1 2.794-1.527c1.978-.143 4.029.57 5.733 1.681 1.418.924 2.862 1.773 4.273 2.707 3.504 2.443 6.428 5.125 7.388 8.8.27 1.052.325 2.172.05 3.223-.274 1.05-.896 2.026-1.796 2.633-.555.373-1.199.6-1.856.725s-3.229.46-3.898.456c-3.726-.02-4.432.486-7.859-.976a36.204 36.204 0 0 1-3.904-1.952"/>
   <path d="M-114.48-25.514a14.566 14.566 0 0 1-6.177-1.508c-2.065-1.024-3.903-2.577-5.049-4.576-1.332-2.326-1.655-5.2-.908-7.774a10.245 10.245 0 0 1 1.587-3.214 8.94 8.94 0 0 1 6.042-.02c1.638.587 3.065 1.641 4.639 2.385 2.174 1.028 3.4.88 5.689 2.58 2.02 2.272 2.027 5.128.778 7.428-1.804 2.887-3.409 4.392-6.6 4.699z"/>
  </g>
 </g>
</svg>
