<?xml version="1.0" encoding="UTF-8" standalone="no"?>
<!-- Created with Inkscape (http://www.inkscape.org/) -->

<svg
   xmlns:dc="http://purl.org/dc/elements/1.1/"
   xmlns:cc="http://creativecommons.org/ns#"
   xmlns:rdf="http://www.w3.org/1999/02/22-rdf-syntax-ns#"
   xmlns:svg="http://www.w3.org/2000/svg"
   xmlns="http://www.w3.org/2000/svg"
   xmlns:sodipodi="http://sodipodi.sourceforge.net/DTD/sodipodi-0.dtd"
   xmlns:inkscape="http://www.inkscape.org/namespaces/inkscape"
   width="134.74506mm"
   height="157.86383mm"
   viewBox="0 0 134.74506 157.86383"
   version="1.1"
   id="svg5132"
   inkscape:version="0.92.5 (2060ec1f9f, 2020-04-08)"
   sodipodi:docname="DEU Hermeskeil COA.svg">
  <defs
     id="defs5126">
    <inkscape:path-effect
       effect="spiro"
       id="path-effect2420"
       is_visible="true" />
    <inkscape:path-effect
       effect="spiro"
       id="path-effect2397"
       is_visible="true" />
    <inkscape:path-effect
       effect="spiro"
       id="path-effect2373"
       is_visible="true" />
    <inkscape:path-effect
       effect="spiro"
       id="path-effect2373-7"
       is_visible="true" />
    <inkscape:path-effect
       effect="spiro"
       id="path-effect2397-0"
       is_visible="true" />
    <inkscape:path-effect
       effect="spiro"
       id="path-effect2420-2"
       is_visible="true" />
  </defs>
  <sodipodi:namedview
     id="base"
     pagecolor="#ffffff"
     bordercolor="#666666"
     borderopacity="1.0"
     inkscape:pageopacity="0.0"
     inkscape:pageshadow="2"
     inkscape:zoom="1.3290858"
     inkscape:cx="254.63633"
     inkscape:cy="298.32533"
     inkscape:document-units="mm"
     inkscape:current-layer="layer1"
     showgrid="false"
     inkscape:window-width="1920"
     inkscape:window-height="1046"
     inkscape:window-x="-11"
     inkscape:window-y="-11"
     inkscape:window-maximized="1"
     inkscape:snap-global="false"
     fit-margin-top="0"
     fit-margin-left="0"
     fit-margin-right="0"
     fit-margin-bottom="0"
     inkscape:snap-midpoints="true"
     inkscape:snap-smooth-nodes="true"
     inkscape:object-paths="true" />
  <metadata
     id="metadata5129">
    <rdf:RDF>
      <cc:Work
         rdf:about="">
        <dc:format>image/svg+xml</dc:format>
        <dc:type
           rdf:resource="http://purl.org/dc/dcmitype/StillImage" />
        <dc:title></dc:title>
      </cc:Work>
    </rdf:RDF>
  </metadata>
  <g
     inkscape:label="Ebene 1"
     inkscape:groupmode="layer"
     id="layer1"
     transform="translate(18.083809,-109.98085)">
    <path
       style="fill:#ffffff;fill-rule:evenodd;stroke:none;stroke-width:1.32291663;stroke-linecap:round;stroke-linejoin:round;stroke-miterlimit:4;stroke-dasharray:none;stroke-opacity:1"
       inkscape:connector-curvature="0"
       d="m 115.99979,110.64231 -0.30501,89.24681 c -1.48497,37.54097 -30.824909,67.27309 -66.40606,67.29411 -35.549144,-0.0461 -64.900061,-29.78887 -66.406061,-67.29411 l -0.30501,-89.24681 h 66.709473 z"
       id="path10563-0-6-2-4-3"
       sodipodi:nodetypes="ccccccc" />
    <path
       style="opacity:1;fill:#ffffff;fill-opacity:1;fill-rule:evenodd;stroke:#000000;stroke-width:3;stroke-linecap:round;stroke-linejoin:round;stroke-miterlimit:4;stroke-dasharray:none;stroke-opacity:1;paint-order:fill markers stroke"
       d="M 2.5 2.5 L 3.0566406 165.40625 L 506.2168 165.40625 L 506.77344 2.5 L 254.63086 2.5 L 2.5 2.5 z "
       transform="matrix(0.26458333,0,0,0.26458333,-18.083809,109.98085)"
       id="rect2208" />
    <path
       style="opacity:1;fill:#0033ff;fill-opacity:1;fill-rule:evenodd;stroke:#000000;stroke-width:3;stroke-linecap:round;stroke-linejoin:round;stroke-miterlimit:4;stroke-dasharray:none;stroke-opacity:1;paint-order:fill markers stroke"
       d="M 254.63672 165.40625 L 254.63672 594.15039 C 389.11666 594.07094 500.00666 481.69768 505.61914 339.81055 L 506.2168 165.40625 L 254.63672 165.40625 z "
       transform="matrix(0.26458333,0,0,0.26458333,-18.083809,109.98085)"
       id="rect2269" />
    <path
       inkscape:connector-curvature="0"
       style="opacity:1;fill:#ffffff;fill-opacity:1;fill-rule:evenodd;stroke:#000000;stroke-width:0.79374999;stroke-linecap:round;stroke-linejoin:round;stroke-miterlimit:4;stroke-dasharray:none;stroke-opacity:1;paint-order:fill markers stroke"
       d="m 57.438838,162.03991 v 96.92436 c 26.868111,-0.0179 49.023122,-25.4217 50.144452,-57.49752 l 0.11941,-39.42684 z"
       id="rect2269-7" />
    <path
       style="fill:#0033ff;stroke:#000000;stroke-width:3;stroke-linecap:round;stroke-linejoin:round;stroke-miterlimit:4;stroke-dasharray:none;stroke-opacity:1;fill-opacity:1"
       d="M 3.0566406 165.40625 L 128.8457 558.25 L 128.8457 558.25586 L 128.84766 558.25195 L 128.84766 558.25 L 254.63672 165.40625 L 128.8457 165.40625 L 3.0566406 165.40625 z "
       transform="matrix(0.26458333,0,0,0.26458333,-18.083809,109.98085)"
       id="path2315" />
    <path
       style="fill:#ffffff;stroke:#000000;stroke-width:1.32291663;stroke-linecap:round;stroke-linejoin:round;stroke-miterlimit:4;stroke-dasharray:none;stroke-opacity:1;fill-opacity:1;paint-order:normal"
       d="m 16.006873,176.11118 -6.9298074,1.05678 6.9298074,64.36662 6.929811,-64.36662 z"
       id="path2333"
       inkscape:connector-curvature="0" />
    <path
       style="fill:none;stroke:#000000;stroke-width:1.32291667;stroke-linecap:round;stroke-linejoin:round;stroke-miterlimit:4;stroke-dasharray:none;stroke-opacity:1"
       d="m 16.006875,176.11118 v 65.42339"
       id="path2351"
       inkscape:connector-curvature="0" />
    <path
       style="opacity:1;fill:#ffd700;fill-opacity:1;fill-rule:evenodd;stroke:#000000;stroke-width:1.32291667;stroke-linecap:round;stroke-linejoin:round;stroke-miterlimit:4;stroke-dasharray:none;stroke-opacity:1;paint-order:fill markers stroke"
       d="m 16.006875,156.44675 c -2.880598,2.69853 -4.52918,6.66431 -4.411099,10.60969 0.07662,2.55987 0.893032,5.08506 2.288749,7.23056 l -9.208225,1.21285 0.3653525,2.77451 10.9652225,-1.44436 10.964706,1.44436 0.365868,-2.77451 -9.208222,-1.21285 c 1.39572,-2.1455 2.212126,-4.67069 2.288749,-7.23056 0.118079,-3.94538 -1.53049,-7.91116 -4.411101,-10.60969 z"
       id="rect2353"
       inkscape:connector-curvature="0" />
    <path
       style="opacity:1;fill:#ff0000;fill-opacity:1;fill-rule:evenodd;stroke:#000000;stroke-width:3;stroke-linecap:round;stroke-linejoin:round;stroke-miterlimit:4;stroke-dasharray:none;stroke-opacity:1;paint-order:fill markers stroke"
       d="M 227.83398,2.5 V 57.150391 H 2.6875 L 2.8691406,110.75586 H 227.83398 v 54.65039 h 53.60547 V 110.75586 H 506.4043 l 0.18164,-53.605469 H 281.43945 V 2.5 h -26.80859 z m 150.59375,198.16797 c -4.57926,7.94937 -8.99567,16.01429 -13.24804,24.18359 -3.68124,7.0721 -7.25165,14.25256 -9.89063,21.875 -2.63898,7.62255 -4.33571,15.73712 -4.14062,23.89844 0.30992,12.9651 5.29935,25.13865 9.74414,37.13672 4.76542,12.86355 9.05008,26.25699 9.35156,40.1582 0.2671,12.31627 -2.63277,24.51966 -7.01562,35.8418 -3.26696,8.43949 -7.35243,16.46331 -10.69727,24.86523 -3.34483,8.40193 -6.13662,17.45359 -6.05859,26.52149 0.0786,9.13253 2.40869,18.46698 6.56054,26.60156 4.23378,8.29511 11.92742,14.30822 18.04297,21.33203 2.41111,2.76919 4.09871,5.66506 7.35156,8.20313 3.25284,-2.53807 4.94194,-5.43377 7.35352,-8.20313 6.11601,-7.0234 13.80948,-13.03677 18.04297,-21.33203 4.1515,-8.13459 6.48032,-17.46918 6.55859,-26.60156 0.0777,-9.0679 -2.71375,-18.11956 -6.05859,-26.52149 -3.34483,-8.40192 -7.43226,-16.42574 -10.69922,-24.86523 -4.38285,-11.32214 -7.28077,-23.52553 -7.01367,-35.8418 0.30145,-13.90121 4.58809,-27.29465 9.35351,-40.1582 4.44477,-11.99807 9.43032,-24.17162 9.74024,-37.13672 0.1951,-8.16132 -1.49774,-16.27589 -4.13672,-23.89844 -2.63897,-7.62244 -6.2094,-14.8029 -9.89063,-21.875 -4.25238,-8.1693 -8.67074,-16.23422 -13.25,-24.18359 z m -61.43359,60.38281 c -1.30289,0.0265 -2.60487,0.23772 -3.85156,0.61719 -2.4934,0.759 -4.76651,2.17191 -6.6582,3.96484 -3.78337,3.5859 -5.97423,8.56643 -7.22461,13.62696 -2.22333,8.99822 -1.67666,18.76762 2.16015,27.20507 2.16631,4.76387 5.35911,9.1374 6.47656,14.25 0.67008,3.06577 0.54625,6.30281 -0.35546,9.3086 -0.90174,3.00578 -2.57919,5.77426 -4.82618,7.96484 5.08347,-0.0699 10.06491,-2.72566 12.95508,-6.9082 1.69909,-2.45885 2.67117,-5.33148 3.8125,-8.09375 1.14133,-2.76227 2.53401,-5.53271 4.82422,-7.45313 2.00959,-1.68499 4.62775,-2.59819 7.25,-2.63867 2.62225,-0.0404 5.23525,0.77395 7.43164,2.20703 3.01359,1.9663 5.19241,5.0169 6.68945,8.28906 1.49705,3.27217 2.36846,6.78864 3.24219,10.2793 1.68702,6.74 3.42509,13.57115 3.28125,20.51758 -0.0719,3.4732 -0.62336,6.95623 -1.85351,10.20508 -1.23014,3.24888 -3.15449,6.26081 -5.7461,8.57422 -3.94935,3.52543 -9.41414,5.27868 -14.68164,4.75 -3.91549,-0.393 -7.59813,-1.96126 -11.32031,-3.23828 -3.72219,-1.27699 -7.70764,-2.28331 -11.56641,-1.51172 -1.98582,0.39707 -3.87793,1.26724 -5.45703,2.53515 -1.5791,1.26788 -2.84084,2.93186 -3.61133,4.80469 -0.6719,1.63317 -0.96918,3.41883 -0.86328,5.18164 1.72783,-1.15336 3.82243,-1.74488 5.89844,-1.66797 2.076,0.0767 4.12198,0.82352 5.75977,2.10157 2.31659,1.80771 3.71022,4.52482 4.95312,7.1875 1.24291,2.66267 2.45472,5.43078 4.54688,7.49414 2.40154,2.36847 5.79428,3.57739 9.16406,3.7246 3.36977,0.14741 6.72471,-0.69989 9.83789,-1.99804 5.36295,-2.23627 10.12449,-5.81611 13.97461,-10.16797 3.85011,-4.3519 6.8026,-9.46286 8.91211,-14.87695 6.21401,-15.94825 4.99852,-33.91438 0.86328,-50.52344 -5.36063,-21.53076 -15.60104,-42.00167 -30.66016,-58.29688 -2.69134,-2.91224 -5.69606,-5.78814 -9.5,-6.9082 -1.25011,-0.36813 -2.55453,-0.53092 -3.85742,-0.50586 z m 122.86524,0 c -1.30288,-0.0265 -2.60732,0.13792 -3.85743,0.50586 -3.80394,1.12006 -6.80864,3.99596 -9.5,6.9082 -15.05912,16.29521 -25.29758,36.76612 -30.6582,58.29688 -4.13523,16.60906 -5.35072,34.57519 0.86328,50.52344 2.10951,5.41409 5.06004,10.52505 8.91016,14.87695 3.85011,4.35186 8.61361,7.9317 13.97656,10.16797 3.11317,1.29815 6.46616,2.1453 9.83594,1.99804 3.36977,-0.14702 6.76252,-1.35613 9.16406,-3.7246 2.09216,-2.06336 3.30397,-4.83147 4.54687,-7.49414 1.24293,-2.66268 2.63652,-5.37979 4.95313,-7.1875 1.63778,-1.27805 3.68375,-2.02469 5.75977,-2.10157 2.07598,-0.0771 4.17254,0.51461 5.90039,1.66797 0.10582,-1.76281 -0.19312,-3.54847 -0.86524,-5.18164 -0.77049,-1.87283 -2.03025,-3.53681 -3.60937,-4.80469 -1.57909,-1.26791 -3.47319,-2.13808 -5.45899,-2.53515 -3.85877,-0.77159 -7.84227,0.23473 -11.56445,1.51172 -3.72219,1.27702 -7.40679,2.84528 -11.32227,3.23828 -5.2675,0.52868 -10.73229,-1.22457 -14.68164,-4.75 -2.59161,-2.31341 -4.51595,-5.32534 -5.74609,-8.57422 -1.23014,-3.24885 -1.7816,-6.73188 -1.85352,-10.20508 -0.14385,-6.94643 1.59423,-13.77758 3.28125,-20.51758 0.87371,-3.49066 1.74514,-7.00713 3.24219,-10.2793 1.49704,-3.27216 3.67586,-6.32276 6.68945,-8.28906 2.19639,-1.43308 4.8094,-2.24755 7.43165,-2.20703 2.62225,0.0404 5.24236,0.95368 7.25195,2.63867 2.29021,1.92042 3.68093,4.69086 4.82226,7.45313 1.14133,2.76227 2.11538,5.6349 3.81446,8.09375 2.89018,4.18254 7.86966,6.83817 12.95312,6.9082 -2.24697,-2.19058 -3.92445,-4.95906 -4.82617,-7.96484 -0.90172,-3.00579 -1.02577,-6.24283 -0.35547,-9.3086 1.11746,-5.1126 4.31221,-9.48613 6.47852,-14.25 3.83682,-8.43745 4.38151,-18.20685 2.1582,-27.20507 -1.25038,-5.06053 -3.44126,-10.04106 -7.22461,-13.62696 -1.89169,-1.79293 -4.1648,-3.20584 -6.6582,-3.96484 -1.24669,-0.3795 -2.54867,-0.59202 -3.85156,-0.61719 z"
       transform="matrix(0.26458333,0,0,0.26458333,-18.083809,109.98085)"
       id="rect2226"
       inkscape:connector-curvature="0"
       sodipodi:nodetypes="cccccccccccccccscsssscaaacaaasscccccccccscscccscccccscccccccccccccsccsccccccscccccccccccccccccsccccsccscscccc" />
    <rect
       style="opacity:1;fill:#0033ff;fill-opacity:1;fill-rule:evenodd;stroke:#000000;stroke-width:0.79375;stroke-linecap:round;stroke-linejoin:round;stroke-miterlimit:4;stroke-dasharray:none;stroke-opacity:1;paint-order:normal"
       id="rect2452"
       width="25.021448"
       height="5.4841533"
       x="69.530876"
       y="200.54956"
       ry="2.6278234"
       rx="2.6278234" />
    <path
       style="fill:none;fill-rule:evenodd;stroke:#000000;stroke-width:1.32291663;stroke-linecap:round;stroke-linejoin:round;stroke-miterlimit:4;stroke-dasharray:none;stroke-opacity:1"
       inkscape:connector-curvature="0"
       d="m 115.99979,110.64231 -0.30501,89.24681 c -1.48497,37.54097 -30.824911,67.27309 -66.406062,67.29411 -35.549142,-0.0461 -64.900059,-29.78887 -66.406059,-67.29411 l -0.30501,-89.24681 H 49.28712 Z"
       id="path10563-0-6-2-4"
       sodipodi:nodetypes="ccccccc" />
  </g>
</svg>
