<?xml version="1.0" encoding="UTF-8" standalone="no"?>
<!-- Created with Inkscape (http://www.inkscape.org/) -->

<svg
   xmlns:svg="http://www.w3.org/2000/svg"
   xmlns="http://www.w3.org/2000/svg"
   version="1.1"
   width="253.63055"
   height="326.34006"
   id="svg2">
  <defs
     id="defs4" />
  <path
     d="m 4.5,4.5 0,202.40068 0,0.0625 c 0,55.40001 54.02201,114.87686 123.80297,114.87686 69.78096,0 120.82759,-59.47685 120.82759,-114.87686 l 0,-0.0625 0,-202.40068 L 4.5,4.5 z"
     id="rect2890"
     style="fill:#ff0000;stroke:#ffff00;stroke-width:9;stroke-miterlimit:4;stroke-opacity:1;stroke-dasharray:none" />
  <path
     d="m 170.11255,132.42452 6.94253,0.99179 0.99179,-52.56488 -8.92611,-0.99179 -1.98358,7.934322 c 0,0 -10.51455,-11.809129 -39.41704,-11.901483 -28.685076,-0.09166 -67.213652,27.804751 -67.69631,73.392471 -0.588091,55.546 26.749806,83.93765 63.47458,85.29397 33.74734,1.24636 40.2683,-13.23542 42.0238,-17.82576 2.26844,-5.93158 4.59034,-24.82123 8.5575,-26.80481 3.96716,-1.98358 4.95895,-2.97537 4.95895,-2.97537 l 0,-6.94253 -40.6634,0.99179 0.99179,6.94253 c 0,0 9.9179,1.98358 11.90148,10.9097 1.98358,8.92611 -6.94253,20.82759 -17.85222,21.81938 -10.90969,0.99179 -49.58951,-2.97537 -48.59772,-65.45815 0.99179,-62.482787 33.72086,-69.425319 44.63056,-69.425319 36.69624,0 40.6634,46.614139 40.6634,46.614139 z"
     id="path3054"
     style="fill:#ffff00;stroke:#ff0000;stroke-width:1.79999995;stroke-linecap:butt;stroke-linejoin:miter;stroke-miterlimit:4;stroke-opacity:1;stroke-dasharray:none" />
  <path
     d="m 131.43273,262.34904 c 0,0 -28.76192,0.99179 -49.58951,-18.84401 -20.8276,-19.83581 -24.79476,-50.5813 -32.72908,-46.61414 -3.96716,0 -2.97537,13.88506 0.99179,30.74549 5.89739,25.06391 5.95074,30.7455 13.88506,35.70445 7.93432,4.95895 34.85318,15.35952 61.63152,15.35952 26.77833,0 85.13126,-15.46311 91.10418,-68.91619 5.69617,-50.97639 -24.7418,-65.94082 -39.67161,-73.39248 C 156.78039,126.27232 111.82122,114.2505 91.76112,100.68724 69.76869,85.817477 67.95815,52.089513 94.73649,34.237288 c 26.77833,-17.852225 67.87429,-0.114975 78.35143,5.950741 18.84401,10.909693 25.78655,38.67982 29.75371,40.663401 3.96716,1.98358 6.94253,2.975371 6.94253,-3.967161 0,-6.942532 -4.95895,-53.556674 -6.94253,-55.540254 -1.98358,-1.983581 -12.11381,3.692674 -17.85223,2.97537 C 177.05508,23.327595 174.2733,12.75558 132.56504,12.189811 94.689318,11.67603 77.106714,24.280853 66.280411,38.51029 52.011192,57.26489 52.469617,77.0328 53.0813,90.769332 c 0.799053,17.944308 6.94253,39.671608 56.53204,58.515618 49.58952,18.84402 89.14708,19.35315 86.17171,65.96729 -2.97538,46.61414 -64.35232,49.08038 -64.35232,47.0968 z"
     id="path3052"
     style="fill:#ffff00;stroke:#ff0000;stroke-width:2;stroke-linecap:butt;stroke-linejoin:miter;stroke-miterlimit:4;stroke-opacity:1;stroke-dasharray:none" />
</svg>
