<?xml version="1.0" encoding="UTF-8"?>
<svg width="323.14mm" height="402.93mm" version="1.1" viewBox="0 0 323.14 402.93" xml:space="preserve" xmlns="http://www.w3.org/2000/svg" xmlns:xlink="http://www.w3.org/1999/xlink"><g transform="translate(351.17 14.65)"><path d="m-349.84-12.83c-0.61688 7.277-0.0883 14.768-0.26369 22.128 0.107 42.69-0.26421 111.09 0.44745 153.77 1.9068 35.952 7.5389 72.768 19.9 95.105 12.519 23.712 38.053 73.377 78.454 94.76 11.689 8.7579 53.329 30.642 61.584 33.668 26.613-10.71 56.9-29.749 79.348-47.555 32.47-26.033 55.992-63.828 70.304-103.21 6.0657-16.704 9.0253-55.052 10.511-72.768 1.0101-26.701-0.25732-71.806-0.03704-98.521 0.04895-25.565 0.09808-51.13 0.14702-76.695-1.5135-2.15-5.1845-0.49862-7.5799-1.0172h-312.06l-0.40027 0.17688z" fill="#fff"/><use transform="matrix(1.9909 0 0 2.0335 204.91 39.308)" xlink:href="#rect19616"/><use transform="matrix(1.9909 0 0 2.0335 251.96 27.578)" xlink:href="#rect19616"/><use transform="matrix(1.9909 0 0 2.0335 299.45 14.826)" xlink:href="#rect19616"/><use transform="matrix(1.9584 0 0 2.0317 151.42 38.103)" xlink:href="#path19554"/><use transform="matrix(1.9618 0 0 1.8075 198.65 53.008)" xlink:href="#path19554"/><use transform="matrix(1.9618 0 0 1.5897 246.14 67.472)" xlink:href="#path19554"/><path d="m-189.71 317.1c0.45995-6.5924 4.1709-12.88 9.72-16.468 4.0278-2.6048 8.8758-3.7915 13.672-3.8277 7.936-0.0599 15.853 3.0388 21.64 8.47 0.67569-6.5609 4.5284-12.721 10.132-16.2 5.1805-3.2163 11.515-4.1102 17.605-3.8079 4.7327 0.23487 9.5142 1.1786 13.649 3.4926 2.813 1.5742 5.2784 3.7655 7.1717 6.3744 1.8503-7.2605 6.6312-13.729 13.029-17.629 3.8836-2.3671 8.3732-3.81 12.921-3.8317 3.9746-0.019 7.949 1.0561 11.372 3.076h1e-6c-7.6109 13.191-16.483 25.654-26.456 37.164-13.766 15.888-29.617 29.94-46.851 41.979-17.885 12.494-37.273 22.835-57.612 30.728z" fill="#094" fill-rule="evenodd" stroke="#000" stroke-linecap="round" stroke-linejoin="round" stroke-miterlimit="1e3" stroke-width="1.357" style="paint-order:fill markers stroke"/><g transform="matrix(2.0308 0 0 2.0308 -438.65 -118.28)"><path transform="scale(.26458)" d="m166.48 523.64c-0.80044 54.684 14.458 169.57 70.113 237.85 88.592 107.19 142.27 147.96 226.96 178.24-1.2531-123.51-0.20908-296.12-0.2561-416.08-97.4-0.26033-199.43-0.26032-296.82 0z" fill="#1c63b7" style="paint-order:markers fill stroke"/><path d="m122.64 248.64c0-9.7612-0.0584-36.87-0.0429-45.356-15.258 0-45.599 0.0103-58.784 1e-5 15.925 21.987 43.828 41.492 58.827 45.356z" fill="#fcdb00" stroke="#000" stroke-linecap="round" stroke-linejoin="round" stroke-width=".51897" style="paint-order:markers fill stroke"/><use transform="translate(-75.121 76.11)" xlink:href="#g16817"/></g><g transform="matrix(2.0308 0 0 2.0308 -438.68 -137.71)"><rect x="122.59" y="61.839" width="78.748" height="86.223" fill="#1c63b7" style="paint-order:markers fill stroke"/><path d="m122.66 127.67c0.0276 6.5384-0.0963 14.006 0 20.499h78.61c0.20777-6.8778 0.53707-14.083 0.36405-20.499h-78.974z" fill="#fcdb00" stroke="#000" stroke-linecap="round" stroke-linejoin="round" stroke-width=".66825" style="paint-order:markers fill stroke"/><g id="g16817" transform="matrix(.83334 0 0 .83334 61.12 -44.695)"><g transform="matrix(.26371 0 0 .26371 43.482 72.588)"><path d="m353.19 511.03c-0.13697 1.4989 0.42367 2.9737 1.1072 4.3147 0.68356 1.341 1.505 2.626 1.9573 4.0616 0.68031 2.1595 0.47496 4.482 0.61291 6.7419 0.0719 1.1785 0.24175 2.3612 0.65131 3.4686 0.40956 1.1074 1.0716 2.141 2.0046 2.8646 1.2778 0.99118 2.99 1.3286 4.5921 1.1083 1.6021-0.22034 3.0997-0.96011 4.3971-1.9255 1.5503-1.1536 2.8564-2.6507 3.7082-4.3852 0.71792-1.4619 1.1067-3.0746 1.2258-4.6989 0.27037-3.6871-0.87145-7.443-3.0645-10.419-1.1772-1.5977-2.645-2.9762-4.2903-4.086-1.1052-0.74541-2.2974-1.3739-3.57-1.7705-1.2727-0.39665-2.6293-0.55689-3.9492-0.37025-1.3199 0.18664-2.601 0.73055-3.5904 1.6239-0.98943 0.89333-1.6708 2.1444-1.7921 3.4719z" fill="#7a3f28" stroke="#000" stroke-linejoin="round" stroke-width="2.0066"/><path d="m244.91 512.25c-3.3532 2.1761-7.1231 3.663-10.419 5.9247-1.4545 0.99797-2.8245 2.1597-3.8298 3.6091s-1.6257 3.2134-1.482 4.9715c0.0966 1.1818 0.54141 2.336 1.2791 3.2644s1.7673 1.6252 2.9091 1.9453c0.98569 0.27632 2.0244 0.27344 3.0479 0.2958 1.3576 0.0297 2.745 0.10356 4.0449-0.28891 1.5464-0.46687 2.8202-1.5471 4.0449-2.6003 1.6082-1.383 3.2221-2.7712 5.0017-3.9253 1.7796-1.1541 3.7421-2.0741 5.8329-2.431 1.1918-0.20346 2.4102-0.22212 3.5989-0.44273 1.1887-0.22061 2.3878-0.67581 3.1908-1.5797 0.47917-0.53945 0.79124-1.2117 0.98262-1.9074 0.19137-0.69569 0.26726-1.4177 0.31754-2.1375 0.10806-1.547 0.0986-3.1212-0.28892-4.6228-0.27181-1.0531-0.731-2.0621-1.385-2.9311-0.654-0.86899-1.5054-1.5953-2.4877-2.0622-1.2011-0.57096-2.5704-0.74158-3.8933-0.6051-1.3228 0.13649-2.6028 0.56998-3.7974 1.1543-2.3893 1.1686-4.4359 2.9212-6.667 4.3691z" fill="#7a3f28" stroke="#000" stroke-linejoin="round" stroke-width="2.0066"/><path d="m262.27 450.76c-0.83356 4.5346-1.8562 9.0344-3.0645 13.484-2.0354 7.4955-4.5996 14.858-6.129 22.473-1.1348 5.6501-1.719 11.498-4.086 16.753-0.59015 1.3101-1.2898 2.5791-1.7044 3.9548-0.20733 0.68786-0.34182 1.4013-0.34715 2.1197-5e-3 0.71841 0.12122 1.4428 0.41721 2.0974 0.31175 0.68946 0.8087 1.2912 1.4141 1.7451 0.60542 0.45389 1.3173 0.76083 2.059 0.91077 1.0335 0.20894 2.1163 0.1137 3.1249-0.19373 1.0086-0.30743 1.9461-0.82185 2.7998-1.4407 2.6913-1.9508 4.5026-4.8644 6.129-7.7634 3.5324-6.2962 6.5219-12.884 10.011-19.204 1.5774-2.8577 3.2677-5.6851 4.2903-8.7849 1.4014-4.2482 1.4843-8.8064 1.4301-13.279-0.0462-3.8161-0.18246-7.6311-0.40861-11.441" fill="#fff" stroke="#000" stroke-linejoin="round" stroke-width="2.0066"/><path d="m337.05 457.7c-0.72057 3.3479-0.85946 6.8202-0.4086 10.215 0.74698 5.6244 3.077 10.915 5.7204 15.935 3.2657 6.2023 7.0554 12.144 9.8064 18.591 0.77923 1.8262 1.4728 3.6879 2.2473 5.5161 0.41621 0.98246 0.85829 1.9598 1.4435 2.852s1.322 1.7016 2.2339 2.2555c1.3856 0.84158 3.0927 1.0371 4.6989 0.8172 0.7945-0.10876 1.585-0.31745 2.2817-0.71456 0.69667-0.39711 1.2961-0.99492 1.6-1.737 0.35192-0.85949 0.28408-1.841 0.0301-2.7344-0.25397-0.89335-0.68241-1.7252-1.0516-2.5774-1.9861-4.5843-2.2435-9.7135-2.2473-14.71-5e-3 -6.6969 0.3862-13.474-1.0215-20.021-0.8521-3.9632-2.3627-7.7886-4.4946-11.236-1.0759-1.74-2.3082-3.3832-3.6774-4.9032" fill="#fff" stroke="#000" stroke-linejoin="round" stroke-width="2.0066"/><path d="m269.42 380.68c-0.89343 6.5231-2.4004 12.962-4.4946 19.204-1.8363 5.4734-4.1227 10.796-5.7204 16.344-1.9064 6.6198-2.8144 13.564-2.2473 20.43 0.20578 2.4913 0.60919 4.9846 1.4804 7.3276 0.87117 2.3431 2.2314 4.5393 4.1379 6.1562 2.1226 1.8 4.854 2.8122 7.6251 3.0698 2.7711 0.25762 5.5802-0.21246 8.2081-1.129 5.669-1.9772 10.563-6.0929 13.484-11.339 1.481-5.8718 3.2546-11.67 5.3118-17.365 0.90172-2.4965 1.9109-5.0562 3.8064-6.9143 0.76576-0.75067 1.6928-1.381 2.7448-1.5891 0.80466-0.15918 1.6509-0.0614 2.4185 0.22769 0.76761 0.2891 1.4582 0.76457 2.0417 1.341 1.167 1.1529 1.8924 2.6757 2.4739 4.2097 1.8864 4.9768 2.4908 10.376 4.4783 15.313 3.2147 7.9856 9.7745 14.129 16.613 19.358 1.4366 1.0984 2.9765 2.2038 4.7672 2.4558 1.6042 0.22576 3.2181-0.26376 4.7366-0.82837 1.5185-0.56461 3.0378-1.218 4.6534-1.3386 1.1915-0.0889 2.3825 0.11713 3.574 0.20524 1.1916 0.0881 2.4393 0.0468 3.5046-0.49415 1.0544-0.53545 1.8301-1.5201 2.3114-2.6003 0.58687-1.3171 0.77403-2.7836 0.75012-4.2254-0.0239-1.4418-0.25116-2.8713-0.4612-4.2979-0.81348-5.5252-1.3754-11.085-2.1669-16.613-1.1753-8.2091-2.86-16.358-5.3451-24.27-1.7701-5.6353-3.9444-11.144-6.5008-16.469" fill="#fff" stroke="#000" stroke-linejoin="round" stroke-width="2.0066"/><path d="m303.47 414.59c0.70156-2.7979 1.185-5.6504 1.4446-8.5232 0.34297-3.7957 0.29448-7.6266-0.14446-11.412" fill="none" stroke="#000" stroke-linecap="round" stroke-linejoin="round" stroke-width="2.5083"/><path d="m306.14 414.52c-0.23715-2.7414-0.42979-5.4866-0.57784-8.2343-0.21127-3.921-0.3317-7.847-0.36116-11.774" fill="none" stroke="#000" stroke-linecap="round" stroke-linejoin="round" stroke-width="2.6086"/><path d="m314.98 422.15c0.13048 3.885 0.82079 7.7507 2.043 11.441 0.69915 2.1108 1.578 4.1765 2.8062 6.0301 1.2282 1.8536 2.82 3.4942 4.7528 4.5935 2.9428 1.6736 6.6272 1.9807 9.8064 0.8172" fill="none" stroke="#000" stroke-linecap="round" stroke-linejoin="round" stroke-width=".50166"/><path d="m345.12 442.48c1.0801 0.23266 2.2514 6e-3 3.1666-0.61289 0.95008-0.6424 1.5954-1.6642 1.9694-2.7483s0.49879-2.237 0.58434-3.3806c0.4908-6.5615-0.24046-13.212-2.1451-19.511" fill="none" stroke="#000" stroke-linecap="round" stroke-linejoin="round" stroke-width=".50166"/><path transform="matrix(1.0033 0 0 1.0033 -2.5 -46.1)" d="m235.85 397.91c-2.5302 2.3216-5.5468 4.7662-9.2015 4.5463-3.0014-0.0383-6.1807 0.0723-8.7942 1.7597-1.6927 1.1282-3.7462 1.9868-4.9423 3.6911-0.56264 1.3736 1.3236 2.2143 2.4145 1.7165 2.3608-0.78385 4.5139-2.2255 7.0167-2.5743-3.6949 3.6412-7.6082 7.1066-10.954 11.084-0.77222 0.93658-1.4197 2.8335 0.0553 3.4572 1.526 0.71876 2.5037-1.1904 3.4381-2.0323 1.5542-1.6226 3.1263-3.3013 4.8106-4.788 0.74604 0.38414 0.40918 0.90916-0.12249 1.3562-2.3972 2.7703-5.0225 5.4097-6.9654 8.5268-0.49311 0.95971 0.21989 2.1615 1.324 2.0219 2.0515 0.0342 2.9372-2.1925 4.2063-3.4151 1.6037-1.8596 3.0462-4.0106 4.7759-5.6792 0.50046 0.17125 0.90765 0.46959 0.35554 0.90835-1.6014 2.3069-3.6566 4.4339-4.6742 7.097-0.46228 1.1129 0.69406 2.6808 1.8644 1.8497 1.7604-1.5008 2.7911-3.702 4.1395-5.5587 0.62959-0.85218 1.1092-1.9578 1.8197-2.6714 0.74029 0.10586 0.87246 0.52477 0.41162 1.1108-0.69356 1.952-2.1038 3.8036-2.078 5.9361 0.18836 1.1836 1.8136 1.2334 2.3198 0.23584 2.3238-3.287 3.3286-7.5798 6.7136-10.06 2.4743-1.8873 5.1511-3.7821 6.4643-6.72 0.69218-1.5701 1.7436-2.9387 2.6145-4.389 0.08-1.4403-1.2459-2.5197-2.0104-3.6151-1.3764-1.5037-2.7887-3.2286-4.741-3.9241l-0.18224 0.0908z" fill="#ff9581"/><path d="m222 373.37c-1.5798 1.8463-3.0326 3.8012-4.345 5.8463-0.41285 0.64335-0.82346 1.331-0.86826 2.0941-0.0163 0.27692 0.0181 0.55975 0.12651 0.81509 0.10839 0.25535 0.29413 0.48182 0.53746 0.61501 0.23729 0.12988 0.52013 0.16598 0.78732 0.12365 0.26718-0.0423 0.51909-0.15993 0.73866-0.31794 0.43914-0.31602 0.74385-0.78041 1.0438-1.2307 0.58291-0.87512 1.1854-1.737 1.7716-2.61 0.93623-1.3943 1.8306-2.8168 2.6814-4.2648" fill="none" stroke="#000" stroke-linecap="round" stroke-linejoin="round" stroke-width="1.0033"/><path d="m225.54 374.78c-0.46902 1.0166-0.93635 2.034-1.402 3.0521-0.4234 0.92574-0.84825 1.8605-1.07 2.854-0.0621 0.27808-0.10808 0.56439-0.0745 0.84732 0.0168 0.14146 0.0538 0.28114 0.11616 0.40921 0.0624 0.12807 0.15069 0.24436 0.26221 0.333 0.1115 0.0886 0.24484 0.14845 0.384 0.17884 0.13915 0.0304 0.28399 0.0318 0.42478 0.0101 0.28156-0.0433 0.54269-0.17669 0.77454-0.3422 0.44591-0.31832 0.79584-0.75597 1.076-1.2268 0.28013-0.47084 0.49475-0.97707 0.71166-1.4802 1.0185-2.3623 2.14-4.7436 3.9328-6.5886 1.0588-1.0896 2.3192-1.9576 3.5328-2.8717s2.4049-1.8994 3.2602-3.1552c0.88818-1.304 1.3742-2.8414 2.1962-4.1881 1.1795-1.9323 3.0604-3.4259 5.2096-4.137" fill="none" stroke="#000" stroke-linecap="round" stroke-linejoin="round" stroke-width="1.0033"/><path d="m236.87 349.73c-1.2171 1.7355-2.6247 3.3372-4.1894 4.7672-1.353 1.2366-2.8658 2.3668-4.6228 2.8892-1.5293 0.45473-3.1544 0.42415-4.7497 0.40497-1.0966-0.0132-2.2006-0.0186-3.28 0.17501-2.8774 0.51602-5.2966 2.3737-7.7353 3.9857-0.28102 0.18576-0.56634 0.37098-0.80133 0.61235-0.235 0.24136-0.41879 0.54784-0.44927 0.88333-0.0303 0.33305 0.0964 0.67097 0.31407 0.92488 0.21764 0.25392 0.5203 0.42707 0.84163 0.51974 0.56503 0.16295 1.1769 0.0838 1.7336-0.10548 0.55675-0.1893 1.0706-0.48365 1.589-0.76129 0.2759-0.14777 0.55413-0.29126 0.83596-0.42737 1.375-0.66404 2.8354-1.1508 4.3338-1.4446" fill="none" stroke="#000" stroke-linecap="round" stroke-linejoin="round" stroke-width="1.0033"/><path d="m220.92 362.21c-2.6302 2.3174-5.1857 4.7196-7.6612 7.2016-1.2781 1.2814-2.5386 2.5884-3.6263 4.0349-0.29594 0.39355-0.58234 0.80385-0.74452 1.2688-0.0811 0.23247-0.13003 0.47736-0.12985 0.72356s0.0504 0.49383 0.15932 0.71463c0.1921 0.38943 0.56689 0.67923 0.98756 0.7869 0.42067 0.10768 0.88027 0.0371 1.2597-0.174 0.41298-0.22972 0.72011-0.60643 1.0215-0.97042 1.7486-2.1118 3.6538-4.0939 5.6948-5.9247" fill="none" stroke="#000" stroke-linecap="round" stroke-linejoin="round" stroke-width="1.0033"/><path d="m218.68 370.69c-1.8403 1.8366-3.5902 3.7638-5.2414 5.7722-0.63217 0.76896-1.2499 1.5498-1.8511 2.3432-0.31361 0.41387-0.62857 0.84257-0.77611 1.3404-0.0738 0.24894-0.10352 0.51312-0.0657 0.76999 0.0378 0.25687 0.14542 0.50608 0.32232 0.69613 0.18713 0.20105 0.44529 0.32899 0.71468 0.38253 0.2694 0.0535 0.5497 0.0357 0.81757-0.025 0.51946-0.11777 0.9931-0.39351 1.4027-0.73402 0.40958-0.34052 0.76025-0.74554 1.1-1.1558 0.93629-1.1305 1.8047-2.3152 2.707-3.4731 1.0382-1.3322 2.1215-2.6292 3.2476-3.8879" fill="none" stroke="#000" stroke-linecap="round" stroke-linejoin="round" stroke-width="1.0033"/><path d="m228.42 359.4c1.2585 0.1549 2.4798 0.60357 3.5393 1.3002 1.696 1.1151 2.9568 2.8749 3.4671 4.8395" fill="none" stroke="#000" stroke-linecap="round" stroke-linejoin="round" stroke-width=".20066"/><path d="m218.04 369.96 0.61835 0.66193" fill="none" stroke="#000" stroke-linecap="round" stroke-linejoin="round" stroke-width="1.0033"/><path d="m221.16 372.77 0.8126 0.54174" fill="none" stroke="#000" stroke-linecap="round" stroke-linejoin="round" stroke-width="1.0033"/><path d="m224.5 374.39 1.0293 0.36116" fill="none" stroke="#000" stroke-linecap="round" stroke-linejoin="round" stroke-width="1.0033"/><path d="m221.16 367.71c0.63083 0.552 1.2966 1.0641 1.9919 1.5322 1.1836 0.79685 2.4532 1.4659 3.7795 1.9919" fill="none" stroke="#000" stroke-linecap="round" stroke-linejoin="round" stroke-width=".10033"/><g><path transform="matrix(1.0033 0 0 1.0033 -2.5 -46.1)" d="m303.23 330.33c-9.6892 0.0907-19.353 1.6058-28.71 4.0687-5.0686 1.3159-8.9881 5.4428-10.683 10.318-4.1689 10.373-6.1528 21.503-11.139 31.457-3.4661 6.4903-9.3512 11.249-14.828 15.932-1.3033 1.389-4.0155 1.6693-3.5079 3.983 1.0266 1.8596 3.224 1.9658 4.5642 3.5709 2.3345 1.8839 4.0092 5.313 5.2823 7.9415 1.6824 1.9665 4.1242-0.13908 5.7655-1.0871 7.7904-4.976 13.352-12.527 20.436-18.293 1.8191-1.4308 5.0625-2.8424 6.5524-0.19517 1.6423 3.1179 0.52063 6.8741 0.49723 10.3-0.18366 5.958-4.5586 9.2329-7.5066 13.884-2.203 4.109-4.289 8.7438-6.0313 13.069-0.44077 1.8984 1.8855 2.9638 3.3206 1.959 2.1306-1.1269 4.4658-1.6814 6.8763-1.4238 5.6209 9e-3 10.588 3.3726 15.281 5.9591 5.5141 3.2027 11.149 7.486 17.835 7.3523 8.6768-0.43454 16.229-5.1613 24.524-7.1294 3.9859-0.99483 8.2529-1.0026 12.185 0.20303 2.0084 0.22164 2.8267-2.3183 1.6569-3.7059-0.80205-3.0884 0.0292-6.5304-1.9498-9.2724-3.6677-7.3362-6.779-14.951-10.913-22.048-1.4068-2.3579-2.2168-5.9822 0.3909-7.8291 5.3086-2.6177 9.345 3.6437 13.831 5.4584 5.086 2.3979 10.828 2.9986 16.38 3.2666 3.2162 0.24078 6.8177-1.7485 7.0237-5.2565 0.36456-5.4541-0.94588-10.87-1.9866-16.192-2.1973-10.342-7.1342-20.169-14.748-27.582-12.017-12.183-29.208-18.692-46.221-18.674-1.3927-0.0321-2.7859-0.0452-4.1789-0.0349z" fill="#fcdb00"/><path d="m231.82 351.35c2.5067 0.96579 4.7945 2.4951 6.6452 4.4422 2.2382 2.3547 3.828 5.3197 4.5505 8.4871" fill="none" stroke="#000" stroke-linecap="round" stroke-linejoin="round" stroke-width="2.0066"/><path d="m231.82 351.17c3.1824-2.3767 6.2677-4.8835 9.2455-7.512 3.0729-2.7124 6.054-5.5809 8.3788-8.9566 2.599-3.7739 4.3099-8.0831 5.7785-12.424 2.3332-6.8964 4.1109-13.977 6.6452-20.802 1.0904-2.9366 2.3762-5.9067 4.6228-8.0898 1.5224-1.4794 3.4228-2.5267 5.4095-3.2746 1.9867-0.74786 4.0681-1.2094 6.1474-1.6371 12.538-2.5787 25.493-4.0088 38.138-2.0225 8.8792 1.3948 17.511 4.4869 25.136 9.2456 8.9684 5.5971 16.539 13.573 21.091 23.114 3.6984 7.7512 5.3492 16.318 6.3563 24.847 0.14721 1.2467 0.28157 2.5055 0.16136 3.7551s-0.51354 2.5035-1.317 3.468c-0.51027 0.61252-1.172 1.0908-1.8943 1.4284s-1.5043 0.53704-2.2953 0.63643c-1.582 0.19877-3.1838 2e-3 -4.767-0.18679-4.9353-0.58823-10.064-1.1588-14.302-3.756-2.6148-1.6025-4.8029-3.9324-7.6565-5.0562-0.86755-0.34163-1.7921-0.56477-2.7244-0.54962-0.93226 0.0152-1.8742 0.27985-2.6207 0.83854-0.61049 0.45691-1.0735 1.0979-1.3593 1.8048s-0.3984 1.4779-0.37423 2.2401c0.0402 1.2662 0.45026 2.4966 1.001 3.6374 0.55078 1.1409 1.2422 2.2069 1.8882 3.2967 3.0319 5.1156 5.0614 10.757 7.8009 16.035 0.74457 1.4345 1.5428 2.8445 2.1704 4.3339 0.62766 1.4893 1.0844 3.0737 1.1056 4.6897 8e-3 0.58331-0.0414 1.166-0.042 1.7494-6.3e-4 0.58336 0.0489 1.1747 0.24633 1.7237 0.15892 0.44198 0.40981 0.84597 0.57529 1.2855 0.0827 0.21978 0.14404 0.44939 0.1583 0.68379 0.0143 0.23441-0.02 0.47439-0.12069 0.68656-0.1292 0.27231-0.36387 0.48755-0.63456 0.62012-0.27068 0.13258-0.57564 0.18606-0.87704 0.18425-0.6028-4e-3 -1.1806-0.2198-1.7572-0.39577-3.2931-1.0051-6.852-0.73828-10.215 0-5.7683 1.2663-11.148 3.8584-16.753 5.7204-2.9059 0.96542-5.929 1.7417-8.9892 1.6344-3.0723-0.10774-6.0573-1.106-8.8176-2.4594-2.7603-1.3534-5.3287-3.0607-7.935-4.6911-3.9695-2.4832-8.1149-4.8268-12.667-5.9247-1.4194-0.34234-2.8759-0.56093-4.3357-0.53101-1.4598 0.0299-2.9256 0.31403-4.2449 0.93961-0.81178 0.38494-1.5827 0.90255-2.4677 1.0571-0.44252 0.0773-0.91004 0.0571-1.3242-0.11687-0.20709-0.087-0.39901-0.21183-0.55684-0.37164-0.15783-0.1598-0.28105-0.35484-0.35011-0.56857-0.12321-0.38129-0.0689-0.80139 0.0664-1.1786s0.34712-0.72117 0.54651-1.0687c2.4793-4.3219 3.1901-9.5229 5.9247-13.688 1.7576-2.6772 4.3024-4.8436 5.6182-7.7634 1.2954-2.8746 1.2523-6.1435 1.3279-9.2956 0.0331-1.3794 0.0894-2.7897-0.32097-4.1071-0.20519-0.65869-0.52908-1.2868-0.99376-1.7967s-1.0753-0.89714-1.7498-1.0424c-0.606-0.1305-1.2414-0.0638-1.8387 0.10215-1.6737 0.46494-3.0344 1.6601-4.2903 2.8602-3.7606 3.5937-7.1602 7.5588-11.032 11.032-3.8387 3.4436-8.1273 6.3852-12.722 8.7264" fill="none" stroke="#000" stroke-linecap="round" stroke-linejoin="round" stroke-width="2.0066"/><g><path d="m284.58 287.65c-0.73096 1.4308-1.3258 2.9311-1.7737 4.474-0.64482 2.221-0.98489 4.5526-0.75949 6.8543 0.2214 2.2609 1.0444 4.5438 2.7063 6.0927 1.3215 1.2315 3.077 1.9132 4.8528 2.2438 1.7759 0.33063 3.5935 0.33633 5.3994 0.38004 1.9596 0.0474 3.9224 0.14079 5.8782 9e-3 1.9558-0.13166 3.9182-0.49592 5.6955-1.3226 1.6415-0.76346 3.1038-1.9212 4.1881-3.3709 1.1704-1.5649 1.8836-3.4378 2.267-5.3541 0.55043-2.7517 0.43766-5.6337-0.3261-8.334" fill="none" stroke="#000" stroke-linecap="round" stroke-linejoin="round" stroke-width="1.0033"/><path transform="matrix(1.0033 0 0 1.0033 -2.5 -46.1)" d="m310.74 330.83c-0.44451-0.55554-0.0569 1.4754-0.0329 2.072 0.21039 1.305-0.71315 2.1292-0.25009 3.3649 4.9324 0.44365 7.2094 1.1911 10.193 2.0473 0.57303 0.12454 0.82716-0.48622 0.79177-0.956 0.10058-1.5239 0.22783-3.0232 0.3355-4.5483-0.15266-0.70009-1.0046-0.58902-1.5371-0.75437-2.3214-0.41552-4.6592-0.79542-7.0042-1.0131-0.0853 0.014-2.2382 0.10952-2.2923 0.042z"/></g></g><path d="m287.35 364.54c-0.20582 1.2991-0.42839 2.5956-0.66761 3.8889-0.48759 2.6362-1.0434 5.363-0.4086 7.9677 0.2286 0.93798 0.60984 1.8385 1.1237 2.6559 0.10272 0.16339 0.21439 0.32734 0.37255 0.43794 0.0791 0.0553 0.16925 0.0961 0.26453 0.11144 0.0953 0.0153 0.19576 4e-3 0.28226-0.0386 0.0845-0.0418 0.15306-0.11241 0.1993-0.19452 0.0462-0.0821 0.0709-0.17531 0.0792-0.26917 0.0167-0.18773-0.03-0.37459-0.0742-0.55781-0.33911-1.4066-0.55029-2.8448-0.6129-4.2903-0.10449-2.4126 0.20796-4.8428 0.91935-7.1505" stroke="#000" stroke-linejoin="round" stroke-width="1.505"/><g><g><path transform="matrix(1.0033 0 0 1.0033 -2.5 -46.1)" d="m322.16 332.53c-0.95284 0.24386-0.617 1.5232-0.7849 2.2533-0.50646 8.8708-0.24176 17.847 1.7031 26.546 0.56356 2.3523 0.97347 4.7764 1.8687 7.0275 0.96347 0.7855 2.2577 1.1006 3.4331 1.4598 2.5087 0.45636 4.5611-1.4104 6.7076-2.3487 0.71887-0.70603-0.0267-1.741-2e-3 -2.5783-0.70476-3.9166-0.85575-7.8731-0.76944-11.858-0.0198-5.2476 0.72955-10.473 1.3127-15.682-0.34483-0.91297-1.5838-0.92734-2.3464-1.369-3.5888-1.3787-7.2344-2.6975-11.01-3.4519l-0.0742-2.8e-4z" fill="#fff"/><path transform="matrix(1.0033 0 0 1.0033 -2.5 -46.1)" d="m273.13 335.42c-1.6558 0.60929-3.2137 1.5704-4.5695 2.7042-1.7217 1.5456-2.969 3.5827-3.8201 5.7087 0.066 5.8255 0.13536 11.7 1.4224 17.412 1.726 8.6421 5.135 16.843 9.0012 24.724 1.6034 2.9562 1.9301 3.9666 2.9728 6.0032 3.8638 7.9878 8.1706 16.02 14.696 22.179 5.1926 4.8975 11.991 8.5857 19.264 8.6488 6.4758 0.10618 12.836-2.4349 17.714-6.6425 0.28765-1.4179 0.2177-2.188 0.17721-3.2659-0.3098-8.2477-0.82606-16.495-1.9705-24.67 0.035-0.77255-0.66139-1.1951-1.3716-1.109-1.0529-6e-3 -2.1547-0.25918-3.172 0.0162-0.4478 0.96883-0.30152 2.145-0.78966 3.1322-1.2712 3.3492-4.8667 5.2565-8.285 5.4444-3.5341 0.27599-7.0271-0.14132-10.369-1.3527-8.0565-2.7678-14.579-9.0244-18.988-16.216-5.4432-8.822-8.0045-19.008-9.666-29.132-0.74155-4.356-1.0756-8.7805-1.5925-13.172-0.14997-0.23949-0.34142-0.46155-0.65356-0.41255z" fill="#fff"/><path transform="matrix(1.0033 0 0 1.0033 -2.5 -46.1)" d="m275.04 345.42c-0.58162 0.38578-0.2091 1.1419-0.19343 1.6968 1.3243 8.8788 3.2616 17.781 7.1351 25.931 0.28872 0.48346 0.39018 1.1426 0.86316 1.4693 0.55572 0.25746 0.90438-0.37701 0.94509-0.84878 0.41478-1.7199 1.5389-3.2558 3.1057-4.0955 0.57199-0.38817 1.2731-0.49362 1.8682-0.82016 0.47058-0.32486 0.28366-0.98674-0.13386-1.2625-3.177-3.8836-6.0304-8.0215-8.4103-12.446-1.6296-2.9729-3.0018-6.0072-4.2651-9.1521-0.12435-0.3898-0.51139-0.64528-0.91464-0.47229z" fill="#fff" stroke="#000" stroke-linecap="round" stroke-linejoin="round" stroke-width=".071992"/></g><path transform="matrix(1.0033 0 0 1.0033 -2.5 -46.1)" d="m289.15 368.55c-2.4805 0.35634-4.7226 2.1854-5.4422 4.6082-0.25185 0.73618-0.27553 1.5212-0.38808 2.2786 0.19516 0.85137 0.78989 1.5501 1.19 2.3146 0.54507 0.82051 0.97017 1.7515 1.6742 2.4496 0.613 0.31876 1.1488-0.32555 1.681-0.54338 2.6627-1.4392 5.644-2.3546 8.6588-2.6501 0.57273-0.17664 0.52135-0.94996 0.0799-1.245-2.379-2.1862-4.6358-4.5025-6.7967-6.8834-0.17485-0.17875-0.39079-0.35057-0.657-0.32907z" stroke="#000" stroke-linecap="round" stroke-linejoin="round" stroke-width=".071992"/><path transform="matrix(1.0033 0 0 1.0033 -2.5 -46.1)" d="m293.48 377.3c-2.2519 0.58416-4.4533 1.4483-6.4607 2.6252-0.6188 0.40414-0.37818 1.2386 0.0827 1.6634 3.8477 5.1493 8.8091 9.5993 14.762 12.151 4.549 1.9546 10.468 3.2601 15.362 2.1431 2.6602-0.56309 5.1578-1.8803 6.9169-4.2954 0.70441-0.96708 1.6513-2.994 1.4643-4.1972-0.66227-0.53297-3.9397-1.5925-4.677-2.0286-1.5394-0.64702-1.0298-1.7399-1.7241-3.2287-0.55087-0.76759-3.7767 0.5861-3.361 1.5812 0.2608 0.98301 0.17346 2.0972-0.21377 3.038-0.97296 2.1451-3.4828 3.0743-5.7121 2.9469-4.0503-0.26266-7.9006-1.911-11.311-4.0064-1.6519-1.0958-3.4463-2.1993-4.4994-3.9323-0.64929-1.1156-0.6326-2.5394 0.0432-3.6408 0.15713-0.45183-0.19794-0.89267-0.67212-0.81986z"/><path transform="matrix(1.0033 0 0 1.0033 -2.5 -46.1)" d="m314.64 372.91c-2.9253 0.0951-6.0563 0.64848-8.3581 2.5871-0.75247 0.67373-1.5098 1.4197-1.9271 2.3508-0.043 0.82887 0.99258 0.98829 1.4898 1.4429 2.4345 1.54 4.857 3.6004 7.8801 3.6925 1.0816-0.028 4.5924-0.59393 5.5852-1.0776 0.57746-0.54573-0.20488-2.1833-0.27008-2.8276-0.6108-2.3372-0.10136-3.8966 0.0771-6.2728-0.19033-0.77215-3.9039 0.19363-4.4769 0.10479z" fill="#fcdb00"/><path transform="matrix(1.0033 0 0 1.0033 -2.5 -46.1)" d="m297.62 376.83c-1.0635 0.0341-2.3262-0.15438-3.1158 0.73947-1.4819 1.3213-1.253 3.7774 0.0708 5.127 1.8713 2.0205 4.3018 3.429 6.7299 4.6768 2.6951 1.2711 5.5814 2.3452 8.5867 2.47 2.1658 0.13811 4.5939-0.67809 5.6872-2.6706 0.70622-1.2731 0.81948-2.9364 0.10638-4.2158-0.96976-0.2938-2.0365-0.0146-3.0305-0.27616-2.9433-0.51765-5.1612-2.6887-7.6873-4.1066-2.1856-1.3592-4.8004-1.8522-7.3475-1.744z" fill="#fcdb00"/><path d="m263.39 297.61c-0.48328 7.6978 0.27436 15.472 2.2348 22.932 2.3864 9.0805 6.5092 17.597 10.69 26.003 3.2584 6.5517 6.6071 13.139 11.268 18.78 5.1001 6.1724 12.022 11.208 19.936 12.424 5.2128 0.80101 10.666-0.11846 15.358-2.5273 4.6917-2.4089 8.6049-6.2873 11.113-10.927 3.5333-6.5368 4.1876-14.565 1.7596-21.588" fill="none" stroke="#000" stroke-linecap="round" stroke-linejoin="round" stroke-width="1.0033"/><path d="m272.12 290.5c0.35736 5.2283 0.98447 10.438 1.878 15.602 1.1595 6.7007 2.7784 13.356 5.4276 19.619 2.6492 6.263 6.3622 12.142 11.33 16.785 5.6301 5.263 13.099 8.8897 20.802 8.6677 2.6105-0.0752 5.3182-0.63703 7.3513-2.2763 1.9514-1.5735 3.1005-4.0945 3.008-6.5996" fill="none" stroke="#000" stroke-linecap="round" stroke-linejoin="round" stroke-width="1.0033"/><g><path d="m293.36 334.34c0.15229 0.37743 0.45839 0.69014 0.83248 0.85046 0.37409 0.16033 0.81164 0.16632 1.19 0.0163 0.46745-0.18535 0.81441-0.58063 1.2279-0.86677 0.47188-0.32653 1.0407-0.51109 1.6144-0.52383 0.5737-0.0127 1.1501 0.14638 1.636 0.45163" fill="none" stroke="#000" stroke-linecap="round" stroke-linejoin="round" stroke-width=".50166"/><path d="m295.02 337.66c0.86374 0.0907 1.7504-0.0465 2.5463-0.39412 0.24902-0.10875 0.48913-0.23756 0.74104-0.33944 0.2519-0.10188 0.51953-0.17703 0.7912-0.17131 0.25914 5e-3 0.51626 0.0863 0.73193 0.23004 0.21567 0.14378 0.38915 0.35004 0.49386 0.58715" fill="none" stroke="#000" stroke-linecap="round" stroke-linejoin="round" stroke-width=".50166"/><path d="m301.14 335.79c0.25492-0.18686 0.55568-0.3107 0.86827-0.35752 0.60786-0.091 1.2538 0.12427 1.6855 0.56183" fill="none" stroke="#000" stroke-linecap="round" stroke-linejoin="round" stroke-width=".50166"/><path d="m298.79 339.87c0.53761-0.43073 1.2609-0.62106 1.9408-0.51075 0.54818 0.0889 1.0492 0.35872 1.5833 0.51075 0.81941 0.23323 1.7178 0.17823 2.5027-0.15321" fill="none" stroke="#000" stroke-linecap="round" stroke-linejoin="round" stroke-width=".50166"/><path d="m304.77 338.24c0.59213-0.25979 1.2437-0.38305 1.8898-0.35752 0.48954 0.0194 0.97562 0.12351 1.4301 0.30645" fill="none" stroke="#000" stroke-linecap="round" stroke-linejoin="round" stroke-width=".50166"/><path d="m304.05 342.27c0.65147-0.5488 1.582-0.74679 2.4005-0.51075 0.74093 0.21368 1.3468 0.74091 2.043 1.0726 0.8193 0.39032 1.7692 0.49993 2.6559 0.30646" fill="none" stroke="#000" stroke-linecap="round" stroke-linejoin="round" stroke-width=".50166"/><path d="m307.88 340.23c0.65093-0.58762 1.6007-0.82507 2.4516-0.6129 0.58361 0.14552 1.1147 0.49348 1.4812 0.97043" fill="none" stroke="#000" stroke-linecap="round" stroke-linejoin="round" stroke-width=".50166"/><path d="m304.77 333.03c0.13815-0.20891 0.33022-0.38184 0.55243-0.4974 0.22221-0.11555 0.47408-0.17346 0.72445-0.16658 0.35482 0.01 0.69339 0.14594 1.0138 0.29866 0.32041 0.15273 0.63507 0.32525 0.97812 0.41639 0.50693 0.13467 1.062 0.0792 1.5322-0.15323" fill="none" stroke="#000" stroke-linecap="round" stroke-linejoin="round" stroke-width=".50166"/><path d="m307.32 330.83c0.7055-0.5585 1.6029-0.86983 2.5027-0.86827 0.71471 1e-3 1.4281 0.19743 2.043 0.56181" fill="none" stroke="#000" stroke-linecap="round" stroke-linejoin="round" stroke-width=".50166"/><path d="m308.85 335.17c0.65258 0.31281 1.3707 0.48797 2.0941 0.51075 0.75005 0.0236 1.5048-0.1168 2.1962-0.4086" fill="none" stroke="#000" stroke-linecap="round" stroke-linejoin="round" stroke-width=".50166"/></g><path d="m297.33 374.21c-1.1714 0.63979-2.074 1.7548-2.4558 3.0337-0.22279 0.74613-0.27261 1.5433-0.14447 2.3114" fill="none" stroke="#000" stroke-linecap="round" stroke-linejoin="round" stroke-width=".80265"/><path d="m311.51 378.43c-0.90276 0.82573-1.5802 1.8954-1.9408 3.0645-0.21379 0.69307-0.31763 1.4199-0.30645 2.1451" fill="none" stroke="#000" stroke-linecap="round" stroke-linejoin="round" stroke-width=".80265"/><path transform="matrix(1.0033 0 0 1.0033 -2.5 -46.1)" d="m298.88 418.74c-0.36507 0.0761-0.64716 0.34943-0.94171 0.56092-0.92288 0.76095-1.5935 1.8345-1.8354 3.0085-0.0896 0.35654 0.20349 0.75253 0.5779 0.73096 0.30082-0.016 0.55892-0.20836 0.82813-0.32839 1.1499-0.60464 2.1141-1.5617 2.7269-2.7063 0.16347-0.3058-6e-3 -0.69672-0.31743-0.82821-0.28759-0.14579-0.5526-0.3625-0.87163-0.43162-0.0556-2e-3 -0.11126-5e-3 -0.1668-6e-3z"/><path transform="matrix(1.0033 0 0 1.0033 -2.5 -46.1)" d="m314.46 422.53c-0.41288 0.0208-0.83137 0.0166-1.2391 0.0829-0.22173 0.0427-0.3384 0.24828-0.44511 0.42339-0.42712 0.44797-0.84944 0.90655-1.1683 1.4409-0.34544 0.57941-0.64334 1.1986-0.80565 1.8549-0.0961 0.38377 0.27981 0.76765 0.66492 0.69671 1.3627-0.28079 2.5674-1.2106 3.1909-2.4539 0.22588-0.4611 0.4123-0.95777 0.45228-1.4726-0.0161-0.33387-0.31677-0.5965-0.64994-0.57235z"/><path transform="matrix(1.0033 0 0 1.0033 -2.5 -46.1)" d="m321.3 354.5c-0.5535 0.5983-0.42199 1.5326-0.67139 2.281-1.2303 5.74-4.0082 11.166-8.1642 15.341-0.45421 0.57212 0.24889 1.1847 0.84626 0.98787 1.0927-0.0892 4.4342 0.0786 5.491-0.20918 0.60565-1.0233 0.13081-1.8429 1.059-2.6403 1.438-1.3809 2.2821-2.132 4.2237-1.9955 0.71473 0.0868 0.89409-0.73283 0.58005-1.2388-1.0372-3.7655-1.8603-7.6875-2.4271-11.574 0.0161-0.54962-0.26945-1.2268-0.93725-0.95227z" fill="#fff" stroke="#000" stroke-linecap="round" stroke-linejoin="round" stroke-width=".102"/><path d="m284.83 335.57c2.6124-1.7008 5.5877-2.8414 8.6677-3.3226 3.0132-0.47083 6.1991-0.29152 8.9566 1.0112 2.582 1.2198 4.6824 3.362 7.3676 4.3338 2.5195 0.91191 5.432 0.66807 7.7648-0.65008" fill="none" stroke="#000" stroke-linecap="round" stroke-linejoin="round" stroke-width="1.0033"/><path d="m272.63 296.2c1.9541 6.2593 4.7038 12.27 8.1621 17.841 4.1408 6.6708 9.2988 12.709 15.241 17.841" fill="none" stroke="#000" stroke-linecap="round" stroke-linejoin="round" stroke-width="1.0033"/><path d="m302.89 332.97c0.94872-1.5703 2.3776-2.8461 4.0449-3.6115 0.8737-0.4011 1.8052-0.66324 2.7448-0.86676 2.4967-0.5408 5.0809-0.67552 7.6204-0.39728" fill="none" stroke="#000" stroke-linecap="round" stroke-linejoin="round" stroke-width="1.0033"/><path d="m281.94 330.22c0.0145-1.2506 0.39538-2.4948 1.0835-3.5393 1.0185-1.546 2.7181-2.6251 4.5505-2.8892" fill="none" stroke="#000" stroke-linecap="round" stroke-linejoin="round" stroke-width="1.0033"/><path d="m309.97 328.34c1.4997-1.3461 2.8579-2.8498 4.0449-4.4783 2.8213-3.8706 4.6508-8.4303 5.4895-13.146 0.35811-2.0135 0.53962-4.0584 0.54174-6.1035" fill="none" stroke="#000" stroke-linecap="round" stroke-linejoin="round" stroke-width="1.0033"/><path d="m328.47 371.08c-0.0168-5.0447-0.22125-10.089-0.61289-15.118-0.33781-4.3382-0.81483-8.6655-1.4301-12.973" fill="none" stroke="#000" stroke-linecap="round" stroke-linejoin="round" stroke-width="1.0033"/><path d="m341.95 328.57c2.0158 0.91055 4.2187 1.4047 6.4303 1.4425 2.1237 0.0363 4.2538-0.34783 6.2311-1.1236" fill="none" stroke="#000" stroke-linecap="round" stroke-linejoin="round" stroke-width="1.0033"/><path d="m348.59 329.71c-2.2744-1.7942-4.4573-3.7043-6.5376-5.7204-3.2311-3.1314-6.2141-6.5189-8.9118-10.12" fill="none" stroke="#000" stroke-linecap="round" stroke-linejoin="round" stroke-width="1.0033"/><path d="m333.98 322.25c-0.56707-2.6929-0.94288-5.426-1.1236-8.172-0.23504-3.5704-0.14042-7.1559 0.10215-10.726 0.25091-3.6926 0.66001-7.3745 1.2258-11.032" fill="none" stroke="#000" stroke-linecap="round" stroke-linejoin="round" stroke-width="1.0033"/><path d="m323.56 323.58c-1.5822-5.3686-2.6778-10.881-3.2688-16.446-0.69165-6.5132-0.69165-13.1 0-19.613" fill="none" stroke="#000" stroke-linecap="round" stroke-linejoin="round" stroke-width="1.0033"/><path d="m320.8 311.32c2.1953-0.59452 4.4675-0.90438 6.7419-0.91935 1.6345-0.0108 3.2699 0.13037 4.8784 0.42099" fill="none" stroke="#000" stroke-linecap="round" stroke-linejoin="round" stroke-width="1.0033"/><path transform="matrix(1.0033 0 0 1.0033 -2.5 -46.1)" d="m334.75 359.49c-0.95585 0.3501-0.34685 1.5241-0.37796 2.2607 0.28034 1.8401 0.42217 3.7569 0.997 5.5143 0.69114 0.48542 1.7638 0.26162 2.4679 0.86712 2.2956 1.5007 0.56627 2.9035 2.7514 4.5236 1.6288 0.72474 6.5731 2.1832 8.3413 2.3455 0.82205-0.19857 0.47227-1.184-0.0945-1.468-4.8876-4.0444-9.2762-8.6486-13.288-13.57-0.21522-0.24985-0.42948-0.49505-0.79669-0.4733z" stroke="#000" stroke-linecap="round" stroke-linejoin="round" stroke-width=".14398"/><path transform="matrix(1.0033 0 0 1.0033 -2.5 -46.1)" d="m327.91 387.3c-0.51207 0.68348 0.0751 1.579 0.0446 2.3696 1.0636 8.3416 1.728 16.749 1.7622 25.155 0.37655 1.2361 1.4779 0.0371 1.911-0.53359 2.0521-2.2021 3.7746-4.7525 4.9662-7.5166 0.34284-1.5496 2.1446-3.7688 1.603-5.1205 0.78474-6.133-0.42411-10.053-0.68944-13.478 0.60893-0.98394-5.4547-0.60601-6.1289-0.60694-1.1507-0.059-2.3351-0.45468-3.4687-0.26907z" stroke="#000" stroke-linecap="round" stroke-linejoin="round" stroke-width=".14398"/></g><path d="m323.26 323.48c0.73273 0.18945 1.4195 0.52028 2.1157 0.81693s1.4194 0.56356 2.1746 0.61317c0.80909 0.0532 1.6187-0.14746 2.3654-0.46335 0.74677-0.31589 1.4393-0.74489 2.1292-1.171 0.38989-0.24087 0.78597-0.48411 1.2258-0.6129 0.78408-0.22959 1.6525-0.0663 2.3598 0.3426 0.7073 0.40893 1.2632 1.0458 1.6751 1.7515 0.304 0.52087 0.53485 1.081 0.82016 1.6123 0.2853 0.53135 0.63482 1.0438 1.1207 1.4011 0.30429 0.22377 0.65198 0.37941 0.98644 0.55491s0.66473 0.37808 0.90332 0.67089c0.24783 0.30415 0.38165 0.69114 0.41948 1.0816 0.0378 0.39051-0.0161 0.78546-0.11302 1.1656-0.26259 1.0298-0.83138 1.9516-1.413 2.841-0.58167 0.8894-1.1905 1.7769-1.5493 2.7772-0.31112 0.86741-0.42366 1.7907-0.58085 2.6987-0.15719 0.90802-0.36834 1.827-0.84925 2.613-0.11422 0.18669-0.24436 0.3661-0.4086 0.51075-0.23103 0.20348-0.52169 0.33052-0.82077 0.40352s-0.60817 0.0946-0.91577 0.10723c-2.9044 0.11971-5.782-0.52687-8.6827-0.71505-1.1705-0.0759-2.35-0.0777-3.5054-0.27981-1.1554-0.20216-2.3068-0.62417-3.1621-1.4268-0.79647-0.74742-1.2828-1.7762-1.5583-2.8331-0.27541-1.057-0.35596-2.1532-0.45268-3.2412-0.24037-2.7039-0.57907-5.494 0.23935-8.0822 0.25581-0.80898 0.63404-1.5999 1.2412-2.1926 0.54107-0.52816 1.247-0.87617 1.9881-1.0264s1.5154-0.10703 2.2475 0.0822z" fill="#ff9581" stroke="#000" stroke-linecap="round" stroke-linejoin="round" stroke-width="1.0033"/><path transform="matrix(1.0033 0 0 1.0033 -2.5 -46.1)" d="m287.53 293.2c-3.2182 0.0587-5.374-0.34585-8.5412 0.25804-0.82831 0.36186-0.0371 1.4999-0.13195 2.197 0.29414 7.3119-0.0132 15.185 1.8777 22.286 0.82549 5.5815 1.4432 6.4435 2.7722 10.472-0.32483 0.0113 0.75177 1.6308 1.7598 3.3015 1.4594 1.5956 0.93281 1.6872 3.3977 4.0241 1.8703 0.42971 0.37019 2.9415 0.48811 4.0469-1.4869 2.6346 2.3546 6.381 5.7461 6.591 1.8326 0.0267 3.6627-0.12474 5.4609-0.48242 2.0639-0.38742 4.1566-0.68888 6.1738-1.2832 1.7591-0.59189 2.035-0.32138 2.866-2.0577 1.0651-2.1359 1.063-4.5878 1.2578-6.9141 0.0844-1.586-0.34235-4.3489-0.41149-5.9344 0.76059-1.2034-0.16691-2.054 0.43016-2.6739-0.0635-0.37203-0.0731-4.3101 0.16524-6.0629 0.26078-3.1848 1.5191-6.0942 0.83866-11.92-0.30003-2.7895 0.25967-4.8729-0.0382-7.6512-0.30583-0.72645-1.2598-0.39153-1.8828-0.57812-2.8272-0.39677-5.5058-1.5287-7.875-3.1035-2.8243-1.8257-5.8011-3.6395-9.1914-4.125-1.7056-0.28578-3.4328-0.41823-5.1621-0.39062z" fill="#ff9581"/><path d="m308.6 284.76c0.27428 1.8078 0.41099 3.6365 0.40857 5.465-2e-3 1.7211-0.12781 3.4421-0.3753 5.1453" fill="none" stroke="#000" stroke-linecap="round" stroke-linejoin="round" stroke-width="1.0033"/><path d="m277.45 254.35c-0.0821 4.2046 0.10858 8.4144 0.57058 12.594 0.53964 4.8823 1.4591 9.7571 3.2688 14.324 1.0414 2.6277 2.3735 5.1401 3.9642 7.4766 1.8696 2.5894 5.0083 4.2142 8.2019 4.2458 1.8175 0.018 3.6143-0.44987 5.2922-1.1486s3.25-1.6253 4.806-2.5646c1.5292-0.92322 3.0916-1.901 4.1253-3.3578 0.80775-1.1384 1.2412-2.5062 1.4648-3.884s0.24864-2.7789 0.30983-4.1734c0.16683-3.8018 0.60594-7.593 0.60263-11.398-2e-3 -2.174-0.1485-4.3479-0.43852-6.5025" fill="none" stroke="#000" stroke-linecap="round" stroke-linejoin="round" stroke-width="1.0033"/><path d="m288.09 291.62-1.0215 4.3924" fill="none" stroke="#000" stroke-linecap="round" stroke-linejoin="round" stroke-width="1.0033"/><path d="m287.07 296.2c0.43144 1.2778 1.2461 2.4234 2.3114 3.2504 1.277 0.99136 2.8729 1.5079 4.4774 1.706 1.6044 0.19807 3.2298 0.0952 4.8404-0.0446 2.0797-0.18053 4.1845-0.42962 6.1191-1.214 0.69693-0.28259 1.3699-0.63528 1.9618-1.0992 0.59195-0.46386 1.102-1.0426 1.433-1.7178 0.27641-0.56387 0.42445-1.1902 0.42972-1.8182" fill="none" stroke="#000" stroke-linecap="round" stroke-linejoin="round" stroke-width="1.0033"/><g><path d="m283.67 261.25c2.2599-0.74413 3.9826-0.43326 3.8066 1.7156-0.13764 1.7445-2.2772 2.6365-3.4428 2.027-1.6666-0.87142-1.3797-3.1806-0.36373-3.7427z"/><path d="m298.7 260.69c2.2599-0.74414 3.9826-0.43326 3.8066 1.7156-0.13764 1.7445-2.2772 2.6365-3.4428 2.027-1.6666-0.87142-1.3797-3.1806-0.36373-3.7426z"/><path d="m292.66 263.83c-0.47539 1.3316-0.75271 2.7338-0.82004 4.1461-0.0322 0.67595-0.0167 1.3541-0.0701 2.0287s-0.17887 1.3532-0.47663 1.9609c-0.40228 0.82102-1.0941 1.4661-1.5458 2.2609-0.22588 0.39743-0.39139 0.83855-0.4082 1.2954-0.0168 0.45683 0.12791 0.93092 0.45061 1.2547 0.25905 0.25991 0.61409 0.40771 0.97516 0.47323 0.36106 0.0655 0.73128 0.0546 1.0977 0.0353 1.3637-0.0718 2.7214-0.25669 4.0547-0.552" fill="none" stroke="#000" stroke-linecap="round" stroke-linejoin="round" stroke-width=".50166"/><path d="m281.84 261.94c1.0432-0.36558 2.1405-0.5766 3.2449-0.62406 1.0901-0.0469 2.187 0.0657 3.2449 0.33281" fill="none" stroke="#000" stroke-linecap="round" stroke-linejoin="round" stroke-width="1.1557"/><path d="m297.16 261.13c1.0398-0.21602 2.0998-0.33477 3.1617-0.35422 1.0442-0.0191 2.09 0.0578 3.1202 0.22941" fill="none" stroke="#000" stroke-linecap="round" stroke-linejoin="round" stroke-width="1.1557"/><path d="m288.18 282.57c1.8342 0.27339 3.6907 0.39757 5.545 0.37089 1.7412-0.0251 3.4805-0.18307 5.1977-0.47224" fill="none" stroke="#000" stroke-linecap="round" stroke-linejoin="round" stroke-width=".50166"/><path d="m291.23 287.73c0.55195-0.30073 1.1629-0.49273 1.7876-0.56183 0.90492-0.10008 1.8372 0.0613 2.6559 0.45967" fill="none" stroke="#000" stroke-linecap="round" stroke-linejoin="round" stroke-width=".301"/></g><path d="m315.09 355.89c2.3952-0.49763 4.7133-1.3651 6.8468-2.5622 2.2381-1.2559 4.2722-2.8744 5.9988-4.7732" fill="none" stroke="#000" stroke-linecap="round" stroke-linejoin="round" stroke-width="1.1036"/><path transform="matrix(4.5504 0 0 4.5504 -443.01 -71.874)" d="m158.39 73.234c0.10242-0.51512 0.37318-0.99535 0.76093-1.3496 0.36179-0.33052 0.81682-0.54824 1.2902-0.67479 0.25156-0.06725 0.5126-0.11007 0.77219-0.08967 0.25958 0.02041 0.51879 0.10773 0.71656 0.27711 0.12586 0.10779 0.22528 0.24662 0.36391 0.33739 0.16499 0.10803 0.36974 0.13717 0.56695 0.13623 0.1972-9.41e-4 0.39383-0.02911 0.59096-0.02377 0.12701 0.0034 0.2544 0.02104 0.37448 0.06255s0.23285 0.10767 0.32027 0.19986c0.11972 0.12626 0.18614 0.29416 0.22784 0.46308s0.0614 0.34267 0.10299 0.51162c0.11036 0.44847 0.38904 0.8651 0.794 1.0872 0.10363 0.05683 0.21659 0.1012 0.33457 0.10834 0.059 0.0036 0.11879-0.0023 0.17517-0.02003 0.0564-0.0177 0.10929-0.04739 0.15192-0.08831 0.0808-0.07759 0.11978-0.19023 0.13269-0.30152 0.0129-0.1113 3e-3 -0.22378-3.9e-4 -0.33578-0.01-0.37117 0.0618-0.7389 0.10825-1.1073 0.0464-0.36838 0.0668-0.74958-0.0421-1.1045-0.1242-0.40475-0.40528-0.7407-0.69474-1.0497-0.73708-0.78678-1.5743-1.4789-2.4812-2.0619-0.22632-0.14546-0.45799-0.2847-0.70595-0.38908s-0.51375-0.17342-0.78278-0.17325c-0.34235 2.18e-4 -0.67731 0.1126-0.97867 0.27504-0.30135 0.16245-0.57299 0.37405-0.8409 0.5872-0.67588 0.53771-1.346 1.1-1.8527 1.7994-0.11947 0.16492-0.22999 0.33808-0.30581 0.52709-0.0758 0.18901-0.11592 0.39543-0.0912 0.59757 0.0315 0.25742 0.16419 0.48998 0.29775 0.71228 0.22152 0.36869 0.45321 0.73126 0.69473 1.0872z" fill="#7a3f28" stroke="#000" stroke-linecap="round" stroke-linejoin="round" stroke-width=".4086" style="paint-order:markers fill stroke"/></g><g transform="matrix(.26371 0 0 .26371 43.482 72.588)" stroke-width="1.0033"><circle cx="303.76" cy="509.79" r="3.1782" fill="#fcdb00" stroke="#000" stroke-linejoin="round" stroke-width="1.0033"/><ellipse cx="238.16" cy="401.42" rx="1.3279" ry="2.5537" fill="#fcdb00" stroke="#000" stroke-linejoin="round" stroke-width="1.0033"/><ellipse transform="rotate(-30)" cx="-2.7737" cy="571.87" rx="2.0225" ry="3.0337" fill="#fcdb00" stroke="#000" stroke-linejoin="round" stroke-width="1.0033"/><ellipse transform="rotate(30)" cx="461.95" cy="290.25" rx="2.8892" ry="3.4671" fill="#fcdb00" stroke="#000" stroke-linejoin="round" stroke-width="1.0033"/><ellipse transform="rotate(-30)" cx="11.482" cy="481.02" rx="3.0337" ry="2.4558" fill="#fcdb00" stroke="#000" stroke-linejoin="round" stroke-width="1.0033"/><ellipse transform="rotate(-30)" cx="14.962" cy="514.97" rx="3.0337" ry="2.4558" fill="#fcdb00" stroke="#000" stroke-linejoin="round" stroke-width="1.0033"/><ellipse transform="rotate(-30)" cx="-23.765" cy="521.55" rx="3.0337" ry="2.4558" fill="#fcdb00" stroke="#000" stroke-linejoin="round" stroke-width="1.0033"/><ellipse transform="rotate(-30)" cx="-22.273" cy="492.39" rx="3.0337" ry="2.4558" fill="#fcdb00" stroke="#000" stroke-linejoin="round" stroke-width="1.0033"/><ellipse transform="rotate(-30)" cx="10.662" cy="500.06" rx="3.0337" ry="2.4558" fill="#fcdb00" stroke="#000" stroke-linejoin="round" stroke-width="1.0033"/><ellipse transform="rotate(-30)" cx="3.3148" cy="540.52" rx="3.0337" ry="2.4558" fill="#fcdb00" stroke="#000" stroke-linejoin="round" stroke-width="1.0033"/><ellipse transform="rotate(-30)" cx="-44.439" cy="516.55" rx="2.9049" ry="2.3516" fill="#fcdb00" stroke="#000" stroke-linejoin="round" stroke-width=".96073"/><ellipse transform="rotate(-30)" cx="-22.351" cy="563.26" rx="3.0337" ry="2.4558" fill="#fcdb00" stroke="#000" stroke-linejoin="round" stroke-width="1.0033"/><ellipse cx="232.97" cy="452.58" rx="2.3114" ry="2.6003" fill="#fcdb00" stroke="#000" stroke-linejoin="round" stroke-width="1.0033"/><ellipse transform="rotate(30)" cx="430.63" cy="256.38" rx="2.2462" ry="2.1058" fill="#fcdb00" stroke="#000" stroke-linejoin="round" stroke-width="1.0033"/><ellipse cx="199.33" cy="465.75" rx="2.8437" ry="3.1991" fill="#fcdb00" stroke="#000" stroke-linejoin="round" stroke-width="1.2344"/><ellipse transform="rotate(30)" cx="408.67" cy="280.21" rx="2.7635" ry="2.5908" fill="#fcdb00" stroke="#000" stroke-linejoin="round" stroke-width="1.2344"/><ellipse cx="238.61" cy="496.64" rx="2.7448" ry="3.0337" fill="#fcdb00" stroke="#000" stroke-linejoin="round" stroke-width="1.0033"/><ellipse cx="222.72" cy="489.3" rx="2.6003" ry="3.4671" fill="#fcdb00" stroke="#000" stroke-linejoin="round" stroke-width="1.0033"/><ellipse cx="279.78" cy="514.27" rx="2.8892" ry="2.7448" fill="#fcdb00" stroke="#000" stroke-linejoin="round" stroke-width="1.0033"/><circle cx="213.3" cy="511.37" r="2.4558" fill="#fcdb00" stroke="#000" stroke-linejoin="round" stroke-width="1.0033"/><ellipse transform="rotate(-30)" cx="16.073" cy="556.56" rx="2.3114" ry="1.4446" fill="#fcdb00" stroke="#000" stroke-linejoin="round" stroke-width="1.0033"/><ellipse cx="291.33" cy="456.77" rx="2.0225" ry="1.878" fill="#fcdb00" stroke="#000" stroke-linejoin="round" stroke-width="1.0033"/><ellipse transform="rotate(-25.74)" cx="-23.967" cy="524.48" rx="1.7335" ry="2.7448" fill="#fcdb00" stroke="#000" stroke-linejoin="round" stroke-width="1.0033"/><ellipse cx="242.36" cy="479.31" rx="2.7448" ry="3.0337" fill="#fcdb00" stroke="#000" stroke-linejoin="round" stroke-width="1.0033"/><ellipse cx="215.09" cy="427.73" rx="2.1632" ry="2.3824" fill="#fcdb00" stroke="#000" stroke-linejoin="round" stroke-width="1.204"/><ellipse cx="254.06" cy="458.65" rx="2.0225" ry="2.3114" fill="#fcdb00" stroke="#000" stroke-linejoin="round" stroke-width="1.0033"/><ellipse transform="rotate(-30)" cx="-1.4324" cy="516.1" rx="3.6115" ry="2.0225" fill="#fcdb00" stroke="#000" stroke-linejoin="round" stroke-width="1.0033"/><ellipse transform="rotate(-30)" cx="-80.406" cy="523.16" rx="4.3376" ry="2.4291" fill="#fcdb00" stroke="#000" stroke-linejoin="round" stroke-width="1.205"/><ellipse transform="rotate(19.278)" cx="360.77" cy="318.39" rx="1.878" ry="3.1782" fill="#fcdb00" stroke="#000" stroke-linejoin="round" stroke-width="1.0033"/><ellipse transform="rotate(32.218)" cx="406.98" cy="227.26" rx="2.8892" ry="2.0225" fill="#fcdb00" stroke="#000" stroke-linejoin="round" stroke-width="1.0033"/><ellipse transform="rotate(-30)" cx="19.906" cy="463.1" rx="2.4516" ry="3.2688" fill="#fcdb00" stroke="#000" stroke-linejoin="round" stroke-width="1.0033"/><ellipse transform="rotate(-30)" cx="7.1274" cy="453.36" rx="3.0337" ry="1.5301" fill="#fcdb00" stroke="#000" stroke-linejoin="round" stroke-width="1.0033"/><ellipse transform="rotate(-30)" cx="12.869" cy="430.94" rx="3.0337" ry="2.4558" fill="#fcdb00" stroke="#000" stroke-linejoin="round" stroke-width="1.0033"/><ellipse transform="rotate(-30)" cx="-4.0194" cy="449.21" rx=".85948" ry="1.6697" fill="#fcdb00" stroke="#000" stroke-linejoin="round" stroke-width="1.0033"/><ellipse transform="rotate(-30)" cx="20.486" cy="450.69" rx="1.3255" ry="2.4558" fill="#fcdb00" stroke="#000" stroke-linejoin="round" stroke-width="1.0033"/></g></g></g><g transform="matrix(2.1867 0 0 2.0308 85.302 -136.2)"><rect id="rect19616" x="-188.63" y="118.11" width="3.9687" height="10.995" fill="#7a3f28" stroke="#000" stroke-linecap="round" stroke-linejoin="round" stroke-width=".56016" style="paint-order:markers fill stroke"/><use transform="translate(24.404 1.3915)" xlink:href="#use19670"/><use id="use19670" transform="translate(24.404)" xlink:href="#rect19616"/><path transform="matrix(.45732 0 0 .49243 -39.01 67.071)" d="m-350.15 143.85c2.2271-6.5455 6.8718-12.238 12.837-15.733 4.3928-2.5736 9.4745-3.9656 14.566-3.9616 5.0911 4e-3 10.178 1.4076 14.536 4.0392 6.1341 3.7039 10.737 9.8637 12.551 16.796v0c0.49781-5.144 2.9451-10.076 6.7405-13.583 5.1548-4.7639 12.427-6.7061 19.446-6.6982 5.2831 6e-3 10.66 1.0651 15.2 3.7663 5.8762 3.4959 10.033 9.7445 10.987 16.515v0c0.83321-4.7202 3.168-9.1638 6.5824-12.528 5.3562-5.2771 13.075-7.677 20.594-7.7537 3.9396-0.0402 7.9079 0.51386 11.601 1.8861s7.1055 3.5826 9.6738 6.5701c2.8295 3.2913 4.5768 7.4979 4.9118 11.825v0l0.20453 17.979-159.92 1e-5z" fill="#094" fill-rule="evenodd" stroke="#000" stroke-linecap="round" stroke-linejoin="round" stroke-miterlimit="1e3" stroke-width="1.357" style="paint-order:fill markers stroke"/><path id="path19554" d="m-161.51 119.63-8.7422 5.0473 1.6436-7.647-1.9155 0.27365 2.3716-5.7466-2.2804-0.95777 3.7855-7.9814-1.8699-0.50169 2.8277-9.1672-2.7821-0.04561 3.5118-7.6622-1.8699-0.13682 3.1014-8.4375h-2.4628l4.8345-10.079 3.3294 10.125-1.4595 0.41047 2.9189 7.7078-2.2348 0.77534 2.8733 7.9358-2.1892 0.18243 3.0101 8.6199-2.098 0.36487 3.0101 8.8024-2.4628 0.45608 2.4628 6.2483-2.4172-0.0912 2.6453 6.6132z" fill="#094" stroke="#000" stroke-linecap="round" stroke-linejoin="round" stroke-width=".52917" style="paint-order:markers fill stroke"/><use transform="translate(-24.404)" xlink:href="#path19554"/><use transform="translate(24.404)" xlink:href="#path19554"/></g><path d="m-189.72 386.62v-400.28m-159.92 176.77 319.87-0.38431" fill="#7a3f28" stroke="#000" stroke-linecap="round" stroke-linejoin="round" stroke-width="1.6119" style="paint-order:markers fill stroke"/><path d="m-349.66-13.131h320.1v186.19c-0.42634 14.474-2.1527 28.232-5.3991 42.35-6.9472 30.305-20.314 59.04-38.786 84.075-10.641 14.502-23.04 27.789-36.63 39.569-23.389 20.258-50.552 36.095-79.235 47.596v0c-21.736-8.7189-42.721-19.961-61.696-33.708-26.405-19.073-49.084-43.133-65.935-71.048-19.873-32.835-31.419-70.509-32.419-108.87z" fill="none" stroke="#000" stroke-linecap="round" stroke-miterlimit="1e3" stroke-width="3.0369" style="paint-order:fill markers stroke"/></g></svg>
