<?xml version="1.0" encoding="UTF-8"?>
<svg width="620" height="773.85" xmlns="http://www.w3.org/2000/svg">
<g stroke="#000">
<path d="M614.9 336.14H5.08c4.96 173.9 96.178 340.41 304.91 432.35 208.74-91.947 299.95-258.47 304.91-432.35z" fill="#f00000" stroke-width="5"/>
<path d="m5.004 5-.008 329.03c.017.707.066 1.41.086 2.117h609.82c.02-.706.069-1.41.086-2.117V5L5.008 4.998z" fill="#fff" stroke-width="5"/>
<path d="M73.611 119.41c-35.76 0-49.933 9.547-68.605 17.104l-.002 103.87c18.673-7.557 32.846-17.104 68.607-17.104 59.084 0 59.084 26.127 118.17 26.127s59.085-26.127 118.17-26.127c59.086 0 59.088 26.127 118.17 26.127s59.086-26.127 118.17-26.127c35.816 0 49.977 9.577 68.691 17.139v-103.87c-18.716-7.562-32.874-17.141-68.691-17.141-59.085 0-59.084 26.129-118.17 26.129-59.085 0-59.086-26.129-118.17-26.129-59.085 0-59.084 26.129-118.17 26.129-59.085 0-59.086-26.129-118.17-26.129z" fill="#f00000" stroke-width="5"/>
<path d="M73.611 437.41c-25.41 0-39.804 4.873-52.758 10.381 8.508 32.436 20.542 64.034 36.256 94.334a161.474 161.474 0 0 1 16.502-.842c59.084 0 59.084 26.127 118.17 26.127s59.085-26.127 118.17-26.127c59.086 0 59.088 26.127 118.17 26.127s59.086-26.127 118.17-26.127c6.166 0 11.565.34 16.578.85 15.712-30.293 27.743-61.883 36.252-94.311-12.972-5.521-27.372-10.412-52.83-10.412-59.085 0-59.084 26.129-118.17 26.129-59.085 0-59.086-26.13-118.17-26.13-59.085 0-59.084 26.13-118.17 26.13-59.085 0-59.086-26.13-118.17-26.13z" fill="#fff" stroke-width="5"/>
<path d="m5.007 5-.006 329.03c4.276 174.66 95.416 342.15 304.99 434.47 209.58-92.321 300.72-259.82 304.99-434.47V5z" fill="none" stroke-width="10"/>
</g>
</svg>
