<?xml version="1.0" encoding="iso-8859-1"?>
<!DOCTYPE svg PUBLIC "-//W3C//DTD SVG 1.1//EN" "http://www.w3.org/Graphics/SVG/1.1/DTD/svg11.dtd" [
	<!ENTITY ns_svg "http://www.w3.org/2000/svg">
	<!ENTITY ns_xlink "http://www.w3.org/1999/xlink">
]>
<svg  version="1.1" id="Ebene_1" xmlns="&ns_svg;" xmlns:xlink="&ns_xlink;" width="407.9" height="369.7"
	 viewBox="0 0 407.9 369.7" style="overflow:visible;enable-background:new 0 0 407.9 369.7;" xml:space="preserve">
<path style="fill:#46A046;" d="M372.8,270.7c-22.5-67.5-85-10.7-103.7-83.2c-22.5-67.5-88.7-15.7-107.4-88.2
	C139.1,31.8,61.2,86.8,51.7,2.8h353.1l-29.3,258.5C374.8,263.9,374.2,267.6,372.8,270.7z"/>
<path style="fill:none;stroke:#000000;stroke-width:5.6692;stroke-miterlimit:3.8636;" d="M372.8,270.7
	c-22.5-67.5-85-10.7-103.7-83.2c-22.5-67.5-88.7-15.7-107.4-88.2C139.1,31.8,61.2,86.8,51.7,2.8h353.1l-29.3,258.5
	C374.8,263.9,374.2,267.6,372.8,270.7z"/>
<path style="fill:#FFFF5A;" d="M373.4,269.1c-22.4,65.2-95.3,97.8-169.4,97.8c-76.9,0-152.3-35.2-171.5-105.5L3.2,2.8h48.5
	c9.5,84,87.6,29.1,110.1,96.6c18.8,72.5,84.9,20.7,107.4,88.2c18.8,72.5,80.8,15.5,103.3,83L373.4,269.1z"/>
<path style="fill:none;stroke:#000000;stroke-width:5.6692;stroke-miterlimit:3.8636;" d="M373.4,269.1
	c-22.4,65.2-95.3,97.8-169.4,97.8c-76.9,0-152.3-35.2-171.5-105.5L3.2,2.8h48.5c9.5,84,87.6,29.1,110.1,96.6
	c18.8,72.5,84.9,20.7,107.4,88.2c18.8,72.5,80.8,15.5,103.3,83L373.4,269.1z"/>
<path style="fill:#46A046;" d="M20.8,3l10.2,30c18.8,72.5,85,21,107.5,88.5c18.8,72.5,84.9,20.7,107.4,88.2
	c18.8,72.5,87,25.6,109.5,93.1c-5.1,6.9-9.2,10.9-16.7,18c-22.5-67.5-89.7-20-108.4-92.5c-22.5-67.5-88.7-15.7-107.4-88.2
	c-22.5-67.5-88.8-16-107.5-88.5L5.1,20L3.7,3H20.8z"/>
<path style="fill:none;stroke:#000000;stroke-width:5.6692;stroke-miterlimit:3.8636;" d="M20.8,3l10.2,30
	c18.8,72.5,85,21,107.5,88.5c18.8,72.5,84.9,20.7,107.4,88.2c18.8,72.5,87,25.6,109.5,93.1c-5.1,6.9-9.2,10.9-16.7,18
	c-22.5-67.5-89.7-20-108.4-92.5c-22.5-67.5-88.7-15.7-107.4-88.2c-22.5-67.5-88.8-16-107.5-88.5L5.1,20L3.7,3H20.8z"/>
<path style="fill:#46A046;" d="M80,209.9h38.9l14.9,52l15.3-52h39.6v11.8h-4.2c-2.3,0-3.9,0.5-4.8,1.4c-0.9,1-1.3,2.8-1.3,5.4v48.8
	c0,2.1,0.1,3.5,0.4,4c0.4,0.8,0.9,1.4,1.5,1.7c0.9,0.5,2.1,0.7,3.6,0.7h4.9v11.8h-41.3v-11.8h3.2c2.3,0,3.9-0.2,4.7-0.6
	s1.4-0.9,1.8-1.7c0.4-0.8,0.6-2.2,0.6-4.2v-52.8l-20.9,71.1H125l-20.3-68.8v52.2c0,1.2,0.2,2.1,0.6,2.8s1,1.2,1.8,1.5
	c0.8,0.3,2.1,0.5,3.8,0.5h4.1v11.8H80v-11.8h3.5c2.2,0,3.7-0.2,4.5-0.6c0.8-0.4,1.4-1,1.8-1.8c0.4-0.8,0.6-2.4,0.6-4.6v-48.1
	c0-2.2-0.1-3.7-0.4-4.3c-0.4-0.9-0.9-1.6-1.7-2s-1.9-0.6-3.5-0.6H80L80,209.9L80,209.9z"/>
<path style="fill:none;stroke:#000000;stroke-width:5.6692;stroke-miterlimit:3.8636;" d="M80,209.9h38.9l14.9,52l15.3-52h39.6v11.8
	h-4.2c-2.3,0-3.9,0.5-4.8,1.4c-0.9,1-1.3,2.8-1.3,5.4v48.8c0,2.1,0.1,3.5,0.4,4c0.4,0.8,0.9,1.4,1.5,1.7c0.9,0.5,2.1,0.7,3.6,0.7
	h4.9v11.8h-41.3v-11.8h3.2c2.3,0,3.9-0.2,4.7-0.6s1.4-0.9,1.8-1.7c0.4-0.8,0.6-2.2,0.6-4.2v-52.8l-20.9,71.1H125l-20.3-68.8v52.2
	c0,1.2,0.2,2.1,0.6,2.8s1,1.2,1.8,1.5c0.8,0.3,2.1,0.5,3.8,0.5h4.1v11.8H80v-11.8h3.5c2.2,0,3.7-0.2,4.5-0.6c0.8-0.4,1.4-1,1.8-1.8
	c0.4-0.8,0.6-2.4,0.6-4.6v-48.1c0-2.2-0.1-3.7-0.4-4.3c-0.4-0.9-0.9-1.6-1.7-2s-1.9-0.6-3.5-0.6H80L80,209.9L80,209.9z"/>
<path style="fill:#FFFF5A;" d="M268.4,48.7c5.8-14-6-5.8,4.7-22.7c11.1-17.4,2.8,14.9,16.2,10.6c12-9.2-2.2-7.4,15.6-16.7
	c18.3-9.5-5,14.2,8.8,17.2c15-2,2-8.1,22-7.2c20.6,0.9-11.5,9.8-1,19.3c14,5.8,5.9-6.1,22.7,4.6c17.4,11.1-14.9,2.8-10.5,16.3
	c9.2,12,8.1-2.3,17.3,15.4c9.5,18.3-14.3-5.1-17.3,8.8c2,15,8,2,7.1,22c-0.9,20.6-9.8-11.5-19.3-1c-5.8,14,6,5.7-4.8,22.6
	c-11.1,17.4-2.8-14.9-16.2-10.6c-12,9.2,2.2,8-15.5,17.2c-18.3,9.5,5.1-14.3-8.8-17.3c-15,2-2.1,8.1-22.1,7.2
	c-20.6-0.9,11.5-9.8,1-19.4c-14-5.8-5.8,5.9-22.6-4.8c-17.4-11.1,15-2.9,10.7-16.3c-9.2-12-8.1,2.3-17.3-15.4
	c-9.5-18.3,14.2,5,17.2-8.8c-2-15-8.1-2-7.2-22C250,27.2,258.9,59.2,268.4,48.7z"/>
<path style="fill:none;stroke:#000000;stroke-width:5.3571;stroke-miterlimit:3.8636;" d="M268.4,48.7c5.8-14-6-5.8,4.7-22.7
	c11.1-17.4,2.8,14.9,16.2,10.6c12-9.2-2.2-7.4,15.6-16.7c18.3-9.5-5,14.2,8.8,17.2c15-2,2-8.1,22-7.2c20.6,0.9-11.5,9.8-1,19.3
	c14,5.8,5.9-6.1,22.7,4.6c17.4,11.1-14.9,2.8-10.5,16.3c9.2,12,8.1-2.3,17.3,15.4c9.5,18.3-14.3-5.1-17.3,8.8c2,15,8,2,7.1,22
	c-0.9,20.6-9.8-11.5-19.3-1c-5.8,14,6,5.7-4.8,22.6c-11.1,17.4-2.8-14.9-16.2-10.6c-12,9.2,2.2,8-15.5,17.2
	c-18.3,9.5,5.1-14.3-8.8-17.3c-15,2-2.1,8.1-22.1,7.2c-20.6-0.9,11.5-9.8,1-19.4c-14-5.8-5.8,5.9-22.6-4.8
	c-17.4-11.1,15-2.9,10.7-16.3c-9.2-12-8.1,2.3-17.3-15.4c-9.5-18.3,14.2,5,17.2-8.8c-2-15-8.1-2-7.2-22
	C250,27.2,258.9,59.2,268.4,48.7z"/>
<circle style="fill:#46A046;" cx="301.7" cy="82.3" r="13.1"/>
<circle style="fill:none;stroke:#000000;stroke-width:5.6692;stroke-miterlimit:3.8636;" cx="301.7" cy="82.3" r="13.1"/>
<path style="fill:#46A046;" d="M306.8,57.8c10.2,2,18.2,9,20.6,19l9.4,0c-2.9-14.7-15.1-26.2-30-28.5V57.8z"/>
<path style="fill:none;stroke:#000000;stroke-width:5.6692;stroke-miterlimit:3.8636;" d="M306.8,57.8c10.2,2,18.2,9,20.6,19l9.4,0
	c-2.9-14.7-15.1-26.2-30-28.5V57.8z"/>
<path style="fill:#46A046;" d="M275.4,78.3c2-10.2,9-18.2,19-20.6v-9.4c-14.7,2.9-26.2,15.1-28.5,30L275.4,78.3z"/>
<path style="fill:none;stroke:#000000;stroke-width:5.6692;stroke-miterlimit:3.8636;" d="M275.4,78.3c2-10.2,9-18.2,19-20.6v-9.4
	c-14.7,2.9-26.2,15.1-28.5,30L275.4,78.3z"/>
<path style="fill:#46A046;" d="M327.4,87.3c-2,10.2-9,18.2-19,20.6v9.4c14.7-2.9,26.2-15.1,28.5-30L327.4,87.3z"/>
<path style="fill:none;stroke:#000000;stroke-width:5.6692;stroke-miterlimit:3.8636;" d="M327.4,87.3c-2,10.2-9,18.2-19,20.6v9.4
	c14.7-2.9,26.2-15.1,28.5-30L327.4,87.3z"/>
<path style="fill:#46A046;" d="M295.9,107.9c-10.2-2-18.2-9-20.6-19h-9.4c2.9,14.7,15.1,26.2,30,28.5V107.9z"/>
<path style="fill:none;stroke:#000000;stroke-width:5.6692;stroke-miterlimit:3.8636;" d="M295.9,107.9c-10.2-2-18.2-9-20.6-19h-9.4
	c2.9,14.7,15.1,26.2,30,28.5V107.9z"/>
</svg>
