<svg id="svg20" xmlns="http://www.w3.org/2000/svg" viewBox="0 0 603 763"><defs><style>.cls-1,.cls-3{fill:#005cb9;}.cls-2,.cls-4{fill:#fff;}.cls-3,.cls-4,.cls-5,.cls-6{stroke:#000;stroke-width:3px;}.cls-3,.cls-4,.cls-5{stroke-linecap:round;stroke-linejoin:round;}.cls-5,.cls-6{fill:none;}</style></defs><title>Artboard 1</title><g id="layer1"><path id="path2600" class="cls-1" d="M1.5,1.5V460.37c0,166.31,134.31,301.13,300,301.13s300-134.82,300-301.13V1.5Z"/><path id="path4687" class="cls-2" d="M1.5,251.19V460.37a305.91,305.91,0,0,0,2.71,40.51H598.79a305.91,305.91,0,0,0,2.71-40.51V251.19Z"/></g><g id="layer2"><rect id="rect2528" class="cls-3" x="410.21" y="251.19" width="34.25" height="249.69"/><path id="path2530" class="cls-4" d="M431.71,96.65h-21.5c-18.5,0-37,1.11-56-8v42.24c19-9.13,37.5-8,56-8V251.19h34.25V110.77C444.46,100.25,440.71,96.65,431.71,96.65ZM410.21,608l17.12,49.17L444.46,608V500.88H410.21Z"/><path id="path2532" class="cls-4" d="M346.71,84.75c-3.88,0-7.25,3.87-7.25,3.87v42.24s3.37,3.88,7.25,3.88,7.5-3.88,7.5-3.88V88.62S350.58,84.75,346.71,84.75Z"/><path id="path2534" class="cls-4" d="M448.71,219.25a4.25,4.25,0,0,1-4.25,4.25H410.21a4.25,4.25,0,0,1-4.25-4.25V215.5a4.25,4.25,0,0,1,4.25-4.25h34.25a4.25,4.25,0,0,1,4.25,4.25Z"/><path id="path2536" class="cls-4" d="M448.71,160.25a4.25,4.25,0,0,1-4.25,4.25H410.21a4.25,4.25,0,0,1-4.25-4.25V156.5a4.25,4.25,0,0,1,4.25-4.25h34.25a4.25,4.25,0,0,1,4.25,4.25Z"/><polygon id="polygon2544" class="cls-4" points="137.04 84.75 177.92 118 182.79 125.25 182.79 251.5 177.92 244.25 137.04 211 137.04 84.75"/><polyline id="polyline2546" class="cls-5" points="182.79 235.72 177.92 228.47 137.04 195.22"/><polyline id="polyline2548" class="cls-5" points="182.79 219.94 177.92 212.69 137.04 179.44"/><polyline id="polyline2550" class="cls-5" points="182.79 204.16 177.92 196.91 137.04 163.66"/><polyline id="polyline2552" class="cls-5" points="182.79 188.38 177.92 181.13 137.04 147.88"/><polyline id="polyline2554" class="cls-5" points="182.79 172.59 177.92 165.34 137.04 132.09"/><polyline id="polyline2556" class="cls-5" points="182.79 156.81 177.92 149.56 137.04 116.31"/><polyline id="polyline2558" class="cls-5" points="182.79 141.03 177.92 133.78 137.04 100.53"/><polygon id="polygon2562" class="cls-4" points="244.29 84.75 203.42 118 198.54 125.25 198.54 251.5 203.42 244.25 244.29 211 244.29 84.75"/><polyline id="polyline2564" class="cls-5" points="198.54 235.72 203.42 228.47 244.29 195.22"/><polyline id="polyline2566" class="cls-5" points="198.54 219.94 203.42 212.69 244.29 179.44"/><polyline id="polyline2568" class="cls-5" points="198.54 204.16 203.42 196.91 244.29 163.66"/><polyline id="polyline2570" class="cls-5" points="198.54 188.38 203.42 181.13 244.29 147.88"/><polyline id="polyline2572" class="cls-5" points="198.54 172.59 203.42 165.34 244.29 132.09"/><polyline id="polyline2574" class="cls-5" points="198.54 156.81 203.42 149.56 244.29 116.31"/><polyline id="polyline2576" class="cls-5" points="198.54 141.03 203.42 133.78 244.29 100.53"/><rect id="rect2578" class="cls-3" x="179.04" y="251.19" width="23.25" height="249.69"/><path id="path2580" class="cls-4" d="M202.29,568.49V500.88H179v67.61c-8.29-5.63-26.71-15.53-53.66-15.53,0,0,49.33,41.34,65.29,104.21C206.62,594.3,256,553,256,553,229,553,210.59,562.86,202.29,568.49Zm0-469c0-5.73-5.2-10.38-11.62-10.38S179,93.77,179,99.5V251.19h23.25Z"/><line id="line2584" class="cls-6" x1="1.5" y1="251.19" x2="601.5" y2="251.19"/><line id="line2586" class="cls-6" x1="4.21" y1="500.88" x2="598.79" y2="500.88"/></g><g id="layer4"><path id="path3239" class="cls-6" d="M1.5,1.5V460.37c0,166.31,134.31,301.13,300,301.13s300-134.82,300-301.13V1.5Z"/></g></svg>