<?xml version="1.0" encoding="iso-8859-1"?>
<!DOCTYPE svg PUBLIC "-//W3C//DTD SVG 1.1//EN" "http://www.w3.org/Graphics/SVG/1.1/DTD/svg11.dtd">
<!-- Auto-generated by fig2svg tool
     Date: Sun Oct 29 21:40:32 2006 -->
<svg xmlns="http://www.w3.org/2000/svg"
   xmlns:dc="http://purl.org/dc/elements/1.1/"
   xmlns:cc="http://creativecommons.org/ns#"
   xmlns:rdf="http://www.w3.org/1999/02/22-rdf-syntax-ns#"
   xmlns:svg="http://www.w3.org/2000/svg"
   xmlns:xlink="http://www.w3.org/1999/xlink"
     width="438" height="480" viewBox="21 15 438 480">
<metadata>
<rdf:RDF>
<rdf:Description
 dc:title="Wappen Sumvitg (CH-GR)"
 dc:date="2006-10-29"
 dc:format="image/svg+xml"
 dc:language="de">
<dc:creator rdf:resource="http://de.wikipedia.org/wiki/Benutzer:Bernina" />
</rdf:Description>
</rdf:RDF>
</metadata>
<title>
Wappen Sumvitg (CH-GR)
</title>
<style type="text/css">
  <![CDATA[
  .Rand2 { stroke: #202020; stroke-width:30; }
  .Rand3 { stroke: #202020; stroke-width:45; }
  .Rand4 { stroke: #202020; stroke-width:60; }
  .Rand6 { stroke: #202020; stroke-width:90; }
  .Rand2Hell { stroke: #ffffff; stroke-width:30; }
  .SchwarzRund { stroke: #000000; stroke-width:150; stroke-linecap:round; }
  .RandRund { stroke: #202020; stroke-width:210; stroke-linecap:round; }
  .Schwarz { fill: #000000; }
  .Silber { fill: #ffffff; }
  ]]>
</style>
<defs>
<path id="figur-1"
      d="M3240,4950 L2790,6840 A1912,1912 0.0 0 0 4410,6840 L3960,4950
         C3960,4860 3960,4770 3990,4695 C4020,4620 4080,4560 4155,4530
         C4230,4500 4320,4500 4395,4545 C4470,4590 4530,4680 4590,4770
         C4590,4650 4590,4530 4530,4395 C4470,4260 4350,4110 4208,4042
         C4065,3975 3900,3990 3795,4028 C3690,4065 3645,4125 3600,4185
         C3555,4125 3510,4065 3405,4028 C3300,3990 3135,3975 2992,4042
         C2850,4110 2730,4260 2670,4395 C2610,4530 2610,4650 2610,4770
         C2670,4680 2730,4590 2805,4545 C2880,4500 2970,4500 3045,4530
         C3120,4560 3180,4620 3210,4695 C3240,4770 3240,4860 3240,4950 Z" />
<path id="figur-basis-1" d="M2790,6840 A1912,1912 0.0 0 0 4410,6840" />
<clipPath id="clippath">
<path d="M360,4140 A3240,3240 0.0 0 0 6840,4140 L6840,270 L360,270 L360,4140 Z" />
</clipPath>
</defs>
<g stroke="none" stroke-miterlimit="10" stroke-width="10"
   stroke-linecap="butt" stroke-linejoin="miter"
   fill="none" fill-rule="evenodd" transform="scale(0.066667)">
<g clip-path="url(#clippath)">
<path id="feldu-1" class="Silber"
      d="M-225,3780 L-225,7425 L7425,7425 L7425,3780 L-225,3780 Z" />
<path id="feldo-1" class="Schwarz"
      d="M-225,-225 L-225,3780 L7425,3780 L7425,-225 L-225,-225 Z" />
<path id="stern-1" class="Silber Rand2"
      d="M3600,540 L3286,1434 L2352,1260 L2970,1980 L2352,2700 L3286,2526
         L3600,3420 L3916,2526 L4848,2700 L4230,1980 L4848,1260 L3916,1434
         L3600,540 Z" />
<!-- kludge for Opera 9.02 bug: explicit stroke-linecap -->
<use class="Rand4" xlink:href="#figur-1" />
<use class="RandRund" xlink:href="#figur-basis-1" stroke-linecap="round" />
<use class="Schwarz" xlink:href="#figur-1" />
<use class="SchwarzRund" xlink:href="#figur-basis-1" stroke-linecap="round" />
<path id="figur-linie-1" class="Rand2Hell"
      d="M2790,6750 A1912,1912 0.0 0 0 4410,6750" />
<path id="figur-linie-2" class="Rand2Hell" d="M3060,5580 L4140,5580" />
<path id="figur-linie-3" class="Rand2Hell" d="M3240,4950 L3960,4950" />
<path id="figur-bund-1" class="Schwarz Rand2Hell"
      d="M3150,5130 A90,90 0.0 0 0 3060,5220 L3060,5310 A90,90 0.0 0 0 3150,5400
         L4050,5400 A90,90 0.0 0 0 4140,5310 L4140,5220
         A90,90 0.0 0 0 4050,5130 L3150,5130 Z" />
<path id="linie-1" class="Rand3" d="M-225,3780 L7425,3780" />
</g>
<path id="clip-boundary" class="Rand6"
      d="M360,4140 A3240,3240 0.0 0 0 6840,4140 L6840,270 L360,270 L360,4140 Z" />
</g>
</svg>
