<?xml version="1.0" encoding="UTF-8" standalone="no"?>
<svg
   inkscape:version="1.1.1 (3bf5ae0d25, 2021-09-20)"
   sodipodi:docname="CoA Waldenburg.svg"
   id="svg2130"
   version="1.1"
   viewBox="0 0 478.93309 549.99731"
   height="549.99731"
   width="478.93311"
   xmlns:inkscape="http://www.inkscape.org/namespaces/inkscape"
   xmlns:sodipodi="http://sodipodi.sourceforge.net/DTD/sodipodi-0.dtd"
   xmlns:xlink="http://www.w3.org/1999/xlink"
   xmlns="http://www.w3.org/2000/svg"
   xmlns:svg="http://www.w3.org/2000/svg">
  <defs
     id="defs2124" />
  <sodipodi:namedview
     inkscape:pagecheckerboard="false"
     fit-margin-bottom="0"
     fit-margin-right="0"
     fit-margin-left="0"
     fit-margin-top="0"
     lock-margins="true"
     units="px"
     inkscape:snap-smooth-nodes="true"
     inkscape:snap-object-midpoints="true"
     inkscape:window-maximized="1"
     inkscape:window-y="-11"
     inkscape:window-x="-11"
     inkscape:window-height="1506"
     inkscape:window-width="2560"
     showgrid="false"
     inkscape:document-rotation="0"
     inkscape:current-layer="layer1"
     inkscape:document-units="px"
     inkscape:cy="274.66667"
     inkscape:cx="239.33333"
     inkscape:zoom="1.5"
     inkscape:pageshadow="2"
     inkscape:pageopacity="0"
     borderopacity="1.0"
     bordercolor="#666666"
     pagecolor="#333333"
     id="base"
     showguides="false"
     inkscape:guide-bbox="true"
     inkscape:snap-intersection-paths="false"
     inkscape:object-paths="true"
     inkscape:snap-grids="false"
     inkscape:snap-global="false"
     inkscape:lockguides="false"
     guidecolor="#00ffff"
     guideopacity="0.49803922"
     inkscape:snap-midpoints="true"
     inkscape:snap-to-guides="false"
     inkscape:object-nodes="false" />
  <g
     id="layer1"
     inkscape:groupmode="layer"
     inkscape:label="waldenburg"
     transform="translate(-55.396972,-35.362281)">
    <g
       id="g77848"
       inkscape:label="coa">
      <path
         style="opacity:1;fill:#ffd72e;fill-opacity:1;stroke:#000000;stroke-width:8;stroke-linecap:butt;stroke-linejoin:miter;stroke-miterlimit:4;stroke-dasharray:none"
         d="M 530.33007,39.362281 V 358.97453 c 0,109.06991 -93.56584,222.38508 -235.46655,222.38508 -141.90071,0 -235.466548,-113.31517 -235.466548,-222.38508 V 39.362281 Z"
         id="path1502"
         sodipodi:nodetypes="cszscc"
         inkscape:label="coa-0" />
      <g
         id="g64444"
         inkscape:label="bill">
        <path
           style="opacity:1;fill:#e7423f;fill-opacity:1;stroke:#000000;stroke-width:5.5;stroke-linecap:round;stroke-linejoin:round;stroke-miterlimit:4;stroke-dasharray:none"
           d="m 284.99162,116.37377 c -2.81002,-7.26923 -8.78507,-14.8421 -17.74162,-17.873772 20.93148,-12.079875 19.93657,7.522592 25.91666,7.083332 1.94883,-17.611395 -40.94274,-35.828247 -27.92176,-12.938046 -20.23194,-3.243252 -21.78049,-20.71927 -13.0306,-31.129992 7.60406,-9.047388 26.35425,-13.888095 36.75185,3.041725 -1.14413,-2.274513 -1.93038,-4.433024 -4.59238,-6.057018 18.31883,-7.744647 25.37859,-5.945859 33.23079,-2.1489 -2.40507,44.679881 -11.49015,80.611221 -32.61294,60.022671 z"
           id="path55213"
           sodipodi:nodetypes="csccccccc"
           inkscape:label="bill-0" />
        <path
           style="opacity:1;fill:#e7423f;fill-opacity:1;stroke:#000000;stroke-width:5.5;stroke-linecap:round;stroke-linejoin:round;stroke-miterlimit:4;stroke-dasharray:none"
           d="m 260.65845,91.6571 c -2.77255,2.863212 -5.03951,6.743755 -6.10002,11.46264 -2.94179,12.0643 -11.32559,13.41557 -20.27039,8.83883 -9.42861,15.31275 20.99587,27.60498 29.46278,3.65339 3.28913,-9.30444 1.24123,-20.054368 15.4385,-25.573699 -2.74834,-5.149091 -9.46648,-5.110948 -15.28659,-1.128742"
           id="path58624"
           sodipodi:nodetypes="cccscc"
           inkscape:label="tongue" />
        <path
           style="opacity:1;fill:none;fill-opacity:1;stroke:#000000;stroke-width:3;stroke-linecap:round;stroke-linejoin:round;stroke-miterlimit:4;stroke-dasharray:none"
           d="m 260.48045,93.721109 c 1.54937,-1.818401 3.6006,-3.584526 5.60924,-4.690685 l -2.10316,-3.382117 7.61046,-3.003324 18.78819,15.642857 -12.41052,-7.747608"
           id="path63276"
           sodipodi:nodetypes="cccccc"
           inkscape:label="bill-c" />
      </g>
      <g
         id="g77582"
         inkscape:label="legs">
        <path
           style="opacity:1;fill:#e7423f;fill-opacity:1;stroke:#000000;stroke-width:5.5;stroke-linecap:round;stroke-linejoin:round;stroke-miterlimit:4;stroke-dasharray:none"
           d="m 391.18868,385.12398 c 23.27762,31.30581 17.7047,30.55452 40.31131,16.20934 21.46648,-13.6217 38.6194,-28.87554 53.7935,-13.57308 15.39478,15.52502 0.18155,36.22581 -9.62683,29.07308 1.864,-2.48655 4.00646,-4.34657 4.16666,-10.66666 -16.09221,7.41322 -21.23913,3.40438 -27.16666,1.49999 -3.04267,4.14733 -9.12694,6.35707 -15,12.66667 44.32024,-0.64364 63.71959,14.00906 46.83333,38.83334 -7.08147,10.41038 -11.97231,8.98656 -16.33334,3.99999 5.91903,-10.25675 -3.68417,-19.09607 -23.49999,-22.16666 33.21204,34.74176 14.59516,60.01393 -5.99062,64.85857 -14.39747,3.38828 -22.64243,-9.34184 -15.34272,-11.1919 1.88814,9.25837 21.65338,-3.45177 9.66667,-8.83334 -4.50687,-2.02341 -4.25483,-6.78467 -5.5,-15.33333 -3.0857,-21.1847 -11.73112,-33.5378 -25.43428,-28.99401 -7.59397,2.51806 -12.41592,9.08739 -17.56572,21.32734 -23.00401,13.4126 -6.05004,13.6278 5,9.16667 -2.21196,4.78524 -6.89917,7.7703 -14,9 -8.15479,-1.76842 -20.75963,0.92052 -21,-16.00001 -0.34392,-24.20989 21.36409,-27.2821 41.83333,-42.83332 -1.35624,-6.09039 -13.79634,-18.59776 -18.71045,-26.6562 5.34022,-3.70084 9.63358,-7.09633 13.56581,-10.38648 z"
           id="path66553"
           sodipodi:nodetypes="cssccccsccscssscccsccc"
           inkscape:label="leg-l" />
        <use
           x="0"
           y="0"
           xlink:href="#path66553"
           id="use74951"
           width="100%"
           height="100%"
           transform="matrix(-1,0,0,1,589.72704,0)"
           inkscape:label="leg-r" />
      </g>
      <path
         style="display:inline;opacity:1;fill:#ffffff;stroke:#000000;stroke-width:4.5;stroke-linecap:round;stroke-linejoin:round;stroke-miterlimit:4;stroke-dasharray:none"
         d="m 268.72704,183.5 c -0.0197,-13.1711 -24.40887,-34.59112 -40.99999,-18 -14.73789,14.73789 -36.4018,2.55542 -26.66667,-16.66667 5.63019,-11.11685 12.11533,-23.81532 5.89949,-35.51675 -5.72852,-10.78405 0.54691,-20.890414 7.64502,-22.345177 37.65936,-7.718318 21.41212,-44.786471 -17.60948,-34.08088 -34.32394,9.416785 -86.12779,65.639007 -107.268355,58.276137 -8.24629,-2.87203 -12.92917,1.5424 -15.16666,9.83334 -7.60927,28.19582 21.20417,45.83047 56.999985,6.16666 -4.20109,13.37896 -14.1601,28.88251 -20.93662,40.1074 -9.22289,15.27715 -17.237885,25.16312 -25.896705,22.3926 -7.20352,-2.30487 -9.48531,-0.008 -10.66666,3.5 -11.11776,33.01423 7.94433,49.54512 30.333325,39 22.56374,-10.62743 29.88888,-54.72223 42.49999,-81.83333 -14.12004,123.06607 -46.54722,120.97626 -55.833315,110.5 -4.33568,-4.89137 -5.95903,-1.38736 -7.66667,1.83333 -13.33855,25.15704 14.0085,60.90392 43.166665,39.83333 11.77391,-8.50819 43.40408,-41.28827 43.66666,-135.16666 -1.15109,49.36237 -4.73529,95.50835 -10.16951,133.53524 -3.5579,24.89708 -18.04477,27.34054 -22.33049,25.63142 -7.13581,-2.84571 -9.96525,-1.86559 -11.16666,5.5 -5.04402,30.92384 43.60432,36.46505 57.99999,10.66667 17.23352,-30.88407 9.69107,-74.46519 5.16667,-115.33333 h 3.58334 c 5.71316,37.68539 24.8419,63.37323 15.74999,74.33333 -11.23549,13.54414 10.98697,14.43633 19.69751,10.88658 7.79526,-3.17675 17.21916,-12.04929 17.21916,-23.80325 0,-39.65614 -19.91667,-49.60158 -19.91667,-83.91667 8.58289,24.3855 21.64039,40.86513 34.50743,71.96854 0.27349,0.66111 0.49269,1.77837 0.49069,2.49413 -0.0337,11.06496 -0.54805,14.79615 -3.42491,19.37114 -12.07682,19.2054 -35.8903,51.32771 -60.23987,81.49953 41.22821,34.66481 59.10089,30.0973 79.33333,2.33333 -0.22295,-5.57763 -0.6849,-11.00747 1.16666,-17 -6.20703,19.39094 15.44956,46.05218 -25.99999,114.33333 -8.42761,13.88307 -32.68761,20.31441 -44.33334,11.5 -15.6116,-11.8161 -34.14853,27.67169 3.66667,42.16667 27.49291,10.53834 45.25711,-4.7715 58.60601,-32.44887 6.19959,-12.81064 10.50345,-23.62328 12.72732,-33.38447 -2.96333,10.70179 -7.09822,21.79409 -12.72732,33.38447 -10.46991,36.70383 -4.54356,53.7822 10.06065,53.7822 6.71154,0 8.63586,3.22793 9.33334,5.33333 0.78362,2.36542 1.82911,4 5.63647,4 3.80736,0 4.85285,-1.63458 5.63647,-4 0.69748,-2.1054 2.6218,-5.33333 9.33334,-5.33333 14.60421,0 20.53056,-17.07837 10.06065,-53.7822 -5.6291,-11.59038 -9.76399,-22.68268 -12.72732,-33.38447 2.22387,9.76119 6.52773,20.57383 12.72732,33.38447 13.3489,27.67737 31.1131,42.98721 58.60601,32.44887 37.8152,-14.49498 19.27827,-53.98277 3.66667,-42.16667 -11.64573,8.81441 -35.90573,2.38307 -44.33334,-11.5 -41.44955,-68.28115 -19.79296,-94.94239 -25.99999,-114.33333 1.85156,5.99253 1.38961,11.42237 1.16666,17 20.23244,27.76397 38.10512,32.33148 79.33333,-2.33333 -24.34957,-30.17182 -48.16305,-62.29413 -60.23987,-81.49953 -2.87686,-4.57499 -3.39124,-8.30618 -3.42491,-19.37114 -0.002,-0.71576 0.2172,-1.83302 0.49069,-2.49413 12.86704,-31.10341 25.92454,-47.58304 34.50743,-71.96854 0,34.31509 -19.91667,44.26053 -19.91667,83.91667 0,11.75396 9.4239,20.6265 17.21916,23.80325 8.71054,3.54975 30.933,2.65756 19.69751,-10.88658 -9.09191,-10.9601 10.03683,-36.64794 15.74999,-74.33333 h 3.58334 c -4.5244,40.86814 -12.06685,84.44926 5.16667,115.33333 14.39567,25.79838 63.04401,20.25717 57.99999,-10.66667 -1.20141,-7.36559 -4.03085,-8.34571 -11.16666,-5.5 -4.28572,1.70912 -18.77259,-0.73434 -22.33049,-25.63142 -5.43422,-38.02689 -9.01842,-84.17287 -10.16951,-133.53524 0.26258,93.87839 31.89275,126.65847 43.66666,135.16666 29.15817,21.07059 56.50522,-14.67629 43.16667,-39.83333 -1.70764,-3.22069 -3.33099,-6.7247 -7.66667,-1.83333 -9.2861,10.47626 -41.71328,12.56607 -55.83332,-110.5 12.61111,27.1111 19.93625,71.2059 42.49999,81.83333 22.389,10.54512 41.45109,-5.98577 30.33333,-39 -1.18135,-3.50801 -3.46314,-5.80487 -10.66666,-3.5 -8.65882,2.77052 -16.67382,-7.11545 -25.89671,-22.3926 -6.77652,-11.22489 -16.73553,-26.72844 -20.93662,-40.1074 35.79582,39.66381 64.60926,22.02916 56.99999,-6.16666 -2.23749,-8.29094 -6.92037,-12.70537 -15.16666,-9.83334 -21.14057,7.36287 -60.24649,-45.55485 -93.83333,-57.333328 -24.30846,-8.524669 -34.00171,16.236578 -16.66667,32.666666 8.74804,8.291362 13.21261,14.224702 3.16667,21.166662 -13.52261,9.34441 -9.63019,26.04982 -4,37.16667 9.73513,19.22209 -11.92878,31.40456 -26.66667,16.66667 -16.59112,-16.59112 -40.98029,4.8289 -40.99999,18 -1.55392,-13.50445 -6.12289,-16.25032 -10e-6,-41.5 4.3062,-20.20619 22.9035,-40.14169 11.33333,-55.500003 8.8135,1.96208 9.77422,5.842464 12.71589,6.649733 3.37656,0.926613 8.96734,-1.260127 12.11745,-7.483065 -19.53774,-13.506763 -44.31918,-46.068682 -67.22981,-27.471582 -0.92963,0.7546 -2.99652,3.298944 -0.75488,7.843918 3.02672,6.136744 3.94276,9.006882 7.96499,14.470487 12.4015,16.845631 5.83586,42.377742 -12.9803,35.157172 l 5,12.83334 c -15.96249,33.96844 -17.49916,36.08267 -20.43962,55 z"
         id="path28214"
         sodipodi:nodetypes="cssssssscsssscssscssssccssscssscccssscccsszsscccssscccssscsssccsssscssscsssscssssssscccscsssccc"
         inkscape:label="body" />
      <g
         id="g53244"
         inkscape:label="vair">
        <path
           style="opacity:1;fill:#248bcc;fill-opacity:1;stroke:#000000;stroke-width:3;stroke-linecap:round;stroke-linejoin:round;stroke-miterlimit:4;stroke-dasharray:none"
           d="m 310.8273,557.20013 -15.96378,-12.9926 -15.96377,12.9926 z"
           id="path31947"
           sodipodi:nodetypes="cccc"
           inkscape:label="vair-30" />
        <path
           id="path29366"
           style="display:inline;opacity:1;fill:#248bcc;fill-opacity:1;stroke:#000000;stroke-width:4.5;stroke-linecap:round;stroke-linejoin:round;stroke-miterlimit:4;stroke-dasharray:none"
           inkscape:label="vair-45"
           d="m 201.06054,148.83332 c -7.48794,14.78502 3.60352,25.34917 15.82813,22.75782 l 0.004,0.0547 v 63.11329 l 19.7246,15.50781 c 0.004,0.0101 0.007,0.0211 0.0117,0.0312 h -39.12304 c -1.64823,-5.97309 -3.1703,-12.20362 -4.19532,-18.96485 h -3.58405 c 0.69381,6.26704 1.42659,12.62579 2.16211,18.96485 h -25.77539 c 0.13178,-1.68025 0.24975,-3.44573 0.3789,-5.14453 0.18875,-2.38839 0.35673,-4.81178 0.53321,-7.23242 0.69204,-9.59794 1.33242,-19.46808 1.86328,-29.82227 0.0124,-0.25068 0.0268,-0.49712 0.0391,-0.74805 0.57972,-11.43943 1.03912,-23.37443 1.29879,-36.01755 z m -43.06804,-70.568549 4.16961,3.523628 v 51.853521 l 30.16992,19.32812 h -70.82422 c 4.07068,-7.24708 7.85435,-14.80362 10.05273,-21.80468 -11.16562,12.37215 -21.65106,19.16407 -30.56445,21.80468 h -3.60351 l 11.5,-19.32812 v -22.28975 c 13.38836,-7.77115 33.00348,-21.542423 49.09992,-33.087399 z m -48.43196,94.642769 v 60.06579 c -2.56487,1.9438 -4.95148,2.91311 -8.32031,4.4557 -20.9683,7.61987 -37.76989,-8.81596 -27.17969,-40.26367 1.18137,-3.508 3.4625,-5.80487 10.66602,-3.5 8.31641,2.66096 16.06478,-6.50522 24.83398,-20.75782 z m 54.29493,62.88282 c -9.90462,45.53759 -28.77437,64.55176 -37.29493,70.70898 -4.13523,2.98825 -8.21647,4.72613 -12.16796,5.62109 v -49.5332 c 2.51019,-2.49658 5.06363,-5.77879 7.62109,-10.0957 z m 81.49218,13.28906 24.37891,27.7539 v 55.33204 l 25.13672,17.16796 h -70.3418 c 13.65638,-18.07122 25.70278,-34.88442 33.11133,-46.66601 2.87686,-4.57499 3.39211,-8.30613 3.42578,-19.37109 0.002,-0.71576 -0.2187,-1.83304 -0.49219,-2.49415 -5.17165,-12.5014 -10.30214,-22.37389 -15.23242,-31.61328 z m -5.40234,9.50781 c 3.36977,9.18778 6.03125,19.68777 6.03125,34.16211 0,11.75396 -9.42349,20.62598 -17.21875,23.80273 -8.71054,3.54975 -30.93276,2.65743 -19.69727,-10.88671 5.49728,-6.62685 0.65004,-18.72192 -5.2832,-35.51368 z m -81.79492,54.88867 29.74414,26.25586 c -0.97594,2.31114 -2.03801,4.57798 -3.25195,6.76758 h -57.58399 c -0.90307,-3.08821 -1.13633,-6.5868 -0.49805,-10.5 1.20141,-7.36559 4.03021,-8.34571 11.16602,-5.5 3.72748,1.4865 15.16491,-0.18675 20.42383,-17.02344 z m 57.91015,47.0293 v 37.65625 c -5.67425,-3.66551 -11.82422,-8.24185 -18.66796,-13.99609 6.33478,-7.84951 12.60297,-15.80842 18.66796,-23.66016 z m 50.83204,94.37109 v 55.67383 c -12.86713,23.78334 -29.7417,36.42471 -54.83204,27.22656 v -40.01367 c 12.54176,4.78093 32.37573,-1.64667 39.83204,-13.92969 6.46975,-10.65783 11.25925,-20.19656 15,-28.95703 z m 0,62.08203 v 5.20704 l 25.5,21.66796 h -27.25 c -1.10903,-6.64665 -0.62848,-15.57334 1.75,-26.875 z m 9.89648,-141.80078 c -0.41965,3.85555 -0.21324,7.57072 -0.0625,11.3418 -0.40179,-4.05114 -0.37187,-7.82529 0.0625,-11.3418 z M 388.66602,148.83398 c 7.48794,14.78502 -3.60352,25.34917 -15.82813,22.75782 l -0.004,0.0547 v 63.11329 l -19.7246,15.50781 c -0.004,0.0101 -0.007,0.0211 -0.0117,0.0312 h 39.12304 c 1.64823,-5.97309 3.1703,-12.20362 4.19532,-18.96485 H 400 c -0.69381,6.26704 -1.42659,12.62579 -2.16211,18.96485 h 25.77539 c -0.13178,-1.68025 -0.24975,-3.44573 -0.3789,-5.14453 -0.18875,-2.38839 -0.35673,-4.81178 -0.53321,-7.23242 -0.69204,-9.59794 -1.33242,-19.46808 -1.86328,-29.82227 -0.0124,-0.25068 -0.0268,-0.49712 -0.0391,-0.74805 C 420.21907,195.9121 419.75967,183.9771 419.5,171.33398 Z m 46.55078,-73.511714 -7.65235,6.466796 v 51.853518 l -30.16992,19.32812 h 70.82422 c -4.07068,-7.24708 -7.85435,-14.80362 -10.05273,-21.80468 11.16562,12.37215 21.65106,19.16407 30.56445,21.80468 h 3.60351 l -11.5,-19.32812 V 110.77734 C 467.44562,103.00619 451.44458,87.845087 435.2168,75.322266 Z m 44.94922,97.585934 v 60.06476 c 2.46194,1.86175 5.49693,3.34711 8.32031,4.45673 20.9683,7.61987 37.76989,-8.81596 27.17969,-40.26367 -1.18137,-3.508 -3.4625,-5.80487 -10.66602,-3.5 -8.31641,2.66096 -16.06478,-6.50522 -24.83398,-20.75782 z m -54.29493,62.88282 c 9.90462,45.53759 28.77437,64.55176 37.29493,70.70898 4.13523,2.98825 8.21647,4.72613 12.16796,5.62109 v -49.5332 c -2.51019,-2.49658 -5.06363,-5.77879 -7.62109,-10.0957 z M 344.37891,249.08008 320,276.83398 v 55.33204 l -25.13672,17.16796 h 70.3418 c -13.65638,-18.07122 -25.70278,-34.88442 -33.11133,-46.66601 -2.87686,-4.57499 -3.39211,-8.30613 -3.42578,-19.37109 -0.002,-0.71576 0.2187,-1.83304 0.49219,-2.49415 5.17165,-12.5014 10.30214,-22.37389 15.23242,-31.61328 z m 5.40234,9.50781 c -3.36977,9.18778 -6.03125,19.68777 -6.03125,34.16211 0,11.75396 9.42349,20.62598 17.21875,23.80273 8.71054,3.54975 30.93276,2.65743 19.69727,-10.88671 -5.49728,-6.62685 -0.65004,-18.72192 5.2832,-35.51368 z m 81.79492,54.88867 -29.74414,26.25586 c 0.97594,2.31114 2.03801,4.57798 3.25195,6.76758 h 57.58399 c 0.90307,-3.08821 1.13633,-6.5868 0.49805,-10.5 -1.20141,-7.36559 -4.03021,-8.34571 -11.16602,-5.5 -3.72748,1.4865 -15.16491,-0.18675 -20.42383,-17.02344 z m -57.91015,47.0293 v 37.65625 c 5.67425,-3.66551 11.82422,-8.24185 18.66796,-13.99609 -6.33478,-7.84951 -12.60297,-15.80842 -18.66796,-23.66016 z m -50.83204,94.37109 v 55.67383 c 12.86713,23.78334 29.7417,36.42471 54.83204,27.22656 v -40.01367 c -12.54176,4.78093 -32.37573,-1.64667 -39.83204,-13.92969 -6.46975,-10.65783 -11.25925,-20.19656 -15,-28.95703 z m 0,62.08203 v 5.20704 l -25.5,21.66796 h 27.25 c 1.10903,-6.64665 0.62848,-15.57334 -1.75,-26.875 z m -11,-147.45898 c 0.37733,1.37519 0.67306,2.80095 0.9043,4.26953 1.95876,14.90642 -7.15798,34.96644 6.86524,73.06445 l -49.48048,-6.6e-4 c 14.02322,-38.09801 4.90648,-58.15803 6.86524,-73.06445 0.23124,-1.46858 0.52697,-2.89434 0.9043,-4.26953 l 16.9707,-20.16569 z m 1.10352,5.6582 c 0.41965,3.85555 0.21324,7.57072 0.0625,11.3418 0.40179,-4.05114 0.37187,-7.82529 -0.0625,-11.3418 z M 321,183.5 324.32617,226.27344 342.24023,249 l -94.7539,-6.6e-4 17.91406,-22.72656 3.32617,-42.77344 M 231.25977,62.546875 219.67383,71.667969 v 17.908203 c 17.53616,-5.635209 19.75839,-18.644818 11.58594,-27.029297 z m 103.8457,5.326172 -12.27149,14.792969 v 52.393234 l 0.63282,-1.28386 c 6.36972,-17.32222 18.86193,-34.008301 8.86718,-47.27539 8.8135,1.96208 9.77318,5.843122 12.71485,6.650391 3.37656,0.926613 8.96708,-1.261437 12.11719,-7.484375 -6.69556,-4.628752 -14.21081,-11.476594 -22.06055,-17.792969 z"
           sodipodi:nodetypes="cccccccccccccccccccccccccccccccssccscccccccccscscccsssccccccsscccccccccsccccccccccccccccccccccccccccccccccccccccssccscccccccccscscccsssccccccsscccccccccsccccccccccccccccccccccccccccccccscc" />
        <path
           style="opacity:1;fill:none;fill-opacity:1;stroke:#000000;stroke-width:6;stroke-linecap:round;stroke-linejoin:round;stroke-miterlimit:4;stroke-dasharray:none"
           d="m 325.56688,79.640725 7.26644,6.525939 c 7.44454,-4.417806 11.65652,15.310756 22.08334,0 -6.97702,-7.470614 -15.27803,-12.642126 -21.91667,-17.916666"
           id="path40801"
           inkscape:label="vair-c"
           sodipodi:nodetypes="cccc" />
      </g>
      <path
         id="path42659"
         style="opacity:1;fill:#000000;fill-opacity:1;stroke:#000000;stroke-width:1;stroke-linecap:round;stroke-linejoin:round;stroke-miterlimit:4;stroke-dasharray:none"
         d="m 302.78906,52.650391 -14.20117,6.333984 0.0293,6.748047 15.41797,25.073567 c -2.5882,-5.730365 16.67326,-13.057207 17.05534,-8.097005 l 13.46028,-14.621093 -17.20703,-12.34375 z m 1.63086,2.042968 c 4.05964,-0.09141 8.28527,1.005192 12.64844,3.074219 22.72223,11.796266 7.45356,20.513976 3.06836,15.212891 -4.12362,-4.984863 -16.82392,-10.398765 -26.29883,-7.333985 -2.95969,0.95735 -4.68539,-4.073131 -0.94141,-6.735676 3.7309,-2.653245 7.46381,-4.126041 11.52344,-4.217449 z m -5.15039,16.160157 c 1.01862,-0.03866 2.06827,0.54318 2.43945,2.021484 0.98872,3.937787 4.45706,4.449002 7,1 2.57379,-3.490842 5.58808,0.07193 4.66602,2.125 -3.746,8.340889 -14.36491,7.714964 -16.375,-2.5 -0.29927,-1.52083 0.95988,-2.596783 2.26953,-2.646484 z"
         sodipodi:nodetypes="ccccccccscssssssssss"
         inkscape:label="head-f" />
      <g
         id="g53239"
         inkscape:label="neck">
        <path
           style="opacity:1;fill:#248bcc;fill-opacity:1;stroke:#000000;stroke-width:2.5;stroke-linecap:round;stroke-linejoin:round;stroke-miterlimit:4;stroke-dasharray:none"
           d="m 320.11522,185.20305 c -1.62952,-15.47776 -7.10497,-17.28728 0.5577,-47.67078 l -9.11028,5.03431 c 3.75035,-2.54674 7.39807,-6.58463 10.52449,-10.69117 -0.0757,4.99318 -4.89,8.68108 -10.72445,10.84231 -2.65454,2.12132 -4.39456,4.24264 -6.12826,6.36396 -12.18617,13.03231 -22.20674,-8.5066 -16.84078,-16.53965 -3.97493,9.27167 -5.73968,12.64511 -8.62664,19.06412 -2.37243,5.275 -8.12081,15.32452 -10.17601,33.74927"
           id="path48336"
           sodipodi:nodetypes="cccccccsc"
           inkscape:label="neck-0" />
        <path
           style="opacity:1;fill:none;fill-opacity:1;stroke:#000000;stroke-width:2.5;stroke-linecap:round;stroke-linejoin:round;stroke-miterlimit:4;stroke-dasharray:none"
           d="m 273.53671,163.0449 c 4.86349,-4.34725 12.89278,-6.27359 23.09458,-6.5386 7.08962,3.29267 14.17924,4.9034 21.26886,6.01138"
           id="path47744"
           sodipodi:nodetypes="ccc"
           inkscape:label="neck-200" />
        <path
           style="opacity:1;fill:none;fill-opacity:1;stroke:#000000;stroke-width:2;stroke-linecap:round;stroke-linejoin:round;stroke-miterlimit:4;stroke-dasharray:none"
           d="m 278.49577,151.28382 c 5.13282,1.49497 11.61028,2.81671 18.60692,3.69041 8.75844,-0.90037 16.65353,-2.35412 21.96564,-3.8811"
           id="path48016"
           sodipodi:nodetypes="ccc"
           inkscape:label="neck-175" />
      </g>
    </g>
  </g>
</svg>
