<?xml version="1.0" encoding="UTF-8"?>
<svg width="356pt" height="434pt" version="1.1" viewBox="0 0 356 434" xmlns="http://www.w3.org/2000/svg"><path d="m336.39 187.76 0.90358-167.46h-316.12l0.90413 167.46c2.1896 89.437 49.099 175.18 157.15 221.99 108.06-46.814 154.96-132.56 157.15-221.99z" fill="#0093dd" stroke="#000400" stroke-width="5.0578"/><path d="m203.68 39.11c-2.6666-0.12728-4.6113 1.0803-6.0513 3.5303-1.905 2.66-5.6545 12.377-4.9307 16.852-1.128 0.05532-2.5969-0.05114-3.4936 0.07764-0.67693-5.6068 0.16553-11.75 0.91553-17.41 0.02-3.16-5.03-4.2795-5.94-1.0195-2.07 4.92-3.22 10.3-4.5 15.47-2.89-1.51-5.9506-3.3901-9.1406-4.1001-3.05-0.58-6.3708 1.589-9.4907 1.749-4.8 0.22-9.859-0.19889-14.669 0.39111-5.12 0.74-8.0804 4.6598-13.34 4.7798-5.33 0.34-10.47 1.46-15.74 2.25-3.9 0.69-9.2116 2.3683-12.412 4.7783-2.22 2.98-2.2121 6.3753-1.4209 11.164-5.6257 2.821-11.708 2.0281-16.428 1.5981-3.61-1.51-6.1092-4.8402-9.8892-6.2402-0.85 3-1.3703 5.9794-0.01025 8.9194 2.2 4.25 5.7694 7.8507 10.879 7.7007 6 0.38 10.177-2.0843 15.497-3.8643 0.69022 1.0784 0.6134 2.3546 2.7334 3.7046 5.9714 0.8186 10.162-0.3096 14.752 2.1504 1.35 1.01 6.1988 2.5682 8.8682 4.3975-7.9559 6.9182-9.1406 8.1912-11.559 10.644 0.68418 0.79835 2.8265 0.77185 3.6709 1.6157-3.6788 1.764-14.052 10.16-15.157 12.17 0.98546 1.1837 2.3804 2.9505 3.1392 3.7295-4.22 3.4-9.9504 11.463-12.88 16.003 2.5493 0.60321 3.404 1.2272 4.8501 1.5102-2.47 3.7256-9.0498 11.06-12.396 14.555 2.4637 0.97947 4.9465 1.08 7.7593 1.2202-1.0588 1.3972-2.5033 5.1793-2.8901 7.4795-6.4132-2.1403-11.967-3.4852-17.537-4.5952-5.06-0.94997-9.8807-2.5599-14.681-4.3799-3.55-1.54-7.3296 0.27934-10.54 1.8193-2.46 1.01-2.185 5.8278-2.1958 8.8403-2.0346 1.6062-4.1244 4.9997-5.7144 8.9297-0.49 2.69 0.36938 5.7612 0.60938 8.4712 0.64 6.47-0.08928 13.01 0.49072 19.5 0.75 6.21-0.52043 12.23-0.94043 18.56 0.05 2.45 1.1407 4.9795 1.9907 7.2495 2.89 6.5 2.5971 12.891 5.2471 19.551 2.1633-1.1178 3.1215-1.8361 4.0562-2.3262 0.67374 0.94041 1.0816 1.5108 2.4258 2.4565 4.87-3.51 10.461-13.656 8.7891-19.424 4.0868 2.7091 5.6275 5.8941 8.2075 4.9541 2.05-3.59 2.1842-10.322 2.0142-14.332-0.4-4.69-3.2901-7.4991-7.3901-9.3691-1.42-4.87-4.7905-8.28-5.5005-13.27-0.72-4.66 0.79049-9.6204 1.0005-14.44 5.06 1.01 8.5698 3.9507 13.26 5.9707 7.06 3.14 21.566 8.9004 29.146 10.46 2.8579 0.56179 2.2499 1.134 5.1299 3.104 2.1 1.37 5.2555 1.7911 7.6055 2.6411 6.42 2.15 7.378 4.9433 14.168 6.4233 2.52 0.6 8.2046 0.37571 10.685 1.0957-1.7966 2.367-3.6255 4.3784-3.6255 4.3784s16.034-1.3877 19.756-2.0376c0.0338 0.70127-0.47678 2.8062-1.0064 4.0093 5.1598-1.3673 14.672-5.116 19.982-6.126-0.13 1.55-0.20863 3.7527-0.34863 5.3027 6.76-1.17 12.141-1.2064 19.011-1.5864 5.06-0.16 11.389 0.4109 15.542 1.5806 2.8721 4.8523 4.2753 6.7843 6.4453 10.154 1.95 3.05 3.8705 6.1296 6.0205 9.0396 2.76 3.76 6.2901 6.1395 9.8101 9.2095 5.04 4.45 11.11 7.3111 16.09 11.871 3.81 3.26 7.1301 6.4697 8.0801 11.64 0.54 4.35 0.47992 8.98-0.81005 13.21-1.44 5.39-4.3601 9.8098-4.3901 15.57-1.41 6.08-5.1899 11.75-7.6099 17.5-0.58 1.56 2.0744 5.256 2.3144 6.876 1.375 1.06 3.8229-1.6093 5.625-2.9077 0.20453 1.8144-0.69133 4.9446 1.0137 5.2046 1.8754-0.83176 4.7954-2.9018 6.7046-3.7837l6.0498-5.4961 1.103-5.3613c-0.73003-2.7531-1.6585-5.4054-2.981-7.9819 1.13-1.81 3.1896-3.7605 2.6396-6.0205-0.89-6.62-1.7189-12.84 1.8911-18.88 1.63 4.03 1.5796 8.1709 2.3496 12.381 0.35 2.88 1.2697 5.2899 0.15966 8.1299-0.95269 2.4115-1.5619 4.8716-2.0537 7.3608l0.41162 3.5771-1.185 5.5342-5.228 10.037c0.11094 0.39471 0.23291 0.77785 0.3457 1.1807 0.97 0.385 3.9742-1.2388 5.1152-0.78516 1.141 0.45367 0.41889 2.9849 1.4839 2.7349 3.61-0.89997 6.9501-3.7102 9.8101-6.0102 3.37-2.6 5.9408-5.7902 6.0308-10.22-0.66-3.34-2.8202-6.4791-3.1802-9.8291 0.57-2.11 1.8602-4.0697 2.2602-6.2197-0.29-2-0.97977-3.9504-1.4897-5.9004-1.43-4.88-1.4604-10.01-2.2104-15.11 0.18486-4.7594-0.0675-8.6875 1.9114-14.225-2.7535-2.7658-4.6714-5.0759-7.1614-7.1559-3.99-3.09-7.7305-6.7099-9.7705-11.42-2.05-5.52-3.3494-11.32-2.6894-17.24 0.69997-6.33 0.4997-12.64 0.4497-18.99 2.34 4.05 4.1863 8.2716 6.4263 12.352 1.411 1.5566 5.2136 3.009 8.1636 3.189 4.5111 0.4366 7.0318 0.3023 10.572-1.8354 0.27265-1.1777-1.3611-2.9642-2.3511-4.0942-2.78-1.57-4.241-2.1708-6.791-4.0708-3.75-2.97-5.0292-8.079-8.4492-11.499-3.86-3.88-8.6196-6.131-12.79-9.271-9.04-7.64-16.18-16.01-26.2-21.86-4.69-2.44-9.5702-4.5894-14.43-6.6694-5.31-2.3-10.9-2.5509-16.37-4.4209-6.52-2.11-13.74-4.2189-18.35-9.5889-4.96-5.4-11.071-8.5207-17.401-11.971 0.54559-1.9666 0.93267-3.2712 1.6904-5.1592 4.0996-8.255 4.9183-15.07 4.6834-17.007 1.228 0.66163 3.9985 1.6248 5.6672 1.846 0.01-3.02-1.831-14.774-1.831-14.774s2.4927 0.53725 4.8501 1.2949c0.43-5.54-1.12-14.74-1.21-20.29 3.74-0.57 8.6765-1.671 12.396-2.4917 3.4143 2.6852 6.8546 4.3914 10.915 5.7114 6.59 2.51 13.411 3.0993 20.391 3.2593 6.95 0.76 13.89 1.221 20.89 0.79102 6.23-0.5 10.99-3.3405 17.13-3.0205 4.71-0.01 9.2695 1.1996 14 1.0796 4.33-0.05 8.6993 0.19982 13.009-0.18018 3.73-0.57 7.7404-1.6697 11.21-3.1597 0.39-1.33 0.60082-2.7494 0.84082-4.1294-5.43-1.81-10.491 0.19906-16.081-0.96094-3.83-0.81-7.8794-0.84981-10.129-4.5498 3.73-0.25 7.4704-0.35998 11.21-0.22998 3.7 0.09 7.0691 1.5099 10.809 1.3799 5.27 0.13 10.32-1.0291 15.34-2.5591 1.98-0.66 4.36-1.5499 5.77-3.1699 0.82-1.32 2.3006-2.5133 0.95069-4.7798-5.44-1.05-9.5104 1.3497-14.67 2.2397-5.21 0.66-10.49-0.30087-15.19-2.6309 1.2-6.93 7.631-11.789 10.311-18.189 1.4481-4.8511-2.863-5.8079-6.8804-3.041-3.69 2.96-9.504 14.599-13.478 17.345 3.144-8.1386-1.0415-11.215-3.5215-10.415-4.62 2.97-6.1909 9.6601-9.4409 13.56-2.09 1.69-4.2903 1.3898-6.7602 1.0898 0.86-3.87 1.791-7.6791 3.501-11.269 1.79-3.95 4.8438-11.201 2.54-12.18-0.55893-0.675-3.6998-0.32968-4.7798 0.82031-2.96 2.76-5.3001 6.2893-7.3301 9.7793-3.08 5.39-3.601 11.93-7.541 16.43-1.75 2.1-3.7129 3.5849-7.6084 4.5923-0.56998-2.33-0.39079-5.3324 0.65918-7.6523 1.65-3.81 4.0096-6.8297 4.0796-11.18-0.14034-2.2335-3.3958-3.2252-6.0205-0.72949-4.09 4.41-6.0089 11.39-8.6089 16.62-1.07 2.11-3.3811 1.389-4.081-0.56104-0.89-2.16-0.12885-4.0301 0.68115-6.0601 2.36-5.3 6.2398-9.9491 9.0498-14.789 1.31-2.25 1.15-5.7798-1.79-6.5698-2.72 1.73-5.1097 4.0498-7.4297 6.2798-4.96 4.81-7.0749 10.939-9.4775 16.683-1.0297 3.943-1.2486 3.5177-1.563 4.2935-1.6227-0.28973-5.1998-0.46334-7.1997-1.5469 2.5626-3.5359 4.5-8.2703 5.48-11.84-3.86-0.1-8.6094 1.1672-12.319 1.6772-0.21929-5.0632 1.8197-8.4165 2.9297-13.187 0.59-2.25 0.52686-4.9798-1.79-5.6206zm64.45 36.511-2.0786 2.9121-4.7637 0.34131-8.685 0.05127z"/><path d="m202.71 41.495c-2.0283 0.0068-4.8473 6.5729-6.1245 9.9756-1.06 3.3-1.6516 4.9057-1.4692 7.7417 1.0029-0.13588 2.4778-0.11061 4.1602-0.37207-0.15666-7.6259 5.6188-16.655 3.728-17.298-0.0956-0.03255-0.19468-0.04721-0.29443-0.04687zm-15.832 0.33398c-0.11322-0.0051-0.23928 0.02102-0.37793 0.08203-1.4551-0.1284-3.1984 13.217-3.3984 18.167 0.75-0.01 3.3765-0.4585 4.1265-0.4585-0.79262-4.4511 1.952-17.686-0.35009-17.791zm79.515 2.2544c-0.72121 0.06802-1.7637 0.95508-1.7637 0.95508-2.4285 2.4406-3.7552 3.6364-4.7212 6.2871-3.2467 6.0518-4.3122 13.155-7.5322 19.015-2.69 2.98-6.7001 4.8898-10.56 5.8198-1.79 0.51-1.5653 0.44873-3.2153-0.05127-0.62797-2.0565-0.78223-4.0827 0.0967-8.0991 1.4099-4.5811 5.4463-11.658 3.5698-11.987-2.8671-0.56565-6.1705 11.637-8.7905 18.527-1.1 1.93-4.1209 0.81869-5.6909 0.40869-3.08-0.78-4.3515-4.6527-3.7837-6.9155 2.0945-8.7507 12.899-21.148 10.868-22.25-3.015-1.7465-12.27 13.578-13.91 21.368-0.53 2.43-1.2427 4.989-3.9727 5.439-3.65 0.03-6.5544-1.2009-9.9844-2.4009-1.6858 1.725-2.9096 2.6138-4.0752 4.0488 7.12 2.12 15.43 4.212 22.89 4.582 10.24 1.88 20.05-0.09079 29.95-2.8008 8.19-2.93 16.68-3.5298 25.25-5.2998 6.14-0.19 13.231 2.8728 19.411 2.8228 5.29 0.06 19.822-3.5573 19.163-5.5723-0.26846-2.8477-11.844 2.4993-15.564 2.5693-5.64 0.29-11.32-2.1994-16.92-3.3794 1.86-8.28 15.234-21.446 12.671-22.17-1.8592-1.158-4.7905 2.5693-6.2505 4.5293-3.19 4.2-5.8691 8.79-9.0791 12.98-1.68 2.06-3.4106 3.9413-6.0806 4.6113-4.61 1.01-9.38 1.2391-14.02 2.0991-1.72 0.16-3.4396 0.69082-4.8296-0.65918-1.72-1 0.35599-5.0973 0.64599-6.6973 2.12-6.47 3.9356-9.4575 6.6856-15.647 0.47136-1.7435 0.10539-2.1857-0.45557-2.1328zm13.844 8.9912c-3.4563 0.05528-5.6323 7.4311-7.081 11.796 2.01-0.69 4.9546-0.23972 6.1246-2.1997 1.34-2.59 2.6285-8.4934 1.475-9.5513-0.17624-0.03392-0.34858-0.04813-0.51856-0.04541zm-110.6 1.4224c-0.62969 0.04454-1.3076 0.29631-2.0698 0.8335-0.4621 0.98935-0.65355 1.9796-1.1234 2.7278-4.2481-0.57672-7.7158-0.40888-11.786-0.24783-1.2698 0.18327-2.5407 0.29417-3.9126 0.4248 6.5e-4 -0.0057 2e-3 -0.0089 3e-3 -0.01465-0.40767 0.02623-0.82389 0.01465-1.2451 0.01465-1.4455 0.21498-3.1695 0.2404-4.4648 0.50537-3.32 1.02-6.5205 3.5202-10 3.7002-4.9899 0.29999-9.8297 1.3499-14.7 2.4199-3.9799 0.85999-10.118 0.27836-13.378 3.0483l-0.49512 3.1919c2.36 0.84999 6.8532-2.1509 9.2432-2.6309 0.68 0.80999 0.84092 2.0508 1.1909 3.0308-3.91 0.71-7.431 0.52013-11.001 2.3701-0.16386 4.1477 4.0256 3.7187 6.602 2.8447 3.03 2.22 10.999 3.8347 11.489 8.0347-3.3699-0.41-12.806 1.0706-17.496 0.1626-0.10473 3.4947 2.5406 2.9104 4.0679 2.8579 2.049-0.07037 5.5957-0.16754 7.8618 0.24609 4.5322 0.82727 9.0765 1.6229 11.457 2.9429 3.12 1.6 6.0891 3.5205 9.249 5.0405 2.75 1.28 5.9605 1.6096 8.9604 2.3496-4.7999 2.61-10.23 0.11102-15.1-0.93896-2.8399 2.65-5.3304 5.4891-7.6904 8.5591 0.43 1.19 0.87079 2.3606 1.3008 3.5405-5.92 2.44-11.142 6.1031-14.77 11.02 0.63 1.12 3.1097 1.5399 3.7397 2.6499-4.1199 6.1599-10.351 8.39-13.021 15.4 1.5199 0.08 3.0506 0.17049 4.5806 0.25049-2.9499 5.5299-5.8798 10.869-10.32 15.379 1.63-0.42 3.2599-0.78035 4.8999-1.1104-0.81 3.32-2.8806 6.4-3.3706 9.75 0.17 4.28 2.1299 8.5309 3.1699 12.671 2.9199 0.55 5.7209 0.8489 8.6909 0.8789-0.69 1.37-1.4302 3.9105-3.2402 4.0005-7.5199-0.69-14.031-3.1692-21.141-5.1592-3.86-1.14-7.659-0.24144-11.209-1.9014-4.29-1.97-8.7704-3.3798-13.34-4.5498-4.46-1.43-9.9704 1.2201-12.36 5.0801-2.7 4.1799-0.40971 9.4408-0.44971 14.111 0.12 7.3399 0.23012 14.729 0.12012 22.069 0.04 4.32-1.7193 9.0606-0.83936 13.23 2.34 2.59 5.6787 4.1703 9.1787 4.3403-0.67-2.75-1.0999-5.3101-0.68994-8.1401 0.51-3.15-1.3299-5.3002-1.6699-8.4302-0.49999-6.5999 0.99044-12.56 1.6904-19.04 0.46-4.3999-1.2305-7.8499 0.43945-12.11 1.17-2.33 4.8811-2.8299 7.1411-2.1299 7.7599 2.37 14.969 7.5692 22.509 10.699 5.29 2.1899 10.731 4.2505 16.311 5.5605 5.08 1.14 10.573 0.0542 15.173 2.0742 0.78206 2.2491-3.7099 2.0156-5.1899 2.9356 3.2231 1.1919 5.6663 1.6094 8.6763 2.6294 3.79 1.65 7.44 4.8001 11.65 6.1201 6.64 1.97 11.099 2.0697 17.938 1.9497-0.84495 1.1459-1.0583 2.5987-3.0469 4.0957 4.03-0.58 12.267-1.1942 16.689-1.5542-0.72457 1.5901-0.68519 2.6215-0.86279 3.1772 11.107-5.1645 21.032-8.6112 32.353-8.0977 5.0499-0.16 9.8702 0.8393 14.83 1.5293-1.9499-3.54-4.8999-4.7492-8.4199-6.3091-1.7546-0.76346-1.806-1.8418 0.22266-2.1943 1.976-0.3434 4.1944 0.48061 5.7744 1.8706 1.98 1.6399 3.5729 3.2427 4.9028 5.4126 6.37 10.22 9.9996 20.45 19.709 28.28 10.84 8.2799 23.331 15.201 35.21 21.841 1.7599 1.11 4.0104 1.94 4.8604 3.98 3.3199 6.9599 3.9697 15.64 4.1997 23.25 0.14 5.0999 2.21 9.2092 0.75 14.389-1.1515 3.9058-1.9047 7.8215-1.7871 11.77l-2.313 3.6577-2.0874 4.9292s-0.55243 3.1228 0.45557 1.4868c1.008-1.6359 3.7983-5.6206 3.7983-5.6206l1.0415-0.94629c0.017 0.65366-0.42071 2.6773-0.83935 3.7676-0.61366 1.9274-2.4258 5.0902 0.51416 5.2002 2.92-2.04 5.4979-5.4648 7.8179-8.1548 1.24-1.3 0.76916-3.1193 0.88916-4.7593-1.43-0.16-2.8591-0.32021-4.2891-0.47021 0.47759-3.8421 0.64427-7.4546 1.6157-10.988 0.26539 0.12306 0.54879 0.1867 0.83496 0.1875 1.2406-4.1e-4 2.246-1.1567 2.2456-2.5825-8.7e-4 -1.1744-0.69132-2.2001-1.6802-2.4961-3.0374-7.9218-1.9427-11.797-2.0156-20.131-0.6-3.07-0.0853-9.9679-0.41309-12.81-4.23-4.14-12.007-9.8202-14.717-15.64-2.3-5.9199-3.8601-12.41-3.6401-18.8-0.04-11.39 1.4689-21.379-3.3311-32.159-0.82-1.41-2.2693-2.5306-3.4892-3.6006-6.89-5.6999-12.851-13.55-20.221-18.63-2.7599-1.95-5.7399-2.9206-8.8799-4.0606-5.8999-2.09-11.369-4.7789-17.449-6.3589-6.6199-1.8999-13.111-2.4107-19.011-5.5107-6.5099-3.34-10.539-11.24-17.209-14.169-1.8899-0.24-3.9902 0.50896-5.8301 0.93896-2.72-6.2699-0.55804-10.297 1.8003-16.941 1.3357-3.4018 2.3091-6.4486 2.6191-10.099-0.02-2.59-0.70992-5.1605-0.91992-7.7505 1.32 0.13 4.2315 1.6151 5.5415 1.7651 0.31-4.64-1.4815-10.605-1.7915-15.245l5.5532 2.5854c0.0542-4.63 0.10672-9.9157-2.6133-14.076-1.6-2.8-5.3099-3.4893-8.0698-4.7593 1.9699-1.3 3.1803-3.0298 5.7803-2.5298 4.9199 0.93999 9.4793 1.839 14.509 0.76904 5.8599-1.78 10.89-6.2993 15.23-10.469 1.8899-1.81 3.1306-3.4808 3.8906-6.0308-9.2099 1.65-18.687 1.6588-27.97 3-4.5 0.92999-8.6903 4.0899-12.82 6.1099-0.13-0.99999-0.26965-2-0.38965-3 2.52-1.45 4.9098-3.0798 7.2598-4.7798-0.37-1.63-0.49082-3.8201-1.5908-5.1401-1.3562-1.0875-2.5095-2.1635-3.8452-2.3511-0.20036-0.02814-0.40533-0.03682-0.61523-0.02197zm-17.108 5.1724c-0.13183 1.3103 1.1936 2.8097 1.9394 3.9111 1.21 0.71999 2.4898 1.1599 3.7998 1.6699 0.15 0.77999 0.2997 1.5696 0.4497 2.3496-1.4599-0.26999-2.9199-0.54936-4.3799-0.83936-1.15 0.94999-2.3198 1.8891-3.5098 2.7891-3.65 2.25-8.9114-0.83904-12.801-1.519 3.2199-2.67 6.9711-4.2604 10.541-6.3604 1.0766-0.64194 1.5713-1.1643 1.8589-1.9775zm51.69 4.9409-2.6733 4.0386-2.1152 0.29883 0.34424-2.0464c-1.3456 0.09614-2.798 0.23092-6.479 0.52881-4.7477 0.38422-8.8148 0.80944-10.469 1.1147-3.7087 0.68442-3.864 1.8183-4.6846 3.0483-0.37583 0.56332-0.50893 0.9371-0.48193 1.314l0.67822 1.7974-2.4741 0.10107-1.9204-2.3013c0.13128-0.41524 0.24384-0.83261 0.50244-1.1953 2.6864-2.5542 3.9158-3.6202 7.5938-4.4707 1.9966-0.36845 6.3324-1.0166 11.093-1.4019 4.7609-0.38528 9.0645-0.68555 9.0645-0.68555zm66.344 10.855c-1.35 1.68-1.4851 2.7255-2.4251 4.6655-3.69 0.82-7.3289 1.5406-11.149 1.3506-4.57 0.09-8.3914-1.4897-12.921-0.73975-7.15 1.31-14.689 0.68955-21.939 0.78955-6.94-0.03-14.434-4.0987-20.884-6.1787-0.88893 0.49663-1.7604 1.6637-2.7861 2.4287 3.24 2.12 6.4195 3.5092 10.189 4.4092 5.9 1.42 12.27 3.3708 18.35 3.3208 5.66 0 11.341 0.15955 17.001 0.03955 6.47-0.1 12.619-2.1199 18.999-2.1299 4.69-0.11 9.341 0.20955 14.001 0.78955 6.18 0.64 24.354 0.20114 23.291-2.0361-0.34825-1.8934-16.882-0.34311-22.102-2.4331-1.315-0.55-2.5438-3.2631-2.9905-4.6671-0.84792 4e-3 -3.2413 0.19132-4.6347 0.39125zm-191.52 1.393c-0.22234 3.7075 1.737 5.8732 4.377 7.7432 3.13 2.65 2.8021 1.6295 11.2 1.0093 2.1373-0.15785 7.7127-1.713 11.512-3.208 4.3312-0.62971 7.116-0.09395 9.3706-1.0093-3.4466-1.5004-3.8405-1.8736-6.2681-2.436-2.7077 0.74633-5.3931 1.4289-7.5102 1.6362-4.261 0.41722-9.7251 1.3226-12.725 1.7476-4.43 0.78-6.5566-3.3229-9.9565-5.4829zm77.388 13.503c1.09 0.13 2.0987 0.48012 3.1187 0.87012 0.17 0.94 0.34097 1.8693 0.50097 2.7993-2.37 1.24-4.3405 1.6498-7.0005 1.7798 0.30068-0.63045 0.6-1.2591 0.91846-1.875l0.76026 0.03809 2.0054-0.71045 0.40283-0.31787 0.10254-0.52002-1.9907-0.81592c0.44347-0.69273 0.58876-0.64698 1.1821-1.248zm-96.958 68.295c-2.4498-0.0425-5.0918 1.8442-6.7324 3.4849-0.19 1.21-0.27953 2.4399-0.26953 3.6899 3-0.26 6.0786-0.73049 9.0586-0.25049 3.83 0.66 7.7213 2.2803 11.361 3.5903 5.2 1.93 10.73 2.4103 16.08 4.0503 3.01 0.92 5.84 1.439 9 1.519-0.55-2.11-0.90057-3.6101-3.0806-4.5601-7.38-3.29-15.3-5.6598-23.25-7.0898-4.21-0.84-7.5692-3.4404-11.679-4.4004-0.16125-0.0206-0.32448-0.0309-0.48779-0.0337zm2.2178 22.324c-0.68 1-1.881 2.0498-2.061 3.2798-0.51 5.19-0.86056 8.4663-0.76904 15.52-0.36 2.23-1.5701 4.7697-0.64014 6.9097 1.43 4.16 2.8002 9.0409 5.6602 12.441 3.08 3.62 4.5598 7.9298 8.2998 11.01 1.57-3.77 1.6894-8.1099 1.1895-12.11-1.84-2.93-4.7-3.6702-7.79-4.6802-0.47-3.33-1.1896-5.9108-3.0396-8.7407-4.26-6.77-0.95961-16.259-0.84961-23.629zm202.52 15.12c0.04 4.11 2.4711 6.2141 4.8911 8.9941 2.154 3.3833 3.877 5.9819 5.647 10.172 0.93565 1.6948 4.7403 3.1169 6.9082 3.958 2.7679 1.0739 6.464 0.71888 6.8247 0.0762 1.2478-2.2264-7.5699-4.4009-10.15-8.6309-4.08-5.92-6.4011-12.519-14.121-14.569zm-71.733 14.81c-1.35-0.065-8.4809 1.0282-10.283 1.9936 0.18259 0.79724 0.13923 1.8128 0.42188 2.7012 10.565-2.5494 21.912-2.1373 29.927-0.15967-0.2499-1.1161-1.0675-2.1726-1.3257-2.9429-2.6374-0.85358-14.699-1.6026-18.74-1.5923zm-133.52 15.51c-1.13 1.46-2.3694 3.0405-3.0894 4.7505 0.07 4.41 0.94957 8.8899 2.0596 13.15 4.31-1.29 5.15-5.0794 6.29-8.9194 0.94-3.81-2.3803-7.061-5.2603-8.981zm-7.2202 2.8901c-0.78 1.21-1.039 2.4307-0.76904 3.6606 0.59 4.02 0.60879 8.0496 0.75879 12.1 2.86-4.36 2.9909-8.9405 2.6309-13.98-0.87-0.61-1.7406-1.1998-2.6206-1.7798zm187.87 15.173c7.1952 6.3313 20.594 17.568 22.334 20.498 2.43 3.88 1.8093 9.6305 1.7593 14.041-0.14 5.56-2.3094 10.04-3.6094 15.29-0.88 3.48-0.22084 6.5796-2.1108 9.7896-2.13 3.58-6.2223 10.376-5.5518 14.361 3.56-1.35 4.6629-8.3916 7.4429-10.102 0.72996 1.56 0.24904 2.9308 0.019 4.5308-0.46 2.4-0.91922 6.6318-0.94922 9.0718 3.36-2.35 7.4133-6.991 8.5093-11.042 0.6-3.01-3.0793-3.8301-4.9893-5.1401 0.84-2.99 2.4294-5.4809 3.8994-8.1709 0.54-6.05-1.0695-13.88 1.2305-19.89 1.22-3.83 3.6496-7.4901 3.0996-11.6 0.09-2.23-2.3594-3.6602-3.8994-4.9102-3.32-2.2-21.54-13.579-27.185-16.727z" fill="#fcdb00"/><path d="m150 64.05c1.73 0.49 2.99 1.59 4.34 2.71-1.15 0.95-2.32 1.89-3.51 2.79-0.7-1.6-2.74-4.04-0.83-5.5z" fill="#fefffe"/></svg>
