<?xml version="1.0" encoding="UTF-8"?>
<svg version="1.1" viewBox="0 0 620 764" xml:space="preserve" xmlns="http://www.w3.org/2000/svg"><g transform="matrix(1.1918,0,0,1.1918,-3.383,-3.76)"><path d="m513.23 280.14 1.4394-266.69h-503.44l1.4394 266.69c3.4873 142.43 78.195 278.99 250.28 353.54 172.09-74.554 246.79-211.11 250.28-353.54z" fill="#fff" stroke="#000" stroke-linecap="square" stroke-miterlimit="30" stroke-width="7"/></g><path d="m110 12.27v592.11c27.196 33.641 60.369 64.623 100 92v-684.11zm200 0v739.19c37.085-16.066 70.32-34.579 100-55.082v-684.11zm200 0v592.11c65.074-80.497 95.88-176.2 98.283-274.27h2e-3l1.7148-317.84z" fill="#0093dd" stroke="#000" stroke-linecap="square" stroke-miterlimit="30" stroke-width="5"/><g transform="matrix(1.8988 0 0 1.8988 -24.924 -29.653)"><path d="m184.82 46.521c-6.6636 2.4047-8.1332 0.35343-11.43 0.27978-3.8271 0.08101-6.2801 1.6294-8.8901 3.5493-4.82 3.4599-9.3287 10.264-14.043 14.027-3.4535-2.9833-5.3553-4.3275-8.8653-5.4874-4.48-2.0999-9.2925-1.4226-12.992 2.0098 2.05 1.48 4.2505 2.7909 6.1802 4.4209 2.37 2.0199 3.8799 5.0997 5.1299 7.8896 1.8897 4.5498 4.7216 8.3875 3.5 13.429-5.131-3.7306-9.2279-8.4443-12.463-14.043-0.30155 7.137 2.9968 12.297 4.8926 17.733-2.9 0.42997-5.79 0.92022-8.71 1.2202 0.18 0.91997 0.34124 1.8398 0.51124 2.7598 3.5199 3.289 6.4599 5.2816 11.399 5.0098-5.3086 3.7761-10.718 6.8137-16.63 7.1909-3.13 0.63-6.209 0.99998-9.419 0.97998-2.5397 0.17-4.8604-0.29064-6.8804 1.5894-2.54 2.49-4.081 6.49-4.481 9.98 0.28 6.1297 4.2116 12.131 7.6113 17.041-4.0197 4.2097-8.361 7.6297-11.981 12.149-3.6399 4.37-6.8797 9.0406-10.6 13.34-13.834 19.386-14.329 54.627-3.9404 72.601 6.9461 8.7167 19.991 21.685 28.04 26.049 10.879 9.1088 34.688 18.662 40.05 27.91 2.264 4.7746 4.3444 10.136 1.0846 12.987-1.481 1.0879-4.4429 1.5229-6.6985 2.1254 1.5755 1.6185 3.066 1.7628 4.0366 2.0242-0.78576 0.58919-2.4341 1.2273-3.7723 1.5037-3.3603 0.6941-12.369-0.47663-16.46-3.8015-3.4641-2.4321-4.327-3.7647-5.2914-7.6799-0.96364-3.2414-0.78935-6.1646-2.8784-10.279-4.771-4.8529-10.904-6.5031-16.84-6.709 2.79 5.47 5.2499 11.07 8.3496 16.37 1.83 3.26 2.9701 6.561 3.6401 10.241-2.51-0.69-6.0525-2.2234-8.0025-4.0731-3.26-2.76-4.8876-6.268-8.7876-8.028-3.2495-1.3565-7.506-2.0591-12.287-0.87458-3.1999 0.89-4.1045 3.0588-5.2526 6.7047 2.4899 0.42 5.1194 0.59078 7.5293 1.3008 3.0699 1.68 5.1898 4.7894 8.1797 6.6694 3.1 2 6.9997 3.8598 10.542 6.5816-4.63-0.1-12.392-1.6708-16.882-0.32083-4.3898 2.6597-7.1995 6.5485-8.8894 11.478 2.3799-0.09 3.5083-0.28843 5.8294-0.31931 5.7798-1.0397 11.231-0.43021 16.98 0.27979 4.51 0.52 8.3247 0.11656 12.899-0.31809 0.8197 4.78 2.02 7.4586 1.56 12.339-0.19656 1.8036-0.33918 3.5961-0.47607 5.3906h10.075c1.122-2.1877 2.4491-4.3624 2.562-6.75 0.32-6.2199-1.7207-12.13-1.2407-18.41 1.8662-0.78399 4.0562-1.5285 6.4497-0.15088-0.13 0.77-0.28996 1.5308-0.45996 2.2808-1.25 4.1-1.479 6.6501 0.50098 10.62 1.69-1.63 3.2501-3.2913 4.5601-5.2412 2.1699-3.14 5.3815-6.6684 8.7188-7.4092 4.5299-0.8 12.663 1.4591 17.043 2.6191 1.0527 2.2003 3.2977 4.5512 6.0177 7.4312 0.0363 0.0381 0.0652 0.0773 0.0996 0.11572h4.2686c0.01-3.5471-0.0816-7.1074-0.71923-10.707-0.29638-4.1601 0.61772-7.7832 2.1277-10.023 3.52 3.73 9.3332 10.104 11.123 14.894 3.3713 8.5357 6.1132 17.667 7.9204 25.819-4.7797 2.23-9.0911 2.4297-13.891 0.0601-2.3087-1.5985-4.4312-3.1603-9.9595-2.5298-4.3091 1.0854-9.2193 5.1698-11.904 10.786 3.018-1.1248 6.2462-1.7094 8.3337-1.316 4.682 2.8541 2.3388 3.665 8.0859 3.665 0.43758-0.0993 1.0686-0.0787 1.4923-0.0894 2.1476-0.0202 4.2857 0.1941 6.4307 0.4541-5.0594 3.4191-8.527 1.8955-14.067 2.6528-1.1807 0.16141-1.7643 1.6048-2.5327 2.5078-1.23 1.96-3.2572 3.5213-4.9872 5.0013-2.18 1.9799-2.5235 4.1685-3.1134 7.2184-0.73 2.11 0.83051 3.5097 1.6904 5.3496 3.7756-3.4444 10.073-6.1569 13.991-6.8599 1.37-0.16 2.7401-0.31926 4.1001-0.48926-0.35905 6.3295-0.10439 11.502 1.1191 17.139l4.1162 1.062c2.2815-2.849 3.6718-5.3106 5.5444-8.042 3.31-3.3697 7.0701-5.3099 9.8701-9.1699 3.0521-5.2347 5.7919-8.9716 8.6309-13.946 4.6869 1.954 7.2972 2.1538 11.979 0.78411l4.4109-1.4772 8.2157 3.0041c-0.15552-1.9422-1.9746-8.7432-3.85-10.652-2.8489-1.6383-10.87-2.6874-18.889-4.104-0.58759-3.0562-1.0967-5.2294-1.6867-9.1392 3.0828-1.5489 10.219-2.3431 11.621-5.5298-4.4868-1.3737-9.2809-2.9292-12.671-6.1992-3.7897-3.6797-5.4798-8.4108-7.0898-13.291 2-0.44 4.0005-0.89008 6.0102-1.3301-1.2497-2.39-2.5196-4.7594-3.7896-7.1294 2.22-2.6497 4.2192-5.4211 5.9692-8.4111 1.6-0.17 3.1898-0.36994 4.7695-0.68994 1.2188-1.05 2.1751-3.6461 3.8965-3.7441 0.11476-7e-3 0.23262-2e-3 0.35449 0.0146 5.0103 1.1703 6.9686 1.9151 11.651 3.6577 0.47361-1.1557 0.98201-2.3013 1.3389-3.4175 5.57-0.22 10.619 1.6493 16.099 2.0493-1.94-5.98-4.0994-11.66-4.5894-18-0.73-11.41-0.045-25.458-0.56596-37.208 5.505 7.6283 6.3451 17.534 6.3191 25.854 4.2699-1.72 9.6172-4.455 11.771-9.784 0.62585 0.58102 2.1269 1.3568 3.0775 1.8546 4.0599-4.21 5.2189-13.236 5.2489-18.596 2.24 0.99 7.0736 2.0088 9.3135 3.0088 0.42492 6.819 0.85997 11.431 0.6063 17.591 14.386-15.021 26.019-40.613 30.04-63.76 2.9966-17.25 1.8445-35.755-5.0493-52.28-10.985-21.82-30.789-30.617-55.061-28.189-6.7297 0.86-12.67 3.06-19.1 4.96-8.9781 3.8777-16.029 10.856-22.639 17.439-8.7097 8.5197-13.13 21.471-15.92 33.041-2.14 7.4997-0.42406 15.526 1.3784 23-6.632-0.26051-16.374-0.82954-20.679-3.4394-1.97-1.31-4.7102-2.5304-5.7202-4.8003-1.38-3.06-2.8897-6.1197-3.9097-9.3296-0.88-4.19 0.11978-7.781 1.0298-11.811 1.23 0.23 3.427 1.0204 4.667 1.1704 0.35017-10.699-1.2378-18.636 3.394-26.979 3.2795-6.8367 6.6964-13.532 9.46-20.061 2.1997-4.87 3.3696-10 5.2793-14.99 4.9156 10.13 11.501 9.5813 22.649 13.73 1.26-6.5297 3.3514-13.225 2.698-19.069 6.4721-0.90951 12.359-2.1073 18.489-4.1136 0.67635-1.1888 0.39314-3.1266 3e-3 -4.3565-4.0112-2.5332-15.749-4.7004-16.85-6.6943 4.8184-0.17509 9.733-1.0529 14.039-2.2749 1.5739-1.6538 2.4878-3.0712 3.2886-5.3115 0.32833-2.1609 0.40095-3.5063-0.70459-5.4419l-8.7261-0.47314c-2.0311-0.0096-7.5948-0.6677-9.4233-0.95947 4.804-1.6331 9.5969-5.696 13.317-7.7959 1.3161-1.3556 0.66415-3.6061 0.19196-4.9292-9.2268-3.387-19.42-0.07512-27.961 0.88916 3.76-3.7299 8.0706-6.7189 11.5-10.799-9.3087-6.522-17.454-2.0827-25.301 0.75001zm129.79 213.47c-0.0141 0.0432-0.0298 0.0858-0.0439 0.1289h0.0439z"/><path d="m201.56 45.307c-7.4094-0.01602-11.752 4.3151-18.702 6.2851-3.94 1.26-7.1753-1.1661-11.428-0.92214-4.701 0.56352-11.479 10.968-19.704 16.94 0.70823 2.6875 2.5024 8.3235 2.0384 9.7603-1.1028-2.8909-2.4276-4.5369-4.2848-7.5808-3.3082-5.3188-9.8272-11.821-17.232-8.7627 10.912 5.5353 15.032 19.373 16.572 29.323 0.12109 0.50903 0.2792 0.97362 0.27385 2.3791-1.021-1.2901-1.6886-2.3189-2.1175-2.3146-6.3133 1.078-12.388 1.9758-18.015 2.1855 3.5331 3.1225 7.911 6.096 15.623 5.8304 2.914-0.14081 4.7644-0.41294 6.6434-1.4156 0.0154-0.85738 1.209-2.0195 2.8656-3.5973-1.2011 3.6575-0.22814 6.6071 0.39682 8.2221 3.0377 6.0652 14.2-2.1096 15.399-3.2453-3.6533 6.1252-10.872 10.032-16.849 7.192-6.9834 14.181-15.432 27.368-30.12 31.384-4.09 1.3-5.9327 1.4054-10.002 1.0706-9.09 8.02-20.078 19.57-24.848 30.9-3.5 6.9-5.6589 14.28-7.1089 21.86-0.95514 15.178 1.2679 31.932 7.8296 44.55 5.1925 6.8747 11.584 11.938 17.67 17.159 6.8687 4.7808 18.841 13.778 24.51 16.301 10.535 4.2029 21.953 11.266 25 20.219 1.3 3.6 1.9827 12.334-4.5527 14.87 3.2296 0.42854 10.244-3.3256 12.432-4.41 2.0461 8.7745 5.2445 15.389 10.522 21.983-0.39646-9.0808 0.54803-15.964 3.138-22.184 0.63998 0.04 1.2907 0.0906 1.9307 0.14063 1.03 1.59 2.0003 3.3195 3.3003 4.7095 2.04 1.66 5.1898 2.0897 7.0298 3.9097 2.83 6.74 5.1095 13.841 7.4795 20.761 3.9418 15.745 4.8886 17.774 4.4795 28.83-0.10725 5.7712-3.67 7.2037-6.0835 9.5303-4.0505 3.3214-7.3767 4.9426-10.367 7.8926-1.81 1.79-0.9269 11.674 0.6167 13.403 3.2794-4.6178 11.283-12.946 14.443-17.036 3.6-4.53 5.1481-9.2082 8.3981-13.828 3.73-0.91 8.0326 1.4882 11.883 0.90825 2.5498-0.37411 4.8551-0.54161 6.8653-1.5702 0.5657-0.35759 3.8104 1.5855 5.0909 1.9169-0.2087-1.5663-1.6936-3.6549-2.7396-5.094-4.74-1.5-11.736-0.0328-16.586-0.22284-2.3 0.06-3.8208-2.0708-4.5308-4.0107-1.23-4.2-1.2193-8.9188-1.5293-13.279 1.4-0.59 7.0601-1.3215 8.4601-1.9115-8.7675-1.9004-15.034-11.279-18.411-22.548 1.9178-0.68683 7.538-2.0177 7.538-2.0177s-5.3786-5.4051-6.4775-6.4828c1.25-3.53 3.66-6.0899 6.29-8.6499-0.01-1.63-0.0298-3.2509-0.0498-4.8809 0.98-0.13 1.9497-0.26869 2.9297-0.40869 0.46-1.24 0.93969-2.491 1.4297-3.731 1.67-0.06 3.34-0.10992 5.02-0.16992-0.73-3.43-1.8498-6.5201-1.2598-10.04 0.84631-13.35-0.77953-32.395-3.5508-44.229-1.23-7.16-3.949-14.06-8.729-19.6-2.91-2.62-6.2231-5.4421-9.3538-9.3036 6.7501 2.4433 16.207 11.404 17.904 16.903 5.1466 18.21 7.2311 39.375 7.5088 56.73 0.11 1.75 0.011 3.989 1.021 5.499 1.26 1.8 3.1994 3.2509 4.8794 4.6509 1.91-5.55 0.90317-11.137 0.44558-16.915-0.6713-12.332-0.78345-19.276-2.2957-31.195-1.7121-12.555-9.2111-27.685-17.84-34.96-0.68-6.27 1.6707-12.87 1.9307-19.22 2.0425-18.455 9.576-32.757 24.85-41.25 18.526-9.5558 34.126-10.992 50.31 1.7388 15.775 15.599 19.489 30.845 19.641 48.19 0.17211 19.733-4.0047 26.517-13.649 57.773 5.6612-4.9892 19.008-45.154 20.028-50.464 1.29-7.42 3.1602-14.18 2.9502-21.75 0.24-8.39-1.6803-16.309-4.0503-24.289-4.4275-14.344-14.628-25.441-27.259-30.901-16.967-5.9438-33.361-3.1357-48.551 3.7104-7.6 3.42-12.68 9.0803-18.28 15.01-5.64 6.75-9.7103 14.52-11.84 23.06-2.35 7.23-2.9699 14.87-1.8999 22.39 0.96 4.7 1.6156 9.5454 2.8756 14.175-6.6868-3.2766-17.021-4.3012-25.578-5.301 7.6803 12.979 11.859 24.022 15.042 37.645 1.64 6.64 1.8103 13.421 0.82031 20.181-1.4576-6.6504-2.4206-10.98-3.6006-16.67-4.7265-15.142-9.0113-35.4-19.43-45.11-2.74-2.37-4.3211-7.0936-5.5493-10.084-1.45-0.81-4.9453-0.87401-6.5553-1.154 1.814 3.047 3.6738 8.2808 4.0142 11.518-5.5014-7.3019-6.7852-8.4885-12.405-10.529-3.14-1.18-7.5049-0.83213-9.9849 1.8479-7.0691 8.7153-9.2712 26.647-6.9698 35.55 2.24 8.66 7.1704 16.84 11.9 24.36-14.391-11.531-17.872-28.956-16.57-45.501 1.37-10.39 6.8112-20.665 19.38-22.349 3.64-0.35 7.9469 0.83927 9.6952 2.757 3.0606-0.20023 4.3354-0.17713 4.6954-1.6671 1.67-5.43 2.6089-13.31 4.3389-18.73 1.4596 0.78586 2.8228 2.6663 3.668 3.1172-1.6315-15.466 2.9321-26.236 9.4131-37.818 4-7.61 6.3299-16.32 8.1299-24.69 0.84-3.44 0.0885-5.5097-0.54152-8.9397-1.27-5.13-0.68913-11.41-4.6191-15.57-4.18-5.28-8.8929-7.0264-15.64-8.3804 3.0194-1.3474 6.0136-1.8365 10.674-0.10635s8.8466 6.5272 10.877 13.496c2.0115 7.0455 3.54 12.86 6 19.21 1.24 2.98 2.4094 5.7697 4.9394 7.8897 3.24 2.81 7.1307 3.7701 11.161 4.8501 0.99-2.29 2.3204-4.7505 2.6104-7.2305 0.31-3.36-0.66086-6.8199-1.3608-10.09 5.75-0.14 14.952-0.64441 20.592-2.0344-4.1224-2.2162-14.071-1.8453-17.111-5.4553-1.93-2.02-1.3495-5.0702 1.0005-6.4102 3.29-1.16 7.0696-0.97971 10.37-1.9497 1.7128-0.33 4.8579-2.5046 5.5556-3.7346-7.2-1.97-16.286-1.2556-23.616-1.4656-0.41018-1.8963-1.1396-4.3994 0.88037-5.6294 2.52-2.03 6.2895-2.7109 9.2095-4.1309 2.02-0.94 5.6305-2.6421 7.2605-4.1321-11.124-0.45959-21.358 1.7817-31.604 3.4027 0.01-1.7762 1.8537-5.33 3.2838-7.09 2.72-3.02 6.582-5.9281 11.044-8.7217-1.4829-0.95048-3.5632-1.0109-3.5632-1.0109zm-53.27 55.096c-10.573 3.4149-12.851 7.9771-22.131 9.8071-5.69 1.44-11.57 0.66973-17.24 1.7197-2.73 3.45-2.7497 8.9698-1.9497 13.09 0.55 5.21 6.3603 8.3994 11.09 8.6294 10.186-0.57762 17.439-5.5148 20.679-9.5728 5.5866-7.4283 12.804-15.774 13.036-23.792zm102.74 53.206c-10.351-0.1262-18.825 3.1649-24.671 10.75-3.42 4.56-7.0195 8.6203-8.9795 14.09-1.31 3.66-5.7957 18.712-5.6057 22.522 5.7712-12.279 13.165-23.002 19.145-28.062 4.8-3.98 23.648-15.301 32.826-5.5989-8.6249-1.4863-23.193 4.2412-26.863 7.8512-4.57 4.36-8.8747 9.8311-12.542 15.317-3.0588 4.5752-9.1377 10.506-7.8066 14.548 5.0633 1.8591 9.2206-4.4736 10.951-5.7836 8.4929-7.9591 13.499-10.787 23.456-15.105 8.5142-3.4446 15.23-4.5225 20.08-0.4292-7.8503 0.50901-12.37 1.0895-17.89 3.2695-11.168 5.7085-28.685 13.709-30.019 23.985 9.84-3.55 18.407-8.2015 28.347-11.671 7.3925-2.0196 15.052-2.2801 21.642 3.1068-7.9893-0.97949-10.961-0.94388-17.169 0.0601-6.0909 0.98488-11.851 4.2796-16.991 7.3096-3.52 2.29-8.09 4.2004-10.79 7.4604-1.82 2.69 0.16997 5.8397 1.21 8.4097 3.77-2.42 7.661-5.6707 11.981-6.9507 4.16-0.63 8.509-0.28959 12.709-0.32959 3.08 0.08 6.9512 0.0504 9.4512 2.1504 1.79 2.29 2.379 5.4692 3.999 7.9292 2.32 4 9.3076 7.2949 13.108 9.7449 1.0549-18.672 6.2101-47.108 0.43344-62.104-2.65-6.02-6.5599-12.401-12.17-16.071-5.44-3.62-11.15-6.4099-17.84-6.3999z" fill="#f00000"/><path d="m257.44 139.56c9.15 1.42 17.75 4.96 24.14 11.85 7.19 8.13 11.59 18.35 12.94 29.1 1.19 9.65 1.57 19.64 0.16 29.28-1.09 7.75-3.1584 14.826-4.8784 22.346-1.08 4.73-5.6408 19.194-7.8708 23.534 1.5808-24.886 3.9912-47.342 4.4572-70.022-0.56691-16.933-15.711-33.872-31.238-36.048-8.1877-0.99016-16.938 2.0763-24.108 5.5663-5.66 2.76-9.4923 8.6337-12.972 13.794-4.5 6.58-9.2663 19.832-11.121 29.677-0.56-2.7 0.53111-13.877 0.92111-16.647 1.69-10.45 5.67-20.39 12.72-28.4 9.3139-10.318 24.292-15.456 36.85-14.03z" fill="#f90203"/><path d="m142.1 144.16c-0.66 3.27-2.5771 6.516-2.29 9.82 0.33216 3.8225 0.55748 5.9802 1.72 10.95-1.97-0.97-3.94-1.95-5.91-2.9-0.01-2.61 1.1988-7.9179 1.2188-10.528-1.789 0.54966-3.6922 1.1522-5.8488 1.8479 2.4248-5.4185 4.8766-10.294 6.6941-13.56-0.36141 3.238-0.56743 4.6005-0.88144 6.1134 1.7262-0.65173 3.6431-1.2578 5.2973-1.7429z" fill="#1d0508"/><path d="m199.4 229.09c0.4 9.61 1.3774 19.187 1.8674 28.797 0.68 7.15-0.30827 15.203-1.6226 22.07-2.036-20.461-2.6524-39.051-5.5848-57.757-1.09-8.12-7.57-14.07-11.67-21.2 9.6669 3.7797 16.492 19.65 17.01 28.09z" fill="#1d0508"/><g fill="#f90203"><path d="m214.04 210.42c9.3633 7.3666 14.077 19.371 14.637 27.491 1.5 9.39 0.21 18.81 1.59 28.19 0.45 5.73 1.08 11-1.08 16.5-5.32-7.15-3.4-14.32-3.72-22.6-0.28-9.56 0.97-18.11-1.7-26.81-1.2-5.52-7.007-17.665-9.7272-22.771z"/><path d="m258.79 222.58c4.9592 6.3891 7.6547 12.873 8.6815 20.597 0.34782 3.7309-2.0004 7.3012-3.1704 9.7112-2.7187-5.7976-5.1197-11.681-6.9597-16.511-2.16-6.13-7.9017-10.08-13.173-13.87 3.65-1.71 11.271-0.71499 14.622 0.0724z"/><path d="m231.96 228.02c2.37 0.62 5.58 1.66 6.81 3.97 0.91 2.12 0.88 4.7 1.21 6.97 0.6199 12.941-0.48098 17.166 0.44259 29.234 0.86 5.49 2.2922 15.21 3.6297 21.267-5.9923-2.2447-9.2123-7.041-10.072-12.431-1.12-8.13 0.4-16.65-1.06-24.85-1.39-7.74-1.1807-15.869-0.96-24.16z"/><path d="m235.72 225c6.2305-1.8756 16.301 8.1101 19.341 13.13 4.09 5.6 4.473 9.7444 4.3255 16.222-0.35384 3.6946-3.5287 5.2402-6.4496 6.6002-0.9357-5.9745-0.11993-17.559-3.7299-22.229-2.3936-3.9614-10.514-9.686-13.487-13.723z"/><path d="m108.41 281.26c5.5118 1.6927 8.9372 3.0242 9.7172 4.9042 1.81 4.34 0.42525 9.6821 3.4252 13.552 2.59 3.32 8.6238 8.0101 12.854 8.9201 4.1 0.55 8.8865 1.0474 13.016 0.99743 5.26-0.03 11.151-1.9463 14.871-2.4319 0.20285 1.2854 3.458 6.5347 3.378 7.8047-3.93-0.07-15.222-1.9427-19.112-1.2928-2.17 1.14-6.822 10.647-9.6679 12.487 0.28193-4.7171 2.3096-10.43 1.5396-11.11-3.7445-4.2389-11.004-1.8705-12.592 1.8627 1.8135 6.5809 0.94 12.82 1.96 18.36-1.45 0.14-2.89 0.28-4.34 0.41-1.98-6.43-2.3238-9.8385-4.1143-15.624-9.14 3.63-21.573 0.33758-31.783 0.52758-0.09794-2.3252 2.6664-4.8749 6.257-6.2832 7.2411 0.25135 12.654 2.8668 21.34 1.7l0.55-1.99c-5.37-4.06-11.74-6.9-17.44-10.47-2.67-1.67-6.4995-6.3715-13.526-6.055 0.98653-5.6614 12.786-2.565 14.406-0.72495 3.63 3.45 6.0075 6.3623 10.728 8.5723 2.74 1.07 6.6925 3.2877 9.5925 3.5277 0.02-2.85-0.47585-5.6307-1.8258-8.2707-2.55-5.37-6.0479-15.827-9.2338-19.373z"/><path d="m198.94 356.19c0.26177 1.0456-0.4762 3.9671-0.4762 3.9671s-13.063 10.302-16.093 11.472c-4.3956-2.7896-11.102-0.53021-18.38 6.7031-3.1486-7.4878 9.2946-14.842 9.7459-15.115 0.65557-0.28685 6.6726-0.0781 9.2726-0.48811 1.86-0.66 14.271-5.4789 15.931-6.5389z"/></g><path d="m167.65 352.14s4.7078-5.378 7.928-5.5419c2.947-0.14999 7.7329 4.3089 7.7329 4.3089 5.162-0.80482 8.9526-0.46053 15.191-1.3188l0.50261 4.7988s-8.9653 0.44387-12.515 0.44387-8.8667-0.30135-8.8667-0.30135-2.149-2.0646-3.5226-2.4893c-2.0542-0.6351-6.4496 0.0998-6.4496 0.0998z" fill="#f00000"/><g transform="translate(.76073 3.2879)" stroke-linecap="square" stroke-linejoin="round" stroke-miterlimit="30"><path d="m168.72 78.188a3.6196 3.6196 0 0 1-3.6196 3.6196 3.6196 3.6196 0 0 1-3.6196-3.6196 3.6196 3.6196 0 0 1 3.6196-3.6196 3.6196 3.6196 0 0 1 3.6196 3.6196z" stroke-width="6.9941"/><path d="m165.75 77.282a1.4088 1.4088 0 0 1-1.4088 1.4088 1.4088 1.4088 0 0 1-1.4088-1.4088 1.4088 1.4088 0 0 1 1.4088-1.4088 1.4088 1.4088 0 0 1 1.4088 1.4088z" fill="#f00000" stroke-width="2.7222"/></g></g><path d="m608.28 330.11 1.7155-317.84h-600l1.7155 317.84c4.1562 169.75 93.193 332.5 298.28 421.35 205.1-88.853 294.12-251.6 298.28-421.35z" fill="none" stroke="#000" stroke-linecap="square" stroke-miterlimit="30" stroke-width="10"/><path d="m278.55 115.06 11.067-0.67148s-5.2764 2.3653-7.0521 4.52c-1.5005 1.8208-2.6104 6.5792-2.6104 6.5792z" stroke-linecap="square" stroke-linejoin="round" stroke-miterlimit="30" stroke-width="6"/></svg>
