<?xml version="1.0" encoding="UTF-8"?>
<svg version="1.1" viewBox="0 0 620 764" xml:space="preserve" xmlns="http://www.w3.org/2000/svg"><g transform="translate(10 12.27)"><g transform="matrix(1.1918 0 0 1.1918 -13.383 -16.03)"><path d="m513.23 280.14 1.4394-266.69h-503.44l1.4394 266.69c3.4873 142.43 78.195 278.99 250.28 353.54 172.09-74.554 246.79-211.11 250.28-353.54z" fill="#fff" stroke="#000" stroke-linecap="square" stroke-miterlimit="30" stroke-width="7"/></g><path d="m100 0v592.11c27.196 33.641 60.369 64.623 100 92v-684.11zm200 0v739.19c37.085-16.066 70.32-34.579 100-55.082v-684.11zm200 0v592.11c65.074-80.497 95.88-176.2 98.283-274.27h2e-3l1.7148-317.84z" fill="#0093dd" stroke="#000" stroke-linecap="square" stroke-miterlimit="30" stroke-width="2.87"/><g transform="matrix(.95526 0 0 .95526 11.991 -40.905)"><path transform="translate(-.038 -.045)" d="m44.451 147.69a4.1145 4.1145 0 0 0-4.1133 4.1133v52.945a4.1145 4.1145 0 0 0 1.2051 2.9082l13.121 13.123v308.68a4.1145 4.1145 0 0 0 4.1133 4.1133h114.6a4.1145 4.1145 0 0 0 4.1133-4.1133v-9.2207h62.156a4.1145 4.1145 0 0 0 0.0703 0.0293h15.834a4.1145 4.1145 0 0 0 4.1133-4.1133v-59.518h0.24414a4.1145 4.1145 0 0 0 4.1133-4.1133v-24.551a4.1145 4.1145 0 0 0-1.4004-2.9883c5.1566-11.364 19.138-23.814 38.912-23.814 19.773 0 33.755 12.449 38.912 23.812a4.1145 4.1145 0 0 0-1.4023 2.9902v24.551a4.1145 4.1145 0 0 0 4.1133 4.1133h0.24609v59.518a4.1145 4.1145 0 0 0 4.1133 4.1133h15.832a4.1145 4.1145 0 0 0 0.0703-0.0293h62.154c1e-5 4.5808 2e-3 4.525 2e-3 9.2207a4.1145 4.1145 0 0 0 4.1133 4.1133h114.61a4.1145 4.1145 0 0 0 4.1133-4.1133v-308.68l13.121-13.121a4.1145 4.1145 0 0 0 1.2031-2.9082v-52.945a4.1145 4.1145 0 0 0-4.1133-4.1133h-28.648a4.1145 4.1145 0 0 0-4.1133 4.1133v24.963l-20.24-0.0156v-24.947a4.1145 4.1145 0 0 0-4.1133-4.1133h-29.021a4.1145 4.1145 0 0 0-4.1133 4.1133v24.947l-20.238 0.0156v-24.963a4.1145 4.1145 0 0 0-4.1133-4.1133h-28.65a4.1145 4.1145 0 0 0-4.1133 4.1133v52.945a4.1145 4.1145 0 0 0 1.2031 2.9082l13.119 13.121v34.295h-27.764a4.1145 4.1145 0 0 0-4.1133 4.1133v24.539h-22.865v-24.539a4.1145 4.1145 0 0 0-4.1133-4.1133h-49.641a4.1145 4.1145 0 0 0-4.1133 4.1133v24.539h-22.863v-24.539a4.1145 4.1145 0 0 0-4.1133-4.1133h-49.639a4.1145 4.1145 0 0 0-4.1133 4.1133v24.539h-22.867v-24.539a4.1145 4.1145 0 0 0-4.1133-4.1133h-27.766v-34.295l13.121-13.121a4.1145 4.1145 0 0 0 1.2031-2.9082v-52.945a4.1145 4.1145 0 0 0-4.1133-4.1133h-28.648a4.1145 4.1145 0 0 0-4.1133 4.1133v24.963l-20.24-0.0156v-24.947a4.1145 4.1145 0 0 0-4.1133-4.1133h-29.021a4.1145 4.1145 0 0 0-4.1133 4.1133v24.947l-20.238 0.0156v-24.963a4.1145 4.1145 0 0 0-4.1133-4.1133z"/><line x1="173.38" x2="429.62" y1="352.57" y2="352.57"/><line x1="173.38" x2="429.62" y1="379.83" y2="379.83"/><line x1="354.67" x2="429.62" y1="407.08" y2="407.08"/><line x1="173.38" x2="248.33" y1="407.08" y2="407.08"/><line x1="367.68" x2="429.62" y1="434.33" y2="434.33"/><line x1="173.38" x2="235.32" y1="434.33" y2="434.33"/><line x1="363.32" x2="429.62" y1="461.58" y2="461.58"/><line x1="173.38" x2="239.68" y1="461.58" y2="461.58"/><line x1="363.32" x2="429.62" y1="488.83" y2="488.83"/><line x1="173.38" x2="239.68" y1="488.83" y2="488.83"/><line x1="216.09" x2="216.09" y1="325.32" y2="352.57"/><line x1="258.79" x2="258.79" y1="325.32" y2="352.57"/><line x1="301.5" x2="301.5" y1="325.32" y2="352.57"/><line x1="344.21" x2="344.21" y1="325.32" y2="352.57"/><line x1="386.91" x2="386.91" y1="325.32" y2="352.57"/><line x1="216.09" x2="216.09" y1="379.83" y2="407.08"/><line x1="386.91" x2="386.91" y1="379.83" y2="407.08"/><line x1="216.09" x2="216.09" y1="434.33" y2="461.58"/><line x1="386.91" x2="386.91" y1="434.33" y2="461.58"/><line x1="237.44" x2="237.44" y1="352.57" y2="379.83"/><line x1="280.15" x2="280.15" y1="352.57" y2="379.83"/><line x1="322.85" x2="322.85" y1="352.57" y2="379.83"/><line x1="365.56" x2="365.56" y1="352.57" y2="379.83"/><line x1="408.27" x2="408.27" y1="352.57" y2="379.83"/><line x1="194.73" x2="194.73" y1="407.08" y2="434.33"/><line x1="408.27" x2="408.27" y1="407.08" y2="434.33"/><line x1="194.73" x2="194.73" y1="461.58" y2="488.83"/><line x1="408.27" x2="408.27" y1="461.58" y2="488.83"/><line x1="173.34" x2="429.65" y1="315.2" y2="315.2"/><line x1="415.33" x2="558.58" y1="204.71" y2="204.71"/><line x1="429.65" x2="544.26" y1="219.03" y2="219.03"/><line x1="429.65" x2="544.26" y1="244.9" y2="244.9"/><line x1="429.65" x2="544.26" y1="270.77" y2="270.77"/><line x1="429.65" x2="544.26" y1="296.63" y2="296.63"/><line x1="429.65" x2="544.26" y1="322.5" y2="322.5"/><line x1="429.65" x2="544.26" y1="348.36" y2="348.36"/><line x1="429.65" x2="544.26" y1="374.23" y2="374.23"/><line x1="429.65" x2="544.26" y1="400.09" y2="400.09"/><line x1="429.65" x2="544.26" y1="425.96" y2="425.96"/><line x1="429.65" x2="544.26" y1="451.82" y2="451.82"/><line x1="429.65" x2="544.26" y1="477.69" y2="477.69"/><line x1="429.65" x2="544.26" y1="503.55" y2="503.55"/><line x1="467.86" x2="467.86" y1="219.04" y2="244.9"/><line x1="506.06" x2="506.06" y1="219.04" y2="244.9"/><line x1="525.16" x2="525.16" y1="244.9" y2="270.77"/><line x1="486.96" x2="486.96" y1="244.9" y2="270.77"/><line x1="448.76" x2="448.76" y1="244.9" y2="270.77"/><line x1="467.86" x2="467.86" y1="270.77" y2="296.63"/><line x1="506.06" x2="506.06" y1="270.77" y2="296.63"/><line x1="525.16" x2="525.16" y1="296.63" y2="322.5"/><line x1="486.96" x2="486.96" y1="296.63" y2="322.5"/><line x1="448.76" x2="448.76" y1="296.63" y2="322.5"/><line x1="467.86" x2="467.86" y1="322.5" y2="348.36"/><line x1="506.06" x2="506.06" y1="322.5" y2="348.36"/><line x1="525.16" x2="525.16" y1="348.36" y2="374.23"/><line x1="486.96" x2="486.96" y1="348.36" y2="374.23"/><line x1="448.76" x2="448.76" y1="348.36" y2="374.23"/><line x1="467.86" x2="467.86" y1="374.23" y2="400.09"/><line x1="506.06" x2="506.06" y1="374.23" y2="400.09"/><line x1="525.16" x2="525.16" y1="400.09" y2="425.96"/><line x1="486.96" x2="486.96" y1="400.09" y2="425.96"/><line x1="448.76" x2="448.76" y1="400.09" y2="425.96"/><line x1="467.86" x2="467.86" y1="425.96" y2="451.83"/><line x1="506.06" x2="506.06" y1="425.96" y2="451.83"/><line x1="525.16" x2="525.16" y1="451.83" y2="477.69"/><line x1="486.96" x2="486.96" y1="451.83" y2="477.69"/><line x1="448.76" x2="448.76" y1="451.83" y2="477.69"/><line x1="467.86" x2="467.86" y1="477.69" y2="503.56"/><line x1="506.06" x2="506.06" y1="477.69" y2="503.56"/><path d="m476.9 258.19c4.416-6.352 15.089-6.654 19.839 0v38.447h-19.839z"/><line x1="187.67" x2="44.414" y1="204.71" y2="204.71"/><line x1="173.34" x2="58.739" y1="219.03" y2="219.03"/><line x1="173.34" x2="58.739" y1="244.9" y2="244.9"/><line x1="173.34" x2="58.739" y1="270.77" y2="270.77"/><line x1="173.34" x2="58.739" y1="296.63" y2="296.63"/><line x1="173.34" x2="58.739" y1="322.5" y2="322.5"/><line x1="173.34" x2="58.739" y1="348.36" y2="348.36"/><line x1="173.34" x2="58.739" y1="374.23" y2="374.23"/><line x1="173.34" x2="58.739" y1="400.09" y2="400.09"/><line x1="173.34" x2="58.739" y1="425.96" y2="425.96"/><line x1="173.34" x2="58.739" y1="451.82" y2="451.82"/><line x1="173.34" x2="58.739" y1="477.69" y2="477.69"/><line x1="173.34" x2="58.739" y1="503.55" y2="503.55"/><line x1="135.14" x2="135.14" y1="219.04" y2="244.9"/><line x1="96.941" x2="96.941" y1="219.04" y2="244.9"/><line x1="77.84" x2="77.84" y1="244.9" y2="270.77"/><line x1="116.04" x2="116.04" y1="244.9" y2="270.77"/><line x1="154.24" x2="154.24" y1="244.9" y2="270.77"/><line x1="135.14" x2="135.14" y1="270.77" y2="296.63"/><line x1="96.941" x2="96.941" y1="270.77" y2="296.63"/><line x1="77.84" x2="77.84" y1="296.63" y2="322.5"/><line x1="116.04" x2="116.04" y1="296.63" y2="322.5"/><line x1="154.24" x2="154.24" y1="296.63" y2="322.5"/><line x1="135.14" x2="135.14" y1="322.5" y2="348.36"/><line x1="96.941" x2="96.941" y1="322.5" y2="348.36"/><line x1="77.84" x2="77.84" y1="348.36" y2="374.23"/><line x1="116.04" x2="116.04" y1="348.36" y2="374.23"/><line x1="154.24" x2="154.24" y1="348.36" y2="374.23"/><line x1="135.14" x2="135.14" y1="374.23" y2="400.09"/><line x1="96.941" x2="96.941" y1="374.23" y2="400.09"/><line x1="77.84" x2="77.84" y1="400.09" y2="425.96"/><line x1="116.04" x2="116.04" y1="400.09" y2="425.96"/><line x1="154.24" x2="154.24" y1="400.09" y2="425.96"/><line x1="135.14" x2="135.14" y1="425.96" y2="451.83"/><line x1="96.941" x2="96.941" y1="425.96" y2="451.83"/><line x1="77.84" x2="77.84" y1="451.83" y2="477.69"/><line x1="116.04" x2="116.04" y1="451.83" y2="477.69"/><line x1="154.24" x2="154.24" y1="451.83" y2="477.69"/><line x1="135.14" x2="135.14" y1="477.69" y2="503.56"/><line x1="96.941" x2="96.941" y1="477.69" y2="503.56"/><path d="m126.1 296.63h-19.839v-38.447c4.751-6.654 15.423-6.352 19.839 0z"/></g><g transform="matrix(.95526 0 0 .95526 11.991 -40.905)" fill="#f00000"><g fill="#f00000" stroke="#000" stroke-width="3"><path transform="translate(-.038 -.045)" d="m44.452 151.81v52.945l14.325 14.325v310.39h57.302 57.302v-310.39l14.325-14.325v-52.945h-28.649v29.078l-28.467-0.02044v-29.058h-14.511-14.511v29.058l-28.465 0.02044v-29.078h-28.651zm370.92 0v52.945l14.322 14.325v310.39h57.304 57.302v-310.39l14.325-14.325v-52.945h-28.649v29.078l-28.467-0.02044v-29.058h-14.511-14.511v29.058l-28.465 0.02044v-29.078h-28.651zm-299.02 101.55c3.8139 0.03775 7.5857 1.7025 9.7937 4.8784v38.447h-19.839v-38.447c2.3755-3.327 6.2313-4.9162 10.045-4.8784zm370.39 0c3.814-0.03775 7.6702 1.5494 10.045 4.8764v38.447h-19.839v-38.447c2.208-3.176 5.9797-4.8386 9.7937-4.8764zm-313.31 72.013v190.76h74.914v-94.976l24.355-24.355 20.532-8.1171h16.635l20.534 8.1171 24.353 24.355v94.976h74.914v-190.76h-256.24z" stroke-linecap="round"/><line x1="173.38" x2="429.62" y1="352.57" y2="352.57"/><line x1="173.38" x2="429.62" y1="379.83" y2="379.83"/><line x1="354.67" x2="429.62" y1="407.08" y2="407.08"/><line x1="173.38" x2="248.33" y1="407.08" y2="407.08"/><line x1="367.68" x2="429.62" y1="434.33" y2="434.33"/><line x1="173.38" x2="235.32" y1="434.33" y2="434.33"/><line x1="363.32" x2="429.62" y1="461.58" y2="461.58"/><line x1="173.38" x2="239.68" y1="461.58" y2="461.58"/><line x1="363.32" x2="429.62" y1="488.83" y2="488.83"/><line x1="173.38" x2="239.68" y1="488.83" y2="488.83"/><line x1="216.09" x2="216.09" y1="325.32" y2="352.57"/><line x1="258.79" x2="258.79" y1="325.32" y2="352.57"/><line x1="301.5" x2="301.5" y1="325.32" y2="352.57"/><line x1="344.21" x2="344.21" y1="325.32" y2="352.57"/><line x1="386.91" x2="386.91" y1="325.32" y2="352.57"/><line x1="216.09" x2="216.09" y1="379.83" y2="407.08"/><line x1="386.91" x2="386.91" y1="379.83" y2="407.08"/><line x1="216.09" x2="216.09" y1="434.33" y2="461.58"/><line x1="386.91" x2="386.91" y1="434.33" y2="461.58"/><line x1="194.73" x2="194.73" y1="352.57" y2="379.83"/><line x1="237.44" x2="237.44" y1="352.57" y2="379.83"/><line x1="280.15" x2="280.15" y1="352.57" y2="379.83"/><line x1="322.85" x2="322.85" y1="352.57" y2="379.83"/><line x1="365.56" x2="365.56" y1="352.57" y2="379.83"/><line x1="408.27" x2="408.27" y1="352.57" y2="379.83"/><line x1="194.73" x2="194.73" y1="407.08" y2="434.33"/><line x1="408.27" x2="408.27" y1="407.08" y2="434.33"/><line x1="194.73" x2="194.73" y1="461.58" y2="488.83"/><line x1="408.27" x2="408.27" y1="461.58" y2="488.83"/><rect x="239.68" y="439.02" width="15.832" height="77.101"/><rect x="347.48" y="439.02" width="15.831" height="77.101"/></g><path d="m239 434.11h17.19c0-15.125 17.649-37.095 45.305-37.095 27.655 0 45.304 21.97 45.304 37.095h17.191c0-25.625-26.728-54.286-62.495-54.286-35.769 0-62.495 28.66-62.495 54.286z" color="#000000" stroke-width="3" style="-inkscape-stroke:none"/><path d="m301.5 378.33c-36.57 0-63.994 29.116-63.994 55.785v1.5h20.189v-1.5c0-6.9791 4.1924-15.979 11.809-23.125 7.6162-7.1457 18.565-12.469 31.996-12.469 13.43 0 24.382 5.323 31.998 12.469 7.6161 7.1457 11.807 16.146 11.807 23.125v1.5h20.191v-1.5c0-26.668-27.428-55.785-63.996-55.785zm0 3c34.26 0 59.875 27.069 60.898 51.285h-14.295c-0.51333-7.808-4.9125-16.644-12.553-23.812-8.1222-7.6205-19.826-13.281-34.051-13.281-14.225 0-25.927 5.6607-34.049 13.281-7.6404 7.1684-12.041 16.004-12.555 23.812h-14.293c1.0231-24.217 26.635-51.285 60.896-51.285z" color="#000000" fill="#000" style="-inkscape-stroke:none"/><g fill="#f00000" stroke="#000" stroke-width="3"><rect x="343.12" y="427.93" width="24.551" height="24.551"/><rect x="235.32" y="427.93" width="24.55" height="24.551"/><polygon transform="translate(-.038 -.045)" points="205.26 259.19 173.42 259.19 173.42 325.37 429.69 325.37 429.69 259.19 397.81 259.19 397.81 287.84 366.72 287.84 366.72 259.19 317.08 259.19 317.08 287.84 285.99 287.84 285.99 259.19 236.35 259.19 236.35 287.84 205.26 287.84"/><line x1="173.34" x2="429.65" y1="315.2" y2="315.2"/></g><g stroke="#000" stroke-width="3"><line x1="415.33" x2="558.58" y1="204.71" y2="204.71"/><line x1="429.65" x2="544.26" y1="219.03" y2="219.03"/><line x1="429.65" x2="544.26" y1="244.9" y2="244.9"/><line x1="429.65" x2="544.26" y1="270.77" y2="270.77"/><line x1="429.65" x2="544.26" y1="296.63" y2="296.63"/><line x1="429.65" x2="544.26" y1="322.5" y2="322.5"/><line x1="429.65" x2="544.26" y1="348.36" y2="348.36"/><line x1="429.65" x2="544.26" y1="374.23" y2="374.23"/><line x1="429.65" x2="544.26" y1="400.09" y2="400.09"/><line x1="429.65" x2="544.26" y1="425.96" y2="425.96"/><line x1="429.65" x2="544.26" y1="451.82" y2="451.82"/><line x1="429.65" x2="544.26" y1="477.69" y2="477.69"/><line x1="429.65" x2="544.26" y1="503.55" y2="503.55"/><line x1="467.86" x2="467.86" y1="219.04" y2="244.9"/><line x1="506.06" x2="506.06" y1="219.04" y2="244.9"/><line x1="525.16" x2="525.16" y1="244.9" y2="270.77"/><line x1="486.96" x2="486.96" y1="244.9" y2="270.77"/><line x1="448.76" x2="448.76" y1="244.9" y2="270.77"/><line x1="467.86" x2="467.86" y1="270.77" y2="296.63"/><line x1="506.06" x2="506.06" y1="270.77" y2="296.63"/><line x1="525.16" x2="525.16" y1="296.63" y2="322.5"/><line x1="486.96" x2="486.96" y1="296.63" y2="322.5"/><line x1="448.76" x2="448.76" y1="296.63" y2="322.5"/><line x1="467.86" x2="467.86" y1="322.5" y2="348.36"/><line x1="506.06" x2="506.06" y1="322.5" y2="348.36"/><line x1="525.16" x2="525.16" y1="348.36" y2="374.23"/><line x1="486.96" x2="486.96" y1="348.36" y2="374.23"/><line x1="448.76" x2="448.76" y1="348.36" y2="374.23"/><line x1="467.86" x2="467.86" y1="374.23" y2="400.09"/><line x1="506.06" x2="506.06" y1="374.23" y2="400.09"/><line x1="525.16" x2="525.16" y1="400.09" y2="425.96"/><line x1="486.96" x2="486.96" y1="400.09" y2="425.96"/><line x1="448.76" x2="448.76" y1="400.09" y2="425.96"/><line x1="467.86" x2="467.86" y1="425.96" y2="451.83"/><line x1="506.06" x2="506.06" y1="425.96" y2="451.83"/><line x1="525.16" x2="525.16" y1="451.83" y2="477.69"/><line x1="486.96" x2="486.96" y1="451.83" y2="477.69"/><line x1="448.76" x2="448.76" y1="451.83" y2="477.69"/><line x1="467.86" x2="467.86" y1="477.69" y2="503.56"/><line x1="506.06" x2="506.06" y1="477.69" y2="503.56"/></g><g stroke="#000" stroke-width="3"><line x1="187.67" x2="44.414" y1="204.71" y2="204.71"/><line x1="173.34" x2="58.739" y1="219.03" y2="219.03"/><line x1="173.34" x2="58.739" y1="244.9" y2="244.9"/><line x1="173.34" x2="58.739" y1="270.77" y2="270.77"/><line x1="173.34" x2="58.739" y1="296.63" y2="296.63"/><line x1="173.34" x2="58.739" y1="322.5" y2="322.5"/><line x1="173.34" x2="58.739" y1="348.36" y2="348.36"/><line x1="173.34" x2="58.739" y1="374.23" y2="374.23"/><line x1="173.34" x2="58.739" y1="400.09" y2="400.09"/><line x1="173.34" x2="58.739" y1="425.96" y2="425.96"/><line x1="173.34" x2="58.739" y1="451.82" y2="451.82"/><line x1="173.34" x2="58.739" y1="477.69" y2="477.69"/><line x1="173.34" x2="58.739" y1="503.55" y2="503.55"/><line x1="135.14" x2="135.14" y1="219.04" y2="244.9"/><line x1="96.941" x2="96.941" y1="219.04" y2="244.9"/><line x1="77.84" x2="77.84" y1="244.9" y2="270.77"/><line x1="116.04" x2="116.04" y1="244.9" y2="270.77"/><line x1="154.24" x2="154.24" y1="244.9" y2="270.77"/><line x1="135.14" x2="135.14" y1="270.77" y2="296.63"/><line x1="96.941" x2="96.941" y1="270.77" y2="296.63"/><line x1="77.84" x2="77.84" y1="296.63" y2="322.5"/><line x1="116.04" x2="116.04" y1="296.63" y2="322.5"/><line x1="154.24" x2="154.24" y1="296.63" y2="322.5"/><line x1="135.14" x2="135.14" y1="322.5" y2="348.36"/><line x1="96.941" x2="96.941" y1="322.5" y2="348.36"/><line x1="77.84" x2="77.84" y1="348.36" y2="374.23"/><line x1="116.04" x2="116.04" y1="348.36" y2="374.23"/><line x1="154.24" x2="154.24" y1="348.36" y2="374.23"/><line x1="135.14" x2="135.14" y1="374.23" y2="400.09"/><line x1="96.941" x2="96.941" y1="374.23" y2="400.09"/><line x1="77.84" x2="77.84" y1="400.09" y2="425.96"/><line x1="116.04" x2="116.04" y1="400.09" y2="425.96"/><line x1="154.24" x2="154.24" y1="400.09" y2="425.96"/><line x1="135.14" x2="135.14" y1="425.96" y2="451.83"/><line x1="96.941" x2="96.941" y1="425.96" y2="451.83"/><line x1="77.84" x2="77.84" y1="451.83" y2="477.69"/><line x1="116.04" x2="116.04" y1="451.83" y2="477.69"/><line x1="154.24" x2="154.24" y1="451.83" y2="477.69"/><line x1="135.14" x2="135.14" y1="477.69" y2="503.56"/><line x1="96.941" x2="96.941" y1="477.69" y2="503.56"/></g></g><path d="m598.28 317.84 1.7155-317.84h-600l1.7155 317.84c4.1562 169.75 93.193 332.5 298.28 421.35 205.1-88.853 294.12-251.6 298.28-421.35z" fill="none" stroke="#000" stroke-linecap="square" stroke-miterlimit="30" stroke-width="6"/></g></svg>
