<?xml version="1.0" encoding="utf-8"?>
<svg version="1.1" width="603px" height="763px" viewBox="0 0 603 763" xmlns="http://www.w3.org/2000/svg" xmlns:xlink="http://www.w3.org/1999/xlink">
  <path id="s" d="m1.5,1.5v460c0,165.686 134.314,300 300,300c165.685,0 300-134.314 300-300v-460z"/>
  <radialGradient id="a" cx="0" cy="0" r="300" gradientTransform="matrix(1.215 0 0 1.2667 203.3286 244.107331)" gradientUnits="userSpaceOnUse">
    <stop stop-color="#fff" stop-opacity=".31373" offset="0"/>
    <stop stop-color="#fff" stop-opacity=".251" offset=".19"/>
    <stop stop-color="#6b6b6b" stop-opacity=".1255" offset=".6"/>
    <stop stop-opacity=".1255" offset="1"/>
  </radialGradient>
  <use xlink:href="#s" fill="#fff"/>
  <path fill="#2b5df2" stroke="#000" stroke-width="3" d="m585.5 361.93c0-55.372-28.054-55.372-28.054-110.74h-77.136c0 55.371 28.056 55.371 28.056 110.74 0 55.373-28.054 55.373-28.054 110.74 0 55.371 28.054 55.371 28.054 110.74 0 55.373-28.052 55.373-28.052 110.74 0 2.758 0.072 5.372 0.204 7.868 46.88-35.048 83.204-83.518 103.35-139.74-5.991-35.424-26.417-42.36-26.417-89.611 0-55.369 28.052-55.369 28.052-110.74zm-182.32 110.74c0-55.37 28.052-55.37 28.052-110.74s-28.054-55.372-28.054-110.74h-77.137c0 55.371 28.055 55.371 28.055 110.74 0 55.373-28.053 55.373-28.053 110.74 0 55.371 28.054 55.371 28.054 110.74 0 55.373-28.052 55.373-28.052 110.74 0 33.523 10.282 46.752 18.396 64.26 23.734-3.415 46.573-9.608 68.174-18.259-5.188-11.301-9.434-24.461-9.434-46.001 0-55.369 28.052-55.369 28.052-110.74 1e-3 -55.369-28.053-55.369-28.053-110.74zm-280.49-110.74c0-55.372-28.055-55.372-28.055-110.74h-77.134c0 55.371 28.054 55.371 28.054 110.74 0 55.373-28.052 55.373-28.052 110.74 0 55.371 28.054 55.371 28.054 110.74 0 11.685-1.252 20.896-3.223 28.69 14.471 24.85 32.38 47.433 53.085 67.086 4.521-40.942 27.272-45.905 27.272-95.776 0-55.369-28.054-55.369-28.054-110.74 0-55.369 28.053-55.369 28.053-110.74zm126.22 110.74c0-55.37 28.053-55.37 28.053-110.74s-28.055-55.372-28.055-110.74h-77.135c0 55.371 28.055 55.371 28.055 110.74 0 55.373-28.053 55.373-28.053 110.74 0 55.371 28.054 55.371 28.054 110.74 0 55.373-28.052 55.373-28.052 110.74 0 18.584 3.162 30.928 7.361 41.225 27.614 12.398 57.438 20.718 88.714 24.223-8.191-18.11-18.94-31.171-18.94-65.447 0-55.369 28.053-55.369 28.053-110.74 0-55.37-28.055-55.37-28.055-110.74z"/>
  <rect x="1.5" y="1.5" width="600" height="249.7" fill="#fcef3c" stroke="#000" stroke-width="3"/>
  <g fill="none" stroke="#000" stroke-width="3">
    <path d="m1.5,63.922h600 m0,62.42h-600 m0,62.42h600"/>
    <path stroke-width="62.4" stroke-dasharray="3 117" d="m60,32.7h483 m-423,62.4h483 m-543,62.4h483 m-423,62.4h483"/>
  </g>
  <use xlink:href="#s" fill="url(#a)" stroke="#000" stroke-width="3"/>
</svg>
