<?xml version="1.0" encoding="UTF-8"?>
<svg width="540" height="670" version="1.1" viewBox="0 0 142.88 177.27" xml:space="preserve" xmlns="http://www.w3.org/2000/svg"><path d="M140.03 58.07c0 63.566-23.411 98.886-68.595 116.15C26.486 156.89 2.839 121.634 2.839 58.07V2.97h137.19z" fill="#0093dd"/><path transform="rotate(45)" d="m4.1078 0.092521 17.378 17.378h73.91l3.65e-4 58.194c7.764 3.1126 15.495 5.1546 23.228 6.169l3.7e-4 -64.363h64.363c-1.0144-7.733-3.0565-15.464-6.169-23.228l-58.194-3.654e-4v-73.91l-17.378-17.378-5.8507 5.8507 3.65e-4 85.437h-85.437l-5.8507 5.8507z" fill="#fff" opacity=".98" stroke="#000" stroke-linecap="round" stroke-linejoin="round" stroke-miterlimit="80" stroke-width="1.4418"/><path d="M140.03 58.07c0 63.566-23.411 98.886-68.595 116.15C26.486 156.89 2.839 121.634 2.839 58.07V2.97h137.19z" fill="none" stroke="#000" stroke-width="2.6459"/></svg>
