<?xml version="1.0" encoding="UTF-8"?>
<svg width="619.9" height="773.85" version="1.1" xmlns="http://www.w3.org/2000/svg">
 <path d="m5.004 5-7e-3 329.03c4.277 174.66 95.416 342.15 304.99 434.47 209.58-92.321 300.72-259.82 304.99-434.47v-329.03z" fill="#0093dd"/>
 <g stroke="#000">
  <path d="M226.87 5v236.58H5l-.003 92.45a506.078 506.078 0 0 0 7.237 73.8h214.633v316.303c25.346 16.192 52.97 31.077 83.127 44.359 30.156-13.284 57.777-28.172 83.123-44.366V407.823H607.75a506.028 506.028 0 0 0 7.24-73.8v-92.45H393.12V4.993H226.87z" fill="#fcdb00" stroke-width="5"/>
  <path d="m5.007 5-6e-3 329.03c4.276 174.66 95.416 342.15 304.99 434.47 209.58-92.321 300.72-259.82 304.99-434.47v-329.03z" fill="none" stroke-width="10"/>
  <g transform="translate(-.048 -202.01) scale(1.683)" fill="#fcdb00" stroke-miterlimit="10">
   <g stroke-width="1.8422">
    <path d="M40.812 182.544c3.436-10.8-.678-26.672-.678-26.672s10.226 9.172 24.85 9.172 24.85-9.172 24.85-9.172-4.113 15.872-.678 26.672c3.436 10.8 16.036 20.595 16.036 20.595s-17.342 1.501-25.514 7.482c-8.173 5.98-14.694 21.731-14.694 21.731s-6.655-15.565-14.827-21.546c-8.172-5.98-25.38-7.667-25.38-7.667s12.6-9.795 16.035-20.595z"/>
    <path d="M51.47 160.861c2.012-2.735 6.217-5.527 13.513-5.527s11.501 2.792 13.514 5.527c2.01 2.736 2.326 6.625.369 9.557-1.958 2.934-13.882 19.978-13.882 19.978s-11.923-17.044-13.881-19.978c-1.959-2.933-1.644-6.821.368-9.557z"/>
    <path d="M88.893 168.414c3.224 1.068 7.178 4.204 9.433 11.144 2.255 6.939.9 11.801-1.081 14.56-1.98 2.758-5.582 4.26-8.976 3.303-3.395-.955-23.289-7.029-23.289-7.029s12.524-16.607 14.71-19.375c2.185-2.769 5.98-3.67 9.203-2.603zm4.385 37.93c-.02 3.396-1.78 8.126-7.683 12.416-5.904 4.289-10.947 4.502-14.182 3.471-3.236-1.032-5.776-3.992-5.916-7.515-.14-3.525-.512-24.322-.512-24.322s19.665 6.78 22.973 8.003c3.309 1.221 5.339 4.553 5.32 7.948zM58.556 222.23c-3.235 1.03-8.278.818-14.181-3.47-5.903-4.29-7.664-9.02-7.683-12.416-.02-3.395 2.011-6.727 5.32-7.948 3.307-1.223 22.972-8.003 22.972-8.003s-.371 20.798-.512 24.321c-.14 3.524-2.68 6.485-5.916 7.516z"/>
    <path d="M32.719 194.119c-1.98-2.76-3.336-7.62-1.081-14.56s6.21-10.076 9.432-11.144c3.224-1.068 7.02-.165 9.204 2.603 2.185 2.768 14.71 19.375 14.71 19.375s-19.895 6.074-23.29 7.03c-3.394.955-6.995-.547-8.975-3.304z"/>
   </g>
   <g stroke-linecap="round" stroke-linejoin="round" stroke-width="3">
    <path d="M64.982 162.74v18.578M76.557 165.65s-.486-3.138-3.294-4.02c-3.033-.954-5.685 1.113-8.28 1.113s-5.246-2.067-8.28-1.114c-2.807.883-3.292 4.022-3.292 4.022M91.288 181.85 73.62 187.59M92.099 193.756s2.835-1.432 2.807-4.375c-.032-3.179-2.816-5.063-3.618-7.53s.344-5.629-1.5-8.219c-1.706-2.397-4.842-1.889-4.842-1.889M81.242 212.768l-10.92-15.03M70.165 217.22s2.238 2.253 5.028 1.317c3.014-1.012 3.945-4.241 6.045-5.767 2.1-1.525 5.46-1.412 7.353-3.966 1.752-2.365.3-5.189.3-5.189M48.728 212.768l10.92-15.03M41.074 203.612s-1.452 2.825.3 5.189c1.894 2.554 5.254 2.441 7.354 3.966 2.098 1.525 3.03 4.755 6.044 5.767 2.79.936 5.028-1.317 5.028-1.317M38.681 181.85l17.668 5.74M45.024 171.742s-3.136-.507-4.843 1.89c-1.843 2.59-.698 5.751-1.5 8.218-.802 2.468-3.587 4.352-3.617 7.531-.028 2.943 2.807 4.375 2.807 4.375" stroke-width="1.8422"/>
   </g>
   <circle cx="64.981" cy="190.39" r="11.504" stroke-width="1.842"/>
   <g stroke-width="1.8422">
    <path d="M279.283 182.544c3.435-10.8-.678-26.672-.678-26.672s10.226 9.172 24.85 9.172 24.85-9.172 24.85-9.172-4.114 15.872-.678 26.672 16.036 20.595 16.036 20.595-17.343 1.501-25.515 7.482c-8.172 5.98-14.693 21.731-14.693 21.731s-6.656-15.565-14.828-21.546-25.379-7.667-25.379-7.667 12.6-9.795 16.035-20.595z"/>
    <path d="M289.943 160.861c2.01-2.735 6.215-5.527 13.512-5.527s11.502 2.792 13.514 5.527c2.01 2.736 2.326 6.625.369 9.557-1.958 2.934-13.882 19.978-13.882 19.978s-11.923-17.044-13.88-19.978c-1.96-2.933-1.645-6.821.367-9.557z"/>
    <path d="M327.37 168.414c3.223 1.068 7.178 4.204 9.432 11.144 2.256 6.939.9 11.801-1.081 14.56-1.98 2.758-5.581 4.26-8.976 3.303-3.394-.955-23.289-7.029-23.289-7.029s12.525-16.607 14.71-19.375c2.185-2.769 5.98-3.67 9.204-2.603zm4.378 37.93c-.02 3.396-1.78 8.126-7.683 12.416-5.904 4.289-10.946 4.502-14.182 3.471-3.235-1.032-5.776-3.992-5.916-7.515-.14-3.525-.512-24.322-.512-24.322s19.665 6.78 22.973 8.003c3.309 1.221 5.339 4.553 5.32 7.948z"/>
    <path d="M297.03 222.23c-3.236 1.03-8.28.818-14.183-3.47-5.903-4.29-7.663-9.02-7.683-12.416-.019-3.395 2.011-6.727 5.32-7.948 3.308-1.223 22.972-8.003 22.972-8.003s-.371 20.798-.512 24.321c-.14 3.524-2.68 6.485-5.915 7.516zm-25.84-28.111c-1.98-2.76-3.336-7.62-1.081-14.56 2.254-6.94 6.208-10.076 9.432-11.144 3.223-1.068 7.02-.165 9.204 2.603s14.709 19.375 14.709 19.375-19.894 6.074-23.29 7.03c-3.393.955-6.994-.547-8.975-3.304z"/>
   </g>
   <g stroke-linecap="round" stroke-linejoin="round" stroke-width="3">
    <path d="m303.46 162.74v18.578m11.569-15.668s-0.486-3.138-3.294-4.02c-3.033-0.954-5.685 1.113-8.28 1.113s-5.246-2.067-8.279-1.114c-2.808 0.883-3.293 4.022-3.293 4.022m37.877 16.199-17.669 5.741m18.48 6.165s2.835-1.432 2.807-4.375c-0.031-3.179-2.816-5.063-3.618-7.53s0.344-5.629-1.5-8.219c-1.706-2.397-4.842-1.889-4.842-1.889m-3.704 41.025-10.92-15.03m-0.152 19.482s2.24 2.253 5.03 1.317c3.013-1.012 3.944-4.241 6.044-5.767 2.1-1.525 5.46-1.412 7.353-3.966 1.753-2.365 0.3-5.189 0.3-5.189m-40.169 9.153 10.92-15.03m-18.571 5.874s-1.452 2.825 0.3 5.189c1.894 2.554 5.254 2.441 7.353 3.966s3.03 4.755 6.045 5.767c2.79 0.936 5.028-1.317 5.028-1.317m-21.121-35.367 17.668 5.74m-11.325-15.848s-3.135-0.507-4.842 1.89c-1.844 2.59-0.7 5.751-1.5 8.218-0.803 2.468-3.587 4.352-3.617 7.531-0.03 2.943 2.806 4.375 2.806 4.375" stroke-width="1.8422"/>
   </g>
   <circle cx="303.46" cy="190.39" r="11.504" stroke-width="1.842"/>
  </g>
 </g>
</svg>
