<?xml version="1.0" encoding="UTF-8"?>
<svg width="600" height="738" stroke-linecap="round" stroke-linejoin="round" stroke-miterlimit="10" xmlns="http://www.w3.org/2000/svg" ><path d="m593.36 317.99 1.687-312.6h-590.1l1.688 312.6c4.087 166.95 91.655 327.01 293.36 414.4 201.72-87.388 289.27-247.45 293.36-414.4z" fill="#1c63b7" stroke="#000" stroke-linecap="square" stroke-linejoin="miter" stroke-width="9.835" /><path d="m593.37 317.77 1.687-312.6-590.11 0.216 1.697 312.38c4.088 166.95 91.655 327.01 293.36 414.4 201.72-87.388 289.28-247.45 293.36-414.4z" fill="none" stroke="#000500" stroke-linecap="square" stroke-linejoin="miter" stroke-width="9.835" /><g fill="#fff" stroke="#000"><g transform="matrix(1.0485 0 0 1.0616 -15.315 -77.186)" stroke-miterlimit="4" stroke-width="3.729"><path d="M513.68 176.4c-.191-1.57-2.187-4.571-4.571-4.571h-11.128v-15.367h5.25c2.601 0 3.712-2.138 3.15-3.149-7.419-13.352-18.058-20.1-22.536-22.488-1.328-.708-2.688-1.033-4.277-1.033h-356.14c-1.589 0-2.95.325-4.277 1.033-4.478 2.389-15.117 9.137-22.536 22.488-.562 1.012.549 3.149 3.15 3.149h5.25v15.367H93.887c-2.384 0-4.38 3.001-4.571 4.571a75.945 75.945 0 0 0-.55 9.206c0 42.391 82.802 147.71 212.73 147.71s212.73-105.32 212.73-147.71c0-3.238-.196-6.302-.551-9.206z"/><path d="M105.02 156.46h392.96v15.367H105.02zM389.26 314.36c-8.742 0-21.206 3.182-24.674 9.373l-.006.005c-3.297-5.721-8.284-9.377-13.876-9.377-6.038 0-11.375 4.254-14.639 10.774-2.399-4.969-5.971-8.125-9.963-8.125-3.994 0-7.566 3.156-9.966 8.125-3.261-6.52-8.6-10.775-14.637-10.775s-11.375 4.254-14.637 10.774c-2.4-4.969-5.972-8.125-9.965-8.125-3.992 0-7.564 3.156-9.964 8.125-3.262-6.52-8.6-10.774-14.637-10.774-5.595 0-10.583 3.658-13.882 9.383l-.007-.013c-3.468-6.19-15.926-9.37-24.668-9.37-8.98 0 16.42 30.469 48.084 41.487 10.741 3.737 24.189 4.083 39.676 4.083 15.486 0 28.934-.346 39.677-4.083 31.664-11.018 57.063-41.487 48.084-41.487zM338.4 424.21c-5.046-16.838-19.661-29.012-36.906-29.012-17.247 0-31.866 12.179-36.91 29.022v25.266H338.4z"/><ellipse transform="translate(-.038 -.045)" cx="281.16" cy="441.23" rx="5.917" ry="13.16"/><ellipse transform="translate(-.038 -.045)" cx="321.92" cy="441.23" rx="5.917" ry="13.16"/></g><path transform="matrix(1.0485 0 0 1.0616 -15.315 -77.186)" d="M261.73 423.72a41.907 41.907 0 0 0-2.202 13.45c0 23.179 18.79 41.968 41.968 41.968 23.179 0 41.968-18.789 41.968-41.968 0-4.704-.774-9.229-2.202-13.452-4.894 0-15.675 6.167-19.384 17.472-3.709-11.305-18.686-17.469-20.382-17.469s-16.673 6.164-20.382 17.469c-3.709-11.305-14.49-17.47-19.384-17.47z" stroke-width="2.797"/><g stroke-miterlimit="4" stroke-width="3.729"><path transform="matrix(1.0485 0 0 1.0616 -15.315 -77.186)" d="M301.5 439.78c-5.282 0-9.564 4.281-9.564 9.563s4.282 9.563 9.564 9.563 9.563-4.281 9.563-9.563-4.281-9.563-9.563-9.563zm40.172 0a9.563 9.563 0 0 0-9.563 9.563c0 3.927 2.368 7.295 5.751 8.769a41.696 41.696 0 0 0 5.507-18.174 9.558 9.558 0 0 0-1.695-.158zm-80.338 0c-.581 0-1.147.06-1.7.159a41.71 41.71 0 0 0 5.508 18.176c3.386-1.474 5.755-4.844 5.755-8.771.001-5.283-4.281-9.564-9.563-9.564zM280.93 400.58s10.608 1.549 20.569 1.549 20.569-1.549 20.569-1.549h.002c2.117-12.171 5.756-21.96 11.38-32.518l-31.951-5.123-31.952 5.123c5.625 10.558 9.263 20.347 11.38 32.518z"/><path transform="matrix(1.0485 0 0 1.0616 -15.315 -77.186)" d="m340.11 362.32a4.506 4.506 0 0 0-4.506-4.506h-68.211a4.507 4.507 0 0 0-4.506 4.506v1.233a4.507 4.507 0 0 0 4.506 4.506h68.211a4.506 4.506 0 0 0 4.506-4.506zm106.53 195.9c-33.597-3.389-69.407-14.212-87.139-30.263-19.444-17.601-34.405-19.781-58.004-19.781s-38.56 2.181-58.005 19.781c-17.731 16.051-53.541 26.874-87.138 30.263l-2.942 2.899h296.17z"/><path transform="matrix(1.0485 0 0 1.0616 -15.315 -77.186)" d="m325.1 507.42a2.826 2.826 0 0 0-2.826-2.826h-41.545a2.826 2.826 0 0 0 0 5.653h41.545a2.827 2.827 0 0 0 2.826-2.827zm0-32.5a2.826 2.826 0 0 1-2.826 2.826h-41.545a2.826 2.826 0 0 1 0-5.652h41.545a2.827 2.827 0 0 1 2.826 2.826z"/><path transform="matrix(1.0485 0 0 1.0616 -15.315 -77.186)" d="m329.51 500.18a4.416 4.416 0 0 0-4.416-4.416h-47.197a4.416 4.416 0 1 0 0 8.832h47.197a4.415 4.415 0 0 0 4.416-4.416zm0-18.02a4.416 4.416 0 0 1-4.416 4.416h-47.197a4.416 4.416 0 1 1 0-8.832h47.197a4.415 4.415 0 0 1 4.416 4.416z"/><path transform="matrix(1.0485 0 0 1.0616 -15.315 -77.186)" d="m336.58 491.08a4.506 4.506 0 0 0-4.506-4.507h-61.146a4.507 4.507 0 0 0-4.506 4.507v0.172a4.507 4.507 0 0 0 4.506 4.506h61.146a4.506 4.506 0 0 0 4.506-4.506zm93.2 51.4c-8.754 0-16.184 5.18-18.957 12.402-1.357-3.605-3.845-6.03-6.699-6.03-2.855 0-5.345 2.425-6.701 6.029-2.773-7.222-10.202-12.401-18.957-12.401-8.754 0-16.184 5.18-18.957 12.402-1.357-3.605-3.845-6.03-6.699-6.03-2.855 0-5.345 2.425-6.701 6.029-2.772-7.222-10.201-12.401-18.957-12.401-8.755 0-16.184 5.18-18.957 12.402-1.356-3.605-3.846-6.03-6.7-6.03s-5.343 2.425-6.7 6.03c-2.773-7.223-10.203-12.402-18.957-12.402s-16.184 5.18-18.957 12.402c-1.356-3.605-3.846-6.03-6.7-6.03s-5.343 2.425-6.7 6.03c-2.773-7.223-10.202-12.402-18.957-12.402-8.754 0-16.184 5.18-18.957 12.402-1.357-3.605-3.846-6.03-6.7-6.03s-5.344 2.425-6.7 6.03c-2.773-7.223-10.203-12.402-18.957-12.402-11.121 0-20.136 8.343-20.136 18.635h296.84c-1e-3 -10.292-9.016-18.635-20.137-18.635zm20.14 18.64h-296.84c-5.856 0-13.353 10.774-13.353 27.73h323.55c0-16.956-7.498-27.73-13.353-27.73z"/></g></g></svg>
