<?xml version="1.0" encoding="UTF-8"?>
<svg width="411.26" height="497.52" version="1.1" viewBox="-175.93 -213.74 411.26 497.52" xmlns="http://www.w3.org/2000/svg">
<path d="M29.56-207.74h201.77V88.83c0 106.56-90.271 192.95-201.64 192.95-111.35 0-201.62-86.397-201.62-192.95v-296.57z" fill="#0093dd"/>
<g fill="#fcdb00" stroke="#000" stroke-width="4">
<path d="m-171.92-207.74v100.59l138.58 157.42-114.5 130.05c15.648 27.748 38.193 51.405 65.436 68.88l112.1-127.33 112.1 127.34c27.245-17.47 49.79-41.125 65.442-68.87l-114.51-130.07 138.6-157.43v-100.59h-37.517l-164.12 186.41-164.11-186.41z" />
<path d="m20.269-78.841c2.316-13.521 3.0677-18.818 3.3267-31.415 0.40215-19.323-2.1308-22.285-8.601-43.615-3.9815-13.127 2.6445-37.821 14.703-45.178 12.058 7.3566 18.684 32.051 14.703 45.178-6.4681 21.331-9.0031 24.292-8.601 43.615 0.26108 12.597 1.0127 17.891 3.3267 31.415 1.3475 7.8684-3.6636 16.556-9.4284 21.661-5.7649-5.1052-10.776-13.795-9.4284-21.661z"/>
<path d="m62.691-129.85c10.877 1.9208 22.979-2.66 22.979-18.38 0-15.28-17.589-22.647-31.437-13.574-1.916 1.2552-6.9545 5.7791-10.132 12.818-4.331 9.5891-10.309 19.401-10.338 37.672 1.4254 32.076 14.606 35.698 26.388 34.852-13.903-7.2555-18.208-21.312-17.869-33.746 0.27793-10.187 2.0002-19.692 8.363-27.841 7.2134-9.2374 14.153-8.2138 16.873-6.034 4.1333 5.3762-0.80673 11.937-4.827 14.233zm-65.986 0c-10.877 1.9208-22.979-2.66-22.979-18.38 0-15.28 17.589-22.647 31.437-13.574 1.916 1.2552 6.9545 5.7791 10.132 12.818 4.331 9.5891 10.309 19.401 10.338 37.672-1.4254 32.076-14.606 35.698-26.388 34.852 13.903-7.2555 18.208-21.312 17.869-33.746-0.27793-10.187-2.0002-19.692-8.363-27.841-7.2134-9.2374-14.153-8.2138-16.873-6.034-4.1333 5.3762 0.80673 11.937 4.827 14.233z"/>
<path d="m15.096-115.49c-3.4383 0-5.7901 2.3799-5.7312 5.4927 0 3.0202 2.4192 5.4927 5.7312 5.4927h29.205c3.312 0 5.7312-2.4726 5.7312-5.4927 0.06106-3.1128-2.2929-5.4927-5.7312-5.4927h-14.604z"/>
</g>
<path d="M29.56-209.74h201.77V86.83c0 106.56-90.271 192.95-201.64 192.95-111.35 0-201.62-86.397-201.62-192.95v-296.57z" stroke="#000"  stroke-width="8" fill="none"/></svg>
