<?xml version="1.0" encoding="utf-8"?>
<!-- Generator: Adobe Illustrator 16.0.3, SVG Export Plug-In . SVG Version: 6.00 Build 0)  -->
<!DOCTYPE svg PUBLIC "-//W3C//DTD SVG 1.1//EN" "http://www.w3.org/Graphics/SVG/1.1/DTD/svg11.dtd">
<svg version="1.1" id="Wappen_Colditz" xmlns="http://www.w3.org/2000/svg" xmlns:xlink="http://www.w3.org/1999/xlink" x="0px"
	 y="0px" width="510px" height="610px" viewBox="0 0 510 610" enable-background="new 0 0 510 610" xml:space="preserve">
<path id="Schild" fill-rule="evenodd" clip-rule="evenodd" d="M505,358.337C505,494.564,393.072,605,255.001,605
	S5,494.564,5,358.337V5h500V358.337z"/>
<path fill-rule="evenodd" clip-rule="evenodd" fill="#DD2222" d="M495.517,395.551c-3.874,0-12.14,0-15.735,0
	c-1.906,0-2.193-0.222-2.193-2.163c0-9.746-0.036-102.632,0-108.813c0.741-1.926,4.387-10.561,4.387-22.634
	c0-12.268,0-76.427,0-87.09c0-1.845-0.445-3.272-2.193-3.245c-1.532-0.004-2.193-0.865-2.193-2.164c0-4.426,0-17.293,0-21.637
	c0-1.355,0.523-2.164,1.645-2.164c2.078,0,3.838,0,4.935,0c1.484,0,1.645-1.045,1.645-2.164c0-1.36,0-40.983,0-42.733
	c0-1.151-0.068-1.623-1.645-1.623c-1.713,0-3.633,0-5.37,0c-0.971,0-1.348-0.206-1.326-1.757
	c0.117-11.448-9.616-44.411-45.316-52.698c-1.576-0.366-1.374-0.824-0.447-3.937c1.198-4.027-1.2-9.774-5.458-12.627
	c-3.918-2.626-11.882-2.624-15.618,0.922c-3.744,3.552-5.539,7.361-4.592,12.423c0.445,2.383,0.565,2.985-1.904,3.596
	c-34.211,8.451-43.871,40.602-43.76,52.33c0.015,1.544-0.508,1.747-1.756,1.747c-0.883,0-2.59,0-4.387,0
	c-1.623,0-2.201,0.756-2.192,2.164c0.032,5.086,0.025,37.194,0,42.193c0.044,1.563,0.569,2.164,2.192,2.164
	c1.986-0.002,5.184,0,6.668,0c1.395,0,2.033,0.42,2.033,1.623c0,3.688,0,17.791,0,22.178c0,1.601-1.05,2.164-2.67,2.164
	c-1.734,0-2.741,0.275-2.741,3.245c0.016,7.511-0.034,65.21,0,72.485c-0.043,3.564,0.203,9.554,0.548,14.605
	c0,11.306,3.459,21.043,4.863,23.782c-0.002,4.25,0.069,123.433,0.071,127.137c-0.002,1.256-0.345,1.623-1.645,1.623
	c-1.279,0-2.867,0-3.838,0c-1.073,0-1.641-0.706-1.645-1.623c0-3.479,0-14.385,0-15.687c0-1.314-0.375-1.623-2.193-1.623
	c-3.14,0-10.624,0-21.382,0c-1.784,0-2.741-1.066-2.741-2.704c0-15.808,0-105.332,0-118.464c0-1.727,0.615-2.705,2.741-2.705
	c3.287,0,5.986,0.025,8.772,0c1.711-0.02,2.704-0.729,2.741-2.705c0-2.861,0-38.662,0-43.274c0-1.693-0.345-2.164-1.646-2.164
	c-4.09,0-19.579,0-25.219,0c-1.219,0-1.645,0.64-1.645,2.164c0,3.648,0,10.436,0,13.523c0,1.316-0.362,1.623-1.646,1.623
	c-1.115,0-4.343,0-5.482,0c-1.257,0-1.645-0.375-1.645-1.623c0-3.486,0-10.016,0-13.523c0-1.744-0.293-2.164-1.645-2.164
	c-3.84,0-20.323,0-25.22,0c-1.252,0-1.645,0.454-1.645,2.164c0,1.806,0,9.863,0,13.019c0,1.849-0.636,2.111-2.741,2.127
	c-1.349,0.01-3.04,0-4.386,0c-1.396,0-1.645-0.428-1.645-2.434c0-2.038,0-8.529,0-12.712c0-1.767-0.482-2.164-2.741-2.164
	c-2.264,0-19.671,0-24.123,0c-1.356,0-1.645,0.386-1.645,2.164c0,3.843-0.003,10.021,0,13.329c0.001,1.153-0.574,1.817-2.193,1.817
	c-1.122,0-2.583,0-3.837,0c-1.647,0-2.741-0.466-2.741-1.422c0-2.756,0-9.975,0-13.724c0-1.744-0.465-2.164-1.645-2.164
	c-2.589,0-22.128,0-25.219,0c-1.288,0-1.644,0.498-1.645,2.164c-0.003,3.813,0.039,9.114,0,12.982
	c-0.01,0.925-1.031,2.164-2.197,2.164c-2.637,0-1.458,0.048-4.93,0c-0.894,0-1.645-0.594-1.645-2.164c0-3.4,0-9.194,0-12.982
	c0-1.473-0.603-2.164-2.193-2.164c-3.81,0-21.098,0-24.123,0c-1.596,0-2.196,0.656-2.193,2.164c0.02,7.786,0,39.706,0,44.356
	c0,1.436,0.683,1.671,2.193,1.623c2.944-0.001,7.09,0,9.32,0c2.03,0,2.741,0.555,2.741,2.705c0.033,5.868,0,114.586,0,118.464
	c0,2.066-0.802,2.704-2.63,2.704c-6.305,0-17.521,0-21.493,0c-1.753,0-2.193,0.488-2.193,2.496c0,4.128,0,12.732,0,14.786
	c0,1.022-0.534,1.65-1.645,1.65c-2.01,0-3.686,0-5.412,0c0-1.861,0-122.406,0-129.282c0-3.786,1.325-7.248,2.299-10.911
	c0.708-2.665,1.459-5.303,1.81-8.063c0.347-2.729,1.304-10.409,1.304-14.564c-0.021-7.698-0.001-71.523,0-76.812
	c0.001-1.676-1.248-3.245-2.741-3.245c-1.729,0-2.671-0.676-2.671-3.787c0-4.161,0-17.603,0-20.556c0-1.18,0.499-1.623,1.575-1.623
	c1.348,0,3.264,0,4.84,0c0.914,0,1.191-0.346,1.191-1.082c0-1.223,0-42.606,0-44.356c0-0.882-0.157-1.082-1.097-1.082
	c-1.116,0-2.675,0-3.838,0c-0.773,0-1.173-0.286-1.167-0.914c0.071-7.727-5.346-41.512-42.023-52.678
	c-3.834-1.167-3.542-1.4-3.244-5.26c0.364-4.705-1.622-8.501-5.367-11.456c-3.592-2.833-7.826-3.267-11.975-2.438
	c-2.571,0.514-5.077,1.85-6.84,4.364c-2.916,4.157-3.61,8.495-2.275,13.324c0.119,0.353-0.156,0.607-0.677,0.739
	C39.54,54.036,31.485,87.759,31.479,96.72c-0.001,2.084-0.337,2.402-1.808,2.402c-2.024,0-5.44,0-6.579,0
	c-1.511,0-2.168,0.677-2.193,3.492c0,3.623,0,38.141,0,40.865c0,1.603,0.717,2.164,2.193,2.164c2.774,0,4.246,0.027,6.439,0
	c1.987,0,2.881,1.096,2.881,3.125c0,6.647,0,12.406,0,19.053c0,2.028-0.834,3.787-2.193,3.787c-1.16,0-2.193,1.028-2.193,3.245
	c0,3.277,0,70.558,0,76.812c0,6.675,0.066,12.719,1.917,19.368c0.44,1.582,0.849,3.173,1.298,4.753
	c0.951,3.341,1.171,2.151,1.171,9.417c0,12.261-0.014,96.991,0,108.239c0,1.458-0.923,2.11-1.892,2.14
	c-2.186-0.029-11.69-0.029-16.055-0.029c-0.336-1.259-2.886-18.624-2.886-37.216c0-14.722,0-346.843,0-346.843h486.843
	c0,0-0.025,334.963,0,346.843C498.456,374.764,496.523,389.818,495.517,395.551z"/>
<path fill-rule="evenodd" clip-rule="evenodd" fill="#FFFFFF" d="M80.484,34.292c0.914-1.577,3.804-5.348,9.494-5.348
	c5.309,0,8.595,4.374,9.226,6.189c0.844,2.431,1.868,9.246-1.711,8.527c-2.343-0.471-10.841-0.646-14.713-0.039
	c-1.771,0.277-2.056-0.106-2.379-0.774C80.021,42.06,78.154,38.315,80.484,34.292z"/>
<path fill-rule="evenodd" clip-rule="evenodd" d="M98.373,37.896c-0.058,3.092-3.431,5.305-6.004,3.878
	c-1.071-0.595-1.685-1.43-0.916-2.518c1.044-1.476,0.717-2.879,0.298-4.427c-0.306-1.13-0.6-2.459,0.683-3.293
	c1.017-0.662,2.538-0.237,3.611,1.274C97.111,34.31,98.602,35.701,98.373,37.896z"/>
<path fill-rule="evenodd" clip-rule="evenodd" fill="#FFFFFF" d="M130.549,114.268c-2.858,0-6.351,0-10.965,0
	c-1.005,0-2.193-0.631-2.193-2.164c0-1.295,0-9.526,0-10.819c0-1.758-0.823-2.164-2.193-2.165c-3.957,0-11.835,0.001-17.543,0.001
	c-1.553,0-2.193,1.217-2.193,2.164c0,1.758,0,7.205,0,10.819c0,1.712-0.868,2.164-2.193,2.164c-3.747,0-6.761,0-10.965,0
	c-1.142,0-2.193-0.586-2.193-2.164c0-0.949,0.01-9.668,0-10.819c-0.017-1.848-0.822-2.164-2.193-2.17
	c-2.741,0.007-14.271,0.007-17.543,0.007c-1.602,0-2.193,0.668-2.193,2.164c0,1.961,0,8.069,0,10.819
	c0,1.252-0.708,2.164-2.193,2.164c-2.193,0-7.144,0-10.965,0c-1.442,0-2.193-0.774-2.193-2.164c0-2.874,0-9.08,0-10.819
	c0-1.541-0.894-2.166-2.193-2.164c-1.002,0.002-2.861,0-4.386,0c-0.565,0-0.922-0.168-0.947-2.081
	c-0.15-11.902,13.348-50.065,54.674-50.065c41.002,0,54.654,37.623,54.654,50.08c0,1.791-0.289,2.065-2.022,2.065
	c-1.279,0-6.033,0-7.675,0c-1.19,0-2.193,1.113-2.193,2.164c0,1.074,0,8.069,0,10.819
	C132.742,113.96,131.508,114.268,130.549,114.268z"/>
<g>
	<path fill-rule="evenodd" clip-rule="evenodd" fill="#FFFFFF" d="M37.906,103.449c0.898,0,1.634,0.735,1.634,1.634v10.796
		c0,0.898,0.735,1.634,1.634,1.634h18.662c0.898,0,1.634-0.735,1.634-1.634v-10.796c0-0.898,0.735-1.634,1.634-1.634h12.083
		c0.898,0,1.634,0.735,1.634,1.634v10.796c0,0.898,0.735,1.634,1.634,1.634h18.662c0.898,0,1.634-0.735,1.634-1.634v-10.796
		c0-0.898,0.735-1.634,1.634-1.634h12.083c0.898,0,1.634,0.735,1.634,1.634v10.796c0,0.898,0.735,1.634,1.634,1.634h18.662
		c0.898,0,1.634-0.735,1.634-1.634v-10.796c0-0.898,0.735-1.634,1.634-1.634h12.083c0.898,0,1.634,0.735,1.634,1.634v34.597
		c0,0.898-0.735,1.634-1.634,1.634H25.823c-0.898,0-1.634-0.735-1.634-1.634v-34.597c0-0.898,0.735-1.634,1.634-1.634H37.906z"/>
</g>
<g>
	<path fill-rule="evenodd" clip-rule="evenodd" fill="#FFFFFF" d="M35.702,147.275c0-0.898,0.735-1.634,1.634-1.634h104.667
		c0.898,0,1.634,0.735,1.634,1.634v22.697c0,0.898-0.735,1.634-1.634,1.634H37.336c-0.898,0-1.634-0.735-1.634-1.634V147.275z"/>
</g>
<path fill-rule="evenodd" clip-rule="evenodd" fill="#FFFFFF" d="M148.421,174.852c0,0,0.009,74.46,0,84.385
	c0.004,23.792-21.44,55.805-57.818,55.847c-36.377,0.041-57.821-28.989-57.785-55.847c-0.081-9.132-0.001-84.385-0.001-84.385
	H148.421z"/>
<path fill-rule="evenodd" clip-rule="evenodd" fill="#FFFFFF" d="M143.707,286.283c0,13.447,0,40.028,0,40.028H35.702
	c0,0,0-24.341,0-40.028c3.082,8.007,21.996,32.673,54.901,32.667C123.625,318.943,141.717,292.992,143.707,286.283z"/>
<g>
	<path fill-rule="evenodd" clip-rule="evenodd" fill="#FFFFFF" d="M142.073,320.902c0.898,0,1.634,0.735,1.634,1.634v90.313
		c0,0.898-0.735,1.634-1.634,1.634h-8.245c-0.898,0-1.634-0.735-1.634-1.634v-15.665c0-0.898-0.735-1.634-1.634-1.634H81.196
		c-0.898,0-1.634,0.735-1.634,1.634v15.665c0,0.898-0.735,1.634-1.634,1.634H59.266c-0.898,0-1.634-0.735-1.634-1.634v-15.665
		c0-0.898-0.735-1.634-1.634-1.634H37.336c-0.898,0-1.634-0.735-1.634-1.634v-71.381c0-0.898,0.735-1.634,1.634-1.634H142.073z"/>
</g>
<path fill-rule="evenodd" clip-rule="evenodd" d="M138.122,270.054c1.299,1.942,0.819,3.43-1.514,4.333
	c-1.384,0.535-4.85,2.205-6.438,2.918c-1.119,0.501-1.652,0.847-1.097,2.705c0.617,2.062,0.282,11.607-6.538,17.851
	c-8.642,7.911-20.292,5.95-22.603,4.305c-1.977-1.408-2.865-0.925-4.269,0.767s-2.787,3.372-3.975,5.207
	c-2.913,4.496-3.53,3.211-5.493,0.831c-1.182-1.433-3.037-3.736-4.281-5.204c-1.568-1.848-2.266-1.955-3.658-1.104
	c-1.439,0.879-14.313,3.375-21.727-4.262c-6.233-6.421-6.919-15.347-6.316-17.789c0.455-1.846-0.132-2.087-1.151-2.561
	c-1.546-0.721-4.835-2.213-8.108-3.08c-2.925-0.774-1.652-2.107-0.801-3.344c1.105-1.605,3.055-4.589,3.837-5.748
	c0.822-1.217,0.344-1.396-1.088-2.777c-1.432-1.382-8.113-10.137-4.668-20.888c2.947-9.196,12.198-14.538,16.31-14.808
	c2.261-0.148,2.487-0.615,2.604-2.164s0.206-5.722,0.229-7.168c0.045-2.771,1.278-2.974,3.585-2.498
	c1.78,0.367,5.838,1.111,6.948,1.289c1.642,0.263,1.846-0.133,2.523-1.258c0.678-1.126,5.858-11.145,18.355-10.827
	c10.753,0.273,15.695,6.286,17.062,8.562c2.192,3.651,2.754,3.48,4.556,2.931c1.762-0.537,4.277-1.437,5.488-1.751
	c2.109-0.548,3.104-0.039,3.16,2.652c0.032,1.542,0.328,3.726,0.685,6.221c0.548,3.832,0.091,3.606,3.472,3.426
	c2.009-0.107,14.069,3.766,16.996,14.379c3.107,11.27-3.634,19.879-4.762,20.959c-1.166,1.118-1.691,2.114-0.864,3.165
	C135.64,266.664,137.308,268.838,138.122,270.054z"/>
<path fill-rule="evenodd" clip-rule="evenodd" fill="#DD2222" d="M122.391,229.567c12.519,0.271,20.651,20.105,12.381,29.207
	c-9.017,9.924-15.944,5.413-16.904,7.847s7.452,4.135,8.366,13.069c1.777,17.358-14.901,23.523-24.402,19.927
	c-10.006-3.786-10.692-10.683-12.816-10.818s-0.185,4.99-10.749,11.15c-11.935,6.295-29.616-8.04-25.641-19.805
	c2.33-8.52,5.404-11.073,4.484-12.636c-0.92-1.563-7.361,0.373-12.798-6.634c-9.916-12.78-0.321-29.819,12.014-30.631
	c10.528-0.692,13.199,4.792,14.666,3.246c1.325-1.397-3.427-8.384,1.507-17.039c5.929-10.4,23.065-13.596,32.082,0.107
	c6.158,9.358-1.38,18.419,0.539,19.771C107.04,237.682,109.509,229.289,122.391,229.567z"/>
<path fill-rule="evenodd" clip-rule="evenodd" d="M113.071,298.716c5.757-2.344,8.955-5.95,7.659-6.764
	c-1.097-0.689-5.272,3.667-8.207,4.42c-5.856,1.505-12.393-0.264-15.625-4.113c-2.375-2.829-2.924-7.887-4.801-7.833
	c-1.847,0.052-0.467,6.142,3.3,10.381C99.273,299.167,107.314,301.06,113.071,298.716z"/>
<path fill-rule="evenodd" clip-rule="evenodd" d="M105.304,242.284c1.792,1.249,4.72-3.403,6.305-4.873
	c4.569-4.237,12.792-2.885,15.167-0.902c2.652,2.214,4.459,5.09,5.575,5.049c1.116-0.041,2.467-4.057-4.488-7.6
	c-6.118-3.117-10.863-3.219-16.925,0.168C108.244,235.631,103.659,241.138,105.304,242.284z"/>
<path fill-rule="evenodd" clip-rule="evenodd" d="M70.947,227.674c1.188,6.401,6.671,11.9,7.218,10.882
	c0.881-1.64-2.463-4.854-3.342-8.087c-2.231-8.204,2.851-14.617,6.358-16.679c4.294-2.524,5.474-1.609,7.645-3.962
	c0.669-0.726-2.555-1.515-8.19,1.261C74.419,214.151,70.035,222.757,70.947,227.674z"/>
<path fill-rule="evenodd" clip-rule="evenodd" d="M49.186,263.028c4.799,2.802,15.73,2.499,13.291,0.761
	c-2.108-1.5-7.066-0.563-10.429-2.397c-9.426-5.139-8.562-13.984-6.481-18.352s3.143-4.95,3.794-6.625
	c1.12-2.881-4.637-1.13-7.288,6.08C40.373,247.119,40.977,258.237,49.186,263.028z"/>
<path fill-rule="evenodd" clip-rule="evenodd" d="M62.084,297.905c6.396,3.246,14.359,1.488,12.884,0.164
	c-2.193-1.967-3.929,0.106-8.315-1.246c-6.157-1.898-12.36-9.466-8.681-20.014c1.583-4.538,6.382-5.886,6.747-8.384
	c0.197-1.353-5.651-1.353-10.311,10.729C52.154,284.997,55.688,294.659,62.084,297.905z"/>
<path fill-rule="evenodd" clip-rule="evenodd" fill="#DD2222" d="M83.191,301.196c0.27-0.248,0.316-1.361,1.143-0.902
	c0.67,0.373,2.037,2.792,2.649,3.155c0.695,0.412,1.282,0.153,1.384-0.03c0.504-0.907,0.389-1.738-0.393-2.833
	c-1.569-2.201-2.121-2.418-0.946-3.582c0.688-0.862,2.08-2.288,2.444-2.713c1.714,1.81,3.348,3.536,5.086,5.371
	c-1.7,2.483-5.021,6.989-5.885,7.35C87.308,307.201,84.102,301.784,83.191,301.196z"/>
<path fill-rule="evenodd" clip-rule="evenodd" fill="#DD2222" d="M47.19,266.621c0.63,0.595,1.329,0.946,1.022,1.313
	c-0.332,0.395-1.07,1.098-1.311,1.538c-0.415,0.757-0.325,1.521,0.411,2.072c0.749,0.56,1.446,0.444,2.054-0.275
	c0.665-0.787,1.348-1.558,1.99-2.297c1.136-0.085,1.737,0.102,2.536,1.051c0.196,0.251-2.271,4.939-2.957,5.164
	c-0.777,0.271-3.838-1.623-6.018-2.074c-0.488-0.154-0.922-1.121-0.62-1.568C45.369,269.958,45.043,268.92,47.19,266.621z"/>
<path fill-rule="evenodd" clip-rule="evenodd" fill="#DD2222" d="M109.188,220.191c0.622-0.691,5.3-1.893,5.894-1.533
	c0.162,0.129,0.404,0.575,0.473,0.712c1.001,1.995,0.653,4.232,1.141,6.327c0.178,0.764-0.356,1.246-1.158,1.455
	c-1.676,0.437-3.8,0.93-5.435,1.393c-0.699-0.747,0.053-1.56-0.025-2.291c-0.34-1.781-0.34-2.412,1.618-2.176
	c1.148-0.319,1.916-0.817,2.199-1.543c0.229-0.586,0.028-1.5-0.319-1.758c-0.477-0.354-3.729,0.888-4.172,0.367
	C109.197,220.904,108.868,220.552,109.188,220.191z"/>
<path fill-rule="evenodd" clip-rule="evenodd" fill="#DD2222" d="M124.858,269.281c2.36-1.196,2.571-1.129,3.857,0.234
	c0.475,0.503,0.845,1.124,1.38,1.544c0.57,0.446,1.324,0.514,1.963,0.098c0.611-0.397,0.556-1.011,0.303-1.621
	c-0.198-0.477-1.364-2.35-1.564-2.825c-0.153-0.362,0.731-0.812,0.959-0.541c0.972,1.234,1.878,2.938,2.697,4.182
	c0.414,0.629,0.132,1.395-0.596,1.759c-1.846,0.925-3.43,2.395-5.764,2.694C127.508,274.806,125.935,271.218,124.858,269.281z"/>
<path fill-rule="evenodd" clip-rule="evenodd" fill="#DD2222" d="M60.531,227.178c-0.108-1.114-0.023-6.987,0.731-7.843
	c0.685-0.36,4.751,0.541,6.584,1.458c-0.599,2.644-0.738,5.131-0.584,7.647c-1.39,0.361-2.104-0.364-2.208-1.352
	c-0.089-0.856,0.25-1.623,0.159-2.479c-0.211-1.97-1.258-2.537-3.129-1.849c-0.548,0.45-0.064,3.09-0.548,4.327
	C61.28,227.742,60.778,227.249,60.531,227.178z"/>
<ellipse fill-rule="evenodd" clip-rule="evenodd" cx="89.43" cy="257.817" rx="13.912" ry="13.726"/>
<ellipse fill-rule="evenodd" clip-rule="evenodd" fill="#FFDD11" cx="89.43" cy="257.817" rx="10.252" ry="10.115"/>
<ellipse fill-rule="evenodd" clip-rule="evenodd" cx="89.43" cy="257.817" rx="7.566" ry="7.465"/>
<ellipse fill-rule="evenodd" clip-rule="evenodd" fill="#FFDD11" cx="89.43" cy="257.817" rx="4.934" ry="4.868"/>
<path fill-rule="evenodd" clip-rule="evenodd" d="M329.453,30.856c2.226-0.014,3.699,1.424,3.685,4.436
	c-0.017,13.037-0.049,92.273,0,98.449c0.239,30.104-30.396,72.428-78.136,72.362c-47.741-0.066-78.14-43.881-78.125-72.362
	c-0.029-5.885-0.008-91.665,0-98.449c-0.015-3.13,1.001-4.449,3.454-4.436C189.165,30.906,325.177,30.844,329.453,30.856z"/>
<path fill-rule="evenodd" clip-rule="evenodd" fill="#FFDD11" d="M181.511,35.292h146.98c0,0,0,91.228,0,98.449
	c0,36.234-36.799,68.184-73.78,68.184c-37.764,0-73.213-34.835-73.2-68.184C181.514,125.078,181.511,35.292,181.511,35.292z"/>
<path fill-rule="evenodd" clip-rule="evenodd" d="M210.278,177.906c1.928-0.238,3.646-0.757,5.183-2.142
	c1.166-1.05,2.815-1.578,4.281-2.354c0.987,1.008,0.535,1.798-0.098,2.577c-2.548,3.137-2.731,4.827-0.83,8.166
	c0.347,0.609,0.651,1.216,0.809,1.901c0.186,0.805,0.615,1.423,1.568,1.701c0.746-0.655,1.638-1.2,0.96-2.516
	c-0.274-0.533-0.143-1.187,0.467-1.607c1.812-1.248,2.011-3.117,1.986-5.072c-0.013-1.021-0.002-2.044-0.002-3.155
	c1.517,0.592,1.312,1.87,1.451,2.892c0.257,1.883,0.709,3.533,2.694,4.4c1.589,0.695,0.559,1.877,0.29,2.815
	c2.058,1.313,2.473,1.202,3.379-0.698c1.337-2.802,1.254-5.441-0.666-8.003c-1.08-1.44-2.342-2.82-2.639-4.825
	c1.736-0.619,3.284,0.125,4.77,0.657c1.524,0.545,2.812,0.552,4.232-0.287c1.583-0.934,3.341-1.506,5.207-1.679
	c0.344-0.032,0.684-0.151,1.016-0.259c2.459-0.8,2.673-1.691,0.88-3.59c-0.17-0.18-0.291-0.406-0.504-0.711
	c1.429-0.912,3.022-0.88,4.54-1.129c3.033-0.498,6.007-1.188,8.756-2.621c0.692-0.36,1.527-0.605,1.54-1.571
	c0.015-1.132-1.02-1.279-1.756-1.672c-0.788-0.421-1.682-0.437-2.55-0.557c-4.098-0.568-5.948-3.696-4.602-7.522
	c1.247-3.542,3.44-6.068,7.029-7.509c3.043-1.223,5.971-2.73,9.057-4.16c0.088,0.49,0.235,0.77,0.158,0.965
	c-2.086,5.325,0.045,9.552,3.531,13.457c3.116,3.488,6.875,6.049,11.218,7.821c0.806,0.328,1.547,0.811,2.307,1.242
	c3.15,1.786,3.669,4.877,1.323,7.708c-1.454,1.755-3.229,3.198-5.125,4.385c-2.19,1.371-4.441,2.712-6.953,3.521
	c-1.287,0.414-2.335,0.388-3.279-0.757c-0.769-0.932-1.722-1.718-2.61-2.551c-1.402-1.316-2.81-2.595-4.992-2.377
	c-1.06,0.106-1.953-0.694-3.052-0.664c-0.916,0.024-1.736,0.139-2.463,0.862c0.303,1.321,1.294,1.906,2.515,2.074
	c0.081,0.29,0.187,0.46,0.156,0.602c-0.195,0.893-1.158,1.762-0.46,2.668c0.848,1.099,1.995,1.931,3.409,2.286
	c0.741,0.186,1.61-0.111,2.231,0.582c-0.294,0.8-0.919,0.573-1.501,0.483c-2.084-0.322-4.181-0.291-6.279-0.251
	c-1.611,0.03-2.607,0.806-3.171,2.258c-0.374,0.964-0.736,1.951-1.263,2.835c-0.623,1.047-0.679,1.94,0.263,2.784
	c0.971,0.87,1.951,0.381,2.517-0.352c0.971-1.258,1.988-0.58,3.001-0.554c0.064,0.331,0.176,0.6,0.118,0.641
	c-2.87,2.072-1.009,4.85-1.032,7.3c-0.011,0.993,1.227,1.099,1.813,0.494c0.957-0.989,2.05-1.401,3.35-1.622
	c0.808-0.137,1.268-0.835,1.773-1.454c0.82-1.001,1.679-1.996,2.649-2.85c1.034-0.909,2.216-1.651,3.4-2.514
	c1.784,1.436,0.724,3.174,0.154,4.25c-0.851,1.605-0.578,2.767,0.612,3.593c0.951,0.66,0.461,1.597,1.03,2.353
	c0.991,0.217,2.009,0.497,2.553-0.865c0.197-0.493,0.557-0.817,1.039-1.103c1.736-1.026,2.137-1.897,1.351-3.773
	c-0.589-1.405-0.473-2.839-0.968-4.274c2.26-0.927,4.134,0.082,5.639,0.914c2.441,1.349,4.129,1.213,6.448-0.437
	c3.818-2.719,8.069-4.841,12.083-7.304c1.474-0.904,2.808-2.04,3.808-3.512c-0.505-1.756-1.973-2.137-3.686-2.622
	c2.386-1.912,5.08-2.694,7.635-3.477c1.587-0.486,2.362-1.289,2.75-2.575c0.409-1.367-1.217-1.434-1.973-2.318
	c1.484-1.103,2.894-2.197,4.356-3.214c0.775-0.538,1.396-1.125,1.182-2.11c-0.235-1.099-1.118-1.483-2.154-1.553
	c-0.522-0.035-1.054-0.019-1.576,0.032c-6.299,0.606-10.852-2.49-14.729-6.87c-1.653-1.869-2.99-3.959-4.048-6.264
	c-1.799-3.917-2.354-7.249-0.587-11.648c1.812,0.195,3.771,0.144,5.558,0.666c2.244,0.655,4.519,0.127,6.735,0.608
	c0.944,0.205,1.561-0.669,2.37-0.969c2.189-0.812,4.365-1.602,6.143-3.308c2.036-1.954,3.341-4.181,3.867-6.891
	c0.804-4.113,0.517-8.116-0.546-12.212c-1.388-5.356-2.869-10.651-5.131-15.717c-1.337-2.993-2.398-6.135-4.018-8.969
	c-1.887-3.303-3.322-6.79-4.949-10.197c-1.486-3.118-1.578-6.543-1.72-9.892c-0.058-1.368,0.476-2.884,1.824-3.766
	c5.369,2.888,11.013,3.321,16.745,2.19c2.897-0.572,5.238-2.298,6.35-5.228c0.253-0.662,0.45-1.321-0.388-1.989
	c-2.111,1.258-4.349,2.526-7.165,0.747c5.045-2.261,7.93-6.266,9.181-11.219c0.955-3.78,0.066-6.356-2.086-9.637
	c-1.03,0.193-1.474,0.972-1.973,1.805c-1.147,1.918-2.261,3.776-4.424,4.963c-3.243,1.778-3.299,1.987-7.365,1.866
	c1.045-1.892,2.72-2.834,4.531-3.467c0.868-0.302,1.534-0.795,2.24-1.286c0.549-0.382,0.793-0.908,0.56-1.582
	c-0.251-0.734-0.696-1.016-1.549-1.074c-3.68-0.251-7.189,0.438-10.396,2.103c-1.567,0.815-3.203,1.544-4.634,2.771
	c-3.87,3.316-5.663,7.328-5.247,12.326c0.07,0.837-0.185,1.478-0.668,2.15c-4.215,5.843-4.082,12.252-2.457,18.847
	c0.711,2.886,2.215,5.417,3.525,8.054c3.034,6.114,7.155,11.642,9.776,17.979c1.949,4.707,2.883,9.526,2.458,14.604
	c-0.218,2.61-1.688,4.683-2.889,6.875c-0.12,0.217-0.323,0.405-0.526,0.559c-3.92,2.988-10.483,2.918-14.533-0.108
	c-1.077-0.804-1.268-2.021-1.718-3.129c-1.465-3.621-3.396-6.946-6.405-9.552c-0.653-0.565-1.398-1.043-2.152-1.475
	c-2.996-1.717-5.583-3.994-8.414-5.937c-0.195-0.133-0.291-0.404-0.474-0.672c1.382-0.769,2.926-0.651,4.322-1.085
	c0.411-0.127,0.889-0.07,1.287-0.22c1.512-0.566,1.966-2.007,0.728-3.023c-1.539-1.262-2.107-3.132-3.429-4.513
	c-0.677-0.708-1.113-1.75-0.828-2.907c0.86-0.241,1.563,0.104,2.115,0.651c0.928,0.918,1.777,0.464,2.59-0.077
	c0.865-0.578,0.865-1.458,0.537-2.326c-0.336-0.889-0.779-1.739-1.126-2.625c-1.206-3.079-1.673-6.267-1.538-9.661
	c2.57-0.27,3.45,2.764,5.922,2.644c0.977-1.592,0.066-3.081-0.527-4.382c-1.081-2.375-1.045-4.678-0.953-7.228
	c0.066-1.824,0.066-3.843-0.293-5.776c-0.54-2.905-1.319-5.725-2.296-8.498c-0.429-1.213-0.19-2.113,0.362-3.341
	c2.135-4.749,1.239-11.515-6.356-12.338c-1.05-0.114-2.123-0.12-3.091-0.533c-3.966-1.697-8.191-1.565-12.367-1.795
	c-1.563-0.086-2.943,0.303-4.069,1.43c-1.542,1.544-3.373,1.902-5.536,1.613c-1.898-0.254-3.847-0.115-5.773-0.166
	c-1.132-0.03-2.035,0.625-2.207,1.522c-0.426,2.226-1.371,4.569,0.515,6.663c0.404,0.449,0.789,0.957,1.023,1.503
	c0.606,1.413,1.839,1.884,3.162,1.837c2.27-0.081,4.211,1.008,6.303,1.179c0.053,0.581-0.162,0.685-0.428,0.685
	c-6.882-0.007-13.528-1.189-19.873-3.889c-2.681-1.14-4.56-3.146-6.179-5.444c-0.244-0.347-0.316-0.821-0.826-0.969
	c-1.622,0.643-2.16,1.482-1.672,3.035c0.58,1.846,1.529,3.603,3.188,4.639c5.407,3.377,11.244,5.476,17.752,5.626
	c3.646,0.085,7.282,0.525,11.461,0.847c-1.664,1.114-3.092,1.252-4.452,1.285c-1.829,0.044-3.673,0.228-5.505-0.082
	c-0.86-0.145-1.881-0.346-2.255,0.711c-0.319,0.902-0.199,1.897,0.44,2.703c1.447,1.825,3.516,2.29,5.78,1.338
	c1.974-0.83,2.937-0.767,5.089,0.41c-1.172,2.587-3.404,3.909-5.898,4.925c-0.391,0.16-0.908,0.071-1.253,0.281
	c-4.474,2.706-9.589,4.146-14.126,7.182c-0.485-1.562-1.667-2.284-2.81-3.052c-2.238-1.503-4.52-2.951-6.687-4.549
	c-1.53-1.127-2.922-2.441-4.337-3.714c-1.563-1.405-3.191-2.673-5.221-3.391c-2.469-0.872-4.343-2.362-5.594-4.757
	c-1.247-2.388-2.387-4.806-3.306-7.324c-0.793-2.177-0.677-4.42-0.196-6.641c0.313-1.45,0.525-2.879,0.101-4.475
	c-2.618-0.342-2.917-3.781-5.652-4.151c-0.917,0.836-1.57,1.681-0.943,2.954c0.196,0.399,0.233,0.832,0.011,1.247
	c-1.481,2.776-0.951,5.436,0.45,8.061c0.28,0.523,0.444,1.107,0.797,2.009c-1.877-0.443-3.236-1.386-4.536-2.198
	c-1.639-1.023-3.445-1.292-5.204-1.618c-2.447-0.452-3.634,1.166-3.061,3.785c0.881,0.333,1.341-0.787,2.316-0.571
	c0.511,0.154,0.456,0.71,0.553,1.216c0.435,2.281,1.619,3.466,3.943,3.812c1.43,0.213,2.884,0.276,4.295,0.404
	c0.118,0.983-0.513,0.933-0.994,0.963c-0.786,0.05-1.586,0.113-2.363,0.023c-2.71-0.311-5.139,0.688-7.598,1.528
	c-0.841,0.287-1.624,0.744-1.494,1.85c0.15,1.279,1.071,1.403,1.992,1.267c0.86,0.605-0.008,1.892,1.183,2.225
	c0.876,0.245,1.49-0.295,2.221-0.542c1.986-0.672,4.003-1.254,6.005-1.883c0.925-0.291,1.749-0.388,2.069,0.991
	c-1.417,1.492-3.64,1.781-5.272,3.031c-0.548,0.42-1.209,0.71-1.601,1.301c-0.64,0.966-1.358,1.762-2.606,1.992
	c-0.733,0.135-1.313,0.67-1.229,1.462c0.086,0.809,0.491,1.486,1.496,1.493c1.02,0.007,1.826,0.594,2.658,1.045
	c1.325,0.72,2.352,0.419,3.205-0.709c0.729-0.962,1.548-1.844,2.113-2.945c0.537-1.048,1.128-2.174,2.469-2.567
	c1.143,0.341,1.104,1.198,0.905,2.079c-0.211,0.937-0.66,1.761-1.244,2.545c-0.678,0.909-0.665,1.964,0.525,2.326
	c3.514,1.068,4.838,4.012,6.339,6.837c0.69,1.301,1.288,2.653,2.041,3.917c1.117,1.875,2.079,1.834,3.142-0.06
	c0.165-0.293,0.238-0.637,0.371-1.006c1.202,1.721,2.558,5.807,2.61,7.837c0.027,1.036-0.016,2.075,0.042,3.109
	c0.036,0.643,0.378,1.173,1.051,1.338c0.732,0.178,1.384,0.054,1.787-0.694c0.328-0.608,0.754-1.17,1.045-1.794
	c0.472-1.016,0.619-2.197,1.422-3.039c0.779-0.819,1.062-1.909,1.722-2.803c0.093,2.072-1.066,3.684-2.008,5.34
	c-0.424,0.747-0.956,1.417-1.219,2.263c-0.432,1.386-1.313,2.322-2.748,2.88c-1.053,0.41-2.333,0.883-2.166,2.672
	c3.161,0.523,6.102,1.849,9.298,1.836c0.173,0.947-0.371,1-0.892,1.138c-2.194,0.583-4.359,1.282-6.576,1.762
	c-1.928,0.418-3.336,1.846-5.223,2.334c-1.186,0.307-2.317,0.674-3.579,0.689c-2.156,0.024-3.608-0.667-4.468-2.795
	c-0.866-2.144-2.557-3.885-3.303-6.151c-0.386-1.174-1.393-1.943-2.792-2.051c-1.944-0.149-3.613-1.331-5.562-1.505
	c-0.797-0.071-1.409,0.127-1.575,0.975c-0.14,0.715,0.281,1.139,0.906,1.387c0.325,0.129,0.671,0.203,0.996,0.329
	c0.321,0.124,0.978,0.095,1.015,0.462c-0.066,4.938,4.109,6.777,7.077,9.883c0.87,0.861-1.921,0.683-2.829,0.483
	c-1.448-0.318-2.871-0.748-4.318-1.072c-1.496-0.336-2.811-0.008-4.365,0.751c-1.812,0.886-3.449,3.652-3.016,4.216
	c0.423,0.549,3.427-1.128,3.975-0.677c0.915,0.752,0.023,1.239,0.799,1.555c1.896,0.451,2.816,0.064,4.614-0.158
	c1.396-0.172,4.409-0.361,4.523,0.045c0.137,0.564-3.298,2.683-4.715,3.923c-1.094,0.958-2.086,1.768-2.149,3.292
	c-0.048,1.167-0.967,2.019-1.166,3.138c-0.139,0.785-0.329,1.592,0.516,2.089c0.8,0.471,1.508,0.301,2.001-0.525
	c0.19-0.318,0.479-0.518,0.854-0.503c2.818,0.115,3.998-2.173,5.641-3.758c1.155-1.114,2.181-2.366,3.867-3.374
	c-0.114,1.916,0.354,3.551-0.575,5.051c-0.715,1.152,0.391,2.157,0.241,3.134c-0.188,0.688-0.702,0.887-1.133,1.173
	c-0.731,0.488-0.744,1.12-0.323,1.799c0.447,0.723,1.173,0.922,1.777,0.396c0.735-0.64,1.478-0.592,2.365-0.676
	c2.132-0.203,3.787-2.731,3.481-5.074c-0.144-1.106-0.468-2.191-0.729-3.281c-0.16-0.667-0.435-1.33,0.103-1.954
	c0.626-0.313,1.012,0.037,1.324,0.481c0.55,0.782,1.13,1.551,1.585,2.385c0.664,1.215,1.614,1.685,3.007,1.592
	c3.313-0.221,6.62-0.637,9.955-0.192c1.115,0.149,1.822-0.442,1.875-1.644c0.022-0.502-0.222-1.025,0.179-1.626
	c2.255,0.517,4.304,1.673,6.479,2.488c0.572,0.214,1.115,0.534,1.704,0.665c1.388,0.309,2.236-0.273,2.331-1.663
	c0.064-0.937,0.153-1.892-0.137-2.835c-0.224-0.73-0.368-1.494-0.147-2.57c2.48,0.856,4.922,1.477,7.163,2.518
	c4.607,2.14,9.322,3.316,14.448,2.748c2.431-0.27,2.691-0.072,4.212,1.368c0.018,0.162,0.107,0.37,0.039,0.489
	c-1.212,2.098-0.953,2.873,1.422,3.359c1.589,0.326,3.005,0.886,4.366,1.896c-0.146,1.091-0.939,1.523-1.893,1.799
	c-4.771,1.383-9.436,3.202-14.589,2.775c-2.004-0.166-4.031-0.205-5.983-0.65c-2.155-0.492-3.985,0.083-5.691,1.25
	c-3.232,2.212-5.286,5.464-7.56,8.513c-1.702,2.282-1.491,4.873-1.177,7.48c0.313,2.603,1.162,5.069,2.305,7.385
	c1.099,2.223,0.316,3.937-1.259,5.237c-2.406,1.987-5.01,3.626-8.391,3.851c-2.847,0.189-5.14-0.657-7.202-2.41
	c-0.528-0.449-1.093-0.869-1.588-1.332c-1.882-1.758-3.709-2.53-6.346-1.2c-1.371,0.693-3.235,0.45-4.733,1.256
	c-0.47,0.253-1.026,0.395-0.98,1.039c0.056,0.793,0.741,0.85,1.339,0.98c0.983,0.215,1.891-0.185,2.784-0.386
	c1.056,0.49,1.208,1.5,1.563,2.35c0.73,1.745,1.875,2.826,3.918,2.786c1.906-0.038,3.775,0.271,5.829,0.84
	c-0.906,0.621-1.677,1.073-2.706,1.027c-1.147-0.051-2.281,0.16-3.342,0.561c-1.614,0.61-3.104,1.379-2.646,3.541
	c0.114,0.536-0.13,1.015-0.361,1.486c-0.152,0.311-0.321,0.622-0.42,0.95c-0.47,1.552-0.201,2.462,0.878,2.855
	c1.402,0.511,1.853-0.467,2.262-1.475L210.278,177.906z"/>
<g>
	<path fill-rule="evenodd" clip-rule="evenodd" fill="#FFFFFF" d="M225.955,227.863c0.898,0,1.634,0.735,1.634,1.634v13.501
		c0,0.898,0.735,1.634,1.634,1.634h14.276c0.898,0,1.634-0.735,1.634-1.634v-13.501c0-0.898,0.735-1.634,1.633-1.634h16.47
		c0.898,0,1.634,0.735,1.634,1.634v13.501c0,0.898,0.735,1.634,1.634,1.634h14.275c0.898,0,1.634-0.735,1.634-1.634v-13.501
		c0-0.898,0.735-1.634,1.634-1.634h16.47c0.898,0,1.634,0.735,1.634,1.634v13.501c0,0.898,0.735,1.634,1.634,1.634h14.276
		c0.898,0,1.634-0.735,1.634-1.634v-13.501c0-0.898,0.735-1.634,1.634-1.634h16.469c0.898,0,1.634,0.735,1.634,1.634v36.22
		c0,0.898-0.735,1.634-1.634,1.634H172.205c-0.898,0-1.634-0.735-1.634-1.634v-36.22c0-0.898,0.735-1.634,1.634-1.634h16.469
		c0.898,0,1.634,0.735,1.634,1.634v13.501c0,0.898,0.735,1.634,1.634,1.634h14.276c0.898,0,1.634-0.735,1.634-1.634v-13.501
		c0-0.898,0.735-1.634,1.634-1.634H225.955z"/>
</g>
<g>
	<path fill-rule="evenodd" clip-rule="evenodd" fill="#FFFFFF" d="M184.825,273.312c0-0.898,0.735-1.634,1.634-1.634h137.083
		c0.898,0,1.634,0.735,1.634,1.634v32.975c0,0.898-0.735,1.634-1.634,1.634H186.459c-0.898,0-1.634-0.735-1.634-1.634V273.312z"/>
</g>
<g>
	<path fill-rule="evenodd" clip-rule="evenodd" fill="#FFFFFF" d="M186.459,313.871c-0.898,0-1.634-0.487-1.634-1.082
		c0-0.595,0.735-1.082,1.634-1.082h137.083c0.898,0,1.634,0.487,1.634,1.082c0,0.595-0.735,1.082-1.634,1.082H186.459z"/>
</g>
<g>
	<path fill-rule="evenodd" clip-rule="evenodd" fill="#FFFFFF" d="M323.542,317.116c0.898,0,1.634,0.735,1.634,1.634v75.167
		c0,0.898-0.735,1.634-1.634,1.634H304.88c-0.898,0-1.634,0.735-1.634,1.634v15.665c0,0.898-0.735,1.634-1.634,1.634H282.95
		c-0.898,0-1.634-0.735-1.634-1.634v-15.665c0-0.898-0.735-1.634-1.634-1.634h-49.364c-0.898,0-1.634,0.735-1.634,1.634v15.665
		c0,0.898-0.735,1.634-1.634,1.634h-18.663c-0.898,0-1.634-0.735-1.634-1.634v-15.665c0-0.898-0.735-1.634-1.634-1.634h-18.662
		c-0.898,0-1.634-0.735-1.634-1.634V318.75c0-0.898,0.735-1.634,1.634-1.634H323.542z"/>
</g>
<path fill-rule="evenodd" clip-rule="evenodd" fill="#FFFFFF" d="M419.255,29.335c3.645,0,6.324,2.327,7.883,3.989
	c3.506,3.74,2.309,10.793,0.576,10.51c-4.701-0.797-10.595-0.82-15.976-0.214c-1.652,0.222-2.09-1.023-2.458-2.566
	c-1.013-4.245,1.432-7.446,2.42-8.609C413.374,30.476,416.661,29.335,419.255,29.335z"/>
<path fill-rule="evenodd" clip-rule="evenodd" d="M425.967,42.229c1.433-1.828,1.576-2.89,0.351-6.98
	c-1.225-4.089-5.792-3.011-6.136-2.66c-0.344,0.352-0.269,1.433,0.045,1.925c0.982,1.537,0.522,3.515-0.047,4.104
	s-0.136,1.558,0.602,1.982c1.012,0.583,3.127,1.659,3.63,1.822C424.932,42.59,425.343,42.834,425.967,42.229z"/>
<path fill-rule="evenodd" clip-rule="evenodd" fill="#FFFFFF" d="M472.635,99.122c-1.487,0-6.133,0-7.656,0
	c-0.876,0-1.097,0.302-1.097,1.623c0,1.949,0,9.717,0,12.353c0,0.735-0.311,1.17-1.097,1.17c-3.291,0-9.92,0-13.157,0
	c-0.908,0-1.097-0.391-1.097-1.082c0-2.16,0-10.85,0-12.982c0-0.747-0.242-1.082-1.151-1.082c-3.014,0-15.145,0-19.682,0
	c-0.962,0-1.097,0.42-1.097,1.082c0,3.801-0.009,10.279,0,12.982c0.002,0.686-0.362,1.082-1.097,1.082c-2.212,0-9.136,0-13.158,0
	c-1.066,0-1.097-0.168-1.097-1.082c0-1.825,0-9.945,0-12.982c0-0.801-0.311-1.082-1.096-1.082c-2.651,0-18.517,0-19.737,0
	c-0.808,0-1.097,0.251-1.097,1.082c0,2.059,0,11.374,0,12.982c0,0.61-0.559,1.082-1.097,1.082c-2.135,0-10.988,0-13.157,0
	c-0.825,0-1.097-0.273-1.097-1.082c0-1.693,0-11.278,0-12.982c0-0.797-0.225-1.082-1.097-1.082c-1.309,0-6.187,0-7.676,0
	c-0.841,0-1.003-0.307-0.974-1.697c-0.122-9.58,11.183-50.448,54.702-50.448c41.596,0,54.824,38.298,54.694,50.333
	C473.633,98.984,473.354,99.122,472.635,99.122z"/>
<g>
	<path fill-rule="evenodd" clip-rule="evenodd" fill="#FFFFFF" d="M468.806,103.449c-0.898,0-1.634,0.735-1.634,1.634v10.796
		c0,0.898-0.735,1.634-1.634,1.634h-18.663c-0.898,0-1.634-0.735-1.634-1.634v-10.796c0-0.898-0.735-1.634-1.634-1.634h-12.083
		c-0.898,0-1.634,0.735-1.634,1.634v10.796c0,0.898-0.735,1.634-1.634,1.634h-18.662c-0.898,0-1.634-0.735-1.634-1.634v-10.796
		c0-0.898-0.735-1.634-1.634-1.634h-12.083c-0.898,0-1.634,0.735-1.634,1.634v10.796c0,0.898-0.735,1.634-1.634,1.634h-18.663
		c-0.898,0-1.634-0.735-1.634-1.634v-10.796c0-0.898-0.735-1.634-1.634-1.634h-12.083c-0.898,0-1.634,0.735-1.634,1.634v34.597
		c0,0.898,0.735,1.634,1.634,1.634h123.926c0.898,0,1.634-0.735,1.634-1.634v-34.597c0-0.898-0.735-1.634-1.634-1.634H468.806z"/>
</g>
<g>
	<path fill-rule="evenodd" clip-rule="evenodd" fill="#FFFFFF" d="M367.999,171.606c-0.898,0-1.634-0.735-1.634-1.634v-22.697
		c0-0.898,0.735-1.634,1.634-1.634h104.666c0.898,0,1.634,0.735,1.634,1.634v22.697c0,0.898-0.735,1.634-1.634,1.634H367.999z"/>
</g>
<path fill-rule="evenodd" clip-rule="evenodd" fill="#FFFFFF" d="M366.365,326.312v-33.796c0,0,15.785,30.551,53.657,30.551
	c38.649,0,54.276-31.63,54.276-31.63v34.875H366.365z"/>
<g>
	<path fill-rule="evenodd" clip-rule="evenodd" fill="#FFFFFF" d="M377.808,412.85c0,0.898-0.735,1.634-1.634,1.634h-8.175
		c-0.898,0-1.634-0.735-1.634-1.634v-85.985c0-0.898,0.735-1.634,1.634-1.634h104.666c0.898,0,1.634,0.735,1.634,1.634v67.053
		c0,0.898-0.735,1.634-1.634,1.634h-18.662c-0.898,0-1.634,0.735-1.634,1.634v15.665c0,0.898-0.735,1.634-1.634,1.634h-18.662
		c-0.898,0-1.634-0.735-1.634-1.634v-15.665c0-0.898-0.735-1.634-1.634-1.634h-49.364c-0.898,0-1.634,0.735-1.634,1.634V412.85z"/>
</g>
<path fill-rule="evenodd" clip-rule="evenodd" fill="#FFDD11" d="M477.588,174.852v69.78c0,0-6.102-0.003-8.667,0
	c-0.571-2.045,0.264-3.856,0.647-5.601c0.817-3.712,0.04-7.25-0.565-10.795c-0.919-5.358-2.874-10.467-4.303-15.702
	c-1.018-3.726-1.872-7.548-1.084-11.479c1.416-1.598,3.768-1,5.403-2.34c1.459-1.194,3.298-1.976,4.452-3.53
	c1.152-1.551,2.971-2.698,3.294-4.998c-1.332-0.571-2.533-0.695-3.668,0.23c-0.754,0.613-1.393,0.628-2.054-0.219
	c1.899-3.444,4.942-6.708,2.438-11.44c-2.803,3.021-5.73,5.382-9.635,6.553c-0.361-1.103,0.334-1.651,0.88-2.283
	c0.448-0.516,1.032-1.091,0.504-1.827c-0.589-0.822-1.39-0.484-2.133-0.193c-0.326,0.127-0.696,0.219-0.947,0.437
	c-2.621,2.277-6.673,7.392-5.206,12.269c0.594,1.976,0.838,4.04,1.527,6.02c0.402,1.156,0.304,2.573,0.109,3.823
	c-0.429,2.725-0.014,5.323,0.758,7.913c0.641,2.154,1.12,4.358,1.75,6.506c0.722,2.467,1.657,4.875,2.302,7.38
	c1.034,4.025,0.792,8.104,0.33,12.119c-0.271,2.331-1.185,4.641-3.253,6.308c-0.808,0.65-1.479,1.105-2.511,0.989
	c-0.433-0.048-0.891-0.092-1.311-0.009c-3.964,0.782-7.05-1.028-10.089-3.17c-5.565-3.924-10.483-8.521-15.034-13.636
	c2.016-0.282,2.097-0.316,3.401,0.974c0.614,0.609,1.216,1.062,2.052,0.733c1.02-0.402,1.009-1.277,0.831-2.192
	c-0.181-0.93-0.334-1.867-0.45-2.807c-0.19-1.551-0.357-3.109,0.662-4.348c0.44-0.303,0.754-0.226,1.109-0.134
	c1.944,0.502,2.28,0.315,2.16-1.515c-0.094-1.45,0.229-2.923-0.379-4.362c-0.295-0.704-0.144-1.527,0.655-2.015
	c0.928,0.779,0.857,2.585,2.542,2.516c0.407-0.266,0.639-0.588,0.533-0.924c-0.833-2.634-0.182-5.175,0.722-7.59
	c1.037-2.775,1.705-5.62,2.33-8.489c0.242-1.108,0.653-2.11,1.369-3.044c2.404-3.145,2.004-5.949-1.146-8.463
	c-0.471-0.375-1.074-0.578-1.366-1.167c-1.25-2.523-3.853-3.377-6.056-4.708c-0.739-0.447-1.678-0.602-2.364-1.102
	c-2.737-1.986-5.712-2.092-8.731-1.018c-1.716,0.609-3.287,0.852-5.065,0.313c-1.445-0.438-2.957-0.169-4.39,0.319
	c-0.405,0.138-1.016,0.29-1.118,0.579c-0.503,1.405-0.443,2.887-0.086,4.306c0.26,1.021,1.129,1.373,2.183,1.564
	c1.777,0.323,3.538,0.793,5.009,2.003c-3.983-0.935-8.039-0.99-12.074-1.308c-3.548-0.28-6.887-1.301-9.118-4.403
	c-0.515-0.716-1.138-1.526-2.121-0.828c-0.884,0.626-1.025,1.63-0.485,2.562c1.002,1.732,2.235,3.322,3.84,4.543
	c3.334,2.539,7.24,2.533,11.179,2.225c0.426-0.033,0.833-0.252,1.364,0.196c0.262,1.155-0.214,2.417-0.182,3.644
	c1.188,2.283,4.461,0.965,5.649,3.221c-0.292,1.086-1.154,0.912-1.921,0.897c-3.236-0.061-6.387,0.442-9.516,1.249
	c-1.246,0.32-2.278,0.803-3.122,1.753c-0.4,0.454-0.881,0.845-1.35,1.234c-1.494,1.243-2.897,1.657-4.983,0.795
	c-4.438-1.835-8.652-4.037-12.834-6.35c-2.71-1.498-5.288-3.175-7.854-4.885c-1.827-1.218-2.178-2.143-1.208-4.128
	c0.497-1.017,0.81-2.089,1.298-3.1c0.497-1.032,0.447-2.181-0.454-2.854c-0.867-0.647-1.996-1.089-3.187-0.493
	c-1.097,0.549-1.842,1.283-1.729,2.622c0.077,0.908,0.476,1.91-0.621,2.644c-0.812-0.004-1.064-0.732-1.433-1.27
	c-0.792-1.155-1.691-2.216-2.777-3.098c-0.968-0.787-2.114-0.865-3.208-0.307c-1.045,0.533-1.393,1.598-1.335,2.644
	c0.061,1.127,0.418,2.188,1.759,2.614c1.989,0.631,3.767,1.639,5.416,3.188c-1.705,0.77-3.14,0.18-4.48-0.25
	c-1.383-0.445-2.546-0.303-3.838,0.485c-0.286,1.394-0.505,2.778,0.983,3.863c1.495,1.087,2.818-0.554,4.38-0.181
	c-0.114,1.133-1.176,1.669-1.57,2.596c-0.476,1.122-0.797,2.079,0.193,3.072c0.921,0.927,1.869,1.569,3.223,0.81
	c0.293-0.164,0.657-0.206,0.951-0.293c0.74-0.911,0.306-2.107,0.938-2.969c3.037,0.652,4.245,2.892,4.981,5.579
	c0.274,0.998,0.673,1.967,1.077,2.923c0.73,1.722,1.028,1.791,2.621,0.66c0.283-0.202,0.522-0.45,1.057-0.416
	c2.045,1.924,1.058,5.976,4.431,7.049c0.689-0.138,0.876-0.52,1.073-0.917c0.147-0.299,0.372-0.562,0.564-0.844
	c2.405,1.728,2.429,3.02,0.154,4.357c-0.227,0.133-0.437,0.29-0.661,0.424c-0.718,0.434-1.771,0.655-1.418,1.837
	c0.302,1,1.221,0.789,1.987,0.832c1.463,0.083,3-0.042,3.985,1.347c-0.056,0.617-0.548,0.724-0.944,0.797
	c-4.321,0.805-8.678,1.104-13.067,0.767c-1.305-0.1-2.249-0.619-2.851-1.917c-0.722-1.56-1.791-2.937-2.305-4.635
	c-0.347-1.144-1.199-2.102-2.298-2.746c-0.655-0.384-1.313-0.466-1.964,0.013c-0.604,0.445-0.96,1.009-0.822,1.781
	c0.201,1.141,0.732,2.114,1.548,2.95c0.894,0.919,1.793,1.843,2.281,3.428c-1.814-0.445-3.42-0.63-4.637-1.841
	c-0.869-0.868-1.713-0.65-2.578-0.024c-1.247,0.903-1.594,2.044-1.105,3.405c0.407,1.129,1.246,1.387,2.303,1.168
	c1.833-0.38,3.585-0.352,5.465,0.674c-2.285,2.603-5.014,0.204-7.229,1.055c-0.604,0.755-0.752,1.581-0.761,2.463
	c-0.023,2.302,1.373,3.281,3.393,2.092c1.364-0.802,2.758-0.968,4.215-1.183c0.514-0.076,0.835,0.117,1.158,0.597
	c-0.533,0.872-1.33,1.721-2.268,1.952c-1.881,0.462-2.26,1.873-2.773,3.25c0.74,1.564,1.989,1.874,3.51,1.749
	c1.007-0.083,1.788-0.546,1.932-1.459c0.409-2.643,2.082-3.804,4.688-4.176c1.142,1.057,2.686,1.676,3.742,3.059
	c1.04,1.36,2.394,1.312,3.51-0.139c1.06-1.379,1.946-1.29,3.321-0.553c1.531,0.82,3.179,1.414,4.696,2.303
	c2.067,1.213,2.425,1.06,3.988-0.975c0.314-0.41,0.655-0.8,0.934-1.14c1.519,0.349,2.713,0.8,3.899,1.379
	c1.565,0.764,3.2,1.439,4.943,1.723c0.732,0.118,1.317,0.313,1.724,0.994c1.84,3.08,4.985,3.936,8.22,4.322
	c3.142,0.375,6.2,0.952,9.15,2.064c0.233,0.089,0.47,0.251,0.416,0.729c-0.06,0.296-0.21,0.35-1.215,0.35c-4.14,0-64.841,0-64.841,0
	v-69.78H477.588z"/>
<path fill-rule="evenodd" clip-rule="evenodd" fill="#FFFFFF" d="M363.045,260.892c6.587,9.528,32.94,47.644,38.212,55.27
	C388.771,311.707,363.414,298.671,363.045,260.892z"/>
<path fill-rule="evenodd" clip-rule="evenodd" fill="#DD2222" d="M423.621,319.17c-4.695,0.429-13.023-0.332-16.884-1.425
	c-3.413-5.019-43.804-63.391-43.804-63.391v-6.477c0,0,9.938-0.002,11.398,0C377.181,251.998,421.601,316.247,423.621,319.17z"/>
<path fill-rule="evenodd" clip-rule="evenodd" fill="#FFFFFF" d="M378.763,247.877c3.388-0.002,12.372,0,15.854,0
	c4.112,5.949,45.902,66.367,46.637,67.456c-4.535,1.775-9.207,2.862-13.523,3.438C424.739,314.443,382.482,253.323,378.763,247.877z
	"/>
<path fill-rule="evenodd" clip-rule="evenodd" fill="#DD2222" d="M455.844,307.095c-2.381,1.967-7.957,5.406-11.198,6.799
	c-3.639-5.263-41.212-59.608-45.598-66.019c3.562-0.002,13.521,0.002,15.854,0.002C419.333,254.286,451.581,300.931,455.844,307.095
	z"/>
<path fill-rule="evenodd" clip-rule="evenodd" fill="#FFFFFF" d="M419.333,247.875c2.467,0,12.801,0,15.853,0
	c4.211,6.091,29.181,42.208,32.455,46.944c-1.933,2.861-5.743,7.111-9.003,9.974C453.184,296.904,423.312,253.698,419.333,247.875z"
	/>
<path fill-rule="evenodd" clip-rule="evenodd" fill="#DD2222" d="M439.618,247.875c2.147-0.002,12.977,0.003,15.854,0.003
	c2.933,4.24,16.892,24.433,20.494,29.642c-1.349,4.924-3.816,10.311-6.182,14.055C465.698,285.666,444.526,255.042,439.618,247.875z
	"/>
<path fill-rule="evenodd" clip-rule="evenodd" fill="#FFFFFF" d="M477.588,247.877c0,4.409,0,15.701,0,21.81
	c0,0.907-0.345,2.323-0.493,3.121c-4.336-6.271-13.54-19.584-17.239-24.934C466.051,247.874,471.896,247.877,477.588,247.877z"/>
<g>
	<path fill-rule="evenodd" clip-rule="evenodd" fill="#FFFFFF" d="M158.509,401.513c0-0.898,0.735-1.634,1.634-1.634h40.592
		c0.898,0,1.634,0.735,1.634,1.634v15.664c0,0.898,0.735,1.634,1.634,1.634h27.434c0.898,0,1.634-0.735,1.634-1.634v-15.664
		c0-0.898,0.735-1.634,1.634-1.634h40.591c0.898,0,1.634,0.735,1.634,1.634v15.664c0,0.898,0.735,1.634,1.634,1.634h27.435
		c0.898,0,1.634-0.735,1.634-1.634v-15.664c0-0.898,0.735-1.634,1.634-1.634h40.592c0.898,0,1.634,0.735,1.634,1.634v15.664
		c0,0.898,0.735,1.634,1.634,1.634h27.435c0.898,0,1.634-0.735,1.634-1.634v-15.664c0-0.898,0.735-1.634,1.634-1.634h40.592
		c0.898,0,1.634,0.735,1.634,1.634v15.664c0,0.898,0.735,1.634,1.634,1.634h27.435c0.898,0,1.634-0.735,1.634-1.634v-15.664
		c0-0.898,0.735-1.634,1.634-1.634h34.771c0.898,0,1.468,0.716,1.266,1.592l-7.683,30.375c-0.248,0.863-1.187,1.57-2.085,1.57
		H276.919c-0.898,0-1.634-0.735-1.634-1.634v-7.551c0-0.898-0.735-1.634-1.634-1.634h-36.206c-0.898,0-1.634,0.735-1.634,1.634
		v7.551c0,0.898-0.735,1.634-1.634,1.634H25.345c-0.898,0-1.833-0.708-2.077-1.572l-7.705-30.37
		c-0.195-0.877,0.38-1.595,1.279-1.595h34.77c0.898,0,1.634,0.735,1.634,1.634v15.664c0,0.898,0.735,1.634,1.634,1.634h27.434
		c0.898,0,1.634-0.735,1.634-1.634v-15.664c0-0.898,0.735-1.634,1.634-1.634h40.592c0.898,0,1.634,0.735,1.634,1.634v15.664
		c0,0.898,0.735,1.634,1.634,1.634h27.434c0.898,0,1.634-0.735,1.634-1.634V401.513z"/>
</g>
<path fill-rule="evenodd" clip-rule="evenodd" fill="#FFFFFF" d="M459.496,420.434v-20.555c0,0,28.21,0,35.297,0
	c-0.964,7.294-6.492,28.075-8.502,33.537c-12.656,0-212.349,0-214.295,0c-1.558,0,1.879-4.532,1.155-6.491s-10.82-3.568-18.15-3.601
	c-7.153-0.031-16.199,1.627-16.93,3.601c-0.73,1.974,1.073,6.493-0.066,6.491c-6.81-0.023-210.827,0.009-214.294,0
	c-2.151-5.012-7.954-28.226-8.502-33.537c10.639,0,35.296,0,35.296,0v20.555H459.496z"/>
<path fill-rule="evenodd" clip-rule="evenodd" fill="#DD2222" d="M256.097,470.436c-14.938-0.006-25.972,14.992-25.969,28.974
	c0.001,7.693,0.001,72.326,0.001,97.86c8.178,0.819,16.476,1.237,24.873,1.237c9.145,0,18.167-0.513,27.051-1.483
	c0.01-25.094,0.031-86.978-0.004-97.614C282.067,481.709,270.833,470.43,256.097,470.436z"/>
<path fill-rule="evenodd" clip-rule="evenodd" fill="#FFFFFF" d="M57.001,493.595c-0.051-9.473-0.675-18.544-0.061-27.955
	c16.634-0.763,33.121-0.267,49.925-0.305c0.805,9.331,0.313,18.588,0.411,27.608c-0.573,0.668-1.105,0.788-1.622,0.786
	C89.546,493.709,73.436,494.034,57.001,493.595z"/>
<path fill-rule="evenodd" clip-rule="evenodd" fill="#FFFFFF" d="M375.061,497.001c16.304,0,32.325,0,48.629,0
	c0,9.642,0,19.057,0,28.43c-0.932,0.7-1.91,0.48-2.854,0.497c-6.191,0.114-12.378-0.015-18.565-0.102
	c-4.966-0.067-9.933,0.029-14.898,0.034c-3.397,0.004-6.796-0.045-10.194-0.03c-1.923,0.009-2.441-0.262-2.439-2.155
	c0.009-4.124-0.433-8.255,0.169-12.378c0.131-0.908-0.182-1.87-0.162-2.804C374.818,504.798,374.943,501.104,375.061,497.001z"/>
<path fill-rule="evenodd" clip-rule="evenodd" fill="#FFFFFF" d="M180.03,524.94c-3.602,1.269-7.03,0.584-10.385,0.748
	c-3.391,0.165-6.8-0.029-10.201-0.086c-4.439-0.074-8.883-0.047-13.316,0c-3.477,0.038-6.964-0.087-10.441,0.131
	c-0.429,0.025-0.875-0.138-1.298-0.089c-1.388,0.156-1.925-0.53-1.949-1.79c-0.043-2.239-0.027-4.481-0.144-6.717
	c-0.209-4.021,0.277-8.031-0.023-12.063c-0.197-2.639,0.42-5.297,0.247-7.989c2.245-0.824,4.375-0.852,6.404-0.69
	c2.452,0.191,4.863,0.055,7.287-0.104c1.928-0.125,3.815,0.271,5.745,0.274c8.295,0.019,16.588,0.325,24.885,0.067
	c1.039-0.031,2.033,0.387,3.313-0.036C180.188,506.278,180.465,515.644,180.03,524.94z"/>
<path fill-rule="evenodd" clip-rule="evenodd" fill="#FFFFFF" d="M398.029,528.85c0,3.355,0.002,6.711,0,10.068
	c-0.002,3.525-0.152,7.058,0.038,10.572c0.136,2.488,0.846,2.396-0.834,3.773c-0.396,0.327-4.362,3.043-5.307,3.672
	c-1.891,1.26-3.455,1.044-6.717,0.854c-6.073-0.355-12.184-0.157-18.281-0.065c-5.041,0.073-10.114-0.005-15.168-0.214
	c-1.454-0.06-1.752-0.454-1.639-2.318c0.205-3.361,0.293-6.721,0.058-10.076c-0.349-4.998,0.402-9.974,0.19-14.969
	c-0.063-1.496,0.512-1.866,2.157-1.854c7.945,0.051,15.888,0.108,23.833,0.125c6.543,0.015,13.088-0.023,19.63-0.023
	C396.5,528.396,397.049,528.33,398.029,528.85z"/>
<path fill-rule="evenodd" clip-rule="evenodd" fill="#FFFFFF" d="M397.828,466.221c0.334,9.068,0.081,18.279,0.115,27.156
	c-0.535,0.813-1.043,1.035-1.563,1.017c-4.977-0.197-9.949,0.122-14.931-0.013c-3.199-0.087-6.446-0.085-9.674,0.021
	c-3.467,0.114-6.971,0.182-10.446,0.042c-3.384-0.135-6.809,0.476-10.229-0.563c-0.869-1.97-1.122-23.252-0.244-27.894
	c0.262-0.112,0.574-0.361,0.887-0.361c15.027-0.011,30.053,0.002,45.078,0.017C397.186,465.642,397.5,465.785,397.828,466.221z"/>
<path fill-rule="evenodd" clip-rule="evenodd" fill="#FFFFFF" d="M83.852,524.911c-0.451-9.253-0.001-18.539-0.126-28.186
	c7.538-0.253,15.087-0.232,22.639-0.298c7.573-0.065,15.139,0.134,23.102,0.142c-0.316,9.729,0.645,19.381-0.338,29.05
	c-7.872,0-15.423-0.044-22.973,0.013c-6.7,0.051-13.403-0.537-20.102,0.091C85.26,525.799,84.519,525.486,83.852,524.911z"/>
<path fill-rule="evenodd" clip-rule="evenodd" fill="#FFFFFF" d="M155.917,557.487c-1.871,0-3.346,0-4.82,0
	c-7.341-0.006-14.683,0.007-22.024-0.027c-2.972-0.015-5.943-0.127-8.916-0.198c-1.251-0.032-2.109-0.319-3.138-1.04
	c-1.856-1.297-3.959-2.806-5.826-4.089c-1.063-0.729-1.419-1.525-1.395-2.736c0.119-5.774,0.197-11.552,0.304-17.326
	c0.022-1.2-0.068-2.426,0.644-3.804c14.929,0,29.972,0,45.19,0c0,5.057,0.019,9.912-0.005,14.771
	C155.907,547.802,156.444,552.583,155.917,557.487z"/>
<path fill-rule="evenodd" clip-rule="evenodd" fill="#FFFFFF" d="M401.088,493.702c0.019-9.271-0.328-18.575,0.252-28.008
	c14.973,0,29.886,0,44.83,0c0.567,1.861,0.45,3.497,0.508,5.111c0.237,6.642-0.364,13.284,0.036,19.926
	c0.03,0.505-0.135,1.022-0.225,1.532c-0.368,2.06-0.472,2.102-2.48,2.104c-6.639,0.006-13.282,0.111-19.916,0.044
	c-5.915-0.06-11.839,0.467-17.756-0.116C404.729,494.138,403.043,494.949,401.088,493.702z"/>
<path fill-rule="evenodd" clip-rule="evenodd" fill="#FFFFFF" d="M156.167,465.764c0.289,9.321-0.311,18.333,0.045,27.528
	c-2.572,0.728-4.995,0.681-7.366,0.604c-3.913-0.127-7.811,0.002-11.718,0.082c-2.22,0.045-4.474-0.27-6.72-0.232
	c-5.132,0.087-10.27-0.175-15.398,0.25c-1.485,0.124-2.941-0.18-4.752-0.52c-0.446-9.232-0.023-18.462,0.041-27.503
	c0.557-0.624,1.087-0.689,1.607-0.689c3.311-0.011,6.622,0.009,9.932,0c4.093-0.013,8.19-0.165,12.278-0.038
	c5.022,0.154,10.045-0.367,15.065,0.108c0.941,0.088,1.936,0.006,2.86-0.197C153.599,464.813,154.842,465.576,156.167,465.764z"/>
<path fill-rule="evenodd" clip-rule="evenodd" fill="#FFFFFF" d="M375.575,437.852c12.855-0.389,25.78-0.176,38.696-0.087
	c3.097,0.019,6.373-0.813,9.59,0.663c0.501,8.034-0.068,16.021,0.21,24.122c-2.018,0.866-4.037,0.566-5.971,0.522
	c-4.723-0.108-9.44-0.02-14.163,0.004c-5.849,0.027-11.697-0.036-17.546-0.074c-3.15-0.019-6.298-0.04-9.446-0.109
	c-1.827-0.04-1.968-0.351-2.047-2.179c-0.294-6.707,0.268-13.398,0.25-20.101C375.146,439.844,375.05,439.058,375.575,437.852z"/>
<path fill-rule="evenodd" clip-rule="evenodd" fill="#FFFFFF" d="M329.036,525.469c0.124-9.43-0.229-18.926,0.187-28.504
	c3.118-0.104,5.987,0.027,8.845-0.021c3.392-0.059,6.78,0.027,10.168,0.023c7.146-0.006,14.291,0.009,21.438,0.065
	c1.953,0.015,2.083,0.332,2.113,2.322c0.061,4.309,0.257,8.614,0.315,12.923c0.058,4.379,0.013,8.759,0.013,13.042
	C369.942,526.046,333.015,526.151,329.036,525.469z"/>
<path fill-rule="evenodd" clip-rule="evenodd" fill="#FFFFFF" d="M180.235,437.563c0,8.579,0,16.632,0,25.063
	c-15.825,0.171-31.604,0.013-47.494-0.029c-0.517-8.314-0.449-16.367-0.123-24.775c5.201-0.429,10.378-0.251,15.542-0.289
	c5.326-0.038,10.652,0.023,15.979,0.031C169.35,437.57,174.561,437.563,180.235,437.563z"/>
<path fill-rule="evenodd" clip-rule="evenodd" fill="#FFFFFF" d="M129.424,438.024c0.112,8.186,0.298,16.243-0.029,24.483
	c-15.159,0.412-30.159,0.051-45.228,0.19c-0.568-4.396-0.577-8.434-0.51-12.478c0.049-2.929,0.082-5.859,0.12-8.79
	c0.007-0.604-0.055-1.215,0.02-1.811c0.21-1.67,0.585-2.05,2.355-2.092c2.794-0.063,5.592-0.054,8.389-0.03
	c9.94,0.081,19.88,0.199,29.821,0.247C125.92,437.752,127.48,437.427,129.424,438.024z"/>
<path fill-rule="evenodd" clip-rule="evenodd" fill="#FFFFFF" d="M371.838,462.282c-1.011,0.65-2.016,0.747-3.099,0.75
	c-7.065,0.008-14.126-0.235-21.198-0.11c-5.563,0.1-11.138-0.071-16.71,0.023c-0.581,0.009-1.17-0.283-2.084-0.521
	c-0.032-8.1-0.082-16.211,0.203-24.26c2.3-0.661,37.977-0.697,42.153-0.104C372.226,440.648,372.641,453.965,371.838,462.282z"/>
<path fill-rule="evenodd" clip-rule="evenodd" fill="#FFFFFF" d="M427.226,462.59c-0.602-8.008,0.12-16.046-0.133-24.188
	c0.347-0.743,1.172-0.796,1.953-0.796c5.66-0.003,11.32,0.017,16.98,0.048c4.981,0.03,9.965-0.015,14.942,0.165
	c2.846,0.102,5.729-0.52,8.647,0.309c0.524,1.565,0.478,3.201,0.49,4.799c0.047,5.863,0.007,11.725-0.002,17.587
	c-0.004,2.21-0.294,2.552-2.585,2.55c-6.114-0.006-12.23-0.102-18.347-0.1c-5.23,0.005-10.46,0.134-15.691,0.125
	C431.496,463.085,429.475,463.269,427.226,462.59z"/>
<path fill-rule="evenodd" clip-rule="evenodd" fill="#FFFFFF" d="M80.241,437.725c1.021,1.739,0.749,3.439,0.771,5.041
	c0.083,6.031,0.027,12.062,0.011,18.092c-0.004,1.612-0.175,1.799-1.748,1.792c-9.774-0.044-19.548-0.109-29.322-0.154
	c-2.794-0.013-5.589,0.032-8.384,0.036c-0.694,0.002-1.407,0.095-2.311-0.397c-0.58-7.989,0.008-16.12-0.212-24.409
	C53.052,437.725,66.705,437.725,80.241,437.725z"/>
<path fill-rule="evenodd" clip-rule="evenodd" fill="#FFFFFF" d="M159.227,493.402c-0.464-4.568-0.216-9.128-0.212-13.68
	c0.004-4.539,0.001-9.077,0.001-13.494c2.205-0.97,8.758-1.122,19.359-0.826c6.416,0.178,12.845-0.107,19.506,0.22
	c-0.659,1.942-1.328,3.624-2.097,5.175c-1.354,2.73-2.241,5.576-3.16,8.448c-1.264,3.949-1.819,8.017-2.529,12.067
	c-0.432,2.462-0.519,2.669-2.927,2.451c-3.742-0.338-7.454,0.245-11.203,0.021c-4.312-0.258-8.66,0.112-12.994,0.145
	C161.849,493.937,160.694,493.941,159.227,493.402z"/>
<path fill-rule="evenodd" clip-rule="evenodd" fill="#FFFFFF" d="M189.887,528.406c0.269,1.732,0.48,3.102,0.058,4.615
	c-0.404,1.445,0.217,3.017,0.338,4.529c0.234,2.946-0.147,5.852-0.122,8.775c0.013,1.604-0.599,3.379-0.312,4.77
	c0.396,1.916,0.058,3.733,0.344,5.466c-0.617,0.655-1.248,0.858-1.99,0.858c-8.746,0.002-17.493,0.013-26.239,0.015
	c-0.437,0-0.873-0.08-1.31-0.095c-1.177-0.04-1.662-0.619-1.746-1.792c-0.173-2.422,0.016-4.837,0.003-7.254
	c-0.037-6.559-0.117-13.12,0.629-19.9C169.583,528.15,179.641,528.336,189.887,528.406z"/>
<path fill-rule="evenodd" clip-rule="evenodd" fill="#FFFFFF" d="M179.663,560.142c0.455,2.146,0.458,3.869,0.444,5.597
	c-0.053,6.805,0.066,14.384,0.003,21.188c-20.987-7.038-28.183-10.352-45.826-19.984c-1.272-0.867-2.098-1.834-1.953-3.231
	c0.113-1.084-0.493-2.25,0.629-3.552C148.317,559.935,163.919,560.091,179.663,560.142z"/>
<path fill-rule="evenodd" clip-rule="evenodd" fill="#FFFFFF" d="M329.047,586.499c-0.379-8.558-0.323-16.984,0.151-25.973
	c14.146-0.488,28.101-0.21,42.399-0.298c0.188,2.753,0.409,5.535-0.002,8.302c-0.078,0.572-0.881,1.126-2.438,1.981
	c-8.57,4.49-22.379,11.083-38.444,16.152C329.479,587.065,329.063,587.042,329.047,586.499z"/>
<path fill-rule="evenodd" clip-rule="evenodd" fill="#FFFFFF" d="M316.161,465.656c10.384-0.051,20.571-0.357,31.091,0.074
	c0.114,9.533,0.345,18.786,0.109,28.264c-8.026,0.627-15.841,0.084-23.9,0.099c-0.854-4.788-1.316-9.629-2.469-14.372
	C319.831,474.943,317.307,470.658,316.161,465.656z"/>
<path fill-rule="evenodd" clip-rule="evenodd" fill="#FFFFFF" d="M323.935,528.662c7.543-0.272,15.246-0.526,22.766-0.197
	c0.972,0.958,0.844,2.037,0.86,2.894c0.066,3.679-0.117,7.359-0.156,11.04c-0.047,4.305-0.058,8.608-0.043,12.913
	c0.007,1.958-0.244,2.37-2.147,2.354c-6.361-0.06-12.724-0.158-19.084-0.3c-2.226-0.051-2.829-0.641-2.806-2.817
	c0.084-8.42,0.235-16.84,0.366-25.261C323.692,529.205,323.751,529.125,323.935,528.662z"/>
<path fill-rule="evenodd" clip-rule="evenodd" fill="#FFFFFF" d="M224.738,438.517c-10.227,6.086-18.811,13.821-25.041,24.008
	c-4.795,0.121-9.572,0.326-14.349,0.102c-2.031-0.095-2.216-0.336-2.206-2.345c0.032-6.796,0.074-13.589,0.158-20.385
	c0.026-2.064,0.41-2.346,2.507-2.341c9.882,0.019,19.764,0.015,29.646,0.059c3.019,0.015,6.037,0.159,9.056,0.241
	C224.585,438.077,224.662,438.297,224.738,438.517z"/>
<path fill-rule="evenodd" clip-rule="evenodd" fill="#FFFFFF" d="M260.325,463.011c-2.739-0.3-5.255,0.036-8.09,0.156
	c-3.702-10.88-6.475-20.556-9.464-31.425c-0.406-1.407-0.084-2.332,1.222-2.742c3.597-1.177,5.313-1.899,11.008-1.897
	c5.236-0.002,9.265,0.761,11.034,1.415c1.698,0.632,1.734,1.236,1.381,3.037c-1.023,5.235-2.19,10.442-3.188,15.685
	C263.229,452.471,262.021,457.69,260.325,463.011z"/>
<path fill-rule="evenodd" clip-rule="evenodd" fill="#FFFFFF" d="M289.811,438.273c11.931-0.401,23.806-0.598,35.891-0.393
	c0.574,8.443,0.247,16.545,0.296,25.01c-3.958-0.083-7.583,0.268-11.224-0.129c-0.967-0.105-1.574-0.85-2.012-1.547
	c-2.152-3.436-4.691-6.511-7.377-9.585c-4.053-4.636-8.796-8.232-13.846-11.581C290.879,439.611,290.303,439.117,289.811,438.273z"
	/>
<path fill-rule="evenodd" clip-rule="evenodd" fill="#FFFFFF" d="M222.911,552.287c0.358,3.257,0.097,6.356,0.074,9.439
	c-0.01,1.291,0.266,2.557,0.102,3.858c-0.254,2.02-0.692,2.537-2.751,2.643c-1.304,0.065-2.615,0.125-3.918,0.068
	c-4.501-0.199-9.007,0.071-13.498-0.068c-3.188-0.097-6.424,0.207-9.76-0.547c0-5.037,0-10.088,0-15.279
	c5.06-0.984,10.03-0.313,14.933-0.387C212.984,551.94,217.961,551.195,222.911,552.287z"/>
<path fill-rule="evenodd" clip-rule="evenodd" fill="#FFFFFF" d="M315.115,478.269c-9.007,2.838-18.449,4.201-27.224,7.44
	c-1.844-2.536-2.49-5.505-4.287-7.867c-0.775-1.021-0.33-1.813,0.364-2.519c1.034-1.055,2.097-2.096,3.253-3.011
	c5.647-4.465,11.329-8.89,17.006-13.318c0.193-0.15,0.47-0.199,0.696-0.29C309.374,463.148,314.349,472.661,315.115,478.269z"/>
<path fill-rule="evenodd" clip-rule="evenodd" fill="#FFFFFF" d="M318.373,567.545c-4.637,0.935-22.619,0.971-29.333,0.114
	c-0.6-0.534-0.499-1.253-0.499-1.929c-0.009-3.953,0.049-7.907-0.03-11.858c-0.03-1.502,0.94-1.794,1.996-1.813
	c1.818-0.036,3.649-0.045,5.463-0.005c4.958,0.112,9.909,0.051,14.865-0.019c2.42-0.034,4.842,0.202,7.549,0.329
	C318.705,557.56,318.482,562.58,318.373,567.545z"/>
<path fill-rule="evenodd" clip-rule="evenodd" fill="#FFFFFF" d="M224.386,485.863c-9.305-3.223-18.701-5.476-27.777-9.24
	c2.319-6.821,5.457-12.924,9.937-18.639c3.218,2.646,6.318,5.099,9.312,7.674c3.682,3.168,7.276,6.435,10.905,9.665
	c1.942,1.729,2.061,2.159,0.917,4.41C226.635,481.789,225.5,483.799,224.386,485.863z"/>
<path fill-rule="evenodd" clip-rule="evenodd" fill="#FFFFFF" d="M288.597,571.131c10.091-0.469,19.763-0.773,29.507-0.086
	c0.503,2.524,0.535,4.847,0.492,7.14c-0.032,1.711-0.355,3.399-0.107,5.143c0.236,1.672-0.218,2.057-2.064,2.206
	c-1.998,0.163-4.032,0.265-6.003,0.18c-6.452-0.279-12.9,0.45-19.343-0.104c-0.765-0.065-1.584,0.105-2.484-0.552
	C288.207,580.578,288.618,575.962,288.597,571.131z"/>
<path fill-rule="evenodd" clip-rule="evenodd" fill="#FFFFFF" d="M196.014,479.913c9.445,2.235,18.283,5.678,27.581,8.169
	c0.921,1.684-0.344,3.396-0.301,5.146c0.042,1.705-0.547,3.392-0.122,5.118c-1.229,0.634-2.479,0.592-3.671,0.59
	c-7.575-0.007-15.15-0.072-22.726-0.125c-0.612-0.004-1.223-0.098-1.834-0.089c-1.253,0.02-1.798-0.708-1.72-1.792
	C193.63,491.296,193.706,485.601,196.014,479.913z"/>
<path fill-rule="evenodd" clip-rule="evenodd" fill="#FFFFFF" d="M222.678,571.032c0.241,4.954,0.149,9.736-0.108,14.474
	c-9.902,0.408-19.552,0.272-29.489,0.16c0-1.622,0.011-3.16-0.003-4.699c-0.024-2.673-0.128-5.348-0.076-8.021
	c0.034-1.743,0.671-2.398,2.416-2.318c4.365,0.199,8.724-0.184,13.099,0.146c3.644,0.274,7.328,0.048,10.994-0.018
	C220.479,570.74,221.419,570.768,222.678,571.032z"/>
<path fill-rule="evenodd" clip-rule="evenodd" fill="#FFFFFF" d="M223.084,535.337c0.322,4.712,0.344,9.246-0.015,14.132
	c-9.934,0.309-19.796,0.203-29.651-0.015c-0.166-4.123-0.35-8.015-0.467-11.907c-0.061-2.014,0.302-2.406,2.109-2.413
	c8.895-0.025,17.789-0.031,26.684-0.031C222.08,535.103,222.417,535.217,223.084,535.337z"/>
<path fill-rule="evenodd" clip-rule="evenodd" fill="#FFFFFF" d="M193.279,532.127c0-4.843,0-9.373,0-13.981
	c10.182,0.188,20.147-0.321,30.183,0.082c0,4.336-0.017,8.452,0.014,12.568c0.006,0.871-0.534,1.24-1.183,1.513
	c-0.82,0.347-1.701,0.309-2.586,0.305c-7.074-0.038-14.147-0.015-21.221-0.07C196.835,532.531,195.186,532.288,193.279,532.127z"/>
<path fill-rule="evenodd" clip-rule="evenodd" fill="#FFFFFF" d="M318.056,549.71c-4.066,0-7.913,0.146-11.746-0.038
	c-4.881-0.232-9.751,0.232-14.625,0.029c-0.799-0.034-1.563-0.062-2.294-0.376c-0.612-0.265-0.936-0.687-0.921-1.405
	c0.084-4.093,0.135-8.188,0.197-12.45c9.911-0.463,19.61-0.46,29.633-0.224C318.343,539.996,318.949,544.653,318.056,549.71z"/>
<path fill-rule="evenodd" clip-rule="evenodd" fill="#FFFFFF" d="M316.557,481.191c1.517,5.811,2.052,11.572,1.696,17.766
	c-3.504,0-6.89,0.013-10.273-0.004c-5.756-0.027-11.515-0.116-17.271-0.085c-1.229,0.009-1.824-0.354-1.876-1.542
	c-0.12-2.743-0.429-5.469-0.919-8.112C290.67,487.238,306.541,482.797,316.557,481.191z"/>
<path fill-rule="evenodd" clip-rule="evenodd" fill="#FFFFFF" d="M288.667,532.539c-0.334-4.904-0.14-9.502,0.154-14.127
	c1.064-0.594,2.107-0.134,3.114-0.121c6.278,0.07,12.556,0.093,18.833-0.152c2.088-0.08,4.187,0.134,6.281,0.207
	c0.824,0.03,1.264,0.501,1.467,1.234c0.068,0.245,0.101,0.507,0.094,0.761c-0.062,3.604-0.128,7.212-0.216,10.816
	c-0.011,0.416-0.158,0.833-0.314,1.594C308.312,533.135,298.553,532.604,288.667,532.539z"/>
<path fill-rule="evenodd" clip-rule="evenodd" fill="#FFFFFF" d="M222.976,442.84c1.815,3.269,3.537,6.238,5.13,9.272
	c2.323,4.424,4.52,8.916,7.194,13.148c0.374,0.594,0.646,1.213,0.942,1.826c1.001,2.075,0.92,2.01-0.901,3.488
	c-1.333,1.082-2.482,2.386-3.697,3.604c-0.314,0.315-0.611,0.615-1.52,0.639c-7.064-6.242-14.362-12.693-21.793-19.26
	C212.561,450.364,217.478,446.533,222.976,442.84z"/>
<path fill-rule="evenodd" clip-rule="evenodd" fill="#FFFFFF" d="M193.335,501.835c10.244-0.251,20.234-0.532,30.297-0.251
	c0.34,4.587-0.484,8.959,0.014,13.293c-2.679,0.91-24.279,1.122-30.269,0.291C192.926,510.868,193.163,506.503,193.335,501.835z"/>
<path fill-rule="evenodd" clip-rule="evenodd" fill="#FFFFFF" d="M453.712,497.087c-10.046,13.021-13.617,17.912-23.42,27.89
	c-0.746,0.761-1.584,1.34-2.91,0.786c-1.122-0.467-0.858-1.851-0.878-2.791c-0.077-3.519,0.034-7.043,0.099-10.565
	c0.075-4.218,0.176-8.435,0.259-12.652c0.016-0.777-0.041-1.563,0.754-2.559c3.799,0,7.87-0.062,11.941,0.017
	C443.617,497.288,449.456,496.705,453.712,497.087z"/>
<path fill-rule="evenodd" clip-rule="evenodd" fill="#FFFFFF" d="M287.358,442.939c5.92,3.603,11.078,7.521,15.431,12.826
	c-1.735,1.388-3.341,2.671-4.941,3.957c-3.16,2.538-6.364,5.019-9.45,7.649c-2.213,1.887-4.644,3.522-6.992,5.253
	c-0.698,0.514-1.457,0.587-2.157-0.013c-1.178-1.012-2.316-2.066-3.508-3.066c-1.092-0.917-1.285-1.869-0.589-3.178
	c1.822-3.427,3.502-6.926,5.292-10.368C282.632,451.799,284.874,447.624,287.358,442.939z"/>
<path fill-rule="evenodd" clip-rule="evenodd" fill="#FFFFFF" d="M472.815,465.863c-3.681,6.856-10.901,19.042-15.902,26.658
	c-1.534,2.337-4.601,1.715-7.068,1.726c-0.424-9.47-0.332-18.835-0.158-28.384C456.901,465.863,465.432,465.863,472.815,465.863z"/>
<path fill-rule="evenodd" clip-rule="evenodd" fill="#FFFFFF" d="M317.983,501.924c0.818,1.685,0.548,3.328,0.537,4.786
	c-0.015,2.404,0.02,4.824-0.081,7.234c-0.056,1.311-0.587,1.792-1.955,1.759c-4.536-0.116-9.085-0.328-13.605-0.1
	c-4.604,0.234-9.179-0.347-13.889,0.029c-0.192-1.647-0.542-3.14-0.3-4.703c0.233-1.509,0.427-2.925-0.313-4.501
	c-0.593-1.27,0.957-2.749,0.264-4.496C298.617,501.457,308.329,501.554,317.983,501.924z"/>
<path fill-rule="evenodd" clip-rule="evenodd" fill="#FFFFFF" d="M56.264,497.054c8.008-0.681,16.278-0.404,24.425-0.55
	c0.039,9.828,0.439,19.662-0.239,29.229C75.584,521.062,61.33,504.766,56.264,497.054z"/>
<path fill-rule="evenodd" clip-rule="evenodd" fill="#FFFFFF" d="M225.722,441.439c4.265-2.562,8.539-4.374,12.908-5.657
	c0.762,0.197,0.964,0.706,1.109,1.192c2.161,7.262,4.386,14.508,6.381,21.814c0.376,1.378,1.048,2.713,1.076,4.218
	c0.016,0.79-0.066,1.5-0.791,1.718c-2.317,0.695-4.281,2.299-7.136,2.609C235.043,458.715,229.873,450.477,225.722,441.439z"/>
<path fill-rule="evenodd" clip-rule="evenodd" fill="#FFFFFF" d="M271.733,437.01c4.05,1.209,8.1,2.358,11.986,4.432
	c-3.619,8.799-8.213,16.906-12.672,25.164c-2.025-0.766-4.05-1.53-6.007-2.27c-0.508-0.737-0.231-1.38-0.07-2.054
	c1.853-7.772,3.705-15.546,5.497-23.332C270.658,438.117,271.022,437.551,271.733,437.01z"/>
<path fill-rule="evenodd" clip-rule="evenodd" fill="#FFFFFF" d="M426.478,528.799c-7.792,7.449-16.715,15.14-25.128,21.471
	c-0.891-1-0.705-2.574-0.687-3.531c0.101-5.17-0.108-10.347,0.324-15.512c0.227-2.691,0.205-2.668,2.874-2.662
	c6.118,0.018,10.043,0.009,16.161,0.005C420.721,528.569,423.868,528.793,426.478,528.799z"/>
<path fill-rule="evenodd" clip-rule="evenodd" fill="#FFFFFF" d="M107.118,549.12c-7.116-5.473-16.611-13.445-23.912-20.636
	c2.806-0.182,5.708-0.528,8.154-0.334c4.375,0.351,8.72-0.152,13.08-0.053c2.119,0.049,2.594,0.279,2.468,2.261
	c-0.234,3.689,0.414,7.357,0.143,11.054C106.883,543.704,107.118,546.407,107.118,549.12z"/>
<path fill-rule="evenodd" clip-rule="evenodd" fill="#FFFFFF" d="M37.11,465.527c2.948,0,5.807-0.274,8.15-0.194
	c2.093,0.072,4.166-0.078,6.245-0.224c1.982-0.142,2.335,0.12,2.345,2.081c0.023,5.141-0.039,10.284-0.057,15.427
	c-0.011,3.068-0.324,7.299-0.324,10.462C49.269,487.186,41.317,473.658,37.11,465.527z"/>
<path fill-rule="evenodd" clip-rule="evenodd" fill="#FFFFFF" d="M183.3,525.163c-0.775-9.465,0.353-18.882-0.223-28.592
	c1.826,0.474,3.258,0.18,4.701,0.102c2.162-0.12,2.219-0.029,2.377,2.003c0.481,6.181,0,12.368,0.183,18.551
	c0.078,2.647,0.446,5.335-0.686,8.075C187.657,525.82,185.551,525.957,183.3,525.163z"/>
<path fill-rule="evenodd" clip-rule="evenodd" fill="#FFFFFF" d="M183.232,560.365c2.264-0.171,4.173-0.367,6.064-0.062
	c0.878,1.944,1.189,24.657,0.401,29.462c-2.681-0.685-4.514-1.282-5.804-1.667c-0.946-0.347-0.844-1.32-0.849-2.17
	c-0.018-3.014,0-6.026-0.003-9.04c-0.006-4.636,0.035-9.273-0.075-13.907C182.945,562.077,183.319,561.322,183.232,560.365z"/>
<path fill-rule="evenodd" clip-rule="evenodd" fill="#FFFFFF" d="M222.616,588.46c-0.203,2.715,0.6,5.233-0.021,7.858
	c-1.563,0.784-3.111,0.084-4.623-0.025c-2.427-0.176-4.875-0.59-7.217-1.053c-3.206-0.632-6.456-1.259-9.628-2.136
	c-1.924-0.535-3.882-0.949-5.811-1.467c-1.674-0.452-2.733-0.915-1.935-3.363C202.987,588.202,212.68,587.828,222.616,588.46z"/>
<path fill-rule="evenodd" clip-rule="evenodd" fill="#FFFFFF" d="M288.981,596.188c-0.607-2.183-0.284-3.848-0.383-5.729
	c-0.088-1.629,0.255-2.033,1.833-2.077c2.689-0.076,5.369-0.245,8.078-0.11c3.635,0.185,7.292,0.074,10.935-0.055
	c2.35-0.082,4.673,0.583,7.038,0.072c0.708-0.152,1.64-0.063,1.771,1.039c0.107,0.906-0.545,1.048-1.241,1.316
	C307.927,593.117,295.655,595.296,288.981,596.188z"/>
<path fill-rule="evenodd" clip-rule="evenodd" fill="#FFFFFF" d="M473.079,437.95c3.754-0.452,8.269-0.431,11.723-0.207
	c-2.385,7.047-6.051,15.804-10.466,24.883c-0.051-0.492-1.033,0.482-1.257-0.695C472.31,454.358,473.513,445.164,473.079,437.95z"/>
<path fill-rule="evenodd" clip-rule="evenodd" fill="#FFFFFF" d="M35.677,462.649c-3.853-7.632-7.491-16.625-10.484-24.925
	c0.981,0,7.14,0.019,9.49,0c1.066-0.009,1.701,0.463,1.664,1.523C36.101,446.35,36.535,455.478,35.677,462.649z"/>
<path fill-rule="evenodd" clip-rule="evenodd" fill="#FFFFFF" d="M323.62,560.896c1.623-0.723,2.266-0.329,2.332,1.105
	c0.264,5.652,0.325,11.309,0.124,16.961c-0.107,2.996,0.428,6.117,0.017,9.141c-0.606,0.182-1.24,0.37-2.16,0.641
	C323.063,579.488,323.652,570.203,323.62,560.896z"/>
<path fill-rule="evenodd" clip-rule="evenodd" fill="#FFFFFF" d="M326.157,525.41c-1.233,0.623-2,0.336-2.379-0.79
	c-0.163-0.48-0.208-1.019-0.203-1.53c0.051-8.097,0.117-16.194,0.187-24.291c0.004-0.427-0.009-0.866,0.306-1.272
	c0.583-0.354,1.208-0.516,2.09,0.005C326.157,506.763,326.157,516.1,326.157,525.41z"/>
<path fill-rule="evenodd" clip-rule="evenodd" fill="#FFFFFF" d="M386.281,560.619c-3.532,2.187-7.663,4.467-11.392,6.658
	c-1.063-2.276,0.612-4.401-0.395-6.569C378.335,559.964,382.556,560.269,386.281,560.619z"/>
<path fill-rule="evenodd" clip-rule="evenodd" fill="#FFFFFF" d="M129.13,563.888c-1.796-1.008-3.358-1.857-5.271-3.205
	c1.663-0.858,3.185-0.22,4.614-0.508C129.259,561.342,129.065,562.533,129.13,563.888z"/>
</svg>
