<?xml version="1.0" encoding="UTF-8" standalone="no"?>
<svg
   xmlns:dc="http://purl.org/dc/elements/1.1/"
   xmlns:cc="http://creativecommons.org/ns#"
   xmlns:rdf="http://www.w3.org/1999/02/22-rdf-syntax-ns#"
   xmlns:svg="http://www.w3.org/2000/svg"
   xmlns="http://www.w3.org/2000/svg"
   xmlns:sodipodi="http://sodipodi.sourceforge.net/DTD/sodipodi-0.dtd"
   xmlns:inkscape="http://www.inkscape.org/namespaces/inkscape"
   width="719.91"
   height="821.65"
   version="1.1"
   id="svg12"
   sodipodi:docname="CHE Collex-Bossy COA.svg"
   inkscape:version="0.92.3 (2405546, 2018-03-11)">
  <metadata
     id="metadata18">
    <rdf:RDF>
      <cc:Work
         rdf:about="">
        <dc:format>image/svg+xml</dc:format>
        <dc:type
           rdf:resource="http://purl.org/dc/dcmitype/StillImage" />
      </cc:Work>
    </rdf:RDF>
  </metadata>
  <defs
     id="defs16" />
  <sodipodi:namedview
     pagecolor="#ffffff"
     bordercolor="#666666"
     borderopacity="1"
     objecttolerance="10"
     gridtolerance="10"
     guidetolerance="10"
     inkscape:pageopacity="0"
     inkscape:pageshadow="2"
     inkscape:window-width="1920"
     inkscape:window-height="1017"
     id="namedview14"
     showgrid="false"
     inkscape:zoom="0.6295974"
     inkscape:cx="24.714708"
     inkscape:cy="410.82501"
     inkscape:window-x="-8"
     inkscape:window-y="-8"
     inkscape:window-maximized="1"
     inkscape:current-layer="g10" />
  <g
     id="g10"
     style="stroke:#000000">
    <path
       d="m 714.273,5.067 0.63,367.91 c 0.095,67.743 -15.82,135.48 -45.258,196.68 a 455.5,455.5 0 0 1 -126.25,158.35 c -53.399,42.494 -116.81,72.898 -183.53,88.505 -66.665,-15.537 -130,-45.836 -183.36,-88.25 A 454.08,454.08 0 0 1 50.295,570.122 C 20.842,508.936 4.995,441.062 4.995,373.242 V 5.002 l 709.29,0.068"
       id="path2"
       inkscape:connector-curvature="0"
       style="fill:#db261b;stroke:none;fill-opacity:1" />
    <path
       d="m 714.273,5.067 0.63,367.91 c 0.095,67.743 -15.82,135.48 -45.258,196.68 a 455.5,455.5 0 0 1 -126.25,158.35 c -53.399,42.494 -116.81,72.898 -183.53,88.505 -66.665,-15.537 -130,-45.836 -183.36,-88.25 A 454.08,454.08 0 0 1 50.295,570.122 C 20.842,508.936 4.995,441.062 4.995,373.242 V 5.002 l 709.29,0.068"
       id="path8"
       inkscape:connector-curvature="0"
       style="fill:none;stroke-width:10;stroke-linecap:square" />
    <path
       style="fill:#fef502;fill-opacity:1;stroke:#000000;stroke-width:2.20000005;stroke-linecap:round;stroke-linejoin:round;stroke-miterlimit:4;stroke-dasharray:none"
       id="path2257"
       d="m 91.481518,255.99235 c 0,0 -9.701648,-13.57586 -6.834648,-25.21269 0,0 0,-15.5162 0.661716,-28.87561 0.661718,-13.35942 -7.274917,-26.07464 -11.685484,-29.52239 0,0 10.360721,1.07839 14.109583,8.18905 0,0 4.850814,-25.21138 -11.905631,-21.33331 0,0 6.613202,-10.55843 16.534995,1.07711 l -5.511228,-12.28361 9.480199,4.74132 c 0,0 5.51255,-4.95647 -6.172933,-14.86943 0,0 10.802313,-3.66292 12.125753,7.75745 0,0 3.74885,-12.06844 13.22905,-7.75745 0,0 20.06238,-9.04971 20.06238,-16.592 0,0 3.52739,9.04972 -3.08714,12.92908 0,0 6.61453,-1.07839 7.05479,4.95649 0,0 -6.61453,-2.80228 -7.93663,0 0,0 5.29108,0.4316 6.83465,5.60325 0,0 -11.02376,-4.95649 -17.63696,6.24873 0,0 12.12575,-5.60326 12.56731,0.43162 0,0 -7.05476,0.43161 -10.14057,4.74131 0,0 7.05478,-1.50871 8.15677,2.80097 l -10.80232,1.94035 11.46403,2.15419 c 0,0 5.95281,-6.46389 12.34721,-9.04971 6.39438,-2.58581 8.59702,-7.32713 3.52739,-11.42167 0,0 7.27624,-1.29355 7.93662,7.11068 0,0 3.30727,-3.44777 1.54357,-7.11068 0,0 6.61453,3.23259 5.95282,10.77489 0,0 6.1716,-4.09454 10.80231,-2.37066 4.63069,1.72389 8.1581,-5.81841 8.1581,-5.81841 0,0 2.86566,6.24874 -4.40925,10.12811 0,0 3.96765,-0.86324 7.49504,2.37065 3.52741,3.2339 10.58218,3.44775 10.58218,3.44775 0,0 -12.56733,6.46391 -18.96041,2.37068 -6.39305,-4.09326 -10.14191,-3.23261 -10.14191,-3.23261 0,0 12.12575,4.52486 14.7713,10.12811 0,0 11.02377,1.29355 8.59833,-2.80098 0,0 5.07097,-0.64677 3.74754,3.66292 0,0 9.70033,-3.66292 13.00759,-1.50872 3.30727,2.1542 7.71652,2.80098 7.49639,-4.30969 0,0 5.95282,3.66421 3.96898,11.42166 0,0 7.27492,-2.80098 6.39307,-11.42166 0,0 7.71517,8.61939 -0.66171,14.65296 0,0 -5.73136,6.03357 0.22145,6.24874 0,0 1.98514,4.95647 -9.92046,4.74132 0,0 -2.867,4.52614 -7.49639,1.72387 l 1.54358,2.58583 c 0,0 -4.89063,5.97394 -14.99276,-1.0784 0,0 -4.18911,5.60326 -8.3769,0.86194 -4.18778,-4.74131 -15.87327,-4.52487 -15.87327,-4.52487 0,0 5.95281,0.64678 10.80232,5.17164 4.84949,4.52486 7.27491,4.52486 7.27491,4.52486 0,0 -2.1549,2.18919 -12.56734,-1.72388 -2.86567,-1.07711 -6.17293,4.95647 -8.59836,3.87938 -2.42541,-1.07711 -7.05477,-6.68036 -16.97656,-5.60326 0,0 14.1109,3.01613 6.17294,11.20521 0,0 -0.66172,-3.66292 -5.51122,-3.01614 0,0 -1.10197,3.44776 2.20528,5.3868 0,0 -4.6307,1.29356 -11.02377,0 l 1.54356,3.01744 c 0,0 -9.26008,-3.2326 -15.65313,-0.43162 0,0 -0.88185,3.23129 1.7637,4.30969 0,0 -6.39308,-0.64548 -11.2439,4.09454 -4.85083,4.74002 -13.00759,12.06715 -14.55116,24.56591 z"
       inkscape:connector-curvature="0" />
    <path
       style="fill:none;stroke:#000000;stroke-width:2.20000005;stroke-linecap:round;stroke-linejoin:round;stroke-miterlimit:4;stroke-dasharray:none"
       id="path2259"
       d="m 84.64687,230.77966 c 2.866999,-11.63683 6.39307,-39.43533 9.03861,-50.20895 2.64554,-10.77358 13.44918,-27.58332 23.14953,-36.20273"
       inkscape:connector-curvature="0" />
    <path
       style="fill:none;stroke:#000000;stroke-width:2.20000005;stroke-linecap:round;stroke-linejoin:round;stroke-miterlimit:4;stroke-dasharray:none"
       id="path2261"
       d="m 138.66108,202.55083 c 0,0 5.51253,2.58581 11.24389,2.58581"
       inkscape:connector-curvature="0" />
    <path
       style="fill:none;stroke:#000000;stroke-width:2.20000005;stroke-linecap:round;stroke-linejoin:round;stroke-miterlimit:4;stroke-dasharray:none"
       id="path2263"
       d="m 128.96074,206.86052 c 0,0 8.15676,0.21517 12.12575,3.66292"
       inkscape:connector-curvature="0" />
    <path
       style="fill:none;stroke:#000000;stroke-width:2.20000005;stroke-linecap:round;stroke-linejoin:round;stroke-miterlimit:4;stroke-dasharray:none"
       id="path2265"
       d="m 183.63665,188.7598 c 0,0 6.61321,3.44777 9.92049,5.60196"
       inkscape:connector-curvature="0" />
    <path
       style="fill:none;stroke:#000000;stroke-width:2.20000005;stroke-linecap:round;stroke-linejoin:round;stroke-miterlimit:4;stroke-dasharray:none"
       id="path2267"
       d="m 194.43897,187.46623 c 0,0 5.73269,3.01744 12.56734,5.3868"
       inkscape:connector-curvature="0" />
    <path
       style="fill:none;stroke:#000000;stroke-width:2.20000005;stroke-linecap:round;stroke-linejoin:round;stroke-miterlimit:4;stroke-dasharray:none"
       id="path2269"
       d="m 180.55086,181.21622 c 0,0 18.21382,0.37068 24.69176,3.6642 5.51122,2.80098 13.44919,-0.21645 18.96041,-4.74131"
       inkscape:connector-curvature="0" />
    <path
       style="fill:none;stroke:#000000;stroke-width:2.20000005;stroke-linecap:round;stroke-linejoin:round;stroke-miterlimit:4;stroke-dasharray:none"
       id="path2271"
       d="m 197.30597,177.33812 c 0,0 13.13491,-0.17498 16.31487,2.1555 2.64555,1.93905 4.85083,-2.58581 4.85083,-2.58581"
       inkscape:connector-curvature="0" />
    <path
       style="fill:none;stroke:#000000;stroke-width:2.20000005;stroke-linecap:round;stroke-linejoin:round;stroke-miterlimit:4;stroke-dasharray:none"
       id="path2273"
       d="m 181.65284,170.44262 c 2.42541,6.24874 -3.5274,8.18907 -4.40925,8.18907 0,0 -1.98382,-7.75745 -10.58218,-7.32713 l 7.93664,7.32713 c 0,0 -1.10198,3.01613 -3.74752,1.93902 0,0 -2.20396,3.87939 -3.30727,2.58584 0,0 -2.20528,3.44775 -5.73267,2.15549 0,0 2.42541,6.67905 -2.86569,4.74003 l -3.52738,-1.7239 c 0,0 -3.4465,5.07443 -5.73267,2.37066 -4.18912,-4.95647 -8.59836,-6.89552 -20.50265,-0.43161 0,0 11.24389,-3.87938 13.44917,-0.64679 2.20529,3.2326 1.54357,4.95649 1.54357,4.95649 0,0 -7.05478,-3.66292 -8.81848,0.86193 -0.88185,3.01615 -6.61452,7.32585 -11.68548,2.80099 0,0 5.29108,6.24872 3.08712,10.77487 0,0 -3.08712,-5.38679 -7.05478,-4.09452 0,0 -0.88185,4.52485 2.64554,7.97262 l -8.37821,-2.37067 c 0,0 -9.70034,11.42038 -13.22773,36.41791"
       inkscape:connector-curvature="0" />
    <line
       id="line2275"
       y2="188.32814"
       x2="155.4162"
       y1="182.94005"
       x1="150.12511"
       style="fill:none;stroke:#000000;stroke-width:2.20000005;stroke-linecap:round;stroke-linejoin:round;stroke-miterlimit:4;stroke-dasharray:none" />
    <path
       style="fill:none;stroke:#000000;stroke-width:2.20000005;stroke-linecap:round;stroke-linejoin:round;stroke-miterlimit:4;stroke-dasharray:none"
       id="path2277"
       d="m 143.51189,179.06201 c 0,0 4.63072,-4.52615 9.92047,-0.21645 5.28977,4.30968 8.37689,6.46518 8.37689,6.46518"
       inkscape:connector-curvature="0" />
    <path
       style="fill:none;stroke:#000000;stroke-width:2.20000005;stroke-linecap:round;stroke-linejoin:round;stroke-miterlimit:4;stroke-dasharray:none"
       id="path2279"
       d="m 152.11025,173.02844 c 0,0 9.92046,6.89551 15.43301,10.12811"
       inkscape:connector-curvature="0" />
    <path
       style="fill:none;stroke:#000000;stroke-width:2.20000005;stroke-linecap:round;stroke-linejoin:round;stroke-miterlimit:4;stroke-dasharray:none"
       id="path2281"
       d="m 161.14886,173.24359 c 0,0 4.40924,3.87938 9.70034,7.32712"
       inkscape:connector-curvature="0" />
    <line
       id="line2283"
       y2="153.41895"
       x2="163.35417"
       y1="159.45256"
       x1="153.21227"
       style="fill:none;stroke:#000000;stroke-width:2.20000005;stroke-linecap:round;stroke-linejoin:round;stroke-miterlimit:4;stroke-dasharray:none" />
    <path
       style="fill:none;stroke:#000000;stroke-width:2.20000005;stroke-linecap:round;stroke-linejoin:round;stroke-miterlimit:4;stroke-dasharray:none"
       id="path2285"
       d="m 151.66866,154.06578 c 0,0 3.30727,-1.50873 4.18912,-4.3097"
       inkscape:connector-curvature="0" />
    <path
       style="fill:none;stroke:#000000;stroke-width:2.20000005;stroke-linecap:round;stroke-linejoin:round;stroke-miterlimit:4;stroke-dasharray:none"
       id="path2287"
       d="m 132.04654,163.1155 c -11.02377,12.06713 -20.94422,14.43779 -20.94422,14.43779 0,0 5.07097,0.86193 5.07097,5.17164 0,0 -4.18912,0 -5.51124,1.0771 0,0 11.46536,-1.0771 7.93664,7.32713 0,0 -12.78747,-7.11068 -11.46535,-1.29356 0,0 -5.73268,0 -9.920456,7.9726 0,0 13.449166,-14.00617 15.653116,2.1555 0,0 -10.08754,-4.34079 -14.991401,3.44776 -1.763707,2.80099 0.221449,8.40294 8.598341,4.30971 0,0 -0.22013,5.17164 -9.92045,7.75745 l 4.40923,2.58581 -6.394397,5.38679 c 0,0 -2.64555,11.20652 0.661726,27.58336"
       inkscape:connector-curvature="0" />
    <path
       style="fill:none;stroke:#000000;stroke-width:2.20000005;stroke-linecap:round;stroke-linejoin:round;stroke-miterlimit:4;stroke-dasharray:none"
       id="path2289"
       d="m 116.61486,165.70131 c -12.34587,-1.29357 -12.12574,10.77488 -12.12574,10.77488 0,0 3.96897,-6.46519 7.49637,-5.17163"
       inkscape:connector-curvature="0" />
    <path
       style="fill:none;stroke:#000000;stroke-width:2.20000005;stroke-linecap:round;stroke-linejoin:round;stroke-miterlimit:4;stroke-dasharray:none"
       id="path2291"
       d="m 118.37855,184.66397 c 0,0 9.92048,-12.71393 30.8647,-22.62689 0,0 -24.69307,15.73008 -36.15711,37.27985 -11.46402,21.54978 -14.991423,30.5995 -14.551168,48.48506"
       inkscape:connector-curvature="0" />
    <path
       style="fill:#fcef3c;stroke:#000000;stroke-width:2.20000005;stroke-linecap:round;stroke-linejoin:round;stroke-miterlimit:4;stroke-dasharray:none"
       id="path2293"
       d="m 93.820747,261.61116 c 0,0 -5.529782,-4.00252 -3.335112,-6.85015 2.194681,-2.84764 11.985185,-10.95894 15.789725,-10.68805 2.32198,0.1646 5.06698,3.79642 5.06698,3.79642 z"
       inkscape:connector-curvature="0" />
    <path
       style="fill:none;stroke:#000000;stroke-width:2.20000005;stroke-linecap:round;stroke-linejoin:round;stroke-miterlimit:4;stroke-dasharray:none"
       id="path2295"
       d="m 615.38033,358.64866 c 6.55485,1.84701 13.83905,5.06276 21.95604,10.05683"
       inkscape:connector-curvature="0" />
    <path
       style="fill:#ffffff;stroke:#000000;stroke-width:2.20000005;stroke-linecap:round;stroke-linejoin:round;stroke-miterlimit:4;stroke-dasharray:none"
       id="path2297"
       d="m 444.258,460.19287 c 0,0 18.17006,24.91848 49.29333,33.87097 4.28989,1.23394 10e-4,3.94678 -3.53271,6.66092 -3.53401,2.71414 -39.65133,23.14144 -42.90422,29.35519 -5.55233,10.60639 -13.12296,29.60144 -13.12296,39.22147 0,9.62001 7.57196,26.64106 7.57196,26.64106 0,0 13.62819,-5.42699 17.1609,-18.49995 2.0183,-9.37374 -10.34747,-10.36011 -10.34747,-10.36011 0,0 3.28207,5.9208 -2.27158,11.10021 0,0 3.78996,-6.73868 1.2611,-8.38738 -0.75719,-0.49383 -2.0183,-0.24627 -2.0183,-0.24627 0,0 -1.00915,-13.07426 3.02878,-12.82669 4.03794,0.24757 4.54318,-1.48149 4.54318,-1.48149 0,0 -1.26244,-6.41334 0.75587,-9.86629 2.0183,-3.45294 -0.29837,-7.74838 40.12872,-25.65469 16.15176,-7.15474 29.77863,-18.99506 31.29435,-21.7079 1.51571,-2.71285 0.25327,-4.68558 -2.52221,-7.15343 -2.7755,-2.46788 -2.1244,-5.15999 -2.1244,-5.15999 l -0.0637,-3.59422 -49.99748,-19.96718 -29.83696,-21.01964 -8.87021,4.20339 12.57396,14.87202 z"
       inkscape:connector-curvature="0" />
    <path
       style="fill:#ffffff;stroke:#000000;stroke-width:2.20000005;stroke-linecap:round;stroke-linejoin:round;stroke-miterlimit:4;stroke-dasharray:none"
       id="path2299"
       d="m 661.65948,380.39804 c -11.96264,2.7284 -20.73472,-3.8975 -20.73472,-3.8975 19.13943,3.50736 29.50545,-4.28768 29.50545,-4.28768 0,0 -12.35913,5.06666 -27.11185,-7.01476 -14.75273,-12.0814 -27.93671,-6.54944 -27.93671,-6.54944 -30.7944,-8.67383 -45.5352,12.88632 -55.39597,22.52708 -11.96132,11.69257 -25.91839,2.72839 -37.08272,-7.79504 -11.16434,-10.52344 -31.10075,-28.45047 -67.38514,-28.45047 -32.29687,0 -20.33423,8.18388 -73.3658,8.18388 -23.92396,0.39014 -61.4045,-17.14805 -69.77742,-28.83933 -8.37292,-11.69126 -23.5248,-15.19993 -23.5248,-15.19993 6.37982,0 7.17679,-6.23577 7.17679,-6.23577 0,0 -7.17679,6.23577 -22.32866,-8.57403 -15.15189,-14.80981 -5.5815,-12.8604 -29.10763,-37.41335 -23.52613,-24.55295 -45.15198,-22.06694 -45.15198,-22.06694 -14.02073,-8.20075 -33.64946,-11.2778 -54.92787,-4.82427 -34.68914,10.52214 -32.29687,17.92833 -32.29687,17.92833 -6.77763,-1.94811 -11.96264,0.38885 -11.96264,0.38885 l -1.196128,8.57403 -5.980651,5.06664 c -24.72093,-3.11723 -19.537262,4.28766 -19.537262,4.28766 5.18368,0 18.342449,7.40491 18.342449,7.40491 0,0 -0.399142,9.74315 -0.399142,13.25052 0,3.50739 3.588373,1.16915 5.18368,5.4555 1.595266,4.28636 -7.176807,8.96416 -7.176807,8.96416 3.588414,3.11725 7.45527,0.18407 7.45527,0.18407 6.093371,7.29472 -10.358066,15.33473 -10.358066,15.33473 17.211297,5.65769 20.563647,-9.8261 20.563647,-9.8261 0,0 9.29189,3.12632 15.08027,8.63495 5.78837,5.50863 19.03995,23.2244 27.11318,33.20085 4.03662,4.98758 8.22572,12.95372 16.90762,12.95372 8.6819,0 7.31205,-3.12631 9.1394,-3.12631 1.82734,0 10.35807,-1.93645 10.66306,-3.42443 0.30501,-1.48797 -3.96101,-5.2118 -3.96101,-5.2118 l 3.65602,-4.91372 -0.91367,-1.63704 4.56969,0.14907 c 0,0 -0.91367,7.7419 2.58985,8.63494 8.07323,1.19116 8.8344,-2.67914 8.53073,-15.63285 -0.30369,-12.95372 -18.13161,-19.80128 -18.13161,-19.80128 1.37118,-9.08211 -2.58983,-19.05728 -2.58983,-19.05728 18.12628,6.84886 23.45715,26.94824 23.45715,45.7074 0,17.86613 -13.25159,28.43622 -15.38394,47.34444 -1.56478,13.87658 -3.80853,24.26782 -8.17665,24.68259 0,0 -32.30352,4.69852 -55.03265,14.87849 -8.02946,3.59552 -17.06145,4.90332 -19.40332,8.50143 -2.34186,3.59811 -4.68373,7.84819 -0.33417,17.49414 2.13501,4.73611 9.59159,21.32424 17.88627,38.26361 -10.7559,17.1325 -21.49589,36.45809 -27.085337,45.28357 -8.699127,13.734 -8.029462,23.05329 -7.359786,25.5069 0.669676,2.45363 1.673529,9.15473 1.673529,12.91614 0,3.76143 -2.84447,15.36845 1.170921,16.83957 4.015402,1.47114 16.727273,-10.46381 18.065293,-19.4565 1.33803,-8.99267 -6.02175,-10.29921 -6.02175,-10.29921 -1.84062,8.50275 -9.200404,14.06063 -9.200404,14.06063 9.033304,-10.95375 7.862374,-14.55186 7.862374,-14.55186 -9.033306,-6.21244 -0.66967,-16.34962 -0.66967,-16.34962 1.17093,4.90463 7.02561,3.10687 9.2004,-2.94355 5.36005,-14.91479 12.75696,-26.20425 20.313,-35.28378 6.05891,11.56425 11.8234,21.4072 15.65049,25.14658 3.67989,3.59683 11.54227,7.76265 11.54227,1.63576 0,-1.63576 0.16709,-2.45361 0.16709,-2.45361 l -0.16709,7.84818 c 0,0 8.69781,7.84819 10.70551,6.70368 2.00769,-1.14451 2.36043,-18.83435 -4.01408,-27.14007 -1.00385,-1.3078 -6.35594,-0.65456 -9.0333,2.61693 -2.67737,3.27147 -2.17346,3.75883 -3.67989,2.12569 -1.50645,-1.63317 -4.68376,-6.86831 -2.67738,-8.66607 2.00637,-1.79775 2.84446,-2.12567 2.84446,-2.12567 0,0 -3.8377,-1.49057 -11.38844,-16.55702 5.81091,-5.86767 11.20013,-10.74119 15.23542,-15.32307 11.37386,-12.91612 25.0909,-13.24405 38.63954,-11.44499 13.54864,1.79905 57.20744,1.79905 64.90139,2.28899 7.69398,0.48994 9.03333,-3.10558 8.36365,-6.37576 -0.66967,-3.27019 5.85468,-8.66605 5.85468,-8.66605 12.71186,6.70368 38.47246,15.57064 70.51339,15.57064 38.57324,0 69.54136,-15.32567 100.03873,-15.32567 8.78003,0 12.54346,2.45361 12.54346,2.45361 12.39361,13.06777 43.27554,20.27308 63.64955,23.05073 4.19044,0.57159 7.93664,0.95525 10.98664,1.16392 17.87433,1.22617 23.83509,11.03543 24.46101,22.68262 2.50763,46.59007 7.83984,61.60986 10.34879,64.98243 2.50896,3.37259 11.60327,7.96874 16.62118,14.7139 5.01793,6.74515 7.52688,7.35694 7.52688,7.35694 l 1.88172,-7.35694 -0.62857,9.19619 c 0,0 5.95811,3.98434 8.78136,3.98434 2.82323,0 8.15279,-0.30719 8.15279,-9.50207 0,-9.19488 -8.15279,-21.76364 -12.54348,-21.76364 -4.39067,0 -3.13619,3.06539 -6.89962,5.21183 -3.76345,2.14641 -10.03452,-5.82362 -10.03452,-5.82362 0,0 4.0764,3.06541 5.01659,-1.22615 0.9402,-4.29155 -10.34877,-11.6472 -10.34877,-11.6472 -2.19468,-36.16903 -1.88173,-52.41367 -0.62725,-58.23857 1.25448,-5.8249 6.27106,-17.16491 -14.11222,-26.97415 -20.38331,-9.80926 -33.24105,-18.39106 -33.24105,-22.37673 0,-8.28108 5.95811,-14.40669 7.28421,-34.81196 0.98131,-15.10404 -3.30728,-22.75651 -6.25516,-26.17056 8.93915,8.14241 14.39335,13.62512 18.4061,18.97174 4.38669,5.84563 9.57036,1.55927 9.57036,1.55927 8.37292,5.45678 12.7583,1.55926 12.7583,1.55926 0,0 13.95575,4.67521 27.11319,5.4555 13.15744,0.78028 16.34802,-2.72709 21.93084,-2.72709 12.51959,0 11.16434,13.25051 11.16434,13.25051 7.97509,-6.62591 0,-15.58748 0,-15.58748 9.96952,7.01605 24.72092,2.7271 24.72092,2.7271 -14.75273,-0.78028 -30.70158,-22.60355 -30.70158,-22.60355 0,0 6.77763,3.89753 15.55103,8.18388 15.97008,7.80412 23.52479,-1.16911 23.52479,-1.16911 -12.7596,0.39013 -20.33555,-8.18389 -20.33555,-8.18389 4.38671,3.50737 13.95574,-1.16914 13.95574,-1.16914 l -10.7665,-3.89751 c 13.95576,3.11206 17.94463,-5.07184 17.94463,-5.07184 z m -516.75253,80.85768 c -5.5205,4.57801 -3.3444,7.03031 -5.01792,8.99267 -2.38034,2.79191 -4.95294,6.20598 -7.62634,10.02055 -2.0846,-5.26367 -4.34957,-11.27909 -6.75906,-18.19535 -2.67737,-7.68488 2.34188,-14.55187 12.04352,-14.38855 9.70166,0.16331 25.83617,2.78154 25.83617,2.78154 -9.1858,4.96944 -16.52305,9.16895 -18.47637,10.78914 z"
       inkscape:connector-curvature="0" />
    <path
       style="fill:none;stroke:#000000;stroke-width:2.20000005;stroke-linecap:round;stroke-linejoin:round;stroke-miterlimit:4;stroke-dasharray:none"
       id="path2301"
       d="M 456.80148,462.64648 C 444.88523,450.08033 439.55304,450.38622 439.55304,450.38622"
       inkscape:connector-curvature="0" />
    <path
       style="fill:none;stroke:#000000;stroke-width:2.20000005;stroke-linecap:round;stroke-linejoin:round;stroke-miterlimit:4;stroke-dasharray:none"
       id="path2303"
       d="m 163.38332,450.46787 c 16.76973,-9.07175 39.69776,-20.70339 47.26178,-23.87246 3.84699,-1.47245 13.21448,-8.50275 13.21448,-8.50275"
       inkscape:connector-curvature="0" />
    <path
       style="fill:none;stroke:#000000;stroke-width:2.20000005;stroke-linecap:round;stroke-linejoin:round;stroke-miterlimit:4;stroke-dasharray:none"
       id="path2305"
       d="m 199.43567,234.78604 c 8.83705,5.16905 15.44629,12.37305 18.8371,20.50899"
       inkscape:connector-curvature="0" />
    <path
       style="fill:none;stroke:#000000;stroke-width:2.20000005;stroke-linecap:round;stroke-linejoin:round;stroke-miterlimit:4;stroke-dasharray:none"
       id="path2307"
       d="m 130.76156,510.337 c 3.33911,-4.01417 6.71002,-7.59414 9.94964,-10.86691"
       inkscape:connector-curvature="0" />
    <path
       style="fill:none;stroke:#000000;stroke-width:2.20000005;stroke-linecap:round;stroke-linejoin:round;stroke-miterlimit:4;stroke-dasharray:none"
       id="path2309"
       d="m 132.26137,480.26894 c -3.06061,4.36671 -6.25515,9.25967 -9.44837,14.34448"
       inkscape:connector-curvature="0" />
    <line
       id="line2311"
       y2="409.62619"
       x2="554.80066"
       y1="395.66272"
       x1="539.20453"
       style="fill:none;stroke:#000000;stroke-width:2.20000005;stroke-linecap:round;stroke-linejoin:round;stroke-miterlimit:4;stroke-dasharray:none" />
    <line
       id="line2313"
       y2="411.18677"
       x2="567.5589"
       y1="395.92587"
       x1="546.19299"
       style="fill:none;stroke:#000000;stroke-width:2.20000005;stroke-linecap:round;stroke-linejoin:round;stroke-miterlimit:4;stroke-dasharray:none" />
    <path
       style="fill:none;stroke:#000000;stroke-width:2.20000005;stroke-linecap:round;stroke-linejoin:round;stroke-miterlimit:4;stroke-dasharray:none"
       id="path2315"
       d="m 560.44051,396.18904 c 0,0 11.55951,5.77952 20.16052,11.56035 8.60102,5.78082 19.08506,4.72964 24.9994,2.89041"
       inkscape:connector-curvature="0" />
    <path
       style="fill:none;stroke:#000000;stroke-width:2.20000005;stroke-linecap:round;stroke-linejoin:round;stroke-miterlimit:4;stroke-dasharray:none"
       id="path2317"
       d="m 605.06204,403.8078 c 0,0 14.37215,-1.69147 22.70527,7.76782"
       inkscape:connector-curvature="0" />
    <path
       style="fill:none;stroke:#000000;stroke-width:2.20000005;stroke-linecap:round;stroke-linejoin:round;stroke-miterlimit:4;stroke-dasharray:none"
       id="path2319"
       d="m 566.35487,388.04402 c 0,0 15.59214,-9.7211 29.5691,-8.4081 13.97697,1.31299 25.86269,12.06326 25.86269,12.06326"
       inkscape:connector-curvature="0" />
    <path
       style="fill:none;stroke:#000000;stroke-width:2.20000005;stroke-linecap:round;stroke-linejoin:round;stroke-miterlimit:4;stroke-dasharray:none"
       id="path2321"
       d="m 587.30175,372.13899 c 0,0 21.32747,-9.52671 37.90224,5.5177 7.52689,6.832 15.32162,12.87466 15.32162,12.87466"
       inkscape:connector-curvature="0" />
    <path
       style="fill:none;stroke:#000000;stroke-width:2.20000005;stroke-linecap:round;stroke-linejoin:round;stroke-miterlimit:4;stroke-dasharray:none"
       id="path2323"
       d="m 635.43609,380.42528 c 0,0 6.87974,4.56114 8.27876,5.03942"
       inkscape:connector-curvature="0" />
    <path
       style="fill:none;stroke:#000000;stroke-width:2.20000005;stroke-linecap:round;stroke-linejoin:round;stroke-miterlimit:4;stroke-dasharray:none"
       id="path2325"
       d="m 620.92073,367.02568 c 0,0 12.20929,4.7465 20.00403,9.47486"
       inkscape:connector-curvature="0" />
    <path
       style="fill:none;stroke:#000000;stroke-width:2.20000005;stroke-linecap:round;stroke-linejoin:round;stroke-miterlimit:4;stroke-dasharray:none"
       id="path2327"
       d="m 197.8258,432.44621 c 0,0 -13.17734,-16.95234 -9.95096,-41.65045"
       inkscape:connector-curvature="0" />
    <path
       style="fill:none;stroke:#000000;stroke-width:2.20000005;stroke-linecap:round;stroke-linejoin:round;stroke-miterlimit:4;stroke-dasharray:none"
       id="path2329"
       d="m 107.14394,306.97379 c 0,0 3.81516,-13.07685 0.0225,-17.89594 -3.79263,-4.81908 -12.284886,-17.76632 -8.11301,-32.22485"
       inkscape:connector-curvature="0" />
    <path
       style="fill:none;stroke:#000000;stroke-width:2.20000005;stroke-linecap:round;stroke-linejoin:round;stroke-miterlimit:4;stroke-dasharray:none"
       id="path2331"
       d="m 107.16648,289.07785 c 0,0 15.55236,-1.85349 9.48286,-15.19993 0,0 -10.62064,2.22419 -15.17177,-9.63947 0,0 2.27557,12.97575 10.99991,17.42414"
       inkscape:connector-curvature="0" />
    <path
       style="fill:none;stroke:#000000;stroke-width:2.20000005;stroke-linecap:round;stroke-linejoin:round;stroke-miterlimit:4;stroke-dasharray:none"
       id="path2333"
       d="m 116.64934,273.87792 c 0,0 6.44746,-2.59619 3.41336,-8.52737 0,0 -16.45809,5.59029 -21.00922,-8.49755"
       inkscape:connector-curvature="0" />
    <path
       style="fill:none;stroke:#000000;stroke-width:2.20000005;stroke-linecap:round;stroke-linejoin:round;stroke-miterlimit:4;stroke-dasharray:none"
       id="path2335"
       d="m 151.50423,232.04601 c 0,0 14.17322,-0.7427 25.07499,15.88041"
       inkscape:connector-curvature="0" />
    <path
       style="fill:none;stroke:#000000;stroke-width:2.20000005;stroke-linecap:round;stroke-linejoin:round;stroke-miterlimit:4;stroke-dasharray:none"
       id="path2337"
       d="m 178.48083,231.12184 c 0,0 16.63577,8.16575 15.92501,17.54597"
       inkscape:connector-curvature="0" />
    <path
       style="fill:none;stroke:#000000;stroke-width:2.20000005;stroke-linecap:round;stroke-linejoin:round;stroke-miterlimit:4;stroke-dasharray:none"
       id="path2339"
       d="m 164.1498,229.48739 c 0,0 11.41629,7.25325 17.73908,17.69634"
       inkscape:connector-curvature="0" />
    <path
       style="fill:none;stroke:#000000;stroke-width:2.20000005;stroke-linecap:round;stroke-linejoin:round;stroke-miterlimit:4;stroke-dasharray:none"
       id="path2341"
       d="m 177.88542,236.09387 c 0,0 5.77378,6.52999 8.55592,9.97776"
       inkscape:connector-curvature="0" />
    <path
       style="stroke:#000000;stroke-width:2.20000005;stroke-linecap:round;stroke-linejoin:round;stroke-miterlimit:4;stroke-dasharray:none"
       id="path2343"
       d="m 107.16648,263.12636 c 0,0 -4.55244,-4.44967 -3.7926,-11.49296 0,0 6.0695,-0.3707 14.03399,5.56179 0,-0.001 -9.10361,0.74138 -10.24139,5.93117 z"
       inkscape:connector-curvature="0" />
    <path
       style="fill:none;stroke:#000000;stroke-width:2.20000005;stroke-linecap:round;stroke-linejoin:round;stroke-miterlimit:4;stroke-dasharray:none"
       id="path2345"
       d="m 99.579939,296.12242 c 0,0 0.02787,2.90078 -2.641565,5.34403"
       inkscape:connector-curvature="0" />
    <path
       style="fill:none;stroke:#000000;stroke-width:2.20000005;stroke-linecap:round;stroke-linejoin:round;stroke-miterlimit:4;stroke-dasharray:none"
       id="path2347"
       d="m 93.072829,261.91963 c 0,0 -2.831203,2.8982 -1.196135,11.69257"
       inkscape:connector-curvature="0" />
    <path
       style="fill:none;stroke:#000000;stroke-width:2.20000005;stroke-linecap:round;stroke-linejoin:round;stroke-miterlimit:4;stroke-dasharray:none"
       id="path2349"
       d="m 112.21093,247.89013 c 9.21762,3.67198 10.12732,8.56237 10.12732,8.56237 l 3.0341,1.48277 c 1.89631,-4.44966 -2.27555,-9.26875 -2.27555,-9.26875 4.17186,0 7.5852,6.30316 7.5852,6.30316 6.06818,-10.38085 -4.55113,-12.97575 -4.55113,-12.97575 0,0 7.96448,-2.22418 16.30956,6.30319 8.34507,8.52737 13.65472,2.59488 13.65472,2.59488 0,0 4.55113,2.96689 12.13768,1.11211 0,0 8.34506,-1.48281 8.34506,-4.07769 0,0 4.93041,2.96558 5.30966,-0.74141 0,0 4.55115,1.85351 4.55115,-1.11208 0,0 4.17186,5.56047 7.9658,2.59488 0,0 -2.27557,12.97705 16.30955,15.94264 0,0 -7.96448,-4.81908 -6.44744,-12.60506 1.51704,-7.78596 -1.89632,-10.01014 -1.89632,-10.01014 0,0 9.48288,11.12224 11.75844,16.68402 2.27557,5.56177 -3.03409,17.05473 9.10361,25.58079 0,0 9.10358,12.97576 14.03398,7.04458 0,0 -11.37916,-4.44968 -9.10361,-12.97574 2.27557,-8.52607 3.03543,-23.72732 -4.93037,-30.77189 0,0 19.20042,14.04637 19.72422,37.07504 0.37926,16.68275 11.37916,19.27764 15.93029,18.53625 0,0 10.24139,10.01014 17.44867,4.07769 0,0 5.67697,2.92281 12.51164,1.83274"
       inkscape:connector-curvature="0" />
    <path
       style="fill:none;stroke:#000000;stroke-width:2.20000005;stroke-linecap:round;stroke-linejoin:round;stroke-miterlimit:4;stroke-dasharray:none"
       id="path2351"
       d="m 143.20027,240.88055 c 0,0 7.58654,5.93247 12.89619,10.01016"
       inkscape:connector-curvature="0" />
    <path
       style="fill:none;stroke:#000000;stroke-width:2.20000005;stroke-linecap:round;stroke-linejoin:round;stroke-miterlimit:4;stroke-dasharray:none"
       id="path2353"
       d="m 151.16609,239.02705 c 0,0 6.44743,2.59489 10.24136,6.67259 3.79394,4.07768 6.82671,6.30315 6.82671,6.30315"
       inkscape:connector-curvature="0" />
    <path
       style="fill:none;stroke:#000000;stroke-width:2.20000005;stroke-linecap:round;stroke-linejoin:round;stroke-miterlimit:4;stroke-dasharray:none"
       id="path2355"
       d="m 220.57884,262.75437 c 0,0 -1.51839,8.52865 2.65481,21.5031"
       inkscape:connector-curvature="0" />
    <path
       style="fill:none;stroke:#000000;stroke-width:2.20000005;stroke-linecap:round;stroke-linejoin:round;stroke-miterlimit:4;stroke-dasharray:none"
       id="path2357"
       d="m 248.26755,283.14538 c 0,0 2.65349,11.12227 10.6193,20.02033"
       inkscape:connector-curvature="0" />
    <path
       style="fill:none;stroke:#000000;stroke-width:2.20000005;stroke-linecap:round;stroke-linejoin:round;stroke-miterlimit:4;stroke-dasharray:none"
       id="path2359"
       d="m 246.75049,264.97984 c 0,0 9.10359,11.12227 14.79251,25.21011 3.03542,7.78597 10.62064,13.34646 14.79252,17.05473"
       inkscape:connector-curvature="0" />
    <polyline
       transform="matrix(1.3260878,0,0,1.2961491,72.419013,34.333963)"
       id="polyline2361"
       points="       84.768,238.488 78.616,229.596 72.326,232.41 82.7,243.542 "
       style="fill:none;stroke:#000000;stroke-width:1.67806625;stroke-linecap:round;stroke-linejoin:round;stroke-miterlimit:4;stroke-dasharray:none" />
    <polyline
       transform="matrix(1.3260878,0,0,1.2961491,72.419013,34.333963)"
       id="polyline2363"
       points="       88.213,238.603 81.265,227.94 78.616,229.596 "
       style="fill:none;stroke:#000000;stroke-width:1.67806625;stroke-linecap:round;stroke-linejoin:round;stroke-miterlimit:4;stroke-dasharray:none" />
    <path
       style="fill:#ffffff;stroke:#000000;stroke-width:2.20000005;stroke-linecap:round;stroke-linejoin:round;stroke-miterlimit:4;stroke-dasharray:none"
       id="path2365"
       d="m 161.16214,315.49466 c -4.06977,0 -7.37042,3.22482 -7.37042,7.204 0,3.97918 3.29931,7.20401 7.37042,7.20401 4.07107,0 7.37039,-3.22483 7.37039,-7.20401 0,-3.97918 -3.30064,-7.204 -7.37039,-7.204 z m 0,12.19807 c -2.8206,0 -5.10942,-2.23585 -5.10942,-4.99407 0,-2.75819 2.28749,-4.99406 5.10942,-4.99406 2.8219,0 5.1094,2.23587 5.1094,4.99406 -10e-4,2.75692 -2.28882,4.99407 -5.1094,4.99407 z"
       inkscape:connector-curvature="0" />
    <path
       style="stroke:#000000;stroke-width:2.20000005;stroke-linecap:round;stroke-linejoin:round;stroke-miterlimit:4;stroke-dasharray:none"
       id="path2367"
       d="m 150.81467,350.7292 c -0.0889,-1.51132 -0.96009,-19.93478 9.18448,-23.16868 l 0.0116,-0.006 c -2.1191,-0.47959 -3.71305,-2.24365 -3.91196,-4.40951 l -0.0783,0.0416 c 0,0 -10.41509,1.32984 -10.04246,21.41368 1.18685,1.50223 2.31801,2.92152 3.35897,4.20989 0.48802,0.60271 0.97734,1.24948 1.47728,1.91959 z"
       inkscape:connector-curvature="0" />
    <path
       style="fill:none;stroke:#000000;stroke-width:2.20000005;stroke-linecap:round;stroke-linejoin:round;stroke-miterlimit:4;stroke-dasharray:none"
       id="path2369"
       d="m 182.39146,316.79989 c 0,0 -3.82044,-1.35447 -6.22198,2.62859 -3.58443,5.94156 -10.68828,6.1295 -10.68828,6.1295"
       inkscape:connector-curvature="0" />
    <path
       style="fill:none;stroke:#000000;stroke-width:2.20000005;stroke-linecap:round;stroke-linejoin:round;stroke-miterlimit:4;stroke-dasharray:none"
       id="path2371"
       d="m 127.5352,292.36748 c 0.7625,3.22612 6.34798,10.6699 5.07758,14.14358 -1.27039,3.47368 -4.82431,4.46653 -4.82431,4.46653 0,0 0.25329,-6.20467 -1.26906,-8.18906"
       inkscape:connector-curvature="0" />
    <ellipse
       style="stroke:#000000;stroke-width:2.20000005;stroke-linecap:round;stroke-linejoin:round;stroke-miterlimit:4;stroke-dasharray:none"
       id="circle2373"
       cy="307.75275"
       cx="129.56677"
       rx="1.523675"
       ry="1.4892755" />
    <path
       style="fill:#ffffff;stroke:#000000;stroke-width:2.20000005;stroke-linecap:round;stroke-linejoin:round;stroke-miterlimit:4;stroke-dasharray:none"
       id="path2375"
       d="m 130.32793,252.52516 c -5.04974,0 -9.14469,4.00121 -9.14469,8.93824 0,4.93703 4.09363,8.93824 9.14469,8.93824 5.05108,0 9.14471,-4.00121 9.14471,-8.93824 0,-4.93703 -4.09363,-8.93824 -9.14471,-8.93824 z m 0,15.58359 c -3.75547,0 -6.79885,-2.97595 -6.79885,-6.64535 0,-3.6707 3.04471,-6.64536 6.79885,-6.64536 3.75415,0 6.79885,2.97466 6.79885,6.64536 0.001,3.6694 -3.04337,6.64535 -6.79885,6.64535 z"
       inkscape:connector-curvature="0" />
    <path
       style="fill:none;stroke:#000000;stroke-width:2.20000005;stroke-linecap:round;stroke-linejoin:round;stroke-miterlimit:4;stroke-dasharray:none"
       id="path2377"
       d="m 179.80163,297.7439 c 0,0 -21.33809,-30.09268 -42.90823,-34.44775"
       inkscape:connector-curvature="0" />
    <path
       style="fill:none;stroke:#000000;stroke-width:2.20000005;stroke-linecap:round;stroke-linejoin:round;stroke-miterlimit:4;stroke-dasharray:none"
       id="path2379"
       d="m 125.63889,298.58641 c 0,0 -2.34453,2.97854 -1.64037,5.27014 0.70416,2.29159 1.64037,3.20926 1.64037,3.20926"
       inkscape:connector-curvature="0" />
    <ellipse
       style="stroke:#000000;stroke-width:2.20000005;stroke-linecap:round;stroke-linejoin:round;stroke-miterlimit:4;stroke-dasharray:none"
       id="circle2381"
       cy="355.41873"
       cx="163.386"
       rx="2.1098056"
       ry="2.0621734" />
    <path
       style="fill:none;stroke:#000000;stroke-width:2.20000005;stroke-linecap:round;stroke-linejoin:round;stroke-miterlimit:4;stroke-dasharray:none"
       id="path2383"
       d="m 169.95144,354.95983 c 0,0 -3.51679,-2.29289 -6.56547,-1.60464"
       inkscape:connector-curvature="0" />
    <path
       style="stroke:#000000;stroke-width:2.20000005;stroke-linecap:round;stroke-linejoin:round;stroke-miterlimit:4;stroke-dasharray:none"
       id="path2385"
       d="m 134.07016,267.00572 c -1.07414,0.69345 -2.3578,1.10303 -3.74091,1.10303 -0.47605,0 -0.94018,-0.0492 -1.3884,-0.13998 l -0.11009,0.092 c -0.43627,3.62274 3.27014,10.01664 9.37544,20.88356 6.08276,10.82804 19.7335,29.687 19.83561,29.82828 0.86595,-0.65975 1.94008,-1.06803 3.12162,-1.06803 1.0012,0 1.92813,0.29163 2.71582,0.77899 l -19.35159,-29.96568 c 15.6969,15.77025 33.14027,29.19576 33.14027,29.19576 l 2.94921,-1.13024 c -25.39591,-22.27557 -46.36267,-49.33657 -46.547,-49.57766 z"
       inkscape:connector-curvature="0" />
    <path
       style="stroke:#000000;stroke-width:2.20000005;stroke-linecap:round;stroke-linejoin:round;stroke-miterlimit:4;stroke-dasharray:none"
       id="path2387"
       d="m 111.75873,446.96438 c 0,0 -1.18286,3.90141 -1.77429,5.34661 -0.59145,1.44521 1.62577,-0.57679 2.51292,-0.28904 0.88714,0.28775 2.07002,1.73554 2.36574,0.72326 0.29572,-1.01229 -1.33006,-1.73554 -1.4786,-2.89041 -0.14851,-1.15489 -1.03434,-4.76854 -1.62577,-2.89042 z"
       inkscape:connector-curvature="0" />
    <path
       style="fill:none;stroke:#000000;stroke-width:2.20000005;stroke-linecap:round;stroke-linejoin:round;stroke-miterlimit:4;stroke-dasharray:none"
       id="path2389"
       d="m 142.50937,474.99878 c 0,0 11.23595,-6.35759 12.41882,-7.8041 1.18287,-1.44651 2.51425,-2.74525 2.51425,-2.74525 0,0 8.5745,-1.73553 11.67888,-5.78082"
       inkscape:connector-curvature="0" />
    <path
       style="stroke:#000000;stroke-width:2.20000005;stroke-linecap:round;stroke-linejoin:round;stroke-miterlimit:4;stroke-dasharray:none"
       id="path2391"
       d="m 293.70196,335.27909 c -1.53163,0 -2.77152,1.2132 -2.77152,2.70896 0,1.49575 1.24122,2.70894 2.77152,2.70894 1.5303,0 2.77152,-1.21319 2.77152,-2.70894 0,-1.49576 -1.23989,-2.70896 -2.77152,-2.70896 z m -12.00905,6.92144 c -1.70137,0 -3.07917,1.34799 -3.07917,3.00966 0,1.66165 1.37912,3.00965 3.07917,3.00965 1.70005,0 3.07918,-1.348 3.07918,-3.00965 0,-1.66167 -1.3778,-3.00966 -3.07918,-3.00966 z m -13.24098,6.92403 c -1.87112,0 -3.38683,1.48279 -3.38683,3.31036 0,1.82758 1.51705,3.31037 3.38683,3.31037 1.86978,0 3.38682,-1.48279 3.38682,-3.31037 0,-1.82757 -1.51573,-3.31036 -3.38682,-3.31036 z m 36.33481,-20.7682 c -1.53165,0 -2.77154,1.2132 -2.77154,2.70895 0,1.49575 1.24123,2.70897 2.77154,2.70897 1.53029,0 2.77151,-1.21322 2.77151,-2.70897 0,-1.49575 -1.24122,-2.70895 -2.77151,-2.70895 z m -92.9906,44.54347 c -2.2106,0 -4.00347,1.75239 -4.00347,3.91306 0,2.16069 1.79287,3.91308 4.00347,3.91308 2.2106,0 4.00347,-1.75239 4.00347,-3.91308 0,-2.16067 -1.79287,-3.91306 -4.00347,-3.91306 z m 41.25991,-17.15454 c -2.04086,0 -3.69581,1.6176 -3.69581,3.61237 0,1.99477 1.65495,3.61236 3.69581,3.61236 2.04085,0 3.69581,-1.61759 3.69581,-3.61236 0,-1.99477 -1.65496,-3.61237 -3.69581,-3.61237 z m -60.3264,18.53106 c -1.07811,2.39268 -2.07533,4.86573 -2.90149,7.48006 0.13394,0.0778 0.2692,0.15164 0.42038,0.197 1.48786,0.45238 3.24228,-0.9034 3.91726,-3.02779 0.66835,-2.10624 0.0252,-4.17489 -1.43615,-4.64927 z m 41.85134,-10.7062 c -2.21059,0 -4.00346,1.75238 -4.00346,3.91307 0,2.16067 1.79287,3.91307 4.00346,3.91307 2.21058,0 4.00345,-1.7524 4.00345,-3.91307 0,-2.16069 -1.79287,-3.91307 -4.00345,-3.91307 z"
       inkscape:connector-curvature="0" />
    <line
       id="line2393"
       y2="372.89984"
       x2="211.79614"
       y1="368.08463"
       x1="212.41144"
       style="stroke:#000000;stroke-width:2.20000005;stroke-linecap:round;stroke-linejoin:round;stroke-miterlimit:4;stroke-dasharray:none" />
    <path
       style="stroke:#000000;stroke-width:2.20000005;stroke-linecap:round;stroke-linejoin:round;stroke-miterlimit:4;stroke-dasharray:none"
       id="path2395"
       d="m 278.92271,330.1632 c 0,0 6.77366,-1.80684 11.39243,2.40694 l 1.53957,-9.32968 c 0,0 6.77366,-1.50482 9.23755,0.6014 0,0 0,-6.62071 2.15487,-7.82484 l -0.78637,-0.93322 c -1.84855,-1.18728 -3.67458,-2.16718 -5.36269,-2.96689 -6.15438,4.02583 -26.77505,17.14158 -45.88927,24.96773 -19.95099,8.16962 -42.96923,11.26222 -48.38895,11.90513 -1.21471,7.7691 -4.78187,14.29523 -8.16473,21.20758 l 10.98134,-8.43404 6.77366,6.32002 8.0056,-8.72826 2.1549,-3.61238 8.92987,6.01932 5.54304,-11.13521 10.46947,3.31037 4.00347,-9.93239 11.39241,2.70894 3.6958,-10.53381 11.70007,1.80554 z"
       inkscape:connector-curvature="0" />
    <line
       id="line2397"
       y2="363.89804"
       x2="232.38895"
       y1="362.09769"
       x1="231.52963"
       style="stroke:#000000;stroke-width:2.20000005;stroke-linecap:round;stroke-linejoin:round;stroke-miterlimit:4;stroke-dasharray:none" />
    <line
       id="line2399"
       y2="356.93643"
       x2="250.31767"
       y1="353.93973"
       x1="247.51433"
       style="stroke:#000000;stroke-width:2.20000005;stroke-linecap:round;stroke-linejoin:round;stroke-miterlimit:4;stroke-dasharray:none" />
    <line
       id="line2401"
       y2="349.85559"
       x2="265.66846"
       y1="346.71628"
       x1="262.91019"
       style="stroke:#000000;stroke-width:2.20000005;stroke-linecap:round;stroke-linejoin:round;stroke-miterlimit:4;stroke-dasharray:none" />
    <line
       id="line2403"
       y2="342.41312"
       x2="280.03531"
       y1="337.98804"
       x1="278.30609"
       style="stroke:#000000;stroke-width:2.20000005;stroke-linecap:round;stroke-linejoin:round;stroke-miterlimit:4;stroke-dasharray:none" />
    <line
       id="line2405"
       y2="335.81177"
       x2="291.94623"
       y1="332.57013"
       x1="290.31512"
       style="stroke:#000000;stroke-width:2.20000005;stroke-linecap:round;stroke-linejoin:round;stroke-miterlimit:4;stroke-dasharray:none" />
    <line
       id="line2407"
       y2="328.61041"
       x2="303.24448"
       y1="323.84189"
       x1="301.09222"
       style="stroke:#000000;stroke-width:2.20000005;stroke-linecap:round;stroke-linejoin:round;stroke-miterlimit:4;stroke-dasharray:none" />
    <path
       style="stroke:#000000;stroke-width:2.20000005;stroke-linecap:round;stroke-linejoin:round;stroke-miterlimit:4;stroke-dasharray:none"
       id="path2409"
       d="m 191.17149,401.03923 c 0,0 -2.35646,-2.5327 -2.04217,-17.50709 0,0 -11.47067,13.28552 -3.45712,27.49002 l 2.04351,-5.52937 z m -6.79619,-1.99608 c -1.08077,-0.88137 -0.97469,-2.74912 0.23737,-4.17101 1.21337,-1.42187 3.07386,-1.85997 4.15594,-0.97729 1.08078,0.88139 0.97601,2.74914 -0.23737,4.171 -1.21203,1.42188 -3.07254,1.8587 -4.15594,0.9773 z m 336.80772,60.47962 c -9.54651,-10.82286 -26.70874,-35.52098 -30.45493,-48.62633 20.64186,-1.5165 34.91987,-4.05565 42.10063,-6.38354 -0.4522,-3.6344 -1.25979,-6.58833 -2.21059,-8.96417 -3.28207,1.13155 -18.37692,5.93507 -38.07197,5.93507 -9.11818,0 -26.60529,-0.34478 -46.76714,-1.36872 -1.24785,-4.31619 -2.37768,-8.55589 -3.34705,-12.62709 -5.67034,-23.80119 -17.14762,-33.90727 -21.67755,-37.08414 -3.69315,0.74789 -8.24029,1.42448 -14.41722,1.91572 6.04033,3.99602 17.47785,13.49809 22.61907,30.64096 1.75972,5.86768 3.44253,11.35167 5.05637,16.49092 -26.37454,-1.62797 -55.26602,-4.43025 -75.38542,-9.08213 -39.14213,-9.04972 -69.44987,-11.52277 -85.03802,-11.52537 15.94884,-13.3918 36.46077,-41.15661 42.9533,-50.18039 -1.75176,-1.51781 -3.17333,-2.99541 -4.17054,-4.38878 -0.1088,-0.15035 -0.22147,-0.29422 -0.33154,-0.44198 -8.93252,14.40281 -31.50386,37.87477 -47.74445,46.77932 -17.267,9.46708 -66.95949,35.8113 -66.95949,35.8113 l -0.62193,8.22536 -1.62844,8.87214 c 10.96939,-8.77231 38.5507,-20.94317 59.50951,-32.4439 l 0.0133,0.11668 c 0,0 19.3715,-4.52873 38.32261,-0.41218 12.34589,2.68174 48.10384,10.6025 86.54979,16.0269 3.48628,10.40028 15.41576,43.29915 32.62837,62.18146 20.63658,22.63853 32.00645,16.05279 32.00645,16.05279 0,0 -22.33927,-11.96994 -37.90224,-42.39573 -8.14216,-15.91673 -13.00095,-28.31828 -15.34548,-34.31945 16.1292,2.02069 32.36847,3.47757 47.23259,3.81587 9.44307,28.56841 16.56946,44.52013 23.70249,55.61127 9.26405,14.40541 25.2686,18.52327 26.95141,17.28804 1.68279,-1.23522 0,-2.88133 -11.79158,-15.64062 -8.70973,-9.4256 -19.48686,-33.23068 -27.41155,-57.13944 11.22931,0.0195 21.47465,-0.24627 30.69494,-0.71678 3.73029,8.83066 21.05298,47.63089 43.45987,62.79454 10.94952,7.41009 17.68736,6.58704 19.37148,4.94092 1.68415,-1.64611 -11.36589,-7.82226 -21.89502,-19.7585 z M 209.15589,410.70201 c -2.01565,0 -3.64939,-1.59685 -3.64939,-3.567 0,-1.97014 1.63374,-3.567 3.64939,-3.567 2.01568,0 3.64942,1.59686 3.64942,3.567 0,1.97015 -1.63374,3.567 -3.64942,3.567 z m 17.82661,-9.05618 c -2.01563,0 -3.64939,-1.59686 -3.64939,-3.56701 0,-1.97015 1.63376,-3.567 3.64939,-3.567 2.01566,0 3.6494,1.59685 3.6494,3.567 0,1.97015 -1.63374,3.56701 -3.6494,3.56701 z m 16.00323,-8.78142 c -2.01564,0 -3.64938,-1.59686 -3.64938,-3.567 0,-1.97015 1.63374,-3.56701 3.64938,-3.56701 2.01565,0 3.64939,1.59686 3.64939,3.56701 0,1.97014 -1.63374,3.567 -3.64939,3.567 z m 16.70474,-8.50663 c -2.01566,0 -3.6494,-1.59686 -3.6494,-3.567 0,-1.97015 1.63374,-3.567 3.6494,-3.567 2.01563,0 3.64937,1.59685 3.64937,3.567 0,1.97014 -1.63374,3.567 -3.64937,3.567 z m 9.54517,-12.89669 c 0,-1.97015 1.63374,-3.56699 3.64939,-3.56699 2.01566,0 3.6494,1.59684 3.6494,3.56699 0,1.97016 -1.63374,3.567 -3.6494,3.567 -2.01565,0 -3.64939,-1.59684 -3.64939,-3.567 z m 97.21683,29.74792 c -2.01699,0 -3.65072,-1.59684 -3.65072,-3.56699 0,-1.97015 1.63373,-3.56701 3.65072,-3.56701 2.01697,0 3.65071,1.59686 3.65071,3.56701 0,1.97015 -1.63374,3.56699 -3.65071,3.56699 z m 50.29584,62.66364 c 2.01698,0 3.65073,1.59685 3.65073,3.56829 0,1.97145 -1.63375,3.56829 -3.65073,3.56829 -2.01697,0 -3.65071,-1.59684 -3.65071,-3.56829 0,-1.97144 1.63507,-3.56829 3.65071,-3.56829 z m -35.68369,-61.80428 c 0,-2.21772 1.84061,-4.01677 4.11088,-4.01677 2.27026,0 4.11086,1.79905 4.11086,4.01677 0,2.2177 -1.8406,4.01676 -4.11086,4.01676 -2.27027,0 -4.11088,-1.79906 -4.11088,-4.01676 z m 22.3565,41.59082 c 2.01699,0 3.65073,1.59686 3.65073,3.56831 0,1.97145 -1.63374,3.5683 -3.65073,3.5683 -2.01696,0 -3.65072,-1.59685 -3.65072,-3.5683 0,-1.97145 1.63507,-3.56831 3.65072,-3.56831 z m -11.94671,-22.6826 c 2.01699,0 3.65073,1.59686 3.65073,3.56829 0,1.97144 -1.63374,3.56831 -3.65073,3.56831 -2.01699,0 -3.65072,-1.59687 -3.65072,-3.56831 0,-1.97143 1.63373,-3.56829 3.65072,-3.56829 z m 10.11009,-14.20061 c -2.01699,0 -3.65071,-1.59686 -3.65071,-3.567 0,-1.97015 1.63372,-3.567 3.65071,-3.567 2.01698,0 3.65072,1.59685 3.65072,3.567 0,1.97014 -1.63507,3.567 -3.65072,3.567 z m 18.39416,1.60853 c -2.01698,0 -3.65073,-1.59687 -3.65073,-3.56701 0,-1.97014 1.63375,-3.567 3.65073,-3.567 2.01699,0 3.65073,1.59686 3.65073,3.567 0,1.97014 -1.63506,3.56701 -3.65073,3.56701 z m 46.40247,53.01767 c 2.01697,0 3.6507,1.59686 3.6507,3.56831 0,1.97144 -1.63373,3.56829 -3.6507,3.56829 -2.01698,0 -3.65072,-1.59685 -3.65072,-3.56829 0,-1.97145 1.63374,-3.56831 3.65072,-3.56831 z m -28.56261,-55.51536 c 0,-2.21771 1.84062,-4.01677 4.11088,-4.01677 2.27026,0 4.11086,1.79906 4.11086,4.01677 0,2.21772 -1.8406,4.01806 -4.11086,4.01806 -2.27026,0 -4.11088,-1.80034 -4.11088,-4.01806 z m 18.68192,35.75168 c 2.01699,0 3.65073,1.59685 3.65073,3.56831 0,1.97142 -1.63374,3.5683 -3.65073,3.5683 -2.01697,0 -3.65071,-1.59688 -3.65071,-3.5683 0,-1.97146 1.63374,-3.56831 3.65071,-3.56831 z m -4.85082,-16.19538 c 0,1.97144 -1.63374,3.56829 -3.65072,3.56829 -2.01699,0 -3.65072,-1.59685 -3.65072,-3.56829 0,-1.97145 1.63373,-3.56829 3.65072,-3.56829 2.01698,0 3.65072,1.59684 3.65072,3.56829 z m 11.66957,-15.12607 c -2.01698,0 -3.65071,-1.59815 -3.65071,-3.56829 0,-1.97015 1.63373,-3.567 3.65071,-3.567 2.01698,0 3.65072,1.59685 3.65072,3.567 0,1.97014 -1.63374,3.56829 -3.65072,3.56829 z m 21.80883,0.7103 c -2.27028,0 -4.11087,-1.79907 -4.11087,-4.01677 0,-2.2177 1.84059,-4.01675 4.11087,-4.01675 2.27026,0 4.11087,1.79905 4.11087,4.01675 0,2.2177 -1.84061,4.01677 -4.11087,4.01677 z m 8.82645,20.90299 c -2.01699,0 -3.65073,-1.59685 -3.65073,-3.56829 0,-1.97145 1.63374,-3.5683 3.65073,-3.5683 2.01697,0 3.6507,1.59685 3.6507,3.5683 0,1.97144 -1.63507,3.56829 -3.6507,3.56829 z m 13.55659,21.56014 c -2.01698,0 -3.65073,-1.59684 -3.65073,-3.56829 0,-1.97143 1.63375,-3.5683 3.65073,-3.5683 2.01697,0 3.6507,1.59687 3.6507,3.5683 0,1.97145 -1.63507,3.56829 -3.6507,3.56829 z m 15.62396,17.51875 c -2.01699,0 -3.65072,-1.59684 -3.65072,-3.56829 0,-1.97144 1.63373,-3.56829 3.65072,-3.56829 2.01698,0 3.65072,1.59685 3.65072,3.56829 0,1.97145 -1.63507,3.56829 -3.65072,3.56829 z M 191.10387,427.37049 c -1.07944,-0.0959 -3.97429,-2.30196 -3.97429,-2.30196 l -0.63785,1.58259 c 0,0 -0.80096,4.53263 2.87894,10.09571 l 8.70046,-4.24358 c 0,0 -3.5327,-3.64608 -3.77802,-6.85793 -0.001,-0.001 -2.11114,1.82109 -3.18924,1.72517 z"
       inkscape:connector-curvature="0" />
    <path
       style="fill:#ffffff;stroke:#000000;stroke-width:2.20000005;stroke-linecap:round;stroke-linejoin:round;stroke-miterlimit:4;stroke-dasharray:none"
       id="path2411"
       d="m 191.44069,399.1287 c -4.89989,0 -7.46323,7.60451 -7.46323,15.11568 0,7.51119 2.56334,15.1157 7.46323,15.1157 4.89991,0 7.46322,-7.60451 7.46322,-15.1157 0,-7.51117 -2.56331,-15.11568 -7.46322,-15.11568 z m 0,26.34294 c -1.01182,0 -3.48496,-3.93381 -3.48496,-11.22726 0,-7.29213 2.47449,-11.22724 3.48496,-11.22724 1.01048,0 3.48496,3.93511 3.48496,11.22724 0,7.29345 -2.47316,11.22726 -3.48496,11.22726 z m 293.68733,-26.09798 c -4.31509,0 -7.81198,3.41926 -7.81198,7.63562 0,4.21638 3.49689,7.63692 7.81198,7.63692 4.31509,0 7.81198,-3.42054 7.81198,-7.63692 -10e-4,-4.21767 -3.49689,-7.63562 -7.81198,-7.63562 z m 0,11.65369 c -2.27028,0 -4.11087,-1.79907 -4.11087,-4.01677 0,-2.2177 1.84059,-4.01675 4.11087,-4.01675 2.27026,0 4.11087,1.79905 4.11087,4.01675 0,2.2177 -1.84061,4.01677 -4.11087,4.01677 z m -43.19995,-12.77743 c -4.31509,0 -7.81198,3.41922 -7.81198,7.6356 0,4.21508 3.49689,7.63563 7.81198,7.63563 4.3151,0 7.81199,-3.42055 7.81199,-7.63563 0,-4.21638 -3.49689,-7.6356 -7.81199,-7.6356 z m 0,11.65367 c -2.27027,0 -4.11087,-1.79905 -4.11087,-4.01807 0,-2.219 1.8406,-4.01676 4.11087,-4.01676 2.27025,0 4.11087,1.79905 4.11087,4.01676 0,2.21771 -1.84062,4.01807 -4.11087,4.01807 z M 385.1755,394.43146 c -4.31508,0 -7.81197,3.41923 -7.81197,7.63561 0,4.21637 3.49689,7.6369 7.81197,7.6369 4.31508,0 7.81197,-3.42053 7.81197,-7.6369 -10e-4,-4.21638 -3.49689,-7.63561 -7.81197,-7.63561 z m 0,11.65367 c -2.27027,0 -4.11088,-1.79906 -4.11088,-4.01676 0,-2.21772 1.84061,-4.01677 4.11088,-4.01677 2.27026,0 4.11086,1.79905 4.11086,4.01677 0,2.2177 -1.8406,4.01676 -4.11086,4.01676 z"
       inkscape:connector-curvature="0" />
    <path
       style="stroke:#000000;stroke-width:2.20000005;stroke-linecap:round;stroke-linejoin:round;stroke-miterlimit:4;stroke-dasharray:none"
       id="path2413"
       d="m 404.68224,352.43751 c -4.56174,0.32275 -9.99473,0.54957 -16.52172,0.63511 2.84311,-2.76597 5.11073,-4.27858 6.32544,-3.71735 4.27928,1.98182 6.78558,2.95911 10.19628,3.08224 z"
       inkscape:connector-curvature="0" />
    <path
       style="fill:#ffffff;stroke:#000000;stroke-width:2.20000005;stroke-linecap:round;stroke-linejoin:round;stroke-miterlimit:4;stroke-dasharray:none"
       id="path2415"
       d="m 286.31301,469.78698 2.31667,0.53531 0.65639,-2.71544 -2.05941,-0.47698 c 0.0147,-0.16461 0.0451,-0.32534 0.0451,-0.49384 0,-0.4368 -0.0556,-0.85935 -0.14851,-1.26892 l 2.01565,-1.21579 -1.4998,-2.37325 -1.8035,1.08877 c -0.38986,-0.45235 -0.83542,-0.85158 -1.34729,-1.17043 l 0.54634,-2.25919 -2.77682,-0.64159 -0.48934,2.0194 c -0.1684,-0.0141 -0.33151,-0.0492 -0.5039,-0.0492 -0.44689,0 -0.8792,0.0558 -1.29824,0.14517 l -1.24519,-1.97142 -2.42809,1.46593 1.11393,1.76407 c -0.46282,0.38105 -0.87125,0.81657 -1.19879,1.31688 l -2.31136,-0.53531 -0.65642,2.71542 2.06604,0.47829 c -0.0144,0.16461 -0.0516,0.32403 -0.0516,0.49253 0,0.43551 0.0648,0.85417 0.15912,1.26245 l -2.02626,1.22228 1.4998,2.37325 1.17758,-0.71031 c -1.7027,4.40952 -7.15292,13.65625 -22.58991,11.8546 l -3.6043,5.72508 c 0,0 24.13081,4.6454 32.56207,-15.97116 0.0425,-0.009 0.0822,-0.0273 0.12469,-0.0351 l 1.24784,1.97535 2.42807,-1.46595 -1.10331,-1.74721 c 0.46281,-0.37977 0.85534,-0.83472 1.18289,-1.33374 z m -7.30145,-3.14964 c 0,-1.2158 1.00783,-2.20087 2.25169,-2.20087 1.24388,0 2.25171,0.98637 2.25171,2.20087 0,1.21449 -1.00783,2.20085 -2.25171,2.20085 -1.24386,0 -2.25169,-0.98636 -2.25169,-2.20085 z"
       inkscape:connector-curvature="0" />
    <path
       style="fill:#ffffff;stroke:#000000;stroke-width:2.20000005;stroke-linecap:round;stroke-linejoin:round;stroke-miterlimit:4;stroke-dasharray:none"
       id="path2417"
       d="m 366.25222,114.48267 c 0,0 46.13725,9.99461 81.05049,27.54446 0,0 -1.74515,9.01861 -17.20866,18.03852 0,0 -51.12332,-25.59507 -54.36559,-27.54447 -3.24229,-1.9494 -9.47624,-18.03851 -9.47624,-18.03851 z"
       inkscape:connector-curvature="0" />
    <path
       style="fill:#ffffff;stroke:#000000;stroke-width:2.20000005;stroke-linecap:round;stroke-linejoin:round;stroke-miterlimit:4;stroke-dasharray:none"
       id="path2419"
       d="m 431.34191,159.82068 c 0,0 -0.74925,4.63114 -0.24931,7.06919 0,0 13.71573,4.1438 22.94398,9.74963 0,0 12.23846,-10.54029 15.46216,-19.98791 0.74792,-2.19438 -3.49289,-7.0692 -8.97892,-9.50597 -5.48602,-2.43674 -11.22268,-4.87481 -11.22268,-4.87481 l -7.48179,10.96931 z"
       inkscape:connector-curvature="0" />
    <path
       style="fill:#ffffff;stroke:#000000;stroke-width:2.20000005;stroke-linecap:round;stroke-linejoin:round;stroke-miterlimit:4;stroke-dasharray:none"
       id="path2421"
       d="m 428.59955,159.33332 c 0,0 -1.49582,1.70703 -0.4986,2.43806 0.99722,0.73103 8.66466,1.61111 17.70593,-9.50597 7.73109,-9.50595 8.72964,-11.70033 5.73665,-13.40607 -2.99297,-1.70572 -4.23817,0.24369 -5.23672,2.92411 -0.99854,2.68045 -6.23527,12.91874 -17.70726,17.54987 z"
       inkscape:connector-curvature="0" />
    <path
       style="fill:#fcef3c;stroke:#000000;stroke-width:2.20000005;stroke-linecap:round;stroke-linejoin:round;stroke-miterlimit:4;stroke-dasharray:none"
       id="path2423"
       d="m 360.99429,95.004137 c 0,0 -16.73126,7.592843 -16.73126,22.777223 h 5.07893 c 0,0 3.45578,-11.15465 19.41923,-16.35351 3.58705,-1.16783 2.99033,-10.51306 -7.7669,-6.423713 z"
       inkscape:connector-curvature="0" />
    <polygon
       style="fill:#fef502;fill-opacity:1;stroke:#000000;stroke-width:1.67806625;stroke-linecap:round;stroke-linejoin:round;stroke-miterlimit:4;stroke-dasharray:none"
       id="polygon2425"
       transform="matrix(1.3260878,0,0,1.2961491,72.419013,34.333963)"
       points="195.31,67.535 207.25,59.424 52.247,57.396 46.839,60.1 52.021,62.353 " />
    <path
       style="fill:#fcef3c;stroke:#000000;stroke-width:2.20000005;stroke-linecap:round;stroke-linejoin:round;stroke-miterlimit:4;stroke-dasharray:none"
       id="path2427"
       d="m 361.34702,113.52352 c 0,0 7.23382,-6.01154 10.30637,-3.5372 3.0301,2.44067 -0.98396,10.64528 -0.98396,10.64528 z"
       inkscape:connector-curvature="0" />
    <ellipse
       style="fill:#fcef3c;stroke:#000000;stroke-width:2.20000005;stroke-linecap:round;stroke-linejoin:round;stroke-miterlimit:4;stroke-dasharray:none"
       id="circle2429"
       cy="106.37525"
       cx="374.55615"
       rx="6.6874609"
       ry="6.5364804" />
    <path
       style="fill:#ffffff;stroke:#000000;stroke-width:2.20000005;stroke-linecap:round;stroke-linejoin:round;stroke-miterlimit:4;stroke-dasharray:none"
       id="path2431"
       d="m 308.81405,420.70829 c 0,0 6.33472,-0.29552 7.54148,4.12823 1.20672,4.42377 7.54144,0.88398 6.93807,-2.35899 -0.60336,-3.24296 -3.01551,-7.66672 -3.01551,-10.31995 0,-2.6532 1.2054,5.60326 5.429,4.12953 4.22359,-1.47372 9.05054,-11.79365 -5.429,-13.56289 0,0 2.41215,-8.25648 8.44585,-6.78146 6.03369,1.47503 11.76506,0.58975 18.40079,3.83401 2.41348,1.1795 7.16221,-1.44001 10.25597,-6.19171 2.11113,-3.24296 31.37258,-46.88041 37.10393,-44.2272 5.73133,2.65323 8.28274,3.50739 14.08171,2.91763 2.41879,-0.24496 -3.5234,-9.99331 -9.55709,-9.99331 -6.03371,0 -15.98866,-1.47503 -15.98866,-1.47503 l -56.10809,41.86823 -24.43449,35.08676 1.8101,5.30772 z"
       inkscape:connector-curvature="0" />
    <path
       style="fill:#ffffff;stroke:#000000;stroke-width:2.20000005;stroke-linecap:round;stroke-linejoin:round;stroke-miterlimit:4;stroke-dasharray:none"
       id="path2433"
       d="m 211.17951,553.89798 c -2.57129,0.5379 -1.95864,-31.01296 13.95973,-45.60242 2.93861,-2.6934 -1.46798,-10.41196 8.81715,-21.00539 10.28515,-10.59342 13.40941,-2.69209 14.14407,2.33437 0.73465,5.02646 5.87722,5.3842 5.50989,11.48907 -0.36732,6.10485 -11.48658,10.29661 -24.06319,23.33975 -15.0617,15.6199 -13.99287,28.52954 -18.36765,29.44462 z"
       inkscape:connector-curvature="0" />
    <path
       style="fill:#ffffff;stroke:#000000;stroke-width:2.20000005;stroke-linecap:round;stroke-linejoin:round;stroke-miterlimit:4;stroke-dasharray:none"
       id="path2435"
       d="m 285.39402,394.29146 c 0,0 -5.97138,3.95197 -24.27271,37.84498 -18.30133,33.893 -28.7045,57.24183 -28.7045,57.24183 0,0 3.46771,1.31818 3.8523,6.0245 0.38455,4.70631 5.58678,-2.07254 8.86223,-3.38943 3.27543,-1.31689 5.58681,0.9436 5.58681,-0.18794 0,-1.13154 2.3127,-4.33043 5.20091,-7.15603 2.88822,-2.82561 45.46359,-45.18896 48.15955,-52.72217 2.69592,-7.53323 5.58679,-14.68666 5.58679,-14.68666 l 2.31138,-24.28984 -9.63271,-5.27144 z"
       inkscape:connector-curvature="0" />
    <path
       style="fill:#ffffff;stroke:#000000;stroke-width:2.20000005;stroke-linecap:round;stroke-linejoin:round;stroke-miterlimit:4;stroke-dasharray:none"
       id="path2437"
       d="m 308.12449,389.3972 c 0,0 -0.96275,10.16701 -0.19228,15.25179 0.77046,5.0848 0.77046,13.55902 -0.19362,17.51228 0,0 6.35727,-8.28499 8.66865,-15.06385 2.31136,-6.77886 6.85057,-13.07037 11.90164,-17.64448 5.05107,-4.5741 -1.69076,-6.08023 -1.69076,-6.08023 h -15.41181 z"
       inkscape:connector-curvature="0" />
    <path
       style="fill:#ffffff;stroke:#000000;stroke-width:2.20000005;stroke-linecap:round;stroke-linejoin:round;stroke-miterlimit:4;stroke-dasharray:none"
       id="path2439"
       d="m 298.10722,370.19217 c 0,0 -12.52224,2.44713 -15.2195,9.60317 -2.69727,7.15603 1.9268,10.16829 0.57817,12.05029 -1.34863,1.88203 -5.7791,4.89556 -3.08316,8.85012 0,0 19.65926,-12.92262 26.19953,-8.66087 2.31137,1.50611 2.11908,-3.57867 2.11908,-3.57867 l -7.51362,-17.51097 z"
       inkscape:connector-curvature="0" />
    <path
       style="fill:#ffffff;stroke:#000000;stroke-width:2.20000005;stroke-linecap:round;stroke-linejoin:round;stroke-miterlimit:4;stroke-dasharray:none"
       id="path2441"
       d="m 398.92304,325.29227 c 0,0 4.97284,7.12882 -15.91305,23.00663 -20.88587,15.87784 -54.70111,41.15276 -54.70111,41.15276 0,0 -11.60328,-1.29617 -15.58155,0.9721 -3.97825,2.26827 -7.625,1.62018 -7.29347,-3.24037 0.33152,-4.86057 -2.98371,-13.60956 -10.60871,-16.20187 0,0 0.74925,-1.35059 2.09787,-3.75106 1.93743,-3.45034 8.12362,-7.56433 12.09657,-14.46891 4.18912,-7.28307 9.26274,-15.99319 14.70367,-25.09084 1.56611,-2.61952 0.15116,-6.77757 1.76634,-9.43598 0.27584,-0.45623 0.55299,-0.91118 0.83147,-1.36744 l 19.89133,-1.29614 33.81522,3.24037 16.57609,1.29615 z"
       inkscape:connector-curvature="0" />
    <path
       style="fill:#ffffff;stroke:#000000;stroke-width:2.20000005;stroke-linecap:round;stroke-linejoin:round;stroke-miterlimit:4;stroke-dasharray:none"
       id="path2443"
       d="m 348.12327,344.73579 c 0,0 -1.27568,-10.68415 1.63906,-17.45134 0,0 -4.55511,-9.97258 -23.86693,-9.08213 h -0.38722 c -12.78881,21.05855 -24.44777,41.65046 -28.83445,49.47014 3.81515,-1.99737 17.74968,-8.08797 30.49736,1.63702 0,0 7.46985,-9.61612 17.12642,-14.95885 0,0 12.85378,4.49893 17.82661,9.73278 3.12161,-2.34992 6.25382,-4.7102 9.31046,-7.01864 -2.77683,-2.56379 -9.49082,-7.57599 -23.31131,-12.32898 z"
       inkscape:connector-curvature="0" />
    <path
       style="fill:#ffffff;stroke:#000000;stroke-width:2.20000005;stroke-linecap:round;stroke-linejoin:round;stroke-miterlimit:4;stroke-dasharray:none"
       id="path2445"
       d="m 329.62435,312.06765 c 0,0 -2.12705,1.12636 -4.16524,6.15024 0,0 36.95674,0.25923 56.98597,6.23707 20.02924,5.97784 23.13094,4.50411 23.66271,3.89751 0.53175,-0.60659 3.27942,-10.91487 1.68412,-18.62437 -1.59529,-7.70949 -24.01677,-5.97653 -24.01677,-5.97653 l -37.84256,2.2514 -14.09102,3.6383 z"
       inkscape:connector-curvature="0" />
    <path
       style="fill:#ffffff;stroke:#000000;stroke-width:2.20000005;stroke-linecap:round;stroke-linejoin:round;stroke-miterlimit:4;stroke-dasharray:none"
       id="path2447"
       d="m 338.71734,303.26681 -5.04577,3.15093 c 0,0 -7.11313,6.11523 -5.67035,7.32324 1.4428,1.20802 29.26146,-8.25776 52.55022,-5.43864 23.28873,2.81913 25.69823,4.19951 27.14102,3.39333 1.44278,-0.80622 1.81276,-3.71348 -0.0902,-5.57475 -2.53415,-2.47824 -4.49941,-3.50608 -6.97124,-4.51319 -2.47184,-1.00711 -20.90444,-3.37648 -21.52108,-3.37648 -0.61663,0 -25.96612,1.20932 -25.96612,1.20932 l -14.42651,3.82624 z"
       inkscape:connector-curvature="0" />
    <path
       style="fill:#ffffff;stroke:#000000;stroke-width:2.20000005;stroke-linecap:round;stroke-linejoin:round;stroke-miterlimit:4;stroke-dasharray:none"
       id="path2449"
       d="m 333.6729,306.41774 c 0,0 49.90334,-13.10018 71.0531,-2.76339 0.49197,0.24108 -3.93317,-4.92666 -6.63839,-12.97704 -2.44796,-7.28178 -6.76173,-5.40625 -6.76173,-5.40625 l -16.71798,1.08099 -29.5028,8.53125 -4.67048,4.08547 c -10e-4,-0.001 -3.9345,2.76339 -6.76172,7.44897 z"
       inkscape:connector-curvature="0" />
    <path
       style="fill:#ffffff;stroke:#000000;stroke-width:2.20000005;stroke-linecap:round;stroke-linejoin:round;stroke-miterlimit:4;stroke-dasharray:none"
       id="path2451"
       d="m 341.41724,299.3278 c 0,0 47.0191,-18.30811 56.79369,-7.80929 1.23062,1.32207 5.53244,-2.40306 4.17984,-9.49171 -1.35262,-7.08864 -8.35967,-3.48404 -8.35967,-3.48404 l -11.43219,0.24108 -15.12005,5.16646 -14.75274,5.76785 -7.74434,4.08546 -4.54849,3.36481 z"
       inkscape:connector-curvature="0" />
    <path
       style="fill:#ffffff;stroke:#000000;stroke-width:2.20000005;stroke-linecap:round;stroke-linejoin:round;stroke-miterlimit:4;stroke-dasharray:none"
       id="path2453"
       d="m 339.90949,273.82477 c 0,0 0.96406,9.88573 8.34772,18.82787 0,0 25.04052,-12.86688 41.09281,-15.06255 h 8.18727 l 5.6173,1.56834 c 0,0 0.16047,-5.80546 3.37091,-10.51178 3.21046,-4.70631 4.6559,-15.37621 4.6559,-15.37621 l -9.9523,-18.67103 -5.45817,-17.72873 -7.54411,-12.39507 -5.6173,0.31368 3.05,18.51417 -12.03824,15.06256 -8.66862,0.31367 -3.04999,6.90329 -20.2255,9.41394 z"
       inkscape:connector-curvature="0" />
    <path
       style="fill:#ffffff;stroke:#000000;stroke-width:2.20000005;stroke-linecap:round;stroke-linejoin:round;stroke-miterlimit:4;stroke-dasharray:none"
       id="path2455"
       d="m 338.19354,297.89168 c 1.55417,3.7964 3.25952,2.15808 7.79076,-0.8788 6.99113,-4.68558 29.56512,-15.8156 43.2477,-16.10725 13.38686,-0.28644 13.38419,3.02651 13.38419,3.02651 0,0 4.2952,1.46465 5.39321,0 1.098,-1.46465 0.79963,-5.85859 -1.49848,-6.63887 -2.29811,-0.78029 -18.57848,-3.70959 -32.56075,1.36744 -24.21966,8.79179 -37.35457,15.32566 -35.75663,19.23097 z"
       inkscape:connector-curvature="0" />
    <path
       style="fill:#ffffff;stroke:#000000;stroke-width:2.20000005;stroke-linecap:round;stroke-linejoin:round;stroke-miterlimit:4;stroke-dasharray:none"
       id="path2457"
       d="m 324.34653,253.9587 c 0,0 -2.82059,6.47036 15.79237,22.84463 2.10583,1.85219 49.48164,-7.61488 47.16496,-48.57061 l -11.58072,5.76269 -29.26677,9.67315 z"
       inkscape:connector-curvature="0" />
    <path
       style="fill:#ffffff;stroke:#000000;stroke-width:2.20000005;stroke-linecap:round;stroke-linejoin:round;stroke-miterlimit:4;stroke-dasharray:none"
       id="path2459"
       d="m 423.7315,216.29649 c 0,0 -0.63256,15.43584 -5.26458,25.51988 -4.63203,10.08403 -5.05371,14.81888 -6.1053,15.22975 -1.0516,0.41088 -14.94898,-3.77698 -18.46444,-38.52674 l 9.83029,-3.66421 c 0,0 13.26751,-0.61698 13.89739,-0.61698 0.62988,0 6.10664,2.0583 6.10664,2.0583 z"
       inkscape:connector-curvature="0" />
    <path
       style="fill:#ffffff;stroke:#000000;stroke-width:2.20000005;stroke-linecap:round;stroke-linejoin:round;stroke-miterlimit:4;stroke-dasharray:none"
       id="path2461"
       d="m 315.08248,227.82054 c 0,0 -5.05506,22.84465 10.94818,28.19514 16.00322,5.35049 40.63795,-0.61696 42.95463,-17.69891 l -13.05401,-4.32136 -14.949,-2.88135 -16.42358,-5.55659 -6.527,-0.61696 z"
       inkscape:connector-curvature="0" />
    <path
       style="fill:#ffffff;stroke:#000000;stroke-width:2.20000005;stroke-linecap:round;stroke-linejoin:round;stroke-miterlimit:4;stroke-dasharray:none"
       id="path2463"
       d="m 328.14841,299.45094 c 0,0 4.19443,-0.061 4.32173,-3.04336 0.12727,-2.98243 -1.77962,-2.60915 -3.87617,-2.85801 -2.09653,-0.24886 -6.67286,0.30979 -9.78652,-1.05637 v 0.93195 l 3.36826,3.35443 4.32173,2.98114 z"
       inkscape:connector-curvature="0" />
    <path
       style="fill:#ffffff;stroke:#000000;stroke-width:2.20000005;stroke-linecap:round;stroke-linejoin:round;stroke-miterlimit:4;stroke-dasharray:none"
       id="path2465"
       d="m 255.82095,252.29702 c 0,0 22.40822,33.64675 35.90779,47.49999 0,0 -0.53972,5.0135 5.26456,5.80544 0,0 4.18514,5.40885 9.98943,10.02703 5.80428,4.61817 8.90998,-0.26442 8.90998,-0.26442 0,0 7.15425,1.45169 7.15425,-3.95844 0,0 4.72485,-1.31948 3.51016,-5.01351 0,0 3.50882,-2.50675 1.88967,-6.5974 0,0 -4.99538,-2.90208 -6.7498,-4.61818 -1.75441,-1.7161 -3.77933,-4.35377 -9.85414,-3.82622 -6.07481,0.52753 -7.15426,1.05506 -7.42478,0 -0.27052,-1.05508 -7.02031,-18.34052 -23.08453,-45.25766 l -6.88372,-1.45167 -9.04525,1.45167 -6.344,3.69532 z"
       inkscape:connector-curvature="0" />
    <path
       style="fill:#ffffff;stroke:#000000;stroke-width:2.20000005;stroke-linecap:round;stroke-linejoin:round;stroke-miterlimit:4;stroke-dasharray:none"
       id="path2467"
       d="m 264.76672,221.77401 c 0,0 -10.18566,1.22488 -20.26262,11.0743 -0.97997,0.95785 2.83252,10.32772 10.78506,19.91144 0,0 11.65633,-12.45859 25.4914,-7.77301 l 0.65377,-4.68427 -7.2988,-7.24029 -6.1,-7.13401 z"
       inkscape:connector-curvature="0" />
    <path
       style="fill:#ffffff;stroke:#000000;stroke-width:2.20000005;stroke-linecap:round;stroke-linejoin:round;stroke-miterlimit:4;stroke-dasharray:none"
       id="path2469"
       d="m 252.61579,253.28989 c 0.82349,1.81071 1.9931,2.59877 5.31761,-0.48736 3.3245,-3.08614 13.66932,-8.91881 23.59508,-5.68491 1.49582,0.48734 3.48893,-1.94812 -1.32875,-3.24816 -4.81768,-1.30003 -12.02762,-0.78157 -15.61998,0.9747 -3.98886,1.94942 -12.62966,6.98366 -11.96396,8.44573 z"
       inkscape:connector-curvature="0" />
    <path
       style="fill:#ffffff;stroke:#000000;stroke-width:2.20000005;stroke-linecap:round;stroke-linejoin:round;stroke-miterlimit:4;stroke-dasharray:none"
       id="path2471"
       d="m 287.42558,208.35886 c 0,0 -10.53709,5.63827 -19.86611,11.7833 0,0 -2.43338,0.59364 -1.01447,3.17167 1.41892,2.57804 11.35662,15.06515 15.8189,16.65163 0,0 27.37842,-7.92982 26.97264,-11.29853 -0.40579,-3.36869 -7.70722,-13.08332 -7.70722,-13.08332 l -9.32903,-7.1353 -4.87471,-0.0895 z"
       inkscape:connector-curvature="0" />
    <path
       style="fill:#ffffff;stroke:#000000;stroke-width:2.20000005;stroke-linecap:round;stroke-linejoin:round;stroke-miterlimit:4;stroke-dasharray:none"
       id="path2473"
       d="m 264.87547,218.15387 c -2.37504,-0.25792 -3.05001,2.87486 0,6.60129 3.05,3.72643 14.97552,19.40853 19.06384,16.07873 1.30751,-1.06544 -1.59264,-2.53656 -3.26749,-3.9403 -12.20133,-10.22012 -13.83508,-18.52586 -15.79635,-18.73972 z"
       inkscape:connector-curvature="0" />
    <path
       style="fill:#ffffff;stroke:#000000;stroke-width:2.20000005;stroke-linecap:round;stroke-linejoin:round;stroke-miterlimit:4;stroke-dasharray:none"
       id="path2475"
       d="m 301.62136,201.60204 c 0,0 -6.92749,1.30653 -17.01504,8.0776 0,0 9.60088,0.95008 17.1357,11.99847 7.53484,11.04837 9.72288,9.14691 13.00494,8.67124 3.28208,-0.4757 7.77885,-5.22738 7.77885,-5.22738 l -9.72288,-14.73074 -10.08755,-8.79048 h -1.09402 v 0.001 z"
       inkscape:connector-curvature="0" />
    <path
       style="fill:#ffffff;stroke:#000000;stroke-width:2.20000005;stroke-linecap:round;stroke-linejoin:round;stroke-miterlimit:4;stroke-dasharray:none"
       id="path2477"
       d="m 315.36228,193.9107 c 0,0 -14.27002,-1.24561 -15.80034,8.3446 0,0 14.01542,10.08793 21.40705,23.53937 7.3916,13.45143 32.49312,18.55697 38.48173,8.46904 5.98862,-10.08793 -15.80034,-17.06251 -15.80034,-17.06251 l -14.65327,-17.06252 z"
       inkscape:connector-curvature="0" />
    <path
       style="fill:#ffffff;stroke:#000000;stroke-width:2.20000005;stroke-linecap:round;stroke-linejoin:round;stroke-miterlimit:4;stroke-dasharray:none"
       id="path2479"
       d="m 431.05945,167.63127 c 0,0 -7.77086,1.74461 -9.68309,5.72898 l 10.06633,12.82799 4.45831,15.81691 c 0,0 8.53736,-7.84689 18.22177,-24.41038 l -6.49783,-4.23452 -10.57688,-4.35896 z"
       inkscape:connector-curvature="0" />
    <path
       style="fill:#ffffff;stroke:#000000;stroke-width:2.20000005;stroke-linecap:round;stroke-linejoin:round;stroke-miterlimit:4;stroke-dasharray:none"
       id="path2481"
       d="m 430.8433,165.42782 c 0,0 -3.24229,-0.48736 -1.49716,2.68173 0,0 13.74359,3.4646 23.44391,10.23697 3.4916,2.43806 6.23394,-1.21836 1.99444,-3.65642 -4.2395,-2.43806 -14.21433,-6.33818 -23.94119,-9.26228 z"
       inkscape:connector-curvature="0" />
    <path
       style="fill:#ffffff;stroke:#000000;stroke-width:2.20000005;stroke-linecap:round;stroke-linejoin:round;stroke-miterlimit:4;stroke-dasharray:none"
       id="path2483"
       d="m 421.62964,222.05657 c 0,0 6.61585,-2.8593 15.16382,-19.55241 0.76515,-1.49445 1.41626,-21.14278 -14.14273,-30.63838 -1.02109,-0.62215 -12.36045,-0.12446 -17.32931,4.60781 l 4.84154,18.55697 7.00838,21.67033 z"
       inkscape:connector-curvature="0" />
    <path
       style="fill:#ffffff;stroke:#000000;stroke-width:2.20000005;stroke-linecap:round;stroke-linejoin:round;stroke-miterlimit:4;stroke-dasharray:none"
       id="path2485"
       d="m 330.30066,183.30171 c -3.50353,1.54113 -18.61827,6.54686 -17.74173,10.48455 0,0 16.8201,5.72898 28.95248,27.18414 6.97389,12.33286 19.97087,21.23093 27.85314,20.54656 7.88226,-0.68437 26.58142,-2.36678 17.51761,-31.16202 -0.70018,-2.22549 1.77962,-3.66162 3.53005,1.98829 1.75043,5.64993 5.58017,22.32487 22.74638,17.53042 17.16621,-4.79446 10.86065,-28.08106 9.63536,-32.18986 -1.2253,-4.10881 -11.73853,-22.25101 -18.74424,-22.08767 -7.35847,0.17109 -19.26806,1.02654 -22.07274,0 l -5.25528,8.21886 -10.5119,2.74007 -14.71428,-1.54112 -15.06435,-2.56767 z"
       inkscape:connector-curvature="0" />
    <path
       style="fill:#ffffff;stroke:#000000;stroke-width:2.20000005;stroke-linecap:round;stroke-linejoin:round;stroke-miterlimit:4;stroke-dasharray:none"
       id="path2487"
       d="m 369.08608,163.81412 c 0,-5.61622 11.93478,-13.82604 11.93478,-26.78752 0,-7.04199 -3.7873,-14.45984 -9.6526,-19.77277 -1.51439,0.64809 -3.61358,0.3409 -5.35739,-0.93581 -1.54755,-1.13284 -2.40817,-2.74005 -2.44132,-4.20859 -3.23433,-1.45688 -6.74978,-2.30196 -10.39653,-2.30196 -15.02988,0 -23.42799,7.34528 -23.42799,7.34528 l -0.88451,42.77291 c 4.86277,3.45683 14.14538,10.80081 14.14538,14.68926 0,3.88845 -3.97826,6.04913 -3.97826,6.04913 3.97826,0 6.63044,1.72777 21.659,3.45683 15.02855,1.72776 18.56523,-9.93758 18.56523,-9.93758 -4.41853,0 -10.16579,-4.75298 -10.16579,-10.36918 z"
       inkscape:connector-curvature="0" />
    <path
       style="fill:#ffffff;stroke:#000000;stroke-width:2.20000005;stroke-linecap:round;stroke-linejoin:round;stroke-miterlimit:4;stroke-dasharray:none"
       id="path2489"
       d="m 325.75615,186.33728 c -1.6417,0 -0.3713,-6.25908 7.70326,-6.25908 8.07455,0 14.03399,1.7822 21.43885,2.90337 6.58933,0.99804 15.90775,3.35961 22.9254,-6.16838 1.67088,-2.26825 2.13501,-4.89945 3.71304,-4.99016 1.57806,-0.0909 4.9198,0.0907 3.43458,3.80937 -1.48523,3.71865 -6.59066,12.06585 -18.6554,13.24534 -12.06474,1.17951 -23.75952,-3.62921 -29.23627,-3.62921 -5.47673,0 -9.18978,1.08875 -11.32346,1.08875 z"
       inkscape:connector-curvature="0" />
    <polygon
       style="fill:#ffffff;stroke:#000000;stroke-width:1.67806625;stroke-linecap:round;stroke-linejoin:round;stroke-miterlimit:4;stroke-dasharray:none"
       id="polygon2491"
       transform="matrix(1.3260878,0,0,1.2961491,72.419013,34.333963)"
       points="177.049,82.229 189.716,95.229 205.383,80.896 189.049,67.896 " />
    <path
       style="fill:#ffffff;stroke:#000000;stroke-width:2.20000005;stroke-linecap:round;stroke-linejoin:round;stroke-miterlimit:4;stroke-dasharray:none"
       id="path2493"
       d="m 346.98416,131.84199 c -1.23061,0 -2.38695,0.29554 -3.41201,0.8075 l -18.24696,-19.81681 -8.84104,8.64143 23.15482,16.16686 c -0.11008,0.49902 -0.16974,1.01618 -0.16974,1.5476 0,0.32274 0.0279,0.639 0.0703,0.95138 l -19.51869,15.89857 6.18885,6.48074 16.49255,-17.2997 c 1.21603,0.82695 2.69063,1.31429 4.28328,1.31429 4.15064,0 7.51492,-3.28833 7.51492,-7.34528 0,-4.05694 -3.36561,-7.34658 -7.51626,-7.34658 z m 0,9.50597 c -1.21999,0 -2.21058,-0.96694 -2.21058,-2.16069 0,-1.19375 0.98926,-2.16067 2.21058,-2.16067 1.22133,0 2.2106,0.96692 2.2106,2.16067 0,1.19375 -0.98927,2.16069 -2.2106,2.16069 z"
       inkscape:connector-curvature="0" />
    <line
       id="line2495"
       y2="140.04785"
       x2="314.30005"
       y1="130.13104"
       x1="324.18872"
       style="fill:#ffffff;stroke:#000000;stroke-width:2.20000005;stroke-linecap:round;stroke-linejoin:round;stroke-miterlimit:4;stroke-dasharray:none" />
    <line
       id="line2497"
       y2="142.36279"
       x2="319.61502"
       y1="133.10443"
       x1="328.84726"
       style="fill:#ffffff;stroke:#000000;stroke-width:2.20000005;stroke-linecap:round;stroke-linejoin:round;stroke-miterlimit:4;stroke-dasharray:none" />
    <line
       id="line2499"
       y2="143.90131"
       x2="325.69385"
       y1="136.39018"
       x1="333.18488"
       style="fill:#ffffff;stroke:#000000;stroke-width:2.20000005;stroke-linecap:round;stroke-linejoin:round;stroke-miterlimit:4;stroke-dasharray:none" />
    <path
       style="fill:#fcef3c;stroke:#000000;stroke-width:2.20000005;stroke-linecap:round;stroke-linejoin:round;stroke-miterlimit:4;stroke-dasharray:none"
       id="path2501"
       d="m 472.56863,110.62791 c 0,0 17.4195,-3.99343 17.84914,-10.08922 0,0 6.88108,5.67456 -0.21482,11.3504 l -7.09722,0.20997 z"
       inkscape:connector-curvature="0" />
    <path
       style="fill:#fef502;fill-opacity:1;stroke:#000000;stroke-width:2.20000005;stroke-linecap:round;stroke-linejoin:round;stroke-miterlimit:4;stroke-dasharray:none"
       id="path2503"
       d="m 373.88253,102.44014 c 0,0 13.99154,-22.871843 29.89796,-33.977261 7.40091,-5.167732 7.04685,-11.712002 7.04685,-11.712002 0,0 3.17332,1.722595 3.87747,4.822972 0,0 9.1646,-5.166448 10.92564,-12.056776 0,0 2.81793,1.722583 2.11379,6.200782 0,0 22.20402,-9.301173 18.32652,-14.812406 0,0 8.48167,4.851486 0.70415,11.368539 -2.4665,2.067356 -3.87748,1.722583 -4.22889,3.445164 -0.0624,1.152274 16.98984,-5.752305 18.36765,-11.980329 1.3778,-6.227998 -0.86196,-8.756769 -0.86196,-8.756769 0,0 8.09576,0.673985 8.09576,13.131292 0,6.733489 -4.8243,5.219597 -10.33553,9.933688 0,0 12.40289,-9.428184 16.01913,3.5359 0,0 -5.85465,-4.208599 -10.1618,-2.35641 0,0 8.784,0.841207 4.99538,9.93369 0,0 12.5713,3.030394 15.32955,1.009699 2.75828,-2.020697 8.26949,-5.218286 4.30714,-11.448881 0,0 3.96102,0.168506 5.68362,3.367394 1.72258,3.198902 1.03435,9.765196 -4.82298,11.448881 0,0 11.36723,-2.52489 11.36723,-10.437884 0,0 5.856,6.733504 -2.06738,13.805278 -7.92337,7.0718 -12.40158,3.704406 -12.40158,3.704406 0,0 8.95772,7.407483 3.44518,16.835674 0,0 -5.16643,-11.111884 -16.19153,-9.596696 0,0 6.20078,2.187907 4.82298,9.259707 0,0 -8.61029,-10.26939 -15.50061,-9.428191 0,0 14.2952,0.505504 10.67895,21.718269 0,0 13.26353,3.1989 19.29194,0.67402 6.02839,-2.52491 8.78399,-7.576 7.92336,-11.280414 0,0 9.53987,9.380244 -1.3778,15.657494 l 5.68361,-1.1782 c 0,0 -11.54093,18.35089 -24.80314,6.90199 0,0 2.41217,5.3881 8.95772,5.7251 0,0 -7.75231,5.21959 -16.87977,-3.7031 0,0 0.1724,3.7031 5.16644,7.74449 0,0 -10.38061,1.53335 -18.77475,-10.77489 0,0 0.1724,3.3674 1.03303,5.2196 0,0 -7.75098,-0.8425 -12.57264,-6.90329 -2.09521,-2.63378 -4.0618,-4.9176 -5.93955,-6.65832 0,0 -0.0876,2.95521 0.77311,5.14312 0,0 -9.3025,-2.52619 -11.54093,-5.5566 0,0 4.13341,4.2099 6.02838,4.7141 0,0 -7.06141,1.00969 -12.57263,-6.22929 l 0.34479,2.02069 c 0,0 -7.75232,0.67271 -11.71334,-4.04139 -3.96103,-4.71409 -13.43592,-7.407505 -22.04754,-4.8826 -8.6116,2.52491 -10.05306,4.06732 -11.43218,5.16906 -1.79155,-3.46203 -4.9808,-4.7193 -4.9808,-4.7193 z"
       inkscape:connector-curvature="0" />
    <path
       style="fill:none;stroke:#000000;stroke-width:2.20000005;stroke-linecap:round;stroke-linejoin:round;stroke-miterlimit:4;stroke-dasharray:none"
       id="path2505"
       d="m 499.15272,114.44638 c -2.92799,1.68369 -10.85004,-1.5152 -13.60699,2.5249"
       inkscape:connector-curvature="0" />
    <path
       style="fill:none;stroke:#000000;stroke-width:2.20000005;stroke-linecap:round;stroke-linejoin:round;stroke-miterlimit:4;stroke-dasharray:none"
       id="path2507"
       d="m 458.50283,119.16047 c -1.03303,-1.51519 -7.92336,-9.4282 -7.92336,-9.4282"
       inkscape:connector-curvature="0" />
    <path
       style="fill:none;stroke:#000000;stroke-width:2.20000005;stroke-linecap:round;stroke-linejoin:round;stroke-miterlimit:4;stroke-dasharray:none"
       id="path2509"
       d="m 441.02235,110.81845 c -2.44397,-2.26566 -4.73812,-3.61106 -6.9792,-3.61106"
       inkscape:connector-curvature="0" />
    <path
       style="fill:none;stroke:#000000;stroke-width:2.20000005;stroke-linecap:round;stroke-linejoin:round;stroke-miterlimit:4;stroke-dasharray:none"
       id="path2511"
       d="m 423.70894,108.88979 c -5.51122,-7.239 -9.99074,-9.596687 -9.99074,-9.596687"
       inkscape:connector-curvature="0" />
    <path
       style="fill:none;stroke:#000000;stroke-width:2.20000005;stroke-linecap:round;stroke-linejoin:round;stroke-miterlimit:4;stroke-dasharray:none"
       id="path2513"
       d="m 380.03161,100.69294 c 0,0 37.37843,-33.334377 65.10956,-33.334377 11.53962,0 12.98638,-8.384778 20.84213,-4.545585 2.41083,1.178191 2.68266,6.34595 2.68266,6.34595"
       inkscape:connector-curvature="0" />
    <path
       style="fill:none;stroke:#000000;stroke-width:2.20000005;stroke-linecap:round;stroke-linejoin:round;stroke-miterlimit:4;stroke-dasharray:none"
       id="path2515"
       d="m 450.65241,57.93038 c 0,0 -28.42205,2.187903 -61.66441,32.830164"
       inkscape:connector-curvature="0" />
    <path
       style="fill:none;stroke:#000000;stroke-width:2.20000005;stroke-linecap:round;stroke-linejoin:round;stroke-miterlimit:4;stroke-dasharray:none"
       id="path2517"
       d="m 400.52894,90.25504 c 0,0 32.92808,-18.814901 67.49256,-12.181207"
       inkscape:connector-curvature="0" />
    <path
       style="fill:none;stroke:#000000;stroke-width:2.20000005;stroke-linecap:round;stroke-linejoin:round;stroke-miterlimit:4;stroke-dasharray:none"
       id="path2519"
       d="m 390.3658,98.166738 c 0,0 15.56695,-9.986834 33.2437,-3.703097 5.68361,2.020695 5.68361,0.505505 5.68361,0.505505 l -3.1004,-3.871602 c 0,0 5.21153,-1.235238 11.02376,4.8826 2.23845,2.356392 6.20213,-7.071799 -8.78399,-8.586989"
       inkscape:connector-curvature="0" />
    <path
       style="fill:none;stroke:#000000;stroke-width:2.20000005;stroke-linecap:round;stroke-linejoin:round;stroke-miterlimit:4;stroke-dasharray:none"
       id="path2521"
       d="m 473.31522,109.39529 c 0,0 -5.68227,-1.5139 -8.6116,-7.239 -2.92932,-5.725093 -9.47357,-11.448884 -17.22455,-11.953086 0,0 8.09444,2.357694 8.43922,10.606386 0,0 -5.16644,-6.060795 -10.85137,-6.060795 l 0.1724,5.892285 c 0,0 -2.45991,-3.474959 -5.90509,-5.327159"
       inkscape:connector-curvature="0" />
    <path
       style="fill:none;stroke:#000000;stroke-width:2.20000005;stroke-linecap:round;stroke-linejoin:round;stroke-miterlimit:4;stroke-dasharray:none"
       id="path2523"
       d="m 420.16432,99.346231 c 0,0 23.5964,2.339559 39.09838,10.100899 7.06273,3.53589 15.15848,5.2196 15.15848,5.2196"
       inkscape:connector-curvature="0" />
    <path
       style="fill:none;stroke:#000000;stroke-width:2.20000005;stroke-linecap:round;stroke-linejoin:round;stroke-miterlimit:4;stroke-dasharray:none"
       id="path2525"
       d="m 269.01685,251.75524 c -0.32756,2.33566 0.42698,3.74197 2.11909,4.89556 1.38176,0.9423 3.49423,1.88589 4.20368,3.49959 0.90173,2.05052 0.21085,5.40624 0.22676,7.6097 0.0239,3.08873 2.21058,3.76661 5.00864,4.14249 4.03661,0.5405 4.43443,3.16132 4.77656,6.53908 0.38856,3.84179 2.45459,6.9655 6.76967,7.17808 2.28354,0.11148 4.27266,0.55863 4.82831,3.03945 0.49064,2.19051 -1.07016,4.80871 -0.51718,6.75944 0.41108,1.45168 2.63493,0.96173 4.75402,0.58455"
       inkscape:connector-curvature="0" />
    <path
       style="fill:none;stroke:#000000;stroke-width:2.20000005;stroke-linecap:round;stroke-linejoin:round;stroke-miterlimit:4;stroke-dasharray:none"
       id="path2527"
       d="m 275.95227,261.17048 c 3.27543,1.13023 6.16233,4.99405 6.16366,6.96678 0.001,1.80036 -0.56755,2.58453 -0.96274,4.1425"
       inkscape:connector-curvature="0" />
    <path
       style="fill:none;stroke:#000000;stroke-width:2.20000005;stroke-linecap:round;stroke-linejoin:round;stroke-miterlimit:4;stroke-dasharray:none"
       id="path2529"
       d="m 290.01545,285.46031 c -0.19229,4.33042 0.95345,7.15214 1.92282,8.09573 0.96671,0.9423 3.04469,0.90472 4.49675,1.86387"
       inkscape:connector-curvature="0" />
    <path
       style="fill:none;stroke:#000000;stroke-width:2.20000005;stroke-linecap:round;stroke-linejoin:round;stroke-miterlimit:4;stroke-dasharray:none"
       id="path2531"
       d="m 315.89271,315.36635 c 0,0 -0.10336,-8.95768 -8.46309,-12.32118 -1.09136,-0.43941 -3.78996,0.99544 -0.19228,5.147 4.62273,5.33495 -6.42093,1.94551 -6.42093,1.94551"
       inkscape:connector-curvature="0" />
    <path
       style="fill:none;stroke:#000000;stroke-width:2.20000005;stroke-linecap:round;stroke-linejoin:round;stroke-miterlimit:4;stroke-dasharray:none"
       id="path2533"
       d="m 323.04696,311.4092 c 0,0 -5.66373,-11.56423 -12.59916,-11.50201 -2.11909,0.0195 -3.08184,1.8833 -1.99046,3.57737"
       inkscape:connector-curvature="0" />
    <path
       style="fill:none;stroke:#000000;stroke-width:2.20000005;stroke-linecap:round;stroke-linejoin:round;stroke-miterlimit:4;stroke-dasharray:none"
       id="path2535"
       d="m 312.82415,300.28306 c 0,0 -0.57818,-6.08801 4.55908,-3.07575 5.13727,3.01225 7.68999,6.2604 9.17389,9.1871"
       inkscape:connector-curvature="0" />
    <path
       style="fill:none;stroke:#000000;stroke-width:2.20000005;stroke-linecap:round;stroke-linejoin:round;stroke-miterlimit:4;stroke-dasharray:none"
       id="path2537"
       d="m 319.69459,293.37848 c 0,0 -5.13725,-0.75306 -3.01815,3.38944"
       inkscape:connector-curvature="0" />
    <path
       style="fill:none;stroke:#000000;stroke-width:2.20000005;stroke-linecap:round;stroke-linejoin:round;stroke-miterlimit:4;stroke-dasharray:none"
       id="path2539"
       d="m 304.92596,301.47553 c 0,0 1.73321,-8.59866 11.3659,-5.33497"
       inkscape:connector-curvature="0" />
    <path
       style="fill:#ffffff;stroke:#000000;stroke-width:2.20000005;stroke-linecap:round;stroke-linejoin:round;stroke-miterlimit:4;stroke-dasharray:none"
       id="path2541"
       d="m 412.57114,229.67405 c 0,0 1.8963,6.79181 6.9487,9.67315"
       inkscape:connector-curvature="0" />
    <path
       style="fill:none;stroke:#000000;stroke-width:2.20000005;stroke-linecap:round;stroke-linejoin:round;stroke-miterlimit:4;stroke-dasharray:none"
       id="path2543"
       d="m 386.01755,345.26981 c 0,0 -12.02363,-6.94476 -37.53092,-12.99907"
       inkscape:connector-curvature="0" />
    <path
       style="fill:none;stroke:#000000;stroke-width:2.20000005;stroke-linecap:round;stroke-linejoin:round;stroke-miterlimit:4;stroke-dasharray:none"
       id="path2545"
       d="m 336.46298,360.04981 c 0,0 8.74556,4.62984 16.03241,11.0406"
       inkscape:connector-curvature="0" />
    <path
       style="fill:none;stroke:#000000;stroke-width:2.20000005;stroke-linecap:round;stroke-linejoin:round;stroke-miterlimit:4;stroke-dasharray:none"
       id="path2547"
       d="m 336.82766,382.84388 c 0,0 -11.62316,-12.35619 -40.15393,-15.17142"
       inkscape:connector-curvature="0" />
    <path
       style="fill:none;stroke:#000000;stroke-width:2.20000005;stroke-linecap:round;stroke-linejoin:round;stroke-miterlimit:4;stroke-dasharray:none"
       id="path2549"
       d="m 379.69213,126.87646 c 1.85652,0 4.54184,-0.26053 5.94617,0.95265 0.94152,0.814 0.62325,2.63768 2.01962,3.60202 5.14391,3.55273 12.07669,-0.72715 17.47254,1.32984 3.26483,1.24431 0.98263,3.4322 1.99045,6.21243 1.37118,4.10491 9.94965,1.40634 13.21314,2.06478 4.69436,0.94617 6.85721,5.21699 6.85721,9.70556"
       inkscape:connector-curvature="0" />
    <path
       style="fill:none;stroke:#000000;stroke-width:2.20000005;stroke-linecap:round;stroke-linejoin:round;stroke-miterlimit:4;stroke-dasharray:none"
       id="path2551"
       d="m 287.51178,396.92654 c 5.20091,-2.63636 8.27745,-2.91634 10.01726,0 1.34864,2.26049 -0.40843,4.88001 -2.39623,7.31937 -2.40817,2.9565 -4.01804,6.2215 -5.65179,9.62648 -1.54887,3.22872 -1.32343,5.22477 -0.5795,8.66217 0.23208,1.06933 0.88583,3.63052 0.35273,4.71669 -0.75321,1.53335 -3.02215,1.11987 -4.48216,1.11987 -1.74912,0 -3.52607,-0.34997 -4.82564,0.71159 -1.13115,0.92156 -1.81542,2.70117 -2.82721,3.81716 -2.36043,2.60784 -4.62275,5.48141 -6.51244,8.47292 -1.47195,2.33048 -3.80984,5.14182 -3.32714,7.88448 0.488,2.77635 4.33763,6.22281 1.50246,9.24025 -1.35659,1.4439 -3.64806,0.9436 -5.54304,0.9423 -2.40818,-0.003 -2.34983,0.16849 -3.50619,2.07124 -1.4799,2.43677 -3.37621,4.32395 -4.90255,6.78276 -1.98913,3.20797 -3.39875,6.20855 -5.65442,9.22209 -1.86316,2.49249 -3.95308,4.66224 -5.98199,7.00828 -1.57539,1.82109 -4.11883,4.59225 -3.84301,7.11328"
       inkscape:connector-curvature="0" />
    <path
       style="fill:none;stroke:#000000;stroke-width:2.20000005;stroke-linecap:round;stroke-linejoin:round;stroke-miterlimit:4;stroke-dasharray:none"
       id="path2553"
       d="m 307.93221,405.77664 c -0.38589,-5.27273 -8.09179,-7.53191 -11.75046,-2.63637"
       inkscape:connector-curvature="0" />
    <ellipse
       style="fill:#ffffff;stroke:#000000;stroke-width:2.20000005;stroke-linecap:round;stroke-linejoin:round;stroke-miterlimit:4;stroke-dasharray:none"
       id="circle2555"
       cy="492.67569"
       cx="230.46611"
       rx="5.3268948"
       ry="5.2066312" />
    <path
       style="fill:#ffffff;stroke:#000000;stroke-width:2.20000005;stroke-linecap:round;stroke-linejoin:round;stroke-miterlimit:4;stroke-dasharray:none"
       id="path2557"
       d="m 233.18063,493.21488 c -1.4693,-4.12953 -4.59224,-2.51324 -5.5112,-0.5392 -3.75681,8.07241 -6.00719,43.08788 -3.85761,43.08788 2.20398,0 17.267,-13.10537 17.81733,-15.08069 0.55033,-1.97534 -6.9792,-23.33976 -8.44852,-27.46799 z m -5.32689,33.03366 2.20395,-30.1627 6.98054,21.36442 z"
       inkscape:connector-curvature="0" />
    <path
       style="stroke:#000000;stroke-width:2.20000005;stroke-linecap:round;stroke-linejoin:round;stroke-miterlimit:4;stroke-dasharray:none"
       id="path2559"
       d="m 317.40977,292.21325 -23.1177,21.75845 5.5656,3.59811 3.85228,-1.59038 4.88,-5.77435 c 0,0 -4.02335,-1.33891 -3.16802,-4.35117 0.85532,-3.01224 0.97864,-3.24815 2.00636,-2.80874 1.02773,0.43939 0.22013,-3.97011 3.30196,-3.04985 l 1.96925,0.0829 c 0,0 -0.68427,-4.93834 3.93847,-3.51515 0,0 -1.96923,-3.93253 3.68122,-3.51386 l 4.96621,-1.84054 -5.4794,-4.76984 -2.39623,5.77435 z"
       inkscape:connector-curvature="0" />
  </g>
</svg>
