<?xml version="1.0" encoding="UTF-8" standalone="no"?>
<!-- Created with Inkscape (http://www.inkscape.org/) -->
<svg
   xmlns:dc="http://purl.org/dc/elements/1.1/"
   xmlns:cc="http://web.resource.org/cc/"
   xmlns:rdf="http://www.w3.org/1999/02/22-rdf-syntax-ns#"
   xmlns:svg="http://www.w3.org/2000/svg"
   xmlns="http://www.w3.org/2000/svg"
   xmlns:sodipodi="http://sodipodi.sourceforge.net/DTD/sodipodi-0.dtd"
   xmlns:inkscape="http://www.inkscape.org/namespaces/inkscape"
   id="svg2"
   sodipodi:version="0.32"
   inkscape:version="0.45.1"
   width="1181.301"
   height="1330.5626"
   version="1.0"
   sodipodi:docbase="/home/liftarn/Bilder"
   sodipodi:docname="Barsbek_Wappen.svg"
   inkscape:output_extension="org.inkscape.output.svg.inkscape">
  <metadata
     id="metadata7">
    <rdf:RDF>
      <cc:Work
         rdf:about="">
        <dc:format>image/svg+xml</dc:format>
        <dc:type
           rdf:resource="http://purl.org/dc/dcmitype/StillImage" />
      </cc:Work>
    </rdf:RDF>
  </metadata>
  <defs
     id="defs5" />
  <sodipodi:namedview
     inkscape:window-height="627"
     inkscape:window-width="910"
     inkscape:pageshadow="2"
     inkscape:pageopacity="0.0"
     guidetolerance="10.0"
     gridtolerance="10.0"
     objecttolerance="10.0"
     borderopacity="1.0"
     bordercolor="#666666"
     pagecolor="#ffffff"
     id="base"
     inkscape:zoom="0.29465683"
     inkscape:cx="855.87819"
     inkscape:cy="630.3173"
     inkscape:window-x="0"
     inkscape:window-y="25"
     inkscape:current-layer="svg2" />
  <path
     d="M 7.7696028,7.7696028 L 7.7696028,829.49301 L 8.2931726,829.49301 C 8.2931726,1101.7947 269.30647,1322.7931 590.91229,1322.7931 C 912.51809,1322.7931 1173.5315,1101.7947 1173.5315,829.49301 L 1172.4761,829.49301 L 1172.4761,7.7696028 L 7.7696028,7.7696028 z "
     style="fill:#ed1c24;fill-opacity:1;stroke:#000000;stroke-width:15.53920555"
     id="CoA_Nr._11" />
  <g
     id="g2320"
     transform="translate(-1.4577326,-4.0834352)">
    <path
       id="path2300"
       d="M 383.5,808 C 383.16008,807.45 381.9906,807 380.90114,807 C 378.47981,807 371.64986,803.40365 363.97926,798.08967 C 359.13155,794.73132 323.35974,757.9905 314.6542,747.42846 C 309.83602,741.58278 305.18819,739.27582 297,738.66575 C 292.875,738.35841 287.025,737.40023 284,736.53646 C 280.975,735.67269 275.95908,734.56439 272.85352,734.07357 C 269.74795,733.58275 266.30336,732.69754 265.19886,732.10643 C 261.62327,730.19283 249.33707,729.57116 244.71108,731.06977 C 242.39499,731.82008 240.05,732.95917 239.5,733.60109 C 238.95,734.24301 237.375,735.0213 236,735.33062 C 230.92855,736.47151 223.37598,738.12935 219,739.06225 C 213.08258,740.32375 189.98293,740.36646 183,739.1288 C 179.975,738.59265 173.79516,736.83667 169.26703,735.22663 C 164.73889,733.61659 160.80072,732.53262 160.51552,732.81781 C 160.23033,733.10301 158.98516,732.81381 157.74849,732.17516 C 152.38879,729.40725 146.26072,728 139.56716,728 C 127.2003,728 104.26601,723.02593 93.5,718.00879 C 71.53223,707.77143 69.660071,706.5236 61.707157,696.81811 C 58.105207,692.42241 49,671.72163 49,667.92827 C 49,666.31405 49.324385,666.29986 53.75,667.72048 C 56.3625,668.55909 60.525,669.57607 63,669.98042 C 65.475,670.38478 71.1,671.89886 75.5,673.34504 C 79.9,674.79123 84.485942,675.98021 85.690983,675.98723 C 86.896024,675.99426 88.164295,676.45682 88.509364,677.01515 C 89.33546,678.3518 95.732797,681 98.135693,681 C 99.175987,681 100.80853,680.58285 101.76357,680.073 C 102.71861,679.56315 104.32492,678.88791 105.33316,678.57247 C 106.34139,678.25703 107.00007,677.50022 106.79689,676.89067 C 106.39265,675.67795 90.607119,665.69964 85,663.11248 C 83.075,662.22427 79.475,660.11868 77,658.4334 C 74.525,656.74811 66.298815,652.29605 58.719589,648.53993 C 51.140363,644.7838 44.691161,641.30931 44.38803,640.81883 C 44.084898,640.32835 43.502611,634.65596 43.094059,628.21353 C 42.290056,615.53525 43.298729,611.21461 48.334188,605.76749 C 49.525385,604.47892 51.026285,602.26239 51.669521,600.84189 C 52.312758,599.42139 55.462758,596.19728 58.669521,593.67721 C 61.876285,591.15715 66.209897,587.04884 68.299772,584.54764 C 70.389646,582.04644 72.673705,580 73.375458,580 C 74.07721,580 75.742313,578.8272 77.075686,577.39377 C 78.409059,575.96034 81.525,573.41029 84,571.72699 C 88.173426,568.88856 106.26716,550.88001 124,531.91532 C 130.27962,525.19948 144.67815,513 146.32497,513 C 146.5857,513 149.20674,511.37489 152.14951,509.38865 C 155.09228,507.40241 158.4,505.42571 159.5,504.99598 C 160.6,504.56624 166.36032,501.91635 172.30071,499.10732 C 178.2411,496.29829 183.59768,494 184.20422,494 C 184.81076,494 187.80826,492.81672 190.86535,491.37049 C 194.81537,489.50183 198.74951,486.25809 204.46184,480.16005 C 217.20696,466.55434 231.5435,453 233.18926,453 C 233.71374,453 234.7355,452.4375 235.45984,451.75 C 241.44115,446.07289 255.02748,439.5807 273,433.81153 C 276.575,432.66396 279.95,431.38158 280.5,430.96179 C 281.05,430.54201 285.03974,429.01452 289.36608,427.56737 C 293.69243,426.12023 301.78927,422.70055 307.35906,419.9681 C 312.92885,417.23564 318.07396,415 318.79264,415 C 319.51131,415 321.43314,414.31026 323.06336,413.46724 C 324.69357,412.62422 327.93373,411.53399 330.2637,411.04451 C 332.59366,410.55503 336.975,409.44558 340,408.57906 C 343.025,407.71254 349.94162,406.74606 355.37026,406.43132 C 360.7989,406.11657 366.23012,405.48281 367.43963,405.02295 C 368.64914,404.5631 373.43253,404.04346 378.06937,403.8682 C 386.05544,403.56635 386.89249,403.31095 393.94311,399.02477 C 398.03681,396.53615 403.31121,392.7 405.664,390.5 C 408.01678,388.3 412.25198,384.475 415.07555,382 C 417.89912,379.525 421.30767,376.4875 422.65011,375.25 C 423.99255,374.0125 425.40795,372.98571 425.79545,372.96825 C 426.18295,372.95079 428.05334,371.37579 429.95186,369.46825 C 431.85039,367.56071 433.82085,366 434.33066,366 C 434.84048,366 436.98963,364.5375 439.10656,362.75 C 445.97388,356.95134 449.76266,354 450.33934,354 C 450.65,354 453.73824,352.03283 457.20209,349.62851 C 460.66594,347.22419 465.02126,344.41169 466.88059,343.37851 C 470.52149,341.35535 471.33295,340.8582 477.63009,336.79272 C 482.04259,333.94397 491.73273,329.68721 496.24158,328.61691 C 502.57226,327.11415 508.20352,332.28972 506.65998,338.19224 C 506.34642,339.3913 506.85254,341.65279 507.79754,343.27518 C 509.41436,346.05095 509.75152,346.16709 514.5,345.58395 C 543.79036,341.98696 553,342.82052 553,349.06856 C 553,350.1277 551.34298,354.39081 549.31772,358.54213 L 545.63545,366.08999 L 548.19519,368.64973 L 550.75493,371.20947 L 559.62746,368.87918 C 567.7922,366.73479 570.53425,366.54743 594,366.53058 C 614.31378,366.51599 621.02536,366.85459 627,368.19543 C 631.125,369.12118 637.875,370.40164 642,371.04091 C 655.68719,373.16209 672.27395,378.06965 677.80909,381.63584 C 680.08986,383.1053 680.09582,383.15886 678.2949,386.00321 C 677.2921,387.58703 673.46916,391.97925 669.79947,395.76371 C 661.4983,404.3245 660.70653,406.73383 665.00564,410.35129 C 666.73694,411.80808 668.81185,413 669.61656,413 C 671.75028,413 679.10216,416.85759 682,419.49767 C 683.375,420.75037 685.625,422.09648 687,422.48903 C 688.375,422.88157 691.16111,424.50712 693.19136,426.10137 C 695.22161,427.69562 697.24661,429.02507 697.69136,429.05572 C 698.13611,429.08636 700.61226,430.77386 703.19392,432.80572 C 705.77557,434.83757 711.17557,439.03975 715.19392,442.14389 C 719.21226,445.24803 724.075,449.67984 726,451.99236 C 727.925,454.30487 731.67801,458.67711 734.34002,461.70845 C 737.24925,465.02131 738.81684,467.58316 738.2696,468.1304 C 737.2502,469.1498 717.78832,473.12165 717.11448,472.44781 C 716.87772,472.21106 716.12748,472.47924 715.44727,473.04376 C 714.76706,473.60829 713.82565,473.98233 713.35526,473.87496 C 712.88487,473.76759 710.475,474.64191 708,475.81791 C 705.525,476.9939 702.78224,477.96596 701.90499,477.97804 C 699.25583,478.01451 696.68869,481.6235 697.37286,484.34946 C 697.9997,486.84697 701.20797,488.89 714,494.93765 C 717.575,496.62779 721.77397,498.68324 723.33104,499.50532 C 724.88811,500.32739 726.57398,501 727.07742,501 C 727.58086,501 731.18293,503.27634 735.08202,506.05853 C 742.77385,511.54702 747.65564,514.32593 764.5,522.80441 C 770.55,525.84963 775.725,528.6257 776,528.97345 C 777.70058,531.12392 784.03216,535 785.84439,535 C 787.02998,535 788,535.45 788,536 C 788,536.55 789.03899,537 790.30887,537 C 791.57875,537 793.49125,537.66069 794.55887,538.4682 C 795.62649,539.2757 797.2875,539.9507 798.25,539.9682 C 799.2125,539.98569 800,540.45 800,541 C 800,541.55 800.49303,542 801.09563,542 C 801.69823,542 803.38573,542.84676 804.84563,543.88168 C 806.30553,544.91661 809.68336,546.50184 812.35191,547.40442 C 815.02046,548.30699 819.90414,550.38524 823.20453,552.02273 C 826.50492,553.66023 829.62783,555 830.14432,555 C 830.66082,555 833.97087,556.35 837.5,558 C 841.02913,559.65 844.52036,561 845.2583,561 C 845.99623,561 847.0275,561.40002 847.55,561.88894 C 848.0725,562.37785 851.65,563.77146 855.5,564.98584 C 859.35,566.20022 864.975,568.03496 868,569.06305 C 889.26393,576.28988 910.06711,578.52255 932.35162,575.96949 C 940.67843,575.01551 952.21662,572.38894 958.38844,570.04241 C 959.89641,569.46909 962.12007,569 963.32991,569 C 964.53975,569 967.31467,568.04327 969.49641,566.87393 C 971.67814,565.70459 975.04647,564.18284 976.9816,563.49227 C 978.91672,562.80169 983.425,560.91272 987,559.29455 C 990.575,557.67639 994.94758,555.77472 996.71684,555.06863 C 998.48611,554.36254 1000.4537,553.15824 1001.0893,552.39241 C 1001.7249,551.62659 1003.0959,551 1004.136,551 C 1006.3605,551 1007.8156,550.20499 1018.2075,543.31193 C 1027.5144,537.13856 1039.4917,531 1042.2301,531 C 1043.3088,531 1045.3858,530.38004 1046.8457,529.62232 C 1065.9726,519.69469 1116.9195,505.82467 1119.4167,509.86524 C 1119.7688,510.43488 1119.0599,513.06073 1117.8414,515.70047 C 1115.2113,521.3984 1107.1752,534.9452 1105.3121,536.82143 C 1104.5905,537.54821 1104,538.53815 1104,539.0213 C 1104,539.50444 1102.5398,542.0598 1100.7551,544.69987 C 1098.9704,547.33994 1096.8329,550.67807 1096.0051,552.11792 C 1093.3453,556.74432 1084.9948,568.88518 1084.0865,569.44657 C 1083.6028,569.74546 1082.2192,571.88535 1081.0118,574.20187 C 1079.8044,576.51839 1078.2522,578.88314 1077.5626,579.45686 C 1076.873,580.03059 1075.7174,582.075 1074.9946,584 C 1074.2717,585.925 1072.6236,588.93729 1071.332,590.69398 C 1069.279,593.4863 1059.8883,611.20639 1051.5618,628 C 1050.062,631.025 1048.4851,634.18042 1048.0576,635.01204 C 1047.6301,635.84366 1046.5192,639.14213 1045.589,642.34197 C 1043.7503,648.66687 1044.4972,653.51866 1047.7179,656.17001 C 1048.6064,656.9015 1050.6398,659.3 1052.2365,661.5 C 1056.1777,666.93037 1067.2385,679.20125 1074.2804,685.95562 C 1077.4597,689.00503 1091.0073,702.3 1104.3863,715.5 C 1117.7652,728.7 1133.4583,743.98423 1139.2598,749.46496 C 1147.819,757.55086 1149.9183,760.09652 1150.3924,762.96496 C 1151.1788,767.722 1149.9466,768.45736 1138.7589,769.90784 C 1133.6665,770.56807 1128.2718,771.2958 1126.7706,771.52501 C 1123.229,772.06577 1099.2418,769.32264 1091.5,767.49154 C 1088.2,766.71102 1081.9627,765.36691 1077.6393,764.50463 C 1073.3159,763.64235 1068.5909,762.33644 1067.1393,761.60261 C 1065.6877,760.86878 1062.025,759.71528 1059,759.03926 C 1053.2346,757.75084 1042.9622,754.46387 1034.5,751.19979 C 1022.0787,746.40857 1007.9199,740.66764 1001.5,737.8194 C 993.9019,734.44844 993.39369,734.2451 984.5,731.01758 C 981.2,729.82001 977.63078,728.37128 976.56839,727.7982 C 975.50601,727.22511 973.48101,726.39396 972.06839,725.95121 C 966.09657,724.07945 955.61096,719.92202 954.46659,718.97227 C 953.78613,718.40754 946.54028,715.75319 938.3647,713.0737 C 924.34751,708.47968 919.61794,706.71468 912.5,703.42143 C 905.36266,700.1192 898.86194,698.81449 887,698.30352 C 873.81533,697.73558 861.40331,699.31722 854.77826,702.40949 C 852.97522,703.25106 849.025,704.58793 846,705.38031 C 837.68659,707.55795 829.81009,711.42295 826.8317,714.78621 C 822.44412,719.74073 823.68359,724.35011 833.88059,741 C 838.38709,748.35831 839.80555,752.80636 840.41792,761.5 C 840.95281,769.09371 840.69624,771.78661 838.77593,778.73408 C 837.52417,783.26282 836.02306,787.15337 835.44014,787.37973 C 834.85722,787.6061 829.68222,784.82921 823.94014,781.20887 C 812.70424,774.12472 803.87326,769.17716 792,763.31438 C 777.9704,756.38685 752.15422,740.15422 747.05225,735.05225 C 745.00649,733.00649 744.13455,732.82419 739.1268,733.39529 C 736.03206,733.74822 729.9,734.8742 725.5,735.89748 C 721.1,736.92075 713.45,738.46954 708.5,739.33924 C 703.55,740.20894 698.15,741.16778 696.5,741.47001 C 694.85,741.77224 687.425,742.8888 680,743.95125 C 672.575,745.0137 659.525,747.26201 651,748.94751 C 623.27924,754.42823 620.59859,754.89224 613,755.52522 C 608.875,755.86883 596.725,757.08643 586,758.23098 C 575.275,759.37553 565.15,760.36489 563.5,760.42957 C 561.85,760.49424 560.05,760.81143 559.5,761.13444 C 558.95,761.45744 553.55,761.79871 547.5,761.89282 C 534.54847,762.09428 516.53294,763.64243 510.07356,765.10904 C 504.57044,766.35853 460.06859,766.83233 454.71659,765.69842 C 450.95285,764.90101 450.92276,764.92037 448.93141,769.42214 C 447.83045,771.91106 446.65392,776.90028 446.3169,780.5093 C 445.78982,786.15374 445.29467,787.41571 442.77535,789.53558 C 437.7523,793.76219 435.50565,792.95318 427.05934,783.87631 C 422.9017,779.40828 415.18604,771.34688 409.91343,765.96209 C 400.91729,756.77456 400.02424,756.13277 395.41343,755.54179 C 392.71104,755.19542 389.05924,754.69051 387.29831,754.41976 C 384.24996,753.95108 384.03982,754.13279 382.91098,758.21375 C 381.14061,764.61392 381.39617,767.24606 384.33333,772.86329 C 385.85819,775.77953 387,779.58851 387,781.75909 C 387,783.84683 387.62491,786.44717 388.38869,787.53762 C 389.17931,788.66639 390.09187,793.71498 390.50761,799.26013 L 391.23784,809 L 387.67794,809 C 385.71999,809 383.83992,808.55 383.5,808 z "
       style="fill:#000000" />
    <path
       id="path2298"
       d="M 492.21875,341.03125 C 491.75191,340.96819 491.11104,341.26211 490.4375,341.90625 C 489.91499,342.40594 484.325,345.46578 478,348.71875 C 457.67423,359.17238 433.34898,376.02096 416.3125,391.4375 C 413.30313,394.16072 410.18365,396.87745 409.375,397.46875 C 408.45007,398.14506 408.14611,399.23974 408.59375,400.40625 C 409.23122,402.06752 410.10379,402.18723 416.90625,401.625 C 426.15629,400.86047 472.95268,403.25119 475.125,404.59375 C 475.53551,404.84746 477.81595,405.28385 480.1875,405.5625 C 482.55905,405.84115 486.075,406.44479 488,406.9375 C 492.97358,408.2105 504.78643,410.76247 509.5,411.5625 C 518.16911,413.03389 562.92869,425.52559 568.5,428.03125 C 569.6,428.52597 576.36044,430.92356 583.53125,433.34375 C 590.70207,435.76395 597.90207,438.39283 599.53125,439.21875 C 601.16044,440.04467 604.3,441.29136 606.5,441.96875 C 608.7,442.64613 614.775,445.12662 620,447.5 C 629.96512,452.02652 635.90334,454.71877 647.5,459.90625 C 651.35,461.62845 655.4,463.54823 656.5,464.1875 C 661.34472,467.003 676.17672,474.21796 678.71875,475 C 682.1189,476.04607 686.12744,475.36378 687.5625,473.5 C 688.14647,472.74156 689.94647,471.82283 691.5625,471.4375 C 693.17852,471.05217 695.175,470.21043 696,469.5625 C 697.74026,468.19575 704.37266,465.39359 708,464.5 C 712.49653,463.39229 717.86519,460.76603 718.375,459.4375 C 718.64966,458.72175 717.21727,456.86531 715.1875,455.3125 L 711.5,452.5 L 692,452.5625 C 675.9737,452.62016 670.89675,453.0083 663.5,454.71875 C 657.24203,456.16586 654.11916,456.49311 653.25,455.78125 C 651.88976,454.6672 651.53669,452 652.75,452 C 653.16336,452 659.06477,450.85301 665.875,449.46875 C 673.09665,448.00085 682.80635,446.82205 689.15625,446.625 C 695.14439,446.43916 700.38137,445.96239 700.78125,445.5625 C 701.59573,444.74803 699.52839,443.0707 693.1875,439.3125 C 688.86415,436.75009 683.57798,435.78704 658.3125,433.03125 C 649.27426,432.04541 639.76009,432.67349 629.84375,434.90625 C 618.18532,437.53126 612.33279,436.90724 614.59375,433.28125 C 616.00669,431.01526 628.80655,429.39183 652.78125,428.40625 C 674.25222,427.52359 675.56446,426.5533 661.5,422 C 657.65,420.75358 654.05,419.39467 653.5,418.96875 C 652.95,418.54283 648.675,417.88147 644,417.5 C 639.325,417.11852 635.13212,416.58419 634.6875,416.3125 C 631.53068,414.38337 585.20483,417.07355 578.71875,419.5625 C 576.26711,420.50328 576.56238,418.33462 579.25,415.65625 C 582.48929,412.4281 600.39502,409.24043 622.375,407.96875 C 640.03815,406.94682 642.52593,406.4803 644.84375,403.6875 C 646.15169,402.11154 645.34303,398.68646 643.875,399.59375 C 643.36765,399.90731 638.56625,399.11236 633.21875,397.84375 C 624.63447,395.80725 621.04111,395.55842 602.5,395.59375 C 578.58577,395.63933 564.30052,397.63617 546,403.53125 C 537.5328,406.25877 528.66088,408.03588 527.8125,407.1875 C 526.31499,405.69003 530.30217,403.25639 537.9375,401 C 542.02727,399.7914 546.97728,397.93065 548.9375,396.875 C 551.31584,395.59416 553.45651,395.17735 555.375,395.59375 C 556.95619,395.93693 558.53121,395.80435 558.875,395.3125 C 559.59915,394.27645 570.99405,392.05241 579,391.375 C 582.025,391.11906 585.625,390.54998 587,390.125 C 590.92602,388.91158 613.37774,388.74106 619.21875,389.875 C 622.1203,390.43828 627.875,391.43542 632,392.09375 C 636.125,392.75208 641.96569,393.91029 644.96875,394.65625 C 652.30786,396.47932 652.4232,396.45829 656.46875,392.90625 C 661.67098,388.33861 661.17446,386.46036 654.25,384.53125 C 651.0875,383.65019 647.45088,382.50173 646.1875,381.96875 C 644.92413,381.43576 642.64929,381 641.125,381 C 639.60069,381 636.14983,380.35672 633.4375,379.5625 C 630.72516,378.76828 619.01737,377.37218 607.4375,376.46875 C 575.11201,373.9468 555.07457,376.08993 531.5,384.625 C 527.65,386.01889 521.8,388.00313 518.5,389 C 515.2,389.99687 510.025,391.88928 507,393.21875 C 503.975,394.54823 500.7125,395.46427 499.75,395.25 C 498.7875,395.03574 498,395.30513 498,395.84375 C 498,396.7118 489.93259,400 487.8125,400 C 486.35476,400 486.94795,397.34113 488.75,395.78125 C 491.11875,393.73082 501.8332,388.01209 503.3125,388 C 503.96614,387.99466 506.41243,386.45222 508.75,384.59375 C 511.08757,382.73529 514.46257,380.91915 516.25,380.5625 C 519.21053,379.97179 527.14811,373.44251 532.34375,367.3125 C 534.12105,365.21558 534.12104,365.13269 532.34375,364.1875 C 529.54828,362.70082 517.92588,365.25269 512.3125,368.59375 C 509.66306,370.17069 505.69452,372.27706 503.5,373.28125 C 499.25569,375.2234 482.93975,387.154 478.65625,391.4375 C 476.0727,394.02105 473,394.87662 473,393 C 473,391.04969 491.214,374.23924 494.84375,372.84375 C 495.76025,372.49138 497.60413,371.0289 498.9375,369.59375 C 500.27087,368.15859 501.98417,367 502.75,367 C 503.51583,367 505.60353,365.875 507.40625,364.5 C 509.20898,363.125 510.99143,362 511.34375,362 C 512.78288,362 522,355.75548 522,354.78125 C 522,352.3066 510.89669,355.0192 503.1875,359.375 C 487.68718,368.13291 484,369.99233 484,369.125 C 484,366.03572 488.66744,357.88696 494.25,351.21875 C 495.7625,349.41211 497,347.26923 497,346.46875 C 497,344.6939 495.72615,345.63519 485.5625,355 C 481.67522,358.58175 472.425,366.90798 465,373.5 C 457.575,380.09203 451.275,385.75365 451,386.0625 C 450.43184,386.7006 440.94774,392 440.375,392 C 440.16927,392 440,391.31359 440,390.46875 C 440,389.62389 441.9125,387.19501 444.25,385.0625 C 446.5875,382.93 453,377.05323 458.5,372.03125 C 464,367.00927 473.99335,358.55692 480.71875,353.21875 C 487.44415,347.88059 492.95665,342.9375 492.96875,342.25 C 492.98166,341.51662 492.68559,341.09431 492.21875,341.03125 z M 423.03125,415.53125 C 404.0356,415.60956 384.85398,416.10355 379.5,416.875 C 374.55,417.58823 367.575,418.55094 364,419.03125 C 360.425,419.51157 355.25,420.33933 352.5,420.875 C 349.75,421.41068 343.45,422.51236 338.5,423.3125 C 327.10706,425.15408 322.58726,426.77066 300.5,437 C 298.3,438.0189 292.9788,440.05471 288.65625,441.5 C 284.33371,442.9453 277.47043,445.69096 273.40625,447.59375 C 269.34208,449.49654 262.73827,452.20015 258.75,453.625 C 254.76173,455.04985 250.825,456.77341 250,457.4375 C 249.175,458.10158 245.2484,460.53177 241.28125,462.84375 C 237.3141,465.15574 233.7141,467.63698 233.28125,468.375 C 232.8484,469.113 231.13011,470.44793 229.4375,471.3125 C 227.74488,472.17706 224.61036,474.98709 222.5,477.5625 C 220.38965,480.13791 217.74078,483.23612 216.59375,484.4375 C 211.70672,489.55609 206.87108,495.7472 205.25,498.96875 C 203.39718,502.65085 197.85215,505.40284 187.15625,507.96875 C 184.37028,508.6371 181.58209,509.81707 180.9375,510.59375 C 180.29292,511.37043 179.02015,512.01376 178.125,512.03125 C 177.22984,512.04875 175.63012,512.72375 174.5625,513.53125 C 173.49488,514.33876 171.91988,515.01595 171.0625,515.03125 C 170.20512,515.04654 167.72298,516.39655 165.5625,518.03125 C 163.40203,519.66594 161.09448,521 160.4375,521 C 159.78052,521 154.44376,524.6 148.5625,529 C 142.68124,533.4 137.77675,537 137.65625,537 C 136.82083,537 111.76695,562.70666 108.78125,566.625 C 102.67407,574.63988 98.631884,578.77984 96.28125,579.46875 C 95.062054,579.82606 91.131493,582.11875 87.5625,584.5625 C 83.99351,587.00625 80.718058,588.99933 80.28125,589 C 79.073961,589.00186 65.061288,600.63472 60.25,605.625 C 56.448599,609.56782 55.416641,611.61592 55.90625,614.34375 C 55.990681,614.81411 55.554147,615.81948 54.9375,616.5625 C 54.320853,617.30551 54.080798,618.30522 54.375,618.78125 C 54.669201,619.25728 54.346945,620.72694 53.65625,622.0625 C 51.935677,625.38948 53.711018,633.87037 56.46875,635.40625 C 57.559679,636.01382 60.348081,637.7375 62.65625,639.25 C 64.964421,640.7625 67.172865,642 67.5625,642 C 68.600708,642 93.626994,658.75593 96.40625,661.3125 C 97.709026,662.51089 100.78796,664.89911 103.25,666.625 C 109.06311,670.69999 117.46985,680.82922 119.0625,685.6875 C 119.75096,687.78764 120.85507,690.4 121.53125,691.5 C 123.13506,694.10908 124.25533,699 123.25,699 C 122.8182,699 121.00348,696.75746 119.21875,694.03125 C 116.54163,689.94188 115.3347,688.98897 112.25,688.46875 C 110.19355,688.12194 107.6,687.54963 106.5,687.21875 C 104.15407,686.51312 104.71279,686.65002 94.5,684.6875 C 90.094461,683.84091 85.136343,682.62214 83.5,682 C 81.863661,681.37787 77.808116,680.25469 74.5,679.5 C 71.191885,678.74532 66.715809,677.67935 64.53125,677.125 C 62.34669,676.57066 60.382644,676.30486 60.15625,676.53125 C 59.317394,677.37009 65.169102,687.91922 68.71875,691.96875 C 76.950778,701.36004 114.31204,716 130.0625,716 C 137.65592,716 138.4301,715.29602 136.34375,710.28125 C 134.51446,705.88438 134.66784,703.24154 136.8125,702.09375 C 139.01762,700.91359 140.176,701.66732 141.75,705.25 C 143.55056,709.34837 150.89516,716.88802 155.21875,719.09375 C 168.65035,725.94602 181.58434,728.41011 201,727.75 C 219.5523,727.11921 231.00969,723.7834 242.375,715.71875 C 243.96405,714.59121 247.4669,712.57459 250.125,711.25 C 256.35179,708.14706 267.83857,696.64868 273.75,687.59375 C 279.81815,678.29877 288.62424,660.92888 290.78125,654 C 292.06889,649.86379 292.4924,644.84264 292.5,633.75 C 292.50555,625.63742 292.60698,618.99995 292.71875,619 C 293.7986,619.00046 297.31169,630.13074 298.5625,637.46875 C 300.25207,647.38088 299.61151,657.04659 296.625,666.125 C 295.83624,668.5227 294.86215,672.075 294.46875,674 C 293.7514,677.51024 288.38392,689.06236 287.03125,690 C 286.63453,690.275 285.73683,691.625 285.03125,693 C 282.68571,697.57089 271.5308,710.92049 269.5,711.59375 C 267.59887,712.22401 262.11747,717.77268 262.03125,719.15625 C 261.95034,720.45453 268.41031,722 273.90625,722 C 278.96331,722 280.12201,721.57399 285.21875,717.75 C 293.31436,711.67602 296.05146,707.2158 302.875,689 C 305.6447,681.60609 308,668.29097 308,660.09375 C 308,653.47964 309.85527,648.35353 311.375,650.8125 C 313.30261,653.93144 313.84207,668.25676 312.4375,679.1875 C 311.63785,685.41063 310.93714,691.175 310.875,692 C 310.42911,697.91908 304.26477,715.07207 299.9375,722.40625 C 297.27276,726.92267 298.29446,728.51516 304.28125,729.28125 C 306.60993,729.57926 312.325,730.52644 317,731.375 C 340.65493,735.66868 362.96202,739.42888 371,740.5 C 372.925,740.75652 376.00943,741.2475 377.84375,741.5625 C 380.68147,742.04978 381.10589,741.85366 380.8125,740.3125 C 380.62285,739.3163 378.24468,737.0019 375.5,735.1875 C 372.75534,733.37308 367.8,729.31856 364.5,726.15625 C 361.2,722.99392 356.925,719.32179 355,718 C 353.075,716.67825 351.275,715.33624 351,715.03125 C 350.48083,714.45545 342.89804,708.85613 339.625,706.625 C 338.29637,705.7193 337.94796,704.72989 338.4375,703.1875 C 339.34942,700.31423 342.77207,700.35852 347.125,703.3125 C 348.99463,704.58128 352.86787,706.90009 355.75,708.46875 C 358.63213,710.03741 361,711.67653 361,712.125 C 361,712.57347 362.27559,713.62657 363.84375,714.4375 C 366.68911,715.90891 376.81865,723.98251 382.5,729.3125 C 384.15,730.86045 386.7375,732.78566 388.25,733.59375 C 389.7625,734.40186 391,735.3992 391,735.8125 C 391,736.90843 395.29268,741.23247 407.53125,752.5 C 413.50523,758 420.37061,764.61727 422.78125,767.1875 C 429.53907,774.39267 435.80118,776.57667 437.4375,772.3125 C 438.13521,770.49428 435.0547,765.24073 430.3125,760.15625 C 428.44147,758.15019 426.16782,755.2625 425.25,753.75 C 424.33218,752.2375 423.05444,751 422.4375,751 C 421.82056,751 419.48471,749.0875 417.25,746.75 C 409.24218,738.37385 390.14946,721.24311 384.625,717.46875 C 383.05033,716.39293 379.8584,714.15 377.5,712.5 C 363.28342,702.5537 360.95989,701 360.4375,701 C 359.08591,701 353,695.65528 353,694.46875 C 353,692.10394 355.45988,692.26231 358.90625,694.875 C 360.77654,696.29286 365.09416,699.25966 368.5,701.46875 C 384.0594,711.56087 393.26064,718.40224 402,726.34375 C 403.925,728.09298 407.33901,730.88985 409.59375,732.53125 C 411.84851,734.17267 418.75664,740.225 424.9375,746 C 431.11837,751.775 436.80723,756.63884 437.5625,756.8125 C 438.64193,757.06072 438.81039,755.99101 438.40625,751.8125 C 437.26737,740.03717 437.59182,740.60919 425.40625,728.46875 C 419.08121,722.16715 413.65968,717 413.375,717 C 413.09032,717 410.53597,715.01016 407.6875,712.5625 C 396.00765,702.52619 392.82332,700 391.84375,700 C 391.27781,700 389.61935,698.8794 388.15625,697.5 C 385.22119,694.73283 376.97451,689.13015 369,684.5 C 363.1276,681.09037 361,679.30645 361,677.8125 C 361,676.18062 365.99429,677.82427 371,681.09375 C 373.475,682.71033 376.78944,684.796 378.375,685.75 C 381.69497,687.74757 394.72302,697.16564 397.0625,699.25 C 397.92952,700.02248 399.29666,700.91288 400.09375,701.21875 C 400.89085,701.52461 406.18288,705.52289 411.84375,710.125 C 429.54306,724.51403 434.72066,728.26556 435.40625,727.15625 C 436.25639,725.78065 430.87917,710.62302 429.1875,709.625 C 428.35843,709.13587 424.34393,705.60844 420.25,701.8125 C 413.13151,695.21213 392.14461,678.99016 389,677.65625 C 388.175,677.30627 383.29892,674.3409 378.15625,671.03125 C 373.01358,667.72162 368.47208,665 368.0625,665 C 367.6529,665 366.47599,664.08175 365.46875,662.96875 C 364.0377,661.38744 363.89985,660.6939 364.84375,659.75 C 366.17328,658.42047 371.07686,660.61399 380.46875,666.75 C 383.2062,668.53848 385.77756,670 386.1875,670 C 387.32951,670 404.4129,681.55077 414.5625,689.1875 C 427.23241,698.72058 428.66578,698.39059 422,687.5 C 419.8,683.90563 418,680.50906 418,679.96875 C 418,679.42846 417.55,679 417,679 C 416.45,679 415.98002,678.4375 415.96875,677.75 C 415.95748,677.0625 412.01879,672.45 407.1875,667.5 C 398.2455,658.33827 391.95312,654.18354 380.4375,649.875 C 377.45487,648.75904 375,647.52588 375,647.125 C 375,646.72409 373.02472,645.43106 370.59375,644.25 C 367.03053,642.51885 366.25493,641.71666 366.6875,640.0625 C 367.12307,638.39685 368.02855,638 371.5,638 C 382.23705,638 401.1284,644.0739 405.4375,648.90625 C 406.50132,650.09923 408.89119,652.00744 410.75,653.15625 C 413.66785,654.95956 415.95782,657.7103 420.5,664.875 C 421.05,665.74258 422.05502,666.90608 422.71875,667.46875 C 426.58303,670.74461 436.2387,693.55405 439.46875,707 C 440.32756,710.575 441.65322,715.75 442.40625,718.5 C 444.04609,724.48858 445.68487,734.13461 446.53125,742.90625 C 447.05957,748.38146 447.59554,749.76982 450.3125,752.40625 L 453.5,755.5 L 483,755.34375 C 510.11443,755.21069 529.45293,754.07385 558.5,750.90625 C 571.60251,749.47741 575.79665,749.08506 582.5,748.59375 C 589.69159,748.06668 612.11786,745.03325 613.03125,744.46875 C 613.38652,744.2492 619.27576,743.61867 626.125,743.0625 C 632.97426,742.50629 640.35505,741.41873 642.53125,740.65625 C 644.70745,739.89374 648.75,738.97579 651.5,738.59375 C 656.74985,737.86445 667.39558,735.90121 680,733.34375 C 684.125,732.50678 691.55,730.67045 696.5,729.25 C 701.45,727.82958 708.2,726.33836 711.5,725.9375 C 714.8,725.53666 718.4,724.97504 719.5,724.6875 C 720.6,724.39994 721.8375,724.10458 722.25,724.0625 C 724.00126,723.88382 722.77846,720.59547 720,718 C 716.98684,715.18529 716.01099,712 718.15625,712 C 718.78869,712 722.43415,713.8 726.25,716 C 730.06584,718.2 733.81707,720 734.59375,720 C 735.37045,720 736,720.3721 736,720.8125 C 736,721.25292 737.9125,722.61221 740.25,723.84375 C 756.48827,732.39905 762.21869,735.57616 767.5,739 C 770.8,741.13935 775.525,743.84482 778,745 C 780.475,746.15519 785.875,749.51408 790,752.46875 C 794.125,755.42342 799.71257,759.03288 802.40625,760.46875 C 805.09993,761.90464 808.92492,764.32277 810.90625,765.84375 C 819.02195,772.0738 826.74354,776.20865 828.84375,775.46875 C 829.57623,775.2107 830.36373,775 830.59375,775 C 830.82376,775 831,773.37438 831,771.40625 C 831,768.59098 830.20027,767.04654 827.25,764.15625 C 823.48276,760.46564 812.38428,752.36309 804,747.15625 C 801.525,745.61923 798.1904,743.49648 796.59375,742.4375 C 791.03908,738.75334 786.48908,736.04287 784.75,735.40625 C 783.7875,735.05391 783,734.36085 783,733.875 C 783,733.38916 782.51461,733 781.90625,733 C 781.29788,733 779.1604,731.7554 777.15625,730.21875 C 775.15209,728.68212 772.375,726.85572 771,726.1875 C 769.625,725.51929 766.475,723.78838 764,722.34375 C 761.525,720.89914 756.35,717.87747 752.5,715.625 C 748.65,713.37251 744.01593,711.02227 742.1875,710.375 C 738.11725,708.9341 737.72845,708.57764 738.15625,706.59375 C 738.43182,705.31572 740.35621,705.8767 748.5,709.6875 C 757.19642,713.75691 763.28012,717.16311 782.5,728.6875 C 784.7,730.00661 787.2875,731.34126 788.25,731.65625 C 789.2125,731.97122 790,732.63915 790,733.125 C 790,733.61084 790.45898,734 791.03125,734 C 791.60354,734 793.29102,734.86419 794.78125,735.90625 C 796.2715,736.9483 802.675,741.1967 809,745.375 C 815.325,749.55327 821.4,753.60981 822.5,754.375 C 825.34763,756.35588 830,757.30648 830,755.90625 C 830,755.28235 828.47853,751.52047 826.625,747.5625 C 822.87551,739.55595 816.72204,733.50755 807,728.25 C 800.2017,724.57359 794.56036,721.40182 791.6875,719.625 C 783.83324,714.76728 760.52362,703 758.75,703 C 757.72563,703 750.9586,700.03942 746,697.4375 C 744.625,696.71599 743.34782,695.37148 743.15625,694.4375 C 742.86312,693.0083 743.35092,692.83113 746.25,693.375 C 748.14448,693.73043 751.55451,694.94031 753.8125,696.03125 C 756.07047,697.12218 758.42311,698 759.0625,698 C 760.07974,698 788.13848,711.21544 793.5,714.21875 C 809.50742,723.18546 813.81581,723.72908 806.75,715.90625 C 804.96511,713.93013 802.34073,711.00514 800.90625,709.40625 C 796.03275,703.97417 786.26259,695.8092 781.125,692.875 C 778.30911,691.26675 776,689.60346 776,689.15625 C 776,688.70906 775.41702,688.34375 774.71875,688.34375 C 774.02048,688.34377 771.65798,687.16125 769.46875,685.71875 C 767.27952,684.27624 762.93449,682.41042 759.78125,681.59375 C 750.43354,679.17281 749.49838,678.0665 756.8125,678.03125 C 763.73477,677.99789 779.34739,682.57337 784.21875,686.0625 C 785.70896,687.12986 787.45382,688 788.09375,688 C 789.1321,688 801.75033,696.46737 803,698 C 803.275,698.33729 805.3,699.94471 807.5,701.5625 C 809.7,703.18029 811.79502,704.90362 812.15625,705.40625 C 812.53222,705.92944 814.24739,705.6394 816.1875,704.71875 C 818.05143,703.83426 821.60619,702.64422 824.0625,702.09375 C 828.216,701.16292 836.32356,698.09226 840.15625,696 C 841.06569,695.50357 847.1407,693.03435 853.65625,690.5 C 860.17179,687.96567 868.03122,684.78162 871.125,683.4375 C 874.21876,682.09339 877.10574,681 877.53125,681 C 877.95677,681 881.05054,679.67662 884.40625,678.0625 C 887.76199,676.44837 893.2,674.1582 896.5,672.96875 C 903.97184,670.27558 922.54949,661.44087 926.3125,658.78125 C 927.85668,657.68985 929.32307,656.97932 929.5625,657.21875 C 930.43578,658.09202 917.21843,667.816 911.4375,670.5625 C 908.16885,672.1154 904.68046,674.07744 903.6875,674.90625 C 902.69453,675.73508 899.57659,677.58543 896.75,679.03125 C 888.38727,683.30887 888.17361,683.1395 909.5,689.46875 C 914.45,690.93781 920.975,692.97946 924,694 C 927.025,695.02052 932.2,696.63095 935.5,697.59375 C 938.8,698.55653 943.08315,700.1849 945,701.1875 C 946.91688,702.19013 949.2217,703 950.125,703 C 951.02832,703 952.31531,703.675 953,704.5 C 953.68469,705.325 954.88676,706 955.65625,706 C 958.3735,706 978.7638,714.48078 995.5625,722.59375 C 999.44358,724.46812 1003.0204,726 1003.5312,726 C 1004.0426,726 1006.7422,727.06436 1009.5,728.375 C 1012.2579,729.68562 1016.525,731.54479 1019,732.5 C 1021.475,733.45521 1024.4,734.61681 1025.5,735.09375 C 1036.675,739.93904 1050.4474,745.44687 1054.5,746.6875 C 1057.25,747.52934 1060.175,748.56627 1061,748.96875 C 1061.825,749.37121 1064.975,750.26174 1068,750.96875 C 1071.025,751.67579 1075.2717,753.09704 1077.4375,754.125 C 1079.6034,755.15296 1082.7522,756 1084.4375,756 C 1086.1228,756 1092.0738,756.87379 1097.6562,757.9375 C 1103.2386,759.0012 1113.2721,760.17263 1119.9375,760.5625 C 1131.6068,761.24503 1132.0236,761.21257 1131.2812,759.375 C 1130.8574,758.3254 1128.0737,755.24146 1125.0938,752.5 C 1122.1136,749.75851 1117.8382,745.51747 1115.5938,743.09375 C 1113.3491,740.67005 1110.9863,738.15489 1110.3438,737.5 C 1109.6778,736.82164 1104.5142,736.01015 1098.3438,735.625 C 1081.0596,734.54621 1047.0889,727.76033 1037.5,723.46875 C 1034.75,722.23796 1031.375,720.91196 1030,720.5 C 1028.625,720.08804 1024.125,718.0513 1020,716 C 1015.875,713.94869 1010.8125,711.73143 1008.75,711.0625 C 1006.6875,710.39354 1005,709.37869 1005,708.8125 C 1005,708.24634 1004.325,708.05841 1003.5,708.375 C 1002.675,708.69158 1002,708.5494 1002,708.0625 C 1002,707.5756 1000.0875,706.48366 997.75,705.65625 C 995.4125,704.82883 994.21866,704.13717 995.09375,704.09375 C 996.93948,704.00213 1001.2857,705.36115 1016.5,710.8125 C 1041.1663,719.65055 1053.4313,722.99783 1072,725.9375 C 1101.5797,730.62035 1102.6542,730.23021 1091.5312,719.03125 L 1083.5625,711 L 1078.0312,710.96875 C 1063.7271,710.8769 1001.7791,698.04689 996.53125,694.09375 C 995.96396,693.66645 992.8,692.55426 989.5,691.59375 C 980.73818,689.04351 980.67757,689.00993 981.28125,688.40625 C 981.94079,687.74669 997.03525,691.83311 998.59375,693.09375 C 999.18949,693.57562 1003.3999,694.20114 1007.9688,694.5 C 1012.537,694.79888 1016.5927,695.23638 1016.9688,695.46875 C 1018.0113,696.11326 1031.6907,699.01001 1039,700.125 C 1055.5735,702.65319 1071.1721,704.43333 1074.25,704.15625 C 1077.1716,703.89325 1076.2543,702.10951 1070.375,696.59375 L 1064.75,691.34375 L 1051.125,690.21875 C 1043.6274,689.60374 1031.875,688.21451 1025,687.125 C 1018.125,686.03549 1010.25,684.94848 1007.5,684.71875 C 1004.75,684.48904 1000.25,683.57254 997.5,682.6875 C 994.75,681.80248 987.19934,679.65105 980.71875,677.90625 C 974.23816,676.16142 969.15001,674.53749 969.40625,674.28125 C 969.6625,674.02503 971.48031,674.32282 973.4375,674.96875 C 975.39471,675.61467 979.58284,676.53048 982.75,677 C 985.91717,677.46954 991.875,678.34966 996,678.96875 C 1023.5739,683.10707 1055,684.52129 1055,681.625 C 1055,680.87703 1053.852,679.41454 1052.4375,678.375 C 1051.023,677.33545 1048.543,675.2625 1046.9375,673.75 C 1044.3936,671.35342 1043.2047,670.99888 1037.75,671 C 1034.3074,671.0007 1027.9,670.55708 1023.5,670.03125 C 1019.1,669.50541 1008.8578,668.60098 1000.75,668 C 992.59464,667.39551 984.44189,666.24888 982.5,665.4375 C 980.56945,664.63088 975.76813,663.30084 971.8125,662.46875 C 956.3855,659.22359 964.21791,659.38422 998,663.0625 C 1018.6824,665.31446 1036.9941,665.64536 1036.9688,663.75 C 1036.9593,663.0625 1034.934,660.34737 1032.4688,657.71875 C 1030.003,655.09012 1028,652.56751 1028,652.09375 C 1028,651.17815 1018.8735,650.22145 1002.5,649.46875 C 983.84871,648.61137 953.77857,645.12231 952.28125,643.625 C 951.85933,643.20305 954.42834,643.2006 958,643.625 C 963.97137,644.33454 971.77183,644.38503 1014.5,644.0625 L 1029.5,643.9375 L 1031.7812,638.78125 C 1033.3604,635.19049 1033.6843,633.41811 1032.9062,632.9375 C 1031.0255,631.77507 1014.3672,631.10774 997,631.46875 C 987.925,631.65742 980.05,631.91033 979.5,632.03125 C 978.95,632.15218 973.775,632.11775 968,631.96875 C 958.0641,631.71239 957.82234,631.64815 963.5,630.9375 C 987.6076,627.92004 1009.6501,625.99636 1026.3438,625.46875 C 1034.8092,625.20121 1037.5936,624.76679 1039.0625,623.4375 C 1041.563,621.1746 1045.3326,613.32736 1044.5312,612.03125 C 1043.636,610.58263 1026.741,610.77014 1006.0625,612.46875 C 996.47974,613.2559 988.37938,613.71516 988.03125,613.5 C 987.68312,613.28485 981.58603,613.97742 974.5,615.03125 C 967.41397,616.0851 961.42301,616.76676 961.1875,616.53125 C 960.95199,616.29576 961.8226,615.89863 963.125,615.65625 C 968.31551,614.69025 977.97859,612.80018 987,611 C 1006.9848,607.01212 1013.1865,606 1017.3438,606 C 1019.7063,606 1024.074,605.57038 1027.0625,605.03125 C 1030.0511,604.4921 1036.1921,603.85242 1040.6875,603.625 C 1045.183,603.39758 1049.2968,602.93159 1049.8438,602.59375 C 1051.0431,601.85253 1059,587.26854 1059,585.8125 C 1059,584.38688 1051.234,585.57506 1035,589.5 C 1031.425,590.36431 1025.575,591.72376 1022,592.5 C 1018.425,593.27624 1011.675,595.1004 1007,596.5625 C 1002.325,598.02462 996.7,599.558 994.5,599.96875 C 992.3,600.37949 987.88795,601.73741 984.6875,602.96875 C 977.53484,605.7207 975.98903,604.95784 982.65625,601.96875 C 985.3223,600.77353 990.2,598.53907 993.5,597 C 999.95201,593.99088 1022.3564,586.63751 1024.9375,586.6875 C 1025.7996,586.7042 1026.95,586.40763 1027.5,586 C 1028.555,585.21804 1041.0115,582.12979 1056,578.9375 C 1063.8545,577.26465 1065.6846,576.16138 1067.5938,572.09375 C 1068.5243,570.11089 1070.5871,566.6116 1072.1562,564.3125 C 1075.082,560.02612 1075.8112,557 1073.9375,557 C 1072.639,557 1049.2694,564.66645 1046.5,566 C 1045.4,566.5297 1041.125,568.14965 1037,569.59375 C 1028.161,572.68813 1026.4928,573.34567 1014,578.90625 C 1008.775,581.23191 1003.6997,583.32431 1002.7188,583.53125 C 1001.7373,583.73817 997.05738,585.72442 992.3125,587.96875 C 983.48003,592.14651 978.81056,593.11634 985.6875,589.34375 C 992.90161,585.38619 1009.5,575.80885 1010.5,575.03125 C 1011.05,574.60355 1013.975,573.34801 1017,572.21875 C 1022.87,570.02742 1044.1675,561.467 1047.5,559.96875 C 1050.7874,558.49079 1067.9847,552.47787 1075.5625,550.15625 C 1081.9776,548.19082 1082.8644,547.61102 1085.0312,543.75 C 1086.3439,541.41139 1088.8732,537.56713 1090.6875,535.1875 C 1094.4457,530.25823 1094.9972,527 1092.0625,527 C 1090.9991,527 1085.9366,528.32821 1080.8125,529.9375 C 1075.6883,531.54682 1067.796,533.98454 1063.25,535.375 C 1058.704,536.76546 1053.9639,538.6185 1052.75,539.46875 C 1051.5361,540.31899 1049.5415,541 1048.3125,541 C 1047.0834,541 1042.2552,543.025 1037.5625,545.5 C 1032.8699,547.975 1028.5302,550 1027.9375,550 C 1027.3449,550 1025.3963,551.125 1023.5938,552.5 C 1021.7907,553.875 1019.3419,555 1018.1562,555 C 1016.971,555 1016,555.45 1016,556 C 1016,556.55 1015.3758,557 1014.625,557 C 1013.8741,557 1012.1969,557.83522 1010.875,558.875 C 1009.5532,559.91479 1006.5461,561.36522 1004.2188,562.0625 C 1001.8911,562.75975 1000,563.65336 1000,564.0625 C 1000,564.47161 998.7625,565.29805 997.25,565.90625 C 995.7375,566.51446 992.475,568.3146 990,569.90625 C 987.525,571.49788 980.50831,575.3267 974.40625,578.40625 C 956.16407,587.61264 947.52037,589.82142 926.71875,590.65625 C 918.03753,591.00465 910.6774,591.69821 910.375,592.1875 C 910.07262,592.67679 911.01844,594.01544 912.46875,595.15625 C 913.91904,596.29708 917.80817,600.9004 921.09375,605.375 C 924.37932,609.84958 927.86828,614.4 928.875,615.5 C 929.88169,616.6 931.04861,618.57552 931.46875,619.90625 C 932.08959,621.87257 930.84521,621.18298 924.84375,616.21875 C 920.78215,612.85912 915.69256,608.28684 913.5,606.0625 C 911.30746,603.83819 909.13929,602.0405 908.6875,602.03125 C 907.38438,602.00453 905.03524,599.30851 905.71875,598.625 C 906.05922,598.28449 905.41893,598 904.3125,598 C 903.20607,598 901.49549,597.1 900.5,596 C 899.50451,594.9 898.33159,594 897.90625,594 C 897.48091,594 894.49777,592.44732 891.28125,590.53125 C 888.06477,588.61518 882.07916,586.17895 877.96875,585.125 C 866.84629,582.27306 855.58608,578.2952 843,572.8125 C 841.625,572.21351 839.6,571.41057 838.5,571 C 824.7454,565.86618 814.05131,561.19023 810.84375,558.90625 C 809.37955,557.86366 807.22341,557 806.03125,557 C 804.83911,557 801.98544,555.91593 799.6875,554.59375 C 797.38959,553.27155 793.025,551.16892 790,549.90625 C 786.975,548.6436 781.68002,545.89215 778.25,543.8125 C 774.81995,541.73283 770.54497,539.35761 768.75,538.53125 C 763.60681,536.1635 750.55231,528.82841 750,528 C 749.725,527.58755 747.33756,526.26376 744.6875,525.0625 C 742.03747,523.8612 737.31245,521.24033 734.1875,519.21875 C 731.06258,517.19717 724.45,513.47899 719.5,510.96875 C 714.55,508.4585 708.51377,504.98108 706.09375,503.21875 C 703.67371,501.45641 701.26349,500 700.71875,500 C 699.36307,500 690.77857,495.75297 689.28125,494.34375 C 688.61366,493.71547 680.96365,489.77225 672.28125,485.5625 C 663.59885,481.35274 655.825,477.46593 655,476.9375 C 654.175,476.40908 652.375,475.46947 651,474.84375 C 649.625,474.21804 646.25,472.68497 643.5,471.4375 C 640.75,470.19002 634,467.11743 628.5,464.59375 C 623,462.07007 618.1685,459.99913 617.75,460 C 617.33154,460.00085 614.85651,459.06221 612.25,457.90625 C 601.6083,453.18674 598.40414,451.72335 596.75,450.875 C 595.79498,450.38519 594.1375,450 593.0625,450 C 591.98751,450 590.87627,449.57018 590.5625,449.0625 C 590.24873,448.55482 588.5312,447.82815 586.75,447.4375 C 584.96881,447.04687 581.91685,445.90168 580,444.875 C 578.08312,443.84833 575.98892,443 575.3125,443 C 573.44101,443 564.81795,440.11964 561.875,438.5 C 560.43967,437.71008 559.04014,437.3036 558.75,437.59375 C 558.45984,437.8839 556.72453,437.19008 554.875,436.0625 C 553.02546,434.93492 550.29831,434.00205 548.84375,434 C 546.39195,433.99652 543.80878,433.3169 526,428 C 522.425,426.93268 514.55,425.11211 508.5,423.9375 C 502.45,422.76288 496.15,421.19476 494.5,420.46875 C 491.44178,419.12308 478.71045,417.4835 461.875,416.25 C 455.68059,415.79615 443.91685,415.55907 431.125,415.53125 C 428.46003,415.52545 425.74491,415.52006 423.03125,415.53125 z M 424.625,422 C 426.84821,422.00899 434.46521,429.55523 435.4375,432.71875 C 436.10622,434.89461 433.82961,442.74265 430,451.5 C 429.03792,453.7 427.94632,456.5125 427.5625,457.75 C 427.1787,458.9875 426.47587,460 426,460 C 425.52413,460 424.85378,460.9166 424.5,462.03125 C 423.09557,466.4562 416.3749,468.51899 410.75,466.25 C 407.6928,465.01677 407,464.21013 407,461.96875 C 407,458.69462 410.53601,456 414.8125,456 C 418.35763,456 420.01192,454.19831 423.5,446.5 C 426.42386,440.04695 426.40853,441.19774 423.28125,424.75 C 422.86204,422.54519 423.13094,421.99397 424.625,422 z M 467.71875,424.125 C 468.33122,424.12414 469.59414,424.83702 471.65625,426.25 C 474.66407,428.31098 474.98215,429.06668 475.65625,435.5 C 476.61098,444.61162 476.82352,443.85004 470.625,455.65625 C 469.71709,457.38553 466.595,460.57439 463.71875,462.75 C 459.57835,465.88182 457.54499,466.72592 453.90625,466.875 C 451.13647,466.98848 448.91445,466.55753 448.3125,465.78125 C 446.26678,463.14309 446.22061,461.16276 448.125,458.03125 C 449.94154,455.04419 450.402,454.84352 454.71875,455.15625 C 459.30825,455.48874 459.43625,455.44282 463.71875,449.9375 C 467.95351,444.49357 468.04506,444.17037 468.1875,436.4375 C 468.26776,432.08012 468.00059,427.4875 467.59375,426.25 C 467.1285,424.83479 467.10628,424.12586 467.71875,424.125 z M 379.84375,424.71875 L 383.15625,425.375 C 387.64355,426.27245 394.79935,433.4114 395.625,437.8125 C 395.97873,439.69808 395.82351,441.52071 395.28125,441.875 C 394.74208,442.22728 393.03293,446.55823 391.46875,451.5 C 387.81891,463.03108 384.20508,468.35523 377.9375,471.53125 C 372.35824,474.35848 371.6339,474.47172 370.21875,472.75 C 368.49527,470.65315 368.54668,468.67775 370.46875,464.8125 C 371.90683,461.92058 372.9839,461.04814 375.375,460.8125 C 377.4819,460.60488 378.80862,459.7224 379.625,458 C 380.27671,456.625 381.41581,454.18729 382.15625,452.59375 C 384.21849,448.15546 383.93266,433.41859 381.6875,428.625 L 379.84375,424.71875 z M 504.8125,430 C 506.54655,430 512.00075,436.3573 512,438.375 C 511.99802,443.72199 501.23171,462.19231 495.625,466.46875 C 491.06363,469.9479 484.88547,469.98117 482.625,466.53125 C 479.08316,461.12572 481.00414,458.28757 488.53125,457.8125 L 493.5,457.5 L 497.9375,448.5 C 503.76383,436.65481 504.20424,435.57159 503.96875,433.90625 C 503.63254,431.52852 503.96155,430 504.8125,430 z M 345.1875,434.9375 C 346.54472,435.05504 348.78293,436.28228 351.8125,438.59375 C 354.392,440.56182 356.80325,442.69933 357.15625,443.34375 C 357.50924,443.98816 356.90081,449.66862 355.8125,455.96875 C 353.36582,470.13237 350.521,476.16809 345.03125,478.96875 C 339.87268,481.60045 338.55705,481.51194 337.15625,478.4375 C 336.51796,477.03663 336,475.13939 336,474.1875 C 336,472.47416 339.23595,469 340.84375,469 C 343.50427,469 344.77042,464.98257 345.40625,454.46875 C 345.93301,445.7587 345.77825,442.67863 344.59375,439.84375 C 343.17108,436.4388 343.44251,434.78637 345.1875,434.9375 z M 540.8125,440 C 543.16335,440 548,446.28723 548,449.34375 C 548,452.20362 541.14841,465.90797 537.34375,470.65625 C 535.12595,473.42408 532.90516,475.06627 530.75,475.5 C 528.96375,475.85949 526.7483,476.34114 525.84375,476.59375 C 524.93923,476.84635 523.47671,476.3517 522.59375,475.46875 C 518.92251,471.79748 522.6513,465.50078 528,466.34375 C 531.41893,466.88259 532.14018,466.14433 534.5,459.5 C 535.4767,456.75 537.09941,452.67364 538.125,450.4375 C 539.15063,448.20136 540,444.93885 540,443.1875 C 540,441.43615 540.36762,440 540.8125,440 z M 302.8125,444.65625 C 303.34428,444.66097 303.96605,444.80923 304.71875,445.09375 C 306.18155,445.64667 306.76451,446.45371 306.375,447.46875 C 305.98089,448.49575 306.22283,448.85145 307.125,448.53125 C 309.23229,447.78331 311.49487,450.0452 313.78125,455.21875 C 315.85102,459.90218 316.01772,465.23977 314.375,473.5 C 313.32516,478.77895 306.10888,490.3333 302.03125,493.25 C 297.7287,496.32759 296.69053,496.55642 295.25,494.75 C 293.58001,492.65584 293.2008,487.05167 294.65625,485.84375 C 295.38752,485.23684 296,484.34474 296,483.84375 C 296,483.34277 297.52702,481.41048 299.40625,479.53125 C 301.28548,477.65204 303.11341,475.07744 303.46875,473.8125 C 303.82408,472.54755 304.62754,470.45133 305.25,469.1875 C 306.0986,467.46454 306.08322,465.78651 305.1875,462.4375 C 304.53046,459.98094 304,457.12298 304,456.09375 C 304,455.06452 303.32161,452.95037 302.5,451.375 C 300.29772,447.15231 300.50812,444.63581 302.8125,444.65625 z M 578.875,451.28125 C 579.5654,451.14211 580.58966,452.58293 581.6875,455.53125 C 584.4203,462.87026 584.40314,463.79366 581.375,467.75 C 579.79815,469.81019 576.84386,473.97391 574.8125,477 C 569.53046,484.86855 568.87494,485.50506 565.09375,486.8125 C 559.82645,488.63378 557.22343,488.2898 555.375,485.46875 C 554.04172,483.43394 553.94653,482.43793 554.84375,480.46875 C 555.76022,478.45726 556.68728,478 559.9375,478 C 563.51207,478 564.19539,477.54802 566.9375,473.5625 C 568.61391,471.12591 570,468.72972 570,468.21875 C 570,467.7078 571.8,465.24933 574,462.75 C 577.11875,459.20692 578,457.36915 578,454.5 C 578,452.44354 578.33802,451.38947 578.875,451.28125 z M 610.84375,466.0625 C 611.30523,465.94563 611.98533,466.813 612.46875,468.75 C 612.84625,470.2625 613.81331,472.22405 614.625,473.125 C 615.43668,474.02597 616.1508,475.60096 616.21875,476.625 C 616.45382,480.16772 612.30245,487.58142 606.5625,493.78125 C 601.22647,499.54477 600.49117,499.98144 596.65625,499.90625 C 594.37801,499.86157 591.37755,499.29908 590,498.65625 C 585.19448,496.41375 585.05689,496.20599 586.65625,493 C 587.4769,491.3549 588.77778,489.94375 589.5625,489.875 C 590.34722,489.80625 591.45,489.6375 592,489.5 C 592.55,489.3625 594.83443,489.19375 597.0625,489.125 C 600.60521,489.01568 601.27721,488.59219 602.59375,485.75 C 603.42175,483.9625 605.67754,480.25 607.59375,477.5 C 610.42227,473.44074 610.97558,471.88852 610.5,469.25 C 610.145,467.28047 610.38227,466.17937 610.84375,466.0625 z M 434.5625,477.625 C 437.97173,477.57831 439.57286,481.67119 438.03125,487.84375 C 434.83425,500.64446 433.52818,504.62703 432,506 C 431.08174,506.825 429.29216,509.00735 428.03125,510.84375 C 425.08046,515.1413 418.36163,520 415.375,520 C 413.99644,520 412.37671,518.9811 411.40625,517.5 C 409.88883,515.18413 409.88884,514.81587 411.40625,512.5 C 412.32385,511.09955 414.03376,509.98645 415.28125,509.96875 C 420.86799,509.88946 427.67677,497.93929 428.84375,486.1875 C 429.41068,480.47835 429.84464,479.38543 431.9375,478.34375 C 432.89994,477.86471 433.77575,477.63578 434.5625,477.625 z M 393.6875,481 C 396.81106,481 397.48402,487.07238 394.96875,492.59375 C 393.89063,494.96037 393.00811,497.69482 393,498.6875 C 392.99189,499.68018 392.42939,501.46389 391.75,502.625 C 391.07061,503.78609 389.2968,506.9361 387.84375,509.625 C 386.39069,512.31388 384.36569,515.24687 383.34375,516.15625 C 380.6363,518.56549 373.95775,521.85845 370.28125,522.59375 C 367.37764,523.1745 367.04387,522.98442 366.46875,520.375 C 366.12142,518.79901 365.66072,516.97957 365.46875,516.34375 C 364.95166,514.63113 368.17616,512.10227 371.8125,511.375 C 374.59333,510.81884 377.11226,508.60743 381.875,502.46875 C 383.00695,501.00977 387,488.9268 387,486.96875 C 387,484.72793 391.18307,481 393.6875,481 z M 648,481.65625 L 650.5,486.59375 C 653.95542,493.36869 652.52492,498.69145 644.6875,508 C 639.91163,513.67234 635.16527,515.21427 631.15625,512.40625 C 629.45206,511.2126 628.9585,510.03275 629.1875,507.6875 C 629.49852,504.50235 630.36967,503.92202 637,502.5625 C 638.72082,502.20964 640.12334,500.72565 641.5,497.8125 C 642.6,495.48479 644.5125,492.49717 645.75,491.15625 C 647.19632,489.58906 648,487.4524 648,485.1875 L 648,481.65625 z M 480.0625,482 C 486.17581,482 486.10206,485.82618 479.65625,498.96875 C 476.78776,504.81739 473.50309,509.52275 469,514.21875 C 462.97399,520.5029 462.14961,521 458.25,521 C 454.93806,521 453.73303,520.49039 452.53125,518.65625 C 451.15576,516.55697 451.14187,516.00398 452.5625,513.15625 C 453.9004,510.47434 454.69801,509.99569 457.8125,509.96875 C 459.83472,509.95125 462.19456,509.38875 463.0625,508.71875 C 465.92496,506.50907 471.99885,497.05313 472.03125,494.75 C 472.04875,493.50687 472.72375,491.63012 473.53125,490.5625 C 474.33876,489.49488 475,487.65988 475,486.5 C 475,483.64068 476.84255,482 480.0625,482 z M 519.3125,488 C 523.83299,488 525.44555,492.8045 522.65625,498 C 521.91805,499.375 520.29356,502.39638 519.0625,504.71875 C 515.12848,512.14013 501.80522,523 496.625,523 C 495.99948,523 494.96289,522.1352 494.3125,521.09375 C 492.32796,517.91599 494.1137,513.94152 498.59375,511.59375 C 508.57908,506.36091 510.09988,504.53756 515.65625,491.25 C 516.62761,488.92712 517.67821,488 519.3125,488 z M 348,490 C 351.96487,490 352.78475,492.02863 351.84375,499.3125 C 350.7133,508.06283 349.1929,512.531 344.75,520.15625 C 341.63078,525.5097 340.08211,527.13552 336.90625,528.40625 C 331.01462,530.76363 328.15888,530.49868 327.40625,527.5 C 326.21316,522.74632 329.7502,516.14916 333.5625,516.03125 C 336.81761,515.93058 343,503.12658 343,496.46875 C 343,492.26648 344.75981,490 348,490 z M 557.34375,500 C 559.98421,500 562,501.73449 562,504 C 562,504.8787 560.47571,508.60632 558.59375,512.28125 C 555.18706,518.9335 549.93069,524.70154 545.0625,527.15625 C 543.65628,527.86532 541.43667,529.24176 540.125,530.21875 C 538.81336,531.19576 537.46333,531.9388 537.125,531.875 C 536.7867,531.81123 535.6,531.57637 534.5,531.34375 C 533.4,531.11117 531.4875,530.70157 530.25,530.4375 C 527.69239,529.89174 527.45981,528.57474 529.25,524.71875 C 530.1799,522.71577 531.82216,521.62102 535.65625,520.5 C 538.49088,519.67121 541.48354,519 542.3125,519 C 544.52936,519 548.89083,513.37022 552.1875,506.25 C 554.48788,501.28162 555.54786,500 557.34375,500 z M 683.375,504.4375 C 684.28909,504.4375 684.82503,505.4543 685.03125,507.5 C 685.41573,511.31396 684.99536,513.00464 683.21875,514.78125 C 682.23673,515.76327 680.14548,518.26836 678.5625,520.34375 C 676.97953,522.41917 674.40768,524.76992 672.875,525.5625 C 668.91091,527.61241 662.68326,527.39607 660.65625,525.15625 C 659.74602,524.15044 659,522.81795 659,522.1875 C 659,521.00617 666.86624,517.002 669.1875,517 C 670.545,516.99881 673.43712,514.30252 679.375,507.5 C 681.16067,505.4543 682.46091,504.4375 683.375,504.4375 z M 596.21875,511.5 C 599.48558,511.29547 601.78746,515.02185 600,519.1875 C 596.78462,526.6808 583.00897,541.96735 579.4375,542 C 578.85373,542.00533 577.39121,541.09018 576.1875,539.96875 C 574.89602,538.76551 574,536.73261 574,535 C 574,532.51518 574.64506,531.76724 578.25,530.125 C 584.06167,527.47747 589.36962,522.09938 590.78125,517.40625 C 591.42628,515.26183 592.79053,512.96508 593.84375,512.3125 C 594.66286,511.80498 595.46487,511.5472 596.21875,511.5 z M 715.3125,520.3125 C 716.17331,520.27466 717.0765,520.49123 717.96875,520.96875 C 721.81196,523.02555 720.44279,526.3514 712.25,534.90625 C 704.53287,542.96446 704.47879,543.00905 699.5,542.9375 C 696.75,542.89796 693.56436,542.42245 692.4375,541.875 C 691.31065,541.32756 689.79258,539.91904 689.0625,538.75 C 687.89971,536.88813 688.00059,536.40469 689.8125,534.9375 C 690.95015,534.01627 694.10059,532.98474 696.8125,532.625 C 700.01888,532.19966 702.69566,531.08303 704.4375,529.46875 C 705.91069,528.10341 707.52371,527 708.03125,527 C 708.53881,527 709.63566,525.67352 710.46875,524.0625 C 711.69094,521.69902 713.41871,520.39575 715.3125,520.3125 z M 629.28125,525.21875 C 630.08174,525.19383 630.83358,525.44692 631.5,526 C 634.59334,528.56728 632.52461,534.52589 625.40625,543.5 C 624.53371,544.6 623.51697,545.9724 623.15625,546.53125 C 621.73015,548.7407 615.76006,553 614.09375,553 C 613.1195,553 611.51799,551.51977 610.53125,549.6875 C 609.07614,546.98555 608.94525,545.9519 609.90625,544.15625 C 610.55588,542.9424 611.44672,542.17281 611.875,542.4375 C 613.43284,543.4003 619.73035,537.00594 622.0625,532.09375 C 624.08083,527.84257 626.87979,525.29351 629.28125,525.21875 z M 662,536.5 C 665.42752,536.24459 667.34942,540.57587 664.84375,545.3125 C 664.20824,546.51385 662.09344,549.525 660.125,552 C 650.45985,564.15238 646.3506,566.2755 642.0625,561.34375 C 639.89951,558.85604 639.80727,558.41825 641.125,556.0625 C 641.92622,554.63015 643.65494,553.34318 645.03125,553.15625 C 647.65388,552.80002 653,548.35762 653,546.53125 C 653,545.93137 653.9,544.6606 655,543.71875 C 656.1,542.77687 657,541.34895 657,540.53125 C 657,539.71355 658.09938,538.31427 659.4375,537.4375 C 660.35448,536.83668 661.20903,536.55894 662,536.5 z M 742.75,541.09375 C 745.76,541.15268 747.90996,543.87343 745.96875,547.6875 C 744.32046,550.92613 733.05268,562 731.40625,562 C 730.80035,562 729.50668,561.10909 728.53125,560.03125 C 726.16177,557.41306 727.12875,554.02995 730.96875,551.5 C 732.63834,550.4 734.24503,548.825 734.53125,548 C 734.81748,547.175 736.16602,545.23609 737.53125,543.6875 C 738.95847,542.06862 740.61784,541.27139 742.125,541.125 C 742.33223,541.10487 742.54933,541.08982 742.75,541.09375 z M 694.3125,554.3125 C 694.97659,554.28217 695.71395,554.37293 696.59375,554.59375 C 698.53696,555.08146 699,555.87552 699,558.5 C 699,560.29803 698.325,562.31531 697.5,563 C 696.675,563.68469 696,564.76021 696,565.40625 C 696,567.05227 689.15252,573.44297 685.3125,575.375 C 682.10072,576.99091 680.94311,577.13844 677.8125,576.3125 C 676.88384,576.06749 675.95452,575.11618 675.75,574.1875 C 675.19225,571.6547 677.01831,567 678.5625,567 C 681.63353,567 685.06149,564.45592 688.1875,559.875 C 690.95628,555.81757 692.32023,554.40348 694.3125,554.3125 z M 767.9375,556 C 768.87922,556 770.60218,557.02619 771.78125,558.28125 C 773.74715,560.3739 773.81872,560.80192 772.5,563.34375 C 770.03804,568.08914 761.83428,577 759.9375,577 C 758.9436,577 757.42678,576.30179 756.5625,575.4375 C 755.69823,574.5732 755,572.91824 755,571.78125 C 755,569.07735 765.72179,556 767.9375,556 z M 170.9375,560.71875 C 171.8399,560.72185 172.81502,560.808 174,560.9375 C 183.33565,561.95773 189.7058,564.91895 196,571.1875 C 208.49153,583.62815 211.12636,597.63382 203.8125,612.71875 C 199.73848,621.12145 187.57037,627.74544 174.5,628.6875 C 169.24535,629.06624 167.00288,628.80094 165.53125,627.6875 C 163.84146,626.40903 163.7564,625.8743 164.78125,623.625 C 165.84336,621.29391 166.50984,621.00498 171.21875,621 C 174.11804,620.99691 178.19441,620.51701 180.28125,619.9375 C 184.63113,618.72958 193,611.22737 193,608.53125 C 193,607.53508 193.74583,606.16571 194.65625,605.5 C 196.71623,603.99374 197.78344,593.66095 196.09375,591.625 C 195.46622,590.86884 195.21453,589.57535 195.53125,588.75 C 195.89481,587.80254 193.99051,584.98501 190.34375,581.09375 C 185.29286,575.70422 183.68738,574.67565 177.65625,572.84375 C 171.38835,570.93993 170.24626,570.86444 165.125,572.0625 C 157.02908,573.95647 149,579.40824 149,583 C 149,583.88713 148.53012,585.06363 147.96875,585.625 C 146.64758,586.94618 143,596.95862 143,599.25 C 143,600.22025 142.48915,601 141.875,601 C 141.19337,601 141.01421,600.12345 141.40625,598.75 C 141.75948,597.5125 142.31611,594.25 142.65625,591.5 C 143.37272,585.70745 148.61274,574.65306 153,569.65625 C 154.66767,567.75685 158.85504,564.8638 162.28125,563.25 C 166.30768,561.3535 168.2303,560.70945 170.9375,560.71875 z M 798.96875,572.15625 C 799.19912,572.15438 799.42943,572.15656 799.6875,572.1875 C 805.93446,572.93649 804.48074,580.3279 797.0625,585.46875 C 792.65688,588.52181 792.77557,588.51119 790.53125,586.03125 C 788.85953,584.18399 788.83799,583.90114 790.375,581.78125 C 791.28066,580.53216 793.16512,577.78381 794.5625,575.6875 C 796.3293,573.037 797.35616,572.16934 798.96875,572.15625 z M 728.28125,573.03125 C 729.25556,573.01296 730.5751,574.14984 731.21875,575.5625 C 732.21503,577.74904 732.01614,578.81238 729.9375,582.65625 C 726.99496,588.09766 719.79137,595 717.0625,595 C 715.97755,595 714.69291,594.24687 714.1875,593.34375 C 712.79424,590.85407 713.86379,587.96882 718.125,582.8125 C 720.25194,580.2388 722,577.83191 722,577.46875 C 722,576.2384 726.4992,573.06472 728.28125,573.03125 z M 170.78125,580.125 C 171.14019,580.11148 171.49163,580.11242 171.84375,580.125 C 176.53867,580.29269 180.62656,582.79194 183.90625,587.5625 C 186.32591,591.08207 186.50949,594.06947 184.75,600.65625 C 183.60145,604.95594 183.06884,605.51088 178.21875,607.65625 C 171.83708,610.47911 169.54767,610.56121 165,608.125 C 163.08357,607.0984 161.34372,605.47968 161.15625,604.53125 C 160.80762,602.7675 164.09291,599 165.96875,599 C 168.15437,599 166.83493,596.17555 163.03125,592.65625 C 160.85521,590.64289 158.65631,589 158.125,589 C 157.5937,589 156.63531,590.575 156,592.5 C 154.7375,596.32543 153,597.20007 153,594 C 153,590.21469 157.3441,585.03255 162.78125,582.34375 C 165.5873,580.9561 168.26866,580.21967 170.78125,580.125 z M 762.3125,588.09375 C 763.81378,587.99236 765.2801,588.64874 766.53125,590.03125 C 767.93523,591.58261 768.08933,592.31692 767.1875,593.21875 C 766.54048,593.86575 766,595.11789 766,596 C 766,597.71888 761.48053,602.32843 756.34375,605.84375 C 752.72862,608.31775 753.04252,608.24152 750.75,606.90625 C 747.83279,605.20711 748.54316,600.30389 752.25,596.53125 C 754.0375,594.71202 756.54852,592.02867 757.84375,590.59375 C 759.2539,589.0315 760.81122,588.19514 762.3125,588.09375 z M 794.90625,598 C 796.48271,597.98677 798.23203,598.61531 799.34375,599.84375 C 800.25398,600.84956 801,601.98811 801,602.40625 C 801,603.76376 793.61131,611.13551 789.78125,613.59375 C 785.2027,616.53237 783.32565,616.63736 782.46875,613.9375 C 781.4973,610.8768 783.59265,606.8277 787.5,604.15625 C 789.39507,602.8606 791.20058,600.94811 791.53125,599.90625 C 791.92515,598.66517 793.32979,598.01323 794.90625,598 z M 333,744.96875 C 330.68,745.05098 329,745.55363 329,746.5625 C 329,748.51361 343.95839,766.81712 354,777.15625 C 358.125,781.40349 364.2,786.68723 367.5,788.875 C 373.43136,792.80727 379.01092,794.1972 379,791.75 C 378.99694,791.0625 378.49839,788.7 377.90625,786.5 C 376.86671,782.63772 374.10031,779.29027 364.09375,769.71875 C 361.6754,767.40556 359.31692,765.05 358.84375,764.5 C 356.17776,761.40115 347.35018,749.99836 346.5,748.5625 C 345.27918,746.50065 338.75762,745.03107 334.03125,744.96875 C 333.67677,744.96408 333.33143,744.957 333,744.96875 z M 357.875,749.15625 C 357.51657,749.14998 357.20369,749.16931 356.90625,749.1875 C 353.33703,749.40571 354.0166,751.32394 358.25,756.21875 C 360.76747,759.12955 363.87451,762.47604 365.15625,763.6875 C 366.43797,764.89898 368.4,766.79479 369.5,767.875 C 372.49897,770.82001 374.17285,770.54701 373.375,767.25 C 373.00899,765.7375 372.31322,763.46081 371.84375,762.1875 C 371.37428,760.91422 371,758.64806 371,757.15625 C 371,752.25585 368.66474,750.28078 361.9375,749.5 C 360.31496,749.31168 358.9503,749.17506 357.875,749.15625 z "
       style="fill:#eeeeee;fill-opacity:1" />
    <path
       id="path2294"
       d="M 989.25,702.88122 C 987.4625,702.3651 986,701.6819 986,701.363 C 986,700.54491 991.30321,701.94904 992.45,703.07076 C 993.53457,704.13163 993.59246,704.13506 989.25,702.88122 z "
       style="fill:#eeeeee;fill-opacity:1" />
    <path
       id="path2292"
       d="M 959.27083,659.39583 C 959.60312,659.06354 960.46563,659.02802 961.1875,659.31689 C 961.98523,659.63611 961.74828,659.87307 960.58333,659.92105 C 959.52917,659.96447 958.93854,659.72812 959.27083,659.39583 z "
       style="fill:#000000;fill-opacity:1" />
    <path
       id="path2290"
       d="M 952.75,631.33772 C 953.4375,631.06031 954.5625,631.06031 955.25,631.33772 C 955.9375,631.61513 955.375,631.84211 954,631.84211 C 952.625,631.84211 952.0625,631.61513 952.75,631.33772 z "
       style="fill:#000000;fill-opacity:1" />
    <path
       id="path2278"
       d="M 977,594 C 977.825,593.46684 978.95,593.03063 979.5,593.03063 C 980.05,593.03063 979.825,593.46684 979,594 C 978.175,594.53316 977.05,594.96937 976.5,594.96937 C 975.95,594.96937 976.175,594.53316 977,594 z "
       style="fill:#000000;fill-opacity:1" />
  </g>
</svg>
