<?xml version="1.0" encoding="UTF-8" standalone="no"?>
<svg
   xmlns:dc="http://purl.org/dc/elements/1.1/"
   xmlns:cc="http://creativecommons.org/ns#"
   xmlns:rdf="http://www.w3.org/1999/02/22-rdf-syntax-ns#"
   xmlns:svg="http://www.w3.org/2000/svg"
   xmlns="http://www.w3.org/2000/svg"
   xmlns:xlink="http://www.w3.org/1999/xlink"
   xmlns:sodipodi="http://sodipodi.sourceforge.net/DTD/sodipodi-0.dtd"
   xmlns:inkscape="http://www.inkscape.org/namespaces/inkscape"
   width="99.43399px"
   height="120px"
   viewBox="0 0 99.43399 120"
   version="1.1"
   id="svg170"
   sodipodi:docname="CHE Aire-la-Ville COA.svg"
   inkscape:version="0.92.3 (2405546, 2018-03-11)">
  <metadata
     id="metadata174">
    <rdf:RDF>
      <cc:Work
         rdf:about="">
        <dc:format>image/svg+xml</dc:format>
        <dc:type
           rdf:resource="http://purl.org/dc/dcmitype/StillImage" />
      </cc:Work>
    </rdf:RDF>
  </metadata>
  <sodipodi:namedview
     pagecolor="#ffffff"
     bordercolor="#666666"
     borderopacity="1"
     objecttolerance="10"
     gridtolerance="10"
     guidetolerance="10"
     inkscape:pageopacity="0"
     inkscape:pageshadow="2"
     inkscape:window-width="1920"
     inkscape:window-height="1017"
     id="namedview172"
     showgrid="false"
     inkscape:zoom="4"
     inkscape:cx="52.609348"
     inkscape:cy="-0.53666753"
     inkscape:window-x="-8"
     inkscape:window-y="-8"
     inkscape:window-maximized="1"
     inkscape:current-layer="svg170" />
  <defs
     id="defs7">
    <path
       d="M79.4109 0L78.2543 0L1.1862 0L0.0310059 0L0.0310059 1.15661L0.0310059 60.1367C0.0310059 65.5176 1.07963 70.738 3.14988 75.6529C5.14908 80.3987 8.00935 84.6614 11.654 88.3231C15.2986 91.9833 19.5428 94.8578 24.2701 96.8655C29.1637 98.9457 34.3628 100 39.721 100C45.0792 100 50.2768 98.9457 55.1718 96.8655C59.8977 94.8578 64.1434 91.9833 67.788 88.3231C71.4312 84.6614 74.2928 80.3987 76.2921 75.6529C78.3609 70.738 79.4109 65.5176 79.4109 60.1367L79.4109 1.15661L79.4109 0Z"
       id="path_1" />
    <path
       d="M0 100L79.434 100L79.434 0L0 0L0 100Z"
       id="path_2" />
    <clipPath
       id="mask_1">
      <use
         xlink:href="#path_2"
         id="use4" />
    </clipPath>
  </defs>
  <g
     id="Group-972"
     transform="matrix(1.0029803,0,0,1.0033671,9.9934772,9.7024626)"
     style="stroke-width:0.9968363">
    <g
       id="Fill-1"
       transform="matrix(1.0126091,0,0,1.0000005,0.08785475,0.23199646)"
       style="stroke-width:0.99061036">
      <use
         xlink:href="#path_1"
         id="use11"
         style="fill:#000000;fill-rule:evenodd;stroke:none;stroke-width:0.86347681"
         x="0"
         y="0"
         width="100%"
         height="100%"
         transform="matrix(1.1577125,0,0,1.1368511,-6.9604016,-6.9585401)" />
    </g>
    <g
       id="g18"
       transform="matrix(1.1577125,0,0,1.1368511,-6.9604016,-6.9585401)"
       style="stroke-width:0.86890382">
      <use
         xlink:href="#path_1"
         id="use14"
         style="fill:none;stroke:#000000;stroke-width:5.18086147"
         x="0"
         y="0"
         width="100%"
         height="100%"
         transform="matrix(1.0126091,0,0,1.0000005,7.8177186e-5,0.2040665)" />
      <use
         xlink:href="#path_1"
         id="use16"
         style="fill:#000000;fill-rule:evenodd;stroke:none;stroke-width:0.86347681"
         x="0"
         y="0"
         width="100%"
         height="100%"
         transform="matrix(1.0126091,0,0,1.0000005,7.8177186e-5,0.2040665)" />
    </g>
    <g
       id="Logo-ALV"
       transform="matrix(1.1723102,0,0,1.1368516,-6.9603111,-6.7265469)"
       style="stroke-width:0.86347681">
      <path
         d="M 1.1568,1.15674 V 60.1367 c 0,21.377 17.264,38.706 38.56,38.706 21.297,0 38.561,-17.329 38.561,-38.706 V 1.15674 Z"
         id="path20"
         inkscape:connector-curvature="0"
         style="fill:#0050a0;fill-rule:evenodd;stroke:none;stroke-width:0.86347681" />
      <path
         d="m 1.1568,60.7461 c 0,15.52 9.102,28.905 22.239,35.075 v -19.862 c 0,-9.388 7.308,-16.998 16.321,-16.998 9.015,0 16.322,7.61 16.322,16.998 v 19.862 c 13.137,-6.17 22.239,-19.555 22.239,-35.075 V 49.6191 H 1.1568 Z"
         id="Fill-3"
         inkscape:connector-curvature="0"
         style="fill:#ffffff;fill-rule:evenodd;stroke:none;stroke-width:0.86347681" />
      <path
         d="m 1.34959,49.8118 v 10.935 c 0,7.465 2.131,14.705 6.162,20.939 3.87201,5.986 9.29301,10.764 15.69101,13.83 v -19.556 c 0,-9.479 7.409,-17.191 16.515,-17.191 9.106,0 16.514,7.712 16.514,17.191 v 19.556 c 6.398,-3.067 11.819,-7.844 15.691,-13.831 4.031,-6.233 6.162,-13.473 6.162,-20.939 v -10.934 z m 22.04601,46.202 c -0.028,0 -0.056,-0.006 -0.082,-0.018 -6.583,-3.092 -12.159,-7.968 -16.12601,-14.101 -4.071,-6.296 -6.223997,-13.609 -6.223997,-21.148 v -11.128 c 0,-0.106 0.086997,-0.193 0.192997,-0.193 H 78.2776 c 0.106,0 0.193,0.087 0.193,0.193 v 11.127 c 0,7.54 -2.152,14.853 -6.224,21.149 -3.967,6.133 -9.543,11.009 -16.126,14.101 -0.06,0.028 -0.13,0.023 -0.185,-0.012 -0.056,-0.035 -0.09,-0.097 -0.09,-0.163 v -19.861 c 0,-9.267 -7.235,-16.806 -16.128,-16.806 -8.894,0 -16.129,7.539 -16.129,16.806 v 19.861 c 0,0.066 -0.034,0.128 -0.089,0.163 -0.032,0.02 -0.068,0.03 -0.104,0.03 z"
         id="Fill-5"
         inkscape:connector-curvature="0"
         style="fill:#000000;fill-rule:evenodd;stroke:none;stroke-width:0.86347681" />
      <path
         d="M 78.2776,55.0797 H 1.15659 c -0.106,0 -0.192997,-0.086 -0.192997,-0.193 0,-0.106 0.086997,-0.193 0.192997,-0.193 H 78.2776 c 0.106,0 0.193,0.087 0.193,0.193 0,0.107 -0.087,0.193 -0.193,0.193"
         id="Fill-7"
         inkscape:connector-curvature="0"
         style="fill:#000000;fill-rule:evenodd;stroke:none;stroke-width:0.86347681" />
      <path
         d="m 78.2776,60.3478 h -32.491 c -0.106,0 -0.192,-0.086 -0.192,-0.193 0,-0.106 0.086,-0.193 0.192,-0.193 h 32.491 c 0.106,0 0.193,0.087 0.193,0.193 0,0.107 -0.087,0.193 -0.193,0.193"
         id="Fill-9"
         inkscape:connector-curvature="0"
         style="fill:#000000;fill-rule:evenodd;stroke:none;stroke-width:0.86347681" />
      <path
         d="m 77.999,65.6159 h -25.53 c -0.107,0 -0.193,-0.086 -0.193,-0.193 0,-0.1061 0.086,-0.193 0.193,-0.193 h 25.53 c 0.106,0 0.193,0.0869 0.193,0.193 0,0.107 -0.087,0.193 -0.193,0.193"
         id="Fill-11"
         inkscape:connector-curvature="0"
         style="fill:#000000;fill-rule:evenodd;stroke:none;stroke-width:0.86347681" />
      <path
         d="m 76.9699,70.8844 h -21.733 c -0.107,0 -0.193,-0.086 -0.193,-0.193 0,-0.106 0.086,-0.193 0.193,-0.193 h 21.733 c 0.106,0 0.193,0.087 0.193,0.193 0,0.107 -0.087,0.193 -0.193,0.193"
         id="Fill-13"
         inkscape:connector-curvature="0"
         style="fill:#000000;fill-rule:evenodd;stroke:none;stroke-width:0.86347681" />
      <path
         d="m 75.1868,76.1525 h -19.148 c -0.107,0 -0.193,-0.086 -0.193,-0.193 0,-0.106 0.086,-0.193 0.193,-0.193 h 19.148 c 0.106,0 0.193,0.087 0.193,0.193 0,0.107 -0.087,0.193 -0.193,0.193"
         id="Fill-15"
         inkscape:connector-curvature="0"
         style="fill:#000000;fill-rule:evenodd;stroke:none;stroke-width:0.86347681" />
      <path
         d="m 72.4194,81.4205 h -16.515 c -0.106,0 -0.193,-0.086 -0.193,-0.193 0,-0.106 0.087,-0.193 0.193,-0.193 h 16.515 c 0.106,0 0.193,0.087 0.193,0.193 0,0.107 -0.087,0.193 -0.193,0.193"
         id="Fill-17"
         inkscape:connector-curvature="0"
         style="fill:#000000;fill-rule:evenodd;stroke:none;stroke-width:0.86347681" />
      <path
         d="m 68.4581,86.6886 h -12.458 c -0.107,0 -0.193,-0.086 -0.193,-0.193 0,-0.106 0.086,-0.193 0.193,-0.193 h 12.458 c 0.106,0 0.193,0.087 0.193,0.193 0,0.107 -0.087,0.193 -0.193,0.193"
         id="Fill-19"
         inkscape:connector-curvature="0"
         style="fill:#000000;fill-rule:evenodd;stroke:none;stroke-width:0.86347681" />
      <path
         d="m 62.7283,91.9567 h -6.729 c -0.106,0 -0.192,-0.086 -0.192,-0.193 0,-0.106 0.086,-0.193 0.192,-0.193 h 6.729 c 0.106,0 0.193,0.087 0.193,0.193 0,0.107 -0.087,0.193 -0.193,0.193"
         id="Fill-21"
         inkscape:connector-curvature="0"
         style="fill:#000000;fill-rule:evenodd;stroke:none;stroke-width:0.86347681" />
      <path
         d="M 33.6475,60.3478 H 1.15651 c -0.106,0 -0.192002,-0.086 -0.192002,-0.193 0,-0.106 0.086002,-0.193 0.192002,-0.193 H 33.6475 c 0.107,0 0.193,0.087 0.193,0.193 0,0.107 -0.086,0.193 -0.193,0.193"
         id="Fill-23"
         inkscape:connector-curvature="0"
         style="fill:#000000;fill-rule:evenodd;stroke:none;stroke-width:0.86347681" />
      <path
         d="m 26.9659,65.6159 h -25.52 c -0.107,0 -0.193,-0.086 -0.193,-0.193 0,-0.1061 0.086,-0.193 0.193,-0.193 h 25.52 c 0.107,0 0.193,0.0869 0.193,0.193 0,0.107 -0.086,0.193 -0.193,0.193"
         id="Fill-25"
         inkscape:connector-curvature="0"
         style="fill:#000000;fill-rule:evenodd;stroke:none;stroke-width:0.86347681" />
      <path
         d="M 24.1978,70.8844 H 2.4448 c -0.106,0 -0.193,-0.086 -0.193,-0.193 0,-0.106 0.087,-0.193 0.193,-0.193 h 21.753 c 0.107,0 0.193,0.087 0.193,0.193 0,0.107 -0.086,0.193 -0.193,0.193"
         id="Fill-27"
         inkscape:connector-curvature="0"
         style="fill:#000000;fill-rule:evenodd;stroke:none;stroke-width:0.86347681" />
      <path
         d="M 23.3959,76.1525 H 4.26789 c -0.106,0 -0.193,-0.086 -0.193,-0.193 0,-0.106 0.087,-0.193 0.193,-0.193 H 23.3959 c 0.107,0 0.193,0.087 0.193,0.193 0,0.107 -0.086,0.193 -0.193,0.193"
         id="Fill-29"
         inkscape:connector-curvature="0"
         style="fill:#000000;fill-rule:evenodd;stroke:none;stroke-width:0.86347681" />
      <path
         d="M 23.5298,81.4205 H 7.01081 c -0.107,0 -0.193,-0.086 -0.193,-0.193 0,-0.106 0.086,-0.193 0.193,-0.193 H 23.5298 c 0.107,0 0.193,0.087 0.193,0.193 0,0.107 -0.086,0.193 -0.193,0.193"
         id="Fill-31"
         inkscape:connector-curvature="0"
         style="fill:#000000;fill-rule:evenodd;stroke:none;stroke-width:0.86347681" />
      <path
         d="m 23.4345,86.6886 h -12.502 c -0.107,0 -0.193,-0.086 -0.193,-0.193 0,-0.106 0.086,-0.193 0.193,-0.193 h 12.502 c 0.107,0 0.193,0.087 0.193,0.193 0,0.107 -0.086,0.193 -0.193,0.193"
         id="Fill-33"
         inkscape:connector-curvature="0"
         style="fill:#000000;fill-rule:evenodd;stroke:none;stroke-width:0.86347681" />
      <path
         d="m 23.4345,91.9567 h -6.752 c -0.107,0 -0.193,-0.086 -0.193,-0.193 0,-0.106 0.086,-0.193 0.193,-0.193 h 6.752 c 0.107,0 0.193,0.087 0.193,0.193 0,0.107 -0.086,0.193 -0.193,0.193"
         id="Fill-35"
         inkscape:connector-curvature="0"
         style="fill:#000000;fill-rule:evenodd;stroke:none;stroke-width:0.86347681" />
      <path
         d="m 35.4126,55.0798 c -0.107,0 -0.193,-0.086 -0.193,-0.193 v -5.268 c 0,-0.106 0.086,-0.193 0.193,-0.193 0.107,0 0.193,0.087 0.193,0.193 v 5.268 c 0,0.107 -0.086,0.193 -0.193,0.193"
         id="Fill-37"
         inkscape:connector-curvature="0"
         style="fill:#000000;fill-rule:evenodd;stroke:none;stroke-width:0.86347681" />
      <path
         d="m 26.803,55.0798 c -0.106,0 -0.193,-0.086 -0.193,-0.193 v -5.268 c 0,-0.106 0.087,-0.193 0.193,-0.193 0.107,0 0.193,0.087 0.193,0.193 v 5.268 c 0,0.107 -0.086,0.193 -0.193,0.193"
         id="Fill-39"
         inkscape:connector-curvature="0"
         style="fill:#000000;fill-rule:evenodd;stroke:none;stroke-width:0.86347681" />
      <path
         d="m 18.1934,55.0798 c -0.107,0 -0.193,-0.086 -0.193,-0.193 v -5.268 c 0,-0.106 0.086,-0.193 0.193,-0.193 0.107,0 0.193,0.087 0.193,0.193 v 5.268 c 0,0.107 -0.086,0.193 -0.193,0.193"
         id="Fill-41"
         inkscape:connector-curvature="0"
         style="fill:#000000;fill-rule:evenodd;stroke:none;stroke-width:0.86347681" />
      <path
         d="m 9.58389,55.0798 c -0.107,0 -0.193,-0.086 -0.193,-0.193 v -5.268 c 0,-0.106 0.086,-0.193 0.193,-0.193 0.106,0 0.193,0.087 0.193,0.193 v 5.268 c 0,0.107 -0.087,0.193 -0.193,0.193"
         id="Fill-43"
         inkscape:connector-curvature="0"
         style="fill:#000000;fill-rule:evenodd;stroke:none;stroke-width:0.86347681" />
      <path
         d="m 26.803,65.6159 c -0.106,0 -0.193,-0.086 -0.193,-0.193 v -5.268 c 0,-0.106 0.087,-0.193 0.193,-0.193 0.107,0 0.193,0.087 0.193,0.193 v 5.268 c 0,0.107 -0.086,0.193 -0.193,0.193"
         id="Fill-45"
         inkscape:connector-curvature="0"
         style="fill:#000000;fill-rule:evenodd;stroke:none;stroke-width:0.86347681" />
      <path
         d="m 18.1934,65.6159 c -0.107,0 -0.193,-0.086 -0.193,-0.193 v -5.268 c 0,-0.106 0.086,-0.193 0.193,-0.193 0.107,0 0.193,0.087 0.193,0.193 v 5.268 c 0,0.107 -0.086,0.193 -0.193,0.193"
         id="Fill-47"
         inkscape:connector-curvature="0"
         style="fill:#000000;fill-rule:evenodd;stroke:none;stroke-width:0.86347681" />
      <path
         d="m 9.58389,65.6159 c -0.107,0 -0.193,-0.086 -0.193,-0.193 v -5.268 c 0,-0.106 0.086,-0.193 0.193,-0.193 0.106,0 0.193,0.087 0.193,0.193 v 5.268 c 0,0.107 -0.087,0.193 -0.193,0.193"
         id="Fill-49"
         inkscape:connector-curvature="0"
         style="fill:#000000;fill-rule:evenodd;stroke:none;stroke-width:0.86347681" />
      <path
         d="m 18.1934,76.152 c -0.107,0 -0.193,-0.086 -0.193,-0.193 v -5.268 c 0,-0.106 0.086,-0.193 0.193,-0.193 0.107,0 0.193,0.087 0.193,0.193 v 5.268 c 0,0.107 -0.086,0.193 -0.193,0.193"
         id="Fill-51"
         inkscape:connector-curvature="0"
         style="fill:#000000;fill-rule:evenodd;stroke:none;stroke-width:0.86347681" />
      <path
         d="m 9.58389,76.152 c -0.107,0 -0.193,-0.086 -0.193,-0.193 v -5.268 c 0,-0.106 0.086,-0.193 0.193,-0.193 0.106,0 0.193,0.087 0.193,0.193 v 5.268 c 0,0.107 -0.087,0.193 -0.193,0.193"
         id="Fill-53"
         inkscape:connector-curvature="0"
         style="fill:#000000;fill-rule:evenodd;stroke:none;stroke-width:0.86347681" />
      <path
         d="m 18.1934,86.6882 c -0.107,0 -0.193,-0.086 -0.193,-0.193 v -5.268 c 0,-0.106 0.086,-0.192 0.193,-0.192 0.107,0 0.193,0.086 0.193,0.192 v 5.268 c 0,0.107 -0.086,0.193 -0.193,0.193"
         id="Fill-55"
         inkscape:connector-curvature="0"
         style="fill:#000000;fill-rule:evenodd;stroke:none;stroke-width:0.86347681" />
      <path
         d="m 9.58389,85.0787 c -0.107,0 -0.193,-0.086 -0.193,-0.193 v -3.658 c 0,-0.106 0.086,-0.193 0.193,-0.193 0.106,0 0.193,0.087 0.193,0.193 v 3.658 c 0,0.107 -0.087,0.193 -0.193,0.193"
         id="Fill-57"
         inkscape:connector-curvature="0"
         style="fill:#000000;fill-rule:evenodd;stroke:none;stroke-width:0.86347681" />
      <path
         d="m 18.1934,93.0533 c -0.107,0 -0.193,-0.086 -0.193,-0.193 v -1.096 c 0,-0.107 0.086,-0.193 0.193,-0.193 0.107,0 0.193,0.086 0.193,0.193 v 1.096 c 0,0.107 -0.086,0.193 -0.193,0.193"
         id="Fill-59"
         inkscape:connector-curvature="0"
         style="fill:#000000;fill-rule:evenodd;stroke:none;stroke-width:0.86347681" />
      <path
         d="m 31.1077,60.3478 c -0.107,0 -0.193,-0.086 -0.193,-0.193 v -5.268 c 0,-0.106 0.086,-0.193 0.193,-0.193 0.107,0 0.193,0.087 0.193,0.193 v 5.268 c 0,0.107 -0.086,0.193 -0.193,0.193"
         id="Fill-61"
         inkscape:connector-curvature="0"
         style="fill:#000000;fill-rule:evenodd;stroke:none;stroke-width:0.86347681" />
      <path
         d="m 22.4981,60.3478 c -0.107,0 -0.193,-0.086 -0.193,-0.193 v -5.268 c 0,-0.106 0.086,-0.193 0.193,-0.193 0.107,0 0.193,0.087 0.193,0.193 v 5.268 c 0,0.107 -0.086,0.193 -0.193,0.193"
         id="Fill-63"
         inkscape:connector-curvature="0"
         style="fill:#000000;fill-rule:evenodd;stroke:none;stroke-width:0.86347681" />
      <path
         d="m 13.8886,60.3478 c -0.107,0 -0.193,-0.086 -0.193,-0.193 v -5.268 c 0,-0.106 0.086,-0.193 0.193,-0.193 0.107,0 0.193,0.087 0.193,0.193 v 5.268 c 0,0.107 -0.086,0.193 -0.193,0.193"
         id="Fill-65"
         inkscape:connector-curvature="0"
         style="fill:#000000;fill-rule:evenodd;stroke:none;stroke-width:0.86347681" />
      <path
         d="m 5.2789,60.3478 c -0.107,0 -0.193,-0.086 -0.193,-0.193 v -5.268 c 0,-0.106 0.086,-0.193 0.193,-0.193 0.107,0 0.193,0.087 0.193,0.193 v 5.268 c 0,0.107 -0.086,0.193 -0.193,0.193"
         id="Fill-67"
         inkscape:connector-curvature="0"
         style="fill:#000000;fill-rule:evenodd;stroke:none;stroke-width:0.86347681" />
      <path
         d="m 22.4981,70.8845 c -0.107,0 -0.193,-0.086 -0.193,-0.193 v -5.268 c 0,-0.106 0.086,-0.193 0.193,-0.193 0.107,0 0.193,0.087 0.193,0.193 v 5.268 c 0,0.107 -0.086,0.193 -0.193,0.193"
         id="Fill-69"
         inkscape:connector-curvature="0"
         style="fill:#000000;fill-rule:evenodd;stroke:none;stroke-width:0.86347681" />
      <path
         d="m 13.8886,70.8845 c -0.107,0 -0.193,-0.086 -0.193,-0.193 v -5.268 c 0,-0.106 0.086,-0.193 0.193,-0.193 0.107,0 0.193,0.087 0.193,0.193 v 5.268 c 0,0.107 -0.086,0.193 -0.193,0.193"
         id="Fill-71"
         inkscape:connector-curvature="0"
         style="fill:#000000;fill-rule:evenodd;stroke:none;stroke-width:0.86347681" />
      <path
         d="m 5.2789,70.8845 c -0.107,0 -0.193,-0.086 -0.193,-0.193 v -5.268 c 0,-0.106 0.086,-0.193 0.193,-0.193 0.107,0 0.193,0.087 0.193,0.193 v 5.268 c 0,0.107 -0.086,0.193 -0.193,0.193"
         id="Fill-73"
         inkscape:connector-curvature="0"
         style="fill:#000000;fill-rule:evenodd;stroke:none;stroke-width:0.86347681" />
      <path
         d="m 13.8886,81.4206 c -0.107,0 -0.193,-0.086 -0.193,-0.193 v -5.268 c 0,-0.107 0.086,-0.193 0.193,-0.193 0.107,0 0.193,0.086 0.193,0.193 v 5.268 c 0,0.107 -0.086,0.193 -0.193,0.193"
         id="Fill-75"
         inkscape:connector-curvature="0"
         style="fill:#000000;fill-rule:evenodd;stroke:none;stroke-width:0.86347681" />
      <path
         d="m 5.2789,78.3506 c -0.107,0 -0.193,-0.086 -0.193,-0.193 v -2.198 c 0,-0.107 0.086,-0.193 0.193,-0.193 0.107,0 0.193,0.086 0.193,0.193 v 2.198 c 0,0.107 -0.086,0.193 -0.193,0.193"
         id="Fill-77"
         inkscape:connector-curvature="0"
         style="fill:#000000;fill-rule:evenodd;stroke:none;stroke-width:0.86347681" />
      <path
         d="m 13.8886,89.6617 c -0.107,0 -0.193,-0.086 -0.193,-0.193 v -2.973 c 0,-0.107 0.086,-0.193 0.193,-0.193 0.107,0 0.193,0.086 0.193,0.193 v 2.973 c 0,0.107 -0.086,0.193 -0.193,0.193"
         id="Fill-79"
         inkscape:connector-curvature="0"
         style="fill:#000000;fill-rule:evenodd;stroke:none;stroke-width:0.86347681" />
      <path
         d="m 44.022,55.0798 c -0.106,0 -0.193,-0.086 -0.193,-0.193 v -5.268 c 0,-0.106 0.087,-0.193 0.193,-0.193 0.106,0 0.193,0.087 0.193,0.193 v 5.268 c 0,0.107 -0.087,0.193 -0.193,0.193"
         id="Fill-81"
         inkscape:connector-curvature="0"
         style="fill:#000000;fill-rule:evenodd;stroke:none;stroke-width:0.86347681" />
      <path
         d="m 52.6314,55.0798 c -0.106,0 -0.193,-0.086 -0.193,-0.193 v -5.268 c 0,-0.106 0.087,-0.193 0.193,-0.193 0.106,0 0.193,0.087 0.193,0.193 v 5.268 c 0,0.107 -0.087,0.193 -0.193,0.193"
         id="Fill-83"
         inkscape:connector-curvature="0"
         style="fill:#000000;fill-rule:evenodd;stroke:none;stroke-width:0.86347681" />
      <path
         d="m 61.2411,55.0798 c -0.106,0 -0.193,-0.086 -0.193,-0.193 v -5.268 c 0,-0.106 0.087,-0.193 0.193,-0.193 0.106,0 0.193,0.087 0.193,0.193 v 5.268 c 0,0.107 -0.087,0.193 -0.193,0.193"
         id="Fill-85"
         inkscape:connector-curvature="0"
         style="fill:#000000;fill-rule:evenodd;stroke:none;stroke-width:0.86347681" />
      <path
         d="m 69.8507,55.0798 c -0.106,0 -0.193,-0.086 -0.193,-0.193 v -5.268 c 0,-0.106 0.087,-0.193 0.193,-0.193 0.106,0 0.193,0.087 0.193,0.193 v 5.268 c 0,0.107 -0.087,0.193 -0.193,0.193"
         id="Fill-87"
         inkscape:connector-curvature="0"
         style="fill:#000000;fill-rule:evenodd;stroke:none;stroke-width:0.86347681" />
      <path
         d="m 52.6314,65.6159 c -0.106,0 -0.193,-0.086 -0.193,-0.193 v -5.268 c 0,-0.106 0.087,-0.193 0.193,-0.193 0.106,0 0.193,0.087 0.193,0.193 v 5.268 c 0,0.107 -0.087,0.193 -0.193,0.193"
         id="Fill-89"
         inkscape:connector-curvature="0"
         style="fill:#000000;fill-rule:evenodd;stroke:none;stroke-width:0.86347681" />
      <path
         d="m 61.2411,65.6159 c -0.106,0 -0.193,-0.086 -0.193,-0.193 v -5.268 c 0,-0.106 0.087,-0.193 0.193,-0.193 0.106,0 0.193,0.087 0.193,0.193 v 5.268 c 0,0.107 -0.087,0.193 -0.193,0.193"
         id="Fill-91"
         inkscape:connector-curvature="0"
         style="fill:#000000;fill-rule:evenodd;stroke:none;stroke-width:0.86347681" />
      <path
         d="m 69.8507,65.6159 c -0.106,0 -0.193,-0.086 -0.193,-0.193 v -5.268 c 0,-0.106 0.087,-0.193 0.193,-0.193 0.106,0 0.193,0.087 0.193,0.193 v 5.268 c 0,0.107 -0.087,0.193 -0.193,0.193"
         id="Fill-93"
         inkscape:connector-curvature="0"
         style="fill:#000000;fill-rule:evenodd;stroke:none;stroke-width:0.86347681" />
      <path
         d="m 61.2411,76.152 c -0.106,0 -0.193,-0.086 -0.193,-0.193 v -5.268 c 0,-0.106 0.087,-0.193 0.193,-0.193 0.106,0 0.193,0.087 0.193,0.193 v 5.268 c 0,0.107 -0.087,0.193 -0.193,0.193"
         id="Fill-95"
         inkscape:connector-curvature="0"
         style="fill:#000000;fill-rule:evenodd;stroke:none;stroke-width:0.86347681" />
      <path
         d="m 69.8507,76.152 c -0.106,0 -0.193,-0.086 -0.193,-0.193 v -5.268 c 0,-0.106 0.087,-0.193 0.193,-0.193 0.106,0 0.193,0.087 0.193,0.193 v 5.268 c 0,0.107 -0.087,0.193 -0.193,0.193"
         id="Fill-97"
         inkscape:connector-curvature="0"
         style="fill:#000000;fill-rule:evenodd;stroke:none;stroke-width:0.86347681" />
      <path
         d="m 61.2411,86.6882 c -0.106,0 -0.193,-0.086 -0.193,-0.193 v -5.268 c 0,-0.106 0.087,-0.192 0.193,-0.192 0.106,0 0.193,0.086 0.193,0.192 v 5.268 c 0,0.107 -0.087,0.193 -0.193,0.193"
         id="Fill-99"
         inkscape:connector-curvature="0"
         style="fill:#000000;fill-rule:evenodd;stroke:none;stroke-width:0.86347681" />
      <path
         d="m 69.8507,85.0572 c -0.106,0 -0.193,-0.086 -0.193,-0.193 v -3.636 c 0,-0.107 0.087,-0.193 0.193,-0.193 0.106,0 0.193,0.086 0.193,0.193 v 3.636 c 0,0.107 -0.087,0.193 -0.193,0.193"
         id="Fill-101"
         inkscape:connector-curvature="0"
         style="fill:#000000;fill-rule:evenodd;stroke:none;stroke-width:0.86347681" />
      <path
         d="m 61.2411,93.0533 c -0.106,0 -0.193,-0.086 -0.193,-0.193 v -1.096 c 0,-0.107 0.087,-0.193 0.193,-0.193 0.106,0 0.193,0.086 0.193,0.193 v 1.096 c 0,0.107 -0.087,0.193 -0.193,0.193"
         id="Fill-103"
         inkscape:connector-curvature="0"
         style="fill:#000000;fill-rule:evenodd;stroke:none;stroke-width:0.86347681" />
      <path
         d="m 48.3266,60.3478 c -0.106,0 -0.193,-0.086 -0.193,-0.193 v -5.268 c 0,-0.106 0.087,-0.193 0.193,-0.193 0.106,0 0.193,0.087 0.193,0.193 v 5.268 c 0,0.107 -0.087,0.193 -0.193,0.193"
         id="Fill-105"
         inkscape:connector-curvature="0"
         style="fill:#000000;fill-rule:evenodd;stroke:none;stroke-width:0.86347681" />
      <path
         d="m 56.9363,60.3478 c -0.106,0 -0.193,-0.086 -0.193,-0.193 v -5.268 c 0,-0.106 0.087,-0.193 0.193,-0.193 0.106,0 0.193,0.087 0.193,0.193 v 5.268 c 0,0.107 -0.087,0.193 -0.193,0.193"
         id="Fill-107"
         inkscape:connector-curvature="0"
         style="fill:#000000;fill-rule:evenodd;stroke:none;stroke-width:0.86347681" />
      <path
         d="m 65.5458,60.3478 c -0.106,0 -0.193,-0.086 -0.193,-0.193 v -5.268 c 0,-0.106 0.087,-0.193 0.193,-0.193 0.106,0 0.193,0.087 0.193,0.193 v 5.268 c 0,0.107 -0.087,0.193 -0.193,0.193"
         id="Fill-109"
         inkscape:connector-curvature="0"
         style="fill:#000000;fill-rule:evenodd;stroke:none;stroke-width:0.86347681" />
      <path
         d="m 74.1555,60.3478 c -0.106,0 -0.193,-0.086 -0.193,-0.193 v -5.268 c 0,-0.106 0.087,-0.193 0.193,-0.193 0.106,0 0.193,0.087 0.193,0.193 v 5.268 c 0,0.107 -0.087,0.193 -0.193,0.193"
         id="Fill-111"
         inkscape:connector-curvature="0"
         style="fill:#000000;fill-rule:evenodd;stroke:none;stroke-width:0.86347681" />
      <path
         d="m 56.9363,70.8845 c -0.106,0 -0.193,-0.086 -0.193,-0.193 v -5.268 c 0,-0.106 0.087,-0.193 0.193,-0.193 0.106,0 0.193,0.087 0.193,0.193 v 5.268 c 0,0.107 -0.087,0.193 -0.193,0.193"
         id="Fill-113"
         inkscape:connector-curvature="0"
         style="fill:#000000;fill-rule:evenodd;stroke:none;stroke-width:0.86347681" />
      <path
         d="m 65.5458,70.8845 c -0.106,0 -0.193,-0.086 -0.193,-0.193 v -5.268 c 0,-0.106 0.087,-0.193 0.193,-0.193 0.106,0 0.193,0.087 0.193,0.193 v 5.268 c 0,0.107 -0.087,0.193 -0.193,0.193"
         id="Fill-115"
         inkscape:connector-curvature="0"
         style="fill:#000000;fill-rule:evenodd;stroke:none;stroke-width:0.86347681" />
      <path
         d="m 74.1555,70.8845 c -0.106,0 -0.193,-0.086 -0.193,-0.193 v -5.268 c 0,-0.106 0.087,-0.193 0.193,-0.193 0.106,0 0.193,0.087 0.193,0.193 v 5.268 c 0,0.107 -0.087,0.193 -0.193,0.193"
         id="Fill-117"
         inkscape:connector-curvature="0"
         style="fill:#000000;fill-rule:evenodd;stroke:none;stroke-width:0.86347681" />
      <path
         d="m 65.5458,81.4206 c -0.106,0 -0.193,-0.086 -0.193,-0.193 v -5.268 c 0,-0.107 0.087,-0.193 0.193,-0.193 0.106,0 0.193,0.086 0.193,0.193 v 5.268 c 0,0.107 -0.087,0.193 -0.193,0.193"
         id="Fill-119"
         inkscape:connector-curvature="0"
         style="fill:#000000;fill-rule:evenodd;stroke:none;stroke-width:0.86347681" />
      <path
         d="m 74.1555,78.3596 c -0.106,0 -0.193,-0.086 -0.193,-0.193 v -2.207 c 0,-0.106 0.087,-0.193 0.193,-0.193 0.106,0 0.193,0.087 0.193,0.193 v 2.207 c 0,0.107 -0.087,0.193 -0.193,0.193"
         id="Fill-121"
         inkscape:connector-curvature="0"
         style="fill:#000000;fill-rule:evenodd;stroke:none;stroke-width:0.86347681" />
      <path
         d="m 65.5458,89.6777 c -0.106,0 -0.193,-0.086 -0.193,-0.193 v -2.989 c 0,-0.106 0.087,-0.193 0.193,-0.193 0.106,0 0.193,0.087 0.193,0.193 v 2.989 c 0,0.107 -0.087,0.193 -0.193,0.193"
         id="Fill-123"
         inkscape:connector-curvature="0"
         style="fill:#000000;fill-rule:evenodd;stroke:none;stroke-width:0.86347681" />
      <path
         d="m 39.7172,56.6729 c -10.171,0 -18.416,8.7009 -18.416,19.4339 v 18.654 c 1.517,0.829 3.096,1.557 4.728,2.179 v -20.833 c 0,-8.014 6.128,-14.5099 13.688,-14.5099 7.56,0 13.688,6.4959 13.688,14.5099 v 20.833 c 1.632,-0.622 3.211,-1.35 4.728,-2.179 v -18.654 c 0,-10.733 -8.245,-19.4339 -18.416,-19.4339"
         id="Fill-125"
         inkscape:connector-curvature="0"
         style="fill:#ffffff;fill-rule:evenodd;stroke:none;stroke-width:0.86347681" />
      <path
         d="m 39.7177,61.404 c 7.654,0 13.881,6.595 13.881,14.702 v 20.552 c 1.492,-0.581 2.951,-1.257 4.342,-2.012 v -18.54 c 0,-10.609 -8.175,-19.241 -18.223,-19.241 -10.049,0 -18.224,8.632 -18.224,19.241 v 18.54 c 1.391,0.755 2.85,1.431 4.342,2.012 V 76.106 c 0,-8.107 6.227,-14.702 13.882,-14.702 z m 13.688,35.728 c -0.039,0 -0.077,-0.011 -0.109,-0.034 -0.053,-0.036 -0.084,-0.095 -0.084,-0.159 V 76.106 c 0,-7.894 -6.054,-14.317 -13.495,-14.317 -7.442,0 -13.496,6.423 -13.496,14.317 v 20.833 c 0,0.064 -0.031,0.123 -0.084,0.159 -0.052,0.036 -0.118,0.044 -0.178,0.021 -1.635,-0.623 -3.234,-1.36 -4.751,-2.19 -0.062,-0.034 -0.101,-0.098 -0.101,-0.169 V 76.106 c 0,-10.822 8.348,-19.626 18.61,-19.626 10.261,0 18.609,8.804 18.609,19.626 V 94.76 c 0,0.071 -0.039,0.135 -0.1,0.169 -1.518,0.83 -3.117,1.567 -4.752,2.19 -0.023,0.009 -0.046,0.013 -0.069,0.013 z"
         id="Fill-127"
         inkscape:connector-curvature="0"
         style="fill:#000000;fill-rule:evenodd;stroke:none;stroke-width:0.86347681" />
      <path
         d="m 26.0288,86.6886 h -4.728 c -0.106,0 -0.193,-0.086 -0.193,-0.193 0,-0.106 0.087,-0.193 0.193,-0.193 h 4.728 c 0.107,0 0.193,0.087 0.193,0.193 0,0.107 -0.086,0.193 -0.193,0.193"
         id="Fill-129"
         inkscape:connector-curvature="0"
         style="fill:#000000;fill-rule:evenodd;stroke:none;stroke-width:0.86347681" />
      <path
         d="m 26.0288,91.9567 h -4.728 c -0.106,0 -0.193,-0.086 -0.193,-0.193 0,-0.106 0.087,-0.193 0.193,-0.193 h 4.728 c 0.107,0 0.193,0.087 0.193,0.193 0,0.107 -0.086,0.193 -0.193,0.193"
         id="Fill-131"
         inkscape:connector-curvature="0"
         style="fill:#000000;fill-rule:evenodd;stroke:none;stroke-width:0.86347681" />
      <path
         d="m 58.1337,86.6886 h -4.728 c -0.106,0 -0.193,-0.086 -0.193,-0.193 0,-0.106 0.087,-0.193 0.193,-0.193 h 4.728 c 0.106,0 0.193,0.087 0.193,0.193 0,0.107 -0.087,0.193 -0.193,0.193"
         id="Fill-133"
         inkscape:connector-curvature="0"
         style="fill:#000000;fill-rule:evenodd;stroke:none;stroke-width:0.86347681" />
      <path
         d="m 58.1337,91.9567 h -4.728 c -0.106,0 -0.193,-0.086 -0.193,-0.193 0,-0.106 0.087,-0.193 0.193,-0.193 h 4.728 c 0.106,0 0.193,0.087 0.193,0.193 0,0.107 -0.087,0.193 -0.193,0.193"
         id="Fill-135"
         inkscape:connector-curvature="0"
         style="fill:#000000;fill-rule:evenodd;stroke:none;stroke-width:0.86347681" />
      <path
         d="m 26.3147,73.3321 c -0.014,0 -0.028,-0.002 -0.042,-0.005 l -4.611,-1.02 c -0.104,-0.023 -0.17,-0.126 -0.147,-0.23 0.023,-0.104 0.126,-0.169 0.23,-0.147 l 4.611,1.021 c 0.104,0.023 0.17,0.126 0.147,0.23 -0.02,0.09 -0.1,0.151 -0.188,0.151"
         id="Fill-137"
         inkscape:connector-curvature="0"
         style="fill:#000000;fill-rule:evenodd;stroke:none;stroke-width:0.86347681" />
      <path
         d="m 27.3956,69.9697 c -0.03,0 -0.06,-0.007 -0.088,-0.021 l -4.241,-2.179 c -0.095,-0.048 -0.132,-0.165 -0.083,-0.259 0.048,-0.095 0.165,-0.133 0.259,-0.084 l 4.241,2.179 c 0.095,0.048 0.132,0.165 0.084,0.259 -0.035,0.067 -0.102,0.105 -0.172,0.105"
         id="Fill-139"
         inkscape:connector-curvature="0"
         style="fill:#000000;fill-rule:evenodd;stroke:none;stroke-width:0.86347681" />
      <path
         d="m 29.1718,67.0464 c -0.045,0 -0.091,-0.016 -0.127,-0.048 l -3.616,-3.172 c -0.08,-0.071 -0.088,-0.192 -0.018,-0.273 0.07,-0.08 0.192,-0.087 0.272,-0.017 l 3.616,3.172 c 0.08,0.071 0.088,0.192 0.018,0.272 -0.038,0.044 -0.091,0.066 -0.145,0.066"
         id="Fill-141"
         inkscape:connector-curvature="0"
         style="fill:#000000;fill-rule:evenodd;stroke:none;stroke-width:0.86347681" />
      <path
         d="m 31.5439,64.6597 c -0.061,0 -0.12,-0.029 -0.158,-0.082 l -2.792,-3.975 c -0.061,-0.087 -0.04,-0.208 0.047,-0.269 0.087,-0.061 0.207,-0.04 0.269,0.047 l 2.792,3.975 c 0.061,0.087 0.04,0.208 -0.047,0.269 -0.034,0.024 -0.073,0.035 -0.111,0.035"
         id="Fill-143"
         inkscape:connector-curvature="0"
         style="fill:#000000;fill-rule:evenodd;stroke:none;stroke-width:0.86347681" />
      <path
         d="m 34.5039,62.879 c -0.077,0 -0.15,-0.047 -0.18,-0.123 l -1.774,-4.566 c -0.038,-0.1 0.011,-0.212 0.11,-0.25 0.1,-0.039 0.211,0.011 0.25,0.11 l 1.774,4.566 c 0.038,0.1 -0.011,0.211 -0.11,0.25 -0.023,0.009 -0.047,0.013 -0.07,0.013"
         id="Fill-145"
         inkscape:connector-curvature="0"
         style="fill:#000000;fill-rule:evenodd;stroke:none;stroke-width:0.86347681" />
      <path
         d="m 53.1198,73.3321 c -0.089,0 -0.168,-0.061 -0.188,-0.151 -0.023,-0.104 0.043,-0.207 0.146,-0.23 l 4.612,-1.021 c 0.105,-0.022 0.207,0.043 0.23,0.147 0.023,0.104 -0.043,0.207 -0.147,0.23 l -4.611,1.02 c -0.014,0.003 -0.028,0.005 -0.042,0.005"
         id="Fill-147"
         inkscape:connector-curvature="0"
         style="fill:#000000;fill-rule:evenodd;stroke:none;stroke-width:0.86347681" />
      <path
         d="m 52.0387,69.9697 c -0.07,0 -0.137,-0.038 -0.172,-0.105 -0.048,-0.094 -0.011,-0.211 0.084,-0.259 l 4.241,-2.179 c 0.095,-0.049 0.211,-0.011 0.259,0.084 0.049,0.094 0.012,0.211 -0.083,0.259 l -4.241,2.179 c -0.028,0.014 -0.058,0.021 -0.088,0.021"
         id="Fill-149"
         inkscape:connector-curvature="0"
         style="fill:#000000;fill-rule:evenodd;stroke:none;stroke-width:0.86347681" />
      <path
         d="m 50.2627,67.047 c -0.054,0 -0.107,-0.022 -0.145,-0.066 -0.07,-0.08 -0.062,-0.201 0.018,-0.272 l 3.616,-3.172 c 0.08,-0.07 0.201,-0.062 0.272,0.017 0.07,0.081 0.062,0.202 -0.018,0.273 l -3.616,3.172 c -0.037,0.032 -0.082,0.048 -0.127,0.048"
         id="Fill-151"
         inkscape:connector-curvature="0"
         style="fill:#000000;fill-rule:evenodd;stroke:none;stroke-width:0.86347681" />
      <path
         d="m 47.8905,64.6597 c -0.038,0 -0.077,-0.011 -0.111,-0.035 -0.087,-0.061 -0.108,-0.182 -0.047,-0.269 l 2.792,-3.975 c 0.062,-0.087 0.182,-0.108 0.269,-0.047 0.087,0.061 0.108,0.182 0.047,0.269 l -2.792,3.975 c -0.038,0.053 -0.097,0.082 -0.158,0.082"
         id="Fill-153"
         inkscape:connector-curvature="0"
         style="fill:#000000;fill-rule:evenodd;stroke:none;stroke-width:0.86347681" />
      <path
         d="m 44.9306,62.879 c -0.023,0 -0.047,-0.004 -0.07,-0.013 -0.099,-0.039 -0.148,-0.15 -0.11,-0.25 l 1.774,-4.566 c 0.038,-0.099 0.15,-0.149 0.25,-0.11 0.099,0.038 0.148,0.15 0.11,0.25 l -1.774,4.566 c -0.03,0.076 -0.103,0.123 -0.18,0.123"
         id="Fill-155"
         inkscape:connector-curvature="0"
         style="fill:#000000;fill-rule:evenodd;stroke:none;stroke-width:0.86347681" />
      <path
         d="m 37.8485,61.7312 v 10e-4 c 0.611,-0.089 1.235,-0.136 1.869,-0.136 0.634,0 1.257,0.047 1.868,0.136 l 10e-4,-10e-4 0.889,-6.844 h -5.517 z m 14.316,19.497 h 6.808 v -5.268 h -6.808 z m -31.703,0 h 6.808 v -5.268 h -6.808 z"
         id="Fill-157"
         inkscape:connector-curvature="0"
         style="fill:#ffffff;fill-rule:evenodd;stroke:none;stroke-width:0.86347681" />
      <path
         d="m 39.7172,61.4038 c 0.563,0 1.135,0.037 1.703,0.111 l 0.836,-6.435 h -5.078 l 0.836,6.435 c 0.568,-0.074 1.14,-0.111 1.703,-0.111 z m -1.869,0.521 c -0.087,0 -0.165,-0.06 -0.187,-0.146 -10e-4,-0.008 -0.003,-0.015 -0.004,-0.023 l -0.89,-6.844 c -0.007,-0.055 0.01,-0.11 0.047,-0.152 0.036,-0.042 0.089,-0.065 0.144,-0.065 h 5.517 c 0.056,0 0.109,0.023 0.145,0.065 0.037,0.042 0.054,0.097 0.047,0.152 l -0.89,6.844 c -0.003,0.022 -0.009,0.042 -0.019,0.062 -0.037,0.074 -0.119,0.117 -0.2,0.105 -1.225,-0.177 -2.457,-0.177 -3.682,0 -0.009,10e-4 -0.019,0.002 -0.028,0.002 z m 14.509,19.11 h 6.423 v -4.882 h -6.423 z m 6.616,0.386 h -6.809 c -0.106,0 -0.193,-0.087 -0.193,-0.193 v -5.268 c 0,-0.107 0.087,-0.193 0.193,-0.193 h 6.809 c 0.106,0 0.192,0.086 0.192,0.193 v 5.268 c 0,0.106 -0.086,0.193 -0.192,0.193 z m -38.319,-0.386 h 6.423 v -4.882 h -6.423 z m 6.616,0.386 h -6.809 c -0.106,0 -0.192,-0.087 -0.192,-0.193 v -5.268 c 0,-0.107 0.086,-0.193 0.192,-0.193 h 6.809 c 0.106,0 0.193,0.086 0.193,0.193 v 5.268 c 0,0.106 -0.087,0.193 -0.193,0.193 z"
         id="Fill-159"
         inkscape:connector-curvature="0"
         style="fill:#000000;fill-rule:evenodd;stroke:none;stroke-width:0.86347681" />
      <path
         d="M 0,100 H 79.434 V 0 H 0 Z"
         id="Clip-162"
         inkscape:connector-curvature="0"
         style="fill:none;fill-rule:evenodd;stroke:none;stroke-width:0.86347681" />
      <g
         clip-path="url(#mask_1)"
         id="g166"
         style="stroke-width:0.86347681">
        <path
           d="M 1.15701,49.6193 H 78.278 V 42.0312 H 1.15701 Z"
           id="Fill-161"
           inkscape:connector-curvature="0"
           style="fill:#ffffff;fill-rule:evenodd;stroke:none;stroke-width:0.86347681" />
        <path
           d="M 1.35002,49.4259 H 78.085 v -7.202 H 1.35002 Z M 78.278,49.8119 H 1.15702 c -0.107,0 -0.193,-0.087 -0.193,-0.193 v -7.588 c 0,-0.106 0.086,-0.193 0.193,-0.193 H 78.278 c 0.106,0 0.192,0.087 0.192,0.193 v 7.588 c 0,0.106 -0.086,0.193 -0.192,0.193 z"
           id="Fill-163"
           inkscape:connector-curvature="0"
           style="fill:#000000;fill-rule:evenodd;stroke:none;stroke-width:0.86347681" />
        <path
           d="M 78.2776,48.2282 H 1.15659 c -0.106,0 -0.192997,-0.086 -0.192997,-0.193 0,-0.106 0.086997,-0.193 0.192997,-0.193 H 78.2776 c 0.106,0 0.193,0.087 0.193,0.193 0,0.107 -0.087,0.193 -0.193,0.193"
           id="Fill-164"
           inkscape:connector-curvature="0"
           style="fill:#000000;fill-rule:evenodd;stroke:none;stroke-width:0.86347681" />
        <path
           d="M 78.2776,44.1818 H 1.15659 c -0.106,0 -0.192997,-0.086 -0.192997,-0.193 0,-0.106 0.086997,-0.193 0.192997,-0.193 H 78.2776 c 0.106,0 0.193,0.087 0.193,0.193 0,0.107 -0.087,0.193 -0.193,0.193"
           id="Fill-165"
           inkscape:connector-curvature="0"
           style="fill:#000000;fill-rule:evenodd;stroke:none;stroke-width:0.86347681" />
        <path
           d="m 5.2789,49.8119 c -0.107,0 -0.193,-0.086 -0.193,-0.193 v -7.588 c 0,-0.106 0.086,-0.193 0.193,-0.193 0.107,0 0.193,0.087 0.193,0.193 v 7.588 c 0,0.107 -0.086,0.193 -0.193,0.193"
           id="Fill-166"
           inkscape:connector-curvature="0"
           style="fill:#000000;fill-rule:evenodd;stroke:none;stroke-width:0.86347681" />
        <path
           d="m 13.8886,49.8119 c -0.107,0 -0.193,-0.086 -0.193,-0.193 v -7.588 c 0,-0.106 0.086,-0.193 0.193,-0.193 0.107,0 0.193,0.087 0.193,0.193 v 7.588 c 0,0.107 -0.086,0.193 -0.193,0.193"
           id="Fill-167"
           inkscape:connector-curvature="0"
           style="fill:#000000;fill-rule:evenodd;stroke:none;stroke-width:0.86347681" />
        <path
           d="m 22.4981,49.8119 c -0.107,0 -0.193,-0.086 -0.193,-0.193 v -7.588 c 0,-0.106 0.086,-0.193 0.193,-0.193 0.107,0 0.193,0.087 0.193,0.193 v 7.588 c 0,0.107 -0.086,0.193 -0.193,0.193"
           id="Fill-168"
           inkscape:connector-curvature="0"
           style="fill:#000000;fill-rule:evenodd;stroke:none;stroke-width:0.86347681" />
        <path
           d="m 31.1077,49.8119 c -0.107,0 -0.193,-0.086 -0.193,-0.193 v -7.588 c 0,-0.106 0.086,-0.193 0.193,-0.193 0.107,0 0.193,0.087 0.193,0.193 v 7.588 c 0,0.107 -0.086,0.193 -0.193,0.193"
           id="Fill-169"
           inkscape:connector-curvature="0"
           style="fill:#000000;fill-rule:evenodd;stroke:none;stroke-width:0.86347681" />
        <path
           d="m 39.7172,49.8119 c -0.107,0 -0.193,-0.086 -0.193,-0.193 v -7.588 c 0,-0.106 0.086,-0.193 0.193,-0.193 0.107,0 0.193,0.087 0.193,0.193 v 7.588 c 0,0.107 -0.086,0.193 -0.193,0.193"
           id="Fill-170"
           inkscape:connector-curvature="0"
           style="fill:#000000;fill-rule:evenodd;stroke:none;stroke-width:0.86347681" />
        <path
           d="m 48.3266,49.8119 c -0.106,0 -0.193,-0.086 -0.193,-0.193 v -7.588 c 0,-0.106 0.087,-0.193 0.193,-0.193 0.106,0 0.193,0.087 0.193,0.193 v 7.588 c 0,0.107 -0.087,0.193 -0.193,0.193"
           id="Fill-171"
           inkscape:connector-curvature="0"
           style="fill:#000000;fill-rule:evenodd;stroke:none;stroke-width:0.86347681" />
        <path
           d="m 56.9363,49.8119 c -0.106,0 -0.193,-0.086 -0.193,-0.193 v -7.588 c 0,-0.106 0.087,-0.193 0.193,-0.193 0.106,0 0.193,0.087 0.193,0.193 v 7.588 c 0,0.107 -0.087,0.193 -0.193,0.193"
           id="Fill-172"
           inkscape:connector-curvature="0"
           style="fill:#000000;fill-rule:evenodd;stroke:none;stroke-width:0.86347681" />
        <path
           d="m 65.5458,49.8119 c -0.106,0 -0.193,-0.086 -0.193,-0.193 v -7.588 c 0,-0.106 0.087,-0.193 0.193,-0.193 0.106,0 0.193,0.087 0.193,0.193 v 7.588 c 0,0.107 -0.087,0.193 -0.193,0.193"
           id="Fill-173"
           inkscape:connector-curvature="0"
           style="fill:#000000;fill-rule:evenodd;stroke:none;stroke-width:0.86347681" />
        <path
           d="m 74.1555,49.8119 c -0.106,0 -0.193,-0.086 -0.193,-0.193 v -7.588 c 0,-0.106 0.087,-0.193 0.193,-0.193 0.106,0 0.193,0.087 0.193,0.193 v 7.588 c 0,0.107 -0.087,0.193 -0.193,0.193"
           id="Fill-174"
           inkscape:connector-curvature="0"
           style="fill:#000000;fill-rule:evenodd;stroke:none;stroke-width:0.86347681" />
        <path
           d="M 1.15701,42.031 H 18.194 V 20.959 H 1.15701 Z"
           id="Fill-175"
           inkscape:connector-curvature="0"
           style="fill:#ffffff;fill-rule:evenodd;stroke:none;stroke-width:0.86347681" />
        <path
           d="M 1.35002,41.8381 H 18.001 V 21.1511 H 1.35002 Z M 18.193,42.2241 H 1.15702 c -0.107,0 -0.193,-0.087 -0.193,-0.193 v -21.072 c 0,-0.107 0.086,-0.193 0.193,-0.193 H 18.193 c 0.107,0 0.193,0.086 0.193,0.193 v 21.072 c 0,0.106 -0.086,0.193 -0.193,0.193 z"
           id="Fill-176"
           inkscape:connector-curvature="0"
           style="fill:#000000;fill-rule:evenodd;stroke:none;stroke-width:0.86347681" />
        <path
           d="M 18.1934,26.4196 H 1.15639 c -0.106,0 -0.192004,-0.086 -0.192004,-0.193 0,-0.106 0.086004,-0.193 0.192004,-0.193 H 18.1934 c 0.107,0 0.193,0.087 0.193,0.193 0,0.107 -0.086,0.193 -0.193,0.193"
           id="Fill-177"
           inkscape:connector-curvature="0"
           style="fill:#000000;fill-rule:evenodd;stroke:none;stroke-width:0.86347681" />
        <path
           d="M 18.1934,31.6871 H 1.15639 c -0.106,0 -0.192004,-0.086 -0.192004,-0.193 0,-0.106 0.086004,-0.193 0.192004,-0.193 H 18.1934 c 0.107,0 0.193,0.087 0.193,0.193 0,0.107 -0.086,0.193 -0.193,0.193"
           id="Fill-178"
           inkscape:connector-curvature="0"
           style="fill:#000000;fill-rule:evenodd;stroke:none;stroke-width:0.86347681" />
        <path
           d="M 18.1934,36.9557 H 1.15639 c -0.106,0 -0.192004,-0.086 -0.192004,-0.193 0,-0.106 0.086004,-0.193 0.192004,-0.193 H 18.1934 c 0.107,0 0.193,0.087 0.193,0.193 0,0.107 -0.086,0.193 -0.193,0.193"
           id="Fill-179"
           inkscape:connector-curvature="0"
           style="fill:#000000;fill-rule:evenodd;stroke:none;stroke-width:0.86347681" />
        <path
           d="m 13.8886,42.2238 c -0.107,0 -0.193,-0.086 -0.193,-0.193 v -5.268 c 0,-0.106 0.086,-0.193 0.193,-0.193 0.107,0 0.193,0.087 0.193,0.193 v 5.268 c 0,0.107 -0.086,0.193 -0.193,0.193"
           id="Fill-180"
           inkscape:connector-curvature="0"
           style="fill:#000000;fill-rule:evenodd;stroke:none;stroke-width:0.86347681" />
        <path
           d="m 5.2789,42.2238 c -0.107,0 -0.193,-0.086 -0.193,-0.193 v -5.268 c 0,-0.106 0.086,-0.193 0.193,-0.193 0.107,0 0.193,0.087 0.193,0.193 v 5.268 c 0,0.107 -0.086,0.193 -0.193,0.193"
           id="Fill-181"
           inkscape:connector-curvature="0"
           style="fill:#000000;fill-rule:evenodd;stroke:none;stroke-width:0.86347681" />
        <path
           d="m 9.58389,36.9558 c -0.107,0 -0.193,-0.086 -0.193,-0.193 v -5.268 c 0,-0.107 0.086,-0.193 0.193,-0.193 0.106,0 0.193,0.086 0.193,0.193 v 5.268 c 0,0.107 -0.087,0.193 -0.193,0.193"
           id="Fill-182"
           inkscape:connector-curvature="0"
           style="fill:#000000;fill-rule:evenodd;stroke:none;stroke-width:0.86347681" />
        <path
           d="m 13.8886,31.6872 c -0.107,0 -0.193,-0.086 -0.193,-0.193 v -5.268 c 0,-0.106 0.086,-0.193 0.193,-0.193 0.107,0 0.193,0.087 0.193,0.193 v 5.268 c 0,0.107 -0.086,0.193 -0.193,0.193"
           id="Fill-183"
           inkscape:connector-curvature="0"
           style="fill:#000000;fill-rule:evenodd;stroke:none;stroke-width:0.86347681" />
        <path
           d="m 5.2789,31.6872 c -0.107,0 -0.193,-0.086 -0.193,-0.193 v -5.268 c 0,-0.106 0.086,-0.193 0.193,-0.193 0.107,0 0.193,0.087 0.193,0.193 v 5.268 c 0,0.107 -0.086,0.193 -0.193,0.193"
           id="Fill-184"
           inkscape:connector-curvature="0"
           style="fill:#000000;fill-rule:evenodd;stroke:none;stroke-width:0.86347681" />
        <path
           d="m 9.58389,26.4196 c -0.107,0 -0.193,-0.086 -0.193,-0.193 v -5.268 c 0,-0.106 0.086,-0.193 0.193,-0.193 0.106,0 0.193,0.087 0.193,0.193 v 5.268 c 0,0.107 -0.087,0.193 -0.193,0.193"
           id="Fill-185"
           inkscape:connector-curvature="0"
           style="fill:#000000;fill-rule:evenodd;stroke:none;stroke-width:0.86347681" />
        <path
           d="m 14.68,20.959 h 3.513 V 14.72 H 14.68 Z"
           id="Fill-186"
           inkscape:connector-curvature="0"
           style="fill:#ffffff;fill-rule:evenodd;stroke:none;stroke-width:0.86347681" />
        <path
           d="m 14.873,20.7661 h 3.128 v -5.853 h -3.128 z m 3.32,0.385 H 14.68 c -0.106,0 -0.193,-0.086 -0.193,-0.192 v -6.239 c 0,-0.107 0.087,-0.193 0.193,-0.193 h 3.513 c 0.107,0 0.193,0.086 0.193,0.193 v 6.239 c 0,0.106 -0.086,0.192 -0.193,0.192 z"
           id="Fill-187"
           inkscape:connector-curvature="0"
           style="fill:#000000;fill-rule:evenodd;stroke:none;stroke-width:0.86347681" />
        <path
           d="m 1.15701,20.959 h 3.513 V 14.72 h -3.513 z"
           id="Fill-188"
           inkscape:connector-curvature="0"
           style="fill:#ffffff;fill-rule:evenodd;stroke:none;stroke-width:0.86347681" />
        <path
           d="m 1.35002,20.7661 h 3.128 v -5.853 h -3.128 z m 3.32,0.385 h -3.513 c -0.107,0 -0.193,-0.086 -0.193,-0.192 v -6.239 c 0,-0.107 0.086,-0.193 0.193,-0.193 h 3.513 c 0.107,0 0.193,0.086 0.193,0.193 v 6.239 c 0,0.106 -0.086,0.192 -0.193,0.192 z"
           id="Fill-189"
           inkscape:connector-curvature="0"
           style="fill:#000000;fill-rule:evenodd;stroke:none;stroke-width:0.86347681" />
        <path
           d="M 7.48999,20.959 H 11.677 V 14.72 H 7.48999 Z"
           id="Fill-190"
           inkscape:connector-curvature="0"
           style="fill:#ffffff;fill-rule:evenodd;stroke:none;stroke-width:0.86347681" />
        <path
           d="m 7.683,20.7661 h 3.802 v -5.853 H 7.683 Z m 3.994,0.385 H 7.49 c -0.106,0 -0.193,-0.086 -0.193,-0.192 v -6.239 c 0,-0.107 0.087,-0.193 0.193,-0.193 h 4.187 c 0.107,0 0.193,0.086 0.193,0.193 v 6.239 c 0,0.106 -0.086,0.192 -0.193,0.192 z"
           id="Fill-191"
           inkscape:connector-curvature="0"
           style="fill:#000000;fill-rule:evenodd;stroke:none;stroke-width:0.86347681" />
        <path
           d="M 61.241,42.031 H 78.277 V 20.959 H 61.241 Z"
           id="Fill-192"
           inkscape:connector-curvature="0"
           style="fill:#ffffff;fill-rule:evenodd;stroke:none;stroke-width:0.86347681" />
        <path
           d="M 61.434,41.8381 H 78.085 V 21.1511 H 61.434 Z m 16.844,0.386 H 61.241 c -0.106,0 -0.193,-0.087 -0.193,-0.193 v -21.072 c 0,-0.107 0.087,-0.193 0.193,-0.193 h 17.037 c 0.106,0 0.192,0.086 0.192,0.193 v 21.072 c 0,0.106 -0.086,0.193 -0.192,0.193 z"
           id="Fill-193"
           inkscape:connector-curvature="0"
           style="fill:#000000;fill-rule:evenodd;stroke:none;stroke-width:0.86347681" />
        <path
           d="m 78.2776,26.4196 h -17.036 c -0.107,0 -0.193,-0.086 -0.193,-0.193 0,-0.106 0.086,-0.193 0.193,-0.193 h 17.036 c 0.106,0 0.193,0.087 0.193,0.193 0,0.107 -0.087,0.193 -0.193,0.193"
           id="Fill-194"
           inkscape:connector-curvature="0"
           style="fill:#000000;fill-rule:evenodd;stroke:none;stroke-width:0.86347681" />
        <path
           d="m 78.2776,31.6871 h -17.036 c -0.107,0 -0.193,-0.086 -0.193,-0.193 0,-0.106 0.086,-0.193 0.193,-0.193 h 17.036 c 0.106,0 0.193,0.087 0.193,0.193 0,0.107 -0.087,0.193 -0.193,0.193"
           id="Fill-195"
           inkscape:connector-curvature="0"
           style="fill:#000000;fill-rule:evenodd;stroke:none;stroke-width:0.86347681" />
        <path
           d="m 78.2776,36.9557 h -17.036 c -0.107,0 -0.193,-0.086 -0.193,-0.193 0,-0.106 0.086,-0.193 0.193,-0.193 h 17.036 c 0.106,0 0.193,0.087 0.193,0.193 0,0.107 -0.087,0.193 -0.193,0.193"
           id="Fill-196"
           inkscape:connector-curvature="0"
           style="fill:#000000;fill-rule:evenodd;stroke:none;stroke-width:0.86347681" />
        <path
           d="m 65.5458,42.2238 c -0.106,0 -0.193,-0.086 -0.193,-0.193 v -5.268 c 0,-0.106 0.087,-0.193 0.193,-0.193 0.106,0 0.193,0.087 0.193,0.193 v 5.268 c 0,0.107 -0.087,0.193 -0.193,0.193"
           id="Fill-197"
           inkscape:connector-curvature="0"
           style="fill:#000000;fill-rule:evenodd;stroke:none;stroke-width:0.86347681" />
        <path
           d="m 74.1555,42.2238 c -0.106,0 -0.193,-0.086 -0.193,-0.193 v -5.268 c 0,-0.106 0.087,-0.193 0.193,-0.193 0.106,0 0.193,0.087 0.193,0.193 v 5.268 c 0,0.107 -0.087,0.193 -0.193,0.193"
           id="Fill-198"
           inkscape:connector-curvature="0"
           style="fill:#000000;fill-rule:evenodd;stroke:none;stroke-width:0.86347681" />
        <path
           d="m 69.8507,36.9558 c -0.106,0 -0.193,-0.086 -0.193,-0.193 v -5.268 c 0,-0.107 0.087,-0.193 0.193,-0.193 0.106,0 0.193,0.086 0.193,0.193 v 5.268 c 0,0.107 -0.087,0.193 -0.193,0.193"
           id="Fill-199"
           inkscape:connector-curvature="0"
           style="fill:#000000;fill-rule:evenodd;stroke:none;stroke-width:0.86347681" />
        <path
           d="m 65.5458,31.6872 c -0.106,0 -0.193,-0.086 -0.193,-0.193 v -5.268 c 0,-0.106 0.087,-0.193 0.193,-0.193 0.106,0 0.193,0.087 0.193,0.193 v 5.268 c 0,0.107 -0.087,0.193 -0.193,0.193"
           id="Fill-200"
           inkscape:connector-curvature="0"
           style="fill:#000000;fill-rule:evenodd;stroke:none;stroke-width:0.86347681" />
        <path
           d="m 74.1555,31.6872 c -0.106,0 -0.193,-0.086 -0.193,-0.193 v -5.268 c 0,-0.106 0.087,-0.193 0.193,-0.193 0.106,0 0.193,0.087 0.193,0.193 v 5.268 c 0,0.107 -0.087,0.193 -0.193,0.193"
           id="Fill-201"
           inkscape:connector-curvature="0"
           style="fill:#000000;fill-rule:evenodd;stroke:none;stroke-width:0.86347681" />
        <path
           d="m 69.8507,26.4196 c -0.106,0 -0.193,-0.086 -0.193,-0.193 v -5.268 c 0,-0.106 0.087,-0.193 0.193,-0.193 0.106,0 0.193,0.087 0.193,0.193 v 5.268 c 0,0.107 -0.087,0.193 -0.193,0.193"
           id="Fill-202"
           inkscape:connector-curvature="0"
           style="fill:#000000;fill-rule:evenodd;stroke:none;stroke-width:0.86347681" />
        <path
           d="m 61.241,20.959 h 3.513 V 14.72 h -3.513 z"
           id="Fill-203"
           inkscape:connector-curvature="0"
           style="fill:#ffffff;fill-rule:evenodd;stroke:none;stroke-width:0.86347681" />
        <path
           d="m 61.434,20.7661 h 3.128 v -5.853 h -3.128 z m 3.32,0.385 h -3.513 c -0.106,0 -0.193,-0.086 -0.193,-0.192 v -6.239 c 0,-0.107 0.087,-0.193 0.193,-0.193 h 3.513 c 0.107,0 0.193,0.086 0.193,0.193 v 6.239 c 0,0.106 -0.086,0.192 -0.193,0.192 z"
           id="Fill-204"
           inkscape:connector-curvature="0"
           style="fill:#000000;fill-rule:evenodd;stroke:none;stroke-width:0.86347681" />
        <path
           d="m 74.764,20.959 h 3.513 V 14.72 h -3.513 z"
           id="Fill-205"
           inkscape:connector-curvature="0"
           style="fill:#ffffff;fill-rule:evenodd;stroke:none;stroke-width:0.86347681" />
        <path
           d="m 74.957,20.7661 h 3.128 v -5.853 h -3.128 z m 3.321,0.385 h -3.514 c -0.106,0 -0.192,-0.086 -0.192,-0.192 v -6.239 c 0,-0.107 0.086,-0.193 0.192,-0.193 h 3.514 c 0.106,0 0.192,0.086 0.192,0.193 v 6.239 c 0,0.106 -0.086,0.192 -0.192,0.192 z"
           id="Fill-206"
           inkscape:connector-curvature="0"
           style="fill:#000000;fill-rule:evenodd;stroke:none;stroke-width:0.86347681" />
        <path
           d="m 67.757,20.959 h 4.187 V 14.72 h -4.187 z"
           id="Fill-207"
           inkscape:connector-curvature="0"
           style="fill:#ffffff;fill-rule:evenodd;stroke:none;stroke-width:0.86347681" />
        <path
           d="m 67.95,20.7661 h 3.802 v -5.853 H 67.95 Z m 3.994,0.385 h -4.187 c -0.106,0 -0.193,-0.086 -0.193,-0.192 v -6.239 c 0,-0.107 0.087,-0.193 0.193,-0.193 h 4.187 c 0.107,0 0.193,0.086 0.193,0.193 v 6.239 c 0,0.106 -0.086,0.192 -0.193,0.192 z"
           id="Fill-208"
           inkscape:connector-curvature="0"
           style="fill:#000000;fill-rule:evenodd;stroke:none;stroke-width:0.86347681" />
        <path
           d="M 79.4344,0 H 78.2774 1.1564 3.96729e-4 v 1.157 58.98 c 0,5.381 1.050003271,10.601 3.121003271,15.516 2,4.746 4.863,9.009 8.51,12.67 3.647,3.661 7.894,6.535 12.624,8.543 4.898,2.08 10.1,3.134 15.462,3.134 5.362,0 10.564,-1.054 15.461,-3.134 4.73,-2.008 8.977,-4.882 12.625,-8.543 3.646,-3.661 6.51,-7.924 8.51,-12.67 2.071,-4.915 3.121,-10.135 3.121,-15.516 V 1.157 Z m -1.157,1.157 v 58.98 c 0,21.377 -17.264,38.706 -38.56,38.706 -21.297,0 -38.561,-17.329 -38.561,-38.706 V 1.157 Z"
           id="Fill-209"
           inkscape:connector-curvature="0"
           style="fill:#000000;fill-rule:evenodd;stroke:none;stroke-width:0.86347681" />
        <path
           d="m 37.2403,29.4697 c -1.018,2.404 -2.276,3.377 -3.497,4.558 1.369,0.007 2.733,-0.256 4.147,-1.443 0.024,3.662 0.552,4.914 1.824,6.144 1.257,-1.192 1.838,-2.478 1.833,-6.144 1.414,1.187 2.775,1.45 4.144,1.443 -1.221,-1.181 -2.476,-2.154 -3.493,-4.558 z"
           id="Fill-210"
           inkscape:connector-curvature="0"
           style="fill:#fff000;fill-rule:evenodd;stroke:none;stroke-width:0.86347681" />
        <path
           d="m 37.8907,32.3923 c 0.027,0 0.055,0.006 0.081,0.018 0.068,0.031 0.111,0.099 0.112,0.174 0.023,3.562 0.524,4.755 1.631,5.875 1.395,-1.404 1.643,-3.037 1.64,-5.874 0,-0.075 0.043,-0.143 0.111,-0.175 0.068,-0.031 0.148,-0.021 0.206,0.027 1.275,1.071 2.479,1.339 3.528,1.389 -0.035,-0.033 -0.069,-0.066 -0.104,-0.098 -1.047,-0.987 -2.129,-2.007 -3.025,-4.065 h -4.703 c -0.894,2.055 -1.976,3.074 -3.023,4.06 -0.036,0.034 -0.073,0.069 -0.109,0.103 1.05,-0.05 2.255,-0.318 3.531,-1.389 0.035,-0.03 0.079,-0.045 0.124,-0.045 m 1.823,6.53 c -0.048,0 -0.097,-0.018 -0.134,-0.054 -1.211,-1.172 -1.814,-2.376 -1.877,-5.888 -1.472,1.103 -2.881,1.246 -3.96,1.241 -0.079,0 -0.149,-0.048 -0.178,-0.121 -0.03,-0.072 -0.012,-0.156 0.044,-0.21 0.157,-0.152 0.314,-0.3 0.472,-0.448 1.085,-1.022 2.11,-1.988 2.982,-4.047 0.03,-0.071 0.1,-0.118 0.178,-0.118 h 4.957 c 0.078,0 0.148,0.047 0.178,0.118 0.873,2.063 1.899,3.029 2.984,4.052 0.156,0.147 0.311,0.293 0.466,0.443 0.056,0.054 0.074,0.138 0.045,0.21 -0.03,0.073 -0.1,0.121 -0.178,0.121 -1.074,0.004 -2.483,-0.138 -3.954,-1.239 -0.04,3.486 -0.678,4.736 -1.892,5.887 -0.037,0.035 -0.085,0.053 -0.133,0.053"
           id="Fill-211"
           inkscape:connector-curvature="0"
           style="fill:#000000;fill-rule:evenodd;stroke:none;stroke-width:0.86347681" />
        <path
           d="m 39.7174,29.4717 v 4.628"
           id="Fill-212"
           inkscape:connector-curvature="0"
           style="fill:#fff000;fill-rule:evenodd;stroke:none;stroke-width:0.86347681" />
        <path
           d="m 39.7174,34.2923 c -0.107,0 -0.193,-0.086 -0.193,-0.193 v -4.628 c 0,-0.106 0.086,-0.193 0.193,-0.193 0.107,0 0.193,0.087 0.193,0.193 v 4.628 c 0,0.107 -0.086,0.193 -0.193,0.193"
           id="Fill-213"
           inkscape:connector-curvature="0"
           style="fill:#000000;fill-rule:evenodd;stroke:none;stroke-width:0.86347681" />
        <path
           d="m 38.9522,27.665 c -0.354,-1.364 -0.774,-2.812 -1.289,-4.124 -0.55,-1.402 -1.299,-2.68 -2.194,-3.884 -0.791,-1.062 -1.894,-2.012 -3.208,-2.32 -1.261,-0.296 -2.67,-0.078 -3.652,0.809 -0.839,0.758 -1.132,1.887 -1.084,2.986 0.201,4.638 5.421,5.856 5.421,5.856 0,0 -1.831,-2.034 -0.343,-2.916 1.488,-0.881 4.18,0.743 4.629,3.593"
           id="Fill-214"
           inkscape:connector-curvature="0"
           style="fill:#fff000;fill-rule:evenodd;stroke:none;stroke-width:0.86347681" />
        <path
           d="m 38.952,27.8577 c -0.086,0 -0.164,-0.058 -0.187,-0.144 -0.436,-1.684 -0.843,-2.987 -1.281,-4.102 -0.516,-1.314 -1.226,-2.57 -2.17,-3.84 -0.884,-1.188 -1.984,-1.987 -3.097,-2.248 -1.308,-0.306 -2.609,-0.02 -3.479,0.766 -0.71,0.641 -1.072,1.647 -1.02,2.834 0.153,3.539 3.38,5.035 4.708,5.503 -0.309,-0.457 -0.68,-1.158 -0.583,-1.794 0.06,-0.39 0.283,-0.702 0.662,-0.926 0.621,-0.368 1.456,-0.354 2.29,0.038 1.069,0.503 2.32,1.737 2.628,3.69 0.017,0.105 -0.055,0.204 -0.161,0.221 -0.105,0.016 -0.203,-0.056 -0.22,-0.161 -0.234,-1.487 -1.181,-2.821 -2.411,-3.401 -0.717,-0.337 -1.42,-0.357 -1.93,-0.056 -0.278,0.165 -0.434,0.379 -0.476,0.653 -0.131,0.849 0.854,1.957 0.864,1.968 0.056,0.063 0.066,0.155 0.023,0.227 -0.043,0.073 -0.128,0.109 -0.21,0.09 -0.054,-0.013 -5.364,-1.306 -5.57,-6.035 -0.056,-1.304 0.351,-2.418 1.148,-3.137 0.964,-0.871 2.394,-1.191 3.825,-0.855 1.202,0.282 2.38,1.132 3.318,2.393 0.966,1.298 1.692,2.583 2.22,3.929 0.444,1.13 0.855,2.447 1.296,4.146 0.026,0.103 -0.035,0.208 -0.138,0.235 -0.017,0.004 -0.033,0.006 -0.049,0.006"
           id="Fill-215"
           inkscape:connector-curvature="0"
           style="fill:#231f20;fill-rule:evenodd;stroke:none;stroke-width:0.86347681" />
        <path
           d="m 40.4748,27.6684 c 0.354,-1.364 0.774,-2.812 1.289,-4.124 0.55,-1.402 1.299,-2.68 2.194,-3.884 0.791,-1.062 1.894,-2.012 3.208,-2.32 1.261,-0.296 2.67,-0.078 3.652,0.809 0.839,0.758 1.132,1.887 1.084,2.986 -0.201,4.638 -5.421,5.856 -5.421,5.856 0,0 1.831,-2.035 0.343,-2.916 -1.488,-0.881 -4.18,0.743 -4.629,3.593"
           id="Fill-216"
           inkscape:connector-curvature="0"
           style="fill:#fff000;fill-rule:evenodd;stroke:none;stroke-width:0.86347681" />
        <path
           d="m 40.4749,27.8614 c -0.016,0 -0.032,-0.002 -0.049,-0.006 -0.103,-0.027 -0.165,-0.132 -0.138,-0.235 0.441,-1.7 0.853,-3.017 1.296,-4.146 0.528,-1.346 1.254,-2.631 2.22,-3.929 0.938,-1.261 2.116,-2.111 3.318,-2.393 1.431,-0.336 2.861,-0.016 3.825,0.854 0.797,0.72 1.204,1.834 1.148,3.138 -0.206,4.729 -5.516,6.022 -5.57,6.035 -0.082,0.019 -0.167,-0.017 -0.21,-0.09 -0.043,-0.072 -0.033,-0.164 0.023,-0.227 0.01,-0.011 0.995,-1.119 0.864,-1.968 -0.042,-0.274 -0.198,-0.488 -0.476,-0.653 -0.51,-0.301 -1.213,-0.281 -1.93,0.056 -1.23,0.579 -2.177,1.914 -2.411,3.401 -0.017,0.105 -0.116,0.177 -0.22,0.161 -0.106,-0.017 -0.177,-0.116 -0.161,-0.221 0.308,-1.953 1.559,-3.187 2.628,-3.69 0.834,-0.392 1.669,-0.406 2.29,-0.038 0.379,0.224 0.602,0.536 0.662,0.926 0.097,0.635 -0.274,1.337 -0.582,1.793 1.328,-0.469 4.554,-1.968 4.707,-5.502 0.052,-1.187 -0.31,-2.193 -1.02,-2.834 -0.87,-0.786 -2.171,-1.072 -3.479,-0.766 -1.113,0.261 -2.213,1.06 -3.097,2.248 -0.944,1.27 -1.654,2.526 -2.17,3.84 -0.438,1.114 -0.845,2.418 -1.281,4.102 -0.023,0.086 -0.101,0.144 -0.187,0.144"
           id="Fill-217"
           inkscape:connector-curvature="0"
           style="fill:#231f20;fill-rule:evenodd;stroke:none;stroke-width:0.86347681" />
        <path
           d="m 38.9522,27.6648 c -0.96,-2.805 -1.809,-5.662 -2.591,-8.523 -0.465,-1.701 -0.798,-3.466 -0.641,-5.222 0.282,-3.168 2.104,-5.96796 3.977,-8.53796 h 0.02 c 1.873,2.57 3.695,5.36996 3.977,8.53796 0.157,1.756 -0.176,3.521 -0.641,5.222 -0.782,2.861 -1.631,5.718 -2.591,8.523 z"
           id="Fill-218"
           inkscape:connector-curvature="0"
           style="fill:#fff000;fill-rule:evenodd;stroke:none;stroke-width:0.86347681" />
        <path
           d="m 39.09,27.4722 h 1.234 c 0.855,-2.507 1.687,-5.251 2.543,-8.381 0.571,-2.087 0.767,-3.676 0.635,-5.154 -0.276,-3.102 -2.079,-5.87399 -3.795,-8.24199 -1.715,2.369 -3.519,5.13999 -3.795,8.24199 -0.132,1.478 0.064,3.068 0.635,5.154 0.856,3.131 1.689,5.874 2.543,8.381 m 1.372,0.386 h -1.51 c -0.082,0 -0.156,-0.053 -0.182,-0.131 -0.873,-2.549 -1.722,-5.341 -2.595,-8.534 -0.583,-2.133 -0.783,-3.765 -0.647,-5.291 0.293,-3.288 2.225,-6.18099 4.013,-8.63399 0.036,-0.05 0.094,-0.079 0.156,-0.079 h 0.02 c 0.062,0 0.12,0.029 0.156,0.079 1.788,2.453 3.72,5.34599 4.013,8.63399 0.136,1.526 -0.063,3.158 -0.647,5.291 -0.873,3.192 -1.721,5.984 -2.594,8.534 -0.027,0.078 -0.1,0.131 -0.183,0.131"
           id="Fill-219"
           inkscape:connector-curvature="0"
           style="fill:#000000;fill-rule:evenodd;stroke:none;stroke-width:0.86347681" />
        <path
           d="m 35.1047,27.6655 h 9.225 c 0.499,0 0.903,0.404 0.903,0.903 0,0.499 -0.404,0.903 -0.903,0.903 h -9.225 c -0.499,0 -0.903,-0.404 -0.903,-0.903 0,-0.499 0.404,-0.903 0.903,-0.903"
           id="Fill-220"
           inkscape:connector-curvature="0"
           style="fill:#fff000;fill-rule:evenodd;stroke:none;stroke-width:0.86347681" />
        <path
           d="m 35.1046,27.8587 c -0.392,0 -0.71,0.319 -0.71,0.71 0,0.392 0.318,0.71 0.71,0.71 h 9.226 c 0.391,0 0.71,-0.318 0.71,-0.71 0,-0.391 -0.319,-0.71 -0.71,-0.71 z m 9.226,1.806 h -9.226 c -0.604,0 -1.096,-0.492 -1.096,-1.096 0,-0.604 0.492,-1.096 1.096,-1.096 h 9.226 c 0.604,0 1.095,0.492 1.095,1.096 0,0.604 -0.491,1.096 -1.095,1.096 z"
           id="Fill-221"
           inkscape:connector-curvature="0"
           style="fill:#000000;fill-rule:evenodd;stroke:none;stroke-width:0.86347681" />
        <path
           d="M 39.7123,27.6649 V 12.3669"
           id="Fill-222"
           inkscape:connector-curvature="0"
           style="fill:#fff000;fill-rule:evenodd;stroke:none;stroke-width:0.86347681" />
        <path
           d="m 39.7123,27.8576 c -0.107,0 -0.193,-0.086 -0.193,-0.193 v -15.298 c 0,-0.107 0.086,-0.193 0.193,-0.193 0.107,0 0.193,0.086 0.193,0.193 v 15.298 c 0,0.107 -0.086,0.193 -0.193,0.193"
           id="Fill-223"
           inkscape:connector-curvature="0"
           style="fill:#000000;fill-rule:evenodd;stroke:none;stroke-width:0.86347681" />
        <path
           d="m 38.2006,27.8576 c -0.08,0 -0.154,-0.05 -0.182,-0.129 -1.005,-2.871 -2.695,-6.413 -5.034,-6.98 -1.424,-0.345 -2.449,0.606 -2.459,0.616 -0.077,0.073 -0.199,0.07 -0.272,-0.007 -0.074,-0.077 -0.071,-0.199 0.006,-0.272 0.047,-0.045 1.179,-1.104 2.809,-0.713 2.016,0.484 3.804,2.916 5.314,7.228 0.035,0.101 -0.018,0.211 -0.118,0.246 -0.021,0.007 -0.043,0.011 -0.064,0.011"
           id="Fill-224"
           inkscape:connector-curvature="0"
           style="fill:#000000;fill-rule:evenodd;stroke:none;stroke-width:0.86347681" />
        <path
           d="m 41.2137,27.8576 c -0.021,0 -0.043,-0.004 -0.064,-0.011 -0.1,-0.035 -0.153,-0.145 -0.118,-0.246 1.51,-4.312 3.298,-6.744 5.314,-7.228 1.63,-0.391 2.761,0.668 2.809,0.713 0.077,0.073 0.08,0.195 0.006,0.272 -0.073,0.077 -0.195,0.08 -0.272,0.007 -0.02,-0.018 -1.041,-0.959 -2.459,-0.616 -2.339,0.567 -4.029,4.109 -5.034,6.98 -0.028,0.079 -0.102,0.129 -0.182,0.129"
           id="Fill-225"
           inkscape:connector-curvature="0"
           style="fill:#000000;fill-rule:evenodd;stroke:none;stroke-width:0.86347681" />
      </g>
    </g>
  </g>
</svg>
