<?xml version="1.0" encoding="utf-8"?>
<!-- Generator: Adobe Illustrator 13.0.0, SVG Export Plug-In . SVG Version: 6.00 Build 14948)  -->
<!DOCTYPE svg PUBLIC "-//W3C//DTD SVG 1.1//EN" "http://www.w3.org/Graphics/SVG/1.1/DTD/svg11.dtd">
<svg version="1.1" id="Layer_1" xmlns="http://www.w3.org/2000/svg" xmlns:xlink="http://www.w3.org/1999/xlink" x="0px" y="0px"
	 width="585px" height="703px" viewBox="-0.8 -0.2 585 703" enable-background="new -0.8 -0.2 585 703" xml:space="preserve">
<g>
	<g>
		<defs>
			<path id="SVGID_1_" d="M582.6,3.7c-0.8-5.1-47.5-3.4-53.3-3.5C505.199,0,135,1.4,42.2,0.6C30.9,0.5,19.7,0.8,8.5,1.4
				C0.8,1.8,0.2,3.5,0.1,11C0,28.3,0.6,45.7,0.6,63c0,45.6,0,91.1,0,136.7c0,47.2,0,94.3,0,141.5C0.6,386.7-3.1,433.6,7.7,478.1
				C28.7,564.4,85.6,627.9,162.3,670c76.4,41.9,170.8,41.4,249.2,5.3c70.199-32.3,130-90.899,156.8-164.1
				c14.3-39.101,14.399-78,14.399-119.101c0-47.2,0-94.399,0-141.6c0-41.2,0-82.3,0-123.5c0-20.3,0-40.7,0-61
				C582.699,46,585.8,23.4,582.6,3.7"/>
		</defs>
		<clipPath id="SVGID_2_">
			<use xlink:href="#SVGID_1_"  overflow="visible"/>
		</clipPath>
		<g id="_x3C_Gruppe_x3E__Schwarz_1_" clip-path="url(#SVGID_2_)">
			<path d="M582.6,3.7c-0.8-5.1-47.5-3.4-53.3-3.5C505.199,0,135,1.4,42.2,0.6C30.9,0.5,19.7,0.8,8.5,1.4C0.8,1.8,0.2,3.5,0.1,11
				C0,28.3,0.6,45.7,0.6,63c0,45.6,0,91.1,0,136.7c0,47.2,0,94.3,0,141.5C0.6,386.7-3.1,433.6,7.7,478.1
				C28.7,564.4,85.6,627.9,162.3,670c76.4,41.9,170.8,41.4,249.2,5.3c70.199-32.3,130-90.899,156.8-164.1
				c14.3-39.101,14.399-78,14.399-119.101c0-47.2,0-94.399,0-141.6c0-41.2,0-82.3,0-123.5c0-20.3,0-40.7,0-61
				C582.699,46,585.8,23.4,582.6,3.7"/>
		</g>
	</g>
	<g>
		<defs>
			<path id="SVGID_3_" d="M582.6,3.7c-0.8-5.1-47.5-3.4-53.3-3.5C505.199,0,135,1.4,42.2,0.6C30.9,0.5,19.7,0.8,8.5,1.4
				C0.8,1.8,0.2,3.5,0.1,11C0,28.3,0.6,45.7,0.6,63c0,45.6,0,91.1,0,136.7c0,47.2,0,94.3,0,141.5C0.6,386.7-3.1,433.6,7.7,478.1
				C28.7,564.4,85.6,627.9,162.3,670c76.4,41.9,170.8,41.4,249.2,5.3c70.199-32.3,130-90.899,156.8-164.1
				c14.3-39.101,14.399-78,14.399-119.101c0-47.2,0-94.399,0-141.6c0-41.2,0-82.3,0-123.5c0-20.3,0-40.7,0-61
				C582.699,46,585.8,23.4,582.6,3.7"/>
		</defs>
		<clipPath id="SVGID_4_">
			<use xlink:href="#SVGID_3_"  overflow="visible"/>
		</clipPath>
		<g id="_x3C_Gruppe_x3E__Blau_1_" clip-path="url(#SVGID_4_)">
			<path fill="#0F47AF" d="M572.199,445.3c-7.5,1.101-15.199,6.3-21.5,10.3C542.9,460.5,535.8,466.4,527.8,470.9
				c-8.101,4.6-16.3,7.5-25.7,5.5c-8.3-1.7-15.5-5.9-21.9-11.301c-14.2-11.8-28-21.699-47.2-21.699c-17.6-0.101-33.1,18.199-47.1,27
				c-15.2,9.5-31.8,5.399-46.1-3.5c-14.2-8.801-28.801-23.2-46.601-22.4c-16.5,0.8-30.1,14.2-43.699,22.1
				c-15.9,9.101-32.301,10.101-48.2,0.7c-13.2-7.8-25.101-20.3-40.601-23.2C129,438.2,106.9,481.8,74.3,469.3
				c-14.4-5.5-23.8-18.8-37.601-25c-6.8-3-13.899-5-21.3-5.7c-2-0.199-6.3-1.899-7.6,0.7c-1.2,2.4,0.1,5.7,0.3,8.101
				c3.4,35.8,17,72.399,34.7,103.399c18.8,32.8,44.1,58.8,72.899,82.7c26.9,22.3,60.2,38.6,93.301,49.5
				c37,12.3,76.399,15.2,114.999,10.9c36.9-4.2,73.801-16.5,106.101-34.9c16.8-9.6,32.8-20.2,47.6-32.7
				c14.101-11.899,26.2-25,38.601-38.399c12.199-13.101,22.699-29.4,31.3-45c9-16.4,17.2-34.5,22-52.601
				c2.3-8.7,4.399-17.6,5.6-26.5C575.699,459.8,579.3,444.2,572.199,445.3z M405.1,616.6c-3,8-7.7,15.9-10,24
				c-0.2,0.801-1.8,7-3.5,4.801c-1.5-1.801-1.3-5.601-1.7-7.801c-0.3-1.699-0.7-7.1-3.8-4.899c-3.5,2.399-7.4,5.3-10.4,8.399
				C363.4,653.6,347,662.3,330.6,668c-7.7,2.7-15.9,4.6-23.4,7.8c-6.1,2.601-12.3,13.101-18.8,7.8
				C274.1,671.9,255.8,666.1,239.2,658.7c-7.2-3.3-14.9-7.5-21.4-12.101c-3.5-2.5-7-5.1-10.2-8c-1.5-1.399-6.1-7.1-8.3-7
				c-2.5,0.2-3,15.601-6.3,10.301c-1.7-2.801-2.3-6.101-3.7-9c-1.9-4-4.2-8.7-5.5-12.9c-2.4-8-6.4-15.5-9.3-23.3
				c-0.4-1-3.3-6.8-0.3-6.4c4.5,0.7,9.1,3.4,13.1,5.4c7.9,3.899,15.7,8.2,23.7,11.899c2.6,1.2,6.8,2.301,8.7,4.601
				c1.8,2.3-3.5,3.399-4.7,3.899c-9,3.2-1.3,6.301,3.7,8.9c8.1,4.2,16.6,7.8,25.3,10.4c7.6,2.3,15.2,4.1,22.899,6
				c2.601,0.6,5.601,1.6,8.2,0.8c3.5-1,2.8-7,3-9.8c1.601-20.801,3.8-41.5,4.5-62.4c0.3-9.7,0.3-19.5,1.101-29.2
				c0.3-3.7,0.199-6.5-4.101-6.8c-4.2-0.3-8.399,0.2-12.5,0.1c-3.1-0.1-4.899-0.3-4.899-3.8c-0.101-2.8-1.101-8.2,0.399-10.7
				c2.2-3.8,15.3-0.899,19.3-1.1c6.301-0.4,7.2-5.5,2.101-9.1c-6-4.2-7.9-8.9-8.2-16.301c-0.6-15.6,19.5-25.6,31-14.399
				c5.6,5.399,8.1,13.2,5.2,20.6c-1.2,3.2-2,6.7-4.801,8.9c-2.199,1.7-4.8,3.3-4.899,6.399c-0.2,5.2,11.3,3.9,14.399,4.101
				c2.101,0.1,7-0.9,8.7,0.6c2,1.7,1.101,6.3,1.101,8.5c0.1,7.601-3,7.3-9.7,6.9c-4.5-0.2-12.4-1.9-12.2,4.6
				c0.7,18.5,1.3,37.101,2.6,55.601C307.8,604.6,308.5,614.3,309.3,624c0.3,4.2-1.3,18.6,5,18.6c6.7,0,14.3-2.399,20.7-4.1
				c8.399-2.2,16.5-4.9,24.6-8c2.8-1.1,17.9-5.8,17.9-9.7c0-3-14.301-4.3-9-8.2c6.199-4.399,14.5-6.899,21.3-10.199
				c3.899-1.9,7.899-3.801,12-5.301c3.8-1.399,7.899-5.199,12.3-4.5C413.699,600.4,407.9,609.1,405.1,616.6z"/>
		</g>
	</g>
	<g>
		<defs>
			<path id="SVGID_5_" d="M582.6,3.7c-0.8-5.1-47.5-3.4-53.3-3.5C505.199,0,135,1.4,42.2,0.6C30.9,0.5,19.7,0.8,8.5,1.4
				C0.8,1.8,0.2,3.5,0.1,11C0,28.3,0.6,45.7,0.6,63c0,45.6,0,91.1,0,136.7c0,47.2,0,94.3,0,141.5C0.6,386.7-3.1,433.6,7.7,478.1
				C28.7,564.4,85.6,627.9,162.3,670c76.4,41.9,170.8,41.4,249.2,5.3c70.199-32.3,130-90.899,156.8-164.1
				c14.3-39.101,14.399-78,14.399-119.101c0-47.2,0-94.399,0-141.6c0-41.2,0-82.3,0-123.5c0-20.3,0-40.7,0-61
				C582.699,46,585.8,23.4,582.6,3.7"/>
		</defs>
		<clipPath id="SVGID_6_">
			<use xlink:href="#SVGID_5_"  overflow="visible"/>
		</clipPath>
		<g id="_x3C_Gruppe_x3E__Gelb_1_" clip-path="url(#SVGID_6_)">
			<path fill="#FCDD09" d="M293.6,330.3c-8.7,2.1-2.6,18.5,5.1,15.4C308,341.9,303.6,328,293.6,330.3z"/>
			<path fill="#FCDD09" d="M290.1,503.4c0.4-2.2,0.3-3,2.9-3c1.2,0,4-0.5,4.899,0.5c1,0.899,0,2.8,1.3,3.699
				c1.601,1,3.7-0.5,4.9-1.5c3.2-2.8,3.8-7.699,3.2-11.699c-1.101-8-10.2-14.9-18.1-11.2c-7.5,3.6-11.9,14.2-6,21.2
				C284.2,502.5,289.3,507.3,290.1,503.4z"/>
			<path fill="#FCDD09" d="M406.8,599.7c-2-1.3-8.3,3.2-10.101,4c-4.7,2.2-9.5,4.2-14.3,6.3c-1.3,0.6-8,3.2-3.6,4.9
				c2.399,1,5.1,0.899,7.5,1.699c5.2,1.7-12.5,12.101-14.5,13.301c-7.2,4.5-15.9,7.1-23.8,10.199c-8.9,3.4-18.4,6-27.7,8.101
				c-3.5,0.8-9.5,3-13.101,1.8c-2.7-0.9-2.3-7.5-2.399-9.7c-0.601-11.1-1.5-22.2-2.4-33.2c-1.8-22.5-2.3-45-3.399-67.5
				c-0.101-2.5-1.4-7.399,1.8-8.3c3.3-1,7-0.3,10.399-0.2c2.2,0.101,8.8,1.101,10.4-0.699c1.2-1.301,1.2-6.4,0-7.7
				c-4-4.3-22.4,4.8-23-4.2c-0.1-2,0.899-6.9-2-7.3c-4.8-0.8-5.899,0.7-6.2,5.1c-1,14-28.1-3.8-25.2,12.2
				c0.801,4.3,13.9,2,17.301,2.4c2.1,0.199,5.5-0.7,6.1,2.1c0.7,3.1,0,6.7-0.2,9.8c-0.899,19.9-1.2,39.8-3.1,59.601
				c-0.9,9.199-1.5,18.5-2.3,27.8c-0.2,2.8,0.5,19.399-3.5,20.1c-2.9,0.5-6.301-1.1-9.2-1.5c-4.5-0.7-9-2.2-13.3-3.6
				c-9.601-2.9-19.301-6.101-28.5-10.3c-7.301-3.301-14.9-6.801-21.5-11.601c-1.5-1.1-6.101-3.399-4.4-5.8c1.8-2.6,5.7-2.3,7.5-4.7
				c1.6-2.2-18-10-20.5-11.3c-2.4-1.2-6.6-4.7-9.5-4.6c-3.3,0.1,1.6,8.1,2,9c3.3,7.699,6.2,15.6,9.3,23.3
				c2.2,5.5,4.101-7.7,7.101-5.8c6.399,3.899,10.5,11.6,16.8,16c7.7,5.399,15.2,10.899,23.6,15.199
				C255,662.9,272.8,667.3,289.1,675.4c6,2.899,12.2-3.2,18.2-5.2c9.2-3.101,18.399-6.5,27.399-10.3c16.9-7.2,32.5-15.5,46.101-28
				c2.1-1.9,11.399-14.801,11.6-6.9c0,0.9,0,6.1,2.4,4.1c3-2.5,4.5-9.6,6-13.1C401.9,614.5,409.3,601.4,406.8,599.7z"/>
			<path fill="#FCDD09" d="M122.7,326.7c-7.7,2.8-3.4,16.5,4.5,15.5C137.2,340.8,133.8,322.7,122.7,326.7z"/>
			<path fill="#FCDD09" d="M576.6,302.9c0-21-0.8-42.3,0.1-63.3c0.2-3.7-0.1-5.5-4.1-5.6c-3.7-0.1-7.5,0.2-11.2,0.2
				c-11.1,0-22.2,0-33.2,0c-85.1,0-170.3,0-255.399,0c-46,0-91.9,0-137.9,0c-23,0-46,0-69,0c-11.899,0-23.8,0-35.8,0
				c-5.5,0-11.1,0.1-16.6-0.1c-4.7-0.1-6.8-0.2-6.8,4.9c0,41.9,0,83.9,0,125.8c0,20.601,0.399,41.3,0,61.9
				C6.6,430.3,7,431.6,10.8,432c3.5,0.4,7,1.2,10.5,1.5c8.8,0.9,17.3,4.4,24.6,9.2c12.2,8.1,25,24,41,23
				c16.7-1,31-14.601,45.301-21.9c17.1-8.7,33.199-7.2,49.3,2.9C193.9,454.4,210,471,226,468.2c18.2-3.2,30.399-14.9,46.399-23.3
				c16.101-8.5,32.3-7.9,47.8,1.6c13.2,8.1,26.9,22.1,43.101,23.4c17.699,1.399,31-13.101,44.399-22.601c14.3-10.2,30.9-12.3,47.4-6
				c13.899,5.3,23.2,16.5,35.7,24.101c6.8,4.1,15.199,6.8,23.1,5c9-2,16.7-8.601,24.3-13.4c7.4-4.7,14.8-9.7,22.7-13.3
				c3.9-1.8,7.8-2.7,11.9-3.8c5.2-1.4,4.1-6,3.899-10.601C575.1,387.2,576.6,344.9,576.6,302.9z M194.3,351.9
				c-2.2,1.5-5.3,1.1-7.4,2.6c-2.5,1.8-2.899,6.4-3.8,9.2c-1.399,4.3-3,8.7-5.1,12.7c-3.601,6.899-9.4,12-16.3,15.6
				c-3.601,1.9-7.5,3.1-11.5,3.4c-3.801,0.3-10-2.7-13.2-0.5c-2.601,1.699-6.5,12.899-10.2,8.6c-5.3-6.1-6-11.1-15.5-10.4
				c-8.5,0.7-16.4-1.8-23.3-6.8c-7.601-5.5-10.7-12.6-12.601-21.5c-0.6-2.7,0-6.3-3.1-7.3c-2.9-0.9-5.6-0.4-8.5-0.9
				c-4.2-0.699-0.5-4.799,1-6.299c2.1-2.1,4.7-5.9,4-9c-2-10.2-5.5-18.5-2.6-29.1c1.5-5.5,4.5-11.2,9-14.8c3.399-2.8,8-2.6,11.6-4.8
				c4.3-2.6,2-8.4,2.6-12.5c1-7.1,5.601-1.3,9.801-1.4c3.8-0.1,7.699-4.8,10.899-6.7c5-3,10.5-4.9,16.3-5.6
				c7-0.9,15.301,2.3,20.9,6.2c3,2,5.7,4.4,8.3,6.9c3.101,3,7,0.8,10.5-0.3c6.5-2.1,1.7,8.7,5.5,12.2c2.101,1.9,5.101,2.8,7.5,4.3
				c3.4,2.2,5.9,5.2,8.2,8.5c4.2,6,4.8,14.1,3.6,21.1c-1.1,6.5-7.199,17.2-0.5,22C191.1,347.9,196.3,350.6,194.3,351.9z
				 M362.199,356.9c-3.3,1-5.5,1.3-6.699,4.899c-2.601,7.601-4.7,15.7-9.2,22.5c-4.2,6.3-12.101,11.3-19.3,13.5
				c-7.5,2.3-17.7-3-22.5,4.101c-1.2,1.699-2.4,6.5-5.101,6.399c-2.199,0-4.3-5.8-5.6-7.3c-2.5-2.9-4.4-4.7-8.4-4.5
				c-5.1,0.3-9.399,0.3-14.5-0.7c-7.3-1.5-14.6-6.399-19-12.399c-1.899-2.7-3.3-5.801-4.3-8.9c-1.2-3.6-0.899-9.2-2.7-12.4
				c-2.199-3.8-14.8,0.5-11.3-5.8c1.601-2.8,4.3-4.7,5.8-7.6c2.101-4.1-0.899-6.8-2.1-10.5c-2.8-8.7-2-19.8,2.3-27.9
				c2.4-4.6,5.7-9.5,10.8-11.4c3.2-1.3,9.9-2.1,9.4-6.8c-0.4-3.5-0.7-7.9,0.6-11.3c1.4-3.8,7.9,1.9,10.7,1.4
				c3.7-0.7,7.3-5.4,10.7-7.3c4.9-2.8,10.3-4.3,15.9-5c6.899-0.8,14.3,2.1,19.8,5.9c2.899,2,5.399,4.4,8.199,6.5
				c4.301,3.3,6.5,1.4,11.2,0.2c4-1,3.9,0.6,3.4,3.9c-0.601,4.2,0.2,7.8,4.1,9.8c6.2,3.1,13.4,8.2,15.7,15.1
				c2.5,7.4,2.3,14.4,0.5,21.9c-0.8,3.5-2.2,7.1-2.7,10.6c-0.7,4.7,3.4,6.8,6.601,9C367.699,355.3,364.3,356.3,362.199,356.9z
				 M517.4,356.7c-3.1,1.3-3.5,4.6-4.399,7.5c-1.601,4.7-3.4,9.1-5.2,13.6c-3.101,7.4-9,12.601-15.9,16.601
				c-3.2,1.8-6.7,3.1-10.3,3.6c-4.8,0.7-8.8-1.4-13.3-1.1c-5.7,0.3-6.2,11.1-10.5,10.699c-2.101-0.199-3.2-4-4-5.5
				c-1.7-3.1-4.7-6.1-8.4-6.199C436.5,395.7,429.1,396,421,391.6c-8.4-4.6-12.601-10.8-15.4-19.699c-1.1-3.4-0.8-7.4-2.6-10.601
				c-1.2-2.2-4.9-1.399-6.9-1.3c-9.4,0.5-2.7-5.5,0.2-9.5c4.1-5.8,0.2-8.1-1.3-13.8c-1.601-6-1.101-12.6-0.101-18.7
				c1-5.9,3.601-10.6,7.5-15.1c3.5-3.9,7.4-4.8,12-6.8c5.101-2.2,3.4-5.9,3.601-10.5c0.1-1.8,0.3-3.6,0.8-5.3c1-3,3.7-0.4,5.399,0.2
				c6.4,2.3,8-1,12.9-4.4c5.4-3.8,11.7-6.5,18.4-6.8c8.699-0.4,16.699,2.6,23.3,8c2.2,1.8,4.7,4.9,7.399,5.8
				c3.5,1.2,7.2-1.2,10.301-2.2c5.5-1.8,1.3,9.5,3.199,12.2c1.5,2.2,4.5,2.8,6.7,4.1c3.101,1.9,6,4.3,8.3,7.1
				c4.9,6,6.2,13.5,5.7,21.1c-0.3,4.1-1.1,8.1-2.2,12c-1.1,3.8-3.399,7.3-0.1,10.8c1.8,1.9,4.8,3.2,6.2,5.3
				C525.6,355.7,518.6,356.3,517.4,356.7z"/>
			<path fill="#FCDD09" d="M451.5,329.8c-8.601,4,0.1,19.6,7.199,14.2C465.9,338.4,460.6,325.5,451.5,329.8z"/>
		</g>
	</g>
	<g>
		<defs>
			<path id="SVGID_7_" d="M582.6,3.7c-0.8-5.1-47.5-3.4-53.3-3.5C505.199,0,135,1.4,42.2,0.6C30.9,0.5,19.7,0.8,8.5,1.4
				C0.8,1.8,0.2,3.5,0.1,11C0,28.3,0.6,45.7,0.6,63c0,45.6,0,91.1,0,136.7c0,47.2,0,94.3,0,141.5C0.6,386.7-3.1,433.6,7.7,478.1
				C28.7,564.4,85.6,627.9,162.3,670c76.4,41.9,170.8,41.4,249.2,5.3c70.199-32.3,130-90.899,156.8-164.1
				c14.3-39.101,14.399-78,14.399-119.101c0-47.2,0-94.399,0-141.6c0-41.2,0-82.3,0-123.5c0-20.3,0-40.7,0-61
				C582.699,46,585.8,23.4,582.6,3.7"/>
		</defs>
		<clipPath id="SVGID_8_">
			<use xlink:href="#SVGID_7_"  overflow="visible"/>
		</clipPath>
		<g id="_x3C_Gruppe_x3E__Rot_1_" clip-path="url(#SVGID_8_)">
			<path fill="#DA121A" d="M266.3,298.1c3.9,1.8,5.8-0.3,5.6-4.2c-0.1-3.6-0.8-7-4-9c-4.1-2.4-5.6-0.3-5.899,3.6
				C261.7,292.9,261.8,296,266.3,298.1z"/>
			<path fill="#DA121A" d="M337.8,293.2c0.399-1.7,1.5-5.9-0.2-7.3c-1.9-1.7-8.2,0.5-8.8,2.9C327.1,295.5,336.4,299.7,337.8,293.2z"
				/>
			<path fill="#DA121A" d="M247.1,344.9c5.9,4.2,11.4,3.1,17.5,0c2.4-1.2,5-2.4,7.3-3.9c2.7-1.8-0.1-4.2,0.601-6.8
				c1.6-5.5,6.899-11.8,7.3-17.4c0.4-5.3-7.1-10.9-10.8-13.8c-11.101-9-21.5,0.8-26.8,10.5C236.3,324.6,236.2,337.2,247.1,344.9z
				 M248.7,328.9c3.399-4.5,4.6-10.3,5.699-15.7c0.601-3.2,0.801-7.8,4.9-8.2c3.5-0.4,8.2,0.7,8.2,5c-2.9,0.7-7.5-2.3-10,0.1
				c-1.5,1.5-0.601,4.3-0.3,6.1c0.399,2.5,0,5.2-0.801,7.6c-1.199,3.9-6.199,9.2-4.1,13.3c0.9,1.8,7.9,4.2,4.6,5.5
				c-3.6,1.4-7.699,0-10.5-2.5C242.8,336.8,246.6,331.7,248.7,328.9z"/>
			<path fill="#DA121A" d="M290.7,312.8c4.3-1.4,11.899-3.8,15.8-0.2c1.199,1.1,1.199,4.8,3.5,3.2c2.8-2,5.699-4.6,8.1-7.1
				c5.1-5.2,7.2-12.2,5.9-19.5c-1.101-6.2-7.9-11.5-13.601-13.5c-7.1-2.5-12.899-0.9-19.8,0.7c-5.3,1.2-12.3,3.1-15.3,8.3
				c-3.4,6.1-0.9,11.7,2,17.3C279.3,305.8,285.8,314.4,290.7,312.8z M279.1,289.4c3.5-5.9,15.2-0.4,20.5-0.8
				c5.4-0.4,12.8-5.5,17.9-1.7c5.699,4.2,2.199,11.5-0.9,15.9c-1,1.5-2.2,3.4-4.1,3.8c-0.101-2.9,2.6-4,4-6.1
				c1.3-2,1.199-4.9,0.699-7.2c-1.6-6.9-8.5-4.7-13.5-3.2c-3,0.9-5.999,1.5-9.199,1.3c-2.4-0.1-5.2-0.5-7.3,0.9
				c-5.9,4.2-1.2,7.3-1.2,12.2C279.6,303.4,275.9,294.8,279.1,289.4z"/>
			<path fill="#DA121A" d="M320.199,318.3c-0.5,1.9,2.101,4.9,2.9,6.6c1,2.3,2.3,3.7,2.5,6.4c0.3,3.7-0.9,4-2.8,6.4
				c-2,2.4,11.7,6.9,13.399,7.6c16.2,6.6,21.7-7.2,21.301-21.1c-0.2-6.6-1.5-12.8-5.801-18c-4-4.8-10.5-9.9-17.399-7.2
				c-5.4,2.2-8.5,7.9-11,12.8C322.3,313.9,320.8,316,320.199,318.3z M332.1,304.3c3.9-2.1,8.7-2,11.7,1.6
				c3.899,4.6,1.1,9.5,2.2,14.6c1.3,5.9,13.199,16,4.699,21.9c-1.699,1.1-5.399,2-6.8,0c0.8-2,4.101-1.7,5-4.7
				c0.7-2.3-0.2-4.4-1.5-6.2c-2.7-3.8-3.7-8.2-5-12.5c-1-3.5-2.7-10.3-7.3-10.9c-1.9-0.2-4,1.6-5.7,0.5
				C329.1,306.5,330.5,305.1,332.1,304.3z"/>
			<path fill="#DA121A" d="M248.6,349.8c-4.1-1.8-6.2-1.2-8.8,2.4c-2.1,3-3.3,5.3,1.3,6.1c3.101,0.5,5.5,0,7.7-2.3
				C251.1,353.6,252,351.3,248.6,349.8z"/>
			<path fill="#DA121A" d="M495.699,293.9c1.5-1.5,1-6.5,0.2-8.2c-1.2-2.5-8.1,0.1-8.7,2.2C485.6,293.3,491.1,298.7,495.699,293.9z"
				/>
			<path fill="#DA121A" d="M298.1,372.6c-0.5-2.8-2.2-5.1-3.399-7.6c-1.2-2.5-4.9-2.4-7.4-3.1c-2.6-0.7-5.2-0.9-7-3.2
				c-1.7-2.3-2.4-7.7-4.9-9.1c-3.399-1.8-11.699-0.7-15.1,0.7c-13.5,5.5-12.2,22.601-3.7,31.5c9.2,9.601,23.4,18.601,36,8.601
				C297.3,386.7,299.1,378.2,298.1,372.6z M283.6,389.6c-5.399,0.7-6.7-3.8-9.399-7.199c-6-7.601-24.5-5.801-19.801-20.5
				c0.5-1.5,2.601-6.301,4.801-5.801c1.699,0.4-0.2,4.601-0.4,5.601c-0.7,3.899,2.3,8.8,5.3,11c4.3,3.1,9.8,4.3,13.601,8.1
				c3.199,3.2,6.899,7.3,11.199,2.101c1.2-1.4,1.301-3.801,3.4-4.4C294.2,383.2,287.9,389,283.6,389.6z"/>
			<path fill="#DA121A" d="M451,311.4c6.3-2.2,12.3-2.7,15.5,3.4c1.3,2.4,10.1-6.9,11.1-8c4.9-5.9,6.8-12,4.5-19.4
				c-4-13.2-20.2-15.2-31.4-12.5c-13.8,3.3-23.6,11.3-15.199,26.1C438.6,306.3,444.3,313.7,451,311.4z M438.6,287.2
				c2.3-2.5,6.7-1.9,9.5-0.8c2.6,1,6,0.7,8.8,1c6.3,0.8,11-4.3,17.3-2.2c7.9,2.5,5,11.5,1.5,16.3c-1,1.4-2.3,4.2-4.399,4.3
				c-0.601-2.8,2.1-3.5,3.2-5.6c1.199-2.2,1.1-6.3,0.5-8.8c-1.301-5.5-7.601-3.8-11.301-2.4c-3.1,1.2-6.199,2.4-9.5,2.1
				c-2.699-0.2-5.899-1.4-8.399,0.4c-4.9,3.7-1.7,7.7-1.4,12.2C437.8,302.3,433.699,292.4,438.6,287.2z"/>
			<path fill="#DA121A" d="M357.1,349.8c-5.5-4.1-8.7,5.5-2.9,6.8C360,357.8,361.4,353,357.1,349.8z"/>
			<path fill="#DA121A" d="M293.6,396.4c0.2,2.199,3.4,6.5,5.9,6.399c2.6,0,4.899-4.3,5.5-6.399
				C307.3,388.5,292.7,388.4,293.6,396.4z"/>
			<path fill="#DA121A" d="M342.199,352.4c-2.8-1.101-18.899-4.7-20.1-0.9c-0.9,2.8,0.4,3.6-2.7,5.3c-2.3,1.4-4.5,3.5-7,4.4
				c-1.7,0.6-5.8-1-6.8,0.1c-1.5,1.601-1.7,4.601-2,6.7c-1.6,12.3,0,30.2,17,27c7.2-1.4,12.8-4.4,18.6-8.7
				c6.2-4.5,8.4-11.7,9.801-18.899C350.4,360.2,349.6,355.1,342.199,352.4z M344.4,368.6c-1.6,4.801-4.899,6-9.5,7
				c-5.8,1.301-8.399,3.601-11.6,8.5c-2.601,3.9-6.3,8.9-12,6.601c-4.7-1.9-5.8-9.101-4.9-13.4c4,2.5,3.4,12.7,11.2,7.8
				c4.7-3,7.5-8.3,11.9-11.8c3.399-2.7,9.399-3.5,11.6-7.6c1.2-2.4,0.6-4.3-0.9-6.4c-0.699-1-1.899-3.899,0.601-3.1
				C345.6,357.8,345.6,364.9,344.4,368.6z"/>
			<path fill="#DA121A" d="M478.8,318.5c0.2,1.4,2.6,5.1,3.5,6.4c1.6,2.5,2,5.5,1.6,8.5c-0.3,1.9-3.1,3-2.899,4.7
				c0.199,1.6,5,2.7,6.1,3.2c6.2,2.9,12.3,5.8,19.3,5c13.4-1.5,10.9-25.8,7.9-33.9c-4.2-11-18.4-21.6-27.8-9.2
				C483.9,306.4,478.3,314.1,478.8,318.5z M504.3,309.1c1,4.4-0.4,9.3,1.6,13.5c1.601,3.4,4.8,6.3,5.5,10.2
				c0.8,4.5-1.399,11-7.1,8.6c1.5-3.2,5.399-5,3.2-9.2c-1.9-3.7-3.9-6.8-5.4-10.9c-1.4-3.9-2.2-8.6-4.4-12.1
				c-1.1-1.8-3.399-3.3-5.6-2.7c-1.2,0.3-2.5,1.4-3.8,0.8C488.699,298.5,502.8,302.3,504.3,309.1z"/>
			<path fill="#DA121A" d="M167.3,288.7c0.4-1.9,1.2-6.4-1.5-7.1c-2-0.6-7.1,1-7.8,3.2C155.8,292,165.6,296.1,167.3,288.7z"/>
			<path fill="#DA121A" d="M153.9,323.4c1.2,1.9,1.2,4.9,0.801,7.1c-0.301,2-3.2,2.8-3.2,4.5c0.1,2.8,13.899,6.8,16.1,7.6
				c15.601,5.2,21.601-11.8,19.5-24.6c-1.7-10.8-12.1-30.1-26-21.4c-5.3,3.3-7.5,9.6-10.3,14.8C148.4,316,151.3,319.2,153.9,323.4z
				 M160.6,301.5c7.101-4.6,14.2-0.7,14.7,7.7c0.3,4.6-1.2,7.9,1.6,12.1c1.9,2.9,4.601,5.4,5.301,8.9c0.8,3.8-1.4,10-6.301,8.6
				c2.301-4.4,4.2-6.6,1.2-11.6c-2.8-4.6-4.1-9.6-5.899-14.6c-1.101-2.9-3.801-10.4-8.2-8.8C160,304.8,156.7,304,160.6,301.5z"/>
			<path fill="#DA121A" d="M120.8,308.9c4.3-1.4,13.9-3.9,16.3,1.7c1.7,3.9,10.7-5.9,12.3-8c3.9-4.9,4.9-11.1,3.7-17.3
				c-1.3-6.5-7.899-11.4-13.8-13.4c-2.9-1-6-1.4-9.1-1.4c-3.9,0-6.801,1.8-10.4,2.2c-4.7,0.5-12.2,3.4-14.7,7.7
				c-3.5,6-1,13.4,2.3,18.9C109.9,303.6,115.3,310.7,120.8,308.9z M108.1,285.6c3.2-6.2,13.9-1,19-1.2c6.601-0.3,13.2-5.6,19.5-1.6
				c4.601,2.9,3.9,10,1.3,13.9c-1.399,2.2-3.3,4.9-6,5.7c-0.699-2.2,1.5-3.1,2.801-4.4c1.5-1.3,1.3-3.9,1.199-5.7
				c-0.1-6.5-3.6-7.4-9.8-6.5c-3.399,0.5-6.5,2.3-10,2.4c-2.8,0.1-6.1-0.7-8.8,0.3c-2.5,0.9-4,3.6-3.9,6.2
				c0.101,2.2,2.801,4.7,1.7,6.7C109.1,301.3,105.7,290.2,108.1,285.6z"/>
			<path fill="#DA121A" d="M185.5,345.3c-4.9-2.3-7.7,5.2-2.9,7.3C188.7,355.4,192.1,348.4,185.5,345.3z"/>
			<path fill="#DA121A" d="M69.4,348.2c-5.199,6.8,4.4,8.1,8.5,4.3C84.6,346.4,73.7,342.6,69.4,348.2z"/>
			<path fill="#DA121A" d="M122.9,391.9c-0.3,2.699,2.4,5.8,4.801,6.8c3.1,1.3,5.5-2.9,6.5-5.2C137.4,386.1,123.8,383.6,122.9,391.9
				z"/>
			<path fill="#DA121A" d="M124.2,361.1c-1.4-3.199-3.7-1.1-6.2-2.3c-2.4-1.1-5.8-1-7.7-3.1c-1.7-2-2.7-4.7-3.8-7
				c-1.601-3.2-3.9-2.7-7.101-3.1c-6.899-0.7-13,1.4-17.1,7.1c-17.5,24.1,35.3,56.2,44.3,25.8C128.5,371.8,126.9,367.2,124.2,361.1z
				 M111.7,385.7c-5.801,0-6.801-7.101-11.101-9.5c-5-2.8-11.899-3.5-15.399-8.3C81.6,363,82.4,354.7,88.5,352
				c2.3-1,0.5,2.9,0.3,3.5c-1.3,2.6-1.4,5.2-0.1,7.8c2.699,5.4,6.5,7.101,11.8,9.601c2.8,1.3,5.899,2.8,7.7,5.399
				c1.6,2.2,3.1,4,6.1,3.2c2.3-0.6,4.2-2.4,5.2-4.6c0.399-0.9,3.2-4.601,3-1.301C122.3,380.5,116.7,385.7,111.7,385.7z"/>
			<path fill="#DA121A" d="M97.4,294.9c4.2,0.8,3.9-4.5,3.601-7.2c-0.4-3.2-2.4-6-5.4-7.2c-4.899-1.9-4.8,3.5-4.399,6.9
				C91.7,291.3,93.3,294.1,97.4,294.9z"/>
			<path fill="#DA121A" d="M78.4,342.2c6.4,3.1,11,1.5,16.9-1.9c2-1.1,5.1-2.1,6.6-3.9c1.2-1.4-0.399-5.5,0.601-7.6
				c1.3-3,2.399-6.1,3.7-9c1-2.3,3.399-5.4,2.699-8.1c-1.3-4.8-7.699-10.3-11.699-12.8c-12-7.5-21.101,2.1-26.301,12.5
				C65.3,322.5,66,336.3,78.4,342.2z M79.7,323.4c3.199-5.6,3-11.7,4.6-17.8c1.3-5.2,8.2-5.2,11.6-2.3c5.4,4.5-5.3,1.6-6.6,1.8
				c-3.9,0.8-3.4,6.3-3.4,9.3c0,6-3.1,9.6-4.699,15c-0.9,3.1,1.1,5.3,3.8,6.5c0.6,0.3,3.5,1.3,2.2,2.4c-3.2,2.6-10.301,0.7-11.9-3
				C72.9,330.2,77.4,327.4,79.7,323.4z"/>
			<path fill="#DA121A" d="M165.8,347c-3-0.2-5.8-0.3-8.8-0.7c-5.4-0.7-4.601,0.5-5.9,4.2c-1,2.8-10.3,8.1-12.899,7
				c-6.301-2.6-5.2,9-5.601,12.7c-0.7,6.2-0.1,13.8,4.9,18.3c5.5,5,14.6,3,20.8,0.3c13.1-5.6,22.2-18,20.5-32.8
				C178.2,350.4,170.7,347.4,165.8,347z M172.3,367.8c-3.2,4.9-10.5,2.8-14.6,6.3c-5.4,4.601-5.101,12.2-13.4,12.9
				c-3.3,0.3-5.5-0.9-6.9-4c-0.5-1.1-3.199-7.8-1.3-8.7c1.101-0.5,2.101,3.601,2.2,4c0.6,2.4,2.5,3.601,4.9,3.8
				c4.6,0.301,7.1-4.399,10-7.1c2.699-2.5,5.899-5.8,9.199-7.4c3.101-1.5,7.601-2.399,8.801-6.199c1.1-3.601-1.7-5.301-2.101-8.5
				C175.9,351.3,174.1,365.1,172.3,367.8z"/>
			<path fill="#DA121A" d="M455.8,369.3c-0.601-1.2-2.5-6.899-4-7.399c-1,0-2,0.1-2.9,0.3c-1.7-0.2-3.399-1.5-5.2-1.8
				c-4-0.7-5.399-3.301-7.1-6.801c-1-2.2-1.4-5.3-4.3-5.7c-2.8-0.4-5.3,0.2-8,0.6c-14.5,1.8-20.4,17.2-12.2,29.2
				c7.5,10.899,21.1,19.7,34.5,14.399c6.1-2.399,9.1-7.699,10-14.1C456.9,375.1,457,371.9,455.8,369.3z M438.6,387.9
				c-3.1-1.2-3.9-4-5.9-6.4c-1.8-2.1-4.8-3.1-7.199-4.3c-4.2-2.101-9.5-3.5-11.7-8.101c-2.2-4.699-1.5-11.6,3.6-14
				c2.5-1.199,0.601,3.601,0.4,4.5c-0.5,2.4-0.3,4.801,0.7,7.101c2.199,5.1,7,6.6,11.5,9.1c2.5,1.4,5.199,3.101,7.1,5.3
				c1,1.101,2.3,3.2,3.9,3.4c5.899,1,5.899-4.6,9.899-6.5C454.3,383.6,443,389.7,438.6,387.9z"/>
			<path fill="#DA121A" d="M452.1,395c0,2.1,3.2,6.3,5.3,6.7c2.9,0.5,4.9-3.3,6-5.5C467.3,388.6,451.9,386.2,452.1,395z"/>
			<path fill="#DA121A" d="M512.699,348c-4.6,0.6-3.899,6.7,0.301,7.4C521.4,357,518.3,347.2,512.699,348z"/>
			<path fill="#DA121A" d="M576.6,199.6c0-21.1,0-42.2,0-63.3c0-41.5-1.2-83.2,0.1-124.7c0.101-4.2-1.5-4.6-5.3-4.6
				c-5.1-0.1-10.2-0.1-15.3-0.1c-11-0.1-21.9-0.1-32.9-0.1c-21,0-41.899,0.1-62.899,0.2C418,7,375.6,6.9,333.199,6.9
				c-84.899,0-169.8,0-254.8,0C64,6.9,49.5,6.9,35.1,6.9c-6.6,0-13.2,0.2-19.7,0C9.7,6.7,6.7,6.1,6.7,12.4c0,41.5,0,83,0,124.5
				c0,21,0,42,0,63c0,5,0,10.1,0,15.1c0,2.8-1.5,10.9,0.5,13.1c1.899,2.1,9.6,0.8,12.1,0.8c5.9,0,11.8-0.1,17.7-0.1
				c85.1-0.8,170.3,0,255.399,0c85.2,0,170.4,0,255.601,0c5.1,0,10.199,0,15.3,0c2.8,0,10.3,1.5,12.6-0.5c2-1.8,0.7-8.7,0.7-11
				C576.6,211.4,576.6,205.5,576.6,199.6z M450.5,198.1c-5.601,0.2-11.2,0.2-16.801,0.2c-20.199-0.1-40.399,0.1-60.6-0.2
				c-8.7-0.1-17.5-1.1-26.2-0.9c-8.399,0.2-16.5,1.4-24.899,0.5c-0.801-0.1-5.801-0.3-5.9-1.5c-0.1-1.4,4.7-1.4,5.5-1.5
				c2.4-0.2,6.6,0.6,8.6-1c2.4-2,1.4-10.3,0.801-13c-3.801-15.3,0.5-30.5,12.899-40.5c6-4.8,12.5-9,18.601-13.7
				c5.699-4.4-12.4-4.1-13.601-4.1c-9.2,0.2-18.399-0.4-27.6,0.4c-8,0.7-16.2,2.4-24.2,2.4c-7.899,0-17,1.5-24.8-0.2
				c-3.8-0.8-7.8-0.6-11.7-0.5c-4.8,0-9.5-0.8-14.3-0.7c-2.6,0-6.7-0.2-8.5,2c-2.1,2.4,4.3,8.8,5.6,10.4
				c6.101,7.6,11.9,15,16.5,23.7c4.5,8.4,8.7,16.6,11.2,25.8c0.7,2.6,0.5,7.1,3.2,8.6c3.6,2.1,8.7-0.7,12.1,2.4
				c-1.5,2-7.8,0.8-9.8,0.6c-4-0.3-8.2,0.9-12,0.1c-4.1-0.8-8.6-0.5-12.7,0.1c-4.8,0.6-9.5-0.3-14.3-0.4c-20-0.7-40.1,0-60,0
				c-8,0-17.8,1.4-25.6-1c-2.7-0.8,3.5-2.1,4.2-2.1c4.199,0,8.199-0.3,12.399-0.6c6.3-0.5,6.4-10.2,7.7-14.9
				c2.1-7.3,3.3-15.2,6.6-22.1c3.601-7.6,7.801-16.2,14.7-21.5c2.601-2,5.2-4.2,7.7-6.2c4.5-3.6-0.7-4.3-3.7-4.8
				c-8.1-1.2-16.2-3.3-24.399-3.5c-8.7-0.2-17.2-1.9-25.301-4.9c-12.699-4.9-15.199-31-2.399-37.2c7.8-3.8,17.399-4.5,25.7-7.5
				c8.699-3.2,17.199-6.3,25.899-9.2c8.3-2.7,16.7-5.7,25.2-7.5c8.5-1.8,17.3-0.4,26-1.2c3.5-0.3,8.5,1.6,11.8,2.6
				c4.2,1.2,8.601,1.8,12.9,2.7c9.6,2,19.399,2.5,29.199,2.5c18.5,0,37.2-1.2,55.5-3.4c8.2-1,17.3-1,25.4,0.1
				c8.899,1.1,18.8,0.1,26.6,5.5c6.7,4.6,11,12.3,14.601,19.5c3.899,7.9,8.5,16.1,8.5,25.2c-0.101,18.8-24.3,15.3-36.5,14.8
				c-2.5-0.1-5.7-0.5-8,0.8c-3.101,1.8,0.899,5.7,2,7.5c4.8,7.3,11.1,13.2,16.1,20.3c5.101,7.3,9.601,15.4,12.4,23.8
				c1.6,4.9,2.3,19.7,8.399,20.4c7,0.8,14.2-0.1,21.2,0.9C456,196.6,452,198.1,450.5,198.1z"/>
			<path fill="#DA121A" d="M491.699,349.8c-2.699-0.3-5-0.9-7.8-0.7c-3.899,0.3-2.5,1.8-3.399,4.6c-0.801,2.7-10.101,7.6-12.7,7
				c-3.601-0.9-4.2-0.4-5.101,3.3c-1,4.1-1.5,8.3-1.5,12.5c0,6.1,1.5,13.6,7.5,16.8c6.101,3.2,14.7,0.3,20.4-2.3
				c5.5-2.5,11.8-6.6,14.5-12.1c2.9-5.7,6.2-14.801,3.8-21.2C505.199,351.2,497.3,350.4,491.699,349.8z M502.5,368.9
				c-2.301,5.8-8.801,5-13.7,7.1c-5.601,2.4-5.8,8.5-10.2,12c-4.7,3.9-10.8,2.2-12.7-3.5c-0.7-2.2-2-4.8-0.7-7.1
				c3.4,1.5,3.2,10.5,9.2,7.8c4-1.8,7.6-7.101,10.6-10.2c2-2,4.101-4.4,6.801-5.5c2.1-0.8,4.399-0.9,6.199-2.4
				c1.7-1.399,2.5-3.8,2.301-6c-0.2-2.1-2.801-3.699-2.301-6C504.3,353.7,503.6,366.2,502.5,368.9z"/>
			<path fill="#DA121A" d="M405.699,348.2c-4-1.3-5.699,0.2-7.8,3.6c-2.2,3.5-2.3,5.2,2.3,5.601c3.4,0.3,5.7-0.601,7.9-3.301
				C410.8,351.1,409.1,349.3,405.699,348.2z"/>
			<path fill="#DA121A" d="M407.9,345.3c6.101,3.1,11.3,0.6,17-2.2c2-1,4.601-2,6.3-3.6c0.8-0.8,0.9-1.7,0.3-2.7
				c-1-1.8-0.199-3.4,0.601-5.1c1.399-3.1,2.2-6.4,3.6-9.5c1-2.3,3.8-5.7,2.601-8.4c-4.9-10.5-18.2-19.5-29.101-12.3
				c-8.399,5.6-14.1,20.6-12.1,30.3C398.3,337.9,402.6,342.6,407.9,345.3z M404.699,331.5c3.2-4.9,5.4-8.5,6.801-14.4
				c1-4.1,0.8-11.1,5.699-12.8c2.9-1,5.9,0.2,8,2.3c1.301,1.3,1.301,3-0.899,2.6c-4.5-0.6-9.5-1.6-9.2,4.7c0.2,6.1,0.1,9.4-3,14.8
				c-3,5.1-1.6,8,3.7,10.2c4.5,1.9-4.101,3.1-5.601,2.8C405.4,341,401.699,336.1,404.699,331.5z"/>
			<path fill="#DA121A" d="M421.199,290.6c-0.3,3.9,0.4,5.5,4.4,6.8c4.1,1.3,4.8-2.2,4.6-5.5C430,288,428.8,284.7,425,283.1
				C419.699,280.8,421.4,287.6,421.199,290.6z"/>
		</g>
	</g>
	<g>
		<defs>
			<path id="SVGID_9_" d="M582.6,3.7c-0.8-5.1-47.5-3.4-53.3-3.5C505.199,0,135,1.4,42.2,0.6C30.9,0.5,19.7,0.8,8.5,1.4
				C0.8,1.8,0.2,3.5,0.1,11C0,28.3,0.6,45.7,0.6,63c0,45.6,0,91.1,0,136.7c0,47.2,0,94.3,0,141.5C0.6,386.7-3.1,433.6,7.7,478.1
				C28.7,564.4,85.6,627.9,162.3,670c76.4,41.9,170.8,41.4,249.2,5.3c70.199-32.3,130-90.899,156.8-164.1
				c14.3-39.101,14.399-78,14.399-119.101c0-47.2,0-94.399,0-141.6c0-41.2,0-82.3,0-123.5c0-20.3,0-40.7,0-61
				C582.699,46,585.8,23.4,582.6,3.7"/>
		</defs>
		<clipPath id="SVGID_10_">
			<use xlink:href="#SVGID_9_"  overflow="visible"/>
		</clipPath>
		<g id="_x3C_Gruppe_x3E__Grau_1_" clip-path="url(#SVGID_10_)">
			<path fill="#E7E7E7" d="M214,129.2c-6.2,1.7-11.7,7.9-16.3,12.1c-5.801,5.2-9.301,11.7-12.2,18.9c-2.601,6.7-5,14.6-5.601,21.7
				c-0.5,5.7-4.199,12.8,4,12.8c17.601-0.1,35.101,0,52.7,0c6.601,0,9.2-1.8,8.3-8.6C244,179.8,240,174.5,237.7,168.6
				c-0.2-0.5-5.301-14.4-1.5-11.5c2.399,1.8,2.6,6.7,3.399,9.3c1.2,4.2,3,8.2,4.601,12.3c1.399,3.5,3.199,6.7,3.699,10.5
				c0.7,5,2.2,4.9,7.101,4.9c6.7,0,12.399,1.9,12.2-7.1c-0.2-7.4-4.101-13.8-8-19.9c-4.101-6.4-7.9-13-12.2-19.2
				c-3.7-5.3-6.2-10.9-11.9-13.8C228.7,130.7,221.3,127.2,214,129.2z M206.3,149.2c-1.9,3.3-5.3,5.6-7.1,8.8
				c-1.601,3-2.9,6.8-3.601,10.1c-0.399,1.7-0.2,7.3-2.3,8.2c-1.7-3.1,0.8-7.2,1-10.4c0.3-4.4,1.3-6.6,4-10.1
				c4.2-5.2,6.9-13.4,12.3-17.5c0.2-0.2,0.5-0.3,0.8-0.1C211.4,141.6,207.9,146.3,206.3,149.2z"/>
			<path fill="#E7E7E7" d="M407,117.7c7.1-0.3,20,0.7,23.6-7.2c3.9-8.7-1.7-15.2-5.3-22.6c-4-8.2-7.3-16.1-16-20.1
				c-17.8-8.3-36.3-4.3-55.2-2.9c-9.8,0.7-20.1,1.7-30,0.9c-5.2-0.4-10.5-0.3-15.7-0.3c-5,0-10.1-1-15.1-0.9
				c-4.8,0.1-7.9,0.6-12.7-0.4c-4.7-0.9-10-1.6-14.8-2.1c-4.7-0.5-9-0.9-13.6-2c-4.2-1-8.9-2.2-13.301-1.8c-9,0.9-19.3,2.5-27.8,5.8
				c-4,1.5-8,1.1-11.899,2.4c-3.9,1.3-7.4,4.5-11.4,5.2c-3.9,0.7-5.7,2.5-9,4.2c-3.8,1.8-8.2,2.5-12.2,3.7
				c-4,1.2-7.399,0.3-11.399,2.3c-3.101,1.5-7.4,3.3-8.5,6.9c-1.4,4.7-1.2,16,3.399,19.1c7.101,4.8,17.5,6,25.7,7.2
				c16.4,2.5,32.2,4.5,48.9,4.3c7.5-0.1,14.8,1.2,22.3,1.4c9.399,0.3,19.6-1.4,28.8,0.3c7.2,1.3,14.6-1.3,21.8-1.2
				c8.1,0.1,16.399-1.1,24.5-1.4c19.399-0.8,39.1-0.1,58.6-0.2C389.6,118.1,398.3,118.1,407,117.7z M224.4,98.2
				c-2.899,1.4-8.6,0.5-11.8,0.4c-6.2-0.1-11.6-2.6-17.899-2.2c-3.7,0.2-30.2-1-30.5-5c-0.2-2.4,16,1.7,18,2
				c5.199,0.9,10.8,1.2,16,0.9c5-0.2,10.199,1.2,15.199,1.6c2.801,0.2,5.7,0.8,8.5,0.8C222.2,96.7,226.3,97.3,224.4,98.2z
				 M283.4,78.9c-4.3,0.8-9.399,1.3-13.699,1.2C264.4,80,258.6,82,253.4,80.5c-4.8-1.4-11.1-0.9-16.1-0.8c-6,0.1-11.9-1-17.9-0.6
				c-5,0.4-10.3-0.2-14.899-2.4c-1.7-0.8-2.8-4.2-0.101-2.7c2.101,1.2,3.5,2.1,5.9,2.6c4.4,0.9,9.6,0.5,14.1,0.4
				c5.9-0.1,13.601-0.9,19.301,0.8c5.199,1.6,11-0.1,16.399,1.1c4.3,1,10.601-1,15-1.4c5.3-0.6,11.101-1.1,16.5-0.8
				c7.399,0.4,14.7,0.8,22.2,0.7c3.5-0.1,10-0.4,13.3,1.1c2.3,1.1-2.5,1.6-3,1.6c-2.3-0.1-4.5,0.2-6.8-0.1c-5-0.6-9.7-1.4-14.8-1.2
				C296.3,79.2,289.3,77.9,283.4,78.9z M334.199,99.7c-3.8,1.1-8.1,0.2-12,0.6c-4.6,0.4-9.3,0.4-13.899,0.5
				c-4.601,0.1-9.3,0.3-13.8-0.4c-1-0.1-9.7-0.4-5-2.4c3.6-1.5,8.6-0.5,12.399-0.2c4.101,0.3,8.101,0.1,12.2-0.2
				c5-0.4,10-0.4,15-0.3C329.699,97.4,339.1,98.3,334.199,99.7z M399.699,75.7c3.301-0.5,9.301-0.1,3,1.9c-1.3,0.4-4,1.5-5.199,0.3
				C396.5,76.9,399.1,75.8,399.699,75.7z M381.1,77.6c3.1,0,6.3-1,9.4-0.3c2.8,0.6,0.6,2.2-1,2.3c-5.301,0.3-10.801-0.3-16.101-0.1
				c-1.8,0.1-12.7,0.8-12.899-1.8C360.199,74.5,379.1,77.6,381.1,77.6z M364.5,98c-5.2,0.4-10.4,1.1-15.7,1c-0.3,0-5-0.4-3.2-1.6
				c1.6-1,4.399-0.6,6.1-0.8c6.2-0.8,12.601-1.3,18.8-1.9c14.5-1.3,28.9,6.9,43.101,4.6c2.3-0.4,4.7-1.9,7.1-0.5
				c-2.2,9.6-28.7-0.6-34.399-0.4C379.1,98.6,371.8,97.4,364.5,98z"/>
			<path fill="#E7E7E7" d="M411.3,159.7c-2.101-3.2-5.9-6-8.7-8.6c-3.601-3.3-5.4-6.5-7.7-10.7c-3.2-6-8.9-11.5-15.6-12.9
				c-3.5-0.7-7.9-1.1-11,1c-1.301,0.9-2.4,1.7-3.801,2.3c-2.1,0.9-2.699,3.2-4.699,4.1c-3.801,1.7-6.4,1.7-9.7,4.9
				c-2.601,2.5-5.2,5.1-7.4,8c-5.7,7.5-9.399,15.1-9,24.7c0.2,3.6,1.601,7.2,1.8,10.8c0.2,3.1,0.101,6.6,1.601,9.4
				c1.6,3,5.5,2.3,8.399,2.2c5.5-0.1,11,0.3,16.5,0.3c9.7,0.1,19.4-0.1,29.101-0.2c4.5,0,8.899,0.1,13.399,0c5.5-0.1,4.7-3.3,4-7.6
				c-0.699-4.2-2.1-7-3.399-10.9c-1.2-3.8-1-7.4-3.2-11c-4.5-7.4-12.7-13.4-15.6-21.7c-0.9-2.4-2.601-4-4.7-5.4
				c-3.2-2.2-1.3-4,1.6-1.8c6.101,4.8,8.7,12.9,14.601,18.1c6.6,5.8,9.199,14.6,10.899,23c0.7,3.3,1.7,16.7,5.9,16.9
				c8.6,0.4,7-7.6,5.6-13.4C418.3,173.5,415.699,166.5,411.3,159.7z M361.8,184.3c-1.101,3-3-7.3-3-7.8c-0.601-3.5-1-6.4-3-9.5
				c-3.101-4.8-3.9-14.6,3.399-16.6c3.601-1-1,3.4-1.5,3.8c-2.6,2.7-2.5,6.6-1.3,9.9c1.3,3.5,3.7,6.7,4,10.5
				C360.6,177.2,362.699,182,361.8,184.3z"/>
		</g>
	</g>
</g>
</svg>
