<?xml version="1.0" encoding="UTF-8" standalone="no"?>
<!-- Created with Inkscape (http://www.inkscape.org/) -->

<svg
   xmlns:dc="http://purl.org/dc/elements/1.1/"
   xmlns:cc="http://creativecommons.org/ns#"
   xmlns:rdf="http://www.w3.org/1999/02/22-rdf-syntax-ns#"
   xmlns:svg="http://www.w3.org/2000/svg"
   xmlns="http://www.w3.org/2000/svg"
   xmlns:sodipodi="http://sodipodi.sourceforge.net/DTD/sodipodi-0.dtd"
   xmlns:inkscape="http://www.inkscape.org/namespaces/inkscape"
   version="1.0"
   width="208.86046"
   height="244.65999"
   id="svg2780"
   inkscape:version="0.92.4 (5da689c313, 2019-01-14)"
   sodipodi:docname="Altendorf_SZ-blazon.svg">
  <metadata
     id="metadata27">
    <rdf:RDF>
      <cc:Work
         rdf:about="">
        <dc:format>image/svg+xml</dc:format>
        <dc:type
           rdf:resource="http://purl.org/dc/dcmitype/StillImage" />
        <dc:title></dc:title>
      </cc:Work>
    </rdf:RDF>
  </metadata>
  <sodipodi:namedview
     pagecolor="#ffffff"
     bordercolor="#666666"
     borderopacity="1"
     objecttolerance="10"
     gridtolerance="10"
     guidetolerance="10"
     inkscape:pageopacity="0"
     inkscape:pageshadow="2"
     inkscape:window-width="3259"
     inkscape:window-height="1417"
     id="namedview25"
     showgrid="false"
     inkscape:zoom="2"
     inkscape:cx="49.14313"
     inkscape:cy="50.302001"
     inkscape:window-x="-8"
     inkscape:window-y="-8"
     inkscape:window-maximized="1"
     inkscape:current-layer="svg2780"
     inkscape:measure-start="104.255,149.787"
     inkscape:measure-end="104.255,126.383"
     showguides="true"
     inkscape:object-paths="false"
     inkscape:snap-intersection-paths="true"
     inkscape:snap-nodes="true"
     inkscape:snap-others="false" />
  <defs
     id="defs2782" />
  <path
     inkscape:connector-curvature="0"
     style="fill:#ffffff;fill-opacity:1;fill-rule:evenodd;stroke:#000000;stroke-width:1.99999988;stroke-linecap:butt;stroke-miterlimit:4;stroke-dashoffset:0;stroke-opacity:1"
     id="path4212"
     d="m 1,1 3.761095,158.00304 c 2.686489,112.85918 196.651755,112.85918 199.338255,0 L 207.86045,1 Z" />
  <g
     id="g2949"
     transform="translate(0,-2)">
    <path
       sodipodi:nodetypes="ccccc"
       inkscape:connector-curvature="0"
       d="m 95.25,37.534988 9.18024,-24.25 9.18024,24.25 -9.18024,11.125 z"
       style="opacity:1;fill:#009645;fill-opacity:1;stroke:#000000;stroke-width:1;stroke-miterlimit:8;stroke-dasharray:none;stroke-dashoffset:4.57999992;stroke-opacity:1"
       id="path2569-5" />
    <path
       sodipodi:nodetypes="ccccc"
       inkscape:connector-curvature="0"
       d="M 60.445356,76.161708 40.219085,59.937118 66.119056,58.699853 73.86271,70.868595 Z"
       style="opacity:1;fill:#009645;fill-opacity:1;stroke:#000000;stroke-width:1;stroke-miterlimit:8;stroke-dasharray:none;stroke-dashoffset:4.57999992;stroke-opacity:1"
       id="path2569-5-3" />
    <path
       sodipodi:nodetypes="ccccc"
       inkscape:connector-curvature="0"
       d="m 86.426324,121.19921 -21.680763,14.22265 6.826822,-25.01467 13.966081,-3.6043 z"
       style="opacity:1;fill:#009645;fill-opacity:1;stroke:#000000;stroke-width:1;stroke-miterlimit:8;stroke-dasharray:none;stroke-dashoffset:4.57999992;stroke-opacity:1"
       id="path2569-5-6" />
    <path
       sodipodi:nodetypes="ccccc"
       inkscape:connector-curvature="0"
       d="m 142.74142,58.699843 25.89997,1.237267 -20.22627,16.224588 -13.41736,-5.293115 z"
       style="opacity:1;fill:#009645;fill-opacity:1;stroke:#000000;stroke-width:1;stroke-miterlimit:8;stroke-dasharray:none;stroke-dashoffset:4.57999992;stroke-opacity:1"
       id="path2569-5-36" />
    <path
       sodipodi:nodetypes="ccccc"
       inkscape:connector-curvature="0"
       d="m 137.25121,110.45792 6.82682,25.01467 -21.68076,-14.22265 0.88786,-14.39632 z"
       style="opacity:1;fill:#009645;fill-opacity:1;stroke:#000000;stroke-width:1;stroke-miterlimit:8;stroke-dasharray:none;stroke-dashoffset:4.57999992;stroke-opacity:1"
       id="path2569-5-9" />
    <path
       sodipodi:nodetypes="cccsccsccsccscc"
       inkscape:connector-curvature="0"
       id="path2792"
       d="m 97.584053,132.07252 c 0.131406,6.81215 0.53653,13.96182 1.797229,20.83747 -5.622089,-6.08647 -10.910517,-8.19935 -16.318782,-10.25 6.82028,7.90127 14.960173,19.41324 17.78025,28.2799 2.51538,7.90864 2.42276,18.55201 1.84475,29.4076 -3.471238,-7.85749 -8.132277,-11.09653 -13.375,-15.25 4.481396,8.544 10.687067,21.43731 10.663596,29.17529 -0.0099,3.27079 -1.734357,8.24767 -3.913596,11.51221 l 11.75,9.8125 c 6.4523,-15.81176 8.26162,-32.44839 8.11167,-47.84651 -0.0934,-9.58941 8.4073,-20.6173 13.26333,-29.09099 -6.81833,1.99915 -11.13032,5.7107 -14.74242,10.44064 -0.98708,-3.8022 -2.66598,-13.72913 -3.42363,-20.37814 -0.5937,-5.21019 -1.17835,-16.11114 -1.07009,-16.11114 z"
       style="opacity:1;fill:#009645;fill-opacity:1;stroke:#000000;stroke-width:1;stroke-miterlimit:8;stroke-dasharray:none;stroke-dashoffset:4.57999992;stroke-opacity:1" />
    <path
       sodipodi:nodetypes="cscsc"
       inkscape:connector-curvature="0"
       d="m 108.3702,86.223514 17.00904,23.410926 c 8.15552,11.22511 -2.94774,25.82791 -20.94899,25.82791 -18.001263,1e-5 -29.104516,-14.60279 -20.949,-25.8279 l 17.00904,-23.410926 3.93995,-5.422938 z"
       style="opacity:1;fill:#cc2918;fill-opacity:1;stroke:#000000;stroke-width:1;stroke-miterlimit:8;stroke-dasharray:none;stroke-dashoffset:4.57999992;stroke-opacity:1"
       id="path2590-7-5" />
    <path
       sodipodi:nodetypes="ccccccc"
       inkscape:connector-curvature="0"
       d="m 81.007566,120.16432 c 0.784309,4.54 6.009756,7.61935 10.498001,7.87797 2.929197,0.1688 5.403575,-0.98657 7.243327,-3.11287 1.358996,-1.57066 3.360786,-2.93867 5.681346,-2.93867 2.32058,-1e-5 4.32236,1.36801 5.68136,2.93866 1.83975,2.12631 4.31413,3.28167 7.24332,3.11287 4.48825,-0.25862 9.7137,-3.33797 10.498,-7.87797"
       style="opacity:1;fill:none;fill-opacity:1;stroke:#000000;stroke-width:1;stroke-miterlimit:8;stroke-dasharray:none;stroke-dashoffset:4.57999992;stroke-opacity:1"
       id="path2592-7-5" />
    <path
       sodipodi:nodetypes="cscsc"
       inkscape:connector-curvature="0"
       d="m 110.80526,78.729238 27.5212,-8.942184 c 13.1959,-4.287611 23.6529,10.78473 18.0902,27.904936 -5.56268,17.12022 -22.88186,23.16753 -31.03738,11.94242 l -17.00904,-23.410929 -3.94,-5.422895 z"
       style="opacity:1;fill:#cc2918;fill-opacity:1;stroke:#000000;stroke-width:1;stroke-miterlimit:8;stroke-dasharray:none;stroke-dashoffset:4.57999992;stroke-opacity:1"
       id="path2590-7-5-2" />
    <path
       sodipodi:nodetypes="ccccccc"
       inkscape:connector-curvature="0"
       d="m 134.62937,115.24093 c 4.56016,0.65702 9.10355,-3.36111 10.73645,-7.54976 1.06571,-2.73368 0.73152,-5.44398 -0.7222,-7.85075 -1.07384,-1.777837 -1.7563,-4.10439 -1.03921,-6.311374 0.71709,-2.207006 2.63674,-3.68807 4.55047,-4.495199 2.59075,-1.09264 4.45419,-3.088889 5.19882,-5.926877 1.14098,-4.348497 -0.1729,-10.269767 -4.24833,-12.418618"
       style="opacity:1;fill:none;fill-opacity:1;stroke:#000000;stroke-width:1;stroke-miterlimit:8;stroke-dasharray:none;stroke-dashoffset:4.57999992;stroke-opacity:1"
       id="path2592-7-5-9" />
    <path
       sodipodi:nodetypes="cscsc"
       inkscape:connector-curvature="0"
       d="M 104.43025,74.097508 V 45.160004 c 0,-13.875 17.56603,-19.16258 32.12935,-8.581703 14.56333,10.580862 14.96274,28.921101 1.76684,33.208714 l -27.5212,8.942183 -6.37501,2.071396 z"
       style="opacity:1;fill:#cc2918;fill-opacity:1;stroke:#000000;stroke-width:1;stroke-miterlimit:8;stroke-dasharray:none;stroke-dashoffset:4.57999992;stroke-opacity:1"
       id="path2590-7-5-8" />
    <path
       sodipodi:nodetypes="ccccccc"
       inkscape:connector-curvature="0"
       d="m 146.51699,62.722166 c 2.03402,-4.133941 -0.38346,-9.696631 -3.86251,-12.543976 -2.27055,-1.858302 -4.95147,-2.377998 -7.68967,-1.739161 -2.02266,0.471892 -4.44624,0.402014 -6.32361,-0.961974 -1.87739,-1.363996 -2.69276,-3.647365 -2.86901,-5.716847 -0.23858,-2.801595 -1.56129,-5.190706 -4.03028,-6.775878 -3.78308,-2.428896 -9.82055,-3.009094 -13.12361,0.202839"
       style="opacity:1;fill:none;fill-opacity:1;stroke:#000000;stroke-width:1;stroke-miterlimit:8;stroke-dasharray:none;stroke-dashoffset:4.57999992;stroke-opacity:1"
       id="path2592-7-5-7" />
    <path
       sodipodi:nodetypes="cscsc"
       inkscape:connector-curvature="0"
       d="M 100.49024,86.223476 83.481208,109.63441 C 75.325688,120.85952 58.006506,114.8122 52.443815,97.692003 46.881114,80.571787 57.3381,65.499448 70.534009,69.78706 l 27.5212,8.94218 6.375031,2.071335 z"
       style="opacity:1;fill:#cc2918;fill-opacity:1;stroke:#000000;stroke-width:1;stroke-miterlimit:8;stroke-dasharray:none;stroke-dashoffset:4.57999992;stroke-opacity:1"
       id="path2590-7-5-9" />
    <path
       sodipodi:nodetypes="ccccccc"
       inkscape:connector-curvature="0"
       d="m 59.755095,70.688348 c -4.075427,2.148864 -5.389319,8.070126 -4.248329,12.418619 0.74464,2.837999 2.60808,4.834247 5.19883,5.92689 1.913735,0.807124 3.833373,2.288193 4.550472,4.495179 0.717103,2.206999 0.03462,4.533545 -1.039201,6.311389 -1.45372,2.406775 -1.787909,5.117075 -0.7222,7.850735 1.6329,4.18867 6.176296,8.20679 10.73645,7.54977"
       style="opacity:1;fill:none;fill-opacity:1;stroke:#000000;stroke-width:1;stroke-miterlimit:8;stroke-dasharray:none;stroke-dashoffset:4.57999992;stroke-opacity:1"
       id="path2592-7-5-71" />
    <path
       sodipodi:nodetypes="cscsc"
       inkscape:connector-curvature="0"
       d="M 98.01835,78.779936 70.497147,69.837759 C 57.301245,65.550154 57.700654,47.209906 72.263979,36.629036 86.827294,26.048152 104.39332,31.335737 104.39333,45.210741 v 28.937494 l 3e-5,6.703094 z"
       style="opacity:1;fill:#cc2918;fill-opacity:1;stroke:#000000;stroke-width:1;stroke-miterlimit:8;stroke-dasharray:none;stroke-dashoffset:4.57999992;stroke-opacity:1"
       id="path2590-7-5-1" />
    <path
       sodipodi:nodetypes="ccccccc"
       inkscape:connector-curvature="0"
       d="m 100.20528,35.237894 c -3.303066,-3.211935 -9.340531,-2.631738 -13.123616,-0.202836 -2.468988,1.585174 -3.791689,3.974289 -4.030278,6.77588 -0.176234,2.069489 -0.991628,4.352854 -2.868997,5.716844 -1.877385,1.364016 -4.300962,1.433878 -6.32362,0.961997 -2.738197,-0.638847 -5.419117,-0.119151 -7.689665,1.739153 -3.479053,2.847353 -5.896537,8.410042 -3.862508,12.543977"
       style="opacity:1;fill:none;fill-opacity:1;stroke:#000000;stroke-width:1;stroke-miterlimit:8;stroke-dasharray:none;stroke-dashoffset:4.57999992;stroke-opacity:1"
       id="path2592-7-5-8" />
    <path
       sodipodi:nodetypes="ccccscscccc"
       inkscape:connector-curvature="0"
       d="m 110.33435,88.926613 c -4.23368,3.075941 -4.90804,5.549412 -5.90409,10.966951 -0.99605,-5.417256 -1.67041,-7.890735 -5.904093,-10.96668 -4.23367,-3.075945 -6.79447,-2.952956 -12.254545,-2.226199 4.844425,-2.621386 6.988455,-4.027086 8.605575,-9.004069 1.61712,-4.976984 0.70882,-7.374445 -1.66961,-12.342691 3.99011,3.797285 5.989546,5.401989 11.222653,5.401989 5.23311,0 7.23255,-1.604704 11.22266,-5.401988 -2.37842,4.968243 -3.28673,7.365712 -1.6696,12.342692 1.61711,4.976987 3.76113,6.382686 8.60558,9.003925 -5.46005,-0.726887 -8.02086,-0.849879 -12.25453,2.22607 z"
       style="opacity:1;fill:#000000;fill-opacity:1;stroke:#000000;stroke-width:1;stroke-miterlimit:8;stroke-dasharray:none;stroke-dashoffset:4.57999992;stroke-opacity:1"
       id="path2594-0-01" />
    <path
       sodipodi:nodetypes="ccccscccccc"
       inkscape:connector-curvature="0"
       d="m 110.33435,88.926903 c 2.07209,-1.505461 2.12944,-4.16016 1.29389,-5.78755 1.63253,-0.825461 3.14652,-3.006867 2.35505,-5.442755 -0.79146,-2.435876 -3.29851,-3.310766 -5.10444,-3.018994 -0.28058,-1.8077 -1.88737,-3.92169 -4.44861,-3.92169 -2.56124,0 -4.16803,2.11399 -4.448614,3.921697 -1.80594,-0.291764 -4.31299,0.583125 -5.104452,3.019009 -0.791466,2.435882 0.722532,4.617289 2.355056,5.442749 -0.835556,1.627387 -0.778206,4.28208 1.293874,5.787542 2.072096,1.505462 4.614586,0.739654 5.904126,-0.557899 1.28954,1.297538 3.83203,2.063343 5.90412,0.557891 z"
       style="opacity:1;fill:#feeb00;fill-opacity:1;stroke:#000000;stroke-width:1;stroke-miterlimit:8;stroke-dasharray:none;stroke-dashoffset:4.57999992;stroke-opacity:1"
       id="path2846-8-7-1" />
  </g>
</svg>
