<?xml version="1.0" encoding="UTF-8" standalone="no"?>
<!-- Created with Inkscape (http://www.inkscape.org/) -->

<svg
   xmlns:dc="http://purl.org/dc/elements/1.1/"
   xmlns:cc="http://creativecommons.org/ns#"
   xmlns:rdf="http://www.w3.org/1999/02/22-rdf-syntax-ns#"
   xmlns:svg="http://www.w3.org/2000/svg"
   xmlns="http://www.w3.org/2000/svg"
   xmlns:sodipodi="http://sodipodi.sourceforge.net/DTD/sodipodi-0.dtd"
   xmlns:inkscape="http://www.inkscape.org/namespaces/inkscape"
   version="1.0"
   width="208.86046"
   height="244.65999"
   id="svg2780"
   inkscape:version="0.92.4 (5da689c313, 2019-01-14)"
   sodipodi:docname="Niederbuchsiten-blazon.svg">
  <metadata
     id="metadata27">
    <rdf:RDF>
      <cc:Work
         rdf:about="">
        <dc:format>image/svg+xml</dc:format>
        <dc:type
           rdf:resource="http://purl.org/dc/dcmitype/StillImage" />
        <dc:title />
      </cc:Work>
    </rdf:RDF>
  </metadata>
  <sodipodi:namedview
     pagecolor="#ffffff"
     bordercolor="#666666"
     borderopacity="1"
     objecttolerance="10"
     gridtolerance="10"
     guidetolerance="10"
     inkscape:pageopacity="0"
     inkscape:pageshadow="2"
     inkscape:window-width="3259"
     inkscape:window-height="1417"
     id="namedview25"
     showgrid="false"
     inkscape:zoom="2"
     inkscape:cx="72.145065"
     inkscape:cy="124.55424"
     inkscape:window-x="-8"
     inkscape:window-y="-8"
     inkscape:window-maximized="1"
     inkscape:current-layer="svg2780"
     inkscape:measure-start="104.255,149.787"
     inkscape:measure-end="104.255,126.383"
     showguides="true"
     inkscape:object-paths="true"
     inkscape:snap-intersection-paths="true" />
  <defs
     id="defs2782" />
  <path
     inkscape:connector-curvature="0"
     style="fill:#1b63c6;fill-opacity:1;fill-rule:evenodd;stroke:#000000;stroke-width:1.99999988;stroke-linecap:butt;stroke-miterlimit:4;stroke-dashoffset:0;stroke-opacity:1"
     id="path4212-7"
     d="M 1,0.99999834 4.761095,159.00304 c 2.686489,112.85918 196.651755,112.85918 199.338255,0 l 3.7611,-158.00304166 z" />
  <g
     id="g46768">
    <path
       sodipodi:nodetypes="cccccc"
       inkscape:connector-curvature="0"
       d="M 73.250001,199.65999 190.75,135.90999 c 4.67823,-11.36601 4.57382,-23.60096 0,-34 l -57.5,-57.5 -117.5,63.75 57.500001,57.5 -2.292225,31.70778 z"
       style="opacity:1;fill:#cc2918;fill-opacity:1;stroke:#000000;stroke-width:1;stroke-miterlimit:12;stroke-dasharray:none;stroke-dashoffset:4.57999992;stroke-opacity:1"
       id="path46139" />
    <path
       inkscape:connector-curvature="0"
       id="path46032"
       d="M 73.250001,165.65999 190.75,101.90999"
       style="opacity:1;fill:none;fill-opacity:1;stroke:#000000;stroke-width:1;stroke-miterlimit:12;stroke-dasharray:none;stroke-dashoffset:4.57999992;stroke-opacity:1" />
    <path
       inkscape:connector-curvature="0"
       id="path46032-5-3"
       d="m 73.250001,199.65999 c 4.678222,-11.36601 4.573813,-23.60096 0,-34"
       style="opacity:1;fill:none;fill-opacity:1;stroke:#000000;stroke-width:1;stroke-miterlimit:12;stroke-dasharray:none;stroke-dashoffset:4.57999992;stroke-opacity:1" />
    <path
       sodipodi:nodetypes="cc"
       inkscape:connector-curvature="0"
       id="path46049-3-0"
       d="m 170.75,146.76105 c 4.67823,-11.36601 4.57382,-23.60096 0,-34"
       style="opacity:1;fill:none;fill-opacity:1;stroke:#000000;stroke-width:1;stroke-miterlimit:12;stroke-dasharray:none;stroke-dashoffset:4.57999992;stroke-opacity:1" />
    <path
       sodipodi:nodetypes="cc"
       inkscape:connector-curvature="0"
       id="path46049-3-8"
       d="m 110.75,179.31425 c 4.67823,-11.36601 4.57382,-23.60096 0,-34"
       style="opacity:1;fill:none;fill-opacity:1;stroke:#000000;stroke-width:1;stroke-miterlimit:12;stroke-dasharray:none;stroke-dashoffset:4.57999992;stroke-opacity:1" />
    <path
       sodipodi:nodetypes="cc"
       inkscape:connector-curvature="0"
       id="path46049-3-4"
       d="m 162.75,151.10148 c 4.67823,-11.36601 4.57382,-23.60096 0,-34"
       style="opacity:1;fill:none;fill-opacity:1;stroke:#000000;stroke-width:1;stroke-miterlimit:12;stroke-dasharray:none;stroke-dashoffset:4.57999992;stroke-opacity:1" />
    <path
       sodipodi:nodetypes="cc"
       inkscape:connector-curvature="0"
       id="path46049-3-46"
       d="m 102.75,183.65467 c 4.67823,-11.36601 4.57382,-23.60096 0,-34"
       style="opacity:1;fill:none;fill-opacity:1;stroke:#000000;stroke-width:1;stroke-miterlimit:12;stroke-dasharray:none;stroke-dashoffset:4.57999992;stroke-opacity:1" />
    <path
       sodipodi:nodetypes="ccccc"
       inkscape:connector-curvature="0"
       d="m 15.75,142.15999 57.500001,57.5 c 4.678222,-11.36601 4.573813,-23.60096 0,-34 L 15.75,108.15999 c 7.162524,8.71016 7.302781,29.86508 0,34 z"
       style="opacity:1;fill:#feeb00;fill-opacity:1;stroke:#000000;stroke-width:1;stroke-miterlimit:12;stroke-dasharray:none;stroke-dashoffset:4.57999992;stroke-opacity:1"
       id="path46032-5-3-1" />
  </g>
  <g
     id="g46753"
     transform="translate(0,2)">
    <path
       sodipodi:nodetypes="sssssssss"
       inkscape:connector-curvature="0"
       id="path45983"
       d="m 77.793674,91.270512 c -3.458003,-0.07253 -7.262869,-1.995888 -11.75565,-1.555298 -11.759652,1.153225 -15.186004,13.683496 -14.760855,21.478366 0.50644,9.2853 9.621371,19.69974 14.849243,19.79899 5.070833,0.0963 5.61491,-1.36386 7.844466,-1.25953 2.418149,0.11316 3.535643,2.47576 8.021242,2.67374 9.66861,0.42675 19.83292,-16.49433 19.25572,-24.87915 -0.93126,-13.528237 -10.476454,-16.194989 -14.438554,-17.016921 -3.839291,-0.796456 -5.180785,0.840234 -9.015612,0.759803 z"
       style="opacity:1;fill:#feeb00;fill-opacity:1;stroke:#000000;stroke-width:1;stroke-miterlimit:12;stroke-dasharray:none;stroke-dashoffset:4.57999992;stroke-opacity:1" />
    <path
       sodipodi:nodetypes="cssscc"
       inkscape:connector-curvature="0"
       id="path45985"
       d="m 73.622841,81.152628 c 2.149524,3.315476 2.353948,6.997123 3.078125,10.609375 0.243239,1.213295 1.661743,1.997727 2.953125,1.953125 1.498023,-0.05174 1.759932,-1.053218 1.75,-1.9375 -0.05756,-5.124919 -0.560605,-9.339493 -3.0625,-10.90625 z"
       style="opacity:1;fill:#feeb00;fill-opacity:1;stroke:#000000;stroke-width:1;stroke-miterlimit:12;stroke-dasharray:none;stroke-dashoffset:4.57999992;stroke-opacity:1" />
    <path
       sodipodi:nodetypes="csc"
       inkscape:connector-curvature="0"
       id="path45987"
       d="m 71.872841,93.215128 c -0.06489,2.511282 5.846366,4.965738 8.5,4.875 3.811626,-0.130334 7.952868,-2.09337 7.0625,-5.3125"
       style="opacity:1;fill:none;fill-opacity:1;stroke:#000000;stroke-width:1;stroke-miterlimit:12;stroke-dasharray:none;stroke-dashoffset:4.57999992;stroke-opacity:1" />
  </g>
  <g
     id="g46758"
     transform="translate(-2.2980971,1.76777)">
    <path
       sodipodi:nodetypes="sssssssss"
       inkscape:connector-curvature="0"
       id="path45983-2"
       d="m 128.93665,86.102552 c 3.458,-0.07253 7.26287,-1.995888 11.75565,-1.555298 11.75965,1.153225 15.186,13.683494 14.76086,21.478366 -0.50644,9.2853 -9.62138,19.69974 -14.84925,19.79899 -5.07083,0.0963 -5.61491,-1.36386 -7.84446,-1.25953 -2.41815,0.11316 -3.53565,2.47576 -8.02125,2.67374 -9.66861,0.42675 -19.83292,-16.49433 -19.25572,-24.87915 0.93126,-13.528237 10.47646,-16.194989 14.43856,-17.016921 3.83929,-0.796456 5.18078,0.840234 9.01561,0.759803 z"
       style="opacity:1;fill:#feeb00;fill-opacity:1;stroke:#000000;stroke-width:1;stroke-miterlimit:12;stroke-dasharray:none;stroke-dashoffset:4.57999992;stroke-opacity:1" />
    <path
       sodipodi:nodetypes="cssscc"
       inkscape:connector-curvature="0"
       id="path45985-1"
       d="m 133.10748,75.984668 c -2.14952,3.315476 -2.35394,6.997123 -3.07812,10.609375 -0.24324,1.213295 -1.66174,1.997727 -2.95313,1.953125 -1.49802,-0.05174 -1.75993,-1.053218 -1.75,-1.9375 0.0576,-5.124919 0.56061,-9.339493 3.0625,-10.90625 z"
       style="opacity:1;fill:#feeb00;fill-opacity:1;stroke:#000000;stroke-width:1;stroke-miterlimit:12;stroke-dasharray:none;stroke-dashoffset:4.57999992;stroke-opacity:1" />
    <path
       sodipodi:nodetypes="csc"
       inkscape:connector-curvature="0"
       id="path45987-4"
       d="m 134.85748,88.047168 c 0.0649,2.511282 -5.84636,4.965738 -8.5,4.875 -3.81162,-0.130334 -7.95286,-2.09337 -7.0625,-5.3125"
       style="opacity:1;fill:none;fill-opacity:1;stroke:#000000;stroke-width:1;stroke-miterlimit:12;stroke-dasharray:none;stroke-dashoffset:4.57999992;stroke-opacity:1" />
  </g>
  <g
     id="g46164"
     transform="matrix(0.94363405,-0.17444687,0.17444072,0.94366733,-11.105572,26.335674)"
     style="stroke-width:1.04205835">
    <path
       sodipodi:nodetypes="sssssssss"
       inkscape:connector-curvature="0"
       id="path45983-6"
       d="m 108.60107,43.852921 c -3.458,-0.07253 -7.26287,-1.995888 -11.755647,-1.555298 -11.759649,1.153225 -15.186001,13.683494 -14.760852,21.478367 0.50644,9.2853 8.146362,19.427069 13.374233,19.526319 5.070826,0.0963 7.089916,-1.091189 9.319476,-0.986859 2.41815,0.11316 3.53564,2.47576 8.02124,2.67374 9.66861,0.42675 19.83292,-16.49433 19.25572,-24.87915 -0.93126,-13.528238 -10.47645,-16.19499 -14.43855,-17.016922 -3.8393,-0.796456 -5.18079,0.840234 -9.01562,0.759803 z"
       style="opacity:1;fill:#feeb00;fill-opacity:1;stroke:#000000;stroke-width:1.04205835;stroke-miterlimit:12;stroke-dasharray:none;stroke-dashoffset:4.57999992;stroke-opacity:1" />
    <path
       sodipodi:nodetypes="cssscc"
       inkscape:connector-curvature="0"
       id="path45985-6"
       d="m 105.65509,33.916521 c 2.00163,3.872395 1.64325,6.861557 1.85328,10.427891 0.0727,1.235295 1.66174,1.997727 2.95312,1.953125 1.49802,-0.05174 1.75736,-1.053193 1.75,-1.9375 -0.0297,-3.570151 0.0646,-6.886877 -1.83765,-10.724766 z"
       style="opacity:1;fill:#feeb00;fill-opacity:1;stroke:#000000;stroke-width:1.04205835;stroke-miterlimit:12;stroke-dasharray:none;stroke-dashoffset:4.57999992;stroke-opacity:1" />
    <path
       sodipodi:nodetypes="csc"
       inkscape:connector-curvature="0"
       id="path45987-6"
       d="m 102.68024,45.797537 c -0.0649,2.511282 5.15579,4.568419 7.80942,4.477681 3.81163,-0.130334 6.75908,-0.741052 7.51681,-3.880226"
       style="opacity:1;fill:none;fill-opacity:1;stroke:#000000;stroke-width:1.04205835;stroke-miterlimit:12;stroke-dasharray:none;stroke-dashoffset:4.57999992;stroke-opacity:1" />
  </g>
</svg>
