<?xml version="1.0" encoding="UTF-8" standalone="no"?>
<svg xmlns="http://www.w3.org/2000/svg" width="488" height="648">
 <path d="m442.22 169.09h-396.62l-1.692 269.43c-.628 99.99 79.18 203.48 201.67 203.48 122.49 0 199.19-102.78 198.5-202.77l-1.865-270.15" fill="#0f47af"/>
 <g fill-rule="evenodd">
  <path d="m43.913 418.52l1.692-249.43 198.31-.566c0 100-80 290-186.9 340-11.47-21.681-13.1-60-13.1-90" fill="#fff"/>
  <path d="m443.91 418.52l-1.692-249.43-198.31-.566c0 100 80 290 186.9 340 11.47-21.681 13.1-60 13.1-90" fill="#fcdd09"/>
  <g stroke="#000" stroke-linejoin="round" stroke-linecap="round">
   <path d="m123.91 258.52h-80v40h80v158.3c14.614-16.384 29.06-35.05 40-52.8v-105.5h52c4.856-12.266 9.249-25.519 13.367-40h-65.37v-90l-40 .283z" fill="#da121a" stroke-width="3"/>
   <path d="m293.01 200.77l109.38 15.354-35.36 150.91 52.716 38.03-92.5-21.669 34.21-146.05z" stroke-width="2"/>
   <path d="m430.81 508.52c-106.9-50-186.9-240-186.9-340 0 100-80 290-186.9 340" fill="none" stroke-width="3"/>
  </g>
 </g>
 <g stroke="#000">
  <g stroke-linejoin="round" stroke-linecap="round">
   <g stroke-width="2">
    <g fill="#fcdd09">
     <circle r="29.515" cy="333.09" cx="243.87"/>
     <ellipse ry="17.217" rx="17.217" cy="391.29" cx="280.71"/>
     <path d="m171.2 578.76c5 0 35 25 70 25 35 0 65-25 70-25 0 5-30 45-70 45-40 0-70-40-70-45z" fill-rule="evenodd"/>
    </g>
    <path d="m220.92 325c.838-1.159 10.616-.848 10.286 2.729-.205 2.221.418 4.958 2.777 6.05 2.131.985 6.249 1.118 6.829-2.105.696-3.868-6.746-2.845-6.52-6.779.103-1.798 4.384-2.414 4.807-4.492.651-3.203 1.326-6.843 3.65-6.86 2.324.016 2.999 3.656 3.65 6.86.423 2.078 4.704 2.694 4.807 4.492.226 3.935-7.216 2.911-6.52 6.779.58 3.224 4.698 3.091 6.829 2.105 2.359-1.091 2.982-3.827 2.777-6.05-.33-3.577 9.448-3.888 10.286-2.729-5.935 6.706-8.379 12.01-10.532 17.762 6.068 15.12 3.224 30.13 2.089 45.953l7.358 2.578c1.512 8.225 4.06 15.841 17.217 17.217.743-2.732-.273-5.607-4.438-5.34-2.108.136-1.947-1.125-1.725-2.9.267-2.137-2.02-1.564-2.152-2.684-.453-3.824-2.636-5.195-.856-7.828 3.364-4.974 10.04-6.335 15.927-2.611 2.945 1.862 2.983 6.321-.036 12.06.876 2.752 1.752 5.465 2.628 10.592 4.915 1.638 1.198 11.145 1.86 17.316 2.337.753 4.844.912 7.01 5.536 1.259 2.685 1.66 9.138.483 15.678-2.466 13.708-2.795 35.832-15.265 29.929-2.59-1.226-5.517-17.771-7.68-27.834l-5.19 88.16c-.397 6.741-1.895 12.804-4.731 5.987-1.225 11.221-1.056 25.825-8.846 21.1-3.88 16.903-8.67 34.808 1.772 35.958-15.6 3.904-31.588 1.202-47.676-3.194-1.052-9.628 1.089-19.783-3.462-31.16-10.242-4.442-9.423-36.03-9.642-46.971-.443-22.1-2.948-49.09-3.655-74.67-.521-18.846 1.844-35.515 15.666-52.22 10.4-12.569 16.611-30.36 19.843-50.39-2.152-5.755-3.695-11.318-9.63-18.02z" fill="#fff" fill-rule="evenodd"/>
   </g>
   <g fill-rule="evenodd" stroke-width="3">
    <path d="m439.5 168.52l44.26-103.53c-16.862-10.152-34.899-19.02-53.812-26.618l-15.7 38.06c-12.403-4.662-22.11-7.526-30.84-9.741l12.02-40.492c-21.289-6.53-43.38-11.602-65.921-15.227l-5.05 43.3c-10.734-1.399-18.758-2.567-32.419-3.965l2.185-43.801c-32.995-3.071-66.51-3.149-99.6-.255l2.136 43.817c-13.489 1.336-20.783 2.21-31.27 3.545l-6.06-43.11c-22.668 3.509-44.802 8.446-66.09 14.806l11.946 40.603c-13.692 3.908-22.18 6.659-30.449 9.362l-16.392-37.942c-19.13 7.534-37.16 16.245-53.944 26.19l45 105c60.64-24.707 118.26-38.31 175.57-40.824l-.232-35.31c-.337-8.87 9.663-18.87 19.663-18.87 10 0 20 10 19.663 18.87l.337 36.13c56.69 2.412 116.25 16.07 175 40z" fill="#fff"/>
    <path d="m465.35 77.29l-7.847 16.847m-23.461-31.15l-7.539 17.15m.079 55.31l-9.694 24.15m-.079-55.924l-8.924 23.769m-52.38-66.923l-4 24m51-12l-7 22.847m51.15-5.308l-8.771 20.539m21.232-58.54l-7.616 17.08m-76-26.616l-5.308 19.847m-25.692-26.847l-4 20.847m22.616-38.539l-4.616 20.692m-78.38-11l-.616 21m-15-44l-1 22m-37-22l1 22m-16 1l1 21m-65-14l3 21m-36-14l5 21m5-45l5 20m-99 13l8 17m13.861-5.745l8.139 18.745m73-21l5 24m-52-12l8 23m-48.927-7.877l8.927 21.877m61-19l7 26m-48-14l8.875 24.885m20.12-5.885l8 26m-51.889-11.651l10.473 25.649m109.47-107.39l2.949 24.387m126-25l-1.231 24.847m-145.77 3.153l4 27m-23 4l6 26m35.01-32.19l2.993 25.19m140-50l-3 27m51.616-15.616l-6.616 24.616m18.08 5.077l-7.155 25.23m-31.923-34.31l-4 26m-36.995-33.13l-3.01 26.13m-16-55l-24 12m7-30l-14 19m-55-2l24 13m-7.838-29.878l14.838 18.878m12-51v47m-45 55v-40c0-20 24.946-39.613 45-40 20.05.387 45 20 45 40v40m-266-53l8 17m7.252 51.16c48.22-22 103.67-35.34 160.68-39.834l25.07-.323m40 0l25.04.104c56.51 4.916 113.12 19.391 160.17 41.3m-420.92-24.527c51.3-25.23 111.6-40.23 173.63-44.781m84.17.227c61.46 4.852 121.42 20.03 172.82 45.765m-439.73-22.573c17.449-9.195 36.04-17.16 55.46-23.873m30.35-9.311c18.452-4.975 40.639-9.361 59.992-12.245m31.487-3.564c31.503-2.627 63.51-2.551 95.06.258m32.419 3.965c19.348 2.998 40.461 7.289 58.956 12.42m30.84 9.741c19.05 6.787 36.18 14.11 53.41 23.366m-455.41-18.729c16.989-9.478 35.15-17.741 54.17-24.781m32.947-10.736c19.922-5.661 40.544-10.09 61.57-13.28m34.679-4.109c32.372-2.78 65.29-2.704 97.72.26m34.933 4.351c20.833 3.3 41.3 7.834 61.1 13.612m32.68 10.908c18.899 7.149 36.983 15.536 53.968 25.17" fill="none"/>
   </g>
   <path d="m442.22 169.09h-396.62v269.43c0 99.99 76.7 203.48 199.18 203.48 122.49 0 197.44-102.77 197.44-202.77v-270.15" fill="none" stroke-width="6"/>
  </g>
  <path d="m230.55 343.02l23.498-.261m-18.945.211c-3.94 19.16-9.819 54.845-11.819 57.48-11.657 15.332-19.402 30.535-19.02 48 .65 29.424 2.687 79.1 4.07 118.83m49.37-1.604c1.595-16.534 2.693-34.394 3.243-53.713-4.494 24.25-16.176 45.1-27.14 66.28-6.346 12.26-19.53 17.385-19.624-34.904l-.131-72.55c-2.426-6.514-6.01-7.837-9.367-10.143m10.844-6.288c-.053 5.807 2.321 13.433-1.477 16.431 5.355.244 6.914 8.08 10.339 12.185.11-3.146 1.29-5.651 3.139-7.754 6.248 2.714 5.826 27.25 6.917 40.07 2.847 33.466 12.04 14.676 17.269 2.212m-27.324-34.524c.933 24.21-1.23 49.584 4.714 71.917m27.491-26.06c-4.787 26.02-9.285 52.897-15.397 74.938m25.349-59.2c.747-33.11.979-63.65 1.413-95.2m-9.444 15.533c-5.762 14.707-9.972 35.1-17.285 44.12m16.957-93.66c.257-1.228.271-2.437-.004-3.48-1.066-4.047-4.02-7.464-9.987-7.122-5.964.343-8.444 6.611-7.66 10.955.705 3.906 4.532 7.07 8.935 7.291m-1.274-26.25v8m-3-5h6m-26.05 39.852c8.08-2.536 19.19-2.341 25.83-8.151 3.723-3.256 5.33-8.651 7.35-15.881-4.074-.71-7.57 9.68-17.495 12.602 1.612-5.217.899-12.691-.55-11.814-5.117 3.097-1.83 10.697-5.921 12.877-7.48 3.986-17.963 1.196-25.17-1.76m25.487 10.05c-1.068 14.587-.407 30.739-7.152 37.686-4.837-1.105-1.966-29.339-2.932-44.01m-5.788-.72c-.311 4.464-.601 8.143-1.25 10.582l-4.823.793c-.921-3.037-.555-7.414-.445-13.2m75.05-6.802c-5.059 3.606-9.496 8.02-17.354 7.114-7.087-.821-14.791-4.128-12.653-9.168 1.343-3.164 7.299 1.917 10.622 2.229 6.05 1.279 12.346.593 16.616-8.299 1.67-3.478 3.622-3.805 5.482-3.943m-11.667-1.309c-.759 5.687-.356 13.33-10.431 13.551m-.932-20.15c-1.472 1.406-1.727 6.869-2.206 11.585m14.824 13.683c-3.488 3.036-1.878 8.248-12.609 8.188-8.824-.049-11.499 3.261-12 8.308-.536 5.392-1 10.522-4.062 12.37-1.539.93-6.257.05-6.831 2.215-.692 2.612 3.526 2.68 6.354 2.594-2.627 2.255-5.05 5.424 2.387 5.128 4.72-.188 9.417-1.927 11.01-5.507l4.584-12.644c4.94 2.263 9.145 3.649 15.171 2.305 6.883-1.112 13.561-9.143 16.413-12.29-3.343 8.481-7.354 18.967-9.767 24.659-2.37-2.3-2.855-7.992-3.548-13.309m-3.098.939c.163 6.129 1.544 18.88 2.954 18.462 1.736-.514 2.609-3.62 3.692-6.092m-17.786-12.894c-6.764-1.591-8.346-7.757-5.999-6.721 6.05 3.173 12.218.952 16.584-.694-2.935-.672-6.297-1.217-6.277-2.769 3.061-2.105 8.04-.859 12.37-.738 1.673-2.576 2.028-7.349 2.726-11.551m-.994 6.369c2.345 1.437 5.01.009 8.01-.834m-48.43 28.18c6.04-.284 8.76-4.122 8.416-13.487-.374-10.201 17.908-7.939 17.8-15.853m5.924-30.03c.141-1.498-.095-3.071 1.2-4.339l3.593 2.081m-3.593-2.081c-2.092-2.096-4.173-3.39-6.277-3.692-3.22-.463-4.423.378-6.02.919m-52.24 11.75c2.301 3.743 3.785 9.937 4.346 18.901m-.369-24.555c2.543 4.725 5.172 8.847 7.385 15.877m-4.633-24.799c17.08 9.863 13.574 5.175 24.02-5.848 2.733.491 4.327 1.568 6.083 3.036m-9.775-45.31c6.416 9.77 6.993 25.927 3.692 42.28m-20.17-14.766c11.782 11.843 20.14.537 21.495-13.144-2.698-.24-3.085 1.445-6.495.402m-16.801 22.893c4.75 2.173 9.393 2.485 13.662 1.292.413-1.103.873-2.657-.604-6.597m-7.519-22.758c2.109-.398 5.063.895 6.277-1.292m10.228 2.219c-6.127-2.545-7.07 1.987-7.573 5.839-.42 3.187-.312 5.618-4.686 5.789m-5.256-8.196c2.069-.001 5.057.592 5.81-.296m-2.215 12c2.215 1.805 5.169 1.842 6.462-.369m4.044 3.309c.185 2.575 1.494 6.973 4.249 8.548-2.643 3.518-6.101 6.06-9.216 1.805-3.102 13.577-9.954 5.08-15.201 5.383m2.203 50.938c.264 7.02.139 14.74 5.119 13.34m56.15-15.05c2.109 2.676 3.714 4.795 6.164 5.08m-20.744-46.4c-1.415.264-1.566-.315-1.996-.707" fill="none" fill-rule="evenodd" stroke-width="2"/>
 </g>
</svg>
