<?xml version="1.0" encoding="UTF-8" standalone="no"?>
<!-- Created with Inkscape (http://www.inkscape.org/) -->

<svg
   width="150.23419mm"
   height="166.71277mm"
   viewBox="0 0 150.23419 166.71277"
   version="1.1"
   id="svg1134"
   inkscape:version="1.2.2 (732a01da63, 2022-12-09)"
   sodipodi:docname="Wappen Belau2.svg"
   xmlns:inkscape="http://www.inkscape.org/namespaces/inkscape"
   xmlns:sodipodi="http://sodipodi.sourceforge.net/DTD/sodipodi-0.dtd"
   xmlns="http://www.w3.org/2000/svg"
   xmlns:svg="http://www.w3.org/2000/svg">
  <sodipodi:namedview
     id="namedview1136"
     pagecolor="#ffffff"
     bordercolor="#666666"
     borderopacity="1.0"
     inkscape:showpageshadow="2"
     inkscape:pageopacity="0.0"
     inkscape:pagecheckerboard="0"
     inkscape:deskcolor="#d1d1d1"
     inkscape:document-units="mm"
     showgrid="false"
     inkscape:zoom="0.84952175"
     inkscape:cx="284.2776"
     inkscape:cy="316.06018"
     inkscape:current-layer="layer1" />
  <defs
     id="defs1131" />
  <g
     inkscape:label="Ebene 1"
     inkscape:groupmode="layer"
     id="layer1"
     transform="translate(-28.077818,-58.851243)">
    <g
       id="g1095"
       transform="translate(-3.9132754,-2.3690744)">
      <path
         id="path2595"
         style="fill:#ffffff;fill-opacity:1;stroke:#000000;stroke-width:3.5;stroke-linecap:round;stroke-dasharray:none"
         d="m 33.741093,62.970317 v 89.845163 a 73.367233,73.367233 0 0 0 73.367097,73.36761 73.367233,73.367233 0 0 0 73.3671,-73.36761 V 62.970317 Z" />
      <g
         id="g1680"
         transform="translate(118.60105,36.741076)">
        <path
           id="path3541"
           style="fill:#000000;fill-opacity:1;stroke:none;stroke-width:0.2;stroke-linecap:round;stroke-dasharray:none"
           d="m -65.674028,36.492346 c -0.115848,-8.88e-4 -0.232454,-4.57e-4 -0.349332,0.001 -5.182188,0.06611 -11.310351,2.513667 -14.588257,11.586889 -3.867555,10.705378 3.51421,23.933991 14.58774,31.106629 10.411145,6.743588 17.485754,8.197432 17.485754,8.197432 0,0 7.074609,-1.453844 17.485755,-8.197432 11.07353,-7.172638 18.455304,-20.401251 14.58774,-31.106629 C -22.821779,30.48372 -39.900759,37.80911 -40.004793,39.092187 l -0.05736,0.298174 a 8.8276091,8.8276091 0 0 1 0.128157,-0.0093 8.8276091,8.8276091 0 0 1 8.827885,8.827368 8.8276091,8.8276091 0 0 1 -8.827885,8.827885 8.8276091,8.8276091 0 0 1 -3.384289,-0.692464 l -0.02119,0.109037 c 0,0 0.201288,0.17226 0.502811,0.472839 a 8.8276091,8.8276091 0 0 1 3.063379,6.68228 8.8276091,8.8276091 0 0 1 -8.827368,8.827368 8.8276091,8.8276091 0 0 1 -8.827885,-8.827368 8.8276091,8.8276091 0 0 1 3.692798,-7.155119 h -10e-4 l -0.02015,-0.106454 a 8.8276091,8.8276091 0 0 1 -3.377572,0.689881 8.8276091,8.8276091 0 0 1 -8.827368,-8.827885 8.8276091,8.8276091 0 0 1 8.827368,-8.827368 8.8276091,8.8276091 0 0 1 0.118856,0.0026 l -0.05581,-0.291456 c -0.03098,-0.382101 -1.570959,-1.299153 -3.881417,-1.935282 l -0.0093,-0.0047 -0.0021,10e-4 c -1.354906,-0.37206 -2.972038,-0.647625 -4.709791,-0.660942 z m 22.334555,19.960539 h -0.09457 a 8.8276091,8.8276091 0 0 1 0.577742,0.455786 z" />
        <path
           id="path2291"
           style="fill:#009f01;fill-opacity:1;stroke:none;stroke-width:0.600001;stroke-linecap:round;stroke-dasharray:none"
           d="m -65.970174,39.13281 c 0,0 -11.07842,2.212589 -11.825118,13.454992 -0.904075,13.611913 10.604651,21.777813 14.766024,24.829493 4.161371,3.05167 14.491105,6.33191 14.491105,6.33191 0,0 10.329734,-3.28024 14.491105,-6.33191 4.161373,-3.05168 15.670099,-11.21758 14.766024,-24.829493 -0.746697,-11.242403 -11.825635,-13.454992 -11.825635,-13.454992 0,0 4.619186,4.26587 3.66851,10.775053 -1.334595,9.137832 -9.722404,10.272242 -9.722404,10.272242 0,0 1.786719,4.76351 -0.719852,8.81083 -3.920187,6.32987 -9.714811,6.63084 -10.657748,6.60632 -0.942937,-0.0245 -6.73756,-0.27645 -10.657747,-6.60632 -2.506572,-4.04732 -0.719853,-8.81083 -0.719853,-8.81083 0,0 -8.387808,-1.13441 -9.722404,-10.272242 -0.950676,-6.509183 3.667993,-10.775053 3.667993,-10.775053 z"
           sodipodi:nodetypes="csscsscscszscsc" />
      </g>
      <g
         id="g2371"
         transform="translate(4.0556846,-4.1269639)">
        <rect
           style="fill:#000000;fill-opacity:1;stroke:none;stroke-width:0.2;stroke-linecap:round"
           id="rect1786"
           width="3.0516746"
           height="14.356729"
           x="39.220955"
           y="131.35893" />
        <path
           style="fill:#ffff00;fill-opacity:1;stroke:#ffffff;stroke-width:1.2;stroke-linecap:round;stroke-dasharray:none"
           d="m 34.133421,136.63176 c 0,0 3.279919,0.007 8.589857,-0.0234 17.107318,-0.0981 46.455098,1.23609 65.660142,11.69544 21.00763,11.44106 11.86823,25.89432 11.86823,25.89432 H 85.774934 c 0,0 19.468206,-6.78788 13.290454,-20.40159 -7.466788,-16.45429 -64.931967,-13.3885 -64.931967,-13.3885 z"
           id="path2346"
           sodipodi:nodetypes="cssccscc" />
        <path
           style="fill:#000000;fill-opacity:1;stroke:none;stroke-width:0.2;stroke-linecap:round"
           d="m 34.133421,136.63176 c 0,0 3.279919,0.007 8.589857,-0.0234 17.107318,-0.0981 46.455098,1.23609 65.660142,11.69544 21.00763,11.44106 11.86823,25.89432 11.86823,25.89432 H 85.774934 c 0,0 19.468206,-6.78788 13.290454,-20.40159 -7.466788,-16.45429 -64.931967,-13.3885 -64.931967,-13.3885 z"
           id="path1706"
           sodipodi:nodetypes="cssccscc" />
        <path
           style="fill:#000000;fill-opacity:1;stroke:none;stroke-width:0.2;stroke-linecap:round"
           d="m 116.05033,152.70512 -2.99965,-2.34078 c 0,0 7.18347,-6.39472 23.16499,-12.76155 12.97105,-5.1675 24.55211,-8.32275 24.55211,-8.32275 l 0.76292,1.73391 c 0,0 -14.78382,4.30561 -28.34917,11.10541 -9.11356,4.56828 -17.1312,10.58576 -17.1312,10.58576 z"
           id="path1710"
           sodipodi:nodetypes="ccsccsc" />
        <path
           style="fill:#ffff00;fill-opacity:1;stroke:#ffffff;stroke-width:1.2;stroke-linecap:round;stroke-dasharray:none"
           d="m 110.76192,166.45499 -2.98231,-2.15004 c 0,0 7.48806,-10.90669 23.30369,-16.6455 17.13637,-6.21804 39.84343,-6.88237 39.84343,-6.88237 l 1.07676,1.95807 c 0,0 -23.401,0.89293 -38.354,7.42112 -15.99452,6.98289 -22.88757,16.29872 -22.88757,16.29872 z"
           id="path1790"
           sodipodi:nodetypes="ccsccsc" />
        <path
           style="fill:#000000;fill-opacity:1;stroke:none;stroke-width:0.2;stroke-linecap:round"
           d="m 110.76192,166.45499 -2.98231,-2.15004 c 0,0 7.48806,-10.90669 23.30369,-16.6455 17.13637,-6.21804 39.84343,-6.88237 39.84343,-6.88237 l 1.07676,1.95807 c 0,0 -23.401,0.89293 -38.354,7.42112 -15.99452,6.98289 -22.88757,16.29872 -22.88757,16.29872 z"
           id="path1712"
           sodipodi:nodetypes="ccsccsc" />
        <path
           style="fill:#000000;fill-opacity:1;stroke:none;stroke-width:0.2;stroke-linecap:round"
           d="m 150.85402,134.89076 h 1.6184 l 6.3755,6.3755 h -1.71432 z"
           id="path1732"
           sodipodi:nodetypes="ccccc" />
      </g>
      <path
         id="rect2446"
         style="fill:#009f01;fill-opacity:1;stroke:#000000;stroke-width:3.2;stroke-linecap:round;stroke-dasharray:none"
         d="m 67.391752,178.21961 v 36.22828 a 73.367233,73.367233 0 0 0 15.849162,7.70341 v -43.93169 z" />
      <path
         id="rect2500"
         style="fill:#009f01;fill-opacity:1;stroke:#000000;stroke-width:3.2;stroke-linecap:round;stroke-dasharray:none"
         d="m 83.240914,188.22417 v 33.92713 a 73.367233,73.367233 0 0 0 15.848645,3.53777 v -37.4649 z" />
      <path
         id="rect2502"
         style="fill:#009f01;fill-opacity:1;stroke:#000000;stroke-width:3.2;stroke-linecap:round;stroke-dasharray:none"
         d="m 99.089559,178.21961 v 47.46946 a 73.367233,73.367233 0 0 0 8.018631,0.49402 73.367233,73.367233 0 0 0 7.83053,-0.42116 v -47.54232 z" />
      <path
         id="rect2504"
         style="fill:#009f01;fill-opacity:1;stroke:#000000;stroke-width:3.2;stroke-linecap:round;stroke-dasharray:none"
         d="m 114.94699,188.22417 v 37.53673 a 73.367233,73.367233 0 0 0 15.84864,-3.51348 v -34.02325 z" />
      <path
         id="rect2506"
         style="fill:#009f01;fill-opacity:1;stroke:#000000;stroke-width:3.2;stroke-linecap:round;stroke-dasharray:none"
         d="M 130.78737,178.21961 V 222.25 a 73.367233,73.367233 0 0 0 15.84864,-7.63158 v -36.39881 z" />
      <path
         id="rect2508"
         style="fill:#009f01;fill-opacity:1;stroke:#000000;stroke-width:3.2;stroke-linecap:round;stroke-dasharray:none"
         d="m 146.63601,188.32236 v 26.29606 a 73.367233,73.367233 0 0 0 15.84916,-13.68495 v -12.61111 z" />
      <path
         id="rect2510"
         style="fill:#009f01;fill-opacity:1;stroke:#000000;stroke-width:3.2;stroke-linecap:round;stroke-dasharray:none"
         d="m 162.48517,178.21961 v 22.71386 a 73.367233,73.367233 0 0 0 13.44466,-22.71386 z" />
      <path
         id="rect2512"
         style="fill:#009f01;fill-opacity:1;stroke:#000000;stroke-width:3.2;stroke-linecap:round;stroke-dasharray:none"
         d="m 51.543107,188.22417 v 12.48141 a 73.367233,73.367233 0 0 0 15.848645,13.74231 v -26.22372 z" />
      <path
         id="rect2514"
         style="fill:#009f01;fill-opacity:1;stroke:#000000;stroke-width:3.2;stroke-linecap:round;stroke-dasharray:none"
         d="m 38.339779,178.21961 a 73.367233,73.367233 0 0 0 13.203328,22.48597 v -22.48597 z" />
      <path
         id="path2575"
         style="fill:none;fill-opacity:1;stroke:#000000;stroke-width:3.5;stroke-linecap:round;stroke-dasharray:none"
         d="m 33.741093,62.970317 v 89.845163 a 73.367233,73.367233 0 0 0 73.367097,73.36761 73.367233,73.367233 0 0 0 73.3671,-73.36761 V 62.970317 Z" />
      <g
         id="g1031"
         transform="matrix(-1,0,0,1,95.59728,36.741076)"
         inkscape:transform-center-x="-37.036236"
         inkscape:transform-center-y="0.55484997">
        <path
           id="path1027"
           style="fill:#000000;fill-opacity:1;stroke:none;stroke-width:0.2;stroke-linecap:round;stroke-dasharray:none"
           d="m -65.674028,36.492346 c -0.115848,-8.88e-4 -0.232454,-4.57e-4 -0.349332,0.001 -5.182188,0.06611 -11.310351,2.513667 -14.588257,11.586889 -3.867555,10.705378 3.51421,23.933991 14.58774,31.106629 10.411145,6.743588 17.485754,8.197432 17.485754,8.197432 0,0 7.074609,-1.453844 17.485755,-8.197432 11.07353,-7.172638 18.455304,-20.401251 14.58774,-31.106629 C -22.821779,30.48372 -39.900759,37.80911 -40.004793,39.092187 l -0.05736,0.298174 a 8.8276091,8.8276091 0 0 1 0.128157,-0.0093 8.8276091,8.8276091 0 0 1 8.827885,8.827368 8.8276091,8.8276091 0 0 1 -8.827885,8.827885 8.8276091,8.8276091 0 0 1 -3.384289,-0.692464 l -0.02119,0.109037 c 0,0 0.201288,0.17226 0.502811,0.472839 a 8.8276091,8.8276091 0 0 1 3.063379,6.68228 8.8276091,8.8276091 0 0 1 -8.827368,8.827368 8.8276091,8.8276091 0 0 1 -8.827885,-8.827368 8.8276091,8.8276091 0 0 1 3.692798,-7.155119 h -10e-4 l -0.02015,-0.106454 a 8.8276091,8.8276091 0 0 1 -3.377572,0.689881 8.8276091,8.8276091 0 0 1 -8.827368,-8.827885 8.8276091,8.8276091 0 0 1 8.827368,-8.827368 8.8276091,8.8276091 0 0 1 0.118856,0.0026 l -0.05581,-0.291456 c -0.03098,-0.382101 -1.570959,-1.299153 -3.881417,-1.935282 l -0.0093,-0.0047 -0.0021,10e-4 c -1.354906,-0.37206 -2.972038,-0.647625 -4.709791,-0.660942 z m 22.334555,19.960539 h -0.09457 a 8.8276091,8.8276091 0 0 1 0.577742,0.455786 z" />
        <path
           id="path1029"
           style="fill:#009f01;fill-opacity:1;stroke:none;stroke-width:0.600001;stroke-linecap:round;stroke-dasharray:none"
           d="m -65.970174,39.13281 c 0,0 -11.07842,2.212589 -11.825118,13.454992 -0.904075,13.611913 10.604651,21.777813 14.766024,24.829493 4.161371,3.05167 14.491105,6.33191 14.491105,6.33191 0,0 10.329734,-3.28024 14.491105,-6.33191 4.161373,-3.05168 15.670099,-11.21758 14.766024,-24.829493 -0.746697,-11.242403 -11.825635,-13.454992 -11.825635,-13.454992 0,0 4.619186,4.26587 3.66851,10.775053 -1.334595,9.137832 -9.722404,10.272242 -9.722404,10.272242 0,0 1.786719,4.76351 -0.719852,8.81083 -3.920187,6.32987 -9.714811,6.63084 -10.657748,6.60632 -0.942937,-0.0245 -6.73756,-0.27645 -10.657747,-6.60632 -2.506572,-4.04732 -0.719853,-8.81083 -0.719853,-8.81083 0,0 -8.387808,-1.13441 -9.722404,-10.272242 -0.950676,-6.509183 3.667993,-10.775053 3.667993,-10.775053 z"
           sodipodi:nodetypes="csscsscscszscsc" />
      </g>
    </g>
  </g>
</svg>
