<?xml version="1.0" encoding="UTF-8" standalone="no"?>
<!-- Created with Inkscape (http://www.inkscape.org/) -->

<svg
   xmlns:dc="http://purl.org/dc/elements/1.1/"
   xmlns:cc="http://creativecommons.org/ns#"
   xmlns:rdf="http://www.w3.org/1999/02/22-rdf-syntax-ns#"
   xmlns:svg="http://www.w3.org/2000/svg"
   xmlns="http://www.w3.org/2000/svg"
   xmlns:sodipodi="http://sodipodi.sourceforge.net/DTD/sodipodi-0.dtd"
   xmlns:inkscape="http://www.inkscape.org/namespaces/inkscape"
   width="180.93077mm"
   height="209.34361mm"
   viewBox="0 0 641.09328 741.7687"
   id="svg17197"
   version="1.1"
   inkscape:version="0.91 r13725"
   sodipodi:docname="DEU Osthofen COA.svg">
  <defs
     id="defs17199">
    <inkscape:path-effect
       effect="spiro"
       id="path-effect9172"
       is_visible="true" />
    <inkscape:path-effect
       effect="spiro"
       id="path-effect5736-5"
       is_visible="true" />
    <inkscape:path-effect
       effect="spiro"
       id="path-effect5657"
       is_visible="true" />
    <inkscape:path-effect
       effect="spiro"
       id="path-effect9172-3"
       is_visible="true" />
  </defs>
  <sodipodi:namedview
     id="base"
     pagecolor="#ffffff"
     bordercolor="#666666"
     borderopacity="1.0"
     inkscape:pageopacity="0.0"
     inkscape:pageshadow="2"
     inkscape:zoom="0.72664162"
     inkscape:cx="320.54665"
     inkscape:cy="370.88436"
     inkscape:document-units="px"
     inkscape:current-layer="layer1"
     showgrid="false"
     inkscape:window-width="1366"
     inkscape:window-height="745"
     inkscape:window-x="-8"
     inkscape:window-y="-8"
     inkscape:window-maximized="1"
     fit-margin-top="0"
     fit-margin-left="0"
     fit-margin-right="0"
     fit-margin-bottom="0"
     inkscape:snap-midpoints="true"
     inkscape:snap-smooth-nodes="true"
     inkscape:object-nodes="true"
     inkscape:snap-nodes="false"
     inkscape:snap-center="true"
     inkscape:snap-object-midpoints="true"
     inkscape:snap-others="false" />
  <metadata
     id="metadata17202">
    <rdf:RDF>
      <cc:Work
         rdf:about="">
        <dc:format>image/svg+xml</dc:format>
        <dc:type
           rdf:resource="http://purl.org/dc/dcmitype/StillImage" />
        <dc:title></dc:title>
      </cc:Work>
    </rdf:RDF>
  </metadata>
  <g
     inkscape:label="Ebene 1"
     inkscape:groupmode="layer"
     id="layer1"
     transform="translate(9.7940809,-5.387211)">
    <path
       style="fill:#000000;fill-rule:evenodd;stroke:none;stroke-width:11;stroke-opacity:1"
       inkscape:connector-curvature="0"
       d="M 625.75687,10.887213 622.56158,427.51168 C 615.58891,602.7615 477.82349,741.5578 310.75255,741.6559 143.83189,741.441 6.0149615,602.5947 -1.0564485,427.51168 l -3.19529,-416.624466 314.9967685,0 z"
       id="path10563-0-6-7-4-4"
       sodipodi:nodetypes="ccccccc" />
    <path
       inkscape:connector-curvature="0"
       style="opacity:1;fill:#ffd700;fill-opacity:1;fill-rule:nonzero;stroke:none;stroke-width:1;stroke-linecap:round;stroke-linejoin:miter;stroke-miterlimit:4;stroke-dasharray:none;stroke-dashoffset:0;stroke-opacity:1"
       d="M 80.77774,328.45948 65.1,363.81885 26.46719,359.64112 49.42227,390.82471 26.46719,422.00635 65.1,417.82862 l 15.67774,35.36132 15.67968,-35.36132 38.63086,4.17773 -22.95312,-31.18164 22.95312,-31.18359 -38.63086,4.17773 -15.67968,-35.35937 z m 42.24414,165.49609 -15.67774,35.36133 -38.63281,-4.17774 22.95508,31.18164 -22.95508,31.1836 38.63281,-4.17774 15.67774,35.35938 15.67773,-35.35938 38.63281,4.17774 -22.95312,-31.1836 22.95312,-31.18164 -38.63281,4.17774 -15.67773,-35.36133 z m 126.42773,97.25391 -15.67773,35.35937 -38.63282,-4.17773 22.95508,31.18359 -22.95508,31.18359 38.63282,-4.17773 15.67773,35.35937 15.67969,-35.35937 38.63281,4.17773 -22.95508,-31.18359 22.95508,-31.18359 -38.63281,4.17773 -15.67969,-35.35937 z"
       id="path7128-3" />
    <path
       style="fill:none;fill-rule:evenodd;stroke:#e300e9;stroke-width:3;stroke-linecap:butt;stroke-linejoin:round;stroke-miterlimit:4;stroke-dasharray:none;stroke-opacity:1"
       inkscape:path-effect="#path-effect5736-5"
       inkscape:original-d="m -1016.7249,108.06669 c -0.64,-0.5109 -1.4051,-0.97895 -2.2208,-1.05052 -0.7917,-0.0695 -1.7693,0.0369 -2.2999,0.62853 -0.3597,0.40107 -0.3222,1.06161 -0.2544,1.59611 0.086,0.68179 0.3543,1.38733 0.822,1.89077 0.3524,0.37924 0.8647,0.63509 1.375,0.72202 0.766,0.13046 1.6079,0.001 2.3062,-0.33947 0.5394,-0.26327 1.1466,-0.66348 1.3032,-1.24304 0.1269,-0.47189 -0.184,-0.9733 -0.4066,-1.40817 -0.1538,-0.30028 -0.3611,-0.58577 -0.6247,-0.79623 z"
       id="path5734-0" />
    <path
       style="opacity:1;fill:#ffd700;fill-opacity:1;fill-rule:nonzero;stroke:none;stroke-width:4;stroke-linecap:round;stroke-linejoin:round;stroke-miterlimit:4;stroke-dasharray:none;stroke-dashoffset:0;stroke-opacity:1"
       d="m -4.2511121,10.887208 0.5421149,70.760814 A 111.32862,111.32862 0 0 0 6.6103612,81.315083 c 0.3975146,0.842533 0.7433499,1.711879 1.0232198,2.600758 1.1811459,3.750638 1.2678464,7.838751 0.2510114,11.637164 -1.1352588,4.240509 -3.5669038,7.993615 -5.6930781,11.834145 -2.12622504,3.84062 -4.0147524,8.02296 -3.8941633,12.41112 0.080966,2.94243 1.07128444,5.80133 2.46653538,8.3932 1.39536282,2.59183 3.19305352,4.94487 4.99059512,7.27584 1.7972792,2.33114 3.6113148,4.66259 5.0655505,7.22181 1.454052,2.55933 2.544264,5.37734 2.759382,8.31301 0.29669,4.05 -1.067503,8.01125 -2.259103,11.8934 -1.191611,3.88216 -2.2341847,8.01234 -1.302122,11.96488 0.655514,2.77958 2.264941,5.27247 4.27591,7.30025 2.010959,2.0278 4.417001,3.6208 6.897584,5.03592 4.961228,2.83014 10.407427,5.09194 14.339028,9.23512 2.35709,2.4839 4.066603,5.57875 4.912154,8.89696 0.845551,3.31823 0.828667,6.85168 -0.0523,10.16074 3.261747,-3.11295 5.392626,-7.38421 5.919686,-11.86204 0.527171,-4.47784 -0.553888,-9.12605 -3.003421,-12.91139 -2.314714,-3.57677 -5.712236,-6.28846 -8.741821,-9.28394 -1.514707,-1.4978 -2.955871,-3.08939 -4.108569,-4.88078 -1.152777,-1.79131 -2.014213,-3.79468 -2.299194,-5.90573 -0.49269,-3.65186 0.750697,-7.29335 2.032494,-10.74817 1.281808,-3.4548 2.642213,-7.02478 2.391581,-10.70111 -0.159473,-2.33956 -0.972547,-4.59732 -2.093504,-6.65703 -1.120937,-2.0597 -2.544771,-3.93831 -4.000495,-5.77675 -2.907751,-3.67975 -6.067267,-7.40942 -7.160797,-11.97011 -0.639675,-2.66796 -0.523639,-5.48615 0.08541,-8.16136 0.608917,-2.67511 1.69712,-5.22061 2.98076,-7.64538 2.567329,-4.84951 5.929036,-9.268225 8.190991,-14.267562 1.381669,-3.053871 2.305086,-6.301761 2.785529,-9.616875 L 93.73224,193.59912 52.967288,66.555961 a 111.32862,111.32862 0 0 0 7.725574,-4.934815 c 0.783895,0.540262 1.531009,1.132656 2.232955,1.776255 2.898219,2.657582 5.021387,6.151826 6.039962,9.949813 1.13709,4.240009 0.905909,8.707047 0.984872,13.096172 0.07894,4.389113 0.534073,8.958753 2.832594,12.698738 1.541304,2.507756 3.830301,4.487726 6.334551,6.034736 2.504324,1.54692 5.23349,2.68708 7.955667,3.807 2.722169,1.11994 5.462062,2.23043 8.000986,3.71985 2.538905,1.48943 4.889622,3.38724 6.543731,5.82207 2.28194,3.35914 3.08266,7.47191 3.99178,11.42974 0.90913,3.95784 2.07119,8.05271 4.85463,11.00964 1.9575,2.07945 4.59535,3.43464 7.3508,4.18526 2.75545,0.75063 5.63673,0.92826 8.49255,0.91341 5.71162,-0.0296 11.56093,-0.79604 17.0374,0.82624 3.28324,0.97261 6.3121,2.79942 8.70348,5.25032 2.39139,2.45091 4.14261,5.52106 5.03417,8.82724 1.26826,-4.32671 0.97713,-9.09241 -0.80533,-13.23388 -1.78238,-4.14152 -5.04328,-7.62799 -9.05733,-9.68137 -3.79296,-1.94025 -8.08924,-2.58643 -12.21066,-3.66582 -2.06071,-0.53968 -4.10416,-1.19698 -5.99812,-2.17194 -1.89401,-0.97495 -3.64295,-2.28163 -4.94528,-3.96737 -2.25262,-2.91621 -2.99619,-6.69173 -3.61352,-10.32459 -0.61731,-3.63284 -1.22363,-7.4055 -3.27884,-10.46404 -1.30789,-1.94637 -3.14162,-3.49539 -5.14225,-4.71867 -2.00063,-1.22325 -4.17555,-2.13918 -6.35546,-3.003422 C 101.31642,98.007972 96.717299,96.353412 93.48994,92.950509 91.601968,90.959821 90.296191,88.46323 89.485966,85.842005 88.675742,83.220776 88.345558,80.472903 88.24485,77.731198 88.04347,72.247717 88.745543,66.739969 88.204759,61.279492 87.874442,57.94443 87.047367,54.668784 85.806206,51.558029 L 192.33266,115.33759 100.3701,31.921615 c 3.33754,0.284703 6.709,0.12426 9.99687,-0.52817 5.38227,-1.068041 10.44876,-3.340138 15.75445,-4.739582 2.65287,-0.699715 5.3795,-1.180458 8.12302,-1.166158 2.7436,0.0142 5.51302,0.538928 7.96612,1.767539 4.1934,2.100264 7.1082,6.02461 10.03174,9.691829 1.46024,1.834864 2.96718,3.649245 4.71867,5.208487 1.75147,1.559242 3.7663,2.86263 6.00858,3.549023 3.52346,1.078628 7.31047,0.563463 10.96606,0.09936 3.65559,-0.464083 7.48132,-0.848648 10.92597,0.460188 1.99125,0.756759 3.75002,2.051078 5.23289,3.580399 1.48295,1.52925 2.7061,3.293968 3.82095,5.109128 2.22957,3.630467 4.0948,7.554701 7.05273,10.620921 3.13048,3.244874 7.41279,5.352122 11.89341,5.85519 4.48058,0.503183 9.12709,-0.60147 12.89919,-3.071405 -3.42267,0.106867 -6.87007,-0.678896 -9.90971,-2.255615 -3.03965,-1.576732 -5.66554,-3.942317 -7.54952,-6.801713 -3.14253,-4.769493 -4.10836,-10.59058 -5.73841,-16.06473 -0.81508,-2.737072 -1.82147,-5.441004 -3.33984,-7.859795 -1.51835,-2.418769 -3.57937,-4.550952 -6.13758,-5.820327 -3.63778,-1.804965 -7.89614,-1.726039 -11.94745,-1.446802 -4.05131,0.279227 -8.21857,0.707972 -12.09561,-0.50028 -2.81017,-0.875904 -5.30689,-2.576907 -7.46933,-4.573986 -2.16229,-1.99721 -4.02079,-4.295557 -5.88308,-6.575104 -1.57463,-1.927831 -3.17779,-3.845446 -4.96619,-5.572802 l -154.9751421,0 z"
       id="path9168-9"
       inkscape:connector-curvature="0" />
    <g
       id="g10319"
       transform="matrix(0.97513449,0,0,0.9876717,19.307293,4.861162)">
      <path
         id="path9498-2"
         d="m 216.79141,38.129397 c -2.23356,-0.05154 -6.59961,1.173828 -6.59961,1.173828 0,0 3.47367,1.521459 4.98633,2.638672 1.11213,0.821392 2.07663,1.848635 2.93359,2.933593 0.92497,1.171051 1.36862,2.684565 2.3457,3.8125 0.49994,0.577125 1.03271,1.233578 1.75977,1.466797 1.26017,0.404224 2.80724,0.358902 3.95898,-0.292969 0.88521,-0.501018 1.62332,-1.486177 1.75977,-2.49414 0.17423,-1.287074 -0.58208,-2.596058 -1.31836,-3.666016 -1.31646,-1.913066 -3.20518,-3.500466 -5.2793,-4.544922 -1.38749,-0.698691 -2.9938,-0.991507 -4.54687,-1.027343 z m 41.2207,7.669921 c 0,0 2.6301,2.731653 3.60156,4.341797 0.71424,1.183802 1.21209,2.502063 1.58985,3.832032 0.40774,1.435504 0.24052,3.004367 0.71289,4.419921 0.2417,0.72429 0.48347,1.534182 1.0664,2.027344 1.01034,0.85477 2.45811,1.402945 3.77149,1.240235 1.00944,-0.125057 2.06713,-0.753322 2.57812,-1.632813 0.65247,-1.123029 0.45164,-2.622554 0.17969,-3.892578 -0.48625,-2.270782 -1.62442,-4.459514 -3.14258,-6.216797 -1.01558,-1.175539 -2.38883,-2.057463 -3.81054,-2.683594 -2.04465,-0.900477 -6.54688,-1.435547 -6.54688,-1.435547 z m -87.23437,39.296875 c -0.88406,-0.002 -1.76604,0.07587 -2.62305,0.230469 -1.5288,0.275784 -2.98736,1.009038 -4.25,1.914063 -1.81586,1.301568 -4.56836,4.904296 -4.56836,4.904296 0,0 3.69182,-0.872087 5.57227,-0.888671 1.38251,-0.01219 2.7684,0.228248 4.10546,0.580078 1.44316,0.379743 2.70909,1.322758 4.16797,1.636719 0.74647,0.16064 1.5659,0.364 2.28711,0.113281 1.25004,-0.434557 2.45979,-1.399964 2.98828,-2.613281 0.40619,-0.932537 0.40517,-2.16327 -0.0918,-3.050782 -0.63453,-1.133268 -2.02816,-1.724328 -3.25977,-2.136718 -1.37631,-0.460843 -2.8547,-0.686045 -4.32812,-0.689454 z m 136.97851,2 c -1.24219,0.01659 -2.51576,0.109006 -3.41406,0.363282 -3.45689,0.97851 -7.0093,2.651406 -9.33399,5.390625 -2.91607,3.436049 -4.9247,8.14836 -4.76953,12.65234 0.28011,8.13068 4.84809,16.0293 10.16211,22.18946 6.62537,7.68032 16.094,12.82004 25.50977,16.59179 5.2232,2.0923 11.03409,2.21878 16.58984,3.10938 4.13169,0.66232 8.34854,0.79877 12.44336,1.66016 4.85986,1.02232 9.39365,3.44825 14.31055,4.14648 0.88975,0.12635 1.90297,0.42405 2.69531,0 0.87902,-0.47044 1.30673,-1.5553 1.6582,-2.48828 0.36878,-0.97895 0.75146,-2.11851 0.41602,-3.10938 -0.34483,-1.01861 -1.38548,-1.68621 -2.28125,-2.28125 -4.7263,-3.13957 -10.32283,-4.81313 -15.76172,-6.42968 -9.4479,-2.80812 -19.9871,-1.69054 -29.03516,-5.59961 -7.59106,-3.2796 -14.69941,-8.26868 -20.11523,-14.51758 -3.21995,-3.71525 -6.32968,-8.17498 -6.84375,-13.06445 -0.37531,-3.56971 1.0153,-7.315836 2.90234,-10.369146 2.10979,-3.413704 8.91797,-8.087891 8.91797,-8.087891 0,0 -1.98046,-0.183899 -4.05078,-0.15625 z m -97.94336,42.023437 c -0.43617,0.0292 -0.88089,0.13425 -1.30078,0.22461 -1.45888,0.31396 -2.72286,1.25503 -4.16601,1.63477 -1.33707,0.35183 -2.72491,0.59423 -4.10743,0.58203 -1.88044,-0.0166 -5.57031,-0.88867 -5.57031,-0.88867 0,0 2.75055,3.60272 4.56641,4.90429 1.26264,0.90503 2.7212,1.63632 4.25,1.91211 2.28537,0.41226 4.75103,0.27837 6.95312,-0.45898 1.23161,-0.4124 2.62328,-1.00345 3.25781,-2.13672 0.49696,-0.88751 0.49799,-2.11629 0.0918,-3.04883 -0.52849,-1.21331 -1.73629,-2.18068 -2.98633,-2.61523 -0.1803,-0.0627 -0.36667,-0.0958 -0.55664,-0.10938 -0.14247,-0.0102 -0.28625,-0.01 -0.43164,0 z m -58.76953,80.34961 c 0,0 2.96075,2.36926 4.13281,3.83985 0.86171,1.08117 1.5272,2.32204 2.07422,3.59179 0.59044,1.37051 0.62737,2.94868 1.2793,4.29102 0.33358,0.68684 0.67836,1.45768 1.32031,1.87109 1.11265,0.71655 2.61919,1.07383 3.90039,0.74219 0.98471,-0.2549 1.95311,-1.01478 2.34571,-1.95313 0.50134,-1.19816 0.10816,-2.65877 -0.32618,-3.88281 -0.77658,-2.18856 -2.19062,-4.21221 -3.92382,-5.75781 -1.15945,-1.03392 -2.6341,-1.73147 -4.125,-2.16797 -2.14416,-0.62775 -6.67774,-0.57422 -6.67774,-0.57422 z m -46.0957,22.48242 c -1.47183,-0.002 -2.95194,0.2253 -4.33789,0.65625 -1.48341,0.46125 -2.84231,1.36684 -3.98438,2.41992 -1.64247,1.51452 -3.93164,5.42774 -3.93164,5.42774 0,0 3.55572,-1.31729 5.41992,-1.56445 1.37058,-0.18172 2.77832,-0.11286 4.14844,0.0723 1.47884,0.19982 2.84956,0.98068 4.33594,1.11328 0.76054,0.0679 1.60014,0.16934 2.28515,-0.16797 1.18728,-0.58464 2.2689,-1.69194 2.64454,-2.96093 0.28871,-0.97533 0.13528,-2.1958 -0.4668,-3.01563 -0.76877,-1.04687 -2.22318,-1.46253 -3.4961,-1.7207 -0.85346,-0.17311 -1.73408,-0.25828 -2.61718,-0.25977 z m 4.53711,65.18555 c -1.12711,-0.0471 -2.29308,0.52616 -3.27539,1.09766 -2.00727,1.16779 -3.73506,2.93086 -4.9336,4.91992 -0.80176,1.33059 -1.21382,2.90918 -1.36718,4.45508 -0.22056,2.22324 0.66992,6.66796 0.66992,6.66796 0,0 1.7812,-3.34777 3.00976,-4.77148 0.90325,-1.04673 1.99975,-1.92884 3.14649,-2.70117 1.23773,-0.83362 2.77983,-1.16193 3.97851,-2.05078 l 0.002,0 c 0.61333,-0.4548 1.30809,-0.93722 1.5957,-1.64453 0.4985,-1.22595 0.56905,-2.77291 0.006,-3.97071 -0.43254,-0.92061 -1.3568,-1.73099 -2.35156,-1.94336 -0.15878,-0.0339 -0.31946,-0.0519 -0.48047,-0.0586 z m 57.29687,20.20508 c -0.68961,0.008 -1.38258,0.15051 -1.99609,0.39844 -0.70793,0.28608 -1.19036,0.97944 -1.64649,1.59179 -0.89143,1.19677 -1.22425,2.73868 -2.06054,3.97461 -0.77481,1.14507 -1.66031,2.23965 -2.70899,3.14063 -1.42636,1.22549 -4.77734,3 -4.77734,3 0,0 4.44426,0.89933 6.66797,0.68359 1.54623,-0.15003 3.12471,-0.55853 4.45703,-1.35742 1.99165,-1.19424 3.75951,-2.91713 4.93164,-4.92188 0.65556,-1.12123 1.31337,-2.48313 1.04492,-3.7539 -0.21022,-0.99522 -1.01782,-1.92289 -1.9375,-2.35742 -0.59829,-0.2826 -1.285,-0.40686 -1.97461,-0.39844 z m 29.4082,100.51172 c -0.39255,0.0196 -0.78323,0.0583 -1.16796,0.11132 -2.21322,0.3051 -6.32618,2.21094 -6.32618,2.21094 0,0 3.67041,0.94869 5.3418,1.81055 1.22882,0.63364 2.34436,1.49321 3.36328,2.42773 1.09977,1.00867 1.77948,2.43283 2.92383,3.39063 0.58554,0.49007 1.21577,1.05165 1.9707,1.16601 1.30849,0.19823 2.83016,-0.0929 3.86329,-0.91992 0.79406,-0.63569 1.36581,-1.72534 1.33984,-2.74218 -0.0331,-1.29839 -0.99127,-2.46927 -1.88867,-3.40821 -1.60451,-1.67882 -3.72148,-2.94593 -5.93555,-3.64648 -0.74055,-0.23433 -1.51932,-0.36023 -2.30469,-0.40039 -0.39268,-0.0201 -0.78712,-0.0196 -1.17969,0 z m -44.68359,19.38867 c -0.88405,-0.002 -1.76798,0.0759 -2.625,0.23047 -1.5288,0.27578 -2.98541,1.00709 -4.24805,1.91211 -1.81586,1.30157 -4.56836,4.90429 -4.56836,4.90429 0,0 3.68988,-0.87012 5.57032,-0.88672 1.38252,-0.0122 2.77036,0.22825 4.10742,0.58008 1.44316,0.37974 2.70714,1.32275 4.16602,1.63672 0.74646,0.16064 1.56785,0.364 2.28906,0.11328 1.25004,-0.43456 2.45784,-1.40191 2.98633,-2.61523 0.40619,-0.93253 0.40516,-2.16132 -0.0918,-3.04883 -0.63453,-1.13327 -2.0262,-1.72433 -3.25781,-2.13672 -1.37631,-0.46084 -2.85471,-0.68604 -4.32813,-0.68945 z m -12.31836,38.71289 c -0.88405,-0.002 -1.76601,0.0759 -2.62305,0.23047 -1.5288,0.27578 -2.98734,1.00904 -4.25,1.91406 -1.81586,1.30157 -4.56835,4.9043 -4.56835,4.9043 0,0 3.68987,-0.87208 5.57031,-0.88867 1.38252,-0.0122 2.77036,0.22824 4.10742,0.58007 1.44316,0.37974 2.70714,1.32276 4.16602,1.63672 l 0.002,0 c 0.74647,0.16064 1.5659,0.36596 2.28711,0.11524 1.25004,-0.43456 2.45979,-1.40192 2.98828,-2.61524 0.40619,-0.93254 0.40321,-2.16327 -0.0937,-3.05078 -0.63453,-1.13327 -2.0262,-1.72433 -3.25781,-2.13672 -1.37631,-0.46084 -2.85471,-0.68604 -4.32813,-0.68945 z m 74.85156,29.44531 c -0.68956,0.0118 -1.38186,0.15725 -1.99414,0.40821 -0.7065,0.28957 -1.18557,0.985 -1.63867,1.5996 -0.88551,1.20116 -1.20888,2.74629 -2.03906,3.98633 -0.76914,1.14889 -1.65109,2.24814 -2.69531,3.1543 -1.4203,1.23251 -4.76172,3.02148 -4.76172,3.02148 0,0 4.4473,0.87907 6.66992,0.65235 1.54547,-0.15765 3.12282,-0.5754 4.45117,-1.38086 1.98573,-1.20406 3.74404,-2.9348 4.90625,-4.94531 0.65002,-1.12446 1.30208,-2.49034 1.02735,-3.75977 -0.21513,-0.99416 -1.0274,-1.91572 -1.94922,-2.3457 -0.59968,-0.2797 -1.287,-0.40244 -1.97657,-0.39063 z m 149.62891,129.125 c -0.88405,-0.002 -1.76603,0.0759 -2.62305,0.23047 -1.5288,0.27579 -2.98736,1.00708 -4.25,1.91211 -1.81586,1.30157 -4.56836,4.90625 -4.56836,4.90625 0,0 3.68988,-0.87209 5.57032,-0.88867 1.38252,-0.0122 2.77036,0.22825 4.10742,0.58008 1.44316,0.37974 2.70909,1.32277 4.16797,1.63671 0.74647,0.16064 1.5659,0.36401 2.28711,0.11329 1.25004,-0.43455 2.45979,-1.39998 2.98828,-2.61329 0.40619,-0.93254 0.40516,-2.16327 -0.0918,-3.05078 -0.63453,-1.13327 -2.02815,-1.7243 -3.25976,-2.13672 -1.37631,-0.46082 -2.85471,-0.68604 -4.32813,-0.68945 z m 78.04688,39.54297 c -0.53454,0.0254 -1.06654,0.16346 -1.51758,0.39844 -1.17369,0.61143 -2.05367,1.88492 -2.40039,3.16211 -0.20005,0.73687 0.0594,1.53992 0.27148,2.27343 0.41448,1.43356 1.44287,2.63161 1.92188,4.04493 0.4438,1.30941 0.78143,2.67661 0.86523,4.05664 0.11401,1.87705 -0.5,5.61914 -0.5,5.61914 0,0 3.40381,-2.9966 4.57617,-4.89844 0.8152,-1.32242 1.44428,-2.82878 1.61328,-4.37305 0.25261,-2.30847 -0.053,-4.75675 -0.9414,-6.90234 -0.49691,-1.20001 -1.18284,-2.54724 -2.35742,-3.10156 -0.45994,-0.21708 -0.99671,-0.30469 -1.53125,-0.2793 z m -91.4336,3.50781 c -2.04376,0.0137 -4.12394,0.51061 -5.96289,1.375 -1.4059,0.66085 -2.62491,1.74323 -3.61133,2.94336 -1.41862,1.72597 -3.14843,5.91797 -3.14843,5.91797 0,0 3.33983,-1.79574 5.15234,-2.29687 1.33257,-0.36845 2.73657,-0.49304 4.11914,-0.49805 1.49227,-0.005 2.95678,0.57888 4.44727,0.50586 0.76264,-0.0374 1.60811,-0.0522 2.24023,-0.48047 1.09562,-0.74232 2.01335,-1.98829 2.21094,-3.29687 0.15187,-1.00577 -0.1659,-2.19261 -0.875,-2.92188 -0.90541,-0.93121 -2.40291,-1.14389 -3.69922,-1.22461 -0.28972,-0.018 -0.58108,-0.0254 -0.87305,-0.0234 z m 30.62305,21.89844 c -0.12917,4e-5 -0.25691,0.008 -0.38281,0.0254 -1.28613,0.1811 -2.33953,1.26498 -3.16993,2.26367 -1.4847,1.78565 -2.50203,4.03491 -2.94531,6.31446 -0.29652,1.52492 -0.14226,3.14961 0.24414,4.65429 0.55569,2.16394 2.91602,6.03321 2.91602,6.03321 0,0 0.52397,-3.75485 1.18945,-5.51368 0.48925,-1.29311 1.21718,-2.50022 2.0293,-3.61914 0.87655,-1.20771 2.21227,-2.04483 3.0332,-3.29101 0.42005,-0.63764 0.9081,-1.32875 0.93555,-2.0918 0.0476,-1.32256 -0.41587,-2.80045 -1.35547,-3.73242 -0.63189,-0.62677 -1.58993,-1.04326 -2.49414,-1.04297 z"
         style="fill:#ff0000;fill-opacity:1;fill-rule:evenodd;stroke:none;stroke-width:1px;stroke-linecap:butt;stroke-linejoin:round;stroke-opacity:1"
         inkscape:connector-curvature="0" />
      <path
         id="path9693-6"
         transform="translate(-9.7940809,5.387211)"
         d="m 240.71875,42.505859 c 0,0 -1.20008,2.681615 -2.29883,3.576172 -0.91951,0.748632 -2.16367,1.0163 -3.32031,1.277344 -1.08273,0.244364 -2.24641,0.536504 -3.32031,0.255859 -1.48485,-0.388038 -3.83008,-2.554687 -3.83008,-2.554687 0,0 -2.66303,1.598829 -3.57617,2.808594 -1.21909,1.615087 -2.62152,3.621505 -2.29883,5.61914 0.37549,2.324462 2.8855,3.746923 4.59766,5.363281 1.63428,1.542849 4.55069,1.990469 5.36328,4.085938 0.34412,0.887401 -0.1994,1.910785 -0.50977,2.810547 -0.59604,1.727918 -1.90271,3.143965 -2.55469,4.851562 -0.5008,1.311654 -1.21335,2.695101 -1.02148,4.085938 0.28138,2.039716 2.36821,3.425534 3.06445,5.363281 0.84711,2.357642 1.37033,4.902766 1.27735,7.40625 -0.026,0.701521 -0.0381,1.524806 -0.51172,2.042969 -1.39863,1.530167 -3.80429,2.176496 -5.87305,2.042969 -2.84944,-0.183916 -5.40982,-2.075005 -7.66211,-3.830078 -3.80927,-2.96833 -5.39882,-8.352642 -9.44922,-10.982422 -2.9818,-1.935974 -6.69737,-2.548198 -10.21484,-3.064454 -1.34765,-0.197793 -2.76224,-0.312944 -4.08789,0 -2.03792,0.481088 -4.24524,1.226725 -5.61719,2.808594 -0.52915,0.610119 -0.76758,2.298828 -0.76758,2.298828 0,0 1.8384,2.770342 2.29883,4.341797 0.28824,0.98375 0.67143,2.127357 0.25586,3.064453 -0.73857,1.665455 -4.3418,3.320313 -4.3418,3.320313 0,0 -1.01831,3.808611 -0.50976,5.619141 0.88862,3.16365 3.52853,5.615452 5.87304,7.917972 1.56746,1.53939 3.18614,3.53568 5.36329,3.83007 2.69565,0.3645 5.64979,-0.97829 7.6621,-2.80859 1.6056,-1.46038 0.72313,-5.273759 2.8086,-5.874999 1.8382,-0.52995 3.50607,1.706423 4.85351,3.064449 2.04658,2.06265 2.55266,5.34011 4.59571,7.40625 0.78044,0.78926 2.63955,0.69235 2.81054,1.78907 0.10243,0.65695 -0.88523,0.99429 -1.27734,1.53125 -0.65459,0.8964 -1.37328,1.7806 -1.78711,2.81054 -0.64736,1.61114 -1.3604,3.4041 -1.02344,5.10742 0.1787,0.90332 1.53321,2.29883 1.53321,2.29883 0,0 2.94786,-0.93645 4.34179,-0.51172 1.50157,0.45752 2.8424,1.6768 3.57617,3.06446 0.72073,1.36296 0.50977,4.59765 0.50977,4.59765 0,0 4.16213,1.08872 6.12891,0.50977 1.33942,-0.39427 2.58309,-1.36699 3.32031,-2.55273 1.14599,-1.8432 1.32015,-4.21478 1.27734,-6.38477 -0.0501,-2.53919 -3.08918,-5.22574 -1.78711,-7.40625 0.85749,-1.43601 3.29425,-1.88741 4.85157,-1.27734 1.03349,0.40487 1.56415,1.72165 1.78906,2.80859 0.43672,2.11062 -0.39337,4.32359 -1.02344,6.38477 -0.76826,2.51324 -2.14152,4.80253 -3.31836,7.15234 -1.12572,2.24774 -2.96161,4.20107 -3.57617,6.63867 -0.77003,3.05425 -0.1651,6.30567 0,9.45117 0.1705,3.24836 0.85098,6.45477 1.02148,9.70313 0.0491,0.93515 0.61685,2.10598 0,2.81054 -0.84861,0.96927 -2.56934,0.77469 -3.83007,0.50977 -2.24322,-0.47137 -5.875,-3.57422 -5.875,-3.57422 0,0 1.29577,8.80882 3.83203,12.25781 1.59485,2.16879 3.9709,4.23684 6.63867,4.59766 1.78761,0.24177 5.10742,-1.78711 5.10742,-1.78711 0,0 -0.19649,2.82237 -0.76562,4.08594 -0.39862,0.88501 -0.97381,1.76904 -1.78711,2.29883 -2.05874,1.34108 -7.15039,1.78711 -7.15039,1.78711 0,0 2.79244,4.53182 4.85156,6.1289 1.32504,1.02771 2.95731,1.69486 4.59765,2.04297 1.91535,0.40647 4.03853,0.68434 5.87305,0 1.58322,-0.5906 3.83203,-3.32031 3.83203,-3.32031 0,0 0.50557,3.26515 -0.25586,4.59765 -0.91372,1.599 -2.83502,2.53078 -4.59765,3.06446 -1.87399,0.5674 -5.87305,0 -5.87305,0 0,0 3.44249,3.19727 5.10742,4.85351 2.09158,2.08067 4.24684,4.11283 6.12891,6.38477 3.93312,4.74786 10.72656,15.06641 10.72656,15.06641 l 48.01367,-34.73243 c 0,0 -14.58628,-9.73723 -20.17578,-16.3457 -8.27151,-9.77942 -14.91381,-21.28225 -18.89844,-33.45508 -2.24034,-6.84411 -0.68334,-14.49905 -2.55468,-21.45312 -1.2287,-4.56595 -5.61914,-13.025394 -5.61914,-13.025394 0,0 7.0602,-4.830866 10.47265,-7.40625 4.0114,-3.027408 8.57567,-5.551461 11.74805,-9.449218 2.59562,-3.189122 4.5852,-7.002128 5.61719,-10.982422 0.61997,-2.391188 1.09382,-5.082465 0.25586,-7.40625 -1.04321,-2.892978 -6.12891,-6.894532 -6.12891,-6.894532 0,0 -2.01538,1.735568 -3.06445,2.552735 -0.91347,0.711543 -1.6566,1.947463 -2.81055,2.042969 -1.13825,0.09421 -2.20161,-0.782914 -3.06445,-1.53125 -1.01687,-0.881923 -2.29883,-3.320313 -2.29883,-3.320313 0,0 -5.61637,2.236592 -7.66211,4.341797 -1.14119,1.174367 -1.72741,2.806491 -2.29688,4.341797 -0.66793,1.800749 -0.93887,3.726613 -1.27734,5.617187 -0.575,3.211778 0.2289,6.810708 -1.27734,9.705078 -0.63974,1.229321 -1.78921,2.268096 -3.06446,2.810547 -1.25585,0.534202 -2.77392,0.629639 -4.08593,0.253907 -2.11206,-0.604852 -4.55537,-1.787061 -5.36328,-3.830079 -0.95778,-2.421995 1.21302,-5.07713 1.53124,-7.662109 0.21869,-1.776357 0.31607,-3.574527 0.25586,-5.363281 -0.075,-2.226818 -1.5855,-4.568878 -0.76562,-6.640625 0.53346,-1.348002 2.51891,-1.600515 3.32031,-2.808594 0.78886,-1.189185 1.20212,-2.660875 1.27735,-4.085938 0.11442,-2.167392 0.15903,-4.757655 -1.27735,-6.384765 -1.60345,-1.816362 -4.51818,-1.836291 -6.89648,-2.298828 -1.33964,-0.260538 -4.08594,-0.25586 -4.08594,-0.25586 z M 414.38477,399.79883 c 0,0 -17.15845,10.46248 -26.30469,14.55859 -6.5853,2.9492 -13.43245,5.39674 -20.43164,7.15039 -3.7607,0.94225 -7.62669,2.08483 -11.49219,1.78711 -3.91917,-0.30185 -7.60078,-2.08436 -11.23828,-3.57422 -6.09505,-2.49643 -11.41692,-6.72809 -17.62109,-8.93945 -5.25345,-1.8725 -10.77937,-3.92379 -16.34571,-3.57617 -5.85827,0.36585 -11.46032,3.03935 -16.59961,5.875 -3.60871,1.99114 -6.31356,5.3201 -9.70508,7.66211 -1.63386,1.12826 -5.10742,3.06445 -5.10742,3.06445 0,0 -2.08829,-3.60659 -2.29883,-5.61914 -0.19806,-1.89324 -0.0101,-4.01915 1.02149,-5.61914 0.72925,-1.13137 2.1435,-1.64543 3.32031,-2.29883 3.00028,-1.66584 9.44922,-4.08594 9.44922,-4.08594 0,0 -6.56561,-1.03871 -9.70508,-0.2539 -3.51368,0.87835 -7.10189,2.60316 -9.44922,5.36133 -2.05999,2.42054 -2.7581,5.81111 -3.32031,8.93945 -0.1807,1.00546 -0.0934,2.04716 0,3.06445 0.21372,2.32781 1.27734,6.89649 1.27734,6.89649 0,0 -6.07163,1.26441 -8.17382,3.32031 -2.45346,2.39943 -3.39046,6.08871 -4.08594,9.44922 -0.56934,2.75101 -0.51584,5.66619 0,8.42773 0.51962,2.78175 1.34778,5.66631 3.06445,7.91602 1.47701,1.93563 5.875,4.34179 5.875,4.34179 0,0 -2.48805,-6.01472 -3.06445,-9.19336 -0.41039,-2.26319 -0.98201,-4.71401 -0.25586,-6.89648 0.89823,-2.69969 3.09506,-4.92102 5.36328,-6.63867 2.58429,-1.95701 8.93945,-3.83203 8.93945,-3.83203 0,0 0.71512,3.13388 0.25391,4.59765 -0.91099,2.89129 -4.71482,4.2564 -5.61719,7.15039 -1.65029,5.29263 -0.30078,11.21761 1.02149,16.60157 1.04523,4.25589 2.46353,8.71613 5.36328,12.00195 2.17362,2.46302 5.686,3.29995 8.42773,5.10938 5.24488,3.4614 11.04448,6.37714 15.32227,10.98046 2.44495,2.63101 5.18441,5.63007 5.61914,9.19532 0.20531,1.68374 -0.0871,3.96514 -1.5332,4.85156 -0.88299,0.54122 -2.15987,-0.005 -3.06446,-0.50977 -1.58085,-0.88127 -2.23472,-2.86877 -3.57422,-4.08593 -2.4829,-2.25613 -5.18295,-4.35526 -8.17382,-5.875 -5.11206,-2.59757 -10.96481,-3.37644 -16.34375,-5.36329 -5.8726,-2.1692 -12.02682,-3.88338 -17.36719,-7.15039 -6.59279,-4.03318 -11.45976,-10.40517 -17.62305,-15.06836 -2.44775,-1.85199 -7.66015,-5.10742 -7.66015,-5.10742 0,0 0.65031,-7.5126 0.2539,-11.23828 -0.426,-4.00382 -1.58945,-7.91064 -2.80859,-11.74805 -0.41643,-1.31076 -1.22637,-2.48896 -1.53125,-3.83007 -0.56741,-2.4959 -0.0877,-5.13788 -0.51172,-7.66211 -0.32156,-1.91446 -0.52546,-3.95992 -1.5332,-5.61914 -1.56369,-2.57456 -6.63868,-6.12891 -6.63868,-6.12891 0,0 0.2892,2.51287 -0.25586,3.57617 -0.9099,1.77505 -2.7388,3.10662 -4.59765,3.83008 -1.6679,0.64914 -5.36328,0.25586 -5.36328,0.25586 0,0 -4.60521,2.13085 -5.71875,4.22266 -1.14595,2.15271 -1.10733,5.00102 -0.31836,7.30859 0.95744,2.8003 4.44931,4.11238 5.73633,6.77734 1.06787,2.21118 1.31237,4.77062 1.44335,7.22266 0.14188,2.65578 -0.7207,7.94726 -0.7207,7.94726 0,0 -5.55663,-0.51724 -7.94726,-1.80664 -3.82201,-2.06142 -7.68958,-5.03384 -9.39063,-9.02929 -0.75457,-1.77235 0.77565,-4.01608 0,-5.7793 -1.57832,-3.58789 -5.28969,-5.95752 -8.66797,-7.94531 -1.96877,-1.15843 -4.22912,-1.92075 -6.5,-2.16797 -2.28659,-0.24893 -6.86328,0.72266 -6.86328,0.72266 0,0 1.73787,4.79935 0.72266,6.86328 -0.81113,1.64902 -2.92706,2.38818 -4.69532,2.88867 -1.62179,0.45903 -5.05664,0 -5.05664,0 0,0 -1.78016,7.91699 0,11.19726 1.36979,2.52408 4.46928,3.87911 7.22266,4.69532 1.96227,0.5817 4.24975,-0.78323 6.14063,0 1.10111,0.45609 2.33838,1.3509 2.52929,2.52734 0.21561,1.32865 -0.67115,2.88851 -1.80664,3.61133 -1.8115,1.15315 -4.30773,-0.0871 -6.43945,0.17187 -2.7329,0.33193 -5.50793,0.7522 -8.06836,1.76368 -1.67228,0.66062 -4.63477,2.75976 -4.63477,2.75976 0,0 1.49868,2.55287 1.80664,3.97461 0.33133,1.52963 0.78557,3.34163 0,4.69531 -0.97438,1.67903 -5.05664,2.88868 -5.05664,2.88868 0,0 -0.24339,5.00398 0.72266,7.22265 1.60057,3.67593 4.2084,7.57677 7.94531,9.0293 4.1761,1.62324 9.35607,0.5609 13.36328,-1.44336 2.20932,-1.10502 3.98237,-3.19354 5.05664,-5.41797 1.05885,-2.1925 1.08399,-7.22461 1.08399,-7.22461 0,0 4.57701,-0.1199 6.86133,0 2.29694,0.12056 6.86328,0.72266 6.86328,0.72266 0,0 1.49377,2.05206 1.80469,3.25195 0.69459,2.6805 -0.81328,5.65973 0,8.30664 1.1965,3.89416 3.38912,7.98576 6.86328,10.11328 1.65552,1.01381 3.88694,1.15572 5.77929,0.72266 2.37633,-0.54382 4.13157,-2.59106 6.13868,-3.97461 1.84382,-1.27099 3.30684,-3.22549 5.41796,-3.97266 2.38608,-0.84449 5.24241,-1.31758 7.58594,-0.36133 2.12964,0.86898 4.04179,2.85133 4.69531,5.05664 0.79856,2.69478 0.23242,6.05173 -1.44531,8.30665 -1.12488,1.51187 -5.05664,2.52929 -5.05664,2.52929 0,0 2.49819,5.37334 4.69531,7.22266 4.20885,3.54259 9.73725,5.63572 15.16993,6.50195 5.37118,0.85643 16.25195,-1.44531 16.25195,-1.44531 0,0 -5.67473,4.54787 -9.0293,5.7793 -4.21969,1.549 -13.36328,1.80664 -13.36328,1.80664 0,0 5.60506,7.09587 9.39063,9.39062 3.77716,2.28966 8.22629,3.82038 12.64062,3.97266 3.09345,0.10671 6.0933,-1.19365 9.03125,-2.16797 4.35138,-1.44305 12.64063,-5.41797 12.64063,-5.41797 0,0 -3.03282,6.74512 -5.7793,9.03125 -2.69773,2.24555 -9.75195,3.97266 -9.75195,3.97266 0,0 9.67799,3.97446 14.80859,4.33398 5.82569,0.40823 11.63688,-1.25412 17.33594,-2.5293 2.82459,-0.63201 8.30859,-2.52734 8.30859,-2.52734 0,0 -2.35313,5.75212 -4.69531,7.58399 -2.7891,2.18142 -10.11328,3.25195 -10.11328,3.25195 0,0 18.45511,3.19197 27.44922,1.44336 5.86868,-1.14097 10.62907,-5.55262 16.25195,-7.58399 4.87516,-1.76124 11.03634,-0.65806 15.04101,-3.94922 5.07793,-4.17319 5.87064,-11.76437 8.60743,-17.74023 2.34476,-5.11985 6.82716,-9.88212 6.6914,-15.51172 -0.15837,-6.56695 -6.00158,-11.69391 -8.66797,-17.69726 -1.84218,-4.14764 -4.14542,-8.19666 -5.05664,-12.64258 -1.01554,-4.95493 -1.72385,-10.29897 -0.36133,-15.16992 0.96263,-3.44135 2.90718,-6.90315 5.7793,-9.0293 5.02429,-3.71934 11.92011,-3.87517 18.0586,-5.05664 7.72892,-1.48758 16.12611,0.2869 23.47656,-2.52735 6.92723,-2.65222 14.37738,-6.56227 18.05859,-13.00195 4.56011,-7.97717 4.08414,-18.39349 2.52735,-27.44922 -1.07418,-6.24841 -7.96875,-17.27148 -7.96875,-17.27148 z"
         style="fill:#ffd700;fill-opacity:1;fill-rule:evenodd;stroke:#000000;stroke-width:3.05691028;stroke-linecap:butt;stroke-linejoin:round;stroke-miterlimit:4;stroke-dasharray:none;stroke-opacity:1"
         inkscape:connector-curvature="0" />
      <path
         id="path9737-1"
         d="m 329.55508,114.04541 -6.91797,2.96289 c 0,0 0.0943,3.16669 0.1875,4.74805 0.0728,1.23518 0.0631,2.48466 0.28906,3.70117 0.16489,0.88776 0.77344,2.59571 0.77344,2.59571 0,0 0.98968,-3.2838 1.59961,-4.88477 0.57183,-1.501 1.27181,-2.94894 1.92578,-4.41602 0.70182,-1.57442 2.14258,-4.70703 2.14258,-4.70703 z m 12.18164,4.62696 -6.91992,2.96093 c 0,0 0.0943,3.16669 0.1875,4.74805 0.0728,1.23518 0.0631,2.48466 0.28906,3.70117 0.16489,0.88776 0.77344,2.59766 0.77344,2.59766 0,0 0.98968,-3.2838 1.59961,-4.88477 0.57183,-1.501 1.27376,-2.94893 1.92773,-4.41601 0.70182,-1.57442 2.14258,-4.70703 2.14258,-4.70703 z m -11.20898,28.95117 c 0,0 -0.34985,1.7793 -0.38282,2.68164 -0.0452,1.2365 0.14483,2.47061 0.25391,3.70312 0.13965,1.57793 0.51172,4.72461 0.51172,4.72461 l 7.27929,1.91602 c 0,0 -1.8855,-2.88727 -2.81054,-4.3418 -0.86197,-1.35536 -1.76704,-2.68498 -2.55274,-4.08594 -0.83803,-1.49426 -2.29882,-4.59765 -2.29882,-4.59765 z m 8.96484,1.67578 c 0,0 -0.34984,1.7793 -0.38281,2.68164 -0.0452,1.2365 0.14678,2.47062 0.25586,3.70313 0.13965,1.57793 0.50976,4.7246 0.50976,4.7246 l 7.2793,1.91602 c 0,0 -1.88356,-2.88727 -2.80859,-4.3418 -0.86197,-1.35536 -1.76899,-2.68497 -2.55469,-4.08593 -0.83803,-1.49426 -2.29883,-4.59766 -2.29883,-4.59766 z"
         style="fill:#ffffff;fill-rule:evenodd;stroke:none;stroke-width:1px;stroke-linecap:butt;stroke-linejoin:miter;stroke-opacity:1"
         inkscape:connector-curvature="0" />
      <path
         id="path9863-2"
         d="m 564.15664,62.535648 c -0.87198,-0.02417 -1.74216,-0.02154 -2.60937,0.0078 -11.79311,0.399304 -24.06671,3.233491 -34.13282,9.390625 -16.50125,10.09331 -29.01058,26.349029 -39.1875,42.798827 -4.68177,7.56754 -7.21005,16.34192 -9.57031,24.92188 -3.11048,11.30714 -4.70235,23.01243 -5.96094,34.67187 -1.00888,9.34612 -1.29623,18.77347 -1.26367,28.17383 0.0403,11.63309 0.0369,23.35381 1.80664,34.85156 2.04347,13.27594 5.46316,26.40612 10.11328,39.00782 3.00929,8.15508 6.58457,16.1302 10.65625,23.83203 -0.0527,0.0687 -0.1006,0.1464 -0.15625,0.20898 -2.40417,2.70387 -6.62246,3.78734 -10.23632,3.61133 -3.31822,-0.16162 -6.04002,-2.76746 -9.03125,-4.21289 -1.41425,-0.6834 -2.66483,-1.8533 -4.21485,-2.10742 -4.29943,-0.70489 -8.90167,0.18266 -12.94531,1.80469 -7.80616,3.13128 -14.85714,8.48864 -20.4707,14.75195 -4.07913,4.55128 -7.37485,10.07262 -9.03321,15.95508 -2.37027,8.40772 -2.68988,17.6408 -0.90234,26.1914 1.61654,7.73262 4.95128,15.50347 10.23633,21.375 6.14856,6.83087 14.63926,11.94639 23.48242,14.44922 10.23494,2.89674 22.04739,3.98381 31.91016,0 3.75042,-1.51488 6.72642,-4.91428 8.73046,-8.42773 2.14666,-3.76348 3.77326,-8.37967 3.00977,-12.64453 -0.76508,-4.27378 -4.47197,-7.48021 -7.22461,-10.83789 -3.77886,-4.60947 -9.40459,-7.64157 -12.64453,-12.64454 -1.2258,-1.89282 -1.78351,-4.15544 -2.4082,-6.32226 -0.56698,-1.96663 -1.86569,-4.08301 -1.20313,-6.01953 0.6448,-1.88462 2.64937,-3.21789 4.51563,-3.91407 2.35052,-0.87682 5.16818,-0.85866 7.52539,0 3.07849,1.1214 5.66808,3.62454 7.52734,6.32227 2.77344,4.02419 4.81641,13.84766 4.81641,13.84766 0,0 2.48861,-8.44205 1.80664,-12.64453 -0.46726,-2.8794 -1.8514,-5.76352 -3.91406,-7.82618 -2.69733,-2.69733 -6.52378,-4.24273 -10.23633,-5.11914 -4.39492,-1.0375 -9.21606,-1.27895 -13.54688,0 -3.89744,1.15097 -8.09103,3.1716 -10.23633,6.62305 -2.29324,3.68947 -2.6291,8.74947 -1.5039,12.94531 1.3932,5.1952 5.96262,9.01329 9.63281,12.94531 1.89388,2.02899 4.83806,3.07458 6.32227,5.41993 1.22368,1.93365 2.5744,4.46736 1.80664,6.62304 -1.44813,4.06601 -6.27546,6.84137 -10.53711,7.52539 -6.33035,1.01606 -13.40528,-1.65594 -18.36328,-5.7207 -5.83419,-4.7831 -9.7228,-12.40774 -10.83789,-19.86914 -1.10538,-7.39642 1.41659,-15.17032 4.51562,-21.97656 1.98773,-4.36555 5.04984,-8.3634 8.73047,-11.43946 3.54674,-2.96417 7.72628,-6.06627 12.3418,-6.32226 3.10767,-0.17236 5.6212,3.17187 8.73046,3.3125 4.47534,0.20242 9.13211,-1.26191 12.94532,-3.61328 1.63343,-1.00724 3.51079,-2.97256 5.14062,-4.89453 0.79143,1.35237 1.59665,2.69602 2.41992,4.02734 7.02264,11.35638 17.1467,20.55911 24.37891,31.7832 7.61422,11.81695 14.95683,24.02832 19.86523,37.20118 3.23275,8.67579 7.32337,17.90744 6.13868,27.08984 -1.08522,8.41135 -5.86279,16.45613 -11.73828,22.57226 -3.55506,3.70066 -8.3545,6.51981 -13.36133,7.64454 -6.30374,1.41606 -13.15581,0.41787 -19.32422,-1.50391 -11.89775,-3.70678 -21.38807,-12.81009 -32.32617,-18.78125 -7.53799,-4.11503 -15.38086,-7.65038 -22.9336,-11.73828 -6.82899,-3.69617 -14.27912,-6.56417 -20.22656,-11.55664 -8.15235,-6.84333 -15.32647,-15.20706 -20.40625,-24.56055 -4.54331,-8.36568 -5.56831,-18.20862 -8.48828,-27.26953 -0.9342,-2.89891 -1.34953,-6.03976 -2.88867,-8.66797 -1.35668,-2.31663 -3.31964,-4.28436 -5.41797,-5.95898 -17.50761,-13.97232 -39.43888,-21.30282 -58.51172,-33.04883 -15.48112,-9.53405 -45.32813,-30.33789 -45.32813,-30.33789 l -47.52343,14.83593 c 0,0 -9.61173,8.49506 -15.57813,10.2168 -4.41758,1.27479 -9.32244,0.8267 -13.79101,-0.25586 -5.43931,-1.31772 -11.33045,-3.24086 -15.06836,-7.40625 -3.32749,-3.70803 -2.96464,-9.54907 -5.10742,-14.04687 -2.13495,-4.48135 -5.30596,-8.40043 -7.66211,-12.76953 -2.42176,-4.49077 -6.31693,-8.69915 -6.64063,-13.79102 -0.18787,-2.95531 2.33621,-5.50469 2.81055,-8.42773 0.24545,-1.51256 0.50255,-3.15007 0,-4.59766 -0.67586,-1.94681 -2.31242,-3.45957 -3.83203,-4.85156 -1.43451,-1.31404 -3.03786,-2.57263 -4.87891,-3.20117 -1.52674,-0.52124 -4.82617,-0.375 -4.82617,-0.375 0,0 0.27492,2.66661 -0.25391,3.83203 -0.34824,0.76743 -1.0557,1.37189 -1.78906,1.78711 -1.52721,0.86469 -3.38568,1.61745 -5.10742,1.27734 -1.97107,-0.38936 -4.85156,-3.57617 -4.85156,-3.57617 0,0 -4.34152,2.15446 -5.61914,4.08594 -1.25322,1.89459 -1.82507,4.38788 -1.53321,6.64062 0.46969,3.62536 2.28343,7.38606 5.10938,9.70508 1.85319,1.52076 4.80281,0.87175 6.89453,2.04297 0.99933,0.55955 2.05299,1.26924 2.55469,2.29883 1.084,2.2246 0.42458,4.93307 0.50976,7.40625 0.0469,1.36128 0,4.08593 0,4.08593 0,0 -3.08659,-2.00886 -4.5957,-3.06445 -2.59517,-1.81527 -4.75636,-4.35949 -7.66211,-5.61914 -2.54299,-1.10239 -5.70672,-0.26816 -8.17383,-1.53125 -2.19753,-1.12508 -3.82035,-3.18214 -5.36328,-5.10938 -1.55117,-1.93753 -2.35461,-4.38899 -3.83008,-6.38476 -2.04259,-2.76288 -3.75775,-6.26229 -6.89648,-7.66016 -2.74139,-1.22091 -6.03728,-0.46535 -9.00196,0 -1.92148,0.3016 -5.55468,1.78711 -5.55468,1.78711 0,0 0.96406,1.63961 1.02148,2.55469 0.12671,2.01956 -0.12658,4.41648 -1.53125,5.87305 -1.8509,1.91929 -7.66211,2.29882 -7.66211,2.29882 0,0 -2.72395,6.04632 -1.78906,8.9375 0.79499,2.45853 3.25144,4.40107 5.68359,5.27344 2.22743,0.79895 4.79993,0.1916 7.08594,-0.41992 2.02281,-0.54111 5.61914,-2.80859 5.61914,-2.80859 0,0 3.11298,6.7756 5.61914,9.44922 2.47074,2.63582 6.45279,3.50807 8.93945,6.1289 1.23606,1.30275 2.8086,4.59766 2.8086,4.59766 0,0 -4.29455,2.96776 -6.64063,4.08594 -3.01378,1.43641 -6.11239,3.21204 -9.44922,3.32031 -2.20895,0.0717 -4.20479,-2.15289 -6.38476,-1.78907 -2.95805,0.49368 -5.88149,2.52696 -7.40625,5.10938 -1.30496,2.21016 -1.08448,5.11339 -0.76563,7.66016 0.12378,0.98871 1.02149,2.81054 1.02149,2.81054 0,0 2.05846,0.82572 2.83594,1.57813 1.0574,1.0233 1.87865,2.36708 2.27148,3.78515 0.31817,1.14857 0.42699,2.46151 0,3.57422 -0.41032,1.06929 -2.29883,2.55469 -2.29883,2.55469 0,0 3.44724,4.1569 5.875,4.3418 3.6451,0.27762 7.29124,-2.36031 9.70313,-5.10742 1.61716,-1.84193 2.55468,-6.89649 2.55468,-6.89649 0,0 3.73684,-0.73769 5.61915,-1.02148 2.11958,-0.31956 4.42676,0.10671 6.38476,-0.76563 3.30648,-1.47313 5.04282,-5.33051 8.17188,-7.15039 1.79201,-1.04224 3.82659,-2.36369 5.875,-2.04492 2.52354,0.39271 6.1289,4.59766 6.1289,4.59766 0,0 -3.08758,1.246 -4.3418,2.29882 -1.48685,1.24811 -2.71291,2.85889 -3.57617,4.59766 -1.17538,2.36745 -2.18375,5.02075 -2.04297,7.66016 0.1263,2.3681 0.99914,4.85062 2.55469,6.64062 1.72476,1.98471 6.89453,3.83203 6.89453,3.83203 0,0 3.09896,-2.00302 4.85352,-2.04297 1.72331,-0.0392 3.60146,0.60026 4.85156,1.78711 0.94037,0.89279 1.5332,3.57617 1.5332,3.57617 0,0 4.10707,0.29418 6.12891,0 3.25184,-0.47314 6.75788,-0.92506 9.44922,-2.81054 2.34273,-1.64126 5.10742,-6.89453 5.10742,-6.89453 0,0 0.4383,6.93983 -0.50976,10.21484 -1.05997,3.66157 -5.61915,9.96094 -5.61915,9.96094 0,0 7.69831,1.65237 11.49219,1.02148 3.30832,-0.55015 9.19531,-4.08593 9.19531,-4.08593 0,0 1.74003,4.20604 1.53126,6.38476 -0.19626,2.04789 -1.40667,3.90871 -2.55274,5.61719 -1.10714,1.65045 -4.08594,4.34179 -4.08594,4.34179 0,0 4.98829,3.84891 7.91602,4.85352 2.64207,0.90659 5.54446,1.16134 8.32812,0.92969 3.29815,-0.27446 9.54883,-2.71875 9.54883,-2.71875 0,0 0.62823,3.1088 0.25586,4.59765 -0.6766,2.70526 -4.3418,7.15039 -4.3418,7.15039 0,0 5.95675,3.42385 9.23047,4.3418 5.23202,1.46706 10.81801,2.43843 16.20703,1.74219 4.46298,-0.5766 12.61719,-4.80664 12.61719,-4.80664 0,0 1.04477,1.28189 1.02149,2.04297 -0.0571,1.86812 -2.81055,4.85351 -2.81055,4.85351 0,0 6.65329,1.46688 9.96094,1.02149 4.43399,-0.59706 8.78971,-2.37382 12.51367,-4.85352 2.55583,-1.70187 6.38476,-6.63867 6.38476,-6.63867 0,0 3.8714,1.29822 5.875,1.27539 2.53952,-0.0289 5.19114,-0.5448 7.40625,-1.78711 3.5702,-2.0023 6.25173,-5.39094 8.6836,-8.68359 1.9457,-2.63441 4.5957,-8.6836 4.5957,-8.6836 0,0 2.15655,6.49206 3.83203,9.44922 3.62586,6.3995 8.23523,12.26976 13.2793,17.62305 5.67371,6.02153 11.89958,11.67784 18.89844,16.08984 5.12577,3.23123 11.28114,4.50668 16.60156,7.40625 3.1851,1.73585 6.28022,3.63521 9.31055,5.63672 0.22084,0.0731 0.43969,0.15069 0.65039,0.23633 3.45657,1.40498 6.23877,4.10611 9.19336,6.38477 4.25547,3.28193 12.25781,10.47265 12.25781,10.47265 0,0 -8.4908,-7.39651 -13.02344,-10.72656 -2.97561,-2.18613 -5.99354,-4.32984 -9.07812,-6.36719 -0.7848,-0.25957 -1.62042,-0.41574 -2.41602,-0.27344 -1.35124,0.2417 -2.91844,0.83706 -3.57422,2.04297 -0.73319,1.34825 -0.47141,3.24621 0.25586,4.59766 1.75891,3.26851 5.93407,4.45777 8.9375,6.63867 2.61855,1.90142 5.34778,3.65284 7.91797,5.61914 1.48903,1.13916 3.48173,1.91028 4.3418,3.57617 0.54815,1.06172 0.84545,2.53606 0.2539,3.57422 -0.28272,0.49618 -0.98468,0.60209 -1.53125,0.76758 -0.65689,0.19889 -1.54026,-0.21336 -2.04297,0.25391 -1.58973,1.47765 -1.9708,4.32811 -1.27734,6.38476 1.23333,3.65775 5.26683,5.86599 8.68359,7.66211 1.86414,0.97994 4.04224,1.24842 6.12891,1.53321 3.20635,0.43761 9.70508,0.25585 9.70508,0.25585 0,0 0.47219,5.82598 0,8.68165 -0.73343,4.4356 -2.11501,8.86391 -4.3418,12.76953 -2.33247,4.09097 -6.9539,6.58394 -9.19336,10.72656 -2.61365,4.83479 -3.39501,10.4731 -4.59765,15.83594 -0.94326,4.20619 -2.33496,8.46877 -2.04297,12.76953 0.39768,5.85744 5.40248,10.99197 5.10742,16.85547 -0.0556,1.1053 -1.27734,3.06445 -1.27734,3.06445 0,0 -4.95854,-1.81098 -7.40625,-1.27734 -1.91487,0.41747 -3.59728,1.81439 -4.85157,3.32031 -2.14637,2.57697 -3.83315,5.84914 -4.08593,9.19336 -0.25166,3.32936 2.19956,6.35304 2.64453,9.66211 0.33694,2.50569 0.71857,5.16 0,7.58398 -0.81621,2.75338 -4.69532,7.22461 -4.69532,7.22461 0,0 3.31917,0.83834 4.87696,0.35938 2.12969,-0.6548 3.86419,-2.39691 5.23633,-4.15235 0.89587,-1.14613 0.73408,-2.9899 1.80664,-3.97265 0.80012,-0.73313 2.06091,-1.48247 3.07031,-1.08399 1.57772,0.62284 2.15427,2.82852 2.34765,4.51367 0.27632,2.4078 -1.80664,7.04297 -1.80664,7.04297 0,0 3.18985,-0.73674 4.33399,-1.80469 1.47598,-1.37769 2.51798,-3.40797 2.70898,-5.41796 0.18929,-1.99205 -1.23466,-3.81672 -1.625,-5.7793 -0.49667,-2.49719 -0.98045,-5.03909 -0.90234,-7.58399 0.0413,-1.3454 -0.13597,-2.93443 0.7207,-3.97265 0.73992,-0.89673 2.14632,-1.62503 3.25196,-1.26563 0.95279,0.30971 1.18593,1.62877 1.625,2.5293 1.76044,3.61065 2.40909,7.67679 3.97265,11.37695 1.67658,3.96761 3.39442,7.97179 5.7793,11.5586 2.81256,4.23003 5.80629,8.59266 9.93164,11.55664 1.9518,1.40233 4.32273,2.249 6.68164,2.70898 1.41801,0.2765 4.33398,0 4.33398,0 0,0 -0.60103,8.8091 -0.17968,13.1836 0.678,7.03915 3.28244,13.77446 4.33398,20.76757 0.38655,2.57072 1.02695,5.18388 0.72266,7.76563 -0.3944,3.34622 -1.86603,6.49828 -3.25,9.57031 -0.19934,0.44249 -0.59809,0.79461 -0.72266,1.26367 -1.06609,4.0144 0,12.46094 0,12.46094 0,0 -4.72366,3.89498 -7.22266,5.6582 -4.23001,2.98457 -8.35309,6.29654 -13.12304,8.3086 -3.26937,1.37909 -10.35547,2.46679 -10.35547,2.46679 0,0 -3.07285,-3.78121 -4.69531,-5.59765 -3.37535,-3.77892 -6.77159,-7.55717 -10.47461,-11.01563 -1.99963,-1.86757 -3.77651,-4.23059 -6.32031,-5.23828 -1.79438,-0.71082 -3.8517,-0.49149 -5.77735,-0.36133 -1.83746,0.1242 -3.86522,0.0937 -5.41797,1.08399 -0.94406,0.60208 -1.98633,2.70898 -1.98633,2.70898 0,0 2.22032,1.52923 2.70899,2.70899 0.5068,1.22351 0.42644,2.71887 0,3.97265 -0.31791,0.93471 -1.06033,1.70131 -1.80664,2.34766 -0.83533,0.72345 -1.81968,1.34498 -2.88867,1.625 -1.74695,0.45761 -5.41797,0 -5.41797,0 0,0 0.23858,6.71458 2.16601,9.21094 2.1229,2.74953 5.83967,4.03766 9.21094,4.875 1.98632,0.49335 4.15054,0.48602 6.13867,0 1.64769,-0.4028 2.84949,-2.66566 4.51563,-2.34766 1.17368,0.22401 1.51283,1.85412 2.34765,2.70898 1.25045,1.28049 3.97266,3.61329 3.97266,3.61329 0,0 -2.74208,2.82947 -4.33398,3.97265 -2.73549,1.96442 -5.556,4.17216 -8.84961,4.875 -2.8356,0.60511 -5.80327,-0.27512 -8.66797,-0.72265 -1.58699,-0.24792 -3.08983,-1.03255 -4.69532,-1.08203 -2.19592,-0.0677 -4.51193,0.14701 -6.5,1.08203 -1.08125,0.50853 -1.88365,1.48363 -2.70898,2.34765 -1.00653,1.05372 -2.70898,3.43164 -2.70898,3.43164 0,0 2.38107,0.92269 3.25,1.80664 0.71738,0.72979 1.32546,1.69269 1.44531,2.70899 0.16758,1.421 -0.23097,3.00356 -1.08399,4.15234 -0.75703,1.01951 -2.18757,1.29081 -3.25,1.98633 -0.61477,0.40246 -1.80664,1.26562 -1.80664,1.26562 0,0 -0.0858,3.36541 0.54297,4.875 0.92175,2.21304 2.42318,4.42426 4.51367,5.59766 2.01191,1.12929 4.91906,2.14649 6.86329,0.9043 1.70067,-1.08658 1.03119,-3.91526 1.80468,-5.7793 1.53767,-3.70562 2.97568,-7.61933 5.59961,-10.6543 2.14195,-2.47748 4.96877,-4.41326 7.94532,-5.77929 5.0029,-2.29599 10.89703,-1.91745 16.07226,-3.79297 2.65753,-0.9631 5.08379,-2.47422 7.58398,-3.79297 1.09638,-0.57828 2.01938,-1.93567 3.25196,-1.80469 1.27263,0.13523 2.69012,1.26305 2.88867,2.52735 0.27228,1.73376 -1.41695,3.32789 -2.70898,4.51562 -2.71526,2.49607 -6.43297,3.70783 -9.93165,4.875 -4.5917,1.53181 -9.83576,0.76239 -14.26757,2.70899 -3.22971,1.4186 -6.22146,3.6159 -8.48633,6.32031 -0.86423,1.03194 -1.76507,2.26789 -1.80664,3.61328 -0.0808,2.61505 3.07031,7.22266 3.07031,7.22266 0,0 3.39823,-2.55775 5.41797,-2.88868 1.44537,-0.23682 3.18839,-0.18992 4.33398,0.72266 1.73123,1.37911 2.52735,6.13867 2.52735,6.13867 0,0 3.59344,3.63738 5.95898,4.1543 3.64519,0.79655 8.29902,0.56931 11.01758,-1.98633 2.21261,-2.08001 1.55479,-5.87497 2.16602,-8.84961 0.2948,-1.43467 0.72265,-4.33398 0.72265,-4.33398 0,0 4.45564,-0.0389 6.32031,-1.08399 1.11639,-0.62574 2.10588,-1.68095 2.5293,-2.88867 0.89711,-2.55881 -0.22796,-5.41872 -0.36133,-8.12695 -0.10971,-2.22781 -1.02058,-4.55077 -0.36132,-6.68164 0.67256,-2.17389 2.44516,-3.91341 4.15234,-5.41797 1.25479,-1.10586 2.71029,-2.12603 4.33398,-2.52735 1.34534,-0.33253 3.16691,-0.79271 4.1543,0.17969 0.73039,0.71929 0.71106,2.1925 0.18164,3.07031 -0.7513,1.24569 -2.97441,0.75034 -3.97461,1.80665 -1.82156,1.92376 -2.79705,4.75655 -2.88867,7.40429 -0.10469,3.02542 0.99172,6.17495 2.70898,8.66797 1.43461,2.08268 3.61533,3.74508 5.95899,4.69531 1.62641,0.65943 3.50013,0.78368 5.23828,0.54102 0.96316,-0.13447 2.05539,-0.3621 2.70703,-1.08399 1.17458,-1.30122 1.45871,-3.30375 1.44531,-5.05664 -0.0207,-2.70407 -1.48858,-5.1996 -2.34765,-7.76367 -0.38722,-1.15574 -1.52516,-2.24113 -1.26368,-3.43164 0.45656,-2.07872 2.42774,-4.0933 4.51368,-4.51562 2.03783,-0.41257 4.25967,0.9286 5.77929,2.34765 2.10539,1.96606 3.79297,7.76563 3.79297,7.76563 0,0 2.55412,-5.16588 4.33399,-7.4043 0.92759,-1.16656 2.48506,-1.79119 3.25,-3.07031 1.18415,-1.98012 2.04724,-4.38704 1.80664,-6.68164 -0.3032,-2.8917 -3.68254,-4.87258 -3.97266,-7.76563 -0.15594,-1.55499 0.29847,-3.28457 1.26367,-4.51367 0.6825,-0.86911 1.78877,-1.73157 2.88868,-1.625 2.12511,0.2059 3.95501,2.22659 4.87695,4.15234 1.87225,3.91075 0.36133,13.00391 0.36133,13.00391 0,0 3.21173,-5.84662 5.41796,-8.30859 3.48235,-3.88599 8.19005,-6.47577 12.09961,-9.93164 2.55213,-2.25597 5.57549,-4.16802 7.40235,-7.04297 1.73558,-2.7313 2.68243,-5.99819 3.07031,-9.21094 0.35472,-2.9381 0.31184,-6.07492 -0.72266,-8.84766 -1.17422,-3.14724 -5.95898,-8.12695 -5.95898,-8.12695 0,0 4.11219,-1.76555 6.14063,-1.26367 3.40425,0.84229 6.62901,3.51073 8.12695,6.68164 0.79708,1.68729 0.19935,3.74225 0,5.59766 -0.30271,2.81749 -1.80664,8.30664 -1.80664,8.30664 0,0 4.96232,-5.75647 7.40429,-8.66797 2.55575,-3.04716 5.55729,-5.78707 7.58399,-9.20899 2.64311,-4.46269 4.79846,-9.35417 5.7793,-14.44726 0.56918,-2.95551 0.7157,-6.10581 0,-9.0293 -0.77467,-3.1644 -2.63056,-6.00951 -4.51368,-8.66797 -2.24017,-3.16251 -7.94726,-8.48828 -7.94726,-8.48828 0,0 5.34737,-0.39958 7.76562,0.54102 3.51344,1.36658 6.92639,3.8006 8.84961,7.04296 0.71692,1.20867 0.72266,4.1543 0.72266,4.1543 0,0 2.14196,-7.6338 2.52734,-11.55859 0.30006,-3.05591 0.73249,-6.27701 -0.17968,-9.20899 -1.13582,-3.6507 -4.1527,-6.42415 -6.32227,-9.57226 -1.34614,-1.9533 -3.73121,-3.4428 -4.15234,-5.77735 -0.24369,-1.35088 -0.053,-3.20538 1.08398,-3.97461 1.30489,-0.88286 3.45091,-0.42328 4.69531,0.54297 1.7307,1.34386 1.94977,3.98393 2.34766,6.13868 0.39351,2.13104 0,6.50195 0,6.50195 0,0 4.22259,-1.46287 5.23633,-3.25 1.78227,-3.14199 1.28838,-7.39801 0.17968,-10.83594 -1.26744,-3.93017 -4.20674,-7.31614 -7.40234,-9.93164 -2.83391,-2.31947 -6.47669,-3.48669 -9.93359,-4.69531 -1.98476,-0.69392 -4.04022,-1.54059 -6.14063,-1.44531 -2.47211,0.11214 -4.77635,1.35452 -7.04297,2.34765 -1.82616,0.80014 -3.25641,2.65415 -5.23632,2.88867 -2.47991,0.29374 -4.95087,-0.94942 -7.22266,-1.98632 -1.57957,-0.72096 -3.22309,-1.55423 -4.33399,-2.88868 -2.17974,-2.61837 -3.05672,-6.12722 -4.03515,-9.39062 -1.93174,-6.44303 -2.93949,-13.16669 -3.55078,-19.86524 -1.07225,-11.74982 0.0215,-23.5976 -0.17969,-35.39453 -0.12972,-7.60675 -0.031,-15.23282 -0.66211,-22.81445 -0.19493,-2.3417 -0.96289,-6.98438 -0.96289,-6.98438 0,0 3.32097,1.3024 4.875,2.16797 1.93019,1.07508 3.56553,2.62702 5.47851,3.73243 3.39554,1.96207 6.92504,3.73159 10.59376,5.11718 6.49002,2.45115 13.18349,4.57317 20.04492,5.59766 4.94295,0.73804 10.03416,1.0054 14.99023,0.36133 3.85388,-0.50083 7.75632,-1.43987 11.19531,-3.25 5.21095,-2.74282 9.66493,-6.87658 13.66602,-11.19727 3.14296,-3.39402 5.95744,-7.20013 7.94531,-11.37695 2.6638,-5.59704 4.08847,-11.76627 5.11719,-17.87891 0.33849,-2.01128 0.56686,-4.04758 0.69922,-6.08984 0.14083,0.0235 0.24904,0.0372 0.37305,0.0586 1.71249,0.2952 3.46778,0.43478 5.125,0.95703 1.68647,0.53149 3.07949,2.44289 4.83008,2.19141 2.04121,-0.29325 3.47838,-2.36573 4.68359,-4.03711 1.27735,-1.77141 1.75068,-4.00376 2.48828,-6.05859 0.65864,-1.83488 0.98649,-3.78422 1.72656,-5.58789 0.66194,-1.61325 1.14356,-3.44475 2.41211,-4.64258 1.18462,-1.11857 2.90132,-1.53003 4.46094,-2.00391 1.60627,-0.48805 3.32561,-0.47735 4.96484,-0.83984 2.92301,-0.6464 6.28447,-0.55783 8.66211,-2.375 1.8294,-1.39815 3.14169,-3.67381 3.50586,-5.94531 0.50147,-3.12786 -1.36285,-6.18801 -2.02734,-9.28516 -0.35313,-1.64588 -1.08134,-3.25856 -1.04102,-4.94141 0.0476,-1.98712 0.57831,-4.01072 1.50586,-5.76953 1.30173,-2.4683 5.49219,-6.32422 5.49219,-6.32422 0,0 -5.3475,1.39094 -7.60938,2.88672 -1.18672,0.78481 -2.21487,1.86284 -2.95312,3.07813 -0.94843,1.56128 -1.33648,3.41301 -1.75977,5.18945 -0.68418,2.87133 -0.41054,5.93587 -1.24414,8.76758 -0.45669,1.5514 -0.62021,3.60955 -2.02929,4.40625 -1.18824,0.67185 -2.78888,0.0197 -4.07227,-0.44531 -1.61163,-0.5839 -2.65737,-2.30054 -4.2832,-2.84375 -1.73262,-0.57887 -3.67292,-0.65034 -5.47071,-0.32422 -2.43701,0.44209 -4.93759,1.37439 -6.79101,3.01562 -2.90579,2.57311 -4.86526,6.273 -5.97266,9.99024 -1.34734,4.52257 2.00278,10.18247 -0.5664,14.14257 -0.87206,1.34421 -2.70892,1.82 -4.29297,2.16797 -0.0142,-0.84187 -0.0415,-1.68279 -0.0957,-2.52148 -0.44596,-6.90427 -1.5864,-13.84824 -3.79102,-20.40625 -2.41038,-7.1701 -6.27561,-13.80255 -10.17382,-20.28516 -2.2971,-3.82001 -4.89202,-7.44551 -7.55079,-11.02929 1.45989,0.34529 2.91978,0.69418 4.30078,1.26757 1.98024,0.8222 3.45853,3.28142 5.59961,3.16407 2.49654,-0.13686 4.45423,-2.48909 6.0879,-4.38086 1.73145,-2.00499 2.54257,-4.65153 3.65234,-7.05664 0.99097,-2.14766 1.59175,-4.47101 2.67773,-6.57227 0.97133,-1.87942 1.75044,-4.0409 3.41016,-5.35352 1.54991,-1.22578 3.66547,-1.54072 5.59961,-1.94726 1.99197,-0.41871 4.06948,-0.22292 6.08789,-0.48633 3.59915,-0.46973 7.64767,-0.004 10.71289,-1.94726 2.35844,-1.49497 4.1873,-4.10763 4.86914,-6.81446 0.93888,-3.72727 -0.98835,-7.62303 -1.46094,-11.4375 -0.25114,-2.02707 -0.95846,-4.05417 -0.73047,-6.08398 0.26923,-2.39683 1.1279,-4.78739 2.43555,-6.81445 1.83514,-2.84475 7.30469,-7.05665 7.30469,-7.05665 0,0 -6.60494,1.11085 -9.49609,2.67774 -1.5169,0.8221 -2.87538,2.01599 -3.89649,3.40625 -1.3118,1.78607 -1.97725,3.98186 -2.67773,6.08398 -1.13225,3.39775 -1.12708,7.13092 -2.43555,10.46485 -0.71687,1.82654 -1.13517,4.29658 -2.92188,5.10937 -1.50667,0.68541 -3.36865,-0.2738 -4.86914,-0.97265 -1.88424,-0.87757 -2.9634,-3.06463 -4.86914,-3.89454 -2.03091,-0.88435 -4.36819,-1.1752 -6.57422,-0.97265 -2.99043,0.27458 -6.1101,1.13369 -8.52343,2.91992 -3.78363,2.80045 -6.54384,7.0624 -8.27735,11.4375 -2.1091,5.32296 1.33347,12.52427 -2.19141,17.03711 -1.23352,1.57928 -3.61293,1.93731 -5.60156,2.18945 -0.75828,0.0961 -1.73426,0.0528 -2.74024,-0.0488 -0.712,-0.95696 -1.42981,-1.90988 -2.1289,-2.875 -5.53015,-7.63455 -11.6458,-14.85735 -16.79492,-22.7539 -2.62423,-4.02444 -5.24063,-8.07673 -7.73047,-12.19922 2.44252,0.63256 4.95248,1.0814 7.28125,2.04883 2.44834,1.01709 4.2766,4.05924 6.92383,3.91406 3.08671,-0.16928 5.50747,-3.07972 7.52734,-5.41992 2.14076,-2.48027 3.14351,-5.7533 4.51562,-8.72852 1.22523,-2.65675 1.96784,-5.52955 3.31055,-8.1289 1.20095,-2.32493 2.16277,-4.99929 4.21484,-6.62305 1.91631,-1.51634 4.53248,-1.90529 6.92384,-2.4082 2.46287,-0.51799 5.03178,-0.27766 7.52734,-0.60352 4.44999,-0.58106 9.45627,-0.005 13.2461,-2.4082 2.91595,-1.84935 5.17651,-5.07928 6.01953,-8.42774 1.16083,-4.61081 -1.22039,-9.43173 -1.80469,-14.15039 -0.31051,-2.50758 -1.18619,-5.01443 -0.9043,-7.52539 0.33287,-2.96498 1.39494,-5.92212 3.01172,-8.42969 2.26896,-3.51905 9.03125,-8.73046 9.03125,-8.73046 0,0 -8.16757,1.37222 -11.74219,3.31054 -1.87547,1.01697 -3.55391,2.49504 -4.8164,4.21485 -1.62191,2.20944 -2.44447,4.92693 -3.31055,7.52734 -1.3999,4.20318 -1.39393,8.82109 -3.01172,12.94531 -0.88633,2.25951 -1.40225,5.31681 -3.61133,6.32227 -1.86285,0.84788 -4.16628,-0.34058 -6.02148,-1.20508 -2.32968,-1.0856 -3.66523,-3.78976 -6.02148,-4.81641 -2.51102,-1.09407 -5.39944,-1.45564 -8.12696,-1.20507 -3.69736,0.33966 -7.55327,1.40364 -10.53711,3.61328 -4.67807,3.46428 -8.09303,8.73624 -10.23633,14.14843 -2.60765,6.58474 1.64914,15.49163 -2.70899,21.07422 -1.52513,1.95363 -4.46508,2.39708 -6.92382,2.70899 -1.04837,0.13299 -2.43218,0.0493 -3.83008,-0.11133 -1.66968,-3.07869 -3.23901,-6.20747 -4.62891,-9.41992 -5.40098,-12.48324 -9.82895,-25.49003 -12.90039,-38.76563 0.0369,0.0135 0.0719,0.024 0.10742,0.0371 1.97674,0.72943 4.03762,1.28328 5.89844,2.27149 1.89367,1.00565 3.13475,3.59418 5.27734,3.67968 2.4983,0.0997 4.66753,-2.05623 6.47266,-3.78515 1.91318,-1.8324 2.97066,-4.39217 4.30274,-6.68164 1.18949,-2.04441 2.00936,-4.29984 3.28906,-6.28907 1.14459,-1.77922 2.1221,-3.85792 3.89844,-5.00781 1.65881,-1.07383 3.79586,-1.18625 5.75976,-1.4082 2.02264,-0.2286 4.07119,0.16134 6.10547,0.0898 3.62743,-0.12751 7.6145,0.71887 10.84961,-0.92578 2.48915,-1.26541 4.55761,-3.69197 5.49219,-6.32226 1.28692,-3.62186 -0.26305,-7.68333 -0.37305,-11.5254 -0.0585,-2.04173 -0.57112,-4.12582 -0.15234,-6.125 0.49453,-2.36065 1.57304,-4.66026 3.06641,-6.55468 2.09575,-2.65859 7.93945,-6.33594 7.93945,-6.33594 0,0 -6.68073,0.48091 -9.70704,1.76758 -1.58779,0.67507 -3.05131,1.73784 -4.19922,3.02539 -1.47472,1.65411 -2.34618,3.77622 -3.24218,5.80273 -1.44826,3.27555 -1.79444,6.99214 -3.41211,10.1875 -0.88626,1.75062 -1.53706,4.17219 -3.39258,4.8125 -1.56471,0.53996 -3.32813,-0.59216 -4.75586,-1.42968 -1.79289,-1.05171 -2.66168,-3.32965 -4.48047,-4.33594 -1.93825,-1.07231 -4.23587,-1.5848 -6.45117,-1.5918 -3.00299,-0.009 -6.18843,0.55335 -8.75977,2.10352 -4.03134,2.43037 -7.18501,6.4118 -9.32421,10.60351 -2.60268,5.09983 0.14454,12.59241 -3.79102,16.75196 -1.37724,1.45564 -3.77769,1.58729 -5.78125,1.65039 -0.5381,0.0169 -1.18831,-0.0554 -1.86523,-0.16016 -0.30274,-1.51048 -0.59352,-3.02296 -0.85938,-4.53906 -1.85999,-10.60677 -1.57365,-21.49714 -1.625,-32.26563 -0.0116,-2.42459 -0.0131,-4.85302 -0.008,-7.28125 1.11344,0.27437 1.82865,0.44281 2.73828,0.6836 1.80504,0.47782 3.67009,0.79401 5.39453,1.50976 1.75488,0.72837 3.06546,2.9067 4.96289,2.80274 2.21244,-0.12124 3.94677,-2.20496 5.39453,-3.88086 1.53442,-1.7762 2.25285,-4.1213 3.23633,-6.25196 0.87819,-1.90259 1.41259,-3.95882 2.375,-5.82031 0.86079,-1.66495 1.54869,-3.58132 3.01953,-4.74414 1.37354,-1.08591 3.24886,-1.36446 4.96289,-1.72461 1.7653,-0.37097 3.60581,-0.19829 5.39453,-0.43164 3.18957,-0.41613 6.77774,-0.003 9.49414,-1.72461 2.09004,-1.32438 3.71217,-3.6372 4.31641,-6.03515 0.83205,-3.30196 -0.87612,-6.75362 -1.29492,-10.13282 -0.22256,-1.79576 -0.84853,-3.59243 -0.64649,-5.39062 0.2386,-2.12333 0.99937,-4.24136 2.15821,-6.03711 1.6263,-2.52012 6.47265,-6.25195 6.47265,-6.25195 0,0 -5.85387,0.983 -8.41601,2.37109 -1.34427,0.72829 -2.54627,1.78792 -3.45117,3.01953 -1.16253,1.58226 -1.75422,3.52643 -2.375,5.38867 -1.00339,3.01003 -0.99864,6.31799 -2.15821,9.27149 -0.63528,1.61811 -1.00451,3.8073 -2.58789,4.52734 -1.33522,0.6072 -2.98667,-0.24417 -4.3164,-0.86328 -1.66983,-0.77743 -2.62559,-2.71402 -4.31446,-3.44922 -1.79979,-0.78347 -3.87118,-1.04077 -5.82617,-0.86133 -2.65012,0.24324 -5.41403,1.00354 -7.55273,2.58594 -3.35305,2.48089 -5.7997,6.25695 -7.33594,10.13281 -1.86912,4.71555 1.18038,11.09393 -1.94336,15.0918 -1.09314,1.39907 -3.20057,1.71608 -4.96289,1.93945 -0.74342,0.0942 -1.7219,0.0382 -2.71289,-0.0742 0.0897,-7.94859 0.41345,-15.89285 1.42773,-23.76367 1.33107,-10.32873 3.18622,-20.70951 6.68164,-30.51953 3.35229,-9.40831 7.44254,-18.82037 13.54297,-26.72852 6.5373,-8.47446 15.26241,-15.15507 24.01953,-21.308591 5.55419,-3.902861 11.42464,-7.642693 17.87696,-9.751953 3.46339,-1.132183 7.195,-1.58837 10.83594,-1.445313 1.72243,0.06768 5.05664,1.083984 5.05664,1.083984 0,0 0.67452,3.261187 1.08399,4.875 0.43111,1.699105 0.61685,3.51182 1.44531,5.056641 1.27134,2.37066 4.05662,3.72306 5.23633,6.140625 1.1856,2.42964 2.31987,5.332657 1.625,7.945317 -0.51525,1.93729 -2.06023,3.91462 -3.97266,4.51562 -2.8971,0.91044 -5.92494,-1.35041 -8.84961,-2.16797 -3.28206,-0.91744 -6.34432,-3.02915 -9.75195,-3.07031 -3.2576,-0.0393 -6.85252,0.66654 -9.39063,2.70899 -2.56011,2.06014 -3.76401,5.51857 -4.69532,8.66992 -0.87274,2.95318 -0.2739,6.16212 -0.7207,9.20898 -0.33062,2.25462 0.38041,5.31805 -1.44531,6.68164 -1.93459,1.4449 -5.15425,0.70156 -7.22461,-0.54101 -1.83285,-1.10002 -2.54245,-3.47319 -3.42969,-5.41797 -1.30427,-2.85888 -2.70898,-9.0293 -2.70898,-9.0293 0,0 -2.7435,4.1526 -2.70899,6.5 0.0602,4.09468 1.98653,8.4872 5.05664,11.19727 2.59797,2.29329 6.50672,3.59804 9.93164,3.07031 2.82206,-0.43484 5.05973,-2.82272 7.04297,-4.87695 2.63273,-2.72696 3.07058,-7.34717 6.14063,-9.57032 2.92086,-2.11511 6.89319,-2.28641 10.47461,-2.70898 3.28854,-0.38802 9.93164,0.18164 9.93164,0.18164 0,0 -2.74044,2.68525 -3.97265,4.15234 -1.63385,1.94529 -3.99653,3.65383 -4.51563,6.14063 -1.05933,5.07484 0.61284,10.81899 3.43164,15.16992 1.80017,2.77863 4.76406,5.04191 7.94532,5.95899 4.93312,1.4221 11.05229,1.54245 15.35156,-1.26368 2.75179,-1.7961 4.69531,-8.66992 4.69531,-8.66992 0,0 -4.72815,3.81573 -7.58594,4.51563 -3.10378,0.76015 -6.59472,0.62397 -9.57031,-0.54102 -2.90668,-1.13801 -6.38259,-2.95513 -7.22461,-5.96094 -0.79083,-2.82308 0.85537,-6.19644 2.89063,-8.30664 3.22831,-3.34719 8.60732,-3.53581 13.00195,-5.05664 4.10292,-1.41988 8.91529,-1.28535 12.46094,-3.79101 2.56622,-1.81351 4.37254,-4.69225 5.59765,-7.58594 2.14134,-5.05778 3.27873,-10.78919 2.70899,-16.251956 -0.6169,-5.91488 -2.93574,-11.856194 -6.50196,-16.615235 -4.60655,-6.147358 -11.25321,-10.889184 -18.23828,-14.085937 -5.52303,-2.527647 -11.693,-3.990975 -17.79687,-4.160156 z M 221.85977,322.72705 c 0.8663,0.0235 1.81936,0.35972 2.6289,0.59766 2.19546,0.64528 3.95633,2.30264 5.96094,3.40625 7.03511,3.87306 14.05079,7.80052 21.28711,11.2832 6.90118,3.32138 13.45955,8.33101 21.07422,9.15235 5.46512,0.58948 11.68919,-0.0203 16.17773,-3.19336 1.81849,-1.28552 2.69053,-3.63726 3.40625,-5.7461 0.57422,-1.69188 0.63868,-5.32226 0.63868,-5.32226 0,0 2.36598,4.59015 2.1289,7.02539 -0.24914,2.55908 -1.84091,4.95344 -3.61914,6.81055 -1.9358,2.02167 -4.584,3.3694 -7.23828,4.25781 -4.13154,1.38287 -8.65265,1.95725 -12.98438,1.49023 -6.11297,-0.65906 -11.81278,-3.51812 -17.45507,-5.96094 -8.33114,-3.60694 -16.20217,-8.21562 -24.05469,-12.77148 -2.7585,-1.60042 -5.82576,-2.86336 -8.08984,-5.10937 -0.83842,-0.83172 -1.72416,-1.81518 -1.91602,-2.98047 -0.14259,-0.86604 -0.0671,-2.03292 0.63867,-2.55469 0.4071,-0.30097 0.89624,-0.39885 1.41602,-0.38477 z m 141.04492,27.9336 c 0,0 -1.12083,5.58397 -3.23828,7.18164 -3.98119,3.00392 -9.89329,2.85519 -14.89063,2.32422 -2.15161,-0.22861 -4.72902,-0.6423 -6.04492,-2.32422 -0.3961,-0.50628 -0.47671,-1.3165 -0.21484,-1.90039 0.53796,-1.1994 1.94699,-1.97351 3.23632,-2.32422 2.29684,-0.62476 4.74163,0.52708 7.12305,0.63281 1.94045,0.0862 3.92851,0.39698 5.82813,0 2.9289,-0.61206 8.20117,-3.58984 8.20117,-3.58984 z m 19.5625,10.8125 c 0,0 -1.37376,6.94033 -3.96875,8.92578 -4.87907,3.73304 -12.12562,3.54851 -18.25,2.88867 -2.63686,-0.2841 -5.79358,-0.79851 -7.40625,-2.88867 -0.48543,-0.62916 -0.58461,-1.63572 -0.26367,-2.36133 0.65928,-1.49052 2.38666,-2.45284 3.96679,-2.88867 2.81485,-0.7764 5.81001,0.65571 8.72852,0.78711 2.37807,0.10708 4.81453,0.49333 7.14258,0 3.58945,-0.76062 10.05078,-4.46289 10.05078,-4.46289 z m 14.63672,16.95703 c 0,0 -0.93213,4.56817 -2.69141,5.875 -3.30779,2.4571 -8.221,2.3347 -12.37305,1.90039 -1.78767,-0.187 -3.92622,-0.52464 -5.01953,-1.90039 -0.3291,-0.41411 -0.39726,-1.07709 -0.17968,-1.55469 0.44696,-0.98107 1.6182,-1.61548 2.68945,-1.90234 1.90834,-0.51103 3.93936,0.43304 5.91797,0.51953 1.61222,0.0705 3.26348,0.32471 4.84179,0 2.43349,-0.50065 6.81446,-2.9375 6.81446,-2.9375 z m 107.4082,215.48828 c 1.57534,-0.17962 3.33804,1.14369 4.57031,2.22461 1.42337,1.24857 2.09321,3.19468 2.74414,4.97266 0.61183,1.67113 1.14923,3.45954 1.04883,5.23632 -0.0722,1.27716 -1.17187,3.65235 -1.17187,3.65235 0,0 -0.42409,-2.88518 -1.16797,-4.09375 -0.78462,-1.27474 -2.19278,-2.03655 -3.30078,-3.04297 -1.18034,-1.07213 -2.54668,-1.96389 -3.56446,-3.19141 -0.51639,-0.6228 -1.19313,-1.26956 -1.25586,-2.07617 -0.0979,-1.25956 0.27407,-3.01078 1.43555,-3.50781 0.21529,-0.0921 0.43706,-0.14817 0.66211,-0.17383 z m -30.19141,36.56445 c 1.71024,0.0378 3.17246,1.94834 4.125,3.42383 1.02692,1.59071 1.13834,3.64688 1.27735,5.53516 0.13066,1.77481 0.15748,3.64094 -0.42578,5.32226 -0.41925,1.20855 -2.12891,3.19336 -2.12891,3.19336 0,0 0.38438,-2.8917 0,-4.25781 -0.40542,-1.44091 -1.55186,-2.56059 -2.3418,-3.83203 -0.84151,-1.35445 -1.91013,-2.58556 -2.55273,-4.04492 -0.32604,-0.74044 -0.79929,-1.54886 -0.63867,-2.3418 0.25082,-1.23822 1.08663,-2.82061 2.33984,-2.98047 0.11614,-0.0148 0.23169,-0.0201 0.3457,-0.0176 z"
         style="fill:#ffd700;fill-opacity:1;fill-rule:evenodd;stroke:#000000;stroke-width:3.05691028;stroke-linecap:round;stroke-linejoin:round;stroke-miterlimit:4;stroke-dasharray:none;stroke-opacity:1"
         inkscape:connector-curvature="0" />
      <path
         sodipodi:nodetypes="caaaaaaaacccc"
         inkscape:connector-curvature="0"
         id="path10011-6"
         d="m 382.76321,138.20939 c 0,0 -2.0265,2.31574 -3.4312,2.52825 -1.44939,0.21927 -2.69542,-1.5952 -4.15355,-1.44471 -1.04744,0.1081 -2.33286,0.6417 -2.70883,1.6253 -0.94495,2.47214 2.60367,4.95056 2.34766,7.58474 -0.17195,1.76924 -2.14305,2.95998 -2.52825,4.69532 -0.4573,2.06017 0.12718,4.22332 0.36118,6.32062 0.20301,1.81951 0.40962,3.65459 0.90294,5.41767 0.61144,2.18524 0.30911,5.84674 2.52825,6.32062 2.62281,0.56008 5.77885,-5.59826 5.77885,-5.59826 l 1.98648,-14.44713 -0.90294,-13.72478 z"
         style="fill:#ffd700;fill-opacity:1;fill-rule:evenodd;stroke:#000000;stroke-width:3.05691028;stroke-linecap:butt;stroke-linejoin:round;stroke-miterlimit:4;stroke-dasharray:none;stroke-opacity:1" />
      <path
         inkscape:connector-curvature="0"
         id="path10055-5"
         d="m 361.17422,77.773929 c 0,0 -2.26487,4.483632 -4.08594,6.130859 -3.50211,3.167786 -7.81863,6.132412 -12.51367,6.638672 -2.19738,0.236941 -4.5676,-0.529119 -6.38477,-1.787109 -1.30196,-0.901333 -1.73627,-2.666691 -2.81054,-3.830079 -1.67882,-1.818087 -5.61719,-4.853515 -5.61719,-4.853515 0,0 -1.81636,3.437874 -2.81055,5.107422 -0.72492,1.217363 -1.67083,2.306092 -2.29882,3.576172 -0.0484,0.09781 -0.0896,0.198558 -0.13672,0.296875 0.56947,1.826432 1.26299,3.658182 2.0332,4.871093 1.47539,2.323403 3.9842,3.799291 6.01562,5.65625 1.42589,1.303411 4.33204,3.849611 4.33204,3.849611 0,0 -2.31179,0.43185 -3.25,1.08203 -0.89067,0.61724 -1.35713,1.68995 -2.04493,2.52734 -0.79529,0.96826 -1.89204,1.74606 -2.40625,2.88868 -0.76586,1.7018 -0.84179,5.53515 -0.84179,5.53515 0,0 -1.80822,-3.42082 -1.92578,-5.29492 -0.0566,-0.90309 0.25958,-1.80873 0.60156,-2.64648 0.46276,-1.13362 1.41672,-2.01532 1.92578,-3.12891 0.33224,-0.7268 0.86725,-1.50153 0.7207,-2.28711 -0.18838,-1.00983 -1.09881,-1.7942 -1.92383,-2.40625 -0.8673,-0.643439 -1.94236,-1.026851 -3.00781,-1.203125 -1.18502,-0.196057 -2.39856,-0.209564 -3.60742,-0.117187 -0.26473,0.797753 -0.53038,1.595948 -0.82617,2.380862 -1.64457,4.36397 -5.22196,8.36323 -5.10742,13.02539 0.0459,1.86649 0.93333,3.83412 2.29882,5.10742 1.26072,1.17557 3.13943,1.58729 4.85157,1.78711 2.81079,0.32805 5.73349,-1.88098 8.42969,-1.02149 1.20575,0.38438 1.94975,1.62516 2.80859,2.55469 2.26493,2.45134 6.12891,7.91602 6.12891,7.91602 0,0 4.01511,-1.67814 6.13085,-2.13086 2.39573,-0.51263 4.86129,-0.77457 7.31641,-0.7793 -0.19964,-0.45831 -0.37437,-0.89416 -0.50976,-1.28906 -0.93895,-2.73848 -1.986,-5.67885 -1.56446,-8.54297 0.26903,-1.82787 2.52735,-4.93359 2.52735,-4.93359 0,0 -0.45562,4.14264 0,6.13671 0.55541,2.43082 1.92107,4.62726 3.24804,6.73829 0.44886,0.71408 1.05907,1.5587 1.72071,2.42773 1.2919,0.25612 2.57712,0.5647 3.86132,0.8418 2.66419,0.57487 5.39908,0.99731 7.91602,2.04297 2.46734,1.02506 5.13074,2.08078 6.89648,4.08593 2.26797,2.57547 3.9054,6.02225 4.08594,9.44922 0.15015,2.85014 -1.9624,5.3795 -2.55273,8.17188 -0.62029,2.93411 -0.46337,5.99288 -1.02149,8.93945 -0.24595,1.29849 -1.02344,3.83008 -1.02344,3.83008 0,0 -4.07074,-0.9296 -6.1289,-1.27539 -3.301,-0.55459 -6.744,-0.34566 -9.95899,-1.27735 -1.35348,-0.39223 -2.50067,-1.32729 -3.83203,-1.78906 -2.8093,-0.97438 -5.89654,-1.00666 -8.68359,-2.04297 -2.07001,-0.76969 -3.7281,-2.53854 -5.87305,-3.06445 -1.57095,-0.38518 -3.29649,0.43809 -4.85351,0 -1.7287,-0.4864 -2.90301,-2.20877 -4.59571,-2.80859 -2.42855,-0.86057 -7.66211,-1.02149 -7.66211,-1.02149 0,0 -0.0457,3.79719 -0.51171,5.61914 -0.52904,2.06848 -1.54104,3.9929 -2.55274,5.87305 -2.06992,3.84673 -7.15234,10.98242 -7.15234,10.98242 0,0 5.12343,-0.18528 7.66211,-0.51172 4.04057,-0.51956 7.96055,-1.8014 12.0039,-2.29883 3.55311,-0.43712 7.14301,-0.63805 10.72266,-0.5957 3.58762,0.0424 7.26278,-0.0693 10.73047,0.85156 3.09176,0.82102 8.68359,4.08594 8.68359,4.08594 0,0 -7.24368,-2.16984 -10.98242,-2.55273 -6.94644,-0.71139 -14.03845,-0.543 -20.94141,0.50976 -3.67605,0.56063 -7.3103,1.59585 -10.72656,3.06446 -1.99857,0.85916 -5.61914,3.32031 -5.61914,3.32031 0,0 -8.45405,-0.79291 -12.6875,-0.67969 -6.10465,0.16327 -12.28198,0.50976 -18.21484,1.95703 -6.83458,1.66724 -13.75109,3.8536 -19.66602,7.66211 -3.99817,2.57434 -7.285,6.21155 -10.21484,9.95703 -3.32332,4.24851 -6.08202,8.9942 -8.17188,13.9668 -2.13079,5.06999 -3.19821,10.53862 -4.34179,15.91797 -1.39701,6.57145 -0.91289,13.55546 -3.06446,19.91992 -0.68322,2.02101 -1.32799,4.38253 -3.0664,5.61914 -1.26588,0.90048 -3.0952,1.16783 -4.59571,0.76563 -1.81088,-0.4854 -3.4147,-1.94664 -4.34179,-3.57618 -1.6611,-2.9197 -1.53321,-9.95898 -1.53321,-9.95898 0,0 -2.90638,4.60889 -3.83008,7.15039 -1.42576,3.92294 -2.26994,8.09353 -2.55468,12.25781 -0.33762,4.93777 -0.22969,10.02396 1.02148,14.8125 1.05552,4.03975 2.80898,8.01785 5.36133,11.32227 2.2415,2.90197 4.98371,5.813 8.42969,7.0664 2.9601,1.07667 6.46003,0.98717 9.45117,0 2.71633,-0.89647 6.89453,-5.10742 6.89453,-5.10742 0,0 4.98294,6.31093 8.17188,8.6836 2.59629,1.93171 5.55266,3.52358 8.68359,4.34179 3.46323,0.90505 7.3141,1.59058 10.72656,0.50977 4.62667,-1.46538 8.43211,-5.17063 11.49219,-8.9375 5.37739,-6.61941 7.60744,-15.26947 11.23828,-22.98633 3.34146,-7.10182 5.86844,-14.60612 9.70508,-21.45312 2.66624,-4.75826 9.19336,-13.53516 9.19336,-13.53516 0,0 -6.05614,10.17122 -8.42774,15.57812 -3.57944,8.16059 -6.74121,16.58833 -8.68359,25.28516 -1.02665,4.5967 -1.65856,9.33865 -1.53125,14.04688 0.15624,5.778 0.4112,11.85184 2.80859,17.11132 2.15646,4.73093 5.70973,9.00875 9.96094,12.00196 6.51791,4.58916 14.51291,7.78023 22.47461,8.17383 4.12445,0.20389 12.00195,-3.06641 12.00195,-3.06641 0,0 9.87315,6.91642 15.58008,8.42969 3.67605,0.97476 7.6716,0.9741 11.40625,0.25586 4.48281,-0.86213 12.59961,-5.36524 12.59961,-5.36524 0,0 -5.14065,-3.32417 -7.40625,-5.36328 -5.0184,-4.5167 -10.01649,-9.30412 -13.53516,-15.06641 -3.60896,-5.91018 -5.7921,-12.67596 -7.40624,-19.41015 -0.93789,-3.91288 -1.4962,-7.98615 -1.27735,-12.00391 0.26065,-4.78523 0.97189,-9.73554 3.06445,-14.04687 0.81863,-1.68664 3.57618,-4.3418 3.57618,-4.3418 0,0 -2.50124,8.4222 -2.81055,12.76953 -0.40593,5.70518 -0.11751,11.56441 1.27734,17.11133 2.24919,8.94436 4.90683,18.577 11.23828,25.2832 4.3389,4.59571 10.59188,7.83858 16.85547,8.6836 4.91429,0.66298 10.45041,-0.28441 14.55664,-3.06446 4.06671,-2.75329 8.17383,-12.25781 8.17383,-12.25781 0,0 -5.60206,-0.28319 -8.17383,-1.27734 -4.18439,-1.61752 -8.12875,-4.17074 -11.23632,-7.40625 -3.92153,-4.08298 -6.97152,-9.17814 -8.76758,-14.54688 -1.7476,-5.22388 -2.36831,-10.96936 -1.70313,-16.4375 0.4554,-3.74362 3.83008,-10.64453 3.83008,-10.64453 0,0 -0.33285,5.4681 0,8.17187 1.02928,8.36093 1.70861,17.34642 6.12891,24.51758 3.26252,5.29286 8.21783,10.26376 14.13476,12.17383 3.44217,1.11118 7.57513,0.67971 10.81055,-0.9375 3.57651,-1.78771 6.4401,-5.25591 8,-8.9375 1.39845,-3.30055 0.84966,-7.14291 0.76758,-10.72656 -0.1001,-4.37045 -1.53321,-13.02539 -1.53321,-13.02539 0,0 -3.54865,1.77129 -5.45117,1.70312 -3.41223,-0.12225 -6.83577,-1.65274 -9.5332,-3.74609 -1.9907,-1.54489 -3.4746,-3.79549 -4.42578,-6.12891 -1.94965,-4.78287 -2.29883,-15.32422 -2.29883,-15.32422 0,0 2.3419,9.42944 5.10938,13.28125 2.25781,3.14245 5.16673,6.53788 8.9375,7.40625 3.50102,0.80626 7.9033,-0.0416 10.4707,-2.55468 1.88886,-1.84892 1.70149,-5.0394 2.04492,-7.66016 0.27653,-2.11022 0,-6.38476 0,-6.38476 0,0 6.19264,-1.90803 8.42773,-4.0879 2.12608,-2.07355 3.45863,-5.0132 4.08594,-7.91601 1.06231,-4.91572 0.47803,-10.19586 -0.76758,-15.06836 -0.67898,-2.656 -3.57421,-7.40625 -3.57421,-7.40625 0,0 -0.6522,2.90166 -1.02149,4.3418 -0.39503,1.54053 -1.27734,4.59765 -1.27734,4.59765 0,0 -2.64742,-2.89296 -3.57617,-4.59765 -0.86303,-1.58404 -1.67068,-3.30731 -1.78711,-5.10743 -0.21338,-3.29898 -0.62474,-7.75259 2.04296,-9.70507 1.38079,-1.01059 3.67912,-0.43247 5.10743,0.50976 2.35362,1.55263 4.08593,7.40625 4.08593,7.40625 0,0 2.96987,-5.96145 3.57618,-9.19336 0.45521,-2.42645 0.45069,-4.97895 0,-7.40625 -0.43293,-2.33161 -1.17172,-4.71277 -2.55274,-6.64062 -1.54879,-2.16206 -6.13086,-5.10742 -6.13086,-5.10742 0,0 3.9946,-2.62047 5.61914,-4.3418 1.34517,-1.42532 2.44176,-3.09966 3.32031,-4.85156 1.53267,-3.05625 3.32032,-9.70508 3.32032,-9.70508 0,0 -4.09971,4.22059 -6.64063,5.61719 -2.50118,1.37476 -5.31868,2.48277 -8.17187,2.55468 -2.72529,0.0687 -5.61105,-0.59348 -7.91992,-2.04297 -2.45527,-1.5414 -4.67161,-3.90016 -5.61719,-6.64062 -0.74116,-2.148 -0.48515,-4.66445 0.25586,-6.8125 0.6625,-1.92045 3.57617,-4.93555 3.57617,-4.93555 0,0 0.11199,2.77215 0.50976,4.08594 0.66195,2.18628 1.30133,4.6785 3.06446,6.13086 1.22753,1.01116 3.02424,1.50705 4.59765,1.27539 1.89266,-0.27867 3.59761,-1.62136 4.85352,-3.06445 2.57628,-2.96025 2.88397,-7.33114 4.85156,-10.72657 1.45749,-2.51516 3.64736,-4.55468 5.10742,-7.06836 1.20495,-2.07447 3.25176,-4.16931 2.97852,-6.55273 -0.28124,-2.45319 -2.30951,-4.75996 -4.51367,-5.87305 -2.58338,-1.30459 -5.82532,-0.64786 -8.67969,-0.16992 -2.68283,0.44922 -5.36967,1.34432 -7.66211,2.8086 -0.71023,0.45365 -1.78711,1.7871 -1.78711,1.7871 0,0 -0.0371,-3.26569 0.76563,-4.5957 1.38132,-2.2886 3.94791,-3.75464 6.38476,-4.85351 2.37426,-1.07064 7.66211,-1.53125 7.66211,-1.53125 0,0 1.634,-3.84267 2.04297,-5.875 0.26923,-1.33792 0.25586,-4.08594 0.25586,-4.08594 0,0 -16.55393,-10.43355 -25.28516,-14.812501 -11.73071,-5.883275 -23.76248,-11.33748 -36.26562,-15.324219 -7.89119,-2.516178 -24.26172,-5.363281 -24.26172,-5.363281 z m 10.01367,12.060547 c 2.04391,-0.003 4.08546,0.736106 5.89649,1.683593 1.51526,0.792745 2.50045,2.374646 3.9707,3.248047 2.19632,1.304727 7.09961,2.888672 7.09961,2.888672 0,0 -2.26608,1.804688 -3.61133,1.804688 -1.43493,0 -2.51039,-1.410507 -3.84961,-1.925782 -1.39859,-0.538117 -4.33203,-1.203125 -4.33203,-1.203125 0,0 0.61987,1.847471 0.12109,2.527344 -0.93222,1.270687 -2.99662,1.235567 -4.57226,1.203127 -1.63622,-0.0337 -3.26107,-0.65161 -4.69336,-1.443361 -1.34398,-0.742932 -2.13494,-2.28207 -3.48828,-3.007813 -0.91763,-0.492091 -3.00781,-0.84375 -3.00781,-0.84375 0,0 3.21641,-2.516682 5.05273,-3.36914 1.70399,-0.791027 3.53542,-1.559745 5.41406,-1.5625 z"
         style="fill:#ffd700;fill-opacity:1;fill-rule:evenodd;stroke:#000000;stroke-width:3.05691028;stroke-linecap:butt;stroke-linejoin:round;stroke-miterlimit:4;stroke-dasharray:none;stroke-opacity:1" />
      <path
         sodipodi:nodetypes="caaac"
         inkscape:connector-curvature="0"
         id="path10068-4"
         d="m 383.94148,166.71765 c 0,0 3.6054,-6.3907 4.69259,-9.86649 1.4074,-4.49951 2.23792,-9.24323 2.28614,-13.95747 0.029,-2.83589 0.0846,-5.89581 -1.20323,-8.42261 -0.83716,-1.64261 -3.97066,-3.85033 -3.97066,-3.85033"
         style="fill:none;fill-rule:evenodd;stroke:#000000;stroke-width:5.09485006;stroke-linecap:round;stroke-linejoin:miter;stroke-miterlimit:4;stroke-dasharray:none;stroke-opacity:1" />
      <path
         sodipodi:nodetypes="caacaaaac"
         inkscape:connector-curvature="0"
         id="path10070-2"
         d="m 432.07068,142.29208 c 0,0 -0.17238,-1.42838 0.12033,-2.04549 0.58391,-1.23102 1.82323,-2.09474 3.00807,-2.76743 1.34632,-0.76437 4.45195,-1.32356 4.45195,-1.32356 0,0 0.42966,2.95316 0,4.33163 -0.60916,1.95433 -2.63144,3.19496 -3.48936,5.05357 -0.5219,1.13064 -0.28189,2.56692 -0.96259,3.60969 -0.28076,0.4301 -0.71538,0.80191 -1.20323,0.96258 -0.9912,0.32644 -3.1284,-0.12032 -3.1284,-0.12032"
         style="fill:none;fill-rule:evenodd;stroke:#000000;stroke-width:5.09485006;stroke-linecap:round;stroke-linejoin:round;stroke-miterlimit:4;stroke-dasharray:none;stroke-opacity:1" />
      <path
         inkscape:connector-curvature="0"
         id="path10072-3"
         d="m 414.79922,220.72119 c -0.0977,-0.008 -0.19587,-7.1e-4 -0.29492,0.0215 -1.33581,0.29941 -1.88744,2.14992 -2.16602,3.49023 -0.6187,2.97664 0.20456,6.19609 1.32227,9.02344 1.05939,2.67982 2.5186,5.5275 4.93359,7.09961 1.95129,1.27026 4.54654,1.59034 6.85938,1.32227 1.26616,-0.14676 2.59165,-0.6585 3.48828,-1.56446 1.20031,-1.2128 2.04687,-4.6914 2.04687,-4.6914 0,0 -3.87569,0.15695 -5.65625,-0.48243 -2.52346,-0.90615 -5.10223,-2.36005 -6.61718,-4.57226 -1.07183,-1.56514 -0.82724,-3.70249 -1.32422,-5.5332 -0.25262,-0.93057 -0.26135,-1.99761 -0.8418,-2.76758 -0.42776,-0.56743 -1.06617,-1.29262 -1.75,-1.34571 z m -123.38672,1.58594 c 0,0 -7.15775,2.16213 -9.86523,4.57227 -4.81424,4.28554 -7.40376,10.63348 -10.10743,16.48437 -3.52208,7.62198 -5.02341,16.02717 -7.82226,23.94336 -0.60088,1.69952 -1.09324,3.45483 -1.92383,5.05469 -0.89186,1.71787 -2.51235,3.02299 -3.25,4.8125 -0.32676,0.7927 -0.46283,1.67012 -0.48047,2.52734 -0.0225,1.0945 -0.0116,2.27017 0.48047,3.24805 0.38246,0.76 0.97564,1.61348 1.80469,1.80469 1.19886,0.2765 2.49248,-0.48326 3.49023,-1.20313 1.39216,-1.00443 2.29044,-2.5938 3.12891,-4.09179 2.56115,-4.57567 4.09812,-9.67029 5.6543,-14.67774 1.43196,-4.60772 2.21669,-9.39267 3.36914,-14.07812 0.93865,-3.8162 1.45041,-7.77434 2.88867,-11.43164 1.37296,-3.49125 3.15011,-6.87386 5.41406,-9.86524 2.03674,-2.69117 7.21875,-7.09961 7.21875,-7.09961 z m 47.66211,18.20703 c -0.58732,0.007 -1.17922,0.16409 -1.63867,0.45117 -2.32881,1.45511 -2.64807,4.83349 -3.61328,7.4043 -2.10441,5.60501 -3.63775,11.44305 -4.69532,17.33594 -1.52681,8.50766 -2.44385,17.18118 -2.34765,25.82422 0.0654,5.87611 0.47599,11.83903 1.98828,17.51758 0.74245,2.78787 1.39585,5.89911 3.42969,7.94531 1.90017,1.91172 4.71154,3.37012 7.40429,3.25 1.37264,-0.0612 3.01784,-0.74711 3.61133,-1.98633 0.44885,-0.93722 -0.12561,-2.1178 -0.54101,-3.07031 -1.11655,-2.56026 -3.755,-4.21034 -5.05664,-6.68164 -2.04032,-3.87375 -3.29178,-8.16812 -4.15235,-12.46094 -0.96102,-4.79389 -1.40108,-9.74798 -1.08398,-14.62695 0.48238,-7.42194 2.56452,-14.67391 4.51367,-21.85157 1.03266,-3.80273 2.53786,-7.46009 3.79297,-11.19531 0.42443,-1.2631 1.27361,-2.4605 1.26367,-3.79297 -0.01,-1.2755 -0.22336,-2.87325 -1.26367,-3.61133 -0.44186,-0.31349 -1.02401,-0.45777 -1.61133,-0.45117 z"
         style="fill:#000000;fill-rule:evenodd;stroke:none;stroke-width:1px;stroke-linecap:butt;stroke-linejoin:miter;stroke-opacity:1" />
      <path
         sodipodi:nodetypes="caac"
         inkscape:connector-curvature="0"
         id="path10074-0"
         d="m 253.75197,252.86893 c 0,0 1.28423,-8.73494 2.40646,-12.99488 1.25369,-4.75896 2.95456,-9.4005 4.81292,-13.95747 1.27364,-3.12315 4.33163,-9.14455 4.33163,-9.14455"
         style="fill:none;fill-rule:evenodd;stroke:#000000;stroke-width:5.09485006;stroke-linecap:round;stroke-linejoin:miter;stroke-miterlimit:4;stroke-dasharray:none;stroke-opacity:1" />
      <path
         sodipodi:nodetypes="caac"
         inkscape:connector-curvature="0"
         id="path10076-3"
         d="m 293.21792,251.90635 c 0,0 3.45661,-6.45839 5.29421,-9.62584 1.69829,-2.92733 3.36308,-5.88403 5.29422,-8.66326 1.62991,-2.34571 5.29421,-6.73809 5.29421,-6.73809"
         style="fill:none;fill-rule:evenodd;stroke:#000000;stroke-width:5.09485006;stroke-linecap:round;stroke-linejoin:miter;stroke-miterlimit:4;stroke-dasharray:none;stroke-opacity:1" />
      <path
         inkscape:connector-curvature="0"
         id="path10193"
         d="m 429.87391,28.957588 a 7.0431323,7.0431323 0 0 0 -9.1106,4.025436 7.0431323,7.0431323 0 0 0 1.60385,7.532269 c -0.52957,0.664407 -0.97396,1.209608 -1.51325,1.885551 a 7.0431323,7.0431323 0 0 0 -8.76359,4.140921 7.0431323,7.0431323 0 0 0 0.55373,6.197952 c -1.22149,1.601679 -2.43881,3.210315 -3.68914,4.779573 a 7.0431323,7.0431323 0 0 0 -3.89491,-3.723607 7.0431323,7.0431323 0 0 0 -9.11061,4.025435 7.0431323,7.0431323 0 0 0 3.923,9.066725 c -3.41081,2.977216 -7.05931,5.851259 -11.1285,6.53872 -4.54007,0.766748 -9.16962,-1.121449 -12.95309,-3.539883 -2.61123,-1.669123 -4.60366,-4.275246 -6.37612,-6.998387 a 7.681612,7.681612 0 0 0 7.52631,-4.894248 7.681612,7.681612 0 0 0 -4.39044,-9.936729 7.681612,7.681612 0 0 0 -8.85394,2.480715 c -0.92343,-2.70616 -1.81433,-5.434587 -2.88438,-8.038444 a 5.5107832,5.5107832 0 0 0 0.42207,0.186419 5.5107832,5.5107832 0 0 0 7.12977,-3.150259 5.5107832,5.5107832 0 0 0 -3.15094,-7.127968 5.5107832,5.5107832 0 0 0 -7.1273,3.149125 5.5107832,5.5107832 0 0 0 -0.28955,1.056563 c -2.06532,-3.189025 -4.40995,-6.447369 -7.63938,-8.155512 -2.19267,-1.159791 -7.39007,-1.095247 -7.39007,-1.095247 0,0 7.48525,13.975969 10.4602,21.422014 3.75581,9.400283 9.26956,29.204528 9.26956,29.204528 0,0 6.2579,-0.348985 9.34214,0.08327 6.36551,0.892119 12.48474,3.115997 18.58736,5.134566 10.88887,3.601721 21.61204,7.752802 32.08781,12.421617 5.87111,2.616622 11.89257,5.092797 17.19975,8.719097 2.57192,1.75736 6.96493,6.22942 6.96493,6.22942 0,0 17.41135,-10.929642 26.51754,-15.350873 7.21312,-3.502111 22.15582,-8.795923 22.15582,-8.795923 0,0 -3.79727,-3.546501 -6.19943,-4.165426 -3.54082,-0.91232 -7.47194,-0.07961 -11.14884,0.888626 a 5.5107832,5.5107832 0 0 0 0.50299,-0.980224 5.5107832,5.5107832 0 0 0 -3.14908,-7.127246 5.5107832,5.5107832 0 0 0 -7.12907,3.148438 5.5107832,5.5107832 0 0 0 3.15023,7.129789 5.5107832,5.5107832 0 0 0 0.44192,0.145937 c -2.54485,1.204775 -5.04047,2.623642 -7.54574,4.002903 a 7.681612,7.681612 0 0 0 -4.87945,-7.797091 7.681612,7.681612 0 0 0 -9.9368,4.390462 7.681612,7.681612 0 0 0 2.27545,8.686537 c -3.14491,0.820263 -6.37365,1.406421 -9.42902,0.882113 -4.42578,-0.759478 -9.12186,-2.481356 -11.962,-6.105081 -2.54626,-3.24884 -3.30926,-7.831437 -3.8264,-12.330052 a 7.0431323,7.0431323 0 0 0 9.00647,-4.059466 7.0431323,7.0431323 0 0 0 -4.02539,-9.11055 7.0431323,7.0431323 0 0 0 -5.38698,0.130464 c 0.13234,-2.003323 0.31666,-4.013483 0.49215,-6.021364 a 7.0431323,7.0431323 0 0 0 4.57936,-4.206674 7.0431323,7.0431323 0 0 0 -3.69161,-8.966684 c 0.0562,-0.862874 0.095,-1.565267 0.15086,-2.412946 a 7.0431323,7.0431323 0 0 0 6.2596,-4.484035 7.0431323,7.0431323 0 0 0 -4.02725,-9.111273 z"
         style="fill:#ff0000;fill-opacity:1;fill-rule:evenodd;stroke:none;stroke-width:1px;stroke-linecap:butt;stroke-linejoin:miter;stroke-opacity:1" />
    </g>
    <path
       style="fill:none;fill-rule:evenodd;stroke:#000000;stroke-width:11;stroke-opacity:1"
       inkscape:connector-curvature="0"
       d="M 625.75687,10.887211 622.56158,427.51168 C 615.58891,602.7615 477.82349,741.5578 310.75255,741.6559 143.83189,741.441 6.014963,602.5947 -1.056447,427.51168 l -3.19529,-416.624468 314.996767,0 z"
       id="path10563-0-6-7-4"
       sodipodi:nodetypes="ccccccc" />
  </g>
</svg>
