<?xml version="1.0" encoding="UTF-8"?>
<svg width="520" height="639.6" version="1.1" viewBox="0 0 390 479.7" xmlns="http://www.w3.org/2000/svg"><g transform="matrix(3.8857 0 0 3.8857 .092744 .86376)"><path d="m1.12 1.11c33.831-0.21234 69.085-0.15188 98.26-0.12-0.02 23.68-0.56 47.34-0.34 71.02 0 14.21-5.85 28.01-16.58 37.43-8.29 7.74-19.19 11.83-30.42 12.58-9.84 0.36-20.09-2.3-28.39-7.66-10.06-6.4-17.78-16.71-20.76-28.29-1.59-5.48-1.54-11.25-1.83-17.07-0.16-19.67 0-39.34-0.08-59-0.01-2.95-0.14-5.95 0.14-8.89z" fill="#0f1010"/><path d="m36.625 2.9941c-15.127-0.020144-33.425 0.19629-33.425 0.19629s-0.20143 42.317-0.18018 66.81c0.02 7.74 0.83883 15.66 4.0488 22.79 0.63784-3.2026 1.0244-6.8001 3.6899-10.011 2.6655-3.2106 8.0802-6.3694 13.22-5.8594 4.24 0.21 7.4209 3.1203 10.651 5.5503 1.65-3.18 3.1795-6.5108 5.9795-8.8608 2.56-2.2 5.8603-3.21 9.0103-4.27 0.61-6.46 0.21953-12.86 0.26953-19.34 0.11-15.63 0.12025-31.26 0.01025-46.89-3.5427-0.075811-8.232-0.10901-13.274-0.11572zm16.334 91.997c-4.42-0.14-8.8598 3.0697-13.09 3.9097-5.09 0.54-10.631-3.8297-15.721-2.6997-4.69 0.93-9.2901 1.8997-14.08 2.1797 1.1129 1.9169 2.7187 3.7514 4.2715 5.187 1.7009-0.0425 8.4596-2.1373 12.62-2.0273 3.68 0.24 7.3398 2.3906 11.01 2.3906 4.63-0.32 9.1891-2.4711 14.039-2.4111 3.99 0.06 7.2508 1.6501 11.051 2.3701 3.47 0.62 6.8593-0.85969 10.239-1.4297 3.89-0.68 7.6753 1.196 11.893 1.7651 1.6927-1.76 2.9436-3.5575 4.207-5.3452-4.02 0.05-7.3091-0.73918-11.039-2.1592-4.03-1.92-8.12 1.9691-12.29 2.0391-4.36-0.54-8.6804-3.479-13.11-3.769z" fill="#02739f"/><path d="m74.24 3.0205c-7.63 0.07-22.929 0.35596-22.929 0.35596l-0.02051 21.4s5.6005-5.3868 8.5005-8.0068c4.95-4.43 9.6892-9.119 14.449-13.749zm23.571 0.04541s-4.7507 4.4539-7.0107 6.7339c-11.663 11.67-25.92 25.789-39.46 39.283l0.09814 18.322s10.073-9.8649 15.223-14.735c9.2448-8.9805 20.462-20.479 30.959-30.728l0.19043-18.876zm-0.6709 41.584c-10.74 10.16-21.47 20.36-32.03 30.71 1.6918 1.88 2.4207 3.1962 3.4512 5.7202 3.6369-2.5114 5.9177-4.1005 12.141-3.6475 5.69-4.47 16.339-15.028 16.339-15.028s0.0096-11.855 0.09961-17.755z" fill="#fff"/><path d="m95.109 3.1099-18.441 0.12012s-2.3985 2.1607-3.9185 3.4907c-6.0607 6.1225-14.447 13.614-21.379 20.068l-0.09082 20.194s20.61-20.584 30.97-30.734c4.3-4.41 12.86-13.14 12.86-13.14zm2.5386 21.759s-9.6581 9.2717-14.348 13.452c-10.21 10.48-20.999 20.35-31.179 30.85 4.9287 0.67936 8.0745 1.9446 12.04 4.8398 9.52-8.75 18.66-17.92 28.11-26.75 1.78-1.97 4.9893-4.9717 4.9893-4.9717l0.38818-17.42zm-0.57422 40.122c-4.69 4.26-9.333 8.8-14.083 12.98 4.9839 2.3951 9.9924 6.9668 10.689 13.859 1.2-4.82 2.8002-9.8989 3.1802-14.839 0.28-3.97 0.37387-8.02 0.21387-12z" fill="#d50b2b"/><path d="m44.4 15.07c-2.39 1.45-4.9 2.68-7.32 4.06-4.66 2.69-7.86 7.47-9.26 12.6-1.71 6.24 0.08 13.35 4.14 18.33 3.2 3.97 8.3498 6.0396 12.94 8.71-10.6 5.87-24.05-0.11-29.38-10.29-5.39-9.93-2.69-22.81 6.31-29.65 6.53-5.08 14.73-6.31 22.57-3.76z" fill="#0f1010"/><path d="m37.796 15.009c-4.2369 0.06196-8.4929 1.106-11.815 2.981-8.68 4.39-13.7 14.86-11.21 24.34 1.87 8.64 9.4195 15.68 18.209 16.8 3.1 0.48 6.1004 0.13053 9.1904-0.20947-4.66-2.5-9.0297-4.4399-12.16-8.9399-5.72-7.46-5.6002-18.61-0.24023-26.2 2.82-3.88 6.7325-6.3855 12.221-8.5005-1.3728-0.20346-2.783-0.29165-4.1953-0.271zm14.276 56.035c-4.4189-0.10059-8.7979 1.627-11.892 5.127-2.37 2.72-3.6214 6.1101-5.1313 9.3501-3.04-2.8-5.5091-5.8102-9.769-6.7002-11.293-1.5642-18.834 9.9614-16.068 17.641 4.98 0.93 9.8575-0.84075 14.667-1.7607 5.19-1.18 9.7804 2.1887 15.13 2.6587 4.07-0.38 7.8093-3.2892 11.969-3.7192 3.92-0.46 7.4204 1.13 11.09 2.25 1.465 0.35141 2.6051 0.9154 4.355 0.94922 3.21-0.02 3.8154-0.70979 6.7954-1.7798 3.36-1.48 6.6903 0.95012 10.05 1.6201 2.72 0.78 4.3024 0.88206 7.3462 0.38379 2.9695-5.1507 1.0575-7.9216-0.79248-11.082-3.0051-4.625-9.3926-8.0738-13.944-6.3926-2.84 1.14-4.7461 1.8662-7.9307 4.3608-2.19-4.31-3.5604-8.3802-8.1504-10.74-2.4112-1.3875-5.0757-2.1062-7.727-2.1665zm-0.07178 31.966c-5.03 0.06-9.7505 2.5112-15.021 2.2412-4.25-0.14-7.8104-2.4306-11.9-2.1606-3.22 0.3-6.4201 1.0397-9.5801 1.7197 12.06 13.98 32.71 18.811 49.97 12.661 6.99-2.55 13.501-6.3193 18.571-11.799-3.168-0.6956-6.7215-1.8111-10.042-1.6611-3.07 0.1-5.949 1.82-8.959 1.96-4.18-0.38-8.58-3.0304-13.04-2.9604z" fill="#f3c801"/></g></svg>
