<?xml version="1.0" encoding="utf-8"?>
<!-- Generator: Adobe Illustrator 13.0.2, SVG Export Plug-In . SVG Version: 6.00 Build 14948)  -->
<!DOCTYPE svg PUBLIC "-//W3C//DTD SVG 1.1//EN" "http://www.w3.org/Graphics/SVG/1.1/DTD/svg11.dtd">
<svg version="1.1" id="Ebene_1" xmlns="http://www.w3.org/2000/svg" xmlns:xlink="http://www.w3.org/1999/xlink" x="0px" y="0px"
	 width="409.154px" height="472.933px" viewBox="0 0 409.154 472.933" enable-background="new 0 0 409.154 472.933"
	 xml:space="preserve">
<path d="M409.154,0v271.114h-0.035c-1.485,111.712-92.491,201.819-204.555,201.819c-112.063,0-203.069-90.107-204.554-201.819H0V0
	H409.154"/>
<path fill="#0072BC" d="M406.182,2.772c0.677,21.508,0.424,48.472,0.403,69.572c-0.296-0.403-2.084-0.083-3.492,0.028
	c-17.306,0.519-31.343,3.973-46.22,11.318c-7.832,3.019-15.902,9.635-22.656,14.865c-4.534,3.253-8.48,7.712-12.412,10.671
	c-6.033-6.363-18.517-17.694-18.517-17.694c-4.453-3.688-12.901-9.535-12.901-9.535c-5.265-3.355-16.707-8.974-16.707-8.974
	c-4.877-2.251-9.554-4.5-15.03-6.657c-7.383-1.777-14.849-5.055-22.233-6.532l-7.188-1.275c-4.811-1.131-18.394-2.298-34.291-1.058
	c-24.52,1.843-40.671,6.577-60.169,15.974c-15.506,10.039-31.396,18.674-43.548,33.148c-3.07-2.932-8.908-8.893-8.807-8.992
	c-4.871-4.12-11.906-9.025-11.906-9.025c-24.34-17.97-51.397-19.737-51.397-19.737c-6.568-0.483-16.693-0.483-16.693-0.483
	c0-5-0.306-46.202,0-66C135.148,1.768,272.974,3.984,406.182,2.772"/>
<path fill="#FFF200" d="M232.105,60.789c0,0,17.396,3.139,32.006,9.234c3.881,1.84,9.253,4.496,13.931,6.645
	c5.375,2.456,10.142,5.606,14.71,8.754c7.262,4.788,17.499,13.589,27.293,23.797c1.54,2.542,2.645,1.516,3.247,1.223
	c13.709-13.431,23.189-21.073,40.209-28.598c17.021-7.524,35.584-8.25,43.5-8.25c-0.829,69.995,1.214,138.581-0.416,208.667
	c-0.448,4.595-1.607,7.135-1.75,11.333c-1.32,1.887-0.596,6.264-1.917,8.25c-3.402,0.165-8.548,2.948-12.355,3.708
	c-0.309,0.797-3.214,1.266-4.525,2.353c-8.844,4.208-17.688,8.316-28.186,8.107c-14.988-1.157-27.796-10.191-41.865-13.137
	c-0.397-0.204-1.503,0.283-1.9-0.021c0.003-0.2,0.007-0.6-0.292-0.703c-1.006,0.589-2.302,0.176-3.8-0.04
	c-12.688-1.231-25.458,5.436-37.311,10.412c-0.001,0.101,0.493,0.605-0.005,0.5c0.003-0.3-0.096-0.4-0.295-0.503
	c-9.639,3.699-20.343,3.988-30.704,0.18c-2.596-0.326-4.681-1.749-7.176-2.274c-5.179-2.054-10.255-4.407-15.537-6.162
	c-0.574-21.707-0.741-44.01-1.712-66.021l0.298,0.203c0.523-2.195-1.062-3.612-0.435-6.205c0.95-4.79,0.623-11.794,6.651-14.532
	c1.408-0.785,3.213-1.166,4.511-0.952c2.214-1.377,4.793,0.65,7.191,0.774c1.588,1.117,3.376,2.336,3.855,4.341
	c0.48,1.805-0.147,4.498,0.332,6.504c-0.943,4.09-5.874,7.139-5.819,11.44c0.587,1.206,1.374,2.515,2.566,3.227
	c-2.819,1.871-4.759,5.65-4.191,8.757c0.279,2.003,3.368,3.035,3.354,4.435c-1.927,2.48-2.668,6.474-1.301,9.587
	c0.981,1.812,2.564,3.428,4.968,3.152l1,0.011c-0.442,3.995,1.122,7.513,4.194,10.145c3.576,2.236,7.566,3.278,11.292,0.816
	c4.123-2.257,5.368-6.544,6.112-10.735c-0.29-1.003-0.272-2.703-0.96-3.911c1.997,0.32,3.502-0.163,4.815-1.35
	c1.422-2.186,0.646-4.493-0.131-6.701c-0.786-1.309-1.671-2.818-3.063-3.633c1.714-1.281,2.738-3.571,1.961-5.779
	c-0.772-2.708-2.851-4.73-4.932-6.553c0.012-1.199,0.916-1.59,0.429-2.795c-2.35-4.825-8.438-5.989-9.887-10.904
	c-2.471-2.926-4.023-7.442-2.584-11.127c1.808-0.782,4.8,0.05,6.483,1.567c4.261,3.745,4.806,9.151,7.052,14.174
	c1.284,1.614,3.389,1.236,4.98,1.952c-0.725,2.393,0.044,5.401,1.422,7.517c1.787,1.218,3.472,2.735,6.182,1.764
	c0.897,0.31,0.388,1.204,0.487,1.205l-0.196-0.302c-0.808,0.691,0.391,0.903,0.385,1.504c0.968,3.01,2.427,7.025,5.722,7.46
	c0.49,1.005,2.288,1.224,3.793,0.74c0.603-0.194,1.504-0.386,1.712-1.183c1.884,1.619,4.372,2.745,6.659,3.969
	c4.887,1.251,9.625-2.3,12.367-6.371c1.338-3.586,2.687-8.272,0.825-11.991c-1.081-1.813-2.567-3.127-4.056-4.343
	c1.017-1.489,1.238-3.587,0.755-5.292c-1.081-1.811-2.759-3.929-5.155-4.154c-1.498-0.216-2.897-0.33-4.398-0.246
	c0.718-1.692-1.367-3.214-2.754-4.429c-2.788-1.129-6.18-1.964-8.697-0.29c0.019-1.8-0.668-3.107-2.36-3.825
	c-8.089-1.185-18.506,0.407-26.045-5.372c1.016-1.489,1.926-2.48,3.646-4.462c-1.182-1.713-3.381-1.835-5.072-2.753l-3.6-0.038
	c3.421-1.964,8.354-5.213,12.575-7.069c4.916-1.549,9.222-2.104,13.394,0.64c3.27,2.934,4.437,6.146,8.102,9.485
	c0.506-0.595,1.689,1.017,2.596,0.427c0.204-0.398,1.702-0.183,2.209-0.877c1.482,1.615,1.656,4.217,3.74,5.739l0.303-0.197
	l-0.303,0.197c1.181,1.912,3.885,1.541,5.788,1.26l1.913-1.38c1.567,3.217,5.332,6.556,8.822,7.493
	c-0.195-0.303,1.698,0.217,2.2,0.022c1.013-1.189,2.914-1.269,3.332-3.065c3.288,1.234,6.719-1.73,10.127-2.495
	c3.224-2.266,5.166-6.346,6.605-10.031c0.329-2.897-0.345-5.404-2.123-7.423c-2.176-2.422-3.876-2.34-6.666-3.269
	c-0.193-0.702,0.725-2.393,0.037-3.6c-0.879-2.109-3.068-3.032-4.963-3.652c-2.895-0.53-5.008,0.748-7.217,1.625
	c-0.696-0.307-1.476-2.316-2.873-2.63c-3.39-0.936-6.603,0.231-9.121,2.005c-1.502,0.184-1.977-2.221-3.375-2.435
	c-6.211,1.035-10.861,5.887-17.06,5.622c-0.294-0.503-0.788-1.108-0.282-1.703c6.752-4.93,12.582-7.769,20.324-11.789
	c2.567,3.227,7.135,6.275,11.649,4.922c1.81-0.881,5.107-0.747,6.832-3.029c1.611-1.083,1.636-3.383,1.949-4.78
	c2.723-2.072,6.034-3.237,8.164-6.115l-0.197-0.302l0.197,0.302c2.035-3.279,2.177-7.378,2.818-11.271
	c-1.491-0.916-2.887-1.231-4.28-1.945c0.003-0.3,0.006-0.6-0.292-0.803c0.001-0.1-0.808,0.792-1.205,0.487
	c-0.291-0.803-1.494-0.515-2.09-0.922c-4.392-0.845-9.801-0.002-13.219,1.763c-2.122,2.078-6.197-0.365-8.721,1.809
	c-2.307,0.676-3.838,3.66-5.057,5.448c-0.839,3.791,0.235,6.302,0.795,10.108c-3.602,0.163-5.434,3.244-8.449,4.712
	c-4.123,2.158-7.651,4.921-12.252,4.873c-0.276-2.203,0.256-5.297,2.275-7.177c3.348-4.565,10.022-2.095,10.391-8.692l-0.688-1.007
	c1.91-0.98,7.025-2.527,7.469-6.622c0.416-1.496-0.67-2.907-0.955-4.31c1.209-0.888,3.22-1.967,4.83-2.85
	c-0.596-0.407,0.612-1.194,1.019-1.69l0.196,0.202c1.724-2.182,3.06-5.568,1.79-8.582c-1.184-1.512-2.871-2.83-4.973-2.651
	c-0.588-1.107,2.028-2.679,1.948-4.58c1.333-3.187-0.031-6.601-1.303-9.414c-2.959-3.931-8.242-5.487-12.446-5.13
	c-3.603,0.162-6.936,3.328-9.167,6.404c-1.228,2.588-1.854,5.081-1.78,7.682c-1.901,0.08-3.396-0.535-4.804,0.35
	c-0.606,0.594-1.21,0.888-1.913,1.18c-2.034,3.279-2.563,6.074-1.601,9.584c0.885,1.609,2.07,2.922,3.055,4.432
	c-1.714,1.282-4.135,3.257-3.862,5.96c-0.131,2.999,2.247,5.124,3.022,7.432c-2.12,1.978-2.653,5.173-1.781,7.882
	c2.069,2.821,3.219,7.734,1.584,11.117c-1.121,1.988-3.133,3.167-4.353,4.955c-7.768,6.519-16.432,12.629-26.067,16.029
	c-2.509,0.774-4.897-0.351-5.991-0.963c-0.384-1.504,1.538-3.584,2.647-4.572c3.732-3.062,11.103-0.085,11.372-6.882l-0.495-0.405
	c3.307-0.566,7.203-0.325,8.942-4.007c1.017-1.59,0.135-3.399,0.75-4.793c2.802-0.17,5.716-1.54,6.744-4.23
	c0.324-2.296,1.546-4.384,0.568-6.494c-0.884-1.609-2.572-2.727-4.271-2.945c2.01-0.879,5.049-4.647,5.582-7.842
	c0.833-3.091-0.136-6.102-1.812-8.419c-2.569-3.027-6.856-4.272-10.563-3.71c-4.813,1.35-9.759,5.598-10.114,10.895l-0.01,1
	c0.106-0.599-0.491-0.906-0.284-1.503c-2.007,0.579-5.387-1.357-6.216,1.435c-2.724,2.272-3.763,6.061-3.997,9.259
	c-3.092-0.732-4.02,1.958-5.74,3.84c-0.627,2.594-0.155,5.399,0.418,7.905c-2.616,1.573-3.741,3.961-3.272,6.966
	c1.875,2.42,2.052,4.622,3.524,7.237c0.176,2.402,1.642,5.618-0.972,6.89l-0.707,0.693c-1.199-0.113-3.205,0.467-4.396-0.446
	c-4.435-6.346-3.845-14.941-4.767-22.451c-0.243-5.502,0.41-10.596,1.563-15.584c1.32-1.986,3.042-3.968,4.657-5.452
	c2.311-0.976,3.23-2.866,5.84-3.739c3.405-0.565,6.222-2.135,9.831-2.998c0.11-0.999,1.706-0.482,1.918-1.68
	c-0.593-0.806,1.023-2.289,0.535-3.394l-0.499-0.006c1.897,0.12,3.901-0.259,5.804-0.439c1.505-0.484,2.717-1.572,4.132-3.057
	c0.916-1.491,0.731-2.893,0.945-4.291c0.898,0.11,1.597,0.317,2.697,0.228c-0.103,0.299,0.097,0.401,0.195,0.503
	c0.114-1.399,1.604-0.284,2.209-0.878c2.814-1.37,5.24-3.845,6.271-6.734c0.732-3.093-2.546-5.127-2.522-7.427
	c0.408-0.796,1.923-2.18,2.135-3.378l0.297,0.303c1.433-3.085,3.478-7.364,1.011-10.59c-3.061-3.832-7.435-6.378-12.845-5.434
	c-4.111,1.157-6.748,4.63-8.286,8.314c-2.192-0.723-3.58-1.937-5.985-1.462c-4.713,1.251-6.464,6.132-7.311,10.524
	c-0.114,1.499,0.738,6.008-2.962,5.969c-1.199-0.012-1.519,1.785-2.427,2.575c-0.814,1.392-0.539,3.695-0.255,5.298
	c-2.804,0.371-4.427,2.554-5.552,4.942c-1.549,4.684,1.186,10.913-3.55,14.364c-0.398-0.204-0.791-0.908-1.195-0.513l0.692,0.808
	l-0.5-0.006c-0.884-1.609,0.64-3.893-0.843-5.609c1.213-1.187-1.495-0.415,0.518-1.594c0.006-0.6,0.112-1.199-0.484-1.506
	l0.505-0.494c-0.158-4.002,0.501-9.696-0.363-13.205c0.42-1.795,0.142-3.898,0.567-6.394c-0.198-0.202-0.297-0.303-0.497-0.305
	c2.405-0.475,4.604-0.352,7.223-2.025c0.606-0.694,0.608-0.894,1.409-0.985c1.317-1.587,2.74-3.772,3.165-6.168
	c0.322-2.196-0.259-4.003-1.342-5.614c-0.994-0.61-1.883-1.62-2.583-1.627l0.2,0.002c1.161-5.888-0.282-11.303-4.139-15.444
	c-1.681-2.017-4.68-2.049-5.752-4.66c-0.299-0.103-0.697-0.307-1.198-0.212c-1.835,3.381-6.345,4.334-8.48,7.612
	c-0.908,0.79-1.728,2.682-2.442,4.074c-2.346,4.376,0.902,9.41-4.232,12.657c-0.632,2.993-1.066,6.289,1.41,8.615
	c1.171,2.812,4.283,1.645,6.462,3.667c1.198,0.213,2.692,0.728,3.794,0.54c-0.803,0.292,0.497,0.305,0.695,0.507
	c-0.383,7.997,0.995,19.712-0.493,28.097c-1.513,1.284-2.386-1.326-3.879-2.041c-3.64-5.738,2.467-15.975-6.012-18.064
	c0.73-2.792-0.432-6.504-1.315-8.114c-0.296-0.403-1.18-1.912-2.37-2.924c-1.096-0.412-1.697-0.218-2.897-0.231
	c-0.339-5.903,0.604-9.994-4.454-14.047c-1.99-1.021-3.908,0.76-5.012,1.148c-0.105,0.399-0.209,0.798-0.511,0.995
	c-2.256-4.224-4.333-6.446-8.826-7.093c-4.205,0.457-10.205,0.394-11.758,5.478c-2.045,4.279,0.007,8.901,2.675,12.029
	c0.297,0.303,0.797,0.308,0.992,0.71c-1.707,0.682-2.826,2.571-3.842,4.06c-0.835,3.392,1.227,7.013,3.508,8.837
	c0.888,1.109,2.39,0.925,3.079,2.032l2.4,0.025c-0.326,2.497,0.547,5.106,3.033,6.432c2.281,1.824,5.484,1.557,8.177,2.286
	c-0.517,1.594,0.573,2.506,1.362,3.614c4.283,1.645,9.573,2.6,13.854,4.445c0.796,0.408,1.282,1.713,2.382,1.724
	c1.778,2.119,4.455,4.347,5.02,7.753c2.879,11.631,1.445,24.416-2.063,34.78c-0.725,2.393-3.239,3.767-5.542,4.043
	c-1.697-0.318-2.479-2.026-3.362-3.636c-1.268-3.113-0.555-4.405,0.273-6.997c0.406-0.596,0.608-0.794,0.317-1.697
	c1.518-1.684,2.745-4.271,3.665-6.162c-0.001,0.1,0.012-1.2,0.507-0.695c0.518-1.694,1.136-3.488-0.45-4.805l-1.897-0.319
	c0.11-0.999,0.811-1.092,1.42-1.886c0.227-2.597,1.976-7.279-0.395-10.104c-1.488-1.116-3.29-0.935-4.998-0.252l-0.707,0.692
	c-0.165-3.302-0.727-7.008-2.097-9.822c-1.689-1.118-3.576-2.337-5.785-1.56c-1.002,0.289-1.913,1.28-2.819,1.87
	c-1.182-1.712-2.828-6.929-6.723-7.47c-3.89-0.941-8.991-0.894-11.526,2.48c-0.812,1.192-2.637,3.573-1.96,5.78
	c0.882,1.709,0.96,3.81,2.547,5.027c-2.709,0.871-3.438,3.664-4.062,5.958c-0.143,4.098,4.119,7.843,7.504,9.278
	c-1.231,2.987-0.167,6.399,2.11,8.623c4.145,5.343,14.444,5.45,17.867,12.886c-1.72,1.883-2.895-0.53-4.803,0.25
	c-4.581-1.847-8.148-5.085-12.121-7.626c-4.657-4.149-11.632-6.622-13.872-12.345c-1.869-3.02-1.942-5.621-1.107-8.913l-0.395-0.504
	c1.203-0.287,0.319-1.796,0.927-2.59l0.5,0.005c0.503-0.295-0.093-0.701-0.19-1.002c1.216-1.487,1.74-3.782,1.257-5.487
	c-0.688-1.107-2.08-1.922-1.964-3.421c2.02-1.879,2.647-4.472,3.275-7.166c-0.484-1.605-1.665-3.417-3.558-4.037
	c1.939-3.78,5.383-7.944,2.735-12.972c-0.492-0.805-1.46-3.816-3.76-3.84c-1.094-0.611-2.601,0.073-3.902,0.16
	c1.34-3.786-0.918-7.91-2.789-10.63c-4.267-3.245-9.339-5.898-14.565-3.452c-4.918,1.749-7.772,6.819-8.721,11.61
	c0.768,3.008,2.232,6.523,3.003,9.232c-1.501,0.184-3.012,1.168-3.924,2.359c-0.616,1.493-0.943,4.09,0.242,5.503
	c-0.313,1.296,1.488,1.215,0.873,2.609c1.887,1.319,3.366,3.335,5.559,3.958c-0.319,1.797-1.935,3.38-1.057,5.489
	c0.973,2.61,3.454,4.436,6.144,5.365c-0.313,1.296-0.636,3.493,1.153,4.512c2.98,1.931,7.761,3.781,8.82,7.792
	c0.982,1.71,2.063,3.522,0.942,5.51c-4.387-1.246-7.764-3.481-11.94-5.825c-1.785-1.418-3.168-3.033-5.259-3.955
	c-0.785-1.408,0.528-2.694,0.747-4.492c0.655-5.293-1.996-10.021-6.569-12.569c-3.186-1.333-6.708,0.73-9.371-2.798
	c-3.201,0.067-6.866-3.372-9.993-0.804c-2.3,0.076-3.818,1.76-6.017,1.637c-1.817,1.681,0.264,3.503-0.555,5.295
	c-1.032,3.089,0.528,6.905,1.998,9.821c2.556,4.227,8.054,4.384,9.104,9.195c2.064,3.522,6.044,5.464,9.952,4.704
	c3.51-0.963,5.152-4.946,8.06-5.716c5.653,4.459,12.925,7.235,17.865,12.987c0.696,0.407,0.49,1.005,0.186,1.402
	c-5.822,2.039-9.565-3.4-14.142-5.648c-1.502,0.185-2.799-0.129-4.02,1.858c-2.579-2.027-5.543-5.458-9.364-3.497
	c-0.909,0.89-2.414,1.375-2.628,2.672c-1.981-1.82-4.771-2.749-7.679-1.98c-1.202,0.188-2.311,0.976-2.922,2.07
	c-0.814,1.291-0.129,2.799-0.245,4.298c-0.897-0.31-2.508,0.773-3.198-0.234c-3.121,2.068-6.746,4.43-7.687,8.321
	c-0.557,5.494,0.767,12.808,6.235,15.865c3.785,1.44,6.893,0.672,10.402-0.091c0.78,1.908,2.78,1.929,4.769,2.949
	c3.302-0.165,6.72-1.93,7.955-5.217c1.296,0.414,2.583,1.627,4.282,1.745c3.098,0.232,5.429-2.744,7.249-4.725
	c0.413-1.196,1.122-2.088,1.236-3.387c1.795,0.519,2.898,0.23,4.605-0.452c4.066-6.358,9.822-11.698,18.101-9.612
	c4.88,1.951,9.36,3.898,13.324,7.339c-2.395-0.525-5.402,0.144-7.419,1.823c-0.913,1.19-0.123,2.199,0.164,3.402
	c1.59,1.016,3.17,2.933,4.973,2.652c-1.514,1.284-2.723,2.171-4.335,3.355c-0.8-0.009-2.007,0.579-2.915,1.369
	c-2.203,0.278-5.111,1.047-7.612,1.121l0.002-0.2c-4.708,0.751-9.757-4.102-13.219,1.762c-2.592-0.727-5.791-0.86-8.404,0.413
	c-2.907,0.57-2.057,5.379-5.14,3.747c-2.003,0.279-4.409,0.854-6.03,2.837c-0.419,1.896-2.135,3.378-1.755,5.282
	c0.091,0.901-1.411,1.085-2.117,1.678c-3.728,2.661-5.283,7.945-4.925,11.949c0.894,0.609-0.113,1.199,0.48,1.905
	c2.644,5.428,8.312,8.486,14.312,8.55c3.006-0.569,6.424-2.333,8.452-5.012c1.585,1.516,3.572,2.736,5.679,2.059
	c2.815-1.471,5.244-4.146,5.878-7.438l0.009-0.9c3.096,0.432,5.412-1.144,6.737-3.53c2.022-2.079,0.853-5.092,1.475-7.185
	c1.997,0.321,3.824-2.26,4.637-3.552c1.748-4.582,2.607-10.173,8.025-11.917c0.999,0.11,1.6,0.017,2.703-0.272
	c1.091,0.912,0.571,2.806,1.357,4.115c-0.007,0.7-1.123,2.188-0.032,3.099l-0.198-0.202c-1.727,2.582-0.759,5.693-2.78,7.672
	c0.399,0.104,0.194,0.602,0.291,0.903c-1.742,3.982-6.067,6.337-8.303,9.814c0.396,0.403-0.929,2.79,0.158,4.002
	c-2.422,2.075-3.945,4.358-5.075,7.146c0.485,1.505,0.77,2.908,2.163,3.623c-1.829,2.781-2.469,6.574-2.3,9.576
	c0.785,1.408,1.87,2.92,3.362,3.635c0.895,0.51,2.198,0.224,3.297,0.335c0.06,3.801,0.323,7.403,3.292,10.335
	c3.969,3.041,6.856,4.271,12.462,3.73c0.407-0.696,1.506-0.585,1.907-0.68c4.334-3.257,5.791-8.641,4.445-13.855
	c-0.881-1.809,1.706-0.582,2.415-1.475c2.205-0.478,3.03-2.868,3.45-4.765c0.64-3.794-1.334-6.313-4.01-8.642l-0.5-0.005
	c2.019-1.779,3.237-3.567,2.666-6.273c-0.684-1.606-1.569-3.016-3.261-3.834c0.718-1.692,1.737-3.481,0.957-5.49
	c-3.945-5.242-10.998-9.814-8.424-16.889c1.035-3.289,3.759-5.661,6.773-6.93c4.412-1.154,9.18,1.896,12.249,4.928
	c0.682,1.707,1.364,3.415,2.047,5.122c2.474,12.026-0.285,27.298,0.074,40.802c-0.244,13.899-0.87,25.993-1.425,40.788
	c-3.398-0.236-6.533,3.132-10.337,3.492c-11.174,7.084-27.896,9.11-39.63,2.687c-1.898-0.119-4.177-2.143-6.674-2.47
	c-12.451-4.729-27.575-12.088-40.557-4.323C79.3,310.108,65.999,319.67,51.54,315.719c-1.897-0.32-4.587-1.248-6.88-1.972
	c-2.117-1.236-2.867-1.611-6.464-3.468c-7.153-3.394-11.247-5.117-17.231-6.68c-7.172-1.839-14.922-2.339-16.297-1.839
	c-0.922-7.51-1.595-41.015-2.5-50.125c0.396,0.404,0-181.5,0-181.5c0.6,0.006,12.828,0.191,14.725,0.41
	c28.47,3.097,55.239,15.777,73.806,38.172c3.432-3.065,6.572-6.832,10.2-9.495c5.148-4.646,10.789-8.488,16.436-13.029
	c2.509-0.874,3.83-2.86,6.239-3.735c11.898-9.277,25.142-13.439,38.891-18.096c17.786-5.352,40.536-6.352,48.766-5.992
	C214.526,58.706,223.501,58.844,232.105,60.789"/>
<path fill="#22B24C" d="M214.544,105.008c-0.05-1.375-0.29-2.587-0.65-3.714c-0.015-0.047-0.028-0.094-0.044-0.141
	c-0.086-0.258-0.175-0.513-0.273-0.761c-0.599-1.573-1.401-2.977-2.239-4.318c-0.34-0.429-0.717-0.79-1.111-1.112
	c-0.025-0.034-0.05-0.067-0.076-0.1c-0.023-0.004-0.05-0.02-0.073-0.025c-0.705-0.55-1.462-0.973-2.183-1.38
	c-0.859-0.721-1.747-1.528-2.51-1.945c-0.012,0.004-0.024,0.011-0.035,0.015c-0.183-0.246-0.339-0.516-0.457-0.82
	c-1.31,0.986-2.522,2.174-3.637,3.562c-3.411,1.065-6.353,5.034-7.295,9.124c-0.422,2.096,0.36,3.804-0.56,5.695
	c0.584,1.506,2.389,1.125,3.377,2.235c5.187,1.254,11.5,0.02,17.017-1.523C214.805,108.711,213.929,106.402,214.544,105.008"/>
<path d="M200.218,97.858c-1.331,2.887-1.969,6.58-1.998,9.38l0.695,0.507c2.997,0.232,8.091,0.885,11.104-0.384
	c0.175,2.502-2.811,1.071-4.123,2.157c-3.399-0.035-6.699-0.07-9.589-1.1c-0.051-4.701,1.705-9.983,5.136-12.947
	C201.933,96.376,200.427,96.96,200.218,97.858"/>
<path fill="#22B24C" d="M255.806,108.838l0.304-0.297c1.974,2.521,2.629,6.828,0.8,9.609c-0.229,2.698-3.941,3.859-4.368,6.455
	c1.491,0.915,2.276,2.324,3.36,3.835c0.087,1.301-0.322,2.197-0.341,3.897c-1.518,1.684-2.634,3.273-4.845,4.25
	c-2.205,0.476-4.6,0.052-6.693-0.57c-0.203,0.298-0.706,0.592-0.511,0.994c1.99,0.921,0.271,2.803,0.657,4.107
	c-2.538,3.574-6.631,2.932-10.529,2.691c-1.105,0.588,0.288,1.203,0.18,2.002l0.5,0.005c-0.017,1.6-0.826,2.492-1.938,3.58
	c-4.105,0.557-9.231,3.004-13.251,4.862c-3.636,3.362-8.161,5.815-8.82,11.409c0.566,12.906-2.483,27.275,5.421,36.558
	c1.177,2.212,4.391,0.846,5.786,1.26c2.517-1.573,2.946-4.469,3.375-7.165c0.355-5.296-5.008-8.852-4.356-13.746
	c1.012-1.189,1.93-2.88,3.619-1.862c0.603-0.294,0.41-0.896,0.415-1.396c-1.684-1.618-2.247-5.124-1.529-6.816
	c1.011-1.09,0.637-3.594,3.134-3.268c1.111-1.088,2.378,2.125,3.601,0.038c-0.768-3.208,0.179-7.599,2-9.58
	c0.202-0.298,1.305-0.486,1.911-1.18c-0.002,0.2,0.098,0.301,0.296,0.503c0.506-0.595,1.305-0.486,2.104-0.478
	c0.991,0.91,1.779,2.019,2.873,2.63c1.625-2.383,0.851-4.891,2.277-7.377c1.028-2.789,2.85-4.87,5.562-5.942l6.199,0.065
	c0.894,0.609,2.085,1.522,3.38,1.935c3.465,3.436,3.116,8.133,1.273,12.214c-1.525,2.384-3.938,3.559-6.253,5.035
	c0.983,1.61,4.199,0.044,5.68,1.959c0.581,1.806,1.061,3.812,0.439,5.805c-1.128,2.689-3.539,3.664-6.047,4.437
	c-0.603,0.294-2.69-0.828-2.609,0.973c1.591,0.917,0.872,2.709,0.854,4.309c-1.324,2.287-3.623,2.163-5.731,3.041
	c-1.202,0.187-3.287-1.235-4.601-0.048c0.088,1.201,0.686,1.507,1.175,2.412l0.303-0.197c0.787,1.309-0.526,2.495-1.532,3.084
	c-3.502,0.164-6.505,0.433-9.624,2.3c-0.514,1.295-2.026,2.479-2.64,3.773c-0.615,1.494,0.476,2.305,1.162,3.612
	c3.975,2.442,8.499,0.089,12.02-1.775l0.495,0.506c0.401-0.196,0.106-0.699,0.21-0.998c0.399,0.004,0.998,0.21,1.202-0.188
	c0.311-1.097,2.109-0.978,2.925-2.369c1.503-0.285,2.616-1.573,4.117-1.657c6.756-5.33,12.39-8.572,17.664-15.617
	c0.618-1.794,0.847-4.492,0.768-6.493c-1.364-3.514-4.918-7.951-1.78-11.519c0.901-0.09,1.098,0.212,1.903-0.28
	c-0.979-2.01-2.259-4.024-3.541-5.737c-0.586-1.306-0.771-2.808-0.655-4.307c1.118-1.688,3.823-2.16,5.34-3.844
	c-3.666-3.239-5.934-6.363-4.479-11.548c0.999,0.011,0.311-1.097,1.214-1.387c2.106-0.578,4.521-1.953,6.708-0.73
	c1.906-0.58,0.426-2.496,0.54-3.795c0.647-4.593,2.994-9.069,7.51-10.522c2.905-0.47,7.702-0.22,10.581,1.81
	c3.275,2.435,4.027,7.043,3.484,11.137c-0.211,1.098-1.525,2.384-1.737,3.582l-0.197-0.302c-0.009,0.9-1.012,1.19-0.723,2.193
	c1.794,0.618,5.195,0.554,5.97,2.962c0.063,3.601-0.869,6.691-4.194,9.057c-1.513,1.184-3.713,1.261-4.325,2.355
	c0.582,1.706,1.557,4.116,1.136,6.212c-1.829,2.681-5.241,3.846-8.045,4.216c-0.412,1.196,2.875,2.43,0.957,4.11
	c-2.231,3.077-6.822,2.13-9.16,5.705c-1.824,2.381-4.052,5.058-3.187,8.368c2.979,2.031,5.995,0.562,8.615-1.411
	c2.003-0.279,3.411-1.164,5.02-1.848c2.915-1.469,5.14-3.846,8.457-5.412c1.398,0.115,1.283,1.614,1.974,2.421
	c-4.018,1.758-7.44,3.923-11.36,5.882c-3.431,2.864-7.436,3.322-10.178,7.294c0.388,1.204,0.579,2.006,1.872,2.72
	c1.302-0.087,2.19,0.923,3.9,0.04c1.406-0.585,3.019-1.868,5.017-1.647c1.713-1.283,4.032-3.059,6.239-3.736
	c1.506-0.584,3.003-0.268,3.385,1.436c-0.707,0.693-0.419,1.895-0.029,2.9c3.125-2.368,7.766-6.32,11.349-4.682
	c-0.205,0.498,1.096,0.411,1.186,1.412c0.39,1.004-0.919,1.791,0.176,2.402c2.512-1.174,4.425-2.354,7.229-2.825
	c1.499,0.016,2.9,0.03,3.89,1.041c0.989,0.91,1.373,2.514,1.859,3.819c-0.706,0.593-1.012,1.19-1.22,1.988
	c1.692,0.617,4.094,0.543,6.179,1.964c1.493,0.716,2.373,2.625,3.057,4.132c-0.325,2.497,0.051,4.801-1.471,6.885
	c-0.309,0.797-0.427,2.496-1.73,2.882c0.287,1.304-2.121,2.078-2.933,3.07c-2.616,1.573-5.827,2.639-8.611,1.11
	c0.005-0.4-0.493-0.605-0.69-0.907c-1.604,0.383-0.019,1.8-0.729,2.793c-1.518,1.584-2.823,2.17-4.629,2.652
	c-1.092-0.812-1.695-0.418-2.89-1.031c-2.38-1.925-2.953-4.531-4.717-7.949c-0.503,0.295-0.711,1.092-1.41,0.985
	c0.603-0.194,0.908-0.79,1.412-1.185c-0.296-0.403,0.009-0.9-0.487-1.205c-0.598-0.207-1.002,0.189-1.208,0.687
	c-0.104,0.399,0.294,0.603,0.491,0.905c-0.4-0.004-0.604,0.494-0.908,0.791c0.399,0.104,0.094,0.601,0.19,0.902
	c-1.007,0.689-2.308,0.676-3.412,1.164c-0.491-0.905-1.798-0.218-2.587-1.227c-0.783-1.708-2.27-3.023-2.348-5.024
	c0.497,0.205,0.704-0.493,1.01-0.99c-1.303,0.187-0.587-1.206-1.482-1.715c-1.703,0.282-1.724,2.282-3.321,1.965l-1.999-0.021
	c-3.057-4.232-5.895-10.162-11.578-11.721c-1.603,0.183-4.795-0.45-6.705,0.43c-6.105,0.537-10.844,4.087-15.975,7.034
	c-0.913,1.291-4.321,2.155-3.142,4.067c2.205-0.477,5.41-0.943,7.197,0.276c0.497,0.305,0.995,0.51,1.39,1.014
	c-2.111,0.978-3.046,4.368-6.04,3.737c-1.806,0.581-2.88-1.93-4.29-0.944c0.68,1.907,2.672,2.728,4.57,2.947
	c5.604-0.441,10.652,4.512,16.052,4.668c3.593,0.637,6.901-0.128,11.001-0.086c0.891,0.91,2.397,0.325,3.595,0.538
	c0.589,1.006,0.181,1.902-0.032,3.1l-1.218,1.687c0.685,1.507,1.802-0.081,2.604-0.273c3.699,0.139,8.426-2.512,10.584,1.611
	c-0.21,0.898-0.22,1.897-1.03,2.789c2.889,1.13,5.808-0.739,8.695,0.591c1.083,1.611,2.872,2.63,2.046,5.121
	c-0.105,0.499-0.707,0.693-0.416,1.596c-0.399-0.104-0.503,0.295-0.805,0.492c0.783,1.508,2.271,2.623,3.566,3.137
	c1.375,2.414,1.755,4.318,1.925,7.22c-0.605,0.595-0.021,2.101-0.529,2.896c-1.644,4.083-4.778,7.45-8.991,8.606
	c-3.902,0.26-6.567-3.169-8.546-5.189c-1.813,1.182-3.229,2.767-5.819,1.84c0.01-1-1.097-0.312-1.388-1.215
	c0.101-0.099-1.202,0.188-0.798-0.208c-3.373-2.535-2.729-6.829-2.688-10.829l-0.792-0.708c-1.012,1.09-1.234,3.188-3.135,3.268
	c-0.793-0.608-2.299-0.124-3.29-0.935c-0.296-0.403-0.888-1.209-1.182-1.712c0.429-2.796-0.947-5.11,0.284-8.198
	c-2.304,0.376-4.316,1.656-5.795-0.46c-0.182-1.802-1.362-3.614-1.142-5.612c-2.058-4.022-4.817-7.951-8.99-10.594
	c-1.397-0.215-3.591-0.838-4.805,0.45l0.303-0.297c-0.8-0.009-1.406,0.585-2.012,1.179c-0.023,2.2-1.153,5.088,0.927,7.01
	c0.652,4.607,4.606,9.048,8.474,12.089c-0.002,0.2-0.604,0.394-0.007,0.7l0.505-0.495c0.097,0.401-0.305,0.497-0.507,0.695
	c0.493,0.705,0.801-0.092,1.202-0.188l2.675,2.428c-0.414,1.296-1.223,2.188-2.432,3.075c1.49,0.916,3.27,2.834,5.259,3.955
	c0.382,1.704,1.768,3.118,1.345,5.214c-0.719,1.893-3.211,1.066-3.827,2.661c3.379,2.034,5.847,5.16,5.904,9.16
	c-1.204,0.389-0.711,1.094-2.212,1.178l0.198,0.203c-1.306,0.586-2.887-1.331-4.003,0.258c1.862,3.619,1.02,7.711-0.618,11.294
	c-0.604,0.394-1.521,1.983-2.422,2.075c-0.913,1.29-2.815,1.47-3.617,1.662c-1.016,1.489-2.801,0.07-4.102,0.156
	c-1.1-0.11-1.786-1.317-2.587-1.227c-3.176-2.434-4.022-7.542-2.778-11.729c-2.096-0.422-6.024,2.237-6.992-0.772
	c-0.065-3.401-1.111-8.612,3.01-10.569c-1.386-1.314-3.686-1.339-4.975-2.452c-0.295-0.503,0.615-1.394,0.022-2.2l-0.303,0.298
	c0.426-2.496,1.964-6.08,5.375-7.145c-0.585-1.507-3.086-1.433-3.567-3.138c0.252-4.997,6.285-8.235,6.143-13.636
	c0.541-3.995-0.617-8.007-4.193-10.345c-4.676-2.348-8.974-2.493-13.894-0.644c-1.217,1.687-3.928,2.659-5.145,4.246
	c-0.107,0.799-0.925,2.391-1.438,3.585c-0.311,0.997-0.527,2.595-0.739,3.793l-0.253,24.298c0.777,21.31,1.854,42.722,1.731,64.121
	c-0.709,0.893,1.171,2.813-0.539,3.795c1.962,3.621-0.583,7.994,0.774,12.009l0.303-0.197c-0.513,1.096-0.225,2.299-0.538,3.595
	c0.685,1.508-0.438,3.695,0.649,4.807l0.041-3.898c0.577,2.205,0.955,4.31,0.933,6.51c0.977,2.21,1.944,5.319,2.314,8.224
	c-0.292-0.803-0.282-1.803-0.976-2.41l-0.704,0.394c0.782,1.808,1.566,3.216,2.145,5.321c-0.001,0.101,0.702-0.192,1.202-0.187
	l-0.297-0.303c1.003-0.29,0.877,2.209,1.667,3.217c4.229,6.844,10.467,12.81,15.216,17.659c-1.616,1.584-4.128,2.758-6.326,2.535
	c-6.006,0.536-13.385-1.54-18.849-4.997c-1.53,2.884-3.734,3.261-6.545,4.231c-4.001,0.158-8.591-0.889-11.759-3.923
	c-0.396-0.404-0.987-1.31-1.38-1.914c-8.354,5.113-17.854,5.114-26.726,2.321c-0.695-0.507-0.786-1.309-1.585-1.416
	c6.847-4.529,12.721-11.568,18.397-18.81c5.384-8.045,3.883-17.561,5.282-27.047c0.44-22.996,2.182-46.278,2.223-69.38
	c0.221-11.598,2.638-22.773-1.137-34.813c-1.487-1.316-2.459-3.926-4.746-5.25c-3.981-1.841-7.95-4.783-12.676-2.332
	c-3.617,1.662-6.357,5.434-7.294,9.024c-1.166,6.288,4.087,10.843,8.244,14.987c0.985,1.41,0.073,2.601-0.04,3.8
	c-0.613,1.293-1.606,0.583-2.615,1.472c2.385,1.426,5.571,2.76,5.637,6.06c-0.908,0.791-1.021,1.99-2.427,2.575
	c-1.11,0.988-3.088-1.133-3.31,0.966c1.089,1.011,3.286,1.334,3.269,2.934c0.596,0.406,1.195,0.514,1.996,0.421
	c1.684,1.518,2.463,3.526,2.341,5.625c0.575,2.406-1.832,3.081-3.641,3.962c-1.199-0.112-2.304,0.376-3.598-0.237
	c0.081,1.9,1.561,3.816,1.538,6.017c0.073,2.601-0.663,5.993-3.177,7.367c-2.722,2.072-7.811,1.018-10.51,0.89
	c-0.286-1.303-1.498-0.215-2.187-1.223c-3.376-2.335-3.422-7.535-2.48-11.526c-0.493-0.705-1.192-0.812-1.993-0.721
	c-1.61,0.984-3.61,0.963-5.2-0.054c-1.25-4.713,0.995-9.09,3.725-11.962c-1.285-1.413-2.701,0.071-3.582-1.737
	c1.23-2.887,3.062-5.868,5.282-7.845c-0.993-0.611-1.782-1.72-1.372-2.715c1.62-1.884,2.351-4.875,5.057-5.447
	c2.03-2.779,3.974-7.059,5.213-10.747c0.542-4.094,2.685-8.172,0.327-12.197c-0.499-0.105-0.9-0.009-1.204,0.388
	c-0.003,0.3,0.095,0.401,0.295,0.503c-0.298-0.203-0.505,0.395-0.795-0.509c-2.408,0.775-4.82,1.85-6.93,2.828
	c-3.636,3.463-3.887,8.36-6.428,12.234c-1.225,2.387-5.093-0.653-3.632,3.062c0.082,1.701-0.643,4.094-1.264,6.188
	c-1.125,2.388-3.934,3.159-6.025,2.337c-0.097-0.301-0.093-0.701-0.391-0.904c-1.515,1.484-0.139,3.798-1.259,5.688
	c-0.822,2.091-3.232,3.065-4.142,4.057c-0.493-0.705-1.308,0.687-1.695-0.518l-0.505,0.494c-0.596-0.405-1.086-1.411-1.89-1.02
	l0.202-0.198c-1.398-0.214-0.489-1.005-1.885-1.42c-1.719,1.783-3.75,4.762-6.55,4.732c-5.21,0.945-9.477-2.198-12.331-6.628
	c-0.863-3.609-1.426-7.116,0.307-10.298l3.633-3.162c0.603-0.294,2.198,0.223,2.907-0.67c-0.88-1.909-2.554-4.427-0.432-6.504
	c2.824-2.271,6.12-1.837,9.109-0.805c0.915-1.491-0.847-5.11,1.957-5.48c2.999,0.131,6.006-0.538,8.383,1.687
	c0.314-1.297,1.123-2.188,1.24-3.787c2.613-1.273,6.496,0.368,9.594,0.6c2.992,0.731,5.701-0.141,8.71-0.909
	c1.815-1.482,4.217-1.657,6.037-3.538l4.839-3.75l0.007-0.699c-1.596-0.317-3.406,0.564-4.791-0.85
	c-1.497-0.316-2.588-1.127-2.873-2.631c0.709-0.792,1.408-0.785,2.213-1.177c2.005-0.479,5.199,0.055,7.187,1.275
	c1.208-0.787-0.484-1.605-0.775-2.408c-3.959-3.941-8.445-5.388-13.119-7.837c-1.893-0.72-3.792-0.839-5.687-1.259
	c-1.702,0.182-3.297-0.334-5.103,0.247c-0.403,0.296-0.112,1.099-1.213,1.187c-0.3-0.003-0.493-0.604-0.7-0.007
	c-4.01,0.958-5.561,5.842-8.189,8.515c-1.999-0.121-3.823,2.26-5.097-0.253c-0.412,1.095-1.222,2.087-0.935,3.29
	c-1.621,2.083-2.65,4.773-5.349,4.745c-1-0.011-2.207,0.677-3.598-0.238c-0.892-0.809-0.88-1.909-1.672-2.717
	c-0.806,0.591-1.014,1.389-1.223,2.187c-1.423,2.285-3.353,5.065-6.549,4.732c-1.407,0.685-2.289-1.124-3.28-1.934
	c-0.492-0.806-0.078-2.101-1.175-2.413c-1.222,2.088-2.722,2.072-4.825,2.35c-3.897-0.341-7.574-2.479-9.337-6.097
	c-1.965-3.321-2.211-8.524-0.575-12.007c1.02-1.889,3.33-2.866,5.338-3.545c2.006-0.579,3.983,1.642,5.994,0.563
	c-1.581-1.817-0.956-4.21-1.434-6.315c1.114-1.389,3.312-1.166,5.109-0.847c1.893,0.62,3.275,2.434,5.167,3.154
	c0.915-1.391,1.232-3.087,2.043-4.079c1.895,0.42,4.495,0.447,6.674,2.47c1.29,1.013,2.068,3.121,3.575,2.437
	c0.006-0.6-0.18-1.902,0.227-2.598c4.605-0.452,7.156,4.275,11.442,5.62c2.396,0.425,5.296,0.455,7.01-0.927
	c0.116-1.499-1.179-2.013-0.665-3.307l-0.7-0.008c-0.783-1.708-3.273-2.634-3.854-4.44c-0.102,0.199-0.303,0.297-0.206,0.498
	c-5.273-2.555-9.126-7.096-14.299-9.75l0.718-1.692c6.065,3.363,10.718,7.912,17.394,10.282c1.899,0.119,2.899,0.13,4.309-0.856
	c-0.441-5.704-4.582-11.348-9.866-12.903c-0.891-0.909-2.387-1.225-2.675-2.428c-0.784-1.508,1.227-2.587,0.74-3.792
	c-2.385-1.525-6.984-1.573-6.643-5.57c-0.279-2.003,1.536-3.384,1.55-4.784c-3.19-0.933-5.264-3.455-6.734-6.37
	c-0.181-1.802-0.368-3.004,0.05-4.8c0.506-0.495,0.614-1.294,1.715-1.382c1.011-1.09,3.289,1.034,3.614-1.363
	c-2.761-3.729-5.509-8.758-3.457-13.736c0.326-2.497,3.841-3.861,5.86-5.74c4.415-1.354,9.109-0.805,12.175,2.527
	c0.396,0.305,0.688,1.107,1.192,0.713c0.391,0.904,0.981,1.81,1.675,2.417c0.373,2.604,1.042,5.611,1.12,7.712
	c-0.507,0.695-1.602,0.184-1.713,1.183c0.296,0.403,0.694,0.607,1.195,0.512c1.515-1.384,4.118-1.657,5.812-1.139
	c1.991,0.92,2.366,3.324,2.845,5.33c0.863,3.509-2.077,7.378-4.705,10.051c-0.117,1.599,1.991,0.821,2.883,1.63
	c1.184,1.512,1.959,3.921,0.84,5.809c-0.026,2.5-3.843,4.06-1.968,6.48l0.303-0.297c1.292,0.814,0.881,1.809,1.17,2.912
	c-0.503,0.295-0.622,2.094-1.53,2.884c-0.131,2.899-2.068,6.479-1.003,9.791c-0.3-0.004-0.402,0.195-0.503,0.294
	c0.292,0.803,0.788,1.209,0.875,2.41c1.479,2.015,1.967,3.22,3.545,5.337c4.147,5.143,11.32,7.718,16.47,12.572
	c2.086,1.322,5.473,2.557,7.653,4.48c2.096,0.422,5.681,1.859,7.408-0.723c0.221-1.998-0.462-3.605-0.837-6.009
	c-3.786-1.339-7.081-1.874-11.072-2.715c-0.382-1.804-0.767-3.208,0.055-5.3l-0.693-0.707c-0.511,1.094-2.012,1.179-3.114,1.367
	c-0.693-0.707-2.196-0.423-3.088-1.232c-2.685-1.428-0.862-3.609-1.64-5.717c0.311-1.097,2.713-1.272,1.425-2.386
	c-3.695-0.538-6.465-3.367-7.63-6.779c-0.279-2.003-0.159-3.902,0.361-5.797c1.504-0.384,3.211-1.067,4.326-2.555
	c-1.787-1.219-2.969-2.931-3.546-5.137c-0.278-2.103,0.246-4.398,1.955-5.28c3.016-1.569,6.631-2.931,10.307-0.593
	c1.691,0.818,2.177,2.223,2.862,3.63l0.302-0.196c0.29,0.903,1.572,2.716,1.557,4.116c1.685,1.418,1.818-1.681,2.923-2.17
	c1.505-0.484,2.405-0.475,3.905-0.459c3.578,2.137,2.931,6.631,3.496,9.937l-0.504,0.395c0.496,0.405,0.783,1.708,1.682,1.717
	c0.616-1.493,2.116-1.478,3.322-2.065c0.993,0.71,1.788,1.218,2.175,2.422c-0.023,2.2,0.553,4.506-1.064,6.19
	c0.084,1.501-1.233,3.087-1.948,4.58c-0.103,0.299,0.295,0.403,0.492,0.705c0.91-0.891,1.903-0.28,2.905-0.47
	c1.454,4.415-3.479,7.564-4.517,11.253c-2.136,3.478-0.489,8.496,1.878,11.721c0.994,0.51,1.678,2.117,3.084,1.532l0.007-0.7
	c3.791,0.939,5.728-2.64,7.755-5.219c4.114-10.958,2.769-25.773,0.786-36.994c-0.295-0.503-0.982-1.81-2.08-1.922
	c0.207-0.698-0.584-1.606-0.975-2.41c-2.476-2.326-4.752-4.65-8.348-5.087l0.006-0.5c-2.692-0.828-6.091-0.964-9.077-2.295
	c-1.089-1.111-2.082-1.722-1.362-3.614c0.402-0.196,0.108-0.799,0.212-1.198c-0.988-1.111-3.711,1.061-4.3-0.045
	c-2.099-0.122-3.689-1.039-5.982-1.763c-0.091-0.8-0.678-2.107-0.967-3.11c-0.393-0.704,0.927-2.59-0.163-3.602
	c-1.507,0.685-2.897-0.23-4.297-0.244c-1.787-1.319-3.488-1.237-4.363-3.646c-0.578-2.106-0.753-4.508-0.632-6.507
	c1.12-1.888,4.121-1.957,4.843-4.05c-1.988-1.22-4.661-3.848-5.43-6.757c-0.563-3.606,0.263-6.097,3.185-8.167
	c3.608-0.762,8.616-1.51,11.991,0.925c1.48,1.916,3.566,3.238,3.343,5.535c0.503-0.294,1.388,1.115,1.903-0.28
	c-0.29-1.003,1.119-1.888,2.224-2.377c2.707-0.672,3.378,2.136,4.463,3.647c1.366,3.214,0.232,6.503,0.896,9.91
	c0.783,1.708,2.203-0.277,3.293,0.734c1.087,1.211,2.976,2.331,2.357,4.125c0.2,0.002,0.699,0.107,0.498,0.205
	c0.677,2.207,0.55,4.806,0.925,7.21c1.093,0.611,2.914-1.37,3.294,0.534c1.933,6.421-0.648,14.194,5.4,19.258
	c0.896,0.409,2.386,1.324,3.298,0.234c1.41-0.985,0.322-2.197,1.037-3.589c0.394-8.997,0.395-18.697,0.477-26.597l2.2,0.023
	l-0.052,24.201c-0.215,1.398,0.963,3.51-0.748,4.592c0.402-0.196,1.101-0.088,1.205-0.487c0.382,1.704,2.178,2.123,3.587,1.237
	c7.552-4.921-0.124-16.802,9.595-18.601c0.098,0.301,0.398,0.205,0.698,0.208c0.826-2.492-1.04-5.813,0.289-8.598
	c1.333-3.086,7.207-0.625,5.55-4.742c0.248-4.598,0.5-9.595,4.527-12.153c2.803-0.271,4.888,1.151,6.87,2.871
	c1.808-0.781,1.531-2.984,2.247-4.477c1.124-2.288,2.736-3.571,4.853-5.049C249.152,104.369,253.329,106.612,255.806,108.838"/>
<path d="M211.421,107.175c0.498,0.206-0.006,0.6-0.209,0.898l-0.5-0.005l0.009-0.9L211.421,107.175"/>
<path d="M161.474,111.455c-0.201,0.098,0.094,0.601-0.704,0.393l0.009-0.9C161.08,110.851,161.276,111.253,161.474,111.455"/>
<path d="M252.861,113.108c-0.104,0.399-0.603,0.193-0.902,0.19l0.01-0.9c0.201-0.098,0.298,0.104,0.497,0.206l0.206-0.498
	C252.567,112.505,253.065,112.71,252.861,113.108"/>
<path d="M175.871,131.006c0.743-4.092-0.012-8.5,2.33-12.476c-0.15,4.799-1.408,10.386,0.337,15.604l5.622,7.559
	c0.545-4.294-0.033-6.401,1.805-10.082l0.5,0.006c-0.73,2.892-1.174,7.088-0.309,10.497c-0.526,2.494,2.46,3.826,3.544,5.337
	c0.421-1.996,0.945-4.29,1.463-5.985c0.703-0.293,0.495,0.405,0.692,0.707c-0.93,2.891-0.465,6.296,0.408,8.905
	c0.206-0.598,0.384,1.504-0.708,0.693c-0.896-0.31-0.677-2.208-1.883-1.62c-3.078-2.132-6.487-1.268-9.174-2.496
	c2.407-0.675,4.698,0.149,6.997,0.273c-0.175-2.402-2.564-3.427-4.044-5.342c-3.878-2.141-9.381-1.898-13.378-2.24l-0.287-1.203
	c2.79,0.929,8.296,0.387,11.095,0.516c-1.972-2.721-4.65-4.849-5.92-7.662c-1.877-2.22-4.792-0.85-6.677-2.27l-7.7-0.08
	c-0.192-0.702,0.808-0.692,1.211-0.988c2.996,0.332,6.707-0.63,9.794,0.602c-1.838-5.919-7.287-10.876-9.622-17.101
	C166.096,119.004,171.042,124.156,175.871,131.006"/>
<path d="M250.754,113.786c-0.002,0.2-0.006,0.6-0.307,0.697l-0.7-0.008l0.007-0.7L250.754,113.786"/>
<path d="M248.331,115.961c-4.035,3.358-7.776,7.319-10.919,11.386c3.1,0.033,7.003-0.227,9.787,1.302l-0.207,0.698
	c-3.391-1.035-8.286-1.386-11.502,0.08c-2.127,2.578-3.754,5.162-5.883,7.939c2.599,0.128,6.104-0.436,8.596,0.49l-0.006,0.5
	c-3.105,0.468-7.398-0.177-10.512,1.091c-2.321,2.076-3.951,4.959-5.878,7.439c1.804-0.282,4.105-0.458,6.002-0.238l-0.005,0.5
	c-4.804,0.35-9.415,1.402-12.259,5.673c-0.298-0.203-0.295-0.503-0.292-0.803c0.709-0.893,1.82-1.882,2.729-2.772
	c0.928-2.691-0.646-5.307-0.42-7.705l1,0.011c0.378,2.104-0.037,3.599,1.143,5.512c3.039-3.769,7.075-7.227,5.327-12.145
	c0.118-1.799-0.968-3.111-0.851-4.809c1.296,0.313,1.678,2.217,2.063,3.621c-0.119,1.799,0.272,2.603,0.455,4.305
	c3.147-4.567,9.089-8.505,7.152-14.626c0.017-1.5-0.967-3.21-0.947-5.01c0.404-0.496,1.201-0.088,1.194,0.512
	c0.067,3.101,1.639,5.918,1.407,8.916c3.749-4.662,8.291-8.714,12.532-12.67C248.337,115.361,248.334,115.661,248.331,115.961"/>
<path fill="#22B24C" d="M218.006,115.097c0.004-0.211,0.014-0.428,0.04-0.652c-0.109-0.739-0.418-1.386-0.85-1.947
	c-0.536-0.832-1.26-1.533-2.047-1.672c-0.218-0.116-0.439-0.223-0.663-0.318c-0.81,0.384-1.665,0.713-2.538,1.014
	c-4.122,0.997-8.251,1.886-12.243,1.5c-0.971-0.496-2.536-0.265-3.237-0.802c-0.142,0.045-0.29,0.047-0.441,0.031
	c-0.352-0.118-0.703-0.252-1.052-0.397c-0.573-0.32-1.144-0.714-1.632-0.784c-0.054-0.03-0.109-0.053-0.163-0.084l-0.041,0.068
	c-0.361,0.025-0.661,0.298-0.866,0.991l-0.103-0.07l-1.437,3.585l0.407-0.794c0.032,0.181,0.171,0.376,0.495,0.604
	c1.605-0.484-0.08-2.001,1.525-2.385c0.796,0.309,0.289,1.004,0.483,1.606c1.298,0.213,1.924-2.28,3.104-0.368
	c-1.009,0.889,0.176,2.302,0.467,3.105c0.913-1.191,1.429-2.685,1.236-3.387c1.003-0.29,0.39,0.904,0.887,1.209
	c0.403-0.296,0.71-0.893,1.21-0.888c0.398,0.205,0.393,0.605,0.69,0.908l-1.21,0.987c0.088,1.101,1.079,2.012,1.673,2.618
	l1.717-1.682c-0.093-0.601-0.891-0.81-0.985-1.411c0.302-0.197,0.607-0.693,1.005-0.489c0.397,0.304,0.393,0.704,0.69,1.007
	c0.806-0.592,1.215-1.488,1.723-2.182c0.79,0.908,0.178,2.102-0.229,2.698c-1.014,1.389,1.38,1.914,1.873,2.619l1.72-1.882
	c-0.695-0.507-0.885-1.509,0.023-2.2c1.284,1.514,1.015-1.489,2.113-1.378c0.89,1.11-0.618,1.794-0.529,2.895l2.192,0.723
	c0.814-1.392,0.235-3.398,1.447-4.585c1.785,1.518-0.138,3.698-0.257,5.497c1.201-0.087,2.198,0.223,3.092,0.832
	c0.671-0.758,0.794-1.497,0.784-2.289C218.082,116.333,218.005,115.711,218.006,115.097"/>
<path fill="#22B24C" d="M196.007,118.015l-2.012,1.18c0.613-1.294-1.661-3.718,1.037-3.59
	C195.927,116.114,195.215,117.307,196.007,118.015"/>
<path d="M179.626,116.145c0.196,0.402-0.207,0.697-0.41,0.995l-0.793-0.708C178.728,115.935,179.331,115.641,179.626,116.145"/>
<path fill="#22B24C" d="M199.98,120.657l-0.708,0.793c-0.594-0.607-0.978-2.111-1.672-2.718l1.517-1.684
	C199.405,118.251,201.59,119.674,199.98,120.657"/>
<path fill="#22B24C" d="M192.115,117.275c0.69,0.907-0.316,1.497,0.475,2.405c-0.403,0.296-0.809,0.891-1.407,0.685
	C191.493,119.368,189.323,116.446,192.115,117.275"/>
<path fill="#22B24C" d="M210.569,121.767c-0.6-0.106-0.992-0.81-1.388-1.214l0.925-2.391l2.186,1.423L210.569,121.767"/>
<path fill="#22B24C" d="M206.476,121.025c-1.116,1.588-2.208,0.777-3.295-0.335l-0.496-0.405l1.721-1.982
	C204.798,118.907,206.288,119.923,206.476,121.025"/>
<path fill="#22B24C" d="M196.655,123.022l-0.708,0.793c-0.691-0.907-0.679-2.007-0.97-2.91l1.413-1.186
	C196.078,120.816,199.557,122.853,196.655,123.022"/>
<path fill="#22B24C" d="M215.571,121.619c-0.409,0.796-1.514,1.185-2.417,1.575l-1.196-0.412l1.228-2.687
	C213.98,120.703,214.878,120.912,215.571,121.619"/>
<path d="M127.069,121.397c-0.004,0.4-0.2-0.002-0.7-0.007l0.41-0.996C127.078,120.497,127.371,121.2,127.069,121.397"/>
<path fill="#22B24C" d="M203.546,123.894c-0.701,0.093-1.305,0.487-1.912,1.18l-1.377-2.214l1.418-1.685
	C202.265,122.081,203.358,122.792,203.546,123.894"/>
<path fill="#22B24C" d="M209.356,122.955c-0.108,0.799-1.312,1.086-1.917,1.68c-0.298-0.303-0.697-0.307-0.993-0.71l1.223-2.188
	C208.162,122.442,208.861,122.55,209.356,122.955"/>
<path d="M285.145,124.445c-0.103,0.199,0.396,0.404-0.407,0.695l0.01-0.9C284.948,124.143,285.046,124.344,285.145,124.445"/>
<path d="M128.249,123.309l-0.007,0.7c-0.501,0.095-0.9-0.009-1.195-0.512C127.448,123.401,127.754,122.804,128.249,123.309"/>
<path d="M284.427,126.137c-1.767,6.382-3.444,13.865-5.218,20.847c4.01-0.858,8.132-3.016,12.54-3.77l-0.008,0.8
	c-4.813,1.25-9.627,2.5-13.564,6.059c-1.136,3.489-1.667,6.383-2.505,10.075c3.006-0.569,6.227-2.436,9.424-2.302
	c-0.718,1.792-2.31,0.976-3.613,1.362c-2.724,2.172-8.321,2.014-7.275,7.125c-0.208,0.798-0.715,1.492-0.525,2.394
	c1.606-0.483,3.72-1.761,5.519-1.642c-0.612,1.094-2.611,1.073-3.821,1.96c-2.012,1.179-3.025,2.369-3.946,4.459l-0.699-0.007
	c1.228-2.688-1.95-4.821-2.523-7.427c1.394,0.615,2.075,2.422,3.063,3.632c1.218-1.687,1.749-4.682,1.768-6.482
	c-1.764-3.518-3.833-6.44-6.202-9.465c0.203-0.298,0.502-0.194,0.802-0.191c2.073,2.621,4.048,5.142,6.12,7.764
	c0.135-3.399,4.066-6.358,1.303-9.887c-2.752-4.629-5.903-9.262-7.55-14.479c2.254,4.423,6.21,8.665,8.957,13.794
	c4.185-8.057,4.272-16.457,7.457-24.624L284.427,126.137"/>
<path d="M128.729,125.215c2.624,7.327,3.339,15.435,5.259,23.155c3.621-1.962,6.562-5.931,8.697-9.309
	c1.012-1.09,0.931-2.891,1.94-3.78c-0.242,3.997-3.776,7.261-6.112,10.737c-1.319,1.786-2.93,2.869-4.35,4.754
	c1.272,2.714,1.339,5.815,2.61,8.628c2.215-1.377,4.127-2.557,5.539-3.742c0.206-0.498,0.61-0.894,0.516-1.495
	c0.596,0.406,1.206-0.587,1.612-1.183c-0.195-0.402-0.697-0.208-1.197-0.213c0.408-0.796,0.802-0.191,1.2,0.013l2.427-2.675
	c0.293,0.703-0.311,1.097-0.715,1.492l0.495,0.506c-1.108,0.688-1.727,2.582-2.632,3.072l-0.008,0.7
	c-0.301,0.097-0.399-0.104-0.498-0.205c-1.507,0.684-1.323,2.186-2.927,2.57l1.193,0.712c0.204-0.398-2.496-0.426-2.91,0.97
	c-3.211,1.066-0.743,4.092-0.563,5.994c0.796,0.409,0.589,1.107,0.983,1.711c0.493,0.605,1.002-0.19,1.403-0.286l0.005-0.5
	l0.495,0.506c0.404-0.396,1.211-1.088,1.912-1.181c-0.811,1.092-1.925,2.38-2.837,3.571c0.685,1.407,1.47,2.815,0.655,4.307
	c-0.873-2.609-2.043-5.522-4.225-7.244c-2.103,0.278-4.099-0.143-5.285-1.456c1.596,0.417,3.198,0.234,4.992,0.752
	c0.717-1.592-0.867-3.109-0.653-4.507c-0.396-0.304-0.487-1.205-0.991-0.81c0.002-0.2,0.006-0.6,0.307-0.697
	c-2.184-1.523-5.384-1.556-7.867-3.182c0.402-0.196,1.305-0.486,0.914-1.39c0.378,2.104,3.879,2.04,5.473,2.657l0.505-0.495
	l-2-9.621c-4.093-0.643-7.966-3.283-11.744-5.423l0.004-0.4c1.3,0.014,1.692,0.818,3.58,1.937c2.186,1.423,5.089,1.154,7.378,2.178
	c1.207-0.688-0.083-1.601,0.327-2.597c-1.032-6.511-1.467-12.716-3.407-18.537L128.729,125.215"/>
<path d="M187.481,130.127c-0.207,0.598-0.603,0.294-1.009,0.79c-0.694-0.508,0.209-0.798,0.213-1.198
	C187.087,129.523,187.182,130.024,187.481,130.127"/>
<path d="M145.637,134.091c-0.103,0.299-0.502,0.195-0.702,0.193c-0.095-0.501,0.008-0.7,0.511-0.995
	C145.744,133.492,145.641,133.791,145.637,134.091"/>
<path d="M240.392,138.879c-0.002,0.2,0.095,0.601-0.207,0.698l-0.994-0.51C239.394,138.669,240.097,138.376,240.392,138.879"/>
<path d="M192.377,140.079l-0.005,0.5l-1.2-0.013C190.881,139.663,191.981,139.675,192.377,140.079"/>
<path d="M292.944,143.727c-0.199-0.102-0.298-0.203-0.295-0.503l1.207-0.688C293.552,142.933,294.139,144.239,292.944,143.727"/>
<path d="M119.662,141.221c-0.199-0.102,0.289,1.003-0.511,0.995c-0.396-0.305-0.69-0.908-0.187-1.202
	C119.164,141.016,119.565,140.92,119.662,141.221"/>
<path fill="#22B24C" d="M108.72,154.808c0.771,2.808,0.44,5.704,0.112,8.401c0.103-0.299-0.096-0.401-0.195-0.502
	c-1.741,3.982-5.173,7.046-9.187,8.305c-0.587-1.207-1.199-0.013-1.992-0.721c-5.963-3.563-8.987-10.894-8.222-17.187
	C94.36,150.858,103.572,149.754,108.72,154.808"/>
<path fill="#22B24C" d="M316.837,154.076c0.101-0.099,0.302-0.197,0.205-0.497c2.587,1.327,6.084,1.563,9.075,2.494l-0.017,1.5
	c-0.698-0.107-0.207,0.698-0.709,0.893c0.183,1.702-0.743,4.192-0.565,6.294c-1.019,1.79-3.043,4.169-5.354,5.145
	c0.103-0.199-0.097-0.301-0.194-0.402c-1.019,1.689-3.426,2.364-5.332,3.044c-5.063-3.653-9.9-9.704-8.433-16.188
	c2.623-2.173,5.418-1.744,8.433-3.013C314.438,154.051,315.736,154.165,316.837,154.076"/>
<path d="M250.534,154.085c-3.762,5.961-8.822,11.709-11.69,18.179c3.997,0.342,10.406-0.491,14.904-0.344l-0.005,0.5
	c-5.403,0.243-10.311,0.892-15.919,1.734c-1.729,2.782-3.347,4.465-4.584,8.052c3.896,0.341,7.793,0.682,10.996,0.415l-0.008,0.7
	c-4.71,0.951-10.384-1.608-13.231,2.962c-0.413,1.296-1.125,2.389-1.24,3.888l6,0.062l0.495,0.405
	c-2.515,1.474-5.899-0.061-8.222,2.115c0.098,0.201,0.187,1.202-0.415,1.396l-0.797-0.209c-0.671-2.807-2.246-5.223-3.019-7.932
	l0.505-0.494c1.082,1.711,1.661,3.717,3.045,5.332c2.728-2.572,2.271-6.777,1.105-10.089c-0.478-2.206-2.055-4.322-1.43-6.716
	c0.669,3.007,2.234,6.224,3.803,9.34c1.427-2.585,2.954-5.169,4.382-7.854c-0.459-4.005-1.811-8.62-1.566-12.917l0.5,0.005
	c0.163,3.602,1.33,6.714,2.498,9.827C240.912,165.786,245.171,160.13,250.534,154.085"/>
<path fill="#22B24C" d="M303.808,156.841c0.032,6.5,4.054,14.143,10.622,17.111c1.284,1.514-1.323,2.287-1.438,3.585
	c-1.499-0.015-2.328,2.676-3.41,0.965c-1.883-1.62,2.728-2.672-0.169-2.902c-0.598-0.206,0.117-1.699-0.983-1.71
	c-0.613,1.393-1.12,1.988-2.917,1.669c1.818-1.781,0.026-2.499,0.75-4.792l-0.694-0.507c-0.712,1.192-1.026,2.489-2.92,1.869
	c0.007-0.6,0.02-1.899,0.527-2.594c0.195,0.402,0.697,0.207,0.997,0.21l0.504-0.395c-0.191-0.702-0.89-0.909-1.489-1.015
	c0.206-0.598,1.213-1.188,0.521-1.895c-0.8-0.008-1.611,0.983-1.918,1.68c-0.694-0.607-2.8-0.029-2.182-1.723l1.018-1.689
	c0.897,0.209,1.982,1.721,2.892,0.73c0.006-0.5-0.09-0.901-0.486-1.205c-0.702,0.193-1.197-0.313-1.695-0.518
	c0.002-0.2,0.804-0.391,0.509-0.894c-1.298-0.214-2.203,0.277-3.894-0.541c0.707-0.693,0.919-1.791,2.022-2.179
	c0.195,0.402,0.991,0.81,0.688,1.207c0.504-0.395,2.089,1.122,1.707-0.682c-0.291-0.803-1.396-0.415-1.487-1.216
	c0.603-0.193,1.305-0.486,1.512-1.184c-0.893-0.609-1.294-0.513-2.404,0.475c-0.19-0.902-1.887-1.32-0.976-2.41
	C300.611,156.507,302.517,155.927,303.808,156.841"/>
<path d="M313.61,156.643c-0.003,0.3,0.191,0.802-0.21,0.998c-0.402,0.196-0.698-0.208-0.995-0.511l0.807-0.691
	C313.311,156.54,313.409,156.741,313.61,156.643"/>
<path d="M315.607,156.964l-0.808,0.691l0.013-1.2C315.213,156.36,315.309,156.761,315.607,156.964"/>
<path fill="#22B24C" d="M118.274,159.207c-0.404,0.396,0.39,1.004,0.486,1.405l-1.511,0.985c-0.984-1.511-1.771-2.719-3.06-3.832
	c-0.213,1.298,0.169,3.001,1.358,4.014c-0.107,0.699-1.107,0.688-1.61,0.983c-0.294-0.603-0.887-1.209-1.485-1.415
	c0.38,1.904-1.813,1.181-0.529,2.794c0.701-0.092,1.204-0.387,1.694,0.518c-0.31,0.997,0.58,1.906,0.272,2.703
	c0.003-0.3,0.006-0.6-0.292-0.803c-0.402,0.196-0.207,0.698-0.21,0.998l-2.2-0.023c0.104-0.399-0.295-0.503-0.493-0.705
	c-0.2-0.003-0.598-0.107-0.701,0.192l-0.008,0.7c-0.602,0.194-1.093-0.611-1.403,0.286c-0.204,0.397,0.194,0.602,0.491,0.905
	c0.4,0.004,0.898,0.209,1.202-0.188c0.995,0.511-0.12,1.899,0.875,2.41c-0.909,0.79-2.104,0.378-3.302,0.165
	c0.505-0.495-0.289-1.103-0.483-1.605c-0.097-0.301-0.497-0.305-0.697-0.307l-0.318,1.697c-0.2-0.003-0.599-0.107-0.702,0.192
	c0.397,0.304,0.191,0.902,1.189,1.013l-0.023,2.2c-0.8-0.009-1.6,0.083-2.194-0.523c-0.594-0.607,0.316-1.497-0.882-1.71
	l-0.713,1.193c-0.298-0.203-0.592-0.706-0.992-0.71c-0.404,0.295-0.508,0.694-0.513,1.194l1.491,0.916
	c-0.303,0.297-0.407,0.596-0.511,0.995l-0.7-0.008c-0.59-0.906-1.074-2.511-2.167-3.122c0.406-0.596,1.609-0.884,2.207-0.677
	c3.329-2.766,7.362-5.924,8.508-10.312c0.622-2.094-0.147-5.102-0.225-7.203C113.731,153.76,116.701,156.591,118.274,159.207"/>
<path d="M311.707,156.923c-0.014,1.4-1.902,0.18-2.414,1.375c0.359,3.904,0.815,8.109,4.192,10.344
	c-0.104,0.299-0.403,0.296-0.703,0.293c-3.37-2.835-4.924-7.252-4.38-11.546C309.302,157.398,310.605,157.112,311.707,156.923"/>
<path d="M160.814,155.55c4.445,5.347,7.993,10.384,11.33,16.419c2.327-2.576,3.267-6.466,4.896-9.249l0.5,0.005
	c-0.925,2.391-1.856,5.381-2.784,8.071c-0.608,0.794-1.121,1.989-1.73,2.883c1.071,2.811,2.546,5.226,3.814,8.24
	c2.325-2.376,3.357-5.466,6.078-7.437c-2.139,3.778-5.874,7.139-4.221,11.556l0.204-0.298c-0.603,0.294-0.311,0.997-0.016,1.5
	c0.3,0.003,0.402-0.196,0.503-0.294c-0.804,0.391,0.082,1.7,0.475,2.405c1.009-0.89,1.729-2.783,3.425-2.365
	c-1.121,1.989-4.044,4.158-2.273,6.977c-1.992-0.821-0.964-3.41-2.555-4.327l-8.196-0.386l0.005-0.499
	c2.299,0.123,4.708-0.751,7.204-0.325c0.808-0.792-0.078-2.101-0.47-2.905c-0.491-0.906-0.774-2.509-1.663-3.618
	c-3.49-0.936-7.604,0.421-11.006,0.585l0.005-0.5c3.11-0.967,7.121-1.925,9.619-1.799c0.223-2.198-1.858-4.02-2.135-6.223
	c-4.597-0.348-9.587-1.3-13.869-3.045c3.901-0.059,8.377,2.288,12.487,1.331c-0.676-2.308-2.149-4.923-3.525-7.238
	c-2.274-2.523-3.734-6.339-6.612-8.469l0.01-1L160.814,155.55"/>
<path d="M286.999,157.566c-0.305,0.497-0.706,0.592-1.205,0.487C285.304,157.148,286.809,156.664,286.999,157.566"/>
<path d="M126.209,155.89l-0.008,0.8c-0.204,0.398-0.699-0.108-0.997-0.311l0.507-0.694
	C125.81,155.786,126.008,155.988,126.209,155.89"/>
<path d="M111.798,156.94c-0.402,0.196-0.497-0.305-0.696-0.408c0.402-0.195,0.107-0.698,0.705-0.492L111.798,156.94"/>
<path fill="#22B24C" d="M298.478,159.685c-0.508,0.795-1.014,1.29-1.717,1.582c-0.597-0.306-0.488-1.005-1.185-1.412l1.018-1.689
	L298.478,159.685"/>
<path d="M113.2,156.754c-0.002,0.2,0.195,0.402,0.294,0.503c-0.302,0.197-0.606,0.594-1.005,0.49l0.011-1L113.2,156.754"/>
<path d="M92.381,158.437c1.466,3.316,4.74,5.75,7.522,7.579c0.906-0.591,0.917-1.69,2.02-1.979c0.289,1.103-0.523,2.195-1.033,3.19
	c-2.331,2.975-3.382-1.736-5.277-2.256c-1.474-2.515-3.951-4.741-4.425-7.246C91.802,156.431,92.186,157.935,92.381,158.437"/>
<path d="M178.46,160.835c-0.198-0.203-0.011,1.099-0.707,0.692l0.01-1C177.963,160.529,178.363,160.534,178.46,160.835"/>
<path fill="#22B24C" d="M295.84,163.258c-0.703,0.293-1.015,1.49-1.714,1.382l0.23-2.897
	C294.851,162.248,295.951,162.259,295.84,163.258"/>
<path d="M104.055,160.959l-0.007,0.7l-1.2-0.012C102.951,161.348,103.563,160.254,104.055,160.959"/>
<path fill="#22B24C" d="M299.124,164.892c-0.616,1.494-1.62,1.883-2.812,0.971c-0.188-1.002,0.616-1.494,0.726-2.392
	C297.733,163.978,299.539,163.397,299.124,164.892"/>
<path d="M103.13,163.35l-0.8-0.009c0.1,0.001,0.311-0.997,0.81-0.891L103.13,163.35"/>
<path fill="#22B24C" d="M119.437,162.819c-0.109,0.799,0.682,1.708-0.327,2.597c-0.6-0.006-0.588-1.206-0.881-1.909
	C118.833,163.213,118.539,162.61,119.437,162.819"/>
<path fill="#22B24C" d="M117.007,165.694c-0.002,0.2-0.107,0.599,0.192,0.702c-0.504,0.395-1.613,1.284-1.902,0.181
	c0.411-0.996-1.374-2.415,0.227-2.598C117.032,163.295,116.513,165.089,117.007,165.694"/>
<path fill="#22B24C" d="M296.471,169.965c-1.1-0.012-0.787-1.308-1.181-1.912l0.209-0.798
	C296.996,167.57,297.183,168.772,296.471,169.965"/>
<path fill="#22B24C" d="M301.276,169.515c-0.309,0.697-0.319,1.797-1.023,2.189c-0.392-0.804-1.497-0.315-2.092-0.821
	c-0.09-0.901,1.116-1.489,0.524-2.395C299.481,168.996,300.585,168.608,301.276,169.515"/>
<path d="M315.177,169.46l-0.004,0.4l-0.899-0.01C313.979,169.247,314.882,168.957,315.177,169.46"/>
<path fill="#22B24C" d="M117.662,170.001c-0.502,0.195-1.005,0.49-1.407,0.686c-0.494-0.605-0.085-1.501-0.478-2.105l1.405-0.486
	C117.375,168.698,117.87,169.204,117.662,170.001"/>
<path fill="#22B24C" d="M114.549,171.169l-2.199-0.023c0.707-0.693-0.186-1.402-0.177-2.202c0.796,0.308,1.304-0.386,2.101-0.178
	L114.549,171.169"/>
<path fill="#22B24C" d="M300.04,172.902l-0.216,1.598c-1.1-0.111-2.795-0.529-1.98-1.921
	C298.439,172.986,299.539,172.997,300.04,172.902"/>
<path fill="#22B24C" d="M304.328,174.147c-0.403,0.196-0.208,0.698-0.213,1.198l-1.9-0.02c-0.692-0.707,0.114-1.299,0.221-1.998
	C302.93,173.932,304.038,173.144,304.328,174.147"/>
<path fill="#22B24C" d="M111.127,173.333l0.28,1.903l-2.9-0.03c0.11-0.899,0.314-1.297-0.275-2.403
	C109.23,173.014,110.027,173.322,111.127,173.333"/>
<path fill="#22B24C" d="M114.524,173.569c-0.209,0.898-0.615,1.494-1.219,1.887l-0.278-2.103L114.524,173.569"/>
<path d="M312.21,175.829c0.192,0.802-0.208,0.798-0.71,0.993c-0.197-0.302-0.595-0.506-0.49-1.005
	C311.411,175.721,311.914,175.426,312.21,175.829"/>
<path fill="#22B24C" d="M307.398,176.979c-0.307,0.597,0.769,3.008-0.929,2.691l-0.7-0.008c0.211-0.998-0.878-2.109,0.23-2.897
	C306.396,177.169,306.998,176.975,307.398,176.979"/>
<path fill="#22B24C" d="M303.793,177.442c-0.104,0.399-0.307,0.696-0.212,1.197c-0.698-0.207-1.695-0.517-1.687-1.417
	L303.793,177.442"/>
<path fill="#22B24C" d="M106.273,178.483c-0.601,0.094-1.801,0.081-2.391-0.925c-0.295-0.403,0.016-1.5,0.323-2.197
	C105.296,176.273,107.494,176.496,106.273,178.483"/>
<path fill="#22B24C" d="M111.08,177.833c-0.606,0.594-1.81,0.981-2.91,0.97l0.315-1.497L111.08,177.833"/>
<path d="M246.934,182.849c-0.303,0.297-0.31,0.997-1.007,0.69c-0.398-0.104-0.193-0.602-0.19-0.902
	C246.139,182.341,246.639,182.346,246.934,182.849"/>
<path d="M163.127,183.176c-0.604,0.394-0.805,0.391-1.4-0.015l0.409-0.896C162.534,182.47,163.333,182.578,163.127,183.176"/>
<path d="M301.568,189.419c-3.126,2.467-6.354,5.134-9.485,8.101c7.557,4.179,13.741-3.857,20.759-5.583
	c-3.729,2.761-8.645,4.31-12.081,7.774c6.682,1.87,13.861,3.745,20.365,3.412l-0.004,0.4c-5.605,0.442-10.993-0.714-16.789-1.075
	c0.871,2.71,2.344,5.325,2.51,8.627l-0.5-0.005c-0.364-3.504-2.636-6.128-4.205-9.145c-3.394-0.635-7.179-2.074-10.274-2.507
	c-0.021,2,1.656,4.218,1.636,6.218c-0.791-0.909-1.471-2.816-2.155-4.323c-1.166-3.312-4.669-3.049-7.154-4.375l-1.698-0.218
	c-0.614,1.394,1.874,2.52,0.958,4.011c-1.673-2.518-3.445-5.237-5.725-7.26c1.204-0.388,2.393,0.725,3.59,1.037
	c2.813-1.171,5.336-3.444,7.752-4.919c0.299,0.103,0.195,0.402,0.192,0.702c-1.323,2.186-4.023,2.258-5.25,4.745
	c1.29,0.914,3.288,1.135,4.982,1.752c0.706-0.592,1.509-0.884,2.41-0.975c4.023-2.258,6.45-4.833,10.374-7.092L301.568,189.419"/>
<path d="M121.697,195.445c1.702-0.183,4.004-0.359,6.007-0.638c-1.486-1.415-3.769-3.039-4.95-4.852
	c0.407-0.695,0.697,0.308,1.197,0.313c1.178,2.112,4.072,2.642,5.955,4.362c1.106-0.588,2.509-0.874,3.607-0.662l-0.004,0.4
	c-3.117,1.567-7.806,0.518-9.937,3.496c-1.929,2.78-3.256,5.367-5.283,7.946c0.53-2.895,2.56-5.774,3.89-8.66
	c-2.291-0.824-5.803,0.239-8.41,0.912c-2.537,3.574-4.783,7.951-7.321,11.624c0.434-3.295,2.87-6.77,4.704-9.951
	c0.105-0.499,0.709-0.893,0.012-1.2c-5.904,0.338-12.824,2.266-18.833,3.104c-0.294-0.603,0.506-0.595,0.809-0.892
	c4.522-2.053,9.019-1.806,13.635-3.258c-2.777-2.229-4.748-5.05-7.123-7.474c0.303-0.297,0.608-0.694,1.006-0.49
	c2.261,3.724,5.939,5.862,9.722,7.502c2.408-0.775,5.303-0.245,7.514-1.322c-2.579-2.027-5.451-4.757-7.825-7.282l0.211-0.998
	C113.447,190.558,117.198,195.298,121.697,195.445"/>
<path d="M314.455,190.753c-0.003,0.3,0.191,0.802-0.211,0.998c-0.401,0.096-0.496-0.305-0.694-0.507
	C313.455,190.743,314.155,190.75,314.455,190.753"/>
<path d="M238.449,190.961c0.097,0.301-0.306,0.497-0.507,0.695l-0.693-0.707C237.555,190.352,238.155,190.358,238.449,190.961"/>
<path d="M323.726,203.15c0.098,0.302-0.304,0.397-0.507,0.695l-0.696-0.307C322.23,202.735,323.331,202.646,323.726,203.15"/>
<path d="M91.131,201.626c-0.101,0.099-0.303,0.297-0.205,0.498c-0.299-0.103-0.802,0.192-0.998-0.21
	C90.034,201.315,90.839,200.823,91.131,201.626"/>
<path d="M106.235,210.884c-0.305,0.497-0.806,0.592-1.203,0.288c-0.293-0.703,0.407-0.696,0.711-0.993
	C105.939,210.481,106.338,210.585,106.235,210.884"/>
<path d="M307.818,213.485c-0.301-0.003-0.401,0.096-0.503,0.295l-0.49-1.005C307.226,212.679,308.024,212.887,307.818,213.485"/>
<path d="M273.345,220.326c0.397,0.304,0.788,1.109,1.192,0.713c-2.512,1.174-5.406,0.543-8.415,1.412
	c2.676,2.328,5.351,4.756,9.365,3.398c3.299,0.134,7.125-2.326,10.821-1.987c0.097,0.301-0.306,0.496-0.508,0.694
	c-3.911,1.06-8.323,2.214-11.738,3.678c5.745,5.26,13.777,2.244,20.775,2.417l-0.005,0.5c-4.611,1.052-9.505,0.401-13.624,2.258
	c4.465,3.347,9.521,7.599,14.694,10.254c0.491,0.704,1.49,0.814,0.982,1.609c-4.371-2.846-9.049-4.995-13.316-8.039
	c0.256,4.202-1.082,7.89-1.112,10.789l-0.5-0.006c-0.157-4.202,0.676-7.293-0.575-12.006c-2.876-2.33-5.357-4.056-8.337-6.087
	c-1.52,1.884,0.95,4.81-1.266,6.287c-0.166-3.302,0.887-8.291-3.5-9.637c-0.892-0.81-1.877-2.22-3.071-2.732l-0.343,4.096
	c-0.199-0.102-0.301,0.097-0.402,0.196c-0.271-2.803-1.641-5.717-1.91-8.62C266.346,220.153,269.432,221.486,273.345,220.326"/>
<path d="M149.758,218.538c-0.004,0.3,0.195,0.402,0.294,0.503c-3.126,2.468-7.938,3.618-8.287,8.314
	c-1.823,2.181-0.266,6.298-2.482,7.875c0.029-2.8,1.061-5.889,1.095-9.089c-2.205,0.477-4.329,2.755-6.737,3.53
	c-0.949,4.69-2.4,9.576-2.555,14.875c-0.305,0.396-0.802,0.19-1.203,0.187c0.243-4.097,0.494-8.995,1.54-13.384
	c-4.914,1.349-10.466,6.291-15.494,8.939c-0.396-0.404,0.512-1.096,0.818-1.692c3.422-2.064,5.544-4.242,9.164-6.105
	c-1.496-0.415-2.988-1.131-4.287-1.244c-0.786-1.409-2.287-1.324-3.38-1.936l-0.49-1.005c5.378,2.156,11.351,4.719,16.104-0.332
	c0.404-0.296,0.903-0.291,1.41-0.885c-2.582-1.727-6.586-1.369-8.357-4.188c3.591,0.838,7.67,2.88,11.774,2.523
	c1.812-1.081,3.622-2.062,5.335-3.344c-1.792-0.719-3.789-1.04-5.48-1.958l0.208-0.697
	C142.039,220.258,146.44,220.204,149.758,218.538"/>
<path d="M115.867,227.085c0.497,0.306-0.107,0.699-0.211,0.998l-0.494-0.505C115.364,227.38,115.468,226.981,115.867,227.085"/>
<path d="M246.854,228.951c0.058,4.1,3.846,5.24,6.418,7.967l0.302-0.197l-0.014,1.2c-1.988-1.021-3.867-3.042-5.956-4.162
	c-2.077,7.378,5.599,9.759,9.151,14.296c-0.597-0.307-1.188-1.113-1.892-0.82c-1.781-1.818-3.67-2.838-5.958-4.062
	c-0.119,1.897,0.557,4.206,0.634,6.407c3.557,4.137,7.22,7.675,11.386,10.919l-0.405,0.495c-3.172-2.634-6.449-4.768-9.823-7.303
	c0.227,7.002,1.152,14.112,0.082,20.902c-0.523-7.406-0.37-12.505-1.998-19.422c-2.235,3.377-5.365,6.244-8.984,8.007l-0.699-0.008
	c0.106-0.6,1.012-1.089,1.712-1.183c4.234-3.256,8.477-7.212,7.832-12.619c-0.882-1.709-0.258-4.003-1.442-5.515
	c-1.922,2.08-3.745,4.361-6.259,5.635c-0.781-1.808,1.416-1.484,2.129-2.777c2.129-2.778,5.351-4.846,3.692-8.862l-0.852-4.609
	c-1.72,1.882-3.05,4.768-5.351,4.744c1.016-1.389,2.929-2.669,3.848-4.46C246.12,232.143,245.05,229.332,246.854,228.951"/>
<path d="M166.033,230.508c-1.11,0.989-0.022,2.2-0.035,3.4c2.08,1.922,4.172,2.744,6.153,4.565l-0.008,0.7
	c-2.49-0.927-4.368-3.046-6.959-3.873c-0.914,1.29-0.136,3.398-0.75,4.792c3.069,2.932,5.327,6.956,9.306,8.998l-0.007,0.7
	c-3.383-1.637-6.349-4.968-9.324-7.299c-0.924,2.291-0.356,5.298-0.583,7.895c3.455,4.337,7.315,8.177,10.977,11.915l-0.7-0.007
	c-3.166-3.333-6.839-5.872-10.302-9.509c-0.815,1.492-0.338,3.697-0.462,5.996c-0.155,5.198-0.21,10.498,0.732,16.108
	c-0.202,0.198-0.306,0.597-0.705,0.493c-1.563-3.617-0.422-7.505-2.09-10.623c0.399,0.104,0.503-0.294,0.805-0.491
	c-0.269-2.903,0.647-4.494-0.728-6.908c-3.216,1.566-5.943,4.139-8.664,6.11l0.01-0.9c2.321-2.076,5.658-5.541,8.977-7.406
	l0.077-7.399c-2.706,0.571-4.823,2.249-7.242,4.024c-0.195-0.502-0.898-0.209-0.691-0.808c2.815-1.471,5.441-3.942,8.156-5.415
	c0.221-1.998,1.648-4.583,0.77-6.692c-1.811,1.082-3.916,1.56-5.535,3.343c-0.497-0.305-0.492-0.805-0.187-1.202
	c1.819-1.881,4.526-2.553,6.547-4.532c-0.086-1.301,0.723-2.193,0.44-3.796C164.917,232.097,164.932,230.697,166.033,230.508"/>
<path d="M115.026,240.577c-0.106,0.6-0.917,1.592-1.916,1.58c0.213-1.298,1.212-1.187,2.124-2.378
	C115.136,239.678,115.422,240.981,115.026,240.577"/>
<path d="M110.689,244.132c-0.284-1.503,1.2,0.013,1.21-0.987C111.892,243.845,111.488,244.241,110.689,244.132"/>
<path d="M299.47,246.8c-0.103,0.299-0.401,0.196-0.702,0.192l-0.19-0.901C299.181,245.797,299.173,246.498,299.47,246.8"/>
<path d="M131.066,246.445l-0.005,0.5l-1-0.011l0.01-1C130.472,245.839,130.768,246.242,131.066,246.445"/>
<path d="M282.931,250.428l-0.5-0.006l0.21-0.897C283.14,249.63,282.835,250.127,282.931,250.428"/>
<path d="M238.081,264.661l-0.9-0.009c-0.293-0.704,0.313-1.196,0.91-0.991L238.081,264.661"/>
<path d="M250.766,275.794c0.397,0.204-0.107,0.697-0.311,0.996l-0.5-0.006l0.011-1L250.766,275.794"/>
<path d="M163.853,276.588c-0.002,0.2-0.103,0.299-0.305,0.497c-0.4-0.005-0.899-0.11-1.195-0.514
	C162.854,276.477,163.462,275.684,163.853,276.588"/>
<path fill="#0072BC" d="M400.918,314.094c-0.032,3.1-1.598,5.44-2.333,8.834c-0.608,0.693-4.318,1.363-5.321,1.653
	c-17.079,7.521-33.479,17.052-52.187,8.056c-7.476-2.377-15.623-7.463-23.421-7.645c-6.981-1.873-13.681-1.942-20.399-0.212
	c-14.043,4.054-27.135,12.817-43.129,12.251c-11.785-1.522-22.511-8.734-34.381-11.658c-0.634-6.308-0.565-12.907-0.797-19.409
	c3.091,0.832,6.275,2.265,9.365,3.396l-0.304,0.297c14.144,5.448,31.979,11.834,47.566,3.396c8.642-3.91,17.787-8.215,26.898-9.32
	c9.018-1.605,17.684,1.685,25.651,4.768c0.294,0.604,0.688,1.208,0.983,1.711c1.619-1.884,3.193,0.532,4.792,0.75
	c8.567,3.089,15.636,6.163,25.129,6.962c2.304-0.376,5.398,0.056,7.712-1.12c3.106-0.667,7.615-1.42,9.837-3.497l-0.004,0.3
	c4.028-2.658,9.138-3.604,14.265-6.151c3.315-1.366,8.553-3.382,12.159-3.944C402.97,306.511,402.153,310.708,400.918,314.094"/>
<path fill="#0072BC" d="M118.643,306.118c6.971,2.873,13.641,5.742,21.015,8.319c8.365,3.388,17.658,4.085,25.877,2.271
	c6.234-3.235,12.05-4.774,18.384-8.009c1.504-0.284,2.815-1.371,4.513-1.152c0.133,6.4-0.741,13.492-0.913,20.391
	c-2.607,0.673-5.714,1.34-7.932,3.017c-5.809,0.841-10.641,3.891-16.349,4.631c-7.319,1.823-15.408,0.739-22.281-1.933
	c-10.668-3.11-20.916-8.118-31.898-9.933c-6.598-0.169-10.899-0.114-17.016,1.522c-6.127,2.536-11.666,6.278-17.892,8.715
	c-12.053,5.073-27.14,3.717-38.371-3c-4.085-1.443-8.456-4.189-13.146-5.238c-3.881-1.84-12.466-2.082-12.466-2.082
	s-2.856-14.583-4.5-20c12.202-0.173,26.349,4.579,37.087,10.592c9.156,4.295,20.346,5.313,29.994,0.712
	c2.106-0.578,4.913-1.249,6.932-3.027c9.626-2.4,17.703-9.816,28.383-7.805C111.863,304.147,115.245,305.983,118.643,306.118"/>
<path fill="#FFF200" d="M315.749,325.673c4.992,0.752,10.762,3.713,16.254,4.47l-0.203,0.298c1.585,1.416,4.292,0.745,5.47,2.857
	c0.207-0.599,0.506-0.396,0.902-0.191c3.988,1.242,8.363,3.588,11.955,4.425c1.498,0.217,3.999,0.143,6.794,0.571
	c1.002-0.189,4.605-0.452,6.907-0.628c1.011-0.99,1.706-0.582,3.112-1.168c-0.003,0.2,0.196,0.302,0.295,0.503
	c9.739-3.798,20.896-8.553,30.933-12.049c-0.849,4.69-3.179,9.86-4.125,14.25c-5.733,12.741-10.23,27.463-18.75,38.875
	c-19.118,30.402-48.996,57.205-80.75,71.875c-2.017,1.579-7.367,3.601-9.875,4.375c-16.574,7.028-34.697,11.887-52.625,14.5
	c-14.424,2.25-31.035,2.433-46.125,1.375c-20.576-2.415-43.539-7.274-62.75-15.875c-21.311-8.622-41.885-25.021-59.125-40.5
	c-1.782-1.719-3.265-4.699-5.75-6.125c-13.053-14.137-24.188-29.312-32.625-45c-3.928-6.941-7.159-15.091-10.375-23.125
	c-0.759-3.908-3.419-9.665-4.375-13.875c2.901-0.07,8.609,0.875,12.001,1.71c3.887,1.241,7.369,2.977,11.654,4.422
	c0.29,1.003,1.49,1.016,2.185,1.423c3.087,1.332,6.974,2.573,10.562,3.71c3.088,1.233,5.984,1.563,9.582,1.8
	c4.494,0.548,10.607-0.589,15.326-2.439c4.724-2.251,8.539-3.711,13.06-5.664c4.527-2.553,8.945-4.307,13.951-4.855
	c10.31-0.893,21.578,2.226,30.939,6.022c4.084,1.543,7.871,2.783,12.354,4.429c3.893,0.741,8.182,1.786,12.479,2.131
	c6.602-0.231,13.02-1.864,18.341-3.908c4.917-1.55,8.837-3.51,13.949-4.655c-0.164,6.198-0.539,13.395-3.596,18.863
	c0.085,1.4-1.426,2.484-1.238,3.587c-4.774,7.051-10.445,13.892-17.699,19.017c0.187,1.302,1.68,1.917,2.575,2.427
	c3.384,1.535,7.479,2.078,11.271,2.817c5.394,0.657,10.699,0.212,15.915-1.334c4.07,2.843,9.938,6.004,15.269,3.06
	c1.606-0.584,3.516-1.464,4.33-2.855l-0.406,0.496c8.262,3.787,20.439,6.014,28.009-0.608c-4.25-4.844-9.397-9.897-13.239-15.539
	c-2.767-3.229-4.823-7.35-5.68-11.559c-1.977-2.222-0.946-5.11-1.819-7.721c-0.402,0.196-0.207,0.698-0.21,0.998
	c-1.151-4.712-0.707-9.008-1.055-14.011c8.881,1.893,17.433,6.582,26.803,9.479l-0.303,0.196
	c11.657,4.223,23.201,0.042,33.646-4.249c6.434-3.232,14.152-4.952,20.976-7.182C305.461,324.466,310.75,325.521,315.749,325.673"/>
<path d="M4,4c0,33.204,0,262.35,0,262.385l-0.012,0.824c-0.007,0.394-0.013,0.767-0.013,1.134c0,0.259,0.005,0.53,0.009,0.799
	L3.996,270C3.998,270.172,4,270.324,4,270.34v0.009l0.009,0.712c0.705,53.007,21.879,102.73,59.622,140.009
	c37.778,37.313,87.829,57.863,140.933,57.863s103.155-20.55,140.934-57.863c37.743-37.278,58.916-87.002,59.621-140.009
	c0,0,0.015-1.14,0.035-2.195V4H4 M409.154,0v271.114h-0.035c-1.485,111.712-92.491,201.819-204.555,201.819
	c-112.063,0-203.069-90.107-204.554-201.819H0V0H409.154z"/>
</svg>
