<?xml version="1.0" encoding="UTF-8" standalone="no"?>
<!-- Created with Inkscape (http://www.inkscape.org/) -->
<svg
   xmlns:svg="http://www.w3.org/2000/svg"
   xmlns="http://www.w3.org/2000/svg"
   version="1.0"
   width="421.64001"
   height="480"
   id="svg2">
  <defs
     id="defs5" />
  <g
     transform="matrix(0.9208687,0,0,0.9208687,122.3959,45.297897)"
     id="g2225">
    <path
       d="M 72.458647,460.20228 C 36.799607,456.08863 2.578967,443.44109 -25.977633,423.8214 C -38.943103,414.91353 -44.712143,410.05461 -57.551183,397.22889 C -90.880566,363.93408 -110.06698,326.82429 -119.17633,278.03533 L -121.3919,266.16891 L -121.72391,113.91891 L -122.05591,-38.331095 L 96.022487,-38.331095 L 314.10089,-38.331095 L 313.76546,113.41891 C 313.45685,253.0311 313.28854,266.00083 311.66115,275.56977 C 303.37406,324.29747 283.44957,363.3687 249.60124,397.26713 C 215.52511,431.3937 175.33332,451.76544 127.52237,459.14444 C 113.05184,461.37777 86.988737,461.87848 72.458647,460.20228 z "
       style="fill:#000000"
       id="path2365" />
    <path
       d="M 125.91573,453.23482 C 126.86651,452.6472 125.92675,451.12526 122.40586,447.55062 C 119.76129,444.86568 117.27143,442.66891 116.87283,442.66891 C 116.47424,442.66891 116.4037,444.24391 116.71608,446.16891 C 117.21633,449.25158 117.02998,449.66891 115.15321,449.66891 C 113.9258,449.66891 113.02237,449.03295 113.02237,448.16891 C 113.02237,447.34391 112.18989,446.66891 111.17241,446.66891 C 110.15493,446.66891 107.45733,445.31782 105.17774,443.6665 C 98.822977,439.06313 93.285077,437.92058 86.814897,439.87797 C 77.932897,442.56499 74.334547,442.92482 73.669777,441.19246 C 72.135567,437.19438 77.197727,433.66891 84.472707,433.66891 C 87.850187,433.66891 89.022367,433.28245 89.022367,432.16891 C 89.022367,431.32785 88.129987,430.66891 86.990987,430.66891 C 84.330977,430.66891 83.386827,428.04696 85.267137,425.88166 C 86.085167,424.93965 87.032487,421.69391 87.372297,418.66891 L 87.990137,413.16891 L 74.904247,400.05329 L 61.818357,386.93767 L 56.616737,390.06992 C 53.755837,391.79266 46.255437,398.47796 39.949177,404.92614 L 28.483247,416.6501 L 46.020517,434.16706 L 63.557787,451.68403 L 72.540077,453.14293 C 82.167647,454.70664 123.41936,454.77766 125.91573,453.23482 z "
       style="fill:#c04830;fill-opacity:1"
       id="path2363" />
    <path
       d="M 147.65186,448.67675 C 154.18064,447.03106 163.34737,444.29372 168.02237,442.59378 C 172.69737,440.89384 177.30987,439.26283 178.27237,438.96931 C 179.23487,438.6758 180.02237,438.145 180.02237,437.78978 C 180.02237,437.43455 173.22212,430.39953 164.9107,422.15641 C 155.1071,412.43337 149.61871,407.65189 149.2857,408.54391 C 149.00337,409.30016 147.8186,410.87268 146.65289,412.03839 C 145.48717,413.20411 143.72134,412.9962 143.87992,413.68673 C 144.0626,414.48225 143.99484,416.66891 142.06621,416.66891 C 139.2464,416.66891 139.02237,416.40779 139.02237,413.12116 C 139.02237,410.5692 139.76506,408.88511 141.66839,407.12116 C 143.12371,405.77242 144.69871,404.66891 145.16839,404.66891 C 145.63808,404.66891 146.02237,404.21891 146.02237,403.66891 C 146.02237,402.06927 142.85192,402.51319 140.76079,404.40563 C 139.07703,405.92942 138.69954,405.96007 137.68205,404.65563 C 134.11505,400.0827 125.5257,395.8542 112.52237,392.26965 C 99.924707,388.79692 98.489237,388.28916 97.338897,386.89892 C 94.751627,383.77206 94.022367,386.86268 94.022367,400.95441 L 94.022367,415.12188 L 101.24734,422.39539 C 107.69655,428.88793 108.8811,429.66891 112.27946,429.66891 C 117.72325,429.66891 123.02237,432.09459 123.02237,434.5865 C 123.02237,435.97089 122.55057,436.42509 121.52237,436.03054 C 119.42552,435.2259 119.65397,436.30051 122.09969,438.74623 C 123.31755,439.96409 123.92379,441.48343 123.56496,442.41851 C 122.64955,444.80403 129.72923,451.66891 133.10481,451.66891 C 134.5769,451.66891 141.12308,450.32244 147.65186,448.67675 z "
       style="fill:#ffc001;fill-opacity:1"
       id="path2361" />
    <path
       d="M 56.576967,449.75726 C 55.532327,448.06699 27.733007,419.66891 27.123017,419.66891 C 26.790777,419.66891 25.394707,421.79983 24.020647,424.40428 C 22.646597,427.00874 20.017317,431.11838 18.177807,433.53682 C 15.563297,436.97416 15.126737,438.11989 16.177807,438.78565 C 19.664257,440.99401 50.718817,450.34734 55.331387,450.57832 C 56.326347,450.62814 56.886857,450.25867 56.576967,449.75726 z "
       style="fill:#ffc001;fill-opacity:1"
       id="path2359" />
    <path
       d="M 20.451467,421.72259 C 23.929127,415.00589 26.356347,411.85107 31.753517,407.03256 C 35.533817,403.65757 40.853297,397.94061 43.574577,394.32821 C 46.517437,390.42167 49.284977,387.7417 50.404337,387.71455 C 54.918037,387.60508 63.818297,379.90896 68.618467,371.96465 C 70.015657,369.6523 72.133767,367.45094 73.325377,367.07274 C 77.347067,365.7963 94.307147,351.66891 91.817827,351.66891 C 91.489547,351.66891 88.813777,352.78951 85.871667,354.15914 C 79.390837,357.17613 73.331847,357.36598 65.927597,354.78408 C 47.715127,348.43328 42.022367,345.6433 42.022367,343.0683 C 42.022367,342.01953 42.766027,341.79507 44.772367,342.23824 C 48.362067,343.03115 39.372467,338.24795 34.225567,336.62647 C 28.395827,334.78988 22.583937,330.70734 23.910547,329.38073 C 24.726307,328.56497 25.341907,328.58845 26.222367,329.46891 C 27.570637,330.81718 31.022367,331.10207 31.022367,329.86508 C 31.022367,328.43245 24.650327,322.92008 19.596977,319.98112 C 13.068107,316.184 12.656357,314.66891 18.153317,314.66891 C 22.125957,314.66891 22.327667,314.54564 20.820757,313.03873 C 19.313847,311.53182 18.295697,311.69461 7.356467,315.1915 C 0.84771699,317.27213 -5.377633,319.55071 -6.477633,320.25503 C -7.577633,320.95934 -11.405323,322.20865 -14.983603,323.03127 C -26.299753,325.63276 -42.992223,332.26546 -44.544583,334.77724 C -44.847683,335.26766 -46.832763,335.66891 -48.955883,335.66891 C -56.878863,335.66891 -69.423406,339.9956 -81.572126,346.91845 C -86.277746,349.59992 -86.760416,347.88469 -77.139916,362.66891 C -66.299536,379.32777 -55.872863,391.23001 -40.353223,404.66158 C -26.487763,416.66153 -9.351203,427.96129 4.146417,434.00441 L 9.522367,436.41131 L 12.772517,433.34379 C 14.560107,431.65666 18.015627,426.42712 20.451467,421.72259 z "
       style="fill:#3c65a0;fill-opacity:1"
       id="path2357" />
    <path
       d="M -10.952193,422.69435 C -14.115143,419.5314 -14.426693,416.22799 -12.029153,411.27533 C -7.891033,402.72712 2.358967,398.00551 6.906267,402.55281 C 9.783957,405.4305 9.810117,412.75388 6.957017,416.76068 C 4.367467,420.39738 -2.801523,424.66891 -6.315493,424.66891 C -7.779673,424.66891 -9.866183,423.78036 -10.952193,422.69435 z "
       style="fill:#010101;fill-opacity:1"
       id="path2355" />
    <path
       d="M 0.48756699,418.56532 C 4.693207,414.87272 4.840377,414.09103 1.488357,413.24973 C 0.094656992,412.89993 -1.552583,411.50115 -2.172153,410.14132 C -3.614003,406.97682 -5.313923,407.00968 -7.863833,410.25137 C -10.892493,414.10168 -11.335313,416.47407 -9.537513,419.21787 C -7.340823,422.57043 -3.812423,422.34076 0.48756699,418.56532 z "
       style="fill:#ffc001;fill-opacity:1"
       id="path2353" />
    <path
       d="M -30.755123,405.11221 C -37.785653,400.18784 -28.031153,385.68284 -17.682183,385.67265 C -9.771713,385.66486 -6.187203,394.19922 -11.466013,400.47273 C -16.291613,406.20762 -25.893843,408.51718 -30.755123,405.11221 z "
       style="fill:#010101;fill-opacity:1"
       id="path2351" />
    <path
       d="M -19.445513,402.21994 C -17.538183,401.423 -15.977633,400.56745 -15.977633,400.31871 C -15.977633,400.06997 -17.552633,398.93719 -19.477633,397.80141 C -21.653373,396.51769 -22.977633,394.96688 -22.977633,393.70264 C -22.977633,392.58409 -23.165833,391.66891 -23.395843,391.66891 C -26.753463,391.66891 -30.486313,397.50605 -29.539953,401.27661 C -28.822373,404.13568 -24.906363,404.50163 -19.445513,402.21994 z "
       style="fill:#ffc001;fill-opacity:1"
       id="path2349" />
    <path
       d="M 8.966777,394.97726 C 6.161987,394.29189 3.857017,389.06723 4.603637,385.08737 C 5.943537,377.94509 16.670117,370.80447 21.874897,373.58999 C 31.520317,378.75206 25.988257,392.84648 13.522367,394.87033 C 11.872367,395.13821 9.822347,395.18633 8.966777,394.97726 z "
       style="fill:#010101;fill-opacity:1"
       id="path2347" />
    <path
       d="M 18.387207,389.767 L 21.252047,387.87827 L 18.064477,387.17816 C 16.087477,386.74394 14.209867,385.3812 13.120537,383.58993 L 11.364167,380.70182 L 9.193267,382.72432 C 6.807727,384.94679 6.350157,388.5967 8.222367,390.46891 C 10.014147,392.26069 15.141827,391.90661 18.387207,389.767 z "
       style="fill:#ffc001;fill-opacity:1"
       id="path2345" />
    <path
       d="M -49.523083,387.21436 C -56.204393,380.53306 -47.161993,367.66891 -35.784293,367.66891 C -26.520293,367.66891 -23.256903,374.61298 -28.875703,382.36951 C -33.985473,389.42334 -44.780973,391.95648 -49.523083,387.21436 z "
       style="fill:#010101;fill-opacity:1"
       id="path2343" />
    <path
       d="M -37.095193,384.63654 L -32.712743,382.6481 L -36.095193,380.3762 C -38.292973,378.90001 -39.588453,377.15246 -39.794053,375.38661 C -40.195323,371.94016 -42.204513,371.92242 -45.371043,375.33738 C -48.763833,378.99635 -49.493153,382.44179 -47.371213,384.7865 C -45.209803,387.17483 -42.605713,387.13683 -37.095193,384.63654 z "
       style="fill:#ffc001;fill-opacity:1"
       id="path2341" />
    <path
       d="M -10.577973,377.24097 C -15.680083,375.01989 -16.416553,370.25075 -12.538693,364.54396 C -7.919653,357.74643 3.373257,355.22016 7.848057,359.98336 C 12.316787,364.74011 9.501477,371.35741 0.73485699,376.70268 C -2.996513,378.97781 -6.234323,379.13187 -10.577973,377.24097 z "
       style="fill:#010101;fill-opacity:1"
       id="path2339" />
    <path
       d="M -1.411763,374.07063 L 1.956357,372.47235 L -1.358213,369.32063 C -3.181223,367.58718 -4.875383,365.54188 -5.123003,364.77551 C -5.799363,362.68227 -9.825743,365.1392 -11.066313,368.40216 C -12.313513,371.68253 -11.650653,373.46445 -8.749803,374.62955 C -5.584463,375.90087 -5.208333,375.87222 -1.411763,374.07063 z "
       style="fill:#ffc001;fill-opacity:1"
       id="path2337" />
    <path
       d="M 42.868967,375.76288 C 39.460837,373.08205 38.635987,369.52941 40.426647,365.24375 C 43.193547,358.62164 50.882937,357.1336 55.038187,362.41615 C 57.831917,365.96781 57.553467,370.05445 54.272367,373.65562 C 50.614387,377.67043 46.306137,378.46656 42.868967,375.76288 z "
       style="fill:#010101;fill-opacity:1"
       id="path2335" />
    <path
       d="M 51.621657,372.16053 C 54.526947,369.25524 54.123167,367.73582 50.623597,368.40481 C 48.977877,368.71941 47.602417,368.2013 46.421357,366.82192 C 44.148467,364.16738 43.022367,364.94803 43.022367,369.17824 C 43.022367,374.76493 47.473547,376.30863 51.621657,372.16053 z "
       style="fill:#ffc001;fill-opacity:1"
       id="path2333" />
    <path
       d="M -63.675276,368.65712 C -64.883976,368.17036 -66.606926,366.35267 -67.504056,364.61781 C -68.845216,362.02429 -68.923736,360.95301 -67.945736,358.5919 C -65.251746,352.08803 -58.116863,347.66891 -50.310053,347.66891 C -44.672123,347.66891 -40.977633,350.94457 -40.977633,355.94335 C -40.977633,364.16645 -55.134903,372.09644 -63.675276,368.65712 z "
       style="fill:#010101;fill-opacity:1"
       id="path2331" />
    <path
       d="M -53.997873,365.06033 C -49.389153,363.21629 -49.080963,362.53656 -52.227633,361.15604 C -53.881423,360.43048 -54.559873,359.17522 -54.787993,356.41891 C -55.118533,352.42516 -55.825083,352.01225 -59.293373,353.78595 C -64.815366,356.60992 -66.592506,362.4244 -62.755123,365.11221 C -59.971473,367.06195 -58.985813,367.05611 -53.997873,365.06033 z "
       style="fill:#ffc001;fill-opacity:1"
       id="path2329" />
    <path
       d="M 27.196677,364.35446 C 25.694737,362.75571 25.022367,360.77318 25.022367,357.94335 C 25.022367,354.59644 25.585447,353.37289 28.099097,351.2578 C 34.361317,345.98849 42.022367,349.35751 42.022367,357.38069 C 42.022367,365.0046 32.163927,369.64185 27.196677,364.35446 z "
       style="fill:#010101;fill-opacity:1"
       id="path2327" />
    <path
       d="M 36.983407,361.48035 C 39.780137,358.47841 39.541617,357.61506 36.105387,358.30231 C 33.918317,358.73972 32.747667,358.37094 31.427007,356.82853 C 29.258447,354.29583 28.022367,354.91281 28.022367,358.52793 C 28.022367,363.79916 33.225887,365.51358 36.983407,361.48035 z "
       style="fill:#ffc001;fill-opacity:1"
       id="path2325" />
    <path
       d="M -25.951563,359.33839 C -30.249873,357.89139 -32.095893,354.56805 -30.905983,350.41909 C -29.754043,346.40249 -27.581763,344.13978 -22.529753,341.69414 C -16.621023,338.83377 -11.877163,339.04211 -8.613993,342.30527 C -4.754983,346.16429 -5.089033,350.0947 -9.640893,354.38766 C -15.090303,359.52711 -20.507083,361.17125 -25.951563,359.33839 z "
       style="fill:#010101;fill-opacity:1"
       id="path2323" />
    <path
       d="M -16.858253,355.60502 C -14.926333,354.57109 -14.942263,354.48457 -17.423993,352.53244 C -18.909183,351.36419 -19.977633,349.50811 -19.977633,348.09633 C -19.977633,344.98565 -21.958253,344.99484 -25.331613,348.12116 C -29.891083,352.34674 -28.313603,356.66891 -22.211893,356.66891 C -20.360733,356.66891 -17.951593,356.19016 -16.858253,355.60502 z "
       style="fill:#ffc001;fill-opacity:1"
       id="path2321" />
    <path
       d="M 16.522367,353.8543 C 12.846367,353.13406 11.022367,350.59171 11.022367,346.18824 C 11.022367,343.15424 11.635587,341.4431 13.272367,339.90984 C 20.334507,333.29433 28.022367,335.93008 28.022367,344.9668 C 28.022367,350.58856 22.325427,354.99129 16.522367,353.8543 z "
       style="fill:#010101;fill-opacity:1"
       id="path2319" />
    <path
       d="M 22.822367,349.46891 C 24.597037,347.69424 24.285037,346.66891 21.970347,346.66891 C 20.589397,346.66891 19.576317,345.68783 18.872527,343.66891 C 17.661597,340.19524 16.517317,339.87558 15.057547,342.60317 C 13.680457,345.17629 13.748117,347.99466 15.222367,349.46891 C 16.769287,351.01583 21.275447,351.01583 22.822367,349.46891 z "
       style="fill:#ffc001;fill-opacity:1"
       id="path2317" />
    <path
       d="M 0.47691699,336.21436 C -2.481853,333.2556 -2.628243,330.2482 -0.021593008,325.97317 C 3.431677,320.30965 12.684447,320.18098 15.567607,325.75639 C 17.774357,330.02377 16.643677,334.31915 12.676937,336.7379 C 8.251657,339.43626 3.494667,339.23212 0.47691699,336.21436 z "
       style="fill:#010101;fill-opacity:1"
       id="path2315" />
    <path
       d="M 10.581237,334.2184 C 12.486917,332.79438 12.481267,332.73855 10.272367,331.16169 C 9.034867,330.27829 8.022367,328.68102 8.022367,327.61221 C 8.022367,326.37782 7.337437,325.66891 6.144807,325.66891 C 2.583227,325.66891 0.47210699,330.43829 2.654507,333.55411 C 4.373267,336.00798 7.801847,336.2953 10.581237,334.2184 z "
       style="fill:#ffc001;fill-opacity:1"
       id="path2313" />
    <path
       d="M 196.23076,428.58244 C 205.22079,423.37541 221.02237,412.68114 221.02237,411.80386 C 221.02237,411.44829 206.4429,396.58308 188.62355,378.77005 C 159.73791,349.89467 155.96977,346.46322 153.87355,347.12496 C 152.5804,347.53319 148.15723,348.64043 144.04428,349.58549 C 136.66377,351.28137 136.52499,351.3724 133.40851,356.56238 C 131.67178,359.45461 129.40438,362.79926 128.36984,363.99494 C 127.33529,365.19062 125.18305,367.88581 123.58708,369.98425 L 120.68531,373.7996 L 132.08753,385.23425 L 143.48975,396.66891 L 148.37073,396.66891 C 151.76336,396.66891 154.74139,395.85812 158.13704,394.00998 C 160.82397,392.54757 163.02237,391.0448 163.02237,390.6705 C 163.02237,389.14579 167.83163,387.95252 171.5524,388.55404 C 174.74046,389.06943 175.58884,389.6633 175.85986,391.56928 C 176.04548,392.87468 173.46705,394.42895 172.81593,394.83137 C 172.06682,395.29434 174.96672,395.80246 176.926,396.48547 C 180.59078,397.76302 181.3863,402.35636 178.00003,402.385 C 174.53793,402.41428 171.0708,402.27439 176.60934,406.28082 C 178.82142,407.88098 176.87566,409.78798 175.44165,410.33826 C 174.38609,410.74332 173.47973,410.541 173.24901,409.84882 C 173.03269,409.19987 171.8807,408.66594 170.68904,408.66232 C 169.49737,408.6587 167.17237,407.76166 165.52237,406.66891 C 162.5909,404.72747 153.02237,403.76135 153.02237,405.4068 C 153.02237,405.81264 159.62704,412.7604 167.69941,420.84625 L 182.37646,435.5478 L 185.6578,434.17677 C 187.46254,433.4227 192.22037,430.90525 196.23076,428.58244 z "
       style="fill:#c04830;fill-opacity:1"
       id="path2311" />
    <path
       d="M 104.74933,430.21794 C 104.87415,430.12466 102.6814,427.82546 99.876537,425.10862 L 94.776797,420.16891 L 95.333257,424.63382 C 95.975777,429.78937 98.169397,431.90724 101.93406,431.0067 C 103.35763,430.66617 104.6245,430.31123 104.74933,430.21794 z "
       style="fill:#c04830;fill-opacity:1"
       id="path2309" />
    <path
       d="M 228.62233,406.83484 C 233.85251,403.03418 256.02237,380.77815 256.02237,379.3283 C 256.02237,378.14545 185.0518,306.66891 183.87732,306.66891 C 183.51681,306.66891 182.67117,309.03141 181.99812,311.91891 C 179.37226,323.18432 170.91104,335.80016 161.52237,342.44865 L 158.52237,344.57306 L 191.0166,377.12099 C 208.88843,395.02234 223.78341,409.66891 224.11656,409.66891 C 224.44971,409.66891 226.47731,408.39358 228.62233,406.83484 z "
       style="fill:#ffc001;fill-opacity:1"
       id="path2307" />
    <path
       d="M 85.567277,390.17339 C 84.167577,387.11333 83.022367,383.94798 83.022367,383.13927 C 83.022367,381.16505 81.693077,381.28609 76.982527,383.68923 C 74.804437,384.80041 73.022367,385.52979 73.022367,385.31008 C 73.022367,385.09036 74.179037,382.38409 75.592757,379.29613 C 77.006467,376.20818 78.018967,372.6663 77.842757,371.42529 L 77.522367,369.16891 L 75.022367,371.76012 C 73.647367,373.18529 70.547597,376.7161 68.133987,379.60636 L 63.745607,384.86139 L 75.633987,396.78754 L 87.522367,408.71369 L 87.817277,402.22541 C 88.055597,396.98229 87.623797,394.6694 85.567277,390.17339 z "
       style="fill:#ffc001;fill-opacity:1"
       id="path2305" />
    <path
       d="M 128.54592,385.69257 C 119.95968,377.06637 118.08625,376.15108 118.03768,380.55867 C 118.02926,381.32303 117.26936,382.49904 116.349,383.17202 C 114.83135,384.28176 114.91985,384.55563 117.30005,386.1152 C 120.31356,388.08973 135.03515,394.63842 136.50152,394.6567 C 137.04005,394.66342 133.46003,390.62956 128.54592,385.69257 z "
       style="fill:#ffc001;fill-opacity:1"
       id="path2303" />
    <path
       d="M 270.88668,361.16891 C 274.16282,355.66891 278.34609,348.36932 280.18283,344.9476 L 283.52237,338.72629 L 215.78872,270.96487 C 155.59662,210.74809 148.54629,201.06224 149.51993,204.60153 C 151.07149,210.24164 153.27608,217.60849 161.52026,230.16891 C 171.06177,244.70588 172.94106,248.23726 177.7514,260.66891 C 182.97265,274.16251 184.17291,279.81816 184.5178,292.55227 L 184.79902,302.93563 L 222.16069,340.31907 L 259.52237,377.70252 L 262.22622,374.43572 C 263.71334,372.63897 267.61055,366.66891 270.88668,361.16891 z "
       style="fill:#c04830;fill-opacity:1"
       id="path2301" />
    <path
       d="M 95.272367,370.44469 C 96.753777,370.52928 97.022367,369.63326 97.022367,364.60676 C 97.022367,358.77156 96.974017,358.66891 94.225317,358.66891 C 90.405407,358.66891 84.605847,364.86666 83.275247,370.37079 C 82.716557,372.68182 82.454297,374.76751 82.692437,375.00565 C 82.930577,375.24379 85.464727,374.29251 88.323887,372.8917 C 91.183057,371.49088 94.309867,370.38973 95.272367,370.44469 z "
       style="fill:#3c65a0;fill-opacity:1"
       id="path2299" />
    <path
       d="M 106.63824,371.41806 C 108.70852,369.61207 108.81963,369.62744 111.79569,372.13162 L 114.83726,374.69094 L 117.79445,369.92993 C 119.4209,367.31137 122.1596,363.59391 123.88045,361.66891 C 127.61603,357.49016 133.76329,346.07649 132.79814,345.11134 C 132.42316,344.73637 129.89743,346.05842 127.18539,348.04924 C 121.59915,352.14992 120.02237,352.51821 120.02237,349.72233 C 120.02237,347.90931 119.64334,347.97512 114.49843,350.6815 C 111.46026,352.27967 107.41026,353.88072 105.49843,354.23938 L 102.02237,354.89149 L 102.02237,362.1552 C 102.02237,366.15024 101.72148,370.93766 101.35372,372.79391 C 100.7191,375.99708 100.78274,376.09496 102.60372,374.71636 C 103.65898,373.91746 105.47451,372.43323 106.63824,371.41806 z "
       style="fill:#3c65a0;fill-opacity:1"
       id="path2297" />
    <path
       d="M 81.446357,351.56829 C 84.216457,350.79919 87.146637,348.59539 91.410947,344.07387 C 94.733277,340.55114 97.798417,337.66891 98.222367,337.66891 C 98.646317,337.66891 98.093417,339.95163 96.993707,342.74163 C 95.893987,345.53163 95.214627,348.17098 95.484007,348.60685 C 96.413597,350.11095 102.84065,350.508 107.35491,349.3402 C 113.36984,347.78419 120.30213,342.75735 124.28446,337.06399 C 130.30688,328.45401 130.2152,328.48281 129.53605,335.41417 L 128.92413,341.65942 L 132.72325,339.42603 C 138.02636,336.30848 145.40433,328.80069 147.82207,324.06152 C 150.57406,318.66718 151.27733,314.0758 150.20628,308.49579 C 149.01017,302.2642 150.26462,300.32743 152.61736,304.77329 C 155.03376,309.33943 154.83119,318.00316 152.17153,323.84148 C 151.04362,326.31739 148.12266,330.56554 145.68049,333.28182 C 143.23832,335.99809 140.76133,339.9548 140.17605,342.07449 L 139.11191,345.92848 L 143.66106,345.30495 C 158.61465,343.25534 173.10755,329.35515 177.95144,312.41693 C 184.79192,288.49703 179.27165,266.42593 157.52779,230.75934 C 145.3009,210.70348 142.82991,202.72589 147.14535,197.23969 C 149.23209,194.58683 149.23757,194.47253 147.46608,190.54408 C 145.48353,186.14756 143.49273,184.66891 139.55599,184.66891 C 131.85874,184.66891 126.03271,190.70534 126.02611,198.68741 C 126.02317,202.24013 126.77072,204.27066 129.52356,208.18741 C 138.50279,220.96307 141.26336,225.66633 144.16531,233.13286 C 150.2494,248.7869 150.20342,261.97753 144.03506,270.4927 C 139.4548,276.81556 134.76725,277.88657 110.99932,278.04069 C 92.147327,278.16293 91.271287,278.25447 92.205017,280.00456 C 92.743687,281.01416 92.976467,282.04814 92.722317,282.30229 C 92.468167,282.55644 89.169207,283.2184 85.391297,283.77331 C 75.497587,285.22654 75.518787,285.21325 78.019407,288.39228 C 80.632287,291.71401 79.634917,292.18047 72.974007,290.75196 C 66.400467,289.34219 57.176407,289.37065 53.037517,290.81347 L 49.754217,291.95804 L 52.138287,293.79124 C 53.449537,294.7995 54.297367,295.65233 54.022367,295.68642 C 53.747367,295.72051 51.272367,295.93302 48.522367,296.15866 C 35.483337,297.22852 28.907387,298.34034 18.237397,301.27907 C 16.193517,301.842 19.551777,307.41121 23.320917,309.70939 C 25.723107,311.17409 28.347117,311.66237 33.831387,311.66517 C 38.119067,311.66736 40.901097,312.0561 40.561507,312.60559 C 39.675187,314.03968 34.216997,316.54177 30.421707,317.25377 C 28.552067,317.60452 27.022367,318.30897 27.022367,318.81923 C 27.022367,320.58005 34.770947,327.5677 37.476517,328.24676 C 38.968697,328.62127 42.443537,328.66074 45.198397,328.33447 C 49.619607,327.81084 50.058097,327.92093 48.936087,329.27287 C 48.236967,330.11526 46.126737,331.59365 44.246697,332.55816 L 40.828447,334.31183 L 43.419487,336.00955 C 47.727607,338.83234 57.800717,340.95597 63.374697,340.21656 C 67.799207,339.62963 68.217157,339.72927 67.079667,341.09987 C 66.374487,341.94955 64.273117,343.58689 62.409947,344.73839 C 60.546777,345.88989 59.022367,347.18665 59.022367,347.62007 C 59.022367,348.82301 70.064507,352.46482 74.022367,352.56721 C 75.947367,352.61701 79.288167,352.1675 81.446357,351.56829 z "
       style="fill:#3c65a0;fill-opacity:1"
       id="path2295" />
    <path
       d="M 132.68904,193.00224 C 131.45291,191.76611 132.01026,188.88753 133.60416,188.2759 C 134.47414,187.94205 136.27414,187.66891 137.60416,187.66891 C 140.26164,187.66891 140.94192,190.34936 138.82237,192.46891 C 137.52886,193.76242 133.77558,194.08879 132.68904,193.00224 z "
       style="fill:#000000;fill-opacity:1"
       id="path2293" />
    <path
       d="M -81.471306,342.20727 C -78.309556,340.30336 -72.517546,337.52206 -68.600166,336.02659 C -64.682776,334.53112 -61.149703,333.03843 -60.748893,332.70949 C -60.348083,332.38055 -71.260576,320.87773 -84.998886,307.14767 C -102.21485,289.94204 -109.9758,282.80313 -109.97174,284.17641 C -109.96369,286.90456 -104.85091,305.51367 -101.59406,314.66891 C -99.369246,320.92298 -88.050776,345.66891 -87.415046,345.66891 C -87.307736,345.66891 -84.633056,344.11117 -81.471306,342.20727 z "
       style="fill:#ffc001;fill-opacity:1"
       id="path2291" />
    <path
       d="M 288.87065,328.37871 C 293.25572,317.8453 301.02237,293.09199 301.02237,289.64961 C 301.02237,288.42966 194.51041,182.77163 190.02237,179.53952 C 187.54737,177.75712 181.06129,172.54808 175.60885,167.96388 C 152.81497,148.79965 128.37301,135.87828 108.957,132.72804 C 101.69537,131.54984 83.022367,131.29542 83.022367,132.37467 C 83.022367,132.76284 89.096367,139.21038 96.520137,146.70254 C 109.94823,160.25432 110.02574,160.31271 111.53279,158.01266 C 112.36598,156.74106 114.27948,155.40808 115.78502,155.05048 C 117.29056,154.69288 119.20402,153.81178 120.03714,153.09249 C 121.41705,151.90113 126.5282,150.29534 133.03712,149.00824 C 134.68056,148.68326 136.49957,149.25643 138.28712,150.66252 C 142.06021,153.63044 142.07199,158.79165 138.31362,162.27479 C 135.83765,164.56944 135.58674,165.48915 135.39385,172.97704 L 135.18282,181.16891 L 143.3526,181.16891 C 149.93638,181.16891 152.4475,181.6285 156.28789,183.53633 C 161.1554,185.95442 164.55514,189.64611 165.17525,193.18689 C 165.47306,194.88734 164.81206,195.25045 160.52237,195.7429 C 155.34677,196.33705 149.76389,198.49212 150.24647,199.70954 C 150.74379,200.96412 284.36036,335.66891 285.1075,335.66891 C 285.50803,335.66891 287.20145,332.38832 288.87065,328.37871 z "
       style="fill:#ffc001;fill-opacity:1"
       id="path2289" />
    <path
       d="M -42.483013,328.06981 C -35.438473,324.45486 -19.036423,318.66891 -15.833263,318.66891 C -14.884273,318.66891 -12.865123,318.19643 -11.346253,317.61896 C -8.614393,316.58031 -9.149123,316.00447 -61.027573,264.11896 C -89.871176,235.27143 -113.87963,211.66891 -114.37969,211.66891 C -115.58125,211.66891 -114.37521,261.14583 -112.96589,269.66891 L -111.89109,276.16891 L -84.191056,303.91891 C -52.435693,335.73156 -54.774513,334.37727 -42.483013,328.06981 z "
       style="fill:#c04830;fill-opacity:1"
       id="path2287" />
    <path
       d="M 4.560157,311.57049 C 9.489367,309.86636 13.864867,308.15136 14.283477,307.75938 C 14.702087,307.36741 14.209767,304.51621 13.189437,301.42339 L 11.334297,295.80008 L 16.223527,296.37914 C 20.679387,296.90687 31.989347,294.61282 34.249357,292.72287 C 34.649207,292.3885 13.949207,271.14715 -11.750643,245.51987 L -58.477633,198.92482 L -66.606526,197.35892 C -76.353906,195.48123 -81.810176,193.10203 -92.637416,186.00816 C -100.48446,180.86688 -105.62855,175.68268 -111.31317,167.18678 L -113.97763,163.20464 L -113.97763,185.18333 L -113.97763,207.16203 L -60.231103,260.91547 C -30.670513,290.47986 -6.016013,314.66891 -5.443323,314.66891 C -4.870623,314.66891 -0.36906301,313.27462 4.560157,311.57049 z "
       style="fill:#ffc001;fill-opacity:1"
       id="path2285" />
    <path
       d="M 59.772367,286.04326 C 64.309867,285.72449 68.022367,285.26251 68.022367,285.01663 C 68.022367,284.77076 67.365317,283.29899 66.562247,281.74603 C 64.689807,278.12513 65.520877,277.35822 69.235527,279.27914 C 71.475607,280.43753 73.744587,280.64366 78.568727,280.12704 L 84.942337,279.44449 L 82.551527,274.8067 C 80.894137,271.5916 67.332247,257.38188 38.341547,228.48485 L -3.477633,186.80079 L -13.477633,191.10319 C -24.642693,195.90685 -33.668313,198.21867 -45.326423,199.26096 L -53.175203,199.96268 L -10.326423,242.89689 C 13.240417,266.51071 33.422367,286.23916 34.522367,286.73791 C 35.622367,287.23665 39.897367,287.41479 44.022367,287.13377 C 48.147367,286.85276 55.234867,286.36203 59.772367,286.04326 z "
       style="fill:#c04830;fill-opacity:1"
       id="path2283" />
    <path
       d="M 303.60288,276.06028 C 304.44434,271.17003 305.37557,257.94391 305.67228,246.66891 L 306.21175,226.16891 L 291.24542,211.30956 L 276.27909,196.45021 L 269.20333,198.05956 C 260.29882,200.08485 245.64056,200.12366 235.23369,198.14951 C 230.8284,197.31384 222.11619,194.61471 215.87322,192.15144 C 209.63025,189.68817 204.30886,187.6719 204.04791,187.67084 C 203.78696,187.66978 225.61196,209.60641 252.54791,236.41891 C 279.48386,263.23141 301.64625,285.12003 301.79767,285.06028 C 301.94908,285.00053 302.76143,280.95053 303.60288,276.06028 z "
       style="fill:#c04830;fill-opacity:1"
       id="path2281" />
    <path
       d="M 131.52237,273.06218 C 136.68462,272.27611 138.43436,271.30343 140.89008,267.8547 L 142.89687,265.03642 L 89.633727,211.78025 L 36.370577,158.52409 L 30.446477,163.40063 C 22.159107,170.22253 11.067197,178.09229 5.100947,181.38337 C 2.323577,182.91542 0.044696992,184.62087 0.036776992,185.17327 C 0.028846992,185.72567 19.317437,205.46879 42.900297,229.04686 C 93.083217,279.2196 86.613127,274.96447 111.52237,274.17706 C 120.32237,273.89888 129.32237,273.39719 131.52237,273.06218 z "
       style="fill:#ffc001;fill-opacity:1"
       id="path2279" />
    <path
       d="M 144.4983,251.16891 C 143.15519,240.0338 136.35457,224.92708 128.06703,214.66891 C 121.81525,206.93057 120.87951,204.897 120.87951,199.04873 C 120.87951,195.26203 121.53544,192.46449 123.0088,189.96734 C 125.48881,185.76404 125.56857,185.84835 116.04511,182.6061 L 109.31777,180.31579 L 106.98151,182.49235 C 102.01257,187.12162 94.022367,183.70385 94.022367,176.94914 C 94.022367,174.59845 94.805947,172.86184 96.611007,171.21209 C 98.034757,169.91084 99.605457,168.4688 100.10146,168.00755 C 100.59746,167.5463 102.13889,165.74644 103.52686,164.00787 L 106.05045,160.84683 L 92.374777,147.25787 C 84.853167,139.78394 78.082647,133.66891 77.329197,133.66891 C 74.497287,133.66891 63.820527,137.80964 58.767397,140.86767 C 52.285337,144.79046 50.625227,146.04247 43.960617,152.03452 L 38.660427,156.79985 L 91.086627,209.23318 C 141.62621,259.77963 143.54142,261.5676 144.30711,258.91771 C 144.74397,257.40587 144.83,253.91891 144.4983,251.16891 z "
       style="fill:#c04830;fill-opacity:1"
       id="path2277" />
    <path
       d="M 306.02237,200.20899 L 306.02237,178.74908 L 299.42047,183.74604 C 295.78943,186.49436 290.05193,190.12966 286.67047,191.82447 C 283.28902,193.51928 280.31935,195.09314 280.07121,195.32192 C 279.68491,195.6781 305.02439,221.66891 305.75794,221.66891 C 305.90338,221.66891 306.02237,212.01195 306.02237,200.20899 z "
       style="fill:#ffc001;fill-opacity:1"
       id="path2275" />
    <path
       d="M 272.52237,194.22107 C 281.10159,191.97696 291.83613,186.32639 299.44838,180.04746 L 306.02237,174.62492 L 306.02237,131.13181 L 306.02237,87.638695 L 276.77237,87.903805 L 247.52237,88.168905 L 247.26369,142.5648 L 247.005,196.96069 L 256.76369,196.37561 C 262.13096,196.05381 269.22237,195.08427 272.52237,194.22107 z "
       style="fill:#ffffff;fill-opacity:1"
       id="path2273" />
    <path
       d="M 244.02237,140.16891 L 244.02237,84.668905 L 275.02237,84.668905 L 306.02237,84.668905 L 306.02237,53.168905 L 306.02237,21.668905 L 275.02237,21.668905 L 244.02237,21.668905 L 244.02237,-4.8310948 L 244.02237,-31.331095 L 209.02237,-31.331095 L 174.02237,-31.331095 L 174.02237,-4.8310948 L 174.02237,21.668905 L 138.02237,21.668905 L 102.02237,21.668905 L 102.02237,53.168905 L 102.02237,84.668905 L 138.02237,84.668905 L 174.02237,84.668905 L 174.02237,123.3567 L 174.02237,162.04449 L 178.27237,165.92438 C 183.87799,171.04185 196.79646,179.56911 205.52237,183.91164 C 216.71459,189.48156 234.63928,195.32617 241.27237,195.56846 L 244.02237,195.66891 L 244.02237,140.16891 z "
       style="fill:#c04830;fill-opacity:1"
       id="path2271" />
    <path
       d="M 160.06757,192.59798 C 160.36884,192.11051 155.10494,191.66226 154.01112,191.37622 C 152.72232,191.03919 152.02237,191.35113 152.02237,192.26253 C 152.02237,193.80772 159.19442,194.01077 160.06757,192.59798 z "
       style="fill:#3c65a0;fill-opacity:1"
       id="path2269" />
    <path
       d="M 160.53012,189.85615 C 160.53012,189.06943 151.23449,184.66891 149.57203,184.66891 C 146.80387,184.66891 147.93563,186.58668 151.27237,187.55013 C 155.05523,188.64239 160.53012,190.52443 160.53012,189.85615 z "
       style="fill:#3c65a0;fill-opacity:1"
       id="path2267" />
    <path
       d="M 104.08811,180.63373 C 106.58917,179.2952 106.55547,176.56985 104.01094,174.39115 C 101.64769,172.36767 99.882827,172.20845 98.222367,173.86891 C 96.362267,175.72901 96.799627,178.39949 99.244877,180.11221 C 101.88194,181.95928 101.65663,181.93502 104.08811,180.63373 z "
       style="fill:#3c65a0;fill-opacity:1"
       id="path2265" />
    <path
       d="M 119.52237,178.66891 C 115.63848,175.58238 113.53879,175.05568 111.15018,176.56876 C 110.16608,177.19214 111.29735,178.02153 115.15018,179.50134 C 122.67065,182.38981 123.90806,182.15422 119.52237,178.66891 z "
       style="fill:#c04830;fill-opacity:1"
       id="path2263" />
    <path
       d="M 133.02237,171.10989 C 133.02237,164.60548 132.3071,163.56825 129.186,165.54662 C 128.08158,166.24668 128.12498,167.20473 129.436,171.06625 C 130.3085,173.63616 131.02237,176.42464 131.02237,177.26287 C 131.02237,178.10111 131.47237,178.50883 132.02237,178.16891 C 132.57237,177.82899 133.02237,174.65243 133.02237,171.10989 z "
       style="fill:#ffc001;fill-opacity:1"
       id="path2261" />
    <path
       d="M 126.49795,169.62169 C 125.39323,167.4854 124.52114,166.77014 123.84526,167.44602 C 123.16938,168.1219 123.6083,169.80072 125.18036,172.55258 C 126.99869,175.73553 127.59184,176.22202 127.83305,174.72826 C 128.00393,173.67007 127.40313,171.37212 126.49795,169.62169 z "
       style="fill:#ffc001;fill-opacity:1"
       id="path2259" />
    <path
       d="M 122.43041,172.16891 C 121.52948,170.79391 120.31566,169.66891 119.73305,169.66891 C 119.15043,169.66891 119.73062,170.79391 121.02237,172.16891 C 124.01136,175.35055 124.5151,175.35055 122.43041,172.16891 z "
       style="fill:#ffc001;fill-opacity:1"
       id="path2257" />
    <path
       d="M 9.016787,158.91891 C 9.010127,141.29079 8.246247,138.00733 3.062217,133.32387 C -3.211033,127.65638 -11.595943,127.43443 -18.362213,132.75678 C -23.618533,136.8914 -24.380513,139.81135 -24.797933,157.41891 L -25.183173,173.66891 L -8.080403,173.66891 L 9.022367,173.66891 L 9.016787,158.91891 z "
       style="fill:#ffc001;fill-opacity:1"
       id="path2255" />
    <path
       d="M 112.08544,172.09292 C 113.17184,170.78388 113.11948,170.064 111.7763,167.84292 C 109.80491,164.58305 107.08471,163.86316 105.40715,166.15737 C 102.23493,170.49563 108.66678,176.21215 112.08544,172.09292 z "
       style="fill:#3c65a0;fill-opacity:1"
       id="path2253" />
    <path
       d="M 120.47966,165.73801 C 120.7961,165.22601 120.5699,164.5073 119.977,164.14087 C 119.3841,163.77444 118.4879,162.39334 117.98544,161.07177 C 116.81348,157.98929 115.27771,158.01439 113.85391,161.1393 C 112.99324,163.02825 113.02711,163.96969 113.99779,165.1393 C 115.39477,166.82255 119.57098,167.20829 120.47966,165.73801 z "
       style="fill:#3c65a0;fill-opacity:1"
       id="path2251" />
    <path
       d="M 127.47966,162.73801 C 127.7961,162.22601 127.59765,161.52445 127.03868,161.17899 C 126.47971,160.83353 126.02237,159.22743 126.02237,157.60989 C 126.02237,155.86345 125.49435,154.66891 124.72237,154.66891 C 122.89104,154.66891 121.02237,156.75403 121.02237,158.79748 C 121.02237,162.14172 125.97885,165.16638 127.47966,162.73801 z "
       style="fill:#3c65a0;fill-opacity:1"
       id="path2249" />
    <path
       d="M 136.97669,159.22395 C 137.63625,158.42923 138.02885,156.78768 137.84913,155.57608 C 137.03349,150.07732 129.02237,150.89844 129.02237,156.4808 C 129.02237,158.05093 129.32237,159.63558 129.68904,160.00224 C 130.90029,161.2135 135.75588,160.69494 136.97669,159.22395 z "
       style="fill:#3c65a0;fill-opacity:1"
       id="path2247" />
    <path
       d="M 170.56699,88.924595 C 170.19341,87.951045 162.43858,87.668905 136.05375,87.668905 L 102.02237,87.668905 L 102.02237,108.0388 L 102.02237,128.4087 L 108.27237,129.5975 C 128.64765,133.47302 147.11496,141.74064 164.02237,154.55617 L 170.52237,159.48306 L 170.78561,124.83167 C 170.93039,105.77341 170.83201,89.615225 170.56699,88.924595 z "
       style="fill:#ffffff;fill-opacity:1"
       id="path2245" />
    <path
       d="M -65.763846,98.918905 L -65.477636,89.168905 L -52.227633,88.889875 L -38.977633,88.610855 L -38.977633,98.639875 L -38.977633,108.66891 L -28.977633,108.66891 L -18.977633,108.66891 L -18.977633,98.668905 L -18.977633,88.668905 L -5.977633,88.668905 L 7.022367,88.668905 L 7.022367,98.668905 L 7.022367,108.66891 L 17.522367,108.66891 L 28.022367,108.66891 L 28.022367,98.639025 L 28.022367,88.609155 L 40.772367,88.889025 L 53.522367,89.168905 L 53.808577,98.918905 L 54.094787,108.66891 L 64.022367,108.66891 L 73.949947,108.66891 L 74.236157,98.918905 L 74.522367,89.168905 L 86.272367,88.887165 L 98.022367,88.605435 L 98.022367,28.63717 L 98.022367,-31.331095 L -7.977633,-31.331095 L -113.97763,-31.331095 L -113.97763,28.668905 L -113.97763,88.668905 L -99.977626,88.668905 L -85.977626,88.668905 L -85.977626,98.668905 L -85.977626,108.66891 L -76.013836,108.66891 L -66.050056,108.66891 L -65.763846,98.918905 z "
       style="fill:#ffc001;fill-opacity:1"
       id="path2243" />
    <path
       d="M -36.977633,97.668905 L -36.977633,87.668905 L -44.977633,87.668905 L -52.977633,87.668905 L -52.977633,48.168905 L -52.977633,8.6689047 L -5.477633,8.6689047 L 42.022367,8.6689047 L 42.022367,48.168905 L 42.022367,87.668905 L 33.522367,87.668905 L 25.022367,87.668905 L 25.022367,97.668905 L 25.022367,107.66891 L 17.022367,107.66891 L 9.022367,107.66891 L 9.022367,97.668905 L 9.022367,87.668905 L -5.977633,87.668905 L -20.977633,87.668905 L -20.977633,97.668905 L -20.977633,107.66891 L -28.977633,107.66891 L -36.977633,107.66891 L -36.977633,97.668905 z "
       style="fill:#000000;fill-opacity:1"
       id="path2241" />
    <path
       d="M -14.977633,44.668905 L -14.977633,30.668905 L -22.477633,30.668905 L -29.977633,30.668905 L -29.977633,44.668905 L -29.977633,58.668905 L -22.477633,58.668905 L -14.977633,58.668905 L -14.977633,44.668905 z "
       style="fill:#ffc001;fill-opacity:1"
       id="path2239" />
    <path
       d="M 19.022367,44.668905 L 19.022367,30.668905 L 11.522367,30.668905 L 4.022367,30.668905 L 4.022367,44.668905 L 4.022367,58.668905 L 11.522367,58.668905 L 19.022367,58.668905 L 19.022367,44.668905 z "
       style="fill:#ffc001;fill-opacity:1"
       id="path2237" />
    <path
       d="M -61.977633,-10.831095 L -61.977633,-28.331095 L -49.477633,-28.331095 L -36.977633,-28.331095 L -36.977633,-21.831095 L -36.977633,-15.331095 L -27.477633,-15.331095 L -17.977633,-15.331095 L -17.977633,-21.831095 L -17.977633,-28.331095 L -5.477633,-28.331095 L 7.022367,-28.331095 L 7.022367,-21.831095 L 7.022367,-15.331095 L 16.522367,-15.331095 L 26.022367,-15.331095 L 26.022367,-21.831095 L 26.022367,-28.331095 L 38.522367,-28.331095 L 51.022367,-28.331095 L 51.022367,-10.831095 L 51.022367,6.6689047 L -5.477633,6.6689047 L -61.977633,6.6689047 L -61.977633,-10.831095 z "
       style="fill:#000000;fill-opacity:1"
       id="path2235" />
    <path
       d="M 170.78984,-6.5810948 L 171.05731,-31.331095 L 136.53984,-31.331095 L 102.02237,-31.331095 L 102.02237,-6.3179668 L 102.02237,18.69516 L 136.27237,18.432033 L 170.52237,18.168905 L 170.78984,-6.5810948 z "
       style="fill:#ffffff;fill-opacity:1"
       id="path2233" />
    <path
       d="M 306.02237,-6.8461998 L 306.02237,-31.361304 L 276.77237,-31.0962 L 247.52237,-30.831095 L 247.25459,-6.5810948 L 246.98681,17.668905 L 276.50459,17.668905 L 306.02237,17.668905 L 306.02237,-6.8461998 z "
       style="fill:#ffffff;fill-opacity:1"
       id="path2209" />
  </g>
</svg>
