<?xml version="1.0" encoding="UTF-8" standalone="no"?>
<!-- Created with Inkscape (http://www.inkscape.org/) -->

<svg
   xmlns:dc="http://purl.org/dc/elements/1.1/"
   xmlns:cc="http://creativecommons.org/ns#"
   xmlns:rdf="http://www.w3.org/1999/02/22-rdf-syntax-ns#"
   xmlns:svg="http://www.w3.org/2000/svg"
   xmlns="http://www.w3.org/2000/svg"
   xmlns:sodipodi="http://sodipodi.sourceforge.net/DTD/sodipodi-0.dtd"
   xmlns:inkscape="http://www.inkscape.org/namespaces/inkscape"
   version="1.0"
   width="208.86046"
   height="244.65999"
   id="svg2780"
   inkscape:version="0.92.4 (5da689c313, 2019-01-14)"
   sodipodi:docname="Kriegstetten-blazon.svg">
  <metadata
     id="metadata27">
    <rdf:RDF>
      <cc:Work
         rdf:about="">
        <dc:format>image/svg+xml</dc:format>
        <dc:type
           rdf:resource="http://purl.org/dc/dcmitype/StillImage" />
        <dc:title></dc:title>
      </cc:Work>
    </rdf:RDF>
  </metadata>
  <sodipodi:namedview
     pagecolor="#ffffff"
     bordercolor="#666666"
     borderopacity="1"
     objecttolerance="10"
     gridtolerance="10"
     guidetolerance="10"
     inkscape:pageopacity="0"
     inkscape:pageshadow="2"
     inkscape:window-width="3259"
     inkscape:window-height="1417"
     id="namedview25"
     showgrid="false"
     inkscape:zoom="2.8284271"
     inkscape:cx="196.44773"
     inkscape:cy="78.714755"
     inkscape:window-x="-8"
     inkscape:window-y="-8"
     inkscape:window-maximized="1"
     inkscape:current-layer="svg2780"
     inkscape:measure-start="104.255,149.787"
     inkscape:measure-end="104.255,126.383"
     showguides="true"
     inkscape:object-paths="true"
     inkscape:snap-intersection-paths="true"
     inkscape:snap-global="false" />
  <defs
     id="defs2782" />
  <path
     inkscape:connector-curvature="0"
     style="fill:#feeb00;fill-opacity:1;fill-rule:evenodd;stroke:#000000;stroke-width:1.99999988;stroke-linecap:butt;stroke-miterlimit:4;stroke-dashoffset:0;stroke-opacity:1"
     id="path4212"
     d="m 1,1 3.761095,158.00304 c 2.686489,112.85918 196.651755,112.85918 199.338255,0 L 207.86045,1 Z" />
  <g
     id="g26235">
    <path
       sodipodi:nodetypes="ccccccccccccccccccccccccccccccccccccc"
       inkscape:connector-curvature="0"
       id="path26203"
       d="m 157.8095,16.270588 c 2.00669,3.151375 3.75633,6.495519 5.07981,10.159285 0.55686,-1.560508 1.08738,-3.103463 1.99563,-4.898227 1.72207,3.688789 3.14486,7.377576 4.35412,11.066365 0.87656,-1.633978 1.78429,-3.143301 2.72132,-4.535396 2.47441,3.781606 4.99311,7.5106 6.89402,11.973444 1.17447,-1.043935 2.34105,-2.094181 3.80985,-2.902653 1.29871,3.644175 2.28808,7.443011 2.90275,11.429196 l 3.62842,-2.176989 c 0.364,3.507372 0.12491,7.014744 -0.36284,10.522116 1.22545,-0.836922 2.46514,-1.638236 3.80985,-2.176989 0.1587,4.172564 -0.21172,8.345127 -0.90711,12.517691 1.49075,-0.662364 2.98143,-1.324539 4.35411,-1.632742 -0.87295,4.850155 -1.60248,9.679821 -3.62842,14.69468 1.56878,-0.291191 2.8443,-0.372916 3.99127,-0.362831 -1.74203,4.282922 -4.1363,8.193142 -7.07543,11.792028 0.90171,-0.247278 2.52787,-0.539825 3.6083,-0.608388 -1.89731,3.115828 -4.92332,6.377546 -7.50887,8.45462 1.16349,0.145686 1.99089,0.476672 2.81204,0.861722 -9.63667,11.17882 -23.64575,9.69484 -30.23489,2.77931 -14.23766,9.93 -28.1773,2.3471 -33.44406,-4.230632 1.23734,-0.647547 2.36484,-1.058616 3.26559,-1.451327 -2.74716,-2.899244 -4.81316,-6.207171 -6.71259,-9.615038 1.48203,-0.03949 2.7637,0.05313 3.99127,0.181416 -2.33359,-3.776283 -4.14471,-7.866048 -5.62407,-12.154859 1.12424,0.01651 2.03201,0.177325 2.90274,0.362832 -0.49966,-5.118734 -0.51522,-10.099157 0.18142,-14.876097 1.40059,0.415182 2.58407,0.866446 3.99128,1.451326 0.71114,-5.32153 1.70161,-10.64306 3.26559,-15.964591 1.0146,0.745791 2.08056,1.645644 3.26558,2.902653 0.79078,-4.014413 1.9825,-7.948641 3.62843,-11.792028 1.13039,0.395396 1.94901,0.998637 2.72132,1.632742 0.89922,-2.722815 1.88678,-5.427964 3.62844,-7.982296 1.7041,0.744016 2.99674,1.556604 4.35411,2.358406 0.35992,-3.023597 1.14334,-6.047193 2.35848,-9.07079 1.39702,0.334512 2.77312,0.696906 3.99127,1.26991 0.96041,-3.325957 2.17876,-6.651913 3.99127,-9.977869 z"
       style="opacity:1;fill:#009645;fill-opacity:1;stroke:#000000;stroke-width:0.99999994;stroke-miterlimit:22;stroke-dasharray:none;stroke-dashoffset:4.57999992;stroke-opacity:1" />
    <path
       sodipodi:nodetypes="cssccssc"
       inkscape:connector-curvature="0"
       id="path26205"
       d="m 159.33155,38.660191 c -0.73472,6.863305 -3.23103,13.834778 -3.01012,21.256967 0.40888,13.738225 -0.3505,26.944446 -1.09498,40.317602 -0.76553,13.75124 -0.66906,27.42118 3.97682,40.66487 l 7.31221,-2.69388 c -4.34368,-12.38318 -6.04792,-25.2928 -5.58493,-38.521679 0.47621,-13.606645 0.2402,-25.687576 -1.0574,-40.61174 -0.59884,-6.887461 1.06634,-13.611102 -0.5416,-20.41214 z"
       style="opacity:1;fill:#009645;fill-opacity:1;stroke:#000000;stroke-width:0.99999994;stroke-miterlimit:22;stroke-dasharray:none;stroke-dashoffset:4.57999992;stroke-opacity:1" />
  </g>
  <g
     id="g26243">
    <path
       sodipodi:nodetypes="ccccccccccccccccccccccccccccccccccccc"
       inkscape:connector-curvature="0"
       id="path26203-8"
       d="m 51.160637,17.35329 c -2.006685,3.151375 -3.75633,6.49552 -5.079804,10.159287 -0.556857,-1.560509 -1.087379,-3.103464 -1.995632,-4.898229 -1.722069,3.688789 -3.144856,7.377578 -4.354115,11.066367 -0.876562,-1.633978 -1.784292,-3.143301 -2.721322,-4.535396 -2.474411,3.781606 -3.723164,7.419892 -5.624072,11.882736 -1.174469,-1.043934 -2.341046,-2.094181 -3.80985,-2.902653 -1.29871,3.644175 -2.28808,6.535933 -2.902747,10.522118 l -3.628426,-2.17699 c -0.363999,3.507373 -0.124908,7.014744 0.36284,10.522117 -1.225444,-0.836923 -2.465134,-1.638237 -3.809852,-2.176989 -0.158693,4.172563 0.211721,8.345127 0.907114,12.517691 -1.490746,-0.662364 -2.981431,-1.324539 -4.354115,-1.632743 0.29568,4.689805 0.241827,10.224069 2.267765,15.238928 -1.568784,-0.291191 -2.8443,-0.372916 -3.991275,-0.362831 1.742029,4.282922 4.136308,8.193142 7.075437,11.792027 -0.901716,-0.247277 -1.822306,-0.475684 -2.902737,-0.544247 1.897306,3.115828 4.730892,6.249266 6.8033,8.390487 -1.163487,0.14568 -1.990881,0.47667 -2.812034,0.86172 6.01167,12.36631 25.756409,14.99516 31.658051,5.07964 9.425157,11.8675 25.41514,2.7669 33.744404,-8.43583 -1.237338,-0.647549 -2.364845,-1.05862 -3.265596,-1.451331 2.747163,-2.899244 4.813167,-6.570002 6.712597,-9.977869 -1.482033,-0.03949 -2.763707,0.05313 -3.991276,0.181416 2.333596,-3.776283 3.872582,-6.50543 5.351937,-10.794241 -1.124233,0.01651 -2.032004,0.177325 -2.902737,0.362832 0.499663,-5.118734 0.3338,-9.645617 -0.362845,-14.422557 -1.400588,0.415182 -2.584068,0.866446 -3.991276,1.451326 -0.711136,-5.32153 -1.338762,-10.370936 -2.902743,-15.692467 -1.014606,0.745791 -2.080567,1.645644 -3.265587,2.902653 -0.790775,-4.014413 -0.893967,-7.58581 -2.539896,-11.429197 -1.130391,0.395396 -1.949009,0.998637 -2.721322,1.632742 -0.899222,-2.722815 -1.886776,-5.427964 -3.628436,-7.982296 -1.704099,0.744016 -2.996744,1.556604 -4.354115,2.358406 -0.359915,-3.023597 -1.143342,-6.047193 -2.358483,-9.070791 -1.397016,0.334512 -2.773118,0.696907 -3.991265,1.269911 -1.152835,-3.197677 -4.328306,-6.989122 -6.621887,-9.705747 z"
       style="opacity:1;fill:#009645;fill-opacity:1;stroke:#000000;stroke-width:0.99999994;stroke-miterlimit:22;stroke-dasharray:none;stroke-dashoffset:4.57999992;stroke-opacity:1" />
    <path
       sodipodi:nodetypes="cssccssc"
       inkscape:connector-curvature="0"
       id="path26205-1"
       d="m 52.904177,39.289356 c 2.141661,6.561883 1.235395,14.197609 1.014489,21.619798 -0.408889,13.738225 0.350493,26.944446 1.094974,40.317606 0.765529,13.75123 0.669059,27.42118 -3.976816,40.66487 l -7.312208,-2.69389 c 4.343678,-12.38318 6.04792,-25.2928 5.584926,-38.52167 -0.476212,-13.606648 -0.240199,-25.687579 1.057402,-40.611743 0.598842,-6.887461 2.380664,-14.064641 2.537233,-20.774971 z"
       style="opacity:1;fill:#009645;fill-opacity:1;stroke:#000000;stroke-width:0.99999994;stroke-miterlimit:22;stroke-dasharray:none;stroke-dashoffset:4.57999992;stroke-opacity:1" />
  </g>
  <g
     id="g26239">
    <path
       sodipodi:nodetypes="cccccccccccccccccccccccccccccccccccccccccc"
       inkscape:connector-curvature="0"
       id="path26203-5"
       d="m 102.8944,112.50146 c 2.45568,3.02309 4.71847,6.49552 6.04194,10.15928 0.55686,-1.56051 1.29585,-2.22153 2.57291,-3.67956 1.72207,3.68878 2.56758,6.15891 3.77684,9.8477 0.87656,-1.63398 1.78429,-3.1433 2.72132,-4.5354 2.65583,3.41878 4.86483,6.48436 6.76574,10.9472 1.17447,-1.04393 2.34104,-2.09417 3.80985,-2.90265 1.72958,3.39472 3.12193,6.86575 3.73659,10.85194 l 3.62843,-2.17699 c 0.364,3.50737 0.12491,7.01474 -0.36284,10.52211 1.22544,-0.83692 2.46513,-1.63824 3.80985,-2.17698 0.15869,4.17256 -0.48386,6.66703 -1.17925,10.83959 1.49074,-0.66237 2.98143,-1.32454 4.35411,-1.63274 -0.21477,2.40292 -1.80256,8.52931 -2.60483,10.94719 1.17866,-0.2526 2.69299,-0.33603 3.60327,-0.28228 -0.65341,1.98461 -2.9018,5.37518 -3.90573,7.31137 1.56878,-0.29119 2.8443,-0.37292 3.99127,-0.36283 -1.74203,4.28292 -4.1363,8.19314 -7.07543,11.79202 0.90171,-0.24727 1.8223,-0.47568 2.90273,-0.54425 -1.8973,3.11583 -4.73089,6.24927 -6.8033,8.39048 1.16349,0.14569 1.99089,0.47667 2.81204,0.86173 -7.44917,10.05381 -22.73781,13.13233 -31.45195,4.7168 -10.050158,13.805 -29.328573,1.9096 -34.407839,-6.16813 1.237339,-0.64754 2.364845,-1.05861 3.265597,-1.45132 -2.747164,-2.89925 -4.813168,-6.20718 -6.712598,-9.61504 1.482034,-0.0395 2.763707,0.0532 3.991276,0.18142 -2.333595,-3.77629 -4.144714,-7.86605 -5.624069,-12.15486 1.124233,0.0165 2.032004,0.17732 2.902737,0.36282 -0.499663,-5.11872 -0.900074,-7.72596 -0.203428,-12.5029 1.400588,0.41518 2.584067,0.86644 3.991275,1.45133 -0.498263,-2.76887 -1.019969,-8.16747 -0.811125,-10.80805 1.24697,0.15323 2.271072,0.62439 3.598141,1.35674 -0.07709,-2.43833 0.307606,-7.22138 1.090201,-9.88421 1.014606,0.7458 2.035212,1.60029 3.220231,2.8573 0.790777,-4.01442 1.92936,-7.29034 3.57529,-11.13373 1.13039,0.3954 1.949009,0.99864 2.721321,1.63274 0.899223,-2.72281 1.886776,-5.42796 3.628436,-7.98229 1.704099,0.74402 2.996744,1.55661 4.354115,2.3584 0.359915,-3.02359 1.143342,-6.04719 2.358483,-9.07078 1.397016,0.33451 2.773118,0.6969 3.991265,1.26991 0.960408,-3.32596 2.114621,-6.26708 3.927131,-9.59303 z"
       style="opacity:1;fill:#009645;fill-opacity:1;stroke:#000000;stroke-width:0.99999994;stroke-miterlimit:22;stroke-dasharray:none;stroke-dashoffset:4.57999992;stroke-opacity:1" />
    <path
       sodipodi:nodetypes="cssccssc"
       inkscape:connector-curvature="0"
       id="path26205-8"
       d="m 103.22136,134.89106 c 1.24424,6.62602 3.67631,13.85675 2.90489,21.25697 -1.48561,14.25134 -0.24425,27.12586 0.69416,40.49902 0.96495,13.75123 1.1241,25.12314 -0.76927,38.81581 l -7.518098,-0.35629 c 2.371668,-13.43797 2.938728,-25.50922 2.355138,-38.7381 -0.60026,-13.60664 -1.844687,-26.14111 0.76115,-41.06527 1.19569,-6.84806 -0.0335,-13.82194 1.57203,-20.41214 z"
       style="opacity:1;fill:#009645;fill-opacity:1;stroke:#000000;stroke-width:0.99999994;stroke-miterlimit:22;stroke-dasharray:none;stroke-dashoffset:4.57999992;stroke-opacity:1" />
  </g>
</svg>
