<?xml version="1.0" encoding="UTF-8" standalone="no"?>
<!-- Created with Inkscape (http://www.inkscape.org/) -->

<svg
   xmlns:dc="http://purl.org/dc/elements/1.1/"
   xmlns:cc="http://creativecommons.org/ns#"
   xmlns:rdf="http://www.w3.org/1999/02/22-rdf-syntax-ns#"
   xmlns:svg="http://www.w3.org/2000/svg"
   xmlns="http://www.w3.org/2000/svg"
   xmlns:sodipodi="http://sodipodi.sourceforge.net/DTD/sodipodi-0.dtd"
   xmlns:inkscape="http://www.inkscape.org/namespaces/inkscape"
   width="192.21194mm"
   height="209.37935mm"
   viewBox="0 0 192.21194 209.37935"
   version="1.1"
   id="svg5445"
   inkscape:version="0.92.4 (5da689c313, 2019-01-14)"
   sodipodi:docname="DEU Traben-Trarbach COA.svg">
  <defs
     id="defs5439">
    <inkscape:path-effect
       effect="spiro"
       id="path-effect897"
       is_visible="true" />
    <inkscape:path-effect
       effect="spiro"
       id="path-effect893"
       is_visible="true" />
    <inkscape:path-effect
       effect="spiro"
       id="path-effect889"
       is_visible="true" />
    <inkscape:path-effect
       effect="spiro"
       id="path-effect885"
       is_visible="true" />
    <inkscape:path-effect
       effect="spiro"
       id="path-effect880"
       is_visible="true" />
    <inkscape:path-effect
       effect="spiro"
       id="path-effect7371"
       is_visible="true" />
    <inkscape:path-effect
       effect="spiro"
       id="path-effect7221"
       is_visible="true" />
    <inkscape:path-effect
       effect="spiro"
       id="path-effect7371-1"
       is_visible="true" />
    <inkscape:path-effect
       effect="spiro"
       id="path-effect7371-1-0"
       is_visible="true" />
  </defs>
  <sodipodi:namedview
     id="base"
     pagecolor="#ffffff"
     bordercolor="#666666"
     borderopacity="1.0"
     inkscape:pageopacity="0.0"
     inkscape:pageshadow="2"
     inkscape:zoom="0.69248313"
     inkscape:cx="363.23517"
     inkscape:cy="395.67751"
     inkscape:document-units="mm"
     inkscape:current-layer="layer1"
     showgrid="false"
     inkscape:window-width="1366"
     inkscape:window-height="745"
     inkscape:window-x="-8"
     inkscape:window-y="-8"
     inkscape:window-maximized="1"
     inkscape:snap-midpoints="true"
     inkscape:snap-smooth-nodes="true"
     fit-margin-top="0"
     fit-margin-left="0"
     fit-margin-right="0"
     fit-margin-bottom="0"
     inkscape:object-paths="false"
     inkscape:snap-nodes="false" />
  <metadata
     id="metadata5442">
    <rdf:RDF>
      <cc:Work
         rdf:about="">
        <dc:format>image/svg+xml</dc:format>
        <dc:type
           rdf:resource="http://purl.org/dc/dcmitype/StillImage" />
        <dc:title />
      </cc:Work>
    </rdf:RDF>
  </metadata>
  <g
     inkscape:label="Ebene 1"
     inkscape:groupmode="layer"
     id="layer1"
     transform="translate(-2.2010314,-4.1553746)">
    <path
       style="fill:#ffffff;fill-rule:evenodd;stroke:none;stroke-width:3.10444427;stroke-opacity:1"
       d="m 3.7659649,5.7255003 0.95912,117.5809397 c 0.87326,20.33152 8.6763101,34.02919 18.9740401,47.6927 9.77623,12.97154 24.149,22.30082 38.56252,29.78991 11.16245,5.79989 36.04535,11.17555 36.04535,11.17555 0,0 24.882925,-5.37566 36.045385,-11.17555 14.4135,-7.48909 28.78628,-16.81837 38.56251,-29.78991 10.29772,-13.66351 18.10077,-27.36118 18.97403,-47.6927 L 192.84804,5.7255003 h -94.538985 -0.002 -0.002 z"
       id="path10563-0-6-7-0-8"
       inkscape:connector-curvature="0" />
    <path
       style="fill:none;fill-rule:evenodd;stroke:#000000;stroke-width:3.10444427;stroke-opacity:1"
       d="M 3.7659668,5.7075967 4.7250869,123.28853 c 0.8732599,20.33152 8.6763021,34.02919 18.9740351,47.6927 9.77623,12.97154 24.149,22.30082 38.56252,29.78991 11.16245,5.79989 36.045345,11.17555 36.045345,11.17555 0,0 24.882933,-5.37566 36.045393,-11.17555 14.4135,-7.48909 28.78628,-16.81837 38.56251,-29.78991 10.29772,-13.66351 18.10077,-27.36118 18.97403,-47.6927 L 192.84804,5.7075967 h -94.538992 -0.0021 -0.0021 z"
       id="path10563-0-6-7-0"
       inkscape:connector-curvature="0" />
    <path
       style="fill:#ff0000;fill-opacity:1;stroke:#000000;stroke-width:5;stroke-linecap:round;stroke-linejoin:round;stroke-miterlimit:4;stroke-dasharray:none;stroke-opacity:1"
       d="M 34.443359 36.169922 L 34.443359 123.12109 L 34.615234 144.26562 L 144.04102 144.26562 L 144.04102 36.169922 L 34.443359 36.169922 z M 144.04102 144.26562 L 144.04102 253.86133 L 253.63867 253.86133 L 253.63867 144.26562 L 144.04102 144.26562 z M 253.63867 144.26562 L 363.23438 144.26562 L 363.23438 36.169922 L 363.22656 36.169922 L 253.63867 36.169922 L 253.63867 144.26562 z M 253.63867 253.86133 L 253.63867 363.45703 L 363.23438 363.45703 L 363.23438 253.86133 L 253.63867 253.86133 z M 253.63867 363.45703 L 144.04102 363.45703 L 144.04102 473.05273 L 253.63867 473.05273 L 253.63867 363.45703 z M 253.63867 473.05273 L 253.63867 582.64844 L 363.23438 582.64844 L 363.23438 473.05273 L 253.63867 473.05273 z M 253.63867 582.64844 L 144.04102 582.64844 L 144.04102 655.20117 C 159.9878 668.86721 177.352 681.11203 195.34766 692.24414 L 253.63867 692.24414 L 253.63867 582.64844 z M 253.63867 692.24414 L 253.63867 723.35352 C 296.27776 740.58064 363.23438 755.05078 363.23438 755.05078 L 363.23438 692.24414 L 253.63867 692.24414 z M 144.04102 582.64844 L 144.04102 473.05273 L 39.541016 473.05273 C 45.615443 516.1466 61.359325 550.46288 82.304688 582.64844 L 144.04102 582.64844 z M 144.04102 363.45703 L 144.04102 253.86133 L 35.509766 253.86133 L 36.402344 363.45703 L 144.04102 363.45703 z M 472.83203 36.169922 L 472.83203 144.26562 L 582.42969 144.26562 L 582.42969 36.169922 L 472.83203 36.169922 z M 582.42969 144.26562 L 582.42969 253.86133 L 690.96094 253.86133 L 691.85352 144.26562 L 582.42969 144.26562 z M 582.42969 253.86133 L 472.83203 253.86133 L 472.83203 363.45703 L 582.42969 363.45703 L 582.42969 253.86133 z M 582.42969 363.45703 L 582.42969 473.05273 L 686.92969 473.05273 C 688.14812 464.40876 688.98869 455.42223 689.39258 446.01758 L 690.06641 363.45703 L 582.42969 363.45703 z M 582.42969 473.05273 L 472.83203 473.05273 L 472.83203 582.64844 L 582.42969 582.64844 L 582.42969 473.05273 z M 582.42969 582.64844 L 582.42969 655.20117 C 597.53943 642.25245 611.37848 628.0294 623.26367 612.25781 C 630.64667 602.46057 637.65342 592.65601 644.16602 582.64844 L 582.42969 582.64844 z M 472.83203 582.64844 L 363.23633 582.64844 L 363.23633 692.24414 L 472.83203 692.24414 L 472.83203 582.64844 z M 472.83203 692.24414 L 472.83203 723.35352 C 478.71551 720.97646 484.14605 718.54701 488.86328 716.0957 C 503.08184 708.70705 517.28727 700.80295 531.12305 692.24414 L 472.83203 692.24414 z M 472.83203 473.05273 L 472.83203 363.45703 L 363.23633 363.45703 L 363.23633 473.05273 L 472.83203 473.05273 z M 472.83203 253.86133 L 472.83203 144.26562 L 363.23633 144.26562 L 363.23633 253.86133 L 472.83203 253.86133 z "
       transform="matrix(0.26458333,0,0,0.26458333,2.2010314,4.1553746)"
       id="rect7031" />
    <path
       style="fill:#ffd700;fill-opacity:1;stroke:#000000;stroke-width:1.32291663;stroke-linecap:round;stroke-linejoin:round;stroke-miterlimit:4;stroke-dasharray:none;stroke-opacity:1"
       d="m 98.318158,119.77519 c -9.577538,-10e-6 -28.396819,2.83801 -28.396715,4.38061 v 66.80161 H 126.71436 V 124.1558 c 1e-4,-1.54258 -18.81883,-4.3806 -28.396202,-4.38061 z"
       id="rect7239"
       inkscape:connector-curvature="0"
       sodipodi:nodetypes="acccca" />
    <path
       inkscape:connector-curvature="0"
       style="fill:#ffffff;fill-opacity:1;stroke:#000000;stroke-width:1.32291663;stroke-linecap:round;stroke-linejoin:round;stroke-miterlimit:4;stroke-dasharray:none;stroke-opacity:1"
       d="m 87.111609,127.21039 -8.677507,1.79628 v 8.6775 l 8.677507,-1.79627 z m 6.867798,0 v 8.67751 h 8.676993 v -8.67751 z m 15.545303,0 v 8.67751 l 8.67699,1.79627 v -8.6775 z m -22.413101,12.75065 -8.677507,1.79627 v 8.67699 l 8.677507,-1.79627 z m 6.867798,0 v 8.67699 h 8.676993 v -8.67699 z m 15.545303,0 v 8.67699 l 8.67699,1.79627 v -8.67699 z m -11.207068,18.63865 a 8.7352922,7.5705879 0 0 0 -8.734867,7.57008 v 24.78764 h 17.470255 v -24.78764 a 8.7352922,7.5705879 0 0 0 -8.735388,-7.57008 z"
       id="rect7244" />
    <path
       style="fill:#000000;stroke:#000000;stroke-width:0.26458332px;stroke-linecap:butt;stroke-linejoin:miter;stroke-opacity:1"
       d="M 98.3179,91.651842 64.38044,126.20478 c 0,0 9.18774,-4.09088 14.06219,-5.18677 6.48935,-1.45896 19.87527,-1.77198 19.87527,-1.77198 0,0 13.38592,0.31302 19.87528,1.77198 4.87444,1.09589 14.06218,5.18677 14.06218,5.18677 z"
       id="path7302"
       inkscape:connector-curvature="0" />
    <path
       style="fill:#009900;stroke:#000000;stroke-width:8.0000001;stroke-linecap:butt;stroke-linejoin:round;stroke-miterlimit:4;stroke-dasharray:none;stroke-opacity:1;fill-opacity:1"
       d="M 363.26172 687.71875 C 352.08459 687.72022 341.22486 691.16728 330.61914 694.69531 C 320.01343 698.22335 309.26986 701.90177 298.10352 702.39258 C 288.28985 702.82393 278.55874 700.77306 268.92188 698.86914 C 259.28501 696.96522 249.46251 695.191 239.68945 696.18164 C 231.41762 697.02011 223.31788 699.9092 216.54297 704.70898 C 223.53438 708.63696 230.56672 712.43702 237.60742 716.0957 C 276.51163 736.31224 363.23438 755.05078 363.23438 755.05078 C 363.23438 755.05078 449.95902 736.31224 488.86328 716.0957 C 495.93161 712.42266 502.99129 708.60663 510.00977 704.66211 C 503.22461 699.87173 495.11281 697.00581 486.83594 696.18164 C 477.06146 695.20835 467.24065 696.98389 457.60352 698.88477 C 447.96638 700.78565 438.23499 702.8291 428.42188 702.39258 C 417.25581 701.89587 406.51022 698.21678 395.9043 694.68945 C 385.29837 691.16213 374.43883 687.71728 363.26172 687.71875 z "
       transform="matrix(0.26458333,0,0,0.26458333,2.2010314,4.1553746)"
       id="path7219" />
    <path
       style="fill:none;fill-rule:evenodd;stroke:#000000;stroke-width:2.11666667;stroke-opacity:1;stroke-miterlimit:4;stroke-dasharray:none;stroke-linejoin:round;stroke-linecap:round"
       d="M 11.126511,13.725104 12.01096,122.16416 c 0.805274,18.75076 8.000803,31.38343 17.496803,43.98461 9.01509,11.963 22.268863,20.56693 35.560213,27.47375 10.293401,5.34896 33.239026,10.30665 33.239026,10.30665 0,0 22.945608,-4.95769 33.239028,-10.30665 13.29133,-6.90682 26.54511,-15.51075 35.56021,-27.47375 9.49598,-12.60118 16.69153,-25.23385 17.49679,-43.98461 L 185.4875,13.725104 h -87.178598 -0.002 -0.002 z"
       id="path10563-0-6-7-00"
       inkscape:connector-curvature="0" />
    <path
       inkscape:connector-curvature="0"
       style="fill:#000000;stroke:#000000;stroke-width:0.5291667;stroke-linecap:butt;stroke-linejoin:round;stroke-miterlimit:4;stroke-dasharray:none;stroke-opacity:1"
       d="m 65.019846,15.799419 c 0.167939,0.872505 0.09145,1.790422 -0.218591,2.623095 -0.410274,1.10188 -1.21126,2.038118 -1.530138,3.169833 -0.149633,0.531051 -0.187376,1.093479 -0.109554,1.639693 -1.966888,0.5948 -3.626315,2.130066 -4.372345,4.044714 -0.699881,1.796219 -0.608404,3.793065 -0.983917,5.683892 -0.510545,2.570747 -1.886381,4.90933 -3.607017,6.8864 -0.310975,0.357322 -0.634658,0.705858 -0.900202,1.098124 -0.265544,0.392266 -0.473189,0.835612 -0.520899,1.306896 -0.04308,0.425611 0.04795,0.861523 0.243912,1.241785 0.195958,0.380264 0.494625,0.704575 0.849045,0.944128 0.723614,0.489101 1.657927,0.610026 2.514058,0.437185 0.547859,-0.110607 1.072729,-0.335328 1.530657,-0.655775 -0.117973,0.358129 -0.07752,0.76528 0.109037,1.092956 0.110064,0.193329 0.269192,0.359021 0.459404,0.47439 0.190209,0.115369 0.411612,0.180274 0.634069,0.181901 0.250981,0.0019 0.498189,-0.07577 0.718301,-0.196371 0.220115,-0.120599 0.414713,-0.283509 0.593246,-0.45992 0.903632,-0.892889 1.396622,-2.108057 1.894459,-3.276801 0.497835,-1.168744 1.056148,-2.369637 2.040702,-3.172417 0.4704,-0.383551 1.017792,-0.657998 1.530139,-0.983404 0.26942,-0.171114 0.531339,-0.357634 0.820621,-0.492474 0.289285,-0.134842 0.613886,-0.216265 0.928626,-0.163298 0.317506,0.05343 0.603819,0.24339 0.802019,0.497126 0.198196,0.253738 0.311983,0.567171 0.355017,0.886251 0.08607,0.638164 -0.09953,1.278143 -0.28267,1.895493 -0.625805,2.109528 -1.251434,4.249642 -1.31155,6.449219 -0.05215,1.908167 0.330309,3.824941 1.092957,5.574852 0.674277,1.547138 1.643904,2.964805 2.841688,4.153752 -1.103683,0.68579 -2.332138,1.169885 -3.607014,1.421101 -1.185455,0.233598 -2.408989,0.265899 -3.607017,0.109038 -1.606505,-0.210344 -3.2033,-0.75869 -4.809524,-0.546219 -1.0281,0.135995 -1.99997,0.583319 -2.839104,1.192691 -0.839134,0.609372 -1.552813,1.377151 -2.18953,2.195732 -1.155094,1.485022 -2.07178,3.147856 -3.27887,4.590934 -1.546558,1.848916 -3.567247,3.337835 -4.700487,5.465299 -0.835538,1.56858 -1.121116,3.365905 -1.748732,5.028634 -0.275151,0.728953 -0.617003,1.433602 -0.84491,2.178679 -0.227904,0.745075 -0.338095,1.549411 -0.139009,2.302701 0.226399,0.856625 0.822428,1.556668 1.311547,2.295467 0.578213,0.873368 1.022583,1.835576 1.312067,2.842204 l 5.465299,-6.012037 c -0.512038,0.02643 -1.031851,-0.181734 -1.383895,-0.554487 -0.352047,-0.372753 -0.530003,-0.903656 -0.47439,-1.413352 0.04101,-0.375872 0.20193,-0.731305 0.420645,-1.039727 0.218718,-0.308425 0.494157,-0.572709 0.781865,-0.818039 0.377481,-0.321879 0.77947,-0.614939 1.201994,-0.874882 -0.304882,0.02614 -0.617649,-0.05206 -0.874366,-0.218591 -0.27736,-0.179924 -0.485023,-0.458827 -0.595312,-0.770495 -0.110287,-0.311672 -0.125291,-0.654045 -0.06046,-0.978236 0.114382,-0.571987 0.467233,-1.073412 0.891418,-1.473812 0.424185,-0.400399 0.920917,-0.713388 1.404048,-1.040246 1.953112,-1.321358 3.720436,-2.895679 5.4653,-4.481899 0.363508,-0.330456 0.728628,-0.663249 1.142047,-0.928624 0.413422,-0.265374 0.882174,-0.462584 1.372526,-0.492477 0.441691,-0.02693 0.88129,0.0826 1.29553,0.238229 0.41424,0.15563 0.809792,0.35755 1.218531,0.5271 1.823175,0.756274 3.917939,0.835311 5.792927,0.218591 -0.2364,0.7138 -0.528989,1.408959 -0.874366,2.076876 -0.546986,1.057806 -1.228148,2.052346 -1.639691,3.169832 -0.468649,1.272538 -0.56678,2.646307 -0.673346,3.998206 -0.106564,1.351897 -0.231233,2.727587 -0.747239,3.98167 -0.615194,1.495136 -1.755868,2.738921 -2.295986,4.262786 -0.393752,1.110922 -0.454276,2.335234 -0.983403,3.388424 -0.596839,1.187974 -1.724324,2.028357 -2.40502,3.170351 -0.37945,0.636598 -0.609947,1.352129 -0.76481,2.076876 -0.214421,1.003472 -0.288726,2.036517 -0.219109,3.060277 l 5.568653,0.22221 c 0.420291,-0.184563 0.766133,-0.532892 0.947746,-0.954466 0.181612,-0.421571 0.196958,-0.912402 0.04237,-1.34462 -0.07237,-0.202338 -0.179716,-0.390099 -0.270267,-0.584975 -0.09055,-0.194879 -0.165407,-0.402135 -0.166915,-0.617019 -0.0011,-0.158224 0.03825,-0.315839 0.106971,-0.45837 0.06871,-0.142528 0.166516,-0.270182 0.280601,-0.37982 0.228174,-0.219278 0.518113,-0.364146 0.814938,-0.473874 0.729073,-0.269515 1.528628,-0.345638 2.295467,-0.218591 -0.400487,-0.36586 -0.767323,-0.768556 -1.093473,-1.201994 -0.295732,-0.393017 -0.560734,-0.816155 -0.716751,-1.28261 -0.156019,-0.466452 -0.197053,-0.98181 -0.04806,-1.450557 0.182222,-0.573291 0.626547,-1.024268 1.099672,-1.39578 0.473128,-0.371512 0.992209,-0.68975 1.414386,-1.118277 0.431914,-0.438415 0.748318,-0.979768 0.982885,-1.548744 0.234566,-0.568976 0.390318,-1.167342 0.531751,-1.7663 0.282866,-1.19792 0.526225,-2.443742 1.218012,-3.461803 0.474123,-0.697736 1.133938,-1.247643 1.813328,-1.747697 0.679389,-0.500055 1.389771,-0.962388 2.01228,-1.531689 1.220092,-1.115812 2.052323,-2.602212 2.623611,-4.153752 0.27522,-0.747459 0.49457,-1.515436 0.655775,-2.295467 2.424359,0.823418 4.880488,1.55261 7.361306,2.185911 4.023035,1.026999 8.206264,1.804138 12.314494,1.202513 3.168426,-0.464 6.211686,-1.757461 8.744686,-3.716571 0.62397,1.523093 1.51591,2.935854 2.6231,4.153752 0.58935,0.648274 1.23737,1.240179 1.85828,1.858285 0.52996,0.527558 1.04086,1.074656 1.53066,1.639692 -0.64909,0.827902 -1.23468,1.706025 -1.74925,2.623614 -0.88018,1.569571 -1.59089,3.30336 -2.95124,4.48138 -1.04924,0.908611 -2.41414,1.416452 -3.38842,2.40502 -0.71426,0.724736 -1.17517,1.672069 -1.43195,2.656686 -0.25679,0.984618 -0.31939,2.009656 -0.3173,3.027204 0.002,1.064837 0.0748,2.135558 0.32815,3.169833 0.22624,0.92383 0.59629,1.812459 1.09295,2.623613 l 6.66781,-3.825607 c -1.02969,-0.279369 -1.92676,-1.013852 -2.4045,-1.967839 -0.25309,-0.505399 -0.39233,-1.078116 -0.32815,-1.639692 0.0602,-0.526782 0.29969,-1.028255 0.65578,-1.421103 0.41495,-0.457785 0.98837,-0.768747 1.59835,-0.86713 0.19573,-0.03157 0.39486,-0.03846 0.59273,-0.02687 -0.13446,-0.118493 -0.24989,-0.258635 -0.3328,-0.417547 -0.17338,-0.332337 -0.21216,-0.725045 -0.14883,-1.094507 0.0633,-0.369459 0.22429,-0.717036 0.42995,-1.030427 0.41134,-0.62678 0.99458,-1.119468 1.46813,-1.700671 0.49681,-0.60974 0.86791,-1.310679 1.31982,-1.954403 0.4519,-0.643723 1.01115,-1.249116 1.74046,-1.543573 0.58016,-0.234241 1.22052,-0.253638 1.8433,-0.313677 0.62277,-0.06004 1.27088,-0.175906 1.76423,-0.560689 0.39358,-0.30697 0.65284,-0.763887 0.78238,-1.245921 0.12954,-0.482031 0.137,-0.989629 0.092,-1.48673 -0.0348,-0.384599 -0.10055,-0.766443 -0.12455,-1.151867 -0.024,-0.385426 -0.005,-0.779729 0.12455,-1.1436 0.12402,-0.34893 0.35155,-0.663726 0.65577,-0.874882 0.30984,-0.215059 0.68794,-0.31736 1.06453,-0.337963 0.3766,-0.02061 0.7539,0.03673 1.1219,0.119372 0.49768,0.111771 0.99032,0.272775 1.42058,0.546738 0.45828,0.291798 0.832,0.704368 1.12448,1.162201 0.29249,0.457835 0.50694,0.961368 0.68885,1.473295 0.36381,1.023855 0.6061,2.101154 1.13843,3.048394 0.72996,1.298908 1.96189,2.272313 2.6231,3.60753 0.12318,0.248743 0.22525,0.507019 0.32814,0.764813 1.12553,2.819802 2.42835,5.63355 4.48138,7.870319 0.98488,1.073015 2.13163,1.997454 3.38894,2.732651 l 2.84169,-7.432622 c -0.32793,-2.43e-4 -0.65599,-2.43e-4 -0.98392,0 -0.93206,7.94e-4 -1.90613,-0.0069 -2.73265,-0.4377 -0.42973,-0.223996 -0.80664,-0.565118 -1.02371,-0.998387 -0.21707,-0.433268 -0.26146,-0.961263 -0.0692,-1.406117 0.16608,-0.384384 0.48613,-0.677056 0.73277,-1.015442 0.12331,-0.169193 0.23047,-0.353827 0.28473,-0.556038 0.0543,-0.20221 0.0527,-0.424177 -0.0336,-0.614949 -0.0645,-0.142727 -0.17413,-0.262184 -0.30179,-0.352949 -0.12766,-0.09077 -0.27308,-0.153676 -0.42271,-0.199988 -0.29927,-0.09263 -0.61544,-0.120822 -0.91519,-0.211873 -0.50255,-0.152654 -0.93839,-0.476901 -1.30483,-0.853178 -0.36644,-0.37628 -0.67161,-0.806466 -0.99064,-1.223698 -0.51702,-0.676183 -1.07501,-1.323189 -1.54409,-2.033469 -0.46908,-0.710281 -0.85107,-1.496023 -0.96996,-2.338874 -0.13108,-0.929246 0.0629,-1.869416 0.12143,-2.80603 0.0293,-0.46831 0.0241,-0.942161 -0.0718,-1.401467 -0.096,-0.459303 -0.2867,-0.905782 -0.59635,-1.258321 -0.28814,-0.328044 -0.66617,-0.562504 -1.05007,-0.770496 -0.38389,-0.207989 -0.7813,-0.395271 -1.13585,-0.650089 -0.6126,-0.440288 -1.07466,-1.069758 -1.38699,-1.756481 -0.31233,-0.686724 -0.48158,-1.430825 -0.58084,-2.17868 -0.13514,-1.01813 -0.14188,-2.064986 0.10955,-3.060792 0.21519,-0.85225 0.61259,-1.645119 0.98857,-2.439647 0.37598,-0.794525 0.73701,-1.610513 0.86971,-2.479434 0.21936,-1.436346 -0.23409,-2.960976 -1.20251,-4.044198 0.65467,-0.389835 1.42482,-0.582631 2.18592,-0.546735 0.8346,0.03936 1.64761,0.350811 2.32441,0.840774 0.67679,0.489963 1.21976,1.15347 1.61075,1.891874 0.52604,0.993473 0.77964,2.11668 0.84232,3.239079 0.0627,1.1224 -0.0598,2.247787 -0.25218,3.355351 -0.34292,1.974178 -0.90887,3.909668 -1.6831,5.757788 0.77519,-0.282551 1.48864,-0.733509 2.07688,-1.312066 0.56595,-0.556641 1.0154,-1.23081 1.31155,-1.96732 -0.17214,1.343025 -0.13488,2.712429 0.10955,4.044196 0.49673,2.706383 1.84342,5.212001 3.60701,7.324101 1.4812,1.773896 3.26306,3.295721 5.24671,4.48138 -0.91398,-0.93086 -1.56422,-2.117323 -1.85776,-3.388424 -0.19808,-0.857684 -0.23559,-1.752422 -0.10956,-2.623611 0.97405,1.402438 2.11389,2.689834 3.38842,3.826121 0.98613,0.879161 2.09751,1.688857 3.38895,1.967323 0.64596,0.139287 1.32135,0.139287 1.96732,0 -0.56556,-0.228529 -1.08744,-0.564285 -1.53014,-0.983919 -0.39855,-0.377783 -0.73284,-0.823164 -0.98392,-1.311548 0.77563,0.258144 1.58764,0.405781 2.4045,0.437182 0.77034,0.02962 1.54509,-0.0441 2.29599,-0.218591 -1.215,-0.339307 -2.36889,-0.897522 -3.38894,-1.639692 -1.75197,-1.274691 -3.08293,-3.07136 -4.00441,-5.03225 -0.92148,-1.960891 -1.45033,-4.086519 -1.78904,-6.226495 -0.40931,-2.586022 -0.54871,-5.209739 -0.98857,-7.790738 -0.43986,-2.581 -1.20499,-5.163572 -2.72748,-7.293613 -0.7875,-1.101754 -1.77445,-2.07006 -2.93264,-2.771923 -1.15819,-0.701863 -2.49084,-1.131403 -3.84473,-1.163235 -1.74755,-0.04109 -3.44524,0.569835 -5.02811,1.311547 -1.28615,0.602671 -2.52927,1.297324 -3.71657,2.076876 -1.27297,-0.86329 -2.67937,-1.529233 -4.15375,-1.967323 -2.22259,-0.660405 -4.56801,-0.797988 -6.8864,-0.765328 -4.29999,0.06058 -8.60651,0.697947 -12.67985,2.076876 -1.49423,0.505833 -3.019289,1.119918 -4.590937,0.983919 -0.762646,-0.06599 -1.503715,-0.310052 -2.18643,-0.656291 -0.831207,-0.421542 -1.575895,-0.993148 -2.233456,-1.655712 0.730922,-0.502539 1.378598,-1.108885 1.842265,-1.861386 0.345442,-0.560631 0.580993,-1.188593 0.689364,-1.838129 -0.570926,0.0373 -1.137653,0.139869 -1.685169,0.305924 -0.365299,0.110789 -0.735724,0.251447 -1.116211,0.220657 -0.190243,-0.0154 -0.379941,-0.07609 -0.530201,-0.193786 -0.150259,-0.117694 -0.257032,-0.295735 -0.2682,-0.486275 -0.0059,-0.100499 0.01445,-0.201652 0.05323,-0.294555 0.03879,-0.0929 0.09559,-0.17779 0.162264,-0.253214 0.13336,-0.15085 0.304001,-0.262946 0.473874,-0.371039 0.762098,-0.484931 1.555417,-0.920342 2.374016,-1.302245 h -1.761651 c -0.45978,0 -0.921242,0.04589 -1.378728,0 -0.281771,-0.02826 -0.562554,-0.105071 -0.800984,-0.257865 -0.238426,-0.152794 -0.431302,-0.386919 -0.500745,-0.661458 -0.04054,-0.160288 -0.03884,-0.329793 -0.0041,-0.491443 0.03471,-0.161652 0.101436,-0.315388 0.187068,-0.456819 0.171265,-0.282863 0.41506,-0.514096 0.659392,-0.736907 0.495281,-0.451659 1.006136,-0.885682 1.531689,-1.301728 -0.638601,-0.04202 -1.281409,-0.0164 -1.914613,0.07648 -0.326083,0.04784 -0.651248,0.113419 -0.980818,0.114205 -0.32957,7.93e-4 -0.670459,-0.06899 -0.933794,-0.267169 -0.16429,-0.123637 -0.291862,-0.292944 -0.379304,-0.479038 -0.08744,-0.186098 -0.136033,-0.388713 -0.157096,-0.593246 -0.07561,-0.734182 0.217747,-1.497312 0.765844,-1.991609 -0.362246,0.320908 -0.778052,0.58085 -1.225248,0.765844 -0.441754,0.182743 -0.914083,0.287785 -1.391129,0.318326 -0.200996,-0.326959 -0.414764,-0.645758 -0.642856,-0.956014 0.417394,-0.695529 0.766871,-1.431798 1.03818,-2.196248 0.298868,-0.842101 0.504899,-1.71696 0.612884,-2.603975 -0.459692,0.809002 -1.12477,1.500042 -1.915131,1.991093 -0.519483,0.322755 -1.092719,0.557659 -1.688269,0.696598 -0.177091,-0.157764 -0.357169,-0.312319 -0.540533,-0.463537 0.38205,-0.423775 0.722519,-0.885264 1.003554,-1.381828 0.391554,-0.691837 0.676552,-1.443576 0.842327,-2.221053 -0.789538,0.708099 -1.700564,1.280212 -2.680972,1.684651 -0.391012,0.161301 -0.793282,0.294589 -1.202513,0.401526 -0.42795,-0.292367 -0.860034,-0.579033 -1.292426,-0.860929 -0.06589,-0.04296 -0.132498,-0.08476 -0.198438,-0.127641 0.18973,-0.711889 0.42055,-1.412668 0.702281,-2.093412 0.398002,-0.961679 0.885841,-1.88622 1.455208,-2.757455 -1.278601,0.894845 -2.709637,1.571505 -4.212661,1.99161 -0.608856,0.170179 -1.229836,0.295869 -1.856219,0.380339 -1.312791,-0.810463 -2.634731,-1.606443 -3.966165,-2.385901 0.117216,-0.664863 0.380397,-1.30366 0.765329,-1.858284 0.557532,-0.803315 1.372984,-1.424412 2.295467,-1.748731 -1.18037,-0.581443 -2.613965,-0.622654 -3.825606,-0.109554 -1.146569,0.485543 -2.077725,1.457429 -2.51406,2.623612 -0.2183,-0.962749 -0.672846,-1.87132 -1.312063,-2.623612 -0.489141,-0.575668 -1.085123,-1.059645 -1.748732,-1.420585 z m 46.351694,69.828295 c 0.0941,0.08294 0.1963,0.156803 0.30851,0.212908 0.27252,0.13626 0.58868,0.184208 0.88935,0.134874 -0.36526,-0.206529 -0.77909,-0.323257 -1.19786,-0.347782 z"
       id="path7369-4-0" />
    <path
       style="fill:#ffffff;stroke:#000000;stroke-width:0.26458332px;stroke-linecap:butt;stroke-linejoin:miter;stroke-opacity:1"
       d="m -126.39935,26.570132 c 2.06222,0.669415 4.01214,1.683376 5.7445,2.987144 2.58194,1.943162 4.65973,4.51443 6.20407,7.35297 1.02659,1.886907 1.82566,3.897466 2.3744,5.974289 -1.61219,-2.402909 -3.40617,-4.683823 -5.36154,-6.816815 -1.83019,-1.996436 -3.799,-3.860875 -5.66792,-5.821102 -1.13554,-1.191014 -2.23408,-2.417297 -3.29351,-3.676486 z"
       id="path883"
       inkscape:connector-curvature="0"
       inkscape:path-effect="#path-effect885"
       inkscape:original-d="m -126.39935,26.570132 c 0,0 4.05918,1.638914 5.7445,2.987144 2.50417,2.003296 4.55647,4.601701 6.20407,7.35297 1.10098,1.838491 2.3744,5.974289 2.3744,5.974289 0,0 -3.45693,-4.64203 -5.36154,-6.816815 -1.78427,-2.037373 -3.81934,-3.841897 -5.66792,-5.821102 -1.12306,-1.20242 -3.29351,-3.676486 -3.29351,-3.676486 z"
       sodipodi:nodetypes="caacaac"
       transform="translate(197.60697,-1.3303575)" />
    <path
       style="fill:none;stroke:#ffffff;stroke-width:0.79374999;stroke-linecap:round;stroke-linejoin:miter;stroke-miterlimit:4;stroke-dasharray:none;stroke-opacity:1"
       d="m -128.54397,58.35641 c 1.09102,-0.204169 2.15229,-0.566557 3.14033,-1.072309 0.54333,-0.278117 1.0665,-0.600761 1.53187,-0.995714 0.44285,-0.375842 0.83112,-0.815887 1.1489,-1.302089"
       id="path887"
       inkscape:connector-curvature="0"
       inkscape:path-effect="#path-effect889"
       inkscape:original-d="m -128.54397,58.35641 c 1.02151,-0.332168 2.09382,-0.715137 3.14033,-1.072309 1.04651,-0.357171 1.02151,-0.664075 1.53187,-0.995714 0.51036,-0.331639 0.7662,-0.868323 1.1489,-1.302089"
       transform="translate(197.60697,-1.3303575)" />
    <path
       style="fill:none;stroke:#ffffff;stroke-width:0.79374999;stroke-linecap:round;stroke-linejoin:miter;stroke-miterlimit:4;stroke-dasharray:none;stroke-opacity:1"
       d="m -118.56746,69.460258 c 0.0206,-0.456509 0.21937,-0.90265 0.54496,-1.223295 0.35484,-0.349446 0.83846,-0.540448 1.3255,-0.644425 0.48705,-0.103977 0.98703,-0.129435 1.48029,-0.198101 0.8755,-0.121875 1.7317,-0.381332 2.52758,-0.765935"
       id="path891"
       inkscape:connector-curvature="0"
       inkscape:path-effect="#path-effect893"
       inkscape:original-d="m -118.56746,69.460258 c 0.74067,-0.255574 0.20986,-0.928375 0.54496,-1.223295 0.73305,-0.645156 1.87088,-0.560506 2.80579,-0.842526 0.84285,-0.25425 2.06828,-0.408763 2.52758,-0.765935"
       sodipodi:nodetypes="caac"
       transform="translate(197.60697,-1.3303575)" />
    <path
       style="fill:none;stroke:#ffffff;stroke-width:0.79374999;stroke-linecap:round;stroke-linejoin:miter;stroke-miterlimit:4;stroke-dasharray:none;stroke-opacity:1"
       d="m -90.769389,67.990164 c -0.262858,-0.438447 -0.497936,-0.893546 -0.703358,-1.361662 -0.19504,-0.444457 -0.36397,-0.90282 -0.45956,-1.378683 -0.08591,-0.42765 -0.111767,-0.867316 -0.07659,-1.302088"
       id="path895"
       inkscape:connector-curvature="0"
       inkscape:path-effect="#path-effect897"
       inkscape:original-d="m -90.769389,67.990164 c -0.33164,-0.868325 -0.504761,-0.890981 -0.703358,-1.361662 -0.188317,-0.446317 -0.367953,-0.903004 -0.45956,-1.378683 -0.08222,-0.426935 -0.0508,-0.868323 -0.07659,-1.302088"
       sodipodi:nodetypes="caac"
       transform="translate(197.60697,-1.3303575)" />
  </g>
</svg>
