<?xml version="1.0" encoding="UTF-8"?>
<svg version="1.1" viewBox="0 0 620 757.33" xmlns="http://www.w3.org/2000/svg"><g transform="matrix(1.3333 0 0 -1.3333 0 757.33)"><g transform="scale(.1)" fill-rule="evenodd"><path d="m2326.4 4.8086c1280.9 0 2319.8 1039.7 2319.8 2320.6v3348.7h-4639.7v-3348.7c0-1274.4 1045.4-2320.6 2319.8-2320.6"/><path d="m1996.6 5600.6h-1916.6v-3275.3c0-1094.4 797.04-2015.3 1837.4-2209.7l3.6 7.203c39.6 87.839 60.48 187.92 60.48 288 0 115.92-27.36 230.4-81.36 326.16l-1.44 1.437-2.16 5.039c-60.48 91.442-89.28 204.48-89.28 316.8 0 108.72 26.64 218.16 81.36 307.44 61.2 100.8 92.88 223.92 92.88 348.48 0 121.68-30.24 242.64-90.72 342-54 89.28-80.64 196.56-80.64 302.4 0 108 27.36 216.72 83.52 306.72 61.92 100.08 93.6 222.48 93.6 345.59 0 121.68-30.96 242.65-92.16 343.45-54 88.55-80.64 195.84-80.64 301.68 0 108 27.36 216 83.52 306 62.64 100.8 94.32 223.2 94.32 346.32 0 121.68-30.96 243.36-92.16 343.44-54 88.56-80.64 195.84-80.64 302.4 0 108 27.36 216.71 83.52 306.71 61.2 98.65 91.44 218.17 93.6 337.68" fill="#fcdb00"/><path d="m2769.2 122.17c1028.2 205.92 1803.6 1114.6 1803.6 2203.2v3275.3h-1726.6c-1.44-115.91-31.68-236.15-93.6-337.68-55.44-89.27-83.52-198-83.52-307.43 0-108 26.64-214.57 80.63-302.4 61.2-100.8 91.45-221.76 91.45-342 0-121.68-30.97-244.8-94.32-346.33-55.45-89.27-83.52-198-83.52-307.43 0-107.28 27.36-213.84 81.36-302.41 61.2-100.79 92.16-222.48 92.16-342.71 0-121.68-30.96-243.36-94.32-344.88-54.72-89.28-83.52-198-83.52-307.44 0-108 27.36-214.56 81.36-303.12 60.48-99.36 90-220.32 90-340.56 0-122.4-30.24-245.52-92.16-347.04-53.28-87.84-79.92-193.68-79.92-301.68 0-115.92 30.24-232.56 89.27-326.88 58.33-95.039 84.97-209.52 84.97-324 0-101.52-21.61-204.48-63.36-294.48" fill="#fcdb00"/><g><path d="m1075 4286.6 115.2-357.84 378 95.77-270-290.88 257.04-274.32-365.04 82.8-113.04-354.96-118.8 357.84-365.76-85.68 246.24 280.08-259.2 276.48 381.61-79.2 113.76 349.91"/><path d="m1075 5464.6 115.2-357.84 378 95.75-270-290.87 257.04-274.32-365.04 82.8-113.04-354.96-118.8 357.83-365.76-85.67 246.24 280.08-259.2 276.48 381.61-79.21 113.76 349.93"/><path d="m3577.7 1930.8 113.77-349.2 381.59 79.2-259.2-276.48 246.25-280.08-365.76 85.68-118.81-357.84-113.03 354.96-365.04-82.8 257.04 274.32-270 290.16 378-95.76 115.19 357.84"/><path d="m1075 3108.7 115.2-357.84 378 95.75-270-290.15 257.04-274.32-365.04 82.8-113.04-354.96-118.8 357.84-365.76-85.68 246.24 280.08-259.2 276.48 381.61-79.2 113.76 349.2"/><path d="m3577.7 3108.7 113.77-349.2 381.59 79.2-259.2-276.48 246.25-280.08-365.76 85.68-118.81-357.84-113.03 354.96-365.04-82.8 257.04 274.32-270 290.15 378-95.75 115.19 357.84"/><path d="m3577.7 4286.6 113.77-349.91 381.59 79.2-259.2-276.48 246.25-280.08-365.76 85.68-118.81-357.84-113.03 354.96-365.04-82.8 257.04 274.32-270 290.88 378-95.77 115.19 357.84"/><path d="m3577.7 5464.6 113.77-349.93 381.59 79.21-259.2-276.48 246.25-280.08-365.76 85.67-118.81-357.83-113.03 354.96-365.04-82.8 257.04 274.32-270 290.87 378-95.75 115.19 357.84"/><path d="m1075 1930.8 115.2-357.84 378 95.76-270-290.16 257.04-274.32-365.04 82.8-113.04-354.96-118.8 357.84-365.76-85.68 246.24 280.08-259.2 276.48 381.61-79.2 113.76 349.2"/></g><g fill="#0093dd"><path d="m2726 113.53c-129.6-23.039-263.52-35.277-399.6-35.277-126.72 0-252 10.801-372.96 31.68 91.44 200.16 84.24 458.64-25.2 648.72l-0.72 0.719-0.72 1.442c-110.88 167.04-112.32 418.32-7.92 588.96 128.88 211.68 131.04 514.8 2.16 726.48-101.52 167.04-101.52 406.08 2.16 572.4 131.76 211.68 132.48 511.92 2.16 725.76-101.52 166.32-100.8 405.36 2.16 570.96 132.48 212.4 133.2 512.64 2.88 726.48-101.52 167.04-100.8 406.08 2.16 572.4 66.24 105.12 97.92 231.84 99.36 356.39h779.03c-1.43-110.87-30.23-224.63-88.55-318.95-117.36-189.36-118.08-457.2-2.88-646.56 116.64-190.8 115.92-462.24-2.16-651.6-117.36-189.36-118.09-456.48-2.88-646.57 116.64-190.07 115.92-461.51-1.44-650.87-117.36-188.64-118.8-456.48-2.88-647.28 115.2-188.64 113.04-462.96-2.16-651.6-118.08-194.4-116.64-474.48 9.36-665.28 101.52-177.84 103.68-425.52 8.64-608.4"/><path d="m1074.3 1819.9 93.6-288 295.92 75.6-212.4-228.96 202.32-216.72-286.56 65.52-90.72-285.12-95.761 288-291.6-68.4 195.84 223.2-206.64 220.32 306-64.08 89.999 278.64"/><path d="m1074.3 2997.1 93.6-287.28 295.92 75.6-212.4-228.96 202.32-216-286.56 64.8-90.72-284.4-95.761 287.28-291.6-68.4 195.84 223.2-206.64 220.32 306-63.36 89.999 277.2"/><path d="m1074.3 4175 93.6-288 295.92 75.59-212.4-228.95 202.32-216-286.56 64.79-90.72-284.39-95.761 288-291.6-69.13 195.84 223.21-206.64 220.31 306-63.35 89.999 277.92"/><path d="m1074.3 5353.7 93.6-288 295.92 74.88-212.4-228.96 202.32-216-286.56 64.8-90.72-284.4-95.761 288-291.6-68.4 195.84 222.48-206.64 220.32 306-63.36 89.999 278.64"/><path d="m3578.5 1819.9 90-278.64 306 64.08-206.64-220.32 195.84-223.2-291.61 68.4-95.75-288-90.73 285.12-286.55-65.52 202.32 216.72-212.41 228.96 295.93-75.6 93.6 288"/><path d="m3578.5 2997.1 90-277.2 306 63.36-206.64-220.32 195.84-223.2-291.61 68.4-95.75-287.28-90.73 284.4-286.55-64.8 202.32 216-212.41 228.96 295.93-75.6 93.6 287.28"/><path d="m3578.5 4175 90-277.92 306 63.35-206.64-220.31 195.84-223.21-291.61 69.13-95.75-288-90.73 284.39-286.55-64.79 202.32 216-212.41 228.95 295.93-75.59 93.6 288"/><path d="m3578.5 5353.7 90-278.64 306 63.36-206.64-220.32 195.84-222.48-291.61 68.4-95.75-288-90.73 284.4-286.55-64.8 202.32 216-212.41 228.96 295.93-74.88 93.6 288"/></g></g></g></svg>
