<svg xmlns="http://www.w3.org/2000/svg" height="510" width="481"><defs><clipPath><path d="m 0,0 841.89,0 0,595.276 L 0,595.276 0,0 z"/></clipPath><clipPath><path d="m 744.8,8.515 h 73.13 V 62.504 H 744.8 V 8.515 z"/></clipPath></defs><g stroke="#000" stroke-linejoin="round" stroke-linecap="round" stroke-width="5"><path d="m 5.5 209.5 c 30 -50 45 -170 175 -170 30 -45 95 -45 120 0 125 0 145 125 175 170 0 10 -12.522 20.4 -20 25 -16.259 10 -35 9.177 -35 40 0 34.597 18.907 33.636 33.656 34.06 6.674 0.194 15.429 -0.426 14.514 10.02 -40 45 -78.17 100.91 -118.17 130.91 -40 30 -80 20 -110 55 -30 -35 -70 -25 -110 -55 -40 -30 -75 -81.83 -115 -126.83 0 -16.796 13.385 -11.924 26.303 -15.17 c 10.156 -2.551 20.898 -10.993 18.697 -33 c 0 -26.428 0.658 -28.09 -15 -35 -11 -4.856 -40 -13.492 -40 -30 z" fill="#fff"/><path d="m 20.5 214.5 c 30 -50 30 -160 160 -160 30 -45 95 -45 120 0 125 0 130 115 160 160 18.605 27.908 -40 15 -40 60 0 45 35 30 35 35 -40 45 -70 95 -110 125 -40 30 -75 15 -105 50 -30 -35 -70 -20 -110 -50 -40 -30 -65 -80 -105 -125 0 0 35 5 35 -35 0 -45 -53.853 -36.911 -40 -60 z" fill="#fcdd09"/></g><path d="m 223.88 164.56 l -1.063 -14.828 c -4.678 3.386 -10.942 15.61 -16.346 8.822 9.352 -4.743 11.856 -22.806 23.607 -28.47 -8.66 -3.271 -23.01 12.601 -30.28 -0.149 6.097 -0.635 13.97 -0.42 19.28 -4.02 5.71 -3.868 12.524 0.584 18.62 -5.184 -2.704 -2.637 -10.506 -0.555 -10.43 -7.05 6.814 0.311 14.831 3.629 20.19 0.307 l -7.62 -4.398 c 5.428 -5.427 13.795 -0.595 15.592 -8.03 -6.168 0.681 -4.582 -1.938 -0.509 -6.54 -1.477 -5.067 -24.18 4.733 -24.441 -9.411 7.857 0.34 20.235 1.251 25.723 -2.089 4.278 -2.604 -6.702 -12.14 -14.775 -13.906 -9.428 -2.062 -20.993 -1.023 -23.265 8.384 -6.88 -7.857 -0.056 -30.692 12.791 -30.832 6.969 -0.076 13.723 -2.267 17.883 -10.166 l 0.307 9.04 c 8.433 -2.568 13.754 -7.079 18.401 -10.333 -0.534 4.123 -4.467 9.168 -13.195 13.292 10.858 2.925 16.598 -1.827 24.547 -3.266 0.098 3.876 -4.091 6.819 -13.589 8.608 7.02 2.339 8.904 1.598 12.09 1.636 0.514 2.364 -2.661 3.498 -7.03 4.233 9.711 5.467 14.322 5.835 20.19 7.462 -2.523 1.394 -5.05 2.787 -12.37 1.782 1.656 5.949 4.114 11.591 11.702 16 -1.195 1.909 -3.261 2.729 -7.717 0.562 1.141 10.01 8.596 15.715 7.06 23.572 -2.028 -2.588 -4.978 -1.28 -7.01 -6.953 -4.346 20.93 1.064 22.895 5.066 36.407 -8.542 -4.03 -7.582 -7.881 -10.588 -12.475 -5.831 7.798 -0.629 16.975 -0.615 25.503 l -8.586 -10.324 c -0.356 5.441 -1.729 11.08 1.791 15.75 -4.416 2.403 -11.147 8.588 1.835 7.76 9.518 -0.607 8.705 11.01 12.663 18.08 4.301 -7.711 6.686 -9.417 10.214 -9.07 6.135 0.595 14.158 12.593 14.502 7.754 0.604 -8.496 -1.774 -21.251 2.176 -23 6.67 -2.953 15.204 11.56 19.236 6.644 8.187 -7.232 8.312 -13.61 7.313 -21.877 -2.986 -24.717 -9.376 -34.682 -23.15 -28.532 -10.05 4.487 -18.975 -5.728 -11.342 -15.719 5.807 -7.601 -3.896 -10.891 -3.162 -13.854 11.17 0.745 7.963 -9.285 15.386 -23.273 11.366 3.497 3.335 12.771 3.147 20.912 10.523 -7.367 19.298 -9.729 24.541 -14.947 10.671 8.546 -6.236 14.508 -9.765 22.62 9.418 3.054 22 -5.416 40.955 -8.766 1.406 10.898 -7.504 19.991 -23.467 25.1 14.772 4.348 32.515 11.02 54.22 10.746 -0.303 15.514 -13.416 15.16 -36.29 15.07 21.468 11.154 32.96 24.871 61.976 36.03 -7.288 27.19 -43.36 -0.914 -66.05 -3.507 14.674 23.286 41.3 45.768 66.16 64.53 -19.634 32.34 -51.19 -17.219 -77.02 -33.462 17.614 47.41 44.45 80.89 71.64 120.85 -27.314 41.671 -60.14 -58.09 -92.72 -102.66 5.628 39.2 5.294 65.48 16.57 96.77 -34.31 11.248 -34.13 -44.856 -46.33 -94.42 -4.04 22.73 -6.191 38.32 -4.631 55.44 -18.07 0.723 -18.11 -21.387 -17.1 -58.816 0.292 -10.798 -8.745 -10.66 -8.735 -4.693 0.012 6.65 -2.851 10.934 -6.348 9.92 -5.671 -2.985 -4.093 8.761 0.667 12.984 -8.885 6.497 -6.754 19.446 -0.202 18.261 -7.409 17.262 24.1 19.412 38.786 40.17 -5.949 2.391 -11.899 3.655 -17.848 0.36 1.533 3.307 9.235 7.535 7.07 10.842 13.334 5.151 28.441 22.569 42.07 29.911 10.674 5.623 4.207 -12.324 19.12 -10.579 3.304 -5.102 6.608 -3.699 9.911 -1.536 10.533 -8.374 20.382 2.577 15.653 8.235 -3 -2.479 -4.108 -6.536 -11.659 -5.224 0.875 9.632 -3.703 11.371 -11.677 6.795 -3.185 -1.828 -7.206 3.511 -9.13 9.517 6.838 1.628 11.67 -3.558 22.694 1.94 11.24 -3.294 23.769 -5.485 20.508 4.917 8.672 8.188 3.489 12.681 0.404 17.734 -1.146 -3.445 1.353 -8.347 -3.573 -10.28 -3.901 3.362 -7.188 2.057 -11.702 -3.117 -3.729 -4.273 -12.793 6.187 -20.21 -2.862 -3.069 -3.744 -7.219 -1.566 -10.06 0.571 1.333 5.435 11.166 3.897 8.84 10.421 -1.665 4.671 1.7 5.448 4.495 7.304 7.788 5.171 3.01 8.279 0.72 11.817 2.857 10.647 -2.159 12.633 -7.313 14.468 2.21 -4.468 5.318 -9.05 1.229 -12.73 -9.812 3.506 -10.817 -5.429 -4.442 -11.861 -5.486 -1.157 -6.915 -7.396 -7.141 -13.578 -0.11 -3.01 -4.01 -4.614 -6.66 -3.55 -15.182 6.09 -18.924 2.325 -21.526 -1.229 -8.312 4.209 -12 1.48 -15.495 -1.536 -8.774 -3.062 -9.468 1.957 -13.04 4.1 -3.15 -8.379 4.626 -10.04 15.284 -10.588 4.755 -0.244 12.264 -1.594 17.08 1.714 3.54 2.43 7.671 -0.554 8.374 -3.918 -15.7 -13.853 -26.587 -19.248 -46.32 -28.22 -3.722 -1.964 -4.546 -7.406 -4.188 -14.266 -1.486 10.415 -3.748 19.744 -13.301 18.866 6.862 -18.896 2.3 -28.634 -8.735 -35.33 -0.038 12.271 -5.159 22.954 7.409 16.97 -1.064 5.389 2.143 13.219 -9.56 12.528 -1.909 12.31 9.276 12.465 18.621 11.913 -2.141 3.02 -4.315 9.421 -16 3.231 6.691 8.938 18.05 9.468 29.02 -0.834 4.522 -4.246 6.249 2 6.351 6.892 9.09 -2.205 11.882 0.622 12.832 4.925 -5.479 -3.352 -16.323 9.01 -22.299 1.527 -9.353 7.368 -20.54 3.093 -27.24 -3.318 1.956 9.5 6.182 16.16 14.679 17.488 l -7.489 0.649 c 8.187 11.251 17.86 13.334 26.336 12.06 5.187 -0.778 11.818 -14.886 19.457 -4.74 -3.208 8.448 -9.03 12.771 -16.33 11.404 -10.772 -1.128 -21.544 -2.937 -32.32 -12.12 6.96 11.383 25.965 19.392 54.05 15.899 14.843 -1.846 29.535 8.227 36.09 19.981 7.786 13.958 2.402 23.644 -7.155 32.369 -9.72 8.875 -24.282 10.549 -32.527 5.637 -9.03 -5.38 -5.649 -23.11 9.771 -14.828 -8.04 1.054 -13.724 15.03 5.628 10.79 9.128 -2 14.746 -11.28 14.67 -22.756 -0.045 -6.815 -1.145 -13.977 -12.581 -15.952 6.567 10.846 3.802 25.806 -10.588 17.383 6.548 -4.129 4.841 -12.381 -3.318 -15.539 -16.527 -6.396 -35.404 -11.419 -46.01 -17.13 10.795 10.598 40.4 15.05 36.504 24.292 -5 11.872 6.1 5.757 9.719 7.655 -7.313 8.154 -23.589 5.135 -20.403 -8.84 1.727 -7.576 -13.626 -9.688 -23.274 -13.546 -1.042 8.919 9.868 10.218 15.628 15.504 4.208 3.862 6.529 9.321 1.764 13.792 -4.802 4.504 -10.818 2.885 -16.514 2.607 11.177 4.407 3.383 10.42 -9.104 13.195 9.138 -20.416 6.728 -38.707 -11.755 -62.736 1.139 4.328 -0.953 8.656 3.837 12.984 -1.447 1.917 -1.274 5.996 -7.313 1.791 3.941 8.667 4.612 19.712 16.926 22.29 0.855 9.254 -5.158 14.544 -13.292 8.788 -0.626 13.626 19.386 29.754 25.714 21.834 8.818 -11.04 22.698 -14.713 22.09 -5.215 -1.138 17.742 7.807 11.771 15.443 9.402 -2.61 15.936 -21.19 9.249 -25.618 4.609 -2.663 7.309 -9.737 7.07 -15.188 5.671 -8.717 -2.232 -15.949 -4.213 -23.923 -15.337 -0.631 13.99 20.426 15.781 15.03 27.409 -4.378 0.07 -9.515 -12.821 -12.221 -8.03 3.41 15.08 -4.075 11.513 -9.343 25.507 -5.269 -14.02 -12.753 -10.456 -9.343 -25.535 -2.706 -4.788 -7.843 8.103 -12.221 8.03 -5.396 -11.628 15.661 -13.419 15.03 -27.409 -7.974 11.124 -15.206 13.11 -23.923 15.337 -5.451 1.396 -12.525 1.637 -15.188 -5.671 -4.425 4.64 -23.01 11.327 -25.618 -4.609 7.635 2.368 16.581 8.34 15.443 -9.402 -0.609 -9.498 13.271 -5.823 22.09 5.215 6.328 7.921 26.34 -8.208 25.714 -21.834 -8.134 5.756 -14.15 0.466 -13.292 -8.788 12.314 -2.578 12.985 -13.623 16.926 -22.29 -6.04 4.205 -5.866 0.126 -7.313 -1.791 4.79 -4.328 2.698 -8.656 3.837 -12.984 -18.483 24.03 -20.893 42.32 -11.755 62.736 -12.487 -2.775 -20.281 -8.788 -9.104 -13.195 -5.696 0.278 -11.712 1.897 -16.514 -2.607 -4.765 -4.47 -2.444 -9.93 1.764 -13.792 5.76 -5.286 16.669 -6.586 15.628 -15.504 -9.648 3.858 -25 5.97 -23.274 13.546 3.186 13.976 -13.09 16.995 -20.403 8.84 3.619 -1.898 14.723 4.217 9.719 -7.655 -3.896 -9.242 25.708 -13.694 36.504 -24.292 -10.607 5.709 -29.484 10.732 -46.01 17.13 -8.159 3.158 -9.866 11.41 -3.318 15.539 -14.389 8.423 -17.16 -6.536 -10.588 -17.383 -11.435 1.975 -12.535 9.137 -12.581 15.952 -0.076 11.476 5.541 20.755 14.67 22.756 19.351 4.242 13.666 -9.736 5.628 -10.79 15.42 -8.278 18.801 9.448 9.771 14.828 -8.245 4.912 -22.807 3.238 -32.527 -5.637 -9.557 -8.725 -14.941 -18.411 -7.155 -32.369 6.556 -11.754 21.248 -21.827 36.09 -19.981 28.09 3.493 47.09 -4.516 54.05 -15.899 -10.772 9.187 -21.544 10.996 -32.32 12.12 -7.298 1.367 -13.12 -2.956 -16.33 -11.404 7.639 -10.145 14.27 3.962 19.457 4.74 8.476 1.271 18.15 -0.812 26.336 -12.06 l -7.489 -0.649 c 8.497 -1.324 12.723 -7.988 14.679 -17.488 -6.702 6.411 -17.889 10.687 -27.24 3.318 -5.976 7.484 -16.82 -4.88 -22.299 -1.527 0.95 -4.304 3.746 -7.131 12.832 -4.925 0.102 -4.888 1.829 -11.138 6.351 -6.892 10.971 10.302 22.332 9.773 29.02 0.834 -11.69 6.19 -13.863 -0.212 -16 -3.231 9.345 0.551 20.53 0.397 18.621 -11.913 -11.703 0.691 -8.496 -7.139 -9.56 -12.528 12.568 5.985 7.448 -4.699 7.409 -16.97 -11.04 6.693 -15.597 16.431 -8.735 35.33 -9.552 0.878 -11.814 -8.451 -13.301 -18.866 0.358 6.86 -0.466 12.302 -4.187 14.266 -19.732 8.968 -30.619 14.363 -46.32 28.22 0.703 3.364 4.834 6.348 8.374 3.918 4.821 -3.309 12.33 -1.959 17.08 -1.714 10.658 0.548 18.434 2.209 15.284 10.588 -3.569 -2.143 -4.263 -7.162 -13.04 -4.1 -3.496 3.02 -7.183 5.745 -15.495 1.536 -2.602 3.554 -6.345 7.319 -21.526 1.229 -2.654 -1.065 -6.55 0.54 -6.66 3.55 -0.226 6.183 -1.655 12.422 -7.141 13.578 6.375 6.432 5.37 15.367 -4.442 11.861 -4.089 3.681 -0.981 8.261 1.229 12.73 -5.154 -1.835 -10.17 -3.821 -7.313 -14.468 -2.291 -3.538 -7.07 -6.646 0.72 -11.817 2.795 -1.856 6.16 -2.633 4.495 -7.304 -2.325 -6.523 7.508 -4.986 8.84 -10.421 -2.841 -2.137 -6.992 -4.315 -10.06 -0.571 -7.417 9.05 -16.481 -1.411 -20.21 2.862 -4.515 5.174 -7.802 6.478 -11.702 3.117 -4.925 1.933 -2.427 6.836 -3.573 10.28 -3.086 -5.05 -8.268 -9.546 0.404 -17.734 -3.261 -10.401 9.268 -8.211 20.508 -4.917 11.02 -5.498 15.856 -0.312 22.694 -1.94 -1.923 -6.01 -5.945 -11.344 -9.13 -9.517 -7.974 4.576 -12.552 2.838 -11.677 -6.795 -7.551 -1.312 -8.658 2.745 -11.659 5.224 -4.729 -5.658 5.121 -16.609 15.653 -8.235 3.304 -2.163 6.608 -3.565 9.911 1.536 14.914 -1.745 8.447 16.202 19.12 10.579 13.628 -7.342 28.735 -24.76 42.07 -29.911 -2.167 -3.307 5.535 -7.536 7.07 -10.842 -5.949 3.295 -11.899 2.031 -17.848 -0.36 14.682 -20.761 42.507 -21.682 41.858 -38.944 6.552 1.185 9.913 -12.993 1.027 -19.49 4.76 -4.223 7.875 -14.433 -0.562 -12.37 l 0.105 -12.07 c 0.039 -4.414 -10.563 -7.03 -10.271 -1.146 1.856 37.4 -1.489 61.997 -19.555 61.27 1.56 -17.13 1.871 -33.33 -2.173 -56.06 -12.199 49.563 -20.01 111.2 -54.32 99.95 11.276 -31.29 22.619 -62.49 28.25 -101.69 -34.431 37.817 -75.24 142.49 -102.56 100.82 27.19 -39.963 60.17 -77.74 77.79 -125.16 -25.836 16.242 -55.55 65.8 -75.18 33.462 24.861 -18.759 49.642 -37.553 64.32 -60.839 -22.695 2.593 -58.766 27.628 -66.05 0.435 29.02 -11.154 48.5 -20.569 69.965 -31.723 -22.876 0.089 -39.677 -4.476 -39.98 -19.99 21.701 0.271 41.29 -0.867 56.06 -5.215 -15.963 -5.109 -24.872 -16.04 -23.467 -26.943 18.955 3.35 29.693 13.05 39.11 9.995 -3.529 -8.112 -14.15 -13.616 -3.477 -22.16 5.243 5.219 7.729 9.581 18.252 16.948 -0.188 -8.14 -5.282 -16.8 6.084 -19.99 4.04 8.764 3.649 25.292 16.14 19.278 0.427 2.964 -0.672 5.332 2.984 12.01 6.04 11.03 -5.593 21.436 -15.644 16.948 -13.775 -6.15 -25.696 1.357 -28.681 26.07 -0.999 8.268 -2.103 17.1 6.084 24.336 4.03 4.915 14.41 -3.451 21.08 -0.499 3.95 1.748 2.186 10.202 2.79 18.698 0.344 4.839 5.909 -5.315 12.04 -5.91 3.527 -0.342 10.215 -0.48 14.206 7.271 0.595 -5.974 -5.12 -13.666 11.422 -13.265 z"/><g fill="none" stroke-linejoin="round" stroke-linecap="round"><path d="m 328.93 68.12 c -1.738 5.551 -8.828 10.92 -11.435 14.955 m 34.511 -3.191 c -7.372 7.131 -13.806 9.765 -18.866 11.12 m -17.365 23.287 c 1.953 6.202 2.714 13.705 -0.72 19.735 m 2.44 16.737 c 16.219 -4.19 12.876 -29.02 4.491 -39.01 m -45.01 92.09 c -1.636 11.235 -6.358 31.362 -3.358 49.55 m 29.15 -34.449 c 0.126 25.02 0.123 44.08 4.855 62.19 m 56.49 27.04 c -13.14 -23.821 -19.855 -60.902 -31.842 -93.93 m 75.838 44.43 c -19.368 -8.926 -39.71 -39.04 -54.628 -61.805 m 74.18 4.442 c -24.738 -11.2 -46.38 -22.843 -63.01 -35.2 m 46.06 -22.16 c -18.248 -2.608 -32.617 -7.438 -43.14 -11.15 m 18.326 -30.569 c -13.591 4.562 -23.23 2.888 -35.27 5.109 m -243.05 -12.512 c 17.278 6.406 24.456 4.732 36.504 6.953 m -65.62 34.765 c 18.248 -2.608 38.15 -4.98 48.671 -8.691 m -65.62 66.05 c 24.738 -11.2 46.38 -22.843 63.01 -35.2 m -43.46 92.56 c 19.368 -19.522 39.4 -37.876 54.32 -65.18 m -12.168 110.38 c 13.14 -23.821 25.386 -54.756 37.37 -87.78 m 25.2 3.477 c -0.126 25.02 -1.352 48.38 -6.084 66.49 m 32.794 -76.67 c 1.636 11.235 2.363 31.976 -0.636 50.16 m -36.504 -103.86 c -16.219 -12.794 -2.735 -33.33 5.649 -43.31 m 6.518 3.762 c -1.953 6.202 -8.245 11.862 -1.738 19.12 m -44.33 -54.755 c 7.372 7.131 13.191 10.38 18.252 11.733 m 9.126 -20.425 c 1.738 5.551 3.911 10.305 6.518 14.341 m 36.07 5.649 c 15.06 4.465 29.11 -11.859 46.35 -3.911" stroke="#000" stroke-width="4"/><path d="m 253.81 59.45 c -2.038 -10.712 -7.447 -6.156 -13.354 -7.871 4.28 10.373 7.665 8.03 13.354 7.871" stroke="#fff" stroke-width="2.329"/></g><path d="m 334.99 68.38 a 1.699 1.699 0 1 1 -3.398 0 1.699 1.699 0 1 1 3.398 0 z" transform="matrix(1.15071 0.6973 -0.52315 1.13854 -99.65 -256.09)" fill="#fff"/><path d="m 355.5 429.5 v 15 m -20 0 v 15 m -15 -10 v 15 m -15 -10 v 15 m -10 -10 v 15 m -30 -5 v 15 m 10 -20 v 15 m 10 -20 v 15 m -45 10 v 20 m 60 -450 v -15 m -120 0 v 15" fill="none" stroke="#000" stroke-linejoin="round" stroke-linecap="round" stroke-width="5"/></svg>