<?xml version="1.0" encoding="UTF-8"?>
<svg width="550" height="630" viewBox="0 0 550 630" xmlns="http://www.w3.org/2000/svg"><path d="m541 9.225-8.031 355.58c-6 138-118.97 255.97-257.97 255.97s-251.97-118.97-257.97-255.97L8.998 9.225z" fill="#0093dd" stroke="#none"/><g stroke="#000"><path d="m534.96 274.67c-0.765 0.626-1.57 1.173-2.287 1.89-5.614 5.615-8.244 12.775-10.89 19.95-2.636 7.167-5.288 14.35-10.886 19.949-5.614 5.614-12.774 8.241-19.95 10.887-7.166 2.637-14.332 5.274-19.946 10.889-5.614 5.614-8.246 12.774-10.891 19.949-2.637 7.167-5.273 14.335-10.887 19.949s-12.774 8.241-19.95 10.887c-7.166 2.637-14.35 5.29-19.948 10.889-5.614 5.613-8.244 12.772-10.89 19.947-2.636 7.167-5.288 14.353-10.886 19.95-5.614 5.615-12.782 8.25-19.95 10.888-7.166 2.637-14.348 5.29-19.946 10.889-5.614 5.614-8.246 12.774-10.891 19.949-2.637 7.167-5.289 14.35-10.887 19.949-5.614 5.614-12.774 8.241-19.95 10.887-7.166 2.637-14.334 5.274-19.948 10.889-5.614 5.614-8.242 12.772-10.887 19.947-0.157 0.426-0.325 0.849-0.483 1.275-2.549-6.904-5.18-13.743-10.584-19.146-5.613-5.614-12.784-8.253-19.95-10.891-7.176-2.645-14.334-5.275-19.948-10.889-5.598-5.598-8.251-12.78-10.889-19.947-2.645-7.175-5.274-14.335-10.889-19.949-5.598-5.598-12.78-8.25-19.947-10.887s-14.335-5.275-19.949-10.889c-5.598-5.598-8.249-12.782-10.887-19.949-2.645-7.175-5.274-14.333-10.889-19.947-5.598-5.598-12.782-8.253-19.949-10.891-7.175-2.645-14.335-5.275-19.949-10.889-5.613-5.614-8.251-12.78-10.889-19.947-2.645-7.175-5.274-14.333-10.889-19.947s-12.78-8.251-19.947-10.889c-7.175-2.645-14.333-5.275-19.947-10.889-5.598-5.598-8.251-12.782-10.889-19.949-2.645-7.175-5.274-14.333-10.889-19.947-0.701-0.702-1.492-1.235-2.24-1.85l1.944 86.023c0.046 1.054 0.156 2.096 0.215 3.147 5.112 4.011 11.096 6.344 17.15 8.576 7.167 2.637 14.333 5.275 19.947 10.89 5.613 5.613 8.243 12.773 10.889 19.948 2.637 7.167 5.274 14.333 10.889 19.947 5.613 5.614 12.774 8.244 19.949 10.89 7.167 2.636 14.349 5.29 19.947 10.888 5.613 5.614 8.245 12.774 10.89 19.95 2.638 7.166 5.29 14.348 10.888 19.946 5.613 5.614 12.782 8.252 19.949 10.89 7.167 2.636 14.349 5.29 19.947 10.888 5.613 5.614 8.243 12.772 10.889 19.947 2.637 7.167 5.29 14.351 10.889 19.95 5.613 5.613 12.772 8.243 19.947 10.888 7.167 2.637 14.335 5.275 19.949 10.89s8.243 12.773 10.889 19.948c2.637 7.167 5.187 14.422 10.889 19.947 4.066 3.941 8.465 6.313 12.797 8.412 0.355 2e-3 0.704 0.028 1.06 0.028 0.269 0 0.533-0.021 0.8-0.022 3.597-2.647 9.257-6.77 13.058-10.492 5.614-5.614 8.251-12.78 10.889-19.947 2.645-7.175 5.273-14.337 10.887-19.951s12.784-8.25 19.95-10.887c7.176-2.645 14.334-5.273 19.948-10.887 5.598-5.598 8.253-12.784 10.89-19.951 2.646-7.175 5.274-14.335 10.888-19.949 5.598-5.598 12.782-8.25 19.949-10.887s14.333-5.275 19.947-10.889c5.598-5.598 8.251-12.78 10.889-19.947 2.645-7.175 5.273-14.335 10.887-19.949 5.598-5.598 12.782-8.25 19.949-10.887 7.175-2.645 14.335-5.275 19.949-10.889s8.251-12.782 10.889-19.949c2.645-7.175 5.275-14.337 10.889-19.951s12.782-8.25 19.949-10.887c6.114-2.254 12.154-4.614 17.299-8.701 0.015-0.317 0.05-0.63 0.064-0.947z" fill="#fff" stroke-width="4.2"/><path d="m541 9.225-8.031 355.58c-6 138-118.97 255.97-257.97 255.97s-251.97-118.97-257.97-255.97l-8.031-355.58z" fill="none" stroke-width="9"/><path d="m413.32 329.82-82.055-42.67 35.051 85.586-61.1-69.43 1.7636 92.47-31.893-86.813-31.757 86.863 1.622-92.471-60.992 69.524 34.919-85.64-81.992 42.798 63.495-67.244-91.91 10.29 83.5-39.765-89.423-23.608 92.225-6.9179-74.856-54.312 88.496 26.864-50.18-77.685 72.816 57.019-18.724-90.57 47.297 79.476 15.258-91.218 15.398 91.195 47.178-79.544-18.587 90.597 72.726-57.133-50.06 77.766 88.457-27.005-74.769 54.434 92.234 6.7749-89.387 23.744 83.56 39.636-91.926-10.148z" color="#000000" fill="#ffe300" stroke-linecap="square" stroke-miterlimit="10" stroke-width="4.2038" style="isolation:auto;mix-blend-mode:normal"/></g></svg>
