<?xml version="1.0" encoding="UTF-8" ?><svg width="605" height="752" viewBox="0 0 160.07 198.97" xmlns="http://www.w3.org/2000/svg"><g stroke="#000" stroke-linecap="round"><g fill-rule="evenodd"><g stroke-linejoin="round" stroke-width=".101"><path d="M34.435 2.737c6.349 1.915 13.202 3.426 17.233 7.66 6.55 6.953 5.644 21.364 12.396 28.015 6.853 6.651 21.264 5.644 28.016 12.396 6.752 6.752 5.644 21.264 12.396 28.016 6.752 6.752 21.264 5.744 28.016 12.396 6.752 6.752 5.744 21.264 12.396 28.016 3.023 3.023 7.558 4.535 12.295 5.845.202-2.015.302-4.132.302-6.248V2.733z"/><path d="M144.89 161.16c-.202-.302-.403-.504-.705-.806-6.954-6.45-21.264-5.644-28.016-12.396-6.652-6.752-5.644-21.264-12.396-28.016-6.753-6.652-21.264-5.644-28.016-12.396-6.753-6.752-5.644-21.264-12.396-28.016-6.753-6.752-21.163-5.745-28.016-12.396-6.753-6.652-5.846-21.062-12.396-28.016-4.636-4.938-13.101-6.148-20.357-8.566v88.28c0 10.986 2.418 21.87 6.852 31.847 7.357 16.326 20.155 29.528 36.078 37.489 35.272 17.535 77.901 5.845 99.366-27.008z" fill="#f00000"/><path d="M157.48 2.737h-51.598v77.296c7.155 5.434 20.256 4.938 26.605 11.186 6.752 6.752 5.744 21.264 12.396 28.016 3.023 3.023 7.558 4.535 12.295 5.845.202-2.016.302-4.132.302-6.248z" fill="#fcdb00"/><path d="m105.89 6.667-4.333 13.706L86.54 17.25 96.72 28.234 87.045 39.42l14.31-3.426L105.89 49.8z" fill="#fcdb00"/><path d="m105.89 49.8 4.333-13.807 15.016 3.225-10.179-11.086 9.675-11.186-14.31 3.426-4.535-13.706z" fill="#141416"/></g><path d="m28.993 91.824-3.527 11.086-11.992-2.52 8.162 8.869-7.76 8.96 11.489-2.813 3.729 11.488 3.527-11.387 11.387 2.713-7.961-8.76 8.365-9.271-11.791 3.024zm27.916 28.822-3.628 11.186-11.993-2.52 8.163 8.768-7.76 8.97 11.489-2.722 3.83 11.49 3.526-11.389 11.388 2.62-8.062-8.767 8.466-9.17-11.791 3.023zm34.063 28.923-3.628 11.186-11.993-2.62 8.163 8.868-7.76 8.97 11.488-2.822 3.83 11.489 3.528-11.388 11.387 2.72-8.062-8.767 8.465-9.272-11.79 3.116z" fill="#fcdb00" stroke-width="1.323"/><path d="M144.89 161.16c7.054-10.884 11.287-23.179 12.295-36.078-4.737-1.31-9.272-2.822-12.295-5.845-6.651-6.752-5.644-21.264-12.396-28.016-6.752-6.651-21.264-5.644-28.016-12.396-6.752-6.752-5.644-21.264-12.396-28.016-6.752-6.752-21.163-5.744-28.016-12.396-6.752-6.651-5.845-21.062-12.396-28.016-4.031-4.233-10.884-5.744-17.233-7.66H2.591v27.816c7.256 2.419 15.721 3.628 20.357 8.566 6.55 6.954 5.643 21.365 12.396 28.016 6.853 6.651 21.264 5.643 28.016 12.396 6.752 6.752 5.643 21.264 12.396 28.016 6.752 6.752 21.264 5.744 28.016 12.396 6.752 6.752 5.744 21.264 12.396 28.016 6.752 6.752 21.062 5.946 28.016 12.396.302.302.504.504.705.806z" fill="#fff" stroke-linejoin="round" stroke-width="1.323"/></g><path d="M45.52 188.17c-15.923-7.961-28.722-21.163-36.078-37.489-4.434-9.977-6.853-20.861-6.853-31.846V2.735h154.89v116.1c0 42.83-34.667 77.397-77.498 77.397a77.604 77.604 0 0 1-34.466-8.062z" fill="none" stroke-width="2.381"/></g></svg>
