<?xml version="1.0" encoding="UTF-8" standalone="no"?>
<!-- Created with Inkscape (http://www.inkscape.org/) -->

<svg
   xmlns:dc="http://purl.org/dc/elements/1.1/"
   xmlns:cc="http://creativecommons.org/ns#"
   xmlns:rdf="http://www.w3.org/1999/02/22-rdf-syntax-ns#"
   xmlns:svg="http://www.w3.org/2000/svg"
   xmlns="http://www.w3.org/2000/svg"
   version="1.1"
   width="1000.0066"
   height="1100.0189"
   id="svg2">
  <defs
     id="defs4" />
  <metadata
     id="metadata7">
    <rdf:RDF>
      <cc:Work
         rdf:about="">
        <dc:format>image/svg+xml</dc:format>
        <dc:type
           rdf:resource="http://purl.org/dc/dcmitype/StillImage" />
        <dc:title></dc:title>
      </cc:Work>
    </rdf:RDF>
  </metadata>
  <g
     transform="translate(175.13745,17.147823)"
     id="layer1">
    <g
       transform="translate(1389.3313,-37.959871)"
       id="g3940">
      <path
         d="m -572.91814,28.799457 c -19.76647,-0.773871 -969.54726,-0.429931 -984.04716,-0.277801 l 0,0 0.9046,613.459604 0,0 c 19.2918,238.98251 174.4771,461.88784 498.1479,471.33084 2.3259,0.068 471.73368,-1.4816 485.4692,-470.80391 0.96999,-56.81931 0.28743,-593.169026 -0.47454,-613.708733 z"
         id="path14"
         style="fill:#ffffff;fill-opacity:1;fill-rule:evenodd;stroke:#000000;stroke-width:14.99969387;stroke-linecap:butt;stroke-linejoin:miter;stroke-miterlimit:10;stroke-opacity:1;stroke-dasharray:none" />
      <g
         transform="matrix(0.89911587,0,0,0.89936824,-1377.8664,64.369793)"
         id="g3914">
        <path
           d="M -148.12049,187.78934 C -48.740705,324.64055 -23.008469,500.06905 -12.880042,683.67097 224.77305,708.52775 460.31871,741.46299 722.89237,670.79093 736.42187,531.86805 744.30772,400.73878 845.25277,141.09919 781.82499,77.197405 699.22936,73.99381 610.192,91.189028 l 10e-6,152.950502 C 357.86837,236.74636 212.70093,239.90788 96.600317,253.79956 74.086736,193.67102 99.156482,94.610668 28.980095,73.47897 -42.18371,89.343586 -102.69904,124.73041 -148.12049,187.78934 z"
           id="path3079"
           style="fill:#000000;fill-opacity:1;stroke:none" />
        <path
           d="m 25.125,92.78125 c -58.830183,13.82707 -113.267731,47.19699 -150.90625,94.8125 69.95652,20.73354 107.033112,42.60762 140.597285,93.62614 22.902524,34.28354 34.88564,94.04017 46.996465,133.40511 252.42161,0.88077 414.16754,8.57849 615.53125,-6.75 14.09127,-48.02419 25.63331,-97.23428 46.78125,-142.75 21.88375,-46.17556 60.90827,-80.72238 96.19771,-116.63125 7.07699,-3.58945 -1.69617,-6.66503 -4.48304,-9.76832 C 774.35041,106.11868 719.40991,95.817126 667.75,101.375 c -13.27879,1.04686 -26.43331,2.56256 -39.5625,4.875 0,52.14583 0,104.29167 0,156.4375 C 452.39746,258.51276 275.78022,251.78299 100.65625,271.75 89.807175,275.67641 78.053718,265.99534 77.808772,254.95757 62.323467,208.35968 72.300127,156.16232 50.59375,111.375 45.250736,102.77773 37.336283,94.966245 27.4375,92.25 c -0.770833,0.177083 -1.541667,0.354167 -2.3125,0.53125 z"
           id="path3890"
           style="fill:none;stroke:#ffffff;stroke-width:12;stroke-linecap:butt;stroke-linejoin:miter;stroke-miterlimit:4;stroke-opacity:1;stroke-dasharray:none" />
        <path
           d="m 566.72186,674.01094 45.08015,243.1108 m -441.14145,-239.89079 -43.47014,252.77083 1.61,3.22001 m 241.5008,-915.288002 152.95049,0 0,60.375198 -56.35018,0 93.38031,502.321644 c 29.11532,79.01703 67.22644,95.06346 104.65034,115.92038 L 701.9623,931.61179 521.64171,962.20189 481.39158,723.9211 c 51.86397,-51.14358 28.12545,-91.90764 37.03012,-135.24044 l -98.21032,-510.371674 -49.91016,0 z m -230.23076,0 171.46557,0 0,60.375198 -57.1552,0 -54.74017,494.271614 c 0.5028,59.10079 9.01064,121.00704 56.35018,154.56052 L 206.08068,976.69193 25.760085,936.4418 69.230227,714.26107 C 138.74139,679.05124 142.3539,622.82183 157.78051,570.9706 l 51.52018,-492.661614 -69.23023,0 z"
           id="path3856"
           style="fill:#ffff00;stroke:#000000;stroke-width:9;stroke-linecap:round;stroke-linejoin:round;stroke-miterlimit:4;stroke-opacity:1;stroke-dasharray:none" />
        <g
           id="g3910">
          <path
             d="m 213.70748,435.9233 c -8.76113,6.53668 -21.46362,1.43885 -28.375,-11.375 -10.86919,-21.08331 -4.16878,-26.00281 -5.93579,-44.47159 -20.23951,12.06615 -26.42481,44.96206 -11.62671,69.78409 14.7981,24.82204 43.198,35.15989 63.4375,23.09375 20.23951,-12.06614 21.45964,-41.02023 12.81534,-68.59546 -5.59275,-17.84084 -6.49463,-17.88443 -24.9195,-29.70671 l -2.32476,22.90106 c -0.34765,0.56239 9.4024,28.2651 -3.07108,38.36986 z"
             id="path3884"
             style="fill:#ffffff;fill-opacity:1;stroke:#000000;stroke-width:7;stroke-linecap:round;stroke-linejoin:round;stroke-miterlimit:4;stroke-opacity:1;stroke-dasharray:none" />
          <path
             d="m 486.55903,430.57443 c 8.76113,6.53668 21.46362,1.43885 28.375,-11.375 10.86919,-21.08331 4.16878,-26.00281 5.93579,-44.47159 20.23951,12.06615 26.42481,44.96206 11.62671,69.78409 -14.7981,24.82204 -43.198,35.15989 -63.4375,23.09375 -20.23951,-12.06614 -27.61344,-43.77342 -12.81534,-68.59546 10.63613,-17.84084 8.90365,-12.53556 22.54223,-30.30103 l 4.10771,25.27834 c 0.94197,1.75103 -8.80808,26.48214 3.6654,36.5869 z"
             id="path3888"
             style="fill:#ffffff;fill-opacity:1;stroke:#000000;stroke-width:7;stroke-linecap:round;stroke-linejoin:round;stroke-miterlimit:4;stroke-opacity:1;stroke-dasharray:none" />
        </g>
      </g>
    </g>
  </g>
</svg>
