<?xml version="1.0" encoding="UTF-8" standalone="no"?>
<!-- Created with Inkscape (http://www.inkscape.org/) -->

<svg
   xmlns:dc="http://purl.org/dc/elements/1.1/"
   xmlns:cc="http://creativecommons.org/ns#"
   xmlns:rdf="http://www.w3.org/1999/02/22-rdf-syntax-ns#"
   xmlns:svg="http://www.w3.org/2000/svg"
   xmlns="http://www.w3.org/2000/svg"
   xmlns:sodipodi="http://sodipodi.sourceforge.net/DTD/sodipodi-0.dtd"
   xmlns:inkscape="http://www.inkscape.org/namespaces/inkscape"
   version="1.0"
   width="208.86046"
   height="244.65999"
   id="svg2780"
   inkscape:version="0.92.4 (5da689c313, 2019-01-14)"
   sodipodi:docname="Schnottwil-blazon.svg">
  <metadata
     id="metadata27">
    <rdf:RDF>
      <cc:Work
         rdf:about="">
        <dc:format>image/svg+xml</dc:format>
        <dc:type
           rdf:resource="http://purl.org/dc/dcmitype/StillImage" />
        <dc:title></dc:title>
      </cc:Work>
    </rdf:RDF>
  </metadata>
  <sodipodi:namedview
     pagecolor="#ffffff"
     bordercolor="#666666"
     borderopacity="1"
     objecttolerance="10"
     gridtolerance="10"
     guidetolerance="10"
     inkscape:pageopacity="0"
     inkscape:pageshadow="2"
     inkscape:window-width="1627"
     inkscape:window-height="1408"
     id="namedview25"
     showgrid="false"
     inkscape:zoom="4"
     inkscape:cx="128.49801"
     inkscape:cy="109.24523"
     inkscape:window-x="-7"
     inkscape:window-y="0"
     inkscape:window-maximized="0"
     inkscape:current-layer="svg2780"
     inkscape:measure-start="104.255,149.787"
     inkscape:measure-end="104.255,126.383"
     showguides="true"
     inkscape:object-paths="true"
     inkscape:snap-intersection-paths="true" />
  <defs
     id="defs2782" />
  <path
     inkscape:connector-curvature="0"
     style="fill:#cc2918;fill-opacity:1;fill-rule:evenodd;stroke:#000000;stroke-width:1.99999988;stroke-linecap:butt;stroke-miterlimit:4;stroke-dashoffset:0;stroke-opacity:1"
     id="path4212"
     d="m 1,1 3.761095,158.00304 c 2.686489,112.85918 196.651755,112.85918 199.338255,0 L 207.86045,1 Z" />
  <path
     id="path20849-6"
     style="opacity:1;fill:#feeb00;fill-opacity:1;stroke:#000000;stroke-width:1;stroke-miterlimit:4;stroke-dasharray:none;stroke-dashoffset:4.57999992;stroke-opacity:1"
     d="m 89.559355,213.82918 8.249995,-56.375 c 1.26485,-12.61648 -15.273655,-10.1784 -25.597255,-10.02137 -22.61333,2.23941 -34.77944,-5.46513 -32.60161,-55.272822 1.45257,-33.220908 -4.9621,-58.207251 -19.250005,-75.75 22.202545,3.848748 32.732955,36.24728 44.000005,82.625002 4.13527,17.0217 24.59898,16.08713 25.25,3.625 2.52842,-48.400066 6.229105,-67.516203 14.819755,-81.500002 8.59065,13.983799 12.29134,33.099936 14.81976,81.500002 0.65102,12.46213 21.11473,13.3967 25.25,-3.625 11.26705,-46.377722 21.79746,-78.776254 44,-82.625002 -14.2879,17.542749 -20.70257,42.529092 -19.25,75.75 2.17783,49.807692 -9.98828,57.512232 -32.60161,55.272822 -10.3236,-0.15703 -26.86211,-2.59511 -25.59726,10.02137 l 8.25,56.375 c 1.0233,6.99257 -8.31812,10.01536 -14.87089,10.01536 -6.55277,0 -15.894185,-3.02279 -14.870885,-10.01536 z"
     inkscape:connector-curvature="0"
     sodipodi:nodetypes="sccscsscsscsccscs" />
  <path
     id="path20855-3"
     style="opacity:1;fill:none;fill-opacity:1;stroke:#000000;stroke-width:1;stroke-miterlimit:4;stroke-dasharray:none;stroke-dashoffset:4.57999992;stroke-opacity:1"
     d="m 89.49202,215.18248 c 0.14536,-5.82027 8.53845,-8.66206 14.93822,-8.66206 6.39977,0 14.79286,2.84179 14.93822,8.66206"
     inkscape:connector-curvature="0"
     sodipodi:nodetypes="ccc" />
  <path
     style="opacity:1;fill:none;fill-opacity:1;stroke:#000000;stroke-width:1;stroke-miterlimit:4;stroke-dasharray:none;stroke-dashoffset:4.57999992;stroke-opacity:1"
     d="m 111.08551,157.68912 c -2.79675,-19.12728 10.73163,-21.23929 26.31418,-18.87418 17.68832,2.68472 29.71293,-3.88518 31.29831,-19.99345"
     id="path20857"
     inkscape:connector-curvature="0"
     sodipodi:nodetypes="csc" />
  <path
     style="opacity:1;fill:none;fill-opacity:1;stroke:#000000;stroke-width:1;stroke-miterlimit:4;stroke-dasharray:none;stroke-dashoffset:4.57999992;stroke-opacity:1"
     d="M 97.77497,157.68912 C 100.57172,138.56184 87.04334,136.44983 71.46079,138.81494 53.77247,141.49966 41.74786,134.92976 40.16248,118.82149"
     id="path20857-5"
     inkscape:connector-curvature="0"
     sodipodi:nodetypes="csc" />
</svg>
