<svg height="475.58392" viewBox="0 0 400 380.46714" width="500" xmlns="http://www.w3.org/2000/svg"><g transform="matrix(.41292028 0 0 .41292028 3.999998 -3.60137)"><path d="m233.0146 20.771009c8.5456-.441 17.052-1.4602 25.5878-2.0972 10.4762-.1666 20.9916-.637 31.4188.6566 17.64.7154 35.035 3.8318 52.283 7.399 11.1426 2.224601 21.9422 5.791801 32.7908 9.074801 18.5122 5.5958 36.6422 12.397 54.5958 19.5706 9.7118 3.3712 18.8356 8.1438 28.322 12.0442 5.6938 2.3226 10.9564 5.5272 16.5032 8.1438 1.8424-.2254 3.3418-1.4896 4.9882-2.2638 8.134-4.7334 17.0324-7.8988 25.5192-11.9266 5.586-2.7048 11.4366-4.7922 17.2284-6.9972 17.8066-7.2128 35.8974-13.7396 54.292-19.2962 15.2292-4.8902 30.723-8.967001 46.5402-11.417001 11.9364-2.3912 24.0492-3.7142 36.2012-4.3218 17.738-1.9796 35.6034-.4312 53.3022 1.1956 12.5342.49 24.794 3.3908 37.0146 5.9976 30.576 5.586001 60.3092 15.131201 89.1114 26.714801 13.6906 6.1152 26.901 13.2986 39.7586 21.021 9.506 6.5562 19.6686 12.201 28.469 19.747 14.6902 12.6028 29.2628 25.382 42.3948 39.641-3.8612 7.3304-7.644 14.7196-10.731 22.4224-4.312 11.074-9.6334 21.805-12.6322 33.3592-5.047 18.6788-9.6726 37.5536-11.9266 56.8008-3.2536 28.4102-7.4676 56.742-8.6632 85.3384-1.9012 32.7124-4.3904 65.3954-6.8306 98.0686-2.9792 35.4662-4.0082 71.1676-9.9764 106.3202-2.009 12.6812-4.6746 25.235-7.3598 37.779-2.0874 9.9274-5.2332 19.5902-7.8302 29.4-3.8416 14.2198-9.8196 27.7536-16.3758 40.9052-9.5354 19.208-21.6874 37.093-35.721 53.2924-6.7914 7.8792-14.0434 15.3762-22.0402 22.0402-9.3884 8.379-19.2178 16.2778-29.547 23.471-10.1528 6.321-20.776 11.8286-31.3992 17.3166-16.9246 8.4966-34.055 16.6796-51.8028 23.3436-15.8074 5.39-31.7226 10.4762-47.5986 15.68-14.7196 4.802-29.1844 10.3194-43.9138 15.092-11.9168 3.7044-23.2162 9.0356-34.5058 14.2982-14.7882 6.5366-28.3416 15.6506-40.6406 26.0974-8.1536 7.0658-16.2778 14.2492-23.2554 22.5204-4.9588 5.3508-9.3982 11.2896-12.2794 18.032-3.528 8.3692-6.9776 16.7776-10.3586 25.2056-3.2928-8.5652-5.8604-17.395-9.163-25.9504-2.9694-6.3994-7.2422-12.103-12.0148-17.2578-8.3888-9.8686-18.2574-18.326-28.175-26.607-6.8208-5.439-14.0434-10.3684-21.56-14.7882-7.9968-4.7824-16.6404-8.3006-25.0488-12.2402-17.0128-8.1438-35.4172-12.6616-52.9396-19.4922-20.8054-7.0952-41.8166-13.5926-62.6122-20.727-16.807-6.321-33.0358-14.0434-49.1078-22.0304-11.3778-5.8506-22.7948-11.7012-33.663-18.4632-13.23-9.163-25.5192-19.6196-37.387-30.4682-28.224-27.4008-49.646801-61.544-63.014001-98.49-3.4692-10.4468-6.125-21.1386-9.1532-31.7128-5.5076-23.1672-9.9764-46.6088-12.7498-70.2562-3.2634-29.449-4.6452-59.0646-7.0266-88.6018-3.1262-38.7296-5.5076-77.518-7.9478-116.2966-2.4696-22.5988-5.1744-45.178-7.9968-67.7376-2.6656-17.4146-6.7914-34.594-11.515-51.5578-2.9498-10.78-7.938-20.825-11.956-31.213-3.1261996-7.8694-6.9971996-15.4056-10.91719963-22.8928 13.80819963-14.9744 29.15499963-28.4004 44.68799963-41.5422 8.036-6.5072 17.101-11.5836 25.578-17.4734 12.7792-7.7518 25.9602-14.8862 39.582201-21.0602 25.9308-10.5448 52.6554-19.2668 80.0464-25.137 14.3766-2.528401 28.5082-6.634601 43.12-7.673401z"/><path d="m230.0452 36.65681c19.3648-1.4896 38.8374-4.0376 58.261-1.8914 20.0018.98 39.8076 4.5374 59.2606 9.1728-.2058 91.6594-.098 183.309-.3626 274.9684-28.7728 4.263-57.7416 8.4084-85.603 17.052-12.1226 3.5574-23.7454 8.5358-35.4662 13.2006-13.23 5.9192-26.411 12.0736-38.7982 19.6196-.0686-74.4506-.1666-148.9012-.1862-223.342-.049-10.1528.1666-20.3056-.2744-30.4486-.0392-23.3044.01-46.6088-.0294-69.9132 14.3766-2.9008 28.6552-6.4092 43.1984-8.4182z" fill="#0f47af"/><path d="m631.0808 38.08761c12.201-2.4696 24.6666-2.8518 37.0342-3.9102 13.4554-.6272 26.9304.2156 40.3074 1.6464 18.1006.6762 35.6328 5.684 53.3218 9.1042-.1078 120.5792-.0392 241.1584-.2156 361.7376-5.4782-9.5648-10.143-19.6294-16.6306-28.5768-10.3782-14.5138-19.8646-29.7332-31.654-43.1788-6.7522-8.3006-13.0438-16.9932-20.4036-24.794-5.3116-5.5272-10.6918-11.0054-15.7094-16.8168-10.0548-10.829-20.8152-20.9818-30.8014-31.8892-15.1018-15.5722-30.7034-30.7132-44.4136-47.5594.1764-56.6636.1078-113.3272.245-169.9908 9.5158-2.4892 19.208-4.1944 28.9198-5.7722z" fill="#0f47af"/><path d="m530.376 67.94821c20.8936-8.5554 42.385-15.5722 64.0234-22.001-.0686 52.773-.0686 105.5558-.2058 158.3386-5.3508-7.056-10.9466-13.9258-15.9446-21.2366-8.7122-13.9944-16.6404-28.469-23.5494-43.4336-8.1242-19.9136-12.9066-40.9542-18.1104-61.7596-9.1826 4.1552-17.983 9.1042-26.9108 13.7788-10.5546 5.4096-19.5804 13.2104-28.9394 20.384-18.6102 14.1022-34.447 31.4384-49.5096 49.1764-8.575 9.849-16.0818 20.5506-23.5494 31.2424-5.6154 8.5554-11.8482 16.7286-16.8266 25.6858-3.9102 6.8698-7.9282 13.6906-11.6522 20.6682-4.3904 8.1634-6.9384 17.1108-10.2802 25.7152-5.6938 14.7588-8.6534 30.3702-13.8572 45.2956.0196-87.8766.0294-175.7532.2646-263.6298 21.0504 6.0368 41.846 12.9654 62.132 21.1974 8.2418 3.185 16.562 6.2034 24.5 10.1038 11.1034 4.7824 22.3538 9.5648 32.291 16.5522 7.5362-4.0376 14.8274-8.5652 22.6772-12.0148 11.1034-4.7824 22.0304-10.0156 33.4474-14.063z" fill="#fcdd09"/><path d="m114.4934 68.56561c21.0602-8.7024 42.7182-16.0132 64.8172-21.6384.0588 108.8094.147 217.6286.2842 326.4478-14.259 8.0262-27.5086 17.7772-39.5038 28.9002-7.2814 7.1834-15.3958 13.5534-21.8246 21.5698-12.7106 14.798-22.775201 31.654-31.311001 49.147 10.5742 3.8024 21.177801 7.6832 31.075801 13.0438 9.5746 5.5566 18.473 12.1814 27.0382 19.1786 12.1814 9.4178 23.8336 19.5412 34.692 30.4682-.01 62.6906.1666 125.3714.1372 188.0522-7.0756-5.3018-13.8082-11.0152-20.4134-16.8854-11.9266-9.9372-21.9128-21.952-31.3208-34.2314-13.5142-18.1104-24.2256-38.2004-32.447801-59.2214-3.0576-7.4284-4.8118-15.2782-7.1246-22.9418-3.3222-11.3288-6.0662-22.8046-8.232-34.4078-4.4198-20.678-7.2716-41.6598-9.3002-62.6906-3.0086-43.1592-6.3994-86.2694-9.4668-129.4188-1.2348-19.6196-2.3912-39.2392-3.7338-58.8588-1.9894-19.2962-4.5472-38.5336-6.7032-57.8102-1.6562-14.8176-4.5472-29.4784-8.1144-43.953-3.1948-13.2692-6.5268-26.5972-12.0834-39.1118-4.0082-9.261-7.3892-18.7964-12.005-27.783 6.1838-6.3406 12.7204-12.3284 19.4236-18.1006 8.4966-7.6048 16.9148-15.4154 26.5874-21.5404 5.1548-3.234 10.2116-6.6248 15.2978-9.9666 11.1132-6.6248 22.530201-12.7302 34.231401-18.2476z" fill="#fcdd09"/><path d="m769.3098 412.91801c.0588-122.059.0196-244.118.1764-366.1672 22.2656 5.733 44.1392 13.0242 65.3856 21.8344 11.8384 5.5958 23.4122 11.76 34.643 18.5122 5.5076 3.6946 11.0936 7.2814 16.66 10.8878 6.5954 4.312 12.5636 9.4766 18.4534 14.6804 8.7024 7.7812 17.6204 15.3468 25.7446 23.7454-4.7432 9.2512-8.2222 19.061-12.3382 28.5866-6.3308 14.4746-9.7314 29.9586-13.4162 45.2466-3.4496 14.8078-5.8212 29.8312-7.3696 44.9526-1.9894 17.6498-4.4296 35.2604-6.027 52.9592-2.94 50.2838-6.7032 100.5186-10.5056 150.7534-1.1368 14.7686-1.8914 29.5666-3.43 44.296-2.8812 25.9896-7.4088 51.8224-13.7788 77.1848-3.5868 12.4068-6.4288 25.088-11.4856 37.0048-9.457 23.1574-22.0696 45.0996-38.0632 64.3762-6.9188 8.281-13.9944 16.5424-22.3048 23.4906-7.3598 6.4484-14.651 13.0144-22.6674 18.6494-.0392-31.4678-.0588-62.9454.0196-94.4132.0392-1.764.01-3.5672.6664-5.2234 7.301-14.749 13.3476-30.2134 17.444-46.1776 4.0866-19.1394 7.056-38.7002 6.321-58.3198-.5096-18.8062-1.1074-37.9848-7.0658-55.9972-3.969-13.8082-9.5746-27.0676-15.68-40.0428-1.911-3.3124-1.323-7.1932-1.3818-10.8192z" fill="#fcdd09"/><path d="m503.0634 110.49001c7.7224-5.978 16.66-10.0548 25.2154-14.6608 4.2042 16.6992 8.6534 33.418 15.2978 49.3332 7.7518 16.4346 16.3268 32.5066 26.3032 47.6966 10.8388 14.4256 21.7854 28.8218 33.9962 42.1302 10.4174 12.0442 22.0696 22.932 33.0358 34.4666 9.5844 10.5056 19.8646 20.3252 29.6646 30.625 4.998 5.7232 10.2214 11.2504 15.5134 16.6992 7.84 8.0066 14.3962 17.1304 21.4424 25.8132 10.976 12.5048 19.9136 26.5874 29.498 40.1506 9.4472 12.7204 15.6114 27.4302 23.765 40.9346 7.1246 14.2002 13.4064 28.8904 17.8458 44.1686 5.0078 15.1214 5.684 31.1934 6.272 46.9812 1.323 17.8164-1.176 35.623-4.312 53.1258-1.9698 10.8192-5.4488 21.2954-9.5354 31.4776-10.0744 27.5478-28.1848 51.1952-47.5006 72.8924-8.134 9.7216-17.493 18.2966-26.7344 26.9206-9.604 9.3296-21.0994 16.3268-32.3008 23.5298-15.2292 9.31-30.9778 17.7968-47.3438 24.941-16.856 7.399-34.0844 14.161-51.989 18.5612-12.397 3.4202-25.2644 4.4884-38.0142 5.7428-19.3256.4214-38.71-.9016-57.7612-4.214-15.9936-3.1458-32.242-6.0466-47.285-12.5636-15.9152-6.5954-31.4286-14.7098-44.5018-26.0484-9.5648-8.1634-20.0802-15.1704-29.204-23.8434-10.5252-10.3782-21.7854-20.0214-31.5756-31.1248-15.1606-15.5232-28.4494-32.6928-41.8852-49.686-15.778-19.2472-29.3608-40.2388-46.0012-58.8-7.0168-8.1732-13.6514-16.7384-21.5698-24.0884-14.4158-14.6412-29.0472-29.1648-45.2172-41.8754-13.8376-11.0936-27.8026-22.5008-44.2274-29.547-3.136-1.4112-6.3112-2.7244-9.4962-4.018 8.1732-15.2096 18.1594-29.5274 30.2036-41.9146 8.5064-7.5558 16.3366-15.8662 25.4212-22.7458 12.0736-10.2116 26.1954-17.5224 39.6312-25.725 14.0532-7.5754 28.469-14.5628 43.4336-20.1292 27.0872-11.3778 56.1148-16.9148 84.9954-21.4718 11.2798-1.6268 22.5596-3.3222 33.761-5.4292 3.5868-11.1524 7.4872-22.2166 10.535-33.5356 2.3912-8.8102 4.753-17.6498 8.0164-26.1758 3.5378-9.1434 6.2132-18.6788 11.172-27.195 6.0662-10.5546 11.6718-21.413 18.7376-31.3404 9.9372-14.553 19.747-29.2628 31.3698-42.5418 11.123-13.2104 22.932-25.9014 35.7994-37.4164 8.3104-6.958 16.8658-13.6024 25.529-20.0998z" fill="#fcdd09"/><path d="m474.6238 265.53581c6.4386-5.9192 15.4056-8.9082 24.0982-8.5162 6.7228.8232 14.0042 1.6856 19.3942 6.223 2.1266 2.1952 5.3116 1.323 8.036 1.3818 9.7902-.6664 19.7274-.3724 29.3314 1.7836 6.7032 1.8424 13.769 4.851 17.6204 10.9858 5.2038 9.0454 5.4586 19.7176 7.1148 29.7626.147 1.9698 1.8424 3.1948 3.4594 4.0278 4.7236 2.45 10.0254 3.4006 15.1312 4.7432-1.2348 2.3128-2.4206 5.243-5.2724 5.8996-3.8906.6468-7.8596.3528-11.7698.5488 2.107 3.0576 4.508 6.223 4.704 10.094.4214 5.7232.2548 11.5248-.5292 17.2186-.147 1.8816-1.6758 3.0772-2.9498 4.2532-2.1658-2.9694-3.8808-6.223-5.1156-9.6824-2.0874-5.684-5.6546-11.0838-10.9564-14.21-4.8216-2.9792-9.9862-5.733-15.6604-6.566-1.6954-.2548-3.2634.637-4.8216 1.0976 2.9694 3.0674 7.0952 4.949 9.3296 8.7318 3.2536 5.2136 6.468 10.7604 7.3598 16.9344.441 2.0482-.539 3.9494-1.3524 5.7526-14.1512-4.3316-27.538-10.7506-40.5426-17.738-7.0756-4.3316-14.1218-9.9764-16.8658-18.1006-2.0972-6.0858-1.5974-13.083 1.8522-18.571 3.5476-5.88 6.6444-12.8184 4.312-19.747-1.0388-3.9102-5.5664-4.8608-9.0062-5.3606-5.6056.1764-11.2014 3.0674-14.0336 8.0262-3.8024 5.0078-4.3316 11.613-3.381 17.64.7448 7.4872 4.116 14.4746 8.4182 20.5506 9.5844 11.564 22.5596 19.5902 35.2016 27.3812 13.965 7.6244 28.3318 14.4942 42.4928 21.7364 4.7334-5.2136 10.388-10.192 17.5224-11.5444 8.134-1.47 16.4542-.392 24.5686.6958 7.8498 1.0584 15.288 3.9298 22.8634 6.1152 2.9596.8918 6.076.637 9.114.3332.7938-2.4206 1.4896-5.194-.098-7.4578-2.4598-3.822-5.7918-6.9776-8.8102-10.339-4.949-5.6252-12.005-8.9278-19.1492-10.7702-2.3618-.3332-2.303-3.0184-2.793-4.7824 13.6514-2.3128 29.547-1.5092 40.2584 8.3496 3.9298 3.2732 5.1352 8.4476 7.5166 12.7694-.196-5.0862-2.4892-9.7216-4.3414-14.3472-2.156-5.5468-6.3896-10.045-11.2504-13.3476-4.1454-2.7244-9.163-3.2242-13.818-4.557.5096-1.5092.8134-3.675 2.9694-3.3712 8.5554-.5586 17.4244-.6762 25.6564 2.0874 7.7224 3.0478 14.6412 8.6828 18.1006 16.3758 2.6068 5.0176 5.1058 10.2802 5.439 16.0328.6664 10.3096.3038 20.9818-3.4398 30.7328-2.4402 6.811-10.6232 8.967-17.1304 9.0454-14.896-.8036-29.6548-3.6848-43.9824-7.8008-10.2018-2.3814-20.482-5.7624-31.0954-4.6256 3.0478 3.6064 7.5656 5.2626 11.4758 7.693 12.6322 7.2324 26.1856 13.6416 36.211 24.4902 4.2434 4.753 8.1438 10.1724 9.4864 16.5228 2.6852 11.956.7252 24.3432 3.0184 36.3678 13.23 1.078 26.2346 8.1732 33.2416 19.6196 1.2936 1.7836 1.5974 4.0082 1.7542 6.1544-6.8698-2.9792-12.2206-8.771-19.6098-10.7702 4.067 5.3018 10.535 8.0164 14.3276 13.5828 3.2438 3.626 2.4892 8.7514 2.1168 13.2006-6.909-5.7624-13.769-12.2696-22.6772-14.6902 1.7542 5.2724 5.7036 9.2708 8.7024 13.818 2.597 4.1748 7.1148 6.664 9.6236 10.9172 2.2442 3.7436 4.8412 7.693 4.7138 12.25.098 3.1262-.7252 6.1838-1.764 9.114-7.5166-11.7012-16.072-23.8434-29.1158-29.8018-7.4186-3.1556-15.7976-5.1744-23.8042-3.3222-10.5644 1.5876-20.9622 4.1356-31.5658 5.488-5.8506.3528-11.7698.2058-17.5518 1.323-.7938 5.39-.4606 10.8486-.8526 16.268-.098 2.0874-.098 4.606 1.8326 5.9486 2.9302 2.9792 7.4382 2.8322 11.27 2.1952 4.4002-.9212 8.7514-2.1364 13.083-3.3614 5.4978-1.715 8.7808-7.0658 14.161-8.9964 2.5774-1.0584 5.3802-1.2054 8.134-1.2152-.0588 1.715.441 3.5574-.2352 5.2136-2.2736 2.597-5.6154 3.9004-8.1536 6.2132 5.1646 1.0094 10.5252-.4606 14.9254-3.2046 2.156-1.9698 3.1654-4.9882 5.6742-6.6248 1.5386.1078 3.185 1.3328 3.5672 2.8714-.1372 2.9498-1.2446 5.7526-2.0482 8.575-.8722 1.5386-1.519 3.185-2.0286 4.8902 4.2532-1.6954 7.1442-5.9584 11.8874-6.517.1176 1.9894.637 4.1062-.1568 6.027-1.911 3.3222-5.5566 5.1646-7.644 8.3496l.1274 1.6856c3.9004-.392 7.3402-2.7342 11.2504-3.0282 1.5974-.196 2.4794 1.372 3.5182 2.2932-2.4304 3.0772-5.0274 6.027-7.4774 9.1042 2.156 2.2442 4.9882 3.92 6.6542 6.6052 2.0286 4.802 2.0286 10.3586 4.9392 14.8078 1.813 2.6852 3.4692 5.5566 5.8506 7.8008 2.8126 2.0874 6.566 1.7934 9.8 2.7832-1.813 1.2936-3.4496 3.038-5.6644 3.626-2.6362-.1666-5.6546-1.862-7.84.4508-3.6064 1.9992-3.0576 6.5366-2.352 9.9764.5978 2.156 3.038 2.9498 5.0372 3.1948 5.2136.2352 10.4076-1.4798 14.6412-4.4982 5.3018-3.3026 6.4288-10.388 11.809-13.6318 4.0572-3.1948 11.7894-2.0874 13.5926 3.1752.931 2.107 1.5778 4.3218 2.2736 6.5366 4.4002-1.323 9.0454-1.9894 13.573-.8134-.147 1.3132-.3038 2.646-.4802 3.9788-4.4394 1.127-8.085 3.9004-10.535 7.742 1.127 2.1168 2.5774 4.1258 3.1752 6.4876.98 5.8604-4.9686 11.5346-10.7898 10.4468-2.8126-1.1466-4.4296-3.9592-6.7522-5.7918 1.0192 2.4892 4.361 5.488 1.4406 7.9184-5.8408 4.116-12.887.0882-19.2864.3234.588 1.274.5684 3.136 1.9894 3.8612 4.6256.7056 9.3394-.588 13.9748.2254 4.018.7154 7.007 5.0176 6.2622 9.0454-1.3916 2.8518-3.0772 5.5958-3.6162 8.7906 2.9008 1.7738 8.2418 1.911 8.6142 6.0172-4.7824 3.9298-10.8192.8036-16.1112.1078-.7252 3.6554-4.1062 6.9384-8.0458 6.0662-5.2528-3.3516-9.3982-8.5064-11.564-14.3472-1.372-3.381-2.5774-7.0658-5.6154-9.359-.1862 5.8506 2.1756 11.5934 6.0368 15.9348 3.2242 3.7338 7.301 7.9282 6.468 13.328-.098 3.4398-2.8812 5.6644-5.194 7.791-1.1662.8134-.7056 2.303-.1274 3.3516 1.3034 2.5676 2.4206 5.243 3.0576 8.0752-1.1956.5488-2.3912 1.0976-3.577 1.6464-2.0286-2.4794-3.6358-5.9094-6.8698-6.9482-3.0772.4606-5.8996 2.2736-9.0552 2.2148-3.0086-.7448-5.6252-2.94-7.056-5.6448-2.254-4.8804-2.1462-10.3684-2.597-15.6114 1.2152-3.3418 1.0388-6.9286 1.0388-10.4174-.3724-.0294-1.0976-.098-1.4602-.1274-3.2144 3.4692-2.5382 8.3594-2.0678 12.6714.6762 4.1846 2.6558 8.281 1.8914 12.6126-.7154 3.8416-1.9502 7.7616-4.2728 10.9368-3.0968 1.9404-7.007.98-10.4566 1.2152-.4998 1.7836-1.4014 3.577-1.1564 5.488.686 2.3324 2.5872 4.4394 1.9894 7.0266-3.087 1.2348-5.2136-1.8718-6.7032-4.0474-2.7048-3.9298-3.1262-8.7906-4.1062-13.3182-2.1658.392-4.6452 2.4304-6.6934.8036-2.8714-2.1266-5.6644-4.5276-7.595-7.5558-2.1658-3.5182-.6272-7.742.3626-11.368.8232-3.2928 4.2434-4.7824 7.0854-5.9584 4.214-1.5288 7.9772 1.8914 11.7698 3.1164-1.0976-4.7334-6.6346-4.9686-10.192-7.0364 2.9988-5.5566 10.4958-6.3994 13.5828-11.711.1372-7.8204-2.5676-15.5232-1.6268-23.4024-.2744-9.4472.9604-19.1002-1.715-28.322-1.2544-3.9396-1.9208-8.4084-4.7824-11.5444-3.5574-2.303-8.2026-3.4888-12.348-2.2148-3.2438.98-6.5856 1.568-9.7804 2.7146 1.5582 4.0474 4.3708 7.595 5.1254 11.9462.686 4.5276 1.7052 9.1434 1.078 13.7396-.49 2.0776-2.695 2.8126-4.2826 3.8416-.7546-2.744-1.3132-5.5272-1.7738-8.3202-.343-.1176-1.029-.3528-1.3622-.4704-.3234 7.9576-2.1952 15.778-4.2826 23.422-.637-.049-1.911-.1372-2.548-.1862-1.2152-7.1344-.5978-14.406-1.5092-21.56-.441-.1078-1.3132-.3332-1.7542-.441.0686 7.4578-.1274 15.19-2.6264 22.2852-4.851 7.6734-14.2296 10.829-22.9222 11.1818.3724-1.421.7742-2.8028 1.1858-4.1944 4.0376-3.1654 8.0752-7.3794 8.2516-12.8184.1666-5.9486-4.7922-10.0646-7.6244-14.798-4.263 11.0838-14.1806 19.2178-25.1958 23.0888-.7644-1.0094-1.568-1.9894-2.1462-3.1066 1.5092-2.94 4.0474-5.6546 3.5084-9.2218.7252-11.0936-6.1152-20.5408-11.9756-29.302-2.0482-3.4202-5.488-5.586-9.31-6.4876-.5096.9506-1.0094 1.9012-1.4994 2.8616 2.6264 5.7624 7.5264 10.0058 10.4762 15.5624-.588.2842-1.7542.8722-2.3324 1.1662-7.7224-3.332-13.2202-10.1332-20.825-13.6416-2.7048-1.1564-6.5268-2.2736-8.771.3038-1.1956 2.2442-.2352 5.145 1.7542 6.6248 6.4484 5.3998 14.504 8.4378 22.5498 10.5938-1.6856 4.4982-7.3598 3.9592-11.2602 4.018-9.0552-.9604-17.0422-5.8702-25.4604-8.9768-3.5966-1.9992-8.1634-2.5676-11.7894-.343-2.3716 3.4692.8918 7.1344 3.5574 9.212 6.6248 4.6158 14.2198 8.4182 18.865 15.2978 3.8808 5.9682 6.909 12.7204 7.4088 19.9136-.637.294-1.8914.8918-2.5284 1.1858-4.655-3.2144-8.722-7.1932-12.5244-11.368-1.2152-1.4406-3.087-2.009-4.7334-2.7146.2646 1.715.4018 3.6652 1.7346 4.9784 3.8808 4.7432 9.8588 6.9776 14.2002 11.1916 2.6362 2.597 2.8224 6.5464 3.0478 10.0156-6.1936.4214-9.2512-6.5072-15.2586-6.8698 6.5464 4.9098 13.0438 10.7114 15.9936 18.571-4.7432-1.2348-8.8102-4.0082-13.1222-6.1936-2.3618-.7546-2.7636 1.6268-2.3814 3.3908 3.4202 3.1556 9.2022 3.969 10.2802 9.2316 2.1168.9702 4.1846 2.9204 6.6836 2.2344 3.2046-.5096 6.5954-1.4994 9.7804-.3136 2.2834.7448 5.194 1.7738 5.5664 4.5472.539 4.2238-1.2544 8.2908-2.548 12.2304 6.86 2.4402 8.3202 10.5448 9.5158 16.8364-.9604.049-2.8812.147-3.8514.196-2.4696-2.5676-5.1548-4.9196-7.7714-7.3206-3.234 1.4798-5.0862 4.998-8.575 5.978-4.7824 1.0094-10.1234-.0294-13.7494-3.4202-2.4108-2.6362-3.185-6.321-3.43-9.7706 1.5092-1.8032 2.9008-3.7142 4.0964-5.733-2.5676 1.1074-4.8608 2.7244-7.3206 4.0278-1.8718-2.5578-3.626-5.2332-5.3312-7.8694.7448 5.096 2.4206 10.143 1.7836 15.3664 5.0078 1.2348 8.2026 5.6546 10.4076 10.0058.8428 3.7534-.0784 7.7714-1.47 11.2994-3.3222 1.715-7.1344 2.0776-10.7996 2.4892.1274 3.2144.5782 6.4484.3332 9.6824-.3822 2.6362-4.116 1.6366-5.4488.294-1.8816-2.4304-3.8808-4.998-4.41-8.1046-3.5574-2.4794-7.9282-.8036-11.9168-1.3818-1.421-3.4594-1.421-7.448-3.6358-10.5546-1.6366 3.2242-1.8816 7.6048-4.998 9.8588-5.096 2.2736-8.8788-3.2438-13.7396-3.724-.5194 3.0282-.4508 6.2524-1.7248 9.114-2.0874 1.4112-4.116-.7938-5.292-2.352-.7252-3.3712-.2254-6.8698-.3234-10.2802-1.127-.4704-2.254-.9408-3.3614-1.3916-.5194-1.0388-1.0388-2.058-1.5484-3.0772.3038-3.9984 1.3818-8.0556 4.4002-10.8878 3.3026-4.2924 9.9274-2.352 13.5044-6.223 1.5778-1.3916 1.764-3.5868 2.3324-5.4684 1.6464-3.5476 1.8522-7.497 1.6758-11.3386-3.7044 1.0682-7.0266 3.1066-9.7706 5.8114-.9114 2.4598-1.0682 5.1548-2.1266 7.5754-2.9694 4.5668-7.9184 7.9772-13.426 8.4476-3.5084.0196-6.0858-2.744-7.9772-5.3704-.6076.1372-1.8228.4116-2.4304.5586-1.4602 4.655-.5096 9.604-.784 14.3864-2.0188-1.029-4.1552-1.9012-5.8114-3.479-.8232-5.831-.98-12.1324 1.5484-17.591-.882-.882-1.7542-1.7444-2.6264-2.597-.4704-4.2434-.9506-8.869 1.4112-12.6714 2.107-3.7142 6.8698-4.5668 10.7702-3.92 3.8318.0882 5.9584 3.7338 8.9082 5.6448-.3724-5.6056-6.8404-6.2426-9.8098-9.898 2.7244-1.7444 5.5272-3.675 8.8004-4.1552 8.869-.147 17.689 1.5288 26.558 1.3132 4.4884-.98 8.8592-4.949 8.6044-9.8588.4312-6.8012-4.4492-12.1128-8.5064-16.9442-4.6452-5.2724-7.889-11.7992-13.5828-16.0916-4.4884 2.4402-8.6828 6.0074-14.0042 6.3406-5.1646.2646-10.8878-.7742-14.6804-4.557-3.675-4.0768-5.4684-9.6432-5.5272-15.0822 4.5472 2.7832 8.3104 7.448 13.8964 8.1438 5.6644.931 11.7698-2.7734 13.3084-8.3398 2.7048-9.5844-.5194-19.8352 2.8616-29.3118 2.2736-5.684 4.3414-11.7992 8.9474-16.0818 5.2724-5.1254 11.8188-9.2316 19.1002-10.7016 10.6428-2.3422 21.5698-2.793 32.3302-4.3316 4.214-.8918 8.9572-2.0972 11.5934-5.8114.9702-4.3414.2548-9.0846-2.5382-12.6126-3.3614-5.9486-9.7118-9.1728-15.8172-11.6228-2.8812-1.1956-6.0466-1.1662-9.1042-.882-.735 2.5382-1.1858 5.1744-2.303 7.595-1.127 1.3426-3.2732.8918-4.802 1.3916.1372-4.2042.3234-8.4966-1.1172-12.5146-3.2046 4.7726-4.0278 10.8486-8.2124 15.0136-.8918-3.8514-1.1368-7.8008-1.8424-11.6718-1.96 3.4104-2.0874 7.5558-4.1454 10.8976-1.3818.5488-2.7832 1.0192-4.2042 1.4112-.2254-2.7538-.1568-5.6056-1.1858-8.2222-1.3916-2.9008-4.1258-4.8412-6.8894-6.3112-3.7338-1.9012-7.7126-3.7436-12.005-3.6358 2.9988 3.381 7.4872 4.8118 10.7016 7.9184 1.6954 1.5092.3822 3.9004.2548 5.7918-6.5856-1.911-12.6616-6.5268-19.8156-5.586-6.321.4704-10.6526 5.8898-13.8376 10.829-2.7734 4.4296-4.3512 10.388-1.7542 15.2488 2.8224 3.185 7.6048 3.8024 10.29 7.1932 1.7052 1.96.9016 4.6844.7742 7.0168-3.3516-1.6562-6.86-4.312-10.8094-3.1752 3.0968 2.1168 7.35 3.5378 8.5652 7.4774-.0294 1.911-.2156 4.949-2.8812 4.6648-5.2332.4116-8.1928-4.8608-12.838-6.2034-.1568.3724-.4704 1.127-.6272 1.4994 2.6656 4.2238 7.5166 8.281 5.9878 13.8768-.1274 1.4994-1.9796 1.5876-3.0968 1.8032-4.1356-3.1262-7.8792-7.3696-13.3182-8.0752-2.6558-.5292-6.9188-.1666-7.2814 3.1948 2.4598 6.3504 9.2512 8.5554 14.7392 11.4954 4.067 2.0286 4.7922 7.056 4.5472 11.1426-.0196 3.6946-3.5182 5.8996-5.1842 8.8984 2.3422 4.4884 2.0776 9.604.6272 14.3374-3.5868-2.1364-5.5762-5.8506-7.1736-9.5452-2.2736.2156-4.4492.931-6.6836 1.3426-4.9784-.8526-9.457-4.9686-9.7706-10.1822-.1764-4.3904-.588-8.7416-1.9306-12.9458-.9016-.2254-1.8032-.4312-2.7048-.6272-.4606 3.871-1.5582 8.2908 1.1858 11.6326 2.1462 2.8518 3.2242 6.2328 2.7538 9.849-2.94-2.401-6.566-3.1752-10.2606-2.5088 2.9106 1.8326 6.3014 3.0086 8.7514 5.4978 1.7542 2.5676 3.0282 5.5566 3.5084 8.6436-.147 2.2148-1.2152 4.2336-2.058 6.2524-2.9596.49-6.0368 1.5974-9.016.6174-2.5382-.7546-5.1352-1.274-7.7714-1.5484.1764 2.744.931 5.4292 2.695 7.595-.1372 2.499-.4704 4.9784-.833 7.4578-1.813-.7056-4.0572-.8428-5.3998-2.401-.9604-1.7346-.9114-3.7926-1.2054-5.684-1.5582-.7448-3.1948-1.3524-4.5864-2.3618-.735-2.3226-.735-4.802-1.4798-7.105-1.3328-1.7934-3.626-2.4206-5.4978-3.43-.2254-2.303-1.078-4.8706.3234-6.958 2.9498-4.5276 7.1932-8.428 8.6436-13.7984 1.0192-3.9298 1.3622-8.0066 1.568-12.0442-3.1654 3.6554-4.1846 8.7808-8.036 11.8776-.7252-1.6856-1.4308-3.3614-2.1462-5.0372.539 4.998-.6174 10.5938-4.802 13.7984-3.0184 1.862-6.7718 3.0576-10.3096 2.254-3.1556-2.1364-5.194-5.5664-8.2908-7.8008-2.4794 2.4402-4.5962 5.2136-6.7228 7.9674-1.078.3038-2.1462.6174-3.2144.9408-1.4014-.6958-2.8028-1.4014-4.1846-2.0972 1.2838-5.7134 5.1842-10.094 8.918-14.3668-.7546-2.793-2.3618-5.978-.6566-8.7318 1.2152-1.7836 2.3716-4.1356 4.7138-4.557 5.096-1.2446 10.3684-.4018 15.533-.9016 3.8514-.7742 6.9678-3.3516 10.1528-5.4782-2.7538-.2842-5.5174-.3038-8.2712-.3724-.1372.5292-.392 1.568-.5292 2.0972-6.6444.7644-14.3766 1.9208-20.0312-2.548-3.5966-2.3618-3.4888-7.3892-1.7836-10.8682-.4018-.6468-.7938-1.274-1.1858-1.8914-3.7926-.9898-7.3696-2.6166-10.8976-4.3022.01-.6566.0294-1.96.0392-2.6166 5.4096-2.548 11.5738-.882 17.3264-1.1956.7546-2.2834 1.5876-4.5374 2.4598-6.7718 4.9392-2.1658 12.2206-1.9698 15.0136 3.4104.8428 2.695.343 5.6448.8134 8.428.9996-2.1266 1.617-4.4002 2.1364-6.6738.4998-.2744 1.4798-.8232 1.9698-1.0976 4.7824 1.9012 9.065 6.3798 14.6314 4.8902 9.7902-2.2442 17.6498-9.702 22.7262-18.1006 2.8518-5.243 6.6346-10.5154 6.4582-16.7678-.0196-3.4104.3626-6.9972-1.0486-10.192-.0784-.6566-.2254-1.9698-.3038-2.6166-1.3034-2.058-2.2442-4.2924-3.0674-6.5562-.7546.0392-2.2736.1274-3.0282.1666-.5096 1.8718-1.2936 3.6652-2.5676 5.1548-2.1658-1.911-3.5672-4.4492-4.753-7.0266-.8526 2.5088-.833 5.3508-2.156 7.7028-2.8812.9114-3.8808-1.9208-4.998-3.8906 1.2838-2.107 1.1956-4.5472.6762-6.86-1.9208 3.8612-1.9796 8.1242-1.5288 12.3186-6.419-1.5778-8.3594-8.8788-8.1732-14.651-.2352 3.3712-2.009 6.811-.9996 10.2116 1.2446 4.5766 3.626 8.9474 3.2046 13.8474-2.0482-.1666-4.2238-.4606-5.7134-2.0384-8.1242-7.1932-11.5052-17.8752-17.4538-26.6462-.882-1.6954-2.744-2.2442-4.41-2.8028 1.4798 6.0956 2.695 12.2892 2.4206 18.6004-5.5762-.4998-7.889-6.37-9.3492-10.976-1.4308-5.3312-5.6448-9.8196-10.9858-11.2896-1.4308-.3822-3.234 0-3.9298 1.421-3.038 5.4292-4.9686 11.7796-4.0474 18.032.4998 3.1654 3.0968 5.3606 4.263 8.232.637 3.8318.735 8.7318-2.9204 11.1426-2.9694 3.3712-7.7322 2.6558-11.5738 4.0376-2.8322 3.0576-2.0972 7.5754-1.9992 11.3778-2.5284-1.2838-5.5174-2.8714-6.125-5.929-.1568-2.0482.0686-4.0964.1764-6.125-4.0474-3.6652-9.5648-6.0858-11.9854-11.2504-1.3328-2.7734.2058-5.8114 1.8032-8.0948 3.8808-4.5178 7.35-9.3884 10.3586-14.5334-2.7734 0-6.0172-.2548-8.134 1.9208-2.7636 3.136-4.1552 7.2226-6.8894 10.388-1.6856.1862-3.381.1666-5.0666.1764-1.4602-1.47-2.989-2.8812-4.6256-4.1454 1.4994 3.3124 4.3414 5.7918 5.8114 9.1238.294 1.7934-.3136 3.577-.588 5.341-5.2136 3.6064-11.8188 2.4402-17.5322.8722-1.8228-2.744-3.3418-5.6644-4.655-8.6828-1.0192.2842-2.0384.5782-3.0576.8918-1.5288 3.0772-4.4002 5.2136-7.8988 5.3214-2.0972-5.8996 2.6166-10.8682 6.517-14.6216 1.9502-1.7444 1.6268-4.5472 1.862-6.8992 0-2.2834 1.421-4.1748 2.3912-6.1348 5.2332-.588 10.5154-.5096 15.7584.0196 3.7436-2.7342 7.9674-4.8608 10.9858-8.4966-3.8612-1.9502-8.6044-3.5966-12.7498-1.4798-2.1168.931-4.2826 3.4692-6.713 1.8032-2.3324-1.9698-3.038-5.1254-4.6452-7.6146-.7742 2.9596.6958 5.635 1.47 8.4084-3.4398 2.9498-8.5162 2.1854-12.7302 2.3128-5.0862-2.0776-5.0078-8.6142-6.0858-13.1614-4.7138 1.0388-9.3198 3.479-14.2786 2.4206.3234-1.5974.0784-3.5868 1.6268-4.606 3.7828-3.0968 8.9768-3.6848 12.8576-6.5856 3.1066-3.8122 5.6252-8.4084 10.0058-10.9466 3.4104-1.3328 7.5754-2.0972 10.8976-.1274 6.9972 4.2336 14.2492 8.0458 21.5698 11.7012-2.4304-5.4194-9.1728-7.0854-11.6326-12.4656-.9996-3.0772 3.234-3.8612 5.1352-4.7236-4.6354-.7056-10.5938-1.2054-13.0144-5.9388-.588-2.6656-.5194-5.488.0784-8.1438 1.7444-3.0478 5.39-4.1356 8.33-5.7232.9898-.6958 3.234-1.0486 2.8028-2.7342-.147-4.4198-4.949-6.37-6.1642-10.3782 2.0776.0686 4.3806-.3234 6.223.9016 4.4884 2.646 7.154 7.8988 12.3578 9.4178 3.136.8918 7.2716.7938 8.9964 4.1454 1.9894 2.5676.2646 5.7036-.049 8.5064.4606 5.8996 4.6452 10.4272 8.2418 14.749 3.6456 1.5974 7.7714 1.4014 11.4856 2.793 3.4104 1.6072 6.2426 4.1748 9.065 6.6346 5.8996.2646 11.7894-.9212 17.6792-.2646 12.4754 1.8914 24.9116 4.0474 37.191 6.9482 5.047.8232 10.1528 2.3324 15.288 1.372 3.4104-7.8988 8.4084-15.0528 14.2492-21.3346 6.811-6.713 14.8568-12.0148 21.9912-18.3554 2.9988-2.9694 3.6652-7.5754 2.5578-11.5346-3.1066 3.234-6.027 6.8502-10.045 8.9964-4.8902 2.597-10.829 2.2736-15.6212 5.0568-2.8518 2.6166-5.0666 6.2622-8.9768 7.4284-3.6652.8624-7.497-.1078-10.8192-1.7052-3.1262-1.715-4.704-5.831-3.038-9.0944 1.7052-2.8126 4.5276-4.8412 7.6146-5.8996 2.8616-1.1466 6.174-1.3328 8.5064-3.5672-5.4194-.9702-10.829.9212-14.8666 4.5276-5.5174 3.8808-9.1238 10.3194-15.7094 12.6126-8.2026 3.3026-17.7282 2.695-25.6858-.9996-4.7334-2.4206-7.4186-7.8302-7.301-13.034-.1666-5.4292 2.3324-10.535 5.733-14.6314 1.2642-1.4798 2.6166-3.4006 4.8412-3.0086.3822.735 1.1368 2.1952 1.519 2.9302-1.6072 2.45-4.3708 4.508-4.312 7.7126-.4116 5.0176 2.6656 10.2116 7.3892 12.0638 5.2724 2.0384 11.5346 2.303 16.4346-.8428 6.2426-3.7926 11.3876-9.114 16.9834-13.7592 5.488-4.0866 12.9164-3.1066 18.8454-.5684-3.5182-5.4782-11.0642-5.2822-16.7482-4.3904-5.0764.4802-6.1152 6.9776-10.7996 8.2124-4.9686.6958-10.2508.2646-14.5922-2.4206-2.5088-5.9584-8.6828-9.3492-10.9858-15.3664-1.1172-3.1948.931-5.9976 2.744-8.3888-.3528-1.9796-1.5582-4.116-.2842-6.0074 3.3222-1.9796 7.5166-1.2054 11.0152-2.793 4.4394-2.1168 8.6338-5.0568 11.515-9.1042-1.3524-4.8706-1.6954-10.3488.9114-14.8666 2.1952-3.381 6.1544-4.7824 9.3492-6.958 2.9792-1.9992 4.8314-5.1254 6.9482-7.9184 2.4108-3.92 8.036-3.4888 10.7506-7.105 2.0678-3.0282 2.0874-7.2618 5.145-9.6432 1.617-1.2642 3.4496-2.8812 5.6644-2.597 2.1168.637 3.9788 1.8914 5.9094 2.9596 3.2928-3.6456 4.4688-9.359 9.6726-10.927 1.421.6174 2.9988.9996 4.2532 1.9404 3.3418 3.4986 2.8028 9.2022 6.3994 12.5048 3.332 2.3128 7.2716 3.5476 10.8094 5.4978 6.5562 2.9694 11.2602 8.5554 16.3366 13.4554 4.263 4.1846 7.3892 9.653 12.7988 12.5538 5.6644 2.8126 12.397 2.352 17.9536 5.4684 4.2042 2.2932 8.7514 5.096 10.143 10.0156-6.6248 3.5476-13.8474-2.0482-20.7564.4998 9.5746 4.557 20.58 2.2344 30.4094 5.537 4.0474 2.7832 8.5162 7.1736 8.0752 12.5048-.3724 3.185-3.9396 1.2544-5.782.7546-5.1254-2.1952-10.7506-2.303-16.2288-2.0482 3.9298 2.744 7.2422 6.4974 11.7796 8.3006 5.9878 1.1956 12.152.0784 18.1888.833 4.4198.5488 8.8886.9996 13.2006 2.205 1.813.5292 3.9984 1.7052 3.9984 3.8906-.1372 2.9596-3.675 3.3222-5.8898 3.9886-9.4472 2.0384-17.7968 7.2226-27.146 9.5158 8.281 2.2344 17.4048 2.3324 24.745 7.3402 2.4206 1.6464 1.6856 6.0858-1.3818 6.4778-4.5668.6762-9.1924-.2156-13.7788.196-1.6954-.1274-2.303 1.813-3.3418 2.744 12.4166 4.2924 25.7152.8428 38.073-1.9306.2548 6.0956-4.3316 11.1328-9.7804 13.1908-3.528 1.3622-6.811 3.2438-10.0842 5.1254 2.8714 1.4406 5.5664 3.1948 8.33 4.8314 4.459 2.6656 9.6236 3.6946 14.6118 4.9098.0686 1.4308.1372 2.8714.196 4.3218-7.2618 2.9008-15.435 2.94-22.393 6.6052 1.5092 1.4406 3.087 2.891 5.0274 3.7534 10.8094 5.1058 21.756 9.9176 32.5948 14.9646 2.2148 1.3034 5.7428-.294 4.998-3.1458-.6958-6.9874-7.7322-10.4272-11.564-15.5526.0196-3.3418 4.5864-5.1254 7.4578-3.9004 7.8498 2.5284 9.9862 11.9168 16.8952 15.7976-.1372-1.8228-.3332-3.6946-1.568-5.1156-6.566-8.8004-15.6016-15.974-19.7666-26.3914-1.666-3.7142-1.3916-7.9282-.049-11.6914 1.9306.98 3.8318 2.2246 4.7824 4.263 3.3418 6.174 8.1732 11.3582 13.2692 16.121 2.94 2.6558 5.6252 6.076 9.7902 6.8012-2.2246-5.488-6.4484-9.7314-9.9176-14.4158-10.7408-13.3182-22.295-26.7932-27.4694-43.4336-1.8326-5.4978-.7644-11.2896-.098-16.8854.3038-.1078.9114-.3234 1.2054-.4214 2.4696 10.6134 7.6636 20.482 14.5138 28.9198 4.0572 4.8902 8.9572 8.9866 13.23 13.6906 3.3124 3.5868 7.252 6.4974 10.78 9.8686 4.6452 4.2238 8.2418 9.555 13.5338 13.0732-6.3602-12.6616-17.8262-21.4228-27.3812-31.5168-4.998-4.8118-10.2312-9.6138-13.377-15.925-4.8118-7.938-4.9-17.738-2.8126-26.5482-13.6808-8.5946-28.7826-14.5432-42.8162-22.4812-10.1626-5.6252-20.0018-11.8384-29.449-18.5808-7.9184-5.684-13.5926-13.7396-19.012-21.6874-6.4484-9.8-8.7808-22.1774-6.4582-33.663 2.4598-9.0552 7.0658-17.7674 14.1806-24.0198z"/><g fill="#fcdd09"><path d="m537.5594 286.11581c7.4284-1.127 15.3664 1.1564 20.5604 6.6934 3.3418 2.6754 4.0572 7.0854 4.9686 11.0054-3.6554-3.6554-6.7228-7.9576-11.0054-10.927-4.3806-3.136-9.5452-4.8314-14.5236-6.7718z"/><path d="m409.4342 331.53881c.3626-1.7836 1.3916-3.1262 3.0968-4.0474.2548 6.6346-1.0878 13.2202-3.0576 19.5314-.4214-.4802-1.2642-1.4406-1.6954-1.9208-.2058-4.5668.686-9.114 1.6562-13.5632z"/><path d="m400.8788 346.99341c-2.7538-5.2626-2.0972-12.0932 1.3132-16.905.5194 5.6546.147 11.3974-1.3132 16.905z"/><path d="m415.9708 352.92241c1.1172-3.234 3.9298-5.2038 6.3602-7.3598.3528.3822 1.0486 1.1564 1.4014 1.5386-2.3618 2.2246-4.9098 4.263-7.7616 5.8212z"/><path d="m375.2224 362.06581c4.6256-2.4696 10.241-2.3128 15.1508-.8428-2.7636.7252-5.6154.8428-8.4476 1.029-2.7048.0588-5.0078 1.6366-7.5264 2.401-1.372-.7252-.01-2.0776.8232-2.5872z"/><path d="m376.3984 371.92461c2.1854-1.7738 4.4492-4.2826 7.5754-3.8024 3.6848.3234 7.3794.6664 11.0838.7056.1862.6468.3822 1.2936.588 1.9502-4.2728 1.1564-8.085 4.1356-12.6812 3.8514-2.4696 0-4.4982-1.5778-6.566-2.7048z"/><path d="m436.1882 379.36281c3.5672 2.3128 5.733 6.076 8.2418 9.3982 2.8028 4.1062 6.2034 8.0164 7.4088 12.9654-3.92-3.3026-6.8698-7.5166-9.7608-11.6914-2.2834-3.3712-4.7628-6.7032-5.8898-10.6722z"/><path d="m416.3726 397.10081c-.686-5.6644-.4018-12.5244 4.6158-16.2484-.1372 5.5566-1.0976 11.7502-4.6158 16.2484z"/><path d="m446.3998 382.83201c.5488.01 1.6562.0294 2.2148.0392 4.5766 3.7926 9.0552 7.9086 12.2598 12.9654-4.0474-2.8224-7.6244-6.1838-11.417-9.31-2.0972-.3332-3.7632-1.1858-3.0576-3.6946z"/><path d="m381.0534 392.51441c8.6828-3.3908 19.6294 1.813 21.9324 10.9466-3.1262-2.156-5.6056-5.0666-8.5946-7.3696-4.018-2.4696-9.016-1.9208-13.3378-3.577z"/><path d="m574.8386 395.65041c5.7232 4.5962 12.8772 6.762 18.8748 10.927 7.2912 4.7236 15.2586 9.016 20.5604 16.121 5.0666 8.1438 9.3786 17.493 8.3594 27.342-7.9478-14.994-23.0202-23.7062-35.0644-34.9272-5.831-5.243-10.4664-11.9168-12.7302-19.4628z"/><path d="m385.9142 400.00161c2.2442 1.8914 4.3022 4.0474 7.007 5.3116.1568 2.7048.4116 5.4096.5978 8.1144-.9702-.3528-1.9306-.7154-2.8812-1.0682-.441-2.5578-.4606-5.4096-2.2932-7.4382-1.1956-1.4308-2.0482-3.0968-2.4304-4.9196z"/><path d="m451.5056 406.94981c6.6052-.1274 13.8082 4.0082 14.9744 10.9074-2.8714-2.7342-5.1156-6.3112-8.771-8.085-2.0482-1.0094-4.116-1.9502-6.2034-2.8224z"/><path d="m429.6614 424.51141c2.7146 1.9404 4.9 4.557 7.7028 6.37 4.7334.8232 4.4688-6.9286 4.7628-9.4962.8722 4.8902 2.2932 10.339-1.0094 14.6804-5.6448-1.2838-9.6922-6.2524-11.4562-11.5542z"/><path d="m454.4848 432.61601c.1568-2.2834 2.352-3.2928 3.9886-4.4394 1.1466 2.1462 2.1658 4.3414 3.1164 6.5856-1.8914-.0196-3.7632-.0392-5.6448-.0392.441 4.606-.0294 9.2708.9408 13.8376-1.0486-1.715-3.8318-2.9008-3.4888-5.2136.4508-3.5672.6272-7.1736 1.0878-10.731z"/><path d="m467.8912 428.45101c3.6946 4.1944 1.9894 10.094 1.4014 15.0626-1.2152 1.3132-2.4304 2.646-3.6358 3.9788-.3724-2.4402.3234-4.6844 2.1364-6.37.1176-4.2238-.1666-8.4574.098-12.6714z"/><path d="m436.6782 443.99381c6.8502 4.7922 5.4488 14.847 1.3132 20.9818-2.8028-2.5186-4.8412-5.831-8.0556-7.889-2.695 4.9098.8722 10.1724-.3528 15.337-3.4006-5.3998-6.5366-11.5934-5.8604-18.1692.1666-2.5774 2.3814-4.1944 4.1748-5.7428 1.4308.8526 3.2046 1.372 4.2434 2.7636 1.078 2.254 1.7052 4.7138 2.6264 7.0462.8722.01 1.7444.0196 2.6166.0294 1.2446-4.7824-.686-9.555-.7056-14.357z"/><path d="m485.6194 450.47161c1.1466.392 2.303.7938 3.4594 1.2152-.0196.8428-.0588 2.5382-.0784 3.381 2.7734 1.0388 5.488 2.205 8.1046 3.5966.1372 1.2054.2744 2.4206.4312 3.6456-2.4402-1.6562-5.2234-2.695-8.1438-3.0772 1.0878 8.1732 3.283 16.1308 4.6354 24.255-5.1352-2.058-10.4762-3.4986-15.9544-4.2238-.9212 2.0482-2.1658 4.0082-2.5774 6.2426.1666 2.0678.9898 3.9886 1.5582 5.9682-6.5954-4.2042-11.7796-10.1038-17.9242-14.8372 4.3904 8.8886 8.4672 17.9438 12.9556 26.803-2.9988-.4214-6.174-.5684-8.8592-2.107-2.2246-1.3034-3.5672-3.5868-5.0274-5.6154-.7644.1274-2.303.3724-3.0674.4998-.0196 2.7342.01 5.4782.049 8.232-2.8126-2.6754-5.7526-5.2136-8.9278-7.448-.6762 2.989-.833 6.0662-1.3916 9.0846-.98 2.2442-3.7828 1.078-5.5174.5292-3.92-1.813-7.9674-4.7432-8.6142-9.3492 1.96.2646 4.3904-.2254 5.7722 1.5974 1.6268 1.1172 3.1164 3.8808 5.4096 2.6754 1.7248-4.0474 1.2152-9.0748 4.6158-12.3186.2156.9702.6468 2.9204.8624 3.8906 1.9306.98 4.0278 1.5288 6.1838 1.7836.6174-1.8424 1.2446-3.675 1.9208-5.488 2.842 2.3912 5.0274 5.4782 7.9968 7.7322 2.5676-.8722 1.2348-4.4296.1078-6.0564-4.0474-6.1348-8.33-12.4558-9.1532-19.9724 6.2034 2.8126 12.2892 6.321 16.8364 11.4954.7056.0392 1.4112.098 2.1266.1568 1.2642-5.1156 1.3818-10.3782 1.666-15.6016 2.6362 3.0576 4.5668 6.762 7.7322 9.3492 2.0972 1.8424 4.9686 2.2344 7.5852 2.9008-2.4402-9.4864-5.2724-19.0316-4.7726-28.9394z"/><path d="m417.8034 477.81361c-.4998-5.39-2.2442-10.8388-.7644-16.2386 1.9404 2.7832 3.0282 6.027 3.43 9.3884.6566 5.39 1.4798 10.7702 1.6954 16.2092-3.2242-.0392-6.8306.2744-9.5158-1.8718-2.9008-2.2344-5.096-5.2332-8.0262-7.4186-.49 1.4896-1.1368 2.9694-1.3132 4.5472 2.0188 7.0854 7.6146 12.054 12.2696 17.444-1.9012-.049-3.8612.294-5.6938-.245-3.3516-3.332-5.439-7.6832-7.35-11.9462-1.6268-2.9106-4.6158-5.3704-4.5472-8.9866.0294-2.499-.4214-5.88 2.0874-7.399 1.5386-1.0682 3.9984-1.9992 5.5762-.5194 3.7044 3.2732 3.9886 9.3394 8.8494 11.5052 1.2152-1.323 3.6652-2.2736 3.3026-4.4688z"/><path d="m383.6994 496.72761c-3.0576-3.4398-3.8514-8.379-2.9988-12.7988 1.6464 5.8996 5.537 10.633 8.9572 15.5624 2.303 3.136 5.782 5.2136 7.7224 8.6534-6.4974-.882-9.7608-6.9482-13.6808-11.417z"/><path d="m527.9652 508.78161c.6664-.3332 1.3034-.2646 1.9208.2058 5.3214 3.0478 9.1826 7.938 13.5044 12.1716-7.8106 1.4994-15.8858 6.0074-18.8454 13.7984-2.156 5.8016-3.675 11.907-3.9396 18.1104.2548 7.0854 4.9098 12.7106 8.8494 18.1888 5.7036 9.7216 14.6706 18.326 15.827 30.0664-2.9302-2.2932-3.8612-5.9388-5.5272-9.0748-3.5476-6.125-7.9478-11.7012-11.4464-17.8556-2.548-4.1846-5.7036-7.9576-8.477-11.9952-4.9588-8.1144-3.4202-18.2868-.2646-26.7638 2.2638-5.0568 4.9882-9.8882 7.8302-14.6314 2.6558-3.6652.1764-8.1536.5684-12.2206z"/><path d="m274.0668 512.29981c1.274-4.8706 8.0066-4.1748 11.7796-3.7828-3.8612 1.47-7.7518 2.8714-11.7796 3.7828z"/></g><path d="m187.572 543.21881c6.6248 6.7522 13.573 13.2104 19.5608 20.5604 8.0164 9.7902 16.66 19.061 24.2452 29.204 9.2708 12.3578 18.375 24.8528 28.0378 36.9068 12.6322 15.8074 24.8332 32.0068 38.7296 46.746 15.1214 16.7188 31.6246 32.1342 48.363 47.187.8526 4.7628.2156 9.653.392 14.4844-.1666 18.9532.4018 37.9358-.4018 56.889-17.2872-6.1348-34.643-12.0736-52.136-17.591-13.475-4.5472-27.1852-8.4966-40.1702-14.3374-22.7948-9.9372-45.178-20.9328-66.5126-33.712-.0588-62.1124-.2842-124.2248-.1078-186.3372z" fill="#0f47af"/><path d="m557.9238 582.03661c-.0784-2.8224-.2842-5.6448-.049-8.4574 2.0188 2.8322 2.7342 6.713 5.9094 8.6338 2.7538 2.597 7.0952 1.7738 9.9176 4.2924-5.6742 1.2348-11.613-.4508-15.778-4.4688z" fill="#fcdd09"/><path d="m733.481 675.21501c10.1822-11.4562 19.2766-23.8336 27.93-36.4658.147 28.6062-.0294 57.2124.0882 85.8186-.1862 2.205.49 5.3116-2.058 6.3602-20.9622 12.2206-42.7476 23.03-65.023 32.6438-13.2398 5.8898-27.195 9.8686-40.8856 14.4942-17.5714 5.4978-34.937 11.5934-52.3026 17.6694-.0392-9.8392.01-19.6784-.0392-29.5078 28.959-11.5346 56.7812-26.0092 82.4082-43.7766 11.3484-7.3598 20.776-17.1304 30.576-26.3326 6.9482-6.4778 13.034-13.7886 19.306-20.9034z" fill="#0f47af"/><path d="m647.8682 665.68941c2.2148-3.0968 4.3708-6.5268 7.7126-8.5162 1.3916-.0392 2.793.1764 4.1944.3234-3.5574 1.911-6.4288 4.7432-9.3786 7.4382-.637.1862-1.9012.5586-2.5284.7546z" fill="#fcdd09"/><path d="m621.8296 678.77241c1.7836-2.0776 4.5374-1.3818 6.909-1.5876 1.3426 1.3818 2.9204 2.4892 4.5962 3.4692-.4998 1.6464.441 4.7334-2.1462 4.5962-1.47-1.8816-2.6754-3.9298-3.9788-5.9094-1.7934-.1372-3.6162-.343-5.3802-.5684z" fill="#fcdd09"/><path d="m455.8568 700.43041c.5096-1.7934 2.4402-1.911 3.9886-1.6268.5096 3.1654 1.372 6.9188-.931 9.6138-2.4402 3.3418-4.2238 7.105-5.3508 11.0838-.539-.7252-1.0682-1.4308-1.5974-2.1364 1.323-5.635 2.45-11.3288 3.8906-16.9344z" fill="#fcdd09"/><path d="m354.4366 729.73241c8.4672 6.3602 16.219 13.671 25.088 19.502 14.6706 9.359 30.5466 16.8462 47.0498 22.3636 31.3502 8.9866 64.0038 13.6416 96.6378 12.8184 14.9156-1.2838 29.9194-2.8126 44.345-6.9972 8.7808-2.3324 17.5028-4.9294 25.9308-8.3496.049 9.7314.0196 19.4628.0196 29.1942-12.5636 4.0572-24.794 9.0552-36.6716 14.8176-15.1214 6.4484-29.1746 15.239-42.0126 25.48-9.8686 8.1732-19.6392 16.5816-28.1064 26.2346-4.3512 4.7432-8.6142 9.6236-11.956 15.1508-8.4574-12.2206-18.914-22.9712-30.0762-32.732-15.0822-13.5534-31.9676-25.3134-50.617-33.4082-9.996-4.5864-19.9234-9.4374-30.4192-12.7988-3.136-1.0682-6.2622-2.1658-9.3492-3.3418.2058-22.6478-.01-45.2858.1372-67.9336z" fill="#fcdd09"/></g></svg>