<?xml version="1.0"?>
<svg xmlns="http://www.w3.org/2000/svg" height="600" width="500"><path d="m494.7 129.4c0 28.4-0.5 204-81.7 316.9-44 59.6-100.2 108.5-161.4 148.1h-5.6c-67.4-41.7-138.7-105.7-177-175.6-47.13-84.4-58.83-183.5-63.65-285.1l-0.35-128.1 490-0.009z" fill="#111"/><path stroke="#29d" d="m189.9 307.6h7.6m0-2.1h-7.6m244.1 87.1h-7.5m0-2.7h9.3"/><path d="m433.4 395.4h-6.9v-0.7h6.9v0.7zm-235.9-85.1h-7.6v-0.7h7.6zm291-297.5c-3.5 0.34-8-1.03-9.7 1.37l9.7 0.35v0.69c-3.5 0.69-8.7-1.04-10.4 1.38l10.4 0.35v2.05c-2.5 0.35-6.2-1.02-6.9 1.39 2 0.68 4.4 0.33 6.9 0.33v2.77c-4.2 0.68-9.3-1.04-11.8 1.38 3.5 0.68 7.6 0.34 11.8 0.34v1.72c-3.1 0.34-7.3-1.04-8.3 1.38l8.3 0.34v2.76c-3.1 0.34-7.3-1.04-9 1.37l9 0.35v3.44c-2.5 0.34-6.2-1.03-6.9 1.03 2 0.69 4.4 0.35 6.9 0.35v3.1c-2.1 0.34-5.2-1.04-5.6 1.03 1.4 1.03 3.5 0.35 5.6 0.69v2.06c-2.8 0.35-6.6-1.03-7.6 1.04l7.6 0.34v2.76c-1.4 0-2.8-0.35-3.8 0.34v0.68c1 0.7 2.4 0.35 3.8 0.35v1.38c-1.8 0-3.8-0.35-5.2 0.35v1.02c1.4 0.7 3.4 0.35 5.2 0.35v0.69c-1.4 0.34-2.8-0.34-3.8 0.34v1.04c1 0.68 2.4 0.34 3.8 0.34v2.07c-2.1 0.34-5.2-1.03-5.6 1.37 1.4 0.69 3.5 0.35 5.6 0.35v1.03c-2.5 0.69-6.2-1.03-7.3 1.38l7.3 0.34v1.72c-2.1 0.35-5.2-1.03-5.6 1.39 1.4 0.68 3.5 0.34 5.6 0.34v2.07c-3.1 0.34-7.3-1.04-8.3 1.02l8.3 0.7v0.69c-1.4 0-3.1-0.35-4.2 0.33v1.05c1.1 0.67 2.8 0.34 4.2 0.34v3.78c-3.1 0.35-7.3-1.03-9 1.04l9 0.34v1.72c-1.4 0.34-2.8-0.34-3.8 0.34v1.04c1 0.69 2.4 0.34 3.8 0.34v2.76c-1.8 0.34-3.8 0-5.2 0.69v0.69c1.4 0.68 3.4 0.34 5.2 0.34v2.07c-2.1 0.34-5.2-1.04-5.6 1.37 1.4 0.69 3.5 0.35 5.6 0.35v2.41c-2.1 0.34-5.9-1.03-6.2 1.38 1.7 0.68 4.1 0.34 6.2 0.34v1.38c-2.1 0.34-5.2-1.04-5.6 1.03 1.4 0.69 3.5 0.35 5.6 0.35v1.72c-2.1 0.34-5.9-1.04-6.2 1.38 1.7 1.41 7.2-1.38 6.2 2.41-1.4 0-2.8-0.3-3.5 0.4-0.7 1.3 1.4 1.3 2.1 1.3h1.4v1.8c-2.5 0.3-6.2-1.1-6.9 1 2 0.7 4.4 0.3 6.9 0.3v2.1c-2.8 0.7-6.6-1-7.6 1.4l7.6 0.3v1.4c-3.5 0.3-8-1-9.7 1l9.7 0.7v2.1c-2.8 0.3-6.6-1-7.6 1l7.6 0.4v2.7c-2.1 0.4-5.6-1-5.9 1.1l5.9 0.3v2.1c-2.1 0.7-5.2-1.1-5.6 1.3 1.4 0.7 3.5 0.4 5.6 0.4v1.4c-2.5 0.3-6.2-1.1-6.9 1 2 1 4.4 0.3 6.9 0.7v1.4c-2.8 0.6-6.9-1.1-8 1.3 2.4 1.8 9-1.7 8 2.8-3.1 0.7-7.3-1-9 1.4l8.3 0.3v2.4c-2.4 0.7-6.6-1-7.6 1.4l7.2 0.4v2c-2 0.4-5.5-1-6.2 1.4 2.8 1 8.6-1.4 6.2 4.5-2.7 0.3-6.9-1.1-8.2 1.3l8.2 0.7c0.4 3.1-4.1 0.7-5.8 2.1v0.7c1.7 1 3.8 0.3 5.5 0.7v3.1c-2.4 0.3-6.6-1.1-7.6 1.4l7.2 0.3v2.1c-2.4 1-6.5-0.7-7.5 1.7l7.2 0.3v2.8c-2.4 0.7-6.2-1-6.9 1.4 2.1 0.7 4.5 0.3 6.9 0.3v2.1c-2.8 0.3-6.9-1.1-7.9 1.4l7.2 0.3v2.7c-2.1 0.7-5.5-1-6.2 1.4 2.1 1.4 7.2-1.4 6.2 2.4-2.8 0.4-6.9-1-8.3 1.4 2.4 1.4 9-1.7 8 2.8-1.8 0.3-3.5-0.4-4.9 0.3v1c1.4 0.7 3.1 0.4 4.9 0.4v2.4c-2.5 0.3-6.2-1-6.9 1.4 1.7 0.7 4.4 0.3 6.5 0.3l-0.3 3.5c-3.1 0.3-7.3-1.1-8.6 1l8.6 0.3-0.4 3.5c-2 0.3-5.1-1-5.5 1.4 1.4 0.7 3.5 0.3 5.5 0.3 0.7 4.8-6.9 0.7-7.9 3.8l6.9 0.3v2.1c-2.1 0.3-5.5-1-6.2 1l5.8 0.7c1.4 2.8-3.7 1.1-5.5 1.4-0.3 0.4-0.3 1-0.3 1.4l5.8 0.3v1.1l-6.2 0.6v0.7l5.9 0.7c1.7 3.8-3.8 1.4-5.9 2.1-0.6 0-0.3 0.7-0.3 1l5.9 0.4c-0.7 0.7-0.7 1.7-0.7 2.7-2.4 0.4-6.6-1-7.6 1.1l7.2 0.3v2.8c-2.4 0.3-6.2-1.1-6.9 1 1.8 0.7 4.5 0.3 6.6 0.3l-0.4 3.5c-1.7 0.3-5.1-1.1-5.5 1.4 1.7 0.6 3.8 0.3 5.5 0.3v1l-7.9 1.1v0.7l7.6 0.3c-1 0.7-0.4 1.7-0.7 2.7-2.8 0.4-6.9-1-8.3 1.1 2.4 1.4 8-1.1 8 2-1.8 0.4-5.2-1-5.2 1.4 1.4 0.7 3.1 0.4 4.8 0.4v0.7c-2.7 0.6-6.9-1.1-7.9 1.3l7.6 0.4c0.3 3.4-4.9 0.3-5.2 3.1 1.4 0.7 3.1 0.3 4.8 0.3v0.7c-2.7 0.4-6.5-1-7.6 1.4l6.9 0.3v1.4c-3.1 0.4-7.5-1-9.3 1l9 0.4v1c-2.4 0.4-6.2-1-7.2 1.1l6.8 0.6-0.3 2.8c-3.1 0.3-7.2-1-8.6 1.4l8.6 0.3c0.7 5.5-7.6 1.1-9.3 4.2l8.3 0.3c0 1-0.4 2.1-0.4 3.4-2 0.4-5.5-1-6.2 1.1l5.9 0.3c0.7 4.8-5.2 1.4-7.6 3.1v0.7c2.1 0.7 4.5 0.4 6.9 0.4l-0.7 3.1c-2.4 0.3-6.5-1.1-7.6 1l7.3 0.7c1 2.4-7.6 1.7-1.8 3.1h1.4c-1.7 2-6.9-0.4-8.2 2l7.5 0.4c0.7 5.1-6.9 0.7-7.9 3.8l6.9 0.3c0 0.7-0.4 1.4-0.4 2.1-2 0.7-5.5-1.1-6.1 1.4l5.8 0.3v1.7l-5.8 0.7v1c1.3 0.7 3.4 0.4 4.8 0.4l-0.4 2.7c-2.4 0.7-6.2-1-6.9 1.4 1.8 0.7 4.5 0.4 6.6 0.4 1.4 6.5-6.9 1.3-8.3 4.4l7.6 0.7c-1 0.4-0.3 1.4-0.7 2.4-2.1 0.4-5.8-1-6.5 1.1l5.8 0.7-0.3 3.1c-2.1 0.3-5.5-1.1-5.9 1.3 1.4 0.7 3.5 0.4 4.8 0.4l-0.3 2.7c-2.4 0.7-6.5-1-7.9 1.4l7.2 0.4c-1 1 0.7 3.4-1.7 3.1-2.1 0.3-5.9-1.1-6.6 1l6.9 0.3c1.4 4.9-4.1 1.4-6.2 3.1v0.7c1.8 0.7 3.8 0.4 5.5 0.4-0.3 1-1.3 1.7-1 3.1-1.7 0.3-5.2-1.1-5.5 1 1.4 1 3.1 0.3 4.8 0.7l-0.3 2.7c-2.1 0.4-5.5-1-6.2 1.4 1.4 0.7 3.4 0.4 5.1 0.4v0.7c-1.3 0.3-3.1-0.4-4.4 0.3v1c1 0.7 2.7 0.4 4.1 0.4-2.8 0.3-7.2-1.1-8.6 1.4l8.3 0.3c1.3 6.2-6.6 1.4-7.6 4.5l5.8 0.3c-0.3 0.7-0.3 1.7-0.3 2.4l-7.9 1.1v0.6c2 0.7 4.4 0.4 6.5 0.4 0.7 4.8-5.2 1.4-7.2 3.1v0.7l5.8 0.3c1.1 3.5-3.4 2.4-5.8 2.8-0.7 0-0.4 0.7-0.4 1 1.4 0.7 3.1 0.4 4.9 0.4 1.3 5.1-5.6 0.6-6.2 3.7 1.3 0.7 3.1 0.4 4.4 0.4-0.3 1-1 1.7-0.7 2.7-1.7 0-3.4-0.3-4.4 0.4v0.7c1 0.7 2.4 0.3 3.4 0.3 1 5.2-5.5 0.7-6.2 3.8 1.4 0.7 3.1 0.4 4.8 0.4-0.3 0.6-0.7 1.3-0.7 2-1.3 0.4-3.1 0-4.4 0.7v0.7c1 0.7 2.4 0.3 3.8 0.3 0 4.5-4.9 1.8-5.9 4.2 1 0.7 2.4 0.3 3.8 0.3-0.4 3.5-5.5 0.4-5.9 3.1 1.1 0.7 2.8 0.4 4.2 0.4v0.7l-5.2 1v0.7c1 0.7 2.8 0.3 4.5 0.3 0 3.5-5.2 0.4-5.5 3.1 1 0.7 2.4 0.4 3.8 0.4-0.4 7.9-8.6 1.7-13.1 3.8v-1.8c2-0.3 5.5 1.1 6.2-1.3-2.1-1.4-7.3 1.7-6.2-2.5 2.4-0.3 6.5 1.1 7.5-1-2.4-0.7-5.1-0.3-7.5-0.7v-1c1.4 0 3.1 0.3 4.5-0.4v-1c-1.4-0.7-3.1-0.3-4.5-0.3v-1.8c2.7-0.3 7.2 1.1 8.9-1l-8.9-0.7v-0.7c1.7-0.3 4.8 1.1 5.1-1.3-1.3-0.7-3.4 0-5.1-0.4v-1.7c2.4-0.4 6.5 1 7.5-1-2.4-1.8-8.9 1.7-7.5-3.1 3.8-0.4 8.9 1 11.3-1.1-3.4-0.7-7.5-0.3-11.3-0.3v-2.1c2-0.7 5.8 1 6.5-1.4-2-0.7-4.5-0.3-6.5-0.3v-1.7c4.1 0 8.6 0.3 12.7-0.4v-1c-4.1-0.7-8.6 0-12.7-0.4v-2.4c2.7-0.3 7.2 1.1 8.9-1.3l-8.9-0.4v-1.7c3.1-0.3 7.9 1 9.6-1l-9.6-0.4v-1.7c3.1-0.3 8.2 1 10.3-1.4l-10.3-0.3v-2.1c3.8 0 8.2 0.3 11.7-0.3v-1.1c-3.5-0.7-7.9 0-11.7-0.3v-2.1c3.1-0.3 7.9 1 9.6-1l-9.6-0.7v-2.1c4.5 0 9.3 0.4 13.7-0.3v-0.7c-4.4-0.7-9.2-0.3-13.7-0.3v-1.8c3.8-0.3 8.9 1.1 11.3-1.3-3.4-0.7-7.5-0.4-11.3-0.4v-1.7c4.8 0 9.6 0.3 14.4-0.4v-0.6c-4.8-0.7-9.6-0.4-14.4-0.7v-1.1c4.1 0 8.6 0.4 12.7-0.3v-1c-4.1-0.7-8.6-0.4-12.7-0.4v-2.1c4.8 0 9.6 0.4 14.4-0.3v-1c-4.8-0.7-9.6 0-14.4-0.4v-1.7c4.8 0 10 0.3 14.8-0.3v-0.7l-14.8-0.4v-1.7c4.8 0 10 0.3 14.8-0.3v-1.1l-14.8-0.3v-2.1c3.1-0.3 7.5 1 9.3-1.4l-9.3-0.3v-2.4c2.7-0.4 7.2 1 8.9-1.4l-8.9-0.3v-2.1c4.1 0 8.6 0.3 12.7-0.3v-0.7c-4.1-0.7-8.6-0.4-12.7-0.7v-2.1c2.7-0.3 6.9 1 8.2-1l-8.2-0.4v-3.4c3.4-0.4 8.6 1 11-1.4-3.5-0.7-7.6 0-11-0.3v-2.4c2.7-0.4 7.2 1 8.6-1.4l-8.6-0.4v-3.8c-2.4-0.6-5.5 0-7.9-0.3v-0.7c2.7-0.3 7.5 1 8.9-1.4l-8.9-0.3v-1.4c2-0.3 5.5 1 6.2-1-2.1-1.4-6.6 1-6.2-2.1 2.4-0.3 6.5 1 7.9-1.4-2.4-1.3-7.9 1.4-7.9-2 3.1-0.4 7.9 1 9.3-1.1l-9.3-0.7v-1c2.7-0.3 6.8 1 8.2-1.4l-8.2-0.3v-2.8c2.4-0.6 6.2 1.1 7.2-1.3l-7.2-0.4v-1.7c2-0.3 5.8 1 6.5-1.4-2.1-0.7-4.5 0-6.5-0.3v-1.7c1.7 0 3.4 0.3 4.8-0.4v-0.7c-1.4-0.7-3.1-0.3-4.8-0.3v-1.7c2.4-0.4 6.2 1 6.8-1.4l-6.8-0.4v-2c2.7-0.4 6.8 1 8.2-1.4l-8.2-0.4v-2.4c3.1-0.3 7.9 1.1 9.9-1.3l-9.9-0.4v-2.1c2.4-0.3 6.5 1.1 7.9-1-2.4-1.4-7.9 1-7.9-2 2.7-0.7 6.8 1 8.2-1.4l-8.2-0.4v-2.4c2.7-0.7 7.2 1.1 8.6-1.4l-8.6-0.3v-1.7c2.7-0.4 6.8 1 8.2-1.4l-8.2-0.4v-1c2.4-0.7 6.2 1 6.8-1.4l-6.8-0.3v-1.7c1.7-0.4 4.8 1 5.1-1.4-1.4-0.7-3.4 0-5.1-0.3v-2.1c2-0.4 5.8 1 6.5-1-2.1-0.7-4.5-0.4-6.5-0.7v-2.4c3.7-0.4 8.9 1 11.3-1.1-3.4-0.7-7.6-0.3-11.3-0.7v-1.3c3.1-0.7 7.9 1 9.3-1.4l-9.3-0.4v-1.7c2.4-0.3 6.2 1 6.8-1.4l-6.8-0.3v-2.4c2-0.4 5.8 1 6.5-1.4-2.1-0.7-4.5 0-6.5-0.3v-2.1c3.1-0.4 7.9 1 9.3-1l-9.3-0.7v-2.4c3.7-0.4 8.9 1 11.3-1.1-3.4-0.7-7.6-0.3-11.3-0.7v-2c2.4-0.4 6.5 1 7.9-1.1-2.4-1.3-7.9 1.1-7.9-2 2-0.4 5.5 1 6.2-1.4-2.1-1.4-7.3 1.4-6.2-2.4 3.1-0.4 7.9 1 9.3-1.4l-9.3-0.3v-1.1c2.4-0.7 6.5 1.1 7.9-1.3-2.4-0.7-5.5-0.4-7.9-0.4v-1.4c2-0.3 5.5 1.1 6.2-1-2.1-1.7-8.7 2.1-6.2-3.4 4.8 0 10.3 0.3 15.1-0.4v-1l-7.2-0.4c0.3-1 3.4 0.7 3.1-1.7-0.7-0.7-2.1 0-3.1-0.3v-0.7c2-0.4 6.2 1 6.9-1.4l-6.9-0.3v-1.4c1.7-0.4 4.8 1 5.1-1.1-1.3-0.6-3.4-0.3-5.1-0.3v-2.1c2.4-0.7 6.5 1.1 7.5-1.3-2.4-1.8-9.6 2-7.5-3.5 2.4-0.3 6.5 1.1 7.5-1-2.4-1.4-8.2 1.4-7.5-2.4 2.7-0.7 7.2 1 8.6-1.4l-8.6-0.3v-2.1c2-0.4 6.2 1 6.9-1.4l-6.9-0.3v-1.8c2.4-0.3 6.2 1.1 7.2-1l-7.2-0.7v-2c1.4 0 3.4 0.3 4.8-0.4v-0.7c-1.4-0.7-3.4-0.3-4.8-0.3v-1.4c2.7-0.3 6.9 1 8.2-1.4-8.9-2-19.9-0.7-29.9-1l-0.7 18.6h-12.8v-1.4c2.1-0.3 5.6 1 6.2-1-2-1.7-7.2 1.4-6.2-2.8 2.8-0.3 7.3 1.1 8.7-1l-8.7-0.4v-2c2.1-0.7 5.9 1 6.6-1.4-2.1-0.7-4.5-0.3-6.6-0.3v-1.8c2.5-0.3 6.6 1.1 7.6-1.3-2.4-1.1-7.6 1.3-7.6-2.1 1.8-0.4 4.9 1 5.2-1-1.4-0.7-3.4-0.4-5.2-0.4v-1.4l-26.1-0.3-0.4 16.9h-11.3v-1.8c2.7-0.3 6.5 1.1 7.5-1l-7.5-0.7v-1c2.4-0.4 5.8 1 6.9-1.4-2.1-0.7-4.5-0.3-6.9-0.3v-2.1c1.7 0 3.8 0.3 5.1-0.3v-1.1c-1.3-0.7-3.4 0-5.1-0.3v-0.7c2.4-0.4 5.8 1 6.9-1.4-2.1-0.7-4.5-0.3-6.9-0.3 0.7-1.1 4.1 0.7 3.8-1.8-1.1-0.6-2.5-0.3-3.8-0.3v-2.1l-26.2-0.3-1 1v32.4l5.8 0.3 0.4 105.4h-25.5l-1 22.7h-8.3v-2.4c2.1-0.3 5.5 1.1 5.8-1.4l-5.8-0.3v-2.1c2.1-0.3 5.8 1.1 6.2-1-1.7-1.4-6.6 1-6.2-2.1 1.7-0.7 5.2 1.1 5.5-1.3-1.7-0.7-3.8-0.4-5.5-0.4v-1.7c2.1-0.4 5.5 1 5.8-1.4l-5.8-0.3 5.5-0.7v-1.1c-1.7-0.6-3.8 0-5.5-0.3v-1.7c1.7 0 3.8 0.3 5.2-0.4v-0.7c-1.4-0.6-3.5-0.3-5.2-0.3v-1c1.7 0 3.4 0.3 4.8-0.4v-0.7c-1.4-0.7-3.1-0.3-4.8-0.7v-1.3c1.7-0.7 5.2 1 5.5-1.4-1.7-0.7-3.8-0.4-5.5-0.4v-1.7c3.1-0.3 7.6 1.1 9.3-1.4l-9.3-0.3v-1c3.8-0.7 8.9 1 11.4-1.4-3.5-0.7-7.6-0.4-11.4-0.4v-2c3.8-0.4 8.9 1 11-1.4-3.4-1.4-11 1.7-11-2.7 3.4-0.4 8.6 1 10.3-1.4l-10.3-0.4v-0.7c3.1-0.6 7.2 1.1 8.9-1.3l-8.9-0.4v-2.4c4.5-0.3 8.9 0.4 13.1-0.7v-0.7c-4.2-0.7-8.6-0.3-13.1-0.3v-1.7c3.1-0.4 7.2 1 8.9-1.4l-8.9-0.4v-2c2.8-0.4 7.2 1 8.3-1.1l-8.3-0.6v-3.1c2.4-0.4 6.2 1 7.2-1.4l-7.2-0.4v-2c3.8-0.4 9.3 1 11.7-1.4-3.8-0.7-7.9 0-11.7-0.4v-2.4c2.8-0.3 7.2 1.1 8.3-1.3l-8.3-0.4c3.4-1 9.3 0.7 11.7-1.7-3.8-0.7-7.9 0-11.7-0.3v-1.8c2.8-0.3 6.5 1.1 7.6-1l-7.6-0.4v-1.7c3.4-0.3 8.3 1.1 10-1.4l-10-0.3v-2.1c3.8-0.3 9.3 1.1 11.7-1.3-3.8-0.7-7.9 0-11.7-0.4v-1.7c2.4-0.3 5.8 1 6.9-1l-6.9-1.1v-1.3c4.1-0.4 8.3 0.3 12-0.7v-0.7c-3.7-0.7-7.9-0.4-12-0.4l8.3-1v-0.7l-8.3-0.3v-1.4c3.4-0.4 7.9 1 9.6-1l-9.6-0.7c2.8-1.1 8.3 1 10-1.4l-10-0.7v-0.7c3.1-0.3 7.6 1 9.3-1.4l-9.3-0.7v-0.6c3.8-0.7 8.9 1 11.4-1.4-3.5-0.7-7.6-0.4-11.4-0.4 3.1-1 8.9 0.7 11.4-1.7-3.5-0.7-7.6-0.3-11.4-0.3 2.8-1.1 7.9 0.7 9.6-1.8l-9.6-0.3v-2.1c3.4-0.3 7.9 1.1 9.6-1.3l-9.6-0.4v-1.4c2.8-0.3 7.2 1.1 8.3-1l-8.3-0.3v-4.9c2.4-0.3 6.2 1.1 7.2-1l-7.2-0.3v-1.4c3.8-0.4 9.3 1 11.7-1.4-3.8-0.7-7.9 0-11.7-0.3v-1.8c3.4-0.3 8.6 1.1 10.3-1l-10.3-0.3v-1.4c3.4-0.4 7.9 1 9.6-1.4l-9.6-0.3 6.2-0.7v-1.1c-1.7-0.6-4.1 0-6.2-0.3v-1c3.8-0.7 8.9 1 11-1.4-3.4-1.4-9.6 1-11-2.1 1.4 0 3.1 0.4 4.1-0.3v-1.1c-1-0.6-2.7 0-4.1-0.3v-0.7c3.4-0.3 7.9 1 9.6-1.4l-9.6-0.3v-0.7c2.8-0.7 7.2 1 8.3-1.4l-8.3-0.3c4.1 0 8.6 0.3 12.4-0.4v-1c-3.8-0.7-8.3-0.3-12.4-0.3l5.2-0.7v-1.1c-1.4-0.6-3.5-0.3-5.2-0.3v-1.4c2.4-0.3 5.8 1.1 6.9-1-2.1-0.7-4.5-0.4-6.9-0.4v-2c1.7-0.4 3.4 0.3 4.8-0.7v-0.7c-1.4-0.7-3.1-0.3-4.8-0.3v-1.4c3.4-0.4 8.6 1 10.3-1.1l-10.3-0.6c2.1-0.4 5.8 1 6.2-1.1-1.7-1.4-7.2 1.4-6.2-2.4 3.1-0.7 7.6 1 9.3-1.4l-9.3-0.3v-1.7c2.8-0.4 7.2 1 8.3-1.4l-8.3-0.4v-1.7c3.8-0.3 8.9 1.1 11-1-3.4-1.4-9.6 1-11-2.1 2.4-0.3 5.8 1.1 6.9-1.4 3.1-0.3 7.6 1.1 9.3-1l-9.3-0.7v-1.3c4.5-0.4 9.3 0.3 13.4-0.7v-0.7c-4.1-0.7-8.9-0.4-13.4-0.4v-1.3c2.7-0.4 6.9 1 8.2-1.1l-8.2-0.7v-1.4c2.4-0.6 6.2 1.1 7.2-1.3l-7.2-0.4v-1c3.1-0.4 8.2 1 10.3-1l-10.3-0.4v-1c2.7-0.4 6.9 1 8.2-1.1l-8.2-0.6v-0.7c3.8-0.4 8.9 1 11.3-1.4-3.4-0.7-7.5 0-11.3-0.3v-1.1c3.1-0.7 7.6 1.1 9.3-1.4l-9.3-0.3v-1c2.4-0.4 6.5 1 7.6-1.1-2.5-1.7-9 1.8-7.6-3.1 3.4-0.3 8.6 1.1 11-1-3.4-0.7-7.6-0.3-11-0.3v-1.4c2.4-0.4 6.2 1 7.2-1.4l-7.2-0.3v-1.8c-3.5-1-8.3 1.1-11-1.3 2.4-0.7 5.8 1 6.9-1.4l-7.6-0.4 7.9-1v-0.7c-3.1-1.4-8.3 1-9.7-2.1 3.8-0.3 9 1.1 11.4-1.3-4.1-1.1-10 1-13.1-1.4 3.5-0.7 8.6 1 10.4-1.4-3.5-1-9 0.7-11.4-1.73 2.4-0.34 6.5 1.03 7.9-1.03l-9.3-1.03v-0.34c1-1.04 6.2 0.68 7.2-1.73l-8.2-0.35v-0.34c0-1.03 4.8 0.69 5.1-1.72-2-1.03-6.1 0.69-6.8-1.72 1.7-0.34 5.1 1.03 5.8-1.03-2.4-1.38-6.9 1.03-7.6-2.07 2.8-1.03 8.6 0 12.4-1.03v-0.69c-4.4-0.69-8.9-0.35-13.7-0.35l-0.4-1.37c1.7-1.04 7.9 0.68 9.7-1.72-3.8-1.38-9.7 1.37-11.7-2.07 3.7-0.35 8.9 1.03 11.3-1.03-3.8-0.7-8.2-0.35-12-0.7l-0.4-1.02c2.8-0.35 7.3 1.02 8.6-1.38-3.4-1.72-10.6 2.4-10.6-3.1 3.4-0.69 8.6 1.03 11-1.38-4.2-1.38-11 1.38-13.1-2.41 2.4-0.34 6.5 1.03 7.6-1.38-2.8-1.37-8.6 1.38-9.3-2.41 1-1.03 6.2 0.69 7.2-1.72-2.8-1.03-7.6 0.69-9-1.72 1.8-1.03 8 1.03 10-1.38-3.8-1.38-9.6 1.03-12-2.07 3.4-0.69 7.9 1.04 10-1.37-3.8-1.38-9.7 1.03-11.7-2.07l8.6-0.69v-1.03c-3.1-1.38-9 1.38-10.7-2.41 2.7-0.35 6.9 1.03 7.9-1.38l-8.6-0.35v-0.34c0.3-1.03 4.8 0.69 5.2-1.72-2.1-1.03-6.2 0.69-6.9-1.72 2.7-0.34 6.9 1.04 8.2-1.03-3.1-1.03-7.9 0.69-9.9-1.73 2.7-1.03 7.9 0.7 9.6-1.72-3.8-1.37-9.6 1.38-11.7-2.41 3.4-0.34 8.3 1.04 10.3-1.37l-10.3-0.35c1.7-3.44 9.6 0 12-2.75l-9.9-0.35c0-3.44 4.8-0.69 6.5-2.06v-1.03l-5.5-0.35v-1.38c3.8-0.34 8.9 1.03 11.4-1.03-3.8-1.04-8.7 0.34-12.4-1.38 1.7-0.34 5.1 1.04 5.5-1.03-2.4-1.37-6.2 1.03-7.6-2.07 2.1-0.68 5.5 1.04 5.8-1.37-8.6 0.34-19.6-7.23-25.1 3.79-1.7 2.75-0.7 6.88 0.7 9.29l3.8 3.44-33.4 72.29c-4.8 0.7-10 0.4-14.8 0.4l-0.7 26.2c0.7 0.7 2.1 0.3 3.1 0.3 0.3 2.4-0.7 5.5 0.7 6.9v146.3c-1.4 3.1-0.4 8-0.7 12.1h-7.6v-1.4c2.4-0.3 6.2 1 7.2-1l-7.2-0.4v-1.3c2.1-0.4 5.9 1 6.6-1.4-1.8-0.7-4.5 0-6.6-0.4v-2c1.7-0.4 5.2 1 5.5-1.1-1.7-0.7-3.8-0.3-5.5-0.7v-1c1 0 2.1 0.4 3.1-0.3 0.4-1.4-1-1.4-1.7-1.4h-1.4v-2.4l-17.5-1.1v-0.6c-2.5-0.7-5.6-0.4-8-0.4v-1c2.8-0.4 7.6 1 9-1.1l-9-0.3v-1.4c2.1-0.3 5.5 1.1 6.2-1.4-2-1-6.5 1.4-6.2-2 2.4-0.4 6.6 1 8-1.1-2.5-1.3-8 1.1-8-2 3.1-0.4 8 1 9.3-1.4l-9.3-0.3v-1.4c2.8-0.4 6.9 1 8.3-1l-8.3-0.4v-3.1c2.4-0.3 6.2 1 7.3-1l-7.3-0.7v-1.4c2.1-0.7 5.9 1 6.6-1.4-2.1-0.7-4.5-0.3-6.6-0.3v-1.7c1.8 0 3.5 0.3 4.9-0.4v-1c-1.4-0.7-3.1 0-4.9-0.4v-1.7c2.4-0.3 6.2 1.1 6.9-1l-6.9-0.4v-2c2.8-0.7 6.9 1 8.3-1.4l-8.3-0.3v-2.5c3.1-0.6 8 1.1 10-1.3l-10-0.4v-2c2.4-0.4 6.6 1 8-1.4-2.5-1.7-9.7 2.4-8-3.1 2.8-0.7 6.9 1 8.3-1.4l-8.3-0.3v-2.5c2.8-0.6 7.3 1.1 8.6-1.3l-8.6-0.4v-1.7c2.8-0.3 6.9 1 8.3-1.4l-8.3-0.3v-1.1c2.4-0.6 6.2 1.1 6.9-1.3l-6.9-0.4v-1.7c1.8-0.3 4.9 1 5.2-1.4-1.4-0.7-3.4 0-5.2-0.3v-2.1c2.1-0.3 5.9 1.1 6.6-1-2.1-0.7-4.5-0.4-6.6-0.7v-2.4c3.8-0.4 9 1 11.4-1-3.4-0.7-7.6-0.4-11.4-0.7v-1.4c3.1-0.7 8 1 9.3-1.4l-9.3-0.3v-1.8c2.4-0.3 6.2 1.1 6.9-1.3l-6.9-0.4v-2.4c2.1-0.3 5.9 1 6.6-1.4-2.1-0.7-4.5 0-6.6-0.3v-2.1c3.1-0.3 8 1.1 9.3-1l-9.3-0.7v-2.4c3.8-0.4 9 1 11.4-1-3.4-0.7-7.6-0.4-11.4-0.7v-2.1c2.4-0.3 6.6 1 8-1-2.5-1.4-8 1-8-2.1 2.1-0.3 5.5 1 6.2-1.4-2-1.3-7.2 1.4-6.2-2.4 3.1-0.3 8 1.1 9.3-1.4l-9.3-0.3v-1c2.4-0.7 6.6 1 8-1.4-2.5-0.7-5.6-0.4-8-0.4v-1.3c2.1-0.4 5.5 1 6.2-1.1-2-1.7-8.6 2.1-6.2-3.4 4.9 0 10.4 0.3 15.2-0.4v-1l-7.2-0.3c0.3-1.1 3.4 0.7 3.1-1.8-0.7-0.6-2.1 0-3.1-0.3v-0.7c2-0.3 6.1 1 6.8-1.4l-6.8-0.3v-1.4c1.7-0.3 4.8 1 5.1-1-1.4-0.7-3.4-0.4-5.1-0.4v-2c2.4-0.7 6.5 1 7.5-1.4-2.4-1.7-9.6 2.1-7.5-3.4 2.4-0.4 6.5 1 7.5-1.1-2.4-1.4-8.2 1.4-7.5-2.4 2.7-0.7 7.2 1 8.6-1.4l-8.6-0.3v-2.1c2-0.3 6.1 1.1 6.8-1.4l-6.8-0.3v-1.7c2.4-0.4 6.1 1 7.2-1.1l-7.2-0.6v-2.1c1.3 0 3.4 0.3 4.8-0.4v-0.6c-1.4-0.7-3.5-0.4-4.8-0.4v-1.4c2.7-0.3 6.8 1.1 8.2-1.3-8.9-2.1-20-0.7-29.9-1.1l-0.7 18.6h-12.8v-1.4c2.1-0.3 5.5 1.1 6.2-1-2-1.7-7.2 1.4-6.2-2.7 2.8-0.4 7.3 1 8.6-1.1l-8.6-0.3v-2.1c2.1-0.7 5.9 1 6.6-1.4-2.1-0.7-4.5-0.3-6.6-0.3v-1.7c2.4-0.4 6.6 1 7.6-1.4-2.4-1-7.6 1.4-7.6-2.1 1.8-0.3 4.9 1.1 5.2-1-1.4-0.7-3.4-0.4-5.2-0.4v-1.3l-26.1-0.4-0.4 16.9h-11.34v-1.7c2.74-0.4 6.54 1 7.54-1.1l-7.54-0.6v-1.1c2.44-0.3 5.84 1.1 6.84-1.4-2-0.6-4.4-0.3-6.84-0.3v-2.1c1.74 0 3.74 0.4 5.14-0.3v-1c-1.4-0.7-3.4 0-5.14-0.4v-0.7c2.44-0.3 5.84 1.1 6.84-1.4-2-0.6-4.4-0.3-6.84-0.3 0.64-1 4.14 0.7 3.74-1.7-1-0.7-2.4-0.4-3.74-0.4v-2l-26.18-0.4-1.03 1.1v32.3l5.85 0.4 0.35 107.4h-6.54l-0.35 119.1c-40.29-74.7-51.65-163.5-57.15-253.7-2.42-46.5-2.07-94.41-2.07-141.9l476.3-0.02v1.72zm-185 446.6c-1.7-2.7-4.1-5.8-6.8-7.5-4.5 2.7-4.5 0.3-7.3-3.1 1.7-3.5 6.6-7.3 3.1-11.1-0.7-3.4-0.3-8.2-4.1-10.6l-8.3 8.2c2.4-4.4 8.6-8.9 4.5-14.4-0.7-3.1-3.4-1.1-4.8-1.8 1-4.1-0.4-7.9-2.1-11.3-3.1-3.5-7.9-3.1-12.4-3.1-3.8 0.3-5.1 4.5-7.5 6.5-1.8 5.9 1 10.7 4.4 14.8 4.5 1.4 7.9-1.3 8.6-5.8 0-2.4 0.7-5.5-2-7.3-0.4 0.7-1.1 2.1-2.4 1.8h-1.1l0.7-3.5c3.1-0.7 4.1 2.8 4.8 4.5 2.8 7.9-3.4 16.5 2.1 23.1l-3.4 3.8c1.3 3.4 4.4 6.2 6.8 9.3 3.8-4.2 6.2-0.4 8.7 2.7v2.4c-7.6-0.3-15.2-5.8-18.3-13.4 4.5-12.4-10-17.2-13.8-26.9-3.4 0.4-4.8-2-7.2-4.1-4.1 2.4-8.3 6.9-14.1 7.2-4.2 2.8 0 9-4.8 10.7-0.7 2.1 0.6 3.1 2 3.8h1.4c-2.1 1-3.1 4.1-1.4 5.5 2.8 0.3 4.2-2.1 6.6-3.8 0 1-0.4 3.5 1.7 2.4h1.4c-3.5 3.5-6.6 5.2-10.4 5.2-8.6 0.7-15.5-9.3-22.3-3.8-0.4 2.4-5.9 3.1-3.8 6.9 2.4 2.4 3.1 6.5 7.9 5.2-1 1.7 1.4 1.3 2.1 2.4 1.7 0.3 3.1-0.7 4.4-2.1-0.3 0.7 0.4 4.1 2.4 4.1 4.9-4.1 10.4 0.4 14.8 0.7 0.7 3.1-3.4 2.8-5.5 3.5-3.8-0.7-8.2-2.5-11.7 0-1.3 1-3.1 3.1-1.3 4.4 1 1.4-1.1 3.1-0.4 5.5 4.8 0.4 5.5 8 11.7 4.2 1-2.4 3.8 0.7 5.9-1.1l1.3-1.7c-0.3 1.1 1.1 1.4 1.4 2.1 3.1 0 5.9-1 7.6-4.1 3.1 2 5.2 7.2 9.3 6.8 2.1-2 1.7-5.1-0.4-6.8l-3.4-3.5c3.4-1.7 7.9-3.4 10-7.2 1.7 0.3 2.8 1.4 4.1 2-2.4 4.5-9.6 8.3-6.2 14.2l1.1 1.3c-3.5 2.8-7.6 3.1-12.1 2.8-2.1 2.4-3.4 5.5-3.4 8.3 2.4 2.7 5.1 1.7 7.5 4.1 3.8 1 5.9-3.8 9.3-2.1 3.5-4.1 5.9 0.4 9.7-2.7 8.6 4.8 9.6-11.4 17.9-5.9 3.1 2.1 5.1 5.2 6.2 8.6-2.4 4.2-7.2 7.6-5.9 13.1 1.8 2.4 4.5 1.4 6.2 0 2.1 0.4 4.8-1.4 6.2-3.1 1.7 0.7 1.7-1.4 2.8-2.1-0.4-2 1-5.5-1.7-5.8 2.7-6.9 1.3-9.6 3.1-16.9-5.9-1 2.4-7.6-3.8-8.6h-8.6c3.4-1.7 5.5-4.8 8.2-0.7l5.2-3.1c2.7 15.5-0.4 31-5.2 44.4-31.7 5.6-65.1-2.7-84.7-29.6-8.9-9.6-17.5-19.6-22.7-31 22.4-18.9 47.2-36.5 70.2-54 23.1 16.9 36.5 41.3 42 67.1" fill="#29d"/><path stroke-linejoin="round" stroke="#e32" d="m230.5 437.4c-0.6-0.4 1.4-3.1 3.1-3.1-0.3 1-2 3.1-3.1 3.1zm-5.8-316.8c0.3 3.1-0.4 6.2-2.4 7.6l-0.4-8.3zm11 7.9c-5.2 0.4-4.5-5.5-5.5-9.3 1.7-2.7 5.9-1.7 7.6 0.4-0.7 3.1 1.7 8.6-2.1 8.9zm42-4.1-0.7-7.9c4.9-0.7 2.4 4.4 3.1 7.2-1.3 0.3-1 2.1-2.4 0.7zm-8.9 2.4h-4.2c1.4-4.1-3.1-12.4 3.8-12.7 1.7 0.6 2.8 2.4 5.2 1.7 0 4.8 0 9.6-4.8 11zm-52.7-14.8 2-4.5c0.7 0.4 1.8 1.4 2.1 2.1 0.7 3.1-2.1 2.4-4.1 2.4zm10 2.1c-1.7-1.1-3.8-2.5-3.1-4.9l5.1-3.4c2.1 1.4 6.9 1 4.5 5.5-1.4 2.8-3.4 5.2-6.5 2.8zm21.7-2.1c-0.7-3.8 1-6.2 3.7-7.2 3.5 0.3 5.6 3.1 4.5 7.2zm12.4 0c-0.4-3.8 0.6-5.9 3.4-7.9 2.8 1.3 6.9 2 4.1 6.2-2.4 2.4-4.4 1.7-7.5 1.7zm-16.6 0c-2 0.3-4.8-0.7-5.8 1v1.1c-3.8-0.7-1.4-5.6-2.1-8.3 1.4 0.3 2.1-0.4 1.7-1.7 2.4 1.3 7.6 2.4 6.2 6.9zm32.7-0.4c-1.3 3.1-3.7-0.3-4.8-0.6-1.7-1.8-0.7-4.2-1-6.2 2.4 0.3 4.1-2.8 6.2-1.1zm4.9-8.9c2.4 2.1 3.8 6.2 5.5 9.3-7.3 2.7-4.8-5.9-5.5-9.3zm-57.9 1-2.7-0.7c0.3-2.4 2-7.19 4.8-7.19-0.4 2.75 1.4 6.89-2.1 7.89zm11-0.3c-2-1.4-6.5-1.7-5.1-5.53 0-1.38 3.1-1.72 4.1-3.1 1.7 0.34 4.8 0.69 4.5 2.76-1.4 1.72-0.4 5.47-3.5 5.87zm6.9-2.4c-2.4-5.54 1.1-4.16 4.2-7.6 3.1 2.06 3.4 3.78 3.4 7.6-2.4 3.1-5.2 1.4-7.6 0zm17.9 2c-2.7-0.3-7.5-2-6.9-5.82v-1.38c2.1-0.68 3.1-1.03 4.2-3.1 2.7-0.68 4.5 0.7 5.5 2.07-1 2.76 2.4 9.33-2.8 8.23zm21.4-3.41c-3.5-0.68-6.2-3.78-4.8-7.92 2 1.38 3.4 5.17 4.8 7.92m-7.6-2.75c0 2.41-2.4 3.76-4.5 4.86-4.8 0-2-5.55-2.7-8.31 2.4-2.75 5.1-0.68 6.9 1.04zm-46.5-4.47c-1.4-3.11 2.4-5.86 2.8-9.31 3.1 1.38 3.1 3.79 3.1 7.24-2.1 0.68-3.8 4.47-5.9 2.07zm22.4-1.39c-2.4-1.03-1.4-4.47-1-6.54 2-2.06 9.3-0.68 7.5 4.14-1.3 1.72-4.4 5.85-6.5 2.4zm-13.4-0.68c-0.7-1.73-0.4-3.79-0.4-5.51l4.2-2.76c2 2.76 7.5 1.38 5.5 6.89-3.1 1.03-5.9 5.17-9.3 1.38zm24.4-1.04c-1.7-1.37-0.7-3.79-0.7-5.85 2.1-4.14 9-1.04 6.6 3.44-1.1 2.76-4.2 2.76-5.9 2.41zm15.2-0.34c-1.8 1.38-4.2-0.69-6.2-1.38 0.7-2.41-1.4-6.89 1.7-7.23zm-43.4-9.64 3.4-8.26c3.5 1.02 4.2 2.4 3.8 6.19-1.4 2.07-4.5 4.13-7.2 2.07zm20.6-0.01c-1.3-1.72-0.3-4.47-0.7-6.88 3.1-4.47 12.1-1.03 8.7 5.51-2.1 1.72-5.2 4.47-8 1.37zm-10.3-0.34c-1.7-1.03-0.7-3.79-1-6.19 2.7-5.17 11-1.38 7.9 4.47-2.1 1.72-4.5 4.48-6.9 1.72zm20.7-2.41c-0.7-2.41-0.7-6.2 2-6.88 2.4 1.02 3.5 4.47 4.2 6.88-1.4 3.11-4.2 1.38-6.2 0zm-11.7-8.6c-2.1 0.34-3.5-1.04-4.2-2.42-1-3.09 1.8-2.41 2.4-4.13 2.8-1.38 3.5 1.72 5.2 2.41 0 2.07-1.7 3.45-3.4 4.14zm-13.8-1.04 2.7-6.55c2.1 1.38 5.2 2.08 3.8 5.87-1.7 1.72-4.4 2.4-6.5 0.68zm26.8-1.03c-1.3 2.41-3.4 0.35-5.5 0.35-1.7-0.35-0.6-2.42-1-3.8l2.8-2.75zm-21-8.26c-2-1.72 1.1-4.14 1.1-6.2 2 2.06 6.9 2.06 3.8 6.2-1.8 2.06-3.1 1.02-4.9 0zm12.8 1.02c-1.7-0.34-4.5 0-4.2-2.75 0.7-2.41 2.5-3.79 4.5-5.51 1.1 2.07 2.4 3.79 2.4 5.86-0.6 1.03-2 1.38-2.7 2.4zm-2.1-13.08c-0.7 1.38-1.4 3.45-3.4 3.79l-4.5-1.38c2.7-1.72 1-8.26 6.2-6.19z" fill="#e32"/><path d="m267.7 498.3c-0.7 1.8-2 3.5-3.4 4.5-2.8 0-4.5-4.1-6.6-6.2 0.7-1.7 2.8-4.5 5.6-4.1l4.4 5.8zm17.6-4.8c0.3 2.1-1.7 3.8-2.8 4.8-2.7-0.3-4.4-4.1-6.5-6.2 0.7-1.7 2.8-4.4 5.2-4.1l4.1 5.5zm-49.9-10c-0.4 1.7-2.1 3.5-3.1 4.5-3.1-0.3-4.5-4.1-6.9-6.2 1-1.7 2.7-4.5 5.5-4.1l4.5 5.8zm-22.4-23.4c-0.4 1.7-2.1 3.5-3.1 4.5-3.1-0.4-4.5-4.1-6.6-6.2 0.7-2.1 2.8-4.8 5.2-4.1l4.5 5.8zm12.4-25.5c-0.4 2.1-2.1 3.5-3.1 4.9-3.1-0.4-4.5-4.2-6.6-6.2 0.7-2.1 2.8-4.9 5.2-4.2l4.5 5.5zm29.9-24.8c-0.7 2.1-2 3.5-3.4 4.9-2.8-0.4-4.5-4.2-6.5-6.2 0.6-2.1 2.7-4.9 5.5-4.2l4.4 5.5z" fill="#111"/><g fill-rule="evenodd"><path d="m332.1 522.8v-10.7h12.4zm-163.9 2.7-16.2-14.4h16.2zm0-17.9h-20.3l-12.4-13.1v-9.2h32.7zm-36.5-17.2-4.8-5.1h4.8zm238.3-5.5c-1 1.4-1.7 2.8-3.1 4.1v-4.1zm-6.9 0c3.5 11-8.3 16.2-14.1 22.7h-16.9v-22.7zm-18.2-3.8h-12.8v-22.7h12.8zm30.3 0h-25.2v-23.7h44.1zm-207-1h-9.6v-22.7h9.6zm-13.4 0h-31.7l-20-22.7h51.7zm254.1-41.3v-8.3h5.5zm-4.1 4.8-8.3 10.3h-28.9v-23.4h37.5zm-41.7 10.3h-31v-23.4h31zm-194.9-1h-32.7v-23.4h32.7zm-37.2 0h-31.64c-6.89-5.5-4.14-15.2-4.82-23.4h36.46zm-41.29-14.8-6.19-8.6h6.19zm333-37.6c-1.4 9 3.1 20-5.5 25.9h-24.8v-25.9zm-34.1 25.9h-39.9v-25.9h39.9zm-43.7 0h-12.8v-25.9h12.8zm-176.7-1.4h-9.6v-25.8h9.6zm-14.1 0h-39.6v-25.8h39.6zm-43.7 0h-28.6c-8.61-5.9-3.79-17.2-5.17-25.8h33.77zm311.3-28.6h-12.8v-26.8h12.8zm-16.6 0h-37.9v-26.8h37.9zm-42.3 0h-30.7c-1-9.6-3.8-18.6-7.6-26.8h38.3zm-184.9-26.8c-4.2 7.9-7.3 16.1-9.3 24.7l-1.4 0.7h-31.7v-25.4zm-46.2 25.4h-38.54v-25.4h38.54zm-41.98 0h-13.43v-25.4h13.43zm332-29.6h-29.3v-25.8h29.3zm-33.1 0h-39.6v-25.8h39.6zm-43.7 0h-23.1c-5.9-8.6-11.4-18.2-20-25.8h43.1zm-140.2-26.5c-9.3 7.9-17.9 17.2-24.8 26.9h-21.3v-26.9zm-49.9 26.9h-40.3v-26.9h40.3zm-44.4 0h-34.44v-26.9h34.44zm311.3-29.6h-12.4v-22.1h12.4zm-16.6 0h-37.5v-22.1h37.5zm-41.3 0h-34.1v-22.1h34.1zm-37.9 0h-27.2c-9.3-3.1-3.4-14.9-5.1-22.1h32.3zm-36.8-7.3c-16.5-11.7-43.4-14.4-61.7-4.1l-13 7.6v-18.3h74.7zm-78.5 6.2h-34.8v-21h34.8zm-39.3 0h-35.8v-21h35.8zm-40.3 0h-36.79v-21h36.79zm-41.27 0h-13.77v-21h13.77zm293.4-24.8h-6.2v-13.1h6.2zm-231.4 0h-26.9v-13.1h26.9zm74.7-0.3h-24.4v-13.1h24.4zm66.8 0h-25.1v-1.4c4.8 0 10 0.4 14.8-0.3v-0.7l-14.8-0.4v-1.3c3.1-0.4 7.6 1 8.9-1.4l-8.9-0.4v-1c3.1-0.7 7.9 1 9.6-1.4l-9.6-0.3v-1.1c3.8-0.3 8.9 1.1 11-1-3.4-0.7-7.2-0.3-11-0.3v-1.1c2.4-0.3 6.5 1.1 7.6-1l-7.6-1h25.1zm-29.6 0h-32.7v-17.2h32.7zm-77.5 0.3h-31v-18.2h31zm235.6 0h-35.2v-18.9h35.2zm-76.8 0h-33.4v-18.9h33.4zm-237.3 0h-31.64v-18.9h31.64zm305.4-22.7h-19.6v-4.5h19.6zm-22.7 0h-6.9l-0.3 5.9h-17.6v-10.4h24.8zm-28.9 5.9h-12.7l0.1 3.5 24.3 0.2v13.1h-24.4c3.4-0.7 8.6 0.4 12.3-0.7v-1c-3.7-0.7-8.2 0-12.3-0.3v-0.7c3.7-0.4 8.9 1 11-1.4-3.5-0.7-7.3-0.3-11-0.3v-1.8c3.1-0.3 7.9 1.1 9.6-1l-9.6-0.7v-1c2.4-0.4 6.5 1 7.5-1.4l-7.5-0.3v-11.7c-3.8-0.7-8.3 0-12.4-0.4v-4.5h25.1zm-202.1-4.9h-7.3c-0.7 1.4-0.3 3.1-0.3 4.9h-10v-10.4h17.6zm-21.7 4.9h-26.1v3.7h9.5v13.1h-9.6v-1c1.7-0.3 3.4 0.3 5.2-0.7v-0.7c-1.8-0.7-3.5-0.3-5.2-0.3v-1.4c1.7 0 3.4 0.3 5.2-0.3v-0.7c-1.8-0.7-3.5-0.4-5.2-0.7v-0.7c1.7 0 3.4 0.3 5.2-0.4v-1c-1.8-0.7-3.5 0-5.2-0.3v-1.8c1.7 0 3.4 0.4 5.2-0.3v-0.7c-1.8-0.7-3.5-0.3-5.2-0.3v-11.5h-1.7v-4.4h27.9zm-31.4-5.9h-24.03v-4.5h24.03zm186.7 4.1h-7.6v-12h7.6zm-11 0h-13.8v-3.8l-17.2-0.6v-7.6h31zm-34.8-4.1h-20.3c-0.7 1.4-0.4 3.4-0.4 5.2h-12.7v-13.1h33.4zm-37.2 5.2h-6.6v-13.1h6.6zm203.1-13.5h-5.8v-9.3h5.8zm-8.6 0h-26.5v-9.3h26.5zm-30.6 0h-25.1v-9.3h25.1zm-28.9 0h-8.6v-9.3h8.6zm-185.6 0h-5.5v-9.9h5.5zm-9.3 0h-26.2v-9.9h26.2zm-30 0h-25.09v-9.9h25.09zm-28.88 0h-8.96v-9.9h8.96zm201.8-3.1h-22.4v-10.3h22.4zm-26.5 0h-34.8v-10.3h34.8zm-38.3 0h-24.8v-10.3h24.8zm184.9-9.9h-18.6v-11.4h18.6zm-22.7 0h-24.8v-11.4h24.8zm-28.9 0h-25.1v-11.4h25.1zm-202.1-0.4h-17.6v-11h17.6zm-21.7 0h-27.9v-11h27.9zm-31.4 0h-24.04v-11h24.04zm186.7-3.8h-7.6v-11.3h7.6zm-10.4 0h-31.6v-11.3h31.6zm-35.4 0h-33.4v-11.3h33.4zm-37.2 0h-6.6v-11.3h6.6zm203.5-10.7h-6.2v-10.3h6.2zm-9 0h-28.5v-10.3h28.5zm-31.3 0h-24.4v-10.3h24.4zm-28.2 0h-8.6v-10.3h8.6zm-185.6 0h-5.5v-12.3h5.5zm-9 0h-27.2v-12.3h27.2zm-31.7 0h-23.71v-12.3h23.71zm-27.83 0h-8.61v-12.3h8.61zm202.2-4.1h-22.1v-12h22.1zm-26.2 0h-34.1v-12h34.1zm-37.9 0h-25.5v-12h25.5zm184.6-10.3h-21.4v-9.7h21.4zm-52.7 0.3h-24.4v-10.3h24.4zm-201.4-2.4h-21.4v-9.6h21.4zm-52.7 0.4h-24.49v-10.4h24.49zm186.3-3.8h-6.6v-11h6.6zm-10.4 0h-31.6v-11h31.6zm-35.4 0h-33.4v-11h33.4zm-37.2 0h-6.6v-11h6.6zm203.5-9h-5.5v-10.3h5.5zm-9.3 0h-12.1v-10.3h12.1zm-43.4 0.7h-12v-11h12zm-16.2 0h-8.2v-11h8.2zm-185.2-2.7h-5.5v-10.4h5.5zm-9.3 0h-12.1v-10.4h12.1zm-43.4 0.6h-12.1v-11h12.1zm-16.23 0h-8.26v-11h8.26zm202.5-4.4h-21.4v-11.4h21.4zm-64.1 0h-25.5v-11.4h25.5zm131.6-8.3h-24.1v-9.6h26.8zm53 0h-21.4l-1.7-10h23.1zm-307.2-2.1h-24.09v-9.6h26.89zm53.1 0h-21.4l-1.7-10h23.1zm133.6-4.4h-6.6v-11.4h6.6zm-10.4 0h-11v-11.4h11zm-53.7 0h-14.1v-11.4h14.1zm-18.2 0h-7.3v-11.4h7.3zm202.8-7.6h-5.2v-11h5.2zm-9 0h-15.8c-2.8-3.5-7.6-7.6-10.3-11h26.1zm-28.9-11c-1 2-4.5 3.8-6.5 6.5-3.5 8.3-13.8 3.1-20.3 4.5v-11zm-30.6 11h-8.6v-11h8.6zm-185.6-2.1h-5.2v-11h5.2zm-9 0h-15.8c-2.8-3.4-7.6-7.6-10.4-11h26.2zm-28.9-11c-1 2.1-4.5 3.8-6.5 6.5-3.5 8.3-13.8 3.1-20.39 4.5v-11zm-30.68 11h-8.61v-11h8.61zm202.2-6.2h-21.4v-12.4h21.4zm-64.1 0h-25.5v-12.4h25.5zm64.4-16.2h-6.9v-12h6.9zm-10.7 0h-11.7l-6.9-12h18.6zm-53.3-0.7h-14.8v-11.3h23.4zm-18.6 0h-7.3v-11.3h7.3zm138.4 0.7h19.6v-17.5h18.6v18.6h21v-18.6h14.5v27.2h-91.3v-27.2h17.6zm-254.1-2h19.58v-17.6h18.6v18.6h21v-18.6h14.5v27.2h-91.24v-27.2h17.56zm198.3-13.5h-26.8v-9.6h26.8zm-30.6 0c-4.5 0.4-6.9-3.4-11-3.7-5.6 3.1-12.1 4.1-19 3.7v-9.6h30zm-33.8 0h-25.5v-9.6h25.5zm31.4-22h23v-15.8c4.9-1.4 11.4-0.4 17.2-0.7v25.1h-100.5v-23.8h17.2v15.2l24.5 0.3 0.3-16.8h18.3zm8.1 84.4h-36.1v-3.1h13.7c-1.7-15.9 6.6-37.6-6.8-48.9 0.6-1.4-1.4-1.7 0.3-2.8 2.8-2.4 4.8 1.4 7.2 2.8l2.4 2.7 6.6-6.5c-0.7-3.5-6.2-4.1-4.2-7.2 6.2 2 11.8 7.5 14.5 13.4 4.5 14.8 1.7 33 2.4 49.6zm-158 19.2v-2.7h9.3c-1.4-12.4 5.8-29.3-6.2-37.2l3.1-3.4c2 1.3 4.1 3.1 6.2 5.1l4.4-5.5c-1.3-2-5.1-3.1-3.7-6.2 16.8 10 9.3 32.7 11 49.9zm254.1 2.1v-2.7h9.3c-1.4-12.4 5.8-29.3-6.2-37.2l3.1-3.5c2.1 1.4 4.1 3.1 6.2 5.2l4.5-5.5c-1.4-2.1-5.2-3.1-3.8-6.2 16.9 10 9.3 32.7 11 49.9zm-82.3 275.1c-3.5 2.5-6.9 4.5-11.4 4.2l-2 2c0-1.7-1.4-3.4-3.1-4.4-2.4 0-4.2 2-4.5 4.1v1c-2.1-0.7-3.8-4.4-6.9-4.1l-4.5 1v-7.2c10.7 1.7 20.7 4.8 32.4 3.4m-31.3-122.2 4.8-0.3-4.8 3.7zm32 5.9c-1.7 2-3.8 1-6.2 0.6l-8.6-7.2c5.5 1 12.4 2.4 14.8 6.6m-35.8-13.1c-2.1-1.4-5.2-2.1-7.3-0.7l-2.7 3.4c-2.1-0.7-1-4.8-4.1-4.8-2.5-0.7-4.2 2.1-4.5 4.1-3.8-2-10.4-2.4-14.1-6.8v-1.1l8.6-1c-0.4-1 1-3.5-1.1-3.1-0.7 0-2 0-1.7 0.7v1c-5.5-0.3-11.7-6.2-16.2-0.7 1.4 8.3 10.4 8.3 15.2 11.4-7.9-3.8-20-3.5-27.6 1 1.1 4.1 6.2 3.1 9 4.1 5.5 0.7 11.7 1.1 16.5-0.3-4.8 2.8-12.7 2.4-13.4 9.3 1.7 3.8 7.2 3.1 10.7 2.1 1.3-1.1 3.1-1.8 4.4-1.1v2.4c1.1-0.3 3.1-0.3 2.4-2.4-0.3-4.8-7.9 0-8.2-5.8 4.8-1.1 9.3-5.2 15.5-4.8 0.7 0.6 3.8 5.1 6.2 1.7 1.4-1.1 0.7-4.1 3.8-3.1 1.7 3.1 6.9 3.1 8.6 1.7v6.2l-61.3 47.9c13.1 24.8 34.4 51.3 60.9 63v9.3c-2-2.1-5.5-2.4-7.9-1.1l-3.1 3.1c-1.7-0.6-1-4.4-4.1-4.8-2.4-0.3-4.2 2.4-4.5 4.2-3.8-2.1-10.3-2.1-14.1-6.6v-1.4l8.9-0.7c-0.7-1 1.1-3.7-1.3-3.4-0.7 0-1.8 0-1.8 1v0.7c-5.1-0.3-11.7-6.2-16.1-0.3 1.7 8.2 10.3 7.9 15.4 11-7.9-3.8-20.3-3.4-27.8 1.4 1 3.8 6.2 2.7 9.3 4.1 5.1 0.3 11.3 1 16.5-0.3-5.2 2.7-13.1 2-13.8 8.9 2.1 3.8 7.6 3.1 10.7 2.1 1.4-1.1 3.1-1.7 4.8-0.7v2.4c1-0.3 3.1-0.7 2.4-2.4-0.7-5.2-8.2 0-8.2-5.9 4.8-1.3 9.2-5.5 15.1-5.1 1 0.7 4.1 5.1 6.2 1.7 1.7-0.7 1-4.1 3.8-2.8 1.7 2.8 5.5 3.1 8.3 1.8l1.3-1.4v62.3c-22.4-12-43-28.2-63-45.8v-134.3c4.8-30.3 33.1-60.9 63-68.8zm64 1 1.7 21v134c-19.2 16.5-40.6 32-61.9 45.1-1.1-19.7 0-41-1.1-61.3 2.1 1.7 5.2 2.4 7.6 1 0.7-1 2.1-2.1 3.8-1.7 0.3 1.7 1.4 3.4 3.1 4.1 1.7 0 3.4-1.4 4.1-2.7 5.2-0.4 11.4 3.1 15.9 5.1 0 4.2-14.8 1.7-5.9 7.9 1-0.6-0.3-2.4 0-2.4 4.5-0.3 11.7 4.9 15.2-1.3-0.7-6.9-8.6-6.2-13.5-9 8.3 1.4 18.3 1.4 25.5-2.4-1-3.4-5.8-3.8-8.9-4.8-6.6-1.1-13.1 0.3-18.6 2 2-2.4 7.5-2 10.3-4.4 2.7-3.1 7.2-2.1 11.4-2.4 22-34.8 5.5-79.9-16.6-108.9l-3.1-2.7c1.4 1 7.3 2.7 10.7 0.7 2.4-1.4 1.4-4.5 0-5.5-2.4-3.8-8.3-3.1-12-5.5 8.6 1.3 18.2 1.3 25.8-2.5-1.4-3.4-5.9-3.7-9.3-4.4-6.2-1.4-12.8 0-18.6 2 2.4-2.7 7.6-2.4 10.3-4.8 2.8-1 5.9-4.1 4.5-7.2-5.2-4.5-10 1.4-15.5 1 0-0.7-0.3-2-1.4-1.4-1.4-0.6-1.7 1.1-1.7 2.1v1l9 1.1c-2.1 4.4-8 5.5-12.4 6.5l-1.8 1.7c-0.3-2-1.7-3.8-3.4-4.8-2.4 0-4.1 2.1-4.5 4.2v1c-1.7-0.7-3.8-4.5-6.5-4.2l-2.4 0.4v-47.5c26.1 3.8 51.6 24.4 60.2 49.9m5.9 0 1 13.4v137.1c-0.7 0.3-1 1.7-2.1 1.4l-0.3-136.4c-1-26.2-20.3-48.9-43-61-6.2-3.7-13.5-5.8-21.4-6.1l-0.3-4.2c28.9 2.8 57.8 28.6 66.1 55.8m-69.9-53.7c-32.4 8.2-61 39.2-67.5 71.6v132.2h-2.1l0.4-138c8.9-30.3 35.8-63.4 69.2-67.9zm75 47.2 4.5 25.1-0.3 125.7-4.5 3.4-0.3-133.6c-1.8-29.9-27.3-57.1-54.1-68.5l-16.2-3.1-0.3-4.5c31.6 1.1 60.9 26.5 71.2 55.5m-75-54.4c-32.4 8.9-59.6 34-72 65.4l-2.1 15.8v124.7h-1.3l0.7-137.1c7.9-33.4 42-63 74.7-70.2zm-115.7-90.9h-6.6c1.1-12.1-3.4-26.6 4.2-35.9l2.4 4.2zm119.5-19.7v-39.2l8.9-8.6c9.7 12.7 3.8 32.7 4.8 47.8zm134.6 21.7h-6.5c1-12-3.5-26.5 4.1-35.8l2.4 4.1z" fill="#eee"/><path d="m249.1 35.89c-0.6 0-1.7 0.34-2-0.35 2.4-0.68 4.8-4.47 6.2-6.54 0.7 2.77 0.7 8.61-4.2 6.89zm-15.8 391.5c-0.7-3.1 4.1-5.5 5.5-2.1-1.4 1.1-4.5 2.8-5.5 2.1zm30 74c-1.1-2.4-5.9-4.8-2.1-6.9 1 1.8 5.8 4.9 2.1 6.9m17.9-4.8c-0.7-2-5.6-4.5-2.1-6.5 1.4 1.7 5.9 4.5 2.1 6.5m-50.3-10.3c-0.7-2.1-5.9-4.5-2.1-6.6 1.4 1.8 5.9 4.5 2.1 6.6m19.3-13.4-0.7 0.6c-1.4-2.4-6.2-3.4-4.5-6.1 2.8 0 4.1 3.4 5.2 5.5m14.4-8c2.1 5.9 5.5 12.4 11.7 14.8 0.7 2.1-4.4 3.5-5.5 5.6-3.4-4.9-5.5 4.1-8.9-0.4-2.4 6.6-7.9-4.8-9 3.4h-3.1c0-0.6 0.7-2.7-1-2.4-1.7 0-2.8 1.4-4.8 1.1-1.4-4.2 4.8-0.7 2.7-4.9 4.2-0.6 9-1.3 13.1-3.4 2.1-3.8-3.8-3.8-1.7-7.9 1.4-2.4 4.5-4.5 6.5-5.9m-56.1-2c-0.7-2.1-5.5-4.5-2.1-6.6 1.4 1.4 5.9 4.5 2.1 6.6m91.3-1.4-0.7 1c-2.8-1.7-3.5-3.4-5.5-5.8l2-2.1c1.8 1.4 6.2 4.5 4.2 6.9m-21.4-13.8c-2.8 2.4-3.8-2.7-5.8-3.8l1.3-1.7c1.4 1 4.2 3.1 4.5 5.5m-54.1 0.4h8.7v6.5c-4.5 0-8.7-4.5-13.1-1.7v-1.1c0.3-0.3 1 0.4 1.3-0.6v-1.1c-2-0.7-5.5-1-7.2 0.4v0.7h-2.1c1.8-5.9-3.4-0.7-4.4-2.5l2-2.4c-1.3-0.7-4.1 0-4.1-2 0.4-2.8 4.8 0.7 4.1-2.8 5.9 0.7 8.6 5.9 14.8 6.6m-3.4-10.4c-0.7-2-5.5-4.8-2.1-6.5 1.4 1.4 5.9 4.5 2.1 6.5m34.1-10.3c-1.4 0.3-2.8-0.7-3.5 0.7 1.4 1.7 5.6 1.7 5.9 4.5-2.1-0.4-4.8-0.4-6.5 0v1c4.4 0 8.2 1 11.7 3.8 0.7 1-0.7 1.4-1.1 2.1-3.4 1.7-8.6-5.9-7.5 0 1 1.3 3.4 0.3 3.8 2.4-1.8 1 0.3 4.1-2.1 5.1-3.1 0.4-4.2-4.1-6.9-2.4 0.3 2.8 7.2 4.5 3.1 7.6-2.8 0-1.7-4.1-4.5-3.5-1 2.1 2.4 3.5 1.4 5.6-2.1-0.4-4.1-3.8-6.2-5.2-2.1 2.4 3.1 4.5 0.3 6.2l-5.5-4.8c-2.7 3.8 5.2 7.6-1 8.2-0.7-4.1 0.3-9.6-0.7-13.1 3.1-3.4 6.2-6.8 10-9.6 0.7-1.4-0.7-2.4-2.1-2.1l-4.8 2.5c-0.3-2.5 3.5-2.8 2.1-5.9-2.1-3.4-5.2 0-7.6 0-1.4 0.7-2.1 2.4-4.1 1.7-2.1-3.1 2.7-1.7 2.4-4.8 0-7.2 8.6-5.5 12-9.6 2.1 5.1 9.3 5.1 11.4 9.6m20.7-8.6 0.3 11.7 6.5-6.5c-0.6 5.8-9.9 10.3-2.7 16.1l8.6-9.9c2.4 6.2-10.7 8.6-3.1 14.1 1.7-1.4 3.8-2.4 5.5-4.5 0 2.4-2.7 4.8-4.8 6.9 3.1 4.8 7.9 10.7 3.4 16.2-1 1.4-2.7 2.7-4.4 2 2 3.8 6.5 4.9 10.3 4.2l3.1-0.4c0 2.4-1.7 4.2-3.5 5.9 2.4 0 5.2 1 4.5 4.1 1.4 2.4-6.5 3.5-0.7 4.8 3.1 3.8-4.8 8.6 0.4 11l-0.4 3.1c-1.7 1.4-3.1-2.7-4.5-0.3v2.8c-1.3 0.6-1-0.7-1.3-1.4 0-0.4 0-1.1-0.4-1.1-3.4-0.3-0.7 4.2-3.4 4.9-2.4-7.3 10.7-9.3 4.1-17.2-3.8-12.8-23.1-2.5-23.4-17.6-0.7-5.2-6.2-10.7-10.7-12.4-3.1 0.3-3.8 4.1-6.2 5.2-7.5-1.4-11 6.9-15.8 9.9l-0.7-3c-3.8-2.1-6.5 9.9-7.6 1-2.7 0-4.1 5.1-8.2 4.5 0.3-2.5 4.1-1.8 4.1-4.5-2.1-1-7.6 4.1-6.9-1.4 1-0.3 2.8-0.3 3.1-1.7 0-1.7-4.1-0.4-2.8-3.1 4.9-0.4 11.4 3.8 16.2-0.7 4.5-1 7.3-0.7 11.4-3.4 1.4 0.6 3.1 0.3 4.5 0.3 1-4.5 6.5-3.8 5.8-8.6 4.2 0.3 3.8-5.2 6.6-7.3 3.1 9.7 14.1 16.9 23.4 18.3 6.9-8.3-6.9-13.8-9.7-21-6.2-6.9-2-17.6-3.4-26.5-2.4-1.7-4.8-5.2-9-3.5-2 1.4-1.7 5.2-0.3 6.2 1.7 0 3.1 2.8 4.5 0.7v-1h1.4c-1.1 1.4-1.1 4.1-3.8 3.1-1.4 1.4 0.7 1.7 1 2.7h1c0.7 2.5-1 3.1-3.1 3.5-2.4-2.1-6.5-5.5-5.5-9.6 0-3.1 2.1-4.9 4.2-6.6 7.2-2.1 11.3 3.8 12.4 10m-24.8-5.9c-1.1-2-5.9-4.8-2.1-6.5 1 1.4 5.8 4.5 2.1 6.5m4.4-375.6c-4.1 0.68-8.9 0.69-12-2.41-1.7-2.07-2.8-6.2-0.4-8.26 4.2-5.52 14.2-4.14 16.6 2.4 0.7 3.79-1.1 6.89-4.2 8.27z" fill="#fd1"/></g></svg>