<?xml version="1.0" encoding="UTF-8" standalone="no"?>
<!DOCTYPE svg PUBLIC "-//W3C//DTD SVG 1.1//EN" "http://www.w3.org/Graphics/SVG/1.1/DTD/svg11.dtd">
<!-- Created with Vectornator (http://vectornator.io/) -->
<svg height="100%" stroke-miterlimit="10" style="fill-rule:nonzero;clip-rule:evenodd;stroke-linecap:round;stroke-linejoin:round;" version="1.1" viewBox="0 0 208.885 244.663" width="100%" xml:space="preserve" xmlns="http://www.w3.org/2000/svg" xmlns:vectornator="http://vectornator.io" xmlns:xlink="http://www.w3.org/1999/xlink">
<defs/>
<clipPath id="ArtboardFrame">
<rect height="244.663" width="208.885" x="0" y="0"/>
</clipPath>
<g clip-path="url(#ArtboardFrame)" id="g9549" vectornator:layerName="g9549">
<path d="M204.099 159.003L207.86 1C138.907 1 69.9535 1 1.00003 1L4.76113 159.003C6.40251 227.957 7.64339 226.309 104.43 243.647C201.217 226.309 202.458 227.957 204.099 159.003Z" fill="#ffffff" fill-rule="evenodd" opacity="1" stroke="#000000" stroke-linecap="butt" stroke-linejoin="miter" stroke-width="2" vectornator:layerName="path"/>
<path d="M0.778779 1.28124L1.84128 37.6618L168.306 230.8C202.587 220.008 199.682 203.188 201.912 196.069L34.649 1.03124L0.778779 1.28124Z" fill="#e20909" fill-rule="evenodd" opacity="1" stroke="#000000" stroke-linecap="butt" stroke-linejoin="miter" stroke-width="1.00894" vectornator:layerName="path"/>
<g opacity="1" vectornator:layerName="g4035">
<path d="M60.2412 145.303C48.1959 157.016 48.2041 176.993 60.2998 188.778C72.1666 176.98 72.434 156.549 60.2412 145.303Z" fill="#fcef3c" fill-rule="evenodd" opacity="1" stroke="#000000" stroke-linecap="butt" stroke-linejoin="miter" stroke-width="1.00894" vectornator:layerName="path"/>
<g opacity="1" vectornator:layerName="g10944">
<path d="M68.1041 150.652C68.1075 152.61 66.4679 154.199 64.4423 154.202C62.4166 154.204 60.7726 152.619 60.7709 150.662C60.7675 148.704 62.4071 147.115 64.4327 147.112C66.4584 147.11 68.1024 148.695 68.1041 150.652Z" fill="#fcef3c" fill-rule="evenodd" opacity="1" stroke="#000000" stroke-linecap="butt" stroke-linejoin="miter" stroke-width="1.00929" vectornator:layerName="path"/>
<path d="M61.6556 149.306C61.6591 151.264 60.0195 152.853 57.9939 152.856C55.9682 152.858 54.3242 151.273 54.3225 149.315C54.3191 147.358 55.9586 145.769 57.9843 145.766C60.01 145.764 61.654 147.349 61.6556 149.306Z" fill="#fcef3c" fill-rule="evenodd" opacity="1" stroke="#000000" stroke-linecap="butt" stroke-linejoin="miter" stroke-width="1.00929" vectornator:layerName="path"/>
<path d="M59.0827 155.417C59.0861 157.374 57.4466 158.963 55.4209 158.966C53.3952 158.968 51.7512 157.383 51.7496 155.426C51.7461 153.468 53.3857 151.879 55.4113 151.877C57.437 151.874 59.081 153.459 59.0827 155.417Z" fill="#fcef3c" fill-rule="evenodd" opacity="1" stroke="#000000" stroke-linecap="butt" stroke-linejoin="miter" stroke-width="1.00929" vectornator:layerName="path"/>
<path d="M70.0678 157.165C70.0712 159.123 68.4316 160.712 66.406 160.715C64.3803 160.717 62.7363 159.132 62.7346 157.175C62.7312 155.217 64.3708 153.628 66.3964 153.625C68.4221 153.623 70.0661 155.208 70.0678 157.165Z" fill="#fcef3c" fill-rule="evenodd" opacity="1" stroke="#000000" stroke-linecap="butt" stroke-linejoin="miter" stroke-width="1.00929" vectornator:layerName="path"/>
<path d="M64.6119 153.055C64.6154 155.012 62.9758 156.601 60.9501 156.604C58.9245 156.606 57.2805 155.021 57.2788 153.064C57.2754 151.106 58.9149 149.517 60.9406 149.514C62.9662 149.512 64.6102 151.097 64.6119 153.055Z" fill="#fcef3c" fill-rule="evenodd" opacity="1" stroke="#000000" stroke-linecap="butt" stroke-linejoin="miter" stroke-width="1.00929" vectornator:layerName="path"/>
<path d="M70.2745 163.485C70.2779 165.443 68.6384 167.032 66.6127 167.035C64.5871 167.037 62.9431 165.452 62.9414 163.494C62.9379 161.537 64.5775 159.948 66.6032 159.945C68.6288 159.943 70.2728 161.528 70.2745 163.485Z" fill="#fcef3c" fill-rule="evenodd" opacity="1" stroke="#000000" stroke-linecap="butt" stroke-linejoin="miter" stroke-width="1.00929" vectornator:layerName="path"/>
<path d="M64.6215 160.141C64.6249 162.098 62.9853 163.688 60.9597 163.69C58.934 163.693 57.29 162.107 57.2883 160.15C57.2849 158.192 58.9245 156.603 60.9501 156.601C62.9758 156.598 64.6198 158.183 64.6215 160.141Z" fill="#fcef3c" fill-rule="evenodd" opacity="1" stroke="#000000" stroke-linecap="butt" stroke-linejoin="miter" stroke-width="1.00929" vectornator:layerName="path"/>
<path d="M63.9369 166.94C63.9404 168.898 62.3008 170.487 60.2751 170.49C58.2495 170.492 56.6055 168.907 56.6038 166.95C56.6004 164.992 58.2399 163.403 60.2656 163.4C62.2912 163.398 63.9352 164.983 63.9369 166.94Z" fill="#fcef3c" fill-rule="evenodd" opacity="1" stroke="#000000" stroke-linecap="butt" stroke-linejoin="miter" stroke-width="1.00929" vectornator:layerName="path"/>
<path d="M63.3519 174.027C63.3553 175.985 61.7158 177.574 59.6901 177.577C57.6645 177.579 56.0205 175.994 56.0188 174.036C56.0153 172.079 57.6549 170.49 59.6806 170.487C61.7062 170.485 63.3502 172.07 63.3519 174.027Z" fill="#fcef3c" fill-rule="evenodd" opacity="1" stroke="#000000" stroke-linecap="butt" stroke-linejoin="miter" stroke-width="1.00929" vectornator:layerName="path"/>
<path d="M70.2838 170.38C70.2872 172.337 68.6476 173.927 66.622 173.929C64.5963 173.932 62.9523 172.346 62.9506 170.389C62.9472 168.432 64.5868 166.842 66.6124 166.84C68.6381 166.837 70.2821 168.423 70.2838 170.38Z" fill="#fcef3c" fill-rule="evenodd" opacity="1" stroke="#000000" stroke-linecap="butt" stroke-linejoin="miter" stroke-width="1.00929" vectornator:layerName="path"/>
<path d="M58.5548 183.594C58.5582 185.551 56.9186 187.141 54.893 187.143C52.8673 187.146 51.2233 185.56 51.2216 183.603C51.2182 181.645 52.8578 180.056 54.8834 180.054C56.9091 180.051 58.5531 181.636 58.5548 183.594Z" fill="#fcef3c" fill-rule="evenodd" opacity="1" stroke="#000000" stroke-linecap="butt" stroke-linejoin="miter" stroke-width="1.00929" vectornator:layerName="path"/>
<path d="M67.5884 183.967C67.5918 185.925 65.9522 187.514 63.9266 187.517C61.9009 187.519 60.2569 185.934 60.2552 183.977C60.2518 182.019 61.8914 180.43 63.917 180.427C65.9427 180.425 67.5867 182.01 67.5884 183.967Z" fill="#fcef3c" fill-rule="evenodd" opacity="1" stroke="#000000" stroke-linecap="butt" stroke-linejoin="miter" stroke-width="1.00929" vectornator:layerName="path"/>
<path d="M69.8969 177.467C69.9003 179.424 68.2608 181.013 66.2351 181.016C64.2095 181.018 62.5655 179.433 62.5638 177.476C62.5604 175.518 64.1999 173.929 66.2256 173.926C68.2512 173.924 69.8952 175.509 69.8969 177.467Z" fill="#fcef3c" fill-rule="evenodd" opacity="1" stroke="#000000" stroke-linecap="butt" stroke-linejoin="miter" stroke-width="1.00929" vectornator:layerName="path"/>
<path d="M57.5886 162.352C57.592 164.309 55.9525 165.899 53.9268 165.901C51.9011 165.904 50.2571 164.318 50.2555 162.361C50.252 160.404 51.8916 158.814 53.9173 158.812C55.9429 158.809 57.5869 160.394 57.5886 162.352Z" fill="#fcef3c" fill-rule="evenodd" opacity="1" stroke="#000000" stroke-linecap="butt" stroke-linejoin="miter" stroke-width="1.00929" vectornator:layerName="path"/>
<path d="M57.202 169.63C57.2054 171.588 55.5658 173.177 53.5402 173.179C51.5145 173.182 49.8705 171.597 49.8688 169.639C49.8654 167.682 51.505 166.092 53.5306 166.09C55.5563 166.087 57.2003 167.673 57.202 169.63Z" fill="#fcef3c" fill-rule="evenodd" opacity="1" stroke="#000000" stroke-linecap="butt" stroke-linejoin="miter" stroke-width="1.00929" vectornator:layerName="path"/>
<path d="M56.2206 176.717C56.224 178.675 54.5844 180.264 52.5588 180.267C50.5331 180.269 48.8891 178.684 48.8874 176.727C48.884 174.769 50.5236 173.18 52.5492 173.177C54.5749 173.175 56.2189 174.76 56.2206 176.717Z" fill="#fcef3c" fill-rule="evenodd" opacity="1" stroke="#000000" stroke-linecap="butt" stroke-linejoin="miter" stroke-width="1.00929" vectornator:layerName="path"/>
<path d="M62.5682 180.732C62.5716 182.689 60.932 184.278 58.9064 184.281C56.8807 184.283 55.2367 182.698 55.235 180.741C55.2316 178.783 56.8712 177.194 58.8968 177.191C60.9225 177.189 62.5665 178.774 62.5682 180.732Z" fill="#fcef3c" fill-rule="evenodd" opacity="1" stroke="#000000" stroke-linecap="butt" stroke-linejoin="miter" stroke-width="1.00929" vectornator:layerName="path"/>
</g>
<path d="M17.4694 173.51C18.6063 200.15 29.4351 211.713 50.6131 207.176C51.2874 201.074 49.6705 194.687 38.298 187.082C35.402 185.823 32.922 184.664 30.79 183.589C22.108 179.21 19.1974 176.218 17.4694 173.51Z" fill="#5ab532" fill-rule="evenodd" opacity="1" stroke="#000000" stroke-linecap="butt" stroke-linejoin="miter" stroke-width="1.00894" vectornator:layerName="path"/>
<path d="M51.7936 145.789L68.2549 145.744C69.8447 143.365 72.0661 141.978 74.7257 140.498C72.0078 138.962 68.9768 138.484 65.2108 140.51C65.534 137.744 63.4677 135.753 60.6412 134.006C57.9696 135.944 55.3859 137.898 55.3022 140.332C54.3555 138.841 51.5564 136.955 46.3875 138.811C48.1894 140.909 50.0388 142.366 51.7936 145.789" fill="#5ab532" fill-rule="evenodd" opacity="1" stroke="#000000" stroke-linecap="butt" stroke-linejoin="miter" stroke-width="1.00894" vectornator:layerName="path"/>
<path d="M68.7344 145.775C77.5807 149.112 83.8277 157.761 83.8408 167.489C83.8579 180.17 73.2318 190.477 60.109 190.493C46.9861 190.509 36.32 180.229 36.3029 167.548C36.2893 157.465 43.0137 148.891 52.3655 145.789C57.0143 144.566 64.4814 144.348 68.7344 145.775ZM60.1466 145.4C60.2165 145.401 60.2856 145.397 60.3556 145.399C72.4402 156.665 72.1355 177.019 60.3033 188.782C48.2405 177.029 48.1992 157.125 60.1466 145.4Z" fill="#e20909" fill-rule="evenodd" opacity="1" stroke="#000000" stroke-linecap="butt" stroke-linejoin="miter" stroke-width="1.00894" vectornator:layerName="path"/>
<path d="M66.5733 192.89L59.651 192.892C60.5222 200.368 65.0997 202.903 71.2872 208.311C80.2726 215.935 89.0211 222.021 97.9567 228.464L93.2782 231.438C93.4027 227.13 79.1113 218.379 71.992 212.506C59.7193 210.881 49.3222 206.609 44.2655 203.162L37.5197 197.808C32.4532 194.601 26.8259 189.889 23.231 183.844C26.5113 188.193 30.2354 192.369 36.1295 195.703C42.1453 199.345 57.0537 208.872 68.031 209.44C61.7083 204.408 57.3875 202.59 56.4131 192.9L50.1121 192.873C48.3573 189.449 46.5079 187.993 44.7059 185.895C49.8748 184.039 52.6739 185.925 53.6206 187.416C53.7043 184.982 56.288 183.028 58.9596 181.09C61.7861 182.837 63.8524 184.828 63.5292 187.594C67.2953 185.568 70.3262 186.046 73.0441 187.582C70.3846 189.062 68.1631 190.511 66.5733 192.89Z" fill="#5ab532" fill-rule="evenodd" opacity="1" stroke="#000000" stroke-linecap="butt" stroke-linejoin="miter" stroke-width="1.00894" vectornator:layerName="path"/>
<path d="M60.2412 145.303C48.1959 157.016 48.2041 176.993 60.2998 188.778C72.1666 176.98 72.434 156.549 60.2412 145.303Z" fill="#fcef3c" fill-rule="evenodd" opacity="1" stroke="#000000" stroke-linecap="butt" stroke-linejoin="miter" stroke-width="1.00894" vectornator:layerName="path"/>
<g opacity="1" vectornator:layerName="g3945">
<path d="M68.1041 150.652C68.1075 152.61 66.4679 154.199 64.4423 154.202C62.4166 154.204 60.7726 152.619 60.7709 150.662C60.7675 148.704 62.4071 147.115 64.4327 147.112C66.4584 147.11 68.1024 148.695 68.1041 150.652Z" fill="#fcef3c" fill-rule="evenodd" opacity="1" stroke="#000000" stroke-linecap="butt" stroke-linejoin="miter" stroke-width="1.00929" vectornator:layerName="path"/>
<path d="M61.6556 149.306C61.6591 151.264 60.0195 152.853 57.9939 152.856C55.9682 152.858 54.3242 151.273 54.3225 149.315C54.3191 147.358 55.9586 145.769 57.9843 145.766C60.01 145.764 61.654 147.349 61.6556 149.306Z" fill="#fcef3c" fill-rule="evenodd" opacity="1" stroke="#000000" stroke-linecap="butt" stroke-linejoin="miter" stroke-width="1.00929" vectornator:layerName="path"/>
<path d="M59.0827 155.417C59.0861 157.374 57.4466 158.963 55.4209 158.966C53.3952 158.968 51.7512 157.383 51.7496 155.426C51.7461 153.468 53.3857 151.879 55.4113 151.877C57.437 151.874 59.081 153.459 59.0827 155.417Z" fill="#fcef3c" fill-rule="evenodd" opacity="1" stroke="#000000" stroke-linecap="butt" stroke-linejoin="miter" stroke-width="1.00929" vectornator:layerName="path"/>
<path d="M70.0678 157.165C70.0712 159.123 68.4316 160.712 66.406 160.715C64.3803 160.717 62.7363 159.132 62.7346 157.175C62.7312 155.217 64.3708 153.628 66.3964 153.625C68.4221 153.623 70.0661 155.208 70.0678 157.165Z" fill="#fcef3c" fill-rule="evenodd" opacity="1" stroke="#000000" stroke-linecap="butt" stroke-linejoin="miter" stroke-width="1.00929" vectornator:layerName="path"/>
<path d="M64.6119 153.055C64.6154 155.012 62.9758 156.601 60.9501 156.604C58.9245 156.606 57.2805 155.021 57.2788 153.064C57.2754 151.106 58.9149 149.517 60.9406 149.514C62.9662 149.512 64.6102 151.097 64.6119 153.055Z" fill="#fcef3c" fill-rule="evenodd" opacity="1" stroke="#000000" stroke-linecap="butt" stroke-linejoin="miter" stroke-width="1.00929" vectornator:layerName="path"/>
<path d="M70.2745 163.485C70.2779 165.443 68.6384 167.032 66.6127 167.035C64.5871 167.037 62.9431 165.452 62.9414 163.494C62.9379 161.537 64.5775 159.948 66.6032 159.945C68.6288 159.943 70.2728 161.528 70.2745 163.485Z" fill="#fcef3c" fill-rule="evenodd" opacity="1" stroke="#000000" stroke-linecap="butt" stroke-linejoin="miter" stroke-width="1.00929" vectornator:layerName="path"/>
<path d="M64.6215 160.141C64.6249 162.098 62.9853 163.688 60.9597 163.69C58.934 163.693 57.29 162.107 57.2883 160.15C57.2849 158.192 58.9245 156.603 60.9501 156.601C62.9758 156.598 64.6198 158.183 64.6215 160.141Z" fill="#fcef3c" fill-rule="evenodd" opacity="1" stroke="#000000" stroke-linecap="butt" stroke-linejoin="miter" stroke-width="1.00929" vectornator:layerName="path"/>
<path d="M63.9369 166.94C63.9404 168.898 62.3008 170.487 60.2751 170.49C58.2495 170.492 56.6055 168.907 56.6038 166.95C56.6004 164.992 58.2399 163.403 60.2656 163.4C62.2912 163.398 63.9352 164.983 63.9369 166.94Z" fill="#fcef3c" fill-rule="evenodd" opacity="1" stroke="#000000" stroke-linecap="butt" stroke-linejoin="miter" stroke-width="1.00929" vectornator:layerName="path"/>
<path d="M63.3519 174.027C63.3553 175.985 61.7158 177.574 59.6901 177.577C57.6645 177.579 56.0205 175.994 56.0188 174.036C56.0153 172.079 57.6549 170.49 59.6806 170.487C61.7062 170.485 63.3502 172.07 63.3519 174.027Z" fill="#fcef3c" fill-rule="evenodd" opacity="1" stroke="#000000" stroke-linecap="butt" stroke-linejoin="miter" stroke-width="1.00929" vectornator:layerName="path"/>
<path d="M70.2838 170.38C70.2872 172.337 68.6476 173.927 66.622 173.929C64.5963 173.932 62.9523 172.346 62.9506 170.389C62.9472 168.432 64.5868 166.842 66.6124 166.84C68.6381 166.837 70.2821 168.423 70.2838 170.38Z" fill="#fcef3c" fill-rule="evenodd" opacity="1" stroke="#000000" stroke-linecap="butt" stroke-linejoin="miter" stroke-width="1.00929" vectornator:layerName="path"/>
<path d="M58.5548 183.594C58.5582 185.551 56.9186 187.141 54.893 187.143C52.8673 187.146 51.2233 185.56 51.2216 183.603C51.2182 181.645 52.8578 180.056 54.8834 180.054C56.9091 180.051 58.5531 181.636 58.5548 183.594Z" fill="#fcef3c" fill-rule="evenodd" opacity="1" stroke="#000000" stroke-linecap="butt" stroke-linejoin="miter" stroke-width="1.00929" vectornator:layerName="path"/>
<path d="M67.5884 183.967C67.5918 185.925 65.9522 187.514 63.9266 187.517C61.9009 187.519 60.2569 185.934 60.2552 183.977C60.2518 182.019 61.8914 180.43 63.917 180.427C65.9427 180.425 67.5867 182.01 67.5884 183.967Z" fill="#fcef3c" fill-rule="evenodd" opacity="1" stroke="#000000" stroke-linecap="butt" stroke-linejoin="miter" stroke-width="1.00929" vectornator:layerName="path"/>
<path d="M69.8969 177.467C69.9003 179.424 68.2608 181.013 66.2351 181.016C64.2095 181.018 62.5655 179.433 62.5638 177.476C62.5604 175.518 64.1999 173.929 66.2256 173.926C68.2512 173.924 69.8952 175.509 69.8969 177.467Z" fill="#fcef3c" fill-rule="evenodd" opacity="1" stroke="#000000" stroke-linecap="butt" stroke-linejoin="miter" stroke-width="1.00929" vectornator:layerName="path"/>
<path d="M57.5886 162.352C57.592 164.309 55.9525 165.899 53.9268 165.901C51.9011 165.904 50.2571 164.318 50.2555 162.361C50.252 160.404 51.8916 158.814 53.9173 158.812C55.9429 158.809 57.5869 160.394 57.5886 162.352Z" fill="#fcef3c" fill-rule="evenodd" opacity="1" stroke="#000000" stroke-linecap="butt" stroke-linejoin="miter" stroke-width="1.00929" vectornator:layerName="path"/>
<path d="M57.202 169.63C57.2054 171.588 55.5658 173.177 53.5402 173.179C51.5145 173.182 49.8705 171.597 49.8688 169.639C49.8654 167.682 51.505 166.092 53.5306 166.09C55.5563 166.087 57.2003 167.673 57.202 169.63Z" fill="#fcef3c" fill-rule="evenodd" opacity="1" stroke="#000000" stroke-linecap="butt" stroke-linejoin="miter" stroke-width="1.00929" vectornator:layerName="path"/>
<path d="M56.2206 176.717C56.224 178.675 54.5844 180.264 52.5588 180.267C50.5331 180.269 48.8891 178.684 48.8874 176.727C48.884 174.769 50.5236 173.18 52.5492 173.177C54.5749 173.175 56.2189 174.76 56.2206 176.717Z" fill="#fcef3c" fill-rule="evenodd" opacity="1" stroke="#000000" stroke-linecap="butt" stroke-linejoin="miter" stroke-width="1.00929" vectornator:layerName="path"/>
<path d="M62.5682 180.732C62.5716 182.689 60.932 184.278 58.9064 184.281C56.8807 184.283 55.2367 182.698 55.235 180.741C55.2316 178.783 56.8712 177.194 58.8968 177.191C60.9225 177.189 62.5665 178.774 62.5682 180.732Z" fill="#fcef3c" fill-rule="evenodd" opacity="1" stroke="#000000" stroke-linecap="butt" stroke-linejoin="miter" stroke-width="1.00929" vectornator:layerName="path"/>
</g>
<path d="M17.4694 173.51C18.6063 200.15 29.4351 211.713 50.6131 207.176C51.2874 201.074 49.6705 194.687 38.298 187.082C35.402 185.823 32.922 184.664 30.79 183.589C22.108 179.21 19.1974 176.218 17.4694 173.51Z" fill="#5ab532" fill-rule="evenodd" opacity="1" stroke="#000000" stroke-linecap="butt" stroke-linejoin="miter" stroke-width="1.00894" vectornator:layerName="path"/>
<path d="M51.7936 145.789L68.2549 145.744C69.8447 143.365 72.0661 141.978 74.7257 140.498C72.0078 138.962 68.9768 138.484 65.2108 140.51C65.534 137.744 63.4677 135.753 60.6412 134.006C57.9696 135.944 55.3859 137.898 55.3022 140.332C54.3555 138.841 51.5564 136.955 46.3875 138.811C48.1894 140.909 50.0388 142.366 51.7936 145.789" fill="#5ab532" fill-rule="evenodd" opacity="1" stroke="#000000" stroke-linecap="butt" stroke-linejoin="miter" stroke-width="1.00894" vectornator:layerName="path"/>
<path d="M68.7344 145.775C77.5807 149.112 83.8277 157.761 83.8408 167.489C83.8579 180.17 73.2318 190.477 60.109 190.493C46.9861 190.509 36.32 180.229 36.3029 167.548C36.2893 157.465 43.0137 148.891 52.3655 145.789C57.0143 144.566 64.4814 144.348 68.7344 145.775ZM60.1466 145.4C60.2165 145.401 60.2856 145.397 60.3556 145.399C72.4402 156.665 72.1355 177.019 60.3033 188.782C48.2405 177.029 48.1992 157.125 60.1466 145.4Z" fill="#e20909" fill-rule="evenodd" opacity="1" stroke="#000000" stroke-linecap="butt" stroke-linejoin="miter" stroke-width="1.00894" vectornator:layerName="path"/>
<path d="M66.5733 192.89L59.651 192.892C60.5222 200.368 65.0997 202.903 71.2872 208.311C80.2726 215.935 89.0211 222.021 97.9567 228.464L93.2782 231.438C93.4027 227.13 79.1113 218.379 71.992 212.506C59.7193 210.881 49.3222 206.609 44.2655 203.162L37.5197 197.808C32.4532 194.601 26.8259 189.889 23.231 183.844C26.5113 188.193 30.2354 192.369 36.1295 195.703C42.1453 199.345 57.0537 208.872 68.031 209.44C61.7083 204.408 57.3875 202.59 56.4131 192.9L50.1121 192.873C48.3573 189.449 46.5079 187.993 44.7059 185.895C49.8748 184.039 52.6739 185.925 53.6206 187.416C53.7043 184.982 56.288 183.028 58.9596 181.09C61.7861 182.837 63.8524 184.828 63.5292 187.594C67.2953 185.568 70.3262 186.046 73.0441 187.582C70.3846 189.062 68.1631 190.511 66.5733 192.89Z" fill="#5ab532" fill-rule="evenodd" opacity="1" stroke="#000000" stroke-linecap="butt" stroke-linejoin="miter" stroke-width="1.00894" vectornator:layerName="path"/>
</g>
<g opacity="1" vectornator:layerName="g4083">
<path d="M158.991 21.6264C146.946 33.3392 146.954 53.3155 159.05 65.101C170.916 53.3032 171.184 32.8716 158.991 21.6264Z" fill="#fcef3c" fill-rule="evenodd" opacity="1" stroke="#000000" stroke-linecap="butt" stroke-linejoin="miter" stroke-width="1.00894" vectornator:layerName="path"/>
<g opacity="1" vectornator:layerName="g4087">
<path d="M166.854 26.9754C166.857 28.9328 165.218 30.5222 163.192 30.5247C161.166 30.5272 159.522 28.9419 159.521 26.9845C159.517 25.027 161.157 23.4377 163.182 23.4352C165.208 23.4327 166.852 25.018 166.854 26.9754Z" fill="#fcef3c" fill-rule="evenodd" opacity="1" stroke="#000000" stroke-linecap="butt" stroke-linejoin="miter" stroke-width="1.00929" vectornator:layerName="path"/>
<path d="M160.405 25.6292C160.409 27.5866 158.769 29.1759 156.744 29.1784C154.718 29.1809 153.074 27.5957 153.072 25.6382C153.069 23.6808 154.708 22.0915 156.734 22.089C158.76 22.0865 160.404 23.6717 160.405 25.6292Z" fill="#fcef3c" fill-rule="evenodd" opacity="1" stroke="#000000" stroke-linecap="butt" stroke-linejoin="miter" stroke-width="1.00929" vectornator:layerName="path"/>
<path d="M157.832 31.7397C157.836 33.6971 156.196 35.2864 154.171 35.2889C152.145 35.2914 150.501 33.7062 150.499 31.7487C150.496 29.7913 152.135 28.202 154.161 28.1995C156.187 28.197 157.831 29.7822 157.832 31.7397Z" fill="#fcef3c" fill-rule="evenodd" opacity="1" stroke="#000000" stroke-linecap="butt" stroke-linejoin="miter" stroke-width="1.00929" vectornator:layerName="path"/>
<path d="M168.818 33.4884C168.821 35.4458 167.181 37.0352 165.156 37.0377C163.13 37.0402 161.486 35.4549 161.484 33.4975C161.481 31.54 163.121 29.9507 165.146 29.9482C167.172 29.9457 168.816 31.531 168.818 33.4884Z" fill="#fcef3c" fill-rule="evenodd" opacity="1" stroke="#000000" stroke-linecap="butt" stroke-linejoin="miter" stroke-width="1.00929" vectornator:layerName="path"/>
<path d="M163.362 29.3775C163.365 31.3349 161.726 32.9243 159.7 32.9268C157.674 32.9293 156.03 31.344 156.029 29.3866C156.025 27.4291 157.665 25.8398 159.69 25.8373C161.716 25.8348 163.36 27.4201 163.362 29.3775Z" fill="#fcef3c" fill-rule="evenodd" opacity="1" stroke="#000000" stroke-linecap="butt" stroke-linejoin="miter" stroke-width="1.00929" vectornator:layerName="path"/>
<path d="M169.024 39.8083C169.028 41.7657 167.388 43.355 165.362 43.3575C163.337 43.36 161.693 41.7748 161.691 39.8173C161.688 37.8599 163.327 36.2706 165.353 36.2681C167.379 36.2656 169.023 37.8508 169.024 39.8083Z" fill="#fcef3c" fill-rule="evenodd" opacity="1" stroke="#000000" stroke-linecap="butt" stroke-linejoin="miter" stroke-width="1.00929" vectornator:layerName="path"/>
<path d="M163.371 36.4637C163.375 38.4211 161.735 40.0104 159.709 40.0129C157.684 40.0154 156.04 38.4302 156.038 36.4727C156.035 34.5153 157.674 32.926 159.7 32.9235C161.726 32.921 163.37 34.5062 163.371 36.4637Z" fill="#fcef3c" fill-rule="evenodd" opacity="1" stroke="#000000" stroke-linecap="butt" stroke-linejoin="miter" stroke-width="1.00929" vectornator:layerName="path"/>
<path d="M162.687 43.2634C162.69 45.2209 161.051 46.8102 159.025 46.8127C156.999 46.8152 155.355 45.2299 155.354 43.2725C155.35 41.3151 156.99 39.7257 159.015 39.7232C161.041 39.7207 162.685 41.306 162.687 43.2634Z" fill="#fcef3c" fill-rule="evenodd" opacity="1" stroke="#000000" stroke-linecap="butt" stroke-linejoin="miter" stroke-width="1.00929" vectornator:layerName="path"/>
<path d="M162.102 50.3503C162.105 52.3078 160.466 53.8971 158.44 53.8996C156.414 53.9021 154.77 52.3168 154.769 50.3594C154.765 48.402 156.405 46.8126 158.43 46.8101C160.456 46.8076 162.1 48.3929 162.102 50.3503Z" fill="#fcef3c" fill-rule="evenodd" opacity="1" stroke="#000000" stroke-linecap="butt" stroke-linejoin="miter" stroke-width="1.00929" vectornator:layerName="path"/>
<path d="M169.034 46.7029C169.037 48.6603 167.397 50.2497 165.372 50.2522C163.346 50.2547 161.702 48.6694 161.7 46.712C161.697 44.7545 163.337 43.1652 165.362 43.1627C167.388 43.1602 169.032 44.7455 169.034 46.7029Z" fill="#fcef3c" fill-rule="evenodd" opacity="1" stroke="#000000" stroke-linecap="butt" stroke-linejoin="miter" stroke-width="1.00929" vectornator:layerName="path"/>
<path d="M157.305 59.9167C157.308 61.8741 155.668 63.4634 153.643 63.4659C151.617 63.4684 149.973 61.8832 149.971 59.9258C149.968 57.9683 151.608 56.379 153.633 56.3765C155.659 56.374 157.303 57.9592 157.305 59.9167Z" fill="#fcef3c" fill-rule="evenodd" opacity="1" stroke="#000000" stroke-linecap="butt" stroke-linejoin="miter" stroke-width="1.00929" vectornator:layerName="path"/>
<path d="M166.338 60.2904C166.342 62.2478 164.702 63.8371 162.676 63.8396C160.651 63.8421 159.007 62.2569 159.005 60.2994C159.002 58.342 160.641 56.7527 162.667 56.7502C164.692 56.7477 166.336 58.3329 166.338 60.2904Z" fill="#fcef3c" fill-rule="evenodd" opacity="1" stroke="#000000" stroke-linecap="butt" stroke-linejoin="miter" stroke-width="1.00929" vectornator:layerName="path"/>
<path d="M168.647 53.7896C168.65 55.747 167.011 57.3363 164.985 57.3388C162.959 57.3413 161.315 55.7561 161.314 53.7986C161.31 51.8412 162.95 50.2519 164.975 50.2494C167.001 50.2469 168.645 51.8321 168.647 53.7896Z" fill="#fcef3c" fill-rule="evenodd" opacity="1" stroke="#000000" stroke-linecap="butt" stroke-linejoin="miter" stroke-width="1.00929" vectornator:layerName="path"/>
<path d="M156.338 38.6748C156.342 40.6323 154.702 42.2216 152.677 42.2241C150.651 42.2266 149.007 40.6413 149.005 38.6839C149.002 36.7265 150.641 35.1371 152.667 35.1346C154.693 35.1321 156.337 36.7174 156.338 38.6748Z" fill="#fcef3c" fill-rule="evenodd" opacity="1" stroke="#000000" stroke-linecap="butt" stroke-linejoin="miter" stroke-width="1.00929" vectornator:layerName="path"/>
<path d="M155.952 45.953C155.955 47.9104 154.316 49.4998 152.29 49.5023C150.264 49.5048 148.62 47.9195 148.619 45.9621C148.615 44.0046 150.255 42.4153 152.28 42.4128C154.306 42.4103 155.95 43.9956 155.952 45.953Z" fill="#fcef3c" fill-rule="evenodd" opacity="1" stroke="#000000" stroke-linecap="butt" stroke-linejoin="miter" stroke-width="1.00929" vectornator:layerName="path"/>
<path d="M154.97 53.0404C154.974 54.9978 153.334 56.5872 151.309 56.5897C149.283 56.5922 147.639 55.0069 147.637 53.0495C147.634 51.092 149.273 49.5027 151.299 49.5002C153.325 49.4977 154.969 51.083 154.97 53.0404Z" fill="#fcef3c" fill-rule="evenodd" opacity="1" stroke="#000000" stroke-linecap="butt" stroke-linejoin="miter" stroke-width="1.00929" vectornator:layerName="path"/>
<path d="M161.318 57.0544C161.321 59.0119 159.682 60.6012 157.656 60.6037C155.63 60.6062 153.986 59.021 153.985 57.0635C153.981 55.1061 155.621 53.5168 157.647 53.5143C159.672 53.5118 161.316 55.097 161.318 57.0544Z" fill="#fcef3c" fill-rule="evenodd" opacity="1" stroke="#000000" stroke-linecap="butt" stroke-linejoin="miter" stroke-width="1.00929" vectornator:layerName="path"/>
</g>
<path d="M116.219 49.8325C117.356 76.473 128.185 88.036 149.363 83.4988C150.037 77.3971 148.42 71.0095 137.048 63.4046C134.152 62.1457 131.672 60.9868 129.54 59.9115C120.858 55.5327 117.947 52.5405 116.219 49.8325Z" fill="#5ab532" fill-rule="evenodd" opacity="1" stroke="#000000" stroke-linecap="butt" stroke-linejoin="miter" stroke-width="1.00894" vectornator:layerName="path"/>
<path d="M150.543 22.1122L167.005 22.0672C168.594 19.6883 170.816 18.3009 173.475 16.8213C170.758 15.2851 167.727 14.8069 163.961 16.8331C164.284 14.0674 162.217 12.0758 159.391 10.329C156.719 12.2669 154.136 14.2206 154.052 16.6553C153.105 15.1637 150.306 13.278 145.137 15.1339C146.939 17.2318 148.789 18.6886 150.543 22.1122" fill="#5ab532" fill-rule="evenodd" opacity="1" stroke="#000000" stroke-linecap="butt" stroke-linejoin="miter" stroke-width="1.00894" vectornator:layerName="path"/>
<path d="M167.484 22.098C176.33 25.4352 182.577 34.0835 182.591 43.8123C182.608 56.4932 171.982 66.7998 158.859 66.816C145.736 66.8323 135.07 56.5519 135.053 43.871C135.039 33.7884 141.763 25.2138 151.115 22.1122C155.764 20.8887 163.231 20.6706 167.484 22.098ZM158.896 21.7224C158.966 21.7241 159.035 21.7201 159.105 21.7222C171.19 32.9879 170.885 53.3417 159.053 65.1052C146.99 53.3516 146.949 33.4481 158.896 21.7224Z" fill="#e20909" fill-rule="evenodd" opacity="1" stroke="#000000" stroke-linecap="butt" stroke-linejoin="miter" stroke-width="1.00894" vectornator:layerName="path"/>
<path d="M165.323 69.2126L158.401 69.2153C159.272 76.6907 163.849 79.2255 170.037 84.6342C179.022 92.2582 187.771 98.3442 196.706 104.787L192.028 107.76C192.152 103.452 177.861 94.7017 170.742 88.8285C158.469 87.2039 148.072 82.9321 143.015 79.4847L136.269 74.1306C131.203 70.9244 125.576 66.2115 121.981 60.1674C125.261 64.5155 128.985 68.6915 134.879 72.0256C140.895 75.6677 155.803 85.1948 166.781 85.7633C160.458 80.7313 156.137 78.9125 155.163 69.2226L148.862 69.1961C147.107 65.7724 145.258 64.3157 143.456 62.2178C148.625 60.3618 151.424 62.2475 152.37 63.7392C152.454 61.3044 155.038 59.3507 157.709 57.4128C160.536 59.1596 162.602 61.1513 162.279 63.917C166.045 61.8908 169.076 62.369 171.794 63.9052C169.134 65.3848 166.913 66.8337 165.323 69.2126Z" fill="#5ab532" fill-rule="evenodd" opacity="1" stroke="#000000" stroke-linecap="butt" stroke-linejoin="miter" stroke-width="1.00894" vectornator:layerName="path"/>
<path d="M158.991 21.6264C146.946 33.3392 146.954 53.3155 159.05 65.101C170.916 53.3032 171.184 32.8716 158.991 21.6264Z" fill="#fcef3c" fill-rule="evenodd" opacity="1" stroke="#000000" stroke-linecap="butt" stroke-linejoin="miter" stroke-width="1.00894" vectornator:layerName="path"/>
<g opacity="1" vectornator:layerName="g4133">
<path d="M166.854 26.9754C166.857 28.9328 165.218 30.5222 163.192 30.5247C161.166 30.5272 159.522 28.9419 159.521 26.9845C159.517 25.027 161.157 23.4377 163.182 23.4352C165.208 23.4327 166.852 25.018 166.854 26.9754Z" fill="#fcef3c" fill-rule="evenodd" opacity="1" stroke="#000000" stroke-linecap="butt" stroke-linejoin="miter" stroke-width="1.00929" vectornator:layerName="path"/>
<path d="M160.405 25.6292C160.409 27.5866 158.769 29.1759 156.744 29.1784C154.718 29.1809 153.074 27.5957 153.072 25.6382C153.069 23.6808 154.708 22.0915 156.734 22.089C158.76 22.0865 160.404 23.6717 160.405 25.6292Z" fill="#fcef3c" fill-rule="evenodd" opacity="1" stroke="#000000" stroke-linecap="butt" stroke-linejoin="miter" stroke-width="1.00929" vectornator:layerName="path"/>
<path d="M157.832 31.7397C157.836 33.6971 156.196 35.2864 154.171 35.2889C152.145 35.2914 150.501 33.7062 150.499 31.7487C150.496 29.7913 152.135 28.202 154.161 28.1995C156.187 28.197 157.831 29.7822 157.832 31.7397Z" fill="#fcef3c" fill-rule="evenodd" opacity="1" stroke="#000000" stroke-linecap="butt" stroke-linejoin="miter" stroke-width="1.00929" vectornator:layerName="path"/>
<path d="M168.818 33.4884C168.821 35.4458 167.181 37.0352 165.156 37.0377C163.13 37.0402 161.486 35.4549 161.484 33.4975C161.481 31.54 163.121 29.9507 165.146 29.9482C167.172 29.9457 168.816 31.531 168.818 33.4884Z" fill="#fcef3c" fill-rule="evenodd" opacity="1" stroke="#000000" stroke-linecap="butt" stroke-linejoin="miter" stroke-width="1.00929" vectornator:layerName="path"/>
<path d="M163.362 29.3775C163.365 31.3349 161.726 32.9243 159.7 32.9268C157.674 32.9293 156.03 31.344 156.029 29.3866C156.025 27.4291 157.665 25.8398 159.69 25.8373C161.716 25.8348 163.36 27.4201 163.362 29.3775Z" fill="#fcef3c" fill-rule="evenodd" opacity="1" stroke="#000000" stroke-linecap="butt" stroke-linejoin="miter" stroke-width="1.00929" vectornator:layerName="path"/>
<path d="M169.024 39.8083C169.028 41.7657 167.388 43.355 165.362 43.3575C163.337 43.36 161.693 41.7748 161.691 39.8173C161.688 37.8599 163.327 36.2706 165.353 36.2681C167.379 36.2656 169.023 37.8508 169.024 39.8083Z" fill="#fcef3c" fill-rule="evenodd" opacity="1" stroke="#000000" stroke-linecap="butt" stroke-linejoin="miter" stroke-width="1.00929" vectornator:layerName="path"/>
<path d="M163.371 36.4637C163.375 38.4211 161.735 40.0104 159.709 40.0129C157.684 40.0154 156.04 38.4302 156.038 36.4727C156.035 34.5153 157.674 32.926 159.7 32.9235C161.726 32.921 163.37 34.5062 163.371 36.4637Z" fill="#fcef3c" fill-rule="evenodd" opacity="1" stroke="#000000" stroke-linecap="butt" stroke-linejoin="miter" stroke-width="1.00929" vectornator:layerName="path"/>
<path d="M162.687 43.2634C162.69 45.2209 161.051 46.8102 159.025 46.8127C156.999 46.8152 155.355 45.2299 155.354 43.2725C155.35 41.3151 156.99 39.7257 159.015 39.7232C161.041 39.7207 162.685 41.306 162.687 43.2634Z" fill="#fcef3c" fill-rule="evenodd" opacity="1" stroke="#000000" stroke-linecap="butt" stroke-linejoin="miter" stroke-width="1.00929" vectornator:layerName="path"/>
<path d="M162.102 50.3503C162.105 52.3078 160.466 53.8971 158.44 53.8996C156.414 53.9021 154.77 52.3168 154.769 50.3594C154.765 48.402 156.405 46.8126 158.43 46.8101C160.456 46.8076 162.1 48.3929 162.102 50.3503Z" fill="#fcef3c" fill-rule="evenodd" opacity="1" stroke="#000000" stroke-linecap="butt" stroke-linejoin="miter" stroke-width="1.00929" vectornator:layerName="path"/>
<path d="M169.034 46.7029C169.037 48.6603 167.397 50.2497 165.372 50.2522C163.346 50.2547 161.702 48.6694 161.7 46.712C161.697 44.7545 163.337 43.1652 165.362 43.1627C167.388 43.1602 169.032 44.7455 169.034 46.7029Z" fill="#fcef3c" fill-rule="evenodd" opacity="1" stroke="#000000" stroke-linecap="butt" stroke-linejoin="miter" stroke-width="1.00929" vectornator:layerName="path"/>
<path d="M157.305 59.9167C157.308 61.8741 155.668 63.4634 153.643 63.4659C151.617 63.4684 149.973 61.8832 149.971 59.9258C149.968 57.9683 151.608 56.379 153.633 56.3765C155.659 56.374 157.303 57.9592 157.305 59.9167Z" fill="#fcef3c" fill-rule="evenodd" opacity="1" stroke="#000000" stroke-linecap="butt" stroke-linejoin="miter" stroke-width="1.00929" vectornator:layerName="path"/>
<path d="M166.338 60.2904C166.342 62.2478 164.702 63.8371 162.676 63.8396C160.651 63.8421 159.007 62.2569 159.005 60.2994C159.002 58.342 160.641 56.7527 162.667 56.7502C164.692 56.7477 166.336 58.3329 166.338 60.2904Z" fill="#fcef3c" fill-rule="evenodd" opacity="1" stroke="#000000" stroke-linecap="butt" stroke-linejoin="miter" stroke-width="1.00929" vectornator:layerName="path"/>
<path d="M168.647 53.7896C168.65 55.747 167.011 57.3363 164.985 57.3388C162.959 57.3413 161.315 55.7561 161.314 53.7986C161.31 51.8412 162.95 50.2519 164.975 50.2494C167.001 50.2469 168.645 51.8321 168.647 53.7896Z" fill="#fcef3c" fill-rule="evenodd" opacity="1" stroke="#000000" stroke-linecap="butt" stroke-linejoin="miter" stroke-width="1.00929" vectornator:layerName="path"/>
<path d="M156.338 38.6748C156.342 40.6323 154.702 42.2216 152.677 42.2241C150.651 42.2266 149.007 40.6413 149.005 38.6839C149.002 36.7265 150.641 35.1371 152.667 35.1346C154.693 35.1321 156.337 36.7174 156.338 38.6748Z" fill="#fcef3c" fill-rule="evenodd" opacity="1" stroke="#000000" stroke-linecap="butt" stroke-linejoin="miter" stroke-width="1.00929" vectornator:layerName="path"/>
<path d="M155.952 45.953C155.955 47.9104 154.316 49.4998 152.29 49.5023C150.264 49.5048 148.62 47.9195 148.619 45.9621C148.615 44.0046 150.255 42.4153 152.28 42.4128C154.306 42.4103 155.95 43.9956 155.952 45.953Z" fill="#fcef3c" fill-rule="evenodd" opacity="1" stroke="#000000" stroke-linecap="butt" stroke-linejoin="miter" stroke-width="1.00929" vectornator:layerName="path"/>
<path d="M154.97 53.0404C154.974 54.9978 153.334 56.5872 151.309 56.5897C149.283 56.5922 147.639 55.0069 147.637 53.0495C147.634 51.092 149.273 49.5027 151.299 49.5002C153.325 49.4977 154.969 51.083 154.97 53.0404Z" fill="#fcef3c" fill-rule="evenodd" opacity="1" stroke="#000000" stroke-linecap="butt" stroke-linejoin="miter" stroke-width="1.00929" vectornator:layerName="path"/>
<path d="M161.318 57.0544C161.321 59.0119 159.682 60.6012 157.656 60.6037C155.63 60.6062 153.986 59.021 153.985 57.0635C153.981 55.1061 155.621 53.5168 157.647 53.5143C159.672 53.5118 161.316 55.097 161.318 57.0544Z" fill="#fcef3c" fill-rule="evenodd" opacity="1" stroke="#000000" stroke-linecap="butt" stroke-linejoin="miter" stroke-width="1.00929" vectornator:layerName="path"/>
</g>
<path d="M116.219 49.8325C117.356 76.473 128.185 88.036 149.363 83.4988C150.037 77.3971 148.42 71.0095 137.048 63.4046C134.152 62.1457 131.672 60.9868 129.54 59.9115C120.858 55.5327 117.947 52.5405 116.219 49.8325Z" fill="#5ab532" fill-rule="evenodd" opacity="1" stroke="#000000" stroke-linecap="butt" stroke-linejoin="miter" stroke-width="1.00894" vectornator:layerName="path"/>
<path d="M150.543 22.1122L167.005 22.0672C168.594 19.6883 170.816 18.3009 173.475 16.8213C170.758 15.2851 167.727 14.8069 163.961 16.8331C164.284 14.0674 162.217 12.0758 159.391 10.329C156.719 12.2669 154.136 14.2206 154.052 16.6553C153.105 15.1637 150.306 13.278 145.137 15.1339C146.939 17.2318 148.789 18.6886 150.543 22.1122" fill="#5ab532" fill-rule="evenodd" opacity="1" stroke="#000000" stroke-linecap="butt" stroke-linejoin="miter" stroke-width="1.00894" vectornator:layerName="path"/>
<path d="M167.484 22.098C176.33 25.4352 182.577 34.0835 182.591 43.8123C182.608 56.4932 171.982 66.7998 158.859 66.816C145.736 66.8323 135.07 56.5519 135.053 43.871C135.039 33.7884 141.763 25.2138 151.115 22.1122C155.764 20.8887 163.231 20.6706 167.484 22.098ZM158.896 21.7224C158.966 21.7241 159.035 21.7201 159.105 21.7222C171.19 32.9879 170.885 53.3417 159.053 65.1052C146.99 53.3516 146.949 33.4481 158.896 21.7224Z" fill="#e20909" fill-rule="evenodd" opacity="1" stroke="#000000" stroke-linecap="butt" stroke-linejoin="miter" stroke-width="1.00894" vectornator:layerName="path"/>
<path d="M165.323 69.2126L158.401 69.2153C159.272 76.6907 163.849 79.2255 170.037 84.6342C179.022 92.2582 187.771 98.3442 196.706 104.787L192.028 107.76C192.152 103.452 177.861 94.7017 170.742 88.8285C158.469 87.2039 148.072 82.9321 143.015 79.4847L136.269 74.1306C131.203 70.9244 125.576 66.2115 121.981 60.1674C125.261 64.5155 128.985 68.6915 134.879 72.0256C140.895 75.6677 155.803 85.1948 166.781 85.7633C160.458 80.7313 156.137 78.9125 155.163 69.2226L148.862 69.1961C147.107 65.7724 145.258 64.3157 143.456 62.2178C148.625 60.3618 151.424 62.2475 152.37 63.7392C152.454 61.3044 155.038 59.3507 157.709 57.4128C160.536 59.1596 162.602 61.1513 162.279 63.917C166.045 61.8908 169.076 62.369 171.794 63.9052C169.134 65.3848 166.913 66.8337 165.323 69.2126Z" fill="#5ab532" fill-rule="evenodd" opacity="1" stroke="#000000" stroke-linecap="butt" stroke-linejoin="miter" stroke-width="1.00894" vectornator:layerName="path"/>
</g>
</g>
</svg>
