<?xml version="1.0" encoding="UTF-8" standalone="no"?>
<!-- Created with Inkscape (http://www.inkscape.org/) -->

<svg
   xmlns:dc="http://purl.org/dc/elements/1.1/"
   xmlns:cc="http://creativecommons.org/ns#"
   xmlns:rdf="http://www.w3.org/1999/02/22-rdf-syntax-ns#"
   xmlns:svg="http://www.w3.org/2000/svg"
   xmlns="http://www.w3.org/2000/svg"
   version="1.1"
   width="604.90625"
   height="480.01505"
   id="svg2">
  <metadata
     id="metadata8">
    <rdf:RDF>
      <cc:Work
         rdf:about="">
        <dc:format>image/svg+xml</dc:format>
        <dc:type
           rdf:resource="http://purl.org/dc/dcmitype/StillImage" />
        <dc:title></dc:title>
      </cc:Work>
    </rdf:RDF>
  </metadata>
  <defs
     id="defs6" />
  <g
     transform="translate(-341.1875,-457.1875)"
     id="layer1"
     style="display:inline" />
  <g
     id="g3063">
    <path
       d="m 302.44198,8.25502 c -103.38566,0 -185.36605,13.52661 -275.68902,34.4662 L 9.52999,60.83573 c 86.15471,86.15471 34.44785,413.54131 292.91199,410.9197 258.46415,2.62161 206.77757,-324.76499 292.93229,-410.9197 L 578.15128,42.72122 C 487.8283,21.78163 405.82764,8.25502 302.44198,8.25502 z"
       id="path3128"
       style="fill:none;stroke:#000000;stroke-width:6.48394012;stroke-linecap:butt;stroke-linejoin:miter;stroke-opacity:1" />
    <path
       d="m 59.50581,180.56158 242.9563,0 242.9563,0 -8.61547,34.46188 -8.61547,34.46189 -225.72536,0 -225.72535,0 -8.615475,-34.46189 z"
       id="rect3133"
       style="fill:#000000;stroke:#000000;stroke-width:1.94518209;stroke-opacity:1" />
    <path
       d="m 267.99025,469.78361 0,-230.44536 0,-230.44536 34.46188,0 34.46189,0 0,230.44536 0,230.44536 -34.46189,0 z"
       id="rect3135"
       style="fill:#000000;stroke:#000000;stroke-width:1.94518209;stroke-opacity:1" />
    <path
       d="m 80.46001,250.89763 c 14.28183,52.78031 30.99347,106.78693 65.51951,150.15698 28.24197,35.8361 71.15649,59.13964 116.32791,64.83903 8.63597,2.37744 3.83036,-9.17203 5.05492,-13.99823 0,-67.05327 0,-134.10653 0,-201.1598 -12.46818,-1.51088 -26.09815,-0.21698 -39.01359,-0.64807 -49.09103,0 -98.18206,0 -147.27309,0 l -0.61566,0.81009 z"
       id="path3232"
       style="fill:#ffffff;fill-opacity:1;stroke:none" />
    <path
       d="M 259.68277,11.98796 C 194.26713,14.7859 129.2087,23.64353 65.20576,37.36062 52.62137,40.44644 39.24571,41.96478 27.22136,46.46509 23.01902,51.5729 17.134,55.88535 13.83879,61.40302 c 15.33798,16.54262 24.18094,37.99513 32.01448,58.97404 6.61373,19.55368 11.68409,39.98678 17.69221,59.46009 67.72294,0 135.44587,0 203.16881,0 1.51088,-12.46819 0.21698,-26.09816 0.64806,-39.01359 0,-42.9236 0,-85.8472 0,-128.77079 -1.86226,-1.42813 -5.3619,0.16301 -7.67958,-0.0648 z"
       id="path3234"
       style="fill:#ffffff;fill-opacity:1;stroke:none" />
    <path
       d="m 337.61275,250.73561 c 0,71.54653 0,143.09305 0,214.63958 8.92223,1.86086 18.75735,-2.30626 27.77007,-4.01427 42.0621,-10.3123 79.2125,-37.12606 103.05241,-73.21057 28.04696,-41.15435 43.38809,-89.4238 55.88544,-137.25272 -8.04602,-1.88302 -17.82349,-0.2754 -26.53832,-0.81009 -53.17384,0 -106.34769,0 -159.52154,0 l -0.64806,0.64807 z"
       id="path3238"
       style="fill:#ffffff;fill-opacity:1;stroke:none" />
    <path
       d="m 337.61275,12.08517 c 0,55.7013 0,111.40261 0,167.10391 12.46818,1.51089 26.09814,0.21699 39.01359,0.64807 54.93443,0 109.86885,0 164.80328,0 9.78681,-31.48038 16.35163,-65.10097 32.80803,-94.3261 4.31113,-9.07748 11.37858,-17.1196 16.67185,-25.24215 -5.56361,-4.85654 -10.09019,-11.50534 -16.21033,-15.3854 -73.463,-16.49842 -147.97186,-29.56287 -223.34043,-32.48818 -4.43073,0.24902 -9.76938,-1.71965 -13.74599,-0.31015 z"
       id="path3236"
       style="fill:#ffffff;fill-opacity:1;stroke:none" />
    <path
       d="m 164.60386,251.2206 c 8.56474,0 15.50067,6.95618 15.50067,15.52093 0,2.46436 -0.57785,4.77959 -1.60073,6.84866 8.94972,0.80341 21.31278,1.76282 29.17773,1.76282 13.4169,0 40.13965,-2.83672 40.13965,-2.83672 0,0 -3.97142,26.71095 -3.97142,40.1599 0,8.41965 1.55247,22.03715 2.71515,31.04187 1.8213,-0.75126 3.82411,-1.17522 5.9166,-1.17522 8.56474,0 15.50067,6.95619 15.50067,15.52093 0,8.56475 -6.93593,15.50067 -15.50067,15.50067 -8.56475,0 -15.52093,-6.93592 -15.52093,-15.50067 0,-2.25908 0.48913,-4.40631 1.35757,-6.3421 -9.00776,-0.98744 -22.3406,-2.26938 -30.63662,-2.26938 -8.29602,0 -21.64911,1.28194 -30.65687,2.26938 0.86844,1.93579 1.35757,4.08302 1.35757,6.3421 0,8.56475 -6.93592,15.50067 -15.50067,15.50067 -8.56475,0 -15.52093,-6.93592 -15.52093,-15.50067 0,-8.56474 6.95618,-15.52093 15.52093,-15.52093 2.09249,0 4.07504,0.42396 5.89633,1.17522 1.16268,-9.00472 2.71515,-22.6222 2.71515,-31.04187 0,-8.40559 -1.5531,-21.99631 -2.71515,-31.00133 -1.33076,0.3719 -2.72459,0.56734 -4.17403,0.56734 -8.56475,0 -15.52093,-6.93592 -15.52093,-15.50067 0,-8.56475 6.95618,-15.52093 15.52093,-15.52093 z"
       id="path3070"
       style="fill:#fd3301;fill-opacity:1;stroke:#000000;stroke-width:1.94518209;stroke-opacity:1" />
    <path
       d="m 473.03678,77.18759 6.88919,6.90945 -6.88919,6.88919 6.88919,6.88919 6.88919,-6.88919 20.66755,20.66756 -13.77837,13.77837 -10.33378,-10.33378 -3.44459,-3.44459 -10.33378,10.33378 13.77837,13.79863 -10.33378,10.33378 -20.68782,-20.68782 10.33378,-10.33378 -6.88919,-6.88918 -10.33377,10.33377 -3.4446,-3.44459 -6.88918,6.88919 3.44459,3.44459 -10.33378,10.33378 6.88919,6.88919 10.33378,-10.33378 20.68782,20.68782 -10.33378,10.33378 -13.79864,-13.77837 -10.33378,10.33378 3.4446,3.44459 10.33378,10.33378 -13.77838,13.77837 -20.66756,-20.66756 6.88919,-6.88918 -6.88919,-6.88919 -6.88918,6.88919 -6.90945,-6.88919 6.90945,-6.90945 -6.90945,-6.88919 6.90945,-6.88918 20.64729,-20.66756 6.90945,-6.90945 20.66756,-20.6473 6.88919,-6.90945 6.88918,6.90945 6.90945,-6.90945 z"
       id="path3072"
       style="fill:#fd3301;stroke:#000000;stroke-width:1.94518209;stroke-linecap:butt;stroke-linejoin:miter;stroke-opacity:1" />
    <path
       d="m 448.90517,53.07145 c 1.62455,-1.62455 4.7698,-0.87919 6.89237,0 4.50266,1.86507 8.4735,5.83591 10.33857,10.33857 0.87919,2.12258 1.62455,5.26782 0,6.89238 l -213.6637,213.66369 -4.30773,-4.30773 -4.30774,-4.30774 -4.30773,-4.30773 -4.30774,-4.30774 z"
       id="path3074"
       style="fill:#fd3301;stroke:#000000;stroke-width:1.94518209;stroke-linecap:butt;stroke-linejoin:miter;stroke-opacity:1" />
    <path
       d="m 345.51955,142.67236 c -2.14118,2.14119 -2.34389,5.81544 -0.94071,10.02499 l 21.93141,21.93141 c 4.20956,1.40319 7.88381,1.20048 10.025,-0.9407 2.14119,-2.14119 2.34389,-5.81544 0.9407,-10.025 l -21.93141,-21.93141 c -4.20955,-1.40318 -7.8838,-1.20048 -10.02499,0.94071 z"
       id="path3076"
       style="fill:#fd3301;stroke:#000000;stroke-width:1.94518197;stroke-opacity:1" />
    <path
       d="m 228.34909,259.84278 c -2.14118,2.14119 -2.34389,5.81544 -0.94071,10.02499 l 21.93141,21.93141 c 4.20956,1.40319 7.88381,1.20048 10.025,-0.9407 2.14119,-2.14119 2.34389,-5.81544 0.9407,-10.025 l -21.93141,-21.93141 c -4.20955,-1.40318 -7.8838,-1.20048 -10.02499,0.94071 z"
       id="path3078"
       style="fill:#fd3301;stroke:#000000;stroke-width:1.94518197;stroke-opacity:1" />
    <path
       d="m 230.38351,289.94699 c -5.23434,-5.19712 -15.99641,4.55725 -22.88879,4.55725 -6.89238,0 -17.45865,-10.67939 -22.88879,-4.55725 -5.05464,5.6988 6.89238,15.99642 6.89238,22.8888 0,6.89238 -12.75599,16.98626 -6.89238,22.88879 5.88529,5.92435 15.99641,-6.75845 22.88879,-6.75845 6.89238,0 17.23056,11.77446 22.88879,6.75845 6.0846,-5.39398 -4.42331,-15.99641 -4.42331,-22.88879 0,-6.89238 9.68227,-17.66723 4.42331,-22.8888 z"
       id="path3080"
       style="fill:#ffffff;stroke:#000000;stroke-width:1.94518209;stroke-opacity:1" />
    <path
       d="m 440.30037,251.22048 c -8.56475,0 -15.50067,6.95618 -15.50067,15.52093 0,2.46436 0.57785,4.77959 1.60072,6.84866 -8.94971,0.80341 -21.31278,1.76282 -29.17773,1.76282 -13.41689,0 -40.13964,-2.83672 -40.13964,-2.83672 0,0 3.97141,26.71095 3.97141,40.1599 0,8.41965 -1.55246,22.03715 -2.71515,31.04187 -1.82129,-0.75126 -3.8241,-1.17522 -5.91659,-1.17522 -8.56475,0 -15.50067,6.95619 -15.50067,15.52093 0,8.56475 6.93592,15.50067 15.50067,15.50067 8.56474,0 15.52093,-6.93592 15.52093,-15.50067 0,-2.25908 -0.48913,-4.40631 -1.35758,-6.3421 9.00776,-0.98744 22.3406,-2.26938 30.63662,-2.26938 8.29602,0 21.64912,1.28194 30.65688,2.26938 -0.86845,1.93579 -1.35758,4.08302 -1.35758,6.3421 0,8.56475 6.93593,15.50067 15.50067,15.50067 8.56475,0 15.52094,-6.93592 15.52094,-15.50067 0,-8.56474 -6.95619,-15.52093 -15.52094,-15.52093 -2.09249,0 -4.07504,0.42396 -5.89633,1.17522 -1.16268,-9.00472 -2.71515,-22.6222 -2.71515,-31.04187 0,-8.40559 1.55311,-21.99631 2.71515,-31.00133 1.33076,0.3719 2.7246,0.56734 4.17404,0.56734 8.56474,0 15.52093,-6.93592 15.52093,-15.50067 0,-8.56475 -6.95619,-15.52093 -15.52093,-15.52093 z"
       id="path3353"
       style="fill:#fd3301;fill-opacity:1;stroke:#000000;stroke-width:1.94518209;stroke-opacity:1" />
    <path
       d="m 68.121285,215.02346 468.681655,0"
       id="path3059"
       style="fill:none;stroke:#ffffff;stroke-width:4;stroke-linecap:butt;stroke-linejoin:miter;stroke-opacity:1" />
    <path
       d="m 131.86744,77.18747 -6.88919,6.90945 6.88919,6.88919 -6.88919,6.88919 -6.88918,-6.88919 -20.66756,20.66756 13.77837,13.77837 10.33378,-10.33378 3.44459,-3.44459 10.33378,10.33378 -13.77837,13.79863 10.33378,10.33378 20.68782,-20.68782 -10.33378,-10.33378 6.88919,-6.88918 10.33378,10.33377 3.44459,-3.44459 6.88919,6.88919 -3.44459,3.44459 10.33377,10.33378 -6.88918,6.88919 -10.33378,-10.33378 -20.68782,20.68782 10.33378,10.33378 13.79863,-13.77837 10.33378,10.33378 -3.44459,3.44459 -10.33378,10.33378 13.77837,13.77837 20.66756,-20.66756 -6.88919,-6.88918 6.88919,-6.88919 6.88919,6.88919 6.90945,-6.88919 -6.90945,-6.90945 6.90945,-6.88919 -6.90945,-6.88918 -20.6473,-20.66756 -6.90945,-6.90945 -20.66756,-20.6473 -6.88918,-6.90945 -6.88919,6.90945 -6.90945,-6.90945 z"
       id="path3355"
       style="fill:#fd3301;stroke:#000000;stroke-width:1.94518209;stroke-linecap:butt;stroke-linejoin:miter;stroke-opacity:1" />
    <path
       d="m 302.45213,8.89289 0,460.89072"
       id="path3061"
       style="fill:none;stroke:#ffffff;stroke-width:4;stroke-linecap:butt;stroke-linejoin:miter;stroke-opacity:1" />
    <path
       d="m 155.99906,53.07133 c -1.62455,-1.62455 -4.7698,-0.87919 -6.89238,0 -4.50266,1.86507 -8.4735,5.83591 -10.33856,10.33857 -0.8792,2.12258 -1.62455,5.26782 0,6.89238 l 213.66369,213.66369 4.30774,-4.30773 4.30773,-4.30774 4.30774,-4.30773 4.30773,-4.30774 z"
       id="path3357"
       style="fill:#fd3301;stroke:#000000;stroke-width:1.94518209;stroke-linecap:butt;stroke-linejoin:miter;stroke-opacity:1" />
    <path
       d="m 259.38472,142.67224 c 2.14119,2.14119 2.34389,5.81544 0.94071,10.02499 l -21.93141,21.93141 c -4.20956,1.40319 -7.88381,1.20049 -10.025,-0.9407 -2.14118,-2.14119 -2.34389,-5.81544 -0.9407,-10.025 l 21.93141,-21.93141 c 4.20955,-1.40318 7.8838,-1.20048 10.02499,0.94071 z"
       id="path3359"
       style="fill:#fd3301;stroke:#000000;stroke-width:1.94518197;stroke-opacity:1" />
    <path
       d="m 376.55513,259.84266 c 2.14119,2.14119 2.34389,5.81544 0.94071,10.02499 l -21.93141,21.93141 c -4.20956,1.40319 -7.88381,1.20048 -10.025,-0.9407 -2.14118,-2.14119 -2.34389,-5.81544 -0.9407,-10.025 l 21.93141,-21.93141 c 4.20955,-1.40318 7.8838,-1.20047 10.02499,0.94071 z"
       id="path3361"
       style="fill:#fd3301;stroke:#000000;stroke-width:1.94518197;stroke-opacity:1" />
    <path
       d="m 374.52071,289.94687 c 5.23434,-5.19712 15.99641,4.55725 22.8888,4.55725 6.89237,0 17.45865,-10.67939 22.88878,-4.55725 5.05464,5.6988 -6.89237,15.99642 -6.89237,22.8888 0,6.89238 12.75598,16.98626 6.89237,22.88879 -5.88529,5.92435 -15.99641,-6.75845 -22.88878,-6.75845 -6.89239,0 -17.23056,11.77446 -22.8888,6.75845 -6.0846,-5.39398 4.42332,-15.99641 4.42332,-22.88879 0,-6.89238 -9.68227,-17.66723 -4.42332,-22.8888 z"
       id="path3363"
       style="fill:#ffffff;stroke:#000000;stroke-width:1.94518209;stroke-opacity:1" />
  </g>
</svg>
