<?xml version="1.0" encoding="UTF-8" standalone="no"?>
<!-- Created with Inkscape (http://www.inkscape.org/) -->

<svg
   xmlns:dc="http://purl.org/dc/elements/1.1/"
   xmlns:cc="http://creativecommons.org/ns#"
   xmlns:rdf="http://www.w3.org/1999/02/22-rdf-syntax-ns#"
   xmlns:svg="http://www.w3.org/2000/svg"
   xmlns="http://www.w3.org/2000/svg"
   xmlns:sodipodi="http://sodipodi.sourceforge.net/DTD/sodipodi-0.dtd"
   xmlns:inkscape="http://www.inkscape.org/namespaces/inkscape"
   width="146.99506mm"
   height="159.20674mm"
   viewBox="0 0 146.99506 159.20674"
   version="1.1"
   id="svg865"
   inkscape:version="0.92.5 (2060ec1f9f, 2020-04-08)"
   sodipodi:docname="DEU Konz COA.svg">
  <defs
     id="defs859">
    <inkscape:path-effect
       effect="spiro"
       id="path-effect2016"
       is_visible="true" />
    <inkscape:path-effect
       effect="spiro"
       id="path-effect1654"
       is_visible="true" />
    <inkscape:path-effect
       effect="spiro"
       id="path-effect1631"
       is_visible="true" />
    <inkscape:path-effect
       effect="spiro"
       id="path-effect1176"
       is_visible="true" />
    <inkscape:path-effect
       effect="spiro"
       id="path-effect1104"
       is_visible="true" />
    <inkscape:path-effect
       effect="spiro"
       id="path-effect1176-5"
       is_visible="true" />
    <inkscape:path-effect
       effect="spiro"
       id="path-effect1176-5-9"
       is_visible="true" />
    <inkscape:path-effect
       effect="spiro"
       id="path-effect1104-6"
       is_visible="true" />
    <inkscape:path-effect
       effect="spiro"
       id="path-effect1104-6-0"
       is_visible="true" />
    <inkscape:path-effect
       effect="spiro"
       id="path-effect1104-6-4"
       is_visible="true" />
    <inkscape:path-effect
       effect="spiro"
       id="path-effect1104-6-0-6"
       is_visible="true" />
    <inkscape:path-effect
       effect="spiro"
       id="path-effect1631-5"
       is_visible="true" />
    <inkscape:path-effect
       effect="spiro"
       id="path-effect1654-1"
       is_visible="true" />
    <inkscape:path-effect
       effect="spiro"
       id="path-effect2016-1"
       is_visible="true" />
  </defs>
  <sodipodi:namedview
     id="base"
     pagecolor="#ffffff"
     bordercolor="#666666"
     borderopacity="1.0"
     inkscape:pageopacity="0.0"
     inkscape:pageshadow="2"
     inkscape:zoom="1.317875"
     inkscape:cx="277.78593"
     inkscape:cy="300.86312"
     inkscape:document-units="mm"
     inkscape:current-layer="layer1"
     showgrid="false"
     inkscape:window-width="1920"
     inkscape:window-height="1046"
     inkscape:window-x="-11"
     inkscape:window-y="-11"
     inkscape:window-maximized="1"
     fit-margin-top="0"
     fit-margin-left="0"
     fit-margin-right="0"
     fit-margin-bottom="0"
     inkscape:snap-midpoints="true"
     inkscape:snap-smooth-nodes="true"
     inkscape:snap-global="true" />
  <metadata
     id="metadata862">
    <rdf:RDF>
      <cc:Work
         rdf:about="">
        <dc:format>image/svg+xml</dc:format>
        <dc:type
           rdf:resource="http://purl.org/dc/dcmitype/StillImage" />
        <dc:title></dc:title>
      </cc:Work>
    </rdf:RDF>
  </metadata>
  <g
     inkscape:label="Ebene 1"
     inkscape:groupmode="layer"
     id="layer1"
     transform="translate(66.447086,166.26238)">
    <path
       d="m -64.99189,-164.80717 7.53521,101.778102 c 1.07448,30.33178 29.67153,54.4981629 64.5069032,54.5182289 C 41.863286,-8.5434381 70.468584,-32.717367 71.557111,-63.029068 L 79.092773,-164.80717 H 7.0508952 Z"
       id="path1193-8-8"
       inkscape:connector-curvature="0"
       style="fill:#ffffff;fill-rule:evenodd;stroke:none;stroke-width:2.9104166;stroke-linecap:round;stroke-linejoin:round;stroke-miterlimit:4;stroke-dasharray:none;stroke-opacity:1" />
    <path
       id="path1102"
       d="m -3.2158497,-164.80717 c -0.051678,1.2643 -0.013653,2.53223 0.1214385,3.79046 0.4596288,4.28057 1.9873515,8.45241 1.8639684,12.75581 -0.1233779,4.30331 -1.8967821,8.45035 -1.8639684,12.7553 0.032819,4.30565 1.8721493,8.45005 1.8639684,12.75581 -0.00818,4.30597 -1.8639684,8.44983 -1.8639684,12.75581 0,4.30598 1.8557901,8.44983 1.8639684,12.755811 0.00818,4.305763 -1.8311495,8.450162 -1.8639684,12.755808 -0.01606,2.106507 0.4009575,4.175331 0.8449098,6.243032 -0.8385413,0.589811 -1.643036,1.228037 -2.4050201,1.914093 -3.1994475,2.880638 -5.6848325,6.562889 -9.2443985,8.984464 -3.559479,2.42152 -7.959468,3.414409 -11.428759,5.963463 -3.469854,2.549464 -5.750938,6.468668 -9.244915,8.98498 -3.494143,2.516433 -7.938886,3.440393 -11.42824,5.963459 -2.075749,1.500921 -3.72182,3.498628 -5.447215,5.40484 2.883934,5.381066 6.713013,10.29694 11.302153,14.585672 1.576395,-1.761808 3.120853,-3.560138 5.028118,-4.939234 3.489356,-2.523067 7.934097,-3.447542 11.428243,-5.963975 3.493973,-2.516312 5.775057,-6.435 9.244912,-8.984467 3.469293,-2.549052 7.8687635,-3.542459 11.4282427,-5.963976 3.55956388,-2.421575 6.0454698,-6.103826 9.2449146,-8.984464 0.2698618,-0.242972 0.5463222,-0.477829 0.826307,-0.709001 0.2799821,0.231172 0.5569585,0.466029 0.8268229,0.709001 3.1994448,2.880638 5.6848318,6.562889 9.2443958,8.984464 3.559479,2.421517 7.959468,3.414924 11.428759,5.963976 3.469857,2.549467 5.750423,6.468155 9.244396,8.984467 3.494146,2.516433 7.939402,3.440908 11.428762,5.963975 1.902275,1.375489 3.44375,3.167883 5.015714,4.925282 4.589137,-4.28857 8.4197,-9.203081 11.305252,-14.582058 -1.721912,-1.903166 -3.365834,-3.896235 -5.43791,-5.394502 -3.48936,-2.523066 -7.934616,-3.447542 -11.428759,-5.963975 -3.493974,-2.516312 -5.774542,-6.435 -9.244399,-8.984464 -3.469291,-2.549054 -7.86928,-3.541943 -11.428759,-5.963463 -3.559564,-2.421575 -6.044951,-6.103826 -9.244396,-8.984464 -0.774668,-0.697476 -1.593194,-1.345607 -2.44688,-1.943549 -0.441576,-2.057895 -0.854689,-4.11707 -0.838708,-6.213576 0.03282,-4.305646 1.872149,-8.450045 1.863969,-12.755808 -0.0082,-4.305981 -1.863969,-8.449831 -1.863969,-12.755811 0,-4.30598 1.855788,-8.44984 1.863969,-12.75581 0.0082,-4.30576 -1.83115,-8.45016 -1.863969,-12.75581 -0.03281,-4.30495 1.740591,-8.45199 1.863969,-12.7553 0.12338,-4.3034 -1.40434,-8.47524 -1.863969,-12.75581 -0.135104,-1.25823 -0.173117,-2.52616 -0.121441,-3.79046 H 7.0553572 Z"
       style="fill:#0099ff;stroke:#000000;stroke-width:1.32291663;stroke-linecap:round;stroke-linejoin:round;stroke-miterlimit:4;stroke-dasharray:none;stroke-opacity:1;fill-opacity:1"
       inkscape:connector-curvature="0" />
    <path
       style="fill:#000000;stroke:none;stroke-width:0.26458332px;stroke-linecap:butt;stroke-linejoin:miter;stroke-opacity:1"
       d="m 0.65751014,-101.77646 c 0.003387,0.10118 0.0103452,0.20211 0.020664,0.30284 0.10864585,1.05908 0.58743576,2.040865 0.85576036,3.071126 0.4137819,1.588744 0.318979,3.272949 0,4.883415 -0.1519555,0.767212 -0.3538696,1.524502 -0.60409664,2.265494 0.81571304,-0.747818 1.43020784,-1.713679 1.76216464,-2.76934 0.570013,-1.812714 0.2944654,-3.801058 -0.3524329,-5.587762 -0.2567967,-0.709273 -0.5705131,-1.397843 -0.8056351,-2.114603 -0.2250969,-0.6862 -0.3773673,-1.39642 -0.4532022,-2.1146 -0.30148733,0.64135 -0.44693143,1.35527 -0.42323006,2.06343 z m 1.81849446,-1.28312 c 0.00865,0.27556 0.051708,0.55104 0.1291907,0.81597 0.2036975,0.69646 0.629248,1.29686 0.9291426,1.95493 0.4624626,1.014781 0.6189451,2.154077 0.6258004,3.271121 0.00328,0.53213 -0.026273,1.063731 -0.08785,1.590066 0.4144407,-0.598566 0.6753913,-1.319106 0.7477575,-2.066025 0.1242616,-1.282541 -0.3032284,-2.581542 -0.9368922,-3.701042 -0.2515447,-0.44442 -0.5356886,-0.86834 -0.7746312,-1.32035 -0.2287535,-0.43273 -0.4150069,-0.89017 -0.5544873,-1.36218 -0.060801,0.26611 -0.086685,0.54197 -0.078031,0.81751 z m 2.0872106,-0.78703 c -0.010372,0.29596 0.033446,0.59647 0.1286748,0.87746 0.1668992,0.4925 0.4814914,0.90765 0.7126181,1.36893 0.356415,0.7113 0.5085239,1.52397 0.5575882,2.32595 0.023363,0.382032 0.024262,0.764805 0.0031,1.145144 0.2594954,-0.445559 0.4091225,-0.9729 0.4289134,-1.512041 0.033983,-0.925803 -0.3094355,-1.842563 -0.7870323,-2.622603 -0.1895898,-0.30964 -0.4011136,-0.6032 -0.5823928,-0.91879 -0.1735482,-0.30213 -0.3189579,-0.62384 -0.4330489,-0.95758 -0.015505,0.0967 -0.024977,0.19489 -0.028421,0.29353 z"
       id="path1174"
       inkscape:connector-curvature="0" />
    <path
       inkscape:connector-curvature="0"
       style="fill:#000000;stroke:none;stroke-width:0.26458332px;stroke-linecap:butt;stroke-linejoin:miter;stroke-opacity:1"
       d="m 1.074058,-128.11063 c 0.003,0.10118 0.0103,0.20212 0.0207,0.30285 0.10865,1.05907 0.58744,2.04086 0.85576,3.07112 0.41379,1.58874 0.31898,3.27295 0,4.88342 -0.15195,0.76721 -0.35386,1.5245 -0.60409,2.26549 0.81571,-0.74782 1.43021,-1.71368 1.76216,-2.76934 0.57002,-1.81271 0.29447,-3.80106 -0.35243,-5.58776 -0.2568,-0.70927 -0.57051,-1.39785 -0.80564,-2.11461 -0.22509,-0.68619 -0.37736,-1.39641 -0.4532,-2.1146 -0.30148,0.64135 -0.44693,1.35528 -0.42323,2.06343 z m 1.81849,-1.28312 c 0.009,0.27556 0.0517,0.55105 0.1292,0.81598 0.20369,0.69646 0.62924,1.29685 0.92914,1.95492 0.46246,1.01479 0.61894,2.15408 0.6258,3.27113 0.003,0.53213 -0.0263,1.06373 -0.0879,1.59006 0.41444,-0.59856 0.67539,-1.3191 0.74776,-2.06602 0.12426,-1.28254 -0.30323,-2.58154 -0.9369,-3.70105 -0.25154,-0.44442 -0.53568,-0.86833 -0.77463,-1.32035 -0.22875,-0.43272 -0.415,-0.89016 -0.55448,-1.36218 -0.0608,0.26612 -0.0867,0.54197 -0.078,0.81751 z m 2.08722,-0.78703 c -0.0104,0.29596 0.0334,0.59648 0.12867,0.87747 0.1669,0.49249 0.48149,0.90765 0.71262,1.36892 0.35641,0.71131 0.50852,1.52398 0.55759,2.32595 0.0234,0.38204 0.0243,0.76481 0.003,1.14515 0.2595,-0.44556 0.40912,-0.9729 0.42892,-1.51204 0.034,-0.92581 -0.30944,-1.84256 -0.78704,-2.62261 -0.18959,-0.30964 -0.40111,-0.60319 -0.58239,-0.91879 -0.17355,-0.30213 -0.31896,-0.62383 -0.43305,-0.95758 -0.0155,0.0967 -0.025,0.19489 -0.0284,0.29353 z"
       id="path1174-8" />
    <path
       inkscape:connector-curvature="0"
       style="fill:#000000;stroke:none;stroke-width:0.26458332px;stroke-linecap:butt;stroke-linejoin:miter;stroke-opacity:1"
       d="m 0.570621,-152.80255 c 0.003,0.10118 0.0103,0.20212 0.0207,0.30284 0.10865,1.05908 0.58744,2.04087 0.85576,3.07113 0.41379,1.58874 0.31898,3.27295 0,4.88341 -0.15195,0.76721 -0.35386,1.5245 -0.60409,2.2655 0.81571,-0.74782 1.43021,-1.71368 1.76216,-2.76934 0.57002,-1.81272 0.29447,-3.80106 -0.35243,-5.58777 -0.2568,-0.70926 -0.57051,-1.39784 -0.80564,-2.1146 -0.22509,-0.6862 -0.37736,-1.39642 -0.4532,-2.1146 -0.30148,0.64135 -0.44693,1.35527 -0.42323,2.06343 z m 1.81849,-1.28312 c 0.009,0.27556 0.0517,0.55105 0.1292,0.81597 0.20369,0.69647 0.62924,1.29686 0.92914,1.95493 0.46246,1.01478 0.61894,2.15408 0.6258,3.27112 0.003,0.53213 -0.0263,1.06373 -0.0879,1.59007 0.41444,-0.59857 0.67539,-1.31911 0.74776,-2.06603 0.12426,-1.28254 -0.30323,-2.58154 -0.9369,-3.70104 -0.25154,-0.44442 -0.53568,-0.86834 -0.77463,-1.32035 -0.22875,-0.43273 -0.415,-0.89017 -0.55448,-1.36218 -0.0608,0.26612 -0.0867,0.54197 -0.078,0.81751 z m 2.08722,-0.78703 c -0.0104,0.29596 0.0334,0.59647 0.12867,0.87746 0.1669,0.4925 0.48149,0.90766 0.71262,1.36893 0.35641,0.71131 0.50852,1.52397 0.55759,2.32595 0.0234,0.38203 0.0243,0.76481 0.003,1.14515 0.2595,-0.44556 0.40912,-0.9729 0.42892,-1.51205 0.034,-0.9258 -0.30944,-1.84255 -0.78704,-2.6226 -0.18959,-0.30964 -0.40111,-0.6032 -0.58239,-0.91879 -0.17355,-0.30213 -0.31896,-0.62384 -0.43305,-0.95758 -0.0155,0.0967 -0.025,0.19489 -0.0284,0.29353 z"
       id="path1174-86" />
    <path
       inkscape:connector-curvature="0"
       style="fill:#000000;stroke:none;stroke-width:0.26458332px;stroke-linecap:butt;stroke-linejoin:miter;stroke-opacity:1"
       d="m -28.87784,-53.666343 c -0.0802,0.06172 -0.15775,0.126777 -0.23329,0.194227 -0.79455,0.708601 -1.3096,1.671864 -1.98725,2.492973 -1.04498,1.266228 -2.46534,2.176253 -3.95729,2.861413 -0.71074,0.32641 -1.44272,0.606522 -2.18981,0.837927 1.08396,0.222831 2.22671,0.154851 3.27667,-0.194711 1.80293,-0.600232 3.25274,-1.988587 4.32154,-3.559711 0.42429,-0.623691 0.79847,-1.281376 1.24152,-1.891895 0.42416,-0.584472 0.91047,-1.124013 1.44802,-1.60629 -0.69637,0.131491 -1.36013,0.431949 -1.92009,0.866091 z m 2.10531,0.721778 c -0.21803,0.168756 -0.41625,0.36478 -0.58553,0.582816 -0.44502,0.573148 -0.6822,1.269788 -1.03974,1.898405 -0.55136,0.969365 -1.3829,1.76373 -2.28408,2.423818 -0.42946,0.31423 -0.87741,0.601975 -1.34001,0.860458 0.72788,-0.01488 1.46467,-0.225617 2.11234,-0.604625 1.11212,-0.650804 1.91428,-1.758363 2.45018,-2.927829 0.21275,-0.464241 0.38978,-0.942882 0.61606,-1.401374 0.21662,-0.438918 0.47817,-0.85788 0.77895,-1.247486 -0.25128,0.106663 -0.48999,0.247307 -0.70818,0.415809 z m 1.86077,1.230225 c -0.24593,0.164988 -0.46379,0.37657 -0.63567,0.618416 -0.30129,0.42382 -0.45339,0.922009 -0.69175,1.379584 -0.36757,0.705606 -0.93699,1.305048 -1.55812,1.814722 -0.29587,0.242816 -0.60552,0.467828 -0.92621,0.673425 0.51311,-0.05079 1.02811,-0.238534 1.4766,-0.538396 0.77016,-0.514921 1.31181,-1.330393 1.66408,-2.174483 0.13982,-0.335066 0.25376,-0.678476 0.40329,-1.0103 0.14314,-0.317668 0.31863,-0.624 0.52223,-0.912012 -0.0874,0.0441 -0.17258,0.09394 -0.2545,0.148979 z"
       id="path1174-8-7" />
    <path
       inkscape:connector-curvature="0"
       style="fill:#000000;stroke:none;stroke-width:0.26458332px;stroke-linecap:butt;stroke-linejoin:miter;stroke-opacity:1"
       d="m 1.59856,-74.999757 c -0.0802,0.06172 -0.15776,0.126778 -0.23328,0.194222 -0.79457,0.708607 -1.30962,1.671869 -1.98727,2.492978 -1.04498,1.266229 -2.46533,2.176254 -3.95727,2.861408 -0.71075,0.32641 -1.44273,0.606522 -2.18982,0.837933 1.08396,0.22283 2.22671,0.15485 3.27667,-0.194712 1.80294,-0.600237 3.25273,-1.988587 4.32155,-3.559716 0.42428,-0.623685 0.79845,-1.28137 1.24151,-1.89189 0.42417,-0.584477 0.91048,-1.124019 1.44802,-1.606289 -0.69637,0.131491 -1.36013,0.431943 -1.9201,0.866091 z m 2.10531,0.721778 c -0.21803,0.168756 -0.41625,0.36478 -0.58552,0.582811 -0.44503,0.573153 -0.68221,1.269793 -1.03976,1.89841 -0.55135,0.96936 -1.38289,1.763731 -2.28407,2.423813 -0.42945,0.31423 -0.8774,0.601975 -1.34002,0.860463 0.72789,-0.01489 1.46469,-0.225622 2.11236,-0.604631 1.11212,-0.650803 1.91428,-1.758362 2.45017,-2.927822 0.21275,-0.464242 0.38978,-0.942888 0.61606,-1.401375 0.21662,-0.438923 0.47818,-0.857886 0.77895,-1.247485 -0.25128,0.106662 -0.48999,0.247307 -0.70818,0.415808 z m 1.86076,1.230225 c -0.24592,0.164989 -0.46378,0.376564 -0.63565,0.618411 -0.30131,0.423825 -0.4534,0.922014 -0.69176,1.37959 -0.36758,0.705605 -0.93699,1.305041 -1.55812,1.814721 -0.29587,0.242811 -0.60553,0.467828 -0.92622,0.673426 0.51312,-0.05079 1.02812,-0.238535 1.47662,-0.538402 0.77014,-0.514916 1.3118,-1.330387 1.66406,-2.174477 0.13983,-0.335067 0.25378,-0.678482 0.4033,-1.010301 0.14314,-0.317668 0.31863,-0.624005 0.52223,-0.912011 -0.0874,0.0441 -0.17258,0.09394 -0.2545,0.148978 z"
       id="path1174-86-3" />
    <path
       inkscape:connector-curvature="0"
       style="fill:#000000;stroke:none;stroke-width:0.26458332px;stroke-linecap:butt;stroke-linejoin:miter;stroke-opacity:1"
       d="m 47.49851,-37.575007 c 0.0617,0.0802 0.12678,0.15776 0.19423,0.23329 0.7086,0.79455 1.67186,1.3096 2.49297,1.98726 1.26623,1.04498 2.17625,2.46533 2.86141,3.95728 0.32641,0.71074 0.60652,1.44272 0.83793,2.18981 0.22283,-1.08396 0.15485,-2.22671 -0.19471,-3.27667 -0.60023,-1.80293 -1.98859,-3.25274 -3.55971,-4.32154 -0.62369,-0.42429 -1.28138,-0.79846 -1.8919,-1.24152 -0.58447,-0.42416 -1.12401,-0.91047 -1.60629,-1.44802 0.13149,0.69637 0.43195,1.36013 0.86609,1.9201 z m 0.72178,-2.10531 c 0.16875,0.21803 0.36478,0.41625 0.58281,0.58553 0.57315,0.44502 1.26979,0.6822 1.89841,1.03974 0.96936,0.55136 1.76373,1.3829 2.42382,2.28408 0.31423,0.42946 0.60197,0.87741 0.86045,1.34002 -0.0149,-0.72789 -0.22561,-1.46468 -0.60462,-2.11235 -0.65081,-1.11212 -1.75836,-1.91428 -2.92783,-2.45018 -0.46424,-0.21275 -0.94288,-0.38977 -1.40138,-0.61606 -0.43891,-0.21662 -0.85788,-0.47817 -1.24748,-0.77895 0.10666,0.25128 0.24731,0.48999 0.41581,0.70818 z m 1.23022,-1.86076 c 0.16499,0.24592 0.37657,0.46378 0.61842,0.63566 0.42382,0.3013 0.92201,0.45339 1.37958,0.69175 0.70561,0.36757 1.30505,0.93699 1.81472,1.55812 0.24282,0.29588 0.46783,0.60553 0.67343,0.92622 -0.0508,-0.51312 -0.23854,-1.02812 -0.5384,-1.47661 -0.51492,-0.77015 -1.33039,-1.31181 -2.17448,-1.66407 -0.33507,-0.13983 -0.67848,-0.25377 -1.0103,-0.4033 -0.31767,-0.14314 -0.624,-0.31863 -0.91201,-0.52223 0.0441,0.0874 0.0939,0.17258 0.14898,0.2545 z"
       id="path1174-8-7-5" />
    <path
       inkscape:connector-curvature="0"
       style="fill:#000000;stroke:none;stroke-width:0.26458332px;stroke-linecap:butt;stroke-linejoin:miter;stroke-opacity:1"
       d="m 23.52661,-55.669325 c 0.0617,0.0802 0.12678,0.15776 0.19423,0.23329 0.7086,0.79455 1.67186,1.3096 2.49297,1.98726 1.26623,1.04498 2.17625,2.46533 2.86141,3.95728 0.32641,0.71074 0.60652,1.44272 0.83793,2.18981 0.22283,-1.08396 0.15485,-2.22671 -0.19471,-3.27667 -0.60023,-1.80293 -1.98859,-3.25274 -3.55971,-4.32154 -0.62369,-0.42429 -1.28138,-0.79846 -1.8919,-1.24152 -0.58447,-0.42416 -1.12401,-0.91047 -1.60629,-1.44802 0.13149,0.69637 0.43195,1.36013 0.86609,1.9201 z m 0.72178,-2.10531 c 0.16875,0.21803 0.36478,0.41625 0.58281,0.58553 0.57315,0.44502 1.26979,0.6822 1.89841,1.03974 0.96936,0.55136 1.76373,1.3829 2.42382,2.28408 0.31423,0.42946 0.60197,0.87741 0.86045,1.34002 -0.0149,-0.72789 -0.22561,-1.46468 -0.60462,-2.11235 -0.65081,-1.11212 -1.75836,-1.91428 -2.92783,-2.45018 -0.46424,-0.21275 -0.94288,-0.38977 -1.40138,-0.61606 -0.43891,-0.21662 -0.85788,-0.47817 -1.24748,-0.77895 0.10666,0.25128 0.24731,0.48999 0.41581,0.70818 z m 1.23022,-1.86076 c 0.16499,0.24592 0.37657,0.46378 0.61842,0.63566 0.42382,0.3013 0.92201,0.45339 1.37958,0.69175 0.70561,0.36757 1.30505,0.93699 1.81472,1.55812 0.24282,0.29588 0.46783,0.60553 0.67343,0.92622 -0.0508,-0.51312 -0.23854,-1.02812 -0.5384,-1.47661 -0.51492,-0.77015 -1.33039,-1.31181 -2.17448,-1.66407 -0.33507,-0.13983 -0.67848,-0.25377 -1.0103,-0.4033 -0.31767,-0.14314 -0.624,-0.31863 -0.91201,-0.52223 0.0441,0.0874 0.0939,0.17258 0.14898,0.2545 z"
       id="path1174-8-7-5-4" />
    <path
       d="m -64.991889,-164.80717 7.53521,101.778101 c 1.07448,30.33178 29.671524,54.498161 64.5069037,54.518229 C 41.863285,-8.54344 70.468583,-32.717369 71.55711,-63.029069 L 79.092772,-164.80717 H 7.0508947 Z"
       id="path1193-8"
       inkscape:connector-curvature="0"
       style="fill:none;fill-rule:evenodd;stroke:#000000;stroke-width:2.9104166;stroke-linecap:round;stroke-linejoin:round;stroke-miterlimit:4;stroke-dasharray:none;stroke-opacity:1" />
    <path
       inkscape:connector-curvature="0"
       style="opacity:1;fill:#ff0000;fill-opacity:1;fill-rule:evenodd;stroke:#000000;stroke-width:1.32291663;stroke-linecap:round;stroke-linejoin:round;stroke-miterlimit:4;stroke-dasharray:none;stroke-opacity:1;paint-order:normal"
       d="m -30.976905,-154.76334 a 6.7756857,6.7756857 0 0 0 -6.77582,6.77581 6.7756857,6.7756857 0 0 0 1.90273,4.69739 h -11.71195 c -1.95117,0 -3.52227,1.57058 -3.52227,3.52175 0,1.95117 1.5711,3.52227 3.52227,3.52227 h 13.19093 v 6.45645 47.175932 c -1.08258,-0.125444 -2.15358,-0.351864 -3.19309,-0.679545 -2.93721,-0.925891 -5.6046,-2.647725 -7.7432,-4.863785 -3.20601,-3.322127 -5.2213,-7.797869 -5.45961,-12.408552 -0.11446,-2.21464 0.17285,-4.45428 0.89348,-6.55153 0.49238,-1.43298 1.19028,-2.79378 2.05724,-4.03645 0.10594,0.322 0.22834,0.63861 0.36845,0.94723 0.48568,1.06969 1.16856,2.04014 1.93064,2.93419 0.77061,0.90407 1.62568,1.7357 2.55074,2.48098 -0.31816,-1.99542 -0.40469,-4.02734 -0.25683,-6.04252 0.19321,-2.63321 0.78673,-5.23238 1.69602,-7.71116 0.3904,-1.06419 0.8385,-2.10698 1.34256,-3.12229 -0.97867,0.57196 -1.98842,1.08996 -3.02359,1.55184 -2.41119,1.07577 -4.96489,1.84403 -7.57887,2.21589 -2.00044,0.28457 -4.0327,0.33673 -6.04511,0.15503 0.80649,0.87217 1.69456,1.66926 2.64894,2.3766 0.94381,0.69951 1.95849,1.31473 3.05873,1.72651 0.20825,0.078 0.41925,0.14738 0.63252,0.21032 -0.71622,0.83177 -1.37533,1.713 -1.96216,2.64067 -2.29349,3.62558 -3.51542,7.9202 -3.47472,12.210105 0.0497,5.235591 1.98617,10.40755 5.26118,14.492656 3.23961,4.040944 7.75513,7.017215 12.7062,8.537464 0.93629,0.287491 1.88903,0.524695 2.80913,0.860411 0.92011,0.335722 1.81527,0.776425 2.55126,1.422654 0.75204,0.660316 1.32018,1.528001 1.6242,2.481501 0.30398,-0.9535 0.87213,-1.821185 1.62418,-2.481501 0.73598,-0.646229 1.63116,-1.086932 2.55127,-1.422654 0.9201,-0.335716 1.87284,-0.57292 2.80913,-0.860411 4.95108,-1.520249 9.466592,-4.49652 12.706201,-8.537464 3.2750094,-4.085106 5.2115264,-9.257065 5.2611784,-14.492656 0.0407,-4.289905 -1.181243,-8.584525 -3.4747257,-12.210105 -0.5868367,-0.92767 -1.2459327,-1.8089 -1.9621517,-2.64067 0.21328,-0.0629 0.424786,-0.13237 0.633037,-0.21032 1.1002377,-0.41178 2.1149164,-1.027 3.0587254,-1.72651 0.954392,-0.70734 1.841929,-1.50443 2.648418,-2.3766 -2.01241,0.1817 -4.044648,0.12954 -6.0451094,-0.15503 -2.61398,-0.37186 -5.167159,-1.14012 -7.578353,-2.21589 -1.03516,-0.46188 -2.04491,-0.97988 -3.02358,-1.55184 0.50407,1.01531 0.95267,2.0581 1.34307,3.12229 0.9093,2.47878 1.50176,5.07795 1.69498,7.71116 0.14786,2.01518 0.0614,4.0471 -0.25683,6.04252 0.92506,-0.74528 1.780659,-1.57691 2.551269,-2.48098 0.762069,-0.89405 1.444453,-1.8645 1.930114,-2.93419 0.140129,-0.30862 0.262512,-0.62523 0.368454,-0.94723 0.866968,1.24267 1.564849,2.60347 2.057238,4.03645 0.72063,2.09725 1.007946,4.33689 0.893485,6.55153 -0.23831,4.610683 -2.253605,9.086425 -5.459614,12.408552 -2.138596,2.21606 -4.805976,3.937894 -7.743196,4.863785 -1.03951,0.327681 -2.11051,0.554101 -3.19309,0.679545 v -47.175932 -6.45645 h 13.190928 c 1.951172,0 3.522265,-1.5711 3.522265,-3.52227 0,-1.95117 -1.571093,-3.52175 -3.522265,-3.52175 h -11.703678 a 6.7756857,6.7756857 0 0 0 1.89446,-4.69739 6.7756857,6.7756857 0 0 0 -6.77581,-6.77581 z m 0,4.40386 a 2.3719906,2.3719906 0 0 1 2.37194,2.37195 2.3719906,2.3719906 0 0 1 -2.37194,2.37195 2.3719906,2.3719906 0 0 1 -2.37195,-2.37195 2.3719906,2.3719906 0 0 1 2.37195,-2.37195 z"
       id="rect1481-0" />
    <g
       id="g2411"
       transform="matrix(0.98221185,0,0,0.98220122,0.97537378,-2.3920112)"
       style="stroke-width:1.01811576">
      <g
         transform="translate(156.14395)"
         id="g2328"
         style="stroke-width:1.01811576">
        <path
           inkscape:connector-curvature="0"
           style="fill:#009900;fill-opacity:1;stroke:#000000;stroke-width:1.34688234;stroke-linecap:round;stroke-linejoin:round;stroke-miterlimit:4;stroke-dasharray:none;stroke-opacity:1"
           d="m -111.09899,-95.761257 c -0.64189,0.430009 -1.17767,1.016524 -1.54823,1.694468 -0.55857,1.021935 -0.72882,2.204834 -0.87695,3.360002 -0.21724,1.694212 -0.40344,3.448024 0.0879,5.083929 0.39473,1.314365 1.22879,2.492597 2.33733,3.301606 1.10854,-0.809009 1.9426,-1.987241 2.33732,-3.301606 0.49129,-1.635905 0.3051,-3.389717 0.0878,-5.083929 -0.14812,-1.155168 -0.31785,-2.338067 -0.87643,-3.360002 -0.37056,-0.677944 -0.90686,-1.264459 -1.54874,-1.694468 z"
           id="path2014" />
        <path
           style="fill:#009900;fill-opacity:1;stroke:#000000;stroke-width:0.80812943;stroke-linecap:round;stroke-linejoin:miter;stroke-miterlimit:4;stroke-dasharray:none;stroke-opacity:1"
           d="M -111.09899,-82.321252 V -95.761257"
           id="path2037"
           inkscape:connector-curvature="0" />
        <path
           inkscape:connector-curvature="0"
           style="fill:#009900;fill-opacity:1;stroke:#000000;stroke-width:1.34688234;stroke-linecap:round;stroke-linejoin:round;stroke-miterlimit:4;stroke-dasharray:none;stroke-opacity:1"
           d="m -124.99499,-105.85751 c -0.60731,-0.47761 -1.33067,-0.80594 -2.08994,-0.94888 -1.14453,-0.21546 -2.32214,-0.0119 -3.46655,0.20421 -1.67843,0.3169 -3.40395,0.68174 -4.80797,1.65453 -1.12808,0.78155 -1.99092,1.93886 -2.4178,3.24314 1.11195,0.8043 2.49025,1.23347 3.86226,1.20274 1.70766,-0.0383 3.31811,-0.75725 4.86226,-1.48743 1.05287,-0.49782 2.12544,-1.02476 2.92476,-1.87178 0.53026,-0.56191 0.92236,-1.25319 1.13298,-1.99653 z"
           id="path2014-4" />
        <path
           style="fill:#009900;fill-opacity:1;stroke:#000000;stroke-width:0.80812943;stroke-linecap:round;stroke-linejoin:miter;stroke-miterlimit:4;stroke-dasharray:none;stroke-opacity:1"
           d="m -137.77727,-101.70456 12.78228,-4.15295"
           id="path2037-9"
           inkscape:connector-curvature="0" />
        <path
           inkscape:connector-curvature="0"
           style="fill:#009900;fill-opacity:1;stroke:#000000;stroke-width:1.34688234;stroke-linecap:round;stroke-linejoin:round;stroke-miterlimit:4;stroke-dasharray:none;stroke-opacity:1"
           d="m -97.202941,-105.85751 c 0.607309,-0.47761 1.330677,-0.80594 2.089947,-0.94888 1.144521,-0.21546 2.322139,-0.0119 3.466548,0.20421 1.678428,0.3169 3.403948,0.68174 4.807971,1.65453 1.128072,0.78155 1.99092,1.93886 2.417799,3.24314 -1.111956,0.8043 -2.490252,1.23347 -3.862263,1.20274 -1.707656,-0.0383 -3.318107,-0.75725 -4.862263,-1.48743 -1.052867,-0.49782 -2.125432,-1.02476 -2.924754,-1.87178 -0.530264,-0.56191 -0.92236,-1.25319 -1.132985,-1.99653 z"
           id="path2014-4-2" />
        <path
           style="fill:#009900;fill-opacity:1;stroke:#000000;stroke-width:0.80812943;stroke-linecap:round;stroke-linejoin:miter;stroke-miterlimit:4;stroke-dasharray:none;stroke-opacity:1"
           d="m -84.42066,-101.70456 -12.782281,-4.15295"
           id="path2037-9-0"
           inkscape:connector-curvature="0" />
        <path
           inkscape:connector-curvature="0"
           style="fill:#009900;fill-opacity:1;stroke:#000000;stroke-width:1.34688234;stroke-linecap:round;stroke-linejoin:round;stroke-miterlimit:4;stroke-dasharray:none;stroke-opacity:1"
           d="m -119.68626,-122.19351 c 0.2666,-0.72516 0.35536,-1.51458 0.25672,-2.28086 -0.1487,-1.15509 -0.70618,-2.21219 -1.26526,-3.23385 -0.81997,-1.49839 -1.70009,-3.02677 -3.05908,-4.06154 -1.09184,-0.8314 -2.45913,-1.29446 -3.83148,-1.29748 -0.4214,1.30606 -0.40372,2.74951 0.0494,4.0449 0.56399,1.61229 1.74539,2.9218 2.91693,4.1648 0.79876,0.84755 1.63131,1.70483 2.68385,2.20334 0.69825,0.33071 1.47686,0.49004 2.24891,0.46069 z"
           id="path2014-41" />
        <path
           style="fill:#009900;fill-opacity:1;stroke:#000000;stroke-width:0.80812943;stroke-linecap:round;stroke-linejoin:miter;stroke-miterlimit:4;stroke-dasharray:none;stroke-opacity:1"
           d="m -127.58532,-133.06727 7.89906,10.87376"
           id="path2037-5"
           inkscape:connector-curvature="0" />
        <path
           inkscape:connector-curvature="0"
           style="fill:#009900;fill-opacity:1;stroke:#000000;stroke-width:1.34688234;stroke-linecap:round;stroke-linejoin:round;stroke-miterlimit:4;stroke-dasharray:none;stroke-opacity:1"
           d="m -102.51168,-122.19351 c -0.2666,-0.72516 -0.35537,-1.51458 -0.25672,-2.28086 0.1487,-1.15509 0.70618,-2.21219 1.26526,-3.23385 0.81997,-1.49839 1.700086,-3.02677 3.059075,-4.06154 1.091848,-0.8314 2.459131,-1.29446 3.831482,-1.29748 0.421398,1.30606 0.403723,2.74952 -0.04941,4.0449 -0.563983,1.61229 -1.745385,2.9218 -2.916928,4.1648 -0.798762,0.84755 -1.631305,1.70483 -2.683849,2.20334 -0.69825,0.33071 -1.47686,0.49004 -2.24891,0.46069 z"
           id="path2014-41-1" />
        <path
           style="fill:#009900;fill-opacity:1;stroke:#000000;stroke-width:0.80812943;stroke-linecap:round;stroke-linejoin:miter;stroke-miterlimit:4;stroke-dasharray:none;stroke-opacity:1"
           d="m -94.612623,-133.06727 -7.899057,10.87376"
           id="path2037-5-9"
           inkscape:connector-curvature="0" />
      </g>
      <path
         id="path1629-9"
         d="m 50.395899,-134.38836 c -0.438589,0.0179 -0.873741,0.1104 -1.275892,0.28526 -0.736949,0.32037 -1.333894,0.89998 -2.056204,1.25212 -0.622242,0.30335 -1.330417,0.42871 -2.018998,0.3576 -0.688592,0.0711 -1.396241,-0.0542 -2.018483,-0.3576 -0.72231,-0.35214 -1.319255,-0.93175 -2.056204,-1.25212 -0.40214,-0.17483 -0.837798,-0.26672 -1.276408,-0.28474 -0.146211,-0.006 -0.292407,-0.004 -0.438216,0.006 -0.58325,0.0409 -1.154933,0.20659 -1.683102,0.45734 -1.482019,0.70358 -2.590207,2.06101 -3.218408,3.57652 -0.582429,1.4051 -0.778118,2.96589 -0.573092,4.4726 -1.369521,-0.66044 -2.914055,-0.95691 -4.430221,-0.83716 -1.635458,0.12916 -3.269022,0.76335 -4.396113,1.95544 -0.401679,0.42485 -0.735901,0.91726 -0.954981,1.45934 -0.05479,0.13552 -0.102093,0.27406 -0.141592,0.41496 -0.11861,0.42271 -0.165508,0.86576 -0.123508,1.30225 0.07698,0.79988 0.443812,1.54672 0.555522,2.34249 0.09623,0.68553 -0.0033,1.39694 -0.283705,2.02985 -0.14514,0.67686 -0.482994,1.31166 -0.963766,1.80971 -0.558098,0.57816 -1.293823,0.96701 -1.826244,1.5689 -0.387379,0.43792 -0.653423,0.97727 -0.794782,1.5446 -0.1413,0.56733 -0.160567,1.16221 -0.08527,1.74202 0.211201,1.62689 1.159867,3.10039 2.407089,4.16615 1.156394,0.98812 2.580905,1.65645 4.077269,1.92701 -1.051435,1.09855 -1.810663,2.47668 -2.165241,3.95584 -0.382432,1.595353 -0.283774,3.344471 0.501777,4.784717 0.279971,0.513291 0.645086,0.983771 1.092956,1.359609 0.111972,0.09396 0.229063,0.181446 0.350883,0.262514 0.36545,0.2432 0.771819,0.424966 1.199928,0.519867 0.784529,0.173908 1.607976,0.05572 2.399336,0.195336 0.681721,0.120269 1.327979,0.434354 1.8433,0.896586 0.598908,0.347152 1.098018,0.865264 1.423167,1.476396 0.377441,0.709414 0.52016,1.528731 0.928111,2.221053 0.296817,0.503729 0.727278,0.923787 1.223179,1.233516 0.495901,0.30973 1.056209,0.511541 1.630908,0.619083 1.612561,0.301763 3.306717,-0.145574 4.705656,-1.002522 1.295911,-0.793835 2.371138,-1.940311 3.090768,-3.278354 0.719629,1.337945 1.793896,2.484564 3.089735,3.278354 1.398939,0.856948 3.093612,1.304285 4.70617,1.002522 0.574702,-0.107542 1.134494,-0.309353 1.630392,-0.619083 0.4959,-0.309729 0.92688,-0.729787 1.223698,-1.233516 0.40795,-0.692322 0.550148,-1.511639 0.927592,-2.221053 0.325154,-0.611132 0.824262,-1.129244 1.42317,-1.476396 0.515316,-0.462232 1.161579,-0.776317 1.843299,-0.896586 0.791356,-0.139612 1.615321,-0.02143 2.399853,-0.195336 0.427971,-0.09487 0.834049,-0.276791 1.199409,-0.519867 0,0 5.29e-4,0 5.29e-4,0 0.121695,-0.08101 0.238504,-0.168645 0.350367,-0.262514 0.447876,-0.375838 0.812993,-0.846318 1.092956,-1.359609 0.785554,-1.440246 0.884209,-3.189364 0.501777,-4.784717 -0.354576,-1.47916 -1.113811,-2.85729 -2.165241,-3.95584 1.496528,-0.27051 2.920762,-0.93878 4.077271,-1.92701 1.247228,-1.06575 2.195889,-2.53926 2.407087,-4.16615 0.07527,-0.57981 0.05611,-1.17469 -0.08526,-1.74202 -0.141369,-0.56733 -0.406884,-1.10668 -0.794268,-1.5446 -0.532416,-0.60189 -1.268145,-0.99075 -1.826244,-1.5689 -0.480777,-0.49806 -0.819145,-1.13284 -0.964282,-1.80971 -0.280411,-0.63291 -0.379934,-1.34432 -0.283705,-2.02985 0.11171,-0.79577 0.478544,-1.54261 0.555522,-2.34249 0.04201,-0.43649 -0.0051,-0.87953 -0.123505,-1.30225 -0.03946,-0.14091 -0.08631,-0.27944 -0.141078,-0.41496 -0.219078,-0.54208 -0.553295,-1.03449 -0.95498,-1.45934 -1.12709,-1.19208 -2.760654,-1.82628 -4.396113,-1.95544 -1.51594,-0.11972 -3.060856,0.17641 -4.43022,0.83664 0.204915,-1.50655 0.0093,-3.06714 -0.573093,-4.47208 -0.6282,-1.51551 -1.736389,-2.87294 -3.218407,-3.57652 -0.52818,-0.25075 -1.099863,-0.41649 -1.683102,-0.45734 -0.145812,-0.0102 -0.292537,-0.0127 -0.438732,-0.007 z m -5.351094,18.0635 1.192691,1.64745 -0.694015,0.79891 1.659848,0.53589 1.022678,1.41283 0.545184,-0.90692 1.934766,0.62477 -1.198375,1.64331 -0.973585,-0.4129 0.0031,1.74357 -1.027845,1.40973 1.030946,0.23823 0.0036,2.03346 -1.932699,-0.632 0.09199,-1.0542 -1.657782,0.54209 -1.658297,-0.54209 0.09199,1.0542 -1.932699,0.632 0.0036,-2.03346 1.030946,-0.23823 -1.027845,-1.40922 0.0031,-1.74408 -0.973584,0.4129 -1.198894,-1.64331 1.935285,-0.62477 0.545184,0.90692 1.022678,-1.41283 1.659848,-0.53589 -0.694015,-0.79891 z"
         style="fill:#ff0000;fill-opacity:1;stroke:#000000;stroke-width:1.34688234;stroke-linecap:round;stroke-linejoin:round;stroke-miterlimit:4;stroke-dasharray:none;stroke-opacity:1"
         inkscape:connector-curvature="0" />
      <path
         id="path1652-0"
         d="m 39.84719,-130.62993 c -0.115221,5.3e-4 -0.230191,0.005 -0.3452,0.0139 -0.941451,0.0716 -1.888363,0.44611 -2.503723,1.16221 -0.35211,0.40976 -0.584925,0.92069 -0.663524,1.45521 -0.0786,0.53451 -0.003,1.09113 0.216524,1.58491 0.0935,-0.5722 0.30815,-1.12469 0.6258,-1.60972 0.259541,-0.39629 0.590138,-0.74986 0.987537,-1.00769 0.397401,-0.25783 0.863716,-0.41702 1.337386,-0.42271 0.648121,-0.008 1.265217,0.2654 1.833997,0.57619 0.56879,0.31079 1.121232,0.66781 1.742011,0.85421 0.63695,0.19126 1.303637,0.29972 1.966807,0.29972 0.663339,3e-5 1.33037,-0.10847 1.967322,-0.29972 0.620779,-0.1864 1.173232,-0.54342 1.742012,-0.85421 0.56879,-0.31079 1.185886,-0.58398 1.833996,-0.57619 0.473681,0.006 0.939985,0.16488 1.337387,0.42271 0.397399,0.25783 0.728006,0.6114 0.987536,1.00769 0.317659,0.48503 0.532313,1.03752 0.6258,1.60972 0.219232,-0.49378 0.295135,-1.0504 0.216525,-1.58491 -0.0786,-0.53452 -0.311415,-1.04545 -0.663525,-1.45521 -0.61536,-0.7161 -1.562272,-1.09057 -2.503723,-1.16221 -0.920049,-0.07 -1.854536,0.12813 -2.682007,0.53641 -0.563488,0.27801 -1.088403,0.65473 -1.698604,0.8046 -0.37991,0.0933 -0.76948,0.19949 -1.162719,0.19947 -0.393071,-1e-5 -0.782294,-0.10616 -1.162204,-0.19947 -0.6102,-0.14987 -1.135123,-0.52659 -1.698604,-0.8046 -0.72404,-0.35724 -1.530217,-0.55374 -2.336807,-0.55036 z m -9.277472,6.48798 c -0.404977,-0.0105 -0.812091,0.0645 -1.185974,0.22066 -0.871199,0.36396 -1.519944,1.14883 -1.878954,2.02209 -0.04398,0.10663 -0.08379,0.2146 -0.119891,0.32401 -0.252449,0.76608 -0.314984,1.59362 -0.198953,2.39262 0.09029,0.62181 0.286295,1.23732 0.240294,1.86397 -0.02865,0.39015 -0.04753,0.79302 -0.168981,1.16686 -0.121489,0.374 -0.343199,0.71189 -0.54932,1.04438 -0.331089,0.53403 -0.851323,0.91684 -1.289844,1.36684 -0.64399,0.66082 -1.121217,1.48821 -1.338937,2.38486 -0.22279,0.91752 -0.159147,1.93388 0.331764,2.74041 0.2809,0.46149 0.694668,0.84062 1.17874,1.08055 0.48406,0.23991 1.037219,0.3396 1.57458,0.28371 -0.51531,-0.26572 -0.974773,-0.64045 -1.337903,-1.09244 -0.296701,-0.36928 -0.53077,-0.79296 -0.65319,-1.25057 -0.122441,-0.45762 -0.129291,-0.95014 0.01138,-1.4025 0.19286,-0.6188 0.643329,-1.1214 1.114661,-1.56632 0.471339,-0.44491 0.98172,-0.85987 1.350822,-1.39268 0.378709,-0.54668 0.688009,-1.14782 0.892969,-1.7787 0.204909,-0.63072 0.307559,-1.2983 0.322461,-1.96319 0.01455,-0.648 -0.154067,-1.2833 -0.273886,-1.92029 -0.119851,-0.63698 -0.189275,-1.30844 0.0186,-1.92236 0.15177,-0.44874 0.446929,-0.84326 0.814938,-1.14154 0.368011,-0.29828 0.806389,-0.50348 1.263488,-0.62787 0.559451,-0.1523 1.151364,-0.18556 1.724443,-0.0977 -0.40178,-0.36136 -0.907581,-0.60517 -1.440222,-0.69557 -0.133162,-0.0226 -0.268084,-0.0358 -0.403077,-0.0393 z m 28.950171,0 c -0.134993,0.003 -0.269396,0.0167 -0.402558,0.0393 -0.532641,0.0904 -1.038955,0.33421 -1.440738,0.69557 0.573087,-0.0879 1.164992,-0.0546 1.72444,0.0977 0.457094,0.12438 0.89548,0.32959 1.263489,0.62787 0.368008,0.29828 0.663678,0.6928 0.815456,1.14154 0.207878,0.61392 0.138425,1.28538 0.0186,1.92236 -0.119824,0.63699 -0.28843,1.2723 -0.273886,1.92029 0.01492,0.66489 0.117552,1.33247 0.322461,1.96319 0.204954,0.63089 0.51426,1.23202 0.892969,1.7787 0.369101,0.53281 0.879488,0.94777 1.350822,1.39268 0.471339,0.44492 0.921803,0.94752 1.114661,1.56632 0.14066,0.45235 0.13327,0.94488 0.01085,1.4025 -0.122414,0.45762 -0.356489,0.88129 -0.65319,1.25057 -0.363135,0.45199 -0.822076,0.82672 -1.337386,1.09244 0.537358,0.0559 1.090004,-0.0438 1.574064,-0.28371 0.484074,-0.23992 0.898353,-0.61906 1.179256,-1.08055 0.49091,-0.80652 0.554548,-1.82289 0.331764,-2.74041 -0.217723,-0.89664 -0.694947,-1.72404 -1.338938,-2.38486 -0.438523,-0.45 -0.95927,-0.83281 -1.290359,-1.36684 -0.206127,-0.33248 -0.427313,-0.67038 -0.548804,-1.04438 -0.121449,-0.37384 -0.140851,-0.77671 -0.1695,-1.16686 -0.04602,-0.62665 0.150008,-1.24216 0.240297,-1.86397 0.116028,-0.799 0.05401,-1.62654 -0.198438,-2.39262 -0.03611,-0.10941 -0.07588,-0.21738 -0.11989,-0.32401 -0.359005,-0.87325 -1.007753,-1.65813 -1.878955,-2.02209 -0.373882,-0.1562 -0.781513,-0.23117 -1.186492,-0.22066 z m -30.774865,21.75629 c -0.467799,0.27049 -0.855842,0.67632 -1.106392,1.15497 -0.25051,0.47865 -0.362426,1.02888 -0.318328,1.567347 0.077,0.941031 0.622935,1.800506 1.342554,2.411738 0.08772,0.07471 0.178001,0.146381 0.270785,0.214458 h 5.29e-4 c 0.650529,0.476639 1.418209,0.791636 2.213819,0.928108 0.619289,0.106239 1.265145,0.1099 1.846916,0.347266 0.362209,0.147786 0.739786,0.290412 1.057818,0.521417 0.318169,0.231095 0.570663,0.546145 0.823203,0.84491 0.405612,0.479877 0.609245,1.093412 0.901756,1.64951 0.429529,0.816642 1.069146,1.526122 1.854665,2.010215 0.803802,0.49535 1.79015,0.748434 2.708878,0.530717 0.525701,-0.124585 1.013908,-0.400765 1.391648,-0.787033 0.37774,-0.386254 0.643713,-0.881387 0.756542,-1.409734 -0.41193,0.408003 -0.910553,0.729099 -1.452624,0.934829 -0.442888,0.168095 -0.91807,0.259569 -1.391129,0.234608 -0.473051,-0.02495 -0.943382,-0.170365 -1.330153,-0.443899 -0.528939,-0.3746 -0.868124,-0.958355 -1.145664,-1.544093 -0.277521,-0.585729 -0.514223,-1.198972 -0.906923,-1.714624 -0.402929,-0.529077 -0.879234,-1.009041 -1.415933,-1.398879 -0.53656,-0.389747 -1.139595,-0.694039 -1.767335,-0.91364 -0.611809,-0.214032 -1.268661,-0.249957 -1.911512,-0.332796 -0.642829,-0.08283 -1.30244,-0.223951 -1.822111,-0.611333 -0.379889,-0.282985 -0.663548,-0.685937 -0.833541,-1.128096 -0.16996,-0.442158 -0.230121,-0.922626 -0.207221,-1.395786 0.02806,-0.57911 0.179125,-1.15228 0.439766,-1.67018 z m 32.599561,0 c 0.260641,0.5179 0.411708,1.09107 0.439767,1.67018 0.02291,0.47316 -0.03671,0.953625 -0.206706,1.395786 -0.169995,0.442159 -0.453654,0.845111 -0.83354,1.128096 -0.519674,0.387382 -1.179791,0.528503 -1.82263,0.611333 -0.642845,0.08284 -1.299708,0.118764 -1.911512,0.332796 -0.62774,0.219601 -1.230783,0.523893 -1.767332,0.91364 -0.536702,0.389838 -1.012478,0.869802 -1.415417,1.398879 -0.3927,0.515652 -0.62992,1.128895 -0.907439,1.714624 -0.27754,0.585738 -0.61621,1.169493 -1.145149,1.544093 -0.386762,0.273534 -0.85762,0.418944 -1.330669,0.443899 -0.473061,0.02495 -0.94824,-0.06651 -1.391128,-0.234608 -0.542063,-0.20573 -1.040178,-0.526826 -1.452111,-0.934829 0.112832,0.528347 0.378288,1.02348 0.756029,1.409734 0.377737,0.386268 0.866463,0.662448 1.392161,0.787033 0.918731,0.217717 1.905079,-0.03537 2.70888,-0.530717 0.785519,-0.484093 1.425147,-1.193573 1.854666,-2.010215 0.292521,-0.556101 0.495628,-1.169633 0.901237,-1.64951 0.25254,-0.298765 0.505037,-0.613815 0.823206,-0.84491 0.318032,-0.231005 0.695603,-0.373631 1.057818,-0.521417 0.581773,-0.237366 1.227629,-0.241027 1.846916,-0.347266 0.795752,-0.136495 1.563735,-0.451328 2.214335,-0.928108 0.09291,-0.06815 0.18348,-0.139663 0.271301,-0.214458 0.719616,-0.611232 1.265547,-1.470707 1.342554,-2.411738 0.04406,-0.538467 -0.06777,-1.088697 -0.318328,-1.567347 -0.250545,-0.47865 -0.639101,-0.88449 -1.106909,-1.15497 z"
         style="fill:#000000;stroke:#000000;stroke-width:0.26937646px;stroke-linecap:butt;stroke-linejoin:miter;stroke-opacity:1"
         inkscape:connector-curvature="0" />
      <path
         inkscape:connector-curvature="0"
         id="path1630-62"
         d="m 26.819064,-104.45125 19.284659,-5.82277"
         style="fill:none;stroke:#000000;stroke-width:1.34688234;stroke-linecap:round;stroke-linejoin:round;stroke-miterlimit:4;stroke-dasharray:none;stroke-opacity:1" />
      <path
         inkscape:connector-curvature="0"
         id="path1630-6-9"
         d="m 63.270596,-104.4513 -18.633392,-5.59668"
         style="fill:none;stroke:#000000;stroke-width:1.34688234;stroke-linecap:round;stroke-linejoin:round;stroke-miterlimit:4;stroke-dasharray:none;stroke-opacity:1" />
      <path
         inkscape:connector-curvature="0"
         id="path1647-1"
         d="m 33.781423,-125.8757 11.939321,16.67628"
         style="fill:none;stroke:#000000;stroke-width:1.34688234;stroke-linecap:round;stroke-linejoin:miter;stroke-miterlimit:4;stroke-dasharray:none;stroke-opacity:1" />
      <path
         inkscape:connector-curvature="0"
         id="path1647-0-5"
         d="m 56.308197,-125.87569 -12.188333,17.01413"
         style="fill:none;stroke:#000000;stroke-width:1.34688234;stroke-linecap:round;stroke-linejoin:miter;stroke-miterlimit:4;stroke-dasharray:none;stroke-opacity:1" />
      <path
         inkscape:connector-curvature="0"
         id="path1664-6"
         d="m 45.045323,-91.20356 -5.29e-4,-20.00394"
         style="fill:none;stroke:#000000;stroke-width:1.34688234;stroke-linecap:round;stroke-linejoin:round;stroke-miterlimit:4;stroke-dasharray:none;stroke-opacity:1" />
      <circle
         r="5.9524908"
         cy="-110.37231"
         cx="45.044956"
         id="path1627-7"
         style="opacity:1;fill:#ffd700;fill-opacity:1;fill-rule:evenodd;stroke:#000000;stroke-width:1.34688234;stroke-linecap:round;stroke-linejoin:round;stroke-miterlimit:4;stroke-dasharray:none;stroke-opacity:1;paint-order:normal" />
      <circle
         r="0.3276709"
         cy="-109.37087"
         cx="46.690041"
         id="path1766-466"
         style="opacity:1;fill:#23262d;fill-opacity:1;fill-rule:evenodd;stroke:#000000;stroke-width:0.80812943;stroke-linecap:round;stroke-linejoin:round;stroke-miterlimit:4;stroke-dasharray:none;stroke-opacity:1;paint-order:normal" />
      <circle
         r="0.3276709"
         cy="-106.91335"
         cx="44.724037"
         id="path1766-8-8"
         style="opacity:1;fill:#23262d;fill-opacity:1;fill-rule:evenodd;stroke:#000000;stroke-width:0.80812943;stroke-linecap:round;stroke-linejoin:round;stroke-miterlimit:4;stroke-dasharray:none;stroke-opacity:1;paint-order:normal" />
      <circle
         r="0.3276709"
         cy="-107.32293"
         cx="46.935791"
         id="path1766-4-4"
         style="opacity:1;fill:#23262d;fill-opacity:1;fill-rule:evenodd;stroke:#000000;stroke-width:0.80812943;stroke-linecap:round;stroke-linejoin:round;stroke-miterlimit:4;stroke-dasharray:none;stroke-opacity:1;paint-order:normal" />
      <circle
         r="0.3276709"
         cy="-106.80523"
         cx="41.358932"
         id="path1766-7-9"
         style="opacity:1;fill:#23262d;fill-opacity:1;fill-rule:evenodd;stroke:#000000;stroke-width:0.80812943;stroke-linecap:round;stroke-linejoin:round;stroke-miterlimit:4;stroke-dasharray:none;stroke-opacity:1;paint-order:normal" />
      <circle
         r="0.3276709"
         cy="-114.66933"
         cx="45.127151"
         id="path1766-5-3"
         style="opacity:1;fill:#23262d;fill-opacity:1;fill-rule:evenodd;stroke:#000000;stroke-width:0.80812943;stroke-linecap:round;stroke-linejoin:round;stroke-miterlimit:4;stroke-dasharray:none;stroke-opacity:1;paint-order:normal" />
      <circle
         r="0.3276709"
         cy="-112.70332"
         cx="47.830437"
         id="path1766-49-7"
         style="opacity:1;fill:#23262d;fill-opacity:1;fill-rule:evenodd;stroke:#000000;stroke-width:0.80812943;stroke-linecap:round;stroke-linejoin:round;stroke-miterlimit:4;stroke-dasharray:none;stroke-opacity:1;paint-order:normal" />
      <circle
         r="0.3276709"
         cy="-110.49154"
         cx="49.550705"
         id="path1766-1-5"
         style="opacity:1;fill:#23262d;fill-opacity:1;fill-rule:evenodd;stroke:#000000;stroke-width:0.80812943;stroke-linecap:round;stroke-linejoin:round;stroke-miterlimit:4;stroke-dasharray:none;stroke-opacity:1;paint-order:normal" />
      <circle
         r="0.3276709"
         cy="-111.50074"
         cx="46.526215"
         id="path1766-9-2"
         style="opacity:1;fill:#23262d;fill-opacity:1;fill-rule:evenodd;stroke:#000000;stroke-width:0.80812943;stroke-linecap:round;stroke-linejoin:round;stroke-miterlimit:4;stroke-dasharray:none;stroke-opacity:1;paint-order:normal" />
      <circle
         r="0.3276709"
         cy="-108.4436"
         cx="48.731537"
         id="path1766-6-6"
         style="opacity:1;fill:#23262d;fill-opacity:1;fill-rule:evenodd;stroke:#000000;stroke-width:0.80812943;stroke-linecap:round;stroke-linejoin:round;stroke-miterlimit:4;stroke-dasharray:none;stroke-opacity:1;paint-order:normal" />
      <circle
         r="0.3276709"
         cy="-105.90414"
         cx="43.488792"
         id="path1766-46-8"
         style="opacity:1;fill:#23262d;fill-opacity:1;fill-rule:evenodd;stroke:#000000;stroke-width:0.80812943;stroke-linecap:round;stroke-linejoin:round;stroke-miterlimit:4;stroke-dasharray:none;stroke-opacity:1;paint-order:normal" />
      <circle
         r="0.3276709"
         cy="-114.17783"
         cx="47.011253"
         id="path1766-0-9"
         style="opacity:1;fill:#23262d;fill-opacity:1;fill-rule:evenodd;stroke:#000000;stroke-width:0.80812943;stroke-linecap:round;stroke-linejoin:round;stroke-miterlimit:4;stroke-dasharray:none;stroke-opacity:1;paint-order:normal" />
      <circle
         r="0.3276709"
         cy="-105.57647"
         cx="46.028244"
         id="path1766-09-4"
         style="opacity:1;fill:#23262d;fill-opacity:1;fill-rule:evenodd;stroke:#000000;stroke-width:0.80812943;stroke-linecap:round;stroke-linejoin:round;stroke-miterlimit:4;stroke-dasharray:none;stroke-opacity:1;paint-order:normal" />
      <circle
         r="0.3276709"
         cy="-108.9351"
         cx="49.878387"
         id="path1766-99-9"
         style="opacity:1;fill:#23262d;fill-opacity:1;fill-rule:evenodd;stroke:#000000;stroke-width:0.80812943;stroke-linecap:round;stroke-linejoin:round;stroke-miterlimit:4;stroke-dasharray:none;stroke-opacity:1;paint-order:normal" />
      <circle
         r="0.3276709"
         cy="-112.2118"
         cx="49.468781"
         id="path1766-2-7"
         style="opacity:1;fill:#23262d;fill-opacity:1;fill-rule:evenodd;stroke:#000000;stroke-width:0.80812943;stroke-linecap:round;stroke-linejoin:round;stroke-miterlimit:4;stroke-dasharray:none;stroke-opacity:1;paint-order:normal" />
      <circle
         r="0.3276709"
         cy="-106.80523"
         cx="48.321938"
         id="path1766-08-8"
         style="opacity:1;fill:#23262d;fill-opacity:1;fill-rule:evenodd;stroke:#000000;stroke-width:0.80812943;stroke-linecap:round;stroke-linejoin:round;stroke-miterlimit:4;stroke-dasharray:none;stroke-opacity:1;paint-order:normal" />
      <circle
         r="0.3276709"
         cy="-108.52707"
         cx="45.29195"
         id="path1766-466-4"
         style="opacity:1;fill:#23262d;fill-opacity:1;fill-rule:evenodd;stroke:#000000;stroke-width:0.80812943;stroke-linecap:round;stroke-linejoin:round;stroke-miterlimit:4;stroke-dasharray:none;stroke-opacity:1;paint-order:normal" />
      <circle
         r="0.3276709"
         cy="-110.43858"
         cx="47.956482"
         id="path1766-466-1"
         style="opacity:1;fill:#23262d;fill-opacity:1;fill-rule:evenodd;stroke:#000000;stroke-width:0.80812943;stroke-linecap:round;stroke-linejoin:round;stroke-miterlimit:4;stroke-dasharray:none;stroke-opacity:1;paint-order:normal" />
      <circle
         r="0.3276709"
         cy="-113.98864"
         cx="48.743607"
         id="path1766-466-16"
         style="opacity:1;fill:#23262d;fill-opacity:1;fill-rule:evenodd;stroke:#000000;stroke-width:0.80812943;stroke-linecap:round;stroke-linejoin:round;stroke-miterlimit:4;stroke-dasharray:none;stroke-opacity:1;paint-order:normal" />
    </g>
    <g
       id="g2047">
      <g
         transform="translate(1.0450465)"
         id="g2041" />
    </g>
  </g>
</svg>
