<?xml version="1.0" encoding="utf-8"?>
<!-- Generator: Adobe Illustrator 13.0.0, SVG Export Plug-In . SVG Version: 6.00 Build 14948)  -->
<!DOCTYPE svg PUBLIC "-//W3C//DTD SVG 1.1//EN" "http://www.w3.org/Graphics/SVG/1.1/DTD/svg11.dtd">
<svg version="1.1" id="Wappen_Borgstedt" xmlns="http://www.w3.org/2000/svg" xmlns:xlink="http://www.w3.org/1999/xlink" x="0px"
	 y="0px" width="1793.5px" height="2030.333px" viewBox="-281.619 579.25 1793.5 2030.333"
	 enable-background="new -281.619 579.25 1793.5 2030.333" xml:space="preserve">
<path id="Schild" fill="#078930" stroke="#000000" stroke-width="27" d="M1499.75,1752.213
	c5.994,417.45-317.642,843.919-892.9,843.919c-584.577,0-872.28-534.587-874.268-846.769c-1.842-289.102,0-1156.423,0-1156.423
	H1499.75C1499.75,592.94,1495.589,1462.425,1499.75,1752.213z"/>
<g id="Rad">
	<path fill="#FCDD09" stroke="#000000" stroke-width="2" stroke-linejoin="round" d="M1340.774,1998.841
		c0,165.762-134.383,300.148-300.142,300.148c-165.763,0-300.142-134.387-300.142-300.148c0-165.76,134.379-300.142,300.142-300.142
		C1206.391,1698.7,1340.774,1833.082,1340.774,1998.841z"/>
	<path fill="#078930" stroke="#000000" stroke-width="2" stroke-linejoin="round" d="M1274.675,1999.336
		c0,129.257-104.786,234.047-234.04,234.047c-129.257,0-234.04-104.79-234.04-234.047c0-129.254,104.783-234.04,234.04-234.04
		C1169.889,1765.296,1274.675,1870.083,1274.675,1999.336z"/>
	<path fill="#FCDD09" stroke="#000000" stroke-width="2" stroke-linejoin="round" d="M1092.459,1973.25h181
		c2.333,16.452,1.4,38.567,0,53h-181V1973.25z"/>
	<path fill="#FCDD09" stroke="#000000" stroke-width="2" stroke-linejoin="round" d="M988.881,2026.25h-181
		c-2.333-16.452-1.4-38.567,0-53h181V2026.25z"/>
	<path fill="#FCDD09" stroke="#000000" stroke-width="2" stroke-linejoin="round" d="M1066.17,2050.539v181
		c-16.452,2.333-38.567,1.4-53,0v-181H1066.17z"/>
	<path fill="#FCDD09" stroke="#000000" stroke-width="2" stroke-linejoin="round" d="M1013.17,1947.96v-181
		c16.452-2.333,38.567-1.4,53,0v181H1013.17z"/>
	<path fill="#FCDD09" stroke="#000000" stroke-width="2" stroke-linejoin="round" d="M1058.906,1944.245l127.986-127.986
		c13.283,9.984,28.262,26.281,37.477,37.477l-127.986,127.986L1058.906,1944.245z"/>
	<path fill="#FCDD09" stroke="#000000" stroke-width="2" stroke-linejoin="round" d="M1023.143,2054.962l-127.986,127.986
		c-13.283-9.983-28.262-26.281-37.478-37.477l127.986-127.986L1023.143,2054.962z"/>
	<path fill="#FCDD09" stroke="#000000" stroke-width="2" stroke-linejoin="round" d="M1094.968,2017.485l127.986,127.986
		c-9.983,13.283-26.281,28.262-37.477,37.477l-127.986-127.986L1094.968,2017.485z"/>
	<path fill="#FCDD09" stroke="#000000" stroke-width="2" stroke-linejoin="round" d="M984.958,1982.428l-127.986-127.986
		c9.983-13.283,26.28-28.262,37.477-37.477l127.986,127.986L984.958,1982.428z"/>
	<circle fill="#FCDD09" stroke="#000000" stroke-width="2" stroke-linejoin="round" cx="1041.131" cy="1999.833" r="70.215"/>
	<circle fill="#078930" stroke="#000000" stroke-width="2" stroke-linejoin="round" cx="1040.881" cy="1999.083" r="26"/>
</g>
<g id="Wellenbalken">
	<path id="Wellenbalken_1_" fill="#FFFFFF" stroke="#000000" stroke-width="5" stroke-linejoin="round" d="M1485.881,603.375
		h-185.173c0,0-18.489,14.901-41.327,42.708c-18.973,23.1-42.236,103.54-62.311,125.689
		c-53.248,58.752-92.135,63.366-125.689,100.311c-32.628,35.924-46,96-75,137.292c-28.028,39.909-95,57.708-123.982,97.691
		c-17.544,24.203-41.371,95.229-59.474,119.018c-37.827,49.708-75.079,41.882-116.026,87.482
		c-26.512,29.524-22.018,96.018-77.383,139.001c-30.139,23.399-50.94,25.277-79.825,50.207c-43.81,37.81-49.31,111.81-89.31,151.81
		c-26.979,26.979-53.673,27.521-82.941,52c-46.559,38.941-41.531,101.475-77.732,140.791
		c-33.573,36.463-73.298,37.898-103.018,71.018c-40.438,45.063-37.225,96.217-72.982,134.982
		c-34.804,37.732-73.688,43.599-99.018,70.018c-43.809,45.691-50.5,108.5-75.982,133.982c0,0,50.148,58.259,68.173,76.414
		c18.169,18.302,76.513,69.276,76.513,69.276c30.487-64.481,96.497-71.572,137.487-116.723
		c56.068-61.759,28.603-68.413,56.294-109.934c42.567-63.825,86.791-50.825,122.557-97.232
		c29.769-38.626,30.589-94.152,75.21-138.773c21.138-21.138,64.938-35.066,85.306-56.946
		c42.561-45.722,40.283-102.982,88.382-151.081c28.059-28.059,67.445-22.792,110.823-80.587
		c22.904-30.517,18.063-62.568,48.932-106.476c33.282-47.341,76.437-41.334,111.495-85.729
		c34.417-43.583,24.728-83.272,60.093-118.638c51.135-51.135,81.871-45.392,114.467-87.744
		c30.23-39.279,39.165-97.962,70.631-129.428c42.521-42.521,70.529-32.471,113.555-85.19
		c32.456-39.77,40.687-104.568,72.687-136.568c55.432-55.432,99.244-55.432,135.417-111.583L1485.881,603.375z"/>
</g>
<g id="Dingstock">
	<path fill="#FCDD09" stroke="#000000" stroke-width="4.8808" d="M320.762,825.083c0,76.487-63.753,142.153-137.881,142.153
		C108.753,967.237,45,901.571,45,825.083S108.753,682.93,182.881,682.93C257.009,682.93,320.762,748.596,320.762,825.083z"/>
	<path fill="#078930" stroke="#000000" stroke-width="4" d="M295.881,825.083c0,62.685-52.249,116.5-113,116.5
		s-113-53.815-113-116.5s52.249-116.5,113-116.5S295.881,762.399,295.881,825.083z"/>
	<path fill="#FCDD09" stroke="#000000" stroke-width="4.1212" d="M71.305,1171.083c0,64.584-29.09,120.03-116.424,120.03
		c-92,0-116.424-55.446-116.424-120.03s26.091-120.03,116.424-120.03C43.215,1051.053,71.305,1106.499,71.305,1171.083z"/>
	<path fill="#078930" stroke="#000000" stroke-width="3.3708" d="M50.106,1171.083c0,52.824-23.794,98.174-95.225,98.174
		c-75.248,0-95.225-45.35-95.225-98.174s21.339-98.174,95.225-98.174C27.13,1072.909,50.106,1118.259,50.106,1171.083z"/>
	<path fill="#FCDD09" stroke="#000000" stroke-width="3.3708" d="M-16.798,1075.642c-46.571,8.5-45.894,71.575-44.654,98.608
		c2.132,46.465,13,141.667,105.333,141.667c14.325,0,45.697-5.749,61-10c12-3.333,20.333-19,0-19c-11.948,0-10.487,11-61.333,11
		c-72.667,0-81.874-85.875-81.333-122.667c0.316-21.523-4.667-66.216,49.667-70.333c5.56-0.421,17.381,0.213,22.079,3.169
		c0,0-9.329-13.835-25.505-23.332C-5.386,1076.628-16.798,1075.642-16.798,1075.642z"/>
	<path fill="#FCDD09" stroke="#000000" stroke-width="4.1212" d="M291.354,1174.75c0,64.584,29.09,120.03,116.424,120.03
		c92,0,116.424-55.446,116.424-120.03s-26.091-120.03-116.424-120.03C319.444,1054.72,291.354,1110.166,291.354,1174.75z"/>
	<path fill="#078930" stroke="#000000" stroke-width="3.3708" d="M312.553,1174.75c0,52.824,23.794,98.174,95.225,98.174
		c75.248,0,95.225-45.35,95.225-98.174s-21.339-98.174-95.225-98.174C335.529,1076.576,312.553,1121.926,312.553,1174.75z"/>
	<path fill="#FCDD09" stroke="#000000" stroke-width="3.3708" d="M379.457,1079.309c46.571,8.5,45.894,71.575,44.654,98.608
		c-2.132,46.465-13,141.667-105.333,141.667c-14.325,0-45.697-5.749-61-10c-12-3.333-20.333-19,0-19c11.948,0,10.487,11,61.333,11
		c72.667,0,81.874-85.875,81.333-122.667c-0.316-21.523,4.667-66.216-49.667-70.333c-5.56-0.421-17.381,0.213-22.079,3.169
		c0,0,9.329-13.835,25.505-23.332C368.045,1080.294,379.457,1079.309,379.457,1079.309z"/>
	<path fill="#FCDD09" stroke="#000000" stroke-width="3.3708" d="M139.881,1775.375l-25-30.791v-564c-6.136-62-51.369-62-51.369-62
		c-5.964-21-24.011-39-24.011-39s117.584,39,106.38,53l14.973-212.868c10.277-3.632,16.735-8.269,22.672-8.151
		c7.394,0.147,9.296,2.769,21.383,8.151l10.972,212.868c-10.796-14,111.311-53,111.311-53s-19.811,16.333-26.734,39
		c0,0-44.212,0-53.577,62v564l-22,30.791H139.881z"/>
</g>
</svg>
