<?xml version="1.0" encoding="UTF-8" standalone="no"?>
<!DOCTYPE svg PUBLIC "-//W3C//DTD SVG 1.1//EN" "http://www.w3.org/Graphics/SVG/1.1/DTD/svg11.dtd">
<svg width="100%" height="100%" viewBox="0 0 900 1000" version="1.1" xmlns="http://www.w3.org/2000/svg" xmlns:xlink="http://www.w3.org/1999/xlink" xml:space="preserve" xmlns:serif="http://www.serif.com/" style="fill-rule:evenodd;clip-rule:evenodd;stroke-linecap:round;stroke-linejoin:round;stroke-miterlimit:1;">
    <g transform="matrix(1,0,0,1,-50,0)">
        <path d="M950,0L900,650C888.572,823.185 734.617,1000 500,1000C265.383,1000 111.428,823.185 100,650L50,0L950,0Z" style="fill:white;"/>
        <path d="M950,0L900,650C888.572,823.185 734.617,1000 500,1000C265.383,1000 111.428,823.185 100,650L50,0L950,0ZM939.755,9.487L60.245,9.487L109.459,649.272C109.462,649.307 109.464,649.341 109.466,649.375C120.616,818.338 271.104,990.513 500,990.513C728.896,990.513 879.384,818.338 890.534,649.375C890.536,649.341 890.538,649.307 890.541,649.272L939.755,9.487Z"/>
    </g>
    <g transform="matrix(1,0,0,1,-50,0)">
        <g transform="matrix(-0.285158,5.71051e-17,7.78112e-16,7.14462,644.565,-2665.61)">
            <path d="M506.965,448.121L200.118,469.116L813.813,469.116L506.965,448.121ZM506.965,457.843L600.12,464.217L413.811,464.217L506.965,457.843Z" style="fill:rgb(255,0,0);"/>
            <path d="M506.965,448.121L200.118,469.116L813.813,469.116L506.965,448.121ZM506.965,449.51L783.285,468.416C678.661,468.416 335.27,468.416 230.646,468.416L506.965,449.51ZM383.284,464.917L630.647,464.917L506.965,456.454L383.284,464.917ZM506.965,457.843L600.12,464.217L413.811,464.217L506.965,457.843Z"/>
        </g>
        <g transform="matrix(0.977685,-1.79913e-17,3.88619e-16,-24.2917,4.34736,11860.6)">
            <path d="M506.965,448.121L200.118,469.116L813.813,469.116L506.965,448.121ZM506.965,453.804L688.63,466.234L325.301,466.234L506.965,453.804Z" style="fill:rgb(255,0,0);"/>
            <path d="M191.177,469.321L822.754,469.321L506.965,447.715L191.177,469.321ZM506.965,448.121L813.813,469.116L200.118,469.116L506.965,448.121ZM506.965,453.804L325.301,466.234L688.63,466.234L506.965,453.804ZM506.965,454.21C506.965,454.21 679.689,466.028 679.689,466.028L334.242,466.028L506.965,454.21Z"/>
        </g>
    </g>
    <g transform="matrix(1,0,0,1,-50,0)">
        <path d="M461.188,89C461.188,89 476.713,72.879 481,73C485.287,73.121 486.791,89.849 492,93C497.209,96.151 484,103.566 484,103.566L461.188,89Z" style="fill:rgb(104,142,189);"/>
        <path d="M461.188,89C461.188,89 476.713,72.879 481,73C485.287,73.121 486.791,89.849 492,93C497.209,96.151 484,103.566 484,103.566L461.188,89ZM486.9,95.094C486.17,94.246 485.486,93.241 484.869,92.099C483.555,89.668 482.452,86.502 481.421,83.475C480.951,82.093 480.245,80.374 479.697,79.089C479.097,79.479 478.448,79.923 477.901,80.348C474.985,82.618 471.689,85.668 469.131,88.14L483.78,97.493L486.9,95.094Z"/>
    </g>
    <g transform="matrix(1,0,0,1,-50,0)">
        <path d="M642.472,291.702C644.9,299.852 648.368,315.632 647.674,322.049C646.981,328.465 646.287,347.366 639.698,354.822C633.108,362.279 624.091,366.961 625.652,374.244C627.213,381.527 629.293,383.608 631.027,383.781C632.762,383.955 639.871,371.99 649.929,373.377C659.986,374.764 667.443,388.116 675.766,386.729C684.09,385.342 692.587,368.348 693.107,366.787C693.627,365.227 695.361,394.706 683.396,400.081C671.431,405.457 651.489,403.029 651.489,404.937C651.489,406.844 663.976,409.598 667.096,409.792C673.708,410.204 682.868,405.418 682.42,403.219C682.42,403.219 676.65,418.195 669.459,420.326C662.267,422.456 639.805,425.475 639.805,425.475C639.805,425.475 655.164,430.713 660.047,430.358C664.931,430.003 674.43,425.653 674.43,425.653C674.43,425.653 670.08,440.746 657.917,444.564C645.753,448.381 628.351,444.12 623.557,444.83C618.763,445.54 600.029,445.496 599.807,457.926C599.585,470.356 596.367,478.679 590.929,479.345C585.491,480.011 566.402,483.784 564.294,474.573C562.185,465.361 566.952,457.487 566.952,457.487C566.952,457.487 558.412,468.691 553.418,471.354C548.423,474.018 541.765,486.781 530.889,485.56C520.013,484.339 508.41,476.453 510.69,464.474C511.581,459.796 519.756,455.571 519.756,455.571C519.756,455.571 512.916,457.457 510.916,458.787C506.322,461.841 492.743,477.14 483.421,476.874C474.099,476.608 461.047,455.743 465.931,444.113C470.814,432.482 477.936,431.212 483.263,431.212C488.59,431.212 492.497,434.053 497.469,433.521C502.441,432.988 512.296,431.39 512.296,431.39C512.296,431.39 501.73,431.567 497.735,430.325C490.02,427.924 495.959,421.979 498.534,418.96C501.109,415.941 510.638,413.362 515.47,413.211C527.589,412.834 530.996,421.518 541.861,422.09C548.741,422.452 554.89,430.68 562.081,430.746C566.617,430.788 583.215,428.584 589.94,424.342C592.582,422.675 589.019,415.875 592.288,413.318C597.43,409.296 602.43,405.292 602.43,405.292C602.43,405.292 593.58,412.707 582.926,411.641C572.271,410.576 567.655,402.146 567.3,397.884C566.945,393.623 562.088,401.873 550.723,401.305C539.359,400.737 536.234,401.305 531.404,401.376C526.574,401.447 519.827,404.359 514.286,404.146C490.058,403.214 484.455,379.571 484.455,379.571C484.455,379.571 490.046,383.318 499.361,382.536C507.404,381.862 514.464,380.783 519.68,362.804C524.896,344.825 554.182,348.609 560.077,348.377C568.511,348.044 586.972,346.081 582.712,308.341C579.398,278.988 640.045,283.552 642.472,291.702" style="fill:rgb(104,142,189);stroke:black;stroke-width:5px;"/>
    </g>
    <g transform="matrix(1,0,0,1,-50,0)">
        <path d="M711.134,421.655C709.136,430.089 707.25,443.518 720.567,443.74C733.885,443.962 744.65,435.083 745.427,430.866C746.204,426.649 732.22,414.108 726.338,413.553C720.456,412.998 713.132,413.22 711.134,421.655Z" style="fill:rgb(104,142,189);stroke:black;stroke-width:5px;"/>
    </g>
    <g transform="matrix(1,0,0,1,-50,0)">
        <path d="M307.612,276.712L290.625,244.123C290.625,244.123 284.106,249.582 282.109,255.02C280.111,260.458 281.887,270.446 281.887,270.446C281.887,270.446 265.24,252.467 265.906,242.59C266.571,232.713 266.682,221.282 266.682,221.282C266.682,221.282 257.138,226.72 257.915,234.266C258.692,241.813 262.354,252.023 262.354,252.023C262.354,252.023 245.263,246.141 243.71,231.825C242.156,217.509 241.934,209.962 241.934,209.962C241.934,209.962 234.498,210.628 233.388,216.177C232.279,221.726 233.055,228.385 233.055,228.385C233.055,228.385 220.848,214.29 221.403,206.3C221.957,198.309 222.845,195.202 222.845,195.202C222.845,195.202 215.521,211.405 209.528,212.625C203.535,213.846 188.109,216.51 181.783,200.972C174.92,184.116 186.333,180.885 189.773,179.775C193.214,178.666 209.972,173.893 207.863,170.453C205.754,167.013 198.208,167.678 186.999,173.893C175.79,180.108 169.464,176.779 165.469,172.34C161.473,167.9 158.118,147.839 166.911,139.046C170.208,135.749 175.901,134.052 180.562,133.941C185.223,133.83 197.893,139.791 198.319,140.218C198.745,140.644 185.037,132.049 183.616,123.313C182.196,114.577 181.485,107.261 188.659,100.726C195.833,94.192 209.328,96.323 212.098,105.272C214.868,114.222 220.479,135.956 230.636,133.328C240.793,130.7 231.559,121.822 229.713,116.21C227.866,110.599 227.582,99.874 237.739,96.607C247.896,93.34 262.811,93.979 265.51,101.153C268.209,108.326 265.581,121.679 262.03,125.586C258.479,129.492 256.277,131.836 256.632,136.808C256.987,141.78 261.474,168.499 307.701,184.183C311.678,185.533 343.321,194.77 350.246,196.279C357.171,197.789 307.612,276.712 307.612,276.712Z" style="fill:rgb(104,142,189);"/>
        <path d="M197.656,139.837C194.934,138.081 184.825,130.748 183.616,123.313C182.196,114.577 181.485,107.261 188.659,100.726C195.833,94.192 209.328,96.323 212.098,105.272C214.868,114.222 220.479,135.956 230.636,133.328C240.793,130.7 231.559,121.822 229.713,116.21C227.866,110.599 227.582,99.874 237.739,96.607C247.896,93.34 262.811,93.979 265.51,101.153C268.209,108.326 265.581,121.679 262.03,125.586C258.479,129.492 256.277,131.836 256.632,136.808C256.987,141.78 261.474,168.499 307.701,184.183C311.678,185.533 343.321,194.77 350.246,196.279C357.171,197.789 307.612,276.712 307.612,276.712L290.625,244.123C290.625,244.123 284.106,249.582 282.109,255.02C280.111,260.458 281.887,270.446 281.887,270.446C281.887,270.446 265.24,252.467 265.906,242.59C266.571,232.713 266.682,221.282 266.682,221.282C266.682,221.282 257.138,226.72 257.915,234.266C258.692,241.813 262.354,252.023 262.354,252.023C262.354,252.023 245.263,246.141 243.71,231.825C242.156,217.509 241.934,209.962 241.934,209.962C241.934,209.962 234.498,210.628 233.388,216.177C232.279,221.726 233.055,228.385 233.055,228.385C233.055,228.385 220.848,214.29 221.403,206.3C221.957,198.309 222.845,195.202 222.845,195.202C222.845,195.202 215.521,211.405 209.528,212.625C203.535,213.846 188.109,216.51 181.783,200.972C174.92,184.116 186.333,180.885 189.773,179.775C193.214,178.666 209.972,173.893 207.863,170.453C205.754,167.013 198.208,167.678 186.999,173.893C175.79,180.108 169.464,176.779 165.469,172.34C161.473,167.9 158.118,147.839 166.911,139.046C170.208,135.749 175.901,134.052 180.562,133.941C184.656,133.843 194.928,138.431 197.656,139.837C198.132,140.144 198.382,140.281 198.319,140.218C198.267,140.166 198.034,140.032 197.656,139.837ZM254.034,241.168C253.551,239.004 253.149,236.801 252.941,234.778C252.488,230.375 254.265,226.403 256.775,223.295C259.961,219.349 264.207,216.938 264.207,216.938C265.762,216.051 267.673,216.064 269.216,216.971C270.759,217.878 271.7,219.541 271.682,221.33C271.682,221.33 271.569,232.916 270.894,242.926C270.683,246.066 272.999,250.106 275.462,253.979C275.874,254.626 276.297,255.267 276.725,255.896C276.897,254.968 277.123,254.09 277.415,253.296C279.785,246.845 287.414,240.29 287.414,240.29C288.576,239.317 290.115,238.923 291.601,239.219C293.087,239.515 294.358,240.468 295.058,241.812L307.993,266.625C317.075,251.901 336.984,219.068 343.888,203.227C344.324,202.226 344.731,201.119 345.065,200.147C333.97,197.241 309.574,190.099 306.094,188.918C256.242,172.004 252.028,142.526 251.645,137.165C251.178,130.629 253.662,127.358 258.33,122.223C259.355,121.096 260.091,118.805 260.699,116.219C261.738,111.805 262.16,106.446 260.831,102.913C260.26,101.396 258.378,100.872 256.315,100.372C251.264,99.146 244.529,99.675 239.27,101.367C232.498,103.545 233.231,110.906 234.462,114.647C235.363,117.383 238.095,120.9 239.333,124.068C240.498,127.049 240.636,129.88 239.656,132.246C238.677,134.613 236.549,136.963 231.889,138.169C226.984,139.438 222.579,137.59 218.917,133.415C213.202,126.898 209.409,113.496 207.322,106.751C206.492,104.072 203.904,102.613 201.14,102.113C198.002,101.546 194.465,102.202 192.026,104.423C186.317,109.623 187.421,115.558 188.551,122.511C188.921,124.786 190.602,126.956 192.385,128.905C195.646,132.471 200.632,135.803 200.632,135.803C200.632,135.803 200.594,135.802 200.526,135.801C201.294,136.257 201.76,136.588 201.854,136.682C203.681,138.509 203.364,140.318 203.281,140.918C203.052,142.57 202.209,143.826 200.688,144.64C200.518,144.731 198.296,146.073 195.466,144.365C195.383,144.315 195.284,144.254 195.172,144.182C193.568,143.371 189.748,141.644 186.099,140.355C183.973,139.604 181.951,138.909 180.681,138.939C177.207,139.022 172.904,140.124 170.447,142.581C166.965,146.063 166.202,151.865 166.391,157.146C166.515,160.61 167.121,163.906 167.972,166.402C168.358,167.534 168.715,168.472 169.185,168.995C170.488,170.442 172.121,171.789 174.392,172.187C177.038,172.651 180.315,171.882 184.574,169.521C192.278,165.249 198.531,163.44 202.775,163.388C207.482,163.331 210.519,165.218 212.126,167.84C213.708,170.422 213.6,173.505 210.485,176.337C209.194,177.51 207.019,178.783 204.448,179.917C199.643,182.037 193.309,183.888 191.308,184.534C189.972,184.965 186.57,185.596 185.188,188.625C184.152,190.895 184.415,194.178 186.414,199.087C191.405,211.346 203.801,208.689 208.53,207.726C208.96,207.638 209.297,207.176 209.741,206.748C210.761,205.763 211.754,204.48 212.69,203.124C215.846,198.552 218.289,193.142 218.289,193.142C219.368,190.755 222.107,189.605 224.566,190.507C227.026,191.409 228.373,194.056 227.653,196.575C227.653,196.575 226.894,199.399 226.391,206.646C226.247,208.714 227.445,211.249 228.866,213.764C229.879,210.747 231.994,208.652 234.355,207.274C237.712,205.314 241.488,204.982 241.488,204.982C242.86,204.859 244.223,205.308 245.253,206.223C246.284,207.138 246.891,208.437 246.932,209.815C246.932,209.815 247.154,217.226 248.68,231.285C249.14,235.522 251.457,238.75 254.034,241.168Z"/>
    </g>
    <g transform="matrix(1,0,0,1,-50,0)">
        <path d="M338.637,335.939C325.362,342.099 313.102,339.117 313.913,336.955C314.59,335.15 330.697,317.51 333.747,310.277C336.127,304.634 339.134,295.879 339.134,295.879C339.134,295.879 328.849,309.593 320.551,317.609C318.032,320.043 315.696,321.951 313.886,322.791C306.118,326.398 286.003,330.144 281.286,330.976C276.569,331.809 258.535,348.317 224.131,347.484C189.727,346.652 161.705,324.872 162.815,304.757C163.925,284.642 188.895,269.521 188.895,269.521C188.895,269.521 184.04,281.313 185.288,293.52C186.537,305.728 193.196,324.595 220.524,324.734C247.853,324.872 254.373,310.584 254.373,310.584C254.373,310.584 251.46,311.832 239.391,310.445C227.322,309.058 216.501,297.46 216.501,283.255C216.501,259.672 246.327,254.816 246.327,254.816C246.327,254.816 238.975,265.775 239.53,272.434C240.085,279.093 247.437,283.948 254.651,282.839C261.864,281.729 274.534,276.579 282.858,267.701C291.181,258.823 293.109,256.344 299.076,251.869C305.042,247.394 317.117,244.127 317.117,244.127C317.117,244.127 301.719,233.226 295.595,222.677C284.46,203.494 294.131,181.442 294.131,181.442C294.131,181.442 302.628,207.106 311.645,205.545C320.662,203.984 333.321,194.17 338.35,190.008C343.379,185.846 351.386,181.556 356.939,181.754C367.2,182.119 381.181,206.239 394.88,203.117C408.579,199.996 409.757,197.339 409.934,193.699C410.112,190.058 396.617,182.423 391.112,181.713C385.607,181.003 373.71,186.418 368.206,180.292C362.701,174.166 375.308,166.797 378.061,164.311C380.813,161.825 394.885,149.129 398.77,153.568C402.654,158.007 399.214,168.218 407.981,170.881C416.748,173.545 416.304,177.096 423.296,175.875C430.288,174.654 436.78,170.077 437.89,158.979C439,147.881 438.722,138.586 434.838,134.702C430.954,130.817 419.44,133.869 411.671,131.927C403.902,129.985 393.359,131.234 389.753,127.627C386.146,124.02 374.632,125.407 373.522,115.835C372.412,106.263 384.204,108.483 384.758,103.072C385.313,97.662 386.423,88.506 386.423,88.506C386.423,88.506 396.134,87.951 406.816,89.061C417.498,90.171 417.22,94.055 423.74,93.5C430.26,92.946 434.144,84.761 438.306,81.709C442.468,78.657 445.52,78.241 450.098,78.241C454.676,78.241 456.757,78.657 463.415,81.154C470.074,83.651 476.317,89.477 481.727,90.032C487.137,90.587 493.241,85.593 497.264,83.373C501.287,81.154 504.201,78.102 509.056,78.379C513.911,78.657 517.796,86.471 517.518,91.326C517.241,96.182 512.108,103.118 512.385,108.112C512.663,113.106 515.576,117.961 512.524,121.568C509.472,125.175 508.501,126.285 506.698,127.534C504.894,128.782 512.358,133.404 514.488,137.577C516.619,141.75 517.862,148.853 522.657,148.764C527.451,148.675 536.773,142.638 536.773,142.638C536.773,142.638 532.512,160.839 524.965,164.656C517.418,168.474 510.759,167.409 510.759,167.409C510.759,167.409 510.759,177.352 505.876,180.549C500.993,183.745 503.923,190.404 514.666,188.539C525.409,186.675 529.67,185.165 529.67,185.165C529.67,185.165 522.828,202.034 513.021,204.609C503.213,207.184 493.532,203.539 493.532,203.539C493.532,203.539 489.714,223.426 498.593,222.627C507.471,221.828 516.217,209.221 516.217,209.221C516.217,209.221 521.676,220.319 518.125,227.777C514.574,235.235 502.765,250.062 496.728,255.211C490.691,260.361 349.602,330.85 338.637,335.939Z" style="fill:rgb(104,142,189);"/>
        <path d="M253.594,310.784C252.099,311.069 248.164,311.453 239.391,310.445C227.322,309.058 216.501,297.46 216.501,283.255C216.501,259.672 246.327,254.816 246.327,254.816C246.327,254.816 238.975,265.775 239.53,272.434C240.085,279.093 247.437,283.948 254.651,282.839C261.864,281.729 274.534,276.579 282.858,267.701C291.181,258.823 293.109,256.344 299.076,251.869C305.042,247.394 317.117,244.127 317.117,244.127C317.117,244.127 301.719,233.226 295.595,222.677C284.46,203.494 294.131,181.442 294.131,181.442C294.131,181.442 302.628,207.106 311.645,205.545C320.662,203.984 333.321,194.17 338.35,190.008C343.379,185.846 351.386,181.556 356.939,181.754C367.2,182.119 381.181,206.239 394.88,203.117C408.579,199.996 409.757,197.339 409.934,193.699C410.112,190.058 396.617,182.423 391.112,181.713C385.607,181.003 373.71,186.418 368.206,180.292C362.701,174.166 375.308,166.797 378.061,164.311C380.813,161.825 394.885,149.129 398.77,153.568C402.654,158.007 399.214,168.218 407.981,170.881C416.748,173.545 416.304,177.096 423.296,175.875C430.288,174.654 436.78,170.077 437.89,158.979C439,147.881 438.722,138.586 434.838,134.702C430.954,130.817 419.44,133.869 411.671,131.927C403.902,129.985 393.359,131.234 389.753,127.627C386.146,124.02 374.632,125.407 373.522,115.835C372.412,106.263 384.204,108.483 384.758,103.072C385.313,97.662 386.423,88.506 386.423,88.506C386.423,88.506 396.134,87.951 406.816,89.061C417.498,90.171 417.22,94.055 423.74,93.5C430.26,92.946 434.144,84.761 438.306,81.709C442.468,78.657 445.52,78.241 450.098,78.241C454.676,78.241 456.757,78.657 463.415,81.154C470.074,83.651 476.317,89.477 481.727,90.032C487.137,90.587 493.241,85.593 497.264,83.373C501.287,81.154 504.201,78.102 509.056,78.379C513.911,78.657 517.796,86.471 517.518,91.326C517.241,96.182 512.108,103.118 512.385,108.112C512.663,113.106 515.576,117.961 512.524,121.568C509.472,125.175 508.501,126.285 506.698,127.534C504.894,128.782 512.358,133.404 514.488,137.577C516.619,141.75 517.862,148.853 522.657,148.764C527.451,148.675 536.773,142.638 536.773,142.638C536.773,142.638 532.512,160.839 524.965,164.656C517.418,168.474 510.759,167.409 510.759,167.409C510.759,167.409 510.759,177.352 505.876,180.549C500.993,183.745 503.923,190.404 514.666,188.539C525.409,186.675 529.67,185.165 529.67,185.165C529.67,185.165 522.828,202.034 513.021,204.609C503.213,207.184 493.532,203.539 493.532,203.539C493.532,203.539 489.714,223.426 498.593,222.627C507.471,221.828 516.217,209.221 516.217,209.221C516.217,209.221 521.676,220.319 518.125,227.777C514.574,235.235 502.765,250.062 496.728,255.211C490.691,260.361 349.602,330.85 338.637,335.939C325.362,342.099 313.102,339.117 313.913,336.955C314.59,335.15 330.697,317.51 333.747,310.277C336.127,304.634 339.134,295.879 339.134,295.879C339.134,295.879 328.849,309.593 320.551,317.609C318.032,320.043 315.696,321.951 313.886,322.791C306.118,326.398 286.003,330.144 281.286,330.976C276.569,331.809 258.535,348.317 224.131,347.484C189.727,346.652 161.705,324.872 162.815,304.757C163.925,284.642 188.895,269.521 188.895,269.521C188.895,269.521 184.04,281.313 185.288,293.52C186.537,305.728 193.196,324.595 220.524,324.734C243.213,324.849 251.559,315.02 253.739,311.679L254.373,315.584L258.922,312.659C258.922,312.659 251.819,329.892 220.499,329.733C208.088,329.67 199.479,326.061 193.469,321.039C184.39,313.453 181.171,302.404 180.314,294.029C179.902,289.997 180.093,286.005 180.564,282.393C179.13,283.764 177.674,285.276 176.276,286.912C172.005,291.912 168.19,298.095 167.807,305.033C167.434,311.793 171.239,318.65 177.475,324.642C187.857,334.618 205.002,342.02 224.252,342.486C250.428,343.119 266.627,333.146 274.361,328.746C277.095,327.192 279.149,326.276 280.417,326.052C284.952,325.252 304.311,321.724 311.781,318.256C313.235,317.581 315.052,315.969 317.077,314.013C325.144,306.219 335.134,292.879 335.134,292.879C336.611,290.91 339.3,290.308 341.475,291.461C343.65,292.613 344.662,295.176 343.863,297.503C343.863,297.503 340.786,306.452 338.354,312.22C336.142,317.466 327.515,327.98 322.057,334.604C325.983,334.685 331.159,333.897 336.532,331.403C347.414,326.353 487.492,256.517 493.483,251.407C499.159,246.566 510.272,232.638 513.611,225.627C514.53,223.696 514.446,221.402 514.128,219.298C513.423,219.99 512.673,220.685 511.886,221.359C508.129,224.58 503.552,227.201 499.041,227.607C493.762,228.082 490.491,225.221 488.858,220.488C486.611,213.978 488.622,202.596 488.622,202.596C488.899,201.148 489.802,199.897 491.089,199.176C492.375,198.456 493.914,198.34 495.294,198.86C495.294,198.86 503.469,201.947 511.751,199.773C514.679,199.004 517.094,196.333 519.128,193.639C519.37,193.319 519.606,192.996 519.834,192.673C518.523,192.928 517.087,193.194 515.521,193.466C507.56,194.847 502.678,192.279 500.507,189.565C498.749,187.368 498.224,184.777 498.81,182.27C499.306,180.149 500.66,177.987 503.138,176.365C504.152,175.701 504.546,174.35 504.911,173.12C505.756,170.274 505.759,167.409 505.759,167.409C505.759,165.945 506.401,164.554 507.515,163.604C508.629,162.654 510.104,162.24 511.549,162.471C511.549,162.471 516.768,163.199 522.708,160.195C524.913,159.079 526.467,156.08 527.858,153.126C527.933,152.967 528.007,152.808 528.08,152.649C526.128,153.325 524.263,153.735 522.749,153.763C519.021,153.832 516.219,151.962 514.148,148.816C512.456,146.246 511.389,142.502 510.035,139.851C509.23,138.273 507.359,136.699 505.89,135.291C504.174,133.647 502.793,132.111 502.21,131.031C501.333,129.406 501.292,127.926 501.568,126.753C501.867,125.48 502.549,124.324 503.852,123.423C505.372,122.37 506.134,121.38 508.707,118.339C509.049,117.935 508.924,117.437 508.874,116.938C508.813,116.315 508.685,115.674 508.544,115.017C508.087,112.888 507.519,110.648 507.393,108.389C507.247,105.753 508.092,102.672 509.363,99.556C510.588,96.553 512.385,93.511 512.526,91.041C512.636,89.123 511.662,86.539 510.252,84.711C509.786,84.106 509.406,83.408 508.771,83.371C506.997,83.27 505.69,84.03 504.366,84.84C502.855,85.766 501.358,86.825 499.68,87.751C497.183,89.129 493.9,91.521 490.473,93.106C487.407,94.523 484.221,95.314 481.217,95.006C478.452,94.723 475.473,93.475 472.402,91.74C469.011,89.823 465.417,87.245 461.66,85.836C455.872,83.665 454.077,83.241 450.098,83.241C446.678,83.241 444.372,83.461 441.263,85.741C438.902,87.472 436.69,91.001 433.923,93.62C431.125,96.268 427.903,98.164 424.164,98.482C420.389,98.804 418.189,98.09 415.917,97.023C413.898,96.075 411.797,94.606 406.299,94.034C400.269,93.408 394.56,93.333 390.878,93.377C390.515,96.463 390.039,100.597 389.732,103.583C389.385,106.97 387.334,109.256 384.125,110.872C383.008,111.434 381.71,111.919 380.459,112.503C379.757,112.831 378.961,113.065 378.592,113.762C378.393,114.137 378.415,114.628 378.488,115.259C378.874,118.583 381.845,119.146 384.277,119.898C387.963,121.037 391.389,122.193 393.288,124.091C393.643,124.446 394.229,124.543 394.865,124.708C396.251,125.069 397.88,125.26 399.619,125.423C403.92,125.827 408.767,126.047 412.884,127.076C417.225,128.162 422.827,127.472 427.392,127.609C432.179,127.752 436.097,128.89 438.374,131.166C440.535,133.327 442.08,136.608 442.833,140.856C443.71,145.801 443.584,152.288 442.865,159.476C441.455,173.577 433.04,179.25 424.156,180.801C418.978,181.705 416.567,180.752 413.813,179.17C412.182,178.233 410.374,176.834 406.528,175.665C399.97,173.673 397.73,169.063 396.651,163.917C396.294,162.216 396.09,160.461 395.734,158.856C395.666,158.553 395.608,158.252 395.533,157.968C394.803,158.241 393.795,158.647 393.069,159.061C388.266,161.796 382.95,166.632 381.412,168.022C380.082,169.223 376.354,171.582 373.64,174.403C373.071,174.995 372.551,175.605 372.17,176.238C372.021,176.487 371.706,176.707 371.925,176.95C372.717,177.832 373.844,178.076 375.021,178.19C376.323,178.315 377.706,178.225 379.089,178.066C383.893,177.515 388.713,176.362 391.752,176.754C396.21,177.329 405.263,181.701 410.185,185.795C412.12,187.405 413.478,189.053 414.149,190.414C414.77,191.671 414.981,192.871 414.928,193.942C414.836,195.843 414.484,197.565 413.536,199.226C411.946,202.013 407.997,205.257 395.991,207.992C392.239,208.847 388.461,208.31 384.722,206.739C380.18,204.831 375.644,201.287 371.326,197.504C368.169,194.739 365.123,191.862 362.237,189.66C360.239,188.136 358.488,186.812 356.761,186.751C352.174,186.588 345.692,190.422 341.538,193.86C336.092,198.366 322.262,208.782 312.498,210.472C308.271,211.203 303.72,208.839 299.977,204.145C298.323,202.071 296.781,199.549 295.413,196.978C294.729,203.784 295.324,212.25 299.92,220.167C305.615,229.978 320.006,240.046 320.006,240.046C321.586,241.165 322.378,243.096 322.039,245.002C321.701,246.908 320.292,248.448 318.423,248.953C318.423,248.953 307.47,251.823 302.076,255.869C296.338,260.172 294.51,262.583 286.505,271.121C277.333,280.904 263.36,286.558 255.411,287.78C245.328,289.332 235.323,282.157 234.547,272.849C234.313,270.042 235.078,266.602 236.317,263.293C235.503,263.676 234.677,264.097 233.851,264.558C227.768,267.953 221.501,273.634 221.501,283.255C221.501,294.801 230.152,304.35 239.962,305.478C248.459,306.454 252.792,305.844 252.792,305.844L253.594,310.784Z"/>
    </g>
    <g transform="matrix(1,0,0,1,-50,0)">
        <path d="M164.408,416.063C164.169,411.406 169.513,393.867 185.938,393.312C202.363,392.757 207.135,406.075 219.676,404.743C232.217,403.411 244.425,393.423 253.081,394.2C261.738,394.977 261.294,397.418 265.622,396.752C269.95,396.086 322.222,339.708 322.222,339.708C322.222,339.708 328.464,337.744 347.515,308.109C366.566,278.474 368.683,258.153 389.851,265.35C411.019,272.547 463.722,238.012 477.942,238.706C492.161,239.4 528.231,240.843 543.836,240.614C626.551,239.4 632.967,229.342 662.793,230.382C692.619,231.423 752.445,246.683 780.537,246.336C808.629,245.989 838.802,241.394 844.524,203.418C850.246,165.442 793.196,169.603 787.993,169.603C782.791,169.603 754.526,165.615 734.931,181.048C715.336,196.481 692.446,216.25 625.858,218.157C559.269,220.065 554.761,178.794 555.628,167.349C556.495,155.904 574.693,131.699 593.248,130.312C593.324,130.306 582.896,131.271 582.896,131.271C582.896,131.271 573.225,131.286 574.379,118.235C575.534,105.183 582.992,90.711 595.599,87.959C601.312,86.712 626.052,90.09 622.412,75.263C618.772,60.436 614.421,50.847 614.421,50.847C614.421,50.847 650.327,55.412 642.36,85.016C640.724,91.097 626.223,112.479 626.223,112.479C626.223,112.479 646.267,81.123 670.367,84.473C694.701,87.855 707.435,89.554 715.532,89.199C746.358,87.847 745.08,49.353 745.08,49.353C745.08,49.353 752.609,86.358 741.813,97.438C731.016,108.519 708.359,115.195 696.781,116.261C690.702,116.82 677.45,114.742 665.392,117.533C654.488,120.057 644.754,128.655 644.754,128.655C644.754,128.655 655.842,121.463 662.333,121.463C681.865,121.463 685.062,137.8 700.333,136.646C715.603,135.491 732.561,111.342 732.561,111.342C732.561,111.342 717.062,157.954 689.004,157.954C684.245,157.954 675.644,157.493 666.914,157.119C656.97,156.693 643.688,161.31 632.821,161.168C628.558,161.112 619.462,157.65 611.274,153.959C604.581,150.942 598.424,147.536 596.597,147.673C589.426,148.208 581.326,161.452 581.752,167.631C582.178,173.811 588.003,194.622 622.664,193.627C657.325,192.633 686.937,169.539 699.839,162.742C712.74,155.944 750.664,139.874 762.543,145.262C769.285,148.321 775.305,151.089 775.305,151.089C775.305,151.089 752.138,140.268 752,128.06C751.819,112.159 767.121,106.835 780.854,106.974C794.588,107.113 801.802,101.065 802.168,96.264C802.967,85.788 769.762,71.138 769.762,71.138C769.762,71.138 824.897,72.381 825.696,104.432C826.115,121.216 792.491,136.395 792.491,136.395C792.491,136.395 801.813,135.507 808.472,135.418C815.131,135.329 822.5,137.46 822.5,137.46C822.5,137.46 820.014,129.203 829.07,122.101C838.126,114.998 852.331,112.601 857.747,112.157C863.163,111.713 874.883,111.89 874.616,104.166C874.35,96.442 852.065,80.106 852.065,80.106C852.065,80.106 898.144,88.718 896.812,112.423C895.571,134.525 876.747,137.194 867.247,139.058C861.097,140.265 858.458,141.277 858.458,146.516C858.458,151.756 885.444,154.377 885.714,198.544C885.872,224.333 879.144,237.914 865.827,249.367C852.509,260.82 830.402,272.628 793.467,279.109C756.533,285.591 742.239,280.974 734.603,280.708C726.968,280.441 690.122,262.24 690.122,262.24C690.122,262.24 725.103,287.633 731.141,300.506C737.178,313.38 747.921,338.24 759.729,337.796C771.538,337.352 774.734,333.179 784.411,333.712C794.089,334.245 806.208,337.419 813.755,342.08C821.301,346.741 826.184,354.51 834.175,353.733C842.166,352.956 840.279,345.853 840.279,342.635C840.279,339.416 839.724,330.982 834.619,327.097C829.514,323.213 811.091,321.77 811.091,321.77C811.091,321.77 830.513,310.783 837.615,312.004C844.718,313.225 866.803,320.883 869.023,334.866C871.242,348.85 865.804,364.498 858.924,369.159C852.043,373.82 840.739,377.293 832.732,376.595C816.196,375.152 800.659,363.388 800.659,363.388C800.659,363.388 816.284,372.924 827.516,377.039C838.725,381.145 845.495,382.588 854.484,381.922C863.474,381.256 873.129,369.27 873.129,369.27C873.129,369.27 873.795,395.35 863.474,400.345C853.153,405.339 813.895,404.644 816.47,412.989C819.044,421.335 837.6,422.045 842.572,421.246C847.544,420.447 863.703,416.274 863.703,416.274C863.703,416.274 852.516,437.938 838.577,438.737C824.638,439.536 802.531,433.321 796.671,434.742C790.811,436.162 782.11,437.76 780.601,446.55C779.091,455.34 778.981,457.401 775.319,463.061C771.656,468.721 768.105,469.165 766.662,471.384C765.219,473.604 763.555,482.593 759.559,485.368C755.564,488.142 740.693,495.578 734.256,489.918C727.819,484.258 723.602,471.162 726.487,466.612C729.373,462.062 755.453,450.631 755.453,450.631C755.453,450.631 730.261,461.618 724.601,462.284C718.941,462.95 712.726,467.611 704.18,467.389C698.891,467.251 684.686,453.247 694.274,443.73C703.863,434.212 709.353,436.748 715.942,438.482C722.532,440.216 733.456,437.095 737.445,432.586C741.433,428.077 745.421,420.968 752.705,416.806C759.988,412.644 773.86,408.829 774.034,401.72C774.207,394.61 755.652,394.61 750.277,391.835C744.901,389.061 734.844,372.067 734.844,372.067C734.844,372.067 735.711,390.275 731.029,394.09C726.347,397.905 714.208,400.506 708.833,400.159C703.457,399.812 691.319,397.558 691.319,397.558C691.319,397.558 711.607,387.882 710.22,375.535C708.833,363.189 705.226,358.056 692.324,358.195C679.423,358.333 660.972,362.218 657.782,345.709C654.591,329.201 656.533,313.109 651.678,307.837C646.822,302.566 623.794,304.508 612.141,308.67C600.488,312.831 586.546,317.617 578.916,321.779C571.286,325.941 525.507,349.004 514.409,352.646C503.311,356.287 467.416,364.749 459.612,364.784C452.484,364.816 437.678,364.379 429.453,358.576C424.76,355.265 425.125,329 425.125,329C425.125,329 424.42,360.091 420.353,364.07C412.267,371.979 383.423,377.853 384.395,387.93C385.472,399.096 402.707,403.301 402.707,403.301C402.707,403.301 386.337,413.289 379.124,412.318C371.91,411.347 363.17,402.607 355.957,403.162C348.743,403.717 349.298,408.434 348.882,411.07C346.942,423.351 373.02,425.913 373.02,425.913C373.02,425.913 356.842,436.24 347.741,435.241C338.641,434.242 326.988,430.358 324.768,428.582C322.549,426.806 313.226,418.816 310.341,423.255C307.455,427.694 314.114,431.912 317.665,434.353C321.217,436.795 332.981,438.237 333.98,440.235C334.978,442.233 315.668,451.777 310.674,451.555C305.68,451.333 290.364,441.789 289.254,438.57C288.145,435.352 290.808,452.665 291.585,456.549C292.362,460.434 293.139,473.529 286.258,473.529C279.377,473.529 261.62,477.636 260.622,467.647C259.623,457.659 264.728,443.676 264.728,443.676C264.728,443.676 250.411,459.546 247.97,463.208C245.528,466.87 238.98,480.854 230.657,480.521C222.333,480.188 207.955,478.486 205.353,464.651C202.912,451.666 232.876,437.794 232.876,437.794C232.876,437.794 212.456,448.004 202.912,451.555C197.21,453.677 190.593,468.757 182.935,467.647C175.278,466.537 160.517,460.545 161.405,443.897C162.293,427.25 204.146,422.631 204.146,422.631C204.146,422.631 165.039,428.354 164.408,416.063Z" style="fill:rgb(104,142,189);stroke:black;stroke-width:5px;"/>
    </g>
    <g transform="matrix(1,0,0,1,-50,0)">
        <path d="M510.027,166.02C510.027,166.02 502.224,161.338 498.236,158.737" style="fill:none;stroke:black;stroke-width:5px;"/>
        <path d="M434,100C434,100 444.885,114.516 470,106" style="fill:none;stroke:black;stroke-width:5px;"/>
        <path d="M438,119C441.511,118.015 460.087,121.227 469,128" style="fill:none;stroke:black;stroke-width:5px;"/>
        <path d="M489.246,133.087C493.463,131.089 502.037,126.983 504.131,128.093" style="fill:none;stroke:black;stroke-width:5px;"/>
        <path d="M487.582,117.661C487.582,117.661 496.014,115.95 498.236,109.892C499.456,106.563 496.356,103.345 496.689,99.904C496.999,96.699 503.59,90.471 505.907,89.472" style="fill:none;stroke:black;stroke-width:5px;"/>
        <path d="M389.725,123.182C389.725,123.182 393.332,110.281 402.349,106.258" style="fill:none;stroke:black;stroke-width:5px;"/>
        <path d="M465.831,148.878C468.761,150.387 485.718,156.513 481.013,160.597C476.307,164.681 467.162,161.494 463.256,158.737C459.349,155.98 454.2,160.42 452.069,170.719C449.938,181.017 440.083,193.98 429.341,194.779C418.598,195.578 412.383,194.424 412.383,194.424" style="fill:none;stroke:black;stroke-width:5px;"/>
        <path d="M445.41,184.569C445.41,184.569 454.111,193.003 453.401,200.905C452.691,208.807 431.56,222.302 433.691,232.69C435.822,243.077 446.138,245.412 455.909,238.745" style="fill:none;stroke:black;stroke-width:5px;"/>
        <path d="M412.383,228.961C412.449,236.33 415.841,266.303 451.532,247.747" style="fill:none;stroke:black;stroke-width:5px;"/>
        <path d="M257,310C257,310 281.933,285.684 295,282" style="fill:none;stroke:black;stroke-width:5px;"/>
        <path d="M281,328C284.177,324.482 305.616,291.164 323,286" style="fill:none;stroke:black;stroke-width:5px;"/>
        <path d="M340,294C340,294 348.335,280.721 358,279" style="fill:none;stroke:black;stroke-width:5px;"/>
        <path d="M320,243C322.285,244.711 329.459,247.694 337,248C347.38,248.421 360.61,238.037 370,238C379.39,237.963 380,242 380,242" style="fill:none;stroke:black;stroke-width:5px;"/>
        <path d="M314,238C314,238 329.97,239.068 336,235C342.03,230.932 347.312,225.756 356,226" style="fill:none;stroke:black;stroke-width:5px;"/>
        <path d="M294,210C295.584,213.601 306.753,221.87 315,222C323.247,222.13 336.228,219.642 353,210" style="fill:none;stroke:black;stroke-width:5px;"/>
        <path d="M462,108.678C462,108.678 464.244,111.571 463,116C461.706,120.606 459,123.413 459,123.413" style="fill:none;stroke:black;stroke-width:5px;"/>
        <g transform="matrix(-1,0,0,1,906.376,-4.33915)">
            <path d="M462,111.678C463.429,115.825 463.235,119.61 462,123.165" style="fill:none;stroke:black;stroke-width:5px;"/>
        </g>
    </g>
    <g transform="matrix(1,0,0,1,-50,0)">
        <path d="M447.39,348.151C451.645,346.845 461.032,320.846 465.147,320.095" style="fill:none;stroke:black;stroke-width:5px;"/>
        <g transform="matrix(1,0,0,1,60.2068,-10.4044)">
            <path d="M444.893,347.873C451.275,348.51 456.269,316.962 461.402,317.182" style="fill:none;stroke:black;stroke-width:5px;"/>
        </g>
        <g transform="matrix(1,0,0,1,81.5705,-20.1984)">
            <path d="M447.39,348.151C449.615,347.716 453.3,326.294 457.395,323.125" style="fill:none;stroke:black;stroke-width:5px;"/>
        </g>
        <g transform="matrix(1,0,0,1,100.853,-25.4728)">
            <path d="M446.974,346.486C449.199,346.052 451.635,325.739 455.73,322.57" style="fill:none;stroke:black;stroke-width:5px;"/>
        </g>
        <g transform="matrix(1,0,0,1,120.969,-35.4471)">
            <path d="M446.974,346.486C449.199,346.052 448.583,334.202 452.678,331.032" style="fill:none;stroke:black;stroke-width:5px;"/>
        </g>
        <g transform="matrix(1,0,0,1,38.7987,-2.66353)">
            <path d="M445.703,347.529C451.572,347.074 458.967,312.77 463.727,313.703" style="fill:none;stroke:black;stroke-width:5px;"/>
        </g>
        <g transform="matrix(1,0,0,1,16.0699,4.08408)">
            <path d="M446.974,347.596C451.36,347.96 466.982,310.453 470.396,310.956" style="fill:none;stroke:black;stroke-width:5px;"/>
        </g>
    </g>
    <g transform="matrix(1,0,0,1,-50,0)">
        <path d="M686.632,271.795C686.632,271.795 697.036,292.326 690.378,303.008" style="fill:none;stroke:black;stroke-width:5px;"/>
        <path d="M703.14,288.719C703.14,292.465 703.279,306.338 700.366,309.528" style="fill:none;stroke:black;stroke-width:5px;"/>
        <path d="M711.741,299.124C711.741,299.124 710.354,311.887 706.608,315.355" style="fill:none;stroke:black;stroke-width:5px;"/>
        <path d="M717.013,311.47C716.042,314.939 714.654,322.291 711.741,324.511" style="fill:none;stroke:black;stroke-width:5px;"/>
        <path d="M723.81,321.042C722.423,323.817 717.013,330.753 717.013,330.753" style="fill:none;stroke:black;stroke-width:5px;"/>
        <path d="M728.361,328.534C727.454,331.151 724.707,334.647 722.284,336.025" style="fill:none;stroke:black;stroke-width:5px;"/>
    </g>
    <g transform="matrix(1,0,0,1,-50,0)">
        <path d="M289.434,407.986C289.434,407.986 289.989,419.361 287.769,419.361" style="fill:none;stroke:black;stroke-width:5px;"/>
        <path d="M303.861,399.107C303.861,399.107 304,408.679 302.058,409.789" style="fill:none;stroke:black;stroke-width:5px;"/>
        <path d="M314.821,386.483C314.821,386.483 316.763,397.165 315.375,399.107" style="fill:none;stroke:black;stroke-width:5px;"/>
        <path d="M323.421,374.831C323.421,374.831 330.635,381.212 325.919,388.703" style="fill:none;stroke:black;stroke-width:5px;"/>
        <path d="M333.132,362.623C333.132,362.623 341.872,369.698 338.82,381.767" style="fill:none;stroke:black;stroke-width:5px;"/>
        <path d="M342.982,353.606C342.982,353.606 353.109,355.132 351.999,368.727" style="fill:none;stroke:black;stroke-width:5px;"/>
        <path d="M354.773,344.034C354.773,344.034 362.264,349.028 361.71,359.293" style="fill:none;stroke:black;stroke-width:5px;"/>
        <path d="M361.739,332.519C361.739,332.519 373.085,334.045 372.946,355.548" style="fill:none;stroke:black;stroke-width:5px;"/>
    </g>
    <g transform="matrix(1,0,0,1,-50,0)">
        <path d="M667.346,475.744C667.346,475.744 665.813,456.653 678.177,447.777C685.103,442.805 692.209,439.969 698.243,441.207C701.705,441.917 706.233,444.847 706.233,452.305C706.233,459.763 700.731,463.878 694.869,464.202C677.201,465.178 667.346,475.744 667.346,475.744Z" style="fill:rgb(255,0,0);"/>
        <path d="M667.346,475.744C667.346,475.744 665.813,456.653 678.177,447.777C685.103,442.805 692.209,439.969 698.243,441.207C701.705,441.917 706.233,444.847 706.233,452.305C706.233,459.763 700.731,463.878 694.869,464.202C677.201,465.178 667.346,475.744 667.346,475.744ZM673.182,465.323C678.355,462.465 685.561,459.709 694.593,459.209C698.006,459.021 701.233,456.647 701.233,452.305C701.233,448.282 699.106,446.488 697.238,446.105C692.342,445.1 686.713,447.804 681.093,451.838C677.115,454.694 675.007,458.919 673.812,462.895C673.565,463.716 673.357,464.529 673.182,465.323Z"/>
        <path d="M723.344,511.005C723.344,511.005 727.872,499.907 733.998,495.202C740.124,490.496 753.314,481.845 745.007,472.206C737.061,462.985 724.021,474.88 721.036,484.805C718.24,494.1 723.344,511.005 723.344,511.005Z" style="fill:rgb(255,0,0);"/>
        <path d="M723.344,511.005C723.344,511.005 718.24,494.1 721.036,484.805C724.021,474.88 737.061,462.985 745.007,472.206C753.314,481.845 740.124,490.496 733.998,495.202C727.872,499.907 723.344,511.005 723.344,511.005ZM725.448,497.166C727.086,494.908 728.949,492.775 730.952,491.236C733.74,489.095 738.19,486.117 740.943,482.517C741.952,481.198 742.803,479.833 742.662,478.311C742.575,477.377 742.07,476.457 741.22,475.47C739.129,473.045 736.355,473.885 733.921,475.496C730.227,477.94 727.015,482.284 725.824,486.245C724.897,489.325 724.979,493.339 725.448,497.166Z"/>
        <path d="M681.671,433.196C681.671,433.196 689.799,431.761 697.652,432.983C705.21,434.16 714.769,437.884 714.769,437.884C710.08,435.022 709.602,428.192 715.338,415.51C715.338,415.51 710.563,412.528 705.891,412.669C687.14,413.238 681.671,433.196 681.671,433.196Z" style="fill:rgb(255,0,0);"/>
        <path d="M681.671,433.196C681.671,433.196 687.14,413.238 705.891,412.669C710.563,412.528 715.338,415.51 715.338,415.51C709.602,428.192 710.08,435.022 714.769,437.884C714.769,437.884 705.21,434.16 697.652,432.983C689.799,431.761 681.671,433.196 681.671,433.196ZM706.154,429.789C706.255,426.669 707.091,422.783 708.868,418.055C707.979,417.805 707.009,417.638 706.042,417.667C697.657,417.921 692.582,422.994 689.712,427.508C692.396,427.461 695.427,427.577 698.421,428.043C700.916,428.431 703.617,429.08 706.154,429.789Z"/>
    </g>
    <g transform="matrix(1,0,0,1,-50,0)">
        <path d="M580.263,503.217C580.263,503.217 581.506,489.005 584.347,485.187C587.188,481.369 590.844,478.336 590.917,473.475C590.991,468.579 586.462,462.721 579.819,462.82C572.192,462.935 567.685,473.172 567.655,478.535C567.566,494.428 580.263,503.217 580.263,503.217Z" style="fill:rgb(255,0,0);"/>
        <path d="M580.263,503.217C580.263,503.217 567.566,494.428 567.655,478.535C567.685,473.172 572.192,462.935 579.819,462.82C586.462,462.721 590.991,468.579 590.917,473.475C590.844,478.336 587.188,481.369 584.347,485.187C581.506,489.005 580.263,503.217 580.263,503.217ZM576.772,492.248C576.949,491.344 577.143,490.444 577.354,489.579C578.119,486.446 579.2,483.728 580.336,482.202C581.491,480.65 582.776,479.224 583.91,477.757C584.92,476.45 585.891,475.16 585.917,473.399C585.957,470.786 583.439,467.767 579.894,467.82C577.757,467.852 576.263,469.594 575.095,471.412C573.573,473.781 572.666,476.604 572.655,478.563C572.623,484.256 574.558,488.856 576.772,492.248Z"/>
        <path d="M506.416,474.987C502.429,483.467 505.617,500.912 505.617,500.912C505.617,500.912 512.969,490.201 522.486,484.921C527.778,481.984 533.824,479.963 534.738,475.216C536.22,467.522 528.861,458.572 520.266,461.164C516.215,462.387 510.405,466.501 506.416,474.987Z" style="fill:rgb(255,0,0);"/>
        <path d="M506.416,474.987C510.405,466.501 516.215,462.387 520.266,461.164C528.861,458.572 536.22,467.522 534.738,475.216C533.824,479.963 527.778,481.984 522.486,484.921C512.969,490.201 505.617,500.912 505.617,500.912C505.617,500.912 502.429,483.467 506.416,474.987ZM510.941,477.114C509.619,479.925 509.381,483.946 509.412,487.734C509.415,488.093 509.422,488.45 509.431,488.804C512.418,485.843 516.068,482.763 520.06,480.549C522.612,479.133 525.351,477.951 527.556,476.538C528.587,475.877 529.623,475.34 529.828,474.27C530.273,471.963 529.291,469.499 527.654,467.775C526.174,466.215 524.041,465.248 521.71,465.951C518.499,466.92 514.103,470.388 510.941,477.114Z"/>
        <path d="M472.295,418.446C472.295,418.446 480.662,409.245 494.882,408.786C505.891,408.431 508.519,415.321 508.519,415.321C508.519,415.321 503.449,418.251 501.301,420.207C499.051,422.255 495.024,427.609 495.024,427.609C495.024,427.609 490.169,424.505 487.424,423.063C483.233,420.861 472.295,418.446 472.295,418.446Z" style="fill:rgb(255,0,0);"/>
        <path d="M472.295,418.446C472.295,418.446 480.662,409.245 494.882,408.786C505.891,408.431 508.519,415.321 508.519,415.321C508.519,415.321 503.449,418.251 501.301,420.207C499.051,422.255 495.024,427.609 495.024,427.609C495.024,427.609 490.169,424.505 487.424,423.063C483.233,420.861 472.295,418.446 472.295,418.446ZM500.304,414.658C498.968,414.11 497.231,413.713 495.043,413.784C490.65,413.926 486.915,415.045 483.947,416.406C486.204,417.118 488.332,417.892 489.75,418.637C490.921,419.252 492.46,420.156 493.873,421.011C495.225,419.364 496.792,417.55 497.934,416.51C498.558,415.942 499.399,415.299 500.304,414.658Z"/>
        <g transform="matrix(0.866025,0.5,-0.5,0.866025,550.898,-24.5409)">
            <path d="M160.652,496.754C160.652,496.754 164.539,482.14 179.288,471.579C187.546,465.666 187.748,458.006 182.682,451.472C179.224,447.01 173.196,443.664 163.495,448.392C157.109,451.504 151.641,460.103 151.107,467.935C150.164,481.755 160.652,496.754 160.652,496.754Z" style="fill:rgb(255,0,0);"/>
            <path d="M160.652,496.754C160.652,496.754 150.164,481.755 151.107,467.935C151.641,460.103 157.109,451.504 163.495,448.392C173.196,443.664 179.224,447.01 182.682,451.472C187.748,458.006 187.546,465.666 179.288,471.579C164.539,482.14 160.652,496.754 160.652,496.754ZM160.092,485.664C163.201,480.172 168.313,473.288 176.377,467.514C179.124,465.547 180.724,463.425 181.023,461.116C181.313,458.877 180.365,456.643 178.731,454.535C177.64,453.128 176.184,451.838 174.195,451.331C171.939,450.756 169.157,451.195 165.685,452.887C160.681,455.326 156.514,462.138 156.095,468.276C155.676,474.415 157.829,480.803 160.092,485.664Z"/>
        </g>
    </g>
    <g transform="matrix(1,0,0,1,-50,0)">
        <g transform="matrix(1,0,0,1,50,0)">
            <path d="M233,486C222.229,499.238 205.552,501.991 205.552,501.991C205.552,501.991 210.727,486.802 212,474C212.897,464.971 224.277,458.29 229,459.274C246.277,462.873 241.229,475.887 233,486Z" style="fill:rgb(255,0,0);"/>
        </g>
        <g transform="matrix(1,0,0,1,50,0)">
            <path d="M233,486C222.229,499.238 205.552,501.991 205.552,501.991C205.552,501.991 210.727,486.802 212,474C212.897,464.971 224.277,458.29 229,459.274C246.277,462.873 241.229,475.887 233,486ZM229.122,482.844C231.614,479.781 233.815,476.438 234.922,473.217C235.637,471.14 236.015,469.148 234.92,467.558C233.783,465.907 231.485,464.899 227.98,464.169C226.927,463.95 225.399,464.783 223.769,465.742C220.655,467.574 217.358,470.646 216.975,474.495C216.296,481.334 214.548,488.829 213.009,494.501C217.963,492.439 224.228,488.859 229.122,482.844Z"/>
        </g>
        <path d="M206.523,469.415C196.125,492.966 212.774,508.137 212.774,508.137C212.774,508.137 212.27,494.208 220.16,484.891C224.877,479.323 230.553,475.185 230.957,471.652C231.639,465.685 221.483,458.933 217.319,459.094C212.763,459.27 208.034,465.993 206.523,469.415Z" style="fill:rgb(255,0,0);"/>
        <path d="M206.523,469.415C208.034,465.993 212.763,459.27 217.319,459.094C221.483,458.933 231.639,465.685 230.957,471.652C230.553,475.185 224.877,479.323 220.16,484.891C212.27,494.208 212.774,508.137 212.774,508.137C212.774,508.137 196.125,492.966 206.523,469.415ZM225.994,470.977C225.988,470.612 225.744,470.271 225.524,469.905C225.149,469.283 224.651,468.686 224.092,468.121C222.628,466.638 220.757,465.381 219.079,464.631C218.464,464.356 217.934,464.074 217.512,464.09C216.736,464.12 216.087,464.835 215.38,465.489C213.429,467.292 211.807,469.827 211.097,471.434C206.98,480.759 207.784,488.55 209.822,494.216C211.077,490.006 213.097,485.494 216.345,481.66C218.768,478.799 221.431,476.3 223.547,474.068C224.233,473.345 224.851,472.66 225.352,471.999C225.597,471.675 225.911,471.125 225.994,470.977Z"/>
        <path d="M138.586,408.281C138.586,408.281 149.772,387.87 165.133,387.772C174.1,387.715 178.805,393.454 176.852,397.893C174.899,402.333 167.337,410.072 164.245,409.613C160.697,409.087 157.791,406.623 152.332,406.477C147.837,406.357 138.586,408.281 138.586,408.281Z" style="fill:rgb(255,0,0);"/>
        <path d="M138.586,408.281C138.586,408.281 149.772,387.87 165.133,387.772C174.1,387.715 178.805,393.454 176.852,397.893C174.899,402.333 167.337,410.072 164.245,409.613C160.697,409.087 157.791,406.623 152.332,406.477C147.837,406.357 138.586,408.281 138.586,408.281ZM149.658,401.576C150.691,401.496 151.651,401.457 152.466,401.479C155.861,401.57 158.468,402.355 160.772,403.225C162.008,403.692 163.097,404.228 164.247,404.519C164.811,404.151 166.126,403.267 166.989,402.476C169.193,400.456 171.427,397.808 172.276,395.88C172.44,395.506 172.046,395.189 171.719,394.848C171.013,394.112 169.955,393.556 168.652,393.196C167.622,392.912 166.454,392.764 165.164,392.772C160.263,392.803 155.979,395.609 152.502,398.746C151.484,399.664 150.534,400.621 149.658,401.576Z"/>
        <path d="M160.652,496.754C160.652,496.754 160.907,475.707 175.656,465.146C183.914,459.233 184.964,449.946 178.941,444.282C171.202,437.002 152.572,448.543 152.839,467.099C153.037,480.95 160.652,496.754 160.652,496.754Z" style="fill:rgb(255,0,0);"/>
        <path d="M160.652,496.754C160.652,496.754 153.037,480.95 152.839,467.099C152.572,448.543 171.202,437.002 178.941,444.282C184.964,449.946 183.914,459.233 175.656,465.146C160.907,475.707 160.652,496.754 160.652,496.754ZM159.53,478.779C162.013,472.511 166.081,465.853 172.745,461.081C178.002,457.317 179.35,451.53 175.516,447.924C174.113,446.605 171.988,446.917 169.865,447.723C166.647,448.945 163.429,451.632 161.124,455.282C159.083,458.513 157.773,462.515 157.838,467.028C157.894,470.932 158.589,475.002 159.53,478.779Z"/>
    </g>
    <g transform="matrix(1,0,0,1,-50,0)">
        <path d="M158.326,205.22C158.326,205.22 165.67,220.338 180.486,220.562C189.862,220.704 198.811,218.999 201.723,211.257C204.15,204.806 202.735,199.936 198.669,196.413C194.815,193.073 186.573,191.641 180.415,199.609C173.353,208.748 158.326,205.22 158.326,205.22Z" style="fill:rgb(255,0,0);"/>
        <path d="M158.326,205.22C158.326,205.22 173.353,208.748 180.415,199.609C186.573,191.641 194.815,193.073 198.669,196.413C202.735,199.936 204.15,204.806 201.723,211.257C198.811,218.999 189.862,220.704 180.486,220.562C165.67,220.338 158.326,205.22 158.326,205.22ZM168.72,210.692C171.596,213.253 175.535,215.486 180.562,215.563C184.604,215.624 188.562,215.355 191.816,214.169C194.181,213.306 196.131,211.924 197.044,209.497C198.557,205.474 197.93,202.388 195.395,200.191C193.045,198.155 188.125,197.809 184.372,202.666C180.708,207.407 175.457,209.638 170.396,210.466C169.833,210.559 169.273,210.633 168.72,210.692Z"/>
        <path d="M146.4,196.674C146.4,196.674 148.887,186.013 158.901,177.497C166.501,171.033 172.68,172.028 173.106,166.63C174.023,155.012 173.515,146.169 168.489,145.463C164.441,144.895 143.651,151.78 141.996,165.138C140.711,175.513 146.4,196.674 146.4,196.674Z" style="fill:rgb(255,0,0);"/>
        <path d="M146.4,196.674C146.4,196.674 140.711,175.513 141.996,165.138C143.651,151.78 164.441,144.895 168.489,145.463C173.515,146.169 174.023,155.012 173.106,166.63C172.68,172.028 166.501,171.033 158.901,177.497C148.887,186.013 146.4,196.674 146.4,196.674ZM167.402,150.507C166.907,150.58 166.169,150.702 165.574,150.854C163.119,151.48 159.911,152.687 156.794,154.438C152.244,156.993 147.595,160.611 146.958,165.753C146.431,170.012 147.178,176.2 148.188,181.821C150.122,179.122 152.575,176.313 155.661,173.688C159.12,170.747 162.308,169.144 164.934,167.909C165.867,167.471 166.71,167.093 167.436,166.693C167.718,166.538 168.095,166.575 168.122,166.236C168.542,160.916 168.684,156.231 168.098,152.796C167.962,152.004 167.604,151.023 167.402,150.507Z"/>
        <path d="M156.222,106.915C156.222,106.915 166.114,103.961 174.418,105.999C179.049,107.135 184.881,110.999 184.881,110.999L202.914,97.681C202.914,97.681 199.037,89.532 186.479,88.181C169.596,86.365 156.222,106.915 156.222,106.915Z" style="fill:rgb(255,0,0);"/>
        <path d="M156.222,106.915C156.222,106.915 169.596,86.365 186.479,88.181C199.037,89.532 202.914,97.681 202.914,97.681L184.881,110.999C184.881,110.999 179.049,107.135 174.418,105.999C166.114,103.961 156.222,106.915 156.222,106.915ZM168.66,100.316C170.96,100.351 173.337,100.585 175.61,101.143C178.648,101.888 182.144,103.64 184.582,105.004C184.582,105.004 195.639,96.838 195.639,96.838C193.692,95.303 190.588,93.652 185.944,93.153C180.488,92.565 175.54,95.039 171.501,98.016C170.499,98.755 169.55,99.531 168.66,100.316Z"/>
        <path d="M225.898,74.05C225.898,74.05 243.174,72.175 251.568,80.636C257.582,86.698 259.536,99.533 259.536,99.533L235.785,100.38C236.243,93.737 235.32,91.042 233.966,87.027C232.548,82.817 225.898,74.05 225.898,74.05Z" style="fill:rgb(255,0,0);"/>
        <path d="M225.898,74.05C225.898,74.05 243.174,72.175 251.568,80.636C257.582,86.698 259.536,99.533 259.536,99.533L235.785,100.38C236.243,93.737 235.32,91.042 233.966,87.027C232.548,82.817 225.898,74.05 225.898,74.05ZM235.447,79.186C236.864,81.466 238.146,83.772 238.705,85.43C239.814,88.722 240.664,91.24 240.865,95.196C240.865,95.196 253.394,94.749 253.394,94.749C252.408,91.248 250.724,86.885 248.019,84.158C245.371,81.489 241.543,80.252 237.974,79.575C237.117,79.412 236.269,79.285 235.447,79.186Z"/>
    </g>
    <g transform="matrix(1,0,0,1,-50,0)">
        <path d="M357.964,87.127C357.964,87.127 338.069,97.54 338.936,105.864C339.803,114.187 357.664,131.528 371.883,135.516C386.103,139.505 425.899,151.936 438.746,151.267C447.407,150.816 443.448,162.475 441.051,164.428C438.654,166.381 414.079,164.409 407.535,163.474C395.105,161.698 374.841,156.992 366.782,155.039C349.471,150.843 332.778,142.609 323.988,137.371C315.199,132.133 305.228,123.36 303.302,108.161C300.881,89.063 320.964,69.294 338.105,72.558C346.948,74.242 357.964,87.127 357.964,87.127Z" style="fill:rgb(255,0,0);"/>
        <path d="M357.964,87.127C357.964,87.127 338.069,97.54 338.936,105.864C339.803,114.187 357.664,131.528 371.883,135.516C386.103,139.505 425.899,151.936 438.746,151.267C447.407,150.816 443.448,162.475 441.051,164.428C438.654,166.381 414.079,164.409 407.535,163.474C395.105,161.698 374.841,156.992 366.782,155.039C349.471,150.843 332.778,142.609 323.988,137.371C315.199,132.133 305.228,123.36 303.302,108.161C300.881,89.063 320.964,69.294 338.105,72.558C346.948,74.242 357.964,87.127 357.964,87.127ZM437.989,160.108C438.292,159.47 438.722,158.488 438.887,157.742C438.978,157.333 439.006,156.706 439.014,156.26L439.006,156.26C425.858,156.945 385.085,144.412 370.533,140.33C359.69,137.289 346.836,127.212 339.816,118.274C336.326,113.831 334.292,109.537 333.963,106.382C333.577,102.68 335.49,98.483 339.018,94.724C342.16,91.376 346.531,88.257 350.002,86.035C348.772,84.853 347.336,83.556 345.788,82.315C343.063,80.131 340.014,78.012 337.17,77.47C330.117,76.127 322.565,79.798 316.919,85.494C311.128,91.335 307.24,99.473 308.262,107.532C309.953,120.872 318.834,128.478 326.548,133.076C335.054,138.145 351.207,146.119 367.96,150.18C375.926,152.111 395.955,156.769 408.242,158.524C413.592,159.288 431.63,160.883 437.989,160.108Z"/>
        <path d="M383.319,118.732C381.292,128.408 381.144,131.809 385.983,138.645C391.994,137.517 397.344,135.955 401.698,127.724L383.319,118.732Z" style="fill:rgb(255,0,0);"/>
        <path d="M383.319,118.732L401.698,127.724C397.344,135.955 391.994,137.517 385.983,138.645C381.144,131.809 381.292,128.408 383.319,118.732ZM387.107,126.151C386.882,128.703 387.181,130.691 388.351,132.985C390.447,132.376 392.421,131.44 394.231,129.637L387.107,126.151Z"/>
        <g transform="matrix(0.866025,-0.5,0.5,0.866025,7.86316,219.821)">
            <path d="M388.741,117.864C383.197,125.818 381.952,130.943 386.79,137.779C392.801,136.651 396.733,132.219 401.086,123.988L388.741,117.864Z" style="fill:rgb(255,0,0);"/>
            <path d="M388.741,117.864L401.086,123.988C396.733,132.219 392.801,136.651 386.79,137.779C381.952,130.943 383.197,125.818 388.741,117.864ZM390.506,124.321C389.362,126.316 388.711,128.088 388.786,129.899C388.81,130.476 388.919,131.045 389.107,131.62C390.991,130.458 392.557,128.608 394.128,126.118L390.506,124.321Z"/>
        </g>
        <g transform="matrix(0.866025,-0.5,0.5,0.866025,19.5827,220.886)">
            <path d="M388.741,117.864C380.568,125.222 384.397,138.55 384.397,138.55C384.397,138.55 393.776,141.779 398.834,123.806L388.741,117.864Z" style="fill:rgb(255,0,0);"/>
            <path d="M388.741,117.864L398.834,123.806C393.776,141.779 384.397,138.55 384.397,138.55C384.397,138.55 380.568,125.222 388.741,117.864ZM388.519,132.424C389.824,131.365 391.401,129.465 392.797,126.053L389.951,124.378C389.201,125.847 388.827,127.431 388.644,128.93C388.494,130.159 388.473,131.349 388.519,132.424Z"/>
        </g>
    </g>
</svg>
