<?xml version="1.0" encoding="UTF-8"?>
<svg width="629.27" height="799.71" viewBox="0 0 471.95 599.78" xmlns="http://www.w3.org/2000/svg">
<path d="M-.59-.75v364.94c.123 130.56 106 236.34 236.56 236.34s236.44-105.78 236.56-236.34V-.75z" fill="#f00000"/>
<path d="m94.898 31.386-.002.001c-1.97-.16-4.106.777-5.062 2.483-1.06 2.02-1.29 4.6-.68 6.79 1.78 3.87 6.051 6.376 9.136 9.082-1.068 2.932-1.837 10.008-2.417 14.097-.75 3.96 1.018 12.086 2.627 15.727-.782 5.78-.456 7.264.075 10.024 2.514-3.517 3.249-5.236 4.453-6.11 1.406 2.698 2.737 4.414 5.039 5.583 1.39 2.75 1.748 3.887 3.318 6.577 1.07-1.53 2.098-3.08 3.129-4.63 2.53.78 5.42 1.34 7.66 2.78 1.51 1.53 1.631 5.32 2.841 7.08 2.57-2.03 5.298-6.16 8.89-6.12 6.46-.26 13.691.04 19.702 2.64 4.24 1.97 7.649 8.08 3.659 11.92-6.29 5.62-15.859 7.1-23.899 5.24-3.05-.41-4.3-3.83-6.06-6.04-2.58 1.96-6.22 5.36-9.71 3.94-3.57-1.32-4.12-5.63-4.98-8.82 6.53.65 12.39 3.31 18.76 4.51-5.91-7.44-16.35-11.08-25.57-11.67-12.1-.84-24.63-1.9-36.11-6.19-3.52-1.42-7.51-3.29-9.019-7.04-.66-1.64-1.3-4.05-.19-5.62 2.07-3.1 4.95-5.57 7.02-8.701-5.22-.692-13.2 2.79-16.31 8.27-3.18 6.3-1.66 15.168 3.75 19.829 2.98 2.62 6.68 4.53 10.56 5.41 9.94 2.02 19.049.83 28.989.75-1.79 4.7-5.07 7.79-8.82 10.95.53 3.06 1.62 6.28 1.52 9.4-.79 2.07-2.88 3.87-4.87 4.78-5.57 1.83-12.38 0-17.77 2.22-3.93 1.65-3.37 7.141-4.36 10.641-.34 2.94-3.04 4.32-4.91 6.38 2.48 1.15 4.51 2.27 7.28 1.16 4.18-1.1 4.59-8.111 8.08-10.042 3.06-1.29 6.99-.808 10.27-1.058 4.6-.13 9.259-2.22 13.809-1.9 4.38.8 8.75 1.86 12.98 3.24 4.13 1.31 8.25.91 12.35 2.08 4.08 1.15 7.531 2.879 11.861 3.079 5.59.21 11.48.25 16.96-.93 2.04 1.46 4.1 2.89 6.21 4.26-5.83.87-11.28-.598-17.11-.468-6.41.07-13.05.28-19.34 1.6-4.04.61-8.35.829-12.381.149-2.94-1.36-5.26-4.14-7.82-6.11-.49 3.43-1.099 6.95-1.069 10.42.09 3.49 1.909 6.926 3.059 10.166-7.887 2.513-15.738 6.835-20.429 13.825-3.89 4.61-5.34 10.42-8.75 15.25-3.25 4.58-8.263 5.338-13.163 8.588 3.305 3.787 5.857 5.375 10.551 7.23-.52 2.36-1.07 4.61-.87 7.05.22 5.97 3.3 10.88 3.54 16.8.19 5.23.17 10.59-.67 15.761-.71 4.24-4.466 10.201-6.456 13.872 5.23 1.09 12.036.576 17.215-.872 2.097 3.2 3.99 7.3 7.17 9.59 8.66 9.112 27.157 15.588 31.67 17.674 3.28 2.77 8.511 10.227 9.87 14.137 3.05-4.76 6.44-9.21 9.011-14.28 4.25 1.8 8.08 4.03 12.81 4.15 6.86.14 13.95.3 20.6-1.39 8.64-2.27 18.819-2.758 28.963-4.435 2.718 2.166 5.076 3.606 7.216 5.356.347-1.278.39-3.53.192-6.151 9.254-1.533 17.97-.78 27.03-.92 5.13-.06 11.987.037 17.447-.268 3.846 3.545 8.73 4.078 12.16 5.078-.6-1.92-1.762-5.158-2.402-7.068 11.138-2.827 25.25-2.045 34.148-1.35 3.418 1.88 8.127 5.419 10.453 9.62 1.342-1.683 2.988-7.633 3.074-10.518 5.93.4 9.819 3.156 14 7.236 2.46 2.16 1.84 6.639.57 9.268-2.4 2.21-6.09.36-8.91.04 3.845 5.96 8.06 9.503 13.627 8.906-6.39 4.3-19.534 11.152-32.058 7.106-7.655-3.87-12.038-8.663-17.106-9.758-5.99-1.82-14.338-.926-20.568-1.016 1.96 2.1 6.64 7.841 8.58 9.971-9.858-1.72-20.583-2.985-26.846-5.82-4.75-2.2-9.41-4.2-14.51-5.46-3.81-.97-7.78-1.449-11.53-2.569-3.22-.96-6.15-3-9.25-4.4 1.5 3.33 3.32 6.48 4.69 9.87-4.93.08-9.758.03-14.548-1.24-4.17-.94-8.062-2.73-12.202-3.73-8.17-1.68-21.203-1.415-29.493-.535-3.748-1.648-6.998-2.019-9.727-2.536 1.56 3.2 3.206 6.27 5.326 9.11-22.44 5.041-36.604 23.802-45.735 28.8-4.82 2.7-10.07 1.74-15.4 2.04-.91 7.585 6.18 9.785 11.261 13.276-.52 3.18-1.73 3.803-2.56 6.933-2.24 7.58-1.17 16.39.18 24.06 1.35 7.37 7.11 15.021 6.49 22.47-.91 4.53-1.257 7.871-4.29 12.422 5.699.17 10.2-1.183 13.604-4.546.792 1.092 1.257 1.435 2.687 3.075 2.71 3.7 5.918 6.76 9.828 9.18 5.02 3.4 10.891 4.64 15.891 8.06 4.25 2.85 9.068 4.92 12.428 8.59 2.5 2.66 5.749 6.352 8.269 8.992 2.273-2.66 6.9-8.706 7.677-13.23 5.264 1.43 9.634 1.71 14.766 1.297 3.57-.19 6.81-1.39 10.25-2.16 4.39-.59 7.994-2.046 13.647-3.16 6.043-.33 25.647-1.445 34.163-1.65 3.72.232 10.934 2.699 14.67 6.74 1.25-3.44 1.82-7 2.36-10.6 4.38.59 8.62.92 13.01.25 6.88-.94 13.59-.09 20.36 1.22.92 3.54 1.85 6.9 4.13 9.85 2.45-3.59 4.61-7.29 7.69-10.41.5 1.71 1.85 3.51.87 5.28-1.16 2.53-2.22 4.91-5.04 5.92-5.24 2.59-10.77 2.56-14.77 6.4 2.56.67 5.22 1 7.74 1.79 1.55.47 2.5 2.46 3.5 3.63-4.38.87-8.889 2.933-13.318 2.283-7.68-1.09-14.16-6.183-21.641-7.813-5.49-1.36-5.682-1.29-11.241-2.26.24 1.66 2.498 3.59 2.881 4.98-11.036.026-19.414-.769-24.84-1.547-8.894-1.002-15.97-.557-27.758-10.057-3.575 3.218-.846 8.26.587 9.814-12.48-.395-23.38-.778-34.68 3.25-4.89 1.63-10.37 4.38-15.56 4.43-2.68.24-5.85-3.14-7.553-5.499-.21 2.63-1.105 4.743.514 9.5 1.185 4.499 3.07 4.89 4.8 6.98-11.707 10.868-12.371 24.603-13.22 32.57-2.21 2.66-7.1 2.959-10.21 4.079 3.58 4.34 11.02 4.94 16.21 6.04 1.75 5.01 2.2 9.83 6.17 13.65 4.28 4.79 9.63 7.7 14.93 11.13 3.55 2.18 4.4 5.52 6.12 9.04 1.48-2.42 2.92-4.86 4.44-7.25 5.59 1.64 11.01 3.26 16.89 3.42 4.27.24 9.34-.64 13.31.95 2.81.92 4.36 4.22 6.06 6.46 3.69-2.97 5.412-6.51 6.972-10.869 3.19-.17 6.428-.43 9.618-.22 2.92.09 5.69 2.37 8.13 3.83 1.98-.93 3.97-1.87 6-2.71-1.5 2.42-2.7 4.61-5.61 5.53-4.37 2.18-8.2.9-12.73.29-.82 2.81-1.88 5.209-.98 8.179 1.15 3.67 1.72 8.66 5.95 10.06 4.39 1.69 8.77 3.65 13.29 4.94 3.238-.436 8.335-1.854 12.237-5.344 7.206 1.108 12.655-2.896 13.634-7.58 8.637-1.196 10.833-13.39 4.33-17.429 1.516-1.806 3.07-2.566 3.16-5.446-.377-5.38.447-10.432-7.25-11.896.44-3.367-.5-7.453-2.96-9.604-3.72-3.47-8.071-3.82-12.601-5.46-2.64-.94-4.221-2.85-5.981-4.9 2.31-.37 4.851-.97 7.201-.71 3.82.7 7.301 3.48 11.141 3.98 4.38-.19 9.956-2.076 12.777-6.168 3.548 4.37 8.373 6.238 13.263 5.858 4.77.11 8.91-3.688 11.674-6.472 4.278 3.008 12.349 4.159 17.67 2.769 4.181-1.89 7.861-5.657 9.07-10.611 4.795 1.325 11.106.652 14.726-2.908 3.22-2.94 5.835-8.27 5.427-14.915 5.218.7 9.273.516 12.194-3.454 2.93-3.73 2.74-9.526 2.303-14.249 3.665-1.872 6.756-4.021 7.806-8.761 1.32-4.93-.76-14.955-7.379-16.846 6.3-6.986 4.332-12.9-1.53-18.916-3.06-2.88-4.98-3.6-11.473-3.394.147-7.999-4.098-15.415-10.698-17.465-5.38-2.09-11.544-.143-15.864 2.348-4.221-9.877-16.124-15.667-26.564-5.058-4.217-3.594-9.022-6.1-14.342-5.53-3.72.18-7.315 1.383-10.028 3.794-5.331-2.669-11.793-3.624-17.733-2.374-3.43.87-5.44 3.21-8.43 4.79-2.96-.43-5.809-2.02-8.559-3.14.82-3.01 2.707-5.82 3.252-9.974 6.851 4.757 14.568 3.722 20.469 1.982 2.91-.54 2.499-1.195 5.159-4.057 6.3 6.924 19.841 8.571 29.199.602 10.609 5.497 21.356 4.792 28.418-3.415 9.053 6.88 24.113-1.215 28.27-8.053 4.396 1.485 7.614 1.936 10.894.016 3.39-1.93 7.11-4.47 9.12-7.9 1.65-2.53 3.103-4.141 2.283-7.846 4.282-.527 9.495-3.625 11.685-7.295 2.35-3.59 2.892-10.458 2.237-14.988 8.908-3.927 10.848-17.261 4.116-24.098 2.885-3.141 3.438-5.593 3.988-8.452 1.003-11.25-4.765-17.208-13.97-21.678 1.595-8.13-1.806-14.039-8.5-17.693-3.92-1.96-11.844-3.531-16.101-1.73-3.77-11.427-18.936-14.002-26.587-7.961-.797-3.993-9.461-9.286-13.889-10.32 3.832-1.065 13.962-3.337 15.186-7.204 5.942 4.348 15.822 3.727 22.1 1.715 4.64-1.68 7.036-4.41 8.731-7.98 6.147 1.764 12.95.69 17.48-1.76 5.36-2.78 8.173-8.647 9.75-14.516 4.988-.005 11.163-4.873 13.642-7.832 3.04-3.896 4.457-12.65 2.763-16.062 2.99-.643 5.525-2.65 7.485-5.95 1.55-2.7 2.64-5.769 3.32-8.809.83-4.05.141-10.34-3.69-13.851 3.562-2.048 6.75-5.469 7.34-10.368.97-6.43-1.37-18.015-9.882-20.23 4.032-11.014-2.01-21.104-9.268-25.57-3.55-2.29-9.078-2.596-12.94-1.96-3.966-12.549-10.978-19.523-24.856-19.417-3.81.01-7.796 1.435-11.068 3.291-9.83-13.021-19.616-11.04-33.76-3.486-11.95-6.716-22.417-6.336-31.697-1.08-2.23 1.26-3.477 3.023-4.779 5.773-4.063-3.846-14.185-4.112-19.982-2.533-4.317 1.177-8.328 3.307-11.732 7.4-5.853-3.545-13.277-3.63-19.208-2.37-5.43 1.28-7.791 5.92-13.881 5.01 4.337-10.503 6.984-19.792 4.37-31.72-4.08 6.072-5.303 8.8-12.87 13.345-.88-5.94-2.53-13.906-6.57-18.576-4.268 9.714-7.792 9.795-13.85 15.102-2.03 1.69-3.2 3.79-4.66 5.95-8.36-1.25-16.61-2.82-24.61-5.63-4.53-1.46-8.658-2.84-13.328-.91-4.15 1.45-5.17 5.31-7.672 8.47-1.08 1.84-3.47 1.22-5.12.66-4.39-1.62-6.27-7.541-10.51-9.561-3.17-1.5-6.94-1.76-10.09-2.89-.772-2.819-2.543-5.606-4.309-6.68-2.359-.927-5.507-1.126-7.5-.937-2.14-2.68-3.53-7.293-5.68-10.023-.773-.956-1.896-1.446-3.078-1.542zm7.702 71.11c2.874-.023 5.707.227 8.615.694-1.08 1.86-1.746 4.246-4.05 5.061-3.26 1.153-5.882.798-8.211-1.24-1.086-.951-.21-2.87-.31-4.31a45.028 45.028 0 0 1 3.956-.205zm208.072 13.406c2.91.032 5.865.242 8.97.596 2.507-.133 4.921.73 7.459 1.203 1.69.43 3.95.69 5.28 1.9 1.07 2.31 1.928 7.478 1.057 10.21 4.701-2.808 10.95-9.038 11.817-13.685 3.599.014 11.703 8.138 12.656 16.046.35 3.74-1.81 7.78-4.35 10.42-2.64 2.76-6.449 3.171-9.98 4.031-8.12 1.71-16.832 4.802-24.335 8.616 3.795 1.508 6.892 2.845 10.39 4.021-3.76 4.07-10.224 4.833-15.544 5.233-8.56-.59-17.201-6.78-26.09-6.75-2.86-.22-3.107.335-4.403.876-2.73-1.5-9.437-5.926-11.797-7.956-.13 3.34.479 7.848 1.06 12.486-11.55-1.03-18.75-7.587-29.52-11.427-6.24-1.7-20.648-7.758-29.147-8.559-1.33-.365-1.663 2.58-1.777 4.829-4.67-.848-12.68-2.764-17.627-2.312 1.42-.579 4.402-3.642 5.432-5.369 1.004 2.15 2.3 2.78 3.533 4.28 1.852-1.498 4.207-5.031 5.278-6.723.416 1.779.78 3.334 1.223 5.648 4.786-2.568 10.112-6.054 8.717-8.031 0 0 2.862 4.134 3.405 5.25 2.952-3.471 5.58-8.696 5.88-9.909 14.467-6.766 27.932-8.26 37.979-8.903 2.49.82 12.153 7.239 14.304 8.719.754-2.885 2.565-6.212 2.449-9.208 10.642-4.106 18.953-5.626 27.682-5.531zm-134.07 27.83c1.047-.024 2 .857 1.275 2.079-1.19 1.23-3.41.059-2.45-1.601.342-.32.766-.468 1.176-.478zM153.08 199.96c4.792 4.58 10.164 5.62 14.129 6.662.4 4.15 1.39 8.06 2.71 12-5.672 3.909-8.836 6.797-9.906 9.944-1.757-2.732-11.194-5.8-15.531-2.603.241-2.897-3.178-8.277-6.977-10.149 2.581-2.79 3.048-6.976 1.65-10.64 6.863.807 10.489-1.473 13.925-5.214zm79.973 13.381c5.68 2.34 10.51 5.11 16.91 5.09 5.57.26 11.387-1.285 15.457-3.163 6.5 4.374 13.832 8.703 20.582 7.953 4.06-.28 10.867-2.576 13.978-4.921 5.146 2.893 9.986 4.882 15.164 5.491-5.213 1.134-13.91 3.615-16.625 7.28-8.88-7.664-22.918-5.708-29.472-1.365 0 0-6.59-3.914-12.261-3.854-4.24-.26-11.638 1.27-14.004 5.836-.821-2.679-5.021-5.577-8.882-6.867 1.49-2.35 4.543-3.355 7.228-5.042-4.283-2.057-6.731-2.756-8.474-2.54.12-.305.2-2.021.398-3.898zm-67.99 142.755c2.494 4.892 16.613 7.358 21.484 3.847v.002c-2.398 5.324-3.035 11.334.924 15.172-4.063-1.68-17.124 1.505-18.859 5.96-.5-3.963-6.925-7.729-8.92-7.984 2.23-4.349 1.649-7.75-1.801-12.172 3.255.03 5.384-1.369 7.17-4.825zm52.101 133.575c2.31.25 4.52 1.13 6.85 1.34 2.76.29 5.35-.53 7.98-1.27 2.8 1.95 5.64 3.74 8.74 5.18-2.49.5-5.151 1.3-7.702 1.16-2.9-.38-5.729-1.72-8.619-2.32-3.85-.78-7.698-.21-11.268 1.34-3.53 1.59-7.231.292-10.86-.248 2.4-.56 4.849-.93 7.239-1.56 2.83-.74 5.03-2.662 7.64-3.622z"/>
<path d="M107.153 47.974a5.614 5.614 0 0 0-1.903.306v.001c-2.415.24-2.62 5.286-3.12 7.886-.76 6.51-.882 12.815 1.508 19.135 1.64 5.25 5.29 9.62 10.58 11.42 5.35 1.81 11.171 2.441 16.762 3.141 7.95.31 15.77 1.31 23.36 3.8 3.039 1.05 6.509 3.409 7.429 6.649 1.1 5.29-1.031 10.97-5.861 13.63-6.37 3.62-14.85 4.09-22.02 4.62-3.51.33-5.589-2.48-8.92-2.42-2.68-.16-5.349-.449-8.01-.849-3.17-.49-5.48-4.57-8.91-3.59-3.49.76-6.45.3-9.89-.15-2.79 1.33-5.48 2.95-8.14 4.52.34 2.71 1.299 5.87.699 8.57-1.11 2.95-2.85 6.2-6.21 6.92-6.16 1.46-13.4.36-19.36 2.59-1.84 2.33-1.34 5.72-1.23 8.49 1.98-2.24 2.79-6.08 5.74-6.92 3.96-1.44 8.69-.17 12.81-1.24 4.15-.92 9-2.85 11.74-6.23 1.68-3.29 2.17-6.83 4.65-9.75.48 4.36-.97 8.03-2.07 12.13 2.52-1.78 4.59-3.96 7.45-5.26-.53 2.81-1.63 5.4-2.5 8.109 3.32-.99 5.38-3.34 8.1-5.28-.45 2.71-1.33 5.28-2.18 7.88 3.11-1.11 5.53-1.66 8.84-1.27 1.45-1.87 2.96-3.61 4.78-5.14.27 3.06-1.07 5.23-2.35 7.85 1.96-.88 3.85-1.869 5.76-2.839-.09 1.7-.21 3.389-.29 5.089 1.8-.94 3.46-2.049 5.09-3.249.6 1.2 1.22 2.4 1.86 3.58 2.32-1.58 4.07-3.671 6.03-5.641-.21 2.24-.59 4.46-1.01 6.67 3.02-2.2 5.66-4.83 8.77-6.89-.36 2.23-.9 4.41-1.44 6.6 1.77-.51 3.764-.689 5.349-1.68 1.908-1.191 2.99-3.38 4.64-4.9.11 2.25.071 4.49.021 6.74 4.15-.77 6.26-3.41 9.14-6.12-.3 2.2-.64 4.4-.87 6.62 2.87-1.01 4.69-3 6.83-5.02.591 4.287-.126 5.258-1.145 7.1 3.834-1.049 6.984-2.977 8.115-7.76 3.429 2.397 4.74 4.857 6.958 9.116 1.94-4.235 5.133-7.698 8.251-10.766.18 2.83.21 5.66.35 8.48 2.33-.69 4.46-1.25 6.11-3.17 1.46-1.85 2.48-4.07 3.69-6.09.78 2.67.931 5.15 2.81 7.36 2.98-2.7 3.83-6.06 5.12-9.69 1.528 3.12 1.91 4.74 2.42 7.45 5.778-4.427 5.237-7.787 4.4-15.149 3.89 2.19 3.93 5.699 5.56 9.42 2.084-2.644 2.248-5.272 1.9-8.76-.57-3.105-2.63-5.12-3.78-7.6 4.24 1.846 5.35 3.52 7.88 6.34 3.72-4.414-2.24-10.59-5.824-14.45 3.079-.645 7.057 2.415 9.507 5.335.15-1.86.45-3.55-.35-5.33-.87-3.05-5.412-4.636-7.852-6.346.44-.49.89-.99 1.33-1.49 2.19.27 4.565-.429 6.765-.299-1.69-4.55-6.895-4.96-10.585-9.26 3.504.226 5.46-.262 8.46-.152-3.63-2.65-8.08-1.26-11.5-4.67 2.73-1.09 5.54-1.9 8.32-2.82-3.85-2.59-8.24-3.989-12.18-6.429 1.18-5.22 5.48-8.31 6.94-13.33.54-1.67 2.073-7.27 2.283-8.99-2.667 2.03-7.044 7.11-10.203 8.07-3.96 1.31-9.418.962-11.66 4.47-1.78 2.788-1.285 5.285-1.19 8.631-2.107-1.71-3.16-4.374-2.46-6.391 1.414-6.373 5.031-9.412 9.14-10.402.19-2.87.46-7.73-.16-10.58-4.3 3.83-9.25 7.514-12.64 12.314 1.61.58 3.22 1.148 4.82 1.738-2.38 1.25-4.67 2.281-6.48 4.361-3.17-1.71-6.27-1.04-9.74-1.81-6.94-1.03-13.18-4.13-20.119-5-3.72-.48-8-1.45-11.67-.58-4.34 1.88-5.807 6.964-2.687 10.244 6.03 3.15 13.873 2.279 19.717 4.516-.43.908-.555 2.002-1.795 2.382-.725-.01-2.103-.95-4.33-1.373-2.194 3.698-1.529 5.594-5.881 8.347-.91.08-4.192-.698-5.61-1.21-3.244-.657-4.135-11.337-8.255-14.007-.9-.71-2.5.09-3.56.16.66 2.05 1.62 4.928 1.314 7.67-2.505-5.176-4.234-7.67-6.394-10.7-.999-.573-1.607-.885-1.966-.829.15 2.98-.404 7.189-1.634 9.979-.664-5.115-1.49-10.15-2.808-12.77-1.41-2.78-4.992-4.32-7.672-5.16-1.66 4-.89 8.06-1.89 12.21-1.74-6.036-.898-5.425-2.39-11.33-1.26-3.945-3.276-9.409-7.407-9.506zM338.07 62.943c-7.615-.128-9.834 2.788-12.775 6.567-1.412 1.814-.97 4.53-1.55 6.72-3.01-3.13-4.93-7.31-8.59-9.38-12.437-7.375-26.651 3.415-26.57 11.81-6.968-6.788-9.67-8.886-19.46-8.56-11.742 2.458-11.064 6.965-12.89 12.95-3.73-4.3-7.39-7.257-12.422-8.123-5.177-.43-14.172 1.759-18.215 4.85 1.195 1.175 3.971 3.186 3.971 3.186s-3.797 2.718-5.824 3.448c1.918-.046 6.383 2.27 9.48 4.66 0 0-5.597 1.35-7.954 1.47 1.354.412 2.489.835 3.491 1.302 7.847-1.928 31.558-7.537 37.872-6.5-7.472 1.23-27.849 7.847-33.49 9.7a29.397 29.397 0 0 1 2.83 3.478l-2.281 3.416c29.872-10.564 57.802-16.768 81.247-17.514 9.22-.3 18.307.292 27.047 2.257 7.916 1.773 15.08 4.659 21.115 8.802 6.454 4.44 10.934 10.062 13.679 15.534 6.349 12.705 4.846 22.117 4.846 22.117s.51-9.517-6.456-21.241c-2.976-5.027-7.535-10.007-13.755-13.821-5.84-3.592-12.671-5.958-20.259-7.429-8.39-1.617-17.102-2-26.074-1.722-23.253.738-51.25 6.998-81.428 17.8.97 3.53-.153 5.818-1.403 8.44l-3.305-2.656c1.853 3.002 2.734 4.43 3.066 7.503-.337 1.418-4.357 2.711-4.604 3.31 11.901-2.42 25.214-7.927 36.046-8.755-.436-1.639-.193-2.663-.462-4.143 4.96 1.4 10.946 7.92 15.314 11.296.572-7.434-6.504-14.657-11.133-20.204 4.069.489 11.067 6.566 12.315 9.97 10.85-1.175 25.292-4.847 33.853-4.137 8.14.565 11.688 4.238 15.498 4.978 4.14.87 6.389 4.538 6.413 9.009 4.228-5.783-2.338-10.63-3.028-11.55-5.21-3.52-12.22-3.54-14.269-10.59 3.987 4.05 14.631 5.392 17.432 8.13 1.28 1.43 3.545 4.844 4.174 9.87 5.42-9.002-4.665-15.659-9.985-19.549 5.59.34 14.125 5.259 16.875 10.039 10.33 5.758 23.486 22.266 13.465 33.241-4.582 4.584-7.834 5.852-11.911 6.85-4.469.715-13.077 1.89-18.538 3.792 7.028-.476 26.293-.509 28.393 1.914-4.89.96-22.865-1.046-29.516-.279 4.409.682 9.652 1.526 11.36 4.033 1.12 1.55 1.9 3.47 3.25 4.83 2.38 1.37 5.499 1.57 8.148 2.17-.516 2.29-5.014 2.186-8.187 1.748-2.96-1.48-5.672-3.698-8.972-4.358-3.56.42-6.55 3.39-10.04 4.35-8.56 2.44-16.07.19-24.05-2.85-3.75-1.68-8.544-3.86-13.083-4.058 2.06 1.67 4.187 2.602 5.746 4.727.81 1.104 2.548 3.35 2.608 4.73-6.483-4.477-12.9-8.343-19.266-12.924-.18 2.71 4.395 12.285 5.745 14.756 1.43 2.14 3.39 3.88 4.95 5.93-6.23-.526-10.134-6.352-12.63-11.19-3.66-1.21-7.52-1.12-11.09-2.84-6.86-1.99-12.09-6.48-19-8.179-4.83-.52-17.78-5.972-22.208-7.368 2.574 2.356 5.275 7.688 9.035 17.675-3.69-3.35-11.574-16.616-16.05-21.669-.447 7.499 9.845 18.6 11.235 22.81-1.81-.43-3.46-.22-4.82-1.68-2.41-2.55-7.092-7.694-8.103-12.245-7.38-2.368-15.556-3.356-18.967-3.052-8.403-.211-12.008 1.083-23.16-.263-2.87-.31-5.09-1.61-7.84-2.59 1.71 4.44 4.68 7.47 8.07 10.65-2.61-.24-4.82-.76-6.67-2.73-1.63-2.01-2.72-4.35-4.57-6.21.85 5.14 3.72 9.069 5.45 13.85-1.44-.33-3.07-.48-4.38-1.17-2.9-2.03-3.531-6.81-6.371-8.6-5.31-1.34-11.059-2.88-16.519-2.42-5.77.42-11.48.63-17.14 1.95-4.612.788-10.238 3.798-19.66-4.687 6.725 11.659 14.6 7.997 20.02 9.467 1.76.35 2.19 1.79 3.22 3.07-5.92.21-23.822-.951-24.922-13.066-2.563 10.976 12.33 16.615 15.68 19.255-8.076-1.608-9.667-.663-13.221-.578-4.42.59-7.27 3.308-10.9 5.538-9.74 4.8-12.258 26.394-28.486 29.073 9.77.303 19.508-7.187 26.017-11.002-1.979 6.224-13.767 12.703-22.22 13.605 7.155 3.653 18.887-.094 24.909-3.675-.237 2.8-1.929 5.28-4.689 6.65-4.437 1.205-10.952 2.346-13.51 2.374-.438 1.138-1.025 4.892-1.09 5.997-.22 6.48 2.66 11.32 3.8 17.43 1.13 4.97-.88 17.38-6.784 26.265 8.51-6.67 11.278-18.308 14.914-22.476-.67 6.93-3.963 19.098-12.352 23.193 8.317-1.636 17.2-7.797 22.452-13.064-.39 2.67-.27 5.24-2.31 7.28-1.96 1.88-4.26 3.38-6.28 5.21 4.818 7.185 12.24 11.681 19.629 16.041 9.603 4.734 16.696 5.497 22.973 17.647.662-8.969-11.763-18.35-12.241-24.297 4.76 4.444 14.011 11.504 15.163 25.801 5.164-8.58 3.667-14.031 3.897-16.041-.11-1.89.345-5.167.165-7.057 3.334 4.237 4.778 6.804 5.226 10.846 4.88 1.73 9.357 2.947 14.75 3.24 4.785.017 30.519-4.621 33.408-5.251-.445-.315-4.608-3.382-5.784-6.21 6.771 2.043 15.609 10.064 21.876 11.54-5.763-7.213-9.313-11.04-11.694-13.09-1.138-.832-2.107-1.916-3.579-3.633 5.684 2.98 13.529 12.556 16.63 15.974-1.21-7.56-5.97-19.546-11.359-24.068.63-.94 2.711-2.13 3.341-3.06 1.717 1.553 3.095 3.553 3.816 4.617 11.511-11.724 13.853-15.375 18.516-21.327l10.587-13.72-8.413 7.556-6.08 4.384c2.44-5.33 12.737-13.6 19.22-18.212-11.86 1.92-17.064 10.89-21.844 12.79 1.62-2.55 4.413-4.754 6.413-7.024 1.95-1.89 3.944-4.362 6.124-5.972.935-1.862.378-3.4.305-5.829-6.988 2.152-15.769-.557-19.3-2.982-.365 2.069-.567 3.348-.796 4.37-2.44 20.76-15.517 37.519-34.633 45.042-13.536 5.27-27.231 4.257-37.531 1.694-10.11-2.517-16.04-5.962-16.04-5.962s6.425 2.387 16.466 3.74c10.31 1.388 23.081 1.267 35.455-3.66 17.748-6.984 29.835-22.617 31.888-42.004a58.784 58.784 0 0 1-.019-3.747c-5.025.476-8.231.208-12.671-.844-3.74-1.274-6.695-3.522-9.346-7.024-1.97 1.82-5.74 3.54-8.336 3.472.173 5.328 1.653 11.362 2.574 13.179-3.862 1.596-8.344 3.93-10.795 8.671-1.69 3.6.77 7.07-1.96 10.26-.92-1.86-.87-4.46-2.549-5.68-3.546-2.57-8.557-2.91-13.066-1.388-2.756.93-4.365 3.868-6.655 5.728.19-2.73 1.08-5.52.9-8.24-.74-3.15-2.26-6.489-5.42-7.82-3.97-.88-6.3-1.392-11.39-1.889 2.38-1.6 5.1-3.04 7.22-4.97 2.31-2.23 2.529-3.978 2.66-7.113.133-3.158-2.74-5.755-4.583-7.49 5.723.349 11.364.633 15.914-1.377 2.15-1.02 4.153-1.41 5.477-3.418.745-1.129 1.292-2.982 1.452-4.322 2.549 4.828 4.309 6.949 7.078 7.902 6.287.986 10.803 2.266 16.461-.682 1.43-1.47 2.131-3.71 3.081-5.5 2.74 3.39 4.6 6.84 8.82 8.62 3.51 1.42 7.07 3.59 10.96 2.93 4.918-.336 6.257-3.116 8.34-6.731 1.603 2.347 5.428 6.382 9.195 7.758 4.498 1.642 10.494 2.036 14.364-.008 2.192-1.156 2.705-3.862 3.961-6.15 3.22 3.89 5.16 7.781 10.2 9.641-.007-.012-.017-.023-.025-.035 2.741.902 5.723 1.977 8.304 2.395 3.23.2 7.252.229 9.83-1.89 1.295-1.064 1.239-3.11 1.889-4.66 4.27 3.72 7.46 7.76 12.94 9.87 6.47 2.79 15.091 1.998 19.527-.963 1.088-.727 1.313-3.577 1.243-4.787 5.12 3.01 9.591 6.27 15.642 7.29 5.79.53 11.267.96 16.517-1.97.16-2.03.29-4.06.43-6.09 3.24 2.1 6.35 4.14 10.19 5 6.17 1.58 13.3.17 17.85-4.45 2.18-2 1.65-4.62 2.17-7.33 8.017 4.84 16.598 4.621 23.262-1.311 1.14-1.11 2.36-2.699 1.98-4.389-.45-2.19-2.11-4.2-3.2-6.13 5.46-.14 10.44-.551 15.22-3.441 3.39-3.14 5.6-7.95 6.15-12.52-.214-2.598-1.307-3.629-3.85-5.86 3.52-.742 5.499-1.92 7.738-3.59 3.23-3.27 5.74-7.13 6.08-11.84.5-2.61.082-5.67-2.028-7.49-1.77-1.1-3.99-1.549-5.94-2.279 5.643-2.287 9.776-4.163 11.22-10.09 1.093-5.943.269-14.001-5.5-16.46-2.647-1.078-4.22.71-6.09 1.16 1.507-2.338 1.926-3.9 2.39-6.06 2.41-5.69.95-12.839-2.79-17.63-4.898-6.653-13.03-5.33-19.43 1.62.04-1.762.105-3.48.013-5.193h.009c.226-6.029-1.332-13.585-8.703-17.275-5.7-1.923-13.949-1.627-18.62 1.13-1.81 1.54-2.55 4.35-3.74 6.36-2.32-9.543-6.044-17.271-16.445-16.67zm-122.805 1.76c.498-.007 1.004 0 1.518.017-1.52 3.08-4.28 3.64-7.08 5.1-.49 2.08-.92 4.17-1.47 6.23-1.87.08-3.73.16-5.59.23.35-3.19.89-5.98 3.43-8.17 2.616-2.643 5.707-3.363 9.192-3.408zm92.79 2.009c1.871-.028 3.71.2 5.224 1.286 5.123 4.007 4.407 11.273-.564 13.18-.863-6.115-3.787-10.61-8.946-14.22 1.356-.048 2.83-.225 4.286-.246zm33.426.649c2.344-.057 4.593 1.555 6.013 3.073 3.37 5.084 1.683 8.34-1.33 10.586-1.062-3.274-2.357-6.507-6.659-13.18a4.768 4.768 0 0 1 1.976-.479zM62.743 71.238c-10.364 3.088-10.471 10.971-10.321 14.5.6 4.36 4.496 9.69 8.326 11.82 11.236 6.994 46.676.844 61.594 5.667-3.642-5.115-35.438-6.092-40.428-7.112-6.85-1.09-17.329-2.642-21.879-8.162-2.72-2.97-6.381-9.109 2.709-16.712zm211.095 1.492c2.688.002 4.649.856 6.049 2.11 1.767 1.923 3.28 5.994.65 9.015-3.765-3.497-7.032-7.84-10.828-10.558 1.537-.394 2.908-.568 4.13-.567zm-121.327.908c-1.783 0-3.229 1.528-3.229 3.413 0 1.885 1.446 3.413 3.229 3.413 1.784 0 3.23-1.528 3.23-3.413 0-1.886-1.446-3.414-3.23-3.413zm224.617 2.603c5.28 4.137 6.31 6.594 5.734 11.086-.881 2.529-3.776 5.293-5.596 5.143 1.247-4.829 1.845-12.807-.137-16.23zm-131.205 2.228c2.342.342 4.048 1.048 5.06 2.75.365 1.262.08 2.381-2.079 3.92-2.156-4.464-1.843-2.57-5.285-6.64a6.939 6.939 0 0 1 2.304-.03zm-33.269 7.391c.64 1.05 1.25 2.12 1.83 3.2-1.47-.13-2.93-.27-4.39-.44-.05-.84-.06-1.67-.04-2.5.87-.11 1.73-.2 2.6-.26zm150.75 2.007s10.49 4.079 20.767 17.094c4.098 5.192 7.896 12.108 9.34 20.31 1.177 6.778.648 14.154-1.81 21.266-2.534 7.315-6.856 13.993-12.285 19.696-23.78 25.045-74.152 39.877-141.06 22.959-94.058-23.785-129.923-2.009-133.8 21.773-1.55 9.106 1.591 18.496 6.272 25.705 4.941 7.575 11.451 12.717 16.417 15.81 4.98 3.101 8.357 4.33 8.357 4.33s-3.516-.715-8.932-3.273c-5.38-2.54-12.68-7.11-18.62-14.9-5.656-7.392-9.621-17.669-7.935-28.397h-.003c4.54-27.824 44.336-49.437 139.35-25.411 65.926 16.67 114.293 1.897 136.688-21.695 5.047-5.332 9.148-11.402 11.622-18.01 2.403-6.396 3.177-13.102 2.388-19.35-.938-7.574-4.12-14.316-7.704-19.555-9.038-13.219-19.054-18.353-19.054-18.353zM208.327 90.39c2.59.46 5.09 1.75 7.49 2.8 2.73 1.22 4.82 4.25 4.19 7.3-1.07.44-2.14.85-3.23 1.23 2 3.62 2.66 5.51 1.57 9.63-1.45-.5-2.89-1.03-4.35-1.53.89 1.03 1.78 2.05 2.66 3.07-.6 1.74-1.2 3.49-1.81 5.22-1.79-.34-3.62-.54-5.39-.96-1.4-1.01-2.64-2.26-3.89-3.45 3.1-.14 5.82.87 8.87 1.32-1.46-3.64-2.23-4.35-5.79-5.89.44-1.02.89-2.04 1.34-3.05 2.53 1.02 4.93 1.711 7.64 2.121-1.31-3.77-4.39-6.29-5.94-9.96 2.43.33 4.84.75 7.28 1.04-1.38-1.85-2.36-3.81-4.63-4.65-2.68-1.03-5.52-1.62-8.25-2.55.73-.58 1.48-1.15 2.24-1.69zm-47.28 1.041c6.107.114 9.106 6.664 8.36 12.11-1.45 6.249-5.2 10.74-9.83 14.96l-1.83-2.82c3.02-3.22 5.99-6.04 7.77-10.19 1.29-2.76 1.31-6.201-.04-8.931-1.39-1.92-3.43-3.36-5.03-5.12.203-.01.403-.012.6-.008zm240.743 5.026c4.93 1.292 5.057 9.882 3.672 11.851-1.415 2.901-4.552 3.589-6.432 3.529 1.37-2.16 1.73-5.779 2.58-8.2.48-2.31.12-4.83.18-7.18zM176.467 102.4c.4 2.39.862 4.96.452 7.38-1.93 3.29-4.201 5.6-8.11 6.25 4.07-3.6 6.27-9.606 7.659-13.63zm23.916 1.918c.927-.032 1.839 1.01 1.044 2.022-1.131 1.137-2.968-.507-1.788-1.72a1.16 1.16 0 0 1 .744-.302zm-17.985 1.722c.35.96.66 1.93.93 2.92-.05 1.37-2.47 1.8-3.44 2.49.02-1.06.06-2.11.11-3.16.79-.76 1.59-1.51 2.4-2.25zm27.67 12.25c-.03 3.9-.24 10.29-4.24 12.36-.82-4.81 1.8-8.46 4.24-12.36zm-101.092.19c1.36 1.51 2.64 3.06 3.8 4.73-1.59-.44-3.17-.92-4.71-1.53.28-1.07.58-2.14.91-3.2zm16.12 1.77c.12 1.94.13 3.87.08 5.81-1.19.18-2.38.34-3.57.51 1.18-2.1 2.3-4.23 3.49-6.32zm5.85 2.33c.12 1.78.19 3.56.23 5.34-1.38.41-2.75.82-4.14 1.21 1.35-2.16 2.61-4.37 3.91-6.55zm14.41.13c.4 3.42 1.16 5.43-2.52 7.12.15-1.43.36-2.85.64-4.25.6-.97 1.23-1.93 1.88-2.87zm58.464.066c1.156-.001 1.756 2.062.946 2.974-1.7 1-2.56-1.58-1.64-2.74.246-.162.48-.234.694-.234zm-64.614.724c-.27 1.49-.2 3.36-.99 4.69-.87.87-1.95 1.58-2.95 2.31.93-2.32.99-6.51 3.94-7zm275.07 1.948h.001c1.223 4.244.239 7.334-1.922 8.883-5.379 2.308-7.224-.019-7.974-.819 3.55-1.422 7.905-3.934 9.894-8.064zm-222.945 1.364c1.046-.025 2 .856 1.274 2.078-1.19 1.23-3.41.06-2.45-1.6.343-.32.766-.469 1.176-.478zm-7.69 1.974c1.01-.032 1.885.824 1.154 2.054-1.2 1.21-3.461.24-2.391-1.5.362-.368.812-.54 1.238-.554zm225.683 26.32c.054 5.46-7.395 9.72-10.621 5.292 3.245-2.04 7.441-2.261 10.621-5.291zm-13.426 25.667c-1.54 3.3-4.22 5.01-7.81 5.2-2.17-.46-3.37-1.9-4.76-3.47 4.8.359 8.391-.156 12.57-1.73zm-236.985 7.406c1.93 3.631 4.665 5.511 9.7 7.4-5.307 3.054-9.206.946-10.372-.08-2.45-2.261-.506-4.835.672-7.32zm26.008 2.191c3.257 2.97 5.314 5.5 10.99 7.131-1.132 4.358-6.482 2.798-8.306 1.412-2.572-2.04-2.934-4.543-2.684-8.543zm-54.42.22c3.464 2.634 5.873 5.09 9.79 6.523-2.648 2.582-6.287.51-8.692-1.025-1.382-1.173-2.477-3.79-1.098-5.498zm83.197 3.14c2.1 3.329 5.364 5.92 8.37 7.963-2.61 1.529-5.16 2.273-8.965-1.687-1.545-1.609-.909-3.543.595-6.277zm26.42 1.772c1.759 3.015 6.05 5.591 11.851 9.294-2.656 2.155-6.37 2.352-9.658.257-2.738-2.304-4.462-4.449-2.193-9.55zm124.073.543c4.21.93 9.966 1.815 13.973 1.32-.916 1.613-2.939 4.302-5.22 4.443-3.486.214-7.173-1.843-8.753-5.763zm-92.655 7.337c2.79 3.3 9.71 6.654 13.869 8.433-4.626 1.726-5.618 2.066-8.34 1.345-1.902-.503-3.519-2.11-4.599-3.7-.68-1.91-.84-4.058-.93-6.078zm37.82.76c3.947 3.65 6.809 5.706 11.576 8.923-3.622 1.046-7 1.55-9.983-.977-2.797-2.436-2.31-6.073-1.594-7.947zm26.234.323c4.56 2.019 14.607 3.428 18.963 2.1 0 0-4.524 4.932-7.593 5.366-3.078.436-6.412-1.08-8.81-3.058-1.311-1.08-1.91-3.338-2.56-4.408zm-156.532 2.304c3.23-.029 4.007 1.859 4.569 3.838-4.322.114-5.972-.421-10.427.104.28-.813 1.475-2.83 5.178-3.911.238-.02.465-.029.68-.03zm-50.46.662c1.129 7.54-8.836 10.956-13.143 4.852 2.673-1.03 8.883-2.436 13.144-4.852zm3.651 17.92c3.595.512 4.127 3.962 4.195 7.54-.133 3.625-1.862 4.885-6.883 6.578 1.077-5.39 2.41-10.668 2.688-14.118zm41.94.11c4.145.263 4.74 2.555 5.052 4.917-4.671-.559-6.364-1.395-11.244-1.532.43-.83 2.035-2.808 6.192-3.385zm56.737 2.663c-6.079 11.64-10.429 18.476-14.228 21.57 8.402-1.95 34.694-6.313 45.83-4.679-4.955 1.096-10.239 2.078-15.474 3.059-5.236.98-10.425 1.958-15.19 3.04-4.764 1.084-16.072 3.452-20.245 4.59-1.717 3.348-3.261 5.116-4.826 7.056 0 0 4.691-1.424 10.72-3.168l-.029-.097c41.853-12.737 81.068-13.177 107.513-3.994 11.368 3.888 21 10.174 27.003 18.857 3.09 4.503 4.743 9.191 5.417 13.37 1.501 9.389-.986 15.093-.986 15.093s1.57-6.017-.801-14.71c-1.047-3.858-2.998-8.011-6.135-11.892-6.079-7.587-15.187-12.659-25.976-16.467-25.43-8.832-63.406-8.524-104.715 4.05l-.047-.153c-4.642 1.413-9.168 2.603-13.197 4.194 1.07 4.558 1.772 6.85 2.432 11.517 6.962-.802 13.312-.84 19.372-.35 5.3.43 14.495-.614 19.795-.574-2.28-1.32-5.944-5.813-7.934-7.573 7.63-.95 13.785 9.856 19.745 13.306-.456-7.164-7.023-13.774-9.365-19.297 4.82 1.9 7.427 5.055 11.42 11.303 8.983-3.201 22.754-3.559 30.97-2.133 3.36.84 7.973 7.002 11.233 8.233-3.525-4.558-9.841-10.238-14.43-15.643 8.406 2.009 13.566 10.39 17.61 17.15 2.8-5.05-2.937-17.392-2.89-21.28 1.7 2.36 6.689 7.092 6.969 10.805 6.074 1.143 11.528 4.25 16.71 10.515 2.49 3.17 2.622 13.384-3.556 16.242 7.42.946 10.236-10.95 11.216-13.821.65 1.47 2.01 3.13 2.01 4.76-.44 2.27-4.846 12.353-11.899 11.537 6.43 3.232 13.58-7.518 15.39-8.848.2 1.68.841 3.04.02 4.66-1.09 3.14-3.59 4.17-6.06 6.01-1.73 1.16-2.37 3.69-3.7 5.3-7.58 7.57-18.93 9.4-29.05 6.84-7.89-.93-22.677-11.747-27.075-11.151 2.754 2.296 10.364 10.261 12.755 12.411 3.18 2.76 7.42 1.97 9.12 6.3-3.57-.09-7.35-.979-10.21-3.209-3.54-2.83-5.078-6.415-7.928-10.174-2.964-2.548-9.205-6.236-11.694-6.403-.038 1.643 11.75 13.276 13.522 15.676 1.77 2.57 4.3 4.25 5.62 7.16-3.22-.22-6.16-1.09-8.79-2.98-1.77-2.12-2.72-5.22-4.72-7.22-2.51-.79-5.19-.1-7.69-1.27-5.02-1.91-10.42-1.859-15.43-3.619-4.8-2.12-9.88-2.91-14.46-5.61-3.52-2.09-10.287-3.572-15.069-5.363 1.95 2.61 7.69 8.213 9.67 10.803 1.91 2.63 5.429 3.66 8.17 5.48-4.4 2.34-8.309-.161-11.109-3.561-2.51-3.4-10.788-11.754-13.838-14.673 2.003 4.852 5.477 11.354 9.367 17.093 1.41 1.49 2.741 3 3.831 4.74-1.92-.24-4.39-.36-6.02-1.51-3.21-2.46-3.51-8.098-6.6-10.397-4.79-1.11-9.84-1.432-14.69-2.422-3.77-.58-7.22-2.138-10.96-2.878-4.82-1.36-8.791-2.264-14.671-2.44-4.06-.46-10.579-2.633-14.479-1.213 6.406 4.357 12.288 7.361 17.948 9.072-1.73.82-2.88 2.548-4.88 1.618-2.45-.88-4.89-1.799-7.31-2.729-3.22-1.47-8.708-5.683-15.336-10.207 1.499 2.764 5.418 8.109 6.618 9.849 2.48 2.94 6.199 4.84 9.14 7.31-.42 1.1-.86 2.2-1.29 3.3-3.64-1.78-7.21-3.45-10.24-6.2-1.89-2.04-5.37-.41-7.579.22-6.33 2.42-12.48 2.92-17.71 7.26-4.43 3.83-9.519 7.266-13.098 11.917-2.68 3.36-15.35 7.69-21.195 6.326 10.758 6.512 22.023-3.213 27.983-4.793 2.52-1.02 5.78.87 8.24 1.59-4.48.57-8.57.73-12.28 3.63-6.335 2.968-15.45 5.569-21.318 3.785 10.125 6.698 19.037 4.305 22.567 4.445-1.308 3.052-2.403 4.662-5.489 4.49-2.07 0-4.59-.6-6.44.44-2.78 4.68-2.73 11.39-2.64 16.66-.01 4.56 1.2 8.57 1.97 13.08.55 3.49 2.48 6.45 3.07 9.9.35 2-1.139 16.472-1.939 18.975 3.103-4.87 6.054-18.568 6.929-27.595 1.913 6.286.706 20.853-4.078 27.955 5.744-3.273 10.318-17.266 10.788-23.086 2.63 2.19 2.96 5.26 2.27 8.44-1 3.07-2.414 7.636-4.334 10.627 1.25 3.5 3.924 5.952 7.354 7.702 6.03 3.35 12.406 5.296 17.671 9.391 7.036 5.473 13.827 13.7 18.986 19.87-2.566-7.829-6.282-15.632-14.092-24.906 11.942 6.536 15.583 13.91 17.361 22.38 2.743-5.995 1.212-7.953.655-12.242-.88-4.56-3.698-9.721-6.973-14.251 5.583 2.565 11.883 7.213 12.194 13.686 8.19 1.72 19.828 1.474 27.598-1.666 7.356-2.915 13.984-7.54 19.42-12.41-5.87.13-10.978 4.44-16.528.8 4.94-1.52 9.989-2.43 14.81-4.37-2.35-1.17-4.75-2.23-7.08-3.44.06-.9.129-1.81.199-2.71 3.31-.55 7.09-.08 9.75-2.28 4.8-3.68 8.08-8.97 10.649-14.36 2.23-4.79 6.363-17.213 6.803-22.403-8.472 1.609-14.871 2.048-22.95-4.586-.23 2.58-.567 4.767-.85 6.788-1.172 12.712-6.383 24.028-14.222 32.411-7.128 7.633-16.355 12.23-25.45 13.61-9.084 1.347-16.958-.643-22.095-2.624-5.208-2.008-7.923-3.937-7.923-3.937s2.988 1.487 8.28 2.817c5.242 1.316 12.903 2.358 21.12.452 8.243-1.88 16.33-6.503 22.78-13.391 7.418-7.932 12.322-18.817 13.144-31.122a23.551 23.551 0 0 0-.581-3.879c-8.26.384-12.125 2.038-18.532-1.493-1.679 7.439.096 12.02 2.107 18.51-3.62-.19-5.546-.568-9.122-.572-4.074-.006-8.56 2.73-12.03 4.87-.87 1.82-1.05 3.999-1.57 5.949-1.971-3.077-3.393-6.846-6.588-8.495l.003-.017c-1.448-1.012-3.182-1.606-4.717-1.712l-.057.04c-2.744-.189-5.488.068-8.232-.395 2.57-2.75 4.59-5.89 6.63-9.041 1.66-2.6-.91-6.61-3.76-7.04-2.75-.57-5.39-1.21-7.94-2.45 3-.89 6.54-1.229 9.21-2.809 2.46-1.42 4.73-3.26 6.94-5.03-.85-2.12-1.55-4.08-1.42-6.41 2.921 3.437 4.242 4.827 6.626 6.467 3.78 1.94 7.253 3.298 10.824 2.763 2.54-.18 6.4-.36 8.13-2.52.5-2.3.69-4.661 1.2-6.971 2.11 1.59 2.931 3.9 4.551 5.85 3.73 3.59 6.758 6.161 14.11 5.78 2.43-.21 4.769-1.91 6.969-2.92.11-2.06.2-4.119.36-6.179 3.01 3.222 5.6 4.96 8.62 7.26 3.234 2.471 11.826 3.1 18.34 1.2.44-2.04.943-2.992 1.483-5.012 4.102 9.09 9.802 12.172 16.274 11.502 6.247-.646 10.01-2.6 10.213-9.18 3.34 3.6 5.66 9.64 11.19 9.92 5.05 1.04 9.69-.21 14.42-1.9.92-1.65.604-3.027.68-6.05 7.994 5.863 17.644 9.127 28.3 3.37.22-1.79.43-3.59.67-5.38 3.58 2.32 6.85 5.87 11.49 5.42 5.24-.42 11.6-2.36 15.01-6.6.3-1.54.12-3.2.17-4.77 4.033 1.998 8.66 2.8 12.93 1.46 4.94-1.25 7.35-5.93 9.589-10.05-1.77-1.45-3.58-2.84-5.34-4.29 3.13-.87 6.33-.129 9.41-.859 3.93-1.49 8.781-2.875 9.638-6.543 1.23-5.735.834-8.403-2.843-11.16 5.814-2.206 10.22-6.166 11.275-12.087 1.01-3.84-1.95-7.589-4.47-10.428-1.61-.7-3.39-1.02-5.07-1.55 3.207-2.018 7.29-3.722 8.331-7.611 1.06-3.99.05-9.13-2.89-12.2-1.74-1.94-3.67-3.95-5.97-5.23-2.35-.09-4.77.81-7.09 1.18 2.49-3.408 3.34-8.04 2.78-11.85-1.31-3.96-4.71-7.961-8.94-8.852-2.91-.65-5.978-1.22-8.233.348-1.652 1.148-1.758 3.503-2.338 5.563-1.874-5.388-3.665-12.242-11.06-16.31-6.605-3.188-12.684-3.224-15.88 4.8-.81-1.85-1.38-3.7-2.72-5.26-4.198-5.233-6.713-7.363-13.29-8.17h-.002c-7.728.796-15.819 3.628-18.75 10.987-2.03-3.66-5.281-6.768-8.971-8.738-6.098-2.333-11.637-2.18-16.37 2.05-1.26 1.76-1.94 3.97-2.87 5.91-3.772-4.84-5.225-6.968-10.453-7.942-6.024-.198-12.916 1.647-17.282 6.658-2.618-4.862-9.57-7.476-11.329-9.336zm52.282 3.83c3.582.007 6.86 1.02 8.899 3.499 1.484 1.804 1.417 5.394.867 6.956-3.24-4.357-8.081-7.309-11.317-10.399.52-.038 1.04-.057 1.55-.057zm35.736.424c1.416-.042 2.93.33 4.88 1.274 4.04 2.71 7.232 8.94 2.849 12.326-.392-7.432-8.374-10.753-10.244-13.11.851-.29 1.666-.464 2.515-.49zm-84.69 1.24c1.235.055 2.333.367 2.75.805.93.976 2.513 4.29 1.087 5.748-1.078-2.392-5.335-5.471-7.408-5.802.964-.6 2.336-.804 3.571-.75zm27.716.03c.962.033 1.77.332 2.453 1.226 1.92 2.11 1.683 4.153.33 5.879-2.283-2.93-3.322-4.37-6.153-6.737 1.294-.168 2.409-.401 3.37-.368zm-108.9.826c1.752.022 3.57.621 4.892 2.148 1.574 2.154 1.165 4.449.484 6.298-3.25-3.589-6.215-4.974-8.695-7.793a8.257 8.257 0 0 1 3.32-.653zm193.343 7.54c3.9.75 7.624 2.219 7.558 6.606-.046 3.11.083 5.887-3.82 7.614.516-3.109.266-6.1-.85-8.982-.62-1.87-2.088-3.42-2.888-5.239zm27.244 10.282c4.25 4.513 3.606 11.3 2.372 12.896-1.457 1.739-5.074 2.195-6.554 1.835 1.61-3.05 4.232-10.72 4.182-14.732zm15.264 22.927c.81 1.66 2.359 6.444.794 9.028-1.703 2.815-4.804 4.344-9.114 3.794 2.271-3.266 6.81-8.837 8.32-12.822zm-26.314 3.226s4.49 9.444 2.747 24.74c-.699 6.073-2.85 13.013-7.407 19.237-4.014 5.447-9.539 10-16.047 13.462-7.053 3.757-14.796 6.176-22.793 7.703-25.646 4.928-59.164 2.335-93.75-5.577-16.17-3.699-31.64-4.77-45.388-3.776-11.808.87-23.199 3.06-33.462 7.633-4.267 1.902-8.21 4.157-11.635 6.94-3.056 2.488-5.641 5.319-7.427 8.519-1.737 3.098-2.681 6.51-2.764 9.836-.116 3.963.967 7.844 2.49 11.193 2.262 4.966 5.643 9.175 8.66 12.416 8.676 9.308 15.626 13.263 15.626 13.263s-7.217-3.408-16.57-12.33c-3.266-3.112-6.98-7.248-9.664-12.396-1.819-3.485-3.193-7.648-3.289-12.15-.066-3.792.826-7.719 2.68-11.341 1.903-3.702 4.654-6.984 7.918-9.797 3.642-3.146 7.812-5.71 12.288-7.824 10.737-5.072 22.64-7.584 34.824-8.45h.001c14.209-1.027 30.138.087 46.717 3.88 34.28 7.841 67 10.325 91.897 5.542 7.695-1.488 15.059-3.62 21.756-6.947 6.151-3.062 11.427-6.99 15.342-11.802 4.461-5.447 6.9-11.81 7.974-17.538 2.743-14.56-.722-24.436-.722-24.436zm26.109 21.09c1.414 3.913-.265 7.91-3.095 9.892-2.493 1.747-8.263.296-9.123-.414 6.568-2.168 9.835-3.533 12.218-9.478zm-9.035 26.326c-2.385 5.812-6.83 9.247-11.99 2.329 4.373.527 8.468-.232 11.99-2.33zm-29.99 13.28c5.817 4.77 9.73 4.078 14.498 3.5-2.29 2.11-6.304 4.765-9.744 4.075-4.056-1.322-3.854-5.055-4.754-7.575zm-180.907 3.617c3.538 4.493 4.062 6.047 6.86 9.275-5.813.057-6.74-1.34-7.935-2.644-1.598-3-.661-4.292 1.075-6.632zm51.547.08h.002c3.033 5.31 7.164 7.44 10.958 9.76-4.03 1.85-10.64-.085-12.23-4.709-.678-1.97.57-3.43 1.27-5.05zm-27.325 1.59c1.54 2.816 4.656 5.833 9.63 7.85-1.81 1.04-3.22 2.13-5.43 1.71-3.97-1.27-6.7-5.63-4.2-9.56zm136.822 2.261c2.5 4.564 7.347 5.64 10.97 8.04-3.44 2.19-7.849 2.2-10.66-.94-1.68-2.32-1.24-4.59-.31-7.1zm-81.75 1.74c.88 1.94 1.07 4.385 2.571 5.93 1.798 1.85 4.72 2.1 7.01 3.28-3.35 2.62-6.54 1.59-9.79-.53-2.051-2.204-2.774-5.684.209-8.68zm-93.577 3.018c-.146 2.318-.77 4.12-2.9 5.25-2.7 1.62-7.85-.427-9.175-3.69 3.201.406 8.55.308 12.075-1.56zm147.345.535c4.984 3.182 8.892 3.602 14.53 3.181-2.34 2.84-6.514 4.054-9.704 3.154-2.69-1.29-4.387-3.775-4.827-6.335zm-27.5.429c2.851 3.848 4.252 5.486 9.356 7.148-3.26 3.03-7.98.719-9.965-2.029-1.006-1.393-.22-3.438.61-5.12zm-79.575 11.266c2.658-.043 6.044 1.712 7.212 4.29-3.657.315-7.79-.47-11.482 1.626-.076-3.201.587-5.697 4.015-5.908.084-.005.17-.007.255-.008zm-44.868 2.29c2.42 3.42 2.206 7.084-.294 9.746-1.405 1.496-4.215 2.393-6.19 1.321 1.794-2.887 4.36-8.594 6.484-11.067zm160.073 12.815.001.003c-5.925.143-9.109 3.194-11.353 7.772-5.692-5.013-8.775-9.485-18.487-6.52-2.11.86-4 2.37-5.92 3.59-7.047-4.55-10.318-5.9-17.96-2.41-2.9 1.72-6.433 4.177-6.993 7.057-3.912-3.257-4.734-3.055-9.953-5.886-1.8 7.594-8.818 16.397-14.576 20.484 2.53-.804 11.082-4.113 16.382-5.595 7.985-2.232 29.168-6.566 35.55-4.16-16.332 3.607-36.082 6.074-49.622 13.829.285.156.508.322.765.496l1.648 2.196s.14.273.193.343c28.255-12.447 61.263-14.452 82.763-6.765 4.71 1.672 9.178 4 13.002 7.174 3.556 2.945 6.286 6.58 7.853 10.566 1.805 4.679 1.817 9.408 1.086 13.275-1.916 10.07-6.725 15.11-6.725 15.11s3.896-5.787 4.605-15.392c.27-3.622-.173-7.849-2.042-11.662-1.58-3.286-4.154-6.21-7.36-8.653-3.488-2.652-7.571-4.608-11.933-6.18-20.7-7.4-53.242-5.384-81.075 7.38-1.064 2.603-4.085 5.964-11.983 9.738 4.64-.105 7.233.892 13.14 1.148 16.885-4.595 20.694 2.409 26.502 6.88.106-5.51-9.023-11.7-12.936-14.08l.956-2.104c1.319.708 2.699 1.337 4.137 1.96 2.79 1.14 6.358 7.194 8.819 9.214-.207-3.424-3.669-7.595-5.249-8.775-2.15-1.75-2.764-2.84-5.05-5.13 4.97.27 7.573 3.85 11.953 5.38 5.42 1.13 10.58-.86 15.85-1.05 6.55-.43 13.33.982 19.56 2.922-1.59-1.82-3.4-3.402-5.14-5.061 2.15.19 4.38 0 5.96 1.75 1.41 1.83 2.35 10.059 3.37 12.129 4.072-3.007 1.525-8.107 1.18-9.628-1.28-2.63-3.41-4.681-4.48-7.471 2.74 1.31 4.87 2.78 6.84 5.09 2.41 2.98 6.06 3.61 8.6 6.37 1.39 2.17 1.36 5.36 1.48 7.88-.56 3.77-9.829 8.415-14.684 10.144 3.13.01 16.074.666 19.204.766.3.98.599 1.97.889 2.95-5.31-.78-15.143-1.17-20.423-1.44 2.08 2.47 8.244 6.51 11.704 6.78 2.9.66 5.49-.69 6.54 2.98-4.01.34-7.8-.45-11.74-.98-3.17-.61-5.89 3.07-9.09 3.24-4.3.2-8.7.26-12.98-.32-3.67-.45-13.028-7.118-16.598-8.278 1.54 2.6 9.117 9.539 8.736 12.798-3.18-2.65-12.474-13.812-17.481-15.351 3.277 3.85 8.52 13.91 8.78 16.72-3.73-2.51-5.571-7.31-8.58-10.47-5.18-.84-30.646-3.567-35.756-5.067-6.718-1.932-10.012-3.093-15.19-5.773 2.736 3.68 9.19 5.542 12.056 7.21-6.63.309-12.44-4.589-16.339-9.033 1.376 5.75 11.263 12.457 16.02 17.273-7.35-2.728-11.696-6.228-14.281-8.489-13.89-.382-23.105.065-34.5 4.94-5.02 1.74-14.91 4.655-21.794-1.24 5.886 6.546 12.478 7.905 18.854 9.142-10.454 1.58-13.36-.488-18.545-5.864 3.503 6.088 10.557 9.525 14.838 10.688-4.652.573-6.254.484-9.003.322-2.1 2.65-4.66 5.07-6.43 7.96-1.79 4.51-1.59 10.06-2.04 14.87-.27 2.15.635 2.316 1.385 4.266-1.39 1.7-7.344 6.672-12.489 7.758 5.604 2.427 14.744-2.455 17.854-2.935-1.13 2.79-3.28 5.91-2.85 9.01.29 3.29 1.54 6.872 3.38 9.61 2.49 2.33 5.54 4.11 8.31 6.1.02-1.68.05-3.36.09-5.04 3.5 3.88 8.094 10.006 9.808 16.79 1.264-2.683 2.088-7.39 1.331-12.67 2.46 1.58 3.511 3.9 5.161 6.17 1.57 1.25 4.06 1.481 5.97 1.931 6.02 1.34 11.96 1.18 18.07 1.54-2.44-3-4.137-5.684-5.067-9.554 3.028 3.459 3.567 5.313 7.097 6.923 2.68 1.24 7.057 6.134 7.944 9.574 2.92-6.494-3.173-11.583-5.023-14.663 2.86.36 4.679 1.69 6.879 3.35 3.41 2.66 7.761 1.22 11.68 1.2 4.08-.29 7.62.95 11.58 1.57-.41-3.49-2.05-7.06 1.26-9.65.72 1.46 1.33 2.982 2.13 4.402 1.84 2 4.865 2.092 5.77 6.11 1.745 7.621-3.433 15.073-8.97 17.79-1.926.915-4.702.297-6.24-.74-1.43-1.28-2.25-2.982-4.822-5.894-.626 5.365 3.417 10.304 5.776 11.296 4.24 2.31 7.823 2.988 12.087 3.794 3.552.1 6.724-2.09 9.729-3.208 2.86-.69 6.13.61 8.71-1.22 2.34-1.31 2.04-3.52 2.61-5.82 3.05-1.42 8.09-3.03 7.62-7.27.21-3.55-3.34-5.23-5.58-7.32 1.72-1.29 3.69-2.53 5.14-4.1.66-2.12.55-4.99-.17-7.09-2.25-1.97-6.21-1.449-9-2.499.42-2.93 3.249-7.12 1.099-9.731-1.88-2.84-4.9-3.13-7.86-4.25-1.567 1.455-3.25 2.15-4.988 2.703l-1.453-2.726c.007 0 .014.002.02.003-.065-.115-.13-.214-.194-.328-2.725-5.31-8.497-6.235-12.305-2.652-.9 1.32-1.59 2.78-2.4 4.15-1.44-1.7-2.6-4.03-4.47-5.28-3.74-1.99-7.744-4.006-11.64-1.738-5.116 2.98-6.58 4.96-7.93 10.018-1.05-1.25-2.01-2.58-3.1-3.79-2.05-.43-4.16-.55-6.22-.9 2.88-1.97 6.06-2.27 9.38-2.99-1.71-.57-3.621-1.52-5.451-1.46-4.51 1.61-7.46 4.8-10.66 8.15-.17-.583-.334-1.159-.5-1.736l.311-2.463.02.01c.26-1.25.579-2.54.619-3.811-.52-1.91-2.1-3.61-3.22-5.21 2.02-1.77 4.05-3.51 6.08-5.26-1.29-2.21-2.49-4.43-3.279-6.87 3.75 1.87 7.41 3.45 11.6 4.08 2.89.32 5.24-.76 7.93-1.6-.95-1.7-1.89-3.39-2.8-5.1.51-.5 1.02-.991 1.53-1.481 2.8 2.49 5.789 4.7 9.209 6.28 2.22 1.01 5.11.78 7.52.94.34-2 .69-3.989 1.14-5.959 1.98 2.35 3.21 4.799 6.01 6.299 4.08 2.71 9.1 2.62 13.8 2.54.72-1.5.682-3.268.85-5.16 2.64 1.5 6.16 3.92 9.1 4.92 4.48 1.68 8.96 1.37 13.58.56.66-2.11 1.31-4.22 2.19-6.25 1.88 2.48 2.469 5.09 5.589 6.24 5.33 2.5 10.34 2.24 15.37-.81 1.07-1.07.74-3.39 1.13-4.82 3.79 1.66 7.719 4.92 11.859 5.1 3.13.18 6.549.161 9.54-.839 2.1-1.01 3.47-3.05 4.98-4.76-1.04-2.17-2.16-4.28-3.11-6.49 5.65 1.1 8.911 5.17 15.072 3.23 3.66-1.99 7.948-6.8 9.367-10.73.99-1.75-.97-4.16-1.42-5.911 7.765-.15 15.617.46 14.65-7.1-.42-5.777-.8-7.89-4.769-11.34 5.992.38 10.566-.686 11.732-6.307l.04-.003c-.1-3.68 1.476-6.778-2.08-10.144-1.838-1.7-4.52-2.32-5.348-2.446l3.439-5.462c1.22-1.764 1.308-4.095.678-6.217-.47-2.89-1.14-5.551-3.4-7.591-5.656-4.02-9.721.121-13.09 1.32-.011-7.613-1.669-19.112-9.9-20.329-5.3-.92-9.69 1.42-13.88 4.38-2.742-6.563-4.77-12.134-12.657-12.083zm-125.04 1.06c.957.016 1.984.339 3.114 1.066 2.184 1.404 2.556 5.698 2.446 7.888-3.112-3.974-6.304-5.625-11.203-5.657 1.771-1.89 3.537-3.335 5.642-3.298zm77.43.65c1.509.331 4.82.31 7.176 3.375 1.57 2.194 1.149 6.147-1.266 7.186-.88-4.162-3.729-7.19-5.91-10.561zm-102.608.647h.002c1.244-.002 2.469.514 3.84 1.624 1.52 1.571 1.993 3.894-.054 7.91-1.429-3.996-4.678-6.873-7.746-8.046 1.45-.964 2.714-1.485 3.958-1.488zm126.608 2.352c1.509.332 4.82.311 7.176 3.375 1.57 2.195 1.149 6.148-1.266 7.187-.88-4.162-3.729-7.19-5.91-10.562zm27.266.096c3.962.552 5.803 3.073 5.701 6.719.095 2.726-3.052 4.874-4.452 4.61.242-3.093-.352-8.149-1.249-11.329zm-67.949 4.932c.766 1.962-.08 3.194-.893 4.853-.966-2.654-4.863-5.934-4.863-5.934 1.527.036 5.103-.298 5.756 1.08zm92.46 4.268c2.73 1.04 4.73 4.493 4.73 7.19 0 3.434-2.45 4.25-5.65 4.37 1.867-3.814.83-7.89.92-11.56zm20.496 20.372c1.57 1.684 1.322 6.427.12 8.603-2.328 2.457-4.982 2.154-9.112 1.288 3.962-3.606 6.863-6.181 8.993-9.891zm-18.796 20.685s.932 9.864-7.701 21.426c-3.786 5.04-9.47 9.612-16.907 12.667-7.102 2.918-15.001 4.374-23.508 4.775-9.122.44-18.363-.303-27.662-1.805-3.251-.523-6.54-1.136-9.853-1.83-6.335-1.328-13.163-2.28-20.098-2.803-9.729-.73-19.222-.752-28.48.195-8.765.916-16.492 2.442-23.383 5.656-3.042 1.42-5.7 3.076-7.85 5.149-2.115 2.035-3.624 4.392-4.404 6.842-1.007 3.103-.845 6.344-.337 8.944 1.487 7.586 4.664 11.415 4.664 11.415s-3.531-3.477-5.69-11.17c-.748-2.67-1.181-6.101-.318-9.66.694-2.803 2.188-5.578 4.42-7.996 2.248-2.435 5.045-4.444 8.217-6.123 7.129-3.78 15.242-5.831 24.207-7.025 9.511-1.287 19.326-1.468 29.292-.714l.001-.001c7.117.536 14.14 1.515 20.68 2.886 3.25.68 6.47 1.28 9.646 1.792 9.11 1.463 18.01 2.357 26.811 2.2 8.21-.157 15.717-1.17 22.548-3.588 7.107-2.517 12.694-6.404 16.596-10.937 9.01-10.402 9.107-20.295 9.107-20.295zm22.706.61c-.745 3.92-1.584 5.224-3.811 6.147-2.967 1.23-6.49.164-9.383-2.196 3.971-1.514 9.14-2.212 13.194-3.95zm-6.946 20.312c-.056 1.241-.779 4.448-3.927 5.259-3.754.367-8.18-.98-9.046-3.193 4.556-.122 9.862-1.845 12.973-2.066zm-29.08 15.13c2.818 3.547 6.636 5.015 8.928 5.971-2.195 1.448-4.492 2.93-7.412.23-1.74-1.42-1.396-4.23-1.516-6.2zm-108.592 5.551c1.964 2.124 3.357 3.275 6.14 6.327-1.32.156-3.988-.02-5.733-1.062-1.67-1.1-.874-3.64-.407-5.265zm85.897 1.07c1.38 1.85 2.545 3.998 4.562 5.07 2.379 1.266 4.609 1.57 7.279 1.97-2.913 4.218-8.327 2.15-10.818-.077-1.95-2.211-1.913-4.694-1.023-6.964zm-102.847.05c2.073 2.384 3.313 4.808 5.193 7.114-2.856.01-4.652-.509-5.943-1.983-1.075-1.227.056-4.235.75-5.132zm36.269.86c1.289 2.251 4.285 5.782 6.423 8.047-3.111.038-5.596-.176-6.826-2.786-.53-1.39-.709-3.89.403-5.26zm20.78 1.12c1.61 2.711 3.834 5.313 6.51 7.78-1.78.003-4.04-.14-5.53-1.45-1.81-1.62-2.28-4.22-.98-6.33zm22.97 2.24c1.29 1.16 2.262 2.67 3.68 3.66 1.487 1.038 3.3 1.51 4.93 2.3-1.327 1.26-3.25 2.31-5.48 1.4-3.45-.95-4.35-4.26-3.13-7.36zm-88.402 8.08c.528 1.323-1.211 3.074-2.874 3.693-4.693.533-5.437-.752-6.21-1.853 3.9-.731 6.124-1.04 9.084-1.84zm-28.761 7.573s.904 2.127 2.883 5.367c1.893 3.1 5.107 7.61 9.85 10.159 4.41 2.502 9.82 3.034 15.717 2.87 9.405-.351 20.46-3.19 32.61-4.458 15.741-1.643 28.028 5.411 32.576 15.5a18.887 18.887 0 0 1 .61 13.89c-1.608 4.468-4.454 7.445-6.622 9.259-2.17 1.816-3.675 2.563-3.675 2.563s1.191-1.19 2.776-3.401c1.554-2.17 3.51-5.463 4.2-9.336.672-3.578.223-7.555-1.39-11.125-3.609-8.003-13.833-14.354-28.007-12.875-11.942 1.247-23.124 4.116-32.91 4.481-6.434.298-12.764-.98-17.743-4.445-5.194-3.77-7.779-9.046-9.11-12.534-1.389-3.64-1.765-5.915-1.765-5.915zm61.66 3.782c2.795.32 4.981.185 6.111 3.825.205 2.003-1.465 4.43-2.895 4.31-.703-3.274-1.313-5.794-3.216-8.135zm-33.333 2.782s-.915 3.033-2.225 3.593c-1.273.544-3.245-.202-4.568-1.884 1.4-.33 4.581-1.225 6.793-1.71zm55.83.77s2.173 3.54 1.519 4.765c-.62 1.16-3.354 1.78-4.743 1.116 1.06-1.777 2.374-3.895 3.224-5.88zm13.003 5.813c.905 1.102 1.479 3.378.596 4.68-.925 1.365-3.68 1.208-4.79 1.238 1.18-1.917 3.869-5.15 4.194-5.918zm9.45 12.86c-.12 1.43.343 3.178-.62 4.23-1.424 1.557-4.366 1.513-6.158 1.469 1.98-2.2 4.596-3.882 6.778-5.7zM93.325 33.487c1.63-1.05 3.17 1.71.99 2.04-1.16-.38-1.49-1.06-.99-2.04z" fill="#fff"/>
<path d="m15.733 15.733v348.29c0.122 121.73 98.505 220.02 220.24 220.02 121.74 0 220.12-98.295 220.24-220.04v-348.28z" fill="none" stroke="#fff" stroke-width="3"/></svg>
