<?xml version="1.0" encoding="UTF-8" standalone="no"?>
<!-- Created with Inkscape (http://www.inkscape.org/) -->

<svg
   width="121.00097mm"
   height="134.43063mm"
   viewBox="0 0 121.00097 134.43063"
   version="1.1"
   id="svg1816"
   inkscape:version="1.2.2 (732a01da63, 2022-12-09)"
   sodipodi:docname="Wappen Boksee2.svg"
   xmlns:inkscape="http://www.inkscape.org/namespaces/inkscape"
   xmlns:sodipodi="http://sodipodi.sourceforge.net/DTD/sodipodi-0.dtd"
   xmlns="http://www.w3.org/2000/svg"
   xmlns:svg="http://www.w3.org/2000/svg">
  <sodipodi:namedview
     id="namedview1818"
     pagecolor="#ffffff"
     bordercolor="#666666"
     borderopacity="1.0"
     inkscape:showpageshadow="2"
     inkscape:pageopacity="0.0"
     inkscape:pagecheckerboard="0"
     inkscape:deskcolor="#d1d1d1"
     inkscape:document-units="mm"
     showgrid="false"
     inkscape:zoom="1.0535257"
     inkscape:cx="229.2303"
     inkscape:cy="254.85853"
     inkscape:current-layer="layer1" />
  <defs
     id="defs1813">
    <inkscape:path-effect
       effect="offset"
       id="path-effect1110"
       is_visible="true"
       lpeversion="1.2"
       linejoin_type="round"
       unit="mm"
       offset="0.62804752"
       miter_limit="4"
       attempt_force_join="true"
       update_on_knot_move="true" />
    <inkscape:path-effect
       effect="offset"
       id="path-effect1586"
       is_visible="true"
       lpeversion="1.2"
       linejoin_type="round"
       unit="mm"
       offset="0.62804752"
       miter_limit="4"
       attempt_force_join="true"
       update_on_knot_move="true" />
    <inkscape:path-effect
       effect="offset"
       id="path-effect1626"
       is_visible="true"
       lpeversion="1.2"
       linejoin_type="round"
       unit="mm"
       offset="0.62804752"
       miter_limit="4"
       attempt_force_join="true"
       update_on_knot_move="true" />
  </defs>
  <g
     inkscape:label="Ebene 1"
     inkscape:groupmode="layer"
     id="layer1"
     transform="translate(-46.469859,-80.026207)">
    <g
       id="g1682"
       transform="translate(0.31535475,3.4358339)">
      <path
         id="path1375"
         style="fill:#ff0000;stroke:#000000;stroke-width:1.4;stroke-linecap:square;stroke-dasharray:none"
         d="m 46.854504,77.290373 v 72.274657 a 59.800476,60.756077 0 0 0 59.800486,60.75598 59.800476,60.756077 0 0 0 59.80048,-60.75598 V 77.290373 Z" />
      <path
         id="path1263"
         style="fill:#ffffff;stroke:#000000;stroke-width:0.6;stroke-linecap:square;stroke-dasharray:none"
         d="M 62.906238,79.967729 49.242989,80.175985 V 94.70068 l 10.147184,7.25795 -10.147184,10.25984 10.147184,9.01392 -10.147184,11.22826 10.147184,9.56582 -10.077937,11.80548 12.382706,8.20364 -7.892025,12.18737 14.70918,1.39733 -4.010608,14.47715 16.025895,-2.7559 2.491838,15.87241 17.525028,-9.81904 -4.139282,11.06755 9.849012,5.15679 9.84849,-5.15679 -4.13876,-11.06755 17.52451,9.81904 2.49184,-15.87241 16.02589,2.7559 -4.0106,-14.47715 14.70917,-1.39733 -7.89202,-12.18737 12.38271,-8.20364 -10.07794,-11.80548 10.14718,-9.56582 -10.14718,-11.22826 10.14718,-9.01392 -10.14718,-10.25984 10.14718,-7.25795 V 80.175985 L 149.60172,79.967729 140.93197,91.272982 129.27996,80.175985 117.97523,91.619731 106.25398,80.073665 94.532731,91.619731 83.227478,80.175985 71.575476,91.272982 Z" />
      <path
         id="path1449"
         style="fill:#0000ff;stroke:#000000;stroke-width:0.6;stroke-linecap:square;stroke-dasharray:none"
         sodipodi:type="inkscape:offset"
         inkscape:radius="-15.301189"
         inkscape:original="M 46.855469 77.291016 L 46.855469 149.56445 A 59.800476 60.756077 0 0 0 106.6543 210.32031 A 59.800476 60.756077 0 0 0 166.45508 149.56445 L 166.45508 77.291016 L 46.855469 77.291016 z "
         d="m 62.15625,92.591797 v 56.972653 c 8.4e-5,23.92566 21.326759,45.45443 44.49805,45.45508 23.17177,1.2e-4 44.49991,-21.52892 44.5,-45.45508 V 92.591797 Z" />
      <g
         id="g1179"
         transform="translate(-24.536168,36.113261)">
        <path
           id="path1108"
           style="fill:#000000;stroke:none;stroke-width:0.25;stroke-linecap:round;stroke-dasharray:none"
           d="m 130.875,98.833984 a 0.62804752,0.62804752 0 0 0 -0.5625,0.347657 c -1.30805,2.611689 -1.0918,2.343749 -1.0918,2.343749 -0.0382,0.0948 -0.0735,0.18782 -0.10156,0.26953 -0.0291,0.0845 -0.0654,0.20575 -0.0781,0.28516 -0.0375,0.23403 -0.0946,0.60288 -0.17383,0.91992 a 0.62804752,0.62804752 0 0 0 -0.89453,0.25977 c -0.45462,2.09123 -0.48243,1.91601 -0.48243,1.91601 -0.0145,0.0454 -0.0271,0.0762 -0.0391,0.10938 -0.0175,-0.002 0.006,0.01 -0.0586,-0.008 a 0.62804752,0.62804752 0 0 0 -0.7461,0.84571 c 0.22396,0.54154 0.24219,0.77734 0.24219,0.77734 0.006,0.0277 9.4e-4,0.0367 0.006,0.0625 -0.0445,-0.0449 -0.0805,-0.0656 -0.12891,-0.12109 0,0 -0.18136,-0.15964 -0.48437,-0.66016 a 0.62804752,0.62804752 0 0 0 -1.1582,0.41797 c 0.16249,1.11154 0.0805,1.25491 0.0469,1.48437 -0.011,-0.0109 -0.14331,-0.13706 -0.44531,-0.68554 a 0.62804752,0.62804752 0 0 0 -1.17773,0.3164 c 0.0417,1.83332 -0.0187,1.76245 -0.0488,1.875 -0.0141,-0.0222 -0.006,-0.003 -0.0215,-0.0273 a 0.62804752,0.62804752 0 0 0 -1.15429,0.41992 c 0.15539,1.09475 0.13474,1.32111 0.13671,1.35352 0.002,0.0256 5.8e-4,0.0432 0.002,0.0684 -0.17122,-0.17525 -0.16901,-0.11073 -0.54492,-0.62891 a 0.62804752,0.62804752 0 0 0 -1.13282,0.42383 c 0.19851,2.23241 0.11133,2.50976 0.11133,2.50976 -0.002,0.11123 -0.006,0.21319 -0.0117,0.30664 -0.001,0.0165 -0.003,0.0255 -0.004,0.041 -0.10486,-0.008 -0.091,0.0279 -0.3125,-0.0527 a 0.62804752,0.62804752 0 0 0 -0.81641,0.76953 c 0.0766,0.25784 0.077,0.4608 0.0937,0.67773 -0.0857,-0.061 -0.18101,-0.10454 -0.47852,-0.47265 a 0.62804752,0.62804752 0 0 0 -1.08984,0.57421 c 0.39647,1.33099 0.32588,1.74686 0.31641,1.83789 -0.0923,-0.0111 -0.41699,-0.023 -1.33203,-0.57617 a 0.62804752,0.62804752 0 0 0 -0.90039,0.78516 c 0.70614,1.63519 0.63755,1.65206 0.65624,1.78906 -0.23049,-0.16424 -0.48514,-0.35093 -0.52734,-0.38476 -0.004,-0.004 -0.007,-0.007 -0.008,-0.008 h -0.002 a 0.62804752,0.62804752 0 0 0 -0.98438,0.70508 c 0.71191,1.92735 0.6381,1.98226 0.64063,2.09961 -0.12631,-0.10765 -0.10667,-0.0573 -0.33594,-0.30273 a 0.62804752,0.62804752 0 0 0 -1.05664,0.625 c 0.78696,2.40271 0.6622,2.15092 0.64648,2.16015 a 0.62804752,0.62804752 0 0 0 -0.80469,0.82422 c 0.51919,0.81765 0.52138,0.91352 0.60938,1.11914 -0.0498,-0.0246 -0.0185,-0.001 -0.0781,-0.0332 a 0.62804752,0.62804752 0 0 0 -0.76562,0.9707 c 0.87864,0.99456 1.01661,1.32139 1.08984,1.46289 -0.047,-0.0115 -0.0791,-0.0116 -0.1289,-0.0254 -0.0376,-0.0104 -0.20353,-0.0248 -0.82032,-0.2832 a 0.62804752,0.62804752 0 0 0 -0.70507,1.00391 c 1.9032,2.0826 1.89456,2.23709 1.89453,2.23828 -0.0853,-0.0176 -0.13919,-0.0132 -0.70508,-0.23047 a 0.62804752,0.62804752 0 0 0 -0.70313,0.99219 c 1.51792,1.78239 1.60743,2.07421 1.60743,2.07421 0.0103,0.0153 0.0174,0.028 0.0273,0.043 a 0.62804752,0.62804752 0 0 0 -0.66797,1.02149 c 1.99377,2.01467 2.03782,2.26366 2.03906,2.26953 -0.0261,-0.007 -0.23086,-0.0565 -0.86718,-0.38867 a 0.62804752,0.62804752 0 0 0 -0.7461,0.98828 c 1.76774,1.86624 0.90585,0.95923 1.16602,1.25 0.29963,0.33488 1.58794,0.89132 2.49414,1.36133 -0.0854,0.0223 -0.10293,0.0438 -0.62695,0.0937 a 0.62804752,0.62804752 0 0 0 -0.24415,1.17382 c 2.88411,1.59335 2.75391,1.61719 2.75391,1.61719 0.12338,0.0785 0.23956,0.15348 0.3457,0.22461 0.058,0.0389 0.0998,0.0702 0.15039,0.10547 a 0.62804752,0.62804752 0 0 0 0.0684,1.125 c 0.74659,0.21382 0.98633,0.35156 0.98633,0.35156 0.0552,0.0235 0.0852,0.0466 0.13672,0.0703 a 0.62804752,0.62804752 0 0 0 -0.24414,1.22266 c 2.98295,0.89577 4.30859,1.74023 4.30859,1.74024 0,0 1.47471,0.81867 2.9375,2.02148 l -0.008,2.39648 a 0.62804752,0.62804752 0 0 0 0.62891,0.63086 h 0.35742 0.35742 a 0.62804752,0.62804752 0 0 0 0.62891,-0.63086 l -0.008,-2.39648 c 1.45706,-1.19648 2.93945,-2.02148 2.93945,-2.02148 0,0 1.32877,-0.84468 4.30859,-1.74024 a 0.62804752,0.62804752 0 0 0 -0.24414,-1.22266 c 0.051,-0.0234 0.0802,-0.0471 0.13477,-0.0703 0,0 0.23974,-0.13774 0.98633,-0.35156 a 0.62804752,0.62804752 0 0 0 0.0859,-1.13672 c 0.0457,-0.0317 0.0831,-0.0591 0.13477,-0.0937 0.1062,-0.0711 0.2203,-0.14613 0.34375,-0.22461 0,0 -0.12998,-0.0237 2.75586,-1.61719 a 0.62804752,0.62804752 0 0 0 -0.24414,-1.17382 c -0.52403,-0.0499 -0.54152,-0.0715 -0.62696,-0.0937 0.90621,-0.47001 2.19453,-1.02646 2.49415,-1.36133 0.26154,-0.29231 -0.59791,0.61632 1.16601,-1.25 a 0.62804752,0.62804752 0 0 0 -0.74805,-0.98828 c -0.63229,0.33043 -0.83598,0.37907 -0.86328,0.38672 0.001,-0.006 0.0448,-0.25513 2.03516,-2.26758 a 0.62804752,0.62804752 0 0 0 -0.66602,-1.02539 c 0.009,-0.0137 0.016,-0.0251 0.0254,-0.0391 0,0 0.0895,-0.29182 1.60743,-2.07421 a 0.62804752,0.62804752 0 0 0 -0.70313,-0.99219 c -0.56307,0.21639 -0.61785,0.21087 -0.70312,0.22851 -4e-5,-0.001 -0.008,-0.15478 1.89453,-2.23632 a 0.62804752,0.62804752 0 0 0 -0.70508,-1.00391 c -0.60509,0.25321 -0.80582,0.27919 -0.82031,0.2832 -0.0497,0.0137 -0.082,0.0139 -0.12891,0.0254 0.0734,-0.14171 0.21009,-0.46812 1.08984,-1.46289 a 0.62804752,0.62804752 0 0 0 -0.76562,-0.9707 c -0.0611,0.0325 -0.0293,0.008 -0.0801,0.0332 0.088,-0.20562 0.0902,-0.30149 0.60938,-1.11914 a 0.62804752,0.62804752 0 0 0 -0.79493,-0.85351 c -0.0141,-0.0159 -0.13899,0.23901 0.63868,-2.13086 a 0.62804752,0.62804752 0 0 0 -1.05665,-0.625 c -0.20961,0.22436 -0.18331,0.16986 -0.30664,0.27734 0.004,-0.0452 0.0112,-0.32025 0.82227,-2.32422 a 0.62804752,0.62804752 0 0 0 -0.99219,-0.71094 c -0.56155,0.48527 -0.62263,0.5024 -0.70898,0.5586 0.0289,-0.16597 -0.0462,-0.14548 0.625,-1.69727 a 0.62804752,0.62804752 0 0 0 -0.90039,-0.78711 c -0.90068,0.54381 -1.23883,0.56336 -1.33399,0.57617 -0.009,-0.091 -0.0793,-0.50658 0.31836,-1.83789 a 0.62804752,0.62804752 0 0 0 -1.08984,-0.57421 c -0.2975,0.36811 -0.39282,0.41161 -0.47852,0.47265 0.0167,-0.21693 0.0172,-0.4199 0.0937,-0.67773 a 0.62804752,0.62804752 0 0 0 -0.8164,-0.76953 c -0.22159,0.0806 -0.20765,0.0448 -0.3125,0.0527 -0.001,-0.0156 -0.003,-0.0245 -0.004,-0.041 -0.006,-0.0935 -0.01,-0.19541 -0.0117,-0.30664 0,0 -0.0872,-0.27735 0.11133,-2.50976 a 0.62804752,0.62804752 0 0 0 -1.13281,-0.42383 c -0.40844,0.56302 -0.42394,0.51726 -0.5918,0.68359 4.8e-4,-0.0281 -0.003,-0.0475 -0.002,-0.0762 7.1e-4,-0.0286 -0.0271,-0.2429 0.0879,-1.28125 A 0.62804752,0.62804752 0 0 0 138.25,109.65625 c -0.0177,-0.29907 -0.0451,-0.57667 -0.0488,-0.89063 -0.004,-0.34655 -5.9e-4,-0.65505 0.002,-0.84765 0.002,-0.11521 0.002,-0.18896 0.002,-0.20117 a 0.62804752,0.62804752 0 0 0 -1.17774,-0.31836 c -0.30441,0.55166 -0.43768,0.68001 -0.44726,0.68945 -0.0337,-0.22825 -0.11605,-0.37382 0.0469,-1.48828 a 0.62804752,0.62804752 0 0 0 -1.1582,-0.41602 c -0.30217,0.50016 -0.48242,0.65821 -0.48242,0.65821 -0.0483,0.0555 -0.0845,0.0762 -0.12891,0.12109 0.005,-0.0264 -2.6e-4,-0.036 0.006,-0.0645 0,0 0.017,-0.23411 0.24024,-0.77539 a 0.62804752,0.62804752 0 0 0 -0.7461,-0.84571 c -0.0644,0.0177 -0.0411,0.006 -0.0586,0.008 -0.0119,-0.0332 -0.0245,-0.064 -0.0391,-0.10938 0,0 -0.0278,0.17527 -0.48243,-1.91601 a 0.62804752,0.62804752 0 0 0 -0.89257,-0.26172 c -0.0789,-0.3166 -0.13648,-0.68452 -0.17383,-0.91797 -0.0127,-0.0796 -0.049,-0.20255 -0.0781,-0.28711 -0.0281,-0.0817 -0.0633,-0.17274 -0.10156,-0.26758 0,0 0.2143,0.26737 -1.0957,-2.343749 A 0.62804752,0.62804752 0 0 0 130.875,98.833984 Z"
           inkscape:path-effect="#path-effect1110"
           inkscape:original-d="m 130.87522,99.462146 c 0,0 -1.14407,2.283664 -1.21337,2.717144 -0.0694,0.43348 -0.19106,1.64685 -0.6072,1.68155 -0.41614,0.0347 -0.46818,-0.46818 -0.46818,-0.46818 0,0 -0.43312,1.99433 -0.63252,2.3151 -0.1994,0.32077 -0.72657,0.17467 -0.72657,0.17467 0,0 0.7059,1.71111 0.0806,1.94406 -0.62529,0.23295 -1.56373,-1.31878 -1.56373,-1.31878 0,0 0.35526,2.42744 -0.15968,2.62361 -0.51494,0.19617 -1.41076,-1.42988 -1.41076,-1.42988 0,0 0.0691,3.02561 -0.25167,3.13831 -0.32077,0.11271 -0.97943,-0.94487 -0.97943,-0.94487 0,0 0.40056,2.82306 -0.0608,2.75716 -0.4248,-0.0607 -1.47382,-1.50844 -1.47382,-1.50844 0,0 0.31249,3.51953 -0.0863,3.58893 -0.3988,0.0694 -0.971,-0.13849 -0.971,-0.13849 0,0 0.381,1.28304 -0.0351,1.6645 -0.41613,0.38146 -1.43919,-0.8847 -1.43919,-0.8847 0,0 0.69375,2.32362 0.20826,2.65306 -0.48549,0.32944 -2.14974,-0.67592 -2.14974,-0.67592 0,0 1.21357,2.80845 0.91881,3.06854 -0.29476,0.26008 -1.76889,-0.93586 -1.76889,-0.93586 0,0 1.14439,3.10342 0.81494,3.43287 -0.32944,0.32944 -1.56011,-0.98806 -1.56011,-0.98806 0,0 1.04019,3.17307 0.91881,3.41582 -0.12137,0.24274 -1.14464,-0.57258 -1.14464,-0.57258 0,0 1.26595,1.99428 1.0232,2.2717 -0.24275,0.27743 -1.31775,-0.29507 -1.31775,-0.29507 0,0 1.8555,2.09797 1.49138,2.47943 -0.36412,0.38146 -2.06344,-0.32918 -2.06344,-0.32918 0,0 2.75703,3.01684 2.53163,3.36362 -0.22541,0.34679 -2.02882,-0.34675 -2.02882,-0.34675 0,0 2.39259,2.80916 2.08049,3.12126 -0.3121,0.31215 -1.14411,-0.0176 -1.14411,-0.0176 0,0 3.05158,3.08654 2.67012,3.468 -0.38146,0.38146 -2.23656,-0.58962 -2.23656,-0.58962 0,0 0.88397,0.93611 1.17874,1.26555 0.29476,0.32944 3.34665,1.52615 3.31195,1.92495 -0.0347,0.39879 -1.85519,0.57206 -1.85519,0.57206 0,0 3.83156,2.1156 3.84886,2.46238 0.0173,0.34676 -0.65887,0.55449 -0.65887,0.55449 0,0 2.11563,0.60729 2.11563,1.19682 0,0.58952 -1.23093,0.45062 -1.23093,0.45062 0,0 2.38869,0.71823 4.42143,1.78594 1.71657,0.90163 3.27422,2.25309 3.27422,2.25309 l -0.008,2.72283 0.35761,-0.001 0.3576,0.001 -0.008,-2.72283 c 0,0 1.55765,-1.35146 3.27422,-2.25309 2.03275,-1.06771 4.42143,-1.78594 4.42143,-1.78594 0,0 -1.23093,0.1389 -1.23093,-0.45062 0,-0.58953 2.11563,-1.19682 2.11563,-1.19682 0,0 -0.67621,-0.20773 -0.65887,-0.55449 0.0173,-0.34678 3.84886,-2.46238 3.84886,-2.46238 0,0 -1.8205,-0.17327 -1.85518,-0.57206 -0.0347,-0.3988 3.01718,-1.59551 3.31194,-1.92495 0.29477,-0.32944 1.17925,-1.26555 1.17925,-1.26555 0,0 -1.85561,0.97108 -2.23707,0.58962 -0.38146,-0.38146 2.67012,-3.468 2.67012,-3.468 0,0 -0.832,0.32972 -1.14411,0.0176 -0.3121,-0.3121 2.08049,-3.12126 2.08049,-3.12126 0,0 -1.80341,0.69354 -2.02882,0.34675 -0.2254,-0.34678 2.53163,-3.36362 2.53163,-3.36362 0,0 -1.69932,0.71064 -2.06344,0.32918 -0.36412,-0.38146 1.49138,-2.47943 1.49138,-2.47943 0,0 -1.075,0.5725 -1.31775,0.29507 -0.24275,-0.27742 1.0232,-2.2717 1.0232,-2.2717 0,0 -1.02327,0.81532 -1.14464,0.57258 -0.12138,-0.24275 0.91881,-3.41582 0.91881,-3.41582 0,0 -1.23067,1.3175 -1.56011,0.98806 -0.32945,-0.32945 1.03563,-3.7026 1.03563,-3.7026 0,0 -1.69482,1.46567 -1.98958,1.20559 -0.29476,-0.26009 0.91933,-3.06854 0.91933,-3.06854 0,0 -1.66477,1.00536 -2.15026,0.67592 -0.48549,-0.32944 0.20826,-2.65306 0.20826,-2.65306 0,0 -1.02306,1.26616 -1.43919,0.8847 -0.41614,-0.38146 -0.0346,-1.6645 -0.0346,-1.6645 0,0 -0.5722,0.20785 -0.971,0.13849 -0.39879,-0.0694 -0.0868,-3.58893 -0.0868,-3.58893 0,0 -1.04901,1.44776 -1.47381,1.50844 -0.46138,0.0659 -0.16485,-2.61845 -0.16485,-2.61845 0,0 -0.55463,0.91887 -0.8754,0.80616 -0.32077,-0.1127 -0.25166,-3.13831 -0.25166,-3.13831 0,0 -0.89583,1.62605 -1.41077,1.42988 -0.51494,-0.19617 -0.15968,-2.62361 -0.15968,-2.62361 0,0 -0.93844,1.55173 -1.56373,1.31878 -0.62529,-0.23295 0.0806,-1.94406 0.0806,-1.94406 0,0 -0.52666,0.1461 -0.72606,-0.17467 -0.1994,-0.32077 -0.63304,-2.3151 -0.63304,-2.3151 0,0 -0.052,0.50286 -0.46818,0.46818 -0.41614,-0.0347 -0.53733,-1.24807 -0.60668,-1.68155 -0.0693,-0.43348 -1.21388,-2.717144 -1.21388,-2.717144 z"
           sodipodi:nodetypes="ccscscscscscscscscscscscscscscscscscsscscscscccccscscccsscscscscscscscscscscscccscscscscscsccc" />
        <path
           id="path291"
           style="fill:#ffff00;stroke:none;stroke-width:0.25;stroke-linecap:round;stroke-dasharray:none"
           d="m 130.87522,99.462146 c 0,0 -1.14407,2.283664 -1.21337,2.717144 -0.0694,0.43348 -0.19106,1.64685 -0.6072,1.68155 -0.41614,0.0347 -0.46818,-0.46818 -0.46818,-0.46818 0,0 -0.43312,1.99433 -0.63252,2.3151 -0.1994,0.32077 -0.72657,0.17467 -0.72657,0.17467 0,0 0.7059,1.71111 0.0806,1.94406 -0.62529,0.23295 -1.56373,-1.31878 -1.56373,-1.31878 0,0 0.35526,2.42744 -0.15968,2.62361 -0.51494,0.19617 -1.41076,-1.42988 -1.41076,-1.42988 0,0 0.0691,3.02561 -0.25167,3.13831 -0.32077,0.11271 -0.8754,-0.80616 -0.8754,-0.80616 0,0 0.29653,2.68435 -0.16484,2.61845 -0.4248,-0.0607 -1.47382,-1.50844 -1.47382,-1.50844 0,0 0.31249,3.51953 -0.0863,3.58893 -0.3988,0.0694 -0.971,-0.13849 -0.971,-0.13849 0,0 0.381,1.28304 -0.0351,1.6645 -0.41613,0.38146 -1.43919,-0.8847 -1.43919,-0.8847 0,0 0.69375,2.32362 0.20826,2.65306 -0.48549,0.32944 -2.14974,-0.67592 -2.14974,-0.67592 0,0 1.21357,2.80845 0.91881,3.06854 -0.29476,0.26008 -1.76889,-0.93586 -1.76889,-0.93586 0,0 1.14439,3.10342 0.81494,3.43287 -0.32944,0.32944 -1.56011,-0.98806 -1.56011,-0.98806 0,0 1.04019,3.17307 0.91881,3.41582 -0.12137,0.24274 -1.14464,-0.57258 -1.14464,-0.57258 0,0 1.26595,1.99428 1.0232,2.2717 -0.24275,0.27743 -1.31775,-0.29507 -1.31775,-0.29507 0,0 1.8555,2.09797 1.49138,2.47943 -0.36412,0.38146 -2.06344,-0.32918 -2.06344,-0.32918 0,0 2.75703,3.01684 2.53163,3.36362 -0.22541,0.34679 -2.02882,-0.34675 -2.02882,-0.34675 0,0 2.39259,2.80916 2.08049,3.12126 -0.3121,0.31215 -1.14411,-0.0176 -1.14411,-0.0176 0,0 3.05158,3.08654 2.67012,3.468 -0.38146,0.38146 -2.23656,-0.58962 -2.23656,-0.58962 0,0 0.88397,0.93611 1.17874,1.26555 0.29476,0.32944 3.34665,1.52615 3.31195,1.92495 -0.0347,0.39879 -1.85519,0.57206 -1.85519,0.57206 0,0 3.83156,2.1156 3.84886,2.46238 0.0173,0.34676 -0.65887,0.55449 -0.65887,0.55449 0,0 2.11563,0.60729 2.11563,1.19682 0,0.58952 -1.23093,0.45062 -1.23093,0.45062 0,0 2.38869,0.71823 4.42143,1.78594 1.71657,0.90163 3.27422,2.25309 3.27422,2.25309 l -0.008,2.72283 0.35761,-0.001 0.3576,0.001 -0.008,-2.72283 c 0,0 1.55765,-1.35146 3.27422,-2.25309 2.03275,-1.06771 4.42143,-1.78594 4.42143,-1.78594 0,0 -1.23093,0.1389 -1.23093,-0.45062 0,-0.58953 2.11563,-1.19682 2.11563,-1.19682 0,0 -0.67621,-0.20773 -0.65887,-0.55449 0.0173,-0.34678 3.84886,-2.46238 3.84886,-2.46238 0,0 -1.8205,-0.17327 -1.85518,-0.57206 -0.0347,-0.3988 3.01718,-1.59551 3.31194,-1.92495 0.29477,-0.32944 1.17925,-1.26555 1.17925,-1.26555 0,0 -1.85561,0.97108 -2.23707,0.58962 -0.38146,-0.38146 2.67012,-3.468 2.67012,-3.468 0,0 -0.832,0.32972 -1.14411,0.0176 -0.3121,-0.3121 2.08049,-3.12126 2.08049,-3.12126 0,0 -1.80341,0.69354 -2.02882,0.34675 -0.2254,-0.34678 2.53163,-3.36362 2.53163,-3.36362 0,0 -1.69932,0.71064 -2.06344,0.32918 -0.36412,-0.38146 1.49138,-2.47943 1.49138,-2.47943 0,0 -1.075,0.5725 -1.31775,0.29507 -0.24275,-0.27742 1.0232,-2.2717 1.0232,-2.2717 0,0 -1.02327,0.81532 -1.14464,0.57258 -0.12138,-0.24275 0.91881,-3.41582 0.91881,-3.41582 0,0 -1.23067,1.3175 -1.56011,0.98806 -0.32945,-0.32945 0.81494,-3.43287 0.81494,-3.43287 0,0 -1.47413,1.19594 -1.76889,0.93586 -0.29476,-0.26009 0.91933,-3.06854 0.91933,-3.06854 0,0 -1.66477,1.00536 -2.15026,0.67592 -0.48549,-0.32944 0.20826,-2.65306 0.20826,-2.65306 0,0 -1.02306,1.26616 -1.43919,0.8847 -0.41614,-0.38146 -0.0346,-1.6645 -0.0346,-1.6645 0,0 -0.5722,0.20785 -0.971,0.13849 -0.39879,-0.0694 -0.0868,-3.58893 -0.0868,-3.58893 0,0 -1.04901,1.44776 -1.47381,1.50844 -0.46138,0.0659 -0.16485,-2.61845 -0.16485,-2.61845 0,0 -0.55463,0.91887 -0.8754,0.80616 -0.32077,-0.1127 -0.25166,-3.13831 -0.25166,-3.13831 0,0 -0.89583,1.62605 -1.41077,1.42988 -0.51494,-0.19617 -0.15968,-2.62361 -0.15968,-2.62361 0,0 -0.93844,1.55173 -1.56373,1.31878 -0.62529,-0.23295 0.0806,-1.94406 0.0806,-1.94406 0,0 -0.52666,0.1461 -0.72606,-0.17467 -0.1994,-0.32077 -0.63304,-2.3151 -0.63304,-2.3151 0,0 -0.052,0.50286 -0.46818,0.46818 -0.41614,-0.0347 -0.53733,-1.24807 -0.60668,-1.68155 -0.0693,-0.43348 -1.21388,-2.717144 -1.21388,-2.717144 z" />
        <g
           id="g1161"
           transform="translate(49.238441,1.07893)">
          <path
             style="fill:none;stroke:#000000;stroke-width:0.6;stroke-linecap:square;stroke-dasharray:none"
             d="m 81.840371,103.27145 c 0,0 -0.138714,10.40344 -0.138714,12.06799 0,1.66455 0,11.30506 0,13.73253 0,2.42747 0.138714,7.35176 0.06936,9.29374 -0.06936,1.94198 -0.208069,9.29374 -0.208069,9.29374"
             id="path1122" />
          <path
             style="fill:none;stroke:#000000;stroke-width:0.600001;stroke-linecap:square;stroke-dasharray:none"
             d="m 92.763979,137.67215 -11.027643,6.9703"
             id="path1124" />
          <path
             style="fill:none;stroke:#000000;stroke-width:0.600001;stroke-linecap:square;stroke-dasharray:none"
             d="m 72.754701,137.84554 8.738888,7.03966"
             id="path1126" />
          <path
             style="fill:none;stroke:#000000;stroke-width:0.600001;stroke-linecap:square;stroke-dasharray:none"
             d="m 69.876418,130.35506 11.684423,10.28505"
             id="path1128"
             sodipodi:nodetypes="cc" />
          <path
             style="fill:none;stroke:#000000;stroke-width:0.600001;stroke-linecap:square;stroke-dasharray:none"
             d="M 81.893619,140.00767 95.226125,129.90425"
             id="path1130"
             sodipodi:nodetypes="cc" />
          <path
             style="fill:none;stroke:#000000;stroke-width:0.600001;stroke-linecap:square;stroke-dasharray:none"
             d="m 94.844665,123.52347 -12.90026,10.75022"
             id="path1132" />
          <path
             style="fill:none;stroke:#000000;stroke-width:0.600001;stroke-linecap:square;stroke-dasharray:none"
             d="M 81.64964,135.08863 69.807063,123.62751"
             id="path1134"
             sodipodi:nodetypes="cc" />
          <path
             style="fill:none;stroke:#000000;stroke-width:0.600001;stroke-linecap:square;stroke-dasharray:none"
             d="m 71.783714,119.11935 9.883265,10.23005"
             id="path1136" />
          <path
             style="fill:none;stroke:#000000;stroke-width:0.600001;stroke-linecap:square;stroke-dasharray:none"
             d="M 92.763979,118.28708 81.805692,129.41876"
             id="path1138" />
          <path
             style="fill:none;stroke:#000000;stroke-width:0.600001;stroke-linecap:square;stroke-dasharray:none"
             d="m 90.128441,113.60553 -8.28807,8.94696"
             id="path1140" />
          <path
             style="fill:none;stroke:#000000;stroke-width:0.600001;stroke-linecap:square;stroke-dasharray:none"
             d="m 73.968437,114.33377 7.802576,8.14936"
             id="path1142" />
          <path
             style="fill:none;stroke:#000000;stroke-width:0.600001;stroke-linecap:square;stroke-dasharray:none"
             d="m 87.354192,109.58287 -5.5485,5.68721"
             id="path1144" />
          <path
             style="fill:none;stroke:#000000;stroke-width:0.600001;stroke-linecap:square;stroke-dasharray:none"
             d="m 76.777365,109.86029 4.787504,5.67477"
             id="path1146"
             sodipodi:nodetypes="cc" />
        </g>
      </g>
      <g
         id="g1582"
         transform="translate(-47.197672,-0.98463824)">
        <path
           id="path1550"
           style="fill:#000000;stroke:none;stroke-width:0.25;stroke-linecap:round;stroke-dasharray:none"
           d="m 130.875,98.833984 a 0.62804752,0.62804752 0 0 0 -0.5625,0.347657 c -1.30805,2.611689 -1.0918,2.343749 -1.0918,2.343749 -0.0382,0.0948 -0.0735,0.18782 -0.10156,0.26953 -0.0291,0.0845 -0.0654,0.20575 -0.0781,0.28516 -0.0375,0.23403 -0.0946,0.60288 -0.17383,0.91992 a 0.62804752,0.62804752 0 0 0 -0.89453,0.25977 c -0.45462,2.09123 -0.48243,1.91601 -0.48243,1.91601 -0.0145,0.0454 -0.0271,0.0762 -0.0391,0.10938 -0.0175,-0.002 0.006,0.01 -0.0586,-0.008 a 0.62804752,0.62804752 0 0 0 -0.7461,0.84571 c 0.22396,0.54154 0.24219,0.77734 0.24219,0.77734 0.006,0.0277 9.4e-4,0.0367 0.006,0.0625 -0.0445,-0.0449 -0.0805,-0.0656 -0.12891,-0.12109 0,0 -0.18136,-0.15964 -0.48437,-0.66016 a 0.62804752,0.62804752 0 0 0 -1.1582,0.41797 c 0.16249,1.11154 0.0805,1.25491 0.0469,1.48437 -0.011,-0.0109 -0.14331,-0.13706 -0.44531,-0.68554 a 0.62804752,0.62804752 0 0 0 -1.17773,0.3164 c 0.0417,1.83332 -0.0187,1.76245 -0.0488,1.875 -0.0141,-0.0222 -0.006,-0.003 -0.0215,-0.0273 a 0.62804752,0.62804752 0 0 0 -1.15429,0.41992 c 0.15539,1.09475 0.13474,1.32111 0.13671,1.35352 0.002,0.0256 5.8e-4,0.0432 0.002,0.0684 -0.17122,-0.17525 -0.16901,-0.11073 -0.54492,-0.62891 a 0.62804752,0.62804752 0 0 0 -1.13282,0.42383 c 0.19851,2.23241 0.11133,2.50976 0.11133,2.50976 -0.002,0.11123 -0.006,0.21319 -0.0117,0.30664 -0.001,0.0165 -0.003,0.0255 -0.004,0.041 -0.10486,-0.008 -0.091,0.0279 -0.3125,-0.0527 a 0.62804752,0.62804752 0 0 0 -0.81641,0.76953 c 0.0766,0.25784 0.077,0.4608 0.0937,0.67773 -0.0857,-0.061 -0.18101,-0.10454 -0.47852,-0.47265 a 0.62804752,0.62804752 0 0 0 -1.08984,0.57421 c 0.39647,1.33099 0.32588,1.74686 0.31641,1.83789 -0.0923,-0.0111 -0.41699,-0.023 -1.33203,-0.57617 a 0.62804752,0.62804752 0 0 0 -0.90039,0.78516 c 0.70614,1.63519 0.63755,1.65206 0.65624,1.78906 -0.23049,-0.16424 -0.48514,-0.35093 -0.52734,-0.38476 -0.004,-0.004 -0.007,-0.007 -0.008,-0.008 h -0.002 a 0.62804752,0.62804752 0 0 0 -0.98438,0.70508 c 0.71191,1.92735 0.6381,1.98226 0.64063,2.09961 -0.12631,-0.10765 -0.10667,-0.0573 -0.33594,-0.30273 a 0.62804752,0.62804752 0 0 0 -1.05664,0.625 c 0.78696,2.40271 0.6622,2.15092 0.64648,2.16015 a 0.62804752,0.62804752 0 0 0 -0.80469,0.82422 c 0.51919,0.81765 0.52138,0.91352 0.60938,1.11914 -0.0498,-0.0246 -0.0185,-0.001 -0.0781,-0.0332 a 0.62804752,0.62804752 0 0 0 -0.76562,0.9707 c 0.87864,0.99456 1.01661,1.32139 1.08984,1.46289 -0.047,-0.0115 -0.0791,-0.0116 -0.1289,-0.0254 -0.0376,-0.0104 -0.20353,-0.0248 -0.82032,-0.2832 a 0.62804752,0.62804752 0 0 0 -0.70507,1.00391 c 1.9032,2.0826 1.89456,2.23709 1.89453,2.23828 -0.0853,-0.0176 -0.13919,-0.0132 -0.70508,-0.23047 a 0.62804752,0.62804752 0 0 0 -0.70313,0.99219 c 1.51792,1.78239 1.60743,2.07421 1.60743,2.07421 0.0103,0.0153 0.0174,0.028 0.0273,0.043 a 0.62804752,0.62804752 0 0 0 -0.66797,1.02149 c 1.99377,2.01467 2.03782,2.26366 2.03906,2.26953 -0.0261,-0.007 -0.23086,-0.0565 -0.86718,-0.38867 a 0.62804752,0.62804752 0 0 0 -0.7461,0.98828 c 1.76774,1.86624 0.90585,0.95923 1.16602,1.25 0.29963,0.33488 1.58794,0.89132 2.49414,1.36133 -0.0854,0.0223 -0.10293,0.0438 -0.62695,0.0937 a 0.62804752,0.62804752 0 0 0 -0.24415,1.17382 c 2.88411,1.59335 2.75391,1.61719 2.75391,1.61719 0.12338,0.0785 0.23956,0.15348 0.3457,0.22461 0.058,0.0389 0.0998,0.0702 0.15039,0.10547 a 0.62804752,0.62804752 0 0 0 0.0684,1.125 c 0.74659,0.21382 0.98633,0.35156 0.98633,0.35156 0.0552,0.0235 0.0852,0.0466 0.13672,0.0703 a 0.62804752,0.62804752 0 0 0 -0.24414,1.22266 c 2.98295,0.89577 4.30859,1.74023 4.30859,1.74024 0,0 1.47471,0.81867 2.9375,2.02148 l -0.008,2.39648 a 0.62804752,0.62804752 0 0 0 0.62891,0.63086 h 0.35742 0.35742 a 0.62804752,0.62804752 0 0 0 0.62891,-0.63086 l -0.008,-2.39648 c 1.45706,-1.19648 2.93945,-2.02148 2.93945,-2.02148 0,0 1.32877,-0.84468 4.30859,-1.74024 a 0.62804752,0.62804752 0 0 0 -0.24414,-1.22266 c 0.051,-0.0234 0.0802,-0.0471 0.13477,-0.0703 0,0 0.23974,-0.13774 0.98633,-0.35156 a 0.62804752,0.62804752 0 0 0 0.0859,-1.13672 c 0.0457,-0.0317 0.0831,-0.0591 0.13477,-0.0937 0.1062,-0.0711 0.2203,-0.14613 0.34375,-0.22461 0,0 -0.12998,-0.0237 2.75586,-1.61719 a 0.62804752,0.62804752 0 0 0 -0.24414,-1.17382 c -0.52403,-0.0499 -0.54152,-0.0715 -0.62696,-0.0937 0.90621,-0.47001 2.19453,-1.02646 2.49415,-1.36133 0.26154,-0.29231 -0.59791,0.61632 1.16601,-1.25 a 0.62804752,0.62804752 0 0 0 -0.74805,-0.98828 c -0.63229,0.33043 -0.83598,0.37907 -0.86328,0.38672 0.001,-0.006 0.0448,-0.25513 2.03516,-2.26758 a 0.62804752,0.62804752 0 0 0 -0.66602,-1.02539 c 0.009,-0.0137 0.016,-0.0251 0.0254,-0.0391 0,0 0.0895,-0.29182 1.60743,-2.07421 a 0.62804752,0.62804752 0 0 0 -0.70313,-0.99219 c -0.56307,0.21639 -0.61785,0.21087 -0.70312,0.22851 -4e-5,-0.001 -0.008,-0.15478 1.89453,-2.23632 a 0.62804752,0.62804752 0 0 0 -0.70508,-1.00391 c -0.60509,0.25321 -0.80582,0.27919 -0.82031,0.2832 -0.0497,0.0137 -0.082,0.0139 -0.12891,0.0254 0.0734,-0.14171 0.21009,-0.46812 1.08984,-1.46289 a 0.62804752,0.62804752 0 0 0 -0.76562,-0.9707 c -0.0611,0.0325 -0.0293,0.008 -0.0801,0.0332 0.088,-0.20562 0.0902,-0.30149 0.60938,-1.11914 a 0.62804752,0.62804752 0 0 0 -0.79493,-0.85351 c -0.0141,-0.0159 -0.13899,0.23901 0.63868,-2.13086 a 0.62804752,0.62804752 0 0 0 -1.05665,-0.625 c -0.20961,0.22436 -0.18331,0.16986 -0.30664,0.27734 0.004,-0.0452 0.0112,-0.32025 0.82227,-2.32422 a 0.62804752,0.62804752 0 0 0 -0.99219,-0.71094 c -0.56155,0.48527 -0.62263,0.5024 -0.70898,0.5586 0.0289,-0.16597 -0.0462,-0.14548 0.625,-1.69727 a 0.62804752,0.62804752 0 0 0 -0.90039,-0.78711 c -0.90068,0.54381 -1.23883,0.56336 -1.33399,0.57617 -0.009,-0.091 -0.0793,-0.50658 0.31836,-1.83789 a 0.62804752,0.62804752 0 0 0 -1.08984,-0.57421 c -0.2975,0.36811 -0.39282,0.41161 -0.47852,0.47265 0.0167,-0.21693 0.0172,-0.4199 0.0937,-0.67773 a 0.62804752,0.62804752 0 0 0 -0.8164,-0.76953 c -0.22159,0.0806 -0.20765,0.0448 -0.3125,0.0527 -0.001,-0.0156 -0.003,-0.0245 -0.004,-0.041 -0.006,-0.0935 -0.01,-0.19541 -0.0117,-0.30664 0,0 -0.0872,-0.27735 0.11133,-2.50976 a 0.62804752,0.62804752 0 0 0 -1.13281,-0.42383 c -0.40844,0.56302 -0.42394,0.51726 -0.5918,0.68359 4.8e-4,-0.0281 -0.003,-0.0475 -0.002,-0.0762 7.1e-4,-0.0286 -0.0271,-0.2429 0.0879,-1.28125 A 0.62804752,0.62804752 0 0 0 138.25,109.65625 c -0.0177,-0.29907 -0.0451,-0.57667 -0.0488,-0.89063 -0.004,-0.34655 -5.9e-4,-0.65505 0.002,-0.84765 0.002,-0.11521 0.002,-0.18896 0.002,-0.20117 a 0.62804752,0.62804752 0 0 0 -1.17774,-0.31836 c -0.30441,0.55166 -0.43768,0.68001 -0.44726,0.68945 -0.0337,-0.22825 -0.11605,-0.37382 0.0469,-1.48828 a 0.62804752,0.62804752 0 0 0 -1.1582,-0.41602 c -0.30217,0.50016 -0.48242,0.65821 -0.48242,0.65821 -0.0483,0.0555 -0.0845,0.0762 -0.12891,0.12109 0.005,-0.0264 -2.6e-4,-0.036 0.006,-0.0645 0,0 0.017,-0.23411 0.24024,-0.77539 a 0.62804752,0.62804752 0 0 0 -0.7461,-0.84571 c -0.0644,0.0177 -0.0411,0.006 -0.0586,0.008 -0.0119,-0.0332 -0.0245,-0.064 -0.0391,-0.10938 0,0 -0.0278,0.17527 -0.48243,-1.91601 a 0.62804752,0.62804752 0 0 0 -0.89257,-0.26172 c -0.0789,-0.3166 -0.13648,-0.68452 -0.17383,-0.91797 -0.0127,-0.0796 -0.049,-0.20255 -0.0781,-0.28711 -0.0281,-0.0817 -0.0633,-0.17274 -0.10156,-0.26758 0,0 0.2143,0.26737 -1.0957,-2.343749 A 0.62804752,0.62804752 0 0 0 130.875,98.833984 Z"
           inkscape:path-effect="#path-effect1586"
           inkscape:original-d="m 130.87522,99.462146 c 0,0 -1.14407,2.283664 -1.21337,2.717144 -0.0694,0.43348 -0.19106,1.64685 -0.6072,1.68155 -0.41614,0.0347 -0.46818,-0.46818 -0.46818,-0.46818 0,0 -0.43312,1.99433 -0.63252,2.3151 -0.1994,0.32077 -0.72657,0.17467 -0.72657,0.17467 0,0 0.7059,1.71111 0.0806,1.94406 -0.62529,0.23295 -1.56373,-1.31878 -1.56373,-1.31878 0,0 0.35526,2.42744 -0.15968,2.62361 -0.51494,0.19617 -1.41076,-1.42988 -1.41076,-1.42988 0,0 0.0691,3.02561 -0.25167,3.13831 -0.32077,0.11271 -0.97943,-0.94487 -0.97943,-0.94487 0,0 0.40056,2.82306 -0.0608,2.75716 -0.4248,-0.0607 -1.47382,-1.50844 -1.47382,-1.50844 0,0 0.31249,3.51953 -0.0863,3.58893 -0.3988,0.0694 -0.971,-0.13849 -0.971,-0.13849 0,0 0.381,1.28304 -0.0351,1.6645 -0.41613,0.38146 -1.43919,-0.8847 -1.43919,-0.8847 0,0 0.69375,2.32362 0.20826,2.65306 -0.48549,0.32944 -2.14974,-0.67592 -2.14974,-0.67592 0,0 1.21357,2.80845 0.91881,3.06854 -0.29476,0.26008 -1.76889,-0.93586 -1.76889,-0.93586 0,0 1.14439,3.10342 0.81494,3.43287 -0.32944,0.32944 -1.56011,-0.98806 -1.56011,-0.98806 0,0 1.04019,3.17307 0.91881,3.41582 -0.12137,0.24274 -1.14464,-0.57258 -1.14464,-0.57258 0,0 1.26595,1.99428 1.0232,2.2717 -0.24275,0.27743 -1.31775,-0.29507 -1.31775,-0.29507 0,0 1.8555,2.09797 1.49138,2.47943 -0.36412,0.38146 -2.06344,-0.32918 -2.06344,-0.32918 0,0 2.75703,3.01684 2.53163,3.36362 -0.22541,0.34679 -2.02882,-0.34675 -2.02882,-0.34675 0,0 2.39259,2.80916 2.08049,3.12126 -0.3121,0.31215 -1.14411,-0.0176 -1.14411,-0.0176 0,0 3.05158,3.08654 2.67012,3.468 -0.38146,0.38146 -2.23656,-0.58962 -2.23656,-0.58962 0,0 0.88397,0.93611 1.17874,1.26555 0.29476,0.32944 3.34665,1.52615 3.31195,1.92495 -0.0347,0.39879 -1.85519,0.57206 -1.85519,0.57206 0,0 3.83156,2.1156 3.84886,2.46238 0.0173,0.34676 -0.65887,0.55449 -0.65887,0.55449 0,0 2.11563,0.60729 2.11563,1.19682 0,0.58952 -1.23093,0.45062 -1.23093,0.45062 0,0 2.38869,0.71823 4.42143,1.78594 1.71657,0.90163 3.27422,2.25309 3.27422,2.25309 l -0.008,2.72283 0.35761,-0.001 0.3576,0.001 -0.008,-2.72283 c 0,0 1.55765,-1.35146 3.27422,-2.25309 2.03275,-1.06771 4.42143,-1.78594 4.42143,-1.78594 0,0 -1.23093,0.1389 -1.23093,-0.45062 0,-0.58953 2.11563,-1.19682 2.11563,-1.19682 0,0 -0.67621,-0.20773 -0.65887,-0.55449 0.0173,-0.34678 3.84886,-2.46238 3.84886,-2.46238 0,0 -1.8205,-0.17327 -1.85518,-0.57206 -0.0347,-0.3988 3.01718,-1.59551 3.31194,-1.92495 0.29477,-0.32944 1.17925,-1.26555 1.17925,-1.26555 0,0 -1.85561,0.97108 -2.23707,0.58962 -0.38146,-0.38146 2.67012,-3.468 2.67012,-3.468 0,0 -0.832,0.32972 -1.14411,0.0176 -0.3121,-0.3121 2.08049,-3.12126 2.08049,-3.12126 0,0 -1.80341,0.69354 -2.02882,0.34675 -0.2254,-0.34678 2.53163,-3.36362 2.53163,-3.36362 0,0 -1.69932,0.71064 -2.06344,0.32918 -0.36412,-0.38146 1.49138,-2.47943 1.49138,-2.47943 0,0 -1.075,0.5725 -1.31775,0.29507 -0.24275,-0.27742 1.0232,-2.2717 1.0232,-2.2717 0,0 -1.02327,0.81532 -1.14464,0.57258 -0.12138,-0.24275 0.91881,-3.41582 0.91881,-3.41582 0,0 -1.23067,1.3175 -1.56011,0.98806 -0.32945,-0.32945 1.03563,-3.7026 1.03563,-3.7026 0,0 -1.69482,1.46567 -1.98958,1.20559 -0.29476,-0.26009 0.91933,-3.06854 0.91933,-3.06854 0,0 -1.66477,1.00536 -2.15026,0.67592 -0.48549,-0.32944 0.20826,-2.65306 0.20826,-2.65306 0,0 -1.02306,1.26616 -1.43919,0.8847 -0.41614,-0.38146 -0.0346,-1.6645 -0.0346,-1.6645 0,0 -0.5722,0.20785 -0.971,0.13849 -0.39879,-0.0694 -0.0868,-3.58893 -0.0868,-3.58893 0,0 -1.04901,1.44776 -1.47381,1.50844 -0.46138,0.0659 -0.16485,-2.61845 -0.16485,-2.61845 0,0 -0.55463,0.91887 -0.8754,0.80616 -0.32077,-0.1127 -0.25166,-3.13831 -0.25166,-3.13831 0,0 -0.89583,1.62605 -1.41077,1.42988 -0.51494,-0.19617 -0.15968,-2.62361 -0.15968,-2.62361 0,0 -0.93844,1.55173 -1.56373,1.31878 -0.62529,-0.23295 0.0806,-1.94406 0.0806,-1.94406 0,0 -0.52666,0.1461 -0.72606,-0.17467 -0.1994,-0.32077 -0.63304,-2.3151 -0.63304,-2.3151 0,0 -0.052,0.50286 -0.46818,0.46818 -0.41614,-0.0347 -0.53733,-1.24807 -0.60668,-1.68155 -0.0693,-0.43348 -1.21388,-2.717144 -1.21388,-2.717144 z"
           sodipodi:nodetypes="ccscscscscscscscscscscscscscscscscscsscscscscccccscscccsscscscscscscscscscscscccscscscscscsccc" />
        <path
           id="path1552"
           style="fill:#ffff00;stroke:none;stroke-width:0.25;stroke-linecap:round;stroke-dasharray:none"
           d="m 130.87522,99.462146 c 0,0 -1.14407,2.283664 -1.21337,2.717144 -0.0694,0.43348 -0.19106,1.64685 -0.6072,1.68155 -0.41614,0.0347 -0.46818,-0.46818 -0.46818,-0.46818 0,0 -0.43312,1.99433 -0.63252,2.3151 -0.1994,0.32077 -0.72657,0.17467 -0.72657,0.17467 0,0 0.7059,1.71111 0.0806,1.94406 -0.62529,0.23295 -1.56373,-1.31878 -1.56373,-1.31878 0,0 0.35526,2.42744 -0.15968,2.62361 -0.51494,0.19617 -1.41076,-1.42988 -1.41076,-1.42988 0,0 0.0691,3.02561 -0.25167,3.13831 -0.32077,0.11271 -0.8754,-0.80616 -0.8754,-0.80616 0,0 0.29653,2.68435 -0.16484,2.61845 -0.4248,-0.0607 -1.47382,-1.50844 -1.47382,-1.50844 0,0 0.31249,3.51953 -0.0863,3.58893 -0.3988,0.0694 -0.971,-0.13849 -0.971,-0.13849 0,0 0.381,1.28304 -0.0351,1.6645 -0.41613,0.38146 -1.43919,-0.8847 -1.43919,-0.8847 0,0 0.69375,2.32362 0.20826,2.65306 -0.48549,0.32944 -2.14974,-0.67592 -2.14974,-0.67592 0,0 1.21357,2.80845 0.91881,3.06854 -0.29476,0.26008 -1.76889,-0.93586 -1.76889,-0.93586 0,0 1.14439,3.10342 0.81494,3.43287 -0.32944,0.32944 -1.56011,-0.98806 -1.56011,-0.98806 0,0 1.04019,3.17307 0.91881,3.41582 -0.12137,0.24274 -1.14464,-0.57258 -1.14464,-0.57258 0,0 1.26595,1.99428 1.0232,2.2717 -0.24275,0.27743 -1.31775,-0.29507 -1.31775,-0.29507 0,0 1.8555,2.09797 1.49138,2.47943 -0.36412,0.38146 -2.06344,-0.32918 -2.06344,-0.32918 0,0 2.75703,3.01684 2.53163,3.36362 -0.22541,0.34679 -2.02882,-0.34675 -2.02882,-0.34675 0,0 2.39259,2.80916 2.08049,3.12126 -0.3121,0.31215 -1.14411,-0.0176 -1.14411,-0.0176 0,0 3.05158,3.08654 2.67012,3.468 -0.38146,0.38146 -2.23656,-0.58962 -2.23656,-0.58962 0,0 0.88397,0.93611 1.17874,1.26555 0.29476,0.32944 3.34665,1.52615 3.31195,1.92495 -0.0347,0.39879 -1.85519,0.57206 -1.85519,0.57206 0,0 3.83156,2.1156 3.84886,2.46238 0.0173,0.34676 -0.65887,0.55449 -0.65887,0.55449 0,0 2.11563,0.60729 2.11563,1.19682 0,0.58952 -1.23093,0.45062 -1.23093,0.45062 0,0 2.38869,0.71823 4.42143,1.78594 1.71657,0.90163 3.27422,2.25309 3.27422,2.25309 l -0.008,2.72283 0.35761,-0.001 0.3576,0.001 -0.008,-2.72283 c 0,0 1.55765,-1.35146 3.27422,-2.25309 2.03275,-1.06771 4.42143,-1.78594 4.42143,-1.78594 0,0 -1.23093,0.1389 -1.23093,-0.45062 0,-0.58953 2.11563,-1.19682 2.11563,-1.19682 0,0 -0.67621,-0.20773 -0.65887,-0.55449 0.0173,-0.34678 3.84886,-2.46238 3.84886,-2.46238 0,0 -1.8205,-0.17327 -1.85518,-0.57206 -0.0347,-0.3988 3.01718,-1.59551 3.31194,-1.92495 0.29477,-0.32944 1.17925,-1.26555 1.17925,-1.26555 0,0 -1.85561,0.97108 -2.23707,0.58962 -0.38146,-0.38146 2.67012,-3.468 2.67012,-3.468 0,0 -0.832,0.32972 -1.14411,0.0176 -0.3121,-0.3121 2.08049,-3.12126 2.08049,-3.12126 0,0 -1.80341,0.69354 -2.02882,0.34675 -0.2254,-0.34678 2.53163,-3.36362 2.53163,-3.36362 0,0 -1.69932,0.71064 -2.06344,0.32918 -0.36412,-0.38146 1.49138,-2.47943 1.49138,-2.47943 0,0 -1.075,0.5725 -1.31775,0.29507 -0.24275,-0.27742 1.0232,-2.2717 1.0232,-2.2717 0,0 -1.02327,0.81532 -1.14464,0.57258 -0.12138,-0.24275 0.91881,-3.41582 0.91881,-3.41582 0,0 -1.23067,1.3175 -1.56011,0.98806 -0.32945,-0.32945 0.81494,-3.43287 0.81494,-3.43287 0,0 -1.47413,1.19594 -1.76889,0.93586 -0.29476,-0.26009 0.91933,-3.06854 0.91933,-3.06854 0,0 -1.66477,1.00536 -2.15026,0.67592 -0.48549,-0.32944 0.20826,-2.65306 0.20826,-2.65306 0,0 -1.02306,1.26616 -1.43919,0.8847 -0.41614,-0.38146 -0.0346,-1.6645 -0.0346,-1.6645 0,0 -0.5722,0.20785 -0.971,0.13849 -0.39879,-0.0694 -0.0868,-3.58893 -0.0868,-3.58893 0,0 -1.04901,1.44776 -1.47381,1.50844 -0.46138,0.0659 -0.16485,-2.61845 -0.16485,-2.61845 0,0 -0.55463,0.91887 -0.8754,0.80616 -0.32077,-0.1127 -0.25166,-3.13831 -0.25166,-3.13831 0,0 -0.89583,1.62605 -1.41077,1.42988 -0.51494,-0.19617 -0.15968,-2.62361 -0.15968,-2.62361 0,0 -0.93844,1.55173 -1.56373,1.31878 -0.62529,-0.23295 0.0806,-1.94406 0.0806,-1.94406 0,0 -0.52666,0.1461 -0.72606,-0.17467 -0.1994,-0.32077 -0.63304,-2.3151 -0.63304,-2.3151 0,0 -0.052,0.50286 -0.46818,0.46818 -0.41614,-0.0347 -0.53733,-1.24807 -0.60668,-1.68155 -0.0693,-0.43348 -1.21388,-2.717144 -1.21388,-2.717144 z" />
        <g
           id="g1580"
           transform="translate(49.238441,1.07893)">
          <path
             style="fill:none;stroke:#000000;stroke-width:0.6;stroke-linecap:square;stroke-dasharray:none"
             d="m 81.840371,103.27145 c 0,0 -0.138714,10.40344 -0.138714,12.06799 0,1.66455 0,11.30506 0,13.73253 0,2.42747 0.138714,7.35176 0.06936,9.29374 -0.06936,1.94198 -0.208069,9.29374 -0.208069,9.29374"
             id="path1554" />
          <path
             style="fill:none;stroke:#000000;stroke-width:0.600001;stroke-linecap:square;stroke-dasharray:none"
             d="m 92.763979,137.67215 -11.027643,6.9703"
             id="path1556" />
          <path
             style="fill:none;stroke:#000000;stroke-width:0.600001;stroke-linecap:square;stroke-dasharray:none"
             d="m 72.754701,137.84554 8.738888,7.03966"
             id="path1558" />
          <path
             style="fill:none;stroke:#000000;stroke-width:0.600001;stroke-linecap:square;stroke-dasharray:none"
             d="m 69.876418,130.35506 11.684423,10.28505"
             id="path1560"
             sodipodi:nodetypes="cc" />
          <path
             style="fill:none;stroke:#000000;stroke-width:0.600001;stroke-linecap:square;stroke-dasharray:none"
             d="M 81.893619,140.00767 95.226125,129.90425"
             id="path1562"
             sodipodi:nodetypes="cc" />
          <path
             style="fill:none;stroke:#000000;stroke-width:0.600001;stroke-linecap:square;stroke-dasharray:none"
             d="m 94.844665,123.52347 -12.90026,10.75022"
             id="path1564" />
          <path
             style="fill:none;stroke:#000000;stroke-width:0.600001;stroke-linecap:square;stroke-dasharray:none"
             d="M 81.64964,135.08863 69.807063,123.62751"
             id="path1566"
             sodipodi:nodetypes="cc" />
          <path
             style="fill:none;stroke:#000000;stroke-width:0.600001;stroke-linecap:square;stroke-dasharray:none"
             d="m 71.783714,119.11935 9.883265,10.23005"
             id="path1568" />
          <path
             style="fill:none;stroke:#000000;stroke-width:0.600001;stroke-linecap:square;stroke-dasharray:none"
             d="M 92.763979,118.28708 81.805692,129.41876"
             id="path1570" />
          <path
             style="fill:none;stroke:#000000;stroke-width:0.600001;stroke-linecap:square;stroke-dasharray:none"
             d="m 90.128441,113.60553 -8.28807,8.94696"
             id="path1572" />
          <path
             style="fill:none;stroke:#000000;stroke-width:0.600001;stroke-linecap:square;stroke-dasharray:none"
             d="m 73.968437,114.33377 7.802576,8.14936"
             id="path1574" />
          <path
             style="fill:none;stroke:#000000;stroke-width:0.600001;stroke-linecap:square;stroke-dasharray:none"
             d="m 87.354192,109.58287 -5.5485,5.68721"
             id="path1576" />
          <path
             style="fill:none;stroke:#000000;stroke-width:0.600001;stroke-linecap:square;stroke-dasharray:none"
             d="m 76.777365,109.86029 4.787504,5.67477"
             id="path1578"
             sodipodi:nodetypes="cc" />
        </g>
      </g>
      <g
         id="g1622"
         transform="translate(-2.3241846,-0.98463824)"
         inkscape:transform-center-x="0.13871609"
         inkscape:transform-center-y="-1.3177687">
        <path
           id="path1590"
           style="fill:#000000;stroke:none;stroke-width:0.25;stroke-linecap:round;stroke-dasharray:none"
           d="m 130.875,98.833984 a 0.62804752,0.62804752 0 0 0 -0.5625,0.347657 c -1.30805,2.611689 -1.0918,2.343749 -1.0918,2.343749 -0.0382,0.0948 -0.0735,0.18782 -0.10156,0.26953 -0.0291,0.0845 -0.0654,0.20575 -0.0781,0.28516 -0.0375,0.23403 -0.0946,0.60288 -0.17383,0.91992 a 0.62804752,0.62804752 0 0 0 -0.89453,0.25977 c -0.45462,2.09123 -0.48243,1.91601 -0.48243,1.91601 -0.0145,0.0454 -0.0271,0.0762 -0.0391,0.10938 -0.0175,-0.002 0.006,0.01 -0.0586,-0.008 a 0.62804752,0.62804752 0 0 0 -0.7461,0.84571 c 0.22396,0.54154 0.24219,0.77734 0.24219,0.77734 0.006,0.0277 9.4e-4,0.0367 0.006,0.0625 -0.0445,-0.0449 -0.0805,-0.0656 -0.12891,-0.12109 0,0 -0.18136,-0.15964 -0.48437,-0.66016 a 0.62804752,0.62804752 0 0 0 -1.1582,0.41797 c 0.16249,1.11154 0.0805,1.25491 0.0469,1.48437 -0.011,-0.0109 -0.14331,-0.13706 -0.44531,-0.68554 a 0.62804752,0.62804752 0 0 0 -1.17773,0.3164 c 0.0417,1.83332 -0.0187,1.76245 -0.0488,1.875 -0.0141,-0.0222 -0.006,-0.003 -0.0215,-0.0273 a 0.62804752,0.62804752 0 0 0 -1.15429,0.41992 c 0.15539,1.09475 0.13474,1.32111 0.13671,1.35352 0.002,0.0256 5.8e-4,0.0432 0.002,0.0684 -0.17122,-0.17525 -0.16901,-0.11073 -0.54492,-0.62891 a 0.62804752,0.62804752 0 0 0 -1.13282,0.42383 c 0.19851,2.23241 0.11133,2.50976 0.11133,2.50976 -0.002,0.11123 -0.006,0.21319 -0.0117,0.30664 -0.001,0.0165 -0.003,0.0255 -0.004,0.041 -0.10486,-0.008 -0.091,0.0279 -0.3125,-0.0527 a 0.62804752,0.62804752 0 0 0 -0.81641,0.76953 c 0.0766,0.25784 0.077,0.4608 0.0937,0.67773 -0.0857,-0.061 -0.18101,-0.10454 -0.47852,-0.47265 a 0.62804752,0.62804752 0 0 0 -1.08984,0.57421 c 0.39647,1.33099 0.32588,1.74686 0.31641,1.83789 -0.0923,-0.0111 -0.41699,-0.023 -1.33203,-0.57617 a 0.62804752,0.62804752 0 0 0 -0.90039,0.78516 c 0.70614,1.63519 0.63755,1.65206 0.65624,1.78906 -0.23049,-0.16424 -0.48514,-0.35093 -0.52734,-0.38476 -0.004,-0.004 -0.007,-0.007 -0.008,-0.008 h -0.002 a 0.62804752,0.62804752 0 0 0 -0.98438,0.70508 c 0.71191,1.92735 0.6381,1.98226 0.64063,2.09961 -0.12631,-0.10765 -0.10667,-0.0573 -0.33594,-0.30273 a 0.62804752,0.62804752 0 0 0 -1.05664,0.625 c 0.78696,2.40271 0.6622,2.15092 0.64648,2.16015 a 0.62804752,0.62804752 0 0 0 -0.80469,0.82422 c 0.51919,0.81765 0.52138,0.91352 0.60938,1.11914 -0.0498,-0.0246 -0.0185,-0.001 -0.0781,-0.0332 a 0.62804752,0.62804752 0 0 0 -0.76562,0.9707 c 0.87864,0.99456 1.01661,1.32139 1.08984,1.46289 -0.047,-0.0115 -0.0791,-0.0116 -0.1289,-0.0254 -0.0376,-0.0104 -0.20353,-0.0248 -0.82032,-0.2832 a 0.62804752,0.62804752 0 0 0 -0.70507,1.00391 c 1.9032,2.0826 1.89456,2.23709 1.89453,2.23828 -0.0853,-0.0176 -0.13919,-0.0132 -0.70508,-0.23047 a 0.62804752,0.62804752 0 0 0 -0.70313,0.99219 c 1.51792,1.78239 1.60743,2.07421 1.60743,2.07421 0.0103,0.0153 0.0174,0.028 0.0273,0.043 a 0.62804752,0.62804752 0 0 0 -0.66797,1.02149 c 1.99377,2.01467 2.03782,2.26366 2.03906,2.26953 -0.0261,-0.007 -0.23086,-0.0565 -0.86718,-0.38867 a 0.62804752,0.62804752 0 0 0 -0.7461,0.98828 c 1.76774,1.86624 0.90585,0.95923 1.16602,1.25 0.29963,0.33488 1.58794,0.89132 2.49414,1.36133 -0.0854,0.0223 -0.10293,0.0438 -0.62695,0.0937 a 0.62804752,0.62804752 0 0 0 -0.24415,1.17382 c 2.88411,1.59335 2.75391,1.61719 2.75391,1.61719 0.12338,0.0785 0.23956,0.15348 0.3457,0.22461 0.058,0.0389 0.0998,0.0702 0.15039,0.10547 a 0.62804752,0.62804752 0 0 0 0.0684,1.125 c 0.74659,0.21382 0.98633,0.35156 0.98633,0.35156 0.0552,0.0235 0.0852,0.0466 0.13672,0.0703 a 0.62804752,0.62804752 0 0 0 -0.24414,1.22266 c 2.98295,0.89577 4.30859,1.74023 4.30859,1.74024 0,0 1.47471,0.81867 2.9375,2.02148 l -0.008,2.39648 a 0.62804752,0.62804752 0 0 0 0.62891,0.63086 h 0.35742 0.35742 a 0.62804752,0.62804752 0 0 0 0.62891,-0.63086 l -0.008,-2.39648 c 1.45706,-1.19648 2.93945,-2.02148 2.93945,-2.02148 0,0 1.32877,-0.84468 4.30859,-1.74024 a 0.62804752,0.62804752 0 0 0 -0.24414,-1.22266 c 0.051,-0.0234 0.0802,-0.0471 0.13477,-0.0703 0,0 0.23974,-0.13774 0.98633,-0.35156 a 0.62804752,0.62804752 0 0 0 0.0859,-1.13672 c 0.0457,-0.0317 0.0831,-0.0591 0.13477,-0.0937 0.1062,-0.0711 0.2203,-0.14613 0.34375,-0.22461 0,0 -0.12998,-0.0237 2.75586,-1.61719 a 0.62804752,0.62804752 0 0 0 -0.24414,-1.17382 c -0.52403,-0.0499 -0.54152,-0.0715 -0.62696,-0.0937 0.90621,-0.47001 2.19453,-1.02646 2.49415,-1.36133 0.26154,-0.29231 -0.59791,0.61632 1.16601,-1.25 a 0.62804752,0.62804752 0 0 0 -0.74805,-0.98828 c -0.63229,0.33043 -0.83598,0.37907 -0.86328,0.38672 0.001,-0.006 0.0448,-0.25513 2.03516,-2.26758 a 0.62804752,0.62804752 0 0 0 -0.66602,-1.02539 c 0.009,-0.0137 0.016,-0.0251 0.0254,-0.0391 0,0 0.0895,-0.29182 1.60743,-2.07421 a 0.62804752,0.62804752 0 0 0 -0.70313,-0.99219 c -0.56307,0.21639 -0.61785,0.21087 -0.70312,0.22851 -4e-5,-0.001 -0.008,-0.15478 1.89453,-2.23632 a 0.62804752,0.62804752 0 0 0 -0.70508,-1.00391 c -0.60509,0.25321 -0.80582,0.27919 -0.82031,0.2832 -0.0497,0.0137 -0.082,0.0139 -0.12891,0.0254 0.0734,-0.14171 0.21009,-0.46812 1.08984,-1.46289 a 0.62804752,0.62804752 0 0 0 -0.76562,-0.9707 c -0.0611,0.0325 -0.0293,0.008 -0.0801,0.0332 0.088,-0.20562 0.0902,-0.30149 0.60938,-1.11914 a 0.62804752,0.62804752 0 0 0 -0.79493,-0.85351 c -0.0141,-0.0159 -0.13899,0.23901 0.63868,-2.13086 a 0.62804752,0.62804752 0 0 0 -1.05665,-0.625 c -0.20961,0.22436 -0.18331,0.16986 -0.30664,0.27734 0.004,-0.0452 0.0112,-0.32025 0.82227,-2.32422 a 0.62804752,0.62804752 0 0 0 -0.99219,-0.71094 c -0.56155,0.48527 -0.62263,0.5024 -0.70898,0.5586 0.0289,-0.16597 -0.0462,-0.14548 0.625,-1.69727 a 0.62804752,0.62804752 0 0 0 -0.90039,-0.78711 c -0.90068,0.54381 -1.23883,0.56336 -1.33399,0.57617 -0.009,-0.091 -0.0793,-0.50658 0.31836,-1.83789 a 0.62804752,0.62804752 0 0 0 -1.08984,-0.57421 c -0.2975,0.36811 -0.39282,0.41161 -0.47852,0.47265 0.0167,-0.21693 0.0172,-0.4199 0.0937,-0.67773 a 0.62804752,0.62804752 0 0 0 -0.8164,-0.76953 c -0.22159,0.0806 -0.20765,0.0448 -0.3125,0.0527 -0.001,-0.0156 -0.003,-0.0245 -0.004,-0.041 -0.006,-0.0935 -0.01,-0.19541 -0.0117,-0.30664 0,0 -0.0872,-0.27735 0.11133,-2.50976 a 0.62804752,0.62804752 0 0 0 -1.13281,-0.42383 c -0.40844,0.56302 -0.42394,0.51726 -0.5918,0.68359 4.8e-4,-0.0281 -0.003,-0.0475 -0.002,-0.0762 7.1e-4,-0.0286 -0.0271,-0.2429 0.0879,-1.28125 A 0.62804752,0.62804752 0 0 0 138.25,109.65625 c -0.0177,-0.29907 -0.0451,-0.57667 -0.0488,-0.89063 -0.004,-0.34655 -5.9e-4,-0.65505 0.002,-0.84765 0.002,-0.11521 0.002,-0.18896 0.002,-0.20117 a 0.62804752,0.62804752 0 0 0 -1.17774,-0.31836 c -0.30441,0.55166 -0.43768,0.68001 -0.44726,0.68945 -0.0337,-0.22825 -0.11605,-0.37382 0.0469,-1.48828 a 0.62804752,0.62804752 0 0 0 -1.1582,-0.41602 c -0.30217,0.50016 -0.48242,0.65821 -0.48242,0.65821 -0.0483,0.0555 -0.0845,0.0762 -0.12891,0.12109 0.005,-0.0264 -2.6e-4,-0.036 0.006,-0.0645 0,0 0.017,-0.23411 0.24024,-0.77539 a 0.62804752,0.62804752 0 0 0 -0.7461,-0.84571 c -0.0644,0.0177 -0.0411,0.006 -0.0586,0.008 -0.0119,-0.0332 -0.0245,-0.064 -0.0391,-0.10938 0,0 -0.0278,0.17527 -0.48243,-1.91601 a 0.62804752,0.62804752 0 0 0 -0.89257,-0.26172 c -0.0789,-0.3166 -0.13648,-0.68452 -0.17383,-0.91797 -0.0127,-0.0796 -0.049,-0.20255 -0.0781,-0.28711 -0.0281,-0.0817 -0.0633,-0.17274 -0.10156,-0.26758 0,0 0.2143,0.26737 -1.0957,-2.343749 A 0.62804752,0.62804752 0 0 0 130.875,98.833984 Z"
           inkscape:path-effect="#path-effect1626"
           inkscape:original-d="m 130.87522,99.462146 c 0,0 -1.14407,2.283664 -1.21337,2.717144 -0.0694,0.43348 -0.19106,1.64685 -0.6072,1.68155 -0.41614,0.0347 -0.46818,-0.46818 -0.46818,-0.46818 0,0 -0.43312,1.99433 -0.63252,2.3151 -0.1994,0.32077 -0.72657,0.17467 -0.72657,0.17467 0,0 0.7059,1.71111 0.0806,1.94406 -0.62529,0.23295 -1.56373,-1.31878 -1.56373,-1.31878 0,0 0.35526,2.42744 -0.15968,2.62361 -0.51494,0.19617 -1.41076,-1.42988 -1.41076,-1.42988 0,0 0.0691,3.02561 -0.25167,3.13831 -0.32077,0.11271 -0.97943,-0.94487 -0.97943,-0.94487 0,0 0.40056,2.82306 -0.0608,2.75716 -0.4248,-0.0607 -1.47382,-1.50844 -1.47382,-1.50844 0,0 0.31249,3.51953 -0.0863,3.58893 -0.3988,0.0694 -0.971,-0.13849 -0.971,-0.13849 0,0 0.381,1.28304 -0.0351,1.6645 -0.41613,0.38146 -1.43919,-0.8847 -1.43919,-0.8847 0,0 0.69375,2.32362 0.20826,2.65306 -0.48549,0.32944 -2.14974,-0.67592 -2.14974,-0.67592 0,0 1.21357,2.80845 0.91881,3.06854 -0.29476,0.26008 -1.76889,-0.93586 -1.76889,-0.93586 0,0 1.14439,3.10342 0.81494,3.43287 -0.32944,0.32944 -1.56011,-0.98806 -1.56011,-0.98806 0,0 1.04019,3.17307 0.91881,3.41582 -0.12137,0.24274 -1.14464,-0.57258 -1.14464,-0.57258 0,0 1.26595,1.99428 1.0232,2.2717 -0.24275,0.27743 -1.31775,-0.29507 -1.31775,-0.29507 0,0 1.8555,2.09797 1.49138,2.47943 -0.36412,0.38146 -2.06344,-0.32918 -2.06344,-0.32918 0,0 2.75703,3.01684 2.53163,3.36362 -0.22541,0.34679 -2.02882,-0.34675 -2.02882,-0.34675 0,0 2.39259,2.80916 2.08049,3.12126 -0.3121,0.31215 -1.14411,-0.0176 -1.14411,-0.0176 0,0 3.05158,3.08654 2.67012,3.468 -0.38146,0.38146 -2.23656,-0.58962 -2.23656,-0.58962 0,0 0.88397,0.93611 1.17874,1.26555 0.29476,0.32944 3.34665,1.52615 3.31195,1.92495 -0.0347,0.39879 -1.85519,0.57206 -1.85519,0.57206 0,0 3.83156,2.1156 3.84886,2.46238 0.0173,0.34676 -0.65887,0.55449 -0.65887,0.55449 0,0 2.11563,0.60729 2.11563,1.19682 0,0.58952 -1.23093,0.45062 -1.23093,0.45062 0,0 2.38869,0.71823 4.42143,1.78594 1.71657,0.90163 3.27422,2.25309 3.27422,2.25309 l -0.008,2.72283 0.35761,-0.001 0.3576,0.001 -0.008,-2.72283 c 0,0 1.55765,-1.35146 3.27422,-2.25309 2.03275,-1.06771 4.42143,-1.78594 4.42143,-1.78594 0,0 -1.23093,0.1389 -1.23093,-0.45062 0,-0.58953 2.11563,-1.19682 2.11563,-1.19682 0,0 -0.67621,-0.20773 -0.65887,-0.55449 0.0173,-0.34678 3.84886,-2.46238 3.84886,-2.46238 0,0 -1.8205,-0.17327 -1.85518,-0.57206 -0.0347,-0.3988 3.01718,-1.59551 3.31194,-1.92495 0.29477,-0.32944 1.17925,-1.26555 1.17925,-1.26555 0,0 -1.85561,0.97108 -2.23707,0.58962 -0.38146,-0.38146 2.67012,-3.468 2.67012,-3.468 0,0 -0.832,0.32972 -1.14411,0.0176 -0.3121,-0.3121 2.08049,-3.12126 2.08049,-3.12126 0,0 -1.80341,0.69354 -2.02882,0.34675 -0.2254,-0.34678 2.53163,-3.36362 2.53163,-3.36362 0,0 -1.69932,0.71064 -2.06344,0.32918 -0.36412,-0.38146 1.49138,-2.47943 1.49138,-2.47943 0,0 -1.075,0.5725 -1.31775,0.29507 -0.24275,-0.27742 1.0232,-2.2717 1.0232,-2.2717 0,0 -1.02327,0.81532 -1.14464,0.57258 -0.12138,-0.24275 0.91881,-3.41582 0.91881,-3.41582 0,0 -1.23067,1.3175 -1.56011,0.98806 -0.32945,-0.32945 1.03563,-3.7026 1.03563,-3.7026 0,0 -1.69482,1.46567 -1.98958,1.20559 -0.29476,-0.26009 0.91933,-3.06854 0.91933,-3.06854 0,0 -1.66477,1.00536 -2.15026,0.67592 -0.48549,-0.32944 0.20826,-2.65306 0.20826,-2.65306 0,0 -1.02306,1.26616 -1.43919,0.8847 -0.41614,-0.38146 -0.0346,-1.6645 -0.0346,-1.6645 0,0 -0.5722,0.20785 -0.971,0.13849 -0.39879,-0.0694 -0.0868,-3.58893 -0.0868,-3.58893 0,0 -1.04901,1.44776 -1.47381,1.50844 -0.46138,0.0659 -0.16485,-2.61845 -0.16485,-2.61845 0,0 -0.55463,0.91887 -0.8754,0.80616 -0.32077,-0.1127 -0.25166,-3.13831 -0.25166,-3.13831 0,0 -0.89583,1.62605 -1.41077,1.42988 -0.51494,-0.19617 -0.15968,-2.62361 -0.15968,-2.62361 0,0 -0.93844,1.55173 -1.56373,1.31878 -0.62529,-0.23295 0.0806,-1.94406 0.0806,-1.94406 0,0 -0.52666,0.1461 -0.72606,-0.17467 -0.1994,-0.32077 -0.63304,-2.3151 -0.63304,-2.3151 0,0 -0.052,0.50286 -0.46818,0.46818 -0.41614,-0.0347 -0.53733,-1.24807 -0.60668,-1.68155 -0.0693,-0.43348 -1.21388,-2.717144 -1.21388,-2.717144 z"
           sodipodi:nodetypes="ccscscscscscscscscscscscscscscscscscsscscscscccccscscccsscscscscscscscscscscscccscscscscscsccc" />
        <path
           id="path1592"
           style="fill:#ffff00;stroke:none;stroke-width:0.25;stroke-linecap:round;stroke-dasharray:none"
           d="m 130.87522,99.462146 c 0,0 -1.14407,2.283664 -1.21337,2.717144 -0.0694,0.43348 -0.19106,1.64685 -0.6072,1.68155 -0.41614,0.0347 -0.46818,-0.46818 -0.46818,-0.46818 0,0 -0.43312,1.99433 -0.63252,2.3151 -0.1994,0.32077 -0.72657,0.17467 -0.72657,0.17467 0,0 0.7059,1.71111 0.0806,1.94406 -0.62529,0.23295 -1.56373,-1.31878 -1.56373,-1.31878 0,0 0.35526,2.42744 -0.15968,2.62361 -0.51494,0.19617 -1.41076,-1.42988 -1.41076,-1.42988 0,0 0.0691,3.02561 -0.25167,3.13831 -0.32077,0.11271 -0.8754,-0.80616 -0.8754,-0.80616 0,0 0.29653,2.68435 -0.16484,2.61845 -0.4248,-0.0607 -1.47382,-1.50844 -1.47382,-1.50844 0,0 0.31249,3.51953 -0.0863,3.58893 -0.3988,0.0694 -0.971,-0.13849 -0.971,-0.13849 0,0 0.381,1.28304 -0.0351,1.6645 -0.41613,0.38146 -1.43919,-0.8847 -1.43919,-0.8847 0,0 0.69375,2.32362 0.20826,2.65306 -0.48549,0.32944 -2.14974,-0.67592 -2.14974,-0.67592 0,0 1.21357,2.80845 0.91881,3.06854 -0.29476,0.26008 -1.76889,-0.93586 -1.76889,-0.93586 0,0 1.14439,3.10342 0.81494,3.43287 -0.32944,0.32944 -1.56011,-0.98806 -1.56011,-0.98806 0,0 1.04019,3.17307 0.91881,3.41582 -0.12137,0.24274 -1.14464,-0.57258 -1.14464,-0.57258 0,0 1.26595,1.99428 1.0232,2.2717 -0.24275,0.27743 -1.31775,-0.29507 -1.31775,-0.29507 0,0 1.8555,2.09797 1.49138,2.47943 -0.36412,0.38146 -2.06344,-0.32918 -2.06344,-0.32918 0,0 2.75703,3.01684 2.53163,3.36362 -0.22541,0.34679 -2.02882,-0.34675 -2.02882,-0.34675 0,0 2.39259,2.80916 2.08049,3.12126 -0.3121,0.31215 -1.14411,-0.0176 -1.14411,-0.0176 0,0 3.05158,3.08654 2.67012,3.468 -0.38146,0.38146 -2.23656,-0.58962 -2.23656,-0.58962 0,0 0.88397,0.93611 1.17874,1.26555 0.29476,0.32944 3.34665,1.52615 3.31195,1.92495 -0.0347,0.39879 -1.85519,0.57206 -1.85519,0.57206 0,0 3.83156,2.1156 3.84886,2.46238 0.0173,0.34676 -0.65887,0.55449 -0.65887,0.55449 0,0 2.11563,0.60729 2.11563,1.19682 0,0.58952 -1.23093,0.45062 -1.23093,0.45062 0,0 2.38869,0.71823 4.42143,1.78594 1.71657,0.90163 3.27422,2.25309 3.27422,2.25309 l -0.008,2.72283 0.35761,-0.001 0.3576,0.001 -0.008,-2.72283 c 0,0 1.55765,-1.35146 3.27422,-2.25309 2.03275,-1.06771 4.42143,-1.78594 4.42143,-1.78594 0,0 -1.23093,0.1389 -1.23093,-0.45062 0,-0.58953 2.11563,-1.19682 2.11563,-1.19682 0,0 -0.67621,-0.20773 -0.65887,-0.55449 0.0173,-0.34678 3.84886,-2.46238 3.84886,-2.46238 0,0 -1.8205,-0.17327 -1.85518,-0.57206 -0.0347,-0.3988 3.01718,-1.59551 3.31194,-1.92495 0.29477,-0.32944 1.17925,-1.26555 1.17925,-1.26555 0,0 -1.85561,0.97108 -2.23707,0.58962 -0.38146,-0.38146 2.67012,-3.468 2.67012,-3.468 0,0 -0.832,0.32972 -1.14411,0.0176 -0.3121,-0.3121 2.08049,-3.12126 2.08049,-3.12126 0,0 -1.80341,0.69354 -2.02882,0.34675 -0.2254,-0.34678 2.53163,-3.36362 2.53163,-3.36362 0,0 -1.69932,0.71064 -2.06344,0.32918 -0.36412,-0.38146 1.49138,-2.47943 1.49138,-2.47943 0,0 -1.075,0.5725 -1.31775,0.29507 -0.24275,-0.27742 1.0232,-2.2717 1.0232,-2.2717 0,0 -1.02327,0.81532 -1.14464,0.57258 -0.12138,-0.24275 0.91881,-3.41582 0.91881,-3.41582 0,0 -1.23067,1.3175 -1.56011,0.98806 -0.32945,-0.32945 0.81494,-3.43287 0.81494,-3.43287 0,0 -1.47413,1.19594 -1.76889,0.93586 -0.29476,-0.26009 0.91933,-3.06854 0.91933,-3.06854 0,0 -1.66477,1.00536 -2.15026,0.67592 -0.48549,-0.32944 0.20826,-2.65306 0.20826,-2.65306 0,0 -1.02306,1.26616 -1.43919,0.8847 -0.41614,-0.38146 -0.0346,-1.6645 -0.0346,-1.6645 0,0 -0.5722,0.20785 -0.971,0.13849 -0.39879,-0.0694 -0.0868,-3.58893 -0.0868,-3.58893 0,0 -1.04901,1.44776 -1.47381,1.50844 -0.46138,0.0659 -0.16485,-2.61845 -0.16485,-2.61845 0,0 -0.55463,0.91887 -0.8754,0.80616 -0.32077,-0.1127 -0.25166,-3.13831 -0.25166,-3.13831 0,0 -0.89583,1.62605 -1.41077,1.42988 -0.51494,-0.19617 -0.15968,-2.62361 -0.15968,-2.62361 0,0 -0.93844,1.55173 -1.56373,1.31878 -0.62529,-0.23295 0.0806,-1.94406 0.0806,-1.94406 0,0 -0.52666,0.1461 -0.72606,-0.17467 -0.1994,-0.32077 -0.63304,-2.3151 -0.63304,-2.3151 0,0 -0.052,0.50286 -0.46818,0.46818 -0.41614,-0.0347 -0.53733,-1.24807 -0.60668,-1.68155 -0.0693,-0.43348 -1.21388,-2.717144 -1.21388,-2.717144 z" />
        <g
           id="g1620"
           transform="translate(49.238441,1.07893)">
          <path
             style="fill:none;stroke:#000000;stroke-width:0.6;stroke-linecap:square;stroke-dasharray:none"
             d="m 81.840371,103.27145 c 0,0 -0.138714,10.40344 -0.138714,12.06799 0,1.66455 0,11.30506 0,13.73253 0,2.42747 0.138714,7.35176 0.06936,9.29374 -0.06936,1.94198 -0.208069,9.29374 -0.208069,9.29374"
             id="path1594" />
          <path
             style="fill:none;stroke:#000000;stroke-width:0.600001;stroke-linecap:square;stroke-dasharray:none"
             d="m 92.763979,137.67215 -11.027643,6.9703"
             id="path1596" />
          <path
             style="fill:none;stroke:#000000;stroke-width:0.600001;stroke-linecap:square;stroke-dasharray:none"
             d="m 72.754701,137.84554 8.738888,7.03966"
             id="path1598" />
          <path
             style="fill:none;stroke:#000000;stroke-width:0.600001;stroke-linecap:square;stroke-dasharray:none"
             d="m 69.876418,130.35506 11.684423,10.28505"
             id="path1600"
             sodipodi:nodetypes="cc" />
          <path
             style="fill:none;stroke:#000000;stroke-width:0.600001;stroke-linecap:square;stroke-dasharray:none"
             d="M 81.893619,140.00767 95.226125,129.90425"
             id="path1602"
             sodipodi:nodetypes="cc" />
          <path
             style="fill:none;stroke:#000000;stroke-width:0.600001;stroke-linecap:square;stroke-dasharray:none"
             d="m 94.844665,123.52347 -12.90026,10.75022"
             id="path1604" />
          <path
             style="fill:none;stroke:#000000;stroke-width:0.600001;stroke-linecap:square;stroke-dasharray:none"
             d="M 81.64964,135.08863 69.807063,123.62751"
             id="path1606"
             sodipodi:nodetypes="cc" />
          <path
             style="fill:none;stroke:#000000;stroke-width:0.600001;stroke-linecap:square;stroke-dasharray:none"
             d="m 71.783714,119.11935 9.883265,10.23005"
             id="path1608" />
          <path
             style="fill:none;stroke:#000000;stroke-width:0.600001;stroke-linecap:square;stroke-dasharray:none"
             d="M 92.763979,118.28708 81.805692,129.41876"
             id="path1610" />
          <path
             style="fill:none;stroke:#000000;stroke-width:0.600001;stroke-linecap:square;stroke-dasharray:none"
             d="m 90.128441,113.60553 -8.28807,8.94696"
             id="path1612" />
          <path
             style="fill:none;stroke:#000000;stroke-width:0.600001;stroke-linecap:square;stroke-dasharray:none"
             d="m 73.968437,114.33377 7.802576,8.14936"
             id="path1614" />
          <path
             style="fill:none;stroke:#000000;stroke-width:0.600001;stroke-linecap:square;stroke-dasharray:none"
             d="m 87.354192,109.58287 -5.5485,5.68721"
             id="path1616" />
          <path
             style="fill:none;stroke:#000000;stroke-width:0.600001;stroke-linecap:square;stroke-dasharray:none"
             d="m 76.777365,109.86029 4.787504,5.67477"
             id="path1618"
             sodipodi:nodetypes="cc" />
        </g>
      </g>
    </g>
  </g>
</svg>
