<?xml version="1.0" encoding="UTF-8"?>
<svg width="720" height="920" version="1.1" viewBox="0 0 190.5 243.42" xmlns="http://www.w3.org/2000/svg"><defs><clipPath id="clipPath6387"><path d="m737.57 1128.3v-79.313c0.819-5.267 4.558-7.614 9.852-8.409h48.691c5.327 0.773 8.892 3.662 9.773 9.773v77.949z"/></clipPath></defs><g transform="matrix(2.7111 0 0 -2.7111 -1996.9 3061.7)"><g clip-path="url(#clipPath6387)"><g fill="#0061a1" fill-rule="evenodd"><rect x="2.6458" y="2.849" width="185.21" height="237.72" fill="#f00" stroke-linecap="round" stroke-miterlimit="30" stroke-width="2.6437"/><path d="m737.59 1103.7h68.217v24.585h-68.217z"/><path d="m737.57 1060.1h9.773v9.773h-9.773z"/><path d="m747.35 1050.3h9.77v9.77h-9.77z"/><path d="m757.12 1060.1h9.773v9.773h-9.773z"/><path d="m766.89 1050.3h9.773v9.77h-9.773z"/><path d="m776.66 1060.1h9.77v9.773h-9.77z"/><path d="m786.43 1050.3h9.773v9.77h-9.773z"/><path d="m796.21 1060.1h9.77v9.773h-9.77z"/><path d="m737.57 1040.6h9.773v9.773h-9.773z"/><path d="m757.12 1040.6h9.773v9.773h-9.773z"/><path d="m776.66 1040.6h9.77v9.773h-9.77z"/><path d="m796.21 1040.6h9.77v9.773h-9.77z"/></g><g fill="#fff" fill-rule="evenodd"><path d="m737.57 1050.3h9.773v9.77h-9.773z"/><path d="m757.12 1050.3h9.773v9.77h-9.773z"/><path d="m776.66 1050.3h9.77v9.77h-9.77z"/><path d="m796.21 1050.3h9.77v9.77h-9.77z"/><path d="m747.35 1060.1h9.77v10.023h-9.77z"/><path d="m766.89 1060.1h9.773v10.023h-9.773z"/><path d="m786.43 1060.1h9.773v10.023h-9.773z"/><path d="m747.35 1040.6h9.77v9.773h-9.77z"/><path d="m766.89 1040.6h9.773v9.773h-9.773z"/><path d="m786.43 1040.6h9.773v9.773h-9.773z"/><path d="m737.59 1069.9h68.217v33.8h-68.217z"/></g><g transform="translate(760.56,1092.4)"><path d="m0 0v-0.573c0-0.918 0.843-1.665 1.88-1.665h18.262c1.037 0 1.88 0.747 1.88 1.665v0.573c0 0.921-0.843 1.668-1.88 1.668h-18.262c-1.037 0-1.88-0.747-1.88-1.668" fill="#f3bd1e" fill-rule="evenodd"/></g><g transform="translate(759.45,1087.3)"><path d="m0 0v-0.573c0-0.921 0.93-1.668 2.069-1.668h20.104c1.139 0 2.069 0.747 2.069 1.668v0.573c0 0.918-0.93 1.668-2.069 1.668h-20.104c-1.139 0-2.069-0.75-2.069-1.668" fill="#f3bd1e" fill-rule="evenodd"/></g><g transform="translate(759.45,1082)"><path d="m0 0v-0.573c0-0.918 0.93-1.665 2.069-1.665h20.104c1.139 0 2.069 0.747 2.069 1.665v0.573c0 0.921-0.93 1.668-2.069 1.668h-20.104c-1.139 0-2.069-0.747-2.069-1.668" fill="#f3bd1e" fill-rule="evenodd"/></g><g transform="translate(759.45,1076.8)"><path d="m0 0v-0.572c0-0.922 0.93-1.668 2.069-1.668h20.104c1.139 0 2.069 0.746 2.069 1.668v0.572c0 0.918-0.93 1.668-2.069 1.668h-20.104c-1.139 0-2.069-0.75-2.069-1.668" fill="#f3bd1e" fill-rule="evenodd"/></g><g transform="translate(763.2,1095.9)"><path d="m0 0c-0.09-0.2-0.116-0.404 0-0.604h16.719c0.11 0.2 0.13 0.404 0 0.604-5.909 4.696-11.465 4.467-16.719 0" fill="#f3bd1e" fill-rule="evenodd"/></g><g transform="translate(787.79,1078.7)"><path d="m0 0-0.047-0.078c-0.072-0.125-0.049-0.277 0.053-0.335 0.485-0.549 1.081-0.88 1.775-1.02 0.102-0.055 0.242 0 0.314 0.125l0.047 0.079c0.072 0.128 0.049 0.276-0.053 0.334-0.712 0.128-1.31 0.459-1.775 1.02-0.102 0.058-0.241 3e-3 -0.314-0.125" fill="#f3bd1e" fill-rule="evenodd"/></g><g transform="translate(787.38,1077.8)"><path d="m0 0-0.035-0.064c-0.058-0.099-0.032-0.227 0.061-0.279 0.459-0.476 1-0.779 1.619-0.93 0.093-0.052 0.215-0.011 0.273 0.09l0.035 0.061c0.058 0.102 0.032 0.227-0.061 0.279-0.549 0.207-1.078 0.52-1.619 0.93-0.093 0.053-0.215 0.015-0.273-0.087" fill="#f3bd1e" fill-rule="evenodd"/></g><g transform="translate(787.15,1076.9)"><path d="m0 0-0.026-0.047c-0.5-0.767 0.936-1.671 1.473-0.848l0.029 0.049c0.044 0.076 0.024 0.172-0.046 0.21-0.416 0.154-0.814 0.392-1.224 0.703-0.069 0.041-0.162 0.011-0.206-0.067" fill="#f3bd1e" fill-rule="evenodd"/></g><g transform="translate(788.51,1079.2)"><path d="m0 0-0.038-0.067c-0.064-0.107-0.055-0.229 0.018-0.27 0.328-0.419 0.752-0.654 1.261-0.724 0.073-0.04 0.18 0.012 0.241 0.119l0.038 0.067c0.064 0.111 0.055 0.23-0.018 0.271-0.523 0.061-0.95 0.293-1.261 0.723-0.072 0.044-0.18-0.011-0.241-0.119" fill="#f3bd1e" fill-rule="evenodd"/></g><g transform="translate(789.55,1081)"><path d="m0 0-0.113-0.198c-0.183-0.319-0.271-0.607-0.201-0.651 0.137-0.752 0.567-0.979 1.261-0.723 0.073-0.041 0.279 0.183 0.462 0.5l0.114 0.197c0.183 0.32 0.27 0.61 0.2 0.651-0.654 0.52-1.095 0.651-1.261 0.724-0.073 0.043-0.279-0.18-0.462-0.5" fill="#f3bd1e" fill-rule="evenodd"/></g><g transform="translate(790.8,1082.2)"><path d="m0 0c0.186-0.108 0.25-0.349 0.145-0.535-0.107-0.186-0.348-0.252-0.534-0.145-0.189 0.108-0.253 0.349-0.146 0.535 0.108 0.186 0.346 0.253 0.535 0.145" fill="#f3bd1e" fill-rule="evenodd"/></g><g transform="translate(791.57,1081.8)"><path d="m0 0c0.186-0.108 0.25-0.346 0.142-0.532-0.107-0.189-0.345-0.253-0.534-0.145-0.186 0.107-0.25 0.346-0.143 0.535 0.108 0.186 0.346 0.25 0.535 0.142" fill="#f3bd1e" fill-rule="evenodd"/></g><g transform="translate(791.14,1080)"><path d="m0 0c-0.163-0.314-0.346-0.619-0.654-0.849-0.078-0.746-0.049-1.557 0.108-2.438l0.558 0.195c0.151-0.558 0.148-1.16 0.421-1.726 0.677 0.27 1.346 0.52 1.683 0.918-0.678 1.305-1.366 2.618-2.116 3.9" fill="#f3bd1e" fill-rule="evenodd"/></g><g transform="translate(789.5,1081.1)"><path d="m0 0c-0.192-0.296-0.363-0.607-0.407-0.991-0.604-0.445-1.319-0.828-2.159-1.139l-0.113 0.584c-0.558-0.154-1.076-0.459-1.703-0.506-0.108 0.718-0.227 1.421-0.055 1.916 1.467 0.069 2.949 0.139 4.437 0.136" fill="#f3bd1e" fill-rule="evenodd"/></g><g transform="translate(799.4,1083.6)"><path d="m0 0 0.081-0.041c0.128-0.066 0.279-0.037 0.332 0.067 0.529 0.509 0.834 1.119 0.941 1.817 0.053 0.104-8e-3 0.241-0.136 0.308l-0.082 0.043c-0.131 0.067-0.279 0.038-0.331-0.067-0.099-0.718-0.401-1.328-0.942-1.816-0.055-0.105 6e-3 -0.241 0.137-0.311" fill="#f3bd1e" fill-rule="evenodd"/></g><g transform="translate(800.27,1083.2)"><path d="m0 0 0.064-0.035c0.105-0.052 0.23-0.02 0.276 0.076 0.456 0.476 0.738 1.031 0.86 1.659 0.05 0.093 3e-3 0.212-0.099 0.264l-0.066 0.035c-0.102 0.053-0.227 0.021-0.277-0.072-0.177-0.558-0.47-1.099-0.857-1.66-0.049-0.093-6e-3 -0.215 0.099-0.267" fill="#f3bd1e" fill-rule="evenodd"/></g><g transform="translate(801.22,1083)"><path d="m0 0 0.049-0.026c0.788-0.465 1.628 1.008 0.782 1.511l-0.049 0.026c-0.079 0.041-0.172 0.015-0.209-0.055-0.134-0.421-0.355-0.831-0.649-1.253-0.034-0.072-2e-3 -0.162 0.076-0.203" fill="#f3bd1e" fill-rule="evenodd"/></g><g transform="translate(798.83,1084.2)"><path d="m0 0 0.07-0.035c0.11-0.058 0.229-0.043 0.267 0.029 0.404 0.349 0.622 0.782 0.668 1.293 0.038 0.073-0.02 0.178-0.13 0.236l-0.067 0.035c-0.111 0.058-0.233 0.043-0.27-0.029-0.038-0.526-0.253-0.962-0.669-1.291-0.038-0.075 0.021-0.18 0.131-0.238" fill="#f3bd1e" fill-rule="evenodd"/></g><g transform="translate(797.04,1085.2)"><path d="m0 0 0.201-0.105c0.328-0.168 0.621-0.244 0.659-0.171 0.747 0.168 0.953 0.607 0.669 1.29 0.037 0.076-0.192 0.27-0.521 0.439l-0.2 0.105c-0.329 0.168-0.622 0.247-0.66 0.174-0.491-0.677-0.604-1.125-0.668-1.293-0.038-0.073 0.192-0.27 0.52-0.439" fill="#f3bd1e" fill-rule="evenodd"/></g><g transform="translate(795.73,1086.4)"><path d="m0 0c0.099 0.192 0.337 0.267 0.526 0.169 0.192-0.102 0.267-0.338 0.169-0.529-0.099-0.192-0.335-0.268-0.526-0.169-0.192 0.102-0.268 0.337-0.169 0.529" fill="#f3bd1e" fill-rule="evenodd"/></g><g transform="translate(796.15,1087.2)"><path d="m0 0c0.099 0.192 0.334 0.267 0.526 0.169 0.192-0.099 0.267-0.338 0.169-0.529-0.099-0.192-0.335-0.265-0.526-0.166-0.192 0.099-0.268 0.334-0.169 0.526" fill="#f3bd1e" fill-rule="evenodd"/></g><g transform="translate(797.97,1086.8)"><path d="m0 0c0.323-0.148 0.634-0.317 0.878-0.616 0.752-0.044 1.56 0.02 2.432 0.212l-0.221 0.552c0.552 0.175 1.154 0.198 1.709 0.497-0.299 0.663-0.578 1.319-0.991 1.639-1.273-0.735-2.557-1.479-3.807-2.284" fill="#f3bd1e" fill-rule="evenodd"/></g><g transform="translate(796.89,1085.2)"><path d="m0 0c0.305-0.18 0.622-0.337 1.008-0.363 0.471-0.587 0.884-1.285 1.23-2.11l-0.579-0.137c0.178-0.549 0.506-1.055 0.582-1.679-0.712-0.14-1.413-0.291-1.913-0.137-0.133 1.462-0.267 2.941-0.328 4.426" fill="#f3bd1e" fill-rule="evenodd"/></g><g transform="translate(790.51,1095.4)"><path d="m0 0-0.073 0.055c-0.113 0.093-0.264 0.093-0.337 3e-3 -0.622-0.392-1.043-0.927-1.29-1.589-0.076-0.091-0.041-0.236 0.07-0.329l0.072-0.058c0.114-0.093 0.265-0.093 0.337-3e-3 0.242 0.683 0.663 1.221 1.291 1.59 0.075 0.09 0.043 0.238-0.07 0.331" fill="#f3bd1e" fill-rule="evenodd"/></g><g transform="translate(789.73,1095.9)"><path d="m0 0-0.055 0.044c-0.093 0.075-0.221 0.066-0.288-0.015-0.543-0.375-0.93-0.863-1.18-1.45-0.064-0.081-0.046-0.206 0.044-0.282l0.058-0.046c0.09-0.073 0.218-0.067 0.285 0.017 0.29 0.509 0.686 0.979 1.18 1.447 0.063 0.084 0.046 0.209-0.044 0.285" fill="#f3bd1e" fill-rule="evenodd"/></g><g transform="translate(788.84,1096.3)"><path d="m0 0-0.044 0.035c-0.677 0.616-1.798-0.657-1.072-1.319l0.044-0.038c0.067-0.055 0.162-0.05 0.215 0.011 0.218 0.387 0.517 0.741 0.889 1.096 0.049 0.061 0.035 0.157-0.032 0.215" fill="#f3bd1e" fill-rule="evenodd"/></g><g transform="translate(790.92,1094.6)"><path d="m0 0-0.061 0.049c-0.096 0.079-0.215 0.09-0.267 0.027-0.468-0.259-0.768-0.64-0.919-1.131-0.052-0.064-0.017-0.177 0.082-0.256l0.058-0.049c0.096-0.079 0.218-0.09 0.27-0.026 0.145 0.505 0.442 0.889 0.918 1.127 0.05 0.064 0.015 0.181-0.081 0.259" fill="#f3bd1e" fill-rule="evenodd"/></g><g transform="translate(792.48,1093.3)"><path d="m0 0-0.174 0.142c-0.285 0.233-0.558 0.367-0.611 0.303-0.767-0.015-1.057-0.401-0.915-1.131-0.055-0.064 0.134-0.302 0.418-0.532l0.178-0.145c0.284-0.232 0.558-0.366 0.61-0.302 0.616 0.561 0.817 0.976 0.915 1.127 0.053 0.067-0.133 0.305-0.421 0.538" fill="#f3bd1e" fill-rule="evenodd"/></g><g transform="translate(793.52,1091.8)"><path d="m0 0c-0.137-0.169-0.384-0.195-0.549-0.058-0.169 0.136-0.195 0.383-0.058 0.549 0.136 0.169 0.383 0.195 0.549 0.058 0.168-0.136 0.195-0.383 0.058-0.549" fill="#f3bd1e" fill-rule="evenodd"/></g><g transform="translate(792.95,1091.1)"><path d="m0 0c-0.137-0.169-0.384-0.192-0.549-0.058-0.169 0.136-0.195 0.383-0.058 0.552 0.136 0.166 0.383 0.192 0.549 0.055 0.168-0.136 0.195-0.38 0.058-0.549" fill="#f3bd1e" fill-rule="evenodd"/></g><g transform="translate(791.24,1091.8)"><path d="m0 0c-0.285 0.209-0.558 0.439-0.735 0.782-0.724 0.194-1.529 0.296-2.424 0.285l0.105-0.585c-0.576-0.058-1.169 0.041-1.773-0.139 0.157-0.709 0.299-1.41 0.636-1.808 1.395 0.462 2.805 0.93 4.191 1.465" fill="#f3bd1e" fill-rule="evenodd"/></g><g transform="translate(792.64,1093.3)"><path d="m0 0c-0.262 0.238-0.543 0.456-0.912 0.561-0.343 0.668-0.605 1.435-0.776 2.316l0.592 0.017c-0.061 0.573-0.279 1.134-0.226 1.762 0.726-9e-3 1.441-3e-3 1.9-0.256-0.165-1.459-0.337-2.932-0.578-4.4" fill="#f3bd1e" fill-rule="evenodd"/></g><g transform="translate(753.54,1077.8)"><path d="m0 0 0.049-0.078c0.076-0.125 0.218-0.178 0.317-0.117 0.715 0.16 1.296 0.521 1.753 1.061 0.098 0.058 0.119 0.209 0.043 0.334l-0.049 0.079c-0.076 0.125-0.215 0.177-0.317 0.116-0.456-0.561-1.035-0.924-1.749-1.061-0.102-0.058-0.12-0.209-0.047-0.334" fill="#f3bd1e" fill-rule="evenodd"/></g><g transform="translate(754.1,1077)"><path d="m0 0 0.038-0.064c0.061-0.099 0.183-0.134 0.273-0.081 0.639 0.171 1.168 0.499 1.598 0.967 0.09 0.056 0.117 0.181 0.055 0.279l-0.037 0.064c-0.061 0.099-0.183 0.137-0.273 0.082-0.445-0.381-0.977-0.692-1.599-0.965-0.09-0.055-0.116-0.183-0.055-0.282" fill="#f3bd1e" fill-rule="evenodd"/></g><g transform="translate(754.81,1076.4)"><path d="m0 0 0.029-0.047c0.43-0.81 1.915 9e-3 1.456 0.878l-0.029 0.05c-0.047 0.075-0.14 0.101-0.206 0.061-0.335-0.288-0.736-0.524-1.206-0.73-0.07-0.04-0.091-0.136-0.044-0.212" fill="#f3bd1e" fill-rule="evenodd"/></g><g transform="translate(753.43,1078.7)"><path d="m0 0 0.041-0.067c0.064-0.107 0.174-0.157 0.244-0.113 0.526 0.084 0.938 0.34 1.244 0.753 0.072 0.04 0.078 0.162 0.011 0.267l-0.038 0.067c-0.066 0.107-0.174 0.157-0.247 0.116-0.305-0.43-0.714-0.689-1.243-0.753-0.07-0.043-0.076-0.162-0.012-0.27" fill="#f3bd1e" fill-rule="evenodd"/></g><g transform="translate(752.4,1080.5)"><path d="m0 0 0.119-0.195c0.189-0.314 0.401-0.532 0.471-0.488 0.726-0.247 1.13 0.02 1.244 0.753 0.072 0.043-0.024 0.328-0.215 0.645l-0.117 0.195c-0.191 0.313-0.401 0.531-0.473 0.491-0.77-0.32-1.099-0.646-1.244-0.753-0.07-0.044 0.023-0.331 0.215-0.648" fill="#f3bd1e" fill-rule="evenodd"/></g><g transform="translate(751.91,1082.2)"><path d="m0 0c0.186 0.11 0.427 0.052 0.538-0.134 0.113-0.183 0.052-0.424-0.131-0.534-0.186-0.114-0.427-0.053-0.538 0.13-0.113 0.186-0.052 0.425 0.131 0.538" fill="#f3bd1e" fill-rule="evenodd"/></g><g transform="translate(752.67,1082.6)"><path d="m0 0c0.186 0.11 0.424 0.052 0.538-0.134 0.11-0.183 0.052-0.424-0.134-0.534-0.183-0.114-0.424-0.053-0.535 0.13-0.113 0.186-0.052 0.425 0.131 0.538" fill="#f3bd1e" fill-rule="evenodd"/></g><g transform="translate(754.05,1081.4)"><path d="m0 0c0.198-0.293 0.375-0.602 0.427-0.982 0.616-0.43 1.34-0.796 2.186-1.09l0.098 0.587c0.564-0.139 1.087-0.433 1.715-0.468 0.093 0.721 0.198 1.427 0.012 1.918-1.468 0.035-2.953 0.07-4.438 0.035" fill="#f3bd1e" fill-rule="evenodd"/></g><g transform="translate(752.24,1080.5)"><path d="m0 0c0.169-0.314 0.357-0.613 0.671-0.837 0.096-0.744 0.085-1.555-0.049-2.441l-0.564 0.186c-0.136-0.564-0.122-1.165-0.384-1.738-0.679 0.256-1.354 0.491-1.702 0.881 0.648 1.319 1.307 2.647 2.028 3.949" fill="#f3bd1e" fill-rule="evenodd"/></g><g transform="translate(742.31,1085.9)"><path d="m0 0-0.081-0.041c-0.128-0.067-0.189-0.206-0.137-0.311 0.113-0.723 0.433-1.325 0.942-1.816 0.055-0.104 0.203-0.134 0.331-0.064l0.081 0.041c0.131 0.067 0.192 0.203 0.14 0.308-0.532 0.494-0.858 1.096-0.945 1.816-0.052 0.105-0.2 0.134-0.331 0.067" fill="#f3bd1e" fill-rule="evenodd"/></g><g transform="translate(741.51,1085.4)"><path d="m0 0-0.067-0.035c-0.104-0.052-0.148-0.174-0.099-0.267 0.128-0.648 0.419-1.198 0.861-1.66 0.046-0.093 0.171-0.125 0.273-0.072l0.067 0.035c0.104 0.052 0.148 0.174 0.098 0.267-0.351 0.468-0.624 1.017-0.86 1.656-0.046 0.096-0.171 0.128-0.273 0.076" fill="#f3bd1e" fill-rule="evenodd"/></g><g transform="translate(740.81,1084.7)"><path d="m0 0-0.049-0.026c-0.837-0.375-0.117-1.912 0.781-1.511l0.05 0.026c0.078 0.041 0.11 0.131 0.075 0.2-0.267 0.355-0.473 0.77-0.651 1.256-0.035 0.07-0.13 0.096-0.206 0.055" fill="#f3bd1e" fill-rule="evenodd"/></g><g transform="translate(743.21,1085.9)"><path d="m0 0-0.067-0.035c-0.113-0.058-0.168-0.163-0.131-0.235 0.05-0.532 0.279-0.959 0.669-1.293 0.038-0.073 0.157-0.088 0.267-0.03l0.07 0.035c0.11 0.058 0.168 0.163 0.131 0.239-0.407 0.334-0.64 0.761-0.669 1.29-0.04 0.073-0.16 0.087-0.27 0.029" fill="#f3bd1e" fill-rule="evenodd"/></g><g transform="translate(745.03,1086.8)"><path d="m0 0-0.203-0.105c-0.326-0.171-0.558-0.366-0.521-0.438-0.293-0.709-0.052-1.131 0.672-1.294 0.037-0.072 0.331 3e-3 0.656 0.172l0.201 0.107c0.328 0.169 0.561 0.364 0.523 0.436-0.27 0.794-0.57 1.142-0.671 1.294-0.038 0.072-0.331-3e-3 -0.657-0.172" fill="#f3bd1e" fill-rule="evenodd"/></g><g transform="translate(746.76,1087.2)"><path d="m0 0c0.099-0.192 0.026-0.43-0.166-0.529-0.191-0.099-0.43-0.023-0.529 0.169-0.098 0.191-0.023 0.427 0.169 0.526 0.192 0.098 0.427 0.023 0.526-0.166" fill="#f3bd1e" fill-rule="evenodd"/></g><g transform="translate(747.16,1086.4)"><path d="m0 0c0.102-0.192 0.026-0.427-0.166-0.526-0.191-0.102-0.427-0.026-0.526 0.166-0.101 0.191-0.026 0.427 0.166 0.528 0.192 0.099 0.427 0.024 0.526-0.168" fill="#f3bd1e" fill-rule="evenodd"/></g><g transform="translate(745.82,1085.1)"><path d="m0 0c-0.305-0.177-0.622-0.334-1.008-0.36-0.471-0.587-0.881-1.285-1.23-2.11l0.579-0.137c-0.178-0.552-0.503-1.055-0.582-1.679 0.715-0.14 1.413-0.291 1.913-0.137 0.133 1.462 0.267 2.941 0.328 4.423" fill="#f3bd1e" fill-rule="evenodd"/></g><g transform="translate(745.07,1087)"><path d="m0 0c-0.323-0.148-0.634-0.317-0.878-0.616-0.749-0.044-1.56 0.02-2.432 0.212l0.221 0.552c-0.552 0.172-1.154 0.198-1.706 0.494 0.296 0.663 0.575 1.322 0.988 1.642 1.273-0.735 2.557-1.479 3.807-2.284" fill="#f3bd1e" fill-rule="evenodd"/></g><g transform="translate(753.68,1093.3)"><path d="m0 0 0.067 0.061c0.107 0.099 0.134 0.247 0.055 0.334-0.288 0.674-0.747 1.177-1.363 1.526-0.078 0.087-0.227 0.078-0.337-0.018l-0.067-0.061c-0.11-0.098-0.136-0.247-0.058-0.334 0.636-0.346 1.101-0.848 1.363-1.525 0.078-0.088 0.23-0.079 0.34 0.017" fill="#f3bd1e" fill-rule="evenodd"/></g><g transform="translate(754.34,1094)"><path d="m0 0 0.055 0.049c0.087 0.076 0.099 0.204 0.029 0.285-0.285 0.596-0.703 1.055-1.243 1.392-0.073 0.079-0.198 0.081-0.285 3e-3l-0.056-0.049c-0.087-0.079-0.101-0.207-0.029-0.285 0.457-0.366 0.858-0.831 1.244-1.392 0.07-0.079 0.198-0.081 0.285-3e-3" fill="#f3bd1e" fill-rule="evenodd"/></g><g transform="translate(754.85,1094.8)"><path d="m0 0 0.041 0.035c0.717 0.572-0.361 1.883-1.131 1.27l-0.043-0.038c-0.064-0.058-0.076-0.154-0.024-0.212 0.346-0.279 0.651-0.628 0.942-1.055 0.052-0.058 0.151-0.058 0.215 0" fill="#f3bd1e" fill-rule="evenodd"/></g><g transform="translate(752.83,1093.1)"><path d="m0 0 0.058 0.052c0.093 0.082 0.122 0.201 0.07 0.262-0.183 0.503-0.509 0.857-0.971 1.084-0.055 0.061-0.174 0.046-0.267-0.038l-0.058-0.049c-0.093-0.085-0.122-0.201-0.067-0.265 0.477-0.221 0.808-0.578 0.968-1.084 0.055-0.061 0.174-0.043 0.267 0.038" fill="#f3bd1e" fill-rule="evenodd"/></g><g transform="translate(751.28,1091.7)"><path d="m0 0 0.171 0.151c0.274 0.244 0.448 0.491 0.393 0.555 0.11 0.759-0.227 1.107-0.968 1.084-0.055 0.061-0.32-0.084-0.593-0.331l-0.171-0.151c-0.273-0.244-0.451-0.491-0.395-0.553 0.456-0.7 0.834-0.964 0.967-1.086 0.055-0.061 0.323 0.084 0.596 0.331" fill="#f3bd1e" fill-rule="evenodd"/></g><g transform="translate(749.71,1090.9)"><path d="M 0,0 C -0.145,0.16 -0.131,0.41 0.032,0.552 0.192,0.694 0.439,0.683 0.584,0.52 0.727,0.36 0.712,0.113 0.552,-0.032 0.389,-0.174 0.142,-0.16 0,0" fill="#f3bd1e" fill-rule="evenodd"/></g><g transform="translate(749.12,1091.6)"><path d="M 0,0 C -0.142,0.16 -0.131,0.407 0.032,0.552 0.192,0.695 0.439,0.68 0.584,0.52 0.727,0.36 0.715,0.11 0.552,-0.032 0.392,-0.177 0.145,-0.163 0,0" fill="#f3bd1e" fill-rule="evenodd"/></g><g transform="translate(750.09,1093.2)"><path d="m0 0c0.253 0.25 0.523 0.479 0.889 0.602 0.308 0.685 0.538 1.461 0.669 2.348l-0.593-9e-3c0.032 0.575 0.224 1.145 0.142 1.77-0.726-0.041-1.438-0.07-1.886-0.343 0.233-1.45 0.474-2.915 0.779-4.368" fill="#f3bd1e" fill-rule="evenodd"/></g><g transform="translate(751.29,1091.6)"><path d="m0 0c0.276 0.224 0.535 0.465 0.697 0.814 0.715 0.232 1.514 0.369 2.41 0.401l-0.076-0.59c0.575-0.032 1.162 0.096 1.776-0.055-0.125-0.718-0.233-1.424-0.553-1.837-1.415 0.395-2.845 0.799-4.254 1.267" fill="#f3bd1e" fill-rule="evenodd"/></g><g transform="translate(745.12,1100)"><path d="m0 0-0.038 0.081c-0.061 0.134-0.194 0.204-0.302 0.154-0.729-0.069-1.348-0.357-1.869-0.837-0.104-0.046-0.142-0.194-0.081-0.325l0.035-0.084c0.061-0.134 0.195-0.204 0.302-0.154 0.523 0.5 1.139 0.79 1.866 0.837 0.107 0.046 0.145 0.194 0.087 0.328" fill="#f3bd1e" fill-rule="evenodd"/></g><g transform="translate(744.66,1100.9)"><path d="m0 0-0.029 0.067c-0.049 0.104-0.166 0.157-0.262 0.113-0.656-0.09-1.22-0.352-1.705-0.764-0.096-0.044-0.137-0.166-0.088-0.27l0.029-0.067c0.05-0.108 0.166-0.16 0.262-0.116 0.488 0.325 1.052 0.569 1.706 0.764 0.096 0.043 0.136 0.165 0.087 0.273" fill="#f3bd1e" fill-rule="evenodd"/></g><g transform="translate(744.03,1101.6)"><path d="m0 0-0.023 0.049c-0.326 0.858-1.901 0.224-1.552-0.694l0.023-0.049c0.035-0.082 0.125-0.12 0.198-0.088 0.369 0.244 0.793 0.428 1.287 0.576 0.073 0.035 0.102 0.128 0.067 0.206" fill="#f3bd1e" fill-rule="evenodd"/></g><g transform="translate(745.12,1099.1)"><path d="m0 0-0.032 0.07c-0.049 0.113-0.151 0.177-0.227 0.145-0.534-0.02-0.973-0.224-1.328-0.596-0.075-0.035-0.096-0.151-0.043-0.267l0.029-0.07c0.052-0.113 0.154-0.177 0.229-0.145 0.358 0.389 0.797 0.596 1.328 0.596 0.076 0.035 0.096 0.154 0.044 0.267" fill="#f3bd1e" fill-rule="evenodd"/></g><g transform="translate(745.93,1097.3)"><path d="m0 0-0.09 0.206c-0.151 0.337-0.334 0.579-0.41 0.544-0.691 0.334-1.124 0.119-1.325-0.593-0.078-0.035-0.017-0.331 0.134-0.668l0.093-0.207c0.151-0.337 0.331-0.578 0.407-0.546 0.805 0.224 1.171 0.506 1.328 0.596 0.075 0.034 0.017 0.331-0.137 0.668" fill="#f3bd1e" fill-rule="evenodd"/></g><g transform="translate(746.21,1095.5)"><path d="m0 0c-0.195-0.087-0.427 0-0.514 0.198-0.09 0.197 0 0.43 0.194 0.517 0.198 0.087 0.43 0 0.518-0.198 0.09-0.194 0-0.427-0.198-0.517" fill="#f3bd1e" fill-rule="evenodd"/></g><g transform="translate(745.39,1095.2)"><path d="m0 0c-0.195-0.087-0.427 0-0.514 0.198-0.09 0.197 0 0.43 0.194 0.517 0.198 0.087 0.43 0 0.518-0.198 0.09-0.194 0-0.427-0.198-0.517" fill="#f3bd1e" fill-rule="evenodd"/></g><g transform="translate(744.19,1096.6)"><path d="m0 0c-0.16 0.314-0.299 0.642-0.305 1.026-0.558 0.503-1.232 0.956-2.037 1.348l-0.169-0.569c-0.54 0.206-1.026 0.563-1.645 0.674-0.18-0.706-0.369-1.395-0.244-1.901 1.453-0.218 2.921-0.433 4.4-0.578" fill="#f3bd1e" fill-rule="evenodd"/></g><g transform="translate(746.09,1097.2)"><path d="m0 0c-0.128 0.328-0.279 0.651-0.564 0.91-3e-3 0.752 0.108 1.554 0.349 2.418l0.538-0.253c0.203 0.54 0.261 1.139 0.59 1.676 0.645-0.334 1.287-0.651 1.583-1.081-0.805-1.229-1.621-2.47-2.496-3.67" fill="#f3bd1e" fill-rule="evenodd"/></g><g transform="translate(755.9,1106.1)"><path d="m0 0-2.418 7.405 6.309 4.565-7.788-0.014-2.395 7.413-2.394-7.413-7.788 0.014 6.309-4.565-2.421-7.405 6.294 4.589z" fill="#fff" fill-rule="evenodd"/></g><g transform="translate(777.81,1106.1)"><path d="m0 0-2.418 7.405 6.309 4.565-7.791-0.014-2.392 7.413-2.394-7.413-7.788 0.014 6.309-4.565-2.421-7.405 6.294 4.589z" fill="#fff" fill-rule="evenodd"/></g><g transform="translate(799.37,1106.1)"><path d="m0 0-2.418 7.405 6.309 4.565-7.791-0.014-2.392 7.413-2.394-7.413-7.788 0.014 6.309-4.565-2.421-7.405 6.294 4.589z" fill="#fff" fill-rule="evenodd"/></g></g></g></svg>
