<!-- Created with Inkscape (http://www.inkscape.org/) -->
<svg xmlns:rdf="http://www.w3.org/1999/02/22-rdf-syntax-ns#" xmlns="http://www.w3.org/2000/svg" height="476" width="396" version="1.1" xmlns:cc="http://creativecommons.org/ns#" xmlns:dc="http://purl.org/dc/elements/1.1/">
 <metadata>
  <rdf:RDF>
   <cc:Work rdf:about="">
    <dc:format>image/svg+xml</dc:format>
    <dc:type rdf:resource="http://purl.org/dc/dcmitype/StillImage"/>
    <dc:title/>
   </cc:Work>
  </rdf:RDF>
 </metadata>
 <g transform="translate(0,-576.36217)">
  <g transform="translate(-3,2.99997)">
   <path fill="#000" d="m6,576.36,390,0,0,265c0,130-90,205-195,205s-195-75-195-205z"/>
   <path d="m76.008,175.6c13.873-7.4787,19.286-20.05,28.435-31.351,8.0953-10.001,24.546,2.8724,32.445,8.3846-4.2694,3.854-4.6152,10.147-5.1036,14.946-7.1341-4.547-17.996-10.338-22.42-6.5618-6.3432,5.4149-9.5419,10.478-9.1137,21.691-3.0498,0.42406-7.0261,0.74169-9.1137-3.6455,0.11386,2.5069,1.0607,5.5477-0.72909,6.9264-2.9962,2.3081-9.6605-5.4076-14.4-10.39z" transform="translate(0,570.36217)" fill="#FFF"/>
   <path d="m92.23,213.15c4.3823,0.69292,9.297,0.9865,16.405-0.36455,1.1458-4.7269-1.7256-16.051,6.5618-5.6505,1.6991,2.1324,2.797,0.85731,3.0549-4.7974-0.31378-7.1768-2.297-15.919,4.7829-16.164,8.4453-0.29186,24.862,21.549,34.632,19.139,4.5514-1.1229,3.974-17.617,9.1137-16.951-0.24692,3.2121-5.3534,13.241-2.0723,18.023,2.101,3.0622,7.6559,5.2013,16.836,4.943,21.069-0.59274,29.262-15.545,48.485-10.572,9.9909,2.585-11.353,38.32,12.759,43.928,14.776,3.4363,32.27-5.8388,39.371,6.1973,3.7886,6.4213,5.8206,9.4776,5.9616,26.131l12.319-1.2889c-0.42424-9.3861,0.10869-17.072,4.1456-9.5164,3.1572,5.9092,5.7575-7.6219,3.6388-8.5821-6.5296-2.9592-10.513-13.952-10.39-21.691-12.89-0.91536-28.453-6.8099-29.528-18.592-1.4476-15.863,5.825-11.792,4.7391-36.637,10.128-0.14073,27.794,21.279,37.002-3.0986-12.21,3.1561-19.619-6.9869-23.513-6.7441-6.6708,0.41585-9.4956,3.469-13.488,5.8328-5.0982-13.253-20.628-15.623-34.766-17.213-14.274-1.6054-36.593,0.33879-38.691-15.96-2.6078-20.267,19.689-32.28,1.0936-45.022,9.4606-1.4987,20.943,2.2265,24.971-13.306-6.7844-2.9715-20.501-0.36724-35.543,2.1873,5.7-5.5525,18.334-6.725,29.711-8.02-2.0008-5.6656-33.519-3.1577-33.903-7.1087-1.8097-18.648,0.473-33.866,19.139-32.809-3.5251-4.5685-12.841-10.697-22.877,2.102-8.279,10.558-5.1021,20.623-7.3802,30.889-2.3921-2.4345-4.4726-2.4176-6.3796-0.000001-4.0526-36.782,6.8739-37.078,18.592-36.819-5.3957-15.233-30.448,0.31346-29.528,12.03,0.0397,11.734,0.38644,20.704,0.91137,28.07-10.069,3.9237-8.3313,28.104-23.149,29.346-6.2642,0.52518-6.9565,1.8684-2.5518,7.1087-1.4278,9.1288,7.747,3.8119,12.395,3.8277-2.7227,3.0031-8.129,5.4606-7.6555,9.1137,1.3886,3.5767,11.422,0.48606,16.405-4.1923,2.5863,3.2185,7.1234,1.6042,8.8766,3.1555-7.2726,7.0375-14.905,12.123-21.818,24.368-6.1356,10.868-5.7941,17.282-6.9264,22.784-8.4252-0.35038-18.182-8.6581-25.336-0.72909-8.508,9.43-3.6412,16.426-13.306,35.179-0.85264,1.6544-2.4074,3.6991-3.0986,7.4732z" transform="translate(0,570.36217)" fill="#FFF"/>
   <path d="m70.722,389.77c4.6941-19.916,21.455-15.085,51.037-15.311,13.365-0.1022,31.113-28.714,37.184-74.003,3.467,2.1474,6.4841,5.4195,8.02,12.395,2.6888-4.5712,5.1401-9.8548,8.7491-11.665,3.2809,3.3585,6.5618,13.301,9.8428,22.237,2.9501-6.5751,5.312-10.798,7.2909-13.488,2.6733,2.2156,5.7112,12.968,8.3846,19.686,1.7893-6.6623,3.152-14.604,5.8328-18.592,7.5284,9.3567,8.0698,18.713,12.03,28.07,2.628-5.2561,4.8603-9.7206,8.3846-16.769,1.6901,2.6845,4.1205,4.6287,4.01,9.1137,2.6576-6.2918,5.1602-13.513,8.7491-14.217,8.7128,17.701,5.1092,48.662,25.518,54.682,18.795,5.5436,41.397-8.4334,55.047,17.134-10.207,3.2664-20.415,5.0837-30.622,2.5518,5.3184,6.0758,4.7309,12.152,5.4682,18.227-11.662-10.372-20.464-10.469-30.257-10.572-15.947-0.16709-24.37-9.2871-29.164-25.154-0.21065,34.062,38.304,24.753,32.809,48.12-11.103-6.6312-21.19-6.2801-31.351-6.1973-14.457,0.11783-22.286-12.952-27.706-37.548-0.58094,47.553,28.776,29.767,33.903,60.515-17.579-13.304-22.779,5.2945-34.267-14.582,1.9995,14.269-3.098,21.692-9.8428,28.799-4.1901-16.117-18.003-11.509-18.956-31.716-9.0443,11.661-18.812-0.001-35.361,15.676-9.1406-23.179,42.151-22.816,39.006-53.588-13.929,35.671-51.425,25.089-67.077,41.194-7.9038-18.822,34.708-16.319,34.632-53.953-6.1193,23.318-18.348,31.884-32.809,32.445-9.5242,0.36917-21.265-7.5149-33.903-0.72909-0.36734-7.3446,4.94-11.447,11.301-14.946-5.8772-6.6053-16.511-0.40428-25.883,2.1873z" transform="translate(0,570.36217)" fill="#da121a"/>
   <path d="m76.737,179.06c-2.9306,2.6023-4.8141,5.8832-9.1137,6.1973,5.9084,6.0335,7.8867,1.0444,12.674-2.3917z" transform="translate(0,570.36217)" fill="#FFF"/>
   <path d="m81.658,753.97c-2.9306,2.6023-4.085,5.1541-7.6555,5.6505,6.0304,6.5291,7.8822,2.806,11.848-2.1873-1.5327-1.09-2.9474-2.138-4.1923-3.4632z" fill="#FFF"/>
   <path d="m93.418,785.48c-0.56798,3.8778,1.0044,6.9567-2.084,9.9644,9.4363,1.7171,5.8194-3.9528,7.2721-9.6641-1.9886,0.15913-3.5154-0.14352-5.1881-0.30034z" fill="#FFF"/>
   <path d="m100.37,785.8c-0.56799,3.8778,0.57762,6.8316-1.8355,9.5096,8.8176,1.1156,7.5808-3.8278,7.4019-10.202-1.4607,0.56901-3.882,0.71883-5.5664,0.69221z" fill="#FFF"/>
   <path d="m288.33,849.3c-0.56798,3.8778,0.36,7.8589-2.7285,10.867,8.4052,0.81485,6.8505-5.4994,8.3032-11.211z" fill="#FFF"/>
   <path d="m294.89,848.84c-0.56799,3.8778-0.58234,8.7649-2.9955,11.443,7.3998,1.2445,7.4519-5.2456,7.9175-12.006z" fill="#FFF"/>
   <path d="m213.69,212.37c3.8666-3.1792,3.6656-7.1576,13.146-10.311,4.3788-1.4564,5.0902,4.475,4.2533,9.2798-5.7058-1.566-11.645,0.17907-17.4,1.0311z" transform="translate(0,570.36217)" fill="#FFF"/>
   <path d="m274.53,205.15c11.472,6.974,23.534,12.533,38.408,11.342,4.3466,11.345,5.0806,18.052,16.755,19.849,2.8152,6.6886,1.0413,7.2244-6.7021,7.4754l5.9288,6.4443c-5.0347,4.5018-8.3716,6.4568-12.115,9.0221-3.0966-12.182-8.9793-24.661-14.178-25.52-17.664-2.9181-33.427-8.803-28.097-28.613z" transform="translate(0,570.36217)" fill="#FFF"/>
   <path d="m318.69,830.65c1.8318,4.4756,3.6018,8.4155,3.2106,12.709,6.6584-3.9433,3.495-10.005,0.88551-15.289z" fill="#FFF"/>
   <path d="m324.23,827.19c2.0896,3.3157,3.5169,7.8351,3.4244,11.439,7.6828-4.1118,5.3426-10.541,1.0626-15.268z" fill="#FFF"/>
   <path stroke-linejoin="round" d="m155.48,101.23c5.6437-1.8869,13.063-0.36554,18.956,0.54682,0.0106-3.3258,5.9793-8.1951,11.119-8.9314-9.1564,1.1341-9.8935-8.6032-12.577-8.5668-3.5622,0.04832-5.5729,3.6723-9.4907,5.3686-4.6722,2.0229-10.36,7.0542-8.0075,11.583z" transform="translate(0,570.36217)" stroke="#000" stroke-linecap="round" stroke-miterlimit="4" stroke-dasharray="none" stroke-width="4" fill="none"/>
   <path d="m171.53,91.388c0,1.6107-2.3725,2.9164-5.2991,2.9164s-5.135-0.53076-5.135-2.1414c0-1.6107,1.8934-3.3331,4.82-3.3331s5.6141,0.94746,5.6141,2.5581z" transform="matrix(1.1482747,0.36082869,-0.00785904,1.3348691,-22.83633,480.14191)" fill="#000"/>
  </g>
 </g>
</svg>
