<?xml version="1.0" encoding="UTF-8" standalone="no"?>
<svg
   xmlns:dc="http://purl.org/dc/elements/1.1/"
   xmlns:cc="http://creativecommons.org/ns#"
   xmlns:rdf="http://www.w3.org/1999/02/22-rdf-syntax-ns#"
   xmlns:svg="http://www.w3.org/2000/svg"
   xmlns="http://www.w3.org/2000/svg"
   xmlns:sodipodi="http://sodipodi.sourceforge.net/DTD/sodipodi-0.dtd"
   xmlns:inkscape="http://www.inkscape.org/namespaces/inkscape"
   width="700"
   height="800"
   viewBox="0 0 700.00001 800.00001"
   id="svg4172"
   version="1.1"
   inkscape:version="0.91 r13725"
   sodipodi:docname="Wappen at namlos.svg">
  <sodipodi:namedview
     pagecolor="#ffffff"
     bordercolor="#666666"
     borderopacity="1"
     objecttolerance="10"
     gridtolerance="10"
     guidetolerance="10"
     inkscape:pageopacity="0"
     inkscape:pageshadow="2"
     inkscape:window-width="1920"
     inkscape:window-height="1137"
     id="namedview4189"
     showgrid="false"
     showguides="true"
     inkscape:guide-bbox="true"
     inkscape:zoom="0.63429568"
     inkscape:cx="164.52547"
     inkscape:cy="528.87341"
     inkscape:window-x="-8"
     inkscape:window-y="-8"
     inkscape:window-maximized="1"
     inkscape:current-layer="svg4172"
     units="px" />
  <defs
     id="defs4174" />
  <metadata
     id="metadata4177">
    <rdf:RDF>
      <cc:Work
         rdf:about="">
        <dc:format>image/svg+xml</dc:format>
        <dc:type
           rdf:resource="http://purl.org/dc/dcmitype/StillImage" />
        <dc:title></dc:title>
      </cc:Work>
    </rdf:RDF>
  </metadata>
  <g
     id="g5351"
     transform="translate(0,-252.36216)" />
  <g
     id="g5438"
     transform="translate(0,-112.36216)" />
  <g
     id="g5424"
     transform="matrix(-1,0,0,1,754.61766,-252.36216)" />
  <g
     id="g4754"
     transform="translate(-19.999994,-252.36135)">
    <g
       transform="matrix(3.3333338,0,0,3.3333338,753.33343,-2455.5101)"
       id="g5598">
      <path
         style="opacity:1;fill:#000000;fill-opacity:1;fill-rule:nonzero;stroke:none;stroke-width:1.60000002;stroke-linecap:round;stroke-linejoin:round;stroke-miterlimit:4;stroke-dasharray:none;stroke-dashoffset:42;stroke-opacity:1"
         d="m -10,812.36133 -210,0.0625 0.2793,129.37109 c -0.14234,1.85267 -0.23547,3.7088 -0.2793,5.56641 3e-5,57.98987 47.01012,104.99997 105,104.99997 57.98988,0 104.99997,-47.0101 105,-104.99997 z m -53.08789,18.4375 c 4.03214,-0.12584 8.3673,1.22601 13.04883,4.15429 3.20921,2.0295 5.15218,3.75031 9.62695,7.70313 4.47477,3.95283 6.42205,5.66926 8.83203,8.60352 7.96247,9.79295 7.52824,18.80902 -0.0644,27.40429 -4.48055,5.07218 -6.15932,10.00673 -6.79688,12.78516 7.22889,24.59254 0.79113,54.09608 -19.27343,76.81055 -17.63687,21.49826 -58.52741,33.70733 -78.11914,37.12113 -9.43619,-2.5092 -24.71877,-15.25441 -30.68946,-19.96098 -5.40735,-5.3443 -19.93938,-18.93774 -23.59375,-27.99219 0.007,-0.14716 0.0213,-0.32114 0.0293,-0.4707 -0.008,-0.0196 -0.0203,-0.0407 -0.0273,-0.0606 0.0512,-0.83701 0.12963,-1.76517 0.20313,-2.67773 0.0303,-0.41597 0.0608,-0.82199 0.0957,-1.25195 1.71738,-21.15708 9.06819,-58.88437 26.89648,-77.64063 20.06503,-22.71403 48.5491,-32.74259 73.8457,-28.60351 2.67852,-0.97552 7.36906,-3.25009 11.84961,-8.32227 4.27089,-4.83484 8.95254,-7.43977 14.13672,-7.60156 z m 0.88672,12.76953 c -5.11084,-0.003 -7.90475,4.29116 -10.19531,8.21875 5.43027,2.49744 10.54515,5.77842 15.18945,9.88086 4.64416,4.10259 8.53128,8.77486 11.67969,13.85547 6.0883,-4.64455 13.03181,-10.83435 -2.34766,-24.41992 -6.24791,-5.51914 -10.82928,-7.53294 -14.32617,-7.53516 z m -113.0625,135.30859 c 3.08402,3.13404 5.91262,5.85909 7.68554,7.61133 l 0.125,0.11133 c 1.95762,1.54315 5.01132,4.01182 8.50196,6.68555 -4.16936,3.4248 -10.20346,3.31855 -14.28027,-0.26954 -4.06357,-3.60306 -4.91639,-9.57857 -2.03223,-14.13867 z"
         id="rect4741"
         inkscape:connector-curvature="0" />
      <g
         id="g5530"
         transform="matrix(0.74946436,0.6620447,-0.6620447,0.74946436,210.20037,-10.764388)">
        <path
           style="opacity:1;fill:#e8a61c;fill-opacity:1;fill-rule:nonzero;stroke:none;stroke-width:1.60000002;stroke-linecap:round;stroke-linejoin:round;stroke-miterlimit:4;stroke-dasharray:none;stroke-dashoffset:42;stroke-opacity:1"
           d="m 377.17774,1006.1464 0.0176,0 0.0176,10e-5 c 5.39562,-0.01 9.99024,-3.9249 10.84766,-9.25197 l 0,0 c -4.38624,0.3071 -8.31003,0.4777 -10.79883,0.61719 l -0.0488,8.63478"
           id="path5395"
           inkscape:connector-curvature="0" />
        <path
           style="opacity:1;fill:#e8a61c;fill-opacity:1;fill-rule:nonzero;stroke:none;stroke-width:1.60000002;stroke-linecap:round;stroke-linejoin:round;stroke-miterlimit:4;stroke-dasharray:none;stroke-dashoffset:42;stroke-opacity:1"
           d="m 377.17773,996.01367 0,0 c 7.59078,-0.42545 27.48158,-0.99273 36.21485,-5.35937 12.42327,-15.52907 34.98725,-51.75049 33.97265,-79.53907 -3.2e-4,-30.30731 -14.70905,-56.68078 -36.4082,-70.32617 -1.36162,-2.50442 -3.37109,-7.31429 -3.37109,-14.08203 0,-11.46855 -5.64279,-18.51408 -18.09375,-20.58203 -3.7488,-0.60361 -6.34383,-0.59961 -12.31446,-0.59961 l 0,0 0,11.27149 0,0 0,0 c 20.52062,0 19.41386,9.23444 17.92579,16.74609 -5.72321,-1.72334 -11.72906,-2.65029 -17.92579,-2.65039 l 0,0 z"
           id="path5388"
           inkscape:connector-curvature="0" />
        <path
           id="path5465"
           d="m 377.17773,996.01367 0,0 c 7.59078,-0.42545 27.48158,-0.99273 36.21485,-5.35937 12.42327,-15.52907 34.98725,-51.75049 33.97265,-79.53907 -3.2e-4,-30.30731 -14.70905,-56.68078 -36.4082,-70.32617 -1.36162,-2.50442 -3.37109,-7.31429 -3.37109,-14.08203 0,-11.46855 -5.64279,-18.51408 -18.09375,-20.58203 -3.7488,-0.60361 -6.34383,-0.59961 -12.31446,-0.59961 l 0,0 0,11.27149 0,0 0,0 c 20.52062,0 19.41386,9.23444 17.92579,16.74609 -5.72321,-1.72334 -11.72906,-2.65029 -17.92579,-2.65039 l 0,0 z"
           style="opacity:1;fill:#e8a61c;fill-opacity:1;fill-rule:nonzero;stroke:none;stroke-width:1.60000002;stroke-linecap:round;stroke-linejoin:round;stroke-miterlimit:4;stroke-dasharray:none;stroke-dashoffset:42;stroke-opacity:1"
           inkscape:connector-curvature="0" />
        <g
           style="fill:#000000"
           transform="matrix(-1,0,0,1,754.35546,0)"
           id="g5430">
          <path
             style="opacity:1;fill:#000000;fill-opacity:1;fill-rule:nonzero;stroke:none;stroke-width:1.60000002;stroke-linecap:round;stroke-linejoin:round;stroke-miterlimit:4;stroke-dasharray:none;stroke-dashoffset:42;stroke-opacity:1"
             d="m 377.17774,1006.1464 0.0176,0 0.0176,10e-5 c 5.39562,-0.01 9.99024,-3.9249 10.84766,-9.25197 l 0,0 c -4.38624,0.3071 -8.31003,0.4777 -10.79883,0.61719 l -0.0488,8.63478"
             id="path5432"
             inkscape:connector-curvature="0" />
          <path
             style="opacity:1;fill:#000000;fill-opacity:1;fill-rule:nonzero;stroke:none;stroke-width:1.60000002;stroke-linecap:round;stroke-linejoin:round;stroke-miterlimit:4;stroke-dasharray:none;stroke-dashoffset:42;stroke-opacity:1"
             d="m 377.17773,996.01367 0,0 c 7.59078,-0.42545 27.48158,-0.99273 36.21485,-5.35937 12.42327,-15.52907 34.98725,-51.75049 33.97265,-79.53907 -3.2e-4,-30.30731 -14.70905,-56.68078 -36.4082,-70.32617 -1.36162,-2.50442 -3.37109,-7.31429 -3.37109,-14.08203 0,-11.46855 -5.64279,-18.51408 -18.09375,-20.58203 -3.7488,-0.60361 -6.34383,-0.59961 -12.31446,-0.59961 l 0,0 0,11.27149 0,0 0,0 c 20.52062,0 19.41386,9.23444 17.92579,16.74609 -5.72321,-1.72334 -11.72906,-2.65029 -17.92579,-2.65039 l 0,0 z"
             id="path5434"
             inkscape:connector-curvature="0" />
        </g>
        <g
           style="fill:#ff0000"
           transform="matrix(-1,0,0,1,754.61726,-2.1e-4)"
           id="g5355">
          <path
             id="path5357"
             transform="matrix(-1,0,0,1,754.61726,2.1e-4)"
             d="m 460.53906,929.48047 c -0.72119,0.0394 -1.68879,0.32925 -2.9375,0.91015 -20.06162,13.86496 -47.31225,20.25368 -80.42374,20.25368 l 0,1.3379 c 38.72088,-0.0202 62.70281,-10.49202 62.70281,-10.49202 l 0.53343,1.66216 c -0.56663,0.6443 -0.70831,0.99514 -1.29705,1.45523 0.85993,0.70205 1.07419,1.28419 1.72674,2.27329 1.30509,1.9782 2.19727,4.05859 2.19727,4.05859 l -1.37891,0.5918 c 0,0 -0.85915,-1.98839 -2.07031,-3.82422 -0.60558,-0.91791 -1.30311,-1.79107 -1.96094,-2.32812 -0.65783,-0.53709 -1.16427,-0.69767 -1.60547,-0.55079 -0.60057,0.19998 -1.16544,0.81266 -1.63086,1.75782 -0.46542,0.94516 -0.80991,2.17102 -1.04492,3.37304 -0.46998,2.40406 -0.51758,4.68946 -0.51758,4.68946 3.6e-4,0.0336 0.0257,2.52273 -0.42187,5.20117 -0.22529,1.34826 -0.56449,2.74435 -1.12305,3.93164 -0.087,0.18493 -0.19326,0.35553 -0.29297,0.53125 5.66518,-1.55093 8.74414,-2.76367 8.74414,-2.76367 l 0.64844,1.62695 c 0,0 -8.57362,3.37836 -23.69531,6.12305 -0.37544,0.24693 -0.80542,0.40587 -1.29102,0.43359 -0.24576,0.014 -0.47648,-0.0178 -0.69922,-0.0723 -9.99228,1.70634 -22.74344,3.08017 -37.52335,3.08788 l 0,1.7285 c 40.20988,-0.0209 63.80851,-9.79099 63.80851,-9.79099 l 0.004,-0.002 c 2.28972,-1.30528 28.05885,-35.66751 19.54883,-35.20312 z m -27.39648,16.27539 c -2.69455,0.85282 -6.09698,1.8278 -10.17188,2.80273 0.21073,0.19897 0.39865,0.42417 0.56641,0.66993 0.57885,0.84798 0.97576,1.92959 1.28516,3.01562 0.61878,2.17206 0.85156,4.38086 0.85156,4.38086 l 0.002,0.0215 0,0.0215 c 0,0 0.12366,2.43046 0.61133,4.70312 0.24383,1.13634 0.59164,2.23173 0.98828,2.89258 0.19832,0.33043 0.40314,0.53951 0.55469,0.62891 0.15155,0.0894 0.23214,0.10887 0.4375,0.0469 0.63052,-0.19043 1.19908,-0.81264 1.66211,-1.79687 0.46302,-0.98423 0.79012,-2.27134 1.00195,-3.53906 0.42369,-2.53545 0.40039,-4.9629 0.40039,-4.9629 l 0,-0.01 0.002,-0.0117 c 0,0 0.0423,-2.3863 0.54297,-4.94726 0.25036,-1.28049 0.61205,-2.61118 1.17188,-3.74805 0.0286,-0.0581 0.0639,-0.11062 0.0937,-0.16797 z m -11.66211,3.61523 c -0.0726,-0.0137 -0.1473,-0.009 -0.24024,0.01 -0.48008,0.0993 -0.87947,0.52099 -1.21875,1.33398 -0.33928,0.813 -0.55121,1.9346 -0.66015,3.04883 -0.21791,2.22847 -0.0469,4.41016 -0.0469,4.41016 l 0,0.01 0.002,0.0117 c 0,0 0.13532,2.68144 -0.21094,5.42774 -0.15953,1.26523 -0.42406,2.53938 -0.88086,3.62695 2.99703,-0.5735 5.70241,-1.16434 8.10742,-1.74219 -0.12091,-0.15127 -0.24171,-0.30264 -0.34375,-0.47265 -0.55849,-0.93051 -0.9067,-2.13205 -1.16797,-3.34961 -0.51532,-2.40153 -0.63535,-4.83262 -0.63867,-4.90039 l -0.004,-0.043 0.002,0.0351 c -0.001,-0.0128 -0.2305,-2.11925 -0.80078,-4.12109 -0.28601,-1.00396 -0.66608,-1.97554 -1.08008,-2.58203 -0.207,-0.30325 -0.41909,-0.50684 -0.58985,-0.60742 -0.0854,-0.0503 -0.1559,-0.082 -0.22851,-0.0957 z m -2.50391,0.0957 c -2.82124,0.60345 -5.90759,1.18517 -9.22461,1.71875 0.18737,0.20092 0.35338,0.42429 0.50196,0.66406 0.55639,0.89792 0.91447,2.03276 1.18359,3.17187 0.53803,2.27728 0.67762,4.58199 0.67773,4.58399 l 0,0.002 c 1.3e-4,0.002 0.15412,2.33266 0.70899,4.60547 0.27755,1.13688 0.66256,2.25314 1.12305,3.00195 0.19642,0.31942 0.38494,0.54142 0.57421,0.70704 0.62888,-0.10769 1.21103,-0.22006 1.81836,-0.33008 0.14178,-0.19058 0.28074,-0.41012 0.41407,-0.69532 0.41773,-0.89354 0.70087,-2.17281 0.86328,-3.46093 0.32482,-2.57624 0.19922,-5.16602 0.19922,-5.16602 -0.003,-0.0367 -0.18171,-2.27452 0.0508,-4.65234 0.1172,-1.19869 0.33251,-2.43131 0.76953,-3.47852 0.0971,-0.23265 0.21288,-0.45605 0.33984,-0.67187 z m -13.25781,2.31054 c -3.15461,0.43966 -6.46461,0.83337 -9.99023,1.14454 0.26702,0.25574 0.51093,0.54071 0.70312,0.85937 0.55562,0.92124 0.91466,2.06466 1.17969,3.20117 0.52531,2.25267 0.64628,4.46979 0.64844,4.50977 0,0 0.2028,2.28895 0.76367,4.5 0.28043,1.10552 0.65871,2.18917 1.08984,2.90039 0.21557,0.3556 0.44221,0.61062 0.63477,0.74804 0.0867,0.0619 0.15995,0.0963 0.23242,0.1211 0.18825,-0.0197 0.38132,-0.0366 0.56836,-0.0566 0.38945,-0.16183 0.76151,-0.55138 1.11328,-1.2207 0.43865,-0.83467 0.77719,-2.0038 1.00977,-3.17383 0.46512,-2.34007 0.52734,-4.66407 0.52734,-4.66407 l 0.002,0.0547 c 0,0 -0.11492,-2.28396 0.19531,-4.67578 0.15512,-1.19591 0.41076,-2.42377 0.88086,-3.45898 0.12538,-0.27608 0.2738,-0.54053 0.44141,-0.78907 z m 2.44336,0.0996 c -0.0756,-0.0165 -0.1545,-0.0139 -0.25391,0.004 -0.48497,0.0867 -0.90012,0.49982 -1.26562,1.30469 -0.36551,0.80487 -0.61361,1.92138 -0.75781,3.0332 -0.28842,2.22363 -0.18555,4.41016 -0.18555,4.41016 l 0.002,0.0273 -0.002,0.0273 c 0,0 -0.0577,2.41957 -0.55469,4.91993 -0.24849,1.25017 -0.60109,2.52547 -1.1543,3.57812 -0.0516,0.0981 -0.11749,0.18606 -0.17382,0.28125 3.20218,-0.37691 6.18762,-0.80691 9,-1.26367 -0.0465,-0.0683 -0.10327,-0.12894 -0.14649,-0.19922 -0.60437,-0.98279 -1.00486,-2.21151 -1.30273,-3.43164 -0.59576,-2.44026 -0.74805,-4.86719 -0.74805,-4.86719 l 0,-0.002 c 0,0 -0.14154,-2.21959 -0.64062,-4.33203 -0.24954,-1.05622 -0.59912,-2.08157 -1,-2.72852 -0.20044,-0.32347 -0.40946,-0.54372 -0.58204,-0.65429 -0.0863,-0.0553 -0.15872,-0.0909 -0.23437,-0.10743 z m -16.11328,1.33789 c -3.00462,0.21094 -6.13247,0.36258 -9.3711,0.44532 0.16238,0.19796 0.31375,0.40719 0.44336,0.6289 0.56957,0.97427 0.93442,2.18069 1.19922,3.375 0.52876,2.38477 0.62664,4.73419 0.62696,4.74219 0,0 0.12493,2.25445 0.64257,4.46289 0.25882,1.10422 0.62378,2.19205 1.06446,2.92774 0.32972,0.55043 0.64082,0.85713 0.97461,0.97265 0.24498,-0.0109 0.485,-0.0236 0.72851,-0.0352 0.3282,-0.14333 0.62476,-0.46915 0.92578,-1.03321 0.41352,-0.77484 0.72919,-1.90313 0.9375,-3.04297 0.41608,-2.27656 0.4316,-4.57578 0.43164,-4.58203 -0.006,-0.0846 -0.16504,-2.28037 0.0703,-4.58984 0.11995,-1.1771 0.33407,-2.37431 0.77343,-3.3711 0.14292,-0.32423 0.33679,-0.62248 0.55274,-0.90039 z m 1.9082,0.4336 c -0.43715,0.0279 -0.76048,0.32946 -1.08789,1.07226 -0.32741,0.7428 -0.54303,1.82615 -0.6543,2.91797 -0.22247,2.18365 -0.0644,4.38281 -0.0644,4.38281 l 0.002,0.0293 0,0.0293 c 0,0 -0.008,2.3995 -0.45507,4.84765 -0.22371,1.22408 -0.55082,2.46482 -1.0918,3.47852 -0.0406,0.0761 -0.0964,0.14256 -0.14063,0.2168 2.98611,-0.16977 5.82499,-0.39982 8.57227,-0.66211 -0.0683,-0.0981 -0.14393,-0.18692 -0.20703,-0.29102 -0.57,-0.9403 -0.96169,-2.12584 -1.26172,-3.30859 -0.60005,-2.36551 -0.80274,-4.73828 -0.80274,-4.73828 l -0.002,-0.0117 0,-0.0137 c 0,0 -0.12215,-2.16737 -0.61328,-4.27344 -0.24557,-1.05303 -0.59164,-2.08597 -1.00391,-2.76953 -0.41226,-0.68356 -0.76353,-0.93345 -1.18945,-0.90625 z m -15.56836,0.0781 c -0.36182,0.002 -0.84647,0.0124 -1.21092,0.0124 l -2e-5,2.37641 c 0.1687,-0.60928 0.50875,-1.18047 0.7793,-1.70301 0.12442,-0.2403 0.26918,-0.47032 0.43164,-0.68555 z m 2.13672,0.29297 c -0.4676,0.012 -0.84585,0.32786 -1.23633,1.08203 -0.39048,0.75417 -0.68333,1.8563 -0.87109,2.97071 -0.37498,2.22592 -0.35942,4.47446 -0.35938,4.48046 l 0,0.006 c 0,0.004 0.005,0.30712 -0.01,0.79102 l -0.87084,-0.0229 -2e-5,7.6773 c 2.83839,-10e-4 5.71694,-0.0612 8.39039,-0.15635 -0.0658,-0.0951 -0.14189,-0.18229 -0.20117,-0.28125 -0.5798,-0.96793 -0.95797,-2.16787 -1.23633,-3.35547 -0.55673,-2.37521 -0.68164,-4.72266 -0.68164,-4.72266 l 0,-0.006 0,-0.004 c 0,0 -0.10124,-2.26891 -0.59375,-4.49024 -0.24626,-1.11066 -0.59749,-2.20474 -1.0293,-2.94336 -0.43181,-0.73862 -0.82792,-1.03749 -1.30078,-1.02539 z"
             style="color:#000000;font-style:normal;font-variant:normal;font-weight:normal;font-stretch:normal;font-size:medium;line-height:normal;font-family:sans-serif;text-indent:0;text-align:start;text-decoration:none;text-decoration-line:none;text-decoration-style:solid;text-decoration-color:#000000;letter-spacing:normal;word-spacing:normal;text-transform:none;direction:ltr;block-progression:tb;writing-mode:lr-tb;baseline-shift:baseline;text-anchor:start;white-space:normal;clip-rule:nonzero;display:inline;overflow:visible;visibility:visible;opacity:1;isolation:auto;mix-blend-mode:normal;color-interpolation:sRGB;color-interpolation-filters:linearRGB;solid-color:#000000;solid-opacity:1;fill:#000000;fill-opacity:1;fill-rule:evenodd;stroke:none;stroke-width:4;stroke-linecap:butt;stroke-linejoin:miter;stroke-miterlimit:4;stroke-dasharray:none;stroke-dashoffset:0;stroke-opacity:1;color-rendering:auto;image-rendering:auto;shape-rendering:auto;text-rendering:auto;enable-background:accumulate"
             inkscape:connector-curvature="0" />
        </g>
        <g
           style="fill:#e8a61c;fill-opacity:1"
           id="g5414"
           transform="translate(-0.13115292,-140.00021)">
          <path
             id="path5416"
             transform="translate(0.13115292,2.0524844e-4)"
             d="m 293.94727,1069.4785 c -8.51002,-0.4644 17.25911,33.8979 19.54882,35.2031 l 0,0 0.004,0 c 0,0 23.46785,9.774 63.67773,9.7949 l 0,-1.7285 c -38.94235,-0.042 -62.94726,-9.5742 -62.94726,-9.5742 l 0.64844,-1.627 c 0,0 1.30198,0.4897 3.40429,1.1739 0.0375,-0.011 0.0724,-0.021 0.12891,-0.053 0.15281,-0.086 0.37499,-0.295 0.59766,-0.6152 0.44532,-0.6405 0.88726,-1.6872 1.24023,-2.7735 0.70593,-2.1722 1.09766,-4.4941 1.09766,-4.4941 0.007,-0.071 0.25802,-2.4189 0.91406,-4.75 0.33296,-1.1831 0.75683,-2.3551 1.375,-3.2598 0.0704,-0.1029 0.15587,-0.1889 0.23242,-0.2851 -6.28326,-1.8562 -10.04185,-3.5581 -10.04185,-3.5581 l -0.72295,-1.9583 c 0,0 25.43095,10.9647 64.07339,11.0086 l 0,-1.3379 c -33.11149,0 -60.23134,-6.3929 -80.29296,-20.2578 -1.24872,-0.5809 -2.21632,-0.8708 -2.9375,-0.9102 z m 31.59375,17.4844 c -0.0105,0.01 -0.0184,0.01 -0.0293,0.012 -0.18348,0.1031 -0.41248,0.3203 -0.63672,0.6484 -0.44849,0.6564 -0.85993,1.7189 -1.16992,2.8204 -0.61998,2.2029 -0.87305,4.5468 -0.87305,4.5468 l -0.002,0.022 -0.004,0.022 c 0,0 -0.39608,2.3977 -1.14844,4.7129 -0.37618,1.1576 -0.83134,2.2951 -1.43554,3.1641 -0.0872,0.1253 -0.18795,0.2315 -0.28321,0.3457 2.50986,0.7672 5.92629,1.709 10.17383,2.6796 -0.0329,-0.063 -0.0745,-0.1195 -0.10547,-0.1835 -0.54089,-1.1173 -0.85893,-2.4529 -1.0664,-3.754 -0.41498,-2.6021 -0.36328,-5.0878 -0.36328,-5.0878 l 0,-0.012 0,-0.01 c 0,0 0.1142,-2.4025 -0.20704,-4.8887 -0.16061,-1.2431 -0.43515,-2.5009 -0.8496,-3.4434 -0.25381,-0.5771 -0.54744,-0.9897 -0.86914,-1.2734 -0.39484,-0.1081 -0.75378,-0.2137 -1.13086,-0.3203 z m 3.32421,0.8965 c 0.0147,0.032 0.0345,0.061 0.0488,0.094 0.51043,1.1607 0.79159,2.5297 0.96289,3.8555 0.34261,2.6516 0.21875,5.1523 0.21875,5.1523 l 0.002,-0.021 c 0,0 -0.0427,2.3866 0.3457,4.8222 0.1942,1.2178 0.50029,2.4429 0.93359,3.3379 0.34843,0.7197 0.74184,1.1667 1.17969,1.3731 0.18982,0.041 0.39328,0.081 0.58594,0.1211 0.0712,-0.017 0.13838,-0.051 0.21875,-0.1055 0.16479,-0.1112 0.36688,-0.3391 0.55664,-0.6758 0.37952,-0.6735 0.69307,-1.7446 0.90234,-2.8477 0.4184,-2.2051 0.46676,-4.5194 0.4668,-4.5214 0,0 0.0387,-2.4818 0.50391,-4.9336 0.2326,-1.2259 0.55972,-2.4497 1.10937,-3.416 0.0674,-0.1186 0.15292,-0.2193 0.22852,-0.3301 -3.03808,-0.6232 -5.79378,-1.2665 -8.26368,-1.9043 z m 9.97266,2.248 c -0.0134,0.01 -0.0251,0.01 -0.0391,0.018 -0.18011,0.1205 -0.39428,0.3602 -0.59375,0.7109 -0.39895,0.7015 -0.72482,1.8117 -0.94141,2.9532 -0.43316,2.283 -0.47656,4.6797 -0.47656,4.6797 l 0,0 c 0,0 -0.044,2.4011 -0.49414,4.7734 -0.22505,1.1862 -0.54036,2.3677 -1.06836,3.3047 -0.0836,0.1485 -0.18601,0.2799 -0.2832,0.416 2.77259,0.5535 5.81854,1.0876 9.10742,1.584 -0.0567,-0.1059 -0.1232,-0.2053 -0.17383,-0.3144 -0.49479,-1.0669 -0.77327,-2.3385 -0.94727,-3.5782 -0.34165,-2.4337 -0.26087,-4.7124 -0.25781,-4.7968 0,0 -0.0923,-2.4342 -0.61523,-4.916 -0.26148,-1.241 -0.63477,-2.4882 -1.11914,-3.4043 -0.29348,-0.5551 -0.61128,-0.9429 -0.94141,-1.1993 -0.40193,-0.075 -0.76285,-0.1557 -1.15625,-0.2324 z m 3.35156,0.6153 c 0.0221,0.04 0.0508,0.075 0.0723,0.1152 0.59379,1.1231 0.98358,2.4769 1.26172,3.7969 0.55623,2.6399 0.64453,5.1699 0.64453,5.1699 l 0.002,0.027 -0.002,0.027 c 0,0 -0.0785,2.2753 0.24609,4.5879 0.16231,1.1562 0.43109,2.317 0.82032,3.1562 0.33383,0.7198 0.70942,1.1257 1.13085,1.2871 0.16771,0.023 0.34867,0.043 0.51758,0.066 0.0759,-0.02 0.14924,-0.051 0.23438,-0.1054 0.1888,-0.1209 0.412,-0.3567 0.625,-0.6973 0.42599,-0.6812 0.79471,-1.7505 1.06054,-2.8516 0.53097,-2.1992 0.68709,-4.4998 0.6875,-4.5058 0,0 0.13871,-2.5081 0.7168,-4.9922 0.28905,-1.2421 0.67899,-2.482 1.2793,-3.459 0.0442,-0.072 0.0996,-0.1319 0.14648,-0.2012 -3.36055,-0.4198 -6.49235,-0.903 -9.44336,-1.4218 z m 11.28711,1.6308 c -0.0156,0.01 -0.0288,0.011 -0.0449,0.022 -0.2071,0.136 -0.44444,0.3921 -0.66797,0.7559 -0.44706,0.7275 -0.82608,1.8551 -1.0957,3.0136 -0.53924,2.3172 -0.67969,4.7383 -0.67969,4.7383 l 0,0 0,0 c 0,0 -0.15486,2.3976 -0.72656,4.7656 -0.28585,1.184 -0.66639,2.3648 -1.24805,3.2949 -0.0579,0.093 -0.13072,0.17 -0.19336,0.2578 2.82807,0.3603 5.78002,0.6889 8.91602,0.9571 -0.0465,-0.078 -0.1039,-0.1484 -0.14649,-0.2286 -0.54575,-1.0264 -0.87032,-2.2755 -1.08984,-3.5039 -0.43903,-2.4567 -0.42773,-4.8515 -0.42773,-4.8515 l 0,-0.029 0.002,-0.029 c 0,0 0.18462,-2.3433 -0.0449,-4.7149 -0.11478,-1.1857 -0.33886,-2.3734 -0.69922,-3.2226 -0.22994,-0.5419 -0.48471,-0.8918 -0.77149,-1.1074 -0.36327,-0.04 -0.72306,-0.082 -1.08203,-0.1231 z m 3.07813,0.3496 c 0.0493,0.1 0.11073,0.1923 0.15429,0.2949 0.46329,1.0918 0.69145,2.3933 0.81446,3.6641 0.24151,2.4949 0.0558,4.8364 0.0488,4.9238 0,0 -0.004,2.2971 0.40429,4.5821 0.20417,1.1424 0.51834,2.2761 0.9375,3.0644 0.31217,0.5872 0.62832,0.9383 0.98633,1.0918 0.23345,0.018 0.4681,0.034 0.70313,0.051 l 0.002,0 c 0.31078,-0.099 0.59992,-0.3865 0.91992,-0.9258 0.42667,-0.719 0.78233,-1.7973 1.03516,-2.8945 0.50565,-2.1944 0.63086,-4.4473 0.63086,-4.4473 l 0,0 0,0 c 0,0 0.15819,-2.5019 0.76953,-5.0098 0.30567,-1.2539 0.71697,-2.5155 1.33594,-3.5195 0.0387,-0.063 0.0896,-0.1165 0.13085,-0.1777 -3.07757,-0.1736 -6.03721,-0.4063 -8.87304,-0.6895 z m 10.79492,0.791 c -0.2585,0.161 -0.50963,0.4322 -0.77539,0.8633 -0.47354,0.7681 -0.87088,1.9173 -1.15625,3.0879 -0.57074,2.3413 -0.72852,4.75 -0.72852,4.75 -4e-4,0.01 -0.12527,2.3422 -0.66797,4.6973 -0.27179,1.1795 -0.64059,2.3677 -1.20703,3.3222 -0.0645,0.1087 -0.14789,0.2048 -0.2207,0.3086 2.88677,0.1842 5.8745,0.3234 8.98242,0.4004 -0.0417,-0.07 -0.0948,-0.1318 -0.13281,-0.2031 -0.52987,-0.9939 -0.83243,-2.2192 -1.03516,-3.4336 -0.40544,-2.4287 -0.37304,-4.832 -0.37304,-4.832 l 0.002,-0.027 0.002,-0.025 c 0,0 0.19215,-2.3625 -0.043,-4.7148 -0.11755,-1.1762 -0.35118,-2.3449 -0.71679,-3.1543 -0.22072,-0.4886 -0.45284,-0.7977 -0.71875,-0.9883 -0.4044,-0.017 -0.81036,-0.032 -1.21094,-0.051 z m 3.12891,0.125 c 0.0538,0.1006 0.12112,0.1932 0.16796,0.2969 0.48285,1.0689 0.71536,2.358 0.8418,3.6231 0.24855,2.4869 0.0537,4.8519 0.0469,4.9336 0,0 -0.025,2.3129 0.35156,4.5683 0.18826,1.1277 0.48698,2.2358 0.88086,2.9746 0.29346,0.5505 0.56315,0.8467 0.88476,0.9551 0.19848,0 0.40224,0 0.60157,0.01 0.3035,-0.081 0.56175,-0.2897 0.83789,-0.6895 0.34918,-0.5055 0.64948,-1.2814 0.86718,-2.1426 0.43542,-1.7224 0.55975,-3.7742 0.58985,-4.8398 l 0.6289,0.018 0,-9.5879 c -2.28687,0 -4.51714,-0.045 -6.69921,-0.1153 z m 6.69921,15.7032 c -0.19715,0.6057 -0.44966,1.171 -0.77148,1.6718 0.25869,0 0.51143,0.01 0.77148,0.01 l 0,-1.6777 z"
             style="color:#000000;font-style:normal;font-variant:normal;font-weight:normal;font-stretch:normal;font-size:medium;line-height:normal;font-family:sans-serif;text-indent:0;text-align:start;text-decoration:none;text-decoration-line:none;text-decoration-style:solid;text-decoration-color:#000000;letter-spacing:normal;word-spacing:normal;text-transform:none;direction:ltr;block-progression:tb;writing-mode:lr-tb;baseline-shift:baseline;text-anchor:start;white-space:normal;clip-rule:nonzero;display:inline;overflow:visible;visibility:visible;opacity:1;isolation:auto;mix-blend-mode:normal;color-interpolation:sRGB;color-interpolation-filters:linearRGB;solid-color:#000000;solid-opacity:1;fill:#e8a61c;fill-opacity:1;fill-rule:evenodd;stroke:none;stroke-width:4;stroke-linecap:butt;stroke-linejoin:miter;stroke-miterlimit:4;stroke-dasharray:none;stroke-dashoffset:0;stroke-opacity:1;color-rendering:auto;image-rendering:auto;shape-rendering:auto;text-rendering:auto;enable-background:accumulate"
             inkscape:connector-curvature="0" />
        </g>
        <path
           style="opacity:1;fill:none;fill-opacity:1;fill-rule:nonzero;stroke:#e8a61c;stroke-width:1.75;stroke-linecap:round;stroke-linejoin:round;stroke-miterlimit:4;stroke-dasharray:none;stroke-dashoffset:42;stroke-opacity:1"
           d="m 378.13245,995.31418 c 7.40101,-0.42545 26.79454,-0.69304 35.30948,-5.05968 12.11269,-15.52907 34.11257,-51.35069 33.12333,-79.13927 -3.1e-4,-30.30731 -16.34132,-56.68078 -37.49799,-70.32617"
           id="path5495"
           inkscape:connector-curvature="0" />
        <path
           id="path5507"
           d="m 375.92304,995.31418 c -7.40101,-0.42545 -26.79454,-0.69304 -35.30948,-5.05968 -12.11269,-15.52907 -34.11257,-51.35069 -33.12333,-79.13927 3.1e-4,-30.30731 16.34132,-56.68078 37.49799,-70.32617"
           style="opacity:1;fill:none;fill-opacity:1;fill-rule:nonzero;stroke:#000000;stroke-width:1.75;stroke-linecap:round;stroke-linejoin:round;stroke-miterlimit:4;stroke-dasharray:none;stroke-dashoffset:42;stroke-opacity:1"
           inkscape:connector-curvature="0" />
      </g>
      <path
         style="opacity:1;fill:#e8a61c;fill-opacity:1;fill-rule:nonzero;stroke:none;stroke-width:1.60000002;stroke-linecap:round;stroke-linejoin:round;stroke-miterlimit:4;stroke-dasharray:none;stroke-dashoffset:42;stroke-opacity:1"
         d="m -18.94336,818.36241 -195.80664,0.0575 0.26562,122.90235 c -0.13533,1.76036 -0.2239,3.52399 -0.26562,5.28905 1e-5,25.08579 9.26019,48.00876 24.54871,65.53709 l 16.94176,-19.15777 c -4.0394,-3.60565 -4.88164,-9.5641 -2.00414,-14.11368 3.08402,3.13404 5.91262,5.85909 7.68554,7.61133 l 0.0372,0.0331 1.00235,-1.11648 c -5.41933,-5.3547 -19.92761,-18.93119 -23.57856,-27.97717 0.007,-0.14716 0.0213,-0.32114 0.0293,-0.4707 -0.008,-0.0196 -0.0203,-0.0407 -0.0273,-0.0606 0.0512,-0.83701 0.12963,-1.76517 0.20313,-2.67773 0.0303,-0.41597 0.0608,-0.82199 0.0957,-1.25195 1.71738,-21.15708 9.06819,-58.88437 26.89648,-77.64063 20.06503,-22.71403 48.5491,-32.74259 73.8457,-28.60351 2.67852,-0.97552 7.36906,-3.25009 11.84962,-8.32227 4.27089,-4.83484 8.95254,-7.43977 14.13672,-7.60156 l -1e-4,5e-5 c 4.03214,-0.12584 8.3673,1.22601 13.04883,4.15429 3.20921,2.0295 5.15218,3.75031 9.62695,7.70313 z"
         id="path4769"
         inkscape:connector-curvature="0" />
      <path
         style="fill:#e8a61c;fill-opacity:1;fill-rule:evenodd;stroke:none;stroke-width:1px;stroke-linecap:butt;stroke-linejoin:miter;stroke-opacity:1"
         d="m -47.875,851.10352 c -6.24791,-5.51914 -10.82928,-7.53294 -14.32617,-7.53516 -5.11084,-0.003 -7.90475,4.29116 -10.19531,8.21875 5.42946,2.49707 10.54362,5.77744 15.18737,9.87902 z"
         id="path5590"
         inkscape:connector-curvature="0" />
      <path
         style="fill:#e8a61c;fill-opacity:1;fill-rule:evenodd;stroke:none;stroke-width:1px;stroke-linecap:butt;stroke-linejoin:miter;stroke-opacity:1"
         d="m -144.24626,961.51695 c 0,0 -1.7519,1.92808 -4.60679,3.89969 l 3.9693,-4.4934 z"
         id="path5594"
         inkscape:connector-curvature="0" />
      <path
         style="fill:#000000;fill-rule:evenodd;stroke:none;stroke-width:1px;stroke-linecap:butt;stroke-linejoin:miter;stroke-opacity:1"
         d="m -140.10945,955.51849 c 0,0 -1.16438,0.61397 -5.23372,4.9749 l 0.45942,0.42985 4.7743,-5.40475"
         id="path5596"
         inkscape:connector-curvature="0" />
    </g>
  </g>
</svg>
