<?xml version="1.0" encoding="UTF-8"?>
<svg width="406.52" height="492.83" version="1.1" viewBox="-176.12 -213.83 406.52 492.83" xmlns="http://www.w3.org/2000/svg">
 <path d="m27.018-212.31h201.87v296.7c0 106.63-90.328 193.07-201.74 193.07-111.43 0-201.75-86.438-201.75-193.07v-296.7z" clip-path="url(#b)" fill="#1c63b7" stroke="#000" stroke-width="3.048"/>
 <path d="m158.78-163.86c2e-3 3e-3 3e-3 9e-3 6e-3 0.012v-0.012zm6e-3 0.012c0.26833 3.4427 0.10911 6.9054-0.474 10.309-0.669 3.894-1.89 7.673-3.316 11.358-2.045 5.283-4.55 10.432-7.954 14.96-2.247 2.988-4.878 5.694-7.855 7.955-2.158 1.638-4.494 3.042-6.532 4.826-2.2287 1.9528-4.0569 4.32-5.383 6.97-0.0164-4.8783 0.4228-9.7474 1.312-14.544-0.52 0.87-1.158 1.668-1.892 2.367-1.386 1.32-3.086 2.265-4.545 3.503-1.091 0.925-2.04 2.005-2.935 3.122-3.737 4.66-6.617 9.992-8.616 15.622-1.396 3.93-2.37 8.043-2.46 12.213-0.0826 3.95 0.62424 7.8767 2.079 11.55 2.0227 5.0714 5.3957 9.4919 9.753 12.782-3.7106 1.6529-5.8556 5.065-8.9517 7.6946-9.9005 8.4085-5.7231 20.535-4.8119 26.631 0.96814 6.4769 12.408 35.056 13.678 38.003 3.2684 7.5846 7.001 24.186-5.202 29.874 2.8143-20.747-0.94558-25.135-2.0163-27.181-1.4225-2.7182-7.3456-8.6119-8.5345-9.6573-4.849-4.264-7.9792-5.0983-12.659-11.78-1.9955-2.8494-2.7805-6.3757-2.554-9.847 0.12-1.782 0.535-3.529 0.756-5.301 0.29264-2.3496 0.2411-4.7293-0.153-7.064-0.63046 0.87952-4.3556 4.3481-5.0637 5.1663-1.43 1.65-2.8745 2.8791-4.1425 4.6591-1.0235 1.4385-5.4843 16.464-1.2076 23.652 2.9676 5.7339 8.2969 9.4134 7.9434 11.143-4.0593 1.557-5.104 2.1959-6.0776 8.6513 6.7004 1.7055 13.493-0.46693 15.777 0.28356 1.632 2.036 3.248 4.181 3.948 6.695 0.587 2.113 0.481 4.391-0.135 6.496-0.55963 1.8844-1.4917 3.6373-2.741 5.155-0.96 1.17-2.13 2.22-3.55 2.741-0.66702 0.23845-1.3663 0.37465-2.074 0.404-2.489 0.126-4.899-0.803-7.234-1.675-2.86-1.069-5.778-2.092-8.3-3.813-0.94035-0.6434-1.8155-1.3772-2.613-2.191-0.08487-1.766-0.08487-3.535 0-5.301 0.07-1.452 0.197-2.912 0-4.352-0.226-1.659-0.874-3.23-1.61-4.733-1.735-3.54-3.985-6.806-5.77-10.321-2.308-4.545-3.81-9.474-4.739-14.486-0.537-2.902-0.887-5.861-0.662-8.804 0.36381-4.6085 2.1139-8.9989 5.02-12.594 1.588 0.80916 3.333 1.263 5.114 1.33 1.8541 0.06459 3.6986-0.29202 5.395-1.043-1.1787-3.0245-1.8497-6.2228-1.986-9.466-0.064-1.52-0.018-3.052 0.275-4.545 0.45471-2.3055 1.4618-4.4662 2.935-6.297 1.2242 1.2613 2.7601 2.1766 4.452 2.653 2.428 0.68 5.11 0.381 7.333-0.808-0.89638-2.5035-1.3291-5.1494-1.277-7.808 0.10672-4.7029 1.7163-9.2481 4.593-12.97 1.1897 0.30434 2.4282 0.36826 3.643 0.188 1.5732-0.23539 3.0596-0.87066 4.317-1.845-2.6602-4.0893-4.6424-8.5815-5.87-13.303 1.061 0.211 2.163 0.195 3.217-0.046 1.1646-0.26919 2.251-0.80452 3.174-1.564-1.3335-1.5972-2.3619-3.4259-3.034-5.395-0.57372-1.6932-0.87612-3.4664-0.896-5.254 1.005-0.07 2.004-0.23 2.981-0.475 1.305-0.327 2.59-0.822 3.644-1.657 0.293-0.233 0.574-0.5 0.709-0.85 0.14-0.367 0.1-0.784-0.036-1.153-0.134-0.37-0.36-0.703-0.585-1.026-1.277-1.835-2.71-3.556-4.165-5.254-2.78-2.723-4.16-6.032-4.797-9.161 1.773-0.382 6.2-2.575 7.21-3.573 1.87-1.85 3.566-3.881 4.973-6.104 1.15-1.814 2.101-3.745 3.029-5.681 0.518-1.083 1.032-2.171 1.517-3.269 0.146-0.33 0.291-0.658 0.38-1.007 0.09-0.35 0.119-0.72 0.042-1.072-0.0695-0.29458-0.1951-0.57299-0.37-0.82-0.17-0.249-0.373-0.473-0.573-0.697-0.82-0.916-1.644-1.83-2.56-2.648-1.583-1.412-3.433-2.51-5.395-3.315-2.486-1.02-5.135-1.733-7.808-1.892s-7.047-0.27-7.047-0.27 1.086-2.525 2.004-5.067c0.917-2.541 1.124-4.619 1.13-7.017-2.499 1.594-4.673 2.005-7.632 2.18-1.417 0.083-2.854-7e-3 -4.218-0.4-1.409-0.406-2.708-1.126-4.053-1.71-2.022-0.877-4.163-1.455-6.326-1.874-4.48-0.867-9.057-1.055-13.62-1.101-4.645-0.048-9.32 0.05-13.893 0.867-3.58 0.638-7.066 1.713-10.473 2.981-2.86 1.065-5.68 2.271-8.64 3.011-2.25 0.562-4.555 0.85-6.86 1.107-2.763 0.307-5.534 0.57-8.264 1.101-1.63 0.317-3.283 0.745-4.657 1.675-0.734 0.498-1.386 1.142-1.775 1.94-0.422 0.865-0.513 1.85-0.568 2.811-0.06 1.039-0.08 2.092 0.105 3.116 0.11 0.602 0.292 1.197 0.633 1.705 0.356 0.528 0.881 0.943 1.476 1.171 0.018 2.567-0.018 5.132-0.105 7.697-0.043 1.255-0.092 2.529 0.205 3.749 0.373 1.533 2.257 5.975 5.63 6.215 1.4 2.73 2.002 4.515 5.212 7.31-3.292-0.35-6.595-0.572-9.905-0.668-3.69-0.108-7.406-0.062-11.047-0.674-1.754-0.294-3.498-0.742-5.09-1.534-2.19-1.09-4.048-2.822-5.354-4.891-1.65-2.617-2.4-5.702-2.811-8.77-0.37652-2.816-0.48834-5.6611-0.334-8.498-3.5026 1.6019-6.5596 4.0372-8.904 7.093-1.865 2.438-3.265 5.314-3.55 8.37-0.36 3.871 0.71 7.893 2.707 11.23 1.6274 2.688 3.9242 4.9079 6.666 6.443 2.606 1.442 5.656 1.847 8.634 1.939 2.836 0.087 5.678-0.086 8.505-0.334 3.212-0.282 6.42-0.657 9.641-0.803 2.03-0.091 7.437 0.143 9.466 0.234-1.614 1.77-1.935 2.943-2.864 5.056-1.699-0.06-3.628-0.454-4.557-0.123-0.98 0.348-1.448 0.689-1.963 1.593-0.46 0.81-0.652 1.751-0.662 2.683-9e-3 0.931 0.152 1.854 0.375 2.759 0.411 1.663 1.03 3.3 2.039 4.686 0.965 1.325 2.27 2.393 3.737 3.128 1.994 0.998 4.26 1.383 6.49 1.37 1.95-0.012 3.883-0.318 5.822-0.521 1.4623-0.15229 2.9302-0.24603 4.4-0.281-0.44651 1.3601-1.2765 2.5623-2.39 3.462-1.1182 0.89504-2.471 1.4482-3.896 1.593-1.049 0.105-2.107-0.015-3.145-0.2-2.64-0.47-5.194-1.362-7.633-2.477-3.047-1.392-5.956-3.145-9.173-4.083-11.195-3.437-29.01-2.833-38.426 2.209-2.905 1.655-5.502 3.86-7.562 6.496-1.66 2.124-2.96 4.507-4.082 6.958-0.83046 1.8145-1.5677 3.6703-2.209 5.56-4.1529 0.78326-8.3888 1.0329-12.605 0.743-4.35-0.3-8.66-1.181-12.78-2.607-0.23362-1.3683-0.58253-2.7145-1.043-4.024-0.6-1.706-1.41-3.373-2.654-4.686-1.702-1.795-4.103-2.789-6.531-3.262-1.4966-0.29243-3.0228-0.40456-4.546-0.334-3.6382 1.1308-7.5479 1.0299-11.123-0.287-1.458-0.541-2.832-1.276-4.259-1.892-2.22-0.959-4.589-1.63-7.005-1.705-1.674-0.05-3.362 0.188-4.933 0.768-1.57 0.58-3.022 1.506-4.158 2.735-3.266 4.653-2.422 7.698-1.164 11.306-3.564 1.758-5.74 4.188-6.691 7.819-0.539 2.104-0.85 4.34-0.287 6.437 0.53473 1.9599 1.7841 3.6485 3.502 4.733h6e-3c-1.4 3.26-1.414 7.09-0.04 10.362 0.66163 1.571 1.6151 3.0023 2.81 4.218 1.266 1.287 2.782 2.318 4.418 3.08 2.789 1.301 5.897 1.82 8.973 1.875 2.66 0.047 5.327-0.246 7.896-0.937 2.943-0.792 5.722-2.097 8.435-3.485 2.391-1.224 4.825-2.544 7.498-2.812 2.107-0.211 4.22 0.254 6.297 0.674 3.5972 0.71841 7.2124 1.3433 10.842 1.874 5.5151 0.81092 11.05 1.4788 16.6 2.003 4.634 0.445 12.669 1.4201 17.317 1.6891-0.22873 2.5998-4.291 5.5957-7.0731 7.6912-3.8982 2.9362-10.331 5.9444-13.094 6.5504-4.972 1.093-10.057 1.707-15.148 1.705-4.38-2e-3 -8.757-0.457-13.068-1.23-2.345-0.42-4.673-0.938-7.005-1.424-2.856-0.594-5.724-1.144-8.617-1.511-4.337-0.55-8.76-0.681-13.062 0.094-2.4577 0.53248-12.771 1.1439-18.625 3.5216-3.6779 1.494-6.639 1.2775-9.9302 6.5743 11.932 2.8281 16.632 2.8116 17.651 4.4652 1.0194 1.6536 3.4967 2.9643 9.2212 3.2302-4.1709-0.10311-5.7006 1.2483-8.2994 3.2609-1.2137 0.93998-8.3594 1.8164-12.109 3.7688-3.4609 1.8021-6.6299 2.5462-9.2588 7.1625 7.5535 1.0525 18.519-0.53523 20.051 0.98054 1.5321 1.5158 4.404 2.6447 10.09 2.3626-2.342 0.4648-4.58 1.9586-6.0296 3.8724-0.72479 0.95691-6.6892 1.5279-11.935 4.0187s-9.7717 6.9016-9.3659 7.974c6.4842-0.26654 22.631-1.7593 24.831-1.0636 2.2003 0.6957 4.7827 0.81605 7.1221 1.0847-2.5504 3.3462-8.2495 15.029-8.9502 27.247 8.4766-5.7446 11.509-11.686 20.317-17.717 3.7993-2.5428 8.0182-6.7243 12.231-12.982 2.0569-3.0554 6.0766-8.7263 9.3306-10.45 7.3718-3.8716 10.876-4.6994 19.725-6.6253 15.24-3.3171 20.89-3.5248 34.948-4.388 2.616-0.184 5.228-0.439 7.831-0.762 0.91066 3.4409 2.4046 6.7001 4.417 9.636 2.044 2.98 4.608 5.597 7.498 7.767 2.793 2.097 5.89 3.786 8.57 6.027 3.118 2.6134 5.5911 5.9109 7.227 9.636-1.9179 1.9463-4.025 3.6966-6.29 5.225-2.512 1.694-5.242 3.117-8.172 3.884-2.664 0.697-5.436 0.833-8.165 1.2-5.175 0.696-10.253 2.228-14.861 4.686-5.066 2.703-9.509 6.499-13.256 10.848-1.5718 1.8247-3.0254 3.748-4.352 5.758-4.1025 0.59408-7.9044 2.4943-10.842 5.419-3.025 3.028-4.962 7.01-6.163 11.118-0.45432 1.5595-0.81035 3.1459-1.066 4.75 1.8658-1.9292 4.1567-3.3956 6.69-4.282 2.0853-0.72567 4.2906-1.0438 6.496-0.937-2.495 2.7252-4.5915 5.7899-6.227 9.103-1.663 3.373-2.845 7.024-3.081 10.778-0.259 4.114 0.615 8.202 1.406 12.248 0.374 1.915 0.732 3.835 1.072 5.758 1.192-3.9315 2.6459-7.7788 4.352-11.516 1.945-4.262 4.274-8.447 7.697-11.645 1.939-1.8103 4.1838-3.2621 6.63-4.288 0.14114 4.63-0.08188 9.264-0.667 13.859-0.54 4.237-1.42 8.515-3.486 12.254-1.77 3.205-4.36 5.901-7.292 8.095-4.3209 3.2278-9.3451 5.3857-14.661 6.297-0.145-3.501-0.19-7.01-0.135-10.514 0.032-1.986 0.093-3.971 0.065-5.957-0.015-1.058-0.058-2.125-0.334-3.146-0.504-1.864-1.938-3.28-3.011-4.885-3.693-5.522-6.772-5.572-11.071-7.966-0.642 5.836-1.315 7.69-1.183 10.04l-5.354 4.82c-1.3479-2.4042-3.3724-4.3595-5.822-5.623-1.929-0.98697-4.0603-1.5141-6.227-1.54-3.237-1.8466-6.9175-2.7724-10.643-2.677-3.738 0.102-7.42 1.25-10.643 3.145-2.7512 1.6182-5.1623 3.7547-7.1 6.291 5.92 0.57724 11.66 2.3551 16.87 5.225-0.91178 1.557-1.4808 3.2906-1.669 5.085-0.44 4.185 1.372 8.543 4.65 11.182-0.60229 0.24941-1.1757 0.56359-1.71 0.937-0.57699 0.40507-1.104 0.87702-1.57 1.406-1.4444 0.045-2.8807 0.23531-4.287 0.568-2.793 0.662-5.464 1.903-7.662 3.749-2.46 2.065-4.258 4.824-5.623 7.732-1.0852 2.3124-1.9157 4.736-2.477 7.228 1.6422-1.5972 3.5718-2.8692 5.687-3.749 3.8061-1.5647 8.0286-1.8 11.985-0.668 1.7896 2.2212 4.1163 3.949 6.76 5.02 2.497 1.008 5.21 1.4 7.902 1.476 2.508 0.07 5.022-0.128 7.497-0.539 1.315-0.218 2.62-0.498 3.948-0.603 0.444-0.035 0.894-0.047 1.33 0.041 0.436 0.09 0.86 0.294 1.148 0.633 0.22 0.26 0.354 0.584 0.41 0.92 0.056 0.335 0.04 0.681-6e-3 1.019-0.138 1.016-0.552 1.972-0.873 2.946-0.418 1.273-0.683 2.654-0.333 3.948 0.202 0.751 0.605 1.443 1.113 2.032 0.507 0.59 1.117 1.083 1.763 1.518 1.85 1.243 3.982 1.987 6.027 2.876 0.952 0.413 1.89 0.862 2.812 1.341 0.0044 1.1653-0.20017 2.3219-0.604 3.415-0.8912 2.3788-2.6662 4.3219-4.955 5.424 2.6023 0.78205 5.3268 1.076 8.036 0.867 2.587-0.2 5.197-0.888 7.299-2.407 2.387-1.726 3.984-4.503 4.282-7.434 1.3882-0.97739 2.6288-2.149 3.684-3.479 0.91-1.1507 1.6735-2.41 2.273-3.749 2.9943 0.0678 5.9455-0.72262 8.505-2.278 3.266-1.994 5.746-5.233 6.824-8.904 3.1527 0.15998 6.2979-0.43663 9.173-1.74 3.097-1.408 5.828-3.647 7.697-6.49 0.67657-1.0288 1.2383-2.1287 1.675-3.28 3.6066 0.0769 7.1132-1.1882 9.84-3.55 3.353-2.927 5.217-7.475 4.886-11.914 1.6205-0.31133 3.2116-0.75994 4.756-1.341 1.69-0.636 3.353-1.457 4.616-2.747 0.969-0.99 1.666-2.22 2.144-3.52s0.746-2.67 0.937-4.042c0.658-4.715 0.42-9.502 0.2-14.257-0.107-2.3-0.2-4.673 0.603-6.83 0.906-2.438 2.851-4.321 4.756-6.092 1.826-1.698 3.67-3.375 5.418-5.155 1.1634-1.1847 2.2809-2.4136 3.35-3.684 1.9147 1.6099 4.2277 2.6742 6.696 3.081 2.03 0.336 4.105 0.225 6.156 0.404 2.862 0.251 5.703 1.094 8.101 2.677 1.671 1.103 3.132 2.588 3.948 4.417 1.021 2.29 0.955 4.951 0.27 7.363-0.76955 2.6867-2.2512 5.1154-4.288 7.029 1.567 0.29 3.19 0.29 4.756 0 2.362-0.436 4.589-1.528 6.426-3.075 1.8588-1.5712 3.3063-3.572 4.217-5.829 1.9325 1.3887 3.6668 3.0341 5.155 4.891 1.8182 2.2674 3.2436 4.8234 4.217 7.562 1.048 2.955 1.549 6.073 2.01 9.173 0.304 2.051 0.591 4.102 0.866 6.157 0.508-0.8 1.048-1.582 1.611-2.343 1.146-1.551 2.402-3.017 3.48-4.616 2.276-3.3856 3.697-7.2727 4.141-11.328 2.91 0.575 5.73 1.6 8.33 3.028 3.889 2.138 7.263 5.17 9.94 8.71 2.113 2.796 3.807 5.926 4.826 9.279 0.918 3.016 1.28 6.168 1.799 9.278 0.087 0.52 0.18 1.038 0.205 1.564 0.024 0.526-0.024 1.063-0.205 1.558-0.243 0.665-0.714 1.222-1.23 1.705-1.4319 1.3315-3.2412 2.1867-5.179 2.448-0.24-2.027-0.599-4.042-1.072-6.027-0.392-1.648-0.881-3.314-1.874-4.686-1.135-1.569-2.86-2.638-4.686-3.28-2.395-0.842-4.967-1.002-7.498-1.207-2.745-0.222-5.486-0.506-8.235-0.668-2.674-0.157-5.409-0.19-7.967 0.604-2.93 0.908-5.468 2.875-7.363 5.289-1.2215 1.5579-2.1919 3.2972-2.876 5.155 3.3014-0.70793 6.7053-0.79947 10.04-0.27 1.2688 0.74803 2.2738 1.8718 2.876 3.216 0.5943 1.3449 0.75609 2.8412 0.463 4.282-2.1648 0.85864-4.1408 2.1322-5.817 3.749-2.4338 2.3532-4.1532 5.3462-4.96 8.634-1.811 0.88926-3.3043 2.3145-4.277 4.082-0.812 1.481-1.225 3.15-1.47 4.821-0.3069 2.1512-0.37732 4.3295-0.21 6.496 0.137 1.872 0.431 3.729 0.872 5.553 1.114-2.603 2.711-5 4.686-7.029 1.643-1.69 3.611-3.157 5.893-3.749 0.93835-0.24139 1.9094-0.3302 2.876-0.263 2.2657 0.72331 4.689 0.79607 6.994 0.21 0.893 0.801 1.637 1.77 2.179 2.841 0.69375 1.3786 1.0489 2.9027 1.036 4.446-1.3573 2.2936-2.0755 4.9089-2.08 7.574-1e-3 3.847 1.562 7.672 4.26 10.415 2.0128-4.7768 4.9716-9.0968 8.698-12.7 3.2 0.103 6.421-0.5 9.372-1.745 3.5295-1.4936 6.6171-3.8672 8.968-6.894-0.153 1.702-0.502 3.02-1.093 5.797 3.782-0.011 12.085-4.426 13.956-9.54 0.59289 1.0595 1.5378 1.8781 2.671 2.314 1.1357 0.42782 2.3853 0.44445 3.532 0.047 0.972-0.341 1.833-0.974 2.502-1.758 0.668-0.784 1.15-1.717 1.476-2.694 0.61-1.828 0.678-3.784 1.042-5.676 0.39341-2.0352 1.1306-3.9884 2.18-5.776 2.4663-0.0132 4.8092-1.0811 6.437-2.934 1.733-2 2.448-4.742 2.366-7.387-0.055-1.805-0.456-3.588-0.474-5.394-0.0175-1.617 0.27054-3.2229 0.849-4.733 1.6186-3.3536 2.2756-7.0904 1.898-10.795-0.36951-3.4851-1.6436-6.8131-3.696-9.654-0.0989-2.3048-0.67975-4.5634-1.705-6.63-0.67327-1.357-1.5307-2.6146-2.548-3.737 0.198-2.904 0.06-5.826-0.404-8.699-0.646-3.994-1.955-7.936-4.282-11.247-2.308-3.284-5.58-5.858-9.243-7.498-3.26-1.458-6.793-2.186-10.309-2.811-3.02-0.537-6.067-1.012-8.968-2.01-3.033-1.042-5.857-2.641-8.435-4.55-2.8478-2.1185-5.4127-4.593-7.632-7.363-1.81-2.25-3.435-4.78-3.884-7.633-0.2724-1.7591-0.08641-3.5588 0.54-5.225 7.9958 0.3459 16.003-0.32922 23.828-2.009 5.563-1.195 11.078-2.92 15.933-5.887 5.042-3.081 9.325-7.554 11.651-12.986 2.414-5.637 2.625-12.029 1.605-18.076-0.854-5.063-2.533-9.949-4.416-14.726-2.363-5.991-5.056-11.847-7.498-17.807-2.5549-6.2346-4.9129-11.869-7.2414-18.191-3.3011-8.9632-1.8661-11.648 1.6164-16.893 1.357-1.5504 2.884-2.9435 4.552-4.153 1.788-1.2902 3.7204-2.3675 5.758-3.21 3.275-1.36 6.762-2.114 10.175-3.08 6.867-1.946 13.49-4.79 19.547-8.57 6.074-3.792 11.629-8.589 15.534-14.591 2.776-4.268 4.672-9.082 5.752-14.058 1.333-6.144 1.425-12.541 0.404-18.744-0.51497-3.1238-1.3068-6.1955-2.366-9.179-1.8229 7.2741-4.7949 14.211-8.804 20.548-2.3762 3.7518-5.1024 7.2702-8.142 10.508 2.7913-3.8808 5.2915-7.963 7.48-12.213 3.133-6.087 5.651-12.663 5.869-19.506 0.155-4.875-0.881-9.774-2.935-14.199-1.9594-4.2142-4.7996-7.9594-8.329-10.983 0.8009 4.9026 0.67199 9.9121-0.38 14.767-0.68933 3.1396-1.7372 6.1896-3.123 9.09-2.6324 5.5289-6.3704 10.459-10.983 14.487 1.6882-2.173 3.238-4.4502 4.64-6.818 2.724-4.602 4.875-9.526 6.624-14.58 1.595-4.607 2.871-9.42 2.654-14.291-0.245-5.486-2.362-10.715-4.827-15.622-0.752-1.498-1.54-2.98-2.36-4.44zm-131.79 51.224c0.751 1.6164 1.3567 3.2963 1.81 5.02 0.432 1.645 0.72 3.326 0.867 5.02-3.7518-1.8892-7.7331-3.2832-11.844-4.147 0.5916-0.91881 1.064-1.9091 1.406-2.947 0.25012-0.76273 0.42856-1.5471 0.533-2.343 1.0743 1.8458 2.7518 3.2652 4.75 4.019 0.74572-0.41092 1.37-1.0111 1.81-1.74 0.51694-0.86783 0.75044-1.8752 0.668-2.882zm-11.744 14.433 3.105 0.392c-0.63173 1.0402-1.0112 2.2138-1.108 3.427-0.41596-1.3887-1.0938-2.685-1.997-3.819zm7.28 0.68c2.3666-1.29e-4 4.7058 0.50692 6.86 1.487-0.08972 1.1709-0.62431 2.2629-1.494 3.052-1.388-1.9313-3.2307-3.4906-5.365-4.54z"/>
 <path d="m59.93 107.35a10.376 10.376 0 0 1 1.532-3.668 10.382 10.382 0 0 1 3.124-3.03m14.757 16.208a25.498 25.498 0 0 0-4.912-9.86" fill="none" stroke="#000" stroke-width="2.999"/>
 <path d="m64.87-27.341c1.138 0.898 2.504 1.418 3.598 1.94 1.306 0.463 2.685 0.72 4.07 0.758-0.72946-3.324-0.98433-6.7345-0.757-10.13 0.176-2.622 0.66-5.279 1.94-7.574 1.207-2.16 1.885-2.527 2.866-3.236-0.748-3.729 0.583-6.676 0.583-6.676 0.628 2.992 2.691 6.76 4.031 7.972 1.222 1.105 3.071 1.37 4.686 1.041-0.39457-1.85-0.53786-3.7447-0.426-5.633 0.165-2.768 0.878-5.479 1.8-8.094 0.99-2.815 1.692-3.995 3.46-5.988-0.85-0.503-7.46-3.356-5.471-8.732-0.223 1.813 4.749 7.905 8.746 7.33 1.096-0.157 2.203-0.195 2.788-0.516-1.6033-2.3967-2.919-4.9738-3.92-7.678-0.981-2.66-0.977-3.784-1.077-4.925-4.66-2.759-4.23-4.896-4.381-6.677 1.082 1.552 4.744 3.872 5.819 3.944 1.234 0.0817 2.472-0.07934 3.644-0.474-0.93818-1.6738-1.715-3.4331-2.32-5.254-1.526-4.127-2.096-7.337-3.013-11.33 0.86 1.316 2.552 4.504 5.523 4.608 1.299 0.045 2.598-0.413 3.645-1.184-1.8713-1.8211-3.5234-3.8546-4.923-6.059-1.813-2.535-2.864-6.115-3.361-7.876-12.233 1.709-18.624-2.44-15.574-7.157 1.393 7.405 19.134 3.395 20.875 2.253 2.826-1.855 5.207-4.348 7.1-7.148 1.7212-2.5468 3.0462-5.3399 3.93-8.284-0.83872-1.3058-1.8774-2.4716-3.078-3.455-1.576-1.291-3.414-2.248-5.349-2.888-2.184-0.722-4.48-1.045-6.769-1.278-3.349-0.341-3.951-0.265-7.318-0.239-8.029 6.13-14.152 5.905-15.464 5.764 12.751-4.387 14.213-8.826 14.83-10.306 0.76176-1.8283 1.377-3.7142 1.84-5.64-3.5118 0.79674-7.1646 0.7281-10.644-0.2-1.773-0.475-3.479-1.166-5.222-1.741-3.889-1.283-7.96-1.981-12.05-2.21-3.322-0.185-6.657-0.063-9.974 0.201-2.856 0.228-5.71 0.562-8.502 1.205-3.365 0.776-6.61 1.992-9.84 3.214-2.028 0.767-4.06 1.539-6.16 2.075-2.323 0.593-4.71 0.892-7.095 1.138-2.165 0.223-4.334 0.403-6.494 0.67-1.66 0.204-3.329 0.463-4.887 1.07-0.463 0.181-0.917 0.394-1.32 0.686-0.4 0.293-0.75 0.67-0.956 1.122-0.26 0.569-0.28 1.217-0.234 1.84 0.027 0.37 0.077 0.742 0.198 1.092s0.319 0.681 0.605 0.917c0.225 0.186 0.498 0.308 0.779 0.386 0.28 0.078 0.571 0.117 0.861 0.15 1.435 0.164 2.884 0.215 4.327 0.155-1.5264 0.63556-3.0822 1.1982-4.662 1.686 0.136 1.96 0.202 3.925 0.201 5.89 0 1.746-0.054 3.506 0.268 5.222 0.173 0.923 0.46 1.835 0.95 2.635 0.49 0.801 1.197 1.487 2.063 1.85 0.837 0.35 1.77 0.385 2.677 0.402 4.761 0.09 9.528-0.134 14.26-0.67h-1e-3c1.5516 1.966 2.752 4.1853 3.548 6.56 1.155 3.452 1.424 7.14 1.406 10.779-6e-3 1.396-0.056 2.8-0.336 4.168-0.28 1.369-0.8 2.708-1.672 3.798-0.641 0.801-1.488 1.468-2.477 1.74-0.78 0.215-1.603 0.178-2.41 0.135-2.88-0.152-5.756-0.34-8.636-0.469-3.0328-0.13473-6.0682-0.20142-9.104-0.2-0.48767 1.2092-0.62693 2.5307-0.402 3.815 0.338 1.907 1.499 3.634 3.08 4.753 1.134 0.803 2.463 1.301 3.822 1.591 1.36 0.29 2.754 0.379 4.143 0.417 2.187 0.061 4.374 0 6.561 0 1.957 0 3.913 0.05 5.868 0.145 16.863 0.383 18.49-5.72 18.456-12.658 4.981 2.03 1.7 16.635-18.772 14.926-2.47 8.97-8.0108 7.1432-10.997 7.27-3.3847 0.14375-6.86-0.353-10.035-1.61-2.85-1.129-5.47-2.781-8.331-3.882-12.95-5.028-29.554-3.119-37.301 0.853-2.473 1.251-4.474 3.267-6.249 5.396-1.797 2.157-3.417 4.477-4.639 7.006-0.818 1.693-1.586 2.546-2.026 4.374 2.267 0.52 3.98 0.436 6.911-0.095 2.931-0.53 5.636-1.715 8.201-3.718 0.885-0.632 1.853-1.178 2.914-1.413 0.589-0.13 1.2-0.163 1.799-0.095-3.3667 1.9889-6.2457 4.7059-8.426 7.952-1.796 2.68-3.094 5.714-3.598 8.9-0.49832 3.1777-0.20569 6.4293 0.852 9.467 3.087 0.426 6.323-0.33 8.9-2.083 0.913-0.621 1.742-1.359 2.65-1.988 1-0.693 2.09-1.25 3.22-1.704 1.54-0.619 3.158-1.048 4.638-1.799 1.4156-0.71991 2.6714-1.7182 3.692-2.935-1.7446 3.6509-2.9257 7.5451-3.503 11.55-0.56 3.895-0.538 7.892 0.284 11.74 0.58869 2.7485 1.5776 5.3957 2.935 7.857 2.0679-5.1539 5.3483-9.733 9.563-13.349 2.882-2.467 6.238-4.477 9.94-5.302 0.625-0.139 1.258-0.244 1.873-0.418 0.616-0.173 1.22-0.42 1.725-0.812 0.73975-0.58078 1.2171-1.4328 1.326-2.367 0.356 7.124 4.222 13.99 10.13 17.988 2.816 1.9021 6.0153 3.1625 9.372 3.692-0.75471-2.1019-1.201-4.3021-1.325-6.532-0.077-1.388-0.027-2.794 0.311-4.142s0.977-2.64 1.961-3.622c1.339-1.334 3.23-2.004 5.112-2.177 1.497-0.137 2.61-0.327 4-0.9 1.38-0.568 2.184-1.448 3.196-2.982-0.32254 0.83145-0.73499 1.6252-1.23 2.367-1.03 1.543-2.43 2.884-3.03 4.64-0.435 1.27-0.407 2.669-0.095 3.975 0.37632 1.5547 1.1271 2.9939 2.187 4.192 1.0618 1.1952 2.3875 2.1265 3.872 2.72 1.85 0.74 3.912 0.94 5.87 0.567-0.47943-1.6588-0.64027-3.3934-0.474-5.112 0.27-2.773 1.45-5.5 3.503-7.384 1.78-1.633 3.55-2.55 5.623-3.787 2.067-1.234 4.306-2.902 6.022-4.639-0.701 0.992-0.998 2.108-1.297 3.086-0.558 2.932 0.133 3.792 1.297 5.718 1.1316 1.5031 2.4344 2.8693 3.882 4.071" fill="#fcdb00"/>
 <path d="m160.58-152.02c-0.27114 3.1457-0.87382 6.2539-1.798 9.273-0.88 2.872-2.048 5.657-3.41 8.335-1.847 3.634-4.052 7.078-6.53 10.315-2.218 2.895-4.666 5.636-7.48 7.954-1.477 1.216-3.05 2.312-4.546 3.503-2.84 2.26-5.413 4.879-7.48 7.861-2.54 3.6686-4.2822 7.8292-5.114 12.213-0.34163-1.6314-0.62514-3.2744-0.85-4.926-0.65586-4.7995-0.8147-9.6539-0.474-14.486-2.9936 3.7977-5.5936 7.8897-7.76 12.213-1.94 3.87-3.547 7.99-3.884 12.307-0.286 3.646 0.35 7.329 1.517 10.795 2.326 6.915 6.814 13.084 12.682 17.42-2.9264 0.94232-5.6533 2.4178-8.043 4.352-2.842 2.303-7.2998 6.22-8.5843 11.085-0.35569 1.347-1.3452 11.373 5.0237 29.514 3.4877 9.934 9.941 24.715 12.204 34.582 2.2625 9.8672 0.66935 15.099-2.2442 18.267-3.2182 3.4991-7.6196 6.0841-13.855 6.8773 1.9929-9.8012 2.5968-14.964 1.5267-21.688-0.80235-5.0416-2.9094-9.7736-5.1519-11.893-1.6409-1.551-2.7595-3.8567-7.8465-6.7915-3.1745-1.9864-5.0896-2.2311-7.2251-5.3073-5.2177-6.0767-6.2317-12.985-5.7527-19.235-1.315 2.8114-2.9167 5.1486-3.5511 8.1869-0.81 3.875-0.41285 8.5891 0.80415 12.356 1.042 3.225 3.081 6.046 5.395 8.523 1.813 1.94 3.808 3.7 5.682 5.582 1.487 1.494-6.2026 1.5732-7.7209 5.3036 7.1597 0 11.087-1.698 12.142 0.12703 1.505 2.604 6.0757 9.9454 6.3737 12.939 0.33 3.317-0.527 6.717-2.273 9.559-0.835 1.36-1.875 2.606-3.122 3.602-1.246 0.996-2.705 1.738-4.264 2.08-1.651 0.362-3.375 0.27-5.037-0.036-1.663-0.305-3.28-0.816-4.903-1.288-3.638-1.06-7.395-1.962-10.602-3.977-1.6192-1.0195-3.0583-2.3002-4.259-3.79-0.11336-2.0798-0.11336-4.1642 0-6.244 0.077-1.421 0.207-2.857 0-4.265-0.292-1.987-1.238-3.807-2.179-5.582-1.368-2.582-2.76-5.15-4.07-7.761-1.198-2.387-2.33-4.812-3.316-7.293-1.237-3.11-2.248-6.335-2.648-9.659-0.362-3.013-0.214-6.058 0-9.085 0.231-3.272 0.55-6.588 1.705-9.66 1.08-2.87 1.76-4.206 4.077-6.214-1.5963-1.1255-2.9839-2.5211-4.1-4.124-0.922-1.323-1.978-2.902-1.887-4.698-1.151 0.685-2.561 1.775-3.69 2.496-1.589 1.015-3.193 2.104-4.264 3.655-1.248 1.806-1.651 4.087-1.547 6.28 0.075 1.566 0.392 3.12 0.937 4.591-2.2237 0.82556-4.6259 1.0498-6.964 0.65-2.337-0.4067-4.5254-1.4229-6.344-2.946-1.184-0.994-2.196-2.205-2.894-3.584-0.697-1.38-1.074-2.932-0.995-4.476 0.07356-1.3994 0.50947-2.7557 1.265-3.936-1.2506 0.2891-2.4511 0.76297-3.562 1.406-1.045 0.605-2.028 1.385-2.624 2.437-0.636 1.122-0.777 2.459-0.75 3.748 0.08687 3.5516 1.3384 6.9763 3.562 9.747-4.5001 0.57871-9.0705-0.20466-13.121-2.249-6.386-3.24-11.036-9.693-12.09-16.776-3.4383 0.74691-6.6902 2.1813-9.56 4.217-3.641 2.588-6.582 6.104-8.716 10.028-1.3279 2.443-2.3509 5.0397-3.046 7.732-2.8127-2.5908-5.0618-5.733-6.607-9.231-1.706-3.87-2.512-8.157-2.156-12.371 0.26997-3.1642 1.1786-6.2408 2.671-9.044-1.9776 0.6982-3.8057 1.7635-5.388 3.14-0.935 0.813-1.78 1.732-2.765 2.483-1.997 1.521-4.49 2.28-6.982 2.577-1.5713 0.18748-3.1583 0.20324-4.733 0.047-0.96653-2.1699-1.5835-4.4792-1.828-6.842-0.542-5.256 0.846-10.69 3.843-15.042-3.6759 0.75123-7.4615 0.79298-11.153 0.123-5.862 1.94-12.316 2.421-18.387 1.81-3.407-0.35717-6.7726-1.0355-10.052-2.026-0.39963-2.2225-1.1446-4.3688-2.208-6.361-1.211-2.265-2.905-4.374-5.22-5.489-2.2377-1.0599-4.8226-1.1091-7.099-0.135l-11.31-3.01c-1.7534-0.64561-3.5728-1.0957-5.425-1.342-1.754-0.232-3.542-0.28-5.29 0-1.818 0.291-3.316 0.514-4.556 1.875-3.546 3.153-2.306 8.46-1.198 10.65-3.287 2.505-5.755 2.765-7.032 7.361-0.3 2.256 0.38 4.602 1.74 6.426 1.2103 1.6141 2.8959 2.8084 4.82 3.415-1.2838 1.2659-2.1712 2.8782-2.554 4.64-0.30894 1.4251-0.26846 2.9039 0.118 4.31 0.39118 1.408 1.1326 2.694 2.155 3.738 1.044 1.058 2.353 1.823 3.737 2.366 1.385 0.543 2.849 0.871 4.312 1.136 3.94 0.715 8.085-3e-3 11.926-1.136 2.52-0.743 3.42-1.934 5.488-3.315 1.7199-1.1847 3.7023-1.9329 5.776-2.18 2.425-0.285 4.874 0.129 7.292 0.475 3.398 0.487 6.81 0.845 10.221 1.23 5.593 0.631 11.18 1.336 16.758 2.086 8.209 1.103 16.432 2.31 24.713 2.46 3.823 0.069 7.305 0.298 7.305 0.298s-7.6437 6.9345-12.712 10.049c-5.6006 3.4411-12.598 9.3291-19.04 10.635-5.025 1.014-10.12 1.71-15.241 1.892-4.602 0.163-9.245-0.089-13.73-1.13-3.611-0.84-7.089-2.182-10.696-3.035-4.576-1.081-9.316-1.37-14.011-1.136-16.729 1.2638-10.572 2.4497-11.316 5.9304-0.73796 3.4486-6.5811 4.7552 2.9161 7.1048 3.3729 0.83447 7.9729-0.61356 10.755 0.53845-3.7153 1.8573-7.7977 3.3816-11.266 3.8891-7.7344 3.153-4.0096 3.3933-3.9811 7.6307 0.0287 4.2728-4.9408 4.4611 6.5093 5.1143 4.2089 0.24009 9.086-0.63866 12.06-0.7545-5.6894 2.5633-6.181 2.0196-12.691 6.434-5.4476 3.6938-4.8826 2.632-2.7147 6.817 0.84393 1.6292-3.8463 3.1704 1.5919 2.5853 3.9628-0.07182 8.5202 0.7687 11.573 0.62658-1.7166 2.8417-1.3907 3.4685-2.4124 5.6212-4.5354 9.5567-2.0481 4.5137 0.17679 6.0185 1.831 1.2384 2.5415 4.7367 14.77-10.007 6.5107-7.85 8.773-12.742 14.524-16.608 2.852-1.83 11.942-4.8808 15.219-5.743 15.644-4.1155 21.595-5.0373 36.823-5.7652 4.8851-0.23351 11.372 0.50901 16.102-0.73613-0.064 2.175 0.255 4.36 0.937 6.426 1.053 3.193 2.97 6.071 5.36 8.435 2.56 2.533 5.634 4.472 8.57 6.56 3.796 2.703 7.424 5.712 10.308 9.373 1.6534 2.1006 3.0459 4.394 4.147 6.83-2.1329 2.4244-4.5097 4.6226-7.093 6.56-2.778 2.081-5.814 3.867-9.109 4.956-3.76 1.242-7.751 1.547-11.645 2.272-5.556 1.035-10.974 2.95-15.798 5.893-5.6707 3.47-10.407 8.2742-13.795 13.994-2.6907 0.21821-5.2975 1.041-7.626 2.407-3.1305 1.8509-5.6279 4.6056-7.164 7.902 2.2434-0.837 4.6675-1.0691 7.029-0.673 2.24 0.38 4.376 1.336 6.156 2.747-3.0611 3.0066-5.7978 6.3265-8.165 9.905-1.238 1.872-2.38 3.823-3.175 5.922-0.795 2.1-1.234 4.36-1.042 6.596 0.1146 1.3411 0.45294 2.6536 1.001 3.883 1.1908-2.9157 2.6477-5.7155 4.352-8.364 1.85-2.877 4.04-5.615 6.895-7.498 2.5707-1.6875 5.5655-2.6154 8.64-2.677 0.074 3.972 0.03 7.945-0.135 11.914-0.184 4.48-0.527 8.985-1.675 13.32-1.087 4.103-2.915 8.049-5.623 11.317-2.458 2.966-5.611 5.333-9.103 6.959-3.71 1.728-7.747 2.61-11.715 3.614-1.433 0.362-2.864 0.746-4.288 1.142v-0.34c-6e-3 -3.057-0.165-6.11-0.134-9.167 0.024-2.367 0.161-4.734 0.269-7.1 0.063-1.383 0.118-2.773-0.065-4.146-0.304-2.687-1.628-4.263-3.122-2.953-2.2 2.072-2.688 2.035-6.455 1.547-1.686-0.348-2.39-0.302-4.082 0.937-2.066 1.502-4.2 3.211-2.876 5.764 3.37 6.506 1.44 8.294 1.44 8.294s-3.964-9.608-6.062-12.318c-1.269-1.639-2.653-3.205-4.282-4.487-1.098-0.864-2.357-1.613-3.749-1.74-0.90414-0.0809-1.8122 0.10471-2.612 0.534 0.52204 1.0342 0.68662 2.2123 0.468 3.35-0.297 1.52-1.296 2.863-2.612 3.679-1.15 0.712-2.527 1.052-3.544 1.944-0.554 0.487-0.973 1.116-1.253 1.799-0.28 0.682-0.425 1.414-0.487 2.15-0.12805 1.5161 0.11103 3.0408 0.697 4.445 0.58933 1.4048 1.5218 2.6391 2.712 3.59 2.21 1.75 5.149 2.348 7.967 2.274 1.453-0.04 2.919-0.241 4.352 0 1.5719 0.26806 3.0102 1.0507 4.089 2.225 1.0682 1.1827 1.713 2.6869 1.833 4.276-1.1175-1.696-2.6912-3.042-4.54-3.883-2.64-1.193-5.689-1.266-8.522-0.662-2.259 0.482-4.492 1.425-6.057 3.122-0.67277 0.71928-1.1911 1.5687-1.523 2.496-0.32851 0.93113-0.42295 1.9288-0.275 2.905 0.073 0.459 0.204 0.902 0.287 1.359 0.082 0.457 0.114 0.934-6e-3 1.382-0.116 0.432-0.368 0.812-0.615 1.183-0.248 0.372-0.498 0.753-0.615 1.184-0.176 0.642-0.027 1.343 0.293 1.927 0.32 0.583 0.801 1.062 1.317 1.482 1.34 1.09 2.946 1.832 4.616 2.273 1.67 0.44 3.404 0.586 5.131 0.568 3.12-0.033 6.206-0.6 9.279-1.137 1.043-0.182 2.098-0.363 3.157-0.334 1.059 0.03 2.138 0.286 3 0.903 0.84 0.6 1.435 1.536 1.61 2.554 0.131 0.763 0.03 1.553-0.146 2.307-0.176 0.755-0.43 1.486-0.615 2.238-0.21 0.85-0.328 1.727-0.287 2.6 0.04 0.874 0.249 1.746 0.667 2.514 0.5 0.917 1.286 1.66 2.168 2.22 0.881 0.56 1.862 0.95 2.852 1.283 2.68 0.901 5.504 1.403 8.33 1.323 1.289-0.036 2.58-0.194 3.807-0.591 1.227-0.398 3.057-1.041 3.96-1.963 0.953-0.972 1.93-2.023 2.302-3.333 1.895-3.94 1.452-5.615 1.189-13.074 1.167 1.24 1.645 2.602 2.009 4.218 0.465 2.065 0.538 4.31-0.603 6.092 3.036 0.8 6.446 0.024 8.839-2.01 1.32-1.123 2.328-2.591 3.004-4.188 1.516-3.028 2.15-7.15 2.459-10.19 0.187-2.21-0.374-5 0.628-6.978 0.77635 1.8309 1.2512 3.7754 1.406 5.758 0.17485 2.2812-0.07539 4.5751-0.738 6.765 2.3349 4e-3 4.6577-0.33563 6.894-1.007 1.51-0.453 2.987-1.057 4.306-1.922 1.318-0.864 2.48-2 3.262-3.368 1.341-1.992 2.023-4.807 2.396-9.218 0.112-1.73-0.387-3.672-0.053-5.373 1.9887 2.8448 2.3675 6.5149 1.002 9.706 1.806 0.09 3.626-0.136 5.354-0.668 1.325-0.407 2.609-1 3.708-1.845s2.01-1.955 2.518-3.245c0.497-1.256 0.6-2.643 0.487-3.989-0.769-4.263-1.973-8.789-0.743-12.226 0.722-1.998 1.869-4.603 3.806-5.476-0.87681 1.4421-1.5527 2.9971-2.009 4.622-0.67 2.385-0.124 4.905 0.194 7.363 1.579 6e-3 2.433-0.198 3.96-0.604 2.007-0.534 3.973-1.457 5.353-3.01 0.871-0.981 1.476-2.181 1.868-3.433 0.393-1.251 0.578-2.558 0.674-3.866 0.258-3.518-0.123-7.051-0.135-10.579-9e-3 -2.687 0.205-5.402 1.008-7.966 1.11-3.543 3.334-6.69 6.156-9.103 1.983-1.695 4.255-3.042 6.162-4.82 1.3189-1.2315 2.4463-2.6532 3.345-4.218 1.398 1.3714 3.1678 2.3023 5.09 2.677 1.89 0.364 3.829 0.174 5.752 0.134 3.923-0.081 7.95 0.511 11.381 2.414 3.52 1.951 6.288 5.326 7.234 9.237 0.805 3.327 0.262 6.956-1.476 9.905 1.5756-0.0949 3.0987-0.60179 4.417-1.47 2.353-1.556 3.895-4.28 4.018-7.1 3.1823 1.4323 6.0492 3.4811 8.435 6.028 4.378 4.678 6.959 10.997 7.1 17.403 1.4425-1.8352 2.531-3.9227 3.21-6.156 0.76-2.504 0.988-5.17 0.667-7.767 6.8146 0.83545 13.284 3.4696 18.744 7.632 4.38 3.35 8.049 7.693 10.31 12.723 2.08 4.63 2.94 9.828 2.278 14.861-0.327 2.483-1.076 5.02-2.812 6.824-1.308 1.36-3.1 2.206-4.955 2.548-1.693 0.3102-3.4348 0.22603-5.09-0.246 0.11198-1.9181-0.11205-3.841-0.662-5.682-0.632-2.108-1.701-4.095-3.175-5.728-1.135-1.258-2.526-2.311-4.118-2.888-1.137-0.412-2.348-0.572-3.55-0.709-0.92-0.104-1.85-0.197-2.77-0.094-0.921 0.104-1.843 0.422-2.53 1.042-0.796 0.717-1.203 1.75-1.705 2.695-0.235 0.442-0.497 0.88-0.85 1.236-0.601 0.607-1.435 0.956-1.991 1.605-0.348 0.406-0.566 0.911-0.674 1.435-0.10065 0.52531-0.11248 1.0638-0.035 1.593 0.077 0.576 0.233 1.147 0.498 1.664s0.642 0.984 1.113 1.323c0.776 0.56 1.766 0.745 2.724 0.75 0.957 6e-3 1.904-0.16 2.858-0.234 4.183-0.328 8.477 1.128 11.598 3.93-2.0375-0.79307-4.1699-1.3168-6.343-1.558-2.918-0.325-5.885-0.139-8.757 0.469-2.81 0.594-5.562 1.605-7.902 3.268-1.687 1.2-3.126 2.71-4.499 4.259-0.314 0.354-0.629 0.715-0.843 1.136-0.215 0.422-0.323 0.92-0.2 1.377 0.108 0.398 0.385 0.733 0.721 0.972 0.336 0.24 0.732 0.388 1.13 0.492 0.337 0.089 0.68 0.149 1.014 0.246 0.334 0.098 0.662 0.235 0.925 0.463 0.341 0.295 0.553 0.728 0.633 1.171 0.08 0.444 0.036 0.902-0.064 1.342-0.08 0.347-0.201 0.685-0.258 1.036-0.057 0.352-0.044 0.725 0.117 1.043 0.106 0.209 0.274 0.386 0.469 0.516s0.417 0.213 0.644 0.269c0.455 0.11 0.926 0.099 1.394 0.117 1.476 0.057 2.924 0.42 4.4 0.475 1.448 0.053 2.95-0.213 4.17-0.996 1.196-0.768 2.037-1.963 3.028-2.982 1.545-1.5834 3.4683-2.7467 5.588-3.38 2.11-0.626 4.384-0.7 6.531-0.216-2.5811 0.52695-5.0599 1.4685-7.34 2.788-1.89 1.097-3.655 2.48-4.92 4.264-1.168 1.649-1.882 3.66-1.75 5.676 0.065 1.017 0.348 2.033 0.919 2.876 0.57 0.844 1.44 1.502 2.437 1.717 0.774 0.166 1.583 0.069 2.366 0.193 0.67849 0.1162 1.3251 0.3734 1.898 0.755 0.502 0.328 0.951 0.732 1.464 1.043 0.947 0.573 2.074 0.809 3.18 0.802 1.108-6e-3 2.199-0.246 3.258-0.568 2.106-0.64 4.104-1.61 6.015-2.7 0.868-0.495 1.72-1.015 2.484-1.658s1.437-1.413 1.869-2.314c0.623-1.3 0.712-2.792 1.136-4.17 0.25888-0.84109 0.64175-1.6389 1.136-2.367-0.2549 1.3152-0.14139 2.6752 0.328 3.93 0.303 0.802 0.749 1.547 0.996 2.367 0.4342 1.4733 0.20995 3.0624-0.615 4.358 1.8453-0.49102 3.5807-1.3278 5.114-2.466 2.475-1.838 4.346-4.418 5.588-7.24 1.315-3.0004 1.9468-6.2555 1.85-9.53 0.751 1.882 1.054 3.94 0.874 5.957-0.14811 1.6326-0.60344 3.2225-1.342 4.686 0.47 0.463 1.019 0.848 1.611 1.137 0.568 0.276 1.185 0.47 1.816 0.492 0.631 0.02 1.277-0.136 1.798-0.492 0.547-0.374 0.929-0.945 1.178-1.558 0.249-0.614 0.377-1.271 0.498-1.922 0.406-2.2 0.771-4.414 1.405-6.56 0.726-2.455 1.801-4.825 2.138-7.363 0.35562-2.7231-0.1589-5.489-1.47-7.902 1.0816 1.2266 1.9417 2.6318 2.542 4.153 0.78672 1.9984 1.1072 4.15 0.937 6.291 1.8783-0.76369 3.4872-2.0687 4.622-3.749 0.493-0.734 0.89-1.536 1.125-2.39 0.234-0.853 0.303-1.759 0.146-2.63-0.107-0.588-0.315-1.15-0.492-1.722-0.177-0.57-0.322-1.16-0.31-1.757 0.014-0.755 0.284-1.476 0.468-2.208 0.358-1.417 0.4-2.905 0.2-4.352-0.488-3.526-2.468-6.821-5.355-8.904 1.2392 0.64863 2.3875 1.458 3.415 2.407 1.3293 1.2324 2.4385 2.6825 3.28 4.288 0.6-2.173 0.845-4.443 0.733-6.695-0.161-3.23-1.083-6.44-2.812-9.173-2.0711-3.2521-5.1792-5.71-8.821-6.976 1.08-0.01 2.16 0.104 3.216 0.334 1.06 0.23 2.098 0.576 3.08 1.036-0.40366-1.6062-1.0262-3.1493-1.85-4.586-1.134-1.9639-2.6075-3.711-4.352-5.16-2.1648-1.8058-4.6799-3.1442-7.387-3.931 1.783 0.042 3.559 0.35 5.254 0.902 1.8537 0.60301 3.5999 1.4968 5.173 2.648 0.0757-3.0235-0.47062-6.0303-1.605-8.834-1.43-3.524-3.798-6.677-6.83-8.973-2.644-2.003-5.757-3.338-8.974-4.148-3.075-0.773-6.246-1.073-9.372-1.605-3.244-0.551-6.485-1.368-9.372-2.946-2.466-1.347-4.6-3.213-6.69-5.09-3.098-2.784-6.198-5.703-8.17-9.372-1.26-2.341-2.03-4.974-2.01-7.633 9e-3 -1.34 0.221-2.674 0.135-4.012-0.10253-1.5757-0.60876-3.0985-1.47-4.422 3.43 0.239 6.87 0.375 10.308 0.404 4.116 0.034 8.245-0.083 12.318-0.668 5.4813-0.7902 10.809-2.4157 15.798-4.82 3.436-1.657 6.717-3.697 9.507-6.298 3.595-3.35 6.346-7.67 7.498-12.447 1.045-4.336 0.756-8.915-0.27-13.256-0.88-3.726-2.29-7.308-3.748-10.848-2.491-6.046-5.141-12.024-7.633-18.07-2.997-7.275-6.013-14.675-8.548-22.123-1.1407-3.6123 0.35955-1.9777-1.55-6.1507-0.14-6.668 3.246-8.783 5.09-11.195 2.196-2.87 5.258-4.986 8.524-6.53 3.097-1.466 6.398-2.45 9.659-3.504 4.967-1.605 9.888-3.392 14.579-5.681 5.46-2.665 10.597-6.01 15.148-10.034 3.538-3.13 6.735-6.692 9.085-10.79 2.721-4.748 4.252-10.158 4.545-15.622 0.18285-3.401-0.10317-6.811-0.85-10.134-1.118 3.0884-2.3824 6.1219-3.789 9.09-1.682 3.55-3.596 7.044-6.25 9.94-3.6982 4.0126-8.6284 6.678-14.011 7.575 3.7888-4.1771 7.121-8.7466 9.94-13.631 3.401-5.894 6.05-12.265 7.387-18.937 0.754-3.768 1.088-7.659 0.474-11.452-0.69877-4.2742-2.5659-8.2718-5.395-11.551 0.384 2.792 0.347 5.64-0.1 8.423-0.667 4.16-2.247 8.136-4.258 11.838-1.72 3.164-3.781 6.178-6.437 8.61-2.641 2.418-5.806 4.205-8.523 6.537-2.5666 2.2049-4.7 4.8687-6.291 7.855 1.9017-3.812 3.9693-7.5389 6.197-11.17 2.266-3.691 4.705-7.29 6.63-11.17 1.953-3.931 3.36-8.108 4.64-12.307 1.194-3.917 2.284-7.93 2.267-12.026-0.0158-3.3073-0.75763-6.5708-2.173-9.56z" fill="#fcdb00"/>
 <g stroke="#000">
  <path d="m42.858-143.02c-1.669 0.09-3.316 0.571-4.771 1.392-0.506 0.284-0.993 0.614-1.383 1.042-0.39 0.429-0.68 0.966-0.738 1.542-0.047 0.463 0.059 0.938 0.285 1.344 0.226 0.407 0.57 0.745 0.974 0.976 0.471 0.27 1.014 0.392 1.555 0.433 0.541 0.04 1.085 0 1.626-0.036 7.5-0.506 15.033-0.506 22.532 0m-24.785 0.327a3.404 3.404 0 0 0-0.861 2.12c-0.035 0.873 0.28 1.746 0.828 2.425 0.548 0.68 1.318 1.168 2.154 1.42 0.917 0.275 1.892 0.273 2.85 0.265 3.58-0.033 7.158-0.121 10.735-0.266" fill="none" stroke-linecap="round" stroke-linejoin="round" stroke-width="2.04"/>
  <path d="m44.581-135.73a3.216 3.216 0 0 0-1.308 0.55c-0.385 0.282-0.7 0.665-0.879 1.107a2.451 2.451 0 0 0-0.159 1.186c0.044 0.4 0.185 0.789 0.401 1.129 0.431 0.68 1.159 1.153 1.945 1.33 0.843 0.188 1.767 0.04 2.476-0.453 0.355-0.246 0.654-0.575 0.859-0.955 0.204-0.38 0.315-0.812 0.31-1.243a2.6 2.6 0 0 0-0.332-1.226 2.824 2.824 0 0 0-0.86-0.938c-0.704-0.486-1.612-0.644-2.453-0.487z" fill="#000004" stroke-width="2.999"/>
  <path d="m77.982-126.39a12.467 12.467 0 0 0 5.17-0.729 12.482 12.482 0 0 0 5.036-3.446v0a34.277 34.277 0 0 1 5.368 0.066c1.045 0.095 2.091 0.24 3.094 0.55s1.965 0.794 2.737 1.505c1.146 1.054 1.823 2.621 1.724 4.175-0.095 1.472-0.86 2.848-1.91 3.885-1.049 1.038-2.365 1.767-3.723 2.344a21.732 21.732 0 0 1-8.417 1.723" fill="none" stroke-linecap="round" stroke-linejoin="round" stroke-width="2.04"/>
 </g>
 <path d="M-22.75-127.51c-4.706 3.21-7.216 8.341-7.157 13.188.093 3.312 1.795 6.443 4.175 8.748 2.19 2.12 4.95 3.621 7.886 4.44 4.282 1.193 8.818.95 13.254.662 4.634-.3 9.274-.637 13.917-.53 6.574.153 14.086 1.438 20.378 3.35.09-.9.188-1.698.133-2.718-2.186-.896-4.853-1.772-7.124-2.421-3.184-.91-6.443-1.572-9.742-1.856-3.721-.32-7.466-.157-11.2-.265-4.03-.116-8.054-.548-11.995-1.391-4.946-.98-7.768-3.189-10.019-6.904-1.895-3.625-3.436-9.382-2.507-14.303z" fill="#f00000"/>
 <g fill="none" stroke="#000" stroke-linecap="round">
  <g stroke-linejoin="round" stroke-width="2.04">
   <path d="m77.589-105.74a14.491 14.491 0 0 0 1.78 8.247 14.478 14.478 0 0 0 5.53 5.53m-12.277 2.435a39.392 39.392 0 0 1 4.873 11.246m-8.434 3.469a18.338 18.338 0 0 1 3.655 8.154c0.824 4.687-0.278 9.684-2.999 13.59m-17.432 11.995a26.361 26.361 0 0 0 8.622-10.028"/>
  </g>
  <path d="m-15.848 11.583a69.842 69.842 0 0 0 20.926-8.316" stroke-width="2.999"/>
  <path d="m83.628 61.146c-1.43-4.46-5.515-6.846-8.757-9.624" stroke-width="2.04"/>
 </g>
 <g fill="#fcef3c">
  <path d="m11.75-114.6a17.037 17.037 0 0 0 4.358 6.326 12.724 12.724 0 0 0 1.547-4.03c0.189-0.955 0.314-1.37 0.28-2.343zm8.81-0.23a9.452 9.452 0 0 0 3.843 4.733 7.995 7.995 0 0 0 1.312-5.202c-1.328 0.205-2.837 0.388-5.155 0.469zm-4.243 22.503c-0.16-0.925-0.439-1.595-0.828-2.45a10.957 10.957 0 0 0-1.458-2.352 14.237 14.237 0 0 0-1.558 3.081c-0.218 0.606-0.395 0.851-0.53 1.481zm10.37 0.043c-0.71-1.026-2.149-2.639-3.147-3.387a11.65 11.65 0 0 0-3.71-1.855 5.896 5.896 0 0 0-0.83 2.55c-0.054 0.656-0.232 2.07-0.068 2.706z" fill="#fcdb00"/>
 </g>
 <g fill="#fff" fill-rule="evenodd" stroke="#000" stroke-linecap="round" stroke-linejoin="round" stroke-width="2.834">
  <path d="m-93.362-89.722c-7.4328-1.9916-10.176 2.3069-10.176 2.3069l-15.4 57.474s0.22625 5.0941 7.659 7.0857c7.4328 1.9916 10.17-2.3085 10.17-2.3085l15.4-57.474s-0.22045-5.0926-7.6533-7.0842z" style="paint-order:markers fill stroke"/>
  <path d="m-74.603-164.96c-16.157 8.8994-27.959 72.74-28.934 77.541 0 0 0.22625 5.0941 7.659 7.0858 7.4328 1.9916 10.17-2.3085 10.17-2.3085 0.86722-5.8478 18.079-66.693 11.105-82.318z" stroke="#000" style="paint-order:markers fill stroke"/>
 </g>
 <path d="m-105.42 130.05a33.912 33.912 0 0 0-11.763-5.534 15.843 15.843 0 0 1 8.085-3.446c3.348-0.403 6.82 0.305 9.742 1.989a5.818 5.818 0 0 1-0.199 3.147 5.832 5.832 0 0 1-2.283 2.912 5.833 5.833 0 0 1-3.582 0.932zm30.127-6.27c0.956 0.14 1.937 0.108 2.882-0.094a8.198 8.198 0 0 0 3.257-1.5 10.149 10.149 0 0 0-1.898-2.506 10.168 10.168 0 0 0-3.853-2.325 20.86 20.86 0 0 0-0.388 6.425zm-32.017 29.89a16.498 16.498 0 0 1-1.259 8.151 42.325 42.325 0 0 0-13.122 0.398 25.945 25.945 0 0 1 4.507-4.97c2.06-1.752 4.479-3.208 7.157-3.579a9.908 9.908 0 0 1 2.717 0zm48.222 34.77c-1.433 3.456-3.447 5.319-5.502 5.994-1.686 0.545-3.302 0.43-4.962 0.338 2.478-1.81 2.653-4.347 2.76-5.811 2.245 0.553 5.278 0.12 7.704-0.521zm136.01-42.52a6.41 6.41 0 0 1-0.53 2.717 6.445 6.445 0 0 1-2.783 3.049 11.518 11.518 0 0 0-2.452-1.26 11.56 11.56 0 0 0-5.633-0.596c1.434-1.75 3.399-3.06 5.566-3.711a11.516 11.516 0 0 1 5.832-0.199zm-18.092 40.03a9.72 9.72 0 0 1 0.464-5.567 9.758 9.758 0 0 1 4.838-5.169 5.926 5.926 0 0 1 2.187 1.657 5.944 5.944 0 0 1 1.325 3.314 14.37 14.37 0 0 0-3.976 1.458 14.399 14.399 0 0 0-4.838 4.307zm23.261 16.17a14.379 14.379 0 0 1-0.331-6.826c0.294-1.509 0.833-2.97 1.59-4.307a11.594 11.594 0 0 1 6.097 2.982 34.04 34.04 0 0 0-7.356 8.151z" fill="#e20909"/>
 <g fill="none" stroke="#000" stroke-width="2.999">
  <path d="m15.224 46.93a8.863 8.863 0 0 1 1.567 6.578c-0.34 2.074-1.416 3.978-1.704 6.06-0.16 1.164-0.052 2.409 0.568 3.407 0.368 0.593 0.896 1.069 1.45 1.493 0.554 0.423 1.141 0.804 1.674 1.253 0.866 0.73 2.798 2.762 3.302 3.775"/>
  <path d="m26.246 53.774c0.791 2.97 0.691 6.173-0.284 9.088-0.87 2.603-2.396 4.925-3.787 7.29-1.652 2.81-3.153 5.78-3.692 8.994-0.864 5.15 0.973 10.676 4.748 14.283" stroke-linecap="round"/>
 </g>
 <g fill="#fcef3c" stroke="#000" stroke-width="2.04">
  <path d="m-123.91-60.071c-0.746-2.062-0.85-5.018-0.595-7.196 0.141-1.208 0.453-2.428 1.162-3.415 0.547-0.76 1.31-1.35 2.143-1.779 0.833-0.428 1.738-0.702 2.652-0.909a19.694 19.694 0 0 1 3.668-0.472 7.09 7.09 0 0 1 5.013 1.38c1.077 0.817 1.899 1.932 2.523 3.13 1.237 2.921 1.128 6.375 0.68 9.263-0.292 1.685-0.848 3.336-2.28 4.27-3.369 0.57-5.764 0.177-8.924-1.119-2.187-0.897-4.352-1.5-6.042-3.153z" fill="#fcdb00"/>
  <path d="m-107.64-60.957c0.66288 0.73139 1.2026 1.5656 1.598 2.47 0.606 1.386 0.876 3.451 0.745 4.958-1.116-0.089-2.938-0.395-3.923-0.926-0.874-0.472-2.042-1.107-2.687-1.862 0.113-1.583 1.666-3.63 4.267-4.64zm-0.05 29.547c0.95798-0.2384 1.8709-0.63085 2.703-1.162 1.275-0.814 2.65-2.379 3.38-3.703-0.977-0.548-2.661-1.309-3.775-1.415-0.989-0.095-2.312-0.218-3.269 0.05-0.787 1.378-0.637 3.943 0.961 6.23zm16.971-16.765c-1.817-0.917-4.318-3.225-6.797-6.176-1.9351-2.2888-3.1847-5.0774-3.605-8.045-0.16-1.154-0.193-2.34 0.06-3.477 0.255-1.137 0.81-2.228 1.687-2.995 0.75-0.656 1.7-1.05 2.676-1.252 0.975-0.2 1.98-0.217 2.974-0.187 2.144 0.064 4.516 0.154 6.37 0.822s2.889 1.841 3.904 2.877" fill="#f00000"/>
  <path d="m-84.812-46.299c-1.598 0.056-4.089-0.958-5.907-1.876" fill="#fcef3c" stroke-linecap="round"/>
  <path d="m-84.812-46.299c-1.598 0.056-4.089-0.958-5.907-1.876-1.817-0.917-4.318-3.225-6.797-6.176-1.9351-2.2888-3.1847-5.0774-3.605-8.045-0.16-1.154-0.193-2.34 0.06-3.477 0.255-1.137 0.81-2.228 1.687-2.995 0.75-0.656 1.7-1.05 2.676-1.252 0.975-0.2 1.98-0.217 2.974-0.187 2.144 0.064 4.516 0.154 6.37 0.822s2.889 1.841 3.904 2.877c2.5 2.583 3.975 7.246 3.266 10.352" fill="#fcdb00" stroke="#000" stroke-linecap="round" stroke-width="2.0409"/>
  <path d="m-98.978-63.601a9.116 9.116 0 0 1-1.598-2.47c-0.606-1.386-0.876-3.451-0.745-4.958 1.116 0.089 2.938 0.395 3.923 0.926 0.874 0.472 2.042 1.107 2.687 1.862-0.113 1.583-1.666 3.63-4.267 4.64zm-9.702 21.792a9.116 9.116 0 0 0 2.912-0.42c1.442-0.454 3.176-1.608 4.226-2.697-0.8-0.782-2.23-1.955-3.277-2.348-0.93-0.348-2.176-0.811-3.17-0.801-1.118 1.126-1.64 3.643-0.691 6.266z" fill="#f00000"/>
  <path d="m-125.78-42.773a12.486 12.486 0 0 1-1.49-1.181c-1.304-1.208-2.35-2.704-2.98-4.367-0.648-1.715-0.844-3.64-0.307-5.394 0.613-2.006 2.127-3.634 3.852-4.828a15.155 15.155 0 0 1 2.794-1.527c1.978-0.143 4.029 0.57 5.733 1.681 1.418 0.924 2.862 1.773 4.273 2.707 3.504 2.443 6.428 5.125 7.388 8.8 0.27 1.052 0.325 2.172 0.05 3.223-0.274 1.05-0.896 2.026-1.796 2.633-0.555 0.373-1.199 0.6-1.856 0.725s-3.229 0.46-3.898 0.456c-3.726-0.02-4.432 0.486-7.859-0.976a36.204 36.204 0 0 1-3.904-1.952" fill="#fcdb00"/>
  <path d="m-114.48-25.514a14.566 14.566 0 0 1-6.177-1.508c-2.065-1.024-3.903-2.577-5.049-4.576-1.332-2.326-1.655-5.2-0.908-7.774a10.245 10.245 0 0 1 1.587-3.214 8.94 8.94 0 0 1 6.042-0.02c1.638 0.587 3.065 1.641 4.639 2.385 2.174 1.028 3.4 0.88 5.689 2.58 2.02 2.272 2.027 5.128 0.778 7.428-1.804 2.887-3.409 4.392-6.6 4.699z" fill="#fcdb00"/>
 </g>
 <path d="m-139.09-3.6028c2.3543-1.3883 4.8834-2.4796 7.5086-3.24 0.87265-0.25276 1.7607-0.46992 2.6664-0.54075 0.90576-0.070826 1.8341 0.00915 2.6822 0.33503 0.3757 0.14437 0.73754 0.33915 1.0286 0.61715 0.4492 0.42904 0.703 1.0359 0.78103 1.6521 0.078 0.61625-9e-3 1.2435-0.16389 1.845-0.10955 0.42491-0.25523 0.84544-0.49151 1.2152s-0.56999 0.68779-0.97863 0.84767c-0.37913 0.14833-0.80117 0.15367-1.2038 0.093248-0.4026-0.060426-0.79261-0.18365-1.1864-0.28702-1.5452-0.40564-3.1517-0.50626-4.7284-0.76391-2.0369-0.33287-4.0304-0.93073-5.9143-1.7738z" fill="#f00000"/>
 <path transform="translate(-1.2668 19.784)" d="m-141.91-1.5299c1.727-1.4613 3.5848-2.7677 5.5441-3.8986 1.3128-0.75776 2.6822-1.4411 4.1443-1.8412 1.4621-0.40011 3.029-0.5066 4.4929-0.11342 0.77337 0.2077 1.5217 0.5611 2.0974 1.1177 0.57573 0.55657 0.96466 1.3315 0.95486 2.1323-9e-3 0.71243-0.33282 1.4028-0.82614 1.9168s-1.1458 0.85933-1.8321 1.0509c-1.3725 0.38317-2.8313 0.16991-4.2425-0.027174-1.5953-0.22278-3.1956-0.42168-4.8042-0.50524-1.8433-0.095751-3.6945-0.039525-5.5286 0.16792z" fill="#f00000"/>
 <path d="m115.64-38.234c-0.573 2.775 1 6.007 1.841 8.302m6.129-29.723c-1.6297-2.2933-2.7874-4.8875-3.406-7.632-0.68339-3.0549-0.39246-6.0776 0.29093-9.1325" fill="none" stroke="#000" stroke-linecap="round"/>
 <path transform="translate(1.3207 38.003)" d="m-142.24-0.72989c1.7136-1.8417 3.6988-3.4304 5.8714-4.6986 1.6606-0.96937 3.452-1.7585 5.3492-2.0713 1.8972-0.31274 3.9131-0.12298 5.6154 0.77124 0.36537 0.19193 0.71727 0.41706 1.0105 0.70751 0.29322 0.29045 0.52639 0.6503 0.62352 1.0514 0.11762 0.48574 0.0272 1.0104-0.20655 1.4521-0.23373 0.44176-0.60363 0.80325-1.0272 1.0684-0.84725 0.53038-1.873 0.67618-2.8668 0.78367-2.8397 0.30715-5.6976 0.39952-8.5499 0.54937-1.9415 0.102-3.8816 0.23072-5.8195 0.38611z" fill="#f00000"/>
 <path transform="translate(20.945 55.563)" d="m-139.91 7.8888c0.26559-3.5051 1.2021-6.9582 2.7439-10.117 0.53064-1.0872 1.1534-2.1656 2.0889-2.9327 0.46775-0.38354 1.0106-0.68244 1.5971-0.83038 0.58652-0.14794 1.2176-0.14029 1.7874 0.062858 0.7717 0.27515 1.4038 0.91627 1.6679 1.6918s0.15483 1.6692-0.28849 2.3582c-1.2549 1.1664-2.49 2.3542-3.7045 3.5627-2.0221 2.012-3.9873 4.0814-5.8922 6.2046z" fill="#f00000"/>
 <path d="m-96.603-84.239c-6.067-1.329-29.496-14.39-29.496-14.39l-1.8631 7.1746s22.96 15.383 28.959 16.99c5.9992 1.6075 35.707-0.68915 35.707-0.68915l1.8631-7.1746s-28.59-0.4693-35.17-1.9107z" fill="#fff" fill-rule="evenodd" stroke="#000" stroke-linecap="round" stroke-linejoin="round" stroke-width="2.2874" style="paint-order:markers fill stroke"/>
</svg>
