<?xml version="1.0" encoding="UTF-8" standalone="no"?>
<!-- Created with Inkscape (http://www.inkscape.org/) -->

<svg
   xmlns:dc="http://purl.org/dc/elements/1.1/"
   xmlns:cc="http://creativecommons.org/ns#"
   xmlns:rdf="http://www.w3.org/1999/02/22-rdf-syntax-ns#"
   xmlns:svg="http://www.w3.org/2000/svg"
   xmlns="http://www.w3.org/2000/svg"
   xmlns:sodipodi="http://sodipodi.sourceforge.net/DTD/sodipodi-0.dtd"
   xmlns:inkscape="http://www.inkscape.org/namespaces/inkscape"
   width="135.77487mm"
   height="158.65759mm"
   viewBox="0 0 135.77487 158.65759"
   version="1.1"
   id="svg865"
   inkscape:version="0.92.5 (2060ec1f9f, 2020-04-08)"
   sodipodi:docname="DEU Saarburg COA.svg">
  <defs
     id="defs859">
    <inkscape:path-effect
       effect="spiro"
       id="path-effect1706"
       is_visible="true" />
    <inkscape:path-effect
       effect="spiro"
       id="path-effect1872"
       is_visible="true" />
    <inkscape:path-effect
       effect="spiro"
       id="path-effect3644"
       is_visible="true" />
    <inkscape:path-effect
       effect="spiro"
       id="path-effect3636"
       is_visible="true" />
    <inkscape:path-effect
       effect="spiro"
       id="path-effect3544"
       is_visible="true" />
    <inkscape:path-effect
       effect="spiro"
       id="path-effect3466"
       is_visible="true" />
    <inkscape:path-effect
       effect="spiro"
       id="path-effect3544-2"
       is_visible="true" />
    <inkscape:path-effect
       effect="spiro"
       id="path-effect3644-8"
       is_visible="true" />
    <inkscape:path-effect
       effect="spiro"
       id="path-effect3644-3"
       is_visible="true" />
    <inkscape:path-effect
       effect="spiro"
       id="path-effect3636-0"
       is_visible="true" />
    <inkscape:path-effect
       effect="spiro"
       id="path-effect1727-0-1"
       is_visible="true" />
    <inkscape:path-effect
       effect="spiro"
       id="path-effect1731-8-3"
       is_visible="true" />
    <inkscape:path-effect
       effect="spiro"
       id="path-effect1727-3"
       is_visible="true" />
    <inkscape:path-effect
       effect="spiro"
       id="path-effect1731-7"
       is_visible="true" />
    <inkscape:path-effect
       effect="spiro"
       id="path-effect841-8"
       is_visible="true" />
    <inkscape:path-effect
       effect="spiro"
       id="path-effect1872-3"
       is_visible="true" />
    <inkscape:path-effect
       effect="spiro"
       id="path-effect1872-0"
       is_visible="true" />
    <inkscape:path-effect
       effect="spiro"
       id="path-effect1872-3-7"
       is_visible="true" />
    <inkscape:path-effect
       effect="spiro"
       id="path-effect1872-3-7-6"
       is_visible="true" />
    <inkscape:path-effect
       effect="spiro"
       id="path-effect1872-0-8"
       is_visible="true" />
    <inkscape:path-effect
       effect="spiro"
       id="path-effect1872-0-8-3"
       is_visible="true" />
    <inkscape:path-effect
       effect="spiro"
       id="path-effect1872-3-7-6-9"
       is_visible="true" />
  </defs>
  <sodipodi:namedview
     id="base"
     pagecolor="#ffffff"
     bordercolor="#666666"
     borderopacity="1.0"
     inkscape:pageopacity="0.0"
     inkscape:pageshadow="2"
     inkscape:zoom="1.3224364"
     inkscape:cx="256.58244"
     inkscape:cy="299.82537"
     inkscape:document-units="mm"
     inkscape:current-layer="layer1"
     showgrid="false"
     inkscape:window-width="1920"
     inkscape:window-height="1046"
     inkscape:window-x="-11"
     inkscape:window-y="-11"
     inkscape:window-maximized="1"
     fit-margin-top="0"
     fit-margin-left="0"
     fit-margin-right="0"
     fit-margin-bottom="0"
     inkscape:snap-global="true"
     inkscape:snap-midpoints="true"
     inkscape:snap-smooth-nodes="true"
     inkscape:object-paths="false" />
  <metadata
     id="metadata862">
    <rdf:RDF>
      <cc:Work
         rdf:about="">
        <dc:format>image/svg+xml</dc:format>
        <dc:type
           rdf:resource="http://purl.org/dc/dcmitype/StillImage" />
        <dc:title />
      </cc:Work>
    </rdf:RDF>
  </metadata>
  <g
     inkscape:label="Ebene 1"
     inkscape:groupmode="layer"
     id="layer1"
     transform="translate(9.7660932,173.75953)">
    <path
       style="fill:#0030ff;fill-opacity:1;fill-rule:evenodd;stroke:none;stroke-width:2.11666656;stroke-linecap:round;stroke-linejoin:round;stroke-miterlimit:4;stroke-dasharray:none;stroke-opacity:1"
       inkscape:connector-curvature="0"
       d="m 124.95045,-172.7012 -0.30554,94.538486 c -1.48761,37.540968 -30.879458,61.98143 -66.523566,62.002451 -35.612041,-0.0461 -65.0148941,-24.497202 -66.5235541,-62.002451 l -0.30555,-94.538486 H 58.119746 Z"
       id="path10563-0-6-2-6-3-1"
       sodipodi:nodetypes="ccccccc" />
    <rect
       style="opacity:1;fill:#ffffff;fill-opacity:1;fill-rule:evenodd;stroke:#000000;stroke-width:0.79375;stroke-linecap:round;stroke-linejoin:round;stroke-miterlimit:4;stroke-dasharray:none;stroke-opacity:1;paint-order:fill markers stroke"
       id="rect1306"
       width="11.807537"
       height="12.419326"
       x="9.7931423"
       y="-156.42531" />
    <rect
       style="opacity:1;fill:#ffffff;fill-opacity:1;fill-rule:evenodd;stroke:#000000;stroke-width:0.79375;stroke-linecap:round;stroke-linejoin:round;stroke-miterlimit:4;stroke-dasharray:none;stroke-opacity:1;paint-order:fill markers stroke"
       id="rect1304"
       width="14.132338"
       height="22.75857"
       x="8.6307421"
       y="-146.5755" />
    <path
       style="fill:#ff0000;stroke:#000000;stroke-width:0.79375;stroke-linecap:round;stroke-linejoin:round;stroke-miterlimit:4;stroke-dasharray:none;stroke-opacity:1;fill-opacity:1"
       d="m 15.697175,-167.10102 -8.2594495,11.40964 h 8.2594495 8.25892 z"
       id="path1308"
       inkscape:connector-curvature="0" />
    <path
       style="fill:#ffffff;fill-rule:evenodd;stroke:none;stroke-width:0.79374999;stroke-linecap:round;stroke-linejoin:round;stroke-miterlimit:4;stroke-dasharray:none;stroke-opacity:1"
       inkscape:connector-curvature="0"
       d="m 79.649122,-165.68019 -0.09842,27.9266 c -0.479208,11.08958 -9.947259,18.30927 -21.429365,18.31548 -11.471776,-0.0136 -20.943377,-7.23646 -21.429367,-18.31548 l -0.0984,-27.9266 h 21.52728 z"
       id="path10563-0-6-2-6-0-2-1"
       sodipodi:nodetypes="ccccccc" />
    <g
       id="g2612"
       transform="translate(4.4671228,-5.7507787)" />
    <path
       inkscape:connector-curvature="0"
       style="opacity:1;fill:#ff0000;fill-opacity:1;fill-rule:evenodd;stroke:#000000;stroke-width:0.52916664;stroke-linecap:round;stroke-linejoin:round;stroke-miterlimit:4;stroke-dasharray:none;stroke-opacity:1;paint-order:fill markers stroke"
       d="m 55.30397,-165.68044 v 17.99064 H 36.657048 l 0.02016,5.63479 h 18.626769 v 22.46116 c 0.923161,0.0991 1.862492,0.15442 2.8174,0.15555 0.955011,-5.3e-4 1.894266,-0.0556 2.8174,-0.154 v -22.46271 h 18.626769 l 0.02016,-5.63479 h -18.64692 v -17.99064 h -2.817919 z"
       id="rect1723-5" />
    <path
       style="fill:none;fill-rule:evenodd;stroke:#000000;stroke-width:0.79374999;stroke-linecap:round;stroke-linejoin:round;stroke-miterlimit:4;stroke-dasharray:none;stroke-opacity:1"
       inkscape:connector-curvature="0"
       d="m 79.649122,-165.68019 -0.09842,27.9266 c -0.479208,11.08958 -9.947259,18.30927 -21.429365,18.31548 -11.471776,-0.0136 -20.943377,-7.23646 -21.429367,-18.31548 l -0.0984,-27.9266 h 21.52728 z"
       id="path10563-0-6-2-6-0-2"
       sodipodi:nodetypes="ccccccc" />
    <g
       id="g1878" />
    <path
       transform="translate(140.17194,-0.02923706)"
       sodipodi:nodetypes="caccacc"
       inkscape:original-d="m -101.23243,-116.26556 c 0,0 0.49704,1.2148 0.91612,1.70555 0.508865,0.59589 1.871238,1.42292 1.871238,1.42292 l 0.711459,-0.66273 c 0,0 -1.049614,-0.7553 -1.47165,-1.23774 -0.402914,-0.46058 -0.984347,-1.54962 -0.984347,-1.54962 z"
       inkscape:path-effect="#path-effect1872-0"
       inkscape:connector-curvature="0"
       id="path1870-8"
       d="m -101.23243,-116.26556 c 0.19193,0.62034 0.5049,1.20299 0.91612,1.70555 0.500826,0.61206 1.147598,1.10388 1.871238,1.42292 l 0.711459,-0.66273 c -0.551061,-0.3325 -1.049621,-0.75182 -1.47165,-1.23774 -0.402761,-0.46373 -0.735755,-0.98795 -0.984347,-1.54962 z"
       style="fill:#ffd700;stroke:#000000;stroke-width:0.5291667;stroke-linecap:round;stroke-linejoin:round;stroke-miterlimit:4;stroke-dasharray:none;stroke-opacity:1;fill-opacity:1" />
    <circle
       r="1.7354167"
       cy="-117.20181"
       cx="39.33971"
       id="path1874-1"
       style="opacity:1;fill:#ffd700;fill-opacity:1;fill-rule:evenodd;stroke:#000000;stroke-width:0.52916664;stroke-linecap:round;stroke-linejoin:round;stroke-miterlimit:4;stroke-dasharray:none;stroke-opacity:1;paint-order:fill markers stroke" />
    <path
       style="fill:#ffd700;stroke:#000000;stroke-width:0.5291667;stroke-linecap:round;stroke-linejoin:round;stroke-miterlimit:4;stroke-dasharray:none;stroke-opacity:1;fill-opacity:1"
       d="m -101.23243,-116.26556 c 0.19193,0.62034 0.5049,1.20299 0.91612,1.70555 0.500826,0.61206 1.147598,1.10388 1.871238,1.42292 l 0.711459,-0.66273 c -0.551061,-0.3325 -1.049621,-0.75182 -1.47165,-1.23774 -0.402761,-0.46373 -0.735755,-0.98795 -0.984347,-1.54962 z"
       id="path1870-3-2"
       inkscape:connector-curvature="0"
       inkscape:path-effect="#path-effect1872-3-7"
       inkscape:original-d="m -101.23243,-116.26556 c 0,0 0.49704,1.2148 0.91612,1.70555 0.508865,0.59589 1.871238,1.42292 1.871238,1.42292 l 0.711459,-0.66273 c 0,0 -1.049614,-0.7553 -1.47165,-1.23774 -0.402914,-0.46058 -0.984347,-1.54962 -0.984347,-1.54962 z"
       sodipodi:nodetypes="caccacc"
       transform="matrix(-1,0,0,1,-22.833948,-0.02923804)" />
    <circle
       style="opacity:1;fill:#ffd700;fill-opacity:1;fill-rule:evenodd;stroke:#000000;stroke-width:0.52916664;stroke-linecap:round;stroke-linejoin:round;stroke-miterlimit:4;stroke-dasharray:none;stroke-opacity:1;paint-order:fill markers stroke"
       id="path1874-4-3"
       cx="-77.998276"
       cy="-117.20181"
       r="1.7354167"
       transform="scale(-1,1)" />
    <rect
       style="opacity:1;fill:#ffffff;fill-opacity:1;fill-rule:evenodd;stroke:#000000;stroke-width:0.79374999;stroke-linecap:round;stroke-linejoin:round;stroke-miterlimit:4;stroke-dasharray:none;stroke-opacity:1;paint-order:fill markers stroke"
       id="rect1823-7"
       width="41.485279"
       height="23.959412"
       x="37.926369"
       y="-99.403572" />
    <path
       style="fill:#ff0000;stroke:#000000;stroke-width:0.79374999;stroke-linecap:round;stroke-linejoin:round;stroke-miterlimit:4;stroke-dasharray:none;stroke-opacity:1;fill-opacity:1"
       d="m 41.711126,-114.51768 -2.592091,7.00887 -3.83853,8.105463 h 23.388241 23.388753 l -3.838524,-8.105463 -2.592607,-7.00887 H 58.668746 Z"
       id="path1852-3"
       inkscape:connector-curvature="0" />
    <path
       style="opacity:1;fill:#ffffff;fill-opacity:1;fill-rule:evenodd;stroke:#000000;stroke-width:0.52916667;stroke-linecap:round;stroke-linejoin:round;stroke-miterlimit:4;stroke-dasharray:none;stroke-opacity:1;paint-order:fill markers stroke"
       d="m 31.649986,-85.887892 v 12.140861 H 85.68803 v -12.140861 h -7.640875 v 5.961909 h -5.040522 v -5.961909 h -6.19807 v 5.961909 h -5.040519 v -5.961909 h -6.198071 v 5.961909 h -5.040519 v -5.961909 h -6.198071 v 5.961909 h -5.040519 v -5.961909 z"
       id="rect2019"
       inkscape:connector-curvature="0" />
    <rect
       style="opacity:1;fill:#ffffff;fill-opacity:1;fill-rule:evenodd;stroke:#000000;stroke-width:0.52916664;stroke-linecap:round;stroke-linejoin:round;stroke-miterlimit:4;stroke-dasharray:none;stroke-opacity:1;paint-order:fill markers stroke"
       id="rect2058"
       width="10.753587"
       height="4.3081484"
       x="42.538628"
       y="-56.525116" />
    <rect
       style="opacity:1;fill:#ffffff;fill-opacity:1;fill-rule:evenodd;stroke:#000000;stroke-width:0.52916664;stroke-linecap:round;stroke-linejoin:round;stroke-miterlimit:4;stroke-dasharray:none;stroke-opacity:1;paint-order:fill markers stroke"
       id="rect2058-6"
       width="10.753587"
       height="4.3081484"
       x="53.292213"
       y="-56.525116" />
    <rect
       style="opacity:1;fill:#ffffff;fill-opacity:1;fill-rule:evenodd;stroke:#000000;stroke-width:0.52916664;stroke-linecap:round;stroke-linejoin:round;stroke-miterlimit:4;stroke-dasharray:none;stroke-opacity:1;paint-order:fill markers stroke"
       id="rect2058-9"
       width="10.753587"
       height="4.3081484"
       x="31.785032"
       y="-56.525116" />
    <rect
       style="opacity:1;fill:#ffffff;fill-opacity:1;fill-rule:evenodd;stroke:#000000;stroke-width:0.52916664;stroke-linecap:round;stroke-linejoin:round;stroke-miterlimit:4;stroke-dasharray:none;stroke-opacity:1;paint-order:fill markers stroke"
       id="rect2058-0"
       width="10.753587"
       height="4.3081484"
       x="64.045807"
       y="-56.525116" />
    <rect
       style="opacity:1;fill:#ffffff;fill-opacity:1;fill-rule:evenodd;stroke:#000000;stroke-width:0.52916664;stroke-linecap:round;stroke-linejoin:round;stroke-miterlimit:4;stroke-dasharray:none;stroke-opacity:1;paint-order:fill markers stroke"
       id="rect2058-5"
       width="10.753587"
       height="4.3081484"
       x="74.7994"
       y="-56.525116" />
    <rect
       y="-60.833263"
       x="37.161835"
       height="4.3081484"
       width="10.753587"
       id="rect2058-68"
       style="opacity:1;fill:#ffffff;fill-opacity:1;fill-rule:evenodd;stroke:#000000;stroke-width:0.52916664;stroke-linecap:round;stroke-linejoin:round;stroke-miterlimit:4;stroke-dasharray:none;stroke-opacity:1;paint-order:fill markers stroke" />
    <rect
       y="-60.833263"
       x="47.915421"
       height="4.3081484"
       width="10.753587"
       id="rect2058-6-3"
       style="opacity:1;fill:#ffffff;fill-opacity:1;fill-rule:evenodd;stroke:#000000;stroke-width:0.52916664;stroke-linecap:round;stroke-linejoin:round;stroke-miterlimit:4;stroke-dasharray:none;stroke-opacity:1;paint-order:fill markers stroke" />
    <rect
       y="-60.833263"
       x="26.408243"
       height="4.3081484"
       width="10.753587"
       id="rect2058-9-0"
       style="opacity:1;fill:#ffffff;fill-opacity:1;fill-rule:evenodd;stroke:#000000;stroke-width:0.52916664;stroke-linecap:round;stroke-linejoin:round;stroke-miterlimit:4;stroke-dasharray:none;stroke-opacity:1;paint-order:fill markers stroke" />
    <rect
       y="-60.833263"
       x="58.669014"
       height="4.3081484"
       width="10.753587"
       id="rect2058-0-2"
       style="opacity:1;fill:#ffffff;fill-opacity:1;fill-rule:evenodd;stroke:#000000;stroke-width:0.52916664;stroke-linecap:round;stroke-linejoin:round;stroke-miterlimit:4;stroke-dasharray:none;stroke-opacity:1;paint-order:fill markers stroke" />
    <rect
       y="-60.833263"
       x="69.422607"
       height="4.3081484"
       width="10.753587"
       id="rect2058-5-4"
       style="opacity:1;fill:#ffffff;fill-opacity:1;fill-rule:evenodd;stroke:#000000;stroke-width:0.52916664;stroke-linecap:round;stroke-linejoin:round;stroke-miterlimit:4;stroke-dasharray:none;stroke-opacity:1;paint-order:fill markers stroke" />
    <rect
       y="-60.833263"
       x="80.176193"
       height="4.3081484"
       width="10.753587"
       id="rect2058-9-4"
       style="opacity:1;fill:#ffffff;fill-opacity:1;fill-rule:evenodd;stroke:#000000;stroke-width:0.52916664;stroke-linecap:round;stroke-linejoin:round;stroke-miterlimit:4;stroke-dasharray:none;stroke-opacity:1;paint-order:fill markers stroke" />
    <path
       style="opacity:1;fill:#ffffff;fill-opacity:1;fill-rule:evenodd;stroke:#000000;stroke-width:1.99999988;stroke-linecap:round;stroke-linejoin:round;stroke-miterlimit:4;stroke-dasharray:none;stroke-opacity:1;paint-order:fill markers stroke"
       d="M 197.6875 475.65625 L 197.6875 491.93945 L 197.6875 508.22266 L 238.33008 508.22266 L 238.33008 491.93945 L 238.33008 475.65625 L 197.6875 475.65625 z "
       transform="matrix(0.26458333,0,0,0.26458333,-9.7660932,-173.75953)"
       id="rect2058-3" />
    <path
       style="opacity:1;fill:#ffffff;fill-opacity:1;fill-rule:evenodd;stroke:#000000;stroke-width:1.99999988;stroke-linecap:round;stroke-linejoin:round;stroke-miterlimit:4;stroke-dasharray:none;stroke-opacity:1;paint-order:fill markers stroke"
       d="M 238.33008 475.65625 L 238.33008 491.93945 L 238.33008 508.22266 L 278.97461 508.22266 L 278.97461 491.93945 L 278.97461 475.65625 L 238.33008 475.65625 z "
       transform="matrix(0.26458333,0,0,0.26458333,-9.7660932,-173.75953)"
       id="rect2058-6-1" />
    <path
       style="opacity:1;fill:#ffffff;fill-opacity:1;fill-rule:evenodd;stroke:#000000;stroke-width:1.99999988;stroke-linecap:round;stroke-linejoin:round;stroke-miterlimit:4;stroke-dasharray:none;stroke-opacity:1;paint-order:fill markers stroke"
       d="M 157.04297 475.65625 L 157.04297 491.93945 L 157.04297 508.22266 L 197.6875 508.22266 L 197.6875 491.93945 L 197.6875 475.65625 L 157.04297 475.65625 z "
       transform="matrix(0.26458333,0,0,0.26458333,-9.7660932,-173.75953)"
       id="rect2058-9-5" />
    <path
       style="opacity:1;fill:#ffffff;fill-opacity:1;fill-rule:evenodd;stroke:#000000;stroke-width:1.99999988;stroke-linecap:round;stroke-linejoin:round;stroke-miterlimit:4;stroke-dasharray:none;stroke-opacity:1;paint-order:fill markers stroke"
       d="M 278.97461 475.65625 L 278.97461 491.93945 L 278.97461 508.22266 L 319.61719 508.22266 L 319.61719 491.93945 L 319.61719 475.65625 L 278.97461 475.65625 z "
       transform="matrix(0.26458333,0,0,0.26458333,-9.7660932,-173.75953)"
       id="rect2058-0-3" />
    <path
       style="opacity:1;fill:#ffffff;fill-opacity:1;fill-rule:evenodd;stroke:#000000;stroke-width:1.99999988;stroke-linecap:round;stroke-linejoin:round;stroke-miterlimit:4;stroke-dasharray:none;stroke-opacity:1;paint-order:fill markers stroke"
       d="M 319.61719 475.65625 L 319.61719 491.93945 L 319.61719 508.22266 L 360.26172 508.22266 L 360.26172 491.93945 L 360.26172 475.65625 L 319.61719 475.65625 z "
       transform="matrix(0.26458333,0,0,0.26458333,-9.7660932,-173.75953)"
       id="rect2058-5-9" />
    <rect
       y="-52.216969"
       x="37.161835"
       height="4.3081484"
       width="10.753587"
       id="rect2058-68-3"
       style="opacity:1;fill:#ffffff;fill-opacity:1;fill-rule:evenodd;stroke:#000000;stroke-width:0.52916664;stroke-linecap:round;stroke-linejoin:round;stroke-miterlimit:4;stroke-dasharray:none;stroke-opacity:1;paint-order:fill markers stroke" />
    <rect
       y="-52.216969"
       x="47.915421"
       height="4.3081484"
       width="10.753587"
       id="rect2058-6-3-0"
       style="opacity:1;fill:#ffffff;fill-opacity:1;fill-rule:evenodd;stroke:#000000;stroke-width:0.52916664;stroke-linecap:round;stroke-linejoin:round;stroke-miterlimit:4;stroke-dasharray:none;stroke-opacity:1;paint-order:fill markers stroke" />
    <rect
       y="-52.216969"
       x="26.408243"
       height="4.3081484"
       width="10.753587"
       id="rect2058-9-0-2"
       style="opacity:1;fill:#ffffff;fill-opacity:1;fill-rule:evenodd;stroke:#000000;stroke-width:0.52916664;stroke-linecap:round;stroke-linejoin:round;stroke-miterlimit:4;stroke-dasharray:none;stroke-opacity:1;paint-order:fill markers stroke" />
    <rect
       y="-52.216969"
       x="58.669014"
       height="4.3081484"
       width="10.753587"
       id="rect2058-0-2-9"
       style="opacity:1;fill:#ffffff;fill-opacity:1;fill-rule:evenodd;stroke:#000000;stroke-width:0.52916664;stroke-linecap:round;stroke-linejoin:round;stroke-miterlimit:4;stroke-dasharray:none;stroke-opacity:1;paint-order:fill markers stroke" />
    <rect
       y="-52.216969"
       x="69.422607"
       height="4.3081484"
       width="10.753587"
       id="rect2058-5-4-7"
       style="opacity:1;fill:#ffffff;fill-opacity:1;fill-rule:evenodd;stroke:#000000;stroke-width:0.52916664;stroke-linecap:round;stroke-linejoin:round;stroke-miterlimit:4;stroke-dasharray:none;stroke-opacity:1;paint-order:fill markers stroke" />
    <rect
       y="-52.216965"
       x="80.176193"
       height="4.3081484"
       width="10.753587"
       id="rect2058-9-4-7"
       style="opacity:1;fill:#ffffff;fill-opacity:1;fill-rule:evenodd;stroke:#000000;stroke-width:0.52916664;stroke-linecap:round;stroke-linejoin:round;stroke-miterlimit:4;stroke-dasharray:none;stroke-opacity:1;paint-order:fill markers stroke" />
    <rect
       style="opacity:1;fill:#ffffff;fill-opacity:1;fill-rule:evenodd;stroke:#000000;stroke-width:0.52916664;stroke-linecap:round;stroke-linejoin:round;stroke-miterlimit:4;stroke-dasharray:none;stroke-opacity:1;paint-order:fill markers stroke"
       id="rect2058-60"
       width="10.753587"
       height="4.3081484"
       x="42.538635"
       y="-65.141411" />
    <rect
       style="opacity:1;fill:#ffffff;fill-opacity:1;fill-rule:evenodd;stroke:#000000;stroke-width:0.52916664;stroke-linecap:round;stroke-linejoin:round;stroke-miterlimit:4;stroke-dasharray:none;stroke-opacity:1;paint-order:fill markers stroke"
       id="rect2058-6-7"
       width="10.753587"
       height="4.3081484"
       x="53.292221"
       y="-65.141411" />
    <rect
       style="opacity:1;fill:#ffffff;fill-opacity:1;fill-rule:evenodd;stroke:#000000;stroke-width:0.52916664;stroke-linecap:round;stroke-linejoin:round;stroke-miterlimit:4;stroke-dasharray:none;stroke-opacity:1;paint-order:fill markers stroke"
       id="rect2058-9-40"
       width="10.753587"
       height="4.3081484"
       x="31.785042"
       y="-65.141411" />
    <rect
       style="opacity:1;fill:#ffffff;fill-opacity:1;fill-rule:evenodd;stroke:#000000;stroke-width:0.52916664;stroke-linecap:round;stroke-linejoin:round;stroke-miterlimit:4;stroke-dasharray:none;stroke-opacity:1;paint-order:fill markers stroke"
       id="rect2058-0-8"
       width="10.753587"
       height="4.3081484"
       x="64.045815"
       y="-65.141411" />
    <rect
       style="opacity:1;fill:#ffffff;fill-opacity:1;fill-rule:evenodd;stroke:#000000;stroke-width:0.52916664;stroke-linecap:round;stroke-linejoin:round;stroke-miterlimit:4;stroke-dasharray:none;stroke-opacity:1;paint-order:fill markers stroke"
       id="rect2058-5-6"
       width="10.753587"
       height="4.3081484"
       x="74.799408"
       y="-65.141411" />
    <rect
       y="-69.449562"
       x="37.161846"
       height="4.3081484"
       width="10.753587"
       id="rect2058-68-4"
       style="opacity:1;fill:#ffffff;fill-opacity:1;fill-rule:evenodd;stroke:#000000;stroke-width:0.52916664;stroke-linecap:round;stroke-linejoin:round;stroke-miterlimit:4;stroke-dasharray:none;stroke-opacity:1;paint-order:fill markers stroke" />
    <rect
       y="-69.449562"
       x="47.915432"
       height="4.3081484"
       width="10.753587"
       id="rect2058-6-3-3"
       style="opacity:1;fill:#ffffff;fill-opacity:1;fill-rule:evenodd;stroke:#000000;stroke-width:0.52916664;stroke-linecap:round;stroke-linejoin:round;stroke-miterlimit:4;stroke-dasharray:none;stroke-opacity:1;paint-order:fill markers stroke" />
    <rect
       y="-69.449562"
       x="26.408253"
       height="4.3081484"
       width="10.753587"
       id="rect2058-9-0-3"
       style="opacity:1;fill:#ffffff;fill-opacity:1;fill-rule:evenodd;stroke:#000000;stroke-width:0.52916664;stroke-linecap:round;stroke-linejoin:round;stroke-miterlimit:4;stroke-dasharray:none;stroke-opacity:1;paint-order:fill markers stroke" />
    <rect
       y="-69.449562"
       x="58.669025"
       height="4.3081484"
       width="10.753587"
       id="rect2058-0-2-4"
       style="opacity:1;fill:#ffffff;fill-opacity:1;fill-rule:evenodd;stroke:#000000;stroke-width:0.52916664;stroke-linecap:round;stroke-linejoin:round;stroke-miterlimit:4;stroke-dasharray:none;stroke-opacity:1;paint-order:fill markers stroke" />
    <rect
       y="-69.449562"
       x="69.422615"
       height="4.3081484"
       width="10.753587"
       id="rect2058-5-4-5"
       style="opacity:1;fill:#ffffff;fill-opacity:1;fill-rule:evenodd;stroke:#000000;stroke-width:0.52916664;stroke-linecap:round;stroke-linejoin:round;stroke-miterlimit:4;stroke-dasharray:none;stroke-opacity:1;paint-order:fill markers stroke" />
    <rect
       y="-69.449562"
       x="80.176201"
       height="4.3081484"
       width="10.753587"
       id="rect2058-9-4-3"
       style="opacity:1;fill:#ffffff;fill-opacity:1;fill-rule:evenodd;stroke:#000000;stroke-width:0.52916664;stroke-linecap:round;stroke-linejoin:round;stroke-miterlimit:4;stroke-dasharray:none;stroke-opacity:1;paint-order:fill markers stroke" />
    <rect
       style="opacity:1;fill:#ffffff;fill-opacity:1;fill-rule:evenodd;stroke:#000000;stroke-width:0.52916664;stroke-linecap:round;stroke-linejoin:round;stroke-miterlimit:4;stroke-dasharray:none;stroke-opacity:1;paint-order:fill markers stroke"
       id="rect2058-60-6"
       width="10.753587"
       height="4.3081484"
       x="42.538635"
       y="-73.757706" />
    <rect
       style="opacity:1;fill:#ffffff;fill-opacity:1;fill-rule:evenodd;stroke:#000000;stroke-width:0.52916664;stroke-linecap:round;stroke-linejoin:round;stroke-miterlimit:4;stroke-dasharray:none;stroke-opacity:1;paint-order:fill markers stroke"
       id="rect2058-6-7-2"
       width="10.753587"
       height="4.3081484"
       x="53.292221"
       y="-73.757706" />
    <rect
       style="opacity:1;fill:#ffffff;fill-opacity:1;fill-rule:evenodd;stroke:#000000;stroke-width:0.52916664;stroke-linecap:round;stroke-linejoin:round;stroke-miterlimit:4;stroke-dasharray:none;stroke-opacity:1;paint-order:fill markers stroke"
       id="rect2058-9-40-4"
       width="10.753587"
       height="4.3081484"
       x="31.78504"
       y="-73.757706" />
    <rect
       style="opacity:1;fill:#ffffff;fill-opacity:1;fill-rule:evenodd;stroke:#000000;stroke-width:0.52916664;stroke-linecap:round;stroke-linejoin:round;stroke-miterlimit:4;stroke-dasharray:none;stroke-opacity:1;paint-order:fill markers stroke"
       id="rect2058-0-8-4"
       width="10.753587"
       height="4.3081484"
       x="64.045815"
       y="-73.757706" />
    <rect
       style="opacity:1;fill:#ffffff;fill-opacity:1;fill-rule:evenodd;stroke:#000000;stroke-width:0.52916664;stroke-linecap:round;stroke-linejoin:round;stroke-miterlimit:4;stroke-dasharray:none;stroke-opacity:1;paint-order:fill markers stroke"
       id="rect2058-5-6-2"
       width="10.753587"
       height="4.3081484"
       x="74.799408"
       y="-73.757706" />
    <path
       inkscape:connector-curvature="0"
       style="opacity:1;fill:#ffffff;fill-opacity:1;fill-rule:evenodd;stroke:#000000;stroke-width:0.79374999;stroke-linecap:round;stroke-linejoin:round;stroke-miterlimit:4;stroke-dasharray:none;stroke-opacity:1;paint-order:fill markers stroke"
       d="m 103.85474,-99.108789 v 60.004605 h 6.14846 c 8.63264,-10.24469 14.0261,-23.529168 14.64148,-39.058596 l 0.0677,-20.946009 z"
       id="rect2457-4" />
    <path
       inkscape:connector-curvature="0"
       style="opacity:1;fill:#ffffff;fill-opacity:1;fill-rule:evenodd;stroke:#000000;stroke-width:0.79374999;stroke-linecap:round;stroke-linejoin:round;stroke-miterlimit:4;stroke-dasharray:none;stroke-opacity:1;paint-order:fill markers stroke"
       d="m 103.85474,-108.58005 v 9.471261 h 20.85763 l 0.0305,-9.471261 h -4.27622 v 4.29173 h -3.14658 v -4.29173 h -4.77283 v 4.29173 h -3.14658 v -4.29173 z"
       id="rect2459-2"
       sodipodi:nodetypes="ccccccccccccc" />
    <path
       style="fill:#ffd700;fill-opacity:1;stroke:#000000;stroke-width:0.5291667;stroke-linecap:round;stroke-linejoin:round;stroke-miterlimit:4;stroke-dasharray:none;stroke-opacity:1"
       d="m -101.23243,-116.26556 c 0.19193,0.62034 0.5049,1.20299 0.91612,1.70555 0.500826,0.61206 1.147598,1.10388 1.871238,1.42292 l 0.711459,-0.66273 c -0.551061,-0.3325 -1.049621,-0.75182 -1.47165,-1.23774 -0.402761,-0.46373 -0.735755,-0.98795 -0.984347,-1.54962 z"
       id="path1870-8-5-1"
       inkscape:connector-curvature="0"
       inkscape:path-effect="#path-effect1872-0-8-3"
       inkscape:original-d="m -101.23243,-116.26556 c 0,0 0.49704,1.2148 0.91612,1.70555 0.508865,0.59589 1.871238,1.42292 1.871238,1.42292 l 0.711459,-0.66273 c 0,0 -1.049614,-0.7553 -1.47165,-1.23774 -0.402914,-0.46058 -0.984347,-1.54962 -0.984347,-1.54962 z"
       sodipodi:nodetypes="caccacc"
       transform="translate(185.09737,-32.734539)" />
    <circle
       style="opacity:1;fill:#ffd700;fill-opacity:1;fill-rule:evenodd;stroke:#000000;stroke-width:0.52916664;stroke-linecap:round;stroke-linejoin:round;stroke-miterlimit:4;stroke-dasharray:none;stroke-opacity:1;paint-order:fill markers stroke"
       id="path1874-1-4-0"
       cx="84.265137"
       cy="-149.90712"
       r="1.7354168" />
    <path
       style="fill:#ffd700;fill-opacity:1;stroke:#000000;stroke-width:0.5291667;stroke-linecap:round;stroke-linejoin:round;stroke-miterlimit:4;stroke-dasharray:none;stroke-opacity:1"
       d="m -101.23243,-116.26556 c 0.19193,0.62034 0.5049,1.20299 0.91612,1.70555 0.500826,0.61206 1.147598,1.10388 1.871238,1.42292 l 0.711459,-0.66273 c -0.551061,-0.3325 -1.049621,-0.75182 -1.47165,-1.23774 -0.402761,-0.46373 -0.735755,-0.98795 -0.984347,-1.54962 z"
       id="path1870-3-2-5-1"
       inkscape:connector-curvature="0"
       inkscape:path-effect="#path-effect1872-3-7-6-9"
       inkscape:original-d="m -101.23243,-116.26556 c 0,0 0.49704,1.2148 0.91612,1.70555 0.508865,0.59589 1.871238,1.42292 1.871238,1.42292 l 0.711459,-0.66273 c 0,0 -1.049614,-0.7553 -1.47165,-1.23774 -0.402914,-0.46058 -0.984347,-1.54962 -0.984347,-1.54962 z"
       sodipodi:nodetypes="caccacc"
       transform="matrix(-1,0,0,1,4.63376,-32.73454)" />
    <circle
       style="opacity:1;fill:#ffd700;fill-opacity:1;fill-rule:evenodd;stroke:#000000;stroke-width:0.52916664;stroke-linecap:round;stroke-linejoin:round;stroke-miterlimit:4;stroke-dasharray:none;stroke-opacity:1;paint-order:fill markers stroke"
       id="path1874-4-3-8-2"
       cx="-105.46598"
       cy="-149.90712"
       r="1.7354168"
       transform="scale(-1,1)" />
    <rect
       style="opacity:1;fill:#ffffff;fill-opacity:1;fill-rule:evenodd;stroke:#000000;stroke-width:0.79374999;stroke-linecap:round;stroke-linejoin:round;stroke-miterlimit:4;stroke-dasharray:none;stroke-opacity:1;paint-order:fill markers stroke"
       id="rect2563-2"
       width="22.935047"
       height="93.752029"
       x="83.192375"
       y="-132.05725" />
    <path
       style="fill:#ff0000;fill-opacity:1;stroke:#000000;stroke-width:0.79374993;stroke-linecap:round;stroke-linejoin:round;stroke-miterlimit:4;stroke-dasharray:none;stroke-opacity:1"
       d="m 85.274431,-147.17162 -1.334368,7.00888 -2.224707,8.10546 h 12.944398 12.944676 l -2.22436,-8.10546 -1.335,-7.00888 h -9.385316 z"
       id="path1852-3-2-0"
       inkscape:connector-curvature="0"
       sodipodi:nodetypes="ccccccccc" />
    <rect
       style="opacity:1;fill:none;fill-opacity:1;fill-rule:evenodd;stroke:#000000;stroke-width:0.5291667;stroke-linecap:round;stroke-linejoin:round;stroke-miterlimit:4;stroke-dasharray:none;stroke-opacity:1;paint-order:fill markers stroke"
       id="rect2658-6"
       width="1.9708333"
       height="1.9708333"
       x="93.674484"
       y="-103.2096" />
    <rect
       style="opacity:1;fill:none;fill-opacity:1;fill-rule:evenodd;stroke:#000000;stroke-width:0.52916676;stroke-linecap:round;stroke-linejoin:round;stroke-miterlimit:4;stroke-dasharray:none;stroke-opacity:1;paint-order:fill markers stroke"
       id="rect2658-9-81"
       width="1.9708333"
       height="1.9708333"
       x="134.37917"
       y="-9.2743607"
       transform="rotate(-45)" />
    <rect
       style="opacity:1;fill:none;fill-opacity:1;fill-rule:evenodd;stroke:#000000;stroke-width:0.52916682;stroke-linecap:round;stroke-linejoin:round;stroke-miterlimit:4;stroke-dasharray:none;stroke-opacity:1;paint-order:fill markers stroke"
       id="rect2658-9-8-0"
       width="1.9708333"
       height="1.9708333"
       x="127.32273"
       y="24.227633"
       transform="rotate(-60)" />
    <rect
       style="opacity:1;fill:none;fill-opacity:1;fill-rule:evenodd;stroke:#000000;stroke-width:0.52916682;stroke-linecap:round;stroke-linejoin:round;stroke-miterlimit:4;stroke-dasharray:none;stroke-opacity:1;paint-order:fill markers stroke"
       id="rect2658-9-3-7"
       width="1.9708333"
       height="1.9708333"
       x="0.50983506"
       y="-143.14366"
       transform="matrix(-0.70710678,-0.70710678,-0.70710678,0.70710678,0,0)" />
    <rect
       style="opacity:1;fill:none;fill-opacity:1;fill-rule:evenodd;stroke:#000000;stroke-width:0.52916682;stroke-linecap:round;stroke-linejoin:round;stroke-miterlimit:4;stroke-dasharray:none;stroke-opacity:1;paint-order:fill markers stroke"
       id="rect2658-9-8-7-3"
       width="1.9708333"
       height="1.9708333"
       x="32.662834"
       y="-139.72812"
       transform="matrix(-0.5,-0.8660254,-0.8660254,0.5,0,0)" />
    <path
       style="opacity:1;fill:#ffffff;fill-opacity:1;fill-rule:evenodd;stroke:#000000;stroke-width:3.00094489;stroke-linecap:round;stroke-linejoin:round;stroke-miterlimit:4;stroke-dasharray:none;stroke-opacity:1;paint-order:fill markers stroke"
       d="M 33.455078 202.17383 L 33.455078 468.79297 C 40.533733 482.08568 48.808898 494.48247 58.128906 505.91797 L 159.02148 505.91797 L 159.02148 202.17383 L 33.455078 202.17383 z "
       transform="matrix(0.26458333,0,0,0.26458333,-9.7660932,-173.75953)"
       id="rect1085-9" />
    <path
       style="opacity:1;fill:#ffffff;fill-opacity:1;fill-rule:evenodd;stroke:#000000;stroke-width:0.79374999;stroke-linecap:round;stroke-linejoin:round;stroke-miterlimit:4;stroke-dasharray:none;stroke-opacity:1;paint-order:fill markers stroke"
       d="m -3.045875,-129.39791 v 9.1302 h 37.485571 v -9.1302 h -5.76503 v 3.56929 h -4.500502 v -3.56929 h -6.227008 v 3.56929 h -4.500501 v -3.56929 h -6.22701 v 3.56929 h -4.5005 v -3.56929 z"
       id="rect1087-5"
       inkscape:connector-curvature="0" />
    <rect
       style="opacity:1;fill:none;fill-opacity:1;fill-rule:evenodd;stroke:#000000;stroke-width:0.52916676;stroke-linecap:round;stroke-linejoin:round;stroke-miterlimit:4;stroke-dasharray:none;stroke-opacity:1;paint-order:fill markers stroke"
       id="rect2658-6-5-8"
       width="1.9708333"
       height="1.9708333"
       x="14.711499"
       y="-102.59862" />
    <rect
       style="opacity:1;fill:none;fill-opacity:1;fill-rule:evenodd;stroke:#000000;stroke-width:0.52916682;stroke-linecap:round;stroke-linejoin:round;stroke-miterlimit:4;stroke-dasharray:none;stroke-opacity:1;paint-order:fill markers stroke"
       id="rect2658-9-81-7-5"
       width="1.9708333"
       height="1.9708333"
       x="78.111862"
       y="-64.677589"
       transform="rotate(-45)" />
    <rect
       style="opacity:1;fill:none;fill-opacity:1;fill-rule:evenodd;stroke:#000000;stroke-width:0.52916682;stroke-linecap:round;stroke-linejoin:round;stroke-miterlimit:4;stroke-dasharray:none;stroke-opacity:1;paint-order:fill markers stroke"
       id="rect2658-9-8-0-8-0"
       width="1.9708333"
       height="1.9708333"
       x="87.312103"
       y="-43.85083"
       transform="rotate(-60)" />
    <rect
       style="opacity:1;fill:none;fill-opacity:1;fill-rule:evenodd;stroke:#000000;stroke-width:0.52916682;stroke-linecap:round;stroke-linejoin:round;stroke-miterlimit:4;stroke-dasharray:none;stroke-opacity:1;paint-order:fill markers stroke"
       id="rect2658-9-3-7-4-0"
       width="1.9708333"
       height="1.9708333"
       x="55.913078"
       y="-86.876358"
       transform="matrix(-0.70710678,-0.70710678,-0.70710678,0.70710678,0,0)" />
    <rect
       style="opacity:1;fill:none;fill-opacity:1;fill-rule:evenodd;stroke:#000000;stroke-width:0.52916682;stroke-linecap:round;stroke-linejoin:round;stroke-miterlimit:4;stroke-dasharray:none;stroke-opacity:1;paint-order:fill markers stroke"
       id="rect2658-9-8-7-3-6-5"
       width="1.9708333"
       height="1.9708333"
       x="71.615211"
       y="-71.038666"
       transform="matrix(-0.5,-0.8660254,-0.8660254,0.5,0,0)" />
    <path
       style="opacity:1;fill:#000000;fill-opacity:1;fill-rule:evenodd;stroke:none;stroke-width:3;stroke-linecap:round;stroke-linejoin:round;stroke-miterlimit:4;stroke-dasharray:none;stroke-opacity:1;paint-order:fill markers stroke"
       d="M 96.238281 76.109375 C 93.837794 76.108959 91.890844 78.01893 91.890625 80.373047 L 91.890625 88.759766 L 100.58398 88.759766 L 100.58398 80.373047 C 100.58371 78.019346 98.638281 76.109526 96.238281 76.109375 z M 96.238281 117.41016 C 93.431234 117.40955 91.154558 120.07165 91.154297 123.35742 L 91.154297 135.06445 L 101.32031 135.06445 L 101.32031 123.35742 C 101.32001 120.07222 99.044815 117.41038 96.238281 117.41016 z M 70.322266 233.05664 A 6.2912106 5.9447217 0 0 0 64.029297 239 L 64.029297 250.69922 L 76.613281 250.69922 L 76.613281 239 A 6.2912106 5.9447217 0 0 0 70.322266 233.05664 z M 122.15625 233.05664 A 6.2912106 5.9447217 0 0 0 115.86328 239 L 115.86328 250.69922 L 128.44727 250.69922 L 128.44727 239 A 6.2912106 5.9447217 0 0 0 122.15625 233.05664 z M 378.58594 282.52148 C 374.74149 282.52168 371.62503 287.54234 371.625 293.73438 L 371.625 337.26367 L 385.54688 337.26367 L 385.54688 293.73438 C 385.54684 287.54234 382.43038 282.52168 378.58594 282.52148 z M 410.77539 282.52148 C 406.93095 282.52167 403.81448 287.54234 403.81445 293.73438 L 403.81445 337.26367 L 417.73633 337.26367 L 417.73633 293.73438 C 417.73629 287.54237 414.61983 282.52167 410.77539 282.52148 z M 81.214844 289.88086 A 7.658779 8.4793654 0 0 0 73.554688 298.35938 L 73.554688 315.04492 L 88.873047 315.04492 L 88.873047 298.35938 A 7.658779 8.4793654 0 0 0 81.214844 289.88086 z M 111.26367 289.88086 A 7.658779 8.4793654 0 0 0 103.60352 298.35938 L 103.60352 315.04492 L 118.92188 315.04492 L 118.92188 298.35938 A 7.658779 8.4793654 0 0 0 111.26367 289.88086 z M 210.99219 298.66211 A 5.5898299 5.5988482 0 0 0 205.40234 304.25977 L 205.40234 310.77148 L 216.58203 310.77148 L 216.58203 304.25977 A 5.5898299 5.5988482 0 0 0 210.99219 298.66211 z M 258.65234 298.66211 A 5.5898299 5.5988482 0 0 0 253.0625 304.25977 L 253.0625 310.77148 L 264.24219 310.77148 L 264.24219 304.25977 A 5.5898299 5.5988482 0 0 0 258.65234 298.66211 z M 306.3125 298.66211 A 5.5898299 5.5988482 0 0 0 300.72266 304.25977 L 300.72266 310.77148 L 311.90234 310.77148 L 311.90234 304.25977 A 5.5898299 5.5988482 0 0 0 306.3125 298.66211 z M 472.60352 333.07422 A 6.9611525 17.439515 0 0 0 465.64258 350.51367 L 465.64258 418.2207 L 479.56445 418.2207 L 479.56445 350.51367 A 6.9611525 17.439515 0 0 0 472.60352 333.07422 z "
       transform="matrix(0.26458333,0,0,0.26458333,-9.7660932,-173.75953)"
       id="rect1825-0-3" />
    <path
       inkscape:connector-curvature="0"
       style="opacity:1;fill:#009a00;fill-opacity:1;fill-rule:evenodd;stroke:#000000;stroke-width:0.79400006;stroke-linecap:round;stroke-linejoin:round;stroke-miterlimit:4;stroke-dasharray:none;stroke-opacity:1;paint-order:fill markers stroke"
       d="m 13.830256,-44.646482 c -3.152613,1.465538 -6.6132946,2.263426 -10.0893057,2.324923 12.0953127,16.473006 32.0117147,26.132237 54.3801427,26.161193 22.410621,-0.0132 42.347257,-9.681813 54.433367,-26.188064 -3.44254,-0.266099 -6.84509,-1.040802 -10.06088,-2.298052 h -0.96067 c -3.283728,1.526543 -6.901993,2.330606 -10.523387,2.330606 -3.621394,0 -7.239143,-0.804063 -10.522871,-2.330606 h -0.88832 c -3.291374,1.497658 -6.89797,2.299626 -10.514086,2.330606 -3.765526,0.03226 -7.536307,-0.769532 -10.963153,-2.330606 -3.497781,1.577147 -7.342561,2.378964 -11.179164,2.330606 -3.61346,-0.04554 -7.214611,-0.846606 -10.509436,-2.330606 h -0.887801 c -3.21447,1.510959 -6.759501,2.314895 -10.311513,2.330606 -3.624236,0.01603 -7.248726,-0.788963 -10.528557,-2.330606 z"
       id="rect1392" />
    <path
       inkscape:connector-curvature="0"
       style="opacity:1;fill:#009a00;fill-opacity:1;fill-rule:evenodd;stroke:#000000;stroke-width:0.79375005;stroke-linecap:round;stroke-linejoin:round;stroke-miterlimit:4;stroke-dasharray:none;stroke-opacity:1;paint-order:fill markers stroke"
       d="m 90.44005,-34.369073 c -2.873264,1.335722 -6.002343,2.118109 -9.165849,2.292882 -0.207029,0.01143 -0.414407,0.01963 -0.621668,0.02585 -0.06354,0.0019 -0.127132,0.0038 -0.190685,0.0052 -0.162896,0.0036 -0.325914,0.0063 -0.48886,0.0067 -0.05996,1.62e-4 -0.119878,-7.93e-4 -0.179835,-0.0011 -0.180824,-7.94e-4 -0.361339,-0.0028 -0.542086,-0.0078 -0.0043,-1.11e-4 -0.0086,1.11e-4 -0.01291,0 -0.0091,-2.54e-4 -0.01826,-7.94e-4 -0.02739,-0.0011 -3.384174,-0.09744 -6.746758,-0.89299 -9.816972,-2.320271 h -0.233059 -0.655259 c -3.291218,1.497579 -6.897624,2.299554 -10.513568,2.330606 0,0 -5.29e-4,0 -5.29e-4,0 -0.0041,3.4e-5 -0.0083,-3.4e-5 -0.01241,0 -3.612591,-0.04585 -7.212809,-0.84696 -10.506852,-2.330606 h -0.4439 -0.443902 c -3.203718,1.505894 -6.735778,2.309177 -10.275858,2.33009 -0.0298,1.51e-4 -0.0596,-4.8e-5 -0.0894,0 -0.2086,5.29e-4 -0.417272,-0.0013 -0.625803,-0.0062 -3.396488,-0.0809 -6.77417,-0.878599 -9.849009,-2.323889 H 25.339619 24.86988 24.451817 c -3.21447,1.510951 -6.758987,2.314896 -10.310997,2.330607 -0.285816,0.0013 -0.571664,-0.0045 -0.857314,-0.01344 11.863078,10.143947 27.624405,15.868737 44.837575,15.89102 17.246486,-0.01016 33.029088,-5.737455 44.895449,-15.899289 -0.32224,0.0127 -0.64486,0.0217 -0.96738,0.0217 -0.20204,0 -0.4037,-0.0038 -0.60565,-0.0088 0.006,-0.0082 0.0121,-0.01614 0.0181,-0.02429 -3.188748,-0.24648 -6.341173,-0.93495 -9.344652,-2.033465 -0.197953,-0.08581 -0.395007,-0.173628 -0.590661,-0.264584 h -0.125574 -0.762746 z"
       id="rect1392-0" />
    <path
       style="opacity:1;fill:#009a00;fill-opacity:1;fill-rule:evenodd;stroke:#000000;stroke-width:3.00000024;stroke-linecap:round;stroke-linejoin:round;stroke-miterlimit:4;stroke-dasharray:none;stroke-opacity:1;paint-order:fill markers stroke"
       d="M 171.1543 561.4668 C 161.37799 566.06212 150.79231 568.9215 140.03516 569.89453 C 174.94934 586.57622 214.62404 595.59608 256.58203 595.65039 C 298.57942 595.62562 338.27999 586.62858 373.20508 569.96094 C 362.0865 569.05421 351.13082 566.17006 341.01367 561.4668 L 337.65625 561.4668 C 325.21641 567.12721 311.58518 570.1583 297.91797 570.27539 C 283.68606 570.39747 269.43428 567.3669 256.48242 561.4668 C 243.26246 567.42764 228.73102 570.45817 214.23047 570.27539 C 200.5733 570.10342 186.96267 567.07562 174.50977 561.4668 L 171.1543 561.4668 z "
       transform="matrix(0.26458333,0,0,0.26458333,-9.7660932,-173.75953)"
       id="rect1392-6" />
    <path
       style="fill:none;fill-rule:evenodd;stroke:#000000;stroke-width:2.11666656;stroke-linecap:round;stroke-linejoin:round;stroke-miterlimit:4;stroke-dasharray:none;stroke-opacity:1"
       inkscape:connector-curvature="0"
       d="m 124.95045,-172.7012 -0.30554,94.538483 c -1.48761,37.540969 -30.879458,61.981429 -66.523566,62.00245 -35.61204,-0.0461 -65.0148943,-24.497202 -66.5235543,-62.00245 l -0.30555,-94.538483 H 58.119744 Z"
       id="path10563-0-6-2-6-3"
       sodipodi:nodetypes="ccccccc" />
  </g>
</svg>
