<?xml version="1.0" encoding="UTF-8" standalone="no"?>
<!-- Created with Inkscape (http://www.inkscape.org/) -->

<svg
   width="125.38647mm"
   height="138.70297mm"
   viewBox="0 0 125.38647 138.70297"
   version="1.1"
   id="svg3604"
   inkscape:version="1.2.2 (732a01da63, 2022-12-09)"
   sodipodi:docname="Wappen Bothkamp2.svg"
   xmlns:inkscape="http://www.inkscape.org/namespaces/inkscape"
   xmlns:sodipodi="http://sodipodi.sourceforge.net/DTD/sodipodi-0.dtd"
   xmlns="http://www.w3.org/2000/svg"
   xmlns:svg="http://www.w3.org/2000/svg">
  <sodipodi:namedview
     id="namedview3606"
     pagecolor="#ffffff"
     bordercolor="#666666"
     borderopacity="1.0"
     inkscape:showpageshadow="2"
     inkscape:pageopacity="0.0"
     inkscape:pagecheckerboard="0"
     inkscape:deskcolor="#d1d1d1"
     inkscape:document-units="mm"
     showgrid="false"
     inkscape:zoom="1.0210749"
     inkscape:cx="241.41226"
     inkscape:cy="234.55674"
     inkscape:current-layer="layer1" />
  <defs
     id="defs3601" />
  <g
     inkscape:label="Ebene 1"
     inkscape:groupmode="layer"
     id="layer1"
     transform="translate(-522.49744,-86.699361)">
    <g
       id="g2998"
       transform="translate(478.65945,13.731885)">
      <path
         id="path687"
         style="fill:#0000ff;stroke:#000000;stroke-width:1.1;stroke-dasharray:none"
         d="m 44.387988,73.517476 v 76.569484 a 62.143192,61.033493 0 0 0 62.142982,61.03349 62.143192,61.033493 0 0 0 62.14349,-61.03349 V 73.517476 Z" />
      <path
         id="path1471"
         style="fill:#ffff00;stroke:#000000;stroke-width:0.6;stroke-dasharray:none"
         d="m 106.53097,83.50498 -62.030844,69.3813 a 62.143192,61.033493 0 0 0 62.030844,58.23417 62.143192,61.033493 0 0 0 62.03135,-58.23417 z" />
      <path
         sodipodi:type="star"
         style="fill:#ffff00;stroke:#000000;stroke-width:0.31302;stroke-linecap:square"
         id="path361"
         inkscape:flatsided="false"
         sodipodi:sides="14"
         sodipodi:cx="117.98199"
         sodipodi:cy="92.025955"
         sodipodi:r1="16.264597"
         sodipodi:r2="8.6202383"
         sodipodi:arg1="0.78539816"
         sodipodi:arg2="1.0097976"
         inkscape:rounded="0"
         inkscape:randomized="0"
         d="m 129.48279,103.52676 -6.91456,-4.201841 0.78561,8.052921 -4.40669,-6.78585 -2.78622,7.59629 -1.02603,-8.02583 -5.8062,5.63513 2.55786,-7.676196 -7.6762,2.557856 5.63513,-5.8062 -8.02583,-1.026028 7.59629,-2.786217 -6.78584,-4.406696 8.05291,0.785613 -4.20184,-6.914564 6.91456,4.201843 -0.78561,-8.052918 4.4067,6.785846 2.78621,-7.596292 1.02603,8.025829 5.8062,-5.635129 -2.55785,7.676199 7.67619,-2.557858 -5.63512,5.806203 8.02583,1.026027 -7.5963,2.786217 6.78585,4.406696 -8.05292,-0.785613 z"
         inkscape:transform-center-x="2.800285e-06"
         inkscape:transform-center-y="-1.5100042e-06"
         transform="matrix(0.95711264,0.04978251,-0.04978251,0.95711264,40.311082,4.5396437)" />
      <g
         id="g1528"
         transform="translate(1.2283962,-0.57749313)">
        <path
           style="color:#000000;fill:#000000;stroke:#000000;stroke-width:0.5;stroke-linecap:square;stroke-dasharray:none"
           d="m 65.125,106.50391 c -0.531857,0.16462 -1.193761,0.66283 -1.912109,1.57617 -0.718349,0.91334 -1.483588,2.24499 -2.167969,4.08984 -0.705751,1.90246 -1.675781,5.4043 -1.675781,5.4043 l -0.01536,0.21302 0.347392,0.0878 0.05273,-0.19336 c 0,0 0.974434,-3.50683 1.666016,-5.37109 0.672411,-1.81259 1.420742,-3.10935 2.107422,-3.98242 0.686679,-0.87308 1.320771,-1.31883 1.716797,-1.44141 0.374018,-0.11577 0.649894,-0.084 0.876953,0.0195 0.227058,0.10349 0.409931,0.28817 0.550781,0.49609 0.2817,0.41585 0.380859,0.9043 0.380859,0.9043 l 0.03906,0.19727 0.392578,-0.0781 -0.03906,-0.19726 c 0,0 -0.105654,-0.55227 -0.443359,-1.05079 -0.168852,-0.24925 -0.399923,-0.49122 -0.714844,-0.63476 -0.31492,-0.14354 -0.710254,-0.17892 -1.162109,-0.0391 z"
           id="path1383"
           sodipodi:nodetypes="sssccccsssssccccssss" />
        <path
           style="color:#000000;fill:#000000;stroke:#000000;stroke-width:0.5;stroke-linecap:square;stroke-dasharray:none"
           d="m 60.644531,79.642578 c -0.18316,0.05456 -0.321067,0.192655 -0.441406,0.373047 -0.120339,0.180392 -0.226245,0.411638 -0.326172,0.693359 -0.199854,0.563442 -0.374255,1.330732 -0.529297,2.263672 -0.310084,1.865881 -0.538292,4.394799 -0.685547,7.226563 -0.294509,5.663528 -0.261639,12.531301 0.128907,17.652341 0.790198,10.36151 0.550781,20.27149 0.550781,20.27149 l -0.0059,0.20117 0.400391,0.01 0.0059,-0.20117 c 0,0 0.239402,-9.92558 -0.552734,-20.3125 -0.388616,-5.09573 -0.42246,-11.954458 -0.128906,-17.599607 0.146777,-2.822575 0.375931,-5.344035 0.68164,-7.183594 0.152855,-0.919779 0.325742,-1.66904 0.511719,-2.193359 0.09299,-0.262159 0.189503,-0.467937 0.28125,-0.605469 0.09175,-0.137532 0.176722,-0.198626 0.22461,-0.21289 0.14458,-0.04307 0.321088,-0.01533 0.541015,0.0957 0.219927,0.111029 0.470936,0.304292 0.730469,0.55664 0.519066,0.504697 1.074606,1.239877 1.578125,1.992188 1.007037,1.504622 1.810547,3.076172 1.810547,3.076172 l 0.0918,0.177734 0.355468,-0.181641 -0.0918,-0.177734 c 0,0 -0.810058,-1.58733 -1.833985,-3.117187 -0.511963,-0.764929 -1.075444,-1.516603 -1.630859,-2.056641 -0.277708,-0.270019 -0.554108,-0.487631 -0.830078,-0.626953 -0.27597,-0.139322 -0.521646,-0.209239 -0.794225,-0.128046 z"
           id="path1226"
           sodipodi:nodetypes="csssssccccsssssssssccccssscc" />
        <path
           style="color:#000000;fill:#000000;stroke:#000000;stroke-width:0.5;stroke-linecap:square;stroke-dasharray:none"
           d="m 55.277344,108.89453 c -0.386324,0.0317 -0.69737,0.29807 -0.955078,0.63477 -0.257709,0.3367 -0.469799,0.75969 -0.644532,1.17578 -0.349464,0.83218 -0.544922,1.64648 -0.544922,1.64648 l -0.04687,0.19336 0.390625,0.0937 0.04492,-0.19531 c 0,0 0.189592,-0.78899 0.523438,-1.58398 0.166923,-0.3975 0.372267,-0.79402 0.595703,-1.08594 0.223436,-0.29192 0.456504,-0.46298 0.669922,-0.48047 0.08329,-0.007 0.169865,0.0281 0.28125,0.13281 0.111385,0.10474 0.231564,0.27393 0.347656,0.47266 0.232185,0.39745 0.448904,0.9089 0.675781,1.30078 0.09432,0.16292 0.319331,0.63853 0.585938,1.23242 0.266607,0.59389 0.580703,1.31562 0.882812,2.01563 0.60422,1.40002 1.15625,2.70703 1.15625,2.70703 l 0.07617,0.18554 0.369141,-0.15625 L 59.607422,117 c 0,0 -0.551156,-1.30889 -1.15625,-2.71094 -0.302547,-0.70102 -0.618721,-1.42449 -0.886719,-2.02148 -0.267998,-0.59699 -0.481541,-1.0569 -0.603516,-1.26758 -0.205724,-0.35534 -0.423831,-0.87145 -0.675781,-1.30273 -0.125974,-0.21565 -0.260592,-0.41269 -0.419922,-0.5625 -0.159329,-0.14982 -0.361309,-0.25881 -0.58789,-0.24024 z"
           id="path1385" />
        <path
           style="color:#000000;fill:#000000;stroke:#000000;stroke-width:0.5;stroke-linecap:square;stroke-dasharray:none"
           d="m 50.515625,97.576172 c -0.433539,0.132951 -0.709266,0.470405 -0.859375,0.857422 -0.150109,0.387016 -0.191322,0.831554 -0.1875,1.255859 0.0076,0.848607 0.205078,1.626957 0.205078,1.626957 l 0.04883,0.19336 0.386719,-0.0977 -0.04883,-0.19336 c 0,0 -0.186257,-0.74481 -0.19336,-1.533203 -0.0036,-0.394196 0.04123,-0.795764 0.16211,-1.107422 0.120881,-0.311658 0.299667,-0.525961 0.603515,-0.619141 0.124895,-0.0383 0.284857,-0.0104 0.496094,0.109375 0.211237,0.11978 0.459308,0.325805 0.722656,0.585938 0.526698,0.520265 1.120823,1.254114 1.740235,1.941403 1.409712,1.56421 5.199219,6.68946 5.199219,6.68946 l 0.11914,0.16211 0.163004,-0.32678 0.04012,-0.0717 c 0,0 -3.763428,-5.09939 -5.224609,-6.7207 -0.609875,-0.676716 -1.203228,-1.411155 -1.75586,-1.957036 -0.276315,-0.272941 -0.542755,-0.500758 -0.80664,-0.650391 -0.263885,-0.149633 -0.542897,-0.22661 -0.810547,-0.144531 z"
           id="path1387"
           sodipodi:nodetypes="ssscccccsssssccccsssss" />
        <path
           style="color:#000000;fill:#000000;stroke:#000000;stroke-width:0.5;stroke-linecap:square;stroke-dasharray:none"
           d="m 65.107422,94.65625 c -0.565499,-0.01564 -1.091463,0.373299 -1.648438,1.019531 -0.556974,0.646232 -1.157245,1.572494 -1.847656,2.736328 -0.706253,1.19054 -1.431055,3.121581 -1.988281,4.763671 -0.557226,1.64209 -0.94336,2.99219 -0.94336,2.99219 l -0.05469,0.19336 0.384766,0.10937 0.05469,-0.19336 c 0,0 0.383731,-1.3427 0.9375,-2.97461 0.553769,-1.6319 1.282924,-3.555776 1.953125,-4.685543 0.686046,-1.156476 1.281031,-2.071799 1.806641,-2.68164 0.52561,-0.609841 0.96948,-0.890994 1.335937,-0.88086 0.426382,0.01179 0.963656,0.403404 1.373047,0.81836 0.409391,0.414955 0.693359,0.828125 0.693359,0.828125 l 0.111329,0.164062 0.330078,-0.224609 -0.111328,-0.166016 c 0,0 -0.300346,-0.438924 -0.738282,-0.882812 -0.437935,-0.443889 -1.012574,-0.91796 -1.648437,-0.935547 z"
           id="path1389" />
        <path
           style="color:#000000;fill:#ffff00;stroke-linecap:square;-inkscape-stroke:none"
           d="m 65.125,106.50391 c -0.531857,0.16462 -1.193761,0.66283 -1.912109,1.57617 -0.718349,0.91334 -1.483588,2.24499 -2.167969,4.08984 -0.705751,1.90246 -1.675781,5.4043 -1.675781,5.4043 l -0.05469,0.19336 0.386719,0.10742 0.05273,-0.19336 c 0,0 0.974434,-3.50683 1.666016,-5.37109 0.672411,-1.81259 1.420742,-3.10935 2.107422,-3.98242 0.686679,-0.87308 1.320771,-1.31883 1.716797,-1.44141 0.374018,-0.11577 0.649894,-0.084 0.876953,0.0195 0.227058,0.10349 0.409931,0.28817 0.550781,0.49609 0.2817,0.41585 0.380859,0.9043 0.380859,0.9043 l 0.03906,0.19727 0.392578,-0.0781 -0.03906,-0.19726 c 0,0 -0.105654,-0.55227 -0.443359,-1.05079 -0.168852,-0.24925 -0.399923,-0.49122 -0.714844,-0.63476 -0.31492,-0.14354 -0.710254,-0.17892 -1.162109,-0.0391 z"
           id="path1338" />
        <path
           style="color:#000000;fill:#000000;stroke:#000000;stroke-width:0.5;stroke-linecap:square;stroke-dasharray:none"
           d="m 54.203125,85.939453 c -0.296692,0.127154 -0.481371,0.384037 -0.529297,0.679688 -0.04793,0.29565 0.01138,0.627425 0.126953,1 0.231151,0.74515 0.704749,1.662566 1.207031,2.679687 1.67779,3.397519 3.427735,5.599609 3.427735,5.599609 l 0.125,0.15625 0.243677,-0.269664 L 58.75,95.648437 c 0,0 -1.725519,-2.165422 -3.384766,-5.52539 C 54.861452,89.10289 54.396141,88.185179 54.183594,87.5 54.07732,87.15741 54.037299,86.875199 54.068359,86.683594 c 0.03106,-0.191605 0.103012,-0.295543 0.292969,-0.376953 0.162293,-0.06955 0.527021,-0.06429 0.955078,0.02734 0.428057,0.09164 0.921398,0.254784 1.386719,0.431641 0.930643,0.353713 1.744141,0.759766 1.744141,0.759766 l 0.179687,0.08984 0.177734,-0.357422 -0.177734,-0.08984 c 0,0 -0.82786,-0.413032 -1.78125,-0.775391 -0.476695,-0.181179 -0.984363,-0.350541 -1.445312,-0.449219 -0.46095,-0.09868 -0.872908,-0.142917 -1.197266,-0.0039 z"
           id="path1391"
           sodipodi:nodetypes="ssssccccssssssccccssss" />
        <path
           style="color:#000000;fill:#ffff00;stroke-linecap:square;-inkscape-stroke:none"
           d="m 55.277344,108.89453 c -0.386324,0.0317 -0.69737,0.29807 -0.955078,0.63477 -0.257709,0.3367 -0.469799,0.75969 -0.644532,1.17578 -0.349464,0.83218 -0.544922,1.64648 -0.544922,1.64648 l -0.04687,0.19336 0.390625,0.0937 0.04492,-0.19531 c 0,0 0.189592,-0.78899 0.523438,-1.58398 0.166923,-0.3975 0.372267,-0.79402 0.595703,-1.08594 0.223436,-0.29192 0.456504,-0.46298 0.669922,-0.48047 0.08329,-0.007 0.169865,0.0281 0.28125,0.13281 0.111385,0.10474 0.231564,0.27393 0.347656,0.47266 0.232185,0.39745 0.448904,0.9089 0.675781,1.30078 0.09432,0.16292 0.319331,0.63853 0.585938,1.23242 0.266607,0.59389 0.580703,1.31562 0.882812,2.01563 0.60422,1.40002 1.15625,2.70703 1.15625,2.70703 l 0.07617,0.18554 0.369141,-0.15625 L 59.607422,117 c 0,0 -0.551156,-1.30889 -1.15625,-2.71094 -0.302547,-0.70102 -0.618721,-1.42449 -0.886719,-2.02148 -0.267998,-0.59699 -0.481541,-1.0569 -0.603516,-1.26758 -0.205724,-0.35534 -0.423831,-0.87145 -0.675781,-1.30273 -0.125974,-0.21565 -0.260592,-0.41269 -0.419922,-0.5625 -0.159329,-0.14982 -0.361309,-0.25881 -0.58789,-0.24024 z"
           id="path1340" />
        <path
           style="color:#000000;fill:#ffff00;stroke-linecap:square;-inkscape-stroke:none"
           d="m 50.515625,97.576172 c -0.433539,0.132951 -0.709266,0.470405 -0.859375,0.857422 -0.150109,0.387016 -0.191322,0.831554 -0.1875,1.255859 0.0076,0.848607 0.205078,1.626957 0.205078,1.626957 l 0.04883,0.19336 0.386719,-0.0977 -0.04883,-0.19336 c 0,0 -0.186257,-0.74481 -0.19336,-1.533203 -0.0036,-0.394196 0.04123,-0.795764 0.16211,-1.107422 0.120881,-0.311658 0.299667,-0.525961 0.603515,-0.619141 0.124895,-0.0383 0.284857,-0.0104 0.496094,0.109375 0.211237,0.11978 0.459308,0.325805 0.722656,0.585938 0.526698,0.520265 1.120823,1.254114 1.740235,1.941403 1.409712,1.56421 5.199219,6.68946 5.199219,6.68946 l 0.11914,0.16211 0.123676,-0.38577 -0.06803,-0.16015 c 0,0 -3.615951,-4.95191 -5.077132,-6.57322 -0.609875,-0.676716 -1.203228,-1.411155 -1.75586,-1.957036 -0.276315,-0.272941 -0.542755,-0.500758 -0.80664,-0.650391 -0.263885,-0.149633 -0.542897,-0.22661 -0.810547,-0.144531 z"
           id="path1357"
           sodipodi:nodetypes="ssscccccsssssccccsssss" />
        <path
           style="color:#000000;fill:#ffff00;stroke-linecap:square;-inkscape-stroke:none"
           d="m 65.107422,94.65625 c -0.565499,-0.01564 -1.091463,0.373299 -1.648438,1.019531 -0.556974,0.646232 -1.157245,1.572494 -1.847656,2.736328 -0.706253,1.19054 -1.431055,3.121581 -1.988281,4.763671 -0.557226,1.64209 -0.864705,2.91354 -0.864705,2.91354 l -0.01536,0.25235 0.266784,0.12903 0.05469,-0.19336 c 0,0 0.383731,-1.3427 0.9375,-2.97461 0.553769,-1.6319 1.282924,-3.555776 1.953125,-4.685543 0.686046,-1.156476 1.281031,-2.071799 1.806641,-2.68164 0.52561,-0.609841 0.96948,-0.890994 1.335937,-0.88086 0.426382,0.01179 0.963656,0.403404 1.373047,0.81836 0.409391,0.414955 0.693359,0.828125 0.693359,0.828125 l 0.111329,0.164062 0.330078,-0.224609 -0.111328,-0.166016 c 0,0 -0.300346,-0.438924 -0.738282,-0.882812 -0.437935,-0.443889 -1.012574,-0.91796 -1.648437,-0.935547 z"
           id="path1359"
           sodipodi:nodetypes="ssssccccsssssccccss" />
        <path
           style="color:#000000;fill:#ffff00;stroke-linecap:square;-inkscape-stroke:none"
           d="m 54.203125,85.939453 c -0.296692,0.127154 -0.481371,0.384037 -0.529297,0.679688 -0.04793,0.29565 0.01138,0.627425 0.126953,1 0.231151,0.74515 0.704749,1.662566 1.207031,2.679687 1.67779,3.397519 3.408071,5.55045 3.408071,5.55045 l 0.125,0.15625 0.3125,-0.25 -0.123047,-0.15625 c 0,0 -1.705855,-2.116263 -3.365102,-5.476231 C 54.861452,89.10289 54.396141,88.185179 54.183594,87.5 54.07732,87.15741 54.037299,86.875199 54.068359,86.683594 c 0.03106,-0.191605 0.103012,-0.295543 0.292969,-0.376953 0.162293,-0.06955 0.527021,-0.06429 0.955078,0.02734 0.428057,0.09164 0.921398,0.254784 1.386719,0.431641 0.930643,0.353713 1.744141,0.759766 1.744141,0.759766 l 0.179687,0.08984 0.177734,-0.357422 -0.177734,-0.08984 c 0,0 -0.82786,-0.413032 -1.78125,-0.775391 -0.476695,-0.181179 -0.984363,-0.350541 -1.445312,-0.449219 -0.46095,-0.09868 -0.872908,-0.142917 -1.197266,-0.0039 z"
           id="path1361"
           sodipodi:nodetypes="ssssccccssssssccccssss" />
        <path
           style="color:#000000;fill:#ffff00;stroke:none;stroke-width:0.2;stroke-linecap:square;stroke-dasharray:none"
           d="m 60.644531,79.642578 c -0.18316,0.05456 -0.321067,0.192655 -0.441406,0.373047 -0.120339,0.180392 -0.226245,0.411638 -0.326172,0.693359 -0.199854,0.563442 -0.374255,1.330732 -0.529297,2.263672 -0.310084,1.865881 -0.538292,4.394799 -0.685547,7.226563 -0.294509,5.663528 -0.261639,12.531301 0.128907,17.652341 0.790198,10.36151 0.550781,20.27149 0.550781,20.27149 l -0.0059,0.20117 0.400391,0.01 0.0059,-0.20117 c 0,0 0.239402,-9.92558 -0.552734,-20.3125 -0.388616,-5.09573 -0.42246,-11.954458 -0.128906,-17.599607 0.146777,-2.822575 0.375931,-5.344035 0.68164,-7.183594 0.152855,-0.919779 0.325742,-1.66904 0.511719,-2.193359 0.09299,-0.262159 0.189503,-0.467937 0.28125,-0.605469 0.09175,-0.137532 0.176722,-0.198626 0.22461,-0.21289 0.14458,-0.04307 0.321088,-0.01533 0.541015,0.0957 0.219927,0.111029 0.470936,0.304292 0.730469,0.55664 0.519066,0.504697 1.074606,1.239877 1.578125,1.992188 1.007037,1.504622 1.810547,3.076172 1.810547,3.076172 l 0.0918,0.177734 0.355468,-0.181641 -0.0918,-0.177734 c 0,0 -0.810058,-1.58733 -1.833985,-3.117187 -0.511963,-0.764929 -1.075444,-1.516603 -1.630859,-2.056641 -0.277708,-0.270019 -0.554108,-0.487631 -0.830078,-0.626953 -0.27597,-0.139322 -0.563359,-0.202287 -0.835938,-0.121094 z"
           id="path1204" />
        <g
           id="g1399"
           transform="translate(0.86520128,-12.2308)">
          <path
             style="fill:#ffff00;stroke:#000000;stroke-width:0.25;stroke-linecap:square;stroke-dasharray:none"
             d="m 67.505362,112.47616 c 0,0 0.283473,0.51222 1.081503,1.04218 0.697965,0.46351 1.651746,0.37361 1.651746,0.37361 0,0 -0.0038,-0.86753 -0.235963,-1.65175 -0.415733,-1.4041 -0.648901,-1.9467 -0.648901,-1.9467 l -1.907376,-0.2163 z"
             id="path1393"
             sodipodi:nodetypes="cscsccc" />
          <path
             style="fill:#ffff00;stroke:#000000;stroke-width:0.25;stroke-linecap:square;stroke-dasharray:none"
             d="m 69.853861,116.25633 c -1.169939,0.0115 -7.466249,-6.36767 -4.062037,-8.70073 2.848285,-1.95205 7.102787,6.31081 6.899914,7.79456 0,0 -1.255282,-2.01993 -1.879229,-2.71546 -1.696665,-1.89132 -2.764812,-1.90077 -2.764812,-1.90077 0,0 -0.393021,1.21646 0.111236,2.66963 0.543092,1.56508 1.694928,2.85277 1.694928,2.85277 z"
             id="path1395"
             sodipodi:nodetypes="cscscsc" />
          <path
             style="fill:none;stroke:#000000;stroke-width:0.25;stroke-linecap:square;stroke-dasharray:none"
             d="m 68.331832,110.78955 c 0,0 -0.370065,-0.14788 -1.563332,-0.3337 -1.065451,-0.13663 -1.751941,0 -1.751941,0"
             id="path1397"
             sodipodi:nodetypes="ccc" />
        </g>
        <g
           id="g1202"
           transform="translate(-0.90452858,-23.006489)">
          <path
             style="fill:#ffff00;stroke:#000000;stroke-width:0.25;stroke-linecap:square;stroke-dasharray:none"
             d="m 67.505362,112.47616 c 0,0 0.283473,0.51222 1.081503,1.04218 0.697965,0.46351 1.651746,0.37361 1.651746,0.37361 0,0 -0.0038,-0.86753 -0.235963,-1.65175 -0.415733,-1.4041 -0.648901,-1.9467 -0.648901,-1.9467 l -1.907376,-0.2163 z"
             id="path1185"
             sodipodi:nodetypes="cscsccc" />
          <path
             style="fill:#ffff00;stroke:#000000;stroke-width:0.25;stroke-linecap:square;stroke-dasharray:none"
             d="m 69.853861,116.25633 c -1.169939,0.0115 -7.466249,-6.36767 -4.062037,-8.70073 2.848285,-1.95205 7.102787,6.31081 6.899914,7.79456 0,0 -1.255282,-2.01993 -1.879229,-2.71546 -1.696665,-1.89132 -2.764812,-1.90077 -2.764812,-1.90077 0,0 -0.393021,1.21646 0.111236,2.66963 0.543092,1.56508 1.694928,2.85277 1.694928,2.85277 z"
             id="path417"
             sodipodi:nodetypes="cscscsc" />
          <path
             style="fill:none;stroke:#000000;stroke-width:0.25;stroke-linecap:square;stroke-dasharray:none"
             d="m 68.331832,110.78955 c 0,0 -0.370065,-0.14788 -1.563332,-0.3337 -1.065451,-0.13663 -1.751941,0 -1.751941,0"
             id="path1187"
             sodipodi:nodetypes="ccc" />
        </g>
        <g
           id="g1407"
           transform="translate(0.20781631,0.01905014)">
          <path
             style="fill:#ffff00;stroke:#000000;stroke-width:0.25;stroke-linecap:square;stroke-dasharray:none"
             d="m 67.505362,112.47616 c 0,0 0.283473,0.51222 1.081503,1.04218 0.697965,0.46351 1.651746,0.37361 1.651746,0.37361 0,0 -0.0038,-0.86753 -0.235963,-1.65175 -0.415733,-1.4041 -0.648901,-1.9467 -0.648901,-1.9467 l -1.907376,-0.2163 z"
             id="path1401"
             sodipodi:nodetypes="cscsccc" />
          <path
             style="fill:#ffff00;stroke:#000000;stroke-width:0.25;stroke-linecap:square;stroke-dasharray:none"
             d="m 69.853861,116.25633 c -1.169939,0.0115 -7.466249,-6.36767 -4.062037,-8.70073 2.848285,-1.95205 7.102787,6.31081 6.899914,7.79456 0,0 -1.255282,-2.01993 -1.879229,-2.71546 -1.696665,-1.89132 -2.764812,-1.90077 -2.764812,-1.90077 0,0 -0.393021,1.21646 0.111236,2.66963 0.543092,1.56508 1.694928,2.85277 1.694928,2.85277 z"
             id="path1403"
             sodipodi:nodetypes="cscscsc" />
          <path
             style="fill:none;stroke:#000000;stroke-width:0.25;stroke-linecap:square;stroke-dasharray:none"
             d="m 68.331832,110.78955 c 0,0 -0.370065,-0.14788 -1.563332,-0.3337 -1.065451,-0.13663 -1.751941,0 -1.751941,0"
             id="path1405"
             sodipodi:nodetypes="ccc" />
        </g>
        <g
           id="g1415"
           transform="translate(-15.865567,-7.6561296)">
          <path
             style="fill:#ffff00;stroke:#000000;stroke-width:0.25;stroke-linecap:square;stroke-dasharray:none"
             d="m 67.505362,112.47616 c 0,0 0.283473,0.51222 1.081503,1.04218 0.697965,0.46351 1.651746,0.37361 1.651746,0.37361 0,0 -0.0038,-0.86753 -0.235963,-1.65175 -0.415733,-1.4041 -0.648901,-1.9467 -0.648901,-1.9467 l -1.907376,-0.2163 z"
             id="path1409"
             sodipodi:nodetypes="cscsccc" />
          <path
             style="fill:#ffff00;stroke:#000000;stroke-width:0.25;stroke-linecap:square;stroke-dasharray:none"
             d="m 69.853861,116.25633 c -1.169939,0.0115 -7.466249,-6.36767 -4.062037,-8.70073 2.848285,-1.95205 7.102787,6.31081 6.899914,7.79456 0,0 -1.255282,-2.01993 -1.879229,-2.71546 -1.696665,-1.89132 -2.764812,-1.90077 -2.764812,-1.90077 0,0 -0.393021,1.21646 0.111236,2.66963 0.543092,1.56508 1.694928,2.85277 1.694928,2.85277 z"
             id="path1411"
             sodipodi:nodetypes="cscscsc" />
          <path
             style="fill:none;stroke:#000000;stroke-width:0.25;stroke-linecap:square;stroke-dasharray:none"
             d="m 68.331832,110.78955 c 0,0 -0.370065,-0.14788 -1.563332,-0.3337 -1.065451,-0.13663 -1.751941,0 -1.751941,0"
             id="path1413"
             sodipodi:nodetypes="ccc" />
        </g>
        <g
           id="g1423"
           transform="translate(-12.417298,3.9678745)">
          <path
             style="fill:#ffff00;stroke:#000000;stroke-width:0.25;stroke-linecap:square;stroke-dasharray:none"
             d="m 67.505362,112.47616 c 0,0 0.283473,0.51222 1.081503,1.04218 0.697965,0.46351 1.651746,0.37361 1.651746,0.37361 0,0 -0.0038,-0.86753 -0.235963,-1.65175 -0.415733,-1.4041 -0.648901,-1.9467 -0.648901,-1.9467 l -1.907376,-0.2163 z"
             id="path1417"
             sodipodi:nodetypes="cscsccc" />
          <path
             style="fill:#ffff00;stroke:#000000;stroke-width:0.25;stroke-linecap:square;stroke-dasharray:none"
             d="m 69.853861,116.25633 c -1.169939,0.0115 -7.466249,-6.36767 -4.062037,-8.70073 2.848285,-1.95205 7.102787,6.31081 6.899914,7.79456 0,0 -1.255282,-2.01993 -1.879229,-2.71546 -1.696665,-1.89132 -2.764812,-1.90077 -2.764812,-1.90077 0,0 -0.393021,1.21646 0.111236,2.66963 0.543092,1.56508 1.694928,2.85277 1.694928,2.85277 z"
             id="path1419"
             sodipodi:nodetypes="cscscsc" />
          <path
             style="fill:none;stroke:#000000;stroke-width:0.25;stroke-linecap:square;stroke-dasharray:none"
             d="m 68.331832,110.78955 c 0,0 -0.370065,-0.14788 -1.563332,-0.3337 -1.065451,-0.13663 -1.751941,0 -1.751941,0"
             id="path1421"
             sodipodi:nodetypes="ccc" />
        </g>
        <g
           id="g1431"
           transform="translate(-5.8889611,-10.032655)">
          <path
             style="fill:#ffff00;stroke:#000000;stroke-width:0.25;stroke-linecap:square;stroke-dasharray:none"
             d="m 67.505362,112.47616 c 0,0 0.283473,0.51222 1.081503,1.04218 0.697965,0.46351 1.651746,0.37361 1.651746,0.37361 0,0 -0.0038,-0.86753 -0.235963,-1.65175 -0.415733,-1.4041 -0.648901,-1.9467 -0.648901,-1.9467 l -1.907376,-0.2163 z"
             id="path1425"
             sodipodi:nodetypes="cscsccc" />
          <path
             style="fill:#ffff00;stroke:#000000;stroke-width:0.25;stroke-linecap:square;stroke-dasharray:none"
             d="m 69.853861,116.25633 c -1.169939,0.0115 -7.466249,-6.36767 -4.062037,-8.70073 2.848285,-1.95205 7.102787,6.31081 6.899914,7.79456 0,0 -1.255282,-2.01993 -1.879229,-2.71546 -1.696665,-1.89132 -2.764812,-1.90077 -2.764812,-1.90077 0,0 -0.393021,1.21646 0.111236,2.66963 0.543092,1.56508 1.694928,2.85277 1.694928,2.85277 z"
             id="path1427"
             sodipodi:nodetypes="cscscsc" />
          <path
             style="fill:none;stroke:#000000;stroke-width:0.25;stroke-linecap:square;stroke-dasharray:none"
             d="m 68.331832,110.78955 c 0,0 -0.370065,-0.14788 -1.563332,-0.3337 -1.065451,-0.13663 -1.751941,0 -1.751941,0"
             id="path1429"
             sodipodi:nodetypes="ccc" />
        </g>
        <g
           id="g1439"
           transform="translate(-7.3833997,-20.886998)">
          <path
             style="fill:#ffff00;stroke:#000000;stroke-width:0.25;stroke-linecap:square;stroke-dasharray:none"
             d="m 67.505362,112.47616 c 0,0 0.283473,0.51222 1.081503,1.04218 0.697965,0.46351 1.651746,0.37361 1.651746,0.37361 0,0 -0.0038,-0.86753 -0.235963,-1.65175 -0.415733,-1.4041 -0.648901,-1.9467 -0.648901,-1.9467 l -1.907376,-0.2163 z"
             id="path1433"
             sodipodi:nodetypes="cscsccc" />
          <path
             style="fill:#ffff00;stroke:#000000;stroke-width:0.25;stroke-linecap:square;stroke-dasharray:none"
             d="m 69.853861,116.25633 c -1.169939,0.0115 -7.466249,-6.36767 -4.062037,-8.70073 2.848285,-1.95205 7.102787,6.31081 6.899914,7.79456 0,0 -1.255282,-2.01993 -1.879229,-2.71546 -1.696665,-1.89132 -2.764812,-1.90077 -2.764812,-1.90077 0,0 -0.393021,1.21646 0.111236,2.66963 0.543092,1.56508 1.694928,2.85277 1.694928,2.85277 z"
             id="path1435"
             sodipodi:nodetypes="cscscsc" />
          <path
             style="fill:none;stroke:#000000;stroke-width:0.25;stroke-linecap:square;stroke-dasharray:none"
             d="m 68.331832,110.78955 c 0,0 -0.370065,-0.14788 -1.563332,-0.3337 -1.065451,-0.13663 -1.751941,0 -1.751941,0"
             id="path1437"
             sodipodi:nodetypes="ccc" />
        </g>
      </g>
      <g
         id="g2770"
         transform="translate(0.85859972,0.1823403)">
        <path
           id="path1646"
           style="fill:#ff0000;stroke:#000000;stroke-width:0.4;stroke-linecap:square;stroke-dasharray:none"
           d="m 102.55808,113.89176 -26.616979,28.04325 h 1.644861 v 5.00589 H 64.682874 v 2.89181 h -1.278992 v 32.81454 h 42.268738 42.26925 v -32.81454 h -1.27899 v -2.89181 h -12.9036 v -5.00589 h 1.64537 l -26.61749,-28.04325 h -3.11454 z" />
        <path
           style="fill:none;stroke:#000000;stroke-width:0.4;stroke-linecap:butt;stroke-dasharray:none"
           d="M 77.586053,141.9352 H 98.554288"
           id="path1707"
           sodipodi:nodetypes="cc" />
        <path
           style="fill:none;stroke:#000000;stroke-width:0.4;stroke-linecap:butt;stroke-dasharray:none"
           d="M 77.586053,146.94076 H 98.554287"
           id="path1719" />
        <path
           style="fill:none;stroke:#000000;stroke-width:0.4;stroke-linecap:butt;stroke-dasharray:none"
           d="m 64.682853,149.83285 33.871432,0.16159"
           id="path1721" />
        <path
           style="fill:none;stroke:#000000;stroke-width:0.4;stroke-linecap:butt;stroke-dasharray:none"
           d="M 63.403656,151.9608 H 98.554287"
           id="path1723" />
        <path
           style="fill:none;stroke:#000000;stroke-width:0.3;stroke-linecap:butt;stroke-dasharray:none"
           d="m 82.980664,151.9608 v 30.68623"
           id="path1793" />
        <path
           style="fill:none;stroke:#000000;stroke-width:0.3;stroke-linecap:butt;stroke-dasharray:none"
           d="m 98.554288,137.64566 -10e-7,40.76804"
           id="path1797"
           sodipodi:nodetypes="cc" />
        <path
           style="fill:none;stroke:#000000;stroke-width:0.3;stroke-linecap:butt;stroke-dasharray:none"
           d="M 101.07124,137.64566 V 175.2387"
           id="path1799"
           sodipodi:nodetypes="cc" />
        <path
           style="fill:none;stroke:#000000;stroke-width:0.3;stroke-linecap:butt;stroke-dasharray:none"
           d="m 84.816295,151.9608 0.05208,30.68623"
           id="path1801" />
        <path
           style="fill:none;stroke:#000000;stroke-width:0.3;stroke-linecap:butt;stroke-dasharray:none"
           d="m 101.07124,141.38175 h 1.71074 v -3.73609"
           id="path1807" />
        <path
           style="fill:none;stroke:#000000;stroke-width:0.4;stroke-linecap:butt;stroke-dasharray:none"
           d="m 105.67276,137.64566 h -3.04288"
           id="path1809"
           sodipodi:nodetypes="cc" />
        <path
           style="fill:none;stroke:#000000;stroke-width:0.3;stroke-linecap:butt;stroke-dasharray:none"
           d="m 99.832429,130.72405 -1.258475,5.63652 c 0,0.006 -0.490394,0.0979 -0.520388,0.65387 -0.02999,0.55596 0.577195,0.75636 0.577195,0.75636"
           id="path1811"
           sodipodi:nodetypes="cczc" />
        <path
           style="fill:none;stroke:#000000;stroke-width:0.3;stroke-linecap:butt;stroke-dasharray:none"
           d="m 99.832429,130.72405 1.258471,5.63652 c 0,0.006 0.4904,0.0979 0.52039,0.65387 0.03,0.55596 -0.57719,0.75636 -0.57719,0.75636"
           id="path1813"
           sodipodi:nodetypes="cczc" />
        <path
           style="fill:none;stroke:#000000;stroke-width:0.4;stroke-linecap:butt;stroke-dasharray:none"
           d="m 103.61493,113.90412 -1.71023,22.73355 1.68242,0.86206 1.06367,-23.60952"
           id="path1894"
           sodipodi:nodetypes="cccc" />
        <path
           id="path2261"
           style="fill:#ffff00;stroke:#000000;stroke-width:0.199999;stroke-linecap:butt;stroke-dasharray:none"
           d="m 92.850663,155.64476 a 5.6034369,4.1156759 0 0 0 -3.278869,0.78238 v 10.34098 h 6.312276 v -10.46707 a 5.6034369,4.1156759 0 0 0 -3.033407,-0.65629 z" />
        <path
           id="path2275"
           style="fill:#ffff00;stroke:#000000;stroke-width:0.199999;stroke-linecap:butt;stroke-dasharray:none"
           d="m 75.414355,155.64476 a 4.7830271,4.1156759 0 0 0 -2.798803,0.78238 v 10.34098 h 5.388083 v -10.46707 a 4.7830271,4.1156759 0 0 0 -2.58928,-0.65629 z" />
        <circle
           style="fill:#ffff00;stroke:#000000;stroke-width:0.2;stroke-linecap:butt;stroke-dasharray:none"
           id="path2569"
           cx="95.439186"
           cy="144.49361"
           r="1.6129" />
        <ellipse
           style="fill:#ffff00;stroke:#000000;stroke-width:0.2;stroke-linecap:butt;stroke-dasharray:none"
           id="circle2573"
           cx="88.278"
           cy="144.49361"
           rx="1.5116618"
           ry="1.6129" />
        <path
           style="fill:none;stroke:#000000;stroke-width:0.4;stroke-linecap:butt;stroke-dasharray:none"
           d="M 133.75947,141.9352 H 112.79123"
           id="path2853"
           sodipodi:nodetypes="cc" />
        <path
           style="fill:none;stroke:#000000;stroke-width:0.4;stroke-linecap:butt;stroke-dasharray:none"
           d="M 133.75947,146.94076 H 112.79123"
           id="path2855" />
        <path
           style="fill:none;stroke:#000000;stroke-width:0.4;stroke-linecap:butt;stroke-dasharray:none"
           d="m 146.66267,149.83285 -33.87143,0.16159"
           id="path2857" />
        <path
           style="fill:none;stroke:#000000;stroke-width:0.4;stroke-linecap:butt;stroke-dasharray:none"
           d="M 147.94186,151.9608 H 112.79123"
           id="path2859" />
        <path
           style="fill:none;stroke:#000000;stroke-width:0.3;stroke-linecap:butt;stroke-dasharray:none"
           d="m 128.36486,151.9608 v 30.68623"
           id="path2861" />
        <path
           style="fill:none;stroke:#000000;stroke-width:0.3;stroke-linecap:butt;stroke-dasharray:none"
           d="M 112.79123,137.64566 V 178.4137"
           id="path2863"
           sodipodi:nodetypes="cc" />
        <path
           style="fill:none;stroke:#000000;stroke-width:0.3;stroke-linecap:butt;stroke-dasharray:none"
           d="M 110.27428,137.64566 V 175.2387"
           id="path2865"
           sodipodi:nodetypes="cc" />
        <path
           style="fill:none;stroke:#000000;stroke-width:0.3;stroke-linecap:butt;stroke-dasharray:none"
           d="m 126.52922,151.9608 -0.0521,30.68623"
           id="path2867" />
        <path
           style="fill:none;stroke:#000000;stroke-width:0.3;stroke-linecap:butt;stroke-dasharray:none"
           d="m 110.27428,141.38175 h -1.71074 v -3.73609"
           id="path2869" />
        <path
           style="fill:none;stroke:#000000;stroke-width:0.4;stroke-linecap:butt;stroke-dasharray:none"
           d="m 105.67276,137.64566 h 3.04288"
           id="path2871"
           sodipodi:nodetypes="cc" />
        <path
           style="fill:none;stroke:#000000;stroke-width:0.3;stroke-linecap:butt;stroke-dasharray:none"
           d="m 111.51309,130.72405 1.25848,5.63652 c 0,0.006 0.49039,0.0979 0.52038,0.65387 0.03,0.55596 -0.57719,0.75636 -0.57719,0.75636"
           id="path2873"
           sodipodi:nodetypes="cczc" />
        <path
           style="fill:none;stroke:#000000;stroke-width:0.3;stroke-linecap:butt;stroke-dasharray:none"
           d="m 111.51309,130.72405 -1.25847,5.63652 c 0,0.006 -0.4904,0.0979 -0.52039,0.65387 -0.03,0.55596 0.57719,0.75636 0.57719,0.75636"
           id="path2875"
           sodipodi:nodetypes="cczc" />
        <path
           style="fill:none;stroke:#000000;stroke-width:0.4;stroke-linecap:butt;stroke-dasharray:none"
           d="m 107.73059,113.90412 1.71023,22.73355 -1.68242,0.86206 -1.06367,-23.60952"
           id="path2877"
           sodipodi:nodetypes="cccc" />
        <path
           id="path2879"
           style="fill:#ffff00;stroke:#000000;stroke-width:0.199999;stroke-linecap:butt;stroke-dasharray:none"
           d="m 118.49486,155.64476 a 5.6034369,4.1156759 0 0 1 3.27887,0.78238 v 10.34098 h -6.31228 v -10.46707 a 5.6034369,4.1156759 0 0 1 3.03341,-0.65629 z" />
        <circle
           style="fill:#ffff00;stroke:#000000;stroke-width:0.2;stroke-linecap:butt;stroke-dasharray:none"
           id="circle2885"
           cx="-115.90633"
           cy="144.49361"
           r="1.6129"
           transform="scale(-1,1)" />
        <g
           id="g2943">
          <rect
             style="fill:none;stroke:#000000;stroke-width:0.35;stroke-linecap:butt;stroke-dasharray:none"
             id="rect2028"
             width="9.1530428"
             height="1.4944385"
             x="101.09624"
             y="175.32124" />
          <rect
             style="fill:none;stroke:#000000;stroke-width:0.35;stroke-linecap:butt;stroke-dasharray:none"
             id="rect2030"
             width="10.450845"
             height="1.4944385"
             x="100.44733"
             y="176.81569" />
          <rect
             style="fill:none;stroke:#000000;stroke-width:0.35;stroke-linecap:butt;stroke-dasharray:none"
             id="rect2032"
             width="14.186914"
             height="1.4944385"
             x="98.579285"
             y="178.31013" />
          <rect
             style="fill:none;stroke:#000000;stroke-width:0.35;stroke-linecap:butt;stroke-dasharray:none"
             id="rect2034"
             width="15.744198"
             height="1.4944385"
             x="97.800644"
             y="179.80458" />
          <rect
             style="fill:#ff0000;stroke:#000000;stroke-width:0.349999;stroke-linecap:butt;stroke-dasharray:none"
             id="rect2120"
             width="18.358208"
             height="1.4944385"
             x="96.493637"
             y="181.30554" />
        </g>
        <path
           id="path3220"
           style="fill:#ffff00;stroke:#000000;stroke-width:0.2;stroke-linecap:butt;stroke-dasharray:none"
           d="m 105.67262,155.38637 a 4.4215713,4.6767362 0 0 0 -3.54242,1.88736 v 17.96885 h 7.08536 v -17.97723 a 4.4215713,4.6767362 0 0 0 -3.54294,-1.87898 z" />
        <g
           id="g3408"
           transform="translate(-140.51623,-74.672975)">
          <path
             id="rect3399"
             style="fill:#ff0000;stroke:#000000;stroke-width:0.4;stroke-linecap:butt;stroke-dasharray:none"
             d="m 246.18911,185.24709 -1.40442,1.8495 v 1.86294 h 2.80883 v -1.86294 z"
             sodipodi:nodetypes="cccccc" />
          <circle
             style="fill:#ff0000;stroke:#000000;stroke-width:0.4;stroke-linecap:butt;stroke-dasharray:none"
             id="path3404"
             cx="246.1891"
             cy="184.00964"
             r="1.0428233" />
        </g>
        <path
           style="fill:#000000;stroke:none;stroke-width:0.3;stroke-linecap:butt;stroke-dasharray:none"
           d="m 63.403881,180.63043 7.778586,0.25563 -7.778586,0.60957 z"
           id="path3630" />
        <path
           style="fill:#000000;stroke:none;stroke-width:0.3;stroke-linecap:butt;stroke-dasharray:none"
           d="m 63.403881,179.04292 7.778586,0.25563 -7.778586,0.60957 z"
           id="path3632" />
        <path
           style="fill:#000000;stroke:none;stroke-width:0.3;stroke-linecap:butt;stroke-dasharray:none"
           d="m 63.403881,177.29813 7.385313,0.37361 -7.385313,0.49159 z"
           id="path3634"
           sodipodi:nodetypes="cccc" />
        <path
           style="fill:#000000;stroke:none;stroke-width:0.3;stroke-linecap:butt;stroke-dasharray:none"
           d="m 63.403881,175.37807 7.385313,0.37361 -7.385313,0.49159 z"
           id="path3636"
           sodipodi:nodetypes="cccc" />
        <path
           style="fill:#000000;stroke:none;stroke-width:0.3;stroke-linecap:butt;stroke-dasharray:none"
           d="m 63.403881,173.59396 7.975223,0.35395 -7.975223,0.51125 z"
           id="path3638"
           sodipodi:nodetypes="cccc" />
        <path
           style="fill:#000000;stroke:none;stroke-width:0.3;stroke-linecap:butt;stroke-dasharray:none"
           d="m 63.403881,172.00645 7.975223,0.35395 -7.975223,0.51125 z"
           id="path3640"
           sodipodi:nodetypes="cccc" />
        <path
           style="fill:#000000;stroke:none;stroke-width:0.3;stroke-linecap:butt;stroke-dasharray:none"
           d="m 63.403881,170.16336 7.110022,0.4326 -7.110022,0.4326 z"
           id="path3642"
           sodipodi:nodetypes="cccc" />
        <path
           style="fill:#000000;stroke:none;stroke-width:0.3;stroke-linecap:butt;stroke-dasharray:none"
           d="m 63.403881,168.30059 6.480785,0.4326 -6.480785,0.4326 z"
           id="path3644"
           sodipodi:nodetypes="cccc" />
        <path
           style="fill:#000000;stroke:none;stroke-width:0.3;stroke-linecap:butt;stroke-dasharray:none"
           d="m 63.403881,166.54791 7.975223,0.35395 -7.975223,0.51125 z"
           id="path3753"
           sodipodi:nodetypes="cccc" />
        <path
           style="fill:#000000;stroke:none;stroke-width:0.3;stroke-linecap:butt;stroke-dasharray:none"
           d="m 63.403881,164.6267 7.975223,0.35395 -7.975223,0.51125 z"
           id="path3755"
           sodipodi:nodetypes="cccc" />
        <path
           style="fill:#000000;stroke:none;stroke-width:0.3;stroke-linecap:butt;stroke-dasharray:none"
           d="m 63.403881,162.84452 7.975223,0.35395 -7.975223,0.51125 z"
           id="path3757"
           sodipodi:nodetypes="cccc" />
        <path
           style="fill:#000000;stroke:none;stroke-width:0.3;stroke-linecap:butt;stroke-dasharray:none"
           d="m 63.403881,161.00672 7.975223,0.35395 -7.975223,0.51125 z"
           id="path3759"
           sodipodi:nodetypes="cccc" />
        <path
           style="fill:#000000;stroke:none;stroke-width:0.3;stroke-linecap:butt;stroke-dasharray:none"
           d="m 63.403881,159.41921 7.975223,0.35395 -7.975223,0.51125 z"
           id="path3761"
           sodipodi:nodetypes="cccc" />
        <path
           style="fill:#000000;stroke:none;stroke-width:0.3;stroke-linecap:butt;stroke-dasharray:none"
           d="m 63.403881,157.5536 7.12706,0.36785 -7.12706,0.49735 z"
           id="path3763"
           sodipodi:nodetypes="cccc" />
        <path
           style="fill:#000000;stroke:none;stroke-width:0.3;stroke-linecap:butt;stroke-dasharray:none"
           d="m 63.403881,155.71502 7.975223,0.35395 -7.975223,0.51125 z"
           id="path3765"
           sodipodi:nodetypes="cccc" />
        <path
           style="fill:#000000;stroke:none;stroke-width:0.3;stroke-linecap:butt;stroke-dasharray:none"
           d="m 63.403881,154.00673 7.12706,0.36785 -7.12706,0.49735 z"
           id="path3767"
           sodipodi:nodetypes="cccc" />
        <path
           style="fill:#000000;stroke:none;stroke-width:0.3;stroke-linecap:butt;stroke-dasharray:none"
           d="m 63.403881,152.61587 7.12706,0.36785 -7.12706,0.49735 z"
           id="path3769"
           sodipodi:nodetypes="cccc" />
        <path
           id="path2418"
           style="fill:#ffff00;stroke:#000000;stroke-width:0.2;stroke-linecap:butt;stroke-dasharray:none"
           d="m 67.394336,155.64476 c -0.729472,3e-5 -1.421073,0.59137 -1.421106,1.32085 l 4e-6,9.71931 h 2.841687 l -10e-7,-9.71931 c -3.3e-5,-0.72948 -0.691107,-1.32082 -1.420579,-1.32085 z"
           sodipodi:nodetypes="sccccss" />
        <path
           style="fill:#000000;stroke:none;stroke-width:0.3;stroke-linecap:butt;stroke-dasharray:none"
           d="m 63.403881,150.65651 7.12706,0.36785 -7.12706,0.49735 z"
           id="path3887"
           sodipodi:nodetypes="cccc" />
        <path
           style="fill:#000000;stroke:none;stroke-width:0.3;stroke-linecap:butt;stroke-dasharray:none"
           d="m 64.65885,148.04999 7.12706,0.36785 -7.12706,0.49735 z"
           id="path3889"
           sodipodi:nodetypes="cccc" />
        <path
           style="fill:#000000;stroke:none;stroke-width:0.3;stroke-linecap:butt;stroke-dasharray:none"
           d="m 77.607963,144.86147 7.110022,0.4326 -7.110022,0.4326 z"
           id="path3891"
           sodipodi:nodetypes="cccc" />
        <path
           style="fill:#000000;stroke:none;stroke-width:0.3;stroke-linecap:butt;stroke-dasharray:none"
           d="m 77.607963,143.42688 7.110022,0.4326 -7.110022,0.4326 z"
           id="path3893"
           sodipodi:nodetypes="cccc" />
        <ellipse
           style="fill:#ffff00;stroke:#000000;stroke-width:0.2;stroke-linecap:butt;stroke-dasharray:none"
           id="ellipse2668"
           cx="82.680222"
           cy="144.49361"
           rx="0.92666775"
           ry="1.6129" />
        <ellipse
           style="fill:#ffff00;stroke:#000000;stroke-width:0.2;stroke-linecap:butt;stroke-dasharray:none"
           id="ellipse2670"
           cx="78.984154"
           cy="144.49361"
           rx="0.62188095"
           ry="1.6129" />
        <path
           style="fill:#000000;stroke:none;stroke-width:0.3;stroke-linecap:butt;stroke-dasharray:none"
           d="m 78.261466,139.53502 6.456519,0.42565 -7.151735,0.33527 z"
           id="path4015"
           sodipodi:nodetypes="cccc" />
        <path
           style="fill:#000000;stroke:none;stroke-width:0.3;stroke-linecap:butt;stroke-dasharray:none"
           d="m 80.48937,137.41834 6.456519,0.42565 -7.151735,0.33527 z"
           id="path4017"
           sodipodi:nodetypes="cccc" />
        <path
           style="fill:#000000;stroke:none;stroke-width:0.3;stroke-linecap:butt;stroke-dasharray:none"
           d="m 82.213512,135.28776 5.733495,0.43955 -6.428711,0.32137 z"
           id="path4019"
           sodipodi:nodetypes="cccc" />
        <path
           style="fill:#000000;stroke:none;stroke-width:0.3;stroke-linecap:butt;stroke-dasharray:none"
           d="m 84.330182,133.17108 4.593341,0.43955 -5.288557,0.32137 z"
           id="path4021"
           sodipodi:nodetypes="cccc" />
        <path
           style="fill:#000000;stroke:none;stroke-width:0.3;stroke-linecap:butt;stroke-dasharray:none"
           d="m 86.58268,130.84906 3.4949,0.41174 -4.190116,0.34918 z"
           id="path4023"
           sodipodi:nodetypes="cccc" />
        <path
           style="fill:#000000;stroke:none;stroke-width:0.3;stroke-linecap:butt;stroke-dasharray:none"
           d="m 88.543188,128.80513 2.730163,0.41174 -3.425379,0.34918 z"
           id="path4025"
           sodipodi:nodetypes="cccc" />
        <path
           style="fill:#000000;stroke:none;stroke-width:0.3;stroke-linecap:butt;stroke-dasharray:none"
           d="m 90.559313,126.69167 2.173991,0.48126 -2.869207,0.27966 z"
           id="path4027"
           sodipodi:nodetypes="cccc" />
        <path
           style="fill:#000000;stroke:none;stroke-width:0.3;stroke-linecap:butt;stroke-dasharray:none"
           d="m 92.366873,124.67554 1.854192,0.48126 -2.549408,0.27966 z"
           id="path4029"
           sodipodi:nodetypes="cccc" />
        <path
           style="fill:#000000;stroke:none;stroke-width:0.3;stroke-linecap:butt;stroke-dasharray:none"
           d="m 94.522041,122.40914 1.172881,0.41174 -1.868097,0.34918 z"
           id="path4159"
           sodipodi:nodetypes="cccc" />
        <path
           style="fill:#000000;stroke:none;stroke-width:0.3;stroke-linecap:butt;stroke-dasharray:none"
           d="m 96.621592,120.21226 0.839178,0.41174 -1.534394,0.34918 z"
           id="path4161"
           sodipodi:nodetypes="cccc" />
        <path
           style="fill:#000000;stroke:none;stroke-width:0.3;stroke-linecap:butt;stroke-dasharray:none"
           d="m 98.456961,118.26566 0.5889,0.42564 -1.284116,0.33528 z"
           id="path4163"
           sodipodi:nodetypes="cccc" />
        <path
           style="fill:#000000;stroke:none;stroke-width:0.3;stroke-linecap:butt;stroke-dasharray:none"
           d="m 100.59822,116.04097 0.40814,0.45345 -1.103351,0.30747 z"
           id="path4165"
           sodipodi:nodetypes="cccc" />
        <path
           style="fill:#000000;stroke:none;stroke-width:0.3;stroke-linecap:butt;stroke-dasharray:none"
           d="m 134.47027,140.97053 -15.28027,-0.31462 14.71956,-0.3444 z"
           id="path4299"
           sodipodi:nodetypes="cccc" />
        <path
           style="fill:#000000;stroke:none;stroke-width:0.3;stroke-linecap:butt;stroke-dasharray:none"
           d="m 132.91299,139.38544 -12.30475,-0.28681 11.74404,-0.37221 z"
           id="path4301"
           sodipodi:nodetypes="cccc" />
        <path
           style="fill:#000000;stroke:none;stroke-width:0.3;stroke-linecap:butt;stroke-dasharray:none"
           d="m 131.57818,138.02282 -12.30475,-0.28681 11.74404,-0.37221 z"
           id="path4303"
           sodipodi:nodetypes="cccc" />
        <path
           style="fill:#000000;stroke:none;stroke-width:0.3;stroke-linecap:butt;stroke-dasharray:none"
           d="m 130.24337,136.53506 -10.91432,-0.30072 10.27018,-0.31659 z"
           id="path4305"
           sodipodi:nodetypes="cccc" />
        <path
           style="fill:#000000;stroke:none;stroke-width:0.3;stroke-linecap:butt;stroke-dasharray:none"
           d="m 128.93636,135.03339 -10.91432,-0.30072 10.27018,-0.31659 z"
           id="path4443"
           sodipodi:nodetypes="cccc" />
        <path
           style="fill:#000000;stroke:none;stroke-width:0.3;stroke-linecap:butt;stroke-dasharray:none"
           d="m 127.18442,133.42049 -10.91432,-0.30072 10.27018,-0.31659 z"
           id="path4445"
           sodipodi:nodetypes="cccc" />
        <path
           style="fill:#000000;stroke:none;stroke-width:0.3;stroke-linecap:butt;stroke-dasharray:none"
           d="m 125.68275,131.75197 -9.05114,-0.27291 8.407,-0.3444 z"
           id="path4447"
           sodipodi:nodetypes="cccc" />
        <path
           style="fill:#000000;stroke:none;stroke-width:0.3;stroke-linecap:butt;stroke-dasharray:none"
           d="m 124.06985,130.00003 -9.85759,-0.21729 9.21345,-0.40002 z"
           id="path4449"
           sodipodi:nodetypes="cccc" />
        <path
           style="fill:#000000;stroke:none;stroke-width:0.3;stroke-linecap:butt;stroke-dasharray:none"
           d="m 122.37352,128.16466 -9.85759,-0.21729 9.21345,-0.40002 z"
           id="path4451"
           sodipodi:nodetypes="cccc" />
        <path
           style="fill:#000000;stroke:none;stroke-width:0.3;stroke-linecap:butt;stroke-dasharray:none"
           d="m 120.81624,126.63519 -9.85759,-0.21729 9.21345,-0.40002 z"
           id="path4453"
           sodipodi:nodetypes="cccc" />
        <path
           style="fill:#000000;stroke:none;stroke-width:0.3;stroke-linecap:butt;stroke-dasharray:none"
           d="m 119.398,125.02229 -8.52278,-0.13386 7.87864,-0.48345 z"
           id="path4455"
           sodipodi:nodetypes="cccc" />
        <path
           style="fill:#000000;stroke:none;stroke-width:0.3;stroke-linecap:butt;stroke-dasharray:none"
           d="m 117.50701,123.21473 -6.88207,-0.21729 6.23793,-0.40002 z"
           id="path4457"
           sodipodi:nodetypes="cccc" />
        <path
           style="fill:#000000;stroke:none;stroke-width:0.3;stroke-linecap:butt;stroke-dasharray:none"
           d="m 116.14439,121.65745 -6.18685,-0.21729 5.54271,-0.40002 z"
           id="path4459"
           sodipodi:nodetypes="cccc" />
        <path
           style="fill:#000000;stroke:none;stroke-width:0.3;stroke-linecap:butt;stroke-dasharray:none"
           d="m 114.61492,120.10017 -5.08568,-0.27628 4.44154,-0.34103 z"
           id="path4461"
           sodipodi:nodetypes="cccc" />
        <path
           style="fill:#000000;stroke:none;stroke-width:0.3;stroke-linecap:butt;stroke-dasharray:none"
           d="m 113.12048,118.5664 -4.06317,-0.25662 3.41903,-0.36069 z"
           id="path4609"
           sodipodi:nodetypes="cccc" />
        <path
           style="fill:#000000;stroke:none;stroke-width:0.3;stroke-linecap:butt;stroke-dasharray:none"
           d="m 111.56705,116.89499 -2.94234,-0.27628 2.2982,-0.34103 z"
           id="path4611"
           sodipodi:nodetypes="cccc" />
        <path
           style="fill:#000000;stroke:none;stroke-width:0.3;stroke-linecap:butt;stroke-dasharray:none"
           d="m 110.24958,115.57752 -1.84117,-0.31561 1.19703,-0.3017 z"
           id="path4613"
           sodipodi:nodetypes="cccc" />
        <path
           style="fill:#000000;stroke:none;stroke-width:0.3;stroke-linecap:butt;stroke-dasharray:none"
           d="m 133.79187,143.76277 -15.939,-0.27529 15.88955,-0.47222 z"
           id="path4764"
           sodipodi:nodetypes="cccc" />
        <path
           style="fill:#000000;stroke:none;stroke-width:0.3;stroke-linecap:butt;stroke-dasharray:none"
           d="m 133.75254,145.0999 -16.2727,-0.317 16.22325,-0.43051 z"
           id="path4766"
           sodipodi:nodetypes="cccc" />
        <path
           style="fill:#000000;stroke:none;stroke-width:0.3;stroke-linecap:butt;stroke-dasharray:none"
           d="m 133.83597,146.43471 -16.2727,-0.317 16.22325,-0.43051 z"
           id="path4768"
           sodipodi:nodetypes="cccc" />
        <ellipse
           style="fill:#ffff00;stroke:#000000;stroke-width:0.2;stroke-linecap:butt;stroke-dasharray:none"
           id="ellipse2887"
           cx="-123.06752"
           cy="144.49361"
           rx="1.5116618"
           ry="1.6129"
           transform="scale(-1,1)" />
        <ellipse
           style="fill:#ffff00;stroke:#000000;stroke-width:0.2;stroke-linecap:butt;stroke-dasharray:none"
           id="ellipse2889"
           cx="-128.6653"
           cy="144.49361"
           rx="0.92666775"
           ry="1.6129"
           transform="scale(-1,1)" />
        <ellipse
           style="fill:#ffff00;stroke:#000000;stroke-width:0.2;stroke-linecap:butt;stroke-dasharray:none"
           id="ellipse2891"
           cx="-132.36136"
           cy="144.49361"
           rx="0.62188095"
           ry="1.6129"
           transform="scale(-1,1)" />
        <path
           style="fill:#000000;stroke:none;stroke-width:0.3;stroke-linecap:butt;stroke-dasharray:none"
           d="m 146.68355,148.49255 -13.07471,-0.37262 13.02526,-0.37489 z"
           id="path4922"
           sodipodi:nodetypes="cccc" />
        <path
           style="fill:#000000;stroke:none;stroke-width:0.3;stroke-linecap:butt;stroke-dasharray:none"
           d="m 146.71136,149.41023 -13.07471,-0.37262 13.02526,-0.37489 z"
           id="path4924"
           sodipodi:nodetypes="cccc" />
        <path
           style="fill:#000000;stroke:none;stroke-width:0.3;stroke-linecap:butt;stroke-dasharray:none"
           d="m 148.00916,151.33727 -13.07471,-0.37262 13.02526,-0.37489 z"
           id="path4926"
           sodipodi:nodetypes="cccc" />
        <path
           style="fill:#000000;stroke:none;stroke-width:0.3;stroke-linecap:butt;stroke-dasharray:none"
           d="m 147.96983,153.89355 -15.98493,-0.33329 15.93548,-0.41422 z"
           id="path4930"
           sodipodi:nodetypes="cccc" />
        <path
           style="fill:#000000;stroke:none;stroke-width:0.3;stroke-linecap:butt;stroke-dasharray:none"
           d="m 147.96983,155.06988 -15.98493,-0.33329 15.93548,-0.41422 z"
           id="path4932"
           sodipodi:nodetypes="cccc" />
        <path
           style="fill:#000000;stroke:none;stroke-width:0.3;stroke-linecap:butt;stroke-dasharray:none"
           d="m 147.96983,156.3642 -15.98493,-0.33329 15.93548,-0.41422 z"
           id="path4934"
           sodipodi:nodetypes="cccc" />
        <path
           style="fill:#000000;stroke:none;stroke-width:0.3;stroke-linecap:butt;stroke-dasharray:none"
           d="m 147.96983,157.83372 -15.98493,-0.33329 15.93548,-0.41422 z"
           id="path4936"
           sodipodi:nodetypes="cccc" />
        <path
           style="fill:#000000;stroke:none;stroke-width:0.3;stroke-linecap:butt;stroke-dasharray:none"
           d="m 147.96983,159.26391 -15.98493,-0.33329 15.93548,-0.41422 z"
           id="path4938"
           sodipodi:nodetypes="cccc" />
        <path
           style="fill:#000000;stroke:none;stroke-width:0.3;stroke-linecap:butt;stroke-dasharray:none"
           d="m 147.96983,160.44024 -15.98493,-0.33329 15.93548,-0.41422 z"
           id="path4940"
           sodipodi:nodetypes="cccc" />
        <path
           style="fill:#000000;stroke:none;stroke-width:0.3;stroke-linecap:butt;stroke-dasharray:none"
           d="m 147.96983,162.02775 -15.98493,-0.33329 15.93548,-0.41422 z"
           id="path4942"
           sodipodi:nodetypes="cccc" />
        <path
           style="fill:#000000;stroke:none;stroke-width:0.3;stroke-linecap:butt;stroke-dasharray:none"
           d="m 147.96983,163.24341 -15.98493,-0.33329 15.93548,-0.41422 z"
           id="path4944"
           sodipodi:nodetypes="cccc" />
        <path
           style="fill:#000000;stroke:none;stroke-width:0.3;stroke-linecap:butt;stroke-dasharray:none"
           d="m 147.96983,164.59495 -15.98493,-0.33329 15.93548,-0.41422 z"
           id="path4946"
           sodipodi:nodetypes="cccc" />
        <path
           style="fill:#000000;stroke:none;stroke-width:0.3;stroke-linecap:butt;stroke-dasharray:none"
           d="m 147.96983,165.98701 -15.98493,-0.33329 15.93548,-0.41422 z"
           id="path4948"
           sodipodi:nodetypes="cccc" />
        <path
           style="fill:#000000;stroke:none;stroke-width:0.3;stroke-linecap:butt;stroke-dasharray:none"
           d="m 147.96983,167.57452 -15.98493,-0.33329 15.93548,-0.41422 z"
           id="path4950"
           sodipodi:nodetypes="cccc" />
        <path
           style="fill:#000000;stroke:none;stroke-width:0.3;stroke-linecap:butt;stroke-dasharray:none"
           d="m 147.96983,169.10641 -15.98493,-0.33329 15.93548,-0.41422 z"
           id="path4952"
           sodipodi:nodetypes="cccc" />
        <path
           style="fill:#000000;stroke:none;stroke-width:0.3;stroke-linecap:butt;stroke-dasharray:none"
           d="m 147.96983,170.69392 -15.98493,-0.33329 15.93548,-0.41422 z"
           id="path4954"
           sodipodi:nodetypes="cccc" />
        <path
           style="fill:#000000;stroke:none;stroke-width:0.3;stroke-linecap:butt;stroke-dasharray:none"
           d="m 147.96983,172.05895 -15.98493,-0.33329 15.93548,-0.41422 z"
           id="path4956"
           sodipodi:nodetypes="cccc" />
        <path
           style="fill:#000000;stroke:none;stroke-width:0.3;stroke-linecap:butt;stroke-dasharray:none"
           d="m 147.96983,173.53522 -15.98493,-0.33329 15.93548,-0.41422 z"
           id="path4958"
           sodipodi:nodetypes="cccc" />
        <path
           style="fill:#000000;stroke:none;stroke-width:0.3;stroke-linecap:butt;stroke-dasharray:none"
           d="m 147.96983,174.92806 -15.98493,-0.33329 15.93548,-0.41422 z"
           id="path4960"
           sodipodi:nodetypes="cccc" />
        <path
           style="fill:#000000;stroke:none;stroke-width:0.3;stroke-linecap:butt;stroke-dasharray:none"
           d="m 147.96983,176.43214 -15.98493,-0.33329 15.93548,-0.41422 z"
           id="path5133"
           sodipodi:nodetypes="cccc" />
        <path
           style="fill:#000000;stroke:none;stroke-width:0.3;stroke-linecap:butt;stroke-dasharray:none"
           d="m 147.96983,177.85279 -15.98493,-0.33329 15.93548,-0.41422 z"
           id="path5135"
           sodipodi:nodetypes="cccc" />
        <path
           style="fill:#000000;stroke:none;stroke-width:0.3;stroke-linecap:butt;stroke-dasharray:none"
           d="m 147.96983,179.21782 -15.98493,-0.33329 15.93548,-0.41422 z"
           id="path5137"
           sodipodi:nodetypes="cccc" />
        <path
           style="fill:#000000;stroke:none;stroke-width:0.3;stroke-linecap:butt;stroke-dasharray:none"
           d="m 147.96983,180.55504 -15.98493,-0.33329 15.93548,-0.41422 z"
           id="path5139"
           sodipodi:nodetypes="cccc" />
        <path
           style="fill:#000000;stroke:none;stroke-width:0.3;stroke-linecap:butt;stroke-dasharray:none"
           d="m 147.96983,181.97569 -15.98493,-0.33329 15.93548,-0.41422 z"
           id="path5141"
           sodipodi:nodetypes="cccc" />
        <path
           id="path2881"
           style="fill:#ffff00;stroke:#000000;stroke-width:0.199999;stroke-linecap:butt;stroke-dasharray:none"
           d="m 135.93116,155.64476 a 4.7830271,4.1156759 0 0 1 2.79881,0.78238 v 10.34098 h -5.38809 v -10.46707 a 4.7830271,4.1156759 0 0 1 2.58928,-0.65629 z" />
        <path
           id="path2883"
           style="fill:#ffff00;stroke:#000000;stroke-width:0.2;stroke-linecap:butt;stroke-dasharray:none"
           d="m 143.95118,155.64476 c 0.72947,3e-5 1.42107,0.59137 1.4211,1.32085 l 1e-5,9.71931 h -2.84169 l -1e-5,-9.71931 c 3e-5,-0.72948 0.69109,-1.32082 1.42056,-1.32085 z"
           sodipodi:nodetypes="sccccss" />
      </g>
    </g>
  </g>
</svg>
