<?xml version="1.0" encoding="UTF-8"?>
<!-- Created with Inkscape (http://www.inkscape.org/) -->
<svg width="551" height="645" version="1.1" viewBox="0 0 551 645" xmlns="http://www.w3.org/2000/svg">
 <g>
  <path d="m433.87 591.26c68.268-48.092 111.74-129.62 113.62-213.11v-374.66h-543.99v374.66c1.8861 83.486 45.355 165.01 113.62 213.11 45.954 32.372 102.16 49.735 158.37 49.735s112.42-17.363 158.37-49.735z" fill="#fff" stroke="#000" stroke-width="7"/>
  <g fill="#211ffe" stroke="#000" stroke-width="2.5">
   <path d="m546.16 39.838c-15.481 0-13.894 13.612-40.749 13.612s-31.206-18.385-57.479-18.385c-26.272 0-30.624 18.385-57.479 18.385-26.855 0-31.206-18.385-57.479-18.385s-30.624 18.385-57.479 18.385-31.206-18.385-57.479-18.385-30.624 18.385-57.479 18.385c-26.855 0-31.206-18.385-57.479-18.385-26.272 0-30.624 18.385-57.479 18.385-26.855 0-25.267-13.612-40.749-13.612v49.647c15.481 0 13.894 13.612 40.749 13.612 26.855 0 31.206-18.385 57.479-18.385 26.272 0 30.624 18.385 57.479 18.385 26.855 0 31.206-18.385 57.479-18.385s30.624 18.385 57.479 18.385 31.206-18.385 57.479-18.385 30.624 18.385 57.479 18.385c26.855 0 31.206-18.385 57.479-18.385 26.272 0 30.624 18.385 57.479 18.385s25.267-13.612 40.749-13.612v-49.647"/>
   <path d="m4.834 139.13c15.481 0 13.894 13.612 40.749 13.612 26.855 0 31.206-18.385 57.479-18.385 26.272 0 30.624 18.385 57.479 18.385 26.855 0 31.206-18.385 57.479-18.385s30.624 18.385 57.479 18.385 31.206-15.784 57.479-15.784 30.624 15.784 57.479 15.784c26.855 0 31.206-18.385 57.479-18.385 26.272 0 30.624 18.385 57.479 18.385s25.267-13.612 40.749-13.612v49.647c-15.481 0-13.894 13.612-40.749 13.612s-31.206-18.385-57.479-18.385c-26.272 0-30.624 18.385-57.479 18.385-26.855 0-31.206-18.385-57.479-18.385s-30.624 18.385-57.479 18.385-31.206-18.385-57.479-18.385-30.624 18.385-57.479 18.385c-26.855 0-31.206-18.385-57.479-18.385-26.272 0-30.624 18.385-57.479 18.385-26.855 0-25.267-13.612-40.749-13.612v-49.647"/>
   <path d="m546.16 238.43c-15.481 0-13.894 13.612-40.749 13.612s-31.206-18.385-57.479-18.385c-26.272 0-30.624 18.385-57.479 18.385-26.855 0-31.206-18.385-57.479-18.385s-30.624 18.385-57.479 18.385-31.206-18.385-57.479-18.385-30.624 18.385-57.479 18.385c-26.855 0-31.206-18.385-57.479-18.385-26.272 0-30.624 18.385-57.479 18.385-26.855 0-25.267-13.612-40.749-13.612v49.647c15.481 0 13.894 13.612 40.749 13.612 26.855 0 31.206-18.385 57.479-18.385 26.272 0 30.624 18.385 57.479 18.385 26.855 0 31.206-18.385 57.479-18.385s30.624 18.385 57.479 18.385 31.206-18.385 57.479-18.385 30.624 18.385 57.479 18.385c26.855 0 31.206-18.385 57.479-18.385 26.272 0 30.624 18.385 57.479 18.385s25.267-13.612 40.749-13.612v-49.647"/>
   <path d="m4.834 337.72c15.481 0 13.894 13.612 40.749 13.612 26.855 0 31.206-18.385 57.479-18.385 26.272 0 30.624 18.385 57.479 18.385 26.855 0 31.206-18.385 57.479-18.385s30.624 18.385 57.479 18.385 31.206-18.385 57.479-18.385 30.624 18.385 57.479 18.385c26.855 0 31.206-18.385 57.479-18.385 26.272 0 30.624 18.385 57.479 18.385s25.267-13.612 40.749-13.612v49.647c-15.481 0-13.894 13.612-40.749 13.612s-31.206-18.385-57.479-18.385c-26.272 0-30.624 18.385-57.479 18.385-26.855 0-31.206-18.385-57.479-18.385s-30.624 18.385-57.479 18.385-31.206-18.385-57.479-18.385-30.624 18.385-57.479 18.385c-26.855 0-31.206-18.385-57.479-18.385-12.022 0-30.624 18.385-57.479 18.385-26.855 0-25.267-13.612-40.749-13.612v-49.647"/>
   <path d="m516.66 497.41 24.2-60.397c-9.1173 0-8.5937 13.612-35.448 13.612s-31.206-18.385-57.479-18.385c-26.272 0-30.624 18.385-57.479 18.385-26.855 0-31.206-18.385-57.479-18.385s-30.624 18.385-57.479 18.385-31.206-18.385-57.479-18.385-30.624 18.385-57.479 18.385c-26.855 0-31.206-18.385-57.479-18.385-26.272 0-30.624 18.385-57.479 18.385-21.355 0-41.063-25.438-36.348-13.612l23.177 58.133s8.4623 4.9814 13.171 5.1265c37.371 1.1515 31.206-18.385 57.479-18.385 26.272 0 30.624 18.385 57.479 18.385 26.855 0 31.206-18.385 57.479-18.385s30.624 18.385 57.479 18.385 31.206-18.385 57.479-18.385 30.624 18.385 57.479 18.385c26.855 0 31.206-18.385 57.479-18.385 26.272 0 37.363 18.385 57.479 18.385 8.7293 0 11.249-2.8618 11.249-2.8618"/>
   <path d="m485 544.09s-10.798-12.551-37.07-12.551c-26.272 0-30.624 18.385-57.479 18.385-26.855 0-31.206-18.385-57.479-18.385s-30.624 18.385-57.479 18.385-31.206-18.385-57.479-18.385-30.624 18.385-57.479 18.385c-26.855 0-24.46-18.385-57.479-18.385-15.208 0-34.842 16.147-34.842 16.147l34.842 33.5c26.272 0 30.624 18.385 57.479 18.385 26.855 0 31.206-18.385 57.479-18.385s30.624 18.385 57.479 18.385 31.206-18.385 57.479-18.385 30.624 18.385 57.479 18.385c26.855 0 31.206-18.385 57.479-18.385l37.07-37.096"/>
  </g>
  <g fill="#fdfc01" stroke="#000" stroke-linejoin="round">
   <path d="m68.087 221.42s-2.7372 3.6243-2.7372 15.187c0 19.396 7.551 34.124 7.551 34.124s3.6282-13.669 6.011-20.261c3.8142-10.553 9.422-18.09 9.422-18.09s-1.6791 15.791 0.619 26.398c2.3874 11.019 5.338 17.617 5.338 17.617s2.729-11.253 4.32-16.379c1.7689-5.6999 6.9475-15.733 6.9475-15.733" stroke-width="3"/>
   <path d="m90.051 389.94s-2.7135-8.2894-3.3385-21.414c-0.52295-10.982 0.3745-21.125 0.3745-21.125s10.542 16.571 12.938 19.587c5.3125 6.6875 16.25 17.35 16.25 17.35s-1.65-11.803-1.65-19.062c0-9.5089 0.488-17.263 0.488-17.263s5.7393 9.4798 11.4 16.813c3.2952 4.2688 12.95 15.325 12.95 15.325" stroke-width="3.5"/>
  </g>
  <path d="m378.95 158.23s3.2492 4.4475 4.1008 6.9385c0.54851 1.6044 1.6352 4.8422 1.6352 4.8422s12.268-7.5104 29.052-8.071c28.189-0.94146 42.165 24.882 34.289 57.638-5.7155 23.771-36.58 43.098-36.58 43.098s0.18518 18.042-1.8 40.1c-1.125 12.5-4.455 30.861-4.455 30.861s10.193 40.637 13.789 70.711c1.9445 16.263 6.0104 63.809 6.0104 72.125 0 7.1809-45.103 32.786-58.513 40.528-10.321 5.9588-70.369 33.387-79.373 33.387-3.7253 0-31.631-22.948-56.922-34.317-35.176-15.813-63.156-19.352-67.623-30.25-3.093-7.5443 3.227-31.966 5.0444-42.405 1.9033-10.932 10.365-44.871 10.365-44.871s-21.933 5.813-41.831 9.562c-18.296 3.4471-37.398 4.0776-46.767 2.575-8.1365-1.3049-13.651-2.956-19.335-10.552-5.4775-7.3205 11.841-10.899 35.756-16.472 23.915-5.5728 55.952-14.064 79.489-21.482 6.8534-2.16 23.067-10.651 20.329-32.25-2.2552-17.792-19.259-35.439-37.861-47.447-22.776-14.702-58.328-31.981-107.63-61.625-12.502-7.5177-17.254-9.6872-24.472-22.097-7.4154-12.75 2.5335-36.058 6.41-37.334 4.3826-1.4427 12.199 1.6292 68.29 9.934 59.022 8.7388 64.809 10.574 71.232 8.113 2.8506-1.0923 6.492-3.0167 12.095-8.2898 6.0104-5.6568 11.579-8.1317 11.579-8.1317l82.555-15.733z" fill="#fd0002" stroke="#000" stroke-linejoin="round" stroke-width="3.0009"/>
  <g transform="translate(-7.225 -10.72)">
   <path d="m186.46 204.38s-0.44358 6.1434 4.169 5.944c9.3729-0.40513 6.2953-17.185 27-16.382 17.383 0.67471 18.85 25.8 18.85 25.8s-4.6908-21.393-19.162-22.863c-12.784-1.299-18.928 10.375-14.173 10.375 3.1303 0 2.9137-1.4494 6.4173-1.347 4.4404 0.12978 9.6301 4.1244 11.406 10.784 1.7964 6.7372 0.10242 11.993 1.643 13.822 1.0171 1.2078 1.9654 2.547 1.9654 2.547s-1.1372-0.11218-2.0024-0.344c-1.6405-0.43958-2.9252-3.2188-5.031-1.113-2.0944 2.0944-9.228 7.8436-17.788 2.275-7.4587-4.8521-4.5819-16.092-5.413-17.531-1.52-2.6327-5.7687-1.0296-7.949-4.806-2.5244-4.3724 0.068-7.163 0.068-7.163z"/>
   <path d="m205.77 229.1c2.727-0.7307-0.0798-3.4246 0.79-6.6708 0.87825-3.2777 2.295-2.9023 2.295-5.999 0-1.4815-0.28334-3.7752-3.581-3.7752-1.8385 0-5.4062 0.7033-5.4062 7.1502 0 6.5112 3.558 9.9229 5.9022 9.2948z" fill="#fd0002"/>
  </g>
  <path d="m381.24 159.69c2.5278 0.22316 6.7541-0.14104 7.0287-5.166 0.3196-5.8495-3.807-7.097-3.807-7.097s3.4396-13.137 12.171-27.419c9.53-15.587 22.051-29.06 22.051-29.06s-5.3356-3.7813-18.218 3.239c-9.8694 5.3785-14.086 13.425-16.7 13.425-4.0964 0-5.925-6.5905-13.529-13.015-7.7306-6.532-16.251-1.3937-16.251-1.3937s2.5734 3.9414 2.551 8.102c-0.0153 2.8346-1.9259 5.2872 1.27 11.688 2.3841 4.775 6.7294 5.6266 6.7294 10.549 0 6.1057-14.402 12.341-30.671 12.341-16.435 0-26.076-9.5138-26.919-14.996-0.78986-5.1379 10.892-5.3604 17.426-12.434 3.5755-3.871 5.7764-9.1961 6.7138-10.835 1.1004-1.924 3.8062-4.028 3.8062-4.028s-6.19-5.3972-17.954-2.608c-8.4771 2.0099-11.575 7.2144-14.808 6.019-3.4026-1.2578 2.1182-6.1551-1.606-21.094-2.7207-10.914-10.681-15.225-10.681-15.225s-6.9257 2.3885-10.869 13.912c-3.625 10.594-0.37106 19.073-4.239 21.058-2.742 1.4078-5.0531-3.6269-15.028-3.7962-10.306-0.17494-14.546 7.03-14.546 7.03s3.6204 0.91569 6.518 3.1217c3.3818 2.5746 1.9032 7.7187 8.7795 12.387 8.0212 5.446 13.703 0.43165 15.115 4.3636 1.9806 5.5138-8.85 19.392-30.539 19.392-14.185 0-23.618-4.4702-26.06-8.6502-1.857-3.1782 2.5826-6.8512 4.054-8.7292 2.0175-2.5752 3.7087-6.3492 4.974-11.161 0.68092-2.5894 4.576-5.1472 4.576-5.1472-3.1058-5.9906-16.104-6.9915-23.032-1.6232-5.7855 4.4834-6.9192 12.597-12.504 12.658-4.5954 0.0506-5.8068-7.0922-15.953-12.823-13.97-7.8905-24.448-3.8665-24.448-3.8665s10.735 9.1295 24.022 25.354c12.182 14.875 16.994 27.621 16.994 27.621s-4.1843 3.9623-2.1302 8.9714c1.7397 4.2423 6.2255 4.1887 8.926 3.7986 28.46-4.1111 57.99-7.069 90.343-7.069 63.736 0 69.038 0.66853 86.442 2.205z" fill="#fdfc01" stroke="#000" stroke-linejoin="round" stroke-width="2.5"/>
  <path d="m197.66 151.78s38.102-6.1008 91.116-7.227c62.853-1.3352 96.387 2.8701 96.387 2.8701" fill="none" stroke="#000" stroke-width="3"/>
  <g>
   <path d="m288.2 133.25c0.96431 0 1.6631-0.34594 1.6631-6.0574 0-6.1367-0.23161-6.3221-0.80613-6.6538-0.64863-0.37449-1.4289 0.82532-1.732 1.482-0.3316 0.71847-0.574 1.1992-0.574 4.4876 0 3.6597 0.18421 6.7416 1.449 6.7416z"/>
   <path d="m289.13 109.84c1.4777 0 0.752-0.54207 0.752-15 0-18.575 0.12957-20.647-0.53781-20.647-1.766 0-1.7242 3.083-1.7242 20.92 0 12.201-0.15326 14.727 1.51 14.727z"/>
   <path d="m381.41 134.63c1.182 0.6824 1.7646-1.7959 3.55-5.3812 1.6428-3.299 3.6802-5.6799 2.681-6.2568-1.398-0.80716-3.6688 3.038-4.825 4.8505-2.8193 4.4195-2.3788 6.2259-1.406 6.7875z"/>
   <path d="m197.59 138.08c1.1975-1.1975 0.25117-3.163-3.2916-7.9552-4.1743-5.6464-6.289-8.4561-7.1364-7.9668-1.6497 0.95244 1.1724 2.7322 5.545 8.916 4.0478 5.7244 4.2043 7.6847 4.883 7.006z"/>
  </g>
  <g>
   <path d="m383.34 170.03s-3.9375 2.4562-5.75 4.175c-1.0703 1.015-5.1749 4.8384-3.6875 5.237 1.0833 0.29026 3.4892-2.0338 6.125-4.287 1.2748-1.0897 5.6067-3.9634 5.6067-3.9634z"/>
   <path d="m250.69 358.97c0.37937 0.48475-0.38076 1.4062-0.81826 2.0312s-1.4064 1.4905-1.8277 1.2473c-0.48714-0.28125 0.16499-1.3481 0.89593-2.079 0.58338-0.58338 1.5347-1.4746 1.75-1.1995z"/>
   <path d="m256.99 359.15c0.2531 0.2531-0.0787 1.0302-1.7006 2.7723-1.1932 1.2816-2.0972 2.1549-2.3304 1.9217-0.29712-0.29712 0.79528-1.8219 1.414-2.529 0.57619-0.65851 2.2537-2.5283 2.617-2.165z"/>
   <path d="m264.34 358.76c0.19256 0.19256-0.99503 2.0268-2.037 3.356-0.65436 0.83476-1.8406 1.9942-1.9313 1.6317-0.0913-0.36503 0.72488-1.7812 1.2874-2.5 1.1916-1.5226 2.4543-2.7143 2.6809-2.4877z"/>
   <path d="m271.71 358.06c0.28125 0.1875-0.75741 2.2492-1.4435 3.4375-0.43442 0.75244-1.5945 2.569-2.032 2.4753-0.4375-0.0937 0.61598-1.9133 1.175-2.8815 0.69148-1.1977 1.988-3.3125 2.3005-3.0312z"/>
   <path d="m275.62 363.87c0.56529 0.32637 2.2938-2.671 2.9433-3.6875 1.2014-1.8801 2.1241-4.0903 1.807-4.1752-0.63464-0.17005-1.9765 2.1092-3.025 3.9252-0.42072 0.7287-2.2616 3.6278-1.7253 3.9375z"/>
   <path d="m282.27 362.81c0.57634 0.31344 2.0401-2.0607 3.137-3.65 0.78289-1.1344 2.9129-3.8213 2.238-4.211-0.65065-0.37565-2.1847 2.2612-3.634 4.197-0.99945 1.335-2.1802 3.4251-1.741 3.664z"/>
   <path d="m289.16 362.29c0.70558 0.40737 3.0304-3.5842 3.806-4.7873 0.88794-1.3772 3.1111-4.7928 2.644-5.0625-0.68616-0.39616-2.8182 2.9688-3.662 4.3125s-3.4678 5.1448-2.788 5.5373z"/>
   <path d="m343.84 233.76c1.1014 0 1.7519 6.7562 1.6125 14.275-0.19729 10.642-0.70465 14.418-1.937 14.288-0.90933-0.0957-0.52524-1.8051-0.088-12.288 0.43487-10.426-0.67517-16.275 0.4125-16.275z"/>
   <path d="m351.09 237.98c0.97084-0.56051 0.82215 3.8291 0.7625 10.988-0.0307 3.6874-0.3212 9.4667-1.363 9.1875-0.6198-0.16607-0.61777-1.5273-0.346-9.5436 0.18842-5.5578-0.20422-9.967 0.9465-10.631z"/>
   <path d="m359.83 241.91c1.5087 0 1.5028 3.8767-0.212 21.056-0.90985 9.1151-4.0752 18.324-4.988 18.324-1.9415 0 1.6773-4.2544 3.2125-18.574 1.8125-16.906 1.0492-20.806 1.9875-20.806z"/>
   <path d="m369.52 249.32c1.4501 0 1.116-15.542 1.116-20.948 0-14.056-0.16461-16.352-1.1489-16.352-1.2816 0-0.79514 6.0557-0.79514 19.18 0 8.887-0.80778 18.12 0.828 18.12z"/>
   <path d="m295.71 361.84c0.76677 0.4427 4.0435-5 4.9185-6.3438 0.48375-0.7429 3.2568-5.6723 2.531-5.8667-1.1327-0.30351-1.1914 1.51-4.531 6.592-0.71875 1.0938-3.587 5.2325-2.9185 5.6185z"/>
   <path d="m304.15 360.53c1.0586 0.32545 3.0256-2.7758 4.8785-5.9852 1.0729-1.8582 3.6681-8.099 2.6958-8.0548-0.97227 0.0442-0.50098 1.5616-3.4333 6.6406-3.1877 5.5213-4.9753 7.1429-4.141 7.3994z"/>
   <path d="m320.94 341.28c0.875 0.375-1.4129 6.1054-2.584 8.6245-2.19 4.7107-2.991 6.5191-3.735 6.3198-0.68435-0.18338 1.8253-4.994 2.665-7.0269 1.8746-4.5386 3.0709-8.0736 3.654-7.9174z"/>
   <path d="m323.46 353.97c1.3596 0.36431 3.7938-7.5625 4.3562-9.125 0.83567-2.3213 2.4069-8.5125 1.3128-8.5125-0.65026 0-1.6565 3.1437-3.363 9.5125-0.55392 2.0673-2.9376 7.9558-2.306 8.125z"/>
   <path d="m331.45 351.05c1.0774 0.2887 2.2672-4.3563 3.8007-9.2808 0.9388-3.0146 3.6581-10.623 2.6074-10.905-1.0208-0.27352-3.1976 7.3396-4.4521 10.905-1.3898 3.9497-2.8396 9.044-1.9561 9.2808z"/>
   <path d="m340.36 344.2c0.92026 0.24659 3.784-9.4764 4.0868-10.607 0.89682-3.347 3.1125-11.569 2.01-11.865-1.4349-0.38448-1.3556 2.6332-3.841 11.909-1.1322 4.2254-3.3896 10.259-2.2558 10.562z"/>
   <path d="m349.15 335.91c1.2052 0.69581 3.6495-8.25 4.337-11.312 1.0865-4.8399 3.0051-11.487 2.038-11.537-1.1875-0.0625-1.3835 2.42-3.5 10.662-2.4718 9.6263-3.7513 11.682-2.875 12.188z"/>
   <path d="m358.09 329.47c0.93414-0.3787 1.9782-4.1477 4.2497-12.625 0.84249-3.1442 2.6492-12.875 1.1253-12.875-1.4787 0 0.066 2.0988-2.6875 12.375-2.6877 10.031-3.5168 13.461-2.6875 13.125z"/>
   <path d="m366.4 318.84c1.0959 0.12177 2.5895-5.2807 4.1661-12.25 0.53258-2.3542 1.6835-14.688 0.71249-14.688-1.1919 0-0.87296 7.4891-2.5875 15-1.4599 6.3956-3.2554 11.836-2.2911 11.938z"/>
   <path d="m375.49 308.32c1.4853 0 3.0459-8.0538 4.177-15.689 0.35476-2.3946 1.7508-15.556 0.154-15.556-1.008 0-1.3894 7.9425-2.175 15.733-0.45367 4.4987-2.8831 15.512-2.156 15.512z"/>
   <path d="m383.33 295.47c1.7933 0 3.5548-6.3971 4.075-10.125 1.1364-8.1445 1.3291-10.362-0.29999-10.362-1.7702 0 0.21641 1.8985-1.85 10.55-1.7232 7.2146-3.3131 9.9375-1.925 9.9375z"/>
   <path d="m360.82 378.81c0.65035 0.21904 2.599-8.4036 3.4879-15.215 1.5728-12.051 2.0476-18.735 0.475-17.162-0.74346 0.74346-0.68429 1.606-1.9 13.162-1.1572 11.001-3.3104 18.795-2.0629 19.215z"/>
   <path d="m367.8 371.47c1.4709 0.29417 7.5974-17.189 8.58-20.856 1.682-6.2775 3.0709-18.843 2.187-20.374-1.0973-1.9006-0.60451 6.3719-5.267 22.792-2.2569 7.9483-6.2991 18.278-5.5 18.438z"/>
   <path d="m380.21 359.91c1.5029 0.4027 5.1512-8.7784 5.6125-10.5 1.8819-7.0234 2.971-16.634 1.8206-16.634-1.1524 0-1.9623 9.6347-3.7586 15.571-1.774 5.8632-4.7199 11.282-3.6745 11.562z"/>
   <path d="m394.59 344.34c1.477 0.18463 3.2478-13.258 3.4745-17.188 0.57452-9.9577 1.2505-18.812 0.438-18.812s-1.113 9.875-2.363 20.062c-1.3311 10.848-2.4941 15.819-1.5495 15.938z"/>
   <path d="m411.97 260.65s-6.943 3.7395-8.5055 4.927-7.9451 4.775-5.4625 4.775c0.83174 0 4.0066-0.48945 7.775-3.3875 2.3461-1.8042 5.8125-1.5938 5.8125-1.5938z"/>
   <path d="m198.63 381.5c0.60659 0.42106-2.6934 3.9189-3.7775 4.8707-1.5368 1.3494-4.874 4.4101-5.78 4.4101-0.66291 0 2.2983-3.37 3.359-4.2981 2.1557-1.8863 5.4721-5.4869 6.1985-4.9827z"/>
   <path d="m201.75 385.79c1.1647 0.0454 4.7565-3.5438 5.944-4.7s4.599-4.8818 4.2685-5.2122c-0.50726-0.50726-2.5634 1.4949-4.8438 3.7752-0.76706 0.76706-6.3268 6.0997-5.3688 6.137z"/>
   <path d="m212.62 382.44c0.47444 0.47444 2.5818-2.2935 6.1442-6.2622s5.7242-6.644 5.193-7.0815c-0.67036-0.55206-4.4237 3.9154-6.393 6.1875-2.2223 2.564-5.7062 6.3943-4.9442 7.1562z"/>
   <path d="m221.67 380.3s0.272 1.0691 7.7072-7.2512c1.3841-1.5489 6.1318-7.7877 5.027-7.8761-1.1048-0.0884-3.4882 3.6414-6.826 7.5159-4.4221 5.133-5.9082 7.6114-5.9082 7.6114z"/>
   <path d="m206.29 401.76c7e-3 0.33352 1.4718 1.0242 3.8388 0.39 3.4257-0.91791 3.1933-2.013 3.049-2.263-0.22263-0.38561-0.78406 0.59145-3.3141 1.3584-2.3825 0.72224-3.5774 0.33448-3.5736 0.51456z"/>
   <path d="m213.7 405.31c0.13901 0.51881 3.7565-0.38625 5.0381-0.784 1.9292-0.59874 3.8205-1.8849 3.5122-2.419-0.26171-0.45329-1.9654 0.88832-4.7054 1.728-2.74 0.83969-4.0317 0.77783-3.8449 1.475z"/>
   <path d="m234.92 403.38c-0.31726-0.54958-2.9904 1.2291-3.848 1.483-0.92432 0.27365-3.2559 0.90042-5.6568 1.947-1.7236 0.75131-3.7006 1.3157-3.2944 1.7845 0.32459 0.37453 3.4755-0.11929 5.875-1.1625 3.5763-1.5549 7.0538-3.8277 6.9242-4.052z"/>
   <path d="m234.99 409.87c0.85689 0.61465 4.7366-1.7423 5.9375-2.625 1.172-0.86145 5.3485-4.1813 4.2458-4.4767-0.86794-0.23257-2.2794 2.3089-5.3124 3.671-1.3514 0.60689-2.4177 1.0588-3.4472 1.794-1.1955 0.85382-2.0588 1.1812-1.4237 1.6367z"/>
   <path d="m247.23 408.96c0.66842 0.38591 2.4817-0.6738 7.3094-4.7847 1.7138-1.4593 4.0165-4.2028 3.7889-4.597-0.43781-0.7583-2.0445 1.2573-4.0541 2.85-0.91021 0.72139-1.3533 1.5243-2.4419 2.349-1.9949 1.5113-4.9735 3.9684-4.6023 4.1827z"/>
   <path d="m257.94 409.92c0.32853 0.32853 3.9783-1.5123 7.725-6.075 4.7034-5.7278 5.233-8.4327 5.068-8.528-0.2988-0.17251-2.4961 4.003-5.7219 7.979-2.7742 3.4193-7.3704 6.3246-7.0711 6.624z"/>
   <path d="m271.27 406.34c0.79566 0.2132 4.2058-2.7032 6.162-5.075 1.6371-1.985 3.6895-7.3873 2.931-7.3873-0.64978 0-1.6042 4.0191-3.462 6.4373-3.7693 4.9061-6.3451 5.8337-5.631 6.025z"/>
   <path d="m282.41 406.74c0.35266 0.20361 3.505-5.502 4.5-8.2125 1.2601-3.4327 2.1304-6.763 1.263-6.763-0.91248 0-0.56953 1.1717-2.55 6.513-1.0312 2.7812-3.5522 8.2666-3.213 8.4625z"/>
   <path d="m289.99 405.78c0.36065 0.20822 4.485-6.3394 5.15-7.875 2.2025-5.0862 4.5409-10.938 2.888-10.938-1.0946 0-1.5109 4.184-3.925 9.375-1.0392 2.2346-4.4518 9.2424-4.113 9.438z"/>
   <path d="m300.06 403.03c0.44239 0.25541 4.8568-6.7248 6.0372-10.062 1.3826-3.9095 3.6411-9.5255 2.013-9.5255-0.78975 0-1.5848 4.0669-3.326 8.488-2.0287 5.1512-5.3461 10.741-4.7242 11.1z"/>
   <path d="m313.9 400.03c0.93437 0.53946 4.7899-7.2216 5.575-9.3125 0.86428-2.3018 3.8733-10.546 2.7375-11-0.97578-0.39031-2.6811 5.5592-4.2505 9.875-2.3376 6.4284-4.7243 10.055-4.062 10.438z"/>
   <path d="m326.11 396.38c0.80343 0.46386 3.5977-5.3317 4.962-9.5375 1.3616-4.1975 3.0983-12.938 1.801-12.938s-1.3833 6.0883-3.3255 11.537c-2.4924 6.9923-4.1337 10.536-3.4375 10.938z"/>
   <path d="m337.28 390.47c0.97532 0.22949 3.9308-8.8925 4.5625-11.25 0.82597-3.0826 2.4778-11.312 0.91251-11.312-0.9371 0-0.55921 3.1626-2.0893 9.1187-2.489 9.689-4.4991 13.182-3.3857 13.444z"/>
   <path d="m346.53 388.18c0.90636 0.14161 3.7566-8.0767 4.7-11.838 1.2071-4.812 3.115-12.297 1.862-13.55-0.60233-0.60233-0.63218 3.2602-3.287 12.675-1.9902 7.0583-4.6329 12.5-3.275 12.713z"/>
   <path d="m364.66 448.87s4.0241-7.2183 6.325-14.15c1.42-4.2775 5.028-18.257 3.437-18.257-1.6904 0-2.3713 9.6348-4.7115 17.132-2.6248 8.4086-5.0505 15.275-5.0505 15.275z"/>
   <path d="m378.9 432.41s4.2745-10.174 5.954-25.225c1.0235-9.1719 1.6957-20.488-0.023-20.948-1.3144-0.3522 0.10646 3.9804-1.987 20.418-1.8215 14.302-3.944 25.755-3.944 25.755z"/>
   <path d="m386.43 423.04s4.8563-7.1652 7.9786-25.313c1.5395-8.9484 2.2455-19.051 0.94936-19.799-1.1584-0.66878-1.3504 14.024-3.389 22.893-2.423 10.541-5.539 22.22-5.539 22.22z"/>
   <path d="m397.2 401.3s3.1162-5.1752 4.983-12.142c1.7584-6.5624 2.5165-13.954 1.388-12.825-1.2868 1.2868-0.60679 4.3105-2.7375 12.262-0.71194 2.657-3.6335 12.705-3.6335 12.705z"/>
   <path d="m305.25 531.38c0.52863 0.52863 1.7848-1.0822 3.5008-3.5026 1.6095-2.2702 4.0635-5.5034 3.399-5.887-0.60883-0.35151-2.4204 2.3351-4.365 4.9646-1.5422 2.0855-2.8712 4.0886-2.5348 4.425z"/>
   <path d="m318.33 527.22c0.84895 0.49014 4.2854-4.5614 5.2195-6.069 0.79105-1.2768 3.6365-6.5125 2.8865-6.7s-1.999 2.8134-4.7615 6.8562c-2.4822 3.6326-4.0534 5.5035-3.3445 5.9128z"/>
   <path d="m330.29 524.97c1.2755 0.45019 5.0682-9.2418 5.4801-10.53 0.48392-1.5133 3.7123-10.341 2.0771-10.297-0.96548 0.0261-1.7573 4.7262-4.1751 10.96-1.0674 2.7521-3.9158 9.6784-3.3821 9.8667z"/>
   <path d="m340.13 518.55c1.744-0.41766 4.9055-10.562 5.48-12.419 0.85994-2.7782 3.2057-12.507 1.979-12.507-1.2063 0-2.1342 7.232-3.635 12.198-2.0494 6.7808-4.4687 12.882-3.824 12.728z"/>
   <path d="m350.29 508.12c1.0685 0.2863 4.571-7.8281 5.955-12.993 1.8118-6.7618 3.376-12.469 2.621-12.905-1.127-0.6507-2.4108 6.543-4.7155 14.121-2.4882 8.1814-4.8038 11.242-3.8605 11.777z"/>
   <path d="m379.74 504.63c1.8185 0.48727 5.6151-11.793 6.1217-14.275 0.88389-4.331 2.6955-12.031 1.7449-12.286-1.1642-0.31195-1.9226 6.4701-3.9546 14.054-0.87535 3.2668-4.2792 12.409-3.912 12.507z"/>
   <path d="m392.78 494.78c1.5931 0.20962 5.375-14.25 5.75-16.375s3.6449-16.88 2.012-18.513c-0.8149-0.8149-2.6896 14.353-4.5745 21.388-1.7538 6.5451-4.2427 13.361-3.1875 13.5z"/>
   <path d="m405.3 474.96c0.85181 0.40271 3.6964-13.755 4.198-16.338 1.2286-6.3262 3.1266-16.838 1.5356-16.573s-1.7688 10.795-3.8007 21.169c-0.83969 4.2868-2.385 11.528-1.933 11.742z"/>
   <path d="m404.73 450.53c0.89906 0.2409 2.0673-7.36 2.7375-16.125 0.37279-4.8758 1.3188-15-0.625-15-1.76 0-0.20595 6.9168-1.4375 17.312-0.50649 4.2754-1.5457 13.579-0.67499 13.812z"/>
   <path d="m143.16 253.38c0.86178-0.28412 1.039 3.0076 0.085 2.752-1.8761-0.5027-1.8344-2.1752-0.085-2.752z"/>
   <path d="m150.06 258.8c2.3122 0.61954 0.55375-2.9186-9.4e-4 -2.9186-0.72822 0-2.3128 2.2987 9.4e-4 2.9186z"/>
   <path d="m209.31 305.11c1.1328 0 2.1006-4.2757 2.529-8.8161 0.28254-2.9948 0.5309-7.7537-0.844-6.9599-0.93817 0.54165 0.013 1.2666-1.475 9.258-0.27362 1.4695-0.9277 6.518-0.21 6.518z"/>
   <path d="m157.22 256.3c0.81071 0 0.45007 2.0152 0.84699 3.4965 0.69114 2.5794 1.1528 3.6038 0.088 3.8891-0.71086 0.19047-1.2711-1.8628-1.6004-2.8726-0.71757-2.2006-0.50129-4.513 0.66539-4.513z"/>
   <path d="m164.78 258.18c1.2983 0.34788 1.4688 2.5375 1.625 4.85 0.11275 1.6686 0.43515 3.997-0.53125 4.256-0.82523 0.22112-1.3125 0.1815-1.4375-3.9748s-0.66936-5.4027 0.34375-5.1312z"/>
   <path d="m173.79 272c1.2281 0 0.75964-4.515 0.656-5.5312-0.29936-2.9355-0.14108-6.353-1.825-6.1185-1.0387 0.14464-0.47057 3.2534-0.125 6.306 0.1875 1.6562 7e-3 5.3438 1.294 5.3438z"/>
   <path d="m182.75 265.19c0.94085 0 0.7379 2.2193 1.3518 7.1075 0.59034 4.7006 1.0771 6.6052 0.207 6.7455-1.1805 0.19033-1.364-1.7893-1.894-5.8174-0.48446-3.6818-0.78162-8.0356 0.33479-8.0356z"/>
   <path d="m194.7 284.72c1.215-0.32557 0.22716-1.7533-0.0112-6.0104-0.13643-2.4369-0.35279-7.085-1.743-6.7026-1.0651 0.2929-0.29876 2.2885-0.094 6.9625 0.18831 4.2983 0.88342 6.0091 1.8482 5.7506z"/>
   <path d="m202.59 294.93c1.1219-0.051 0.61797-3.6681 0.397-9.3692-0.20767-5.3578-0.29801-8.0143-1.514-7.9991-1.1758 0.0147-0.58037 5.2583-0.36266 9.0598 0.23377 4.0819-9e-3 8.3762 1.4797 8.3085z"/>
   <path d="m215.29 316.98c0.83396 0.38721 2.4529-3.4724 3.0049-7.6014 0.72943-5.4565 0.71084-11.641-0.13258-11.711-1.0607-0.0884-0.76009 5.1133-1.3583 9.8111-0.39985 3.1402-2.1302 9.2157-1.514 9.5018z"/>
   <path d="m220.02 329.8c1.202 0.69394 4.1654-6.6207 4.826-9.2251 1.1637-4.5878 1.972-10.751 1.1377-10.751-1.275 0-0.8155 4.5643-2.6057 9.8227-2.4682 7.2501-4.3045 9.6066-3.358 10.153z"/>
   <path d="m229.69 186.18s13.679 5.2112 12.17 23.353c-0.76702 9.2204-5.8578 20.796-7.697 19.513-1.7872-1.2464 5.833-6.6318 5.833-22.239 0-12.345-10.306-20.627-10.306-20.627z"/>
   <path d="m63.707 165.09s4.1852 1.8549 5.0174 8.4385c1.0486 8.2962-0.863 12.33-0.863 12.33s3.2703-1.498 3.2703-9.3695c0-5.0282-0.82446-6.4131-1.2753-7.7125-0.54442-1.5692-1.4398-3.3181-1.4398-3.3181z"/>
   <path d="m43.39 192.31s-0.70782-7.5317 0.53873-10.346c1.131-2.5537 2.4772-3.9131 4.496-6.2756 1.1186-1.3091 1.9951-4.0929 0.765-4.803-3.1835-1.838-6.1078 5.7231-6.927 8.7805-2.1296 7.9477 1.1273 12.644 1.1273 12.644z"/>
   <path d="m322.09 158.47s1.4919 2.9315 3.9123 11.964c2.4043 8.973 2.7906 13.63 2.7906 13.63s1.3827-4.9451-1.2997-14.956c-1.7801-6.6436-3.2357-11.004-3.2357-11.004z"/>
   <path d="m330.64 157.97s2.2986 8.2564 3.1255 12.64c0.73575 3.8998 0.97249 9.8556 1.631 10.032 0.79748 0.21368 0.68287-5.6334 0.179-8.8388-0.48712-3.0989-2.417-13.877-2.417-13.877z"/>
   <path d="m338.21 158.15s2.4084 8.1716 3.192 16.322c1.3364 13.899 0.7473 14.625 1.55 14.625 1.133 0 1.0176-5.3454 0.2-15.438-0.54419-6.7173-2.425-15.812-2.425-15.812z"/>
   <path d="m346.59 158.19s2.6934 13.389 2.6934 22.152c0 15.039-0.76855 18.219 0.169 18.375 0.9375 0.15625 1.443-12.183 1.443-17.149 0-10.298-2.2725-23.335-2.2725-23.335z"/>
   <path d="m354.43 207.71c1.5956-0.14959 2.65-9.1264 2.65-16.425 0-5.4913-0.46096-15.62-1.7504-15.275-1.0623 0.28464-0.0126 4.027-0.0126 15.588 0 11.753-1.7844 16.197-0.887 16.112z"/>
   <path d="m359 158.85s2.5955 5.6806 4.0002 11.181c1.4754 5.7775 1.8515 11.909 2.4615 11.746 0.57431-0.15389-0.0334-8.8035-1.2315-13.531-1.2334-4.8671-2.2878-9.4688-2.2878-9.4688z"/>
   <path d="m427.89 178.69c0.43904-1.3443-6.0977-4.605-11.628-4.605-8.482 0-16.753 3.8801-20.341 6.3983-8.9981 6.3142-12.172 10.513-10.621 11.408 2.1893 1.264 2.9657-2.2376 6.87-5.5805 7.9436-6.8014 15.656-9.8939 22.838-10.054 10.85-0.24181 12.298 4.2196 12.882 2.433z"/>
   <path d="m204.71 321.03s4.7245 6.6421 4.7245 23.2c0 7.6991-2.2422 20.712-3.244 20.712-1.2107 0-0.0198-1.7783-0.093-10.475-0.0656-7.7981-1.5125-8.5625-1.5125-8.5625"/>
  </g>
  <path d="m433.87 591.26c68.268-48.092 111.74-129.62 113.62-213.11v-374.66h-543.99v374.66c1.8861 83.486 45.355 165.01 113.62 213.11 45.954 32.372 102.16 49.735 158.37 49.735s112.42-17.363 158.37-49.735z" fill="none" stroke="#000" stroke-width="7"/>
 </g>
</svg>
