<?xml version="1.0" encoding="utf-8"?>
<!-- Generator: Adobe Illustrator 27.5.0, SVG Export Plug-In . SVG Version: 6.00 Build 0)  -->
<svg version="1.1" id="Layer_1" xmlns="http://www.w3.org/2000/svg" xmlns:xlink="http://www.w3.org/1999/xlink" x="0px" y="0px"
	 viewBox="0 0 547.3 682.2" style="enable-background:new 0 0 547.3 682.2;" xml:space="preserve">
<style type="text/css">
	.st0{fill:#CD0000;}
	.st1{fill:#FFFFFF;}
	.st2{fill:#003366;}
	.st3{fill:#CC0000;}
</style>
<g>
	<g id="XMLID_00000012453336360466435190000009985775649535037098_">
		<g>
			<path d="M547.3,405.3v3.3c0,75.6-30.6,144-80.1,193.5c-48,48-113.6,78.2-186.4,80.1c-2.4,0.1-4.7,0.1-7.1,0.1
				c-2.4,0-4.8,0-7.1-0.1C118.7,678.4,0,557.3,0,408.6V0h266.5h14.3h266.5v195.2v14.3v181.6V405.3z M533.1,408.6v-3.3H280.8v262.6
				c32.5-0.9,64-7.7,93.8-20.3c30.9-13.1,58.6-31.8,82.5-55.6c23.8-23.8,42.5-51.6,55.6-82.5C526.2,477.6,533.1,443.6,533.1,408.6z
				 M533.1,391.1V209.4H280.8v181.6H533.1z M533.1,195.2V14.2H280.8v180.9H533.1z M266.5,667.9V405.3v-14.3V209.4v-14.3V14.2H14.2
				v394.3c0,35,6.9,69,20.4,101c13.1,30.9,31.8,58.6,55.6,82.5c23.8,23.8,51.6,42.5,82.5,55.6C202.5,660.2,234,667,266.5,667.9z"/>
			<path class="st0" d="M533.1,405.3v3.3c0,35-6.9,69-20.4,101c-13.1,30.9-31.8,58.6-55.6,82.5c-23.8,23.8-51.6,42.5-82.5,55.6
				c-29.8,12.6-61.3,19.4-93.8,20.3V405.3H533.1z"/>
			<rect x="280.8" y="209.4" class="st1" width="252.3" height="181.6"/>
			<rect x="280.8" y="14.2" class="st0" width="252.3" height="180.9"/>
			<path class="st2" d="M266.5,405.3v262.6c-32.5-0.9-64-7.7-93.8-20.3c-30.9-13.1-58.6-31.8-82.5-55.6
				c-23.8-23.8-42.5-51.6-55.6-82.5c-13.5-32-20.4-65.9-20.4-101V14.2h252.3v180.9v14.3v181.6V405.3z"/>
		</g>
		<g>
		</g>
	</g>
	<g>
		<g>
			<path class="st1" d="M25.6,332c3.3,2.6,4.9-0.1,6.7-2c1.8-1.8,2.6-0.2,4.3,2c1.5,1.8,5.8-1.7,5.7-5c-0.1-3.3-2.5-7.2-6.7-6.1
				c-4.2,1.1-4-10.4-5.9-9.2c-1.8,1.3-0.6,11.6-1,13.2C28.4,326.5,22.2,329.3,25.6,332z"/>
			<path class="st1" d="M140.7,115c0.7,1.1,1.5,1.5,3,1c1.4-0.5,2.4-2.6,1.4-3.7c-1-1.1-2.1-1.3-2.7-1
				C140.5,112.3,140,114,140.7,115z"/>
			<path class="st1" d="M129.8,112.8c0,1,0.6,2.5,2.1,2.8c1.1,0.2,1.1,0.8,2.9,0c1.8-0.8,2.5-4.9-1.1-4.9
				C130,110.5,129.8,111.8,129.8,112.8z"/>
			<path class="st1" d="M141.8,92c-1.3-0.5-2.3,0.8-2.3,0.8c-2.7,1.5-2.2,6-0.6,6.6c1.6,0.6,2.8,1.6,3.4-1.4
				C142.9,95.1,143.1,92.5,141.8,92z"/>
			<path class="st1" d="M128.6,87.6c-3.9-0.8-4.2,1.3-4.1,2.6c0.1,1.3,1.6,3.2,5.3,2.1C131.3,91.8,132.6,88.3,128.6,87.6z"/>
		</g>
		<path class="st3" d="M64.9,81.5c0.1-2.2,6.7-5.7,8-5.2c1.3,0.5,3.7,2.1,8.6,3.1c4.9,1,10.1-0.4,6.1-4.2c-4-3.8-3.8-13.1-3.9-16.8
			c-0.1-3.7,11.4-11.8,15.5-13.3c4.1-1.5,5.3,3,1.9,5.2s-7.6,9.7-6.3,16.5s3.5,7.2,6,8.8c2.5,1.6-1.6,4.7,2.3,6.2
			c3.9,1.5,8.2,2.1,9.9,5.5c1.7,3.4,0.8,3.1,1.9,6.8c1.2,3.8,2.8,3,3.9,0c1.1-3,5.2-3.4,5.8-2.4c0.6,1.1-1.9,7.5,1.4,6.9
			c3.3-0.6,5.1-5.7,7.1-6.2s0.4,8.7,3.3,9.9s2.9,0.5,5-1.5c2-2,4.5-6.6,8.2-6.2c3.7,0.3,7.5,4.9,7.8,8.9s2.1,10.6-0.9,11.4
			s-7.8,1.1-8.2,0c-0.3-1.1,1.2-6.3-3.5-7.2c-4.7-0.9-7.4,2.7-9.2,2.7s0.8-4.5-2.4-2.8s-8.2,4-11,1.7c-2.8-2.3-4-5.6-6.1-3.5
			c-2.1,2-4.7,3.9-8.3,0.5c-3.5-3.3-8.7-6.1-11.6-4.7c-2.9,1.4-7.6,13.1-10.9,10.5c-3.2-2.6,0.6-5.9-2.1-7.4
			c-2.8-1.5,2.3-4.1,4.2-6.7c1.9-2.6,2.8-9.8-1.9-10.8c-4.7-1-2.7,6.3-9.8,5.2c-7.1-1.1-5.8-6.4-8.1-7
			C65.3,84.9,64.8,83.2,64.9,81.5z"/>
		<path class="st3" d="M146.3,60.2c0.3-2.7,3.3-5.9,6.7-6.4c3.5-0.5,5.9-0.2,7.4-0.7c1.5-0.5-1.4-3.7-2.3-6.9
			c-0.7-2.7-1.6-2.9-1.6-9.8s2.4-9.7,0-8.3s-12.2,10.8-12.5,16.5s-0.4,11,0.7,13.5C145.9,60.5,146.3,60.2,146.3,60.2z"/>
		<path class="st3" d="M55.8,43.5c-1-2,0.6-7.3-0.3-10.5c-0.9-3.2,0.3-6.4,1.2-5.6c0.9,0.8,1.1,8.6,3.6,11.5c2.5,3,3,4.3,2.1,6.7
			C61.5,48,56.9,45.7,55.8,43.5z"/>
		<path class="st3" d="M31,49.3c-2.2-1.2-4-2.9-4.5-5.6s-3.4-5.8-5.4-6.9c-2-1-2.5-6.9,1.2-3.6s5.8,4.7,8.7,6.5
			c2.9,1.9,2.8,8.3,2.4,9.8S31.6,49.7,31,49.3z"/>
		<path class="st3" d="M27,83.1c-1.9-1.1-3.1-0.7-4.2-2.3c-1.1-1.6,0-2.1-2-1.6c-2,0.4-5.4,6.1-6,6.7c-0.5,0.6,6.2-0.4,8.3,0.3
			c2.1,0.7,2.9,0.8,4-0.3C28.3,84.8,27.6,83.5,27,83.1z"/>
		<path class="st3" d="M40.8,121.7c-1,1.4-3.4,4.5-5.9,5.9c-2.5,1.4-2.6,2,1.4,1.4c4-0.6,5.2-0.5,6.5-3.5S41.7,120.6,40.8,121.7z"/>
		<path class="st3" d="M23.9,324.4c-1.5-0.7-0.4-4-3.9-5.2c-3.5-1.2-4.5-2.7-0.8-3.1c3.7-0.5,5.5,0.8,6.8,1.3
			C27.4,317.9,26.9,325.7,23.9,324.4z"/>
		<path class="st3" d="M24.3,365.1c-2.7,1.4-7.3,6.6-7.5,9.2c-0.2,2.5,2.4,5.8,3.3,7c0.9,1.2-2.9-4,2.1-7.6c5-3.6,5.5-3.1,5-6.5
			C26.6,363.6,24.3,365.1,24.3,365.1z"/>
		<path class="st3" d="M55.6,375c-3.3,1.6-2.4,9.2,1.5,11s6.9,1.5,5-3.8C60.3,376.8,58.5,373.6,55.6,375z"/>
		<path class="st3" d="M48.4,429.2c-3.1-2.7,11,4.9,12.4,8.9c1.3,3.9-2.3,3.1-5.2,3.3c-2.9,0.2-5.7,0.3-5.3-1.4S57,436.5,48.4,429.2
			z"/>
		<path class="st3" d="M28,455.2c-3.3-0.9-6.8,0.6-8.6,3.5s5.2,4.9,7.9,2.9S28,455.2,28,455.2z"/>
		<path class="st3" d="M41.8,492.5c-2-1.1-2.3-1.7-4.5-0.9c-2.2,0.8-2.8,3.8-4.8,5.2c-1.5,1.1-0.8,7.2-0.3,10.2
			c0.1,0.8,1.1,1.3,1.8,0.8c2.3-1.6,6.7-4.8,7.9-7.8C43.5,495.9,41.8,492.5,41.8,492.5z"/>
		<path class="st3" d="M71,509.1c-2.3,0-5.1,3.3-5.4,6.6s3.6,5.9,4.8,7.5c1.1,1.7,4.1-7.2,4.8-9.5C75.9,511.3,72.4,509.1,71,509.1z"
			/>
		<path class="st3" d="M181,584.4c-0.6,0.8-7.9-1.4-10.3-2.4c-2.4-1-1.9-5.4,0.8-6.3c2.6-0.9,6.8,1.4,8.5,3.9S181.7,583.5,181,584.4
			z"/>
		<path class="st3" d="M172.4,618.8c0-3.7-7.1,0.1-10.2,3.1c-3.1,3-0.6,10.4,0,13.8c0.6,3.4-1-6,3.1-8.6c2.5-1.7,5-2.5,6.6-2.9
			c0.8-0.2,1.3-1,1.1-1.9C172.7,621.1,172.4,619.3,172.4,618.8z"/>
		<path class="st3" d="M201.9,637.9c2.6-1.4,5.5-1,6.4,2.6c0.8,3.6-4,7.4-4.3,12.5s-4.4,8.4-3.5,3.4c1-5,1-12,0.7-14.8
			S201.2,638.3,201.9,637.9z"/>
		<path class="st3" d="M247.5,618.7c1.2-2.2,2.3-4.6,4.1-4.9c1.8-0.4,5,1.9,6.7,7.4s2,13.2-4.4,7.7
			C247.4,623.4,247.2,619.3,247.5,618.7z"/>
		<path class="st3" d="M85.6,350.1c-0.5-2.9,1.2-5.4,3-6.3c1.9-0.9,6.2,5.6,7.5,10.8C97.5,359.8,85.6,350.1,85.6,350.1z"/>
		<path class="st3" d="M201.8,35.4C201.8,35.4,201.8,35.4,201.8,35.4c-0.3-1.2-0.6-2.1-1-2.8c-0.5-0.8-1.1-1.5-1.7-2.1
			c-3.4-4.3-7.8-5.9-9-5.9c-0.9,0,1.3,1.7,3.3,4.4c0.2,1.1,1,2.5,2.1,3.5c0.5,1.2,0.9,2.5,1.1,3.9c0.1,5.9-2.8,17.4-13.7,26.7
			c-1.2,1,0.9,3.9,0,5.6c0,0,12.9-0.7,14.3-0.5c0.3,0,0.4-0.2,0.5-0.6C201.9,61.5,204.7,43.1,201.8,35.4z"/>
		<g>
			<path class="st1" d="M250.5,464.5c3.8-0.3,4.6-5.1,7.2-0.3c2.6,4.9,8,7.6,8.2,2.5c0.1-5.1-2.4-11.7-9.4-13.4
				c-7-1.7-4.1,5.5-11.8,3.2c-7.7-2.3,3.9-16.2,12-22.8c8.1-6.6,5-18.9-5.8-34c-10.8-15.1,8.9-30.1,3.1-32.4
				c-5.8-2.3-6.2,3.1-14.3,12c-8.1,8.9-8.1,17.8-1.9,32c6.2,14.3,3.1,22-1.2,25.9c-4.2,3.9-5.4-0.4-12.7-16.6
				c-7.3-16.2-5-28.9-6.9-41.6c-1.9-12.7-10.6-18-7.9-20c2.6-2,17,2.5,31.5-14.3c14.4-16.8,6.7-65.8,1.9-76.1
				c-4.8-10.3,8.9-9.4,18.2-19.4c9.4-10.1,0-32.9-5-46.3c-5-13.4,6.5-30,1.7-27.1c-4.8,2.9-17.8,26.2-11.5,40.1
				c6.2,13.9,5.5,22.3-2.6,29.5c-8.2,7.2-9.4-4.8-16.3-24.5c-7-19.7,2.2-38.7,19.4-51.1c17.3-12.5,9.1-28.3,7.9-25
				s-3.4,11.5-13.2,18.2c-9.8,6.7-2.4-11,7.4-24.5c9.8-13.4,12-35.8,8.6-55.5c-3.4-19.7-25.7-35.5-16.6-18.2s8.4,39.4,4.3,51.1
				c-4.1,11.8-31,60-29.3,89.5c1.7,29.5,13.9,56.2,20.4,70.8c6.5,14.6,0,22.3-1.4,16.3c-1.4-6-5.8-18.2-14.6-21.8
				c-8.9-3.6-18.7-10.8-19.2-23.3c-0.5-12.5,11.8-12.5,6.2-13.7s-17.8,4.8-17.8,21.4s11.8,23.5,16.8,24.2c5,0.7,0.2,8.6-5,11
				s-2.2,15.1,5.5,25c7.7,9.8,15.8,6,10.6,1.2c-5.3-4.8-6-12-3.6-16.1c2.4-4.1,25.9-12,24.5,18.7c-1.4,30.7-19.2,31-25.9,31
				c-6.7,0-7.7-6-24.5-40.3c-16.8-34.3-18.9-70.5-19.8-82.8c-1-12.3,4.6-10.8,14-4.6c9.4,6.2,13.9-13.9,11.6-11.8
				c-2.2,2.1-8.6,2.6-15-4.1c-6.4-6.7-1.1-29.7,1.8-30.9c2.9-1.3,6.4,9.3,18.5,12.4c12.1,3.2,15.5-9.3,11.8-7
				c-3.7,2.2-7,0.3-9.4-3.2c-2.4-3.5-1.6-30.3,0-33.2c1.6-2.9,5.6,1.9,12.6,4.3c7,2.4,9.7-3.5,3.3-8.8c-6.4-5.3-0.3-13.2,0.3-17.2
				c0.6-4,0.3-14.5,0.3-22.5c0-8-8-7.3-14.4-7.5c-6.4-0.2-10.7-11.8-6.2-12c4.5-0.2,3.7,4.3,5.1,7c1.4,2.7,13.1,2.2,16.7,0
				c3.7-2.2,5.4-5.1,8.6-4.5c3.2,0.6,9.6-7.2,5.3-7.7c-4.3-0.5-9.1-5.7-13.1-6.9c-4-1.1-11.1,0.3-18.6,0.3c-7.5,0-7.9,4.4-15.3,3.1
				c-7.5-1.3-2.3-2.5-3.3-7.1s-1.9-8.9-3.3-9.8c-1.4-0.9-25.6,0.1-28.2,1.1c-2.6,1-4.2,9.2-3.3,9.4c0.9,0.2,18.7,0.4,20.9,2
				s12,5.8,12,5.8s-6.3,2.4-8.7,2c-2.4-0.3-1.7,3.9-6.2,5.8c-4.5,1.9-10.7,1.7-11.1-0.3c-0.4-2,2.7-2.7,4.2-2.9
				c1.5-0.2,0.9,0.1,1.3-1.4c0.4-1.5,2.5-4.2,4.5-5.9c2-1.6,0.1-2.7-3.6-3.1c-3.7-0.5-5.7,4.8-7.3,4.9c-1.6,0.1-5.3-3.4-7.1-3.9
				c-1.8-0.5-6.2,0.8-17.2,0.2c-11-0.5-5.9-2-9-2.3c-3.1-0.4-0.7,4.3,0.4,5.8c1.1,1.4-0.4,4-4,3.8c-3.6-0.2-2.5-7.6-5.6-8.1
				c-3.1-0.5-3.2,1.3-3.1,7c0.2,5.8,5.9,11.7,14.4,9.9c8.5-1.8,23.6,6.5,32.1,9.7c8.5,3.2,9.8,8,9.9,12.8
				c0.1,4.8-2.1,11.2-18.5,12.3c-16.4,1.2-19.2-5.3-20.8-6.8c-1.6-1.5-2.4-0.1-4.1,1.1c-1.6,1.2-12.2,1.4-9.3,7.1
				c3,5.8,6.3,3.3,14.9,3.3c6.7,0,8.3,2.3,12.4,5.1c0.9,0.6,3,2.3,4.3,1.2c6.2-5.2,23-7.9,31.3-9.1c8.3-1.2,11.8-4.3,14-7.3
				c2.2-3,3.4,3.7,2.4,5.8c-1.1,2.1-5.5,3.6-9.6,5.2c-4.1,1.6-20,4.7-20.3,7.4c-0.4,2.7-6.7,13.7-33.5,22.3S93.5,182.5,92,187.2
				c-1.4,4.7-5.4,5.9-3.1-1.6c2.3-7.6,12.8-18.9,15.5-21.1c2.7-2.2,2-3.4-14.8-27.5C72.9,112.8,62.1,84,61.9,70.7
				c-0.2-13.3,8.3-22.9,6.6-24.1c-1.7-1.2-5.8-1.1-7.1,1.4c-1.3,2.5-1.9,2.6-3.3-0.7s-3.2-3.1-5.7-1.9c-2.5,1.2,3.5,29.8-1.6,24.7
				C45.7,65,49.1,51.2,42,45.4c-2.6-2.2-5.8-0.2-6.2,5.9c-0.4,6-4.9,0.9-10,2.8c-5.1,1.9,0.8,4.1,5,5.2C35,60.4,43.9,77.1,42.4,79
				c-1.5,1.9-9.7-1.7-12.8-3.1s-5.4,2-1.8,5.7c3.6,3.7,1.5,3.2-2.1,6.8c-3.6,3.6,0.4,7.5,4.8,3.8c4.4-3.7,12.7,0.3,15.2,6.6
				c2.5,6.3-3.6,11.2-7,13.3c-3.5,2.1-1.1,3.5,3.3,7.5c4.5,4,2.3,3.5,1.8,6.9c-0.6,3.5,1.3,3.2,7.5,3.3c6.1,0.1-3.5-24,4.6-22.6
				c0.4,0.1,0.9,0.2,1.2,0.4c2.4,1.5,4.6,8.7,6.4,16.7c0.2,1.9,0.5,3.7,1,5.1c0.2,0.7,0.5,1.9,0.8,3.3c0.7,3.3,1.3,6.4,1.8,8.9
				c2.7,13.9,6.4,34.6,9.8,40c4.8,7.6,15,16.9,10.3,19c-4.7,2.1-24.6,0.3-30.4-9.4c-5.9-9.7,6.7-8.8,4.8-12.6
				c-1.9-3.8-4.5-3.2-12.3,2.6c-7.8,5.9-8.2,22.1-5.6,26.9s13.6,4.7,18.6,0.9c5-3.8,7.6,0.4,4.6,4.4c-3,4-14.5,3.7-23.8,5.2
				c-9.3,1.5-23.7,14.8-18.2,35.5c5.5,20.7,23.7,22.1,33.1,18.8s9.6-8.9,4.3-6.2c-5.3,2.7-25.2-1.2-17.7-18.4
				c7.5-17.2,20.4-11.6,28.1-11.1c7.6,0.6,8.4-5.1,8.5-8.8c0.1-3.7,2.2-6.6,6.3-5.7c4.1,1,3.1,4.1-2.6,9.4
				c-5.8,5.3-11.8,16.6-7,29.5c4.8,13,9.8,7.2,10.6-2.9c0.7-10.1,14.6-13,23.8-18.7c9.1-5.8,10.8-1.2,6.2,3.4
				c-4.6,4.6-13.9,7.2-16.1,12c-2.1,4.7-13.5,22.3-24.5,36.3l0,0c-4.1,3.4-17.7,14.6-25,24.2c-6.2,8.2-12.4,17.1-14.5,21.6
				c-0.3,0.5-0.5,1-0.7,2c0,0,0,0,0,0s0,0,0,0c-0.2,1-0.5,2.4-0.8,4.5c-1.2,6.9-7.9,5.4-12.7,6.6c-4.8,1.2-2,9.1,0,11
				c2,1.9,4.3,0.5,4.5,3.8s0.7,4.1,3.4,4.1s6.7-9.4,6-14.4c-0.7-5,7.9-17.3,10.1-17c2.2,0.2,0.7,1.4,3.4,16.1
				c2.6,14.6-1.2,8.2-7.2,12.7c-6,4.6,4.1,11.3,8.2,7.4c4.1-3.8,5.8-1,13-1.7c7.2-0.7-0.7-5.8-4.8-12c-4.1-6.2-2.6-18.2-1.9-24.7
				c0.7-6.5,5.5-1.7,12.5,5.3c7,7,2.6,8.3,4.3,12.4c1.7,4.1,5.5-1.2,6.2-5.3c0.7-4.1,2.4-3.4,7-8.2c4.6-4.8-2.9-6.2-7.7-8.4
				c-4.8-2.2-17.8,8.2-16.3-5c1.4-13.2,14.9-10.6,32.9-19.2c18-8.6,33.9-23.8,42-30.5c8.2-6.7,15.1-11.5,11.3-6.7
				c-3.8,4.8-25,23-33.1,28.6c-8.2,5.5-6,9.4,0.2,13c6.2,3.6,34.8,30.3,42.3,38.1c1.9,2,3.4,4,4.4,5.9c0,0,0,0,0,0
				c1.2,2,6.2,10.2,6.6,12c0,0,0,0,0,0c1,3.3,1.1,12.3,1.6,18.5c0.7,9.4,9.4,20.5,5.4,24.8c-4,4.3-9,19.4,0.4,53.8
				c9.4,34.3-12.5,42.7-9.8,49.2c2.6,6.5,26.4-17.8,31.7-30.3c5.3-12.5,3.4,0.7,4.1,10.8c0.7,10.1,7.4,24,12,55.5
				c4.6,31.5-4.1,36.7-14.4,36.7c-10.3,0-9.1-8.9-14.6-9.8c-5.5-1-2.2,9.4-6.7,8.9c-4.6-0.5-7,12,1.4,10.6c8.4-1.4,11,5.3,18.2,1.9
				c7.2-3.4,6.7,3.4,2.9,7.2c-3.8,3.8-15.4,2.4-23.8,1.2s-8.9,6.5-5.8,8.9c3.1,2.4,0,6.7,1.7,14.6c1.7,7.9,8.4,1.2,11.3-4.6
				c2.9-5.8,3.1-6.5,7.2-9.1c4.1-2.6,8.9-5,13.2-0.2c4.3,4.8-2.9,8.6-7,11.8c-4.1,3.1,0.7,6.2,3.8,5c3.1-1.2,3.8,1.2,5,4.8
				c1.2,3.6,1,6.2,9.8,4.6c8.9-1.7,6.2-10.3,2.9-13.9c-3.4-3.6-6.2-3.8-3.1-10.3c3.1-6.5,9.4-10.6,14.9-10.6s5.3,13.9,7.9,16.3
				c2.6,2.4,4.3-5.3,6.7-9.8c2.4-4.6,2.9-1,7.2-3.8c4.3-2.9,2.2-12.7-5-11.3c-7.2,1.4-10.1,0.7-17-1.9c-7-2.6-3.1-6.7,3.4-27.6
				c6.5-20.9,4.1-47,6-61.5c2-14.5,24.3-18.6,21.9-20c-2.4-1.4-6.6-6.5-9.9-6.9c-3.3-0.4-2,2.6-6.2,3.3c-4.2,0.7-2.1-5.4-2.6-10.9
				C245.4,468.1,246.7,464.8,250.5,464.5z"/>
			<path class="st1" d="M152,410.4c0-16.6,9.6-29.9,14.6-38c0.8-1.3-0.1-4-1.6-6.5c-0.4-0.9-3-6.3-6.2-9.2c-1.1-1-3.1-1.3-4.1-1.4
				c-7-0.5-12.3,1.2-19.9,4.9c-7.6,3.7-7.3,0.8-9.9-6.5s-2.3-10.5-7.9-5.5c-5.6,5-12.3,4.2-16.6,1.9c-4.3-2.3-1.9,0.8-0.5,6.2
				c1.4,5.4,4.2,11.8,10.7,6.1c6.5-5.7,5.6-1.7,8.6,5.9c3,7.7-2.2,9.7-5.9,11.9c-3.7,2.2-7.9,8.1-8.4,16.6
				c-0.5,8.5-11.5,16.3-21.5,11.9c-10-4.4-2.4-15.2-6.2-20.9c-3.7-5.7-7-1.7-5,0.5c2,2.2,2.9,9.9-0.7,12.4S61,412,71.1,421.8
				c10.1,9.8,18.6,1.2,23.6-3c5-4.2,4,1.6,5.6,5.6s-0.5,14,4.3,18.3c4.8,4.3,17.6,29.8,3.5,36.5c-14.1,6.7-34-4.8-40.1-10.6
				c-6.2-5.8-1.3-12.6,1.7-16.2c3-3.6-3.5-10-5.4-10.8c-1.9-0.8-1.4,0.3-6.4,3.4c-5,3-8.5-3.7-9.2-3.3c-0.7,0.5-1.5,1.7,1.4,6.4
				c2.9,4.7,0.6,6.2,1.4,7.8c0.8,1.6,8.7,2.3,8.3,6.5c-0.5,4.2-3.7,4.9-8.5,1.3s-10.6-8.5-15.5-12c-4.9-3.5-6.6-2.7-7.1,0.6
				c-0.5,3.3,4.4,5.7,2.7,8.5c-1.7,2.8-8.8,5.9-7.1,10.1c1.7,4.2,15.9-1.2,22.8-0.1c6.9,1,8,3.6,6.2,7.8c-1.9,4.2-6.4,4-10.7,3.1
				c-4.3-0.8-5.1,0.2-5.1,5.8c0,5.6,7.4,2,8,5.4c0.6,3.4,0.9,6.1,4.4,6.3c3.5,0.2,1.3-7.4,1.2-10c-0.1-2.6,4.8-5.4,9.5-5.5
				c4.8-0.1,5.4,4.1,5.7,9.4c0.3,5.4-1.7,5.2-5.7,8c-4,2.8-4.5,6.9-0.8,9.5c3.7,2.7,7.4-2.2,11.8-3.6s2.1,2.3,7.9,5
				c5.8,2.7,9.8-8.4,0.1-16c-9.7-7.6-9.4-9.4-4.3-7.9c5,1.4,23.4,11.9,32.8,21.2c9.4,9.4,19.8-6.8,20.5-19.1
				c0.7-12.2,3.6-9.4,6.8-6.5c3.2,2.9,8.6,4,15.1-1.8c6.5-5.8,5-6.5-7.2-6.5s-10.4-17.3-10.4-31.7c0-14.4,4.7-9.4,7.2-0.4
				s10.8,11.9,16.2,16.6c5.4,4.7,6.1-7.6,5-20.9C160.3,425.9,152,430.3,152,410.4z"/>
		</g>
	</g>
</g>
</svg>
