<?xml version="1.0" encoding="UTF-8" standalone="no"?>
<svg
   xmlns:dc="http://purl.org/dc/elements/1.1/"
   xmlns:cc="http://creativecommons.org/ns#"
   xmlns:rdf="http://www.w3.org/1999/02/22-rdf-syntax-ns#"
   xmlns:svg="http://www.w3.org/2000/svg"
   xmlns="http://www.w3.org/2000/svg"
   xmlns:sodipodi="http://sodipodi.sourceforge.net/DTD/sodipodi-0.dtd"
   xmlns:inkscape="http://www.inkscape.org/namespaces/inkscape"
   version="1.1"
   viewBox="0 0 620 764"
   xml:space="preserve"
   id="svg34"
   sodipodi:docname="CHE Syens COA.svg"
   inkscape:version="0.92.3 (2405546, 2018-03-11)"><metadata
     id="metadata40"><rdf:RDF><cc:Work
         rdf:about=""><dc:format>image/svg+xml</dc:format><dc:type
           rdf:resource="http://purl.org/dc/dcmitype/StillImage" /><dc:title></dc:title></cc:Work></rdf:RDF></metadata><defs
     id="defs38" /><sodipodi:namedview
     pagecolor="#ffffff"
     bordercolor="#666666"
     borderopacity="1"
     objecttolerance="10"
     gridtolerance="10"
     guidetolerance="10"
     inkscape:pageopacity="0"
     inkscape:pageshadow="2"
     inkscape:window-width="1920"
     inkscape:window-height="1017"
     id="namedview36"
     showgrid="false"
     inkscape:zoom="0.88780622"
     inkscape:cx="345.55622"
     inkscape:cy="222.49261"
     inkscape:window-x="-8"
     inkscape:window-y="-8"
     inkscape:window-maximized="1"
     inkscape:current-layer="svg34" /><g
     transform="matrix(1.1918,0,0,1.1918,-3.383,-3.76)"
     id="g4"><path
       d="m 513.23,280.14 1.4394,-266.69 h -503.44 l 1.4394,266.69 c 3.4873,142.43 78.195,278.99 250.28,353.54 C 435.0388,559.126 509.74,422.57 513.23,280.14 Z"
       stroke-miterlimit="30"
       id="path2"
       inkscape:connector-curvature="0"
       style="fill:#027702;fill-opacity:1;stroke:#000000;stroke-width:9.85646725;stroke-linecap:square;stroke-miterlimit:10.5;stroke-dasharray:none"
       sodipodi:nodetypes="ccccccc" /><path
       sodipodi:nodetypes="ccccc"
       inkscape:connector-curvature="0"
       id="path28073"
       d="m 265.44625,270.80847 0.11814,-253.718823 244.72645,-0.493931 c 0,0 -161.62072,168.274444 -244.84459,254.212744 z"
       style="fill:#fd0002;fill-opacity:1;fill-rule:evenodd;stroke:#000000;stroke-width:2.85954022;stroke-linecap:butt;stroke-linejoin:miter;stroke-miterlimit:10.5;stroke-dasharray:none;stroke-opacity:1" /><path
       sodipodi:nodetypes="cccc"
       inkscape:connector-curvature="0"
       id="path28075"
       d="m 16.33167,270.60966 249.11458,0.19881 C 185.85522,240.54362 14.651271,17.724264 14.651271,17.724264 Z"
       style="fill:#fd0002;fill-opacity:1;fill-rule:evenodd;stroke:#000000;stroke-width:2.51720095;stroke-linecap:butt;stroke-linejoin:miter;stroke-miterlimit:4;stroke-dasharray:none;stroke-opacity:1" /><path
       sodipodi:nodetypes="cccc"
       inkscape:connector-curvature="0"
       id="path28087"
       d="m 262.65345,629.95867 2.7928,-359.1502 L 71.309487,470.64186 C 129.88385,544.13162 153.5991,578.71485 262.65345,629.95867 Z"
       style="fill:#fd0002;fill-opacity:1;fill-rule:evenodd;stroke:#000000;stroke-width:2.85954022;stroke-linecap:butt;stroke-linejoin:miter;stroke-miterlimit:10.5;stroke-dasharray:none;stroke-opacity:1" /><path
       sodipodi:nodetypes="cccc"
       inkscape:connector-curvature="0"
       id="path28108"
       d="m 510.14147,270.37034 c -2.01902,78.52693 -11.40112,132.91319 -55.87931,201.18486 L 265.44625,270.80847 Z"
       style="fill:#fd0002;fill-opacity:1;fill-rule:evenodd;stroke:#000000;stroke-width:2.85954022;stroke-linecap:butt;stroke-linejoin:miter;stroke-miterlimit:10.5;stroke-dasharray:none;stroke-opacity:1" /></g><path
     id="path2915-9"
     d="m 217.83392,246.46652 c -0.27988,-1.29294 -0.27988,-0.77576 0.83961,-2.84446 2.79871,-4.65457 10.63512,-17.84254 12.03449,-21.97992 l 1.11947,-2.84446 c -9.79549,1.81011 -17.35203,3.8788 -25.18845,10.34348 l -2.51884,2.32729 0.27988,-4.1374 c 12.03448,-9.82631 27.98717,-21.20416 35.26384,-34.39212 0.8396,-1.8101 1.9591,-2.84444 3.35845,-4.39598 6.71693,-5.43033 14.27346,-4.13739 21.83001,-1.55152 l 20.99038,9.56772 c 12.8741,5.43036 24.9086,9.30916 38.90218,11.63644 3.9182,0.51718 5.0377,0.25859 8.39615,0.77576 13.9936,1.8101 25.46833,10.60208 36.66321,18.10111 -3.63833,-9.56772 -4.47795,-11.37784 -10.915,-19.13544 -1.67923,-1.55153 -1.67923,-2.58589 1.11949,-4.13742 1.67923,-1.03435 4.19808,-1.5515 6.15718,-2.06869 l 9.23578,-1.55153 c -13.15398,-3.10305 -14.83321,-3.62023 -27.98718,-2.58587 -5.59745,0.51717 -12.31438,1.29294 -17.63193,-0.25859 8.39615,-2.58587 18.19165,-6.20609 25.46832,-11.37784 l 12.87411,-9.05057 c -16.7923,7.24045 -25.74821,11.89504 -43.93988,13.96374 -5.8773,0.77575 -20.7105,1.55152 -26.02806,-1.55154 1.9591,-1.55152 5.8773,-1.81009 8.11628,-2.32728 13.43384,-2.58587 23.7891,-8.27479 31.90538,-18.35971 l 4.75782,-6.2061 c -15.39295,7.24045 -32.18525,16.29102 -49.53731,18.3597 -4.47795,0.51719 -9.51564,0.51719 -14.27347,0.2586 -2.23898,0 -3.63832,-0.51719 -5.8773,-1.29295 -1.11948,-0.51717 -6.15717,-2.32728 -4.19807,-4.13738 1.39934,-1.55153 5.03769,-2.0687 6.15717,-2.58587 2.79872,-1.03437 13.15398,-7.75763 16.23257,-9.56775 10.07539,-6.72325 29.10667,-21.46275 38.90219,-25.85873 5.31755,-2.32729 8.11627,-2.06869 13.71371,-3.10305 18.19167,-3.10305 35.8236,-9.82632 48.41783,-22.75569 l 10.63512,-11.37784 c -15.67283,10.34349 -25.18847,17.58395 -44.21975,21.97994 -8.11628,1.81008 -16.23256,2.58586 -24.62871,2.58586 3.63833,-6.98185 13.43384,-14.99808 18.47153,-22.49709 l 3.35847,-5.171771 c -9.79552,4.137411 -14.27347,5.947521 -22.10988,12.929381 -7.27667,6.72326 -13.9936,14.99807 -20.15077,22.4971 -6.15718,8.0162 -20.15076,17.84253 -29.10666,23.01429 -2.51885,1.55151 -13.15398,7.7576 -15.67282,8.27478 0,-3.62022 7.27667,-14.48089 9.23576,-17.58395 l 12.59423,-18.61828 -27.14756,29.47896 c -2.51884,2.58587 -14.55334,16.29101 -16.23256,17.32536 l -2.23898,1.03435 c -0.55975,-2.32729 1.9591,-9.05056 2.79872,-11.37785 l 5.59743,-14.73948 c -17.63192,26.89309 -33.58461,52.75184 -62.13154,71.37012 l -2.51884,1.8101 0.83962,-1.29293 -11.19488,-2.06869 h 5.03769 c 0.55976,-15.25667 3.35848,-28.18603 12.31437,-41.374 1.11949,-1.55151 6.43705,-8.27479 7.55654,-9.05054 l 12.03449,-4.39599 c 8.39615,-3.62024 17.91179,-8.01621 24.06897,-14.48089 l 7.27665,-7.75762 c -12.03447,6.20609 -18.47152,9.82631 -31.6255,13.18796 16.7923,-15.77385 50.37693,-47.58008 72.48679,-55.596287 l 10.63512,-4.396 c 6.43706,-3.103048 28.82681,-13.187952 30.50604,-20.428403 l 0.27987,-3.878801 c -10.07538,6.206089 -19.31115,11.37784 -31.62551,13.705128 0.55975,-9.826327 4.47795,-18.101117 8.39615,-26.893093 -7.8364,4.913163 -12.59423,7.757626 -17.07218,16.032428 l -2.79872,7.240439 c -0.27987,0.775763 -1.67923,1.810113 -2.23897,2.327288 L 262.6134,102.95053 c -1.67923,-10.08491 2.23898,-22.238514 5.0377,-32.064828 -6.43705,4.654562 -9.79552,6.723263 -12.0345,14.222303 -2.51884,7.24044 -2.23898,22.497095 -8.11627,27.410255 -6.43706,5.43035 -13.15398,11.63642 -18.75142,17.84253 -5.31757,-17.84253 -0.83961,-35.943646 6.43706,-52.751825 l 2.79871,-6.981851 c -8.39615,5.430326 -13.71371,8.791964 -18.19166,17.842529 -5.03769,9.826316 -5.31756,21.204147 -4.47795,31.806247 -9.23577,-5.43034 -12.59423,-15.25665 -15.67282,-24.307222 l -4.19807,-12.153601 c 0.27987,7.757611 0.27987,19.394053 2.51883,27.410253 4.47796,15.25666 16.79232,21.72134 17.9118,23.53146 1.39936,2.84446 0.55975,5.17172 -1.39935,7.49904 l -7.27668,5.43033 c -9.23577,6.98186 -16.7923,15.51522 -24.06897,24.04863 -12.8741,-7.49904 -24.62871,-16.80819 -34.98397,-26.89309 l -8.95589,-7.75763 c -9.23578,-9.05055 -16.79231,-19.39405 -21.27026,-31.28906 l -2.79872,-8.533401 c -1.1195,10.602101 -2.23898,15.256661 1.9591,25.341561 1.67923,3.87882 3.63833,7.75763 6.15718,11.37786 -13.99358,0.77576 -27.987183,-2.84445 -41.421033,-6.46469 7.836419,6.72326 10.635136,9.56773 20.990403,12.67077 6.99678,2.06872 12.03447,2.58587 19.31115,3.36165 9.23576,1.29294 17.07218,6.2061 23.78911,11.89503 -5.59745,0 -12.0345,0.51717 -17.35206,3.10304 l -5.31757,3.62022 c -9.51563,5.68893 -26.867693,11.11926 -37.222943,14.99806 8.676015,-0.51718 20.710503,-0.77575 29.386533,-2.84445 6.43705,-1.55152 9.51563,-3.10305 15.11308,-5.94752 11.47473,-5.43033 24.62871,-3.36163 33.86448,4.65459 2.79873,2.32729 8.39615,8.53337 9.23578,11.63643 3.07858,11.63642 -2.51885,24.04862 -7.83642,34.39212 l -1.11948,0.25859 -6.9968,-4.396 c -5.03769,-3.36164 -7.83641,-7.49903 -11.47474,-12.15361 -0.83962,6.2061 -2.23897,13.44655 -0.83962,19.65265 l 0.55976,2.84446 c -9.23578,5.68892 -6.99681,8.01621 -9.79553,16.29099 -1.11948,3.62023 -2.23897,4.39599 -5.31755,6.98188 -9.79552,8.27479 -23.22938,15.77383 -29.66643,25.08295 -1.679222,2.5859 -5.317558,5.17177 -6.716915,10.08492 -2.238969,7.24044 4.477959,13.70514 11.754615,14.48089 -0.27987,1.29294 0,2.3273 0.83962,3.10305 1.11948,1.03436 3.35846,1.81012 4.75782,1.29293 l 8.39616,-5.94751 2.7987,-2.58587 6.71693,-1.29293 c 3.9182,-1.03435 7.83641,-2.58588 11.47475,-4.39598 1.67922,-0.77575 10.915,-1.03434 13.71372,-0.77575 3.35846,0.51715 6.15717,1.55151 6.43705,1.55151 h 0.8396 c -9.23576,21.72133 -15.67282,43.44269 -12.59422,66.97411 l 0.27987,3.87882 c -1.67923,1.81012 -1.9591,2.0687 -3.35847,4.396 -7.27665,12.15359 -9.7955,25.60014 -10.07538,39.30527 0,14.73948 6.71693,26.11733 20.43065,33.87494 l 2.23897,1.29292 c 0,1.03437 0,0.77578 0.83961,2.32732 6.71693,10.60206 13.71373,21.20415 20.99039,31.54764 2.79871,4.1374 7.27667,18.87688 8.39616,24.30722 2.23896,8.79197 3.07858,17.58394 2.79872,26.37591 -0.27988,7.24044 2.79871,27.92743 4.19807,35.68506 1.9591,11.11925 2.51884,25.60014 0.27987,36.7194 -1.9591,10.60208 -11.75461,18.87687 -20.15076,26.11732 -0.83962,0.77578 -0.83962,0.77578 -2.51885,1.29294 v 0 c -3.91822,1.29293 -9.79552,3.36164 -11.75463,6.98185 l -2.23897,4.65458 7.55654,-3.62022 c -1.95909,1.8101 -1.67923,2.84446 -1.39936,4.91316 l 20.71052,-0.25859 c 1.39936,-0.51718 3.63833,-2.06869 4.47795,-3.62023 1.11948,-1.81011 0.83962,-3.87879 0.27986,-5.9475 3.91822,-3.87881 6.71693,-7.75763 7.83643,-13.18796 2.79871,1.03436 2.79871,1.29294 4.19807,3.10305 1.11948,-0.77576 3.35846,-2.06869 3.9182,-3.62022 2.79873,0.77575 3.35847,0.51717 6.15718,-0.51717 -0.83961,-36.71941 1.11949,-70.85294 5.31755,-107.31377 l 15.11308,77.57621 c 1.95911,8.79198 -0.27987,16.54959 -5.59742,23.79005 -2.23898,3.10304 -10.91501,11.89501 -14.27346,14.48089 -1.1195,1.29293 -5.87731,4.65458 -6.99681,5.17175 -0.8396,0.25859 -2.23896,0.25859 -4.75781,1.81011 -3.35846,2.06869 -6.71692,5.9475 -8.11629,9.56774 l -1.11948,4.13739 c 1.95911,-0.77577 3.91821,-1.55152 5.31757,-2.58587 l -0.83962,1.55152 c 10.35526,-1.29295 17.07218,-2.58588 26.58782,-3.87881 l 5.31756,-0.77577 c 1.11949,-3.36164 1.11949,-4.13738 0,-7.49903 -0.27988,-1.29294 -0.27988,-0.77576 0.27987,-2.58586 1.11949,-4.13741 2.79872,-8.5334 6.9968,-10.6021 4.75782,-2.06869 8.67603,-3.10303 13.71372,-4.13738 l -5.03769,-35.94365 c -1.39936,-9.82634 1.11948,-27.92744 -0.55976,-41.63258 -1.9591,-16.03242 -1.39934,-32.06484 4.19808,-47.32148 1.39937,-3.8788 1.9591,-6.72326 2.79873,-10.60208 l 7.27667,0.77576 c 31.6255,2.0687 71.64717,-14.73948 99.91422,-26.3759 l 28.54693,-12.15362 10.07538,14.73948 c 8.67603,11.89502 18.75142,22.75569 30.22616,32.32342 4.47795,3.87881 7.83641,4.91316 12.59423,10.34351 9.79552,11.37783 6.15717,23.01427 -1.9591,34.13353 l -44.49962,59.47509 c -1.9591,2.58587 -3.0786,3.36164 -5.31757,5.43033 -3.07858,2.84445 -6.99678,5.43034 -11.19486,6.72327 -1.67924,0.51716 -1.39937,0.25859 -3.0786,1.55153 l -0.83962,0.77576 v 0 l -1.11948,1.03434 v 0 c -4.75782,4.13742 -7.27667,6.98187 -11.19487,11.89501 11.19487,3.36166 25.46833,6.7233 34.7041,-3.10303 l 2.79873,-4.1374 0.27987,-2.84446 c 0.27986,-2.84446 1.11947,-7.49904 5.03768,-6.46468 l 3.9182,1.81009 33.30475,-52.23464 24.90859,-22.75568 c 2.23898,-2.06869 6.43705,-6.46468 7.55655,-9.30915 2.51885,-5.43033 -1.67924,-12.92938 -4.47796,-18.10111 -2.51885,-4.39598 -3.91819,-10.0849 -4.75781,-14.99807 l -0.27988,-3.10304 0.83962,0.51717 v 0.25859 c 12.8741,7.49903 22.38973,15.51524 25.46833,30.25472 l 0.55975,4.13739 -12.8741,29.22037 c -0.83962,1.55153 -3.91821,5.68893 -5.31757,7.24044 -3.91821,5.68893 -7.55653,11.63645 -11.19488,17.58395 -0.27986,0.77576 -2.23898,1.55153 -3.07858,2.06871 -9.79552,5.94751 -17.63193,13.70512 -23.22936,23.27286 -0.27987,1.03436 -0.55975,0.77577 -1.95911,1.55151 -5.87731,2.84448 -9.51564,5.17176 -14.55333,9.05057 v 0 l -1.11949,0.77576 v 0.25859 c -4.19807,3.62023 -5.59744,6.20609 -6.99679,11.11925 10.07538,2.58588 31.34564,7.75763 33.58462,-7.49902 v -4.13741 l 0.55974,-0.25858 3.07859,-8.53339 c 4.75782,2.32728 4.75782,3.36164 5.59743,7.49904 3.9182,-3.36164 4.19808,-3.62024 6.71692,-8.01622 l 11.19488,-20.42839 c 1.39936,-2.32729 2.23898,-3.36164 4.19808,-5.68893 l 32.745,-40.8568 c 2.51885,-3.10305 4.47795,-6.72327 6.15718,-10.60209 l 0.27988,0.77577 c 1.39934,-8.53338 1.67922,-9.30914 -2.23898,-17.58395 -4.47795,-9.05054 -7.27668,-13.9637 -11.19488,-23.79002 -2.79872,-7.75763 -4.19807,-12.1536 -5.8773,-20.16983 -3.35847,-16.80818 -4.19807,-34.90928 -4.75783,-51.71746 l 0.27988,-12.67079 v -1.03435 c 6.99679,2.58588 13.43385,2.0687 19.8709,-2.06869 0.27986,-0.2586 1.67923,-1.81012 1.9591,-2.0687 1.95911,-3.62023 -0.27987,-5.94751 -4.19808,-6.98187 -10.63513,-2.84446 -17.35204,-8.53338 -24.62872,-16.03241 l -5.31756,-5.68892 c -1.67924,-3.10305 -1.95911,-3.10305 -4.75782,-6.20609 -5.87732,-5.68892 -12.03449,-10.60208 -20.15078,-13.70514 -1.11948,-0.51719 -3.9182,-1.55154 -10.91499,-3.10304 l -10.35526,-1.55152 c -4.19808,-0.25859 -16.79231,0.77575 -21.27026,1.29293 -6.71692,1.03435 -13.71372,2.06869 -20.15077,3.62022 l 0.83962,-0.51719 c -19.03128,4.91317 -29.10668,7.49904 -47.01846,13.96374 -4.19808,1.55153 -23.22938,2.58586 -28.8268,2.84445 -28.26706,0.51717 -54.85487,-5.94751 -75.28552,-25.08297 l -2.79872,-2.58587 c 1.39937,-2.0687 1.11949,-1.55154 1.67924,-4.39599 2.51884,-11.63644 2.79871,-23.01427 -1.67924,-34.39212 -0.83961,-2.06869 -1.11948,-4.39597 -1.67923,-6.46468 -0.55974,-2.84446 -1.67922,-5.68892 -3.35845,-8.53339 -0.55975,-0.77577 -0.27988,-0.25859 -0.27988,-1.29294 0.27988,-3.10304 0.27988,-10.60208 -3.9182,-11.63643 -0.55974,-6.46467 -6.71693,-11.63643 -11.19487,-16.291 z"
     class="fil1"
     inkscape:connector-curvature="0"
     style="clip-rule:evenodd;fill:#0a0b0c;fill-rule:evenodd;stroke-width:0.99999994;image-rendering:optimizeQuality;shape-rendering:geometricPrecision;text-rendering:geometricPrecision" /><path
     id="path2917-0"
     d="m 160.74008,439.37269 c 6.99679,11.11926 14.27345,22.23852 22.10987,33.61636 7.55653,16.29101 11.75461,33.61637 10.91499,52.23466 0.83962,11.63642 2.23898,23.27286 4.47795,34.6507 1.67924,11.37784 2.23898,22.75568 0.27988,33.87495 -1.11948,12.41219 -11.47474,21.20415 -21.83001,30.25472 0,0 0,0 0,0 2.79872,0.77575 7.27667,1.29294 13.71372,1.29294 3.9182,-3.87882 6.71693,-8.27481 7.83641,-14.22231 3.0786,1.03435 5.03769,2.06869 5.59745,2.84446 1.9591,-1.03435 2.51884,-2.32728 1.9591,-3.62023 1.9591,1.03435 3.9182,1.81012 6.15717,0.77577 -1.11948,-37.49517 1.67923,-75.24893 6.15718,-113.00267 -1.1195,-12.92939 -12.03449,-27.1517 -22.94948,-41.63259 l -3.35847,-4.65457 c -6.71693,-14.2223 -15.95268,-22.75567 -29.10666,-29.47895 -1.1195,5.17174 -1.67924,10.86066 -1.9591,17.06676 z"
     class="fil2"
     inkscape:connector-curvature="0"
     style="clip-rule:evenodd;fill:#f4d809;fill-opacity:1;fill-rule:evenodd;stroke-width:0.99999994;image-rendering:optimizeQuality;shape-rendering:geometricPrecision;text-rendering:geometricPrecision" /><path
     id="path2919-1"
     d="m 419.34161,607.71307 c -3.35846,3.10306 -5.59743,5.9475 -6.43705,9.30914 20.43065,5.43034 30.50602,2.0687 29.94628,-9.82631 -8.39615,3.36164 -17.07218,4.13739 -23.50923,0.51717 z"
     class="fil3"
     inkscape:connector-curvature="0"
     style="clip-rule:evenodd;fill:#f4d809;fill-opacity:1;fill-rule:evenodd;stroke-width:0.99999994;image-rendering:optimizeQuality;shape-rendering:geometricPrecision;text-rendering:geometricPrecision" /><path
     id="path2921-7"
     d="m 220.63264,504.53671 c 5.31756,27.15168 9.79551,49.39018 15.11306,76.54185 2.23898,10.6021 -0.8396,19.13547 -6.43705,26.63451 -5.59743,6.46469 -11.19486,12.67078 -18.19166,17.58395 2.51885,1.29293 8.67603,1.55151 16.79231,1.03434 1.67923,-6.72327 4.19807,-11.11926 8.11628,-12.67079 4.19808,-2.06868 8.39615,-3.36163 12.59424,-4.13738 -1.67925,-11.89503 -3.35847,-23.79005 -5.03769,-35.42647 -0.83963,-14.48089 1.39934,-28.18602 -0.27988,-40.85682 -2.51885,-19.13545 -0.27988,-35.16786 4.47795,-48.87301 4.47794,-12.41219 3.9182,-25.08297 5.59742,-36.71941 1.1195,9.05057 0,17.84255 -0.55972,26.11733 35.54371,5.68892 80.04332,-14.73948 136.01768,-38.52952 3.91822,-1.29292 8.1163,-2.58585 12.31437,-3.87879 -7.83642,-4.65457 -14.27347,-8.79198 -20.43065,-10.08491 v 0 c 0,-0.51719 0.27987,-1.29296 0.27987,-1.81013 0,0 0,0 0,0 0,0 0,0 0,0 29.38654,6.46469 77.24463,57.14782 86.4804,61.28522 -0.27988,0 -0.27988,0 -0.27988,0 13.71372,8.01621 24.34886,18.10111 25.7482,35.42645 -4.47795,10.34352 -8.95589,20.42841 -13.43384,30.51332 -6.99679,9.05056 -12.03448,17.06676 -16.51244,24.82439 -11.75462,6.20611 -20.71051,14.73949 -26.30794,25.60014 -6.43706,3.10305 -11.75461,6.20611 -15.67283,9.30915 5.87732,3.10306 14.27347,2.06871 22.66962,-1.55153 1.11948,-3.10304 2.51885,-6.2061 3.63833,-9.30914 3.9182,1.55152 7.27667,3.62022 7.55655,6.46469 2.23897,-1.55153 6.99678,-10.60209 16.23256,-27.66885 12.31435,-15.51524 24.90859,-31.03048 37.50282,-46.54572 12.31436,-20.687 3.07859,-16.03242 -10.915,-54.56194 -6.43705,-21.46276 -7.83642,-44.73561 -8.39615,-68.52566 0,-3.36162 0.27987,-6.72325 0.27987,-10.34349 -1.1195,-5.68892 -2.79872,-11.11925 -4.75782,-16.291 -2.23898,-6.72327 -5.31757,-13.18796 -8.67603,-19.13548 -16.23257,-18.61829 -29.66641,-19.39404 -43.66,-21.46273 -27.14756,0 -57.09384,7.49902 -87.87975,18.61827 -44.77949,6.98188 -81.72256,0.51718 -107.47077,-25.34155 -1.11949,1.55153 -2.51885,3.10306 -4.19808,4.65458 -3.35846,3.6202 -9.79551,8.0162 -12.03449,12.67078 -3.63833,8.01619 -9.51563,16.03242 -17.35204,24.3072 -7.83641,8.01622 -17.63193,16.03242 -28.54693,24.04863 -5.8773,5.68893 -9.7955,13.44654 -11.75461,23.01427 -0.27987,0.25859 -0.27987,0.51717 -0.27987,1.03436 5.8773,2.84445 11.47474,6.20611 16.51243,10.86068 5.31757,4.91314 10.07538,11.11925 13.9936,19.65264 1.39935,2.06868 2.51884,3.10303 3.35845,4.39597 11.47475,15.25664 23.22936,30.51331 23.50923,44.47702 z"
     class="fil2"
     inkscape:connector-curvature="0"
     style="clip-rule:evenodd;fill:#f4d809;fill-opacity:1;fill-rule:evenodd;stroke-width:0.99999994;image-rendering:optimizeQuality;shape-rendering:geometricPrecision;text-rendering:geometricPrecision" /><path
     id="path2923-9"
     d="m 163.81866,289.39203 c -9.79551,22.4971 -15.95269,45.25278 -12.31436,68.52564 l 11.75462,-11.89501 -0.27987,-0.25859 c 5.31756,-13.70513 12.03448,-28.96178 23.22936,-39.56387 v -0.2586 c 15.95269,-13.44654 24.34884,-24.30719 28.26705,-33.87493 3.63833,-8.79198 3.63833,-16.29099 2.23898,-23.27287 -10.35526,23.79005 -25.74821,38.78813 -52.89578,40.59823 z"
     class="fil2"
     inkscape:connector-curvature="0"
     style="clip-rule:evenodd;fill:#f4d809;fill-opacity:1;fill-rule:evenodd;stroke-width:0.99999994;image-rendering:optimizeQuality;shape-rendering:geometricPrecision;text-rendering:geometricPrecision" /><path
     id="path2925-7"
     d="m 187.32789,222.4179 c -16.7923,-3.36163 -32.46512,-2.84447 -44.49962,6.98185 -4.75782,3.87882 -3.07858,11.63645 -7.27667,16.80817 -13.15396,12.67079 -26.30793,18.35972 -33.58461,28.9618 -8.955902,9.05056 -7.556535,14.99806 -1.11947,19.39405 1.67922,1.29294 3.9182,2.06869 6.7169,2.06869 4.47795,-4.1374 9.23578,-8.53338 13.71372,-12.67076 3.91821,-5.94753 10.63514,0.77576 3.07861,3.62023 -5.03771,2.06869 -8.95591,4.91313 -12.0345,8.79195 -8.95591,1.81011 -2.23898,5.94752 -0.83961,4.396 3.9182,-2.32729 7.55654,-4.65457 10.63513,-8.27482 6.43705,-1.03435 12.59423,-2.58586 18.7514,-5.68891 12.8741,-1.81011 16.79231,-0.51716 20.71051,0.77578 12.59424,-0.51719 22.9495,-3.62023 31.34565,-10.08492 9.51564,-6.72328 17.07218,-17.32536 22.94948,-32.06484 -0.27986,0 12.31436,-20.16981 13.43384,-24.56579 -12.03448,2.06869 -22.94947,7.75761 -30.22614,19.65263 -20.99038,-6.98185 -11.75462,-16.03241 -11.75462,-18.10111 z"
     class="fil2"
     inkscape:connector-curvature="0"
     style="clip-rule:evenodd;fill:#f4d809;fill-opacity:1;fill-rule:evenodd;stroke-width:0.99999994;image-rendering:optimizeQuality;shape-rendering:geometricPrecision;text-rendering:geometricPrecision" /><path
     id="path2933-3"
     d="m 209.15789,626.58995 c -0.27987,0.25858 -0.83961,0.25858 -1.11948,0.51718 -6.71692,1.29294 -11.47475,8.0162 -12.03449,11.37784 2.23897,-1.03435 4.75781,-5.43035 6.99679,-6.20611 -0.83961,2.06871 -1.67922,3.87882 -2.51884,6.20611 9.23577,-1.03435 18.7514,-3.10306 27.98718,-4.1374 0.8396,-2.58588 0,-3.87882 -0.55975,-6.2061 -8.11628,0.51719 -16.23256,0.2586 -18.75141,-1.55152 z"
     class="fil3"
     inkscape:connector-curvature="0"
     style="clip-rule:evenodd;fill:#f4d809;fill-opacity:1;fill-rule:evenodd;stroke-width:0.99999994;image-rendering:optimizeQuality;shape-rendering:geometricPrecision;text-rendering:geometricPrecision" /><path
     id="path2935-5"
     d="m 490.98879,391.79262 c 6.15718,2.32728 12.87411,2.84447 19.87091,-2.32729 2.51884,-1.81012 1.67922,-5.17174 -2.23898,-5.68891 -11.75462,-3.10305 -19.31115,-9.82633 -26.30795,-17.06677 3.9182,8.01621 6.71692,16.291 8.67602,25.08297 z"
     class="fil4"
     inkscape:connector-curvature="0"
     style="clip-rule:evenodd;fill:#f4d809;fill-opacity:1;fill-rule:evenodd;stroke-width:0.99999994;image-rendering:optimizeQuality;shape-rendering:geometricPrecision;text-rendering:geometricPrecision" /><path
     id="path2937-2"
     d="m 173.61418,624.77983 c -6.15719,2.0687 -9.51565,4.65457 -10.35526,6.46469 3.91821,-1.81012 9.51563,-3.10305 10.07538,-2.84445 -1.11949,2.06868 -6.43705,4.13738 -5.87731,6.20608 5.0377,-0.25858 13.99359,-0.25858 19.03129,-0.25858 3.9182,-1.55153 4.19808,-4.39599 3.35846,-7.24044 -7.83641,0 -13.15398,-0.77577 -16.23256,-2.3273 z"
     class="fil3"
     inkscape:connector-curvature="0"
     style="clip-rule:evenodd;fill:#f4d809;fill-opacity:1;fill-rule:evenodd;stroke-width:0.99999994;image-rendering:optimizeQuality;shape-rendering:geometricPrecision;text-rendering:geometricPrecision" /><path
     id="path2939-0"
     d="m 149.82507,362.31365 c -6.71692,9.82632 -11.19487,21.97994 -11.47474,38.27095 -1.11948,16.54958 5.59744,28.44461 20.71051,36.46081 0.55974,-15.25667 3.63834,-31.54767 14.83321,-41.89115 v 0 c 16.79231,-12.67078 36.38334,-29.22037 44.49961,-46.28715 -3.63833,2.84447 -7.27667,5.94751 -11.47474,9.30916 l -1.39936,-1.55154 c 10.915,-8.53337 19.59102,-16.03241 26.02807,-22.49709 2.51884,-2.58587 4.47795,-4.91317 6.15719,-6.98186 3.07858,-12.4122 3.9182,-24.82438 -1.67924,-36.978 -0.55974,-4.91315 -1.67923,-9.82632 -4.75781,-14.48089 0.55972,-7.75762 -0.55975,-11.63642 -3.63835,-11.63642 -0.55973,-6.20611 -4.75782,-10.08491 -8.67603,-14.2223 1.1195,6.98185 0.83963,14.2223 -2.51883,22.75568 -4.19807,9.82631 -12.8741,21.20414 -28.8268,34.90929 -5.59743,5.43034 -10.07538,11.63643 -13.71371,18.35969 -2.79872,5.43035 -5.31757,11.11927 -7.55655,16.80819 l 0.27988,-0.25859 1.67923,1.03435 z"
     class="fil5"
     inkscape:connector-curvature="0"
     style="clip-rule:evenodd;fill:#f4d809;fill-opacity:1;fill-rule:evenodd;stroke-width:0.99999994;image-rendering:optimizeQuality;shape-rendering:geometricPrecision;text-rendering:geometricPrecision" /><path
     id="path2941-8"
     d="m 373.7225,605.1272 c -3.35846,3.10306 -6.7169,6.46469 -9.51563,10.0849 14.8332,4.39599 26.86768,4.13741 33.02486,-6.98184 0,-0.2586 0,-0.77578 0.27988,-1.03436 -8.67603,2.84445 -17.63191,3.10304 -23.78911,-2.0687 z"
     class="fil3"
     inkscape:connector-curvature="0"
     style="clip-rule:evenodd;fill:#f4d809;fill-opacity:1;fill-rule:evenodd;stroke-width:0.99999994;image-rendering:optimizeQuality;shape-rendering:geometricPrecision;text-rendering:geometricPrecision" /><path
     id="path2943-4"
     d="m 389.6752,437.30399 c 10.07538,16.291 23.50924,33.09919 41.14116,47.58008 17.63193,11.37785 24.62871,25.85874 7.55653,47.06291 -14.8332,19.65263 -29.38654,39.56386 -44.21974,59.47508 -5.59743,5.43033 -11.19487,9.82631 -17.07218,11.11926 -0.55974,0.51718 -1.11949,1.03434 -1.67922,1.55152 5.59742,4.396 13.99358,3.87882 22.10986,1.03436 1.11949,-7.24046 4.47795,-9.05055 10.07539,-5.94752 10.91501,-17.06676 21.83,-34.13354 32.46513,-51.20029 8.39616,-7.49904 16.79231,-14.99809 25.18846,-22.75568 8.67603,-9.30916 11.47474,-9.82632 1.67922,-27.15167 -2.51884,-6.20611 -3.9182,-12.15362 -4.19807,-18.35972 -3.63833,-2.58587 -8.67603,-6.98186 -14.83321,-12.41219 -12.31435,-10.86068 -29.6664,-24.5658 -45.05935,-34.65069 z"
     class="fil2"
     inkscape:connector-curvature="0"
     style="clip-rule:evenodd;fill:#f4d809;fill-opacity:1;fill-rule:evenodd;stroke-width:0.99999994;image-rendering:optimizeQuality;shape-rendering:geometricPrecision;text-rendering:geometricPrecision" /><path
     id="path2947-5"
     d="m 147.30622,206.90266 c -0.83962,5.68891 -1.39934,11.37783 0,16.03241 3.91821,-1.8101 8.67603,-3.10305 13.71372,-3.8788 -6.71691,-3.36165 -10.35526,-7.75764 -13.71372,-12.15361 z"
     class="fil6"
     inkscape:connector-curvature="0"
     style="clip-rule:evenodd;fill:#f4d809;fill-opacity:1;fill-rule:evenodd;stroke-width:0.99999994;image-rendering:optimizeQuality;shape-rendering:geometricPrecision;text-rendering:geometricPrecision" /><path
     id="path2951-8"
     d="m 111.20277,290.94354 c 3.9182,-1.29292 4.75781,-6.72326 2.51885,-8.53338 -1.95911,-1.55152 -7.27668,-0.77575 -8.67603,2.84447 -1.67925,3.87881 -5.317575,6.46468 -2.79873,8.79196 2.51886,2.06872 5.03771,-1.81011 8.95591,-3.10305 z"
     class="fil1"
     inkscape:connector-curvature="0"
     style="clip-rule:evenodd;fill:#0a0b0c;fill-rule:evenodd;stroke-width:0.99999994;image-rendering:optimizeQuality;shape-rendering:geometricPrecision;text-rendering:geometricPrecision" /><path
     id="path2953-4"
     d="m 137.79058,251.12109 c 20.9904,-15.51523 22.66962,-5.17175 33.58462,-3.10305 -14.8332,-2.0687 -26.02808,-1.03434 -33.58462,3.10305 z"
     class="fil1"
     inkscape:connector-curvature="0"
     style="clip-rule:evenodd;fill:#0a0b0c;fill-rule:evenodd;stroke-width:0.99999994;image-rendering:optimizeQuality;shape-rendering:geometricPrecision;text-rendering:geometricPrecision" /><path
     id="path2955-7"
     d="m 137.79058,255.51709 c 5.59744,2.58586 12.03449,4.91314 19.59103,4.65456 6.71692,0.51718 9.23577,-6.98185 4.75781,-10.0849 -5.87729,-3.10305 -11.7546,-2.58588 -17.91179,0 -3.07858,1.81011 -5.03768,3.62021 -6.43705,5.43034 z"
     class="fil1"
     inkscape:connector-curvature="0"
     style="clip-rule:evenodd;fill:#0a0b0c;fill-rule:evenodd;stroke-width:0.99999994;image-rendering:optimizeQuality;shape-rendering:geometricPrecision;text-rendering:geometricPrecision" /><path
     id="path2957-4"
     d="m 155.70237,257.84436 c 1.39936,-1.29293 2.51886,-5.68891 -0.8396,-7.49903 1.67923,0 3.07858,0.51718 4.47794,1.29293 3.35847,1.81013 1.67923,6.72327 -3.35846,6.2061 -0.27988,0 -0.27988,0 -0.27988,0 z"
     class="fil2"
     inkscape:connector-curvature="0"
     style="clip-rule:evenodd;fill:#f4d809;fill-opacity:1;fill-rule:evenodd;stroke-width:0.99999994;image-rendering:optimizeQuality;shape-rendering:geometricPrecision;text-rendering:geometricPrecision" /><path
     id="path2959-7"
     d="m 146.4666,255.77568 c 0.55975,0.51717 1.39937,1.03434 2.23898,1.55152 -1.9591,-0.51718 -3.63833,-1.03435 -5.31756,-1.55152 z m 1.95912,-4.91317 c 0.27986,0 0.55974,0 0.55974,-0.25859 0,0.25859 -0.27988,0.25859 -0.55974,0.51717 z"
     class="fil2"
     inkscape:connector-curvature="0"
     style="clip-rule:evenodd;fill:#f4d809;fill-opacity:1;fill-rule:evenodd;stroke-width:0.99999994;image-rendering:optimizeQuality;shape-rendering:geometricPrecision;text-rendering:geometricPrecision" /><path
     id="path2961-6"
     d="m 202.72084,226.5553 c 14.27345,-11.37785 29.38653,-22.23851 36.10346,-35.68505 8.39615,-10.60209 19.03128,-7.75763 27.42743,-5.17176 18.19167,8.53338 34.42423,17.06676 61.29193,21.20417 16.23256,0.25859 27.42744,8.27479 38.90218,15.77382 -2.23897,-6.46468 -6.99679,-11.37785 -9.51564,-14.2223 -2.79871,-3.36163 0.83962,-6.98186 10.63512,-8.53339 -15.6728,-4.13739 -30.78588,3.87881 -42.26064,-2.84446 10.91501,-3.36165 21.83001,-6.98184 29.66642,-12.67077 -32.46513,14.73948 -72.20692,7.75762 -54.01526,1.81011 18.47154,-2.32729 29.10667,-9.82632 36.6632,-19.65264 -20.71051,9.82632 -36.38333,18.10112 -60.73219,16.03241 -12.8741,-3.62021 -12.8741,-8.53338 -2.51882,-11.11925 24.62871,-12.1536 48.69768,-35.94364 62.69126,-37.49517 24.62873,-3.10305 43.10026,-11.11928 55.41464,-24.5658 -18.75143,12.67078 -39.18207,17.58393 -60.73219,17.06676 3.07859,-8.53337 14.55333,-17.06676 19.8709,-25.60015 -14.55335,5.94751 -25.7482,19.39406 -37.50283,34.13354 -11.47475,12.1536 -26.02808,21.20416 -40.86128,28.96178 -8.9559,4.91317 -7.83641,-1.81011 4.75782,-20.16982 -8.11628,8.79198 -16.7923,19.13547 -28.8268,31.54768 -8.39615,5.43031 -6.15718,-2.58588 -2.51884,-12.41221 -13.99359,21.72135 -29.38654,42.66692 -52.33603,58.18217 -10.35525,5.94749 -6.15717,8.01619 -4.75782,10.86066 3.91822,7.24045 13.9936,9.30914 13.15398,-5.43033 z m -20.71051,-8.79197 c -4.47795,0 -9.23578,0 -13.71372,0 6.43705,-12.4122 9.79552,-24.30721 6.71692,-34.65071 -12.87411,-21.72134 -32.745,-21.72134 -45.33923,-16.03242 -13.43385,7.24045 -22.94949,7.24045 -33.024866,7.75762 11.754606,-4.1374 24.348846,-8.53339 32.185256,-14.73947 5.87731,-2.84447 13.43384,-3.36163 21.55013,-2.84447 -9.23577,-8.79197 -18.75142,-14.22232 -29.10668,-15.25666 -17.63192,-1.81012 -27.147552,-5.9475 -33.024872,-11.11925 11.474747,3.10305 26.307952,5.68892 38.062582,4.39598 -7.27667,-9.82634 -11.75463,-20.68699 -10.35527,-30.5133 5.31756,14.99805 15.11308,28.4446 29.9463,40.08104 10.63512,10.86068 24.34883,21.46274 37.50281,28.96179 9.23577,-10.60211 18.75141,-21.46276 31.62552,-29.73756 3.63832,-3.62023 4.19806,-7.24043 1.95908,-10.86067 -17.6319,-12.67077 -18.7514,-25.34155 -19.31114,-38.012339 3.91821,11.119259 7.27667,22.497099 19.59102,27.668829 -3.07858,-26.375887 4.47795,-40.081023 17.07218,-47.83865 -8.67603,19.652636 -13.15398,39.04669 -6.43705,58.69935 5.8773,-6.98187 13.43385,-13.70514 21.55013,-20.687 9.23576,-11.63643 1.9591,-29.220373 15.11307,-38.01235 -3.07858,11.119265 -5.59743,21.979927 -3.07858,31.03049 8.67603,-7.757621 17.35204,-15.773833 26.02807,-23.531451 2.51884,-9.050552 7.27667,-15.773829 14.55334,-20.169818 -3.63835,8.016215 -6.15717,16.291004 -6.15717,24.307219 9.7955,-1.292938 20.15075,-5.430339 31.34563,-12.412203 -0.27987,4.913165 -13.99359,13.187967 -38.06256,23.531457 -20.43065,6.464686 -49.25744,32.064826 -79.48359,60.768036 10.915,-2.32729 20.99038,-5.94751 29.38653,-10.34349 -7.55654,8.53339 -21.55013,13.96371 -36.38333,19.39405 -11.75461,11.895 -19.87089,27.41024 -20.71051,50.16595 z"
     class="fil5"
     inkscape:connector-curvature="0"
     style="clip-rule:evenodd;fill:#f4d809;fill-opacity:1;fill-rule:evenodd;stroke-width:0.99999994;image-rendering:optimizeQuality;shape-rendering:geometricPrecision;text-rendering:geometricPrecision" /><path
     sodipodi:type="star"
     style="clip-rule:evenodd;opacity:1;fill:#f4d809;fill-opacity:1;fill-rule:evenodd;stroke:#000000;stroke-width:2.65311313;stroke-miterlimit:4;stroke-dasharray:none;stroke-opacity:1;image-rendering:optimizeQuality;shape-rendering:geometricPrecision;text-rendering:geometricPrecision"
     id="path2997"
     sodipodi:sides="5"
     sodipodi:cx="199.40411"
     sodipodi:cy="22.68211"
     sodipodi:r1="66.483078"
     sodipodi:r2="24.837465"
     sodipodi:arg1="0.51123071"
     sodipodi:arg2="1.1352115"
     inkscape:flatsided="false"
     inkscape:rounded="0"
     inkscape:randomized="0"
     d="m 257.38687,55.20902 -47.50282,-10.008682 -23.49721,42.678016 -5.16036,-48.270716 -47.85024,-9.158944 44.31354,-19.824261 -6.07586,-48.338554 32.54763,36.018649 44.09515,-20.715926 -24.198,42.08501 z"
     transform="matrix(0.70203943,0.31098023,-0.3289237,0.66374177,174.15778,0.11654296)" /><g
     id="g900"
     transform="translate(-206.93007,23.2981)" /></svg>