<?xml version="1.0" encoding="UTF-8" standalone="no"?>
<!-- Created with Inkscape (http://www.inkscape.org/) -->

<svg
   xmlns:dc="http://purl.org/dc/elements/1.1/"
   xmlns:cc="http://creativecommons.org/ns#"
   xmlns:rdf="http://www.w3.org/1999/02/22-rdf-syntax-ns#"
   xmlns:svg="http://www.w3.org/2000/svg"
   xmlns="http://www.w3.org/2000/svg"
   xmlns:sodipodi="http://sodipodi.sourceforge.net/DTD/sodipodi-0.dtd"
   xmlns:inkscape="http://www.inkscape.org/namespaces/inkscape"
   version="1.0"
   width="208.86046"
   height="244.65999"
   id="svg2780"
   inkscape:version="0.92.4 (5da689c313, 2019-01-14)"
   sodipodi:docname="Lachen-blazon.svg">
  <metadata
     id="metadata27">
    <rdf:RDF>
      <cc:Work
         rdf:about="">
        <dc:format>image/svg+xml</dc:format>
        <dc:type
           rdf:resource="http://purl.org/dc/dcmitype/StillImage" />
        <dc:title></dc:title>
      </cc:Work>
    </rdf:RDF>
  </metadata>
  <sodipodi:namedview
     pagecolor="#ffffff"
     bordercolor="#666666"
     borderopacity="1"
     objecttolerance="10"
     gridtolerance="10"
     guidetolerance="10"
     inkscape:pageopacity="0"
     inkscape:pageshadow="2"
     inkscape:window-width="3259"
     inkscape:window-height="1417"
     id="namedview25"
     showgrid="false"
     inkscape:zoom="2"
     inkscape:cx="-49.357401"
     inkscape:cy="100.66486"
     inkscape:window-x="-8"
     inkscape:window-y="-8"
     inkscape:window-maximized="1"
     inkscape:current-layer="svg2780"
     inkscape:measure-start="104.255,149.787"
     inkscape:measure-end="104.255,126.383"
     showguides="true"
     inkscape:object-paths="true"
     inkscape:snap-intersection-paths="true" />
  <defs
     id="defs2782" />
  <path
     inkscape:connector-curvature="0"
     style="fill:#cc2918;fill-opacity:1;fill-rule:evenodd;stroke:#000000;stroke-width:1.99999988;stroke-linecap:butt;stroke-miterlimit:4;stroke-dashoffset:0;stroke-opacity:1"
     id="path4212"
     d="m 1,1 3.761095,158.00304 c 2.686489,112.85918 196.651755,112.85918 199.338255,0 L 207.86045,1 Z" />
  <path
     style="opacity:1;fill:#feeb00;fill-opacity:1;stroke:#000000;stroke-width:1;stroke-miterlimit:8;stroke-dasharray:none;stroke-dashoffset:4.57999992;stroke-opacity:1"
     d="m 15.5,101.86894 c 4.344805,2.73712 9.439812,4.36316 16.125,1 9.216633,-4.63668 15.84748,-11.792522 22.8125,-18.500005 l 3.5,2.1875 C 49.938213,93.887611 42.34529,101.37224 33.25,108.11894 c -4.588587,3.40372 -6.381439,7.95869 -5,13.375 -4.412732,-2.042 -6.658638,-5.2399 -3.75,-11.1875 -7.645762,0.0517 -8.933225,-3.94448 -9,-8.4375 z"
     id="path5489"
     inkscape:connector-curvature="0"
     sodipodi:nodetypes="csccsccc" />
  <path
     id="path5452-4-2-5"
     style="opacity:1;fill:#ffffff;fill-opacity:1;stroke:#000000;stroke-width:1;stroke-miterlimit:8;stroke-dasharray:none;stroke-dashoffset:4.57999992;stroke-opacity:1"
     d="M 91.36048,231.65999 V 62.309037 h -70.25 V 36.169517 H 104.43024 187.75 v 26.13952 H 117.5 V 231.65999 c -8.71317,0 -17.42635,0 -26.13952,0 z"
     inkscape:connector-curvature="0"
     sodipodi:nodetypes="cccccccccc" />
  <path
     style="opacity:1;fill:#feeb00;fill-opacity:1;stroke:#000000;stroke-width:1;stroke-miterlimit:8;stroke-dasharray:none;stroke-dashoffset:4.57999992;stroke-opacity:1"
     d="m 57.75,212.40999 c 7.485021,-15.66597 17.337123,-28.92862 46.68024,-18.5 13.00453,4.62184 25.80234,6.49138 32.06976,-3.5 6.17714,-9.84745 0.22155,-18.08725 -15.875,-21 -6.83027,-1.23597 -13.13467,-1.11833 -20.375,0 -22.710762,3.50788 -42.579206,-10.84406 -43.125,-28.125 -0.649405,-20.56149 15.724736,-32.73792 47.30524,-41.3125 17.46799,-4.742819 40.75667,-16.220722 39.99632,-42.104809 C 143.81901,37.185211 130.73378,28.786539 108.54089,29.936963 89.249612,30.936974 73.808303,54.828975 71.594561,70.949157 67.880624,97.993575 53.867923,105.26431 41.542523,108.07226 48.123088,100.32569 52.199985,94.135961 54.447222,87.38939 46.905,91.399334 39.493372,96.976406 31.643028,97.288885 30.98192,88.997028 33.003103,82.169767 40.53272,74.393701 c 2.618621,-2.70433 6.470281,-3.041006 9.141531,-3.090991 6.638273,-0.124216 8.033968,-4.672245 8.838835,-9.369165 4.231146,-24.691482 23.629101,-46.344554 43.813974,-49.868795 14.74711,-2.574818 50.38023,-0.128663 59.23796,28.935922 8.96363,29.412066 8.91818,59.839918 -57.13478,80.418228 -8.408883,2.61973 -19.257511,3.94874 -23.554902,11.04855 -2.479979,4.09723 -4.780175,12.00076 2.651651,15.73312 6.692848,3.36123 16.407023,2.28449 25.279071,3.00521 15.2697,1.24044 31.35788,2.61094 42.13144,18.01671 4.76963,6.82037 6.26946,19.75753 -6.0625,31.6875 -7.8579,7.60176 -20.92198,10.67375 -40.44476,4.5 -21.117261,-6.67798 -35.838973,-4.14178 -46.68024,7 z"
     id="path5485"
     inkscape:connector-curvature="0"
     sodipodi:nodetypes="cssssssssscccssssssssssssc" />
  <circle
     style="opacity:1;fill:none;fill-opacity:1;stroke:#000000;stroke-width:1;stroke-miterlimit:8;stroke-dasharray:none;stroke-dashoffset:4.57999992;stroke-opacity:1"
     id="path5487"
     cx="44.417892"
     cy="80.161827"
     r="2.6098349" />
  <path
     style="opacity:1;fill:#ffffff;fill-opacity:1;stroke:#000000;stroke-width:1;stroke-miterlimit:8;stroke-dasharray:none;stroke-dashoffset:4.57999992;stroke-opacity:1"
     d="m 117.5,36.169517 h 70.25 v 26.13952 H 117.5"
     id="path5507"
     inkscape:connector-curvature="0"
     sodipodi:nodetypes="cccc" />
  <path
     style="opacity:1;fill:#ffffff;fill-opacity:1;stroke:#000000;stroke-width:1;stroke-miterlimit:8;stroke-dasharray:none;stroke-dashoffset:4.57999992;stroke-opacity:1"
     d="m 117.5,146.34749 v 50.98162 c -8.60029,-1.04356 -16.97025,-5.57729 -26.13952,-6.75007 v -44.23155"
     id="path5509"
     inkscape:connector-curvature="0"
     sodipodi:nodetypes="cccc" />
</svg>
