<?xml version="1.0" encoding="UTF-8" standalone="no"?>
<!-- Created with Inkscape (http://www.inkscape.org/) -->

<svg
   xmlns:ns3="http://ns.adobe.com/AdobeIllustrator/10.0/"
   xmlns:dc="http://purl.org/dc/elements/1.1/"
   xmlns:cc="http://creativecommons.org/ns#"
   xmlns:rdf="http://www.w3.org/1999/02/22-rdf-syntax-ns#"
   xmlns:svg="http://www.w3.org/2000/svg"
   xmlns="http://www.w3.org/2000/svg"
   xmlns:sodipodi="http://sodipodi.sourceforge.net/DTD/sodipodi-0.dtd"
   xmlns:inkscape="http://www.inkscape.org/namespaces/inkscape"
   version="1.0"
   width="750"
   height="750.00055"
   id="svg7180"
   sodipodi:docname="CHE Sierre Flag.svg"
   inkscape:version="0.92.3 (2405546, 2018-03-11)">
  <metadata
     id="metadata9">
    <rdf:RDF>
      <cc:Work
         rdf:about="">
        <dc:format>image/svg+xml</dc:format>
        <dc:type
           rdf:resource="http://purl.org/dc/dcmitype/StillImage" />
        <dc:title></dc:title>
      </cc:Work>
    </rdf:RDF>
  </metadata>
  <sodipodi:namedview
     pagecolor="#ffffff"
     bordercolor="#666666"
     borderopacity="1"
     objecttolerance="10"
     gridtolerance="10"
     guidetolerance="10"
     inkscape:pageopacity="0"
     inkscape:pageshadow="2"
     inkscape:window-width="1920"
     inkscape:window-height="1017"
     id="namedview7"
     showgrid="false"
     inkscape:zoom="0.62933287"
     inkscape:cx="521.99833"
     inkscape:cy="393.70816"
     inkscape:window-x="-8"
     inkscape:window-y="-8"
     inkscape:window-maximized="1"
     inkscape:current-layer="svg7180" />
  <defs
     id="defs7183">
    <linearGradient
       id="linearGradient2893">
      <stop
         id="stop2895"
         offset="0"
         style="stop-color:#ffffff;stop-opacity:0.3137255;" />
      <stop
         style="stop-color:#ffffff;stop-opacity:0.25098041;"
         offset="0.19"
         id="stop2897" />
      <stop
         id="stop2901"
         offset="0.60000002"
         style="stop-color:#6b6b6b;stop-opacity:0.1254902;" />
      <stop
         id="stop2899"
         offset="1"
         style="stop-color:#000000;stop-opacity:0.1254902;" />
    </linearGradient>
    <linearGradient
       id="linearGradient2955">
      <stop
         id="stop2965"
         offset="0"
         style="stop-color:white;stop-opacity:0;" />
      <stop
         id="stop2959"
         offset="1"
         style="stop-color:black;stop-opacity:0.64583331;" />
    </linearGradient>
    <clipPath
       id="clippath">
      <path
         id="path849"
         d="M360,4140 A3240,3240 0.0 0 0 6840,4140 L6840,270 L360,270 L360,4140 Z" />
    </clipPath>
    <style
       id="style852"
       type="text/css"><![CDATA[
  .Rand1 { stroke: #202020; stroke-width:15; }
  .Rand6 { stroke: #202020; stroke-width:90; }
  .SchwarzRund { stroke: #000000; stroke-width:120; stroke-linejoin:round; }
  .Schwarz { fill: #000000; }
  .Rot { fill: #ff0000; }
  .Gold { fill: #ffef00; }
  .Silber { fill: #ffffff; }
  ]]></style>
  </defs>
  <rect
     style="opacity:1;fill:#e20909;fill-opacity:1;fill-rule:evenodd;stroke:none"
     id="rect939"
     width="750.00055"
     height="749.99524"
     x="0.0077699958"
     y="0.0027100022" />
  <g
     transform="matrix(3.5053472,0,0,3.4651058,-25.608515,-39.307632)"
     id="g4658"
     style="overflow:visible;stroke-width:0.28693014">
    <path
       id="path4566"
       d="m 161.25,43.75 v -0.1 c -0.5,-2.1 0.4,-4.3 2.7,-6.4 -2.8,1.2 -4.2,2.6 -4.3,4.1 -0.1,2.5 -1.3,4.4 -3.4,5.7 -1.7,1.1 -2.5,2.7 -2.5,4.8 0,2.4 -0.8,4.1 -2.4,5.1 -1.4,0.7 -2.1,2 -2.1,4 v 0.1 c 0.2,2.5 -0.3,4.4 -1.5,5.9 l -1.6,1.8 c 0,0.1 -0.1,0.2 -0.3,0.3 l -1.9,0.7 c -1.3,2.9 -3.2,5.3 -5.9,7.4 2.3,1.2 4.5,2.7 6.6,4.4 3.2,-0.8 5.9,-2.5 8,-5.1 -0.4,-0.7 -0.6,-1.9 -0.8,-3.6 -0.1,-2.8 0.5,-4.9 1.9,-6.5 1.1,-1.3 1.4,-2.9 0.8,-4.9 -0.8,-2.5 -0.2,-4.4 1.9,-5.5 1.5,-0.8 1.9,-2.1 1.3,-3.8 -1.2,-2.2 -0.4,-4.2 2.3,-5.9 1.1,-0.5 1.5,-1.3 1.2,-2.5"
       ns3:knockout="Off"
       inkscape:connector-curvature="0"
       style="fill:#ffd500;stroke-width:0.28693014" />
    <path
       id="path4568"
       d="m 190.95,62.45 c -3,0.1 -4.8,0.8 -5.4,2.2 -1.2,2.2 -2.9,3.5 -5.4,4 -2.1,0.3 -3.5,1.3 -4.3,3.2 -1,2.4 -2.3,3.7 -4.1,4 -1.5,0.1 -2.7,1.1 -3.4,3 -0.8,2.3 -2,3.9 -3.7,4.8 l -2.3,1.1 c -0.1,0.1 -0.2,0.1 -0.3,0.2 l -2,-0.2 c -2.2,2 -4.8,3.4 -7.9,4.3 1.7,2.1 3.2,4.3 4.5,6.7 3.2,0.4 6.2,-0.1 9.1,-1.6 -0.2,-1.1 -0.1,-2.1 0.3,-3.3 0.9,-2.6 2.4,-4.4 4.3,-5.3 1.6,-0.8 2.4,-2.2 2.7,-4.3 0.2,-2.7 1.5,-4.1 3.8,-4.4 1.7,-0.2 2.6,-1.2 2.6,-3 -0.2,-2.4 1.3,-3.9 4.5,-4.4 1.2,-0.2 1.9,-0.9 2,-2.1 0.3,-2.1 2,-3.7 5,-4.9"
       ns3:knockout="Off"
       inkscape:connector-curvature="0"
       style="fill:#ffd500;stroke-width:0.28693014" />
    <path
       id="path4570"
       d="m 157.95,68.35 v 0.1 c -1,3.3 -2.4,6 -4.1,8.2 v 0.2 c -2.3,2.7 -5,4.6 -8.2,5.5 1,0.9 2,1.9 3,2.8 0.9,1 1.8,1.9 2.7,2.9 3.1,-0.9 5.8,-2.3 8.1,-4.3 h 0.1 c 1.5,-1.5 2.8,-3.3 3.8,-5.4 0.2,-0.4 0.4,-0.8 0.6,-1.2 2.3,-4.9 4.3,-9.9 6.1,-15.1 1.9,-5.3 6.3,-9.3 13.2,-11.9 -8.9,-1.4 -16.2,2.1 -21.9,10.5 l -3.4,7.7"
       ns3:knockout="Off"
       inkscape:connector-curvature="0"
       style="fill:#ffd500;stroke-width:0.28693014" />
    <path
       id="path4572"
       d="m 180.25,82.85 -6.2,5.9 c -2.4,2.8 -4.8,4.9 -7.3,6.3 h -0.1 c -3,1.6 -6.1,2.2 -9.3,2 1.2,2.3 2.1,4.6 2.9,7.2 3,0.4 5.8,0.2 8.4,-0.6 h 0.1 c 2.4,-0.7 4.5,-2 6.6,-3.7 4.3,-3.9 8.5,-8.1 12.4,-12.6 3.9,-4.3 9.4,-6.2 16.8,-6 -7.7,-4.7 -15.7,-4.2 -24.3,1.5"
       ns3:knockout="Off"
       inkscape:connector-curvature="0"
       style="fill:#ffd500;stroke-width:0.28693014" />
    <path
       id="path4574"
       d="m 185.95,101.05 c -0.9,0.4 -1.8,0.4 -2.7,0.2 -1.4,-0.4 -2.8,0.2 -4.1,1.6 -0.3,0.2 -0.5,0.4 -0.7,0.5 -0.3,0.3 -0.5,0.5 -0.8,0.7 -1.2,1 -2.5,1.6 -3.9,1.7 l -2.4,0.4 c -0.1,-0.1 -0.2,-0.1 -0.3,-0.2 l -2.3,-1.1 c -2.5,0.7 -5.2,0.8 -8.1,0.5 0.8,2.9 1.4,5.9 1.6,9.1 2.6,1.6 5.4,2.4 8.4,2.3 0.3,-1.6 0.9,-2.8 1.8,-3.9 1.9,-1.9 3.9,-3 6,-3.1 1.7,-0.1 3,-1.1 3.9,-3 0.9,-1.7 2.1,-2.5 3.6,-2.7 h 0.1 c 0.5,0 1,0 1.6,0.2 1.7,0.4 2.9,-0.2 3.5,-1.9 0.6,-1.8 2,-2.6 4.2,-2.5 0.5,0 1.1,0 1.7,0.1 v 0.2 c 0.4,0 0.8,0 1.1,0 0.6,-0.1 1.1,-0.5 1.5,-1.2 h 0.2 c 1.1,-1.8 3.2,-2.7 6.3,-2.7 -2.8,-1 -4.8,-1 -5.9,0 -1,0.9 -2.1,1.5 -3.2,1.8 -0.5,0.1 -1.1,0.1 -1.6,0.1 h -0.1 c -0.5,0 -1.1,-0.2 -1.6,-0.3 -2,-0.5 -3.7,0 -5.1,1.4 -0.9,0.9 -1.7,1.5 -2.6,1.8 h -0.1"
       ns3:knockout="Off"
       inkscape:connector-curvature="0"
       style="fill:#ffd500;stroke-width:0.28693014" />
    <path
       id="path4576"
       d="m 155.85,96.55 v -0.1 c -1.5,-2.5 -3.2,-5 -5.1,-7.3 l -0.2,-0.1 c -0.8,-1.1 -1.8,-2.1 -2.8,-3.1 -1.2,-1.2 -2.5,-2.3 -3.7,-3.3 -2.3,-1.9 -4.7,-3.6 -7.2,-4.9 h -0.2 c -2.6,-1.5 -5.3,-2.6 -8.2,-3.5 0.1,0.1 0.3,0.1 0.4,0 0.3,-0.2 0.6,-0.4 0.9,-0.7 -0.3,-0.1 -0.7,-0.2 -1,-0.3 -0.2,0 -0.3,0 -0.4,0 -0.2,0.1 -0.3,0.2 -0.3,0.3 -0.1,0.2 -0.1,0.3 0,0.4 0,0.2 0.1,0.3 0.3,0.3 -2.9,-0.9 -5.9,-1.4 -9,-1.7 -1.3,0 -2.7,0 -4.1,0 -1.7,0 -3.4,0 -5,0.1 -2.3,0.3 -4.5,0.7 -6.7,1.3 -2.8,0.7 -5.5,1.7 -8.1,3 h -0.1 c -0.3,0.1 -0.5,0.2 -0.7,0.3 -2.6,1.3 -5.1,2.8 -7.4,4.7 -1.5,1.2 -3,2.6 -4.4,4 -0.8,0.7 -1.5,1.5 -2.3,2.2 v 0.2 c -2.1,2.3 -3.8,4.7 -5.2,7.2 l -0.2,0.2 c -1.5,2.6 -2.8,5.3 -3.6,8.2 -1,3 -1.6,6.1 -1.9,9.2 -0.2,1.7 -0.3,3.5 -0.3,5.3 0,1.2 0.1,2.5 0.1,3.8 v 0.2 c 0.2,2.5 0.6,5.1 1.2,7.5 v 0.1 c 0.7,2.8 1.7,5.5 3,8.1 1.2,2.7 2.8,5.3 4.7,7.7 v 0.1 h 0.1 c 1.1,1.4 2.2,2.7 3.4,4 0.1,0.2 0.3,0.4 0.4,0.4 v 0.2 c 0.2,0.1 0.3,0.3 0.5,0.4 h 0.1 c 0.6,0.6 1.1,1.2 1.7,1.7 2.3,2.1 4.7,3.8 7.1,5.4 h 0.2 c 2.6,1.6 5.3,2.9 8.2,4 2.7,0.8 5.5,1.5 8.4,1.8 l 0.7,-9.2 -0.1,-0.1 c -0.4,-0.6 -0.4,-1.2 0,-2 0.2,-0.8 1.1,-1.4 2.5,-1.9 0.6,-0.2 1.4,-0.3 2.1,-0.3 v -2.5 c -1.1,0 -2.2,-0.1 -3.3,-0.2 -0.9,0 -1.8,-0.2 -2.5,-0.5 -1.9,-0.7 -3.1,-2 -3.7,-3.8 -0.6,0.1 -1.3,0.2 -2,0.2 -0.2,0 -0.4,-0.1 -0.5,-0.2 -0.3,-0.3 -0.7,-0.8 -1.5,-1.6 -0.7,-0.9 -0.7,-0.9 0.3,-0.3 1,0.6 1.5,0.9 1.7,1 0.8,-0.1 1.6,-0.1 2.2,-0.4 0.4,-0.2 0.8,-0.5 1.2,-0.7 1.9,-1.1 4.1,-1.9 6.6,-2.5 -0.4,-1.2 -0.6,-3 -0.6,-5.6 h -0.3 c -0.5,-0.3 -0.9,-0.6 -1.1,-1.2 -1.7,0.1 -2.9,-0.2 -3.7,-0.7 -1,-0.6 -1.4,-1.5 -1.3,-2.7 v -0.1 c 0.2,-2.2 1.5,-3.9 4,-5.1 0.1,-2.3 0.3,-4.8 0.4,-7.4 l -4,-1.6 c 0,0.1 -0.1,0.2 -0.1,0.3 -1.5,1.3 -3.8,2.3 -7,3 -3.2,0.6 -5.8,0 -7.8,-1.9 -1.7,-1.7 -3.4,-3.2 -4.9,-4.7 -1.2,-0.5 -2.1,-1 -2.6,-1.1 0.9,0.1 1.8,0.1 2.7,0 1.5,-0.3 3,-1 4.4,-1.8 1.5,-0.6 2.9,-1.1 4.4,-1.3 0.5,-0.2 1.1,-0.3 1.7,-0.3 0.4,0 0.8,0 1.1,0.1 0.4,0.1 0.8,0.1 1.2,0.2 3.2,0.5 5.5,2.9 6.9,7.2 0.1,0.1 0.1,0.2 0,0.3 l 4,1.6 c 0.1,-2.7 0,-5 -0.5,-6.8 -0.5,-1.2 -0.7,-1.9 -0.9,-2.3 0.1,0 0.3,0 0.4,0.1 l 0.9,-2.4 c -3.2,0.6 -5.7,0.2 -7.3,-1.1 -1.4,-1.2 -3.2,-1.8 -5.2,-1.9 -2.1,-0.1 -4.3,0.3 -6.6,1 h -0.1 c -1.6,0.5 -3.3,1.2 -4.9,2 -0.6,0.3 -1.4,0.7 -2.1,1.1 0.5,-1 1,-1.8 1.6,-2.1 2.1,-2.1 4.4,-3.6 6.8,-4.4 2.4,-0.7 4.8,-1.1 7,-1 2.2,0.1 4.7,0.8 7.2,2 2,0.8 3.3,2.1 4,3.7 0,0.1 0,0.2 0,0.3 -0.1,0.1 -0.1,0.2 -0.2,0.3 0,0 -0.1,0.1 -0.2,0.1 l -0.9,2.4 c 0.1,0.1 0.2,0.2 0.3,0.3 1.1,3.6 1.7,6.7 1.7,9.4 0,2.3 -0.1,4.6 -0.3,7.1 -0.1,0.8 -0.2,1.6 -0.3,2.4 -0.1,0.9 -0.3,1.7 -0.5,2.5 0.3,0.9 0.8,1.7 1.4,2.2 l 0.3,0.3 c 0.3,0.3 0.7,0.5 1.1,0.7 h 0.2 v 0.1 c 0.4,0.1 0.8,0.2 1.2,0.3 0.5,-0.1 1,-0.2 1.4,-0.3 v -0.1 c 0.5,-0.2 0.9,-0.5 1.3,-0.9 h 0.1 v -0.1 h 0.2 c 0.5,-0.5 0.9,-1.2 1.3,-2.2 -0.3,-0.8 -0.5,-1.6 -0.6,-2.5 -0.1,-0.8 -0.2,-1.6 -0.3,-2.4 -0.1,-2.5 -0.1,-4.8 -0.1,-7.1 0,-2.9 0.3,-5.9 1.1,-9 0.1,-0.1 0.2,-0.2 0.3,-0.2 l -0.4,-2.9 c -0.2,0 -0.3,-0.1 -0.3,-0.1 -0.1,-0.1 -0.1,-0.2 -0.1,-0.3 -0.1,-0.1 -0.1,-0.2 0,-0.3 0.6,-1.6 2,-2.9 4.1,-3.7 2.5,-1.2 4.8,-1.9 7.1,-2 2.2,-0.1 4.5,0.3 6.9,1 2.5,0.8 4.8,2.3 7,4.4 0.7,1.1 1.3,1.8 1.7,2.1 l 0.1,0.2 -0.1,4.1 c -0.8,0.3 -1.7,0.7 -2.7,1.1 -1.6,1.5 -3.3,3 -5,4.7 -2,1.9 -4.5,2.5 -7.8,1.9 -3.1,-0.7 -5.4,-1.7 -6.9,-3 -0.1,-0.1 -0.2,-0.2 -0.2,-0.3 0,-0.1 0,-0.2 0,-0.3 1.4,-4.3 3.7,-6.7 7,-7.2 h 0.1 c 0.3,-0.1 0.6,-0.1 1,-0.2 0.4,-0.1 0.8,-0.1 1.3,-0.1 0.6,0 1.1,0.1 1.7,0.3 1.4,0.2 2.8,0.7 4.2,1.3 h 0.2 c 1.3,0.9 2.7,1.5 4.2,1.8 h 0.2 c 0.8,0.1 1.8,0.1 2.7,0 l 0.1,-4.1 c -0.1,0 -0.3,-0.1 -0.4,-0.2 -0.7,-0.4 -1.3,-0.8 -2,-1.1 h -0.1 c -1.6,-0.8 -3.3,-1.5 -4.9,-2 -2.3,-0.7 -4.5,-1.1 -6.6,-1 -2.1,0.1 -3.8,0.7 -5.3,1.9 -1.6,1.3 -4.1,1.7 -7.2,1.1 l 0.4,2.9 h 0.2 c -0.1,0.3 -0.1,0.7 -0.2,1.2 -0.2,2.5 -0.3,5.2 -0.3,8 0,2.1 0,4.4 0.1,6.7 2.7,1.2 4.1,2.9 4.3,5.1 v 0.1 c 0.2,1.2 -0.3,2.2 -1.3,2.7 -0.8,0.5 -2.1,0.7 -3.8,0.6 -0.2,0.6 -0.6,1 -1.3,1.3 h -0.1 c 0,2.6 -0.2,4.4 -0.6,5.6 2.5,0.6 5.1,1.7 7.7,3.2 0.6,0.3 1.2,0.3 1.9,0.1 0.6,-0.1 1.2,-0.3 1.8,-0.6 0.5,-0.3 0.4,-0.1 -0.1,0.6 -0.6,0.7 -1,1.2 -1.1,1.3 -0.1,0.1 -0.2,0.1 -0.4,0.1 -0.8,0 -1.4,-0.1 -1.9,-0.2 -0.6,1.8 -1.8,3.1 -3.6,3.8 -0.8,0.3 -1.6,0.5 -2.6,0.5 h -0.1 c -1.1,0.1 -2.2,0.2 -3.3,0.2 v 2.5 h 0.2 c 0.7,0 1.4,0.1 2,0.3 1.4,0.4 2.1,1.2 2.2,2 0.1,0.5 0.1,1 0.1,1.3 0,-0.1 0,-0.2 -0.1,-0.3 -0.6,-0.9 -1.4,-1.5 -2.5,-1.8 -0.5,-0.3 -1.1,-0.4 -1.7,-0.4 h -0.2 c -0.6,0 -1.2,0.1 -1.7,0.4 -1.2,0.3 -2,0.9 -2.5,1.8 -0.2,0.2 -0.3,0.2 -0.4,0.3 -0.2,0 -0.1,0.3 0.1,0.7 l -0.7,9.2 h 0.1 c 2.2,0.3 4.4,0.5 6.7,0.5 0.8,0 1.6,0 2.4,0 3.7,-0.2 7.3,-0.8 10.7,-1.7 h 0.1 c 2.8,-0.9 5.6,-2 8.2,-3.4 h 0.2 c 2.4,-1.4 4.8,-2.9 7.1,-4.7 v -0.2 c 1.3,-1 2.5,-2.2 3.8,-3.4 0.9,-0.9 1.9,-1.8 2.7,-2.8 1.9,-2.3 3.6,-4.7 5,-7.1 1.5,-2.7 2.7,-5.5 3.7,-8.4 h 0.1 c 0.8,-2.8 1.3,-5.6 1.7,-8.5 0.2,-1.9 0.2,-3.8 0.3,-5.7 -0.1,-1.2 -0.1,-2.4 -0.1,-3.6 v -0.1 c -0.3,-3.4 -0.9,-6.7 -1.9,-9.8 v -0.1 c -0.9,-2.9 -2,-5.6 -3.4,-8.3"
       ns3:knockout="Off"
       inkscape:connector-curvature="0"
       style="fill:#ffd500;stroke-width:0.28693014" />
    <path
       id="path4578"
       d="m 105.25,101.25 c -2.3,-1.1 -4.6,-1.7 -6.6,-1.9 -2.1,0 -4.3,0.3 -6.6,1.1 -1.1,0.3 -2.2,0.8 -3.2,1.5 0.4,-0.1 0.7,-0.3 1.1,-0.4 2.4,-0.8 4.8,-1.1 7,-1 2.3,0 4.3,0.7 5.9,2 1.3,1 3.2,1.4 5.6,1.1 -0.7,-1 -1.7,-1.8 -3.2,-2.4"
       ns3:knockout="Off"
       inkscape:connector-curvature="0"
       style="fill:#ffd500;stroke-width:0.28693014" />
    <path
       id="path4580"
       d="m 106.25,128.65 c -0.1,0.8 0.1,1.4 0.7,1.8 0.6,0.3 1.4,0.5 2.5,0.5 -0.5,-0.6 -0.9,-1.2 -1.2,-2 0,-0.2 0,-0.3 0,-0.4 0.3,-0.8 0.5,-1.6 0.6,-2.5 0,-0.4 0.1,-0.8 0.2,-1.2 -1.7,1 -2.6,2.2 -2.8,3.8"
       ns3:knockout="Off"
       inkscape:connector-curvature="0"
       style="fill:#ffd500;stroke-width:0.28693014" />
    <path
       id="path4582"
       d="m 113.65,133.45 c -0.3,0 -0.6,-0.1 -1,-0.1 0,2.7 0.3,4.5 0.7,5.5 v 0.1 c 0.1,0 0.2,0.1 0.3,0.2 0.1,-0.1 0.2,-0.2 0.3,-0.2 l 0.2,-0.1 c 0.4,-1 0.6,-2.8 0.5,-5.5 -0.3,0 -0.6,0.1 -1,0.1"
       ns3:knockout="Off"
       inkscape:connector-curvature="0"
       style="fill:#ffd500;stroke-width:0.28693014" />
    <path
       id="path4584"
       d="m 120.65,130.35 c 0.5,-0.3 0.8,-0.9 0.7,-1.7 -0.2,-1.6 -1.2,-2.8 -3,-3.8 0.1,0.4 0.1,0.8 0.2,1.2 0.1,0.9 0.2,1.7 0.5,2.5 0.1,0.1 0.1,0.2 0,0.4 -0.2,0.7 -0.5,1.3 -0.9,1.8 1.1,0 1.9,-0.1 2.5,-0.4"
       ns3:knockout="Off"
       inkscape:connector-curvature="0"
       style="fill:#ffd500;stroke-width:0.28693014" />
    <path
       id="path4586"
       d="m 119.25,146.15 c 1.4,-0.6 2.3,-1.6 2.8,-3.2 -1.2,0 -2.2,0.1 -3,0.4 -1.4,0.2 -3,0.3 -4.7,0.2 h -1.3 c -1.7,0.1 -3.2,0 -4.6,-0.2 -1.1,-0.1 -2.1,-0.2 -3.2,-0.2 0.6,1.5 1.6,2.5 3,3 0.6,0.2 1.4,0.4 2.1,0.4 1.1,0.1 2.2,0.1 3.3,0.2 1.1,-0.1 2.2,-0.1 3.3,-0.2 0.8,0 1.6,-0.2 2.3,-0.4"
       ns3:knockout="Off"
       inkscape:connector-curvature="0"
       style="fill:#ffd500;stroke-width:0.28693014" />
    <path
       id="path4588"
       d="m 118.75,142.15 c 0.5,-0.1 1.1,-0.2 1.7,-0.3 -1.9,-0.9 -3.8,-1.6 -5.7,-2.1 -0.2,0.2 -0.5,0.4 -0.8,0.6 -0.1,0 -0.2,0.1 -0.3,0.1 l -0.1,-0.1 c -0.4,-0.2 -0.6,-0.4 -0.9,-0.6 -2.3,0.6 -4.3,1.3 -6.1,2.3 0.7,0 1.3,0.1 2,0.1 1.6,0.1 3.2,0.2 4.8,0.3 h 1 c 1.6,0 3.1,-0.1 4.4,-0.3"
       ns3:knockout="Off"
       inkscape:connector-curvature="0"
       style="fill:#ffd500;stroke-width:0.28693014" />
    <path
       id="path4590"
       d="m 100.15,111.65 c 0,-1 -0.4,-1.9 -1.3,-2.7 -0.4,-0.5 -0.9,-0.8 -1.5,-1 -0.8,-0.1 -1.6,0 -2.4,0.1 -0.5,0.2 -0.9,0.5 -1.3,0.9 -0.7,0.8 -1.1,1.7 -1.1,2.7 0,0.9 0.4,1.8 1.1,2.5 l 1.3,-1.4 c -0.3,-0.3 -0.5,-0.6 -0.5,-1.1 0,-0.5 0.2,-1 0.5,-1.2 0.2,-0.3 0.6,-0.4 1.1,-0.4 0.5,0 0.9,0.1 1.1,0.4 0.3,0.2 0.5,0.7 0.5,1.2 0,0.5 -0.2,0.9 -0.5,1.1 -0.2,0.3 -0.6,0.4 -1.1,0.4 -0.5,0 -0.9,-0.1 -1.1,-0.4 l -1.3,1.4 c 0.8,0.9 1.7,1.3 2.7,1.3 0.9,0 1.7,-0.4 2.4,-1.3 h 0.1 c 0.9,-0.7 1.3,-1.6 1.3,-2.5"
       ns3:knockout="Off"
       inkscape:connector-curvature="0"
       style="fill:#ffd500;stroke-width:0.28693014" />
    <path
       id="path4592"
       d="m 96.05,111.15 -0.3,0.2 v 0.7 h 0.3 c 0.2,-0.1 0.3,-0.1 0.5,-0.2 v -0.5 c -0.2,-0.1 -0.3,-0.2 -0.5,-0.2"
       ns3:knockout="Off"
       inkscape:connector-curvature="0"
       style="fill:#ffd500;stroke-width:0.28693014" />
    <path
       id="path4594"
       d="m 100.15,108.65 c 0.8,0.9 1.2,1.9 1.2,3 -0.1,1.3 -0.6,2.4 -1.7,3.4 -0.9,1 -2,1.6 -3.3,1.5 -1.3,0.1 -2.5,-0.5 -3.6,-1.5 -0.9,-1 -1.4,-2.1 -1.4,-3.4 0,-1.1 0.3,-2.1 1,-3 -0.5,0.1 -1,0.3 -1.5,0.6 -1.2,0.7 -2.5,1.3 -3.7,1.7 1.4,1.2 2.8,2.6 4.3,4.1 1.7,1.6 4,2.1 6.9,1.5 2.7,-0.5 4.7,-1.3 6.1,-2.4 -1,-2.8 -2.4,-4.7 -4.3,-5.5"
       ns3:knockout="Off"
       inkscape:connector-curvature="0"
       style="fill:#ffd500;stroke-width:0.28693014" />
    <path
       id="path4596"
       d="m 137.35,101.55 c 0.5,0.1 0.9,0.3 1.3,0.4 -1.1,-0.7 -2.1,-1.2 -3.3,-1.5 -2.3,-0.8 -4.5,-1.1 -6.6,-1.1 -2.1,0.2 -4.4,0.8 -6.7,1.9 -1.4,0.6 -2.5,1.4 -3.1,2.4 2.4,0.3 4.2,-0.1 5.5,-1.1 1.6,-1.3 3.6,-2 6,-2 2.2,-0.1 4.5,0.2 6.9,1"
       ns3:knockout="Off"
       inkscape:connector-curvature="0"
       style="fill:#ffd500;stroke-width:0.28693014" />
    <path
       id="path4598"
       d="m 140.35,110.95 c -1.3,-0.4 -2.5,-1 -3.7,-1.7 -0.5,-0.3 -1,-0.5 -1.5,-0.6 0.5,0.9 0.8,1.9 0.8,3 0,1.3 -0.4,2.4 -1.3,3.4 -1.1,1 -2.3,1.6 -3.5,1.5 h -0.1 c -1.3,0 -2.4,-0.5 -3.3,-1.5 v -0.2 c -1.1,-0.9 -1.7,-2 -1.6,-3.2 0,-1.1 0.4,-2.1 1.1,-3 -1.8,0.8 -3.3,2.7 -4.2,5.5 1.4,1.1 3.4,1.9 6.1,2.4 2.8,0.6 5,0.1 6.7,-1.5 h 0.1 c 1.5,-1.5 3,-2.9 4.4,-4.1"
       ns3:knockout="Off"
       inkscape:connector-curvature="0"
       style="fill:#ffd500;stroke-width:0.28693014" />
    <path
       id="path4600"
       d="m 130.05,107.95 c -0.6,0.2 -1.1,0.5 -1.5,1 -0.8,0.8 -1.3,1.7 -1.3,2.7 0.1,0.9 0.5,1.8 1.3,2.5 0.7,0.8 1.5,1.3 2.5,1.3 h 0.1 c 1,0 1.8,-0.4 2.7,-1.3 0.7,-0.7 1,-1.6 1,-2.5 h -2 c 0,0.5 -0.2,0.8 -0.5,1.1 -0.2,0.3 -0.6,0.4 -1.1,0.4 -0.5,0 -0.9,-0.1 -1.1,-0.4 -0.3,-0.2 -0.4,-0.6 -0.4,-1.1 0,-0.5 0.1,-1 0.4,-1.2 0.2,-0.3 0.6,-0.4 1.1,-0.4 0.5,0 0.9,0.1 1.1,0.4 0.3,0.2 0.5,0.7 0.5,1.2 h 2 c 0,-1 -0.3,-1.9 -1,-2.7 -0.4,-0.4 -0.9,-0.7 -1.3,-0.9 -0.8,-0.1 -1.7,-0.2 -2.5,-0.1"
       ns3:knockout="Off"
       inkscape:connector-curvature="0"
       style="fill:#ffd500;stroke-width:0.28693014" />
    <path
       id="path4602"
       d="m 130.85,111.65 c 0,0.1 0.1,0.2 0.2,0.2 0,0.1 0.1,0.1 0.2,0.2 h 0.3 c 0.1,-0.2 0.1,-0.3 0.2,-0.4 l -0.2,-0.3 c -0.1,-0.1 -0.2,-0.1 -0.3,-0.2 -0.1,0 -0.2,0.1 -0.2,0.2 -0.1,0 -0.2,0.1 -0.2,0.3"
       ns3:knockout="Off"
       inkscape:connector-curvature="0"
       style="fill:#ffd500;stroke-width:0.28693014" />
    <path
       id="path4604"
       d="m 144.15,63.35 c 0.1,-0.8 0.1,-1.5 0.2,-2.3 v -0.1 c 0.3,-5.1 0.3,-10.3 0,-15.5 -0.4,-5.7 2.1,-11 7.5,-16 -8.7,2 -14,8.1 -16,18.1 l -0.2,8.6 c 0.3,3 0,5.8 -0.5,8.2 v 0.1 c -0.9,3.8 -2.7,6.8 -5.4,9.1 2.5,0.8 4.8,1.8 7.2,3 2.8,-2.1 4.8,-4.6 6,-7.5 0.6,-1.8 1.1,-3.7 1.2,-5.7"
       ns3:knockout="Off"
       inkscape:connector-curvature="0"
       style="fill:#ffd500;stroke-width:0.28693014" />
    <path
       id="path4606"
       d="m 171.45,117.85 h -0.7 c -3,0.1 -5.9,-0.5 -8.5,-2 0,0.9 0.1,1.7 0.1,2.6 0,1.8 -0.1,3.6 -0.3,5.4 2.9,1.6 5.8,2.5 8.7,2.7 2.3,0.1 4.7,-0.2 7.1,-1 0.2,-0.1 0.3,-0.1 0.6,-0.2 v -0.1 c 5.3,-1.8 10.6,-4 15.9,-6.5 5.1,-2.5 10.9,-2.1 17.6,0.9 -5.3,-7.2 -12.9,-9.9 -22.9,-7.9 l -7.9,3.1 c -3.5,1.8 -6.7,2.8 -9.7,3"
       ns3:knockout="Off"
       inkscape:connector-curvature="0"
       style="fill:#ffd500;stroke-width:0.28693014" />
    <path
       id="path4608"
       d="m 161.95,125.15 c -0.3,2.5 -0.9,5.1 -1.6,7.5 1.7,2.3 3.8,3.9 6.3,5 0.6,-0.8 1.6,-1.5 3,-2.2 2.5,-1.2 4.8,-1.5 6.8,-0.8 0.1,0 0.3,0.1 0.4,0.2 1.5,0.2 3,-0.2 4.4,-1.4 2,-1.6 4,-1.7 5.8,-0.2 h 0.2 c 1.3,1.1 2.6,0.9 3.8,-0.3 0.8,-1 1.8,-1.5 2.9,-1.4 1,0 2.1,0.4 3.4,1.4 0.9,0.7 1.9,0.7 2.9,0 1.7,-1.3 4.1,-1.3 7,0 -2.2,-2.1 -4,-2.8 -5.4,-2.3 -2.4,0.8 -4.6,0.5 -6.7,-1 -1.6,-1.2 -3.4,-1.4 -5.2,-0.6 -2.3,1 -4.2,0.9 -5.7,-0.3 -1.2,-0.9 -2.7,-1 -4.5,-0.2 -2.3,1 -4.3,1.3 -6.1,0.8 l -2.3,-0.8 c -0.2,-0.1 -0.3,-0.1 -0.3,-0.2 l -0.7,-0.7 c -2.8,-0.2 -5.6,-1 -8.4,-2.5"
       ns3:knockout="Off"
       inkscape:connector-curvature="0"
       style="fill:#ffd500;stroke-width:0.28693014" />
    <path
       id="path4610"
       d="m 97.15,41.45 c -2.4,-0.7 -3.4,-2.7 -2.9,-5.9 0.1,-0.5 0.1,-0.8 0,-1.2 -0.2,-0.5 -0.6,-0.9 -1.2,-1.3 -1.9,-1 -2.8,-3.2 -3,-6.3 -0.9,2.9 -0.8,4.8 0.2,5.9 1,0.9 1.6,1.9 2,3 0.3,1 0.3,2.1 0,3.3 -0.3,2 0.3,3.6 1.8,4.9 1.8,1.7 2.5,3.5 2.1,5.4 0,0.3 0,0.7 0,1 0.2,1 0.9,2 2.1,2.9 1.8,1.5 2.9,3.2 3.2,5.2 l 0.6,2.3 c 0,0.1 0,0.2 0,0.3 l -0.2,0.4 c 2,3.4 2.8,7.2 2.3,11.3 1.8,-0.5 3.7,-0.8 5.7,-1.1 2,-3.4 2.5,-7.4 1.4,-11.6 -1.1,-0.1 -2,-0.3 -2.6,-0.7 -2,-1.8 -3.1,-3.7 -3.4,-5.8 v -0.2 c -0.3,-1.6 -1.4,-2.8 -3.2,-3.5 h -0.2 c -2.4,-1.2 -3.3,-2.9 -2.8,-5.2 0.4,-1.6 -0.2,-2.6 -1.9,-3.1"
       ns3:knockout="Off"
       inkscape:connector-curvature="0"
       style="fill:#ffd500;stroke-width:0.28693014" />
    <path
       id="path4612"
       d="m 113.95,40.25 c -2.5,-5.2 -2.2,-11.1 0.8,-17.8 -7.2,5.3 -9.9,12.9 -7.9,23 l 3.1,8 c 1,1.9 1.8,3.9 2.2,5.8 0,0 0.1,0.1 0.1,0.3 1.2,4.4 0.8,8.4 -1,12 1.3,-0.1 2.6,-0.1 4,-0.1 1.2,0 2.5,0 3.8,0 1.9,-3.1 2.8,-6.3 2.7,-9.7 -0.1,-1.7 -0.4,-3.4 -1,-5.1 -0.3,-0.9 -0.7,-2 -1,-3 -1.7,-4.5 -3.6,-9 -5.8,-13.4"
       ns3:knockout="Off"
       inkscape:connector-curvature="0"
       style="fill:#ffd500;stroke-width:0.28693014" />
    <path
       id="path4614"
       d="m 129.25,30.95 c -1.2,-1.7 -1.2,-4.1 0,-7 -2.1,2.3 -2.8,4.1 -2.2,5.6 0.7,2.4 0.3,4.5 -1.2,6.5 -1.1,1.6 -1.3,3.4 -0.4,5.3 0.9,2.3 0.7,4.2 -0.4,5.7 -0.9,1.2 -1,2.7 -0.1,4.5 1,2.2 1.2,4.2 0.6,6.1 l -0.6,2.3 c -0.1,0.1 -0.1,0.2 -0.2,0.3 l -1.9,1.7 c 0.1,3.3 -0.7,6.5 -2.5,9.6 2.8,0.3 5.5,0.8 8.1,1.6 2.8,-2.2 4.6,-5 5.5,-8.5 -0.7,-0.5 -1.4,-1.5 -2.2,-3 -1.2,-2.5 -1.4,-4.7 -0.7,-6.7 v -0.1 c 0.5,-1.6 0.1,-3.2 -1.2,-4.7 -1.7,-2.1 -1.8,-4.1 -0.3,-6 1.1,-1.4 1,-2.7 -0.3,-3.9 -0.9,-0.9 -1.4,-1.8 -1.4,-2.9 0,-1 0.5,-2.1 1.4,-3.4 0.8,-1 0.8,-2 0,-3"
       ns3:knockout="Off"
       inkscape:connector-curvature="0"
       style="fill:#ffd500;stroke-width:0.28693014" />
    <path
       id="path4616"
       d="m 63.85,48.35 v -0.2 c -0.3,-0.5 -0.9,-0.7 -1.6,-0.7 h -0.1 c -2.1,-0.3 -3.8,-1.9 -5.2,-4.8 0.3,2.9 1.2,4.8 2.6,5.4 1.2,0.4 2.2,1.1 2.9,2.1 0.6,0.8 1.1,1.7 1.4,2.8 0.4,2 1.5,3.3 3.4,4 2.3,0.9 3.7,2.2 4.1,4.1 h -0.2 c 0.4,1.4 1.5,2.4 3.5,3 2.3,0.7 4,1.8 5.1,3.4 l 1.3,2 c 0,0.1 0.1,0.3 0.1,0.4 l -0.1,1.4 c 3,2.4 5.1,5.4 6.2,9.3 2.2,-1.7 4.4,-3.1 6.8,-4.3 h 0.2 c 0.1,0 0.2,-0.1 0.4,-0.1 0.2,-4.2 -1.2,-8.1 -4.4,-11.8 -1.6,1 -2.8,1.4 -3.6,1.1 -2.6,-0.8 -4.4,-2.2 -5.3,-4.1 -1,-1.4 -2.5,-2.2 -4.6,-2.1 -2.6,-0.2 -4.1,-1.3 -4.5,-3.6 -0.3,-1.6 -1.3,-2.4 -3,-2.2 -2.6,0.3 -4.2,-1.1 -5,-4.2 -0.1,-0.4 -0.2,-0.7 -0.4,-0.9"
       ns3:knockout="Off"
       inkscape:connector-curvature="0"
       style="fill:#ffd500;stroke-width:0.28693014" />
    <path
       id="path4618"
       d="m 60.25,63.15 c -5.3,-1.8 -9.2,-6.3 -11.8,-13.1 -1.3,8.8 2.2,16.1 10.7,21.8 l 7.8,3.4 c 1.8,0.6 3.4,1.2 4.8,2 4.4,2.3 7.3,5.5 8.7,9.5 0.5,-0.5 1,-1 1.5,-1.6 1.4,-1.3 2.8,-2.6 4.3,-3.8 -1,-3.9 -3.1,-7 -6.1,-9.3 -1.1,-0.8 -2.2,-1.5 -3.4,-2 -5.3,-2.6 -10.8,-4.9 -16.5,-6.9"
       ns3:knockout="Off"
       inkscape:connector-curvature="0"
       style="fill:#ffd500;stroke-width:0.28693014" />
    <path
       id="path4620"
       d="m 59.75,77.35 c -0.8,0.1 -1.6,0.3 -2.4,0.6 -2.6,0.9 -4.5,0.3 -5.7,-1.7 -0.9,-1.4 -2.2,-1.7 -3.7,-0.8 v 0.1 c -2.2,1.3 -4.2,0.6 -6.1,-2 v -0.1 c -0.7,-1.1 -1.6,-1.4 -2.7,-1 -2,0.5 -4.2,-0.3 -6.4,-2.4 1.3,2.7 2.7,4 4.3,4.1 1.3,-0.1 2.4,0.2 3.5,0.8 0.9,0.6 1.6,1.2 2.2,2.2 1.2,1.7 2.8,2.4 4.7,2.4 2.6,-0.1 4.4,0.5 5.5,2.1 0.7,1.2 2.1,1.8 4,1.6 2.5,-0.4 4.5,0.1 6.2,1.3 l 2,1.2 c 0,0.1 0.1,0.2 0.1,0.3 l 1,2.3 c 3.2,1.1 6,3 8.4,5.9 1.4,-2.2 3.1,-4.4 5,-6.5 -1.3,-4.1 -4.1,-7.2 -8.5,-9.5 h -0.1 l -0.3,0.3 c 0.2,0 0.3,0.1 0.3,0.3 0,0.1 0,0.3 -0.1,0.4 -0.1,0.2 -0.2,0.2 -0.3,0.3 -0.5,0.1 -1.1,0.3 -1.7,0.4 h -0.1 c -2.8,0.2 -5,-0.4 -6.6,-1.7 -0.8,-0.6 -1.6,-0.9 -2.5,-0.9"
       ns3:knockout="Off"
       inkscape:connector-curvature="0"
       style="fill:#ffd500;stroke-width:0.28693014" />
    <path
       id="path4622"
       d="m 60.95,88.65 c -1.2,-0.1 -2.5,-0.2 -3.8,-0.2 -4.6,-0.2 -9.2,-0.1 -13.9,0.2 -5.6,0.3 -11,-2.3 -15.9,-7.7 2,8.7 8.1,14.1 18,16.2 l 8.5,0.1 c 1.9,-0.1 3.6,-0.1 5.2,0 5,0.4 8.9,2.2 11.7,5.4 0.9,-2.5 2,-4.9 3.3,-7.2 -2.3,-3 -5,-5 -8.2,-6.1 h -0.2 c -1.5,-0.4 -3,-0.7 -4.7,-0.7"
       ns3:knockout="Off"
       inkscape:connector-curvature="0"
       style="fill:#ffd500;stroke-width:0.28693014" />
    <path
       id="path4624"
       d="m 40.55,103.15 c -1.4,-1 -2.6,-0.8 -3.7,0.7 -1.6,1.9 -3.7,2.1 -6.5,0.4 -1,-0.7 -2,-0.6 -2.9,0.2 v 0.1 c -1.6,1.2 -3.9,1.3 -6.8,0.1 2.3,2 4.1,2.7 5.6,2.1 2.2,-1 4.4,-0.9 6.5,0.5 1.7,1.1 3.4,1.2 5.2,0.4 2.3,-1 4.3,-1 5.9,0 1.1,0.8 2.5,0.7 4.2,-0.3 2.2,-1.2 4.2,-1.6 6.1,-1.1 l 2.4,0.5 c 0.2,0 0.3,0.1 0.3,0.2 l 2.3,2.7 c 3.2,-0.1 6.3,0.8 9.4,2.6 0.3,-2.9 0.9,-5.6 1.8,-8.3 -2.6,-3.2 -6.3,-5.1 -11.1,-5.5 -0.4,0.6 -0.9,1.1 -1.5,1.4 -2.5,1.3 -4.7,1.7 -6.7,1.1 -1.4,-0.4 -2.7,-0.1 -4,0.9 v 0.1 c -0.2,0.2 -0.4,0.3 -0.7,0.6 -1.9,1.8 -3.9,1.9 -5.8,0.6"
       ns3:knockout="Off"
       inkscape:connector-curvature="0"
       style="fill:#ffd500;stroke-width:0.28693014" />
    <path
       id="path4626"
       d="m 40.65,132.65 c -1.6,-0.4 -2.6,0.2 -3.1,1.8 -0.7,2.5 -2.6,3.5 -5.8,3 -1.2,-0.2 -2,0.2 -2.5,1.4 -1.1,1.7 -3.2,2.6 -6.3,2.7 2.8,0.9 4.7,0.9 5.8,-0.1 v -0.1 c 1.7,-1.8 3.9,-2.5 6.4,-2 2,0.4 3.7,-0.2 5,-1.5 1.6,-2 3.4,-2.7 5.2,-2.4 1.4,0.2 2.8,-0.4 4.2,-2 1.4,-1.9 3.1,-3 5.1,-3.2 l 2.2,-0.4 c 0.1,-0.1 0.2,-0.1 0.3,0 l 2.1,0.8 c 3.1,-1.3 6.5,-1.8 10.1,-1.3 -0.5,-2.2 -0.8,-4.4 -1,-6.7 -3.5,-2 -7.4,-2.5 -11.8,-1.4 -0.2,0.5 -0.6,1.1 -1.1,1.7 -1.8,2.1 -3.7,3.2 -5.8,3.5 h -0.1 c -1.7,0.3 -2.8,1.3 -3.6,3.2 v 0.2 c -1.2,2.3 -2.9,3.3 -5.3,2.8"
       ns3:knockout="Off"
       inkscape:connector-curvature="0"
       style="fill:#ffd500;stroke-width:0.28693014" />
    <path
       id="path4628"
       d="m 19.35,117.75 c 5.3,7.2 12.9,9.9 22.9,7.9 l 7.9,-3.1 c 2,-1 3.9,-1.7 5.7,-2.3 l 0.2,-0.1 c 4.4,-1.2 8.5,-0.8 12.2,1.1 -0.1,-1 -0.1,-1.9 0,-2.8 -0.1,-1.7 0,-3.3 0.1,-5 -3,-1.8 -6.1,-2.7 -9.3,-2.7 h -0.2 c -1.8,0.1 -3.6,0.4 -5.4,1 -5.6,1.9 -11,4.2 -16.4,6.8 -5.1,2.5 -11,2.3 -17.7,-0.8"
       ns3:knockout="Off"
       inkscape:connector-curvature="0"
       style="fill:#ffd500;stroke-width:0.28693014" />
    <path
       id="path4630"
       d="m 59.55,131.75 c -1.6,0.8 -3.1,1.8 -4.5,3.1 -0.8,0.6 -1.5,1.3 -2.3,2 -3.5,3.3 -7,6.8 -10.2,10.6 -3.8,4.1 -9.4,6.1 -16.7,5.8 7.6,4.6 15.7,4.2 24.2,-1.4 l 6.1,-5.9 c 1.6,-1.9 3.3,-3.6 5.1,-4.8 3.5,-2.5 7.1,-3.6 11,-3.3 -1.1,-2.4 -2,-4.8 -2.6,-7.2 -3.7,-0.6 -7,-0.2 -10.1,1.1"
       ns3:knockout="Off"
       inkscape:connector-curvature="0"
       style="fill:#ffd500;stroke-width:0.28693014" />
    <path
       id="path4632"
       d="m 100.75,61.65 c -0.6,-1 -1.3,-1.9 -2,-2.7 -2.1,-2.3 -4.2,-4.5 -6.4,-6.7 -2,-2 -4.1,-3.9 -6.2,-5.8 -4.3,-3.8 -6.3,-9.4 -6,-16.7 -4.7,7.6 -4.2,15.7 1.4,24.2 l 6,6.1 c 1.1,1 2.2,2.1 3.1,3.1 0.2,0.2 0.3,0.3 0.4,0.5 3.3,3.7 4.8,7.7 4.7,11.9 2.3,-1.1 4.8,-1.9 7.3,-2.5 0.5,-4.2 -0.2,-7.9 -2.3,-11.3 v -0.1"
       ns3:knockout="Off"
       inkscape:connector-curvature="0"
       style="fill:#ffd500;stroke-width:0.28693014" />
    <path
       id="path4634"
       d="m 148.65,151.85 c -1.3,1.1 -2.5,2.2 -3.8,3.2 1.1,3.1 2.3,5.6 3.8,7.6 1.6,2 3.8,3.7 6.5,5.1 5.2,2.5 10.6,4.8 16.3,6.8 5.4,1.8 9.4,6.2 11.9,13.1 1.4,-8.9 -2.1,-16.1 -10.6,-21.8 l -7.8,-3.5 c -4,-1.3 -7.2,-3.1 -9.7,-5.4 -2.2,-2.1 -3.7,-4.5 -4.7,-7.4 -0.6,0.8 -1.3,1.5 -1.9,2.3"
       ns3:knockout="Off"
       inkscape:connector-curvature="0"
       style="fill:#ffd500;stroke-width:0.28693014" />
    <path
       id="path4636"
       d="m 125.55,175.15 c 0.1,-0.2 0.1,-0.3 0.2,-0.3 l 2.8,-2.6 c -0.7,-2.6 -0.9,-5.4 -0.7,-8.4 -3.1,0.9 -6.4,1.4 -9.8,1.6 -1.7,2.9 -2.4,6 -2.1,9.4 0.2,0 0.5,0.1 0.7,0.1 0.8,0.3 1.5,0.8 2,1.3 2.1,1.8 3.2,3.8 3.4,5.9 0,1.7 0.9,3.1 2.7,4 2.4,1.3 3.3,3.1 2.7,5.4 -0.5,1.6 0.1,2.8 1.8,3.4 1.8,0.6 2.7,2 2.6,4.1 -0.1,0.6 -0.1,1.2 -0.3,1.9 -0.1,0.4 -0.1,0.8 0,1.1 0.2,0.6 0.6,1 1.3,1.5 1.7,1.1 2.6,3.3 2.5,6.5 1.1,-2.8 1.2,-4.8 0.2,-5.9 -0.9,-1 -1.5,-2.1 -1.7,-3.2 -0.2,-0.6 -0.2,-1.1 -0.2,-1.7 0.1,-0.6 0.2,-1.1 0.3,-1.7 0.5,-2 0,-3.6 -1.4,-5 -1.8,-1.8 -2.4,-3.6 -2,-5.4 0.4,-1.5 -0.1,-2.9 -1.6,-4.2 -1.8,-1.7 -2.9,-3.5 -3.1,-5.5 l -0.3,-2.3"
       ns3:knockout="Off"
       inkscape:connector-curvature="0"
       style="fill:#ffd500;stroke-width:0.28693014" />
    <path
       id="path4638"
       d="m 129.85,172.25 c 0.7,2.5 1.9,4.7 3.7,6.8 3.9,4.4 8.1,8.6 12.6,12.6 4.2,3.8 6.2,9.3 5.9,16.7 4.6,-7.7 4.2,-15.8 -1.5,-24.3 l -5.8,-6 c -3,-2.5 -5.1,-5.1 -6.5,-7.9 v -0.2 c -1.5,-2.9 -2.1,-6 -1.9,-9.2 -2.3,1.2 -4.8,2.1 -7.4,2.8 -0.2,3.1 0,5.9 0.8,8.4 0,0.1 0.1,0.2 0.1,0.3"
       ns3:knockout="Off"
       inkscape:connector-curvature="0"
       style="fill:#ffd500;stroke-width:0.28693014" />
    <path
       id="path4640"
       d="m 146.75,166.05 c -0.1,-0.2 -0.2,-0.3 -0.1,-0.5 l 0.9,-2.5 c -1.3,-1.9 -2.5,-4.3 -3.5,-7.2 -2.1,1.5 -4.3,3 -6.5,4.2 -0.4,3.2 0.1,6.3 1.5,9.2 0.5,0.1 1.1,0.3 1.7,0.4 2.6,1 4.4,2.5 5.3,4.4 0.2,0.4 0.4,0.7 0.7,1.1 0.8,0.8 1.9,1.4 3.4,1.5 2.7,0.2 4.2,1.5 4.6,3.8 0.2,1.7 1.2,2.6 3,2.6 2.4,-0.2 3.9,1.3 4.3,4.6 0.2,1.1 0.9,1.8 2.2,1.9 2,0.4 3.7,2 4.8,5 0,-3 -0.8,-4.8 -2.1,-5.4 -2.3,-1.1 -3.6,-2.9 -4,-5.4 -0.3,-2 -1.4,-3.5 -3.3,-4.2 -2.3,-1 -3.6,-2.4 -4,-4.2 -0.2,-1.4 -1.2,-2.5 -3,-3.2 -0.1,-0.1 -0.2,-0.1 -0.4,-0.2 -2.1,-0.8 -3.6,-2.1 -4.5,-3.7 l -1,-2.2"
       ns3:knockout="Off"
       inkscape:connector-curvature="0"
       style="fill:#ffd500;stroke-width:0.28693014" />
    <path
       id="path4642"
       d="m 83.05,152.85 c -0.4,-0.3 -0.7,-0.7 -1.1,-1 -0.1,-0.3 -0.2,-0.4 -0.4,-0.5 h -0.1 c -0.1,-0.2 -0.3,-0.4 -0.4,-0.5 -1.3,-1.3 -2.4,-2.7 -3.5,-4 -3.2,1 -6,2.5 -8.2,4.7 -1.5,1.4 -2.7,3.1 -3.7,5.1 -0.3,0.7 -0.7,1.3 -1,2 -2.2,4.6 -4.2,9.4 -6,14.4 -1.8,5.4 -6.2,9.3 -13,11.8 8.9,1.5 16.1,-2.1 21.9,-10.5 l 3.4,-7.8 c 0.8,-2.7 1.9,-5.1 3.2,-7.1 h 0.2 v -0.1 c 2.2,-3.3 5.1,-5.5 8.7,-6.5"
       ns3:knockout="Off"
       inkscape:connector-curvature="0"
       style="fill:#ffd500;stroke-width:0.28693014" />
    <path
       id="path4644"
       d="m 90.35,158.65 c -2.2,-1.5 -4.3,-3.2 -6.3,-5 -3.5,0.9 -6.4,2.9 -8.6,6.1 0.3,0.6 0.6,1.6 0.8,3 0.2,2.7 -0.3,4.9 -1.6,6.5 -1.1,1.4 -1.3,3.1 -0.5,5 0.9,2.5 0.4,4.4 -1.5,5.7 -1.5,0.8 -1.8,2 -1,3.5 h 0.1 c 1.3,2.2 0.6,4.3 -2,6.3 h -0.1 c -1,0.6 -1.3,1.4 -0.8,2.5 v 0.2 c 0.5,2 -0.3,4.1 -2.5,6.4 2.6,-1.5 4,-2.9 4,-4.4 0,-2.5 1,-4.5 3.1,-5.9 1.6,-1.1 2.4,-2.7 2.3,-4.7 -0.1,-2.4 0.6,-4.1 2.2,-5.2 1.2,-0.8 1.7,-2.2 1.5,-4.1 -0.3,-2.5 0.1,-4.5 1.3,-6.2 l 1.2,-1.9 c 0.1,-0.1 0.2,-0.1 0.3,-0.2 l 2.6,-1.1 c 1.2,-2.4 3.1,-4.6 5.5,-6.5"
       ns3:knockout="Off"
       inkscape:connector-curvature="0"
       style="fill:#ffd500;stroke-width:0.28693014" />
    <path
       id="path4646"
       d="m 85.85,165.85 v 0.2 c -1.1,2.1 -1.7,4.4 -1.8,6.9 -0.1,0.5 -0.2,1.1 -0.2,1.6 -0.3,5.3 -0.2,10.7 0.2,16.2 0.2,5.6 -2.3,11 -7.7,16 8.7,-2.1 14.1,-8.2 16.2,-18.2 l 0.1,-8.5 c -0.3,-3.3 -0.1,-6.3 0.5,-8.8 1,-3.5 2.8,-6.4 5.5,-8.5 -2.6,-1 -4.9,-2.2 -7.3,-3.5 -2.5,1.9 -4.3,4.1 -5.5,6.6"
       ns3:knockout="Off"
       inkscape:connector-curvature="0"
       style="fill:#ffd500;stroke-width:0.28693014" />
    <path
       id="path4648"
       d="m 96.15,173.55 c 1.3,2.4 1.6,4.7 1,6.8 -0.3,1.6 0.2,3.1 1.6,4.5 1.8,2 2,3.9 0.7,5.9 -1,1.4 -0.8,2.6 0.6,3.8 2,1.5 2.2,3.6 0.5,6.4 -0.6,0.9 -0.6,1.9 0.2,2.8 h 0.1 c 1.3,1.7 1.3,4 0.2,7 1.9,-2.3 2.6,-4.3 2.1,-5.7 -1,-2.2 -0.9,-4.4 0.4,-6.4 1.2,-1.7 1.3,-3.5 0.4,-5.3 -1,-2.2 -1,-4.1 0,-5.7 0.8,-1.3 0.7,-2.8 -0.2,-4.5 -0.2,-0.1 -0.3,-0.2 -0.3,-0.4 v -0.1 c -1,-2 -1.3,-3.8 -0.9,-5.6 l 0.5,-2.2 c 0,-0.2 0.1,-0.2 0.3,-0.3 l 1.5,-1.6 c 0.3,-2.7 1.2,-5.4 2.6,-8.1 -2.6,-0.4 -5.1,-0.9 -7.4,-1.7 -2.8,1.9 -4.6,4.6 -5.6,8 0.5,0.4 1.1,1.2 1.7,2.4"
       ns3:knockout="Off"
       inkscape:connector-curvature="0"
       style="fill:#ffd500;stroke-width:0.28693014" />
    <path
       id="path4650"
       d="m 115.25,165.55 c -2.2,0 -4.5,-0.2 -6.6,-0.6 -1.5,2.8 -2.4,5.6 -2.6,8.3 -0.3,2.6 0.1,5.2 0.9,7.8 0.1,0.3 0.2,0.5 0.3,0.7 1.9,5.3 4.1,10.6 6.6,15.8 2.4,5.1 2,10.9 -1,17.6 7.2,-5.3 9.8,-12.9 7.9,-23 l -3.1,-7.8 c -1.2,-2.4 -2.1,-4.8 -2.6,-7 v -0.1 c -0.1,-0.7 -0.2,-1.3 -0.3,-1.9 v -0.1 c -0.4,-3.5 0.2,-6.7 1.9,-9.7 -0.5,0 -0.9,0 -1.4,0"
       ns3:knockout="Off"
       inkscape:connector-curvature="0"
       style="fill:#ffd500;stroke-width:0.28693014" />
    <path
       id="path4652"
       d="m 76.85,145.85 c -1.6,-2.2 -2.9,-4.5 -4.1,-6.8 -3.7,-0.4 -7.2,0.5 -10.5,2.8 0,0.9 -0.1,1.8 -0.4,3 -0.9,2.6 -2.2,4.4 -4.1,5.5 -1.4,0.8 -2.2,2.2 -2.2,4.3 -0.1,2.7 -1.3,4.2 -3.5,4.7 -1.7,0.2 -2.5,1.2 -2.3,3 0.4,2.4 -1,4 -4.1,4.8 -1.2,0.2 -1.8,1 -1.8,2.3 -0.4,2 -2,3.7 -4.9,5.1 3,-0.3 4.8,-1.1 5.4,-2.6 0.9,-2.3 2.5,-3.6 5,-4.1 1.9,-0.5 3.3,-1.7 4,-3.5 0.8,-2.4 2.2,-3.7 4.1,-4 1.4,-0.4 2.4,-1.5 3,-3.4 0.6,-2.4 1.7,-4.1 3.4,-5.1 l 2,-1.3 c 0,-0.1 0.1,-0.2 0.2,-0.2 l 2.6,0.2 c 2.3,-2.2 5,-3.7 8.2,-4.7"
       ns3:knockout="Off"
       inkscape:connector-curvature="0"
       style="fill:#ffd500;stroke-width:0.28693014" />
    <path
       id="path4654"
       d="m 179.75,157.35 c -2.5,0 -4.2,-0.8 -5.2,-2.4 -0.7,-1.3 -2,-1.9 -3.9,-1.8 -0.4,0 -0.7,0 -1,0 -2.1,-0.1 -3.8,-0.7 -5.1,-1.7 l -1.7,-1.6 c -0.2,-0.1 -0.3,-0.2 -0.3,-0.3 l -0.6,-2.1 c -2.2,-1.3 -4.2,-3 -5.9,-5.1 -1.4,2.1 -2.9,4.2 -4.6,6.2 0.8,2.9 2.3,5.3 4.4,7.4 0.6,-0.2 1.5,-0.4 2.7,-0.5 2.8,-0.1 5,0.6 6.6,2 0.3,0.2 0.5,0.4 0.8,0.6 1.1,0.6 2.5,0.7 4.1,0.1 2.5,-0.7 4.4,0 5.5,2 0.9,1.5 2.2,1.9 3.9,1.2 v 0.1 c 2.1,-1.2 4,-0.4 5.6,2.3 v 0.1 c 0.6,1.1 1.6,1.5 2.7,1.1 h 0.2 c 2.1,-0.5 4.2,0.5 6.4,2.8 -1.3,-2.8 -2.6,-4.2 -4.2,-4.3 -2.5,-0.2 -4.4,-1.4 -5.6,-3.6 -1.2,-1.7 -2.8,-2.5 -4.8,-2.5"
       ns3:knockout="Off"
       inkscape:connector-curvature="0"
       style="fill:#ffd500;stroke-width:0.28693014" />
    <path
       id="path4656"
       d="m 186.35,140.45 -8.5,-0.1 c -4.3,0.3 -8.1,-0.2 -11.2,-1.4 -2.7,-1.1 -4.9,-2.8 -6.7,-5.1 -0.9,2.5 -1.9,5 -3.3,7.3 1.8,2.3 3.9,4 6,5.2 v 0.2 c 2.5,1.4 5.2,2.1 8.1,2.3 5.8,0.3 11.7,0.4 17.7,0.1 5.7,-0.4 11.1,2.2 16.1,7.5 -2.1,-8.6 -8.2,-14 -18.2,-16"
       ns3:knockout="Off"
       inkscape:connector-curvature="0"
       style="fill:#ffd500;stroke-width:0.28693014" />
  </g>
</svg>
