<svg height="546.83783" width="499.99997" xmlns="http://www.w3.org/2000/svg"><g transform="matrix(1.2797087 0 0 1.2797087 -34.697841 -35.171397)"><path d="m127.47081 68.16481h67.041679v79.456947h-67.041679z" fill="#fcdd09" stroke="#000" stroke-linecap="round" stroke-width="2.955894"/><path d="m249.97081 68.968208h67.041679v79.456947h-67.041679z" fill="#fcdd09" stroke="#000" stroke-linecap="round" stroke-width="2.955894"/><g fill="none"><path d="m73.878993 70.026265c-.23351 18.52098-.59733 37.447255.18239 55.873055 17.22397.23358 34.853207.59724 51.981997-.18239.23351-18.52098.59733-37.44726-.18239-55.873058-17.21117-.233671-34.868807-.596538-51.981997.182393z"/><path d="m129.32646 94.34533c-.23358 17.22397-.59725 34.85321.18239 51.982 20.88258.49663 41.92192.0708 62.86478.2128 2.33946-4.78451.33602-11.87732 1.00317-17.54013-.26264-11.58145.52582-23.41103-.39519-34.837063-20.88258-.496623-41.92192-.07085-62.86478-.212791z"/><path d="m73.878993 129.36479c.143 5.48078-1.3697 12.50774.79036 17.17534 17.09367-.26309 34.435817.52642 51.374027-.39519-.14301-5.48078 1.36969-12.50774-.79037-17.17534-17.09011.26269-34.440887-.52582-51.374017.39519z"/><path d="m221.8909 114.56055c-5.98709 1.52646-5.19422 9.6059-5.2286 14.40905-6.70309.28132-13.6681-.54685-20.21522.39519.14301 5.48078-1.36969 12.50774.79037 17.17534 17.09366-.26309 34.43581.52642 51.37402-.39519-.143-5.48078 1.3697-12.50774-.79036-17.17534-6.47496 0-12.94991 0-19.42486 0 .0518-4.76485.36827-14.42475-6.50535-14.40905z"/><path d="m251.89455 94.34533c-.23358 17.22397-.59725 34.85321.18239 51.982 20.88259.49663 41.92193.0708 62.86479.2128 2.33946-4.78451.33601-11.87732 1.00316-17.54013-.26264-11.58145.52582-23.41103-.39519-34.837063-20.88258-.496623-41.92192-.07085-62.86478-.212791z"/><path d="m319.01517 129.36479c.14301 5.48078-1.36969 12.50774.79037 17.17534 17.09367-.26309 34.43582.52642 51.37403-.39519-.14301-5.48078 1.36969-12.50774-.79037-17.17534-17.09012.26269-34.44089-.52582-51.37403.39519z"/><path d="m319.01517 70.026265c-.23351 18.52098-.59732 37.447255.18239 55.873055 17.22398.23358 34.85321.59724 51.98201-.18239.23351-18.52098.59732-37.44726-.18239-55.873058-17.21118-.233671-34.86881-.596538-51.98201.182393z"/><path d="m196.44708 70.026265c-.23351 18.52098-.59733 37.447255.18239 55.873055 5.48078-.14301 12.50774 1.36969 17.17534-.79037-1.3698-6.6358 4.74124-16.45636 12.09874-12.58512 4.9414 2.61416 4.66654 9.10989 6.32409 13.34885 5.17265-.0947 12.14834 1.39386 16.59663-.76373-.26314-18.39067.52648-37.029866-.39519-55.265079-17.21117-.233671-34.86881-.596537-51.982.182394z"/><path d="m129.32646 70.026265c-.23633 6.848219-.59405 14.100376.18239 20.853599 20.88258.496623 41.92192.07085 62.86478.212791 2.33946-4.784502.33602-11.877319 1.00317-17.540126 2.08726-6.303801-13.0872-5.824731-9.78843.972763-.86212 5.116316 3.07885 15.035719-5.31979 12.615516-3.32266-2.655777-.48427-11.472607-1.42875-16.506567-5.1627-3.223818-12.68914-.728027-9.78842 6.809338 1.6561 6.106653-1.11819 13.159456-6.74854 8.724465-1.15002-5.064641 2.40426-13.95071-1.97593-16.536965-7.11054-1.744532-10.65873 1.542411-8.78526 8.785263 2.89345 6.323749-3.77379 12.700169-6.74854 6.77894-1.41179-4.67645 3.15385-14.887229-2.94869-15.564203-3.46156.254403-7.21812-.514782-10.51799.395186z"/><path d="m59.287553 35.006809c-.22195 10.41244-.60649 21.236942.18239 31.553989 26.71917.496581 53.595067.07088 80.374507.212792 2.32954-4.627018.34928-11.546417 1.00316-17.053745-1.43048-4.512178 3.18921-14.606338-2.94868-15.10822-4.98291.431482-14.25457-2.496635-11.70355 5.866975-.25997 5.718473 2.31449 14.271366-6.29256 11.642753-1.32815-4.819465.37381-11.872139-.85117-17.296936-7.00577-2.317728-10.16798 1.749685-8.42047 8.57247 2.89345 6.323749-3.77379 12.70017-6.74854 6.77894-1.41179-4.676449 3.15385-14.887229-2.94869-15.564203-8.292097-1.8783-3.754327 8.918752-4.894217 13.649076 1.2325 7.352019-10.79931 4.195743-6.74854-2.948687.61497-6.093569.90652-13.239877-7.32612-10.700389-3.41145 3.497705-.54506 11.382306-1.48954 16.567364-5.88879 4.411899-8.30976-2.624903-6.74854-8.754864 2.51908-8.197462-3.87126-8.682037-10.24441-7.8125-1.373.196896-2.9763-.435976-4.19503.395185z"/><path d="m181.85564 35.006809c-.22194 10.41244-.60648 21.236942.18239 31.553989 26.71917.496581 53.59507.07088 80.37451.212792 2.32954-4.627018.34929-11.546417 1.00317-17.053745-1.43049-4.512178 3.1892-14.606338-2.94869-15.10822-4.98291.431482-14.25457-2.496635-11.70355 5.866975-.25997 5.718473 2.31449 14.271366-6.29256 11.642753-1.32815-4.819465.37381-11.872139-.85117-17.296936-7.00577-2.317728-10.16798 1.749685-8.42047 8.57247 2.89345 6.323749-3.77379 12.70017-6.74854 6.77894-1.41179-4.676449 3.15385-14.887229-2.94869-15.564203-8.2921-1.8783-3.75433 8.918752-4.89421 13.649076 1.33361 7.300464-11.95142 4.527606-7.72131-2.948687.80036-6.090615.59431-13.858589-7.6301-10.305204-1.13493 5.319143 1.21237 13.35306-1.18556 17.114544-8.43916 2.63299-5.25274-6.359609-5.77578-11.642753 2.52389-8.541934-7.14046-5.318485-12.18993-5.866975-.74447.154442-1.6353-.311046-2.24951.395184z"/><path d="m304.42373 35.006809c-.22194 10.41244-.60648 21.236942.1824 31.553989 26.71916.496581 53.59507.07088 80.37451.212792 2.32953-4.627018.34928-11.546417 1.00316-17.053745-1.43048-4.512178 3.1892-14.606338-2.94869-15.10822-4.9829.431482-14.25456-2.496635-11.70355 5.866975-.25996 5.718473 2.3145 14.271366-6.29256 11.642753-1.32815-4.819465.37382-11.872139-.85116-17.296936-7.00578-2.317728-10.16799 1.749685-8.42048 8.57247 2.89345 6.323749-3.77379 12.70017-6.74854 6.77894-1.41179-4.676449 3.15385-14.887229-2.94869-15.564203-8.28021-2.503156-5.4904 6.691614-5.86697 11.703551 3.72109 7.33709-9.6484 8.553829-6.74854.942364-.62927-5.104561 2.82853-15.191246-5.86698-12.645915-4.41809 2.588859-.8008 11.496493-1.97592 16.567364-5.88879 4.411899-8.30977-2.624903-6.74854-8.754864 2.51908-8.197462-3.87126-8.682037-10.24441-7.8125-1.373.196896-2.9763-.435976-4.19504.395185z"/><path d="m251.89455 70.026265c-.23633 6.848219-.59405 14.100376.18239 20.853599 20.88259.496623 41.92193.07085 62.86479.212791 2.33946-4.784502.33601-11.877319 1.00316-17.540126 2.08726-6.303801-13.08719-5.824731-9.78842.972763-.86213 5.116316 3.07884 15.035719-5.3198 12.615516-3.32266-2.655777-.48427-11.472607-1.42875-16.506567-3.70317-1.968561-13.64274-2.659685-10.76118 4.863814-.25997 5.718473 2.31449 14.271367-6.29256 11.642753-1.32815-4.819466.37381-11.87214-.85117-17.296937-5.50061-.848545-13.00401-1.332145-10.366 6.626947.20968 6.01586 1.55346 13.165818-6.74854 10.66999-.64202-5.664145 1.3008-12.718953-1.00316-17.509728-3.77494.291009-7.88014-.558849-11.49076.395185z"/></g><path d="m72.47081 127.89105h55v19.999992h-55z" fill="#fcdd09" stroke="#000" stroke-linecap="round" stroke-width="3"/><path d="m72.47081 67.891052h55v60h-55z" fill="#fcdd09" stroke="#000" stroke-linecap="round" stroke-width="3"/><path d="m61.470814 32.891048h76.999996v35h-76.999996z" fill="#fcdd09" stroke="#000" stroke-linecap="round" stroke-width="3"/><g transform="translate(-.000005)"><path d="m72.870813 32.89105h8v17h-8z"/><path d="m88.270813 32.89105h8v17h-8z"/><path d="m103.67082 32.89105h8v17h-8z"/><path d="m119.07082 32.89105h8v17h-8z"/></g><path d="m99.982127 82.89105c2.712093.02672 4.000003 1.82851 4.000003 3.5v16.5h-8.000007v-16.5c-.22866-1.665561 1.28791-3.526724 4.000004-3.5z"/><path d="m-372.47083 127.89105h55v20h-55z" fill="#fcdd09" stroke="#000" stroke-linecap="round" stroke-width="3" transform="scale(-1 1)"/><path d="m-372.47083 67.891052h55v60h-55z" fill="#fcdd09" stroke="#000" stroke-linecap="round" stroke-width="3" transform="scale(-1 1)"/><path d="m-383.47083 32.891048h77v35h-77z" fill="#fcdd09" stroke="#000" stroke-linecap="round" stroke-width="3" transform="scale(-1 1)"/><g transform="translate(.00002)"><path d="m372.07082 32.89105h-8v17h8z"/><path d="m356.67082 32.89105h-8v17h8z"/><path d="m341.2708 32.89105h-8v17h8z"/><path d="m325.8708 32.89105h-8v17h8z"/></g><path d="m344.9595 82.89105c-2.7121.02672-4 1.82851-4 3.5v16.5h8v-16.5c.22866-1.665561-1.28791-3.526724-4-3.5z"/><path d="m194.97081 67.89105v60 20h55v-20-60z" fill="#fcdd09" stroke="#000" stroke-linecap="round" stroke-width="3"/><path d="m-260.97083 32.891048h77v35h-77z" fill="#fcdd09" stroke="#000" stroke-linecap="round" stroke-width="3" transform="scale(-1 1)"/><g transform="translate(.00002)"><path d="m249.57082 32.89105h-8v17h8z"/><path d="m234.17081 32.89105h-8v17h8z"/><path d="m218.7708 32.89105h-8v17h8z"/><path d="m203.3708 32.89105h-8v17h8z"/></g><path d="m209.43179 82.89105c-2.7121.02672-4 1.82851-4 3.5v16.5h8v-16.5c.22866-1.665561-1.28791-3.526724-4-3.5z"/><g transform="translate(-3.095445)"><path d="m167.56625 67.89105h-8v17h8z"/><path d="m184.6617 67.89105h-8v17h8z"/><path d="m150.47081 67.89105h-8v17h8z"/></g><g transform="translate(-2.12172)"><path d="m306.97661 67.89105h-8v17h8z"/><path d="m272.17157 67.89105h-8v17h8z"/><path d="m289.57408 67.89105h-8v17h8z"/></g><path d="m235.35372 82.89105c-2.7121.02672-4 1.82851-4 3.5v16.5h8v-16.5c.22866-1.665561-1.28791-3.526724-4-3.5z"/><path d="m193.47081 127.89105h21.42385s-1.37664-15 7.57615-15 7.37309 15 7.37309 15h21.42385" fill="#fcdd09" stroke="#000" stroke-width="3"/><path d="m127.47081 67.89105h65" fill="none" stroke="#000" stroke-width="3"/><path d="m250.95237 92.89105h65" fill="none" stroke="#000" stroke-width="3"/><path d="m127.47081 92.89105h66" fill="none" stroke="#000" stroke-width="3"/><path d="m251.72898 67.89105h65" fill="none" stroke="#000" stroke-width="3"/><path d="m41.960213 149.7928c3.17361 7.48925 9.26042 14.31501 12.65536 22.14925 17.43275 36.62031 21.56005 77.67135 27.97938 117.25568 6.69917 40.04532 12.02554 83.19341 37.800347 116.21332 22.59717 28.96318 60.73033 40.93747 96.51019 40.52718 34.94964 1.66638 72.64499-5.75429 98.65029-30.61284 26.83642-25.97331 36.0914-64.00294 42.4003-99.58536 8.12105-43.39347 10.79727-88.36948 26.50778-129.95501 4.77385-12.72402 11.68656-24.45462 18.78648-35.71863-8.88458-1.58449-18.87704-.20537-28.17972-.66877-110.77335 0-221.54669 0-332.320037 0zm208.839977 44.4127c9.37298 4.2457 18.74594 8.4914 28.11892 12.73711-.1757 14.5315.71728 29.28818-1.44 43.56063-.59559 38.11811-1.01102 76.29171.28485 114.3917 2.30496 12.77994.60491 26.31799 1.15515 39.36649-37.59322 0-75.18645 0-112.77967 0 .16841-14.56361-.70242-29.34531 1.44-43.65183.5956-38.11811 1.01102-76.29171-.28484-114.3917-2.32765-12.79467-.58927-26.36224-1.15516-39.42729 18.80871-8.45051 37.61739-16.90061 56.38984-25.44382 9.42363 4.28623 18.84727 8.57247 28.27091 12.85871z" fill="none"/><path d="m37.470813 147.89105c76.015567 90.23643-1.86459 300 184.999997 300 186.86459 0 108.98444-209.76357 185-300h-92.5-92.5-92.5z" fill="#da121a" stroke="#000" stroke-linecap="round" stroke-width="6"/><path d="m171.47081 367.89105v35h51 51v-35h-51z" fill="#fff" stroke="#000" stroke-linecap="round" stroke-width="3"/><path d="m174.76743 242.84246v125.09718h47.70338 47.70339v-125.09718h-47.70339-47.70339z" fill="#fff" stroke="#000" stroke-linecap="round" stroke-width="3"/><path d="m171.47081 207.89105v35h51 51v-35h-51z" fill="#fff" stroke="#000" stroke-linecap="round" stroke-width="3"/><path d="m222.47081 179.89105-1.71875.78125-1.71875 3.78125c-16.5784 7.53564-35.18946 15.99521-51.5625 23.4375h55 55c-16.67921-7.58146-35.67767-16.21712-51.5625-23.4375l-1.71875-3.78125z" fill="#fff" stroke="#000" stroke-width="3"/><path d="m201.58202 207.89105h7.666354v10h-7.666354z"/><path d="m184.52641 207.89105h7.666354v10h-7.666354z"/><path d="m218.63762 207.89105h7.666354v10h-7.666354z"/><path d="m214.13301 384.91289v17.97816h8.21859 8.21859v-17.97816c0-4.79705-4.61721-7.01315-8.21859-7.01315s-8.21859 2.2161-8.21859 7.01315z"/><path d="m202.47081 257.89105c-2.7121.0267-4 2.82851-4 4.5v15.5h8v-15.5c.22866-1.66556-1.28791-4.52672-4-4.5z"/><path d="m-243.35957 207.89105h7.666354v10h-7.666354z" transform="scale(-1 1)"/><path d="m-260.41519 207.89105h7.666354v10h-7.666354z" transform="scale(-1 1)"/><path d="m222.48212 307.89105c2.7121.0267 4 2.82851 4 4.5v15.5h-8v-15.5c-.22866-1.66556 1.28791-4.52672 4-4.5z"/><path d="m242.47081 257.89105c2.7121.0267 4 2.82851 4 4.5v15.5h-8v-15.5c-.22866-1.66556 1.28791-4.52672 4-4.5z"/><path d="m98.198417 251.56166 3.093753 42.03125c2.26026 16.20229 13.34989 27.74318 28.65624 27.96875 16.67873-1.32813 27.3522-12.85813 28.65625-27.96875l3.0625-42.03125z" fill="#fff" stroke="#000" stroke-width="3"/><path d="m103.55078 251.66992v30.81055h-24.857421l1.189453 16.28125c.02465.17695.04376.34943.07031.52539h23.597658v29.58398c2.64684.75752 5.44885 1.18304 8.40234 1.22657 2.97182-.23665 5.78799-.75604 8.4043-1.54102v-29.26953h23.66797c.0175-.17513.02-.34939.0352-.52539l1.18941-16.28125h-24.89258v-30.81055z" fill="#da121a" stroke="#000" stroke-width="1.120381" transform="matrix(.8925532 0 0 .8925532 30.008047 26.928282)"/><path d="m98.198417 251.56166 3.093753 42.03125c2.26026 16.20229 13.34989 27.74318 28.65624 27.96875 16.67873-1.32813 27.3522-12.85813 28.65625-27.96875l3.0625-42.03125z" fill="none" stroke="#000" stroke-width="3"/><path d="m283.30677 251.56166 3.09375 42.03125c2.26026 16.20229 13.34989 27.74318 28.65624 27.96875 16.67873-1.32813 27.3522-12.85813 28.65625-27.96875l3.0625-42.03125z" fill="#fff" stroke="#000" stroke-width="3"/><path d="m307.54114 251.55784v68.90625c2.36244.67612 4.86385 1.0549 7.5 1.09375 2.6525-.21122 5.1648-.67436 7.5-1.375v-68.625z"/><path d="m285.35364 279.05784 1.0625 14.53125c.022.15794.0388.3117.0625.46875h57.1875c.0156-.15631.0177-.31166.0312-.46875l1.0625-14.53125h-59.40625z"/><path d="m283.30677 251.56166 3.09375 42.03125c2.26026 16.20229 13.34989 27.74318 28.65624 27.96875 16.67873-1.32813 27.3522-12.85813 28.65625-27.96875l3.0625-42.03125z" fill="none" stroke="#000" stroke-width="3"/></g></svg>