<?xml version="1.0" encoding="UTF-8"?>
<svg xmlns="http://www.w3.org/2000/svg" xmlns:xlink="http://www.w3.org/1999/xlink" width="462.612" height="481.887">
  <defs>
    <pattern id="f" patternTransform="rotate(55.008 -316.752 404.167)" xlink:href="#a"/>
    <pattern id="e" patternTransform="translate(196 431.887)" xlink:href="#a"/>
    <pattern id="h" patternTransform="rotate(55.905 -302.144 408.034)" xlink:href="#b"/>
    <pattern id="i" patternTransform="translate(196 431.887)" xlink:href="#a"/>
    <pattern id="j" patternTransform="translate(196 431.887)" xlink:href="#a"/>
    <pattern id="g" patternTransform="rotate(-11.69 2207.493 -741.391)" xlink:href="#a"/>
    <pattern id="b" patternTransform="rotate(55.905 -302.144 408.034)" xlink:href="#a"/>
    <pattern id="a" width="8" height="8" patternTransform="translate(196 431.887)" patternUnits="userSpaceOnUse">
      <path stroke-width="2" d="M0 2h8v2H0zm0 4h8v2H0z"/>
    </pattern>
    <clipPath id="c">
      <path fill="#fff" d="M229.321 472.979c48.935-.5 87.332-14.481 118.34-40.942 27.155-22.655 57.67-62.043 64.46-122.456l2.176-59.621 4.85-166.166c.69-10.924.99-20.425 13.872-29.876C287.992-5.9 153.157 2.827 26.579 53.702c8.6 6.59 15.862 16.608 14.671 27.226l4.34 169.066 1.478 61.16c2.663 26.447 10.473 67.54 62.703 119.245 21.92 17.7 56.473 41.488 119.55 42.58z"/>
    </clipPath>
  </defs>
  <g>
    <path d="M0 68.164l47.404-56.979s-6.349 15.442 11.095 12.956C85.73 20.258 125.063 0 239.042 0c87.136 0 171.466 27.04 171.466 27.04s6.003.29 5.336-13.518c-.3-6.22 37.319 51.18 45.39 53.111 8.071 1.932-21.68-4.635-27.73 19.505-6.052 24.145-14.929 224.82-14.929 224.82s-18.152 170.93-188.61 170.93c-170.457 0-190.628-169.966-190.628-182.521 0-12.554-4.037-152.578-4.037-152.578S41.354 53.679 0 68.164z"/>
    <path fill="#fff" stroke="#000" stroke-width="1.875" d="M437.324 54.9s-82.89-44.026-206.82-44.026c-123.928 0-206.82 44.026-206.82 44.026l19.818-33.94s4.208 9.444 14.086 7.082c16.222-3.876 85.51-24.278 172.917-24.278s178.567 28.997 183.088 28.212c4.521-.784 6.504-3.68 6.504-3.68z"/>
    <g clip-path="url(#c)">
      <path fill="#fff" stroke="#000" stroke-width="3" d="M6.342 6.66h450v475h-450z"/>
      <g>
        <use width="100%" height="100%" transform="translate(86.757 2.167)" xlink:href="#d"/>
        <path fill="#e33416" stroke="#000" stroke-linecap="round" stroke-linejoin="round" stroke-width="2" d="M214.875 477.762l174.353 1.125V335.443l-46.478-93.798-127.875 95.354"/>
        <path fill="url(#e)" stroke="#000" stroke-linecap="round" stroke-linejoin="round" stroke-width="2" d="M300.64 336.999v141.323l17.735.108V337.262L347 274.637l42.228 60.806-46.478-93.798z"/>
        <path fill="#0095d9" stroke="#000" stroke-linecap="round" stroke-linejoin="round" stroke-width="3" d="M347.289 241.645l39.461 85.992h-8.25l-38.75-85.992z"/>
        <path fill="#0095d9" stroke="#000" stroke-linecap="round" stroke-linejoin="round" stroke-width="3" d="M142.932 241.645H347.29l-45.648 95.354H97.284z"/>
        <g id="d">
          <path fill="#fddd00" stroke="#000" stroke-width="3" d="M101.146 58.134V50.86h-6.992v-7.275h6.992v-7.276h6.992v7.276h6.991v7.275h-6.991v7.275z"/>
          <path fill="#e33416" stroke="#000" stroke-width="3" d="M66.252 136.538v65.479l-3.25 7.43v75.211l-3.25 6.521v171.204h87.613V291.179l-3.25-6.52v-75.212l-3.251-7.43v-65.479z"/>
          <path fill="url(#a)" stroke="#000" stroke-width="2" d="M147.365 462.383V291.179l-3.25-6.52v-75.212l-3.251-7.43v-65.479l-14.487-.325v65.61l1.989 7.444v75.362l1.988 6.534v171.546z"/>
          <path fill="#0095d9" fill-opacity=".85" stroke="#000" stroke-width="3" d="M61.784 137.28l42.858-74.23 42.553 73.704z"/>
          <path fill="url(#a)" stroke="#000" stroke-width="2" d="M104.642 63.05l25.231 73.488 17.322.216z"/>
          <circle cx="104.642" cy="63.049" r="6.272" fill="#fddd00" stroke="#000" stroke-width="3"/>
          <path fill="none" fill-opacity=".85" stroke="#000" stroke-width="2" d="M66.252 202.017h74.612m3.25 7.43H63.003m-3.25 81.732h87.613m-84.363-6.52h81.113"/>
          <path fill="#f0f" fill-opacity=".85" stroke="#000" stroke-dasharray="2,2" stroke-width="2" d="M68.252 147.052h72.612m-74.612-2h74.612"/>
          <path stroke-width="1.5" d="M103.928 264.626h6.386v-25.39c0-4.354-6.386-4.548-6.386 0zm-2.832-26.274c0-7.156 10.05-6.852 10.05 0v28.072h-10.05zm-18.043 26.274h6.386v-25.39c0-4.354-6.386-4.548-6.386 0zm-2.832-26.274c0-7.156 10.05-6.852 10.05 0v28.072h-10.05zm23.636-52.91h6.386v-17.39c0-4.354-6.386-4.548-6.386 0zm-2.832-18.274c0-7.156 10.05-6.852 10.05 0v20.072h-10.05zM84.387 185.44h6.386v-17.39c0-4.353-6.386-4.547-6.386 0zm-2.832-18.273c0-7.156 10.05-6.852 10.05 0v20.072h-10.05z"/>
        </g>
        <path fill="url(#f)" stroke="#000" stroke-linejoin="round" stroke-width="2" d="M284.758 266.727l10.724 15.474 7.41-15.48h-18.134l-7.41 15.48 12.762-7.369m-46.435-8.105l10.723 15.474 7.41-15.48h-18.134l-7.41 15.48 12.763-7.369m-46.436-8.105l10.724 15.474 7.41-15.48h-18.134l-7.41 15.48 12.762-7.369m-46.435-8.105l10.724 15.474 7.41-15.48h-18.134l-7.41 15.48 12.762-7.369"/>
        <path fill="#0095d9" stroke="#000" stroke-linecap="round" stroke-width="3" d="M318.375 337.262L347 274.637l43.75 55c8.607 10.961-37.17 11.7-72.375 7.625z"/>
        <path fill="url(#g)" d="M351.625 289.387l10 43.75 19.625-4z"/>
        <path fill="none" stroke="#000" stroke-dasharray="2,2" stroke-linejoin="round" stroke-width="2" d="M216.875 346.262h83.766m-85.766-2h85.766"/>
        <path fill="none" stroke="#000" stroke-width="2" d="M318.375 392.262h70.853m-70.853 5.75h70.853m-124.742-17.274c0-12.292 15.632-11.768 15.817 0v51.144h-15.817zm-31 0c0-12.292 15.632-11.768 15.817 0v51.144h-15.817z"/>
        <path fill="url(#h)" stroke="#000" stroke-linejoin="round" stroke-width="3" d="M133.375 336.999l32.375-45.612h70.5L213.75 337z"/>
        <path fill="#0095d9" d="M136.25 335.45l30.188-42.532h2.656l30.156 42.532z"/>
        <path fill="#e33416" fill-opacity=".995" stroke="#000" stroke-linecap="round" stroke-linejoin="round" stroke-width="3" d="M214.875 477.762V337H194.5l-27.063-37.862L140.375 337v140.763z"/>
        <path fill="url(#i)" stroke="#000" stroke-linecap="round" stroke-linejoin="round" stroke-width="2" d="M214.875 336.999H194.5v140.763h20.375z"/>
        <path d="M174.994 359.854h5.472v-14.903c0-3.73-5.472-3.896-5.472 0zm-2.427-15.66c0-6.132 8.612-5.871 8.612 0v17.201h-8.612zm-16.444 15.66h5.472v-14.903c0-3.73-5.472-3.896-5.472 0zm-2.427-15.66c0-6.132 8.612-5.871 8.612 0v17.201h-8.612z"/>
        <path fill="url(#j)" stroke="#000" stroke-width="2" d="M155.946 401.444c0-16.99 21.607-16.266 21.862 0v63.784h-21.862z"/>
        <path stroke="#000" stroke-width=".723" d="M176.285 395.053c-5.416.568-10.408 1.62-10.408 9.39v60.786h11.932v-63.786c0-2.501-.569-4.632-1.524-6.39zm71.916-18.939c-3.919.411-7.53 1.173-7.53 6.794v48.974h8.632v-51.145c0-1.81-.411-3.35-1.102-4.623zm31 0c-3.919.411-7.53 1.173-7.53 6.794v48.974h8.632v-51.145c0-1.81-.411-3.35-1.102-4.623z"/>
        <path d="M332.56 380.354h5.473v-20.153c0-3.73-5.473-3.896-5.473 0zm-1.364-20.91c0-6.132 8.612-5.871 8.612 0v22.451h-8.612z"/>
        <path fill="none" stroke="#000" stroke-dasharray="2,2" stroke-linejoin="round" stroke-width="2" d="M320.375 346.262h68.766m-70.766-2h70.766"/>
        <path d="M348.685 380.354h5.473v-20.153c0-3.73-5.473-3.896-5.473 0zm-1.24-20.91c0-6.132 8.613-5.871 8.613 0v22.451h-8.612z"/>
        <path d="M367.632 380.354h-4.348v-20.153c0-3.73 4.348-3.896 4.348 0zm2.426-20.91c0-6.132-7.487-5.871-7.487 0v22.451h7.487z"/>
        <path d="M378.632 380.354h-1.473v-20.153c0-3.73 1.473-3.896 1.473 0zm3.426-20.91c0-6.132-5.612-5.871-5.612 0v22.451h5.612z"/>
        <path fill="#fddd00" stroke="#000" stroke-width="2.912" d="M347.575 206.66v8.057h7.736v7.701h-7.736v7.101c5.408 3.314 2.627 12.126-3.868 12.126-6.26 0-9.337-8.776-3.868-12.126v-7.101h-7.736v-7.7h7.736v-8.058z"/>
      </g>
      <g>
        <path fill="#0095d9" stroke="#000" stroke-width="3" d="M256.342 6.66h200v200h-200z"/>
        <g transform="translate(250.656 22.066) scale(.32454)">
          <path fill="#1b1a1c" stroke="#1b1a1c" stroke-width="3" d="M227.044 297.146l50.617 41.106c-32.928-1.513-108.075 30.589-57.414 85.65l-45.178 32.002c-26.169-25.16-57.215-37.356-78.22 10.779l17.291-1.489c-3.784 6.693-10.339 10.96-6.848 24.019l17.368-7.25c-1.992 9.38-.024 19.483 4.814 29.839l12.074-12.446c15.566 7.009 27.833 5.87 43.399 8.522 4.875-.291 10.28-.342 14.274-7.389 25.996.951 55.691-24.293 84.087-27.644 8.936-.162 8.574-9.623 1.883-25.412-7.703-27.777-8.217-53.61 26.146-64.112-6.15 33.996 11.082 44.758 27.703 50.813 40.396 14.716 24.97 50.074 30.86 56.594-27.045-10.933-54.982-25.388-64.944 31.06l8.654-3.95-1.233 13.204 16.414-3.158c-1.42 8 .12 16.375 2.52 25.331l15.041-15.613 38.855.237c5.061.105 10.123-2.412 15.184-13.283 9.244-1.026 19.2 5.441 22.212-9.83 4.426-22.875 3.413-44.843 13.38-68.64 1.593-13.998-22.128-11.866-26.123-33.561-2.215-12.034-1.307-34.397-.43-41.33 37.37 13.458 81.768 17.541 74.163-68.39-7.984-47.661-57.788-79.45-92.635-113.035-4.599-3.848-14.596-52.289 14.803-63.919 20.204-2.74 22.292 9.746 15.943 20.504-5.1 8.643-16.386 15.45-21.732 16.998 3.936 28.158 41.939 5.748 47.06-1.508 9.925 32.273 46.013 22.963 58.988 19.71-18.591-8.523-10.085-24.017-15.657-38.592 49.71-9.52 31.208-34.67 27.36-51.012-20.312 47.597-54.788-19.016-100.288-3.684-56.516 22.23-51.602 60.655-49.593 88.074 10.375 58.89 72.132 54.257 93.685 120.233 6.109 17.761 5.153 55.985-14.607 54.326-9.712-.816-32.687-.728-46.901-30.531-26.827-32.892-61.824-37.77-80.212-99.594 4.172-6.813 9.687-5.577 11.503-26.529 5.54-5.964 12.297-13.52 7.913-30.71 4.588-11.577 10.904-21.424 4.253-44.238-1.581-11.55 4.159-24.076-11.225-36.115 3.518-21.76-8.693-27.793-18.928-35.8-17.193-35.744-39.993-15.759-54.486-11.26-12.384 1.8-27.796-4.473-36.708 6.588.567 5.694-12.027 7.042-24.75 10.319-5.909 5.23-5.437 9.802-.624 12.839-.903 7-.088 14.363 1.46 20.138 9.579 18.036 27.893 7.018 34.163-2.057 9.783 4.252 12.117 12.6 12.027 18.51-25.743-8.093-56.8 22.664-56.16-14.57-15.35 6.233-25.252 19.415-15.81 28.745 2.808 2.776 7.817 8.139 13.928 7.02 23.74-7.753 31.374-18.088 53.65-9.412-1.494 9.785-2.049 4.737-14.503 5.996-20.468-5.971-8.944 12.755-8.575 17.36 4.897 3.846 12.894-6.006 20.254-5.159.295 7.881-9.751 14.17-26.354 19.452l-83.022-6.45c-6.97-18.671 12.056-48.377-40.893-54.67-10.456-1.012-19.2 2.258-27.73 6.064 5.345 2.832 10.501 5.851 13.92 10.608-8.488 3.724-17.532 5.967-23.223 17.153l18.954 2.992c-6.234 8.015-13.32 14.666-14.882 30.158 6.736-1.9 11.983-6.779 20.454-5.207 4.44 14.794 13.485 21.292 22.713 23.72 7.481 28.382 32.363 34.143 48.765 50.929-1.724 8.554-5.849 15.187-3.13 27.295-6.599 16.647-27.106 30.513-40.66 45.77-24.067 1.991-52.26-15.054-64.45 41.763l16.506-7.986-2.447 15.407c7.905-2.39 9.239-6.422 24.204-7.046l2.358 14.843 14.252-8.733c16.457-1.443 33.146-.806 47.72-19.197 24.146-2.01 59.081-16.58 86.8-32.16z"/>
          <path fill="#e33416" d="M242.389 104.94c-.655 4.297-1.784 8.433-5.905 6.886-31.715-7.732-33.776 11.32-54.546 9.76-15.062-8.352-13.286-20.36 1.752-28.91-2.511 30.453 35.603 5.018 58.699 12.265z"/>
          <path fill="#f9d100" stroke="#1b1a1c" d="M220.194 134.144c9.46 3.21 6.02-10.537 49.646-5.84 14.353-3.067 27.878-14.42 39.132-48.478l-9.93-.584c8.76-5.66 16.773-29.682-1.089-45.338-14.83-7.66-23.837-.392-35.122 6.498-14.767-.404-36.693-3.974-37.088 8.76l-26.575 5.841c-6.4 9.393 2.718 7.177 8.177 7.01-3.977 2.347-6.949 5.1-7.548 8.373-1.97 10.753 8.14 26.535 13.973 21.705 9.97 1.216 14.78-3.322 17.814-14.893 31.086 23.736 14.147 38.667 7.008 44.097l-19.566-.584c-6.629 5.257-.687 12.752 1.168 13.433z"/>
          <path fill="#1b1a1c" stroke="#1b1a1c" d="M281.813 62.012c-1.511-7.017-6.637-15.433 7.71-15.711 8.673 3.044 8.51 13.355 1.635 20.384 14.404-1.6 7-23.266 2.336-24.823-14.734-1.12-27.23 1.78-11.681 20.15z"/>
          <path fill="#1b1a1c" stroke="#1b1a1c" d="M231.584 46.534l31.539 3.797c-4.72 10.125-12.232 10.58-19.858 14.894-8.147-.862-12.099-6.93-11.681-18.69z"/>
          <path fill="#fff" d="M244.725 49.455c1.143 7.41-3.622 8.796-7.568 10.922 3.035 5.01 13.021.985 19.625-3.838.613-1.029 1.506-2.244-.217-4.54-3.395-3.607-9.465-2.1-11.84-2.544z"/>
          <path fill="#f9d100" stroke="#1b1a1c" d="M316.266 60.644c-6.113 16.99-8.865 39.397-15.837 50.354-16.592 26.077-33.987 27.042-55.81 25.011-14.39 17.368-49.404 20.55-48.85 49.124 13.234-6.062 21.943-15.516 32.49-23.592-20.873 33.415-68.123 29.077-61.774 56.244 21.974-6.105 38.506-17.652 53.773-30.464-20.937 31.358-76.862 30.22-68.894 63.492 21.829-22.073 48.982-24.587 67.561-48.824-6.525 12.95-21.43 23.807-37.79 31.152-4.962 8.446-9.424 18.63-8.436 27.075 13.462-12.024 27.063-12.909 35.167-23.321 10.913-14.022 18.826-19.635 28.513-38.018-2.382 24.687-41.593 40.331-14.362 64.856 10.3-33.078 28.774-26.09 35.133-66.19 7.194 25.118-34.639 45.074 7.073 73.272-.536-26.944 11.338-28.935 14.305-68.023 12.583 19.972-20.28 50.872 15.959 60.09-7.795-41.572 28.656-24.652 24.002-59.56-5.066 2.782-10.63 7.552-16.446 13.335 7.471-15.388 33.188-18.893 29.78-47.115-6.074 1.483-12.149 7.932-18.223 12.89 11.252-15.913 38.382-22.663 22.796-55.236-7.44 4.99-13.434 11.26-20.13 19.233 7.753-16.937 32.438-24.17 11.762-58.706-5.926 9.764-11.289 15.53-17.215 19.352 7.788-13.135 30.158-30.263 5.453-46.431z"/>
          <path fill="#f9d100" stroke="#1b1a1c" d="M283.442 340.125l26.42 15.143-.707 17.846c-26.88 16.009-56.555 30.015-29.78 84.452 1.972 5.825 1.042 9.619-4.445 10.223-28.763 5.38-41.407 23.103-72.006 26.224-12.912 2.279-1.896 6.967-20.891 8.445-14.503 1.316-26.328-7.12-41.172-7.739-1.646-6.045.44-13.868-9.499-10.93 4.144-12.947 13.883-15.637 22.224-20.89-14.999 1.013-16.824 10.156-25.153 15.837-2.262-6.391-4.388-12.997-11.739-11.392 6.752-14.711 18.934-13.13 28.447-19.557-8 2.578-16.001 2.556-24.002 8.445-2.486-4.033-4.722-8.316-11.556-8 21.654-16.61 42.367-14.395 61.782 13.778l50.507-32.465c2.437-2.375 1.66-4.75 1.218-7.124-45.864-55.787 26.754-79.812 60.352-82.296z"/>
          <path fill="#1b1a1c" stroke="#1b1a1c" d="M200.62 473.943c3.452 12.1 23.153 1.777 30.967-1.627 16.458-7.17 30.543-15.428 29.525-45.702 1.48 8.828-.749 19.511 4.76 26.325 2.127 3.602-1.566 6.572-4.2 7.281-15.985 6.507-30.62 15.684-45.37 22.965-5.783.925-11.529 1.776-15.122-1.68-3.727-2.52-.852-5.041-.56-7.562z"/>
          <path fill="#f9d100" stroke="#1b1a1c" d="M203.552 156.616c-8.407 9.418-16.011 19.317-18.693 32.17-6.259 2.165-12.6 4.747-19.998 12.607-20.773-5.655-40.694-12.648-53.472-30.866 6.402 20.45 26.017 30.091 44.777 40.43 3.429 4.186.823 6.36-2.608 8.26-21.823-14.227-47.555-26.744-51.733-48.69-12.053 2.424-18.765-7.61-23.91-21.302 1.944-5.779 10.47-10.52-8.26-19.563 13.372-4.761 25.992-7.261 34.778 1.74-4.92-12.195-14.477-10.477-23.91-9.13 1.736-3.478.276-6.956-2.609-10.434 11.956-.37 23.95-1.084 34.779 8.695-3.734-6.93-10.339-10.454-22.172-13.912 3.274-4.622.609-7.76-.434-11.303 16.024 4.867 32.883 3.13 33.527 46.073-.58 8.802.8 7.73 8.9 9.23 24.275 4.382 47.369 4.035 71.038 5.995z"/>
          <path fill="#f9d100" stroke="#1b1a1c" d="M518.11 102.907c-34.76 34.7-45.309-23.378-99.24-11.173-27.438 10.449-46.567 30.866-48.74 62.762-.557 62.527 47.243 73.173 74.617 105.698 11.245 19.152 35.964 51.867 12.707 92.434-19.181 7.965-37.385 2.37-55.048-17.628-12.113-21.303-30.313-31.2-47.12-45.451-17.4-14.757-33.433-33.875-47.066-56.67-5.249 5.87-17.4 12.8-4.182 30.803-26.731 3.551-24.417-4.569-33.015-10.721-6.96 7.672-3.068 15.345-2.644 23.017-11.453-3.295-25.793-13.87-30.72-33.33-6.138 5.404-10.933 13.497-14.776 23.493-9.908-2.966-11.964-9.858-14.838-16.342-20.855.79-32.487 12.654-39.884 23.313-.422-7.223-1.193-19.914 1.442-32.247-25.065 21.313-44.043 44.337-63.949 64.282-17.883-1.412-39.28-7.047-53.687 11.408 4.206-.143 7.138 1.414 8.608 4.919 5.063-6.99 17.75-10.167 31.83-12.648-8.522 4.548-18.38 5.759-25.285 14.349 4.485.358 9.185-.144 12.805 3.673 8.236-5.976 15.711-10.938 21.224-13.282-1.67 1.548-.598 4.214-2.615 5.033-5.295 2.148-11.615 6.988-16.226 13.67 5.84 1.004 14.3-5.852 15.155 10.108 34.741-2.48 35.162-12.588 38.118-22.133 22.076 11.602 27.756-11.572 58.411-15.91 11.554-4.07 33.181-8.937 25.202-24.667 10.934-1.368 14.614-8.781 20.497-14.358-.84 5.166-1.002 10.219-7.11 16.263 10.685 27.69 46.996 46.061 76.375 66.953.777-5.392-10.735-15.391-16.466-23.224l19.942 16.799c7.275 14.818-.178 36.597 2.802 66.196 4.896 19.033 29.457 22.616 45.708 32.728 12.4 21.992 13.072 50.728 12.425 53.002-17.81-3.672-35.697-17.48-56.848 3.07 4.078.873 9.194 1.157 10.553 6.564 8.166-8.573 16.332-5.789 24.499-7.56-8.703 4.17-16.63 2.907-26.16 12.863 6.356.132 10.066 2.47 12.365 5.984 8.146-8.426 16.291-9.534 24.436-12.922-3.631 2.588 3.773 3.273-.632 4.08-14.387 2.635-21.58 10.756-24.689 17.275 10.53 2.076 8.58 6.42 9.702 10.206 37.277-2.59 42.01 9.836 53.28-14.145 27.093 13.916 16.953-45.913 28.355-71.317 2.928-13.212-12.696-2.093-28.28-28.281-4.398-24.761 6.943-44.117-2.46-72.547 9.889 5.795 4.24 26.61 60.251 23.362 11.937-5.31 20.326-10.254 21.321-51.91 1.052-22.456-7.32-44.713-26.18-64.41-31.891-36.12-87.285-54.026-68.66-111.362 10.462-19.978 28.017-22.707 32.565-21.943 18.95 3.186 15.488 27.955-11.925 44.352 22.501 14.48 50.93-9.78 39.765-33.125 20.477 13.728-6.795 50.323 45.955 48.19-19.96-16.91 5.685-38.103-19.273-59.006 9.042 4.265 12.84 12.874 18.622 14.592 20.875 6.203 31.168-18.686 28.182-33.129z"/>
          <path fill="#1b1a1c" stroke="#1b1a1c" d="M206.591 268.15c3.206 12.51-3.502 19.304-18.866 25.484-11.443 4.603-27.197 12.761-45.616 13.005.617.269 17.451 4.621 47.732-10.814 10.067-4.924 31.37-10.99 16.75-27.675z"/>
          <path fill="#1b1a1c" stroke="#1b1a1c" d="M391.422 416.254c3.964 12.705 2.654 20.346 16.265 23.634 6.929 2.303 7.758 7.021 6.234 10.78-5.918 18.257 3.55 32.29-10.554 48.941-7.21 5.002-10.994-2.18-11.945-6.099 4.846 2.356 10.626 2.555 13.47-2.795 3.749-11.201 2.202-25.555 2.795-38.12-4.694-8.911-17.593-18.874-16.265-36.341z"/>
          <path fill="#e33416" stroke="#1b1a1c" d="M332.972 546.878c3.29-3.747 5.045-7.8 11.436-10.928-.06-12.19-7.124-6.369-11.436-7.624-3.34 6.661-1.173 12.536 0 18.552zm-16.773-20.076c2.463-6.263 6.263-11.188 11.436-14.74 5.543 1.81 5.863 7.104 7.624 11.436-6.353-.697-12.707 1.368-19.06 3.304zm-7.878-10.674c2.16-5.506 2.998-8.98 7.624-14.486 4.233 1.499 7.434 3.43 7.624 7.624-5.083 1.265-10.165 2.91-15.248 6.862zM81.071 350.393c2.27-3.95 8.094-6.192 12.241-7.326-1.688-5.903-4.502-9.778-10.484-6.46-1.687 5.639-2.354 10.433-1.756 13.786zm-21.504-8.774c-.06-5.513 2.41-9.34 5.131-12.999 8.413-2.237 9.553 3.317 11.63 7.868-7.32-1.062-11.638 2.679-16.761 5.131zm-16.42-5.815c-.248-5.528.85-11.145 4.79-14.71 2.957-1.732 9.553.347 11.276 6.842-1.66-1.489-13.737 6.605-16.066 7.868zm18.175-184.95c3.964-1.373 7.654-3.98 12.31-2.238 7.28-8.765 3.244-12.308-3.916-14.41-4.187 4.161-7.19 9.506-8.394 16.648zm-4.617-28.819c5.916-.633 10.865 1.634 16.089 3.078 2.138-2.134 4.556-7.102.28-11.472-7.128.568-12.112 4.957-16.369 8.394zm11.332-23.643c4.964-3.75 10.347-3.32 15.669-3.497 4.707 8.108-.122 8.666-4.057 9.933-3.577-3.617-7.7-4.494-11.612-6.436zm62.288 408.318c2.025-4.427 4.44-8.333 8.682-9.802-.6-10.923-5.672-9.324-9.802-10.362-2.635 6.721-.58 13.442 1.12 20.164zm-19.884-21.565l14.563-7.001c.458-6.152-4.658-6.731-8.401-8.682-5.47 3.276-5.79 9.495-6.162 15.683zm-9.241-22.124l8.681-12.883c7.758 1.396 7.576 6.761 8.122 11.763z"/>
        </g>
        <path fill="#fddd00" stroke="#000" stroke-width="2" d="M399.04 157.47l9.291-3.653v18.426l-9.014 3.726zm-63.25 25.5l9.291-3.653v18.426l-9.014 3.726zM294.409 27.68l9.29-3.652v18.425l-9.013 3.727zm6.502 113l9.29-3.652v18.426l-9.014 3.726zm-35.603 17.338l9.29-3.652v18.425l-9.014 3.727zm-.31-69.658l9.29-3.652v18.425l-9.014 3.727z"/>
        <path fill="#fddd00" stroke="#000" stroke-width="2" d="M361.1 89.58l9.29-3.653v18.426l-9.014 3.726z"/>
      </g>
    </g>
  </g>
</svg>
