<!-- Created with Inkscape (http://www.inkscape.org/) -->
<svg xmlns:rdf="http://www.w3.org/1999/02/22-rdf-syntax-ns#" xmlns="http://www.w3.org/2000/svg" height="500" width="433" version="1.1" xmlns:cc="http://creativecommons.org/ns#" xmlns:dc="http://purl.org/dc/elements/1.1/">
 <metadata>
  <rdf:RDF>
   <cc:Work rdf:about="">
    <dc:format>image/svg+xml</dc:format>
    <dc:type rdf:resource="http://purl.org/dc/dcmitype/StillImage"/>
    <dc:title/>
   </cc:Work>
  </rdf:RDF>
 </metadata>
 <path d="m15.242,203.46c20.358-46.08,15.829-86.15,69.758-101.51,22.5-74.286,86.36-56.857,131-74v265h-165c-8.752-34.36-15.791-83.11-35.758-89.49z" fill="#000"/>
 <path d="m46,292.95,326.79,0,8.3685,106.63-41.28,11.159c-9.3636,21.016-19.619,42.034-36.468,48.079l-93.836,28.421c-17.6-10.11-49.16-16.72-81.72-23.08-16.68-8.12-32.816-18.63-43.874-51.13l-34.765-12.52z" fill="#FFF"/>
 <path d="m160.29,335.44,13.21-23.57c30.172-4.0136,61.144-8.6438,80.357,1.4286,17.869,9.3675,24.337,27.747,10.714,42.857-16.545,18.352-42.162,18.072-65.357,25.714-14.627,4.8192-25.47,10.569-28.341,18.759-3.1736,9.0541,2.1408,20.083,12.984,23.741,32.108,10.831,57.738,4.2478,92.143-17.5l-13.929,30.357c-24.944,5.2331-46.396,7.1401-70,1.7857-16.097-3.6515-33.64-10.453-33.571-41.429,0.0449-20.399,23.164-30.433,60.714-38.571,19.058-4.1308,53.625-12.483,36.429-28.571-24.249-22.686-63.81-6.4649-95.357,5z" fill="#000"/>
 <path stroke-linejoin="round" d="m416.73,202.67c-20.357-46.071-15.071-86.148-69-101.51-22.5-74.286-86.357-56.857-131-74l-0.35714,265h165.36c8.7515-34.36,15.033-83.114,35-89.495z" stroke="#000" stroke-linecap="round" stroke-miterlimit="4" stroke-dasharray="none" stroke-width="2" fill="#0f47af"/>
 <path stroke-linejoin="miter" d="m147.37,476.88c-14.326-1.1952-31.339-13.122-41.824-22.957-10.924-10.247-14.371-25.232-20.275-38.724-17.621,1.6217-42.729,2.0919-43.682-12.663l-6.472-100.11c-0.99963-15.481,25.591-26.705,30.55-8.0602,7.0638,26.56,13.05,48.531,21.091,79.128,3.2829,12.492,0.90077,20.205-5.9685,23.398-7.3996,3.4388-18.548,8.2077-20.479-11.817-3.6305,0.9131-9.8679,11.302-2.0921,16.52,8.8185,5.9178,23.77,3.9488,37.029,1.4286,8.6569,21.442,9.5204,50.075,50.476,59.772,25.878,6.1274,52.588,5.4556,71.657,18.513,19.069-13.969,45.779-13.297,71.657-19.424,40.956-9.6975,41.819-38.331,50.476-59.772,13.259,2.5202,28.211,4.4892,37.029-1.4286,7.7758-5.2181,1.5384-15.606-2.0921-16.52-1.9308,20.024-13.08,15.255-20.479,11.817-6.8693-3.1923-9.2514-10.906-5.9685-23.398,8.0409-30.597,14.027-52.568,21.091-79.128,4.9586-18.644,31.549-7.4204,30.55,8.0602l-6.4688,100.18c-1.0309,15.965-26.061,14.285-43.682,12.663-5.9038,13.492-9.3506,28.477-20.275,38.724-10.485,9.8351-27.498,21.762-41.824,22.957-26.77,2.2334-49.989,8.2272-70.013,19.995-20.024-10.857-43.243-16.851-70.013-19.084z" stroke="#000" stroke-linecap="butt" stroke-miterlimit="4" stroke-dasharray="none" stroke-width="2" fill="#fcdd09"/>
 <path stroke-linejoin="round" d="m298.77,46.523c21.538,9.7461,36.97,19.282,49,55,20.423,5.9312,37.244,20.601,44.214,33.643,11.39,21.312,12.786,45.641,24.786,67.357l12-2c-11.888-13.375-17.272-48.878-29-69-10.539-18.08-23.046-33.913-47-34-3.9701-27.59-17.994-43.4-34-57-26.43-22.46-73.6-16.61-102.38-36.79-28.78,20.6-75.95,14.75-102.39,37.21-16.006,13.6-30.03,29.41-34,57-23.954,0.0867-36.461,15.92-47,34-11.728,20.122-17.112,55.625-29,69l12,2c11.999-21.71,13.396-46.04,24.786-67.35,6.97-13.05,23.791-27.72,44.214-33.65,12.03-35.718,27.462-45.254,49-55,30.038-13.592,58.259-7.3786,82.387-19.209,24.128,11.412,52.349,5.1985,82.387,18.791z" stroke="#000" stroke-linecap="round" stroke-miterlimit="4" stroke-dasharray="none" stroke-width="2" fill="#fcdd09"/>
 <path d="m167.25,75.445c-0.49331,2.5473-8.3786,5.0418-5.7143,4.6429,14.465-2.1657,14.752,1.0626,11.964,9.2857-0.75293,2.2211,0.67479,4.1534,1.9643,6.0714-3.1949,6.3843,2.7411,7.6958,4.1117,11.544-2.4586,4.7235,1.0531,9.4471,2.4955,14.171-8.587-6.9794-8.5251-3.0537-6.2512,3.6611-4.7852,1.1215-5.0751,4.8118-3.2131,9.7317-6.6664-0.30364-3.2862,7.8975-0.17857,14.464-3.2623,0.17234-7.7963-3.1094-6.8438-8.5834,2.0395-11.721,5.7549-21.749,2.3795-24.631-3.5691-3.0476-1.9478,4.818-1.4286,10-1.4117-1.5534-3.5751-2.9778-4.2352-1.4837-2.6214,5.9337,2.0227,8.0479,1.6754,13.947-1.6946-2.0486-3.3563-3.8675-4.5831-2.6418,0.39256,13.214,6.7207,14.286,9.4643,27.321-5.8065-4.1037-12.356-8.5027-16.429-19.464-1.1361,13.653,5.7582,14.823,1.25,22.679-4.3829-9.7439-10.856-7.6009-13.929-19.107-1.976,6.2334-1.0897,11.397-4.6429,15.893-1.0987-5.0479-1.9486-11.275-4.4643-11.25-2.6128,0.026-5.119,9.5732-8.0357,10.536,1.5731-5.5726,1.0295-11.965-1.7857-11.429-6.761,1.2883-4.5238,7.2024-6.7857,13.393-2.2999-4.8474-1.1904-10.036,1.25-15.357-1.9643,1.1117-3.9286,2.9122-5.8929,1.7857-0.47581-2.4393,4.6762-5.6403,6.0714-8.5714-0.39369-2.7611-5.875-1.3274-8.3929-1.9643,2.4464-1.606,9.1038-2.7626,13.75-3.9286-2.8178,0.46103-5.6355-2.4506-8.4533-4.6989,2.0696,0.0177,4.7093,0.6056,5.9272-0.22835,0.0674-1.2742-1.233-2.5485-3.5454-3.8228,4.389-3.106,8.3015-2.8763,12.227-2.738,0.47687-1.3488-2.0048-2.0662-3.41-3.415-0.41011-2.097,21.218-7.6765,18.147-9.9185-4.799-3.5036-18.365,5.2524-15.893-4.6429,0.64021-2.563,24.707,3.4454,22.5-8.0357-1.064-5.534-8.1128-6.7444-16.964-3.0357-13.511,5.3051-12.684-2.4984-12.477-6.1062,0.32072-5.5827,14.535-5.5286,18.587-10.896,4.3291-5.7333,30.164-5.1482,29.782-3.1764z" fill="#fcdd09"/>
 <path d="m74.214,117.77c2.5277,0.59686,4.5672,0.85719,7.5-0.53572,5.756-2.7337-4.8645,16.402,2.5,16.071,13.568-1.0365,20.296,0.44249,29.643,1.0714-0.99261,2.9427-6.6831,2.8176-10.179,4.1071-3.0784,1.1357,9.3931,3.5119,7.5,7.1429-4.9682,3.2246-11.008,5.0014-15.976,4.4166l-0.98841-4.9523c-2.7454,2.3967-9.0252,9.6349-7.8327,2.8513,0.30141-1.7147-4.9596,2.8858-7.3458,1.9701-0.98536-3.4194,0.23184-9.9416-2.8571-8.0357-4.0932,2.5255-10.001,11.689-11.786,7.3214-0.78094-1.9109-1.6408-3.576-4.4643-5.1786-2.2567-1.2809,5.6913-3.1663,7.8571-4.2857,7.1772-3.1285,1.8966-7.1224-1.6071-6.25-2.7003,0.67237-7.3994-0.24651-6.0714-2.5,2.9879-2.2024,2.3909-2.9762,2.1429-5.1786,1.5477-3.6303,8.0477,3.8816,10.893,1.6071,2.8338-1.68-2.243-10.425,1.0714-9.6428z" fill="#fcdd09"/>
 <path d="m43.857,172.41c4.9547-3.3801,11.77,8.1995,16.071,7.3214,18.471-3.7704,34.74-15.474,49.286-25.714,1.4362,6.4224,1.7922,13.728,8.2143,16.071-1.0049-5.535-1.3749-11.007,2.3214-16.071,1.369,4.3452-1.7144,12.277,3.2143,13.571,2.2162-6.1926,6.816-6.7801,7.8572-12.857,1.2764,4.2218,1.3666,10.421,3.9286,12.5,2.4339-4.6958,5.8848-4.8918,6.4286-10.536,10.431,6.5881,7.9166,11.735,14.643,15.357,0.21908-9.1452,2.5631-5.6476,1.9643-15.179,10.601,8.9926,0.82295,21.46,10.893,30,4.4468,3.7713,7.3449,24.123,14.821,26.071,10.235,2.667,8.8418-10.54,8.3929-16.786-6.0435-12.121-14.916-20.161-24.107-26.071,4.2426-1.9682,9.0575,0.0689,13.75,1.25-9.0463-10.283-3.3929-22.087,0.89286-33.75l9.2857-25.357c2.9717-8.115-11.691-47.476,2.6786-41.429,5.91-10.674-8.61-20.658-15.87-22.662,10.54-5.0454,18.758,6.9788,21.964,13.929,2.2619-2.2296,1.6667-8.9113,5.1786-12.679-1.0567,11.639,2.9216,14.532-2.5,22.143,3.0952-1.1543,6.1905-5.6382,9.2857-5.3571-5.4075,5.8195-4.5881,9.3841-8.75,15.536,2.8571-2.7574,5.5357-1.885,8.5714-4.1071-2.5833,5.0374-3.0224,11.3-8.5714,14.643,3.4395-1.2009,5.2111,0.18928,8.3929-0.71429-6.86,6.025-11.82,8.577-13.93,16.427l5.8928,0.71429c-5.1919,9.3635-17.203,19.628-15.179,26.786,7.0833-1.6055,10.06-12.534,16.071-14.643-5.4287,16.451-15.856,18.437-17.857,35,11.164-3.4011,6.0738-10.757,16.071-16.429-0.35697,19.451-17.854,19.853-15.357,31.429,7.1382-9.2951,14.668-7.6282,20.179-16.25-4.3326,14.486-13.623,11.341-16.38,21.668l8.1659-1.4889c-3.4934,6.7663-5.7107,13.573-1.9643,17.679,3.8881,4.2605,5.1191-7.6189,8.2143-8.2143-1.8086,10.363-2.8535,18.78-7.8571,26.786-3.113,4.9805-7.7381,6.8427-11.607,7.5-7.9859,1.3566-0.88344,13.234-0.35715,19.821,1.0526,13.174,11.766,7.9996,18.571,10-8.7812,7.6744-1.8833,10.525,0.89286,14.643-11.535-1.8986-2.6727,6.4018-3.2143,10-4.0344,1.1407-7.777,2.4273-2.4882,8.2297-3.3188-0.01-4.2362,5.226-4.8332,7.4846-2.381-3.8787-2.3478-8.4128-3.75-6.0714-1.7469,2.9169-2.7397,8.4798-5.7143,5.3571-2.6799-2.8133-4.1406-0.53043-7.1429-2.1429-0.53571-1.3274,3.9286-5.0671,5.5357-5,6.4528,0.26928,0.47247-4.65-1.6071-3.2143-5.1633,3.5646-12.523,13.38-16.786,10-1.071-3.7707-4.0706-2.2523-5.7143-4.1071-2.7216-3.0713,13.81-1.7675,13.214-4.8214-0.83084-3.2938-16.563,2.6209-14.643-2.1429,2.2154-0.97604,2.911-1.9379,2.6786-4.4643-0.47596-5.1732,12.629,3.5003,16.607,0.89286,1.4069-3.4819,5.9227-5.9619,2.5-11.071-3.7444-5.5898-6.7487-9.5098-11.607-11.071-7.7119-2.4788-9.8056-5.8005-10.357-11.964-2.619-1.3302-4.5238,6.9044-6.7857,6.6072-1.0219-10.865,2.3986-21.885,4.2857-32.5,3.844-13.935-3.5517-5.4473-4.6429-0.71428-1.0798,4.6835-1.6246,10.228-4.4643,11.429-6.4172,2.7141-13.909,4.3003-17.857,13.929-1.8518,4.5162,10.408,13.134,0.53572,27.321-2.4853-5.8467-7.7578-9.3017-10.714-7.5-2.3443,1.4286,2.3194,5.8724,3.0357,8.75-2.9755,0.90447-6.5318-7.8488-9.8214-6.7857-2.7367,0.88438,2.8501,9.9334,0.53571,11.071-4.4469-3.7196-9.2491-7.877-12.857-5.3572-2.0447,1.428,9.5327,11.055,3.3929,14.286-2.575-7.17-11.061-12.98-14.123-11.1-2.277,1.4-1.821,12.59-5.357,10.89-2.4201-1.1616-2.655-3.4767-6.0714-2.5-3.6204,1.0351,3.0212-4.4244,0.53571-7.3214-2.9361-3.4222-15.53,5.6515-15.179,1.9643,0.35779-3.7588-0.96649-3.6098-2.8571-6.6072-2.9-4.5976,6.4286-2.2569,9.6429-1.0714,10.67-0.0279,2.1881-2.4497,2.6786-3.75-7.6864-3.0189-7.3509-5.7835-5.7143-7.8572,2.0575-2.6069,3.2556,1.13,4.6429-3.0357,2.9916-8.9832,5.678,11.485,10.536,8.75,5.7556-3.2409,13.578-8.9339,18.75-13.036,4.903-3.2027,0.86805-13.387,3.2143-20.179-15.503,6.1713-22.067,2.9334-28.75-0.17857,9.0476-0.40435,16.478,0.96813,26.786-7.5,12.701-10.434,26.481-5.5612,40.357-2.5-6.1873,4.3636,1.3273,7.8369,4.8214-1.7857,1.3061-3.597-3.7157-6.5019-5.8928-8.3928-10.178-8.8398-12.938-19.418-18.214-31.429-4.6674,4.4282-13.083,7.0927-10.357,15-5.0081-2.7792-8.9374-3.6949-8.75,2.5-10.955-8.2179-7.9899,1.9137-9.2857,6.4286-13.218-9.528-12.851-5.0455-11.071,0.89286-4.2783-3.2672-8.3095-5.1678-11.964-5.5357-3.5054-0.35292-7.1121,15.357-10.536,13.571-2.262-1.1798-4.3775-1.8529-6.9643-1.25-2.884,0.67216,1.5157-3.6686,3.0357-5.7143,3.7474-5.0436-2.8816-4.477-5.8929-2.8571-3.9989,2.3512-9.6639,9.6045-10.714,5.5357-0.72763-2.8186-1.1573-4.299-3.75-6.25-2.2191-3.0923,8.0774-3.2554,12.321-4.2857,3.703-1.288,10.385-1.512,1.4286-7.3214-3.387-2.16-13.007-2.59-9.119-5.51,3.1656-2.3757,0.63274-4.1401,2.6786-5.5357z" fill="#fcdd09"/>
 <path stroke-linejoin="round" d="m71.893,110.98c9.3187-0.30974,7.5662,4.278,9.8214,6.9643-1.3455,3.4593-3.3139,2.44-6.0714,0.89286-0.17081-3.1674-2.1744-5.8554-3.75-7.8572z" stroke="#000" stroke-linecap="round" stroke-dasharray="none" stroke-miterlimit="4" stroke-width="1" fill="#da121a"/>
 <path stroke-linejoin="round" d="m52.39,130.59c5.1312-7.1521,7.6733-4.0827,11.151-4.5414,0.68603,2.8367-1.3545,3.9363-2.5092,5.6003-2.0658-1.6319-5.3211-1.3965-8.6415-1.059z" stroke="#000" stroke-linecap="round" fill="#da121a"/>
 <path stroke-linejoin="round" d="m59.733,155.78c-4.0155-7.8331-0.12345-8.691,1.0582-11.993,2.8365,0.68657,2.8818,3.0041,3.8339,4.7917-2.3957,1.0913-3.6745,4.0942-4.8921,7.2017z" stroke="#000" stroke-linecap="round" fill="#da121a"/>
 <path stroke-linejoin="round" d="m33.034,177.5c5.1312-7.1521,7.6733-4.0827,11.151-4.5414,0.68603,2.8367-1.3545,3.9363-2.5092,5.6003-2.0658-1.6319-5.3211-1.3965-8.6415-1.059z" stroke="#000" stroke-linecap="round" fill="#da121a"/>
 <path stroke-linejoin="round" d="m33.851,205.3c-1.0988-8.7335,2.8521-8.2106,5.0906-10.911,2.4315,1.614,1.6825,3.8077,1.9669,5.813-2.6244,0.2075-4.8518,2.5931-7.0575,5.0979z" stroke="#000" stroke-linecap="round" fill="#da121a"/>
 <path stroke-linejoin="round" d="m61.897,212.8c-8.0365-3.5911-5.5399-6.6976-6.6873-10.012,2.6412-1.2415,4.1281,0.53676,5.99,1.3339-1.184,2.3513-0.29994,5.4931,0.69725,8.6782z" stroke="#000" stroke-linecap="round" fill="#da121a"/>
 <path stroke-linejoin="round" d="m60.257,250.29c6.6052-5.8182,8.3938-2.2567,11.885-1.9233,0.03198,2.9183-2.2033,3.532-3.7019,4.8944-1.6469-2.0538-4.872-2.5549-8.1835-2.9711z" stroke="#000" stroke-linecap="round" fill="#da121a"/>
 <path stroke-linejoin="round" d="m56.579,275.1c-1.4173-8.6875,2.5502-8.3093,4.6885-11.09,2.4889,1.5241,1.8206,3.7436,2.178,5.7372-2.615,0.3033-4.7538,2.7687-6.8665,5.3524z" stroke="#000" stroke-linecap="round" fill="#da121a"/>
 <path stroke-linejoin="round" d="m83.158,286.56c-7.3979-4.77-4.4584-7.4613-5.0891-10.912,2.7991-0.82594,3.9987,1.1575,5.7179,2.2282-1.5274,2.1442-1.1308,5.3838-0.62887,8.6834z" stroke="#000" stroke-linecap="round" fill="#da121a"/>
 <path stroke-linejoin="round" d="m151.96,276.25c5.1312-7.1521,7.6733-4.0827,11.151-4.5414,0.68603,2.8367-1.3545,3.9363-2.5092,5.6003-2.0658-1.6319-5.3211-1.3965-8.6415-1.059z" stroke="#000" stroke-linecap="round" fill="#da121a"/>
 <path stroke-linejoin="round" d="m158.87,291.92c-0.97456-6.8861,0.43757-6.8184,3.3194-8.8178,2.4107-1.6725,4.4966,2.7234,3.4894,3.5707-2.0146,1.6947-4.7239,1.5695-6.8088,5.2471z" stroke="#000" stroke-linecap="round" fill="#da121a"/>
 <path stroke-linejoin="round" d="m180.42,292.23c-1.9206-6.6711,0.82967-7.1121,2.0315-8.906,1.4158-2.1132,6.3862,3.6598,4.4468,3.9883-2.8716,0.48638-4.8773,1.9892-6.4783,4.9177z" stroke="#000" stroke-linecap="round" fill="#da121a"/>
 <path d="m167.98,73.443c-0.85525-7.5201,7.6388-10.447,9.8858-13.674,3.3578-3.8716-2.7904-7.02-5.1697-1.1133-2.5426-5.4944-8.3057,0.24103-5.0015,1.6178-1.0549,2.0242-11.799,8.1707-13.346,1.4291-0.65672-1.3224-2.1262-2.6468,0.72654-3.2314,5.3429-1.095,2.4568-7.5755-1.9772-4.7107,0.0978-7.1651-8.6802-6.7205-6.1748,0.53135-5.7315-1.1709-4.6524,5.1278-1.6445,5.0472,2.7689-0.0742,3.8438,1.6875,3.2283,3.5104-0.82073,6.1291-10.67,6.6402-13.329,2.3843,5.0401-2.9232-1.528-8.546-4.0573-2.8683-4.1761-4.2626-9.8528,0.0121-5.4299,3.7551,5.489,3.7892,8.2138,6.4758,10.245,11.2,12.025-6.5402,20.643-5.3914,32.044-3.8768z" fill="#da121a"/>
 <path d="m138.84,82.366c3.2549-3.1031,8.3778-4.451,13.584-1.6774-1.411,4.4055-9.5262,9.5288-11.925,5.3841-0.84058-2.0436,3.4481-0.81795,3.2882-2.3827-0.2058-2.0144-3.6514-0.34507-4.9477-1.324z" fill="#000"/>
 <path stroke-linejoin="miter" d="m152.73,92.357c1.2784,2.165,1.0153,3.405,0.64032,4.5779m-31.386-6.3272c-0.27444,2.6367-1.1761,3.7753-2.721,2.2922m35.767,14.045c-1.1962,2.7013-2.4754,6.5262-2.3313,9.2276m18.223-31.315c-2.8478,0.51832-4.2814,2.1825-5.4834,5.1173" stroke="#000" stroke-linecap="round" stroke-miterlimit="4" stroke-dasharray="none" stroke-width="3" fill="none"/>
 <path stroke-linejoin="round" d="m80.286,98.303,4.464,3.39m267.77-4.1964-4.4643,3.3929m-131.25-96.786,0,24.286m176.79,364.89c-4.77-25.68-38.19-32.44-47.15-12.49m-305.45,14.31c4.7641-25.687,38.179-33.525,47.143-13.571" stroke="#000" stroke-linecap="round" stroke-miterlimit="4" stroke-dasharray="none" stroke-width="2" fill="none"/>
 <path stroke-linejoin="round" d="m331.12,182.77c-6.4436,4.1571-6.105,6.3739-11.786,8.4822-2.3002,0.94168-3.1814-4.175-5.3572-3.5714-2.7691-2.6859-4.8611,0.08-5.8036,2.1429,1.2914-0.33176,3.0114-2.0946,3.874-0.88662,1.3996,1.96,3.4542,1.1626,3.8045,4.1009-2.2808-0.0459-5.5866-0.63648-6.6964,0.98214-3.5218,1.1079-1.665,2.4886-1.1607,4.2857,0.38145-1.795,0.98139-3.4954,2.3954-2.7943,1.1325,0.56146,3.3998,0.28623,4.926-0.15213-0.35114,0.91015-2.1888,2.0464-1.8695,3.0381,0.45329,1.4079-1.7339,2.3401,0.97665,4.5512,0.5484-1.3007-0.85682-2.9445,0.97515-3.6166,1.6559-0.60746,0.91826-2.9073,4.4713-3.2584,2.7178-0.26863,3.2069,1.3698,5.2107,1.4705,1.3979,0.0702,0.71986,1.6002,0.68218,2.6367,2.1312-2.4655,1.5883-3.368,0.26786-4.375-0.20834-1.6496-3.006-1.9162-4.6429-1.9643,4.1836-2.5638,9.0201-5.2908,11.429-7.4107-0.41977-1.4534-0.20228-3.9264-1.6964-3.6607z" stroke="#000" stroke-linecap="round" stroke-miterlimit="4" stroke-dasharray="none" stroke-width="1" fill="#da121a"/>
 <path stroke-linejoin="round" d="m359.22,182.43c6.4436,4.1571,6.105,6.3739,11.786,8.4822,2.3002,0.94168,3.1814-4.175,5.3572-3.5714,2.7691-2.6859,4.8611,0.08,5.8036,2.1429-1.2914-0.33176-3.0114-2.0946-3.874-0.88662-1.3996,1.96-3.4542,1.1626-3.8045,4.1009,2.2808-0.0459,5.5866-0.63648,6.6964,0.98214,3.5218,1.1079,1.665,2.4886,1.1607,4.2857-0.38145-1.795-0.98139-3.4954-2.3954-2.7943-1.1325,0.56146-3.3998,0.28623-4.926-0.15213,0.35114,0.91015,2.1888,2.0464,1.8695,3.0381-0.45329,1.4079,1.7339,2.3401-0.97665,4.5512-0.5484-1.3007,0.85682-2.9445-0.97515-3.6166-1.6559-0.60746-0.91826-2.9073-4.4713-3.2584-2.7178-0.26863-3.2069,1.3698-5.2107,1.4705-1.3979,0.0702-0.71986,1.6002-0.68218,2.6367-2.1312-2.4655-1.5883-3.368-0.26786-4.375,0.20834-1.6496,3.006-1.9162,4.6429-1.9643-4.1836-2.5638-9.0201-5.2908-11.429-7.4107,0.41977-1.4534,0.20228-3.9264,1.6964-3.6607z" stroke="#000" stroke-linecap="round" stroke-miterlimit="4" stroke-dasharray="none" stroke-width="1" fill="#da121a"/>
 <path stroke-linejoin="round" d="m357.82,139.29c-1.4094,3.8395-7.4202,13.111,5.7143,8.2143,3.9448-1.4708,7.6866-5.1472,5.5218-11.389-3.6693-10.58-0.17289-9.1932,5.6542-12.94,3.7244-2.395,14.336-1.3705,1.0894,4.1811,2.2849,0.65392,5.2951,3.1079,10.696,0.64558-0.62322,7.4937-8.1158,3.6329-11.894,5.4475,5.8049,0.50643,13.096,1.652,15.718,0.24882,0.488,8.747-9.4451,4.7571-14.398,6.8544,6.0228,2.6708,12.273,5.039,16.645,5.1659-2.1413,6.9504-11.829,2.8031-16.014,1.1327,3.7713,3.1354,9.4663,5.7614,17.738,7.388-3.3875,6.8328-9.2409,4.5229-14.329,3.265,3.7914,4.0959,6.023,7.4526,13.092,11.847-3.9304,6.3001-10.802-2.3444-15.949-5.7756,2.4733,5.5664,6.4302,10.375,12.23,15.941-5.9388,7.3657-13.904-6.8744-20.444-12.727-0.88898,3.2696,0.82993,6.5392,3.283,9.8087-5.8633,5.1779-10.394-7.639-11.667-13.68-1.0062,1.197-0.41846,6.6592,1.3643,11.174-10.457,1.594-9.1945-7.2348-8.3271-12.935-3.5586,12.674,4.2659,14.623,9.6144,22.418-5.8386-1.0068-4.9097,1.1845-5.5247,4.9274-2.7678-0.76372-4.8428-6.3769-6.9574-11.713-3.3475,12.975,0.90893,15.52,11.62,16.786-3.0796,4.5238-7.6327,4.6272-13.406,1.0714-0.075,5.2756,4.065,8.8008,10.714,9.1071,4.4597,0.80339,8.8388,2.8971,9.347,5.6762,1.5752,5.4857-0.91702,6.7982-3.1097,7.2602,0.34352-10.385-10.29-5.1127-16.594-10.258-1.0007,3.59,5.3668,6.8806,5.3571,11.964-3.8095-1.1474-5.4762-6.2008-7.6786-4.1072-0.74653,3.497-0.0411,6.7773-1.6395,7.5866-1.5984-0.63612-0.89295-3.9165-1.6395-7.4135-2.2024-2.0937-3.869,2.9598-7.6786,4.1072-0.01-5.0837,6.3578-8.3742,5.3571-11.964-6.3046,5.1451-16.938-0.12672-16.594,10.258-2.1927-0.46192-4.6849-1.7744-3.1097-7.2602,0.50817-2.7792,4.8873-4.8728,9.347-5.6762,6.6492-0.30632,10.789-3.8315,10.714-9.1071-5.7728,3.5558-10.326,3.4523-13.406-1.0714,10.711-1.2657,14.967-3.8103,11.62-16.786-2.1146,5.3362-4.1896,10.949-6.9574,11.713-0.61498-3.7429,0.31396-5.9342-5.5247-4.9274,5.3486-7.7945,13.173-9.7437,9.6144-22.418,0.86739,5.7004,2.13,14.529-8.3271,12.935,2.8542-4.5151,3.9866-6.8206,2.0876-8.0175-2.283,4.6518-6.5269,15.701-12.39,10.523,2.4531-3.2696,4.172-6.5392,3.283-9.8087-6.5396,5.8527-14.505,20.093-20.444,12.727,5.7993-5.5664,9.7562-10.375,12.23-15.941-5.1468,3.4312-12.018,12.076-15.949,5.7756,7.0688-4.3944,9.3004-7.7511,13.092-11.847-5.0882,1.2579-10.942,3.5678-14.329-3.265,8.272-1.6266,14.521-5.3763,18.418-7.6278-4.3108-0.34993-14.174,5.4262-16.694-0.89286,4.3721-0.12692,10.98-2.138,17.002-4.8087-4.9527-2.0973-15.243,1.5354-14.755-7.2116,2.6222,1.4032,10.353,0.38388,16.158-0.12255-3.7783-1.8146-11.711,1.92-12.334-5.5738,5.4012,2.4624,8.6206,0.33485,10.906-0.31907-13.247-5.5516-2.8443-6.9026,0.88017-4.5076,5.8271,3.747,9.3235,2.3607,5.6542,12.94-2.1648,6.2416,3.7199,9.5608,7.6647,11.032,4.8427,1.8056,8.732,0.69985,10.333-4.7593,1.1428-3.8958,9.3151-3.9419,10.424-7.2663,1.674-5.0177-4.1509-11.517-5.285-13.775,0.64366-12.117,10.23,0.43861,16.021-2.2294-1.7489,5.2347,0.0985,11.948-2.8571,20" stroke="#000" stroke-linecap="round" stroke-width="1px" fill="#FFF"/>
 <path d="m352.61,122.8c-0.41993,0.6089-1.583,0.53515-2.5979-0.16477s-1.4971-1.7608-1.0771-2.3698c0.41993-0.60891,1.5831-0.53516,2.5978,0.1647,1.0149,0.69991,1.4972,1.7609,1.0772,2.3698z" fill="#000"/>
 <path stroke-linejoin="round" d="m336.96,161.52c-4.192,10.975-7.9199,5.0696-6.5982-5.8839-3.2924,7.4077-10.05,11.592-6.324-2.2691-5.7845,11.653-12.735,4.6899-4.338-1.921-5.1361,4.265-12.018-0.0918-3.1314-5.2525-7.3683,2.4064-6.2213-2.9402-1.0498-5.2309-8.0307-3.0775-3.2558-5.1441,1.1671-7.2385-3.3026-1.2948-6.0952-2.3694-1.764-5.6556" stroke="#000" stroke-linecap="round" stroke-width="1px" fill="none"/>
 <path stroke-linejoin="round" d="m353.59,161.33c4.192,10.975,8.0985,4.8911,6.7767-6.0625,3.2924,7.4077,10.05,11.592,6.324-2.2691,5.7845,11.653,12.735,4.6899,4.338-1.921,5.1361,4.265,12.018-0.0918,3.1314-5.2525,7.3683,2.4064,6.2213-2.9402,1.0498-5.2309,8.0307-3.0775,3.2558-5.1441-1.1671-7.2385,3.3026-1.2948,6.1845-2.7266,1.8533-6.0128" stroke="#000" stroke-linecap="round" stroke-width="1px" fill="none"/>
 <path stroke-linejoin="miter" d="m337.28,130.36c0.30225-3.4714-1.054-9.8384,7.3214-9.2857,2.4467,2.6711,5.3588,4.7838,5.5357,10.179-2.4614,2.9326-8.1131,2.3781-11.071-0.17857,3.9276,0.2806,8.7232-1.65,6.6071-3.9286-4.2899-4.6196-6.2507,1.8186-8.3929,3.2143z" stroke="#000" stroke-linecap="butt" stroke-miterlimit="4" stroke-dasharray="none" stroke-width="1" fill="#da121a"/>
 <path stroke-linejoin="round" d="m253.26,251.7c-6.4436,4.1571-6.105,6.3739-11.786,8.4822-2.3002,0.94168-3.1814-4.175-5.3572-3.5714-2.7691-2.6859-4.8611,0.08-5.8036,2.1429,1.2914-0.33176,3.0114-2.0946,3.874-0.88662,1.3996,1.96,3.4542,1.1626,3.8045,4.1009-2.2808-0.0459-5.5866-0.63648-6.6964,0.98214-3.5218,1.1079-1.665,2.4886-1.1607,4.2857,0.38145-1.795,0.98139-3.4954,2.3954-2.7943,1.1325,0.56146,3.3998,0.28623,4.926-0.15213-0.35114,0.91015-2.1888,2.0464-1.8695,3.0381,0.45329,1.4079-1.7339,2.3401,0.97665,4.5512,0.5484-1.3007-0.85682-2.9445,0.97515-3.6166,1.6559-0.60746,0.91826-2.9073,4.4713-3.2584,2.7178-0.26863,3.2069,1.3698,5.2107,1.4705,1.3979,0.0702,0.71986,1.6002,0.68218,2.6367,2.1312-2.4655,1.5883-3.368,0.26786-4.375-0.20834-1.6496-3.006-1.9162-4.6429-1.9643,4.1836-2.5638,9.0201-5.2908,11.429-7.4107-0.41977-1.4534-0.20228-3.9264-1.6964-3.6607z" stroke="#000" stroke-linecap="round" stroke-miterlimit="4" stroke-dasharray="none" stroke-width="1" fill="#da121a"/>
 <path stroke-linejoin="round" d="m281.37,251.35c6.4436,4.1571,6.105,6.3739,11.786,8.4822,2.3002,0.94168,3.1814-4.175,5.3572-3.5714,2.7691-2.6859,4.8611,0.08,5.8036,2.1429-1.2914-0.33176-3.0114-2.0946-3.874-0.88662-1.3996,1.96-3.4542,1.1626-3.8045,4.1009,2.2808-0.0459,5.5866-0.63648,6.6964,0.98214,3.5218,1.1079,1.665,2.4886,1.1607,4.2857-0.38145-1.795-0.98139-3.4954-2.3954-2.7943-1.1325,0.56146-3.3998,0.28623-4.926-0.15213,0.35114,0.91015,2.1888,2.0464,1.8695,3.0381-0.45329,1.4079,1.7339,2.3401-0.97665,4.5512-0.5484-1.3007,0.85682-2.9445-0.97515-3.6166-1.6559-0.60746-0.91826-2.9073-4.4713-3.2584-2.7178-0.26863-3.2069,1.3698-5.2107,1.4705-1.3979,0.0702-0.71986,1.6002-0.68218,2.6367-2.1312-2.4655-1.5883-3.368-0.26786-4.375,0.20834-1.6496,3.006-1.9162,4.6429-1.9643-4.1836-2.5638-9.0201-5.2908-11.429-7.4107,0.41977-1.4534,0.20228-3.9264,1.6964-3.6607z" stroke="#000" stroke-linecap="round" stroke-miterlimit="4" stroke-dasharray="none" stroke-width="1" fill="#da121a"/>
 <path stroke-linejoin="round" d="m279.96,208.22c-1.4094,3.8395-7.4202,13.111,5.7143,8.2143,3.9448-1.4708,7.6866-5.1472,5.5218-11.389-3.6693-10.58-0.17289-9.1932,5.6542-12.94,3.7244-2.395,14.336-1.3705,1.0894,4.1811,2.2849,0.65392,5.2951,3.1079,10.696,0.64558-0.62322,7.4937-8.1158,3.6329-11.894,5.4475,5.8049,0.50643,13.096,1.652,15.718,0.24882,0.488,8.747-9.4451,4.7571-14.398,6.8544,6.0228,2.6708,12.273,5.039,16.645,5.1659-2.1413,6.9504-11.829,2.8031-16.014,1.1327,3.7713,3.1354,9.4663,5.7614,17.738,7.388-3.3875,6.8328-9.2409,4.5229-14.329,3.265,3.7914,4.0959,6.023,7.4526,13.092,11.847-3.9304,6.3001-10.802-2.3444-15.949-5.7756,2.4733,5.5664,6.4302,10.375,12.23,15.941-5.9388,7.3657-13.904-6.8744-20.444-12.727-0.88898,3.2696,0.82993,6.5392,3.283,9.8087-5.8633,5.1779-10.394-7.639-11.667-13.68-1.0062,1.197-0.41846,6.6592,1.3643,11.174-10.457,1.594-9.1945-7.2348-8.3271-12.935-3.5586,12.674,4.2659,14.623,9.6144,22.418-5.8386-1.0068-4.9097,1.1845-5.5247,4.9274-2.7678-0.76372-4.8428-6.3769-6.9574-11.713-3.3475,12.975,0.90893,15.52,11.62,16.786-3.0796,4.5238-7.6327,4.6272-13.406,1.0714-0.075,5.2756,4.065,8.8008,10.714,9.1071,4.4597,0.80339,8.8388,2.8971,9.347,5.6762,1.5752,5.4857-0.91702,6.7982-3.1097,7.2602,0.34352-10.385-10.29-5.1127-16.594-10.258-1.0007,3.59,5.3668,6.8806,5.3571,11.964-3.8095-1.1474-5.4762-6.2008-7.6786-4.1072-0.74653,3.497-0.0411,6.7773-1.6395,7.5866-1.5984-0.63612-0.89295-3.9165-1.6395-7.4135-2.2024-2.0937-3.869,2.9598-7.6786,4.1072-0.01-5.0837,6.3578-8.3742,5.3571-11.964-6.3046,5.1451-16.938-0.12672-16.594,10.258-2.1927-0.46192-4.6849-1.7744-3.1097-7.2602,0.50817-2.7792,4.8873-4.8728,9.347-5.6762,6.6492-0.30632,10.789-3.8315,10.714-9.1071-5.7728,3.5558-10.326,3.4523-13.406-1.0714,10.711-1.2657,14.967-3.8103,11.62-16.786-2.1146,5.3362-4.1896,10.949-6.9574,11.713-0.61498-3.7429,0.31396-5.9342-5.5247-4.9274,5.3486-7.7945,13.173-9.7437,9.6144-22.418,0.86739,5.7004,2.13,14.529-8.3271,12.935,2.8542-4.5151,3.9866-6.8206,2.0876-8.0175-2.283,4.6518-6.5269,15.701-12.39,10.523,2.4531-3.2696,4.172-6.5392,3.283-9.8087-6.5396,5.8527-14.505,20.093-20.444,12.727,5.7993-5.5664,9.7562-10.375,12.23-15.941-5.1468,3.4312-12.018,12.076-15.949,5.7756,7.0688-4.3944,9.3004-7.7511,13.092-11.847-5.0882,1.2579-10.942,3.5678-14.329-3.265,8.272-1.6266,14.521-5.3763,18.418-7.6278-4.3108-0.34993-14.174,5.4262-16.694-0.89286,4.3721-0.12692,10.98-2.138,17.002-4.8087-4.9527-2.0973-15.243,1.5354-14.755-7.2116,2.6222,1.4032,10.353,0.38388,16.158-0.12255-3.7783-1.8146-11.711,1.92-12.334-5.5738,5.4012,2.4624,8.6206,0.33485,10.906-0.31907-13.247-5.5516-2.8443-6.9026,0.88017-4.5076,5.8271,3.747,9.3235,2.3607,5.6542,12.94-2.1648,6.2416,3.7199,9.5608,7.6647,11.032,4.8427,1.8056,8.732,0.69985,10.333-4.7593,1.1428-3.8958,9.3151-3.9419,10.424-7.2663,1.674-5.0177-4.1509-11.517-5.285-13.775,0.64366-12.117,10.23,0.43861,16.021-2.2294-1.7489,5.2347,0.0985,11.948-2.8571,20" stroke="#000" stroke-linecap="round" stroke-width="1px" fill="#FFF"/>
 <path d="m274.75,191.72c-0.41993,0.6089-1.583,0.53515-2.5979-0.16477s-1.4971-1.7608-1.0771-2.3698c0.41993-0.60891,1.5831-0.53516,2.5978,0.1647,1.0149,0.69991,1.4972,1.7609,1.0772,2.3698z" fill="#000"/>
 <path stroke-linejoin="round" d="m259.1,230.45c-4.192,10.975-7.9199,5.0696-6.5982-5.8839-3.2924,7.4077-10.05,11.592-6.324-2.2691-5.7845,11.653-12.735,4.6899-4.338-1.921-5.1361,4.265-12.018-0.0918-3.1314-5.2525-7.3683,2.4064-6.2213-2.9402-1.0498-5.2309-8.0307-3.0775-3.2558-5.1441,1.1671-7.2385-3.3026-1.2948-6.0952-2.3694-1.764-5.6556" stroke="#000" stroke-linecap="round" stroke-width="1px" fill="none"/>
 <path stroke-linejoin="round" d="m275.74,230.26c4.192,10.975,8.0985,4.8911,6.7767-6.0625,3.2924,7.4077,10.05,11.592,6.324-2.2691,5.7845,11.653,12.735,4.6899,4.338-1.921,5.1361,4.265,12.018-0.0918,3.1314-5.2525,7.3683,2.4064,6.2213-2.9402,1.0498-5.2309,8.0307-3.0775,3.2558-5.1441-1.1671-7.2385,3.3026-1.2948,6.1845-2.7266,1.8533-6.0128" stroke="#000" stroke-linecap="round" stroke-width="1px" fill="none"/>
 <path stroke-linejoin="miter" d="m259.43,199.29c0.30225-3.4714-1.054-9.8384,7.3214-9.2857,2.4467,2.6711,5.3588,4.7838,5.5357,10.179-2.4614,2.9326-8.1131,2.3781-11.071-0.17857,3.9276,0.2806,8.7232-1.65,6.6071-3.9286-4.2899-4.6196-6.2507,1.8186-8.3929,3.2143z" stroke="#000" stroke-linecap="butt" stroke-miterlimit="4" stroke-dasharray="none" stroke-width="1" fill="#da121a"/>
 <path stroke-linejoin="round" d="m253.26,112.06c-6.4436,4.1571-6.105,6.3739-11.786,8.4822-2.3002,0.94168-3.1814-4.175-5.3572-3.5714-2.7691-2.6859-4.8611,0.08-5.8036,2.1429,1.2914-0.33176,3.0114-2.0946,3.874-0.88662,1.3996,1.96,3.4542,1.1626,3.8045,4.1009-2.2808-0.0459-5.5866-0.63648-6.6964,0.98214-3.5218,1.1079-1.665,2.4886-1.1607,4.2857,0.38145-1.795,0.98139-3.4954,2.3954-2.7943,1.1325,0.56146,3.3998,0.28623,4.926-0.15213-0.35114,0.91015-2.1888,2.0464-1.8695,3.0381,0.45329,1.4079-1.7339,2.3401,0.97665,4.5512,0.5484-1.3007-0.85682-2.9445,0.97515-3.6166,1.6559-0.60746,0.91826-2.9073,4.4713-3.2584,2.7178-0.26863,3.2069,1.3698,5.2107,1.4705,1.3979,0.0702,0.71986,1.6002,0.68218,2.6367,2.1312-2.4655,1.5883-3.368,0.26786-4.375-0.20834-1.6496-3.006-1.9162-4.6429-1.9643,4.1836-2.5638,9.0201-5.2908,11.429-7.4107-0.41977-1.4534-0.20228-3.9264-1.6964-3.6607z" stroke="#000" stroke-linecap="round" stroke-miterlimit="4" stroke-dasharray="none" stroke-width="1" fill="#da121a"/>
 <path stroke-linejoin="round" d="m281.37,111.71c6.4436,4.1571,6.105,6.3739,11.786,8.4822,2.3002,0.94168,3.1814-4.175,5.3572-3.5714,2.7691-2.6859,4.8611,0.08,5.8036,2.1429-1.2914-0.33176-3.0114-2.0946-3.874-0.88662-1.3996,1.96-3.4542,1.1626-3.8045,4.1009,2.2808-0.0459,5.5866-0.63648,6.6964,0.98214,3.5218,1.1079,1.665,2.4886,1.1607,4.2857-0.38145-1.795-0.98139-3.4954-2.3954-2.7943-1.1325,0.56146-3.3998,0.28623-4.926-0.15213,0.35114,0.91015,2.1888,2.0464,1.8695,3.0381-0.45329,1.4079,1.7339,2.3401-0.97665,4.5512-0.5484-1.3007,0.85682-2.9445-0.97515-3.6166-1.6559-0.60746-0.91826-2.9073-4.4713-3.2584-2.7178-0.26863-3.2069,1.3698-5.2107,1.4705-1.3979,0.0702-0.71986,1.6002-0.68218,2.6367-2.1312-2.4655-1.5883-3.368-0.26786-4.375,0.20834-1.6496,3.006-1.9162,4.6429-1.9643-4.1836-2.5638-9.0201-5.2908-11.429-7.4107,0.41977-1.4534,0.20228-3.9264,1.6964-3.6607z" stroke="#000" stroke-linecap="round" stroke-miterlimit="4" stroke-dasharray="none" stroke-width="1" fill="#da121a"/>
 <path stroke-linejoin="round" d="m279.96,68.583c-1.4094,3.8395-7.4202,13.111,5.7143,8.2143,3.9448-1.4708,7.6866-5.1472,5.5218-11.389-3.6693-10.58-0.17289-9.1932,5.6542-12.94,3.7244-2.395,14.336-1.3705,1.0894,4.1811,2.2849,0.65392,5.2951,3.1079,10.696,0.64558-0.62322,7.4937-8.1158,3.6329-11.894,5.4475,5.8049,0.50643,13.096,1.652,15.718,0.24882,0.488,8.747-9.4451,4.7571-14.398,6.8544,6.0228,2.6708,12.273,5.039,16.645,5.1659-2.1413,6.9504-11.829,2.8031-16.014,1.1327,3.7713,3.1354,9.4663,5.7614,17.738,7.388-3.3875,6.8328-9.2409,4.5229-14.329,3.265,3.7914,4.0959,6.023,7.4526,13.092,11.847-3.9304,6.3001-10.802-2.3444-15.949-5.7756,2.4733,5.5664,6.4302,10.375,12.23,15.941-5.9388,7.3657-13.904-6.8744-20.444-12.727-0.88898,3.2696,0.82993,6.5392,3.283,9.8087-5.8633,5.1779-10.394-7.639-11.667-13.68-1.0062,1.197-0.41846,6.6592,1.3643,11.174-10.457,1.594-9.1945-7.2348-8.3271-12.935-3.5586,12.674,4.2659,14.623,9.6144,22.418-5.8386-1.0068-4.9097,1.1845-5.5247,4.9274-2.7678-0.76372-4.8428-6.3769-6.9574-11.713-3.3475,12.975,0.90893,15.52,11.62,16.786-3.0796,4.5238-7.6327,4.6272-13.406,1.0714-0.075,5.2756,4.065,8.8008,10.714,9.1071,4.4597,0.80339,8.8388,2.8971,9.347,5.6762,1.5752,5.4857-0.91702,6.7982-3.1097,7.2602,0.34352-10.385-10.29-5.1127-16.594-10.258-1.0007,3.59,5.3668,6.8806,5.3571,11.964-3.8095-1.1474-5.4762-6.2008-7.6786-4.1072-0.74653,3.497-0.0411,6.7773-1.6395,7.5866-1.5984-0.63612-0.89295-3.9165-1.6395-7.4135-2.2024-2.0937-3.869,2.9598-7.6786,4.1072-0.01-5.0837,6.3578-8.3742,5.3571-11.964-6.3046,5.1451-16.938-0.12672-16.594,10.258-2.1927-0.46192-4.6849-1.7744-3.1097-7.2602,0.50817-2.7792,4.8873-4.8728,9.347-5.6762,6.6492-0.30632,10.789-3.8315,10.714-9.1071-5.7728,3.5558-10.326,3.4523-13.406-1.0714,10.711-1.2657,14.967-3.8103,11.62-16.786-2.1146,5.3362-4.1896,10.949-6.9574,11.713-0.61498-3.7429,0.31396-5.9342-5.5247-4.9274,5.3486-7.7945,13.173-9.7437,9.6144-22.418,0.86739,5.7004,2.13,14.529-8.3271,12.935,2.8542-4.5151,3.9866-6.8206,2.0876-8.0175-2.283,4.6518-6.5269,15.701-12.39,10.523,2.4531-3.2696,4.172-6.5392,3.283-9.8087-6.5396,5.8527-14.505,20.093-20.444,12.727,5.7993-5.5664,9.7562-10.375,12.23-15.941-5.1468,3.4312-12.018,12.076-15.949,5.7756,7.0688-4.3944,9.3004-7.7511,13.092-11.847-5.0882,1.2579-10.942,3.5678-14.329-3.265,8.272-1.6266,14.521-5.3763,18.418-7.6278-4.3108-0.34993-14.174,5.4262-16.694-0.89286,4.3721-0.12692,10.98-2.138,17.002-4.8087-4.9527-2.0973-15.243,1.5354-14.755-7.2116,2.6222,1.4032,10.353,0.38388,16.158-0.12255-3.7783-1.8146-11.711,1.92-12.334-5.5738,5.4012,2.4624,8.6206,0.33485,10.906-0.31907-13.247-5.5516-2.8443-6.9026,0.88017-4.5076,5.8271,3.747,9.3235,2.3607,5.6542,12.94-2.1648,6.2416,3.7199,9.5608,7.6647,11.032,4.8427,1.8056,8.732,0.69985,10.333-4.7593,1.1428-3.8958,9.3151-3.9419,10.424-7.2663,1.674-5.0177-4.1509-11.517-5.285-13.775,0.64366-12.117,10.23,0.43861,16.021-2.2294-1.7489,5.2347,0.0985,11.948-2.8571,20" stroke="#000" stroke-linecap="round" stroke-width="1px" fill="#FFF"/>
 <path d="m274.75,52.081c-0.41993,0.60891-1.583,0.53515-2.5979-0.16476-1.0149-0.69992-1.4971-1.7609-1.0771-2.3698,0.41993-0.60891,1.5831-0.53515,2.5978,0.16471,1.0149,0.6999,1.4972,1.7609,1.0772,2.3698z" fill="#000"/>
 <path stroke-linejoin="round" d="m259.1,90.813c-4.192,10.975-7.9199,5.0696-6.5982-5.8839-3.2924,7.4077-10.05,11.592-6.324-2.2691-5.7845,11.653-12.735,4.6899-4.338-1.921-5.1361,4.265-12.018-0.0918-3.1314-5.2525-7.3683,2.4064-6.2213-2.9402-1.0498-5.2309-8.0307-3.0775-3.2558-5.1441,1.1671-7.2385-3.3026-1.2948-6.0952-2.3694-1.764-5.6556" stroke="#000" stroke-linecap="round" stroke-width="1px" fill="none"/>
 <path stroke-linejoin="round" d="m275.74,90.623c4.192,10.975,8.0985,4.8911,6.7767-6.0625,3.2924,7.4077,10.05,11.592,6.324-2.2691,5.7845,11.653,12.735,4.6899,4.338-1.921,5.1361,4.265,12.018-0.0918,3.1314-5.2525,7.3683,2.4064,6.2213-2.9402,1.0498-5.2309,8.0307-3.0775,3.2558-5.1441-1.1671-7.2385,3.3026-1.2948,6.1845-2.7266,1.8533-6.0128" stroke="#000" stroke-linecap="round" stroke-width="1px" fill="none"/>
 <path stroke-linejoin="miter" d="m259.43,59.653c0.30225-3.4714-1.054-9.8384,7.3214-9.2857,2.4467,2.6711,5.3588,4.7838,5.5357,10.179-2.4614,2.9326-8.1131,2.3781-11.071-0.17857,3.9276,0.2806,8.7232-1.65,6.6071-3.9286-4.2899-4.6196-6.2507,1.8186-8.3929,3.2143z" stroke="#000" stroke-linecap="butt" stroke-miterlimit="4" stroke-dasharray="none" stroke-width="1" fill="#da121a"/>
 <path d="m126.01,101.27c0.59343-1.2513-0.0879-2.1177,1.8224-3.6982-1.7316,0.48826-2.6134,0.60098-3.9959,0.39088,0.4078,1.208,0.73968,2.4413,2.1735,3.3073z" fill="#FFF"/>
 <path d="m131.14,100.28c1.3424-0.39875,0.64923-2.0463,0.96279-4.0088-1.5815,0.8578-2.4168,1.162-3.8116,1.2617,0.66394,1.0885,1.7664,3.0686,2.8488,2.7471z" fill="#FFF"/>
 <path d="m135.21,98.783c1.3424-0.39875,0.64923-2.0463,0.96279-4.0088-1.5815,0.8578-2.4168,1.162-3.8116,1.2617,0.66394,1.0885,1.7664,3.0686,2.8488,2.7471z" fill="#FFF"/>
 <path d="m128.49,102.23c0.59343,1.2513-0.55606,1.7431,1.3542,3.3236-1.2635-0.20736-2.1453-0.22644-3.5277-0.0164,0.4078-1.208,0.73968-2.4413,2.1735-3.3073z" fill="#FFF"/>
 <path d="m132.09,102.15c1.3979-0.0836,1.3089,1.7016,2.2737,3.4392-1.7794,0.095-2.6683-0.15904-4.0133,0.11551,0.25241-1.2497,0.61252-3.4873,1.7396-3.5547z" fill="#FFF"/>
 <path d="m136.25,102.04c1.3979-0.0836,1.3089,1.7016,2.2737,3.4392-1.7794,0.12767-2.6683-0.21277-4.0133,0.11551,0.25241-1.2497,0.61252-3.4873,1.7396-3.5547z" fill="#FFF"/>
 <path d="m113.64,95.803c2.8845,2.8026,5.7174,4.6017,10.028,4.9086,6.5341,0.46524,14.285-0.8235,21.201-0.45055,1.5836,0.0854,4.2127,2.3374,0.34734,2.3772-8.2797,0.0853-16.463,0.67129-24.713,1.5317-11.24,1.5678-8.8103-10.259-6.8633-8.3669z" fill="#da121a"/>
</svg>
