<?xml version="1.0" encoding="UTF-8" standalone="no"?>
<svg
   xmlns:dc="http://purl.org/dc/elements/1.1/"
   xmlns:cc="http://creativecommons.org/ns#"
   xmlns:rdf="http://www.w3.org/1999/02/22-rdf-syntax-ns#"
   xmlns:svg="http://www.w3.org/2000/svg"
   xmlns="http://www.w3.org/2000/svg"
   xmlns:sodipodi="http://sodipodi.sourceforge.net/DTD/sodipodi-0.dtd"
   xmlns:inkscape="http://www.inkscape.org/namespaces/inkscape"
   version="1.1"
   viewBox="0 0 620 764"
   xml:space="preserve"
   id="svg34"
   sodipodi:docname="CHE Provence COA.svg"
   inkscape:version="0.92.3 (2405546, 2018-03-11)"><metadata
     id="metadata40"><rdf:RDF><cc:Work
         rdf:about=""><dc:format>image/svg+xml</dc:format><dc:type
           rdf:resource="http://purl.org/dc/dcmitype/StillImage" /></cc:Work></rdf:RDF></metadata><defs
     id="defs38" /><sodipodi:namedview
     pagecolor="#ffffff"
     bordercolor="#666666"
     borderopacity="1"
     objecttolerance="10"
     gridtolerance="10"
     guidetolerance="10"
     inkscape:pageopacity="0"
     inkscape:pageshadow="2"
     inkscape:window-width="1920"
     inkscape:window-height="1017"
     id="namedview36"
     showgrid="false"
     inkscape:zoom="1.481199"
     inkscape:cx="310"
     inkscape:cy="382"
     inkscape:window-x="-8"
     inkscape:window-y="-8"
     inkscape:window-maximized="1"
     inkscape:current-layer="g32" /><g
     transform="matrix(1.1918,0,0,1.1918,-3.383,-3.76)"
     id="g4"><path
       d="m513.23 280.14 1.4394-266.69h-503.44l1.4394 266.69c3.4873 142.43 78.195 278.99 250.28 353.54 172.09-74.554 246.79-211.11 250.28-353.54z"
       fill="#fff"
       stroke="#000"
       stroke-linecap="square"
       stroke-miterlimit="30"
       stroke-width="7"
       id="path2" /></g><g
     id="g32"
     style="stroke:#000000"><path
       d="m 110,12.27 v 592.11 c 27.196,33.641 60.369,64.623 100,92 V 12.27 Z m 200,0 v 739.19 c 37.085,-16.066 70.32,-34.579 100,-55.082 V 12.268 Z m 200,0 v 592.11 c 65.074,-80.497 95.88,-176.2 98.283,-274.27 h 0.002 l 1.7148,-317.84 z"
       stroke-miterlimit="30"
       id="path6"
       inkscape:connector-curvature="0"
       style="fill:#0093dd;stroke-width:3;stroke-linecap:square;stroke-miterlimit:30" /><path
       d="m 608.28,330.11 1.7155,-317.84 h -600 l 1.7155,317.84 c 4.1562,169.75 93.193,332.5 298.28,421.35 205.1,-88.853 294.12,-251.6 298.28,-421.35 z"
       stroke-miterlimit="30"
       id="path8"
       inkscape:connector-curvature="0"
       style="fill:none;stroke-width:8;stroke-linecap:square;stroke-miterlimit:30" /><path
       id="path2915"
       d="m 218.25283,221.8677 c -0.281,-1.23154 -0.281,-0.73893 0.84301,-2.70938 2.80996,-4.43352 10.67791,-16.99514 12.08291,-20.93603 l 1.12401,-2.70939 c -9.83497,1.72415 -17.42192,3.69461 -25.28986,9.85227 l -2.52898,2.21675 0.281,-3.9409 c 12.08291,-9.35964 28.09983,-20.19714 35.40576,-32.75875 0.84301,-1.72414 1.96701,-2.70938 3.37201,-4.18721 6.74394,-5.17244 14.33095,-3.9409 21.91781,-1.47784 l 21.07493,9.11334 c 12.92589,5.17244 25.00877,8.86702 39.05876,11.08378 3.93397,0.49262 5.05794,0.24632 8.42999,0.73893 14.04988,1.72414 25.57083,10.09856 36.81069,17.24144 -3.653,-9.11333 -4.49589,-10.83747 -10.9589,-18.22668 -1.68602,-1.47783 -1.68602,-2.46306 1.12398,-3.9409 1.68602,-0.98522 4.21493,-1.47783 6.18192,-1.97044 l 9.273,-1.47784 c -13.20697,-2.95568 -14.89287,-3.44829 -28.09986,-2.46306 -5.61987,0.4926 -12.36384,1.23152 -17.70288,-0.24631 8.43,-2.46306 18.26493,-5.91135 25.57083,-10.83749 l 12.92589,-8.62073 c -16.85986,6.89659 -25.85178,11.33011 -44.11671,13.30056 -5.90096,0.73891 -20.79384,1.47782 -26.13275,-1.47784 1.96699,-1.47785 5.90096,-1.72415 8.14891,-2.21676 13.48794,-2.46306 23.8848,-7.88181 32.03383,-17.48777 l 4.77699,-5.91135 c -15.45494,6.89659 -32.31492,15.51731 -49.73671,17.48776 -4.49602,0.49261 -9.55397,0.49261 -14.33096,0.24631 -2.24795,0 -3.653,-0.49262 -5.90095,-1.23153 -1.12398,-0.49261 -6.18192,-2.21675 -4.21494,-3.94091 1.40494,-1.47784 5.05794,-1.97045 6.18192,-2.46307 2.81,-0.98521 13.20686,-7.38918 16.29794,-9.11333 10.1159,-6.40397 29.22384,-20.44344 39.05865,-24.63065 5.33903,-2.21676 8.14902,-1.97045 13.76902,-2.95566 18.26481,-2.95568 35.9678,-9.35966 48.61261,-21.674977 l 10.67794,-10.837492 c -15.73589,9.85226 -25.28986,16.748849 -44.39767,20.936049 -8.14891,1.72414 -16.29794,2.46307 -24.72782,2.46307 3.6529,-6.65027 13.48795,-14.285774 18.54589,-21.428656 l 3.37193,-4.926136 c -9.83493,3.940904 -14.33083,5.665051 -22.1989,12.315323 -7.30589,6.403966 -14.04986,14.285779 -20.23178,21.428669 -6.18193,7.6355 -20.23191,16.99514 -29.22384,21.92126 -2.52903,1.47784 -13.20698,7.3892 -15.73589,7.88181 0,-3.4483 7.3059,-13.79316 9.27288,-16.74883 l 12.64494,-17.73407 -27.25685,28.07893 c -2.52892,2.46307 -14.61188,15.51731 -16.29788,16.50253 l -2.24798,0.98523 c -0.56201,-2.21677 1.96696,-8.62073 2.80997,-10.83748 l 5.62,-14.03947 c -17.70291,25.61587 -33.71983,50.24652 -62.38166,67.98058 l -2.52896,1.72415 0.84297,-1.23154 -11.23996,-1.97046 h 5.05801 c 0.56201,-14.53207 3.37195,-26.84738 12.3639,-39.40901 1.12401,-1.47785 6.46299,-7.88181 7.58699,-8.62074 l 12.0829,-4.18721 c 8.42995,-3.44829 17.9839,-7.63549 24.16585,-13.79315 l 7.30596,-7.38919 c -12.08292,5.91134 -18.54586,9.35964 -31.75282,12.56161 16.85993,-15.02468 50.57969,-45.320376 72.77859,-52.955869 l 10.67794,-4.18722 c 6.46289,-2.955673 28.94288,-12.561628 30.62878,-19.458205 l 0.28096,-3.694599 c -10.1159,5.911356 -19.38878,10.837492 -31.75274,13.054249 0.56204,-9.35965 4.4959,-17.241447 8.42999,-25.615866 -7.86795,4.679819 -12.64493,7.389187 -17.14095,15.270996 l -2.81,6.896576 c -0.28096,0.738916 -1.6859,1.724147 -2.24795,2.216757 l -21.35588,18.472986 c -1.68603,-9.605956 2.24794,-21.182353 5.05794,-30.542003 -6.46289,4.433514 -9.83493,6.403966 -12.08288,13.54686 -2.52903,6.896576 -2.24808,21.428656 -8.14897,26.108476 -6.46297,5.172442 -13.20692,11.083782 -18.82689,16.995142 -5.33897,-16.995142 -0.84297,-34.23659 6.46296,-50.246512 l 2.80999,-6.650271 c -8.42996,5.17244 -13.76891,8.374418 -18.26489,16.995143 -5.05799,9.35965 -5.33898,20.197131 -4.496,30.29569 -9.27292,-5.172434 -12.64491,-14.532074 -15.73589,-23.152797 l -4.21497,-11.576408 c 0.28099,7.389198 0.28099,18.472984 2.529,26.108477 4.49597,14.532078 16.85987,20.689748 17.98389,22.413898 1.40499,2.70936 0.56198,4.92612 -1.40501,7.14289 l -7.30596,5.17242 c -9.27292,6.65028 -16.85987,14.77839 -24.16584,22.90651 -12.92592,-7.14289 -24.72787,-16.00993 -35.12479,-25.61587 l -8.99196,-7.3892 c -9.27296,-8.62072 -16.85988,-18.472987 -21.35585,-29.803078 l -2.80999,-8.128114 c -1.12402,10.098566 -2.24799,14.53208 1.96698,24.138022 1.68599,3.6946 3.65297,7.3892 6.18195,10.8375 -14.04993,0.73892 -28.099834,-2.70938 -41.587735,-6.15766 7.867947,6.40397 10.677945,9.11333 21.074855,12.06901 7.02497,1.97046 12.08295,2.46306 19.38891,3.20198 9.27293,1.23154 17.14088,5.91136 23.88483,11.33009 -5.61994,0 -12.0829,0.49263 -17.42189,2.95569 l -5.33897,3.44829 c -9.55394,5.41874 -26.975818,10.59116 -37.372782,14.28577 8.710982,-0.49261 20.793872,-0.73892 29.504842,-2.70937 6.46297,-1.47785 9.55393,-2.95568 15.1739,-5.66505 11.52095,-5.17243 24.72787,-3.20198 34.0008,4.43351 2.80998,2.21676 8.42994,8.12812 9.27294,11.08381 3.09101,11.08378 -2.529,22.90649 -7.86795,32.75874 l -1.12401,0.2463 -7.02495,-4.18719 c -5.05796,-3.202 -7.86794,-7.1429 -11.5209,-11.57641 -0.84302,5.91136 -2.24801,12.80794 -0.84302,18.71929 l 0.56199,2.70936 c -9.27294,5.41875 -7.02494,7.63551 -9.83493,15.51732 -1.124,3.44828 -2.24797,4.1872 -5.33897,6.65027 -9.83494,7.8818 -23.32285,15.02468 -29.7858,23.89171 -1.686023,2.46307 -5.339007,4.92614 -6.743969,9.60597 -2.248011,6.89657 4.495959,13.05423 11.801919,13.79315 -0.28098,1.23153 0,2.21677 0.84301,2.95567 1.12398,0.98525 3.37196,1.72413 4.77696,1.23153 l 8.42996,-5.66504 2.80997,-2.46307 6.74395,-1.23154 c 3.93399,-0.98521 7.86797,-2.46305 11.52097,-4.18719 1.68597,-0.73893 10.95889,-0.98524 13.76891,-0.73893 3.37193,0.49261 6.18196,1.47784 6.46295,1.47784 h 0.84301 c -9.27297,20.68975 -15.73593,41.37948 -12.64496,63.79336 l 0.28101,3.6946 c -1.68598,1.72414 -1.96698,1.97042 -3.37198,4.1872 -7.30596,11.57643 -9.83495,24.38434 -10.11592,37.43858 0,14.03946 6.74395,24.87697 20.51283,32.26616 l 2.24801,1.23153 c 0,0.98521 0,0.73892 0.843,2.21674 6.74395,10.09857 13.76891,20.19712 21.07487,30.0494 2.81,3.94091 7.30596,17.98037 8.42995,23.15281 2.24799,8.3744 3.09098,16.7488 2.80998,25.12325 -0.281,6.89657 2.80998,26.60107 4.215,33.99027 1.96696,10.59117 2.52897,24.38434 0.28099,34.97552 -1.96701,10.09856 -11.80195,17.98037 -20.23188,24.87696 -0.84298,0.73888 -0.84298,0.73888 -2.52901,1.23154 v 0 c -3.93395,1.23153 -9.83495,3.20195 -11.80189,6.65026 l -2.24801,4.43351 7.58695,-3.4483 c -1.96701,1.72418 -1.68599,2.70935 -1.40499,4.67983 l 20.79388,-0.24632 c 1.40499,-0.49263 3.653,-1.97045 4.496,-3.44829 1.12396,-1.72415 0.84296,-3.6946 0.28097,-5.66505 3.93398,-3.69459 6.74395,-7.3892 7.86795,-12.56163 2.80998,0.98524 2.80998,1.23153 4.215,2.95569 1.12401,-0.73892 3.37196,-1.97045 3.93394,-3.4483 2.81,0.73894 3.37202,0.49261 6.18199,-0.49261 -0.84301,-34.9755 1.12397,-67.48794 5.33895,-102.21715 l 15.17392,73.89192 c 1.967,8.3744 -0.28101,15.76362 -5.61995,22.66019 -2.24801,2.95568 -10.95895,11.33008 -14.33094,13.79314 -1.12399,1.23157 -5.90098,4.43354 -7.02496,4.92615 -0.84298,0.24631 -2.24796,0.24631 -4.77695,1.72414 -3.372,1.97044 -6.74398,5.66504 -8.14897,9.11333 l -1.12401,3.94091 c 1.96701,-0.7389 3.934,-1.47783 5.33897,-2.46306 l -0.84295,1.47783 c 10.39689,-1.23153 17.14086,-2.46306 26.69483,-3.69458 l 5.33895,-0.73893 c 1.124,-3.20199 1.124,-3.94088 0,-7.14287 -0.281,-1.23156 -0.281,-0.73893 0.281,-2.46311 1.124,-3.94088 2.80996,-8.12809 7.02496,-10.09852 4.77698,-1.97044 8.71095,-2.95568 13.76891,-3.94092 l -5.05796,-34.23658 c -1.40499,-9.35964 1.12398,-26.60108 -0.56201,-39.65532 -1.96696,-15.27099 -1.405,-30.54201 4.215,-45.07407 1.40497,-3.69464 1.96699,-6.40399 2.80996,-10.09858 l 7.30602,0.7389 c 31.75275,1.97046 71.93549,-14.03946 100.3163,-25.12325 l 28.6619,-11.57638 10.1159,14.03944 c 8.71096,11.33011 18.82685,21.67496 30.34781,30.78831 4.49602,3.6946 7.86795,4.67982 12.64493,9.85226 9.83493,10.83747 6.18192,21.92128 -1.96699,32.51243 l -44.67876,56.65051 c -1.96698,2.46303 -3.09096,3.20198 -5.33891,5.17241 -3.09096,2.70939 -7.02505,5.17244 -11.23999,6.40396 -1.6859,0.49261 -1.40493,0.24631 -3.09096,1.47784 l -0.84302,0.73895 v 0 l -1.12397,0.98518 v 0 c -4.77698,3.9409 -7.30589,6.6503 -11.23987,11.33013 11.23987,3.20197 25.57083,6.40394 34.84371,-2.95566 l 2.81,-3.94091 0.28096,-2.70937 c 0.28108,-2.70937 1.1241,-7.1429 5.05807,-6.15768 l 3.93397,1.72413 33.43877,-49.75388 25.00889,-21.67497 c 2.24795,-1.97042 6.46289,-6.15764 7.58686,-8.86701 2.52905,-5.17244 -1.68589,-12.31531 -4.49589,-17.24145 -2.52903,-4.18725 -3.93397,-9.60596 -4.77699,-14.2858 l -0.28096,-2.95567 0.84301,0.49261 v 0.24631 c 12.92589,7.1429 22.47974,14.77841 25.57082,28.81785 l 0.56193,3.94091 -12.92589,27.8326 c -0.84301,1.47786 -3.93398,5.41875 -5.33892,6.8966 -3.93408,5.41874 -7.58697,11.08378 -11.23999,16.74886 -0.28096,0.73888 -2.24795,1.47781 -3.09095,1.97045 -9.83494,5.66504 -17.70289,13.05422 -23.32288,22.16755 -0.28096,0.98525 -0.56205,0.73893 -1.96698,1.47786 -5.90097,2.70936 -9.55397,4.92611 -14.61192,8.62073 v 0 l -1.12397,0.73893 v 0.24626 c -4.21494,3.44831 -5.62,5.91136 -7.02494,10.59118 10.11589,2.46306 31.47178,7.38921 33.71973,-7.14287 v -3.9409 l 0.56205,-0.24631 3.09096,-8.12809 c 4.77698,2.21672 4.77698,3.20195 5.61987,7.14287 3.9341,-3.20197 4.21506,-3.4483 6.74397,-7.63551 l 11.24,-19.4582 c 1.40505,-2.21675 2.24794,-3.20198 4.21494,-5.41876 l 32.87683,-38.91638 c 2.52892,-2.95569 4.49602,-6.40397 6.18193,-10.09861 l 0.28096,0.73895 c 1.40505,-8.12812 1.68602,-8.86705 -2.24795,-16.74882 -4.4959,-8.62075 -7.3059,-13.30056 -11.23987,-22.66021 -2.81,-7.3892 -4.21506,-11.5764 -5.90096,-19.2119 -3.37205,-16.00992 -4.21505,-33.25136 -4.77698,-49.26127 l 0.28096,-12.06903 v -0.98526 c 7.02494,2.46312 13.48794,1.97049 19.95083,-1.97042 0.28108,-0.24627 1.68602,-1.72413 1.9671,-1.97045 1.96687,-3.44826 -0.28108,-5.66504 -4.21505,-6.65028 -10.67794,-2.70935 -17.42191,-8.12808 -24.72781,-15.27101 l -5.33891,-5.41871 c -1.68603,-2.95569 -1.96711,-2.95569 -4.77699,-5.91135 -5.90108,-5.41875 -12.083,-10.09858 -20.23191,-13.05428 -1.12398,-0.4926 -3.93398,-1.4778 -10.9589,-2.95566 l -10.39699,-1.47782 c -4.21493,-0.24633 -16.85986,0.73892 -21.35588,1.23152 -6.74397,0.98525 -13.76891,1.97045 -20.23191,3.44831 l 0.84301,-0.49262 c -19.10782,4.67983 -29.22384,7.14289 -47.20768,13.30055 -4.21494,1.4778 -23.32287,2.46306 -28.94287,2.70937 -28.38081,0.4926 -55.07561,-5.66505 -75.58851,-23.89172 l -2.80998,-2.46308 c 1.40498,-1.97046 1.12401,-1.47781 1.68597,-4.1872 2.52901,-11.08377 2.81003,-21.92127 -1.68597,-32.75876 -0.843,-1.97045 -1.12399,-4.18721 -1.68598,-6.15766 -0.56199,-2.70938 -1.686,-5.41874 -3.37198,-8.12811 -0.56203,-0.73893 -0.281,-0.24631 -0.281,-1.23154 0.281,-2.95567 0.281,-10.09855 -3.934,-11.08378 -0.56196,-6.15767 -6.74394,-11.08379 -11.23991,-15.5173 z"
       class="fil1"
       inkscape:connector-curvature="0"
       style="clip-rule:evenodd;fill:#0a0b0c;fill-rule:evenodd;stroke-width:1;image-rendering:optimizeQuality;shape-rendering:geometricPrecision;text-rendering:geometricPrecision" /><path
       id="path2917"
       d="m 160.92918,405.61228 c 7.02494,10.59118 14.3309,21.18237 22.19887,32.01982 7.58696,15.51731 11.8019,32.01983 10.95891,49.75391 0.84299,11.08378 2.24798,22.16761 4.49597,33.00507 1.68602,10.83748 2.24797,21.67492 0.28099,32.26612 -1.12395,11.82272 -11.52093,20.19715 -21.91783,28.81787 0,0 0,0 0,0 2.80996,0.73891 7.30596,1.23153 13.76892,1.23153 3.93395,-3.69461 6.74394,-7.88182 7.86792,-13.54686 3.09099,0.98522 5.05798,1.97044 5.62,2.70935 1.96696,-0.98518 2.52897,-2.21671 1.96696,-3.44828 1.96698,0.98522 3.93399,1.72415 6.18194,0.73893 -1.12394,-35.71443 1.68603,-71.67515 6.18198,-107.63592 -1.12397,-12.31531 -12.08291,-25.86217 -23.04185,-39.65534 l -3.37199,-4.43349 c -6.74397,-13.54684 -16.01688,-21.67496 -29.22381,-28.0789 -1.12399,4.92609 -1.68598,10.34483 -1.96698,16.25619 z"
       class="fil2"
       inkscape:connector-curvature="0"
       style="clip-rule:evenodd;fill:#f00000;fill-opacity:1;fill-rule:evenodd;stroke-width:1;image-rendering:optimizeQuality;shape-rendering:geometricPrecision;text-rendering:geometricPrecision" /><path
       id="path2919"
       d="m 420.57158,565.95774 c -3.37192,2.95569 -5.61987,5.66507 -6.46289,8.86704 20.51288,5.17244 30.62877,1.97048 30.06672,-9.35963 -8.42987,3.20198 -17.14082,3.94088 -23.60383,0.49259 z"
       class="fil3"
       inkscape:connector-curvature="0"
       style="clip-rule:evenodd;fill:#f00000;fill-opacity:1;fill-rule:evenodd;stroke-width:1;image-rendering:optimizeQuality;shape-rendering:geometricPrecision;text-rendering:geometricPrecision" /><path
       id="path2921"
       d="m 221.06282,467.68151 c 5.33896,25.86216 9.83494,47.04453 15.17392,72.9067 2.24797,10.09854 -0.84302,18.22667 -6.46299,25.36953 -5.61996,6.15768 -11.23994,12.06903 -18.26486,16.74886 2.52897,1.23152 8.71093,1.47782 16.8599,0.98521 1.68596,-6.40396 4.21496,-10.59117 8.14894,-12.069 4.21497,-1.97043 8.42994,-3.202 12.6449,-3.94093 -1.68599,-11.33005 -3.37196,-22.66017 -5.05798,-33.74396 -0.84295,-13.79317 1.405,-26.84741 -0.28096,-38.91639 -2.52901,-18.22671 -0.281,-33.49771 4.49596,-46.55193 4.49592,-11.82271 3.934,-23.89174 5.61989,-34.97552 1.1241,8.62075 0,16.99515 -0.56192,24.87695 35.68672,5.41873 80.36548,-14.03945 136.56519,-36.69963 3.93397,-1.23153 8.14891,-2.46307 12.36385,-3.69464 -7.86794,-4.43349 -14.33083,-8.37439 -20.51288,-9.60593 v 0 c 0,-0.49262 0.28108,-1.23153 0.28108,-1.72413 0,0 0,0 0,0 0,0 0,0 0,0 29.5048,6.15764 77.55549,54.43368 86.82849,58.3746 -0.28109,0 -0.28109,0 -0.28109,0 13.76903,7.63551 24.44686,17.24147 25.85191,33.74399 -4.49602,9.85225 -8.99192,19.4582 -13.48794,29.06415 -7.02493,8.62073 -12.08288,16.25625 -16.5789,23.64541 -11.80192,5.91135 -20.79384,14.03948 -26.41384,24.38434 -6.46289,2.95569 -11.80191,5.91135 -15.73589,8.86704 5.90097,2.95565 14.33096,1.97044 22.76083,-1.47784 1.1241,-2.95566 2.52903,-5.91134 3.65301,-8.86705 3.93397,1.47785 7.3059,3.44829 7.58698,6.15767 2.24795,-1.47782 7.02493,-10.09853 16.29794,-26.35477 12.36384,-14.77837 25.00878,-29.55677 37.6537,-44.33518 12.36397,-19.7045 3.09097,-15.27099 -10.9589,-51.97063 -6.46301,-20.44344 -7.86794,-42.611 -8.42999,-65.27121 0,-3.20199 0.28095,-6.40395 0.28095,-9.85226 -1.12397,-5.41873 -2.80987,-10.59117 -4.77686,-15.51731 -2.24806,-6.40394 -5.33903,-12.56164 -8.71095,-18.22668 -16.29794,-17.73404 -29.78588,-18.47295 -43.83575,-20.44343 -27.25684,0 -57.32369,7.1429 -88.23354,17.73407 -44.95972,6.65028 -82.05151,0.4926 -107.90331,-24.13801 -1.12398,1.47782 -2.52898,2.95565 -4.21497,4.43351 -3.37199,3.44829 -9.83494,7.63547 -12.08293,12.06904 -3.65297,7.63546 -9.55393,15.27096 -17.42188,23.15278 -7.86798,7.63547 -17.70294,15.27097 -28.66185,22.90646 -5.90097,5.41877 -9.83497,12.80795 -11.8019,21.92131 -0.28102,0.24629 -0.28102,0.4926 -0.28102,0.9852 5.90097,2.70937 11.52092,5.91137 16.57889,10.34486 5.33896,4.67983 10.11595,10.59121 14.04989,18.71932 1.40501,1.97044 2.529,2.95569 3.37202,4.18722 11.5209,14.53206 23.32285,29.06416 23.60384,42.36468 z"
       class="fil2"
       inkscape:connector-curvature="0"
       style="clip-rule:evenodd;fill:#f00000;fill-opacity:1;fill-rule:evenodd;stroke-width:1;image-rendering:optimizeQuality;shape-rendering:geometricPrecision;text-rendering:geometricPrecision" /><path
       id="path2923"
       d="m 164.02012,262.75456 c -9.83491,21.42864 -16.01687,43.10362 -12.36391,65.27121 l 11.80197,-11.33011 -0.28102,-0.24629 c 5.33898,-13.05424 12.08292,-27.58633 23.32283,-37.68491 v -0.24631 c 16.01692,-12.80792 24.44688,-23.15279 28.38085,-32.26612 3.65297,-8.37442 3.65297,-15.51731 2.24798,-22.16758 -10.39692,22.66019 -25.85182,36.94596 -53.1087,38.67011 z"
       class="fil2"
       inkscape:connector-curvature="0"
       style="clip-rule:evenodd;fill:#f00000;fill-opacity:1;fill-rule:evenodd;stroke-width:1;image-rendering:optimizeQuality;shape-rendering:geometricPrecision;text-rendering:geometricPrecision" /><path
       id="path2925"
       d="m 187.62399,198.9612 c -16.85985,-3.20199 -32.59577,-2.70937 -44.67871,6.65027 -4.77699,3.6946 -3.09098,11.08379 -7.30596,16.00991 -13.20691,12.06902 -26.41387,17.48777 -33.71982,27.58632 -8.991923,8.62073 -7.586929,14.28578 -1.12396,18.47298 1.68596,1.23154 3.93397,1.97046 6.74395,1.97046 4.49598,-3.94091 9.27294,-8.12812 13.7689,-12.06901 3.93397,-5.66505 10.67794,0.73892 3.091,3.44828 -5.05796,1.97046 -8.99195,4.67982 -12.08292,8.37442 -8.99195,1.72415 -2.24801,5.66507 -0.84301,4.18721 3.93398,-2.21676 7.58696,-4.43351 10.67795,-7.88181 6.46294,-0.98521 12.64492,-2.46306 18.82688,-5.41874 12.92593,-1.72414 16.85988,-0.49261 20.79388,0.73892 12.64492,-0.49261 23.04185,-3.44828 31.47179,-9.60595 9.55397,-6.40396 17.14092,-16.50252 23.04189,-30.54199 -0.28102,0 12.36392,-19.21191 13.4879,-23.39911 -12.08291,1.97044 -23.04185,7.3892 -30.34782,18.71929 -21.07487,-6.65027 -11.80194,-15.271 -11.80194,-17.24145 z"
       class="fil2"
       inkscape:connector-curvature="0"
       style="clip-rule:evenodd;fill:#f00000;fill-opacity:1;fill-rule:evenodd;stroke-width:1;image-rendering:optimizeQuality;shape-rendering:geometricPrecision;text-rendering:geometricPrecision" /><path
       id="path2933"
       d="m 209.54188,583.93812 c -0.281,0.2463 -0.84302,0.2463 -1.12402,0.4926 -6.74394,1.23154 -11.5209,7.63553 -12.08292,10.8375 2.24799,-0.98521 4.77696,-5.1724 7.02497,-5.91136 -0.843,1.97048 -1.68599,3.69461 -2.52901,5.91136 9.27298,-0.98521 18.82691,-2.9557 28.09988,-3.94088 0.84297,-2.46308 0,-3.69463 -0.56199,-5.91136 -8.14897,0.49259 -16.29792,0.24628 -18.82691,-1.47786 z"
       class="fil3"
       inkscape:connector-curvature="0"
       style="clip-rule:evenodd;fill:#f00000;fill-opacity:1;fill-rule:evenodd;stroke-width:1;image-rendering:optimizeQuality;shape-rendering:geometricPrecision;text-rendering:geometricPrecision" /><path
       id="path2935"
       d="m 492.50719,360.29192 c 6.18192,2.21675 12.92589,2.70935 19.95082,-2.21677 2.52904,-1.72416 1.68602,-4.92613 -2.24795,-5.41874 -11.80192,-2.95569 -19.38889,-9.35966 -26.41383,-16.25621 3.93397,7.63546 6.74397,15.51728 8.71096,23.89172 z"
       class="fil4"
       inkscape:connector-curvature="0"
       style="clip-rule:evenodd;fill:#f00000;fill-opacity:1;fill-rule:evenodd;stroke-width:1;image-rendering:optimizeQuality;shape-rendering:geometricPrecision;text-rendering:geometricPrecision" /><path
       id="path2937"
       d="m 173.85508,582.21398 c -6.18196,1.97044 -9.55396,4.43352 -10.3969,6.15766 3.93394,-1.72414 9.5539,-2.95566 10.11591,-2.70938 -1.12401,1.97045 -6.46295,3.9409 -5.90097,5.91135 5.05795,-0.24627 14.04991,-0.24627 19.10789,-0.24627 3.934,-1.47788 4.21499,-4.18723 3.37198,-6.89662 -7.86795,0 -13.2069,-0.73891 -16.29791,-2.21674 z"
       class="fil3"
       inkscape:connector-curvature="0"
       style="clip-rule:evenodd;fill:#f00000;fill-opacity:1;fill-rule:evenodd;stroke-width:1;image-rendering:optimizeQuality;shape-rendering:geometricPrecision;text-rendering:geometricPrecision" /><path
       id="path2939"
       d="m 149.97023,332.21298 c -6.74395,9.35966 -11.23995,20.93604 -11.52094,36.45333 -1.124,15.76362 5.61997,27.09372 20.79388,34.72922 0.56201,-14.53209 3.65299,-30.0494 14.8929,-39.90164 v 0 c 16.85993,-12.06901 36.5298,-27.83262 44.67877,-44.08888 -3.65301,2.70937 -7.30595,5.66508 -11.52095,8.86706 l -1.405,-1.47786 c 10.95894,-8.12806 19.6699,-15.27101 26.13284,-21.42863 2.529,-2.46309 4.496,-4.6798 6.18199,-6.65029 3.09096,-11.8227 3.93397,-23.64539 -1.68599,-35.22181 -0.56199,-4.67982 -1.686,-9.35965 -4.77698,-13.79316 0.56201,-7.3892 -0.562,-11.08378 -3.65299,-11.08378 -0.56198,-5.91136 -4.77698,-9.60596 -8.71095,-13.54687 1.124,6.65028 0.84301,13.54687 -2.52898,21.67497 -4.21497,9.35965 -12.9259,20.19713 -28.94282,33.25134 -5.61997,5.17244 -10.11595,11.08379 -13.76894,17.48778 -2.80999,5.17244 -5.33894,10.59117 -7.58694,16.00992 l 0.28099,-0.2463 1.68602,0.9852 z"
       class="fil5"
       inkscape:connector-curvature="0"
       style="clip-rule:evenodd;fill:#f00000;fill-opacity:1;fill-rule:evenodd;stroke-width:1;image-rendering:optimizeQuality;shape-rendering:geometricPrecision;text-rendering:geometricPrecision" /><path
       id="path2941"
       d="m 374.76884,563.4947 c -3.37192,2.95564 -6.74397,6.15768 -9.55396,9.60594 14.893,4.18721 26.97588,3.9409 33.15781,-6.6503 0,-0.24627 0,-0.73889 0.28108,-0.98519 -8.71096,2.70938 -17.70288,2.95566 -23.88493,-1.97045 z"
       class="fil3"
       inkscape:connector-curvature="0"
       style="clip-rule:evenodd;fill:#f00000;fill-opacity:1;fill-rule:evenodd;stroke-width:1;image-rendering:optimizeQuality;shape-rendering:geometricPrecision;text-rendering:geometricPrecision" /><path
       id="path2943"
       d="m 390.78583,403.64182 c 10.11589,15.51731 23.60383,31.52722 41.30671,45.32038 17.70287,10.83748 24.72781,24.63065 7.58698,44.82778 -14.89289,18.7193 -29.5048,37.68487 -44.3978,56.6505 -5.61999,5.17242 -11.23986,9.3596 -17.14083,10.59115 -0.56205,0.49263 -1.12397,0.98524 -1.68602,1.47781 5.61999,4.18723 14.04987,3.69463 22.1989,0.98526 1.12397,-6.8966 4.4959,-8.62073 10.11589,-5.66507 10.95891,-16.2562 21.91794,-32.51242 32.59576,-48.76866 8.42999,-7.14288 16.85998,-14.28577 25.28998,-21.67496 8.71083,-8.86703 11.52083,-9.35965 1.68591,-25.86219 -2.52892,-5.91134 -3.93398,-11.57636 -4.21494,-17.48773 -3.65302,-2.46309 -8.71096,-6.65027 -14.89289,-11.82271 -12.36396,-10.3449 -29.78587,-23.39911 -45.2408,-33.00505 z"
       class="fil2"
       inkscape:connector-curvature="0"
       style="clip-rule:evenodd;fill:#f00000;fill-opacity:1;fill-rule:evenodd;stroke-width:1;image-rendering:optimizeQuality;shape-rendering:geometricPrecision;text-rendering:geometricPrecision" /><path
       id="path2947"
       d="m 147.44126,184.18281 c -0.84301,5.41874 -1.40502,10.83748 0,15.27099 3.93396,-1.72414 8.71095,-2.95566 13.76892,-3.69459 -6.74397,-3.20197 -10.39698,-7.38919 -13.76892,-11.5764 z"
       class="fil6"
       inkscape:connector-curvature="0"
       style="clip-rule:evenodd;fill:#f00000;fill-opacity:1;fill-rule:evenodd;stroke-width:1;image-rendering:optimizeQuality;shape-rendering:geometricPrecision;text-rendering:geometricPrecision" /><path
       id="path2951"
       d="m 111.19247,264.2324 c 3.93398,-1.23153 4.77695,-6.40397 2.52897,-8.12811 -1.96698,-1.47785 -7.30595,-0.73893 -8.71093,2.70937 -1.68599,3.69459 -5.338963,6.15766 -2.80999,8.37441 2.52899,1.97046 5.05797,-1.72415 8.99195,-2.95567 z"
       class="fil1"
       inkscape:connector-curvature="0"
       style="clip-rule:evenodd;fill:#0a0b0c;fill-rule:evenodd;stroke-width:1;image-rendering:optimizeQuality;shape-rendering:geometricPrecision;text-rendering:geometricPrecision" /><path
       id="path2953"
       d="m 137.8873,226.30121 c 21.07487,-14.77839 22.76085,-4.92613 33.71977,-2.95568 -14.89287,-1.97045 -26.13282,-0.98522 -33.71977,2.95568 z"
       class="fil1"
       inkscape:connector-curvature="0"
       style="clip-rule:evenodd;fill:#0a0b0c;fill-rule:evenodd;stroke-width:1;image-rendering:optimizeQuality;shape-rendering:geometricPrecision;text-rendering:geometricPrecision" /><path
       id="path2955"
       d="m 137.8873,230.48842 c 5.61994,2.46306 12.08293,4.67983 19.66987,4.43352 6.74395,0.4926 9.27295,-6.65027 4.77701,-9.60596 -5.90096,-2.95567 -11.80197,-2.46306 -17.98392,0 -3.09095,1.72415 -5.05797,3.4483 -6.46296,5.17244 z"
       class="fil1"
       inkscape:connector-curvature="0"
       style="clip-rule:evenodd;fill:#0a0b0c;fill-rule:evenodd;stroke-width:1;image-rendering:optimizeQuality;shape-rendering:geometricPrecision;text-rendering:geometricPrecision" /><path
       id="path2957"
       d="m 155.87121,232.70518 c 1.405,-1.23154 2.52894,-5.41875 -0.84299,-7.1429 1.68598,0 3.09093,0.49263 4.49594,1.23154 3.372,1.72415 1.68602,6.40397 -3.37195,5.91136 -0.281,0 -0.281,0 -0.281,0 z"
       class="fil2"
       inkscape:connector-curvature="0"
       style="clip-rule:evenodd;fill:#f00000;fill-opacity:1;fill-rule:evenodd;stroke-width:1;image-rendering:optimizeQuality;shape-rendering:geometricPrecision;text-rendering:geometricPrecision" /><path
       id="path2959"
       d="m 146.59825,230.73472 c 0.562,0.49261 1.405,0.98523 2.24801,1.47785 -1.967,-0.49262 -3.653,-0.98524 -5.33902,-1.47785 z m 1.967,-4.67981 c 0.28101,0 0.56202,0 0.56202,-0.24632 0,0.24632 -0.28101,0.24632 -0.56202,0.49262 z"
       class="fil2"
       inkscape:connector-curvature="0"
       style="clip-rule:evenodd;fill:#f00000;fill-opacity:1;fill-rule:evenodd;stroke-width:1;image-rendering:optimizeQuality;shape-rendering:geometricPrecision;text-rendering:geometricPrecision" /><path
       id="path2961"
       d="m 203.07891,202.9021 c 14.33093,-10.83748 29.50484,-21.18235 36.24878,-33.99028 8.42994,-10.09857 19.10788,-7.3892 27.53787,-4.92614 18.26493,8.12811 34.56274,16.25623 61.53862,20.19713 16.29783,0.24631 27.53782,7.88181 39.05877,15.0247 -2.24807,-6.15766 -7.02505,-10.83749 -9.55397,-13.54685 -2.81,-3.202 0.84302,-6.65029 10.67794,-8.12812 -15.73589,-3.9409 -30.90985,3.69459 -42.4308,-2.70937 10.95903,-3.20199 21.91794,-6.65028 29.78588,-12.06901 -32.59576,14.03945 -72.49753,7.38918 -54.23261,1.72413 18.54577,-2.21675 29.22371,-9.35964 36.8107,-18.71929 -20.79385,9.35965 -36.52974,17.24147 -60.97659,15.27101 -12.926,-3.4483 -12.926,-8.12812 -2.52903,-10.59117 24.72793,-11.57641 48.89369,-34.23661 62.94368,-35.71444 24.72782,-2.95568 43.27371,-10.59118 55.63755,-23.399115 -18.82686,12.069005 -39.33972,16.748845 -60.97658,16.256215 3.09097,-8.1281 14.61192,-16.256215 19.95095,-24.384328 -14.61192,5.66504 -25.85191,18.472978 -37.65383,32.512448 -11.52095,11.57641 -26.13286,20.19713 -41.02574,27.58632 -8.99192,4.67982 -7.86795,-1.72414 4.77698,-19.2119 -8.14891,8.37442 -16.85987,18.22668 -28.94283,30.04938 -8.42997,5.17244 -6.18196,-2.46307 -2.52901,-11.8227 -14.04993,20.68975 -29.5048,40.64055 -52.54668,55.41894 -10.39691,5.66505 -6.18196,7.63551 -4.77696,10.34487 3.93394,6.89658 14.04993,8.86704 13.20691,-5.17243 z m -20.79387,-8.37442 c -4.49598,0 -9.27296,0 -13.7689,0 6.46294,-11.82271 9.83492,-23.1528 6.74394,-33.00506 -12.9259,-20.68975 -32.87681,-20.68975 -45.52174,-15.271 -13.48792,6.89658 -23.04187,6.89658 -33.1578,7.38919 11.80196,-3.9409 24.44686,-8.12812 32.31481,-14.03947 5.90098,-2.70937 13.48792,-3.20198 21.63686,-2.70937 -9.2729,-8.37442 -18.82687,-13.54685 -29.22382,-14.53208 -17.70287,-1.72414 -27.256818,-5.66504 -33.157802,-10.59117 11.520959,2.95568 26.413862,5.41874 38.215792,4.1872 -7.30596,-9.35964 -11.80193,-19.70451 -10.39696,-29.064149 5.33897,14.285759 15.17392,27.093709 30.06682,38.177499 10.67796,10.34486 24.44688,20.44342 37.6538,27.58632 9.27294,-10.09857 18.82687,-20.44343 31.7528,-28.32525 3.653,-3.44827 4.21497,-6.89657 1.967,-10.34486 -17.70291,-12.06902 -18.82691,-24.138036 -19.38887,-36.207054 3.93395,10.591176 7.30595,21.428657 19.66987,26.354794 -3.091,-25.123257 4.49594,-38.177495 17.14089,-45.566694 -8.71093,18.71929 -13.20691,37.192274 -6.46294,55.911574 5.90093,-6.65029 13.4879,-13.05426 21.63684,-19.704531 9.27295,-11.083787 1.96693,-27.832624 15.17391,-36.207043 -3.09096,10.591176 -5.62,20.936047 -3.09096,29.556771 8.71095,-7.389187 17.42191,-15.024691 26.13286,-22.413878 2.52892,-8.620724 7.30591,-15.02469 14.61181,-19.2119 -3.6529,7.635492 -6.18193,15.517301 -6.18193,23.152804 9.83493,-1.231536 20.23192,-5.172441 31.47191,-11.822713 -0.28109,4.67982 -14.04999,12.561629 -38.21588,22.41389 -20.51287,6.15765 -49.45568,30.54199 -79.80347,57.88201 10.95894,-2.21676 21.07487,-5.66505 29.50484,-9.85226 -7.58699,8.12811 -21.63689,13.30055 -36.52981,18.47298 -11.80191,11.3301 -19.95086,26.10849 -20.79387,47.78345 z"
       class="fil5"
       inkscape:connector-curvature="0"
       style="clip-rule:evenodd;fill:#f00000;fill-opacity:1;fill-rule:evenodd;stroke-width:1;image-rendering:optimizeQuality;shape-rendering:geometricPrecision;text-rendering:geometricPrecision" /><g
       transform="matrix(0.85953674,0,0,0.58479373,92.829956,-4.4724028)"
       id="g7"
       style="clip-rule:evenodd;fill-rule:evenodd;stroke-width:6.84944725;image-rendering:optimizeQuality;shape-rendering:geometricPrecision;text-rendering:geometricPrecision"><path
         id="Croix_1_"
         sodipodi:nodetypes="ccccccccccccc"
         d="M 102.12263,253.79235 H 82.640753 v -12.07343 h 19.481207 v -25.33814 h 10.1918 v 25.33814 h 19.4812 v 12.07343 h -19.4812 v 80.329 h -9.88065 z"
         inkscape:connector-curvature="0"
         style="fill:#ffd900;fill-opacity:1;stroke:#000000;stroke-width:2.61784792;stroke-miterlimit:4;stroke-dasharray:none;stroke-opacity:1" /></g></g></svg>