<?xml version="1.0" encoding="UTF-8" standalone="no"?>
<!-- Created with Inkscape (http://www.inkscape.org/) -->
<svg
   xmlns:dc="http://purl.org/dc/elements/1.1/"
   xmlns:cc="http://web.resource.org/cc/"
   xmlns:rdf="http://www.w3.org/1999/02/22-rdf-syntax-ns#"
   xmlns:svg="http://www.w3.org/2000/svg"
   xmlns="http://www.w3.org/2000/svg"
   xmlns:sodipodi="http://sodipodi.sourceforge.net/DTD/sodipodi-0.dtd"
   xmlns:inkscape="http://www.inkscape.org/namespaces/inkscape"
   id="svg2"
   sodipodi:version="0.32"
   inkscape:version="0.45.1"
   width="1145"
   height="1348"
   version="1.0"
   sodipodi:docbase="/home/liftarn/Bilder"
   sodipodi:docname="Bargfeld-Stegen_Wappen.svg"
   inkscape:output_extension="org.inkscape.output.svg.inkscape">
  <metadata
     id="metadata7">
    <rdf:RDF>
      <cc:Work
         rdf:about="">
        <dc:format>image/svg+xml</dc:format>
        <dc:type
           rdf:resource="http://purl.org/dc/dcmitype/StillImage" />
      </cc:Work>
    </rdf:RDF>
  </metadata>
  <defs
     id="defs5" />
  <sodipodi:namedview
     inkscape:window-height="693"
     inkscape:window-width="1024"
     inkscape:pageshadow="2"
     inkscape:pageopacity="0.0"
     guidetolerance="10.0"
     gridtolerance="10.0"
     objecttolerance="10.0"
     borderopacity="1.0"
     bordercolor="#666666"
     pagecolor="#ffffff"
     id="base"
     inkscape:zoom="0.26518791"
     inkscape:cx="1497.6537"
     inkscape:cy="698.27663"
     inkscape:window-x="0"
     inkscape:window-y="25"
     inkscape:current-layer="svg2" />
  <path
     style="fill:#000000"
     d="M 547,1347.3292 C 510.98006,1346.2115 462.99498,1339.5086 426,1330.427 C 418.025,1328.4693 410.15,1326.4455 408.5,1325.9297 C 406.85,1325.4139 401,1323.61 395.5,1321.9212 C 335.37993,1303.4605 281.28716,1277.4421 232,1243.2783 C 228.02555,1240.5234 204.09535,1222.5202 197.43672,1217.2757 C 163.21495,1190.3214 124.40343,1150.0352 96.977947,1113 C 91.523947,1105.6349 77.328432,1084.3447 71.307627,1074.5 C 37.077718,1018.5302 13.729107,952.08342 5.0563302,885.95837 C 0.60207833,851.99721 0.70907516,862.44898 0.30413669,421.75 L -0.083390425,2.1316282e-13 L 572.50672,1.2384538e-13 L 1145.0968,3.4527936e-14 L 1144.7016,424.75 C 1144.4106,737.46426 1143.999,852.79711 1143.1412,862 C 1134.28,957.07001 1104.0085,1038.2135 1049.5704,1112.8194 C 1000.7581,1179.7153 931.42996,1239.3377 857.5,1278.0006 C 850.9,1281.4522 845.05,1284.6007 844.5,1284.9973 C 843.0001,1286.0788 823.80159,1294.7618 813,1299.244 C 790.08711,1308.7518 785.63467,1310.4521 770.5,1315.4744 C 761.7,1318.3947 750.225,1321.9538 745,1323.3837 C 739.775,1324.8136 734.15,1326.4129 732.5,1326.9377 C 721.49827,1330.4368 681.25466,1338.9316 666,1340.9749 C 661.325,1341.6011 654.575,1342.5162 651,1343.0086 C 622.59717,1346.9204 584.64184,1348.4972 547,1347.3292 z "
     id="path2279" />
  <path
     style="fill:#0762bc;fill-opacity:1"
     d="M 599.95361,1339.9947 C 620.71322,1339.026 634.2379,1337.904 648,1336.0086 C 651.575,1335.5162 658.325,1334.6011 663,1333.9749 C 678.25466,1331.9316 718.49827,1323.4368 729.5,1319.9377 C 731.15,1319.4129 736.775,1317.8136 742,1316.3837 C 747.225,1314.9538 758.7,1311.3947 767.5,1308.4744 C 782.63467,1303.4521 787.08711,1301.7518 810,1292.244 C 820.80159,1287.7618 840.0001,1279.0788 841.5,1277.9973 C 842.05,1277.6007 847.9,1274.4522 854.5,1271.0006 C 941.87109,1225.3084 1017.7334,1154.6646 1067.2623,1072.874 C 1086.3713,1041.3178 1103.7628,1003.0555 1114.4763,969 C 1125.5932,933.66251 1133.2803,893.98807 1135.9831,858 C 1137.0858,843.31702 1138.6814,720 1137.7687,720 C 1136.6021,720 1122.1803,726.28192 1114.6722,730.06052 C 1110.3669,732.22723 1106.0796,734 1105.1447,734 C 1104.2099,734 1102.4644,734.68687 1101.2658,735.52638 C 1099.2344,736.94925 1089.1111,739.70922 1072.5,743.36895 C 1056.5296,746.88752 1038.6939,747.87365 1024.4719,746.02441 C 1017.4887,745.1164 1001.9075,740.39697 996.38584,737.51733 C 994.79863,736.68958 992.91868,736.00955 992.20819,736.00616 C 991.49769,736.00277 989.95034,735.1 988.76963,734 C 987.58891,732.9 985.86283,732 984.93388,732 C 984.00494,732 982.68469,731.325 982,730.5 C 981.31531,729.675 980.29842,729 979.74025,729 C 979.18207,729 973.02599,725.4 966.06007,721 C 959.09416,716.6 953.10093,713 952.74179,713 C 952.38266,713 950.54703,711.95371 948.66261,710.67491 C 945.66618,708.64148 942.35602,706.96014 928.5,700.43364 C 915.35427,694.2417 894.37136,690.31958 879.66558,691.30551 C 869.50671,691.98661 856.82902,693.90936 855.5,694.97057 C 854.95,695.40974 852.925,696.07672 851,696.45275 C 849.075,696.82879 844.8,698.19414 841.5,699.48688 C 838.2,700.77961 834.825,702.09605 834,702.41229 C 833.175,702.72853 831.825,703.38686 831,703.87526 C 830.175,704.36365 827.25,705.74475 824.5,706.94436 C 821.75,708.14397 818.80691,709.49209 817.95981,709.94018 C 817.1127,710.38827 809.6877,714.25134 801.45981,718.52479 C 793.23191,722.79823 786.05,726.61435 785.5,727.00505 C 782.45283,729.16968 759.40414,736.94406 753,737.96739 C 748.875,738.62652 744.73175,739.5703 743.79278,740.06467 C 741.07358,741.49632 709.42219,740.27709 702,738.45479 C 698.425,737.57705 694.15,736.60911 692.5,736.30382 C 690.85,735.99852 689.05,735.41481 688.5,735.00668 C 687.95,734.59856 685.025,733.48355 682,732.52889 C 674.74656,730.23978 671.1678,728.6915 655.92944,721.25 C 648.89029,717.8125 642.70662,715 642.18794,715 C 641.66926,715 640.74623,714.39915 640.13676,713.66478 C 639.52729,712.93041 637.22219,711.73339 635.01431,711.00472 C 632.80644,710.27606 631,709.30191 631,708.83994 C 631,708.37797 630.1551,708 629.12244,708 C 628.08979,708 626.68469,707.325 626,706.5 C 625.31531,705.675 624.297,705 623.73709,705 C 623.17717,705 620.86977,704.14212 618.60953,703.0936 C 610.79489,699.46842 597.03619,694.86731 593.77428,694.78834 C 591.97343,694.74474 590.25815,694.34024 589.96256,693.88945 C 589.23876,692.78562 573.29819,691.01837 563.97377,691.0082 C 554.81382,690.99822 541.26351,692.60302 534.5,694.49886 C 518.62121,698.94977 514.75376,700.12249 513.21091,700.95431 C 512.26991,701.46165 503.175,705.99898 493,711.03728 C 482.825,716.07557 474.35,720.6033 474.16667,721.0989 C 473.98333,721.59451 473.08333,722.00542 472.16667,722.01205 C 471.25,722.01867 468.63021,723.09332 466.34492,724.40015 C 464.05962,725.70699 459.78462,727.56111 456.84492,728.52042 C 453.90521,729.47974 451.05,730.61392 450.5,731.04082 C 448.76636,732.38645 433.81123,736.87167 426,738.38865 C 415.35377,740.45621 399.63904,741.10152 389.33048,739.89444 C 384.47371,739.32574 378.925,738.84935 377,738.83579 C 375.075,738.82223 373.05,738.44762 372.5,738.00334 C 371.95,737.55905 369.475,736.68277 367,736.05604 C 364.525,735.42931 361.6,734.51105 360.5,734.01546 C 354.0252,731.09835 345.12183,727.7208 342.75,727.28189 C 341.2375,727.002 340,726.37408 340,725.8865 C 340,725.39893 339.1375,725 338.08333,725 C 337.02917,725 336.01667,724.59667 335.83333,724.10371 C 335.56087,723.3711 322.88642,716.54202 305.5,707.7599 C 291.72948,700.80422 271.97041,693.66657 263.02593,692.41681 C 247.66356,690.27032 231.48665,690.12302 223.66905,692.05844 C 221.37607,692.62612 216.8,693.70624 213.5,694.45872 C 203.02379,696.84753 192.2275,701.48118 164,715.70359 C 134.90129,730.36495 122.67815,735.08887 107.5,737.53936 C 90.317877,740.31338 69.510056,738.97901 56.709362,734.28224 C 52.744213,732.82737 49.275,731.38047 49,731.06691 C 48.725,730.75336 47.15,729.83098 45.5,729.01718 C 40.792404,726.69534 35.232193,723.04798 25.5,715.89767 C 17.341595,709.90363 9.1893819,705 7.3827999,705 C 6.3462696,705 7.7681577,836.16648 8.987169,853 C 16.293881,953.89955 52.804972,1046.2641 117.49513,1127.5 C 139.77214,1155.4748 172.81279,1188.4425 200.45395,1210.2757 C 206.98637,1215.4355 230.92036,1233.4505 235,1236.2783 C 284.28716,1270.4421 338.37993,1296.4605 398.5,1314.9212 C 404,1316.61 409.85,1318.4139 411.5,1318.9297 C 418.04951,1320.9771 444.11694,1327.1012 454.5,1329.0317 C 509.04173,1339.1729 550.53659,1342.3004 599.95361,1339.9947 z "
     id="path2277" />
  <g
     id="g2283">
    <path
       id="path2275"
       d="M 119.57293,1048.4301 C 118.70947,1047.5666 117.71295,1045.6541 117.35844,1044.1801 C 117.00394,1042.706 115.65326,1039.3775 114.35694,1036.7832 C 113.06062,1034.189 112,1031.3548 112,1030.4849 C 112,1029.6151 111.1,1027.0406 110,1024.7639 C 108.9,1022.4871 108,1020.2144 108,1019.7133 C 108,1019.2122 107.36998,1017.3843 106.59994,1015.6511 C 105.82991,1013.918 103.76956,1007.9252 102.02138,1002.3337 C 100.2732,996.74221 98.217536,991.34221 97.453239,990.33369 C 96.688941,989.32516 96.049295,987.50867 96.031803,986.29705 C 96.001376,984.18942 95.394518,982.38152 92.350435,975.32984 C 91.59776,973.58624 90.697616,970.66124 90.350115,968.82984 C 90.002615,966.99843 89.305885,964.69389 88.801827,963.70864 C 87.861317,961.87028 81.290339,943.49996 75.850166,927.5 C 74.167109,922.55 72.445973,918.05 72.025421,917.5 C 71.604869,916.95 70.940271,914.72485 70.548538,912.55523 C 70.156804,910.3856 68.748129,906.46306 67.418148,903.83847 C 66.088166,901.21388 65,897.95867 65,896.60467 C 65,895.25067 64.325,893.46786 63.5,892.64286 C 62.675,891.81786 61.998318,889.87321 61.996262,888.32143 C 61.994206,886.76964 61.094206,884.02662 59.996262,882.22583 C 58.898318,880.42504 58,878.14098 58,877.15014 C 58,875.1596 61.941735,871 63.82802,871 C 64.487535,871 65.808532,870.60494 66.763569,870.12208 C 71.527788,867.71336 76.406637,865.95861 79.886879,865.4021 C 83.493443,864.82539 83.852805,864.99857 85.37312,868.04612 C 86.267904,869.83976 87,871.98222 87,872.80715 C 87,875.57096 91.973545,884.85701 93.746959,885.40431 C 94.711132,885.70187 101.35,886.64483 108.5,887.49978 C 115.65,888.35472 122.165,889.29223 122.97777,889.58313 C 123.79055,889.87403 127.39055,890.51368 130.97777,891.00457 C 134.565,891.49546 145.6,893.04132 155.5,894.43982 C 165.4,895.83832 177.49882,897.44782 182.38627,898.01648 C 187.27372,898.58514 191.63473,899.27425 192.0774,899.54784 C 192.52008,899.82142 197.97125,900.73137 204.19113,901.56993 C 227.484,904.71028 236.99619,905.5288 237.01419,904.39434 C 237.57731,868.90377 237.87527,861.78793 238.97783,857.5 C 239.68494,854.75 240.89818,850.025 241.67392,847 C 247.25244,825.24665 254.43125,809.97719 265.98182,795.29668 L 268.18223,792.5 L 307.59112,792.6752 C 331.19918,792.78015 347,792.47944 347,791.9252 C 347,791.41634 348.125,791 349.5,791 C 350.875,791 352,791.44028 352,791.97841 C 352,792.57296 359.54703,793.06337 371.23682,793.22841 L 390.47364,793.5 L 393.8001,798.5 C 399.0122,806.33431 407.41256,824.43035 408.8903,831.00727 C 409.41967,833.36331 410.24329,835.56301 410.72057,835.89549 C 411.19785,836.22797 412.63732,842.125 413.91938,849 C 415.20144,855.875 417.09406,865.43274 418.1252,870.23941 C 420.30999,880.42384 420.49271,890.95521 418.82835,910.76492 C 418.04437,920.09598 417.96933,925.36933 418.61138,926.01138 C 419.15122,926.55122 423.62201,927.26307 428.54646,927.59325 C 439.65255,928.33792 441.53145,927.39276 439.66532,922 C 437.50938,915.7697 437.65424,884.57376 439.9184,867.5 C 442.52405,847.85114 449.16122,822.00864 452.65178,817.92126 C 453.3933,817.05295 454,815.77982 454,815.09207 C 454,813.29282 461.20602,800 462.18139,800 C 462.63163,800 463.01429,799.4375 463.03175,798.75 C 463.04921,798.0625 464.52683,796.04537 466.31533,794.2675 L 469.56716,791.03499 L 530.6667,790.96911 C 564.27145,790.93287 592.88511,791.18404 594.2526,791.52726 C 596.07479,791.9846 597.34546,793.58605 599.00946,797.52238 C 600.25824,800.47647 601.89197,803.1283 602.63998,803.41534 C 603.38799,803.70238 604,804.538 604,805.27227 C 604,806.00654 605.1099,808.83458 606.46644,811.5568 C 609.06373,816.7689 614.52347,831.07273 616.17803,837 C 617.31309,841.06619 619.39842,853.07596 621.56075,868 C 623.9058,884.18517 621.94957,911.89435 617.00715,932.5 C 616.47946,934.7 616.03698,937.01002 616.02386,937.63337 C 615.9936,939.07091 619.13758,939.98954 625.5,940.40218 C 628.25,940.58053 632.525,941.03237 635,941.40626 C 642.30116,942.50925 642.34369,942.37028 639.89136,925.42512 C 637.60287,909.61212 637.04934,880.64484 638.96718,877.06132 C 639.4922,876.08032 640.17857,872.63321 640.49246,869.40108 C 641.10055,863.1395 643.20892,852.74942 645.56325,844.41211 C 646.35346,841.61377 647,838.57016 647,837.64854 C 647,836.72692 647.4101,835.19147 647.91134,834.23643 C 648.41258,833.28139 649.5889,830.25 650.52539,827.5 C 653.02201,820.16863 663.31101,799.66299 665.56997,797.51664 C 666.15845,796.95749 667.40633,795.2625 668.34302,793.75 L 670.04611,791 L 730.20206,791 C 792.6599,791 797,791.26566 797,795.08868 C 797,796.01647 798.47802,798.96357 800.2845,801.63779 C 802.09097,804.312 804.40931,808.4125 805.43637,810.75 C 806.46343,813.0875 807.68541,815 808.15187,815 C 808.61834,815 808.90717,815.3375 808.79372,815.75 C 808.68027,816.1625 810.19148,819.875 812.15197,824 C 817.19155,834.60361 819,838.6969 819,839.5 C 819,839.88376 819.72088,841.84075 820.60196,843.84887 C 823.56531,850.60284 823.79886,851.46826 825.63521,862.5 C 828.9297,882.29128 827.97328,906.70494 822.97128,930.5 C 820.82801,940.69576 819.99909,947.39909 820.78445,948.18445 C 822.15676,949.55676 846.34414,949.29093 891,947.41275 C 897.325,947.14672 908.4625,946.98827 915.75,947.06062 C 925.0878,947.15333 929,946.85516 929,946.05077 C 929,945.28462 930.16837,945.12856 932.55386,945.57608 C 934.50848,945.94277 952.84598,945.69345 973.30386,945.02204 C 1015.2341,943.64592 1013.155,944.12027 1014.4268,935.63959 C 1015.0542,931.456 1015.3839,931.07834 1020.2958,928.91859 C 1023.1581,927.66001 1027.075,926.48961 1029,926.3177 C 1030.925,926.14579 1034.7022,925.72853 1037.3937,925.39045 L 1042.2874,924.77575 L 1041.5465,930.13788 C 1040.1516,940.23268 1037.9867,956.50099 1036.0423,971.5 C 1034.9728,979.75 1033.3931,990.55 1032.5319,995.5 C 1031.6707,1000.45 1030.9073,1007.3125 1030.8355,1010.75 C 1030.7637,1014.1875 1030.3597,1017 1029.9378,1017 C 1029.5159,1017 1028.964,1019.8125 1028.7113,1023.25 C 1028.4587,1026.6875 1027.4567,1034.1125 1026.4847,1039.75 L 1024.7174,1050 L 572.9301,1050 C 163.73106,1050 120.99487,1049.852 119.57293,1048.4301 z "
       style="fill:#000000" />
    <path
       id="path2273"
       d="M 701.28125 798.75 L 686.15625 799.1875 C 668.71884 799.68284 670.60278 798.5956 663.625 812 C 658.38325 822.06945 654.28792 831.9253 653.40625 836.625 L 652.78125 840 L 673.3125 840 L 693.84375 840 L 694.53125 833.25 C 695.09711 827.61005 696.61136 819.72657 700.75 801.125 L 701.28125 798.75 z M 771.8125 798.84375 C 771.22316 798.86585 770.82495 798.91109 770.71875 799 C 770.29396 799.35564 770.84609 802.52729 771.9375 806.0625 C 774.51088 814.39802 776.64989 824.78949 777.53125 833.25 L 778.21875 840 L 795.0625 840 C 805.62664 840 812.12784 839.62147 812.53125 838.96875 C 812.88463 838.39703 809.99224 831.53451 806.125 823.71875 C 797.01837 805.31408 793.03356 798.56019 791.9375 799.65625 C 791.43487 800.15891 786.89095 800.06045 781.28125 799.4375 C 777.24395 798.98919 773.58052 798.77745 771.8125 798.84375 z M 559.8125 798.9375 L 549.65625 799.21875 L 539.5 799.5 L 539.21875 820.71875 L 538.96875 841.90625 L 546.21875 842.21875 C 554.00863 842.53399 565.69878 842.11851 567.71875 841.46875 C 568.52296 841.21007 568.76741 839.92649 568.40625 837.78125 C 567.20787 830.66326 561.81639 805.31793 560.84375 802.21875 L 559.8125 798.9375 z M 707.96875 798.9375 L 706.875 801.71875 C 704.44968 807.93613 700.95786 824.01614 700.34375 831.78125 L 699.6875 840.03125 L 718.09375 839.78125 L 736.5 839.5 L 736.5 819.5 L 736.5 799.5 L 722.25 799.21875 L 707.96875 798.9375 z M 511.875 799.0625 C 505.3271 799.23387 505.55311 801.14552 503.09375 811.5 C 501.91803 816.45 500.55435 822.075 500.0625 824 C 499.57066 825.925 498.8449 830.7625 498.46875 834.75 L 497.8125 842 L 515.3125 842 L 532.84375 842 L 533.34375 839.25 C 533.62659 837.7375 533.78912 828.175 533.6875 818 L 533.5 799.5 L 520.3125 799.21875 C 517.43083 799.15791 515.12559 799.06964 513.28125 799.0625 C 512.78174 799.06057 512.31153 799.05108 511.875 799.0625 z M 481.34375 799.09375 C 480.32991 799.08157 479.05873 799.10449 477.4375 799.15625 L 469.84375 799.40625 L 464.34375 808.625 C 458.58885 818.2687 453.67565 829.18255 451.46875 837.25 L 450.1875 842 L 471.0625 842 C 491.93145 842 491.97289 841.99769 492.40625 839.75 C 492.64485 838.5125 493.33987 833.675 493.96875 829 C 494.59763 824.325 496.21948 816.10329 497.5625 810.71875 C 498.9055 805.33425 500 800.46435 500 799.90625 C 500 799.31958 497.9962 799.01128 495.25 799.1875 L 490.5 799.5 L 485.5 814.71875 C 480.86384 828.82854 478.83273 832.35468 477.4375 828.71875 C 477.16525 828.00928 478.75423 821.73951 480.96875 814.8125 C 483.18327 807.88547 485 801.47539 485 800.5625 C 485 799.49636 484.38527 799.1303 481.34375 799.09375 z M 757.3125 799.15625 C 755.98442 799.14452 754.41778 799.16758 752.59375 799.21875 L 742.5 799.5 L 742.21875 818.46875 C 742.06869 828.90178 742.16719 838.01431 742.4375 838.71875 C 742.80579 839.67847 746.5798 840 757.46875 840 L 772 840 L 772 835.1875 C 772 826.56753 766.60658 803.70718 763.75 800.21875 C 763.18064 799.52344 761.29675 799.19144 757.3125 799.15625 z M 571.15625 799.21875 C 568.81203 799.26395 567.18885 799.4333 566.9375 799.6875 C 566.49065 800.13943 567.42454 806.35 569.03125 813.5 C 570.638 820.65 572.50036 829.9875 573.15625 834.25 L 574.34375 842 L 592.78125 842 L 611.21875 842 L 610.5625 838.5625 C 609.30123 831.83917 605.73283 822.34251 600.25 811.21875 C 594.72233 800.00402 594.66477 799.92341 591.09375 799.875 C 589.11807 799.84821 583.0581 799.61421 577.625 799.34375 C 576.26672 799.27614 574.94078 799.2358 573.71875 799.21875 C 572.80223 799.20596 571.93766 799.20368 571.15625 799.21875 z M 363.71875 799.84375 L 364.40625 806.1875 C 365.22335 813.79282 368.83268 836.79458 369.59375 839.25 C 370.08393 840.83144 371.85712 841 388.0625 841 C 398.70018 841 406 840.62508 406 840.0625 C 406 836.92871 400.1703 821.84093 395.15625 812 L 389.3125 800.5 L 376.5 800.1875 L 363.71875 799.84375 z M 313.78125 800 C 308.68235 800.00749 303.529 800.27578 302.34375 800.59375 C 298.2643 801.68814 290.1071 825.27842 290.03125 836.1875 C 290.00608 839.80753 290.08342 839.89186 294.25 840.28125 C 296.5875 840.49973 303.9 840.64308 310.5 840.59375 L 322.5 840.5 L 322.78125 820.25 L 323.03125 800 L 313.78125 800 z M 329.28125 800 L 328.59375 805.75 C 328.22192 808.9125 328.24676 818.15612 328.625 826.28125 L 329.3125 841.03125 L 346.40625 840.78125 L 363.5 840.5 L 363.34375 838 C 363.19136 835.57703 359.58063 809.82315 358.46875 803.25 L 357.90625 800 L 343.59375 800 L 329.28125 800 z M 283.75 800.6875 C 282.31674 800.69605 280.79615 800.72069 279.25 800.78125 L 268 801.21875 L 264.59375 806.875 C 257.83609 818.07246 253.43122 827.77197 250.53125 837.75 L 249.875 840 L 267.28125 840 L 284.71875 840 L 285.28125 831.75 C 285.82024 823.95477 289.30262 811.20656 292.625 804.78125 C 293.8795 802.35508 293.82099 801.99565 292.25 801.21875 C 291.52571 800.86058 288.04977 800.66185 283.75 800.6875 z M 651.15625 845 L 649.65625 850.25 C 648.84097 853.14069 647.86904 856.95944 647.5 858.75 L 646.84375 862 L 733.15625 861.75 L 819.5 861.5 L 819.15625 858.5 C 818.96519 856.85 818.06522 853.25 817.15625 850.5 L 815.5 845.5 L 733.3125 845.25 L 651.15625 845 z M 248.28125 846 L 246.625 852.75 C 245.72341 856.46574 244.99856 860.2875 245 861.25 C 245.00246 862.90259 249.62004 863 328 863 C 406.39495 863 411.00346 862.90291 410.96875 861.25 C 410.94852 860.2875 410.14382 856.575 409.1875 853 L 407.4375 846.5 L 327.875 846.25 L 248.28125 846 z M 507.96875 847.9375 C 466.06231 847.97524 449.51016 848.17734 449.125 848.5625 C 448.30348 849.38405 446.10784 861.35072 446.625 862.1875 C 446.90178 862.63531 484.89496 863 531.0625 863 L 615 863 L 615 860.5625 C 615 859.2146 614.50182 855.83957 613.90625 853.0625 L 612.84375 848 L 558.65625 847.9375 C 538.71658 847.9189 521.93756 847.92492 507.96875 847.9375 z M 820.875 866.96875 L 802.84375 867.21875 L 784.84375 867.5 L 784.5625 886.5 C 784.34696 901.57424 783.84946 907.43816 782.15625 914.875 C 780.98242 920.03047 780.30883 924.71911 780.65625 925.28125 C 781.06626 925.94458 785.51884 926.07531 793.3125 925.65625 C 799.91689 925.30117 808.33313 925 812.03125 925 L 818.75 925 L 820.5 913.75 C 822.3824 901.67489 823.01689 879.50673 821.6875 871.71875 L 820.875 866.96875 z M 676 867 L 676 885.375 C 676 905.23511 675.50728 910 673.40625 910 C 672.31707 910 671.99817 905.82965 671.78125 888.75 L 671.5 867.5 L 658.875 867.21875 C 644.17485 866.89409 645.81612 865.3372 643.90625 881.53125 C 642.79254 890.97475 643.20085 914.00451 644.625 921.71875 L 645.21875 924.90625 L 652.84375 925.25 C 668.58739 925.94813 687.53292 925.95937 688.59375 925.25 C 689.3234 924.76209 689.9137 914.84318 690.34375 895.75 L 691 867 L 683.5 867 L 676 867 z M 715.15625 867 C 697.42221 867 697.21818 867.0227 696.625 869.25 C 696.29543 870.4875 695.7461 883.50074 695.375 898.15625 C 694.72484 923.83109 694.75597 924.80035 696.59375 925.28125 C 697.6428 925.55573 706.15 925.73626 715.5 925.65625 L 732.5 925.5 L 733.375 897.78125 C 733.85075 882.53029 733.97726 869.36778 733.65625 868.53125 C 733.16393 867.24831 730.26768 867 715.15625 867 z M 740.125 867 L 739.59375 871.25 C 738.43835 880.65603 738.23856 923.83231 739.34375 924.9375 C 740.0809 925.67468 745.91784 925.96394 756.96875 925.78125 L 773.5 925.5 L 774.8125 921.5 C 777.8421 912.29011 779.25673 901.08976 779.375 885.5 C 779.44178 876.7 779.13246 868.9375 778.6875 868.25 C 778.08735 867.32271 773.00562 867 759 867 L 740.125 867 z M 263.90625 868 C 253.87484 868.0714 243.84161 868.42796 243.46875 869.03125 C 242.3973 870.76486 241.66987 892.14448 242.4375 899.3125 C 242.95481 904.14318 243.65993 906.27049 244.90625 906.9375 C 245.85887 907.44731 251.77185 908.62365 258.0625 909.53125 C 264.35316 910.43882 271.75 911.50495 274.5 911.90625 C 277.25 912.30752 279.76176 912.49951 280.09375 912.34375 C 280.42575 912.18801 280.97988 905.41105 281.3125 897.28125 C 281.64512 889.15147 282.55542 879.575 283.34375 876 C 284.13208 872.425 284.59165 869.1625 284.34375 868.75 C 283.98432 868.15192 273.93766 867.9286 263.90625 868 z M 356.28125 868.15625 C 353.75293 868.14719 350.94776 868.14299 347.90625 868.1875 L 327.5 868.5 L 327.53125 893.1875 C 327.54241 906.7653 327.76907 918.11282 328.0625 918.40625 C 328.35593 918.69965 336.91707 919.7679 347.0625 920.78125 C 362.03515 922.27679 365.71007 922.3855 366.59375 921.34375 C 367.19254 920.63784 368.22863 914.25214 368.90625 907.15625 C 370.39289 891.58863 370.57952 870.20452 369.25 868.875 C 368.81948 868.44447 363.8662 868.18343 356.28125 868.15625 z M 383.75 868.1875 C 383.00053 868.16807 382.25885 868.17808 381.5625 868.21875 L 376.5 868.5 L 375.71875 886.5 C 375.29094 896.4 374.35361 908.55 373.625 913.5 C 372.79888 919.11235 372.65654 922.7382 373.25 923.125 C 373.77343 923.46611 378.53576 924.03425 383.84375 924.40625 C 403.07604 925.75414 408.49717 926.24899 408.90625 926.625 C 409.84301 927.48605 410.89793 926.89827 411.375 925.25 C 414.83105 913.3094 415.24154 875.23353 411.96875 869.9375 C 411.32971 868.90341 409.03253 868.5 403.78125 868.5 L 396.5 868.5 L 395.875 880.5 C 395.18076 893.5656 393.13728 909.02441 392.125 909 C 391.77578 908.99159 390.91744 908.58777 390.1875 908.125 C 389.12494 907.45134 389.06917 906.10346 389.9375 901.40625 C 390.53401 898.17945 391.30152 889.82127 391.65625 882.8125 L 392.3125 870.0625 L 389.46875 869 C 388.2981 868.5549 385.9984 868.2458 383.75 868.1875 z M 304.90625 868.40625 C 298.33897 868.45341 291.82511 868.61534 290.90625 868.84375 C 288.74939 869.37988 285.92167 896.39121 286.90625 907 L 287.5 913.46875 L 293 914.3125 C 300.74521 915.47173 318.15894 917.74062 320.25 917.875 C 321.87196 917.97926 322 916.22758 322 893.59375 L 322 869.15625 L 319.25 868.65625 C 318.0971 868.44271 311.47353 868.35909 304.90625 868.40625 z M 477.28125 868.65625 C 474.52207 868.70971 474.10288 869.31552 473 871.5 C 471.82701 873.82338 471.5 878.28635 471.5 891.25 C 471.5 903.48393 471.17142 908.09591 470.28125 908.4375 C 469.61135 908.69458 468.73444 908.38223 468.3125 907.71875 C 467.04955 905.73278 466.72496 885.05238 467.84375 877.03125 C 468.41669 872.92368 468.76676 869.45426 468.625 869.3125 C 467.91108 868.59855 446.06215 868.62814 445.34375 869.34375 C 444.27847 870.40487 444.22082 915.24994 445.28125 920.25 L 446.09375 924 L 465.78125 924 L 485.5 924 L 485.5 903.25 C 485.5 889.19373 485.96337 880.46932 486.90625 876.21875 C 487.67178 872.76764 488.06968 869.72593 487.8125 869.46875 C 487.55533 869.21159 484.46283 868.8917 480.9375 868.75 C 479.38174 868.68747 478.20098 868.63843 477.28125 868.65625 z M 533.21875 868.96875 L 513.4375 869.21875 L 493.6875 869.5 L 492.28125 876 C 490.69206 883.35004 490.04861 911.87717 491.3125 919.28125 L 492.125 924.03125 L 511.3125 923.78125 L 530.5 923.5 L 531.125 916.5 C 531.46582 912.65 532.0651 900.36807 532.46875 889.21875 L 533.21875 868.96875 z M 539.21875 869 L 538.65625 874.25 C 538.33487 877.1375 537.81119 887.6 537.5 897.5 C 537.18882 907.4 536.69573 917.4125 536.40625 919.75 L 535.875 924 L 552.3125 924 L 568.71875 924 L 569.9375 904.75 C 570.60837 894.1625 571.58741 882.19393 572.09375 878.15625 C 572.60013 874.11857 572.7464 870.40606 572.4375 869.90625 C 572.12861 869.40644 564.54166 869 555.5625 869 L 539.21875 869 z M 578.28125 869 L 577.0625 881.25 C 575.73155 894.71392 574.31644 921.41936 574.84375 923 C 575.05012 923.61855 582.34515 924 594.03125 924 L 612.9375 924 L 613.90625 920.25 C 616.11657 911.70553 617.30041 899.66687 617.3125 885.9375 C 617.31957 877.91977 616.99223 870.83225 616.59375 870.1875 C 616.08135 869.35842 610.39301 869 597.09375 869 L 578.28125 869 z M 78.75 871.75 C 77.333652 871.74069 75.333668 872.49841 72.1875 873.71875 C 65.877378 876.16634 65.046104 876.81938 65.03125 879.09375 C 65.021973 880.51461 65.271294 881.92754 65.59375 882.25 C 65.916209 882.57248 68.180107 888.59954 70.625 895.65625 C 73.069891 902.71296 76.648775 913 78.59375 918.5 C 80.538726 924 82.739755 930.3 83.46875 932.5 C 84.197747 934.7 86.87203 942.35 89.4375 949.5 C 92.002972 956.65 95.405992 966.325 96.96875 971 C 98.531506 975.675 101.90985 985.35 104.5 992.5 C 107.09015 999.65 110.07874 1008.2 111.125 1011.5 C 112.17126 1014.8 113.42689 1018.4 113.9375 1019.5 C 114.4481 1020.6 116.32601 1025.775 118.09375 1031 C 119.86148 1036.225 121.74821 1041.0625 122.28125 1041.75 C 123.68442 1043.5598 137.89368 1043.4493 138.59375 1041.625 C 138.88141 1040.8753 137.95451 1036.9378 136.53125 1032.875 C 135.10799 1028.8121 131.94919 1019.65 129.53125 1012.5 C 127.11331 1005.35 121.69847 989.6 117.5 977.5 C 113.30152 965.4 108.11543 950.325 105.96875 944 C 103.82207 937.675 98.407876 921.925 93.9375 909 C 89.467128 896.075 84.898735 882.8 83.78125 879.5 C 81.885671 873.90224 81.110581 871.76552 78.75 871.75 z M 94.6875 891.21875 C 94.524399 891.22188 94.43221 891.22404 94.40625 891.25 C 94.198571 891.45772 94.982939 894.63792 96.15625 898.3125 C 97.701143 903.15077 98.780787 905 100.03125 905 C 100.98095 905 110.01842 907.00525 120.125 909.4375 C 135.84015 913.21954 153.6398 916.99401 174.5 920.96875 C 179.47367 921.91642 190.59824 923.59813 224 928.46875 C 233.625 929.87227 246.225 931.68852 252 932.53125 C 257.775 933.37396 265.2 934.52035 268.5 935.0625 C 301.52204 940.48766 365.32977 948.86875 397 951.9375 C 443.76638 956.46899 450.68712 956.99334 496 959.46875 C 587.32359 964.45766 678.20863 967.23223 716.5 966.21875 C 725.85 965.97128 795.6841 965.84291 871.6875 965.90625 L 1009.875 966 L 1010.4688 961.75 C 1010.7988 959.40986 1011.1649 955.7 1011.2812 953.5 L 1011.5 949.5 L 1001.5 949.78125 C 937.06314 951.54262 913.95607 952.20158 888 953 C 829.79586 954.79036 804.50604 954.36515 702.5 950.03125 C 661.9635 948.30901 602.30633 944.84247 512.5 938.96875 C 504.25 938.42913 490.525 937.56456 482 937.03125 C 429.03704 933.71803 361.88133 928.21219 335 925 C 305.04139 921.42011 276.71087 917.8589 272 917.0625 C 268.975 916.55111 263.35 915.65302 259.5 915.09375 C 255.65 914.53449 249.35 913.59748 245.5 913 C 230.26116 910.63511 218.0733 908.86409 184 904 C 143.70546 898.24779 120.18554 894.78859 105.15625 892.46875 C 100.17146 891.6993 95.829206 891.19683 94.6875 891.21875 z M 101.4375 911.3125 C 101.37308 911.32045 101.33175 911.3245 101.3125 911.34375 C 101.00456 911.65172 102.97699 918.3561 105.6875 926.21875 L 110.625 940.5 L 117.5625 941.6875 C 200.05139 955.89097 245.58203 962.90159 295.5 969.0625 C 308.12439 970.62062 354.57743 976.01078 364.5 977.0625 C 369.45 977.58719 378.9 978.64389 385.5 979.4375 C 392.1 980.23109 402.225 981.3754 408 981.96875 C 413.775 982.56208 421.65 983.48718 425.5 984.03125 C 431.82966 984.92575 457.3222 987.42685 486.5 990 C 525.57797 993.44626 599.38696 997.38465 643 998.34375 C 661.26105 998.7453 1005 999.04192 1005 998.65625 C 1005 998.4536 1005.8886 992.53623 1006.9688 985.5 C 1008.0487 978.46373 1008.6542 972.24042 1008.3125 971.6875 C 1007.8983 971.01741 948.63934 970.82091 830.59375 971.09375 C 647.80954 971.51621 629.66637 971.31156 556 967.96875 C 447.65225 963.05218 378.46053 957.05095 308.5 946.5 C 303.55 945.75346 294.55 944.41255 288.5 943.53125 C 282.45 942.64998 275.25 941.53204 272.5 941.03125 C 267.20267 940.06661 258.33038 938.73778 246 937.0625 C 230.77045 934.99331 223.46207 933.84643 222 933.34375 C 221.175 933.0601 217.99052 932.67148 214.9375 932.46875 C 208.68821 932.05378 167.98707 925.55368 158 923.375 C 154.41913 922.59386 149.025 921.47517 146 920.90625 C 140.21898 919.81896 136.78942 919.0531 115.1875 913.9375 C 108.32399 912.31214 102.4038 911.19327 101.4375 911.3125 z M 576.40625 929.21875 C 571.27785 929.2155 565.71482 929.23418 559.90625 929.25 C 521.18244 929.35548 471.80426 929.85199 471.28125 930.375 C 470.94242 930.71382 473.33959 931.02163 476.59375 931.0625 C 479.84791 931.1034 483.4 931.32874 484.5 931.53125 C 485.6 931.73375 497.525 932.57569 511 933.4375 C 524.475 934.29929 541.8 935.43878 549.5 935.96875 C 557.2 936.49871 572.275 937.44478 583 938.0625 C 593.725 938.68022 602.67708 939.37164 602.90625 939.59375 C 603.13539 939.81584 604.55797 940 606.0625 940 C 608.23168 940 609.03571 939.341 609.90625 936.84375 C 611.97763 930.90184 611.55713 930.25017 605.25 929.5625 C 603.21784 929.34093 591.79145 929.2285 576.40625 929.21875 z M 646.78125 931 L 647.46875 935.75 C 647.85142 938.3625 648.47649 940.79444 648.84375 941.15625 C 649.96147 942.25742 721.16421 945.84736 782.5 947.90625 C 795.15 948.33086 807.20514 948.7594 809.28125 948.84375 C 812.3546 948.96858 813.21989 948.58194 813.90625 946.75 C 814.36987 945.5125 815.04599 941.4625 815.4375 937.75 L 816.15625 931 L 731.46875 931 L 646.78125 931 z M 1034.7812 931.875 C 1033.5002 931.85589 1030.7829 932.26469 1027.7812 932.96875 C 1021.7041 934.39419 1020.369 935.08567 1019.75 937.09375 C 1019.3423 938.41617 1017.8769 947.6 1016.5 957.5 C 1015.123 967.4 1012.8444 983.15 1011.4375 992.5 C 1005.2439 1033.6616 1004.0835 1042.3186 1004.5625 1043.0938 C 1005.193 1044.1139 1019.0466 1043.4142 1020 1042.3125 C 1020.3805 1041.8729 1021.2301 1037 1021.9062 1031.5 C 1022.5824 1026 1023.5592 1019.25 1024.0625 1016.5 C 1024.5658 1013.75 1026.7785 998.45 1029 982.5 C 1031.2214 966.55 1033.7162 948.83932 1034.5312 943.15625 C 1035.3464 937.47315 1035.7957 932.49061 1035.5312 932.0625 C 1035.4651 931.95547 1035.2083 931.88137 1034.7812 931.875 z M 113.71875 947 C 113.21002 947.0121 113 947.08243 113 947.21875 C 113 947.48807 115.22374 954.21026 117.9375 962.125 C 122.34099 974.96789 123.12066 976.51024 125.1875 976.59375 C 126.46124 976.64521 133.8 977.86143 141.5 979.28125 C 164.37225 983.49874 177.6821 985.75172 192.5 987.96875 C 200.2 989.12082 207.625 990.3074 209 990.59375 C 229.11195 994.78218 297.99046 1002.8732 352.5 1007.4688 C 362.4 1008.3033 375.225 1009.4393 381 1009.9688 C 386.775 1010.498 396.9 1011.3962 403.5 1011.9688 C 410.1 1012.5414 420.225 1013.456 426 1014 C 466.14156 1017.781 552.44246 1022.3258 634.5 1025 C 683.8981 1026.6098 678.16117 1026.5724 846 1026.5312 L 1000.5 1026.5 L 1001.6875 1020.5 C 1002.3439 1017.2 1003.0189 1012.3121 1003.1875 1009.6562 L 1003.5 1004.8438 L 823.5 1004.4375 C 652.1925 1004.0488 603.4041 1003.3231 560.5 1000.5 C 556.1 1000.2105 541.25 999.30589 527.5 998.5 C 513.75 997.69413 497.55 996.57189 491.5 996 C 465.57136 993.54901 459.49654 992.92976 441 991 C 430.275 989.88106 415.875 988.32178 409 987.5 C 402.125 986.67822 384.125 984.62728 369 982.96875 C 333.47062 979.07274 294.40551 974.46906 276 972 C 272.425 971.52042 265.9 970.67097 261.5 970.09375 C 257.1 969.51652 245.85 967.87069 236.5 966.46875 C 227.15 965.06684 215 963.30086 209.5 962.53125 C 197.89802 960.9078 172.37757 956.69474 142.5 951.46875 C 123.58385 948.16008 115.92324 946.94755 113.71875 947 z M 125.4375 982.21875 C 125.13732 982.53033 133.45779 1007.3165 134.34375 1008.75 C 134.66988 1009.2777 137.31513 1009.9991 140.21875 1010.3438 C 146.95683 1011.1435 155.00889 1012.2917 172.5 1014.9375 C 180.2 1016.1022 191.45 1017.7101 197.5 1018.5312 C 203.55 1019.3525 210.75 1020.4377 213.5 1020.9375 C 216.25 1021.4374 222.1 1022.3481 226.5 1022.9375 C 230.9 1023.527 242.6 1025.1129 252.5 1026.4688 C 278.93818 1030.0894 293.81044 1031.6016 330 1034.4375 C 381.57556 1038.479 386.55848 1038.929 404 1040.75 C 418.86644 1042.3021 441.04319 1042.4999 628 1042.9688 C 865.92605 1043.5654 997.08066 1043.3256 998.15625 1042.25 C 998.56671 1041.8395 999.05606 1039.4727 999.21875 1037 L 999.5 1032.5 L 818 1031.9062 C 718.175 1031.5726 634.7 1031.023 632.5 1030.6875 C 630.3 1030.3521 613.2 1029.5874 594.5 1029 C 544.84449 1027.4401 475.68429 1023.5399 435.5 1020.0312 C 424.56567 1019.0766 415.4829 1018.2948 382 1015.4688 C 365.07319 1014.04 354.82293 1013.1698 329.5 1010.9375 C 311.44043 1009.3455 280.40843 1006.1254 272.5 1005.0312 C 268.65 1004.4987 263.475 1003.8555 261 1003.5938 C 253.89375 1002.8425 221.6626 998.25797 208.5 996.125 C 205.2 995.59025 199.14716 994.66366 195.0625 994.0625 C 184.53902 992.51373 148.43232 986.33352 136.09375 983.96875 C 130.3749 982.87271 125.5799 982.07094 125.4375 982.21875 z M 138.46875 1016.0312 C 137.53022 1016.0717 137 1016.2161 137 1016.4688 C 137 1018.0928 145.45536 1041.5968 146.21875 1042.0938 C 147.78661 1043.1142 346.77597 1043.1762 347.40625 1042.1562 C 347.736 1041.6228 343.01386 1040.9367 336.25 1040.5312 C 312.40882 1039.1026 276.78981 1035.3403 245.5 1030.9375 C 237.25 1029.7765 227.35 1028.4119 223.5 1027.9062 C 219.65 1027.4006 214.025 1026.6024 211 1026.125 C 207.975 1025.6477 195.6 1023.8604 183.5 1022.1562 C 171.4 1020.4522 157.45 1018.3619 152.5 1017.5312 C 146.84598 1016.5825 142.21704 1016.0749 139.53125 1016.0312 C 139.12838 1016.0247 138.78159 1016.0178 138.46875 1016.0312 z "
       style="fill:#ffcc00;fill-opacity:1" />
  </g>
  <path
     style="fill:#eeeeee;fill-opacity:1"
     d="M 1064.7511,739.42803 C 1085.4673,736.37565 1099.6663,731.65237 1122.75,720.13481 L 1138,712.52587 L 1138,359.76294 L 1138,7 L 572.5,7 L 7,7 L 7,352.47968 L 7,697.95935 L 11.25,700.10189 C 13.5875,701.28029 18.618856,704.55193 22.430792,707.37221 C 35.733533,717.21432 46.181246,723.95022 52.5,726.75858 C 64.068134,731.90002 72.437973,733.39132 89.5,733.35109 C 106.26403,733.31156 109.85245,732.71901 125.85844,727.34727 C 134.60725,724.41111 142.33059,720.95828 158.5,712.7544 C 165.1,709.40575 175.675,704.07413 182,700.90635 C 210.14321,686.81122 232.90846,682.86091 261.5,687.11122 C 279.47075,689.78268 294.55865,695.93334 333.5,716.46236 C 360.91641,730.91569 387.88497,737.31162 411.77309,735.02581 C 430.99747,733.18626 446.97938,728.14167 469.5,716.80469 C 473.9,714.58971 484.54987,709.23616 493.16638,704.90791 C 509.12387,696.89214 526.91248,690.35362 539.5,687.87717 C 544.03635,686.9847 553.18706,686.52062 565.5,686.5586 C 582.84884,686.6121 585.40353,686.85343 594.89704,689.33564 C 609.86827,693.25007 615.44961,695.57367 644.94051,710.16958 C 681.15865,728.095 694.64023,732.77642 716.42544,734.99242 C 738.47579,737.23538 761.98757,732.40544 785.5,720.80267 C 790.45,718.35998 803.28016,711.8528 814.01146,706.34227 C 845.57061,690.13663 865.6666,684.86469 890.39902,686.30293 C 914.8708,687.726 932.61332,694.465 966.8005,715.3219 C 991.40443,730.33226 1007.5215,737.51907 1023.5,740.60492 C 1031.7602,742.20018 1049.341,741.6986 1064.7511,739.42803 z "
     id="path2197" />
  <g
     id="g2326">
    <path
       id="path2195"
       d="M 566.45855,598.60512 C 559.31674,596.87005 552.49525,593.35279 548.91932,589.56162 L 545.84931,586.30682 L 378.79715,585.75613 C 278.15557,585.42436 211.49753,584.83744 211.1225,584.27978 C 210.78012,583.77066 209.73249,583.07123 208.79442,582.72549 C 207.19644,582.13652 207.07852,570.72212 206.92519,401.79843 C 206.83519,302.63429 206.80165,205.75 206.85067,186.5 L 206.93981,151.5 L 227.33047,151.23014 L 247.72113,150.96027 L 253.98645,144.4356 L 260.25176,137.91092 L 410.37588,137.70546 C 542.11242,137.52517 560.86288,137.68372 563.46267,139 C 566.09333,140.3319 568.10834,142.70561 571.52806,148.50112 C 572.42204,150.01618 572.94372,149.62796 575.52806,145.52437 C 577.16263,142.92889 579.71515,140.17413 581.20034,139.40266 C 583.48297,138.21698 607.58741,138 737.02586,138 L 890.15103,138 L 896.44065,144.70455 L 902.73028,151.4091 L 921.45533,151.45455 L 940.18038,151.5 L 941.76189,155.5 C 943.18947,159.11069 943.31669,180.18184 943.06896,372 C 942.81553,568.23279 942.66842,584.55203 941.14726,585.17971 C 940.24127,585.55356 864.85032,585.89106 773.61183,585.92971 L 607.72366,586 L 603.33153,590.04853 C 594.22093,598.44638 579.68736,601.81898 566.45855,598.60512 z "
       style="fill:#000000" />
    <path
       id="path2193"
       d="M 754.25 144.71875 C 673.0926 144.81789 583.98808 145.48952 582.40625 146.5 C 581.24633 147.24094 579.10885 150.12821 577.65625 152.90625 L 575 157.96875 L 575 227.71875 C 575.00749 266.09139 575.29336 298.5125 575.625 299.75 C 576.3653 302.51249 577.53734 302.54734 584 300 C 590.38891 297.48173 592 297.4704 592 300 C 592 301.90984 592.22017 301.88168 596.25 299.3125 C 598.5875 297.82226 601.4 295.88666 602.5 295 C 603.6 294.11335 611.025 291.44016 619 289.0625 C 626.975 286.68484 636.65 283.72263 640.5 282.46875 C 644.35 281.21489 653.125 278.52217 660 276.5 C 666.875 274.47783 673.625 272.46964 675 272.03125 C 676.375 271.59287 679.525 270.67106 682 270 C 684.475 269.32893 687.54912 268.39897 688.8125 267.90625 C 692.42208 266.49849 694.63965 266.83849 696.125 269.03125 C 697.4541 270.99336 697.65616 270.90226 702.5 266.28125 C 708.04175 260.99443 706.94724 261.3568 739 254.4375 C 756.90801 250.57167 781.40494 245.95518 787 245.40625 C 788.925 245.2174 793.425 244.60979 797 244.0625 C 800.575 243.51522 806.36457 242.79705 809.875 242.4375 L 816.25 241.78125 L 815.65625 245.125 C 815.31743 246.97498 815.44185 249.15328 815.9375 249.9375 C 816.67035 251.09698 817.49622 250.77761 820.375 248.25 C 822.67403 246.23144 825.48525 244.9021 828.375 244.46875 C 835.30358 243.42974 861.21676 245.28289 877.46875 247.96875 C 889.68534 249.98772 888.51741 254.37508 888.46875 206.78125 C 888.40493 144.33249 888.54316 147.17524 885.25 145.78125 C 883.62846 145.09486 841.03557 144.76458 788.28125 144.71875 C 777.29077 144.7092 765.84391 144.70459 754.25 144.71875 z M 396.21875 144.90625 C 325.11816 144.8924 266.06536 145.15194 264.96875 145.5 C 262.99009 146.128 262.96524 146.90718 263.4375 247.3125 C 263.69926 302.95987 263.93736 389.45 263.96875 439.5 C 264.00273 493.70652 264.41533 531.09369 264.96875 531.96875 C 265.77865 533.24938 284.19902 533.44175 408.6875 533.46875 L 551.5 533.5 L 556.0625 536.1875 C 558.5659 537.65921 562.39088 540.80882 564.5625 543.1875 C 568.22371 547.19776 568.57754 547.35521 569.40625 545.5 C 569.89778 544.39961 570.48016 515.17398 570.71875 480.5625 C 570.95735 445.95102 570.85608 416.08554 570.5 414.1875 L 569.875 410.75 L 563.40625 411.40625 C 559.85968 411.76961 555.94626 412.49458 554.71875 413.03125 C 553.49121 413.56791 545.75 414.89625 537.5 415.96875 C 529.25 417.04124 518.675 418.77496 514 419.84375 C 509.325 420.91255 501.225 422.31876 496 422.9375 C 490.775 423.55624 482.225 424.7765 477 425.65625 C 469.58776 426.90426 464.97271 427.05091 456 426.40625 C 439.23376 425.20164 436.97153 425.34281 432 427.6875 C 429.525 428.85476 425.925 430.29606 424 430.90625 C 422.075 431.51645 418.54989 433.13054 416.15625 434.5 C 413.76262 435.86946 411.28761 436.99661 410.65625 437 C 410.0249 437.00339 408.15 437.71762 406.5 438.59375 C 404.85 439.46987 398.775 442.18206 393 444.625 C 387.225 447.06794 381.6 449.47972 380.5 449.96875 C 379.4 450.45776 375.575 452.05461 372 453.53125 C 368.425 455.00788 361.75599 457.98812 357.1875 460.125 C 349.29694 463.81574 348.38268 464 339 464 C 332.73865 464 324.18128 464.91394 315.59375 466.5 L 302.03125 469 L 292.40625 466.5 C 287.11002 465.12393 281.23979 464 279.375 464 C 276.06869 464 275.12671 462.72662 276.75 460.46875 C 277.62211 459.25571 285.90866 455.57619 302.96875 448.8125 C 309.82863 446.09279 315.90362 443.51097 316.46875 443.0625 C 317.03388 442.61402 318.625 441.90349 320 441.5 C 321.375 441.0965 323.85 440.22203 325.5 439.53125 C 334.35928 435.82228 359.70145 426.33755 363 425.5 C 365.63442 424.83108 374.43487 421.60278 379.5 419.4375 C 381.15 418.73213 386.04593 417.18689 390.375 416.03125 C 394.70407 414.8756 400.18425 413.05217 402.5625 411.96875 C 404.94077 410.88533 407.24482 409.99755 407.6875 410 C 408.13018 410.00244 412.19964 408.84253 416.71875 407.40625 C 422.95417 405.42448 425.11094 404.28256 425.625 402.65625 C 427.47781 396.79463 432.88905 386.86545 437.1875 381.5 C 447.15149 369.06267 451.54496 364.12868 452.6875 364.0625 C 453.33584 364.02493 455.50353 362.44541 457.5 360.5625 C 461.46719 356.82096 465.13054 354.1924 469 352.28125 C 471.61044 350.99193 472.47457 350.43452 479.9375 345.46875 C 492.33468 337.21974 531.83978 318.95262 557.5 309.59375 C 563 307.58778 568.07437 305.59833 568.78125 305.15625 C 569.80995 304.5129 570.07187 289.7504 570.03125 231.25 L 569.96875 158.15625 L 566.6875 152.34375 L 563.40625 146.5 L 554.46875 145.71875 C 549.5406 145.2868 541 144.9371 535.5 144.9375 C 530 144.93789 467.31934 144.9201 396.21875 144.90625 z M 256 150 C 255.57336 150 253.46546 152.04168 251.34375 154.53125 C 249.22204 157.02083 245.98442 160.73333 244.125 162.78125 C 242.26557 164.82918 239.6677 168.11015 238.34375 170.09375 L 235.9375 173.71875 L 235.96875 272.59375 C 236.0171 399.50186 236.89964 551.00191 237.59375 552.125 C 238.49757 553.58739 241.11744 551.52605 250.40625 542 L 259.3125 532.875 L 258.6875 343.6875 C 258.34307 239.63655 257.7583 153.4875 257.40625 152.25 C 257.0542 151.0125 256.42664 150 256 150 z M 896.59375 153.9375 C 896.19631 153.91857 895.83815 154.0362 895.4375 154.21875 L 893.125 155.25 L 893.3125 204.0625 L 893.5 252.84375 L 895.8125 255.3125 C 902.7052 262.65 902.44869 279.62193 895.3125 288.34375 L 893 291.15625 L 893.09375 411.75 C 893.14889 478.07784 893.43009 532.9665 893.71875 533.71875 C 894.5309 535.83512 901.84474 539.18256 904.09375 538.46875 C 906.03687 537.85203 906.07901 536.82786 905.96875 485.15625 C 905.77407 393.91478 905.80603 392 907.5 392 C 908.80953 392 909.02532 401.33307 909.25 467.65625 L 909.5 543.3125 L 914.34375 546.65625 C 920.09395 550.61883 920.62704 550.69357 921.34375 547.75 C 921.64509 546.5125 921.87867 463.53993 921.875 363.375 L 921.875 181.25 L 909.8125 167.21875 C 900.71438 156.62605 898.31601 154.01954 896.59375 153.9375 z M 918.4375 158.40625 C 916.48877 158.38096 914.99067 158.44398 914.4375 158.65625 C 913.65367 158.95704 913 160.03681 913 161.03125 C 913 162.84507 914.2759 164.5799 921.28125 172.3125 C 923.35682 174.60351 925.41509 178.0334 925.875 179.96875 C 926.33492 181.90409 926.68546 219.79644 926.625 264.15625 C 926.56454 308.51604 926.83916 344.59749 927.25 344.34375 C 927.6608 344.09001 927.52015 345.15501 926.9375 346.6875 C 926.35486 348.21999 926.24068 349.57037 926.6875 349.71875 C 927.1343 349.86712 927.16006 365.41194 926.75 384.25 C 926.17143 410.82902 926.26952 451.48446 926.96875 484.5 C 926.98038 485.05 926.76271 501.25 926.5 520.5 C 926.23727 539.75 926.00641 556.2875 926 557.25 C 925.98894 558.9092 917.83437 559 768.6875 559 C 639.82038 559 611.04411 559.22912 609.5625 560.3125 C 607.86885 561.55089 607.86035 561.85223 609.375 564.78125 C 610.26463 566.50157 611 569.9364 611 572.40625 C 611 574.87613 611.43925 577.14151 611.96875 577.46875 C 612.49827 577.79597 630.83575 578.31252 652.71875 578.625 C 674.60177 578.9375 692.56551 579.26351 692.65625 579.34375 C 692.74699 579.42397 704.89699 579.38543 719.65625 579.25 C 734.41551 579.11455 788.42723 578.88957 839.6875 578.75 C 908.91878 578.56148 933.19868 578.20793 934.0625 577.34375 C 934.93884 576.46708 935.24102 525.03503 935.25 368.6875 C 935.25652 254.57385 934.98157 160.77637 934.65625 160.25 C 934.15785 159.44358 924.28369 158.48213 918.4375 158.40625 z M 220.75 159.34375 C 217.73895 159.40859 217.30474 159.85151 216.375 160.78125 C 214.78462 162.37162 214.70313 175.52225 215.34375 368.96875 C 215.94822 551.49885 216.2232 575.62846 217.5625 576.96875 C 219.56343 578.97117 260.87799 579.5 419.84375 579.5 C 538.01887 579.5 539.17502 579.48065 540.625 577.5 C 541.53393 576.25837 541.96375 573.79367 541.78125 571 L 541.5 566.5 L 387.34375 566 C 302.55203 565.725 232.91873 565.26253 232.625 564.96875 C 232.05656 564.40021 231.05517 380.68739 230.90625 249.78125 L 230.8125 171.0625 L 234.40625 166.6875 C 238.71406 161.4304 238.88878 160.04606 235.25 159.875 C 228.8503 159.57413 224.82854 159.37065 222.21875 159.34375 C 221.67505 159.33814 221.18015 159.33449 220.75 159.34375 z M 886.5625 297 C 885.88926 297 880.8609 300.00036 875.40625 303.65625 C 869.9516 307.31213 863.02868 311.46642 860 312.90625 C 856.97132 314.34609 852.32389 316.97073 849.6875 318.75 C 847.0511 320.52928 844.73037 322 844.53125 322 C 844.33213 322 841.05284 323.82073 837.21875 326.03125 C 830.80611 329.72842 829.47144 330.07515 820.625 330.65625 L 811 331.3125 L 811 334 C 811 336.34303 810.21657 337.07002 805.25 339.25 C 791.8178 345.14583 781.60709 349.2144 767.5 354.3125 C 741.30994 363.77721 736.03456 365.28252 727.8125 365.5625 C 718.51315 365.87917 716.91421 366.34833 713.1875 369.8125 C 711.59064 371.29681 708.09993 373.34934 705.40625 374.375 C 693.04105 379.08325 686.68839 381.17924 676 384.09375 C 669.675 385.81846 663.6 387.60443 662.5 388.0625 C 659.79548 389.18874 639.90624 394.22158 621 398.5625 C 612.475 400.51987 602.35 402.95039 598.5 403.96875 C 594.65 404.98713 588.24426 406.37227 584.25 407.0625 C 580.25571 407.75273 576.52734 408.88944 575.96875 409.5625 C 575.30094 410.36716 575.00399 431.94713 575.125 472.625 C 575.22623 506.65014 575.249 536.42046 575.15625 538.78125 C 574.99157 542.9739 576.30064 547 577.84375 547 C 578.26811 547 580.9217 544.59283 583.75 541.65625 C 588.15377 537.0839 589.93527 536.00591 596.1875 534.15625 L 603.5 532 L 745.40625 532 C 823.45323 532.0067 887.57824 531.76576 887.90625 531.4375 C 888.56838 530.77487 888.8443 302.82578 888.1875 299.25 C 887.96019 298.0125 887.23573 297 886.5625 297 z M 823.28125 537.15625 C 803.35602 537.15589 777.39875 537.19016 743.5 537.25 L 599.5 537.5 L 594 540.59375 C 590.975 542.29785 588.37563 544.35663 588.21875 545.15625 C 588.04048 546.0649 590.47811 547.95202 594.71875 550.21875 L 601.5 553.84375 L 756.75 553.9375 C 888.38769 553.99763 912 553.79934 912 552.625 C 912 551.86328 910.7625 550.40418 909.25 549.40625 C 906.63941 547.6838 900.80766 547.59416 794.1875 547.40625 C 732.41478 547.29739 681.63861 546.9511 681.34375 546.65625 C 678.96263 544.27509 684.13681 543.95791 720.8125 544.09375 C 742.0824 544.17252 789.94241 544.18738 827.15625 544.125 C 890.98045 544.01803 894.81323 543.90075 894.59375 542.25 C 894.46581 541.2875 892.82336 539.7148 890.9375 538.75 C 888.51597 537.51114 883.05694 537.15732 823.28125 537.15625 z M 261.90625 538.0625 L 252.28125 547.4375 C 244.42556 555.09166 242.85237 557.09311 243.8125 558.25 C 244.46086 559.03123 244.69799 559.95825 244.34375 560.3125 C 243.98949 560.66671 310.47224 560.97481 392.09375 560.96875 L 540.5 560.9375 L 546.59375 557.71875 C 559.9967 550.62563 561 549.96856 561 548.0625 C 561 545.58665 554.47982 540.20807 550 539 C 547.88333 538.42923 490.27189 538.06701 404.21875 538.0625 L 261.90625 538.0625 z M 577 552.71875 C 567.36579 552.77868 563.09119 553.99938 556.375 558.625 C 548.95999 563.73192 546.63163 567.68945 547.25 574.125 C 547.87998 580.68145 551.93636 586.36207 558.65625 590.03125 C 564.94432 593.46467 567.02124 593.85141 578.5 593.625 C 585.36624 593.48956 588.588 592.92347 592.0625 591.28125 C 597.73172 588.60167 603.53253 583.38286 604.9375 579.6875 C 610.08842 566.13964 596.07874 552.60013 577 552.71875 z "
       style="fill:#ed1c24;fill-opacity:1" />
    <path
       id="path2185"
       d="M 272.40865,551.8522 C 272.05974,551.28764 272.20308,550.39692 272.72719,549.87281 C 273.31154,549.28846 291.05068,549.03208 318.59006,549.20994 C 357.71443,549.46263 363.5,549.69324 363.5,551 C 363.5,552.30843 357.7238,552.52418 318.27152,552.68933 C 288.21928,552.81513 272.83018,552.53424 272.40865,551.8522 z "
       style="fill:#000000;fill-opacity:1" />
    <path
       id="path2175"
       d="M 468.5,330.98376 C 456.4,330.62643 417.11929,330.4879 381.20953,330.67593 C 345.29978,330.86395 314.80836,330.73902 313.45083,330.3983 C 310.52869,329.66489 308.94996,325.2789 311.11465,323.90798 C 312.88911,322.7842 493.05285,322.74713 494.82418,323.87018 C 495.62055,324.37509 496.01915,326.06301 495.82418,328.10486 C 495.43937,332.13495 498.07563,331.85719 468.5,330.98376 z "
       style="fill:#000000;fill-opacity:1" />
    <path
       id="path2173"
       d="M 489.77649,279.44315 C 489.47022,279.13689 449.90772,278.86156 401.85982,278.83132 C 353.81192,278.80108 313.4875,278.55288 312.25,278.27976 C 310.5499,277.90455 310,277.07648 310,274.89159 L 310,272 L 403,272 L 496,272 L 496,274.41821 C 496,278.29039 494.94629,280 492.55968,280 C 491.33519,280 490.08275,279.74942 489.77649,279.44315 z "
       style="fill:#000000;fill-opacity:1" />
    <path
       id="path2171"
       d="M 489,225.86231 C 487.35961,225.19899 456.2418,224.9629 398.5,225.1757 L 310.5,225.5 L 310.18664,222.25 L 309.87328,219 L 402.93664,219 L 496,219 L 496,221.06574 C 496,223.83151 494.21856,227.01508 492.71482,226.93661 C 492.04667,226.90175 490.375,226.41832 489,225.86231 z "
       style="fill:#000000;fill-opacity:1" />
    <path
       id="path2167"
       d="M 801.65625 251.21875 C 801.00342 251.06574 791.01012 252.57498 779.46875 254.5625 C 767.92738 256.55003 756.62896 258.42513 754.34375 258.71875 C 750.89772 259.16151 746.88824 261.78943 730.84375 274.125 C 699.46798 298.2478 697.5022 299.83934 687.28125 309.25 C 676.13649 319.51126 673.50286 321.44076 672.03125 320.53125 C 668.6007 318.41106 686.25196 300.7568 713.28125 279.28125 C 724.71866 270.19388 733.92208 262.57833 733.71875 262.375 C 733.51544 262.17168 730.9216 262.63382 727.9375 263.375 C 724.95338 264.11618 718.9 265.49702 714.5 266.46875 C 706.89525 268.14824 706.17147 268.56341 699.96875 274.625 C 696.37994 278.13214 693.13495 281 692.75 281 C 692.36508 281 692.30834 279.7083 692.625 278.125 C 692.94565 276.52181 692.7218 274.96259 692.125 274.59375 C 691.11358 273.96867 683.10856 276.0859 666 281.53125 C 661.875 282.84416 652.425 285.78342 645 288.0625 C 608.11093 299.38552 611.48752 298.02169 591.75 309.65625 C 585.83065 313.1455 580.54633 316 580.03125 316 C 579.51617 316 579.73923 314.45807 580.53125 312.5625 C 582.14326 308.70438 581.31089 307.46359 577.75 308.53125 C 574.9093 309.38296 553.17464 318.41536 546.3125 321.59375 C 543.45903 322.91538 540.70289 324 540.1875 324 C 538.53273 324 518.95787 333.1468 508.28125 338.90625 C 496.27459 345.38318 476.1009 358.52388 460.21875 370.21875 C 453.93714 374.84424 444.24564 384.64126 443.4375 387.1875 C 443.12216 388.18107 442.51675 389 442.09375 389 C 441.12141 389 435.57498 399.88747 436.21875 400.53125 C 436.96079 401.27327 492.72292 381.84314 498.09375 378.96875 C 499.07955 378.44117 502.04082 374.74991 504.6875 370.78125 C 510.57711 361.94983 520.17638 351.62214 529.5 344.0625 C 538.13343 337.06247 554.88612 325.57362 555.53125 326.21875 C 555.79264 326.48016 551.23703 330.91973 545.375 336.09375 C 539.51299 341.26776 531.96164 348.2 528.59375 351.5 C 522.53348 357.43814 510.42094 372.76469 511.1875 373.53125 C 511.82197 374.16574 516 372.83411 516 372 C 516 370.2178 530.52666 352.71041 536.65625 347.09375 C 544.55861 339.85264 562.93292 325.58918 563.5625 326.21875 C 563.8041 326.46033 562.74391 327.76498 561.21875 329.09375 C 547.1997 341.30758 543.13 345.01853 540.0625 348.375 C 535.1413 353.75978 527 364.64482 527 365.84375 C 527 366.38922 526.4375 367.03572 525.75 367.28125 C 523.44059 368.10605 525.88137 369.25883 528.53125 368.59375 C 531.73516 367.78962 533.93207 365.41819 539.40625 356.9375 C 544.55824 348.95594 547.36395 345.60115 556.65625 336.25 C 563.31318 329.55089 566 327.70118 566 329.84375 C 566 330.7111 564.03611 333.37088 554.75 345.15625 C 547.5241 354.32691 542.60494 363 544.625 363 C 545.46729 363 551.87695 361.15951 558.84375 358.90625 C 584.71621 350.53836 583.91238 350.86311 586.21875 347.03125 C 590.60562 339.74277 601.01545 327.25086 609.125 319.5 C 616.77448 312.18884 638.01142 295 639.40625 295 C 641.23183 295 639.36384 297.27509 634.875 300.5 C 619.78987 311.33758 601.19527 330.84127 593.03125 344.375 L 590.6875 348.21875 L 593.09375 347.5625 C 599.06026 345.86664 600.6696 344.76169 601.78125 341.6875 C 603.004 338.306 612.52209 328.2096 613.53125 329.21875 C 613.8528 329.54035 612.71328 331.39242 611 333.34375 C 608.16485 336.57282 605.60387 342.29137 606.5625 343.25 C 606.77645 343.46393 612.02044 342.31658 618.21875 340.71875 C 624.41706 339.12092 631.075 337.45543 633 337.03125 C 634.925 336.60707 641 335.0487 646.5 333.5625 C 652 332.07631 659.86267 329.9738 663.96875 328.875 C 668.07481 327.77619 679.09984 324.64406 688.46875 321.90625 C 708.81382 315.96094 743.40967 306.29638 758 302.5 C 772.14378 298.8198 795.06657 292.11307 814.5 285.9375 C 838.72428 278.23948 842.58373 277.05406 854.5 273.875 C 860.55 272.26094 866.4 270.698 867.5 270.375 C 869.06189 269.91639 869.25891 270.03612 868.34375 271 C 867.69925 271.67884 867.35722 272.75452 867.59375 273.375 C 867.86014 274.07383 856.68389 278.38058 838.25 284.6875 C 821.88301 290.28725 794.775 299.57292 778 305.3125 C 761.225 311.05208 743 317.13597 737.5 318.84375 C 715.49919 325.67516 681.33123 337.32751 667.8125 342.59375 C 643.87359 351.91918 640.75805 353.07591 633.5 355.5 C 629.65 356.78586 618.625 360.59345 609 363.96875 C 592.90365 369.61345 574.71453 375.87294 545 385.96875 C 487.03409 405.66328 468.77916 412.08749 464.5 414.3125 L 459.5 416.90625 L 468.625 416.96875 C 473.64358 416.99437 483.09357 416.13579 489.625 415.09375 C 496.15644 414.05171 505.775 412.69809 511 412.0625 C 519.64911 411.01039 527.83172 409.69925 533.75 408.4375 C 536.85009 407.77657 536.56601 406.47709 533 405 C 527.54041 402.73856 529.87901 402.0064 540.5 402.65625 C 548.53676 403.14798 552.68948 402.9263 558.25 401.65625 C 566.16797 399.84773 629.59831 385.74863 642.5 382.9375 C 661.7361 378.74618 705 367.60448 705 366.84375 C 705 366.46095 703.39143 365.17635 701.4375 363.96875 C 699.48358 362.76115 698.02107 361.62814 698.1875 361.46875 C 698.35394 361.30937 704.73375 360.9727 712.34375 360.6875 C 724.6642 360.22578 727.01975 359.83652 733.84375 357.15625 C 752.41549 349.8618 771.74805 342.701 784.84375 338.28125 C 792.62354 335.65561 798.9991 333.18235 799 332.8125 C 799.00091 332.44266 797.425 331.63531 795.5 331 C 793.575 330.36469 792 329.48676 792 329.0625 C 792 328.63823 796.43688 328.04815 801.84375 327.71875 C 815.11712 326.91009 825.3063 322.76632 845.5 310.03125 C 850.45 306.90957 857.2 302.84718 860.5 301 C 871.58044 294.79769 883.46238 286.31867 888.25 281.1875 C 892.23229 276.91944 893 275.45295 893 272.1875 C 893 267.33413 889.73085 262.30307 885 259.875 C 883.075 258.88702 878.35 257.63634 874.5 257.09375 C 870.65 256.55114 862.21671 255.36432 855.75 254.4375 C 848.77271 253.4375 840.90836 252.92982 836.40625 253.21875 C 829.69456 253.64948 827.64068 254.32388 818.65625 258.96875 C 803.9274 266.5834 795.00525 272.93164 781.90625 285.15625 C 771.25324 295.09812 767 297.86888 767 294.84375 C 767 294.20623 771.39536 289.14372 776.78125 283.59375 C 787.49334 272.5553 803.54885 251.66234 801.65625 251.21875 z M 711.53125 320.1875 C 711.18318 320.1886 710.52364 320.32838 709.5 320.5625 C 707.85 320.93989 703.8 322.06615 700.5 323.0625 C 694.64961 324.82889 684.33934 327.85307 663 334.125 C 657.225 335.82235 650.025 338.02893 647 339 C 643.975 339.97107 638.125 341.76998 634 343 C 629.875 344.23003 622.675 346.49044 618 348.03125 C 613.325 349.57205 604.775 352.24383 599 353.96875 C 593.225 355.69368 587.55252 357.50073 586.40625 357.96875 C 585.26 358.43676 574.00997 362.01294 561.40625 365.9375 C 548.80255 369.86205 537.6 373.46448 536.5 373.9375 C 535.4 374.41053 531.125 375.79631 527 377.03125 C 497.70673 385.80102 387.44277 424.59217 373.5 431.03125 C 372.4 431.53924 367.70221 433.3469 363.0625 435.03125 C 352.44035 438.88743 317.46646 452.71618 313.59375 454.59375 C 311.99674 455.36801 310.14918 456 309.46875 456 C 308.78831 456 306.24132 456.93074 303.84375 458.0625 L 299.5 460.125 L 309.5 459.5625 C 315 459.25153 325.125 458.73048 332 458.40625 C 338.875 458.08202 344.66042 457.40279 344.84375 456.90625 C 345.02708 456.40969 345.54049 456 346 456 C 346.45949 456 351.02409 454.03116 356.15625 451.625 C 366.70842 446.67773 377.98502 441.68687 389 437.0625 C 393.125 435.33072 398.525 433.02649 401 431.96875 C 403.475 430.911 410.45 428.00719 416.5 425.5 C 422.55 422.99281 428.4 420.56503 429.5 420.09375 C 446.74785 412.70422 493.1628 395.30032 512.5 388.96875 C 574.93883 368.52446 588.46306 363.85238 618 352.5 C 635.98591 345.58719 684.84621 329.50095 699.9375 325.53125 C 705.13177 324.16492 710.08176 322.34104 710.9375 321.46875 C 711.82233 320.56681 712.11137 320.18566 711.53125 320.1875 z "
       style="fill:#eeeeee;fill-opacity:1" />
  </g>
</svg>
