<?xml version="1.0" encoding="UTF-8"?>
<svg version="1.1" viewBox="0 0 520 640.63" xml:space="preserve" xmlns="http://www.w3.org/2000/svg" xmlns:xlink="http://www.w3.org/1999/xlink"><path d="m508.6 277.2 1.4293-264.88h-500.02l1.4301 264.88c3.4635 141.47 77.664 277.1 248.57 351.14 170.93-74.049 245.11-209.67 248.57-351.14z" fill="#1c63b7" stroke-width="8.3337"/><path transform="translate(-1.1454 -2.2907)" d="m156.72 45.743 7.7633 27.843 25.177-14.198-14.198 25.177 27.843 7.7633-27.843 7.7633 14.198 25.177-25.177-14.198-7.7633 27.843-7.7633-27.843-25.177 14.198 14.198-25.177-27.843-7.7633 27.843-7.7633-14.198-25.177 25.177 14.198z" fill="#fcdb00" stroke="#000" stroke-linecap="round" stroke-linejoin="round" stroke-width="2" style="paint-order:markers fill stroke"/><path d="m380.07 52.518c-0.80466-0.01978-1.6135-0.01332-2.4238 0.02148-8.8362-0.0059-17.48 4.4156-23.09 11.162-0.1956 0.42012-0.25573 0.77368-0.23242 1.0859-1.9669-0.73849-4.0086-1.293-6.1113-1.623-3.3835-0.62643-6.8321-0.85222-10.27-0.8418-15.518 0.19316-30.854 3.6968-45.225 9.4707-6.5205 2.7132-13.413 4.7459-19.514 8.3457-3.7895 3.071-3.0149 8.6698-2.6562 12.961 0.11641 0.89231-0.64201 2.3087-1.3945 2.3125-2.2408 2.1964-5.4881 5.7379-3.2383 8.9746 5.0583 3.5504 11.695 2.5994 17.531 3.1484 4.2244 0.0781 8.5848 0.50974 12.314 2.7852 0.16479 0.0768 0.326 0.1706 0.49023 0.25-4.6919-0.95691-9.6755-0.8757-14.369-1.0742-6.6612-0.52902-12.646 2.843-18.486 5.3984-6.2362 2.8039-13.361 0.22326-19.73 2.2578-2.5805 1.1728-3.3806 4.6246-1.5332 6.8125 2.0628 3.6788 5.1148 7.7469 9.8106 7.5957 7.6632-0.43952 12.102-8.5186 19.717-9.2676 5.7814-0.79804 11.598 0.20712 17.342 1.1641-6.9648 1.0425-14.794 0.85415-20.785 5.1797-1.4905 2.8604 1.2551 6.1395 3.6816 7.5586 2.5677 1.9152 5.6653 1.9622 8.7324 1.7734 5.4183 0.17607 10.958-0.35589 16.299 0.27148 2.012 0.65432 4.0066 1.3767 5.998 2.1152-1.8794 1.2023-2.6937 3.8156-4.5195 5.1621-5.0806 5.877-12.021 9.6261-19.223 12.268-12.657 4.5006-23.992 11.828-36.143 17.422-2.1802 0.79142-4.2952 2.6575-6.627 1.2656-19.78-5.1281-39.763-10.641-60.352-10.781-4.2386 0.13381-8.6429-0.69689-12.77 0.11718-4.0603 3.0803-6.7828 7.6922-7.2852 12.785-0.28532 4.733-3.2028 8.6423-6.5566 11.762-4.818 4.6765-9.2564 9.8672-15.459 12.787-5.0797 2.553-5.4487 8.6637-7.7383 13.205-2.3705 5.6133-7.4618 9.3995-10.129 14.799-1.6067 3.4363 1.6175 6.6657 4.7891 7.4297 2.8963 1.2267 6.8265 1.3728 8.6992-1.6387-0.936 4.5752 3.4694 9.4617 8.2031 8.1562 5.1031-1.0929 8.4738-5.6152 11.701-9.3594 5.6012-6.4029 4.9663-15.519 8.8906-22.713 2.134-4.1109 7.3253-5.5235 9.2559-9.7031 1.1179-4.3673 1.3697-9.036 1.0957-13.467 11.471-2.646 24.283 0.57572 32.748 8.9805 3.268 2.7292 11.786 11.348 15.257 13.782-7.4501 0.99758-3.886-1.1873-19.198 3.9916-9.5397 4.9894-16.238 14.429-18.754 24.803-1.7434 7.4413-6.0626 13.844-10.729 19.756-7.718 9.9554-14.311 21.329-15.789 34.055-0.20929 2.9393-1.2842 6.0273-0.55665 8.9297 1.617 0.91468-1.4408 1.805-1.9492 2.8906-4.2164 4.6727-5.9498 11.058-7.1309 17.102-0.9969 4.4363 1.0202 10.396 6.084 11.047 4.8208 0.53182 8.3847-3.9692 9.5625-8.1777 0.13241 4.3457 2.6587 10.025 7.7559 9.7598 4.8821-0.63577 7.9144-5.247 10.701-8.8379 2.1965-3.4148 4.6138-7.0024 5.4961-10.959-3.3309-8.367-8.4937-17.208-6.3066-26.543 0.35038-1.2721 0.21738-3.6217 2.1992-2.4531 4.6672 1.1732 9.389-1.3484 13.055-3.9492 1.0938-2.3591-0.30526-5.3172-0.0762-7.9219-0.18384-6.5525-0.58733-13.586 2.7539-19.592 1.9726-3.8657 4.3694-7.8658 7.3242-10.846 6.1196 4.6285 14.015 5.9364 21.502 6.2539 0.11847 6.8314 1.764 13.76 3.8125 20.324 4.7199 13.065 12.955 24.41 21.65 35.092 5.9594 7.3227 11.714 14.798 17.17 22.492-9.2062 2.3433-17.973 6.6082-25.646 12.211-13.555 9.87-20.53 26.726-21.006 43.172-0.82141 19.452 6.0733 39.906 21.271 52.664 3.534 3.2583 8.0171 5.5978 11.969 7.9883-4.3639 10.507-12.659 18.583-18.629 28.17-4.5829 6.788-8.9303 13.73-13.35 20.625-8.5218 0.52054-16.888 3.6993-23.174 9.5605-4.4437 4.3248-8.978 8.9822-11.486 14.73-0.64566 3.0472 3.2139 4.2988 5.4492 5.0762 4.2136 1.4226 8.8514-0.34539 11.574-3.7402-1.8143 3.2837 0.73912 6.9811 4.0039 7.9434 5.1176 1.7326 11.96 1.2727 14.973-3.8574 2.232-3.4364 2.7494-7.5933 3.5156-11.527 5.615-1.3302 12.532-3.2473 14.666-9.3184 1.1236-3.5104 0.46109-7.4023 2.3184-10.732 4.0948-9.9075 13.35-16.693 23.289-20.031 5.5227-2.1775 11.959-3.3068 16.26-7.6836 1.2483-3.29-1.0019-6.7428-2.0469-9.8184-2.56-5.7044-6.0736-11.6-4.5293-18.068 1.676-7.8598 8.0429-13.496 12.883-19.521 0.0756-0.31861 0.0791-0.59738 0.0371-0.84961 4.1508 1.1969 8.7421 0.88692 12.877-0.15235 1.9662-0.7013 4.3969-1.5354 5.9043-3.0801-0.45324 3.3068-0.77083 6.6261-0.56836 9.9922-0.43725 9.381 2.3873 18.598 6.8086 26.787 0.38944 0.33045 0.82769 0.52509 1.2852 0.66797-0.47705 1.3642 1.1984 3.2392 1.9766 4.3418 5.862 7.7613 13.749 15.646 24.027 16.281 2.036 0.10808 4.1656-0.0911 6.0664-0.73828 0.54044 6.7245-2.8129 13.007-7.3789 17.707-12.39 13.503-25.34 26.765-39.256 38.812-6.1629 5.4468-12.06 11.947-13.777 20.252-0.56852 2.8314-1.0953 5.9223-0.24609 8.7031 4.1615 2.5769 10.374 5.086 14.602 1.3145 0.86116-1.1642 0.95111-1.1921 0.83984 0.33789-0.0424 4.3812 4.203 7.4115 8.3145 7.3984 5.1444 0.7373 10.764-1.4675 13.141-6.2871 4.6818-7.9628 8.6275-18.581 5.9948-27.923 3.6326-1.5298 9.2232-7.0948 10.865-12.014 4.2158-10.596 12.26-18.981 19.309-27.732 4.8237-5.8018 10.48-11.243 17.74-13.893 3.0828-1.445 7.0184-2.7378 8.2402-6.2578-1.2319-2.412-4.5257-2.7661-6.7832-3.9824-2.844-0.40212-3.8713-2.0821-3.3438-4.877-0.25926-3.8726 0.0672-7.8628-0.70118-11.664-0.12354-0.11076-0.26246-0.17875-0.39453-0.26563 1.185-1.3214 0.55695-3.9124 1.6465-5.5176 4.3123-8.4929 11.364-15.352 15.072-24.211 3.9016-9.1836 5.3082-19.222 6.25-29.088 0.0679-6.1412 0.87893-12.586-1.7539-18.355 0.11155-1.3261 2.5128-1.7004 3.6562-2.4746 4.6358-2.3495 11.533-3.2323 15.037 1.4473 1.4758 1.6971 1.6784 3.9811 2.3242 5.9961 1.8025 2.0588 4.0396-0.71492 4.9043-2.3106 0.49787-0.71894 0.8989-1.8594 1.0977-2.502 2.8553 4.4731 0.93761 10.227 3.7012 14.707 1.1299 1.9046 4.1044 1.5941 4.5918-0.66992 0.59797-1.5337 0.84904-3.2013 0.78515-4.8438 2.8917 3.221 2.8446 7.839 4.8281 11.467 2.1688 1.9598 4.6309-1.0303 5.3301-3.0215 0.61252-1.1052 0.6697-2.746 0.89843-3.7012 6.2884 3.1861 15.37 2.2305 19.268-4.1524 0.89342-2.9858-2.992-4.2083-5.1797-4.8184-4.1795-0.83672-8.8371-1.0033-12.045-4.2305-8.1481-7.3688-14.61-16.474-23.07-23.51-6.8071-4.873-15.792-2.692-22.957 0.15625-4.6528 1.6788-8.7659 4.5691-13.031 6.9102-8.916-5.4982-14.557-15.079-16.625-25.094-2.8959-14.333-2.4593-29.009-3.0293-43.545 0.0486-9.1208-0.97108-18.248 0.58789-27.279 3.1271-13.065 12.451-23.091 20.611-33.24 7.6219-9.0426 14.388-18.922 18.678-30.006 2.9928-7.8275 6.8132-15.248 10.982-22.479 3.177-5.6484 5.2031-12.38 3.2402-18.793-0.27771-1.4165-0.91445-3.9206-2.4922-3.9238 4.5959-5.5198 8.0411-11.959 9.752-18.967-0.0734-0.39041-0.22514-0.69448-0.42774-0.9414 1.698-0.19175 3.3174-0.75233 4.7656-1.9609 5.4106-4.5696 3.9564-13.983-1.9336-17.461 1.6061-1.0606 0.7427-3.9797 0.98438-5.7949-0.76818-15.128-6.6665-30.26-17.781-40.787-8.3905-8.4343-19.752-14.742-31.822-15.039z" fill="#fff" style="paint-order:markers fill stroke"/><path d="m311.68 109.45c-0.0811 0.67944-0.22512 1.3514-0.42951 2.0044-0.50931 1.6273-1.3987 3.1343-2.5771 4.3667m-42.379-11.311c-0.81688-1.1407-1.0375-2.685-0.57268-4.0088 0.45593-1.2984 1.4842-2.2996 2.477-3.2524s2.0175-1.9596 2.4624-3.2618c0.42797-1.2528 0.26467-2.6189 0.14317-3.9372-0.15207-1.65-0.22956-3.3249 0.0698-4.9546 0.29931-1.6298 1.0048-3.2261 2.221-4.3515 0.99361-0.91945 2.262-1.4744 3.5077-2.0044 4.1134-1.7502 8.2641-3.4115 12.426-5.0434 6.7776-2.6576 13.602-5.243 20.645-7.0866 6.6975-1.7532 13.562-2.8264 20.458-3.4421 8.0368-0.71754 16.343-0.78244 23.927 1.9708 8.891 3.2275 16.27 10.393 19.758 19.185m-74.876 27.083c-3.5047-0.56702-7.0303-1.0049-10.567-1.3124-4.8006-0.41735-9.7272-0.5824-14.347 0.78744-2.6989 0.80023-5.2159 2.1025-7.7659 3.2948-2.55 1.1924-5.19 2.2924-7.9829 2.6446-3.8411 0.48438-7.7542-0.47198-11.597 0-1.155 0.14186-2.3188 0.42289-3.2968 1.0534-0.489 0.31526-0.92597 0.71663-1.2554 1.1962-0.3294 0.47959-0.54892 1.0388-0.60205 1.6182-0.0669 0.72991 0.13 1.464 0.43945 2.1284 0.30945 0.66444 0.7288 1.2705 1.1354 1.8804 1.3034 1.9548 2.5708 4.0587 4.5815 5.2742 1.6463 0.99532 3.6633 1.284 5.5676 1.0105 1.9043-0.27351 3.7031-1.0802 5.3134-2.1328 2.1429-1.4007 3.9812-3.235 6.1586-4.5815 2.9059-1.797 6.3231-2.6561 9.7334-2.8634 3.8343-0.23306 7.6706 0.32546 11.454 0.99175 2.0302 0.35756 4.0548 0.74664 6.0729 1.167m16.691-7.7425c-2.2652-0.72321-4.4705-1.6341-6.5859-2.7203-3.4624-1.7778-6.7222-4.0402-10.452-5.1542-5.6103-1.6759-11.654-0.58123-17.467-1.2885-2.7103-0.32981-5.372-1.0557-7.8744-2.1476m1.778 24.461c3.2933-1.902 6.928-3.2107 10.678-3.8447 5.4974-0.92952 11.313-0.44567 16.465-2.5771 2.1135-0.8744 4.0273-2.1582 6.0132-3.2929 2.3761-1.3577 4.8702-2.5088 7.4449-3.4361m-40.601 13.151c-0.0448 1.7417 0.53894 3.4929 1.6198 4.8594 1.0518 1.3298 2.5378 2.2743 4.129 2.8597 1.5912 0.58537 3.2897 0.82895 4.9824 0.92703 5.6016 0.32457 11.267-0.90145 16.805 0 2.6455 0.43061 5.1878 1.3372 7.694 2.2875 4.1738 1.5827 8.3005 3.3011 12.553 4.6569 3.9474 1.2584 7.9954 2.2008 12.093 2.8153m-159.7 42.033c2.8036-0.65402 5.6812-0.99019 8.56-1 7.0195-0.0239 14.077 1.952 19.901 5.8705 4.8007 3.23 8.6497 7.6528 12.885 11.595 2.9558 2.7508 6.1171 5.2806 9.4488 7.5616m-88.86 22.036c-0.35411 1.4865-0.31888 3.0639 0.10124 4.5331 0.45851 1.6034 1.4139 3.11 2.8346 3.9832 0.7734 0.47535 1.6629 0.75107 2.5664 0.83884 0.90356 0.0878 1.8208-0.01 2.6979-0.24379 2.6674-0.71234 4.8349-2.6218 6.7829-4.5783 3.0888-3.1021 5.9466-6.551 7.5928-10.607 1.4698-3.6217 1.9117-7.5666 2.9359-11.339 0.83382-3.0708 2.1252-6.1336 4.4544-8.3015 1.1024-1.026 2.3986-1.8156 3.6233-2.692s2.4089-1.8742 3.1596-3.1798c0.92272-1.6048 1.1059-3.5177 1.2148-5.3656 0.17883-3.0332 0.21263-6.0749 0.10124-9.1114m-4.252-23.386c-3.5466 2.1975-6.1582 5.8537-7.0866 9.9213-0.55063 2.4124-0.53531 4.9519-1.3478 7.2891-0.69495 1.999-1.9661 3.7524-3.4021 5.307-1.436 1.5546-3.0468 2.9363-4.5639 4.4118-2.8845 2.8055-5.4807 5.9921-8.9089 8.099-1.2349 0.75893-2.5572 1.3637-3.827 2.0626-1.2698 0.69891-2.5041 1.5066-3.4621 2.5943-1.0479 1.1899-1.7203 2.6643-2.2338 4.1644-0.51348 1.5001-0.88274 3.047-1.4107 4.542-1.5378 4.3545-4.3733 8.1348-7.4916 11.541-1.2005 1.3114-2.4677 2.605-3.2637 4.1948-0.39803 0.79486-0.67166 1.6598-0.72768 2.547-0.056 0.88718 0.11285 1.7976 0.54932 2.572 0.4396 0.77996 1.1321 1.395 1.8986 1.8576 0.76656 0.46257 1.6094 0.78287 2.4546 1.0783 0.93243 0.32592 1.8813 0.62628 2.8618 0.74584 0.98049 0.11955 2.0018 0.0503 2.9088-0.34089 0.69978-0.30179 1.3099-0.78515 1.8349-1.3375 0.52502-0.55238 0.97026-1.1747 1.4047-1.8008 1.9776-2.8502 3.771-5.828 5.3656-8.9089m103.16-48.999c-6.5235-1.7757-13.071-3.4632-19.64-5.0619-6.2394-1.5185-12.502-2.9576-18.83-4.0495-11.953-2.0626-24.121-2.8783-36.243-2.4297m139.3-26.119c-3.541 5.8664-8.6144 10.799-14.578 14.173-5.6125 3.1756-11.892 4.9472-17.818 7.4916-6.7151 2.8835-12.955 6.7507-19.438 10.124-4.154 2.1613-8.4126 4.1216-12.756 5.8718m-32.241 337.13c-0.9727 1.0079-1.8453 2.1123-2.6008 3.2918-0.63519 0.99169-1.1928 2.0495-1.4737 3.1932-0.28095 1.1437-0.26899 2.3854 0.20324 3.4643 0.51366 1.1735 1.5348 2.0712 2.6788 2.6478 1.1439 0.57655 2.4113 0.86086 3.6743 1.0746 2.533 0.42872 5.2244 0.57696 7.5881-0.42952 1.7989-0.766 3.2844-2.163 4.3666-3.7914s1.7831-3.4835 2.2908-5.3716c0.56346-2.0952 0.89939-4.2514 1-6.4187m-72.128-206.87c-0.11686-3.3908 0.0669-6.7918 0.54838-10.15 0.83297-5.8099 2.5595-11.486 5.0395-16.805 2.5727-5.5184 5.9398-10.634 9.5927-15.505 3.6473-4.8635 7.642-9.5895 9.9729-15.204 1.4807-3.5667 2.243-7.389 3.5466-11.024 2.7356-7.6286 7.974-14.412 14.905-18.612 4.1341-2.5054 8.8275-4.0816 13.636-4.5815 5.9978-0.62357 12.143 0.40146 18.04-0.85903 7.2272-1.5449 13.252-6.3152 19.471-10.308 4.2089-2.7025 8.6154-5.0972 13.173-7.1586m-99.944 124.22c-0.43077 1.459-0.8488 2.9218-1.254 4.3881-0.69732 2.5232-1.3844 5.1174-2.8967 7.2542-0.8933 1.2622-2.0744 2.34-3.4764 2.9926s-3.0305 0.85977-4.5214 0.44949c-1.6146-0.44432-2.9935-1.5964-3.847-3.0371-0.98187-1.6573-1.2885-3.6466-1.1908-5.5704 0.0978-1.9239 0.57652-3.806 1.0743-5.6669 1.2482-4.6666 2.7362-9.4852 6.0572-12.993 2.0557-2.1714 4.7534-3.7274 7.6623-4.4197m24.26 14.376c-1.027 2.5016-2.2131 4.9378-3.5488 7.2891-1.827 3.2162-3.9572 6.2999-6.6762 8.8076-1.0621 0.9796-2.2269 1.877-3.561 2.4317-1.3342 0.55477-2.8589 0.74439-4.2343 0.30168-1.0854-0.34935-2.0265-1.075-2.745-1.9604s-1.2257-1.9261-1.6082-3.0003c-1.3357-3.7516-1.1501-8.0208 0.50618-11.642m16.4-32.497c-1.1607 2.7751-1.7172 5.8011-1.6198 8.8076 0.1383 4.2675 1.5653 8.3815 3.1384 12.351 1.2196 3.0777 2.5366 6.1168 3.9482 9.1114m9.4151-33.915c-1.0605 0.80817-2.1778 1.5419-3.3408 2.1939-2.4785 1.3895-5.2621 2.4216-8.099 2.2605-1.1828-0.0671-2.3534-0.34259-3.4421-0.8099m24.601-42.014c-1.572 1.7258-3.0275 3.5577-4.3532 5.4792-2.4284 3.5198-4.4342 7.379-5.4668 11.529-1.5078 6.0592-0.88471 12.421-0.20248 18.628 0.10017 0.91125 0.20141 1.8224 0.30372 2.7334m89.899-32.89c-0.13104 2.1848-1.0859 4.3104-2.6322 5.8594-1.1555 1.1576-2.6176 1.9882-4.1736 2.4924s-3.2048 0.68911-4.84 0.65225c-3.2704-0.0737-6.4506-1.0162-9.5917-1.9298-9.549-2.7776-19.247-5.3724-29.179-5.8718-2.5624-0.12882-5.1298-0.11732-7.694-0.20247-6.7327-0.22357-13.662-1.189-19.438-4.6569-0.91551-0.54974-1.7954-1.1589-2.6322-1.8223m80.274 219.74c-0.0416-2.1142-0.40502-4.2218-1.0738-6.228-1.3759-4.1273-4.005-7.7502-5.3637-11.883-0.97411-2.9631-1.2665-6.1635-0.72108-9.2346 0.86108-4.8485 3.7183-9.1036 6.8722-12.885 2.3366-2.8018 4.8747-5.4356 7.5881-7.8744m-36.008 28.813c-4.634-2.0998-8.9639-4.8693-12.813-8.1959-6.7896-5.8675-12.034-13.444-15.479-21.73-3.4443-8.2862-5.1115-17.268-5.243-26.241-0.20035-13.671 3.3679-27.746 11.988-38.359 5.4703-6.7345 12.754-11.836 20.568-15.608 4.6613-2.2502 9.5372-4.0555 14.54-5.3833m-26.355 166.85c0.92342-3.336 2.3718-6.526 4.2757-9.4168 4.2144-6.3992 10.625-11.22 17.753-14.031 5.279-2.0813 11.002-3.1344 15.892-6.0132 1.2687-0.74691 2.4685-1.6108 3.5793-2.5771m-61.241 30.578c2.0448-3.1471 4.0727-6.3051 6.0836-9.474 4.1976-6.615 8.328-13.287 13.05-19.539 3.6521-4.8351 7.6708-9.4383 10.61-14.737 1.0889-1.9631 2.0231-4.0119 2.7912-6.1213m-28.421 66.921c2.085-0.33773 4.1419-0.84841 6.1428-1.5251 2.1878-0.73988 4.3588-1.7116 6.0109-3.3254 1.0693-1.0445 1.8877-2.3304 2.4736-3.7056 0.93906-2.2039 1.2877-4.6562 1-7.0345m-54.711 22.94c1.45-2.5889 3.0777-5.0783 4.8678-7.4449 4.6366-6.1297 10.511-11.516 17.61-14.46 3.9475-1.6371 8.2185-2.4899 12.492-2.4943m-11.49 16.525c-1.5114 2.0998-3.0873 4.1532-4.7246 6.1564-1.4612 1.7877-3.0118 3.5696-5.011 4.7246-1.5323 0.8853-3.294 1.3686-5.0635 1.3924-1.7695 0.0238-3.5428-0.41157-5.1016-1.2492-1.4122-0.75888-2.647-1.8455-3.5793-3.1498m116.97 32.929c-0.26592 0.65987-0.4783 1.3413-0.63437 2.0354-0.32785 1.4581-0.40406 2.9865-0.0891 4.4474 0.31499 1.4609 1.0361 2.8515 2.1417 3.8571 0.95861 0.87189 2.173 1.4301 3.4307 1.7422 1.2577 0.31206 2.5626 0.38838 3.8584 0.38381 2.2261-8e-3 4.5143-0.26976 6.4792-1.3161 1.5518-0.82631 2.826-2.1059 3.8571-3.5299s1.8353-2.9969 2.6221-4.5691c1.6353-3.2677 3.2235-6.5893 4.1507-10.124 0.80332-3.0622 1.0974-6.2623 0.8099-9.4151-0.16198-1.776-0.50744-3.5352-1.0291-5.2405m57.093-172.34c-5.116-3.0983-9.4363-7.4986-12.44-12.671-4.432-7.6308-5.8977-16.603-6.6821-25.392-1.234-13.827-0.98003-27.738-1.4317-41.612-0.16652-5.1151-0.42639-10.274 0.42951-15.319 1.1547-6.8074 4.306-13.141 8.1754-18.86s8.4661-10.9 12.871-16.217c5.6619-6.8349 11.058-13.97 15.033-21.905 3.6282-7.2424 6.0292-15.064 9.8788-22.192 3.0367-5.6222 7.0142-10.922 8.3039-17.181 1.0076-4.8896 0.23117-10.127-2.1518-14.514m44.369 229.16c-1.7866-1.5478-3.9665-2.6378-6.2767-3.1384-2.1056-0.45627-4.3036-0.43021-6.378-1.0124-2.2658-0.63589-4.2821-1.9738-6.0315-3.5479-1.7494-1.5741-3.2608-3.3899-4.8133-5.1585-3.5413-4.034-7.3236-7.8498-10.909-11.845-2.2461-2.5028-4.476-5.1266-7.4027-6.7829-2.8013-1.5853-6.0924-2.176-9.309-2.0584-3.2166 0.11758-6.375 0.9138-9.4199 1.9571-5.6527 1.9368-11.006 4.7436-15.815 8.2911m56.31 28.154c1.7158 0.87984 3.5662 1.4966 5.4668 1.8223 2.0514 0.35147 4.1719 0.36187 6.2044-0.0861 2.0325-0.44796 3.9748-1.3635 5.5392-2.7362 1.2092-1.0611 2.1839-2.3881 2.8346-3.8594m-24.499 13.161c0.96844-0.53932 1.8326-1.2652 2.5309-2.126 1.3916-1.7152 2.095-3.9734 1.9235-6.1755m-11.642-6.0681c2.1924 2.1552 3.7853 4.9141 4.5557 7.8903 0.40522 1.5655 0.59511 3.2094 1.3161 4.6569 0.33555 0.67368 0.78206 1.2919 1.3161 1.8223m-8.9089-5.4668c0.89835-0.79627 1.5997-1.8132 2.0247-2.9359 0.72559-1.9165 0.61272-4.1339-0.30371-5.9668m-8.4027-8.9027c1.6646 2.5134 2.653 5.47 2.8346 8.4792 0.0629 1.0427 0.031 2.0893 0.0888 3.1324s0.20918 2.095 0.61988 3.0555c0.59598 1.3938 1.7445 2.5424 3.1384 3.1384m-12.25-10.326c1.4288-0.29616 2.7589-1.0511 3.7458-2.126 1.312-1.4291 1.9899-3.4204 1.8223-5.3532m-27.435 1c2.3096-1.618 4.8858-2.8546 7.5928-3.6445 2.3982-0.69982 4.9757-1.0456 7.3903-0.40495 2.2196 0.58892 4.2041 2.0223 5.4608 3.9444 1.2567 1.922 1.774 4.3148 1.4233 6.5843m-41.609 87.267c0.16898-3.6428 0.10461-7.2963-0.19261-10.931-0.23433-2.8656-0.61038-5.7807 0-8.5903 0.78217-3.6003 3.0941-6.6454 5.3051-9.5925 4.6526-6.2016 9.1791-12.632 11.875-19.901 2.3127-6.2347 3.2057-12.889 4.152-19.471 0.80827-5.6225 1.6679-11.326 0.92985-16.959-0.37471-2.8593-1.1615-5.6644-2.3285-8.3015m-9.5163 98.099c-1.5091-0.85881-3.0644-1.6365-4.6569-2.3285-1.8124-0.78757-3.6731-1.4642-5.5681-2.0247m-48.331 64.695c2.2419-0.11081 4.4529-0.79873 6.362-1.9794s3.5121-2.8516 4.6126-4.808c1.0705-1.903 1.6561-4.0324 2.4297-6.0742 2.9449-7.7727 8.5605-14.174 13.768-20.652 3.0874-3.8406 6.0755-7.7772 9.5201-11.301 3.4446-3.5238 7.3918-6.6504 11.942-8.5416 1.7062-0.70906 3.4867-1.2406 5.1486-2.0479 1.6619-0.80729 3.2362-1.9352 4.1652-3.5322 0.25718-0.44214 0.46157-0.91495 0.60743-1.4052m-98.754 84.793c1.8964 1.484 4.1069 2.5646 6.4427 3.1498 1.3772 0.34498 2.8136 0.5191 4.2206 0.32935s2.7868-0.76356 3.797-1.7611c1.261-1.2451 1.8397-3.0108 2.2907-4.7247 0.7777-2.9551 1.3052-5.976 1.5749-9.0198m42.808-73.304c-1.8668 0.63308-3.8395 0.95299-5.8107 0.94236-3.547-0.0191-7.0383-1.1089-10.152-2.8085-3.1134-1.6996-5.8694-3.9943-8.3748-6.5054-6.7214-6.7368-11.766-15.193-14.178-24.398-2.098-8.0061-2.1978-16.453-1-24.642 0.9014-6.1627 2.5284-12.244 2.7202-18.469 0.11253-3.652-0.28926-7.376-1.7202-10.738-1.5143-3.5575-4.109-6.5513-6.9276-9.1979-2.8186-2.6466-5.8972-5.0079-8.6759-7.6963-4.5515-4.4036-8.2309-9.6178-11.74-14.89-5.9343-8.9154-11.472-18.103-17.803-26.741-12.336-16.829-27.869-31.904-35.231-51.429-2.683-7.1158-4.1943-14.672-4.4544-22.272m62.213 304.17c-0.21903-5.238 0.9986-10.529 3.4852-15.144 3.9147-7.266 10.642-12.502 16.852-17.938 10.259-8.9797 19.528-19.016 29.057-28.767 2.2879-2.3412 4.5982-4.6743 6.5949-7.2684 1.9967-2.5941 3.6831-5.4732 4.5725-8.6236 0.69376-2.4575 0.88975-5.0543 0.57268-7.5881m-63.608-82.044c-1.3675-4.77-2.3135-9.6608-2.8234-14.597-0.7477-7.2382-0.55467-14.573 0.57269-21.762m11.74 14.89c1.1516 1.7072 1.8255 3.7332 1.9258 5.79 0.10034 2.0569-0.37312 4.1388-1.3531 5.95-1.1652 2.1534-2.9907 3.8684-4.8678 5.4405-3.7507 3.1412-7.9598 6.0165-10.308 10.308-1.248 2.2806-1.9002 4.8864-1.8561 7.4858 0.0441 2.5994 0.7864 5.1859 2.1424 7.404 2.308 3.7752 6.3104 6.3384 10.595 7.4449 6.247 1.6134 13.204 0.20039 18.326-3.7224" fill="none" stroke="#000" stroke-linecap="round" stroke-linejoin="round" stroke-width="2" style="paint-order:markers fill stroke"/><g><g fill="none" stroke="#000" stroke-linecap="round" stroke-linejoin="round" stroke-width="2"><path d="m354.06 65.143c4.0663-5.5002 10.052-9.5522 16.669-11.285 9.7056-2.541 20.21-0.06041 28.954 4.8594 11.664 6.5629 20.773 17.435 25.512 29.952 4.7116 12.444 5.1502 26.282 2.4297 39.307-1.8577 8.8938-5.2254 17.606-10.859 24.734-6.7843 8.5836-16.584 14.476-27.016 17.773-7.0321 2.2227-14.445 3.3384-21.809 2.9339s-14.677-2.3528-21.104-5.971c-10.187-5.7354-17.868-15.682-21.057-26.929-3.5095-12.375-1.5092-26.252 5.5527-37.002 4.8664-7.4085 12.008-13.273 20.162-16.751 7.0048-2.9876 14.921-4.2227 22.324-2.4365 6.5854 1.589 12.563 5.5826 16.551 11.058" style="paint-order:markers fill stroke"/><path d="m399.08 127.98c-0.40529 5.9233-2.8089 11.692-6.7292 16.151-3.9203 4.4588-9.3342 7.581-15.157 8.741-7.5126 1.4968-15.65-0.36796-21.7-5.0663-6.0502-4.6983-9.882-12.168-10.069-19.826-0.13707-5.6017 1.6214-11.207 4.7884-15.829 3.1671-4.6225 7.7103-8.2598 12.844-10.505 4.4422-1.9424 9.2921-2.8563 14.137-3.0371 1.2205-0.04556 2.4428-0.04556 3.6633 0" style="paint-order:markers fill stroke"/></g><path id="path6530" d="m325.34 121.14c0.90713 0.30691 1.8351 0.55232 2.7753 0.734 2.2955 0.44354 4.6644 0.50428 6.9796 0.17897" fill="none" stroke="#000" stroke-linecap="round" stroke-linejoin="round" stroke-width="3" style="paint-order:markers fill stroke"/><use transform="rotate(-14.499 379.1 127.65)" xlink:href="#path6530"/><use xlink:href="#path6530"/><use transform="matrix(.88469 .24773 -.25898 .82331 72.483 -71.436)" xlink:href="#path6530"/><use transform="matrix(.66913 .53516 -.55439 .61084 185.81 -149.95)" xlink:href="#path6530"/><use transform="rotate(-73.229 368.91 127.72)" xlink:href="#path6530"/><use transform="rotate(-49.556 373.88 126.71)" xlink:href="#path6530"/><use transform="rotate(-85.189 372.35 125.39)" xlink:href="#path6530"/><use transform="rotate(-33.068 372.93 127.42)" xlink:href="#path6530"/><use transform="rotate(112.24 382.04 113.59)" xlink:href="#path6530"/><use transform="rotate(150 378.4 114.5)" xlink:href="#path6530"/><use transform="rotate(165 377.54 115.84)" xlink:href="#path6530"/><use transform="rotate(229.77 375.86 120.84)" xlink:href="#path6530"/><use transform="matrix(.48179 .59534 -.59534 .48179 261.15 -161.28)" xlink:href="#path6530"/><use transform="rotate(135 379.01 113.03)" xlink:href="#path6530"/><use transform="rotate(212.82 376.08 120.89)" xlink:href="#path6530"/><use transform="rotate(255 372.18 125.51)" xlink:href="#path6530"/><use transform="rotate(90 385.54 114.41)" xlink:href="#path6530"/><use transform="rotate(241.65 374.13 123.53)" xlink:href="#path6530"/><use transform="rotate(177.19 376.94 117.09)" xlink:href="#path6530"/><use transform="rotate(198.1 376.25 120.48)" xlink:href="#path6530"/></g><g stroke="#000" stroke-linecap="round" stroke-linejoin="round"><path d="m269.91 95.408c2.1944 0.12103 4.3859 0.29244 6.5724 0.51406 1.5929 0.16146 3.1883 0.34982 4.7892 0.32612 1.6009-0.0237 3.2206-0.2673 4.6765-0.93354 0.67072-0.30693 1.3065-0.70555 1.8238-1.2313 0.5173-0.5258 0.91243-1.1846 1.0615-1.907 0.13983-0.67772 0.0585-1.3931-0.18902-2.0393-0.2475-0.64622-0.65672-1.2246-1.1533-1.7065-0.82124-0.79698-1.8826-1.3331-3.0017-1.5719-1.1192-0.23879-2.2934-0.18529-3.4006 0.10394-0.74825 0.19546-1.474 0.50042-2.0997 0.95482-0.62579 0.45439-1.149 1.0635-1.4436 1.7786-0.41668 1.0115-0.35451 2.1468-0.30372 3.2396 4e-3 0.09617 9e-3 0.19291-3e-3 0.28844-0.012 0.09553-0.0412 0.1907-0.098 0.26837-0.0717 0.09796-0.18283 0.1614-0.29889 0.19709-0.11605 0.03569-0.23815 0.0461-0.35916 0.056-1.9338 0.15823-3.8738 0.24036-5.814 0.24613" fill="none" stroke-width="2" style="paint-order:markers fill stroke"/><path d="m282.88 87.618c-1.4816 0.05016-3.0628 0.51862-4.0543 1.6783-0.5164 0.5867-0.69618 1.3746-0.69255 2.1388-0.052 0.74604 0.0644 1.5113-0.0967 2.2451-0.22326 0.52237-0.73841 0.89602-1.3085 0.93113-0.36746 0.08672-0.75802 0.03073-1.1295 0.10745-0.16085 0.22201 0.21658 0.22317 0.35142 0.23469 2.2419 0.2441 4.5063 0.52904 6.7616 0.29348 1.6448-0.21685 3.3907-0.69885 4.5495-1.9608 0.73148-0.77402 0.92153-1.9719 0.48492-2.9395-0.73534-1.5771-2.4253-2.5671-4.1294-2.7038-0.24473-0.02248-0.49076-0.03041-0.73644-0.02491z" stroke-width=".10124" style="paint-order:markers fill stroke"/></g><path d="m311.83 91.476c-0.61964-1.6303-0.73662-3.4478-0.3311-5.1441s1.3318-3.2644 2.6218-4.4382c1.1646-1.0597 2.6017-1.7896 4.1014-2.2693 1.4997-0.47975 3.0659-0.7184 4.6321-0.88046 4.9615-0.51342 10-0.27116 14.89 0.71586" fill="none" stroke="#000" stroke-linecap="round" stroke-linejoin="round" stroke-width="2" style="paint-order:markers fill stroke"/><path d="m327.69 79.4c-2.7348 0.01977-5.4886 0.18386-8.1616 0.79373-0.20235 0.01402-0.15481 0.2357-0.0982 0.36458 0.4865 1.4308 1.0236 2.8613 1.8115 4.1571 0.60565 0.97838 1.5374 1.8676 2.718 2.0378 0.91064 0.07399 1.8268-0.22705 2.5383-0.79506 1.1638-0.89934 1.8581-2.2631 2.3312-3.6266 0.29705-0.91148 0.51812-1.8591 0.5622-2.8186-0.0752-0.18718-0.33322-0.07451-0.48963-0.10968-0.40387-0.0041-0.80777-4e-3 -1.2116-0.0032z" style="paint-order:markers fill stroke"/><path d="m377.19 114.83c2.2292 1.9582 4.5324 3.8322 6.9029 5.6167 1.4732 1.109 2.984 2.1904 4.6569 2.9661 2.6599 1.2335 5.6185 1.646 8.4027 2.5652 3.3005 1.0896 6.3313 2.8831 9.6175 4.0152 3.8154 1.3144 7.8748 1.7057 11.845 2.4297 1.6393 0.29896 3.2737 0.65657 4.936 0.77143 1.6624 0.11487 3.3738-0.0237 4.9043-0.68253 1.3078-0.56293 2.4469-1.4967 3.2949-2.6405 0.84799-1.1438 1.4074-2.4931 1.6657-3.8934 0.37647-2.0408 0.11438-4.1752-0.60743-6.1209-0.33172-0.89417-0.76061-1.7557-1.3161-2.5309-1.5243-2.1274-3.8863-3.4722-6.1958-4.7032-5.1137-2.7259-10.363-5.2327-15.186-8.4452-4.6568-3.1019-9.0538-6.9242-14.477-8.3015-1.7153-0.43562-3.499-0.61083-5.2643-0.48556-3.3682 0.23902-6.5764 1.558-9.5163 3.219-1.2603 0.71203-2.4836 1.4896-3.6633 2.3285" fill="#fff" stroke="#000" stroke-linecap="round" stroke-linejoin="round" stroke-width="2" style="paint-order:markers fill stroke"/><path d="m398.07 200.55c-4.0211 0.0457-8.0157 1.9232-10.463 5.1422-2.715 3.4565-3.5402 8.3146-2.0168 12.45 0.42856 1.073 0.80988 2.2455 1.6607 3.0651 0.78686 0.68485 1.8514 0.23841 2.7446 0.0843 3.0307-0.65606 6.001-1.6755 8.7352-3.1459 1.6704-0.84783 2.8304-2.5269 3.1308-4.3642 0.50318-2.6768-0.61408-5.272-1.2998-7.8072-0.37802-1.3226-0.59954-2.6917-0.59969-4.0664-0.0543-0.93938-1.0193-1.4863-1.8917-1.3576z" fill="#fff" style="paint-order:markers fill stroke"/><path d="m399.59 201.16c-0.12071 0.92539-0.12071 1.8664 0 2.7918 0.34041 2.6097 1.625 5.0382 1.8579 7.6597 0.0767 0.86305 0.0363 1.7412-0.17768 2.5808-0.214 0.83961-0.60573 1.6403-1.1824 2.287-0.7498 0.84069-1.7709 1.3851-2.7918 1.8612-3.035 1.4154-6.2782 2.3835-9.5925 2.8634" fill="none" stroke="#000" stroke-linecap="round" stroke-linejoin="round" stroke-width="2" style="paint-order:markers fill stroke"/><path d="m403.58 180.24c-2.8785-0.0249-5.5695 2.0725-6.3232 4.8366-0.61572 2.2076-0.16421 4.7075 1.2828 6.5032 0.83568 1.1646 2.1452 1.8139 3.1647 2.7876 2.0418 1.7157 4.4931 2.9879 7.1116 3.5212 1.0423 0.12074 1.9035-0.97844 1.6319-1.9694-0.58071-3.0358-1.9221-5.8541-2.6337-8.8532-0.35814-1.4787-0.24041-3.0184 2e-3 -4.5005 0.09-0.8322-0.63932-1.433-1.3599-1.6736-0.8937-0.42987-1.8836-0.65874-2.876-0.65189z" fill="#fff" style="paint-order:markers fill stroke"/><path d="m410.26 197.65c-0.97169-0.12536-1.9317-0.34136-2.8634-0.64427-2.3649-0.76882-4.543-2.1054-6.2995-3.8656m6.3711-11.024c-0.33774 1.1822-0.45964 2.4256-0.35793 3.6509 0.19553 2.3554 1.1944 4.5555 1.9328 6.8006 0.54493 1.6568 0.95243 3.3587 1.217 5.0826" fill="none" stroke="#000" stroke-linecap="round" stroke-linejoin="round" stroke-width="2" style="paint-order:markers fill stroke"/><path d="m360.32 271.38c-0.663 0.0847-1.231 0.47969-1.8132 0.77926-2.2112 1.3129-3.8264 3.5779-4.3418 6.0984-0.24369 1.1092-0.25205 2.2655-0.0899 3.3867 0.29901 1.7948 1.0936 3.5227 2.3318 4.8622 0.41575 0.36127 0.98253 0.37529 1.5038 0.35293 4.4998 0.016 8.9932-1.1728 12.91-3.3854 0.5248-0.28448 1.1203-0.59205 1.317-1.2023 0.26014-0.72285-0.12375-1.5865-0.83251-1.8809-0.77566-0.26022-1.5731-0.46722-2.3196-0.81079-3.1749-1.375-5.7357-4.0366-7.091-7.209-0.27042-0.61115-0.89367-1.0472-1.5745-0.99094z" fill="#fff" style="paint-order:markers fill stroke"/><path d="m373.39 281.19c-1.8807 1.4217-3.959 2.5817-6.1564 3.4361-3.2697 1.2714-6.803 1.8602-10.308 1.7181m4.152-14.747c1.0754 3.2232 3.36 6.027 6.2995 7.7312 1.8306 1.0614 3.9031 1.7028 6.0132 1.8612" fill="none" stroke="#000" stroke-linecap="round" stroke-linejoin="round" stroke-width="2" style="paint-order:markers fill stroke"/><path d="m226.13 362.11c-3.2795-0.0147-6.5254 1.6082-8.4714 4.2479-0.39228 0.54399-0.0991 1.4059 0.5616 1.5624 0.62343 0.0869 1.2359-0.16148 1.8536-0.22889 2.5486-0.45448 5.1403-0.582 7.7249-0.60113 0.60512-0.0455 0.99073-0.58426 1.3394-1.022 0.77624-1.168 0.33856-2.9268-0.89516-3.5971-0.63309-0.3731-1.403-0.35014-2.1129-0.36112z" fill="#fff" style="paint-order:markers fill stroke"/><path d="m217.01 367.99c0.71011-1.3693 1.7324-2.5756 2.9667-3.5007 1.9605-1.4694 4.4581-2.205 6.9021-2.0328m0.96193 4.3301c-1.4273-0.0285-2.856 0.0162-4.2788 0.13371-2.2077 0.18237-4.4008 0.54043-6.5519 1.0697" fill="none" stroke="#000" stroke-linecap="round" stroke-linejoin="round" stroke-width="1.3208" style="paint-order:markers fill stroke"/><g><path d="m390.24 102.88c-1.5448 0.0491-3.0838 0.60425-4.294 1.5668 4e-3 0.38595 0.46767 0.70805 0.64802 1.0677 2.6329 3.6903 5.4348 7.471 9.3843 9.8472 2.2033 1.3281 4.7768 2.0696 7.3585 1.9503 1.8995 0.0111 3.8023-0.42464 5.5237-1.2193 0.12293-0.27733-0.29265-0.50621-0.40253-0.73892-3.7186-4.4804-8.3821-8.1102-13.41-11.01-1.4752-0.80476-3.0932-1.5107-4.8075-1.4637z" style="paint-order:markers fill stroke"/><path d="m389.26 124.63c-0.686 0.35256-1.0094 1.1638-1.5847 1.6665-2.3678 2.5503-5.6011 4.1351-8.9549 4.9558-4.4686 1.2488-9.2811 1.5368-13.421 3.7944-4.1461 2.2773-7.3198 6.2712-8.4986 10.864-0.11984 0.51455-0.32165 1.0613-0.261 1.5799 3.7883 2.6723 8.2411 4.4168 12.867 4.8515 4.7852 0.4705 9.702-0.39461 14.002-2.563 3.0922-1.4676 5.8496-3.5791 8.1308-6.1261 3.8795-4.2896 6.1572-9.9165 6.653-15.654 0.0929-0.29401 0.1823-0.74706-0.26159-0.78954-2.8398-1.0197-5.8312-1.5657-8.6704-2.5798z" style="paint-order:markers fill stroke"/><path d="m385.34 83.988c-1.8555 0.03216-3.7131 0.53166-5.3282 1.4388-0.0919 0.26621 0.36213 0.31383 0.51126 0.45054 4.0223 2.0013 7.4945 5.0188 10.263 8.5357 1.007 0.08413 2.0448 0.05842 3.0587 0.19718 0.31478 0.0015 0.56213 1.0427 0.85403 1.0518 0.18248-0.37962 0.0969-1.7806 0.13317-2.1929-0.0967-2.8379-1.3189-5.6954-3.5025-7.5482-1.6574-1.3904-3.856-1.9644-5.9893-1.933z" style="paint-order:markers fill stroke"/><g stroke="#000" stroke-linecap="round" stroke-linejoin="round"><g stroke-width=".28634"><path d="m282.49 294.05c-2.7476 1.8469-5.3552 4.6031-5.5592 8.0786-0.41353 4.1525 2.0126 7.7783 3.5914 11.422 2.0164 4.4163 3.0216 9.5481 6.6591 13.021 2.8848 2.6766 7.1542 2.914 10.854 2.3552 0.39074-0.17428 1.1454-0.0144 1.3495-0.41119-1.366-1.6459-2.9613-3.1304-4.0549-4.9937-3.067-4.9273-4.7815-10.558-7.8962-15.463-2.4064-3.9663-4.9853-8.2722-4.7868-13.079-0.087-0.24062 0.18418-0.91779-0.15743-0.93006z" style="paint-order:markers fill stroke"/><path d="m301.05 339.18c-0.3675 0.0544-1.5266-0.0218-0.92873 0.50903 1.8036 1.6079 2.1188 4.0885 2.8568 6.2575 0.64169 1.9465 2.9885 2.5824 4.8323 2.3922 2.1303-0.1341 4.1623-1.2636 5.5705-2.8348 0.13121-0.53177-0.67653-0.81618-0.93173-1.1952-3.153-2.8146-7.0329-5.1909-11.399-5.1287z" style="paint-order:markers fill stroke"/><path d="m314.43 353.18c-0.89563 0.0707-1.9261 0.26737-2.5975 0.8842 0.0567 0.59931 0.9319 0.65695 1.3369 0.9885 1.8084 0.90258 2.6806 2.8013 3.6204 4.4979 0.64881 1.2099 1.9681 2.3755 3.423 2.0008 0.32907-0.68928 0.0628-1.5605 0.0593-2.3086-0.26936-2.3352-1.3598-4.9762-3.7968-5.7372-0.65451-0.23024-1.3512-0.34559-2.0452-0.3255z" style="paint-order:markers fill stroke"/><path d="m237.21 253.26c-0.54939 0.0629-0.23926 0.90351-0.35492 1.2681-0.18345 2.7565 1.0944 5.5205 3.3263 7.1522 3.1204 2.4152 7.1261 3.1249 10.845 4.1326 5.8144 1.2867 11.831 2.6963 17.805 1.7192 3.9832-0.60968 7.8868-2.8736 9.6475-6.6166 0.61796-1.3645 1.6768-4.1361 1.9219-5.6147-0.43701-0.20436-1.2746 1.9067-1.643 2.1045-3.3174 2.8941-8.0718 3.3911-12.261 2.649-5.318-0.99534-10.448-2.8305-15.705-4.1101-4.4073-1.1061-8.8507-2.1659-13.37-2.683-0.0702-4e-3 -0.14058-4e-3 -0.21084-1e-3z" style="paint-order:markers fill stroke"/></g><path d="m227.66 193.87c-3.5011 3.9759-7.587 7.4563-12.189 10.098-1.3356 0.80362-2.7755 1.4508-4.1342 2.1909 0.1513 0.35133 0.62181 0.55999 0.88859 0.859 2.2678 1.9702 4.6506 3.8211 7.1183 5.5254 2.2185-0.0567 4.4561-0.0761 6.6481-0.44937 0.29051-0.14568-0.0161-0.55802-2e-3 -0.79798-0.62817-3.0326-0.21977-6.2805 1.2807-9.0075 0.83704-1.665 1.9764-3.353 1.8653-5.3009-0.0472-1.1775-0.59741-2.3138-1.3976-3.1508l-0.0658 0.0281z" stroke-width=".14317" style="paint-order:markers fill stroke"/><path d="m280.76 356.93c0.90858 2.6309 2.5797 5.1146 4.3491 7.2456 2.1991 2.6712 4.5904 5.2166 6.2283 8.2846 0.56893 1.042 1.3634 2.4463 1.8246 3.5377 0.9175-2.3306-0.21885-6.5127-1.3755-8.3836-0.7975-1.0102-1.7804-1.8563-2.6207-2.8303-2.9392-3.4162-5.5462-7.3309-7.7724-10.356-0.53473 0.57322-0.50874 1.7087-0.63332 2.5018z" stroke-width=".10124" style="paint-order:markers fill stroke"/></g></g><path d="m508.6 277.2 1.4293-264.88h-500.02l1.4301 264.88c3.4635 141.47 77.664 277.1 248.57 351.14 170.93-74.049 245.11-209.67 248.57-351.14z" fill="none" stroke="#000" stroke-linecap="square" stroke-miterlimit="30" stroke-width="8.0004"/></svg>
