<?xml version="1.0" encoding="UTF-8"?>
<svg version="1.1" viewBox="0 0 520 640" xmlns="http://www.w3.org/2000/svg"><g transform="translate(-2.9465 -3.7168)"><path d="m513.23 280.14 1.4394-266.69h-503.44l1.4394 266.69c3.4873 142.43 78.195 278.99 250.28 353.54 172.09-74.554 246.79-211.11 250.28-353.54z" fill="#fcdb00"/><g stroke="#000" stroke-linecap="square" stroke-miterlimit="30"><path d="m438.03 41.449a55.831 55.831 0 0 0-55.663 55.94 55.831 55.831 0 0 0 55.887 55.716 55.831 55.831 0 0 0 39.408-16.334 43.802 43.802 0 0 1-18.704 4.3041 43.802 43.802 0 0 1-43.844-43.712 43.802 43.802 0 0 1 43.659-43.883 43.802 43.802 0 0 1 18.835 4.2777 55.831 55.831 0 0 0-39.579-16.308z" fill="#0093dd" stroke-linejoin="bevel" stroke-width="4"/><path d="m513.23 280.14 1.4394-266.69h-503.44l1.4394 266.69c3.4873 142.43 78.195 278.99 250.28 353.54 172.09-74.554 246.79-211.11 250.28-353.54z" fill="none" stroke-width="7"/><path d="m80.396 194.04c-16.528-1.1e-4 -30.894 6.1298-45.414 12.26-7.4649 3.1649-14.928 6.3116-22.67 8.6328l0.35352 65.357c0.67463 27.554 4.0473 54.88 10.242 81.588 4.0485-1.5687 8.0664-3.2305 12.074-4.9297 14.52-6.13 28.886-12.26 45.414-12.26 16.528 0 30.894 6.1298 45.414 12.26 14.52 6.13 28.886 12.26 45.414 12.26 16.528 0 30.956-6.1298 45.414-12.26 14.52-6.13 28.886-12.26 45.414-12.26s30.956 6.1298 45.414 12.26c14.52 6.13 28.886 12.26 45.414 12.26 16.528 0 30.954-6.1298 45.412-12.26 14.52-6.13 28.886-12.26 45.414-12.26 16.528 0 30.956 6.1298 45.414 12.26 4.5579 1.9242 9.1255 3.7712 13.725 5.5059 6.281-26.891 9.7033-54.412 10.383-82.164l0.34961-64.869c-8.3643-2.3543-16.394-5.7172-24.457-9.1211-14.458-6.13-28.886-12.26-45.414-12.26-16.528-1.1e-4 -30.894 6.1298-45.414 12.26-14.458 6.13-28.884 12.26-45.412 12.26-16.528 0-30.894-6.1298-45.414-12.26-14.458-6.13-28.886-12.26-45.414-12.26s-30.894 6.1298-45.414 12.26c-14.458 6.13-28.886 12.26-45.414 12.26-16.528 1e-4 -30.894-6.1298-45.414-12.26-14.52-6.13-28.886-12.26-45.414-12.26z" fill="#0093dd" stroke-width="5"/></g></g></svg>
