<?xml version="1.0" encoding="UTF-8"?>
<svg height="638.09399" viewBox="0 0 132.29166 168.82904" width="500" xmlns="http://www.w3.org/2000/svg" xmlns:xlink="http://www.w3.org/1999/xlink"><clipPath id="a"><path d="m39.686 377.009h250.866v53.858h-250.866z"/></clipPath><clipPath id="b"><path d="m151.436 386.399h27.365v35.077h-27.365z"/></clipPath><clipPath id="c"><path d="m39.686 377.009h250.866v53.858h-250.866z"/></clipPath><clipPath id="d"><path d="m151.436 386.399h27.365v35.077h-27.365z"/></clipPath><clipPath id="e"><path d="m39.686 377.009h250.866v53.858h-250.866z"/></clipPath><clipPath id="f"><path d="m151.436 386.399h27.365v35.077h-27.365z"/></clipPath><clipPath id="g"><path d="m39.686 377.009h250.866v53.858h-250.866z"/></clipPath><clipPath id="h"><path d="m151.436 386.399h27.365v35.077h-27.365z"/></clipPath><clipPath id="i"><path d="m39.686 377.009h250.866v53.858h-250.866z"/></clipPath><g clip-path="url(#i)" transform="matrix(4.7376688 0 0 -4.7376688 -716.130696 1998.136612)"><path d="m0 0h.001c7.616 1.584 13.34 8.304 13.366 16.364h.001v2.809h-13.368z" fill="#009932" transform="translate(165.1182 386.7201)"/></g><g clip-path="url(#h)" transform="matrix(4.7376688 0 0 -4.7376688 -716.130696 1998.136612)"><path d="m0 0h.001c7.616 1.584 13.34 8.304 13.366 16.364h.001v2.809h-13.368z" fill="none" stroke="#000" stroke-linecap="round" stroke-linejoin="round" stroke-width=".55" transform="translate(165.1182 386.7201)"/></g><g clip-path="url(#g)" transform="matrix(4.7376688 0 0 -4.7376688 -716.130696 1998.136612)"><path d="m165.118 405.893h13.368v15.269h-13.368z" fill="#e2001a"/></g><g clip-path="url(#f)" transform="matrix(4.7376688 0 0 -4.7376688 -716.130696 1998.136612)"><path d="m165.118 405.893h13.368v15.269h-13.368z" fill="none" stroke="#000" stroke-linecap="round" stroke-linejoin="round" stroke-width=".55"/></g><g clip-path="url(#e)" transform="matrix(4.7376688 0 0 -4.7376688 -716.130696 1998.136612)"><path d="m0 0v-2.809h.001c.026-8.059 5.751-14.779 13.367-16.364v19.173z" fill="#e2001a" transform="translate(151.7504 405.8932)"/></g><g clip-path="url(#d)" transform="matrix(4.7376688 0 0 -4.7376688 -716.130696 1998.136612)"><path d="m0 0v-2.809h.001c.026-8.059 5.751-14.779 13.367-16.364v19.173z" fill="none" stroke="#000" stroke-linecap="round" stroke-linejoin="round" stroke-width=".55" transform="translate(151.7504 405.8932)"/></g><g clip-path="url(#c)" transform="matrix(4.7376688 0 0 -4.7376688 -716.130696 1998.136612)"><path d="m151.75 405.893h13.368v15.269h-13.368z" fill="#009932"/></g><g clip-path="url(#b)" fill="none" stroke="#000" transform="matrix(4.7376688 0 0 -4.7376688 -716.130696 1998.136612)"><path d="m151.75 405.893h13.368v15.269h-13.368z" stroke-linecap="round" stroke-linejoin="round" stroke-width=".55"/><path d="m0 0v-18.078h.001c.026-8.06 5.751-14.78 13.368-16.364 7.616 1.584 13.339 8.304 13.365 16.364h.002v18.078z" stroke-width=".629" transform="translate(151.7504 421.1622)"/></g><g clip-path="url(#a)" transform="matrix(4.7376688 0 0 -4.7376688 -716.130696 1998.136612)"><path d="m0 0h-8.852v8.852h-5.328v-8.852h-8.851v-5.327h8.851v-8.852h5.328v8.852h8.852z" fill="#fff" transform="translate(176.6336 408.5563)"/><path d="m0 0h-8.852v8.852h-5.328v-8.852h-8.851v-5.327h8.851v-8.852h5.328v8.852h8.852z" fill="none" stroke="#000" stroke-width=".629" transform="translate(176.6336 408.5563)"/></g></svg>
