<?xml version="1.0" encoding="UTF-8" standalone="no"?>
<svg
   xmlns:dc="http://purl.org/dc/elements/1.1/"
   xmlns:cc="http://creativecommons.org/ns#"
   xmlns:rdf="http://www.w3.org/1999/02/22-rdf-syntax-ns#"
   xmlns:svg="http://www.w3.org/2000/svg"
   xmlns="http://www.w3.org/2000/svg"
   id="svg8"
   version="1.1"
   viewBox="0 0 107.42083 120.65"
   height="456"
   width="406">
  <title
     id="title845">Wappen von Neubau</title>
  <defs
     id="defs2" />
  <metadata
     id="metadata5">
    <rdf:RDF>
      <cc:Work
         rdf:about="">
        <dc:format>image/svg+xml</dc:format>
        <dc:type
           rdf:resource="http://purl.org/dc/dcmitype/StillImage" />
        <dc:title>Wappen von Neubau</dc:title>
        <cc:license
           rdf:resource="http://creativecommons.org/licenses/by-sa/4.0/" />
      </cc:Work>
      <cc:License
         rdf:about="http://creativecommons.org/licenses/by-sa/4.0/">
        <cc:permits
           rdf:resource="http://creativecommons.org/ns#Reproduction" />
        <cc:permits
           rdf:resource="http://creativecommons.org/ns#Distribution" />
        <cc:requires
           rdf:resource="http://creativecommons.org/ns#Notice" />
        <cc:requires
           rdf:resource="http://creativecommons.org/ns#Attribution" />
        <cc:permits
           rdf:resource="http://creativecommons.org/ns#DerivativeWorks" />
        <cc:requires
           rdf:resource="http://creativecommons.org/ns#ShareAlike" />
      </cc:License>
    </rdf:RDF>
  </metadata>
  <g
     style="display:inline;opacity:1"
     transform="translate(-0.1561084,-6.5433537)"
     id="layer1">
    <path
       style="fill:#b72025;stroke:#231f20;stroke-width:1.58749998;stroke-opacity:1;fill-opacity:1"
       class="st0"
       d="M 0.94985839,7.3371037 V 73.482938 c 0,29.236462 23.68021261,52.916662 52.91667061,52.916662 29.236459,0 52.916671,-23.6802 52.916671,-52.916662 V 7.3371037 Z"
       id="path830" />
  </g>
  <g
     style="display:inline"
     id="layer2">
    <path
       id="path4748"
       transform="scale(0.26458333)"
       d="M 70.658203 234.51172 C 54.182245 317.49715 113.57024 389.50724 190.5 396.61523 L 190.5 396.61719 C 190.53309 396.62024 190.56651 396.62197 190.59961 396.625 C 191.39447 396.69785 192.1917 396.76138 192.99023 396.82031 C 193.36426 396.84817 193.73849 396.87358 194.11328 396.89844 C 194.79121 396.9428 195.46995 396.98527 196.15039 397.01953 C 196.7669 397.05124 197.38539 397.07432 198.00391 397.09766 C 198.50375 397.11599 199.00279 397.1395 199.50391 397.15234 C 200.66614 397.18315 201.8309 397.20117 203 397.20117 C 204.1691 397.20117 205.33386 397.18315 206.49609 397.15234 C 206.99721 397.1395 207.49625 397.11599 207.99609 397.09766 C 208.61461 397.07433 209.2331 397.05124 209.84961 397.01953 C 210.53005 396.98527 211.20879 396.9428 211.88672 396.89844 C 212.26151 396.87358 212.63574 396.84817 213.00977 396.82031 C 213.8083 396.76138 214.60553 396.69785 215.40039 396.625 C 215.43349 396.62197 215.46691 396.62024 215.5 396.61719 L 215.5 396.61523 C 292.42976 389.50724 351.81776 317.49715 335.3418 234.51172 C 321.30668 298.22794 269.93292 336.41931 215.5 341.51562 C 214.4751 341.61162 213.44894 341.6945 212.42188 341.76758 C 212.39907 341.76919 212.37632 341.77184 212.35352 341.77344 C 211.38035 341.84219 210.40639 341.89954 209.43164 341.94727 C 209.3463 341.95138 209.26113 341.95699 209.17578 341.96094 C 208.36405 341.99912 207.55087 342.02552 206.73828 342.04883 C 206.47331 342.05625 206.20838 342.06642 205.94336 342.07227 C 204.96244 342.09447 203.98177 342.10742 203 342.10742 C 202.01823 342.10742 201.03756 342.09447 200.05664 342.07227 C 199.79162 342.06642 199.52669 342.05625 199.26172 342.04883 C 198.44913 342.02552 197.63595 341.99912 196.82422 341.96094 C 196.73887 341.95699 196.6537 341.95138 196.56836 341.94727 C 195.59361 341.89954 194.61965 341.84219 193.64648 341.77344 C 193.62367 341.77183 193.60094 341.7692 193.57812 341.76758 C 192.55106 341.6945 191.5249 341.61162 190.5 341.51562 C 136.06708 336.41931 84.693322 298.22794 70.658203 234.51172 z "
       style="opacity:1;fill:#ffffff;fill-opacity:1;fill-rule:evenodd;stroke:#231f20;stroke-width:6.00000008;stroke-linecap:butt;stroke-linejoin:miter;stroke-miterlimit:20;stroke-dasharray:none;stroke-opacity:1" />
  </g>
  <g
     style="display:inline"
     id="layer3">
    <path
       transform="scale(0.26458333)"
       id="rect4699"
       d="M 178,46 V 150.5 H 73.5 v 50 H 178 V 305 h 50 V 200.5 h 104.5 v -50 H 228 V 46 Z"
       style="opacity:1;fill:#ffcc30;fill-opacity:1;stroke:#231f20;stroke-width:6;stroke-linecap:butt;stroke-linejoin:miter;stroke-miterlimit:10;stroke-dasharray:none;stroke-opacity:1" />
  </g>
  <style
     type="text/css"
     id="style815">
	.st0{fill:#FFFFFF;stroke:#000000;stroke-width:6;}
</style>
  <style
     type="text/css"
     id="style828">
	.st0{fill:#FFFFFF;stroke:#000000;stroke-width:6;}
</style>
  <style
     id="style815-4"
     type="text/css">
	.st0{fill:#FFFFFF;stroke:#000000;stroke-width:6;}
</style>
  <style
     id="style828-0"
     type="text/css">
	.st0{fill:#FFFFFF;stroke:#000000;stroke-width:6;}
</style>
</svg>
