<?xml version="1.0" encoding="UTF-8" standalone="no"?>
<!-- Created with Inkscape (http://www.inkscape.org/) -->

<svg
   xmlns:dc="http://purl.org/dc/elements/1.1/"
   xmlns:cc="http://creativecommons.org/ns#"
   xmlns:rdf="http://www.w3.org/1999/02/22-rdf-syntax-ns#"
   xmlns:svg="http://www.w3.org/2000/svg"
   xmlns="http://www.w3.org/2000/svg"
   xmlns:sodipodi="http://sodipodi.sourceforge.net/DTD/sodipodi-0.dtd"
   xmlns:inkscape="http://www.inkscape.org/namespaces/inkscape"
   version="1.0"
   width="208.86046"
   height="244.65999"
   id="svg2780"
   inkscape:version="0.92.4 (5da689c313, 2019-01-14)"
   sodipodi:docname="Horriwil-blazon.svg">
  <metadata
     id="metadata27">
    <rdf:RDF>
      <cc:Work
         rdf:about="">
        <dc:format>image/svg+xml</dc:format>
        <dc:type
           rdf:resource="http://purl.org/dc/dcmitype/StillImage" />
        <dc:title></dc:title>
      </cc:Work>
    </rdf:RDF>
  </metadata>
  <sodipodi:namedview
     pagecolor="#ffffff"
     bordercolor="#666666"
     borderopacity="1"
     objecttolerance="10"
     gridtolerance="10"
     guidetolerance="10"
     inkscape:pageopacity="0"
     inkscape:pageshadow="2"
     inkscape:window-width="3259"
     inkscape:window-height="1417"
     id="namedview25"
     showgrid="false"
     inkscape:zoom="1.4142136"
     inkscape:cx="34.158175"
     inkscape:cy="211.5149"
     inkscape:window-x="-8"
     inkscape:window-y="-8"
     inkscape:window-maximized="1"
     inkscape:current-layer="svg2780"
     inkscape:measure-start="104.255,149.787"
     inkscape:measure-end="104.255,126.383"
     showguides="true"
     inkscape:object-paths="true"
     inkscape:snap-intersection-paths="true"
     inkscape:snap-global="true"
     inkscape:snap-object-midpoints="true" />
  <defs
     id="defs2782" />
  <path
     inkscape:connector-curvature="0"
     style="fill:#ffffff;fill-opacity:1;fill-rule:evenodd;stroke:#000000;stroke-width:1.99999988;stroke-linecap:butt;stroke-miterlimit:4;stroke-dashoffset:0;stroke-opacity:1"
     id="path4212"
     d="m 1,1 3.761095,158.00304 c 2.686489,112.85918 196.651755,112.85918 199.338255,0 L 207.86045,1 Z" />
  <path
     style="opacity:1;fill:#cc2918;fill-opacity:1;stroke:#000000;stroke-width:1;stroke-miterlimit:12;stroke-dasharray:none;stroke-dashoffset:4.57999992;stroke-opacity:1"
     d="M 6.1997981,173.27632 C 2.8637448,145.23347 2.733266,58.42544 1,1 h 156.86045 z"
     id="path40355"
     inkscape:connector-curvature="0"
     sodipodi:nodetypes="cccc" />
  <g
     id="g40377">
    <path
       sodipodi:nodetypes="ccccccccccccc"
       inkscape:connector-curvature="0"
       d="m 76.401879,108.91334 -2.352293,3.5665 11.296244,9.9461 -32.523925,31.03249 c -0.185778,0.15183 -0.359051,0.31836 -0.518873,0.49988 -3.089553,3.50893 -1.14e-4,11.27891 6.900474,17.35473 6.900588,6.07582 14.999186,8.15666 18.088725,4.64771 0.159822,-0.18151 0.303073,-0.37448 0.430159,-0.57798 l 26.66502,-36.19114 11.29624,9.9461 3.23998,-2.78491 38.23216,-86.288736 z"
       style="opacity:1;fill:#1b63c6;fill-opacity:1;stroke:#000000;stroke-width:1;stroke-miterlimit:22;stroke-dasharray:none;stroke-dashoffset:4.57999992;stroke-opacity:1"
       id="path32136-3-5-9" />
    <path
       sodipodi:nodetypes="cc"
       inkscape:connector-curvature="0"
       id="path32136"
       d="m 75.652403,164.58644 c 2.741294,4.17664 3.635593,8.28925 2.069987,10.79633"
       style="opacity:1;fill:none;fill-opacity:1;stroke:#000000;stroke-width:1;stroke-miterlimit:22;stroke-dasharray:none;stroke-dashoffset:4.57999992;stroke-opacity:1" />
    <path
       inkscape:connector-curvature="0"
       id="path32249"
       d="m 102.89366,127.28533 -27.241257,37.30111 -3.30295,0.8782"
       style="opacity:1;fill:none;fill-opacity:1;stroke:#000000;stroke-width:1;stroke-miterlimit:22;stroke-dasharray:none;stroke-dashoffset:4.57999992;stroke-opacity:1"
       sodipodi:nodetypes="ccc" />
    <path
       sodipodi:nodetypes="cc"
       inkscape:connector-curvature="0"
       id="path32155"
       d="M 118.92363,146.35282 106.74292,135.62796"
       style="opacity:1;fill:#1b63c6;fill-opacity:1;stroke:#000000;stroke-width:1;stroke-miterlimit:22;stroke-dasharray:none;stroke-dashoffset:4.57999992;stroke-opacity:1" />
    <path
       sodipodi:nodetypes="cccccscc"
       inkscape:connector-curvature="0"
       d="m 104.38741,139.19163 2.35551,-3.56367 c -0.10583,-3.18392 -1.4997,-6.2177 -3.84926,-8.34263 l -3.302944,0.8782 -27.241263,37.30111 c 0.473346,0.70547 1.343906,1.81331 1.666385,2.48278 1.102571,2.28894 1.28174,4.28172 0.275229,5.42486 -1.990082,2.26025 -7.861852,0.34304 -13.114962,-4.28221"
       style="opacity:1;fill:none;fill-opacity:1;stroke:#000000;stroke-width:1;stroke-miterlimit:22;stroke-dasharray:none;stroke-dashoffset:4.57999992;stroke-opacity:1"
       id="path32249-2" />
    <path
       sodipodi:nodetypes="cc"
       inkscape:connector-curvature="0"
       id="path32136-9"
       d="m 63.793432,154.14487 c -4.490101,-2.19044 -8.682841,-2.55686 -10.971527,-0.68644"
       style="opacity:1;fill:none;fill-opacity:1;stroke:#000000;stroke-width:1;stroke-miterlimit:22;stroke-dasharray:none;stroke-dashoffset:4.57999992;stroke-opacity:1" />
    <path
       inkscape:connector-curvature="0"
       id="path32249-3"
       d="m 97.345445,122.40025 -33.552013,31.74462 -0.452957,3.38756"
       style="opacity:1;fill:none;fill-opacity:1;stroke:#000000;stroke-width:1;stroke-miterlimit:22;stroke-dasharray:none;stroke-dashoffset:4.57999992;stroke-opacity:1"
       sodipodi:nodetypes="ccc" />
    <path
       sodipodi:nodetypes="cccccscc"
       inkscape:connector-curvature="0"
       d="m 85.34583,122.42594 3.236769,-2.78774 c 3.171705,-0.29814 6.357539,0.70042 8.762846,2.76205 l -0.452964,3.38755 -33.552006,31.74463 c -0.759723,-0.38022 -1.968867,-1.10352 -2.673781,-1.33864 -2.410116,-0.8039 -4.409541,-0.72933 -5.416051,0.41381 -1.990098,2.26023 0.655089,7.84202 5.908207,12.46728"
       style="opacity:1;fill:none;fill-opacity:1;stroke:#000000;stroke-width:1;stroke-miterlimit:22;stroke-dasharray:none;stroke-dashoffset:4.57999992;stroke-opacity:1"
       id="path32249-2-0" />
    <path
       sodipodi:nodetypes="cc"
       inkscape:connector-curvature="0"
       id="path32155-8"
       d="M 76.401883,108.91334 88.582599,119.6382"
       style="opacity:1;fill:#1b63c6;fill-opacity:1;stroke:#000000;stroke-width:1;stroke-miterlimit:22;stroke-dasharray:none;stroke-dashoffset:4.57999992;stroke-opacity:1" />
  </g>
  <path
     style="opacity:1;fill:#cc2918;fill-opacity:1;stroke:#000000;stroke-width:1;stroke-miterlimit:12;stroke-dasharray:none;stroke-dashoffset:4.57999992;stroke-opacity:1"
     d="m 53.806775,232.79129 c 32.045925,13.12671 63.986495,14.94122 95.793145,2.37487 36.10838,-14.92366 52.47107,-41.30878 54.49583,-76.0164 l 2.37514,-99.774666 z"
     id="path40357"
     inkscape:connector-curvature="0"
     sodipodi:nodetypes="ccccc" />
  <path
     inkscape:connector-curvature="0"
     style="fill:none;fill-opacity:1;fill-rule:evenodd;stroke:#000000;stroke-width:1.99999988;stroke-linecap:butt;stroke-miterlimit:4;stroke-dashoffset:0;stroke-opacity:1"
     id="path4212-6"
     d="M 1,0.99999834 4.761095,159.00304 c 2.686489,112.85918 196.651755,112.85918 199.338255,0 l 3.7611,-158.00304166 z" />
</svg>
