<?xml version="1.0" encoding="UTF-8" standalone="no"?>
<!-- Created with Inkscape (http://www.inkscape.org/) -->

<svg
   xmlns:dc="http://purl.org/dc/elements/1.1/"
   xmlns:cc="http://creativecommons.org/ns#"
   xmlns:rdf="http://www.w3.org/1999/02/22-rdf-syntax-ns#"
   xmlns:svg="http://www.w3.org/2000/svg"
   xmlns="http://www.w3.org/2000/svg"
   xmlns:sodipodi="http://sodipodi.sourceforge.net/DTD/sodipodi-0.dtd"
   xmlns:inkscape="http://www.inkscape.org/namespaces/inkscape"
   version="1.0"
   width="208.86046"
   height="244.65999"
   id="svg2780"
   inkscape:version="0.92.4 (5da689c313, 2019-01-14)"
   sodipodi:docname="Recherswil-blazon.svg">
  <metadata
     id="metadata27">
    <rdf:RDF>
      <cc:Work
         rdf:about="">
        <dc:format>image/svg+xml</dc:format>
        <dc:type
           rdf:resource="http://purl.org/dc/dcmitype/StillImage" />
        <dc:title></dc:title>
      </cc:Work>
    </rdf:RDF>
  </metadata>
  <sodipodi:namedview
     pagecolor="#ffffff"
     bordercolor="#666666"
     borderopacity="1"
     objecttolerance="10"
     gridtolerance="10"
     guidetolerance="10"
     inkscape:pageopacity="0"
     inkscape:pageshadow="2"
     inkscape:window-width="3259"
     inkscape:window-height="1417"
     id="namedview25"
     showgrid="false"
     inkscape:zoom="2"
     inkscape:cx="483.95531"
     inkscape:cy="92.778252"
     inkscape:window-x="-8"
     inkscape:window-y="-8"
     inkscape:window-maximized="1"
     inkscape:current-layer="svg2780"
     inkscape:measure-start="104.255,149.787"
     inkscape:measure-end="104.255,126.383"
     showguides="true"
     inkscape:object-paths="true"
     inkscape:snap-intersection-paths="true"
     inkscape:snap-global="true" />
  <defs
     id="defs2782" />
  <path
     inkscape:connector-curvature="0"
     style="fill:#cc2918;fill-opacity:1;fill-rule:evenodd;stroke:#000000;stroke-width:1.99999988;stroke-linecap:butt;stroke-miterlimit:4;stroke-dashoffset:0;stroke-opacity:1"
     id="path4212"
     d="m 1,1 3.761095,158.00304 c 2.686489,112.85918 196.651755,112.85918 199.338255,0 L 207.86045,1 Z" />
  <path
     id="path12065-0-54-1"
     style="fill:#feeb00;fill-opacity:1;fill-rule:evenodd;stroke:#000000;stroke-width:0.99999994px;stroke-linecap:butt;stroke-linejoin:miter;stroke-opacity:1"
     d="M 12.958672,72.562193 31.260289,53.524944 12.958672,34.487678 38.708814,40.711217 46.157339,15.450431 53.605865,40.711217 79.355979,34.487678 61.05438,53.524944 79.355998,72.562193 53.605865,66.338654 46.157339,91.599441 38.708814,66.338654 Z"
     inkscape:connector-curvature="0"
     sodipodi:nodetypes="ccccccccccccc" />
  <path
     id="path12065-0-54-1-0"
     style="fill:#feeb00;fill-opacity:1;fill-rule:evenodd;stroke:#000000;stroke-width:0.99999994px;stroke-linecap:butt;stroke-linejoin:miter;stroke-opacity:1"
     d="m 129.50447,72.562192 18.30162,-19.037249 -18.30162,-19.037266 25.75014,6.223539 7.44853,-25.260786 7.44853,25.260786 25.75011,-6.223539 -18.3016,19.037266 18.30162,19.037249 -25.75013,-6.223539 -7.44853,25.260787 -7.44853,-25.260787 z"
     inkscape:connector-curvature="0"
     sodipodi:nodetypes="ccccccccccccc" />
  <g
     id="g25575">
    <path
       sodipodi:nodetypes="ccccccccccccc"
       inkscape:connector-curvature="0"
       d="m 81.404503,217.17122 c 0,-0.30819 0.0201,-0.6138 0.0605,-0.92348 l 7.01055,-36.37641 -37.830205,0 V 172.5351 L 104.43024,41.366787 158.21514,172.5351 v 7.33623 l -37.83021,0 7.01055,36.37641 c 0.0404,0.30968 0.0605,0.61529 0.0605,0.92348 -1e-5,6.98062 -10.30899,12.63953 -23.02574,12.63953 -12.71675,0 -23.025727,-5.65891 -23.025737,-12.63953 z"
       style="opacity:1;fill:#000000;fill-opacity:1;stroke:#000000;stroke-width:1;stroke-miterlimit:22;stroke-dasharray:none;stroke-dashoffset:4.57999992;stroke-opacity:1"
       id="path25510-9" />
    <path
       sodipodi:nodetypes="cc"
       inkscape:connector-curvature="0"
       id="path25529"
       d="m 104.43024,151.90999 0,-85.019925"
       style="opacity:1;fill:none;fill-opacity:1;stroke:#ffffff;stroke-width:1;stroke-miterlimit:22;stroke-dasharray:none;stroke-dashoffset:4.57999992;stroke-opacity:1" />
    <path
       sodipodi:nodetypes="ccccscscccc"
       inkscape:connector-curvature="0"
       d="M 55.059023,172.5351 H 89.07077 c 2.61898,-2.75859 6.89212,-5.06261 10.90898,-5.06261 l -6.45648,42.78804 c -4.21182,1.59773 -6.92332,4.09908 -6.92332,6.91069 0,4.82425 7.98289,8.73507 17.82742,8.73507 9.84454,0 17.82743,-3.91082 17.82743,-8.73507 0,-2.81161 -2.7115,-5.31296 -6.92332,-6.91069 L 108.875,167.47249 c 4.01686,0 8.29,2.30402 10.90898,5.06261 h 34.01174"
       style="opacity:1;fill:none;fill-opacity:1;stroke:#ffffff;stroke-width:1;stroke-miterlimit:22;stroke-dasharray:none;stroke-dashoffset:4.57999992;stroke-opacity:1"
       id="path25531-8" />
  </g>
</svg>
