<?xml version="1.0" encoding="UTF-8" standalone="no"?>
<svg
   inkscape:version="1.1.1 (3bf5ae0d25, 2021-09-20)"
   sodipodi:docname="CoA Bosbüll.svg"
   id="svg2130"
   version="1.1"
   viewBox="0 0 410.579 473.59"
   height="473.59"
   width="410.57901"
   xmlns:inkscape="http://www.inkscape.org/namespaces/inkscape"
   xmlns:sodipodi="http://sodipodi.sourceforge.net/DTD/sodipodi-0.dtd"
   xmlns:xlink="http://www.w3.org/1999/xlink"
   xmlns="http://www.w3.org/2000/svg"
   xmlns:svg="http://www.w3.org/2000/svg">
  <defs
     id="defs2124" />
  <sodipodi:namedview
     inkscape:pagecheckerboard="false"
     fit-margin-bottom="5"
     fit-margin-right="5"
     fit-margin-left="5"
     fit-margin-top="5"
     lock-margins="true"
     units="px"
     inkscape:snap-smooth-nodes="true"
     inkscape:snap-object-midpoints="true"
     inkscape:window-maximized="1"
     inkscape:window-y="-11"
     inkscape:window-x="-11"
     inkscape:window-height="1506"
     inkscape:window-width="2560"
     showgrid="false"
     inkscape:document-rotation="0"
     inkscape:current-layer="layer1"
     inkscape:document-units="px"
     inkscape:cy="236.66667"
     inkscape:cx="204.66667"
     inkscape:zoom="1.5"
     inkscape:pageshadow="2"
     inkscape:pageopacity="0"
     borderopacity="1.0"
     bordercolor="#666666"
     pagecolor="#333333"
     id="base"
     showguides="true"
     inkscape:guide-bbox="true"
     inkscape:snap-intersection-paths="true"
     inkscape:object-paths="true"
     inkscape:snap-grids="false"
     inkscape:snap-global="true"
     inkscape:lockguides="false"
     guidecolor="#00ffff"
     guideopacity="0.49803922"
     inkscape:snap-to-guides="false"
     inkscape:snap-midpoints="true" />
  <g
     transform="translate(20945.017,21981.187)"
     id="layer1"
     inkscape:groupmode="layer"
     inkscape:label="bosbuell">
    <g
       id="g26585"
       inkscape:label="coa"
       transform="translate(-5,-5)">
      <path
         style="display:inline;opacity:1;fill:#da121a;fill-opacity:1;stroke:none;stroke-width:7;stroke-linecap:butt;stroke-linejoin:miter;stroke-miterlimit:4;stroke-dasharray:none"
         d="m -20537.938,-21967.687 v 259.834 c 0,124.371 -107.454,196.756 -196.789,196.756 -89.336,0 -196.79,-72.385 -196.79,-196.756 v -259.834 z"
         id="path1387"
         sodipodi:nodetypes="cszscc"
         inkscape:label="coa-0" />
      <g
         id="g24986"
         inkscape:label="ears">
        <g
           id="g20602"
           inkscape:label="ear-c">
          <path
             style="opacity:1;fill:#fcdd09;fill-opacity:1;stroke:#000000;stroke-width:1.5;stroke-linecap:round;stroke-linejoin:round"
             d="m -20736.606,-21810.895 -0.288,88.875 h 4.333 l -0.289,-88.875 z"
             id="path16724"
             sodipodi:nodetypes="ccccc"
             inkscape:label="stem-c" />
          <path
             id="path11123"
             style="fill:#fcdd09;fill-opacity:1;stroke:#000000;stroke-width:2;stroke-linecap:round;stroke-linejoin:round;stroke-miterlimit:4;stroke-dasharray:none"
             d="m -20724.583,-21890.951 c 2.395,-1.756 4.688,-5.078 4.808,-8.205 l 0.283,-7.334 c 0.153,-3.984 -2.114,-5.275 -5.091,-2.923 -3.876,3.063 -7.408,5.754 -10.145,7.584 -2.737,-1.83 -6.27,-4.521 -10.145,-7.584 -2.977,-2.352 -5.245,-1.061 -5.091,2.923 l 0.283,7.334 c 0.12,3.127 2.413,6.449 4.808,8.205 l 10.145,7.584 c 2.737,-1.83 6.269,-4.521 10.145,-7.584 2.977,-2.352 5.244,-1.061 5.091,2.923 l -0.283,7.334 c -0.12,3.127 -2.413,6.449 -4.808,8.205 l -10.145,7.584 c 2.737,-1.83 6.269,-4.521 10.145,-7.584 2.977,-2.352 5.244,-1.061 5.091,2.923 l -0.283,7.334 c -0.12,3.127 -2.413,6.449 -4.808,8.205 l -10.145,7.584 -10.145,-7.584 c -2.395,-1.756 -4.688,-5.078 -4.808,-8.205 l -0.283,-7.334 c -0.154,-3.984 2.114,-5.275 5.091,-2.923 3.875,3.063 7.408,5.754 10.145,7.584 l -10.145,-7.584 c -2.395,-1.756 -4.688,-5.078 -4.808,-8.205 l -0.283,-7.334 c -0.154,-3.984 2.114,-5.275 5.091,-2.923 3.875,3.063 7.408,5.754 10.145,7.584 z m -20.29,-34.507 c -3.222,-2.004 -5.276,-1.058 -5.091,2.923 l 0.283,4.918 c 0.145,3.125 2.413,6.448 4.808,8.204 l 10.145,7.584 10.145,-7.584 c 2.395,-1.756 4.662,-5.079 4.808,-8.204 l 0.283,-4.918 c 0.185,-3.981 -1.871,-4.93 -5.091,-2.923 -3.857,2.404 -7.408,4.588 -10.145,6.417 -2.737,-1.829 -6.289,-4.019 -10.145,-6.417 z m 0,89.893 c -2.977,-2.352 -5.245,-1.061 -5.091,2.923 l 0.283,7.334 c 0.12,3.127 1.605,6.007 4,7.763 l 10.953,8.026 10.953,-8.026 c 2.395,-1.756 3.88,-4.636 4,-7.763 l 0.283,-7.334 c 0.153,-3.984 -2.114,-5.275 -5.091,-2.923 -3.876,3.063 -7.408,5.754 -10.145,7.584 l 10.145,-7.584 c 2.395,-1.756 4.688,-5.078 4.808,-8.205 l 0.283,-7.334 c 0.153,-3.984 -2.114,-5.275 -5.091,-2.923 -3.876,3.063 -7.408,5.754 -10.145,7.584 -2.737,-1.83 -6.27,-4.521 -10.145,-7.584 -2.977,-2.352 -5.245,-1.061 -5.091,2.923 l 0.283,7.334 c 0.12,3.127 2.413,6.449 4.808,8.205 l 10.145,7.584 c -2.737,-1.83 -6.27,-4.521 -10.145,-7.584 z"
             sodipodi:nodetypes="cccccccccccccccccccccccccccccccscccccccscsccccccccccccccccccccc"
             inkscape:label="fruit-c" />
          <path
             style="fill:none;fill-opacity:1;stroke:#000000;stroke-width:1.5;stroke-linecap:round;stroke-linejoin:round;stroke-miterlimit:4;stroke-dasharray:none"
             d="m -20734.728,-21809.519 v -109.522"
             id="path11343"
             inkscape:label="ear-p-c" />
        </g>
        <g
           id="g22612"
           inkscape:label="ear-l"
           transform="translate(1.9997953)">
          <path
             style="opacity:1;fill:#fcdd09;fill-opacity:1;stroke:#000000;stroke-width:1.5;stroke-linecap:round;stroke-linejoin:round"
             d="m -20714.339,-21722.02 c 4.977,-27.806 16.226,-58.313 36.178,-89.999 l 3.301,2.28 c -17.032,27.261 -29.817,56.563 -34.765,87.719 z"
             id="path14354"
             sodipodi:nodetypes="ccccc"
             inkscape:label="stem-l" />
          <path
             id="path12187"
             style="fill:#fcdd09;fill-opacity:1;stroke:#000000;stroke-width:2;stroke-linecap:round;stroke-linejoin:round;stroke-miterlimit:4;stroke-dasharray:none"
             d="m -20625.071,-21872.877 c 2.963,-0.199 6.679,-1.774 8.457,-4.349 l 4.171,-6.039 c 2.265,-3.281 1.044,-5.586 -2.73,-5.197 -4.914,0.508 -9.339,0.886 -12.63,0.963 -1.329,-3.012 -2.869,-7.178 -4.498,-11.841 -1.252,-3.581 -3.858,-3.708 -5.864,-0.262 l -3.693,6.343 c -1.576,2.704 -1.421,6.737 -0.341,9.503 l 4.498,11.841 c 3.291,-0.08 7.716,-0.455 12.63,-0.962 3.774,-0.39 4.995,1.915 2.73,5.196 l -4.171,6.04 c -1.778,2.575 -5.494,4.15 -8.457,4.348 l -12.63,0.963 c 3.291,-0.08 7.716,-0.455 12.63,-0.963 3.774,-0.389 4.995,1.916 2.73,5.197 l -4.171,6.039 c -1.778,2.575 -5.494,4.15 -8.457,4.348 l -12.63,0.963 -4.498,-11.841 c -1.08,-2.766 -1.235,-6.8 0.34,-9.504 l 3.694,-6.342 c 2.005,-3.446 4.612,-3.32 5.864,0.262 1.629,4.663 3.169,8.829 4.498,11.841 l -4.498,-11.841 c -1.08,-2.767 -1.235,-6.8 0.34,-9.504 l 3.694,-6.343 c 2.006,-3.445 4.612,-3.319 5.864,0.262 1.629,4.664 3.169,8.829 4.498,11.841 z m 1.373,-40.007 c -1.646,-3.419 -3.887,-3.722 -5.865,-0.262 l -2.398,4.303 c -1.553,2.716 -1.42,6.736 -0.34,9.503 l 4.498,11.841 12.63,-0.963 c 2.963,-0.198 6.658,-1.788 8.457,-4.347 l 2.875,-4 c 2.291,-3.261 1.064,-5.202 -2.73,-5.197 -4.573,0 -8.713,-0.1 -12.004,-0.02 -1.33,-3.012 -3.155,-6.764 -5.123,-10.856 z m -48.195,75.882 c -1.252,-3.582 -3.859,-3.708 -5.865,-0.262 l -3.693,6.342 c -1.575,2.704 -1.865,5.931 -0.785,8.698 l 4.943,12.647 13.548,-0.903 c 2.964,-0.198 5.761,-1.833 7.539,-4.408 l 4.171,-6.039 c 2.265,-3.281 1.043,-5.587 -2.731,-5.197 -4.914,0.507 -9.338,0.885 -12.629,0.963 l 12.629,-0.963 c 2.964,-0.198 6.68,-1.773 8.458,-4.349 l 4.171,-6.039 c 2.265,-3.281 1.044,-5.586 -2.73,-5.197 -4.915,0.508 -9.339,0.886 -12.63,0.963 -1.33,-3.012 -2.869,-7.178 -4.498,-11.841 -1.252,-3.581 -3.859,-3.707 -5.865,-0.262 l -3.693,6.343 c -1.575,2.704 -1.42,6.738 -0.34,9.504 l 4.498,11.841 c -1.33,-3.013 -2.869,-7.178 -4.498,-11.841 z"
             sodipodi:nodetypes="cccccccccccccccccccccccccccccccccccccccscscccccccccccccccccccccc"
             inkscape:label="fruit-l" />
          <path
             style="fill:none;fill-opacity:1;stroke:#000000;stroke-width:1.5;stroke-linecap:round;stroke-linejoin:round;stroke-miterlimit:4;stroke-dasharray:none"
             d="m -20677.293,-21809.577 58.718,-92.451"
             id="path12189"
             inkscape:label="ear-p-l" />
        </g>
        <use
           x="0"
           y="0"
           xlink:href="#g22612"
           id="use24214"
           width="100%"
           height="100%"
           transform="matrix(-1,0,0,1,-41469.455,0)"
           inkscape:label="ear-r" />
      </g>
      <g
         id="g24975"
         inkscape:label="leaves">
        <path
           style="opacity:1;fill:#fcdd09;fill-opacity:1;stroke:#000000;stroke-width:1.5;stroke-linecap:round;stroke-linejoin:round"
           d="m -20726.461,-21722.02 c 4.892,-84.065 26.092,-112.074 47.945,-136.62 -20.453,33.587 -38.548,71.677 -43.168,136.62 z"
           id="path24446"
           sodipodi:nodetypes="cccc"
           inkscape:label="leaf-l" />
        <use
           x="0"
           y="0"
           xlink:href="#path24446"
           id="use24733"
           width="100%"
           height="100%"
           transform="matrix(-1,0,0,1,-41469.455,0)"
           inkscape:label="leaf-r" />
      </g>
      <path
         id="path4070"
         style="opacity:1;fill:#fcdd09;fill-opacity:1;stroke:#000000;stroke-width:6;stroke-linecap:butt;stroke-linejoin:miter;stroke-miterlimit:4;stroke-dasharray:none"
         d="m 124.23633,322 v 14.16797 c 0,124.371 107.45501,196.75586 196.79101,196.75586 89.335,0 196.78907,-72.38486 196.78907,-196.75586 V 322 Z"
         transform="translate(-21055.754,-22044.02)"
         inkscape:label="field2-0" />
      <path
         id="path6832"
         style="opacity:1;fill:#0f47af;fill-opacity:1;stroke:#000000;stroke-width:3;stroke-linecap:round;stroke-linejoin:round;stroke-miterlimit:4;stroke-dasharray:none"
         d="m 194.69336,372.87109 c -31.583,0 -31.58302,11.48633 -63.16602,11.48633 -0.5276,0 -0.978,-0.0292 -1.48828,-0.0351 23.39671,94.67458 113.90637,148.60156 190.98828,148.60156 77.08105,0 167.58983,-53.92698 190.98633,-148.60156 -0.51026,0.006 -0.96069,0.0351 -1.48828,0.0351 -31.584,0 -31.58301,-11.48633 -63.16601,-11.48633 -31.583,0 -31.58302,11.48633 -63.16602,11.48633 -31.584,0 -31.58497,-11.48633 -63.16797,-11.48633 -31.583,0 -31.58301,11.48633 -63.16601,11.48633 -31.58401,0 -31.58302,-11.48633 -63.16602,-11.48633 z"
         transform="translate(-21055.754,-22044.02)"
         inkscape:label="foot" />
      <path
         id="path6828"
         style="opacity:1;fill:#ffffff;stroke:#000000;stroke-width:3;stroke-linecap:round;stroke-linejoin:round;stroke-miterlimit:4;stroke-dasharray:none"
         transform="translate(-21055.754,-22044.02)"
         d="m 321.02539,503.77344 c -31.583,0 -31.58302,11.48828 -63.16601,11.48828 -9.12341,0 -15.48622,-1.00396 -20.86133,-2.36719 12.75521,6.1419 25.93123,10.89825 39.16406,14.23828 15.12236,-3.19809 20.9479,-9.77539 44.86328,-9.77539 23.91556,0 29.74219,6.57928 44.86523,9.77735 13.23403,-3.34021 26.41165,-8.09761 39.16797,-14.24024 -5.37569,1.36374 -11.74,2.36719 -20.86523,2.36719 -31.584,0 -31.58497,-11.48828 -63.16797,-11.48828 z m -126.33203,-36.1211 c -7.44595,0 -13.1005,0.65107 -17.86328,1.62696 4.01722,4.21681 8.17957,8.26152 12.50781,12.08008 1.68395,-0.078 3.45701,-0.12305 5.35547,-0.12305 31.583,0 31.58202,11.48633 63.16602,11.48633 31.583,0 31.58301,-11.48633 63.16601,-11.48633 31.583,0 31.58397,11.48633 63.16797,11.48633 31.583,0 31.58302,-11.48633 63.16602,-11.48633 1.89912,0 3.671,0.045 5.35546,0.12305 4.32821,-3.81856 8.49063,-7.86327 12.50782,-12.08008 -4.76288,-0.97594 -10.41712,-1.62696 -17.86328,-1.62696 -31.58301,0 -31.58302,11.48828 -63.16602,11.48828 -31.584,0 -31.58497,-11.48828 -63.16797,-11.48828 -31.583,0 -31.58302,11.48828 -63.16601,11.48828 -31.58401,0 -31.58302,-11.48828 -63.16602,-11.48828 z m 0,-72.24414 c -29.60906,0 -31.46036,10.09738 -57.59961,11.35938 1.72444,4.47619 3.56195,8.87349 5.58984,13.13086 20.96471,-2.31585 24.67775,-10.90625 52.00977,-10.90625 31.583,0 31.58202,11.48633 63.16602,11.48633 31.583,0 31.58301,-11.48633 63.16601,-11.48633 31.583,0 31.58397,11.48633 63.16797,11.48633 31.583,0 31.58302,-11.48633 63.16602,-11.48633 27.33215,0 31.04413,8.59045 52.00976,10.90625 2.02787,-4.25737 3.86542,-8.65467 5.58984,-13.13086 -26.14007,-1.262 -27.99054,-11.35938 -57.5996,-11.35938 -31.58301,0 -31.58302,11.48828 -63.16602,11.48828 -31.584,0 -31.58497,-11.48828 -63.16797,-11.48828 -31.583,0 -31.58302,11.48828 -63.16601,11.48828 -31.58401,0 -31.58302,-11.48828 -63.16602,-11.48828 z m 0,36.12305 c -21.51111,0 -28.5073,5.27903 -40.67383,8.67773 2.44366,3.81919 4.99555,7.54177 7.67774,11.14063 8.3853,-3.02908 16.28247,-6.23633 32.99609,-6.23633 31.583,0 31.58202,11.48828 63.16602,11.48828 31.583,0 31.58301,-11.48828 63.16601,-11.48828 31.583,0 31.58397,11.48828 63.16797,11.48828 31.583,0 31.58302,-11.48828 63.16602,-11.48828 16.71448,0 24.61015,3.20711 32.99609,6.23633 2.68234,-3.5991 5.2359,-7.32118 7.67969,-11.14063 -12.16797,-3.39867 -19.16362,-8.67773 -40.67578,-8.67773 -31.58301,0 -31.58302,11.48633 -63.16602,11.48633 -31.584,0 -31.58497,-11.48633 -63.16797,-11.48633 -31.583,0 -31.58302,11.48633 -63.16601,11.48633 -31.58401,0 -31.58302,-11.48633 -63.16602,-11.48633 z"
         inkscape:label="waves" />
      <path
         style="opacity:1;fill:none;stroke:#000000;stroke-width:7;stroke-linecap:butt;stroke-linejoin:miter;stroke-miterlimit:4;stroke-dasharray:none"
         d="m -20537.938,-21967.687 v 259.834 c 0,124.371 -107.454,196.756 -196.789,196.756 -89.336,0 -196.79,-72.385 -196.79,-196.756 v -259.834 z"
         id="path24988"
         sodipodi:nodetypes="cszscc"
         inkscape:label="coa-f" />
    </g>
  </g>
</svg>
