<?xml version="1.0" encoding="UTF-8" standalone="no"?>
<!-- Created with Inkscape (http://www.inkscape.org/) -->
<svg
   xmlns:dc="http://purl.org/dc/elements/1.1/"
   xmlns:cc="http://web.resource.org/cc/"
   xmlns:rdf="http://www.w3.org/1999/02/22-rdf-syntax-ns#"
   xmlns:svg="http://www.w3.org/2000/svg"
   xmlns="http://www.w3.org/2000/svg"
   xmlns:sodipodi="http://sodipodi.sourceforge.net/DTD/sodipodi-0.dtd"
   xmlns:inkscape="http://www.inkscape.org/namespaces/inkscape"
   version="1.0"
   width="869.63"
   height="1044.121"
   id="svg2566"
   sodipodi:version="0.32"
   inkscape:version="0.45"
   sodipodi:docname="drawing.svg"
   sodipodi:docbase="/Users/user4/Desktop/Daten/wikimedia/todo"
   inkscape:output_extension="org.inkscape.output.svg.inkscape"
   sodipodi:modified="true">
  <metadata
     id="metadata3052">
    <rdf:RDF>
      <cc:Work
         rdf:about="">
        <dc:format>image/svg+xml</dc:format>
        <dc:type
           rdf:resource="http://purl.org/dc/dcmitype/StillImage" />
      </cc:Work>
    </rdf:RDF>
  </metadata>
  <sodipodi:namedview
     inkscape:window-height="709"
     inkscape:window-width="884"
     inkscape:pageshadow="2"
     inkscape:pageopacity="0.0"
     guidetolerance="10.0"
     gridtolerance="10.0"
     objecttolerance="10.0"
     borderopacity="1.0"
     bordercolor="#666666"
     pagecolor="#ffffff"
     id="base"
     inkscape:zoom="0.35919193"
     inkscape:cx="372.04724"
     inkscape:cy="526.18109"
     inkscape:window-x="69"
     inkscape:window-y="49"
     inkscape:current-layer="svg2566" />
  <defs
     id="defs2568" />
  <g
     id="layer1"
     transform="translate(0,-8.2412292)">
    <path
       d="M 865.13,617.3512 L 865.13,12.741204 L 4.5,12.741204 L 4.5,617.3512 C 4.5,855.0022 197.75099,1047.8622 435.403,1047.8622 C 673.044,1047.8772 865.13,855.0032 865.13,617.3512 z "
       style="fill:#009e01;stroke:#000000;stroke-width:9"
       id="path20878" />
    <path
       d="M 53.188,788.3222 C 89.488005,788.3222 101.212,749.6162 129.347,749.6162 C 157.484,749.6162 169.20599,788.3222 205.505,788.3222 C 241.80399,788.3222 253.528,749.6162 281.66399,749.6162 C 309.801,749.6162 321.52699,788.3222 357.821,788.3222 C 394.121,788.3222 405.846,749.6162 433.981,749.6162 C 462.116,749.6162 473.84,788.3222 510.13999,788.3222 C 546.43999,788.3222 558.164,749.6162 586.297,749.6162 C 614.43599,749.6162 626.158,788.3222 662.455,788.3222 C 698.754,788.3222 710.479,749.6162 738.614,749.6162 C 766.751,749.6162 778.47699,788.3222 814.771,788.3222 C 818.279,788.3222 821.55,787.9502 824.635,787.2942 C 831.409,771.7002 837.281,755.6232 842.181,739.1262 C 834.545,744.0952 825.791,747.6632 814.771,747.6632 C 778.47699,747.6632 766.752,708.9552 738.614,708.9552 C 710.481,708.9552 698.754,747.6632 662.457,747.6632 C 626.16,747.6632 614.43599,708.9552 586.299,708.9552 C 558.164,708.9552 546.43999,747.6632 510.13999,747.6632 C 473.84,747.6632 462.118,708.9552 433.981,708.9552 C 405.848,708.9552 394.121,747.6632 357.821,747.6632 C 321.529,747.6632 309.8,708.9552 281.666,708.9552 C 253.53,708.9552 241.80599,747.6632 205.507,747.6632 C 169.207,747.6632 157.48501,708.9552 129.349,708.9552 C 101.212,708.9552 89.488005,747.6632 53.19,747.6632 C 42.228,747.6632 33.51,744.1302 25.904,739.2022 C 30.831,755.6892 36.732,771.7582 43.54,787.3432 C 46.561,787.9702 49.763,788.3222 53.188,788.3222 z "
       style="fill:#ffffff;stroke:#000000;stroke-width:2.5"
       id="path2709" />
    <path
       d="M 662.456,841.0282 C 626.159,841.0282 614.43599,802.3202 586.298,802.3202 C 558.165,802.3202 546.441,841.0282 510.141,841.0282 C 473.841,841.0282 462.117,802.3202 433.98199,802.3202 C 405.849,802.3202 394.122,841.0282 357.822,841.0282 C 321.528,841.0282 309.8,802.3202 281.665,802.3202 C 253.53,802.3202 241.805,841.0282 205.50599,841.0282 C 169.207,841.0282 157.48501,802.3202 129.34801,802.3202 C 106.02701,802.3202 93.964005,828.8932 69.850005,837.9922 C 75.864005,847.8842 82.274005,857.5092 89.050005,866.8522 C 102.279,855.9312 113.07,842.9792 129.34801,842.9792 C 157.48501,842.9792 169.207,881.6872 205.50599,881.6872 C 241.805,881.6872 253.529,842.9792 281.665,842.9792 C 309.80199,842.9792 321.528,881.6872 357.822,881.6872 C 394.122,881.6872 405.849,842.9792 433.98199,842.9792 C 462.117,842.9792 473.841,881.6872 510.141,881.6872 C 546.441,881.6872 558.165,842.9792 586.298,842.9792 C 614.43699,842.9792 626.159,881.6872 662.456,881.6872 C 698.755,881.6872 710.48,842.9792 738.615,842.9792 C 754.966,842.9792 765.781,856.0462 779.08799,866.9972 C 779.43199,866.5882 779.764,866.1692 780.106,865.7592 C 786.53999,856.7892 792.639,847.5642 798.375,838.0922 C 774.087,829.0902 762.024,802.3212 738.61599,802.3212 C 710.481,802.3222 698.755,841.0282 662.456,841.0282 z "
       style="fill:#ffffff;stroke:#000000;stroke-width:2.5"
       id="path2711" />
    <path
       d="M 496.50099,622.1762 C 496.44799,622.0222 496.399,621.8752 496.351,621.7232 C 496.261,620.4462 496.351,619.1432 496.71799,617.8272 L 506.52999,592.5152 L 455.425,593.0132 C 457.224,595.7582 476.40199,622.9152 477.93899,625.8042 C 478.834,628.1692 479.859,630.4662 480.875,632.7142 L 496.50099,622.1762 z "
       style="fill:#010101"
       id="path2713" />
    <polygon
       points="2225.479,335.478 2213.653,365.419 2201.323,368.313 2184.339,341.265 2225.479,335.478 "
       transform="translate(-1721.367,255.2122)"
       style="fill:#ffffff"
       id="polygon2715" />
    <path
       d="M 328.181,924.3132 C 325.587,925.6042 324.253,928.3092 322.716,930.6202 C 325.431,930.3082 328.126,929.8332 330.861,929.6672 C 335.338,929.5502 339.818,931.1342 344.281,930.2292 L 339.56,920.5962 L 328.181,924.3132 z "
       style="fill:#020202"
       id="path2717" />
    <path
       d="M 339.611,906.3632 C 333.935,907.0092 328.244,908.3612 323.33,911.3832 C 323.184,912.3502 323.043,913.3302 322.904,914.3212 C 327.00899,913.9672 330.865,915.4792 334.83,916.2142 L 339.611,906.3632 z "
       style="fill:#020202"
       id="path2719" />
    <path
       d="M 343.835,896.2232 C 338.931,895.7292 333.99099,894.6762 329.05399,895.3562 C 326.642,895.6572 325.783,898.1882 324.825,900.0532 C 330.589,899.5822 335.173,903.8342 340.845,903.8812 L 343.835,896.2232 z "
       style="fill:#020202"
       id="path2721" />
    <path
       d="M 179.557,180.5282 C 179.171,180.5282 178.82099,180.2772 178.70099,179.8982 C 178.56399,179.4652 178.76999,178.9992 179.18399,178.8092 C 184.28499,176.4692 304.218,121.4522 314.599,118.1352 C 314.689,118.1062 314.783,118.0922 314.872,118.0922 C 315.183,118.0922 315.47699,118.2532 315.643,118.5322 C 318.17,122.7612 321.06099,127.1022 325.04899,130.1912 C 327.86899,132.3422 330.358,135.9732 328.05699,139.1162 C 325.248,143.6092 323.616,148.3922 323.243,153.2792 C 323.212,153.6892 322.90699,154.0252 322.50099,154.0962 C 316.939,155.0752 181.093,180.2562 179.72199,180.5112 C 179.66899,180.5232 179.61199,180.5282 179.557,180.5282 L 179.557,180.5282 z "
       style="fill:#ee2424;stroke:#010101;stroke-width:2"
       id="path2723" />
    <path
       d="M 461.31,902.9342 C 461.31,902.9342 467.546,905.2622 469.205,906.2432 C 470.855,907.2222 471.98199,908.8742 471.98199,908.8742 C 471.98199,908.8742 465.968,910.9792 464.17,910.9792 C 462.36899,910.9792 460.188,909.1002 460.188,909.1002 L 461.31,902.9342 z "
       style="fill:#020202"
       id="path2725" />
    <path
       d="M 338.05399,660.3972 L 338.929,661.4182 L 339.437,662.0062 L 340.208,662.0982 C 340.97199,662.1902 341.769,662.2842 342.624,662.3732 C 344.267,663.8772 346.09699,665.1762 347.995,666.3462 C 348.409,662.8012 348.788,658.8362 346.515,655.7992 C 346.072,655.2072 345.585,654.6542 345.081,654.1232 L 338.05399,660.3972 z "
       style="fill:#010101"
       id="path2727" />
    <path
       d="M 249.325,677.6212 C 245.50099,683.2622 241.546,689.0922 238.563,695.4552 C 238.563,695.4552 237.273,697.8222 236.87,699.0702 C 236.466,700.3182 237.253,702.2972 237.36599,704.2012 C 239.363,703.0642 241.03199,701.3832 241.56699,699.3202 C 241.672,698.9142 243.04899,697.8552 243.66899,697.6972 C 248.335,696.5002 252.392,693.0512 254.321,688.5092 L 254.34199,688.4562 L 249.325,677.6212 z "
       style="fill:#010101"
       id="path2729" />
    <path
       d="M 233.723,677.9402 L 233.06799,678.6242 C 229.65,682.1852 226.14,685.8512 224.23,690.5622 C 223.514,691.7872 222.86,693.0522 222.30199,694.3862 C 221.10399,697.0742 222.79,699.7362 223.927,702.1152 C 225.548,699.4672 226.747,696.2502 229.656,694.7202 C 230.887,694.1032 232.00099,693.3552 233.023,692.5132 C 233.874,691.9082 234.672,691.1952 235.36199,690.3242 C 235.585,690.0562 235.8,689.7912 236.02,689.5192 C 236.06799,689.4602 236.116,689.4062 236.165,689.3432 C 236.981,688.3472 237.788,687.3432 238.56799,686.3632 C 240.54699,683.8692 244.936,678.9242 244.936,678.9242 L 245.017,678.8192 L 233.723,677.9402 z "
       style="fill:#010101"
       id="path2731" />
    <path
       d="M 229.36199,665.3792 L 229.308,665.4282 L 229.256,665.4792 C 228.16399,666.5862 226.96699,667.6242 225.701,668.7092 C 224.131,670.0642 220.953,673.1412 220.871,673.2072 C 216.408,676.8852 214.73999,682.6932 213.82799,688.1782 C 217.50199,686.7052 220.266,683.9242 223.05899,681.2152 C 223.99199,681.1172 224.89,681.0182 225.753,680.9082 L 226.411,680.8262 L 226.889,680.3672 C 228.798,678.5372 232.814,674.8472 232.814,674.8472 L 229.36199,665.3792 z "
       style="fill:#010101"
       id="path2733" />
    <path
       d="M 405.65699,648.6232 C 402.595,648.1392 377.173,643.6952 374.79199,643.1742 C 372.188,642.6022 332.812,634.6682 330.702,637.5492 C 328.591,640.4302 331.97,643.9442 333.737,645.6492 C 335.04899,646.9692 336.583,648.1042 338.21,649.3072 C 342.083,652.1682 346.093,655.1292 346.698,660.5772 L 346.835,661.8072 L 339.944,661.0552 C 339.944,661.0552 327.924,647.0862 320.376,643.6822 C 312.731,639.3212 296.351,635.3642 286.90699,644.3272 L 286.86599,644.3642 L 286.823,644.3912 C 271.635,655.9532 260.083,671.0592 253.413,688.0882 C 251.341,692.9692 246.7,696.4832 241.579,697.0672 L 238.626,697.6762 L 239.473,695.8692 C 242.419,689.5782 246.351,683.7812 250.153,678.1762 C 252.197,675.1622 258.447,665.3322 259.56399,663.6122 C 261.154,661.1572 262.781,658.6412 264.181,656.0242 C 256.56799,662.1922 250.38,670.0382 244.224,678.2082 L 244.182,678.2612 L 244.134,678.3102 C 241.85399,680.6212 239.788,683.2202 237.79199,685.7382 C 236.753,687.0452 235.68,688.3942 234.579,689.7032 C 232.235,692.6822 228.548,693.7852 225.583,694.6722 L 223.90199,695.1762 L 224.325,693.4772 C 225.763,687.6762 234.421,678.6652 234.421,678.6652 C 237.03199,676.0402 239.483,673.1882 241.855,670.4352 C 244.175,667.7422 259.626,650.6402 263.84699,645.1752 C 262.892,646.0132 261.952,646.8632 261.026,647.6982 C 258.483,649.9972 255.85399,652.3722 253.013,654.4422 C 251.654,655.5362 225.962,679.8782 225.962,679.8782 L 217.741,680.6902 L 218.30899,679.2062 C 219.913,675.0282 223.189,672.2062 226.356,669.4762 C 227.583,668.4192 247.7,649.1092 252.35699,645.4232 C 253.956,644.1892 255.54399,642.9442 257.135,641.7002 C 268.596,632.7392 280.449,623.4712 294.358,618.1082 C 298.286,616.8442 302.411,616.2452 307.024,616.2452 C 313.901,616.2452 320.706,617.6382 325.86599,618.8472 C 334.1,621.1562 343.012,622.9512 353.137,624.3682 C 371.901,626.4232 450.614,639.5562 467.045,642.4912 C 468.375,642.7272 475.244,644.2102 480.42399,644.7702 C 483.549,645.1102 486.059,644.6962 486.367,644.6592 C 485.40799,640.3702 483.56799,636.2782 481.783,632.3092 C 480.02699,628.4142 477.226,619.5572 477.226,619.5572 C 478.41399,616.1192 481.55,612.0902 484.57,611.3462 C 487.59,610.6022 491.72199,612.6512 492.777,614.9502 C 493.644,616.7372 494.273,618.6452 494.88099,620.4932 C 495.10199,621.1592 504.115,642.7682 510.262,650.3472 C 513.274,654.0112 515.98699,657.6952 516.11,662.3672 C 516.186,668.0962 512.719,675.5452 504.549,675.5452 C 498.551,675.5452 494.305,671.1992 491.697,667.9512 C 490.619,666.6072 489.595,665.3382 488.38799,664.2602 C 486.46799,663.2372 484.242,663.1902 481.89199,663.1352 C 480.706,663.1142 467.138,659.7812 460.699,658.4772 C 454.964,656.7892 406.673,648.7892 405.65699,648.6232 z "
       style="fill:#ee2424;stroke:#010101;stroke-width:2"
       id="path2735" />
    <path
       d="M 427.31,610.9472 C 428.29199,613.2732 451.52699,678.0932 452.464,680.4822 C 453.50899,683.3122 458.118,692.1152 458.937,693.8942 C 461.894,700.0132 461.884,707.8982 458.906,715.4992 C 457.146,719.6042 455.00799,726.3992 454.32,729.3292 C 453.632,732.2612 453.642,736.0262 453.222,739.2762 C 452.488,744.9992 445.105,828.5872 445.117,833.8192 C 444.04699,846.3112 442.54899,858.8812 441.099,871.0402 C 441.099,871.0402 438.038,892.0302 439.046,894.0382 C 439.405,894.7592 440.935,897.8562 444.86599,899.3132 C 451.919,901.9222 466.471,905.2042 466.471,905.2042 L 464.612,910.0732 C 464.612,910.0732 462.28199,910.2192 461.438,910.2822 C 459.844,910.3932 456.463,910.5632 456.463,910.5632 L 456.36699,910.5452 C 456.36699,910.5452 449.488,908.6992 446.576,907.9512 C 442.824,906.9882 438.941,905.9902 435.189,904.7032 C 434.078,904.3422 432.892,904.1622 431.589,904.1622 C 428.80399,904.1622 410.079,909.5822 404.148,911.0822 C 398.474,912.5212 367.058,921.3692 357.197,923.4902 C 357.197,923.4902 350.888,925.5352 348.531,926.8592 C 346.135,928.2132 343.656,929.6052 340.781,930.1252 C 340.213,930.1892 339.697,930.2172 339.177,930.2172 L 339.177,930.2172 C 336.79199,930.2172 334.478,929.6702 332.236,929.1452 C 331.371,928.9442 328.757,928.3952 328.757,928.3952 L 329.2,923.6702 C 329.2,923.6702 344.16899,919.9672 350.78,919.1722 C 356.49099,918.4592 362.026,916.4832 367.38,914.5652 C 370.275,913.5282 373.269,912.4542 376.276,911.5852 C 378.932,910.8082 381.473,909.8472 383.876,908.7162 C 379.88,909.4432 375.481,910.0562 370.28,910.6322 C 365.368,911.6052 347.034,914.2472 342.926,914.9912 C 340.588,915.3032 338.48699,915.4522 336.457,915.4522 C 334.60199,915.4522 332.811,915.3212 331.131,915.0612 C 329.033,914.7352 325.805,910.1632 325.805,910.1632 L 327.084,909.7252 C 330.252,908.6452 333.68,907.9542 337.613,907.6212 C 339.49199,907.4632 345.273,907.4002 345.595,907.4002 C 351.406,907.4002 357.281,906.5172 362.964,905.6702 C 365.745,905.2562 368.624,904.8222 371.47,904.4982 C 371.47,904.4982 380.425,903.9022 383.884,902.4822 C 383.03,902.5722 373.714,903.3062 372.757,903.3062 C 367.443,903.3062 361.945,903.3062 356.546,902.5502 C 355.48399,902.6202 354.415,902.7022 353.345,902.7862 C 350.156,903.0302 346.85699,903.2842 343.591,903.2842 C 339.515,903.2842 333.786,902.6712 332.60699,901.8482 C 331.425,901.0262 328.16899,896.9092 328.16899,896.9092 L 329.741,896.5202 C 331.132,896.1702 332.6,896.0042 334.235,896.0042 C 336.50599,896.0042 338.79699,896.3322 341.00599,896.6502 C 343.197,896.9622 345.432,897.2852 347.594,897.2852 C 348.975,897.2852 350.217,897.1582 351.391,896.8942 L 351.475,896.8732 L 351.55899,896.8692 C 360.926,896.4062 381.493,894.5582 382.897,894.5582 C 392.98899,894.5582 402.571,892.0662 410.60199,887.3492 C 417.204,883.1542 422.635,877.0402 425.174,869.0872 C 426.983,863.3312 427.951,857.3122 428.736,851.6532 C 429.105,848.9382 432.06,755.1142 431.924,745.6572 C 431.78899,736.2002 429.985,713.1062 429.668,709.3432 C 429.273,704.5682 428.85899,699.6202 429.262,694.6972 C 429.469,692.5152 431.629,685.3382 431.887,683.7692 C 431.283,679.0172 429.723,674.3532 428.215,669.8372 L 405.432,605.7142 L 427.31,610.9472 z "
       style="fill:#ee2424;stroke:#010101;stroke-width:2"
       id="path2737" />
    <path
       d="M 551.92499,420.2612 L 653.92499,642.2612 C 647.771,635.5402 609.90199,620.6222 594.51699,613.0192 C 594.51699,613.0192 572.42499,603.6362 555.675,601.7612 C 538.92499,599.8862 517.294,600.2822 517.294,600.2822 C 517.294,600.2822 494.50699,605.0012 475.51099,602.9032 C 457.59699,600.9242 440.273,592.9862 438.521,592.6042 L 438.35699,592.5682 C 438.404,595.2142 438.156,605.4682 437.961,607.7452 C 437.84199,611.5892 437.252,615.4012 436.205,619.0162 L 435.865,620.1822 L 434.654,620.0962 C 428.455,619.6582 423.675,615.9222 419.06,612.3132 C 418.57,611.9242 418.081,611.5422 417.585,611.1672 C 414.825,614.2882 407.274,620.1062 407.274,620.1062 C 407.274,620.1062 381.581,578.5602 380.96,577.5922 C 378.985,574.5162 377.12,571.6132 374.06199,570.0812 C 374.06199,570.0812 348.80399,555.0272 332.742,541.2852 C 318.56,529.1532 307.545,515.0362 304.746,511.3292 C 301.656,506.9732 298.572,502.3082 296.406,497.2252 C 294.939,499.5962 292.261,502.9852 289.48199,504.8682 C 285.85899,507.3202 282.195,507.9542 282.195,507.9542 C 282.195,507.9542 283.72,501.7072 284.535,494.8392 C 285.205,489.1702 285.209,483.0782 285.084,479.7252 C 282.199,483.8472 279.648,486.9612 275.60399,490.8532 C 271.317,494.9762 266.629,497.7362 266.629,497.7362 C 266.629,497.7362 269.266,484.8332 269.54699,478.9402 C 269.90199,471.5582 268.832,456.5172 268.80899,456.1902 C 267.754,457.9032 265.278,460.8712 262.827,463.0982 C 259.872,465.7862 256.978,467.6092 256.978,467.6092 C 256.978,467.6092 258.193,460.9692 258.704,453.4822 C 259.099,447.7032 258.888,441.3632 258.522,437.5062 C 257.361,439.6632 251.717,446.8222 251.717,446.8222 C 251.717,446.8222 251.055,433.8742 250.643,421.3342 C 250.099,404.7652 250.081,381.2522 252.926,360.7612 C 262.226,293.8022 299.84199,261.3672 327.59199,216.0942 C 335.582,203.0612 339.34199,189.3262 339.55899,183.7992 C 339.522,182.3342 339.582,180.7332 339.641,179.1832 C 339.819,174.5372 339.303,168.2952 337.85399,166.3712 C 336.405,164.4472 336.625,160.5972 336.715,160.0412 C 332.551,158.6872 328.957,156.2632 325.75,154.1002 C 322.518,151.9712 323.08,147.6562 324.551,144.6132 C 326.633,140.6042 328.766,136.8012 332.04899,133.9582 C 331.957,133.9602 331.86899,133.9602 331.778,133.9602 C 330.55699,133.9602 326.196,130.9622 322.458,127.4002 C 318.993,124.1002 316.103,120.2622 315.747,119.1782 L 315.673,118.7092 C 315.673,115.6262 317.00699,112.9532 318.3,110.3692 C 318.54199,109.8832 319.905,107.3742 319.905,107.3742 C 324.591,99.295202 329.438,90.939202 336.958,84.926202 C 347.101,75.686202 360.595,70.122204 371.911,70.122204 C 398.48899,70.122204 414.341,93.713202 417.77,108.5902 C 420.166,118.5482 424.131,137.0282 416.426,159.7612 C 411.50399,174.2792 397.60399,195.9622 394.434,200.5152 C 385.59199,213.2102 373.518,232.1262 364.805,253.3342 C 350.34199,288.5452 351.571,321.8112 368.086,342.3242 C 378.398,355.1302 396.50799,363.7932 421.912,368.0752 C 427.437,368.6552 432.951,370.0222 438.283,371.3452 C 439.80599,371.7232 441.336,372.1012 442.861,372.4622 C 447.31,373.6432 451.752,375.0382 456.043,376.3902 C 466.498,379.6812 477.314,383.0852 488.40799,383.3712 L 490.00199,383.4122 L 489.865,384.9982 C 489.744,386.3952 489.635,387.7962 489.541,389.2022 C 491.979,390.3502 494.643,390.9152 497.43599,391.5102 C 499.72699,391.9982 502.096,392.5022 504.375,393.3612 L 506.252,394.0662 C 506.252,394.0662 532.563,407.7712 551.348,418.7292"
       style="fill:#fffdfd;stroke:#010101;stroke-width:2.5"
       id="path2739" />
    <path
       d="M 337.298,160.1092 C 353.956,164.8682 381.868,151.2932 388.50699,145.1642"
       style="fill:none;stroke:#020202;stroke-width:2"
       id="path2741" />
    <path
       d="M 179.72199,180.5112 C 179.72199,180.5112 335.10899,132.5302 340.091,131.6232 C 345.073,130.7162 344.845,132.7552 344.845,132.7552"
       style="fill:none;stroke:#010101;stroke-width:2"
       id="path2743" />
    <polygon
       points="2235.542,342.425 2240.667,346.675 2250.167,346.3 2276.667,349.3 2297.167,353.425 2303.542,353.55 2313.917,358.425 2321.292,356.55 2303.792,346.675 2255.292,339.549 2235.542,342.425 "
       transform="translate(-1721.367,255.2122)"
       style="fill:#fffdfd"
       id="polygon2745" />
    <path
       d="M 554.59299,426.0952 L 613.59299,471.0952 L 654.13599,514.5712 L 671.63599,542.0712 C 671.63599,542.0712 674.845,549.9812 676.574,555.5132 C 678.303,561.0442 686.92799,589.2612 686.92799,589.2612 L 697.13299,688.5562 L 691.63299,685.8822 L 613.13699,562.0692 L 531.63699,503.5692 L 554.59299,426.0952 z "
       style="fill:#fffdfd"
       id="path2747" />
    <path
       d="M 380.79399,102.2362 C 380.228,101.1992 370.917,102.7912 370.917,102.7912 C 365.126,103.9142 359.263,105.0252 353.464,105.0232 C 352.837,105.0232 352.212,105.0112 351.589,104.9842 L 351.54,104.9822 L 351.483,104.9822 C 348.493,105.0212 344.395,105.2242 340.68,107.0822 C 334.821,109.8052 331.909,115.1192 329.00799,120.1692 C 327.873,122.1582 326.725,124.1632 325.485,125.9272 L 325.053,126.5422 L 323.41,128.8712 L 327.355,131.0762 C 327.355,131.0762 331.626,126.1042 332.98,125.0042 C 334.337,123.9102 335.72,123.2322 337.533,123.1382 C 338.123,123.2262 338.74,123.3302 339.375,123.4352 C 341.268,123.7462 343.311,124.0972 345.385,124.1012 C 348.026,124.1152 350.373,123.4642 352.262,122.0162 C 354.438,120.2872 355.889,118.1062 357.344,115.9962 C 359.313,113.0982 361.16399,110.4962 363.99399,109.0602 C 365.599,108.5292 367.262,108.0402 368.89,107.5612 C 369.878,107.2692 381.361,103.2742 380.79399,102.2362 z "
       style="fill:#010101"
       id="path2749" />
    <path
       d="M 347.241,115.3362 C 346.54399,114.6552 348.04,111.9942 348.55899,111.4722 C 349.786,110.2462 352.99099,109.6812 353.649,110.7182 C 354.30699,111.7552 354.12,113.4512 352.518,114.4882 C 351.599,115.0842 348.183,116.2532 347.241,115.3362 z "
       style="fill:#fffdfd"
       id="path2751" />
    <path
       d="M 415.593,417.7612 C 407.925,412.4282 345.925,378.7612 332.925,382.7612 C 319.925,386.7612 306.593,403.4282 304.259,424.4282 C 301.925,445.4282 311.259,466.0952 327.925,466.4282 C 344.593,466.7612 342.925,458.4282 342.925,458.4282"
       style="fill:none;stroke:#010101;stroke-width:2.29999995"
       id="path2753" />
    <path
       d="M 318.925,427.0942 C 318.925,427.0942 334.259,458.7602 346.259,459.0942 C 358.259,459.4282 359.259,451.4282 359.259,451.4282"
       style="fill:none;stroke:#010101;stroke-width:2.29999995"
       id="path2755" />
    <path
       d="M 337.259,421.0942 C 337.259,421.0942 355.259,453.7622 365.591,454.4282 C 366.9,454.5122 371.015,455.3242 373.591,453.4282 C 377.046,450.8872 378.925,445.4282 378.925,445.4282"
       style="fill:none;stroke:#010101;stroke-width:2.29999995"
       id="path2757" />
    <path
       d="M 356.591,415.4282 C 356.591,415.4282 372.853,441.7402 381.706,447.5902 C 381.976,447.7682 384.874,449.9412 388.571,450.4902 C 392.378,451.0572 397.034,449.9662 400.925,447.4282"
       style="fill:none;stroke:#010101;stroke-width:2.29999995"
       id="path2759" />
    <path
       d="M 368.259,526.4282 C 368.259,526.4282 348.48199,516.3672 333.925,502.7612 C 323.30399,492.8302 316.99899,478.9942 315.593,475.7612 C 312.259,468.0942 312.322,458.1992 312.322,458.1992"
       style="fill:none;stroke:#010101;stroke-width:2.29999995"
       id="path2761" />
    <path
       d="M 317.425,463.3542 C 317.425,463.3542 320.925,471.7612 327.259,479.7612 C 333.591,487.7612 348.259,503.0942 357.259,504.0942 C 366.259,505.0942 371.591,501.0942 371.591,501.0942"
       style="fill:none;stroke:#010101;stroke-width:2.29999995"
       id="path2763" />
    <path
       d="M 338.591,465.7612 C 338.591,465.7612 353.925,487.0942 359.259,492.0942 C 364.591,497.0942 371.234,501.8592 376.591,501.4282 C 384.925,500.7612 388.591,493.0942 388.591,493.0942"
       style="fill:none;stroke:#010101;stroke-width:2.29999995"
       id="path2765" />
    <path
       d="M 354.612,458.0942 C 354.612,458.0942 375.258,486.7622 384.924,490.4282 C 398.612,495.6182 401.365,488.3242 403.59,486.4282"
       style="fill:none;stroke:#010101;stroke-width:2.29999995"
       id="path2767" />
    <path
       d="M 372.99899,454.3442 C 372.99899,454.3442 396.927,486.0942 407.927,486.0942 C 418.927,486.0942 423.259,479.7612 423.259,479.7612 C 423.259,479.7612 415.261,476.7622 407.593,469.4282 C 399.927,462.0942 391.80199,451.1672 391.80199,451.1672"
       style="fill:none;stroke:#010101;stroke-width:2.29999995"
       id="path2769" />
    <path
       d="M 504.01699,581.0462 C 507.269,587.5492 514.855,601.3672 521.62799,602.7222 C 528.40099,604.0772 529.485,602.7222 529.485,602.7222"
       style="fill:#ffffff;stroke:#010101;stroke-width:2"
       id="path2771" />
    <path
       d="M 517.835,581.8602 C 517.835,581.8602 526.106,600.7272 531.651,603.8052 C 538.547,607.6352 545.547,604.5102 545.547,604.5102"
       style="fill:#ffffff;stroke:#010101;stroke-width:2"
       id="path2773" />
    <path
       d="M 535.71799,584.5702 C 535.71799,584.5702 542.677,603.5552 548.724,606.7872 C 555.92499,610.6372 563.08299,607.3302 563.08299,607.3302"
       style="fill:#ffffff;stroke:#010101;stroke-width:2"
       id="path2775" />
    <path
       d="M 553.06,587.5492 C 553.06,587.5492 559.88,609.4062 568.55,610.7612 C 577.22199,612.1152 579.175,609.7612 579.175,609.7612"
       style="fill:#ffffff;stroke:#010101;stroke-width:2"
       id="path2777" />
    <path
       d="M 569.046,588.9052 C 569.046,588.9052 573.92299,606.5162 581.23699,610.8502 C 588.551,615.1862 595.87,612.7462 595.87,612.7462"
       style="fill:#ffffff;stroke:#010101;stroke-width:2"
       id="path2779" />
    <path
       d="M 586.11599,589.9892 C 586.11599,589.9892 591.804,611.3912 599.389,614.9162 C 606.97699,618.4372 614.834,616.8122 614.834,616.8122"
       style="fill:#ffffff;stroke:#010101;stroke-width:2"
       id="path2781" />
    <path
       d="M 602.91699,581.8602 C 602.91699,581.8602 606.97799,610.0392 613.214,615.4572 C 619.446,620.8772 632.72199,616.0002 632.72199,616.0002"
       style="fill:none;stroke:#010101;stroke-width:2"
       id="path2783" />
    <path
       d="M 460.015,488.5122 C 460.587,488.5362 461.296,488.5522 462.115,488.5522 C 466.103,488.5522 472.654,488.2512 479.844,488.2512 C 482.762,488.2632 485.78,488.3112 488.787,488.4452 C 487.564,486.0312 485.625,482.2572 483.42399,478.2162 C 479.736,471.4162 475.141,463.7522 472.514,461.1732 C 466.801,455.4292 439.114,433.7672 430.319,427.9222 C 425.725,424.8622 421.04899,423.5962 416.659,423.5942 C 416.653,423.5942 416.647,423.5942 416.641,423.5942 C 411.022,423.5942 405.85199,425.7052 402.125,428.9512 C 398.389,432.2052 396.154,436.5222 396.16,440.9162 C 396.16,442.6612 396.50599,444.4372 397.267,446.2212 C 399.665,451.8222 405.078,459.6902 423.093,472.6322 C 429.835,477.4782 437.849,481.4152 444.812,484.1532 C 451.734,486.8932 457.796,488.4262 460.015,488.5122 z "
       id="path2785" />
    <path
       d="M 514.712,501.9482 C 514.71,501.5562 514.651,501.2352 514.548,500.9552 C 513.966,499.3812 512.657,498.0012 510.52699,496.8002 C 508.41199,495.6062 505.547,494.6592 502.256,493.9802 C 495.666,492.6042 487.41199,492.2512 479.844,492.2532 C 472.754,492.2532 466.276,492.5512 462.115,492.5532 C 461.256,492.5532 460.49399,492.5372 459.828,492.5092 C 457.29899,492.3632 453.05699,491.3352 447.848,489.5352 L 447.6,490.0812 C 447.598,490.0852 447.12,489.8612 446.485,489.6402 C 445.887,489.4132 445.094,489.2372 444.926,489.2452 L 444.926,489.2462 C 444.926,489.2502 444.918,489.2462 444.846,489.2662 C 444.77,489.2872 444.66399,489.3222 444.541,489.3662 C 444.293,489.4552 443.973,489.5892 443.646,489.7602 C 442.99399,490.0922 442.324,490.5862 441.98,491.0212 C 441.968,491.0192 441.839,491.2802 441.771,491.7632 C 441.66399,492.2592 441.71,492.8082 441.296,493.7822 C 441.21,493.9572 441.177,494.1302 441.177,494.3442 C 441.16699,494.7302 441.349,495.2022 441.427,495.3412 L 441.433,495.3582 L 441.435,495.3582 L 441.238,495.4802 C 443.29899,496.7852 446.025,498.4292 449.207,500.2292 C 456.023,504.0862 464.906,508.6252 473.629,511.8972 C 484.188,515.8842 498.46299,516.8822 504.143,517.0052 C 507.784,513.4802 510.715,510.1972 512.541,507.3722 C 514.042,505.0862 514.734,503.1502 514.712,501.9482 z "
       id="path2787" />
    <path
       d="M 508.605,518.2122 C 504.93299,521.9272 500.48799,525.8612 495.63799,529.8572 C 501.33299,533.3632 506.986,535.6862 517.89199,538.3182 C 524.02499,539.7922 531.22799,540.9112 536.87199,541.6552 C 537.714,541.7642 538.51499,541.8682 539.276,541.9632 C 529.639,534.3542 521.264,527.8862 515.53599,523.4952 C 512.294,521.0092 509.909,519.1992 508.605,518.2122 z "
       id="path2789" />
    <path
       d="M 475.495,545.3762 C 483.786,547.6982 500.173,551.9272 514.47199,552.2622 C 515.105,552.2792 515.73799,552.2832 516.37,552.2832 C 528.72699,552.2892 540.92899,549.4712 546.751,547.8892 C 546.22799,547.4722 545.71,547.0602 545.19,546.6502 C 541.368,546.2642 527.79,544.7982 516.96,542.2072 C 505.144,539.3862 498.788,536.6532 492.355,532.5192 C 490.70299,533.8442 489.019,535.1702 487.31,536.4972 C 483.42299,539.5042 479.42899,542.4892 475.495,545.3762 z "
       id="path2791" />
    <path
       d="M 538.2,428.1462 C 556.49699,437.4092 580.61599,451.6502 605.85,472.2102 C 632.957,494.2962 649.91199,512.7452 661.09,527.2912 C 665.461,532.9782 668.955,538.0722 671.822,542.5412 C 669.644,536.8322 666.959,530.2572 663.855,523.6032 C 658.255,511.5802 650.667,499.4082 644.251,490.9662 C 629.845,472.0002 611.52099,450.7492 592.351,434.0132 C 574.785,418.6702 557.367,408.5482 543.349,402.1632 C 529.37,395.7782 518.652,393.1272 514.954,392.7462 C 514.39199,392.6842 513.845,392.6572 513.304,392.6572 C 510.2,392.6552 507.476,393.6162 505.61599,395.0002 C 503.739,396.3992 502.804,398.1172 502.811,399.6952 C 502.811,399.8032 502.821,399.9202 502.831,400.0522 C 502.92299,400.9732 503.21,401.5832 503.804,402.2632 C 504.39799,402.9322 505.355,403.6112 506.648,404.2762 C 509.22799,405.6182 513.03899,406.8612 517.271,408.6602 C 522.041,410.7402 527.363,415.9722 531.8,420.7442 C 534.52099,423.6932 536.829,426.4562 538.2,428.1462 z "
       id="path2793" />
    <path
       d="M 475.339,458.3452 C 475.49299,458.5002 475.651,458.6752 475.81,458.8482 C 478.32,459.6362 486.69299,462.3092 497.97199,466.3652 C 497.611,465.0842 497.062,463.2162 496.327,460.9272 C 494.90099,456.4972 492.802,450.5612 490.09799,444.5812 C 482.90999,428.5772 471.709,410.2302 463.612,403.2702 C 453.637,394.6012 442.389,392.1732 436.524,391.5042 C 438.378,394.6472 440.512,399.7752 440.518,406.7392 C 440.518,407.6032 440.485,408.4912 440.414,409.4112 C 439.959,415.5272 437.598,419.5412 435.03699,421.9152 C 433.93,422.9362 432.836,423.6602 431.846,424.1702 C 432.076,424.3152 432.305,424.4412 432.534,424.5932 C 441.741,430.7542 469.05399,452.0892 475.339,458.3452 z "
       id="path2795" />
    <path
       d="M 399.409,516.3152 C 399.421,516.3552 399.456,516.4342 399.513,516.5412 C 399.628,516.7552 399.831,517.0682 400.111,517.4372 C 400.672,518.1772 401.533,519.1352 402.613,520.2142 C 404.775,522.3782 407.812,525.0382 411.244,527.8112 C 418.103,533.3532 426.56599,539.3672 432.924,543.0312 C 443.649,549.2632 459.03899,549.7892 462.60199,549.7682 C 467.717,546.1102 473.23699,542.1222 478.71699,538.0102 C 479.72299,537.2592 480.725,536.5012 481.72299,535.7422 C 473.809,534.9352 460.043,532.2962 449.596,527.5812 C 442.133,524.1852 435.785,520.1012 431.063,516.6942 C 426.379,513.3172 423.147,510.4952 422.428,509.9982 C 422.397,509.9762 422.397,509.9772 422.395,509.9762 C 421.86399,509.6162 420.165,509.2322 418.055,509.2552 C 412.498,509.1932 403.95,511.4642 400.77,514.1952 C 399.686,515.0892 399.383,515.8082 399.403,516.2052 C 399.403,516.2352 399.403,516.2672 399.40699,516.3052 C 399.405,516.3062 399.40699,516.3102 399.409,516.3152 z "
       id="path2797" />
    <path
       d="M 681.90699,574.4872 C 679.471,567.8332 674.87599,558.2002 670.42699,550.0092 C 665.32,540.6112 660.341,532.8722 657.92299,529.7282 C 646.93899,515.4422 630.22199,497.2232 603.327,475.3082 C 578.561,455.1282 554.868,441.1002 536.835,431.9362 L 536.38799,432.2842 C 536.38599,432.2822 536.11799,431.9352 535.63,431.3272 C 521.06799,424.0002 510.37199,419.9222 506.06799,418.3842 C 504.683,417.8912 503.98,417.6642 503.98,417.6622 L 503.173,417.4022 L 502.798,416.6432 C 502.794,416.6412 502.355,415.7442 501.562,414.2862 C 500.769,412.8272 499.63199,410.8282 498.289,408.6962 C 495.61699,404.4332 491.961,399.6112 488.851,397.5992 C 487.40599,396.6362 486.40999,396.3932 485.956,396.4042 C 485.505,396.4362 485.51699,396.4792 485.329,396.6832 C 485.165,396.8972 484.99099,397.4182 484.99699,398.0222 C 484.976,398.8382 485.33299,399.7122 485.579,399.9292 C 486.659,401.1112 488.03999,403.3582 489.62,406.1462 C 491.169,408.9062 492.765,412.0592 493.835,414.6572 C 494.53599,416.4342 495.052,417.7892 495.091,419.2192 C 495.075,419.7762 495.034,420.7462 493.92899,421.5512 C 493.294,421.9282 492.83299,421.9302 492.456,421.9432 C 490.93099,421.8872 489.48299,421.2842 487.46799,420.4822 C 485.51299,419.6712 483.257,418.6112 481.101,417.5542 C 480.581,417.2982 480.06799,417.0422 479.566,416.7902 C 484.754,424.8012 489.767,434.1532 493.752,442.9352 C 499.31799,455.2742 502.348,467.1992 502.367,467.2632 L 502.369,467.2662 L 501.256,467.5482 C 514.276,472.3022 530.45299,478.6632 545.787,485.9502 C 568.695,496.8452 590.03499,510.9022 603.22799,522.2392 C 615.855,533.0952 640.62299,556.0252 656.685,585.8052 C 675.247,620.2372 688.15,660.1362 694.38,680.1882 C 695.442,683.6202 696.325,686.4972 696.99299,688.6272 C 697.889,688.9322 698.671,689.0982 699.261,689.0742 C 700.202,689.0412 700.55,688.8572 700.976,688.3532 C 701.40199,687.8322 701.851,686.6622 701.92699,684.6652 C 701.964,683.7962 701.98199,682.8002 701.98199,681.6982 C 701.99,667.6672 698.945,636.6752 692.646,609.8702 C 689.47199,596.3742 685.345,583.8832 681.90699,574.4872 z "
       id="path2799" />
    <path
       d="M 682.183,655.7722 C 675.177,635.5772 665.38,610.3682 653.165,587.7102 C 637.51699,558.6702 613.085,535.9812 600.62199,525.2772 C 587.788,514.2432 566.63199,500.2892 544.063,489.5672 C 519.327,477.8062 492.159,468.4052 480.149,464.4512 C 480.07299,464.4272 480.00299,464.4042 479.92599,464.3802 C 482.244,467.9282 484.688,472.2232 486.92799,476.3052 C 489.97699,481.8982 492.52999,486.9822 493.399,488.7372 C 500.68,489.3262 507.577,490.5992 512.485,493.3162 C 515.13,494.7952 517.282,496.8302 518.299,499.5762 C 518.576,500.3352 518.707,501.1382 518.707,501.9522 C 518.686,504.4602 517.582,506.9272 515.885,509.5562 C 514.688,511.3922 513.156,513.3082 511.367,515.2962 C 519.73799,521.6362 561.73799,553.6342 593.74,581.7632 C 611.95299,597.7692 625.38099,613.9002 631.92799,621.4552 C 638.94799,629.5512 645.053,637.4432 650.01,644.2502 C 655.244,651.4692 674.457,673.4922 688.42599,683.7362 C 689.676,684.6722 690.88699,685.4862 692.03899,686.1932 C 691.596,684.7552 691.1,683.1562 690.551,681.3842 C 688.49099,674.7232 685.685,665.8752 682.183,655.7722 z "
       id="path2801" />
    <path
       d="M 457.29399,553.5552 C 450.618,553.0852 439.763,551.5542 430.925,546.4932 C 425.114,543.1382 417.853,538.0682 411.425,533.0572 C 404.98699,528.0212 399.466,523.1692 396.925,519.8512 C 396.505,519.2682 396.148,518.7492 395.876,518.1812 L 395.79,518.5352 C 395.788,518.5352 394.618,518.2522 393.114,517.9472 C 391.618,517.6412 389.77,517.3222 388.634,517.2562 C 388.279,517.2352 386.99099,517.1792 385.2,517.1812 C 380.98699,517.1742 373.80699,517.4722 368.18,518.9482 C 365.233,519.7122 362.684,520.9232 360.828,522.1012 C 359.84,522.7052 359.03699,523.3712 358.50799,523.8722 C 358.68,524.0002 358.86899,524.1412 359.074,524.2902 C 360.344,525.2232 362.22,526.5662 364.642,528.2072 C 369.48399,531.4892 376.49399,535.9562 385.132,540.6722 C 400.626,549.1232 421.37,558.3452 444.228,563.0102 C 447.511,560.5272 452.06199,557.2842 457.29399,553.5552 z "
       id="path2803" />
    <path
       d="M 425.228,507.1012 C 425.761,507.5162 426.416,508.0672 427.361,508.8262 C 428.765,509.9582 430.654,511.4532 432.965,513.1362 C 437.582,516.4942 443.879,520.5922 451.254,523.9462 C 463.022,529.3392 480.777,532.0502 485.92599,532.0152 L 485.92599,532.5112 C 490.98699,528.5702 495.815,524.6032 500.03099,520.8232 C 492.92699,520.3982 481.56,519.1252 472.222,515.6352 C 456.439,509.6982 440.654,500.0362 435.993,496.8172 C 435.374,496.3792 435.005,496.1262 434.641,495.8002 C 434.633,495.8002 434.625,495.8002 434.618,495.8002 C 434.06099,495.7372 432.085,496.5162 430.323,497.6832 C 428.526,498.8232 426.739,500.2712 425.839,501.1812 C 425.339,501.6062 424.954,502.9732 424.98,504.4522 C 424.98,505.3192 425.082,506.1812 425.179,506.8062 C 425.195,506.9132 425.21,507.0062 425.228,507.1012 z "
       id="path2805" />
    <path
       d="M 516.37,556.2822 C 515.70799,556.2822 515.044,556.2742 514.37799,556.2612 C 497.319,555.8452 477.989,550.2592 471.396,548.3652 C 462.97199,554.4692 455.123,559.9662 449.589,564.0102 C 450.468,564.1572 451.341,564.3212 452.226,564.4512 C 467.884,566.8282 484.73799,567.6672 500.63999,567.6652 C 519.195,567.6672 536.46,566.5282 549.079,565.3902 C 556.724,564.7022 562.634,564.0142 566.11799,563.5782 C 560.868,559.2552 555.63799,555.0162 550.585,550.9592 C 546.751,552.1102 531.90199,556.2722 516.37,556.2822 z "
       id="path2807" />
    <line
       style="fill:none"
       id="line2809"
       y2="567.33624"
       x2="445.15503"
       y1="567.33722"
       x1="445.15698" />
  </g>
</svg>
