<!-- Created with Inkscape (http://www.inkscape.org/) -->
<svg xmlns:rdf="http://www.w3.org/1999/02/22-rdf-syntax-ns#" xmlns="http://www.w3.org/2000/svg" height="497" width="427" version="1.1" xmlns:cc="http://creativecommons.org/ns#" xmlns:xlink="http://www.w3.org/1999/xlink" xmlns:dc="http://purl.org/dc/elements/1.1/">
 <defs></defs>
 <metadata>
  <rdf:RDF>
   <cc:Work rdf:about="">
    <dc:format>image/svg+xml</dc:format>
    <dc:type rdf:resource="http://purl.org/dc/dcmitype/StillImage"/>
    <dc:title/>
   </cc:Work>
  </rdf:RDF>
 </metadata>
 <g transform="translate(0,25)">
  <path stroke-linejoin="miter" d="m6-18.14,415,0,0,295c0,97.018-97.859,188.06-210.57,189.13s-203.33-83.32-204.43-189.13z" stroke="#000" stroke-linecap="butt" stroke-miterlimit="4" stroke-dasharray="none" stroke-width="6" fill="#000"/>
  <path d="m158.23,482.31c13.958-48.66,58.771-77.396,120.55-74.97,0.36991-20.179-20.436-38.729-31.645-58.017-6.0661-4.9246-3.7735-9.3093-5.2742-13.939-18.692,1.3751-42.153-13.623-47.468-30.138-7.5346,9.8744-13.562,25.521-21.097,28.255-2.7627-3.2616-5.5254-5.9819-8.2881-15.069-3.0138,9.076-6.0277,9.6073-9.0416,12.055-3.265,0.75264-6.53-6.4952-9.795-11.302-2.6006,4.7558-4.8914,10.441-9.4183,9.4183-3.9878-5.4917-1.9611-13.958-4.8975-15.069-3.3916-0.50753-2.4096,13.695-7.5346,13.939-2.2714-9.9368-8.3789-16.689-13.562-16.199-24.872,2.3485,3.006,24.382-13.562,12.432-7.0067-3.9929-8.5682,2.7337-12.432,5.651-4.5042-0.8956-4.2835-8.0231-4.144-13.562-5.4502,3.4905-7.7741,8.4488-15.069,6.4044,1.0496,5.0231,9.9958,12.307,3.7673,17.33-5.3079-3.511-13.423,1.6232-15.823,4.8975-5.682,1.2949-2.9058-11.647-5.0157-16.603-2.3466,6.8704-5.0699,15.463-7.4164,11.329-1.0552-5.0079-6.5067-9.471-10.575-12.47-3.9208-11.939,16.155-2.8846,15.161-7.9003,2.255-6.19-18.376-1.9643-11.355-12.276,6.3019,1.2052,11.812-3.3706,11.017-9.2622,12.274-9.3069,13.074,16.976,19.488,8.7562,18.459-18.276,53.002-28.737,77.644-55.197-4.1072-14.468,9.5913-13.534,10.511-23.54-4.8616-3.2744-24.581-2.8449-16.797-9.9132,8.6864-4.3177,20.01-9.1043,28.696-19.967-3.716,0.15607-4.7191,1.3973-12.965-0.25854,2.6707-5.0231,10.417-9.8776,4.8329-12.809-4.2458-2.2285-5.9342,8.9081-16.641,11.135-1.1248-5.972-3.3506-11.944-0.68882-17.916-3.6417-3.6322-7.2835,1.1654-10.925,3.0138-2.5061-5.651,2.2505-11.944-7.9114-16.953-9.0813-4.4765-10.046,3.265-15.069,4.8975l-1.5069-27.878-8.6648,4.144c-1.0075-4.2024,3.9127-12.311-0.75346-13.186-8.8748-1.6628-11.286,15.47-16.576-2.2604-0.61495-5.9151-17.98-9.0675-6.7812-10.925,15.033-2.4937,6.2319-6.8751,0.37673-12.809-11.907-12.067-31.52,19.775-31.645,3.0138l-2.274-10.895c-3.7787-16.017,17.966,0.57782,19.967-8.6648,1.1693-5.4011-25.998-9.0266-12.809-15.446,4.5405-0.21831,6.7613-3.0469,8.2881-8.2881,3.7427-9.1125,10.039,14.472,13.939,11.302,4.9453-4.019-6.4293-17.04,4.5208-12.432,3.265,2.3517,10.297,5.9573,13.562-0.37673,7.7383,4.7875-4.9489,12.552-3.6936,17.496,1.5709,6.1879,9.5375,12.14,21.023,21.307,21.833,17.426,35.379,28.016,55.003,40.31,0.17143-5.055-0.21959-11.088,4.5208-14.316,16.485,3.804,32.019,7.7804,34.659-10.172-7.6097,0.78323-17.364,6.4413-20.343,0.75347-2.6938-5.1422-2.122-17.522,3.0139-17.33,31.832,1.192,46.168-3.0767,44.078-13.939-3.3159-17.229-28.313-11.751-47.091-13.186-3.3468-0.25577-12.732-8.3651-3.8587-12.79,16.291-1.5432,9.1433-8.8346,0.95522-7.3518-7.0128-9.8425,16.214-8.2513,22.117-10.373,19.158-6.8879,49.481-29.708,63.291-12.055,1.0277,2.1385-15.252,10.037-11.302,12.809,1.0178,2.0309,20.64-19.83,33.529-19.59,4.5898,15.119-4.1757,32.15-2.2604,33.906,3.5285,3.2344,3.0156-14.052,5.651-13.186,26.361,9.853,13.901,78.023,14.693,122.44,0.70227,39.396,12.955,44.379,12.432,64.421-3.8929-2.9596-7.7858-9.9192-11.679-7.1579-1.7402,19.339,27.321,32.65,18.083,55.756-4.7719-4.2438-9.5439-13.47-14.316-13.186,1.2309,18.791,7.4994,38.367,15.446,56.886,9.7737,22.777,31.369,40.619,37.673,39.557,10.973-1.8494,32.407-20.632,10.925-68.942-14.913-33.537-13.348-74.798-0.00001-119.8,7.8916-26.608,42.389-52.981,28.632-88.909-9.4478-24.674-34.04-37.215-55.003-12.809-5.6111,6.5327-2.8016,19.14,0.75346,29.385,8.0818,23.29,1.4057,35.802-9.0416,51.235-3.5342-17.733-14.651-27.135-17.279-41.38-2.08-11.274,4.5801-19.379,7.1072-30.575,4.7889-21.217,23.145-32.733,42.194-34.283,13.13-1.0679,38.197,13.65,42.947,31.269,11.308,41.941-11.739,60.399-23.357,87.402-3.3025,7.6758,4.7584,14.818,8.2881,25.994,9.5844,3.4756,14.597,10.306,14.693,20.72,0.17991,19.534-7.0992,28.752-10.925,50.482-4.6425,3.4484-12.793-10.696-18.837-24.488-7.1119-16.229,4.8975-42.571,4.8975-42.571s-1.7127-10.118-6.0277-13.562c-10.374,26.09-8.6759,55.668-3.0138,84.765,3.3528,17.23,10.999,34.077,14.316,56.51,6.0076,40.628-5.0006,58.213-22.604,67.812l0.37673,27.878c-13.677,14.065-35.624,31.571-66.305,46.715-42.229,20.844-88.701,24.155-141.27,14.693z" transform="translate(0,-25)" fill="#fcdd09"/>
  <path d="m360.16,264.93c-8.876-17.352-17.839-30.858-17.33-51.235,0.55094-22.054,13.718-47.933,26.748-38.05l3.0138-9.0416c-8.0649-2.6021-15.659-9.7749-29.385,7.5346-10.847,13.679-13.51,28.639-13.186,43.324,0.88249,39.945,27.883,57.794,38.183,79.734z" transform="translate(0,-25)" fill="#fcdd09"/>
  <path d="m127.04,20.493c18.207,8.0588,13.628,18.946,19.86,41.265,2.7499,9.8477,22.003,3.2551,31.292-0.83703,11.492-5.0626,39.41,1.2765,41.403,3.8626,2.5161,3.265-1.3834,6.1951-4.9377,7.154-3.1523,0.85047-16.842-4.8827-25.916-4.2355-15.008,1.0705-28.567,14.135-43.168,10.503-11.558-2.875-22.454-11.226-25.838-22.646-3.158-10.654,0.16491-26.903,7.3061-35.067z" fill="#da121a"/>
  <path stroke-linejoin="round" d="m176.42,50.767c0.39006,4.3305,1.6,7.3277,5.0542,9.9351,0.87425-4.0938,2.9809-8.1618,5.4136-9.7766-4.524,0.2901-7.8388,0.17945-10.468-0.15844z" stroke="#000" stroke-linecap="round" stroke-miterlimit="4" stroke-dasharray="none" stroke-width="1.77639055" fill="#FFF"/>
  <path stroke-linejoin="round" d="m85.141,274.22c7.0507-2.2009,7.4619-3.88,9.0415-5.651m47.845,12.809c3.0336,0.0384,3.5156,1.6077,3.0138,3.7673m-7.8467-9.9889c2.4126,1.5726,4.234,1.3719,5.9441,0.83703m-7.139-21.74c2.1488-1.9255,4.9964-2.8027,5.2742-7.5346m-13.186,15.823c-0.0621,4.6836-0.97622,9.8784,3.7673,11.679m-12.79-167.66c3.6389,10.641,11.703,13.094,19.681,23.312m60.49-2.9681c8.2097-11.211,19.376-9.648,23.807-22.604m-52.742,15.069,7.5346,8.2881m-47.651-19.065c6.1354,4.7965,10.987,13.016,19.027,12.733m66.738,16.523c-0.85478,7.4516-2.276,12.921-1.819,24.964,8.7018-8.4601,18.317-13.723,25.755-26.608m-67.416,25.588c19.046-33.069,29.524-20.303,44.547-32.78m21.316-30.922c-1.1074,16.284-8.1855,18.092-12.459,32.407,10.659-0.46135,12.732-7.6008,17.512-12.634m-163.65-44.764c10.185,11.284,19.995,11.177,28.95,25.093m0.94738,171.5c6.7226-3.5664,12.323-10.499,18.083-16.953m75.723,171.79c8.056-12.482,21.22-6.0372,30.138-13.562m50.482,18.837c-6.1896-6.6436,5.1473-17.051,7.9114-25.618m22.981-18.46c9.6694-4.4366,19.339-15.852,29.008-24.864m-38.803,52.366c20.957-15.011,11.716-22.331,37.296-44.454,3.733,4.2848-4.413,13.849-9.0415,21.85m-43.324,42.947c7.3672-14.539,23.803-5.4476,39.18-29.385,2.9978-4.6666,3.7045-6.458,12.809-9.4183,10.467-3.4032,4.781-20.186,17.33-33.906m-71.956,24.864c18.96,1.9053,17.141-12.252,21.474-10.925,8.9105,2.7283,10.145,0.36393,11.679-3.7673,3.0601-8.2422,6.7616-8.0425,12.432-9.4183,9.2146-2.2356,3.4926-8.4882,6.7812-13.939m22.981-0.75346c6.8974,0.32898,12.843-5.5289,15.823-13.186m-171.78,102.84c16.014-3.7553,32.559-11.04,45.584-26.748-1.9358,17.103,2.9991,14.93,6.0277,30.892,3.8483-30.107,15.754-28.9,20.72-53.496m-209.09-101.71c10.046-3.2111,20.092-5.4757,30.138-15.446m88.771-61.738c14.929-5.4737,24.442-17.447,32.315-31.387m-35.154-3.0138c-0.91716,8.231-2.3544,15.942,0.13711,27.582m-29.385-0.97416c8.3969-8.6551,13.084-20.989,25.223-25.928,25.438-10.35,18.977-25.558,28.41-29.707m7.976,77.321c7.3918,9.7377,10.125,26.487,7.1579,44.454,16.32-20.093,4.764-25.368,16.199-36.543m-51.612-5.651c7.2014-0.79354,1.2232,22.401,6.0277,37.673,12.441-33.963,33.277-48.607,42.571-82.127m-85.05,95.846c3.926-14.842,9.6767-24.951,17.889-21.162m-22.243-7.3029c10.592,10.095,12.497,20.914,14.811,31.699m-19.59-9.4183c0.88258-35.828,20.251-41.815,32.022-64.044-4.5686,16.566-8.2501,33.022-4.8975,48.598,8.8882-5.9987,13.855-31.315,26.748-41.064m128.36-145.94c0.67249,23.306,10.446,16.722,6.8726,42.072m59.965,75.909c2.1166,14.202,0.00051,27.195-2.7932,39.995,3.8783-11.26,10.486-19.4,9.8864-35.778m-134.12,31.645c7.7424,1.2645,5.2169,16.141,7.5346,23.734,7.9114-16.454,10.548-40.631,15.823-41.817m-43.701,4.5208c5.7907,7.3878,8.7604,19.007,10.548,32.399,5.415-14.693,11.59-23.079,16.199-44.454m11.38-16.54c4.681,5.387,8.5767,13.915,14.536,14.187m-25.93-33.914c8.6325,2.7668,3.3,14.993,12.007,11.24,5.4081-2.3308,7.7174-8.9862,4.219-16.415-4.7832-10.157-12.057-20.237-12.055-32.94m-30.892,7.3218c6.6252,8.0677,3.8787,20.336,4.8329,31.554,7.5016-7.767,17.506-6.4073,15.373-38.822-1.2649-19.23,7.6012-15.731,10.686-0.26639,1.845,9.2506,8.305,8.3644,14.407,15.785m-100.3-19.552,13.562-9.795m0.30426-12.459c16.786-1.2526,37.204,0.40617,54.257-24.956,2.5864,3.9535,4.6244,9.5526,5.0914,19.864,4.0502-7.2701,9.1353-6.7788,11.926-23.494m-20.93-37.798c4.7136-4.6231,9.4272-9.4025,14.141-7.801-2.5368,6.1659,1.669,8.9605-3.9501,16.668m-54.204-5.1907c4.7854-2.9155,11.989-3.9595,14.811-9.2165-5.2088-0.01323-9.6549-10.517-17.117,0.27423" stroke="#000" stroke-linecap="round" stroke-miterlimit="4" stroke-dasharray="none" stroke-width="4" fill="none"/>
  <path d="m224.83,49.733a1.9979,2.3975,0,1,1,-3.9958,0,1.9979,2.3975,0,1,1,3.9958,0z" transform="matrix(1.75,0,0,1.05,-170.55175,-28.139282)" fill="#000"/>
  <path d="m224.83,49.733a1.9979,2.3975,0,1,1,-3.9958,0,1.9979,2.3975,0,1,1,3.9958,0z" transform="matrix(1.6666667,0,0,1,-196.90602,-16.741934)" fill="#FFF"/>
  <path stroke-linejoin="round" d="m177.27,76.165c0.17151-2.0928,1.663-5.3897,5.5406-8.3338,0.98144,4.6226,0.67303,6.0422,3.404,7.8656-3.6179-0.20743-6.2073-0.5555-8.9446,0.46814z" stroke="#000" stroke-linecap="round" stroke-miterlimit="4" stroke-dasharray="none" stroke-width="2" fill="#FFF"/>
  <path stroke-linejoin="round" d="m21.613,272.96c6.8528-6.1612,18.804-4.2248,24.228-0.32132,3.0168,2.1708-7.0375,15.948-9.412,10.465-2.2746-5.2529-7.0653-8.6217-14.816-10.143z" stroke="#000" stroke-linecap="round" stroke-miterlimit="4" stroke-dasharray="none" stroke-width="3" fill="#da121a"/>
  <path stroke-linejoin="round" d="m26.304,325.32c-4.4681-8.0596,0.09822-19.272,5.1185-23.684,2.7919-2.4534,13.964,10.434,8.0882,11.518-5.6291,1.0391-9.9862,4.9526-13.207,12.165z" stroke="#000" stroke-linecap="round" stroke-miterlimit="4" stroke-dasharray="none" stroke-width="3" fill="#da121a"/>
  <path stroke-linejoin="round" d="m76.479,328.31c-8.9776,2.0796-18.502-5.394-21.363-11.434-1.5911-3.3589,13.871-10.557,13.298-4.609-0.54887,5.6978,2.0156,10.963,8.0646,16.043z" stroke="#000" stroke-linecap="round" stroke-miterlimit="4" stroke-dasharray="none" stroke-width="3" fill="#da121a"/>
  <path stroke-linejoin="round" d="m82.192,318.55c9.1751-0.85978,15.854-10.957,16.663-17.591,0.4498-3.6894-16.494-5.6399-14.073-0.17677,2.3189,5.2335,1.5471,11.039-2.5898,17.768z" stroke="#000" stroke-linecap="round" stroke-miterlimit="4" stroke-dasharray="none" stroke-width="3" fill="#da121a"/>
  <path stroke-linejoin="round" d="m55.247,104.57c4.9431,7.7774,16.974,9.1265,23.249,6.826,3.4895-1.2794-2.4888-17.253-6.2506-12.61-3.6037,4.4475-9.1238,6.4037-16.998,5.7844z" stroke="#000" stroke-linecap="round" stroke-miterlimit="4" stroke-dasharray="none" stroke-width="3" fill="#da121a"/>
  <path stroke-linejoin="round" d="m22.25,87.302c0.3068-9.2102,9.9845-16.484,16.558-17.69,3.6557-0.67072,6.621,16.125,1.0223,14.037-5.3634-2.0002-11.112-0.88088-17.58,3.6529z" stroke="#000" stroke-linecap="round" stroke-miterlimit="4" stroke-dasharray="none" stroke-width="3" fill="#da121a"/>
  <path stroke-linejoin="round" d="m68.732,22.743c9.1201,1.3209,15.282,11.742,15.756,18.408,0.26337,3.7073-16.757,4.8018-14.064-0.53245,2.5796-5.11,2.1013-10.947-1.6914-17.876z" stroke="#000" stroke-linecap="round" stroke-miterlimit="4" stroke-dasharray="none" stroke-width="3" fill="#da121a"/>
  <path stroke-linejoin="round" d="m30.073,38.592c7.6527-5.134,19.211-1.5326,24.032,3.0965,2.6808,2.5743-9.2149,14.797-10.793,9.0336-1.5116-5.521-5.7797-9.5314-13.239-12.13z" stroke="#000" stroke-linecap="round" stroke-miterlimit="4" stroke-dasharray="none" stroke-width="3" fill="#da121a"/>
 </g>
</svg>
