<?xml version="1.0" encoding="UTF-8"?>
<svg width="620.89" height="658.17" version="1.1" xml:space="preserve" xmlns="http://www.w3.org/2000/svg"><path d="M310.44 3C222.452 4.313 134.81 24.116 69.48 48.848c-7.954 34.591-28.836 56.258-64.574 75.01 43.542 45.919 36.405 162.65 29.9 244.5-11.937 150.21 107.43 286.81 275.64 286.81s287.58-136.6 275.64-286.81c-6.505-81.85-13.641-198.58 29.9-244.5-35.738-18.752-56.62-40.419-64.574-75.01C486.082 24.116 398.432 4.313 310.452 3z" fill="#f00000"/><g transform="translate(.43903 .534)" stroke="#000"><path transform="translate(-.44 -.633)" d="m104.92 282.3c-18.7 0-34.951 5.67-51.38 11.34a529.03 529.03 0 0 1-14.468 4.785c-0.865 24.438-2.556 48.402-4.268 69.936-0.893 11.241-0.962 22.389-0.42 33.426 6.447-1.864 12.808-3.956 19.156-6.147 16.428-5.67 32.68-11.34 51.38-11.34s35.022 5.67 51.38 11.34c16.428 5.67 32.681 11.34 51.381 11.34s35.023-5.67 51.381-11.34c16.428-5.67 32.681-11.34 51.381-11.34s35.023 5.67 51.381 11.34c16.428 5.67 32.681 11.34 51.381 11.34s35.023-5.67 51.381-11.34c16.428-5.67 32.681-11.34 51.381-11.34s35.023 5.67 51.381 11.34c6.348 2.191 12.707 4.283 19.154 6.147 0.543-11.037 0.474-22.185-0.42-33.426-1.71-21.533-3.403-45.498-4.267-69.936a529.13 529.13 0 0 1-14.467-4.785c-16.358-5.67-32.681-11.34-51.381-11.34s-34.953 5.67-51.381 11.34c-16.358 5.67-32.681 11.34-51.381 11.34s-34.953-5.67-51.381-11.34c-16.358-5.67-32.681-11.34-51.381-11.34s-34.953 5.67-51.381 11.34c-16.358 5.67-32.681 11.34-51.381 11.34s-34.953-5.67-51.381-11.34c-16.358-5.67-32.681-11.34-51.381-11.34z" fill="#0093dd" stroke="#000" stroke-width="3"/></g><path d="M310.44 3C222.452 4.313 134.81 24.116 69.48 48.848c-7.954 34.591-28.836 56.258-64.574 75.01 43.542 45.92 36.405 162.65 29.9 244.5-11.937 150.21 107.43 286.81 275.64 286.81s287.58-136.6 275.64-286.81c-6.505-81.85-13.641-198.58 29.9-244.5-35.738-18.752-56.62-40.419-64.574-75.01C486.082 24.116 398.432 4.313 310.452 3z" fill="none" stroke="#000" stroke-width="6"/><g stroke-width="1.333"><path d="M136.69 51.448c-.219 7.5-.371 15.01-.698 22.502-.507 4.181-.192 8.382-.782 12.55-.327 2.886-.148 5.733-.648 8.612-.994 5.213-1.41 10.305-3.142 15.365-.642 2.116-1.821 4.04-2.405 6.162 1.334 1.289 2.918 2.193 4.136 3.63 2.225 2.642 4.61 4.7 6.22 7.81 2.65 4.74 2.745 10.613 3.662 15.865.622 3.367 1.058 6.766 1.584 10.151 2.674 14.262 4.585 28.658 6.951 42.972.128 1.487.603 2.866-.577 4.072-2.456 2.924-5.194 4.874-6.156 8.824-.898 4.47.02 9.465-.166 14.03-.238 5.13 1.173 10.454 3.809 14.86 2.385 3.52 5.617 6.54 9.047 9.041.866.705 1.738 1.186 1.924 2.398.686 3.11.808 6.356 1.302 9.505.472 3.162.957 6.32 1.455 9.475l.087-.02 2.166 14.685c.13.89.283 1.775.41 2.664l-.018-.007.678 4.592c.015.01.03.017.045.026 1.192 8.75 2.535 17.475 3.825 26.208l6.233 42.254c.3 1.699.482 3.41.753 5.105l8.166 55.358-.183.043c1.102 7.925 2.21 15.85 3.316 23.77.34 3.893.892 7.677 1.52 11.525.802 7.528 2.81 14.364 2.758 21.822.212 8.747-3.86 16.615-7.548 24.259-.416.98-1.404 2.61-.789 3.636 3.694 4.873 8.517 7.016 13.371 10.395.91.462.667 1.884.865 2.75.385 5.92 1.514 11.704 2.405 17.552-1.462 1.507-3.263 3.014-4.238 4.887-.853 5.405 1.667 11.24 3.052 16.377 3.706 11.928 7.099 23.939 10.735 35.886 1.02 3.68 2.225 7.823 4.527 10.953 1.546 1.7 4.264 2.482 6.342 3.348.757 1.128 1.501 3.218 2.906 3.597 5.348-.347 10.837-2.475 16.127-3.168 3.919-.526 7.535-1.75 11.222-3.135 3.238-1.2 5.669-3.213 8.51-5.105 2.084-1.404 3.688-3.168 6.022-3.918 2.943-.987 5.841-1.54 8.566-3.136 3.976-2.226 7.971-5.727 9.1-10.318 1.148-4.49 0-8.548-1.436-12.78-1.462-4.265-.808-8.183-.834-12.563-.07-4.534.981-9.1 1.873-13.524 2.558-7.798 5.072-15.628 7.849-23.356 2.033-5.13 3.219-10.445 4.886-15.704 1.212-5.014 1.635-10.298 1.898-15.39.513-4.931 1.007-9.786.782-14.756-.372-3.892 3.315-5.226 3.585-8.958.545-5.355 1.225-10.691 1.783-16.045.275-2.623 1-5.111 1.892-7.58.743-1.905-.2-3.694.538-5.592 2.943-8.113 4.605-16.564 7.606-24.657 1.333-3.713 1.725-7.574 3.334-11.197.622.924 1.206 1.828 1.469 2.924 1.032 4.072 2.257 8.074 3.033 12.21 1.334 6.368 3.63 12.127 5.919 18.187.885 2.283.91 4.963 1.243 7.38.462 4.701 1.18 9.383 1.373 14.096.224 3.456 1.11 6.805 1.27 10.267.051 3.046 2.167 4.886 2.763 7.683.808 6.137-.685 11.914.052 17.968.276 4.168 1.577 8.042 2.206 12.172 1.039 6.259 3.136 12.074 5.444 17.955 1.994 5.13 3.617 10.395 5.618 15.52 1.481 3.545 1.462 7.515 2.257 11.42 1.052 5.348.924 10.626.911 16.05.058 1.751-1.238 3.317-1.783 5.016-.776 2.366-.994 4.964-1.257 7.44-.186 2.692-.43 5.43.802 7.93 1.346 2.681 2.937 5.093 5.675 6.523 2.482 1.487 5.207 1.173 7.746 2.468 1.898 1.013 3.521 2.444 5.022 3.977 2.315 2.41 5.033 4.59 8.06 6.053 5.843 2.655 11.8 4.175 17.943 5.932 1.995.57 4.034.91 6.099 1.122 2.911.275 5.797 1.206 8.734.616.583-.603.782-1.366.891-2.18.135-6.875-2.462-12.769-5.803-18.605-2.174-3.321-4.81-6.354-7.504-9.259-4.104-4.066-9.747-7.728-13.01-12.563-3.483-4.771-5.124-10.248-6.054-16.025-1.206-7.586-1.5-15.416-1.295-23.092-.052-6.432.39-12.832.717-19.245.91-7.65 1.507-15.313 2.296-22.97.551-3.13.911-6.163.84-9.35 1.912-2.398 4.522-4.943 4.996-8.073.866-4.47 1.578-8.927 1.77-13.46.237-3.836-.36-7.76-.936-11.544-.302-2.27-1.52-4.2-1.963-6.405.026-1.937.443-3.848.513-5.784.128-4.759 1.084-9.33.583-14.114.16-6.881-1.602-13.641-1.205-20.49 1.097.346 2.187.686 3.283 1.032 3.579 9.286 6.772 18.733 10.318 28.038 5.2 13.64 9.998 27.35 14.871 41.098 3.29 8.863 6.638 17.731 9.741 26.664 3.091 7.657 5.624 15.506 8.658 23.188.5 1.315 1.135 2.225 2.327 2.995 2.444 1.57 5.272 2.578 7.94 3.693 1.045.27 2.488 1.175 3.276-.005 1.578-2.117 2.764-4.58 3.982-6.914 1.507-2.937.129-5.726-.808-8.56-2.59-6.933-4.732-14.013-7.271-20.958-1.584-4.81-3.065-9.644-4.887-14.37-2.058-6.496-4.386-12.896-6.458-19.386-3.136-8.715-5.803-17.578-8.952-26.286-4.112-11.044-6.732-20.62-10.144-30.62h-.032c-4.25-13.255-8.533-24.757-12.601-36.834-1.834-5.695-3.617-11.428-5.733-17.026 2.347-.641 4.713-1.18 7.041-1.898 4.733-1.27 9.773-1.713 14.402-3.342.058-1.981.059-3.904-.538-5.815-.898-2.828-1.102-5.381-2.834-7.715-2.296-.103-4.47-.033-6.683.653 3.61-2.36 7.53-4.116 11.261-6.278 4.528-2.314 9.1-4.482 13.467-7.105 1.744-1.058 3.347-2.43 5.386-2.866 1.77-.474 3.938-.436 5.304-1.719 2.892-2.475 2.943-6.015 5.2-8.965.543-.687 1.124-1.405 1.695-2.116 2.812-3.14 5.692-6.71 8.642-9.119 1.764-2.642 4.707-4.68 5.169-7.798.237-2.212-.193-4.56-.565-6.74-.833-4.258-1.468-8.259-3.571-12.12-1.02-2.07-2.527-3.879-3.508-5.957-.199-3.777.95-7.08-.86-10.773-1.18-2.559-3.385-3.424-5.816-4.444-1.238-3.56-3.2-6.323-6.182-8.619-4.887-3.661-9.632-7.381-13.505-12.146-3.508-3.597-6.586-7.528-9.876-11.318-5.438-5.887-10.9-11.736-16.21-17.731-2.488-3.27-5.298-6.797-8.536-9.369-2.398-1.475-5.136-2.527-7.823-3.36-4.508-1.091-9.62-.911-14.224-.924-2.802.18-4.488-2.16-7.226-3.084-1.751-.795-4.252-.801-5.714-1.988-.36-2.687-.847-4.605-2.239-6.939-4.027-1.103-8.4-.102-12.569-.577.584-1.308 1.296-2.501 2.11-3.674.417.551.834 1.096 1.245 1.647 3.52.199 7.13.43 10.645.072.795-.18 2.102-.418 2.564-1.136.616-2.084-.686-4.566-1.314-6.541a62.29 62.29 0 0 1-3.81-24.62c1.341-1.16 3.233-2.32 4.01-3.95 1.23-3.372 1.224-7.316 1.179-10.862-.026-2.63-1.283-4.573-1.93-7.016-.295-2.507.596-5.232 1.007-7.72.833-5.137 2.077-10.23 3.462-15.244 2.353.02 4.553.334 6.74-.737 2.63-1.2 5.418-3.398 6.419-6.2.577-2.123.578-4.496.25-6.664-.814-3.54-3.911-5.906-7.156-7.13-2.168-.642-4.823 0-6.933.66-3.623 1.096-6.406 4.373-8.04 7.663-2.56 5.33-4.124 11.28-5.663 16.91-1.2-1.038-2.283-2.186-3.399-3.302-6.938-6.137-16.449-8.677-25.587-7.933a27.623 27.623 0 0 0-13.415 4.097c-4.232 2.905-8.048 6.465-11.511 10.242-3.348 4.04-3.796 8.567-5.393 13.275-2.405 3.584-4.297 7.226-4.156 11.683.205 4.945 1.757 9.792 5.297 13.377-.384 4.444-.25 9.28-1.565 13.493-1.487 5.213-3.565 10.202-4.81 15.493.264.525.527 1.058.797 1.59 3.046.115 6.085.167 9.118.533 1.507.218 2.841-.129 4.265-.565l.134-2.18c1.116 1.481 1.892 2.886 2.533 4.63-4.117-.404-8.093-.418-12.177.339-2.283 1.103-2.527 5.272-2.809 7.465-4.335 2.296-8.772 3.995-13.749 4.002-4.79-.071-10.382.012-14.845 1.98-5.38 2.745-9.799 7.324-11.831 13.07-.783 2.392-2.9 2.93-4.24 4.887-2.11 3.09-3.828 6.425-4.873 10.023-.95 3.232-2.283 6.296-4.258 9.041-3.143 4.296-6.58 8.356-10.594 11.87-2.937 2.616-4.995 5.92-6.118 9.69-.955 2.918-.833 5.925-1.583 8.843-1.995 1.86-4.104 3.168-5.47 5.656-1.77-.968-3.31-2.033-5.433-2.007-1.584-.154-3.533.301-4.81-.744-5.226-3.668-10.125-6.983-14.73-11.536-.371-1.263.027-2.847.027-4.168.257-3.11-.796-5.797-2.136-8.523-1.392-2.578-.122-5.47.224-8.138.385-2.045-.846-3.27-1.365-5.118.301-1.789 1.308-3.488.526-5.297-1.206-2.417-3.322-3.61-5.547-4.93-.827-5.567-1.436-11.159-2.29-16.725-2.16-15.82-4.995-31.576-7.4-47.358-.622-4.258-1.642-8.003-.635-12.293.622-4.425 4.008-7.772 5.983-11.588.166-1.334-.801-1.911-1.558-2.816-3.533-3.559-6.361-7.816-8.189-12.491-1.866-4.598-4.008-9.068-6.021-13.596-1.97-4.322-2.906-8.94-4.637-13.357-2.236-5.903-3.872-11.974-5.664-18.007zm340.336 4.148c-.44.018-.885.055-1.34.116-9.305 1.187-19.097 5.695-24.541 13.608-2.732 3.258-3.867 7.035-5.188 11.005-2.142 8.047-1.103 15.89.968 23.81 1.09 3.264 2.924 6.323 4.765 9.215 2.026 2.898 4.4 6.008 7.381 7.977 4.592 3.142 9.639 5.188 14.91 6.887.462 3.533.738 6.926.34 10.492-.006 4.18-.039 8.143-1.411 12.151-1.731-.667-3.566-1.237-5.188-2.141-.282-3.65-.423-7.17-1.622-10.67-.981-4.99-3.02-9.665-6.33-13.544-1.879-2.155-2.956-4.534-5.22-6.337-2.392-1.923-4.11-3.982-6.72-5.425-4.265-2.45-8.959-4.771-13.807-5.733-4.175-.366-8.664-.288-12.845.02-4.232.878-8.362 3.084-11.497 6.06-2.18 2.058-4.502 3.47-5.964 6.188-2.732 5.015-5.925 9.266-6.945 14.928-.602 3.835-1.795 7.029-1.417 10.921.757 6.016 1.724 11.69 5.161 16.834 2.354 3.456 5.015 6.983 8.299 9.612 6.246 4.008 13.076 5.778 20.335 6.9 4.912.725 10.106-.256 14.499-2.545 2.283-1.154 4.841-1.963 6.95-3.393 5.182-4.072 9.39-8.932 13.5-14.037 3.84 1.186 6.887 4.527 8.144 8.285 1.173 4.957 1.468 9.959 1.282 15.038 4.553 2.276 8.253 5.22 13.415 5.42a69.465 69.465 0 0 1-.57-14.552c.353-5.188 2.475-10.292 6.515-13.684.642-.513 1.552-.744 2.315-1.046 2.655 5.31 6.015 10.152 10.466 14.115 2.68 2.424 5.867 3.38 9.26 4.36 5.476 1.418 11.556 2.733 17.212 2.034 2.911-.308 5.598-.244 8.42-1.206 5.367-1.795 10.202-5.585 14.338-9.369 2.899-3.116 5.861-6.996 6.76-11.229 1.43-5.406 1.256-11.221.602-16.736-.615-5.124-2.642-9.632-5.047-14.14-1.513-2.828-2.584-5.586-4.855-7.94-3.097-3.43-6.9-4.912-10.824-7.143-3.11-1.88-7.124-2.315-10.683-2.52-3.88-.231-7.433.52-11.23 1.154-2.571.462-4.751 1.59-7.053 2.757-3.36 1.642-5.978 4.303-9.421 5.823-2.815 3.47-6.92 7.778-6.984 12.46-.41.16-.814.32-1.224.487-1.463 5.938-3.335 11.337-2.912 17.583-2.097 1.103-4.026 2.38-6.277 3.175-.943-3.764-.392-7.516-.93-11.312-.507-3.816-.192-7.663-.507-11.505 2.283-.59 4.406-1.327 6.4-2.629 1.937-1.27 4.27-1.564 6.233-2.725 2.244-1.66 4.374-3.366 5.894-5.752.25-.449 1.192-.334 1.564-.507 2.039-2.04 3.316-4.585 5.2-6.772 4.066-5.303 5.156-11.991 5.085-18.526.218-4.444-.794-8.619-1.788-12.909-.795-3.219-2.52-5.752-4.181-8.554-1.97-3.566-5.47-6.355-8.908-8.427-4.264-2.302-9.017-4.65-13.865-5.265-3.097-.432-5.845-1.267-8.92-1.142zM369.22 257.956c1.443.61 2.797 1.488 4.272 1.995 2.372.628 4.938.571 7.323 1.168 1.77.66 3.36 1.91 4.97 2.879 3.13 2.045 7.06 3.033 10.652 3.956.59 2.488 2 3.143 4.052 4.297l-.039 1.513c-1.308 1.16-2.615 2.014-3.006 3.841-.847 2.642-.457 4.893.486 7.42-1.138 1.372-2.287 2.789-3.5 4.142l.023.017-7.367 7.43c-.98 1.609-2.27 2.827-3.616 4.129-2.02-1.116-4.085-2.591-6.509-2.45-1.443.224-2.77.68-4.143 1.141.662-6.066-1.132-9.917-5.816-11.28-.847-4.303-.59-8.535-.192-12.857.026-5.848.974-11.684 2.41-17.34zm-101.197 2.553c1 2.764 2.058 5.413 2.308 8.382.183 2.543.897 4.729.873 7.033l.21.165c.259 7.88 1.13 15.678-.089 23.05-.802 4.2-1.43 8.44-2.333 12.614-2.193 8.459-6.266 16.898-9.575 24.971-2.052 4.874-4.995 9.056-6.83 14.077.95.288 1.9.564 2.855.833.109 1.95.186 3.848-.295 5.76-1.424 5.957-2.841 12.446-2.174 18.59.15 5.387.709 9.493 1.93 14.748-.257 4.143-1.635 8.03-1.796 12.173-.198 6.002-.847 11.952-.943 17.961-.532 4.887-.448 9.773-.634 14.672-.872 1.975-2.27 3.694-3.104 5.714-1.668 3.598-1.386 7.183-1.815 11.037-.456 4.95-.712 9.683.936 14.454 1.026 3.585 3.553 6.33 3.989 9.914.641 4.065 1.52 8.067 1.808 12.184.378 6.066 1.482 11.85 1.45 17.955-.026 2.392-.02 4.772.179 7.157.308 3.649-.295 7.137-.257 10.799-.044 2.79.36 5.554.399 8.337-.276 5.765-.905 11.471-1.437 17.21-.327 4.92-1.782 9.979-4.482 14.14-2.411 2.976-4.816 5.786-8.067 7.87-3.925 2.571-6.535 6.476-10.383 9.092-.641-4.694-.198-9.56-.34-14.326-.153-5.784.013-11.543-.436-17.314-.199-3.367 1.103-6.29-.154-9.427-1.186-2.66-3.347-3.764-5.694-5.206-.892-.45-.975-1.251-1.2-2.13-.929-5.335-1.763-10.703-2.667-16.044-.135-.981-.308-2.033-.192-3.021 1.244-1.847 3.11-3.238 4.45-5.027 2.328-2.726 3.649-5.926 4.758-9.286.34-1.16.641-2.276.558-3.495-2.642-2.904-6.611-4.225-9.17-7.464-2.34-2.937-5.239-6.015-6.502-9.555-.847-2.328-1.937-4.63-2.52-7.042-1.802-12.376-3.662-24.74-5.688-37.084-1.546-12.069-3.912-24.112-5.188-36.2h.011c-2.55-18.711-5.762-38.372-8.598-55.487-1.4-9.89-3.05-19.734-4.538-29.608l-.108.037-4.204-27.284c1.507.013 3.04-.04 4.54.115 1.494 1.07 2.623 2.636 4.04 3.835 1.365 1.17 2.746 2.305 4.032 3.554l6.844 5.584c2.193 1.372 4.508 4.777 7.324 4.553 4.93-.498 9.214-3.368 13.42-5.8l8.986-6.353c4.354-5.11 10.113-10.382 16.718-12.21 1.738-.583 3.392-1.039 4.79-2.289 3.97-3.553 4.816-10.209 9.305-13.152 1.668-1.257 2.892-2.726 4.7-3.765zm112.966 126.13c1.36 2.033 1.957 4.296 2.656 6.61a195.151 195.151 0 0 0-2.38-1.634c-.192-1.654-.314-3.309-.276-4.976z"/><path d="M477.06 60.312c-2.483 0-4.883.2-7.312.896 1.936 2.962 4.591 4.848 7.336 6.99.648-2.617 1.102-5.176 1.045-7.875a52.393 52.393 0 0 0-1.07-.011zm5.372.157a10.48 10.48 0 0 0-2.534.296c.11 2.886-.025 5.766.186 8.646 3.393-1.841 6.163-5.002 8.632-7.92-2.166-.447-4.177-1.017-6.284-1.021zm-14.46.861c-2.591.77-5.393 1.84-7.51 3.566 1.713 3.238 4.61 4.982 7.233 7.406 2.918 2.63 6.144 4.63 9.485 6.663.802-2.989.584-5.323-.102-8.286-3.09-2.988-6.708-5.828-9.106-9.349zm23.034.725c-3.79 3.046-6.843 6.785-10.992 9.433-.025 2.918.2 5.797.616 8.689 3.393-1.469 5.746-3.918 8.517-6.26 2.905-2.52 6.2-4.995 8.644-7.977.744-1.026-.225-1.148-.892-1.686-1.834-1.116-3.81-1.718-5.893-2.2zm-31.903 3.546c-2.398 1.5-4.483 3.27-5.83 5.797.219 1.732 2.06 3.219 3.181 4.463 5.964 5.694 12.98 10.928 20.713 13.929.212-2.745.596-5.797.039-8.51-3.932-3.084-8.15-5.784-11.825-9.215-2.392-1.891-4.239-4.232-6.278-6.463zm40.541.853c-2.392 2.09-4.508 4.476-6.977 6.496-4.047 3.322-7.503 6.861-12.326 9.086.032 2.822.334 5.464.943 8.222 4.79-1.61 8.35-4.476 12.575-7.137 4.617-2.95 8.914-6.304 12.441-10.53-1.398-2.264-3.847-5.765-6.656-6.137zm-47.806 6.881c-1.437 2.2-2.36 4.59-3.342 7.002 3.56 4.297 7.875 7.74 12.486 10.851 4.842 3.668 10.184 6.45 15.654 9.048.801-2.508 1.051-5.2 1.135-7.823-.738-.969-2.22-1.367-3.265-1.944-6.849-3.52-13.152-7.977-18.699-13.325-1.334-1.36-2.29-2.828-3.97-3.809zm55.65 1.526c-1.218.077-2.322 1.27-3.206 2.02-4.611 4.547-10.588 8.061-16.006 11.582-2.232 1.507-4.669 2.538-7.221 3.378.051 2.745.225 5.458.673 8.165 4.303-1.97 8.773-3.585 12.98-5.746 3.84-1.95 7.067-4.74 10.632-7.317 1.847-1.295 3.392-2.88 4.841-4.598-.782-2.444-1.231-5.355-2.693-7.484zm-59.18 7.9c-.84 3.072-.61 6.131-.282 9.254.076 1 .878 1.635 1.538 2.29 4.38 3.943 9.255 7.842 14.577 10.42 3.95 1.988 7.792 4.54 12.313 4.938.07-2.481.135-4.957.115-7.439-5.38-3.09-10.92-5.707-15.916-9.44-3.175-2.494-6.862-4.739-9.485-7.778-.827-.969-1.751-1.642-2.86-2.244zm62.143 2.374c-5.739 3.751-11.037 8.798-17.225 11.465-3.757 1.687-7.566 3.264-11.389 4.79.097 2.642.423 5.252.693 7.882 8.413-3.085 16.519-7.298 24.06-12.127 1.84-1.635 5.4-3.026 5.137-5.873-.006-1.847.193-4.778-1.276-6.137zm-61.316 10.67c-.315 2.88.39 5.624 1.545 8.234.66 1.52 2.398 2.553 3.707 3.483 6.861 4.47 13.17 8.663 21.488 9.875.065-1.879.11-3.758.11-5.637-3.047-.962-6.002-2.11-8.792-3.687-3.373-1.924-6.996-3.637-10.107-5.914-2.764-2-5.31-4.206-7.951-6.354zm61.133.911c-8.913 5.406-17.385 10.837-27.363 14.178 0 1.86-.013 3.746.41 5.573 1.854-.147 3.553-.731 5.291-1.347 6.047-2.231 11.845-4.348 17.462-7.586 1.026-.673 2.071-1.218 2.405-2.488.763-2.777 1.7-5.418 1.796-8.33zm-30.884 4.162c-.314 3.88-.314 7.778-.647 11.658-.013 4.033.147 8.041-.276 12.062-.629 5.29-.378 10.703-.507 16.032.116 5.374-.48 10.684-.057 16.058.141 1.064-.238 1.68-.725 2.584-2.13-2.366-4.322-4.463-7.253-5.81-2.79-1.244-5.585-2.623-8.458-3.655-6.17-1.52-12.306-3.079-18.481-4.566-3.328-.75-6.426-1.847-9.876-1.995 1.128.655 2.264 1.244 3.547 1.546 4.117.936 8.188 2.11 12.215 3.392 3.168.994 6.253 1.514 9.26 2.982 2.828 1.385 5.663 2.264 8.292 3.88 2.11 1.27 3.841 2.899 5.733 4.496.98.859 2.167 1.846 2.725 3.045 1.558 3.79 1.93 7.714 1.969 11.774a63.774 63.774 0 0 1 5.534-.129c.552-3.617.846-6.99 2.565-10.291 2.7-4.49 5.83-8.344 10.773-10.453 4.425-1.174 8.6-3.046 13.011-4.239 2.841-.808 5.573-1.943 8.44-2.68l-.077-.527c-4.957 1.565-10.1 1.867-15.108 3.175-2.751.7-5.817 1.09-8.427 2.186-2.257 1.013-4.347 2.47-6.374 3.88-1.84 1.264-3.277 2.9-5.297 3.919-.36-4.694-.731-9.382-.853-14.089-.122-5.38-.692-10.659-.577-16.02.033-1.282-.16-2.526-.405-3.776.866-5.868-.128-12.357.046-18.02-.065-2.148-.353-4.303-.712-6.42zm-26.112 7.592c.243.815.494 1.629.763 2.437 4.688 7.054 12.37 11.53 20.611 13.024.16-1.545.346-3.09.584-4.63-8.363-1.783-14.93-6.252-21.958-10.831zm-25.273 1.637c-2.229-.004-4.543.637-6.72.934 1.045 2.848 2.918 5.233 3.938 8.106 3.29 6.945 5.988 14.148 7.886 21.599 2.636.154 5.201.64 7.786 1.135-.212-6.804-2.59-12.563-4.7-18.898-1.014-2.495-2.373-4.849-3.476-7.311-.981-1.982-1.815-4.296-3.764-5.521-.315-.03-.632-.044-.95-.044zm3.618.133c1.667 4.155 4.117 7.939 5.662 12.165 2.29 6.585 4.642 12.697 4.867 19.77 3.046.584 6.06 1.2 9.042 2.072-.224-6.118-1.328-12.178-3.457-17.93-1.5-4.06-3.31-7.971-4.637-12.107-1.648-1.11-3.385-2.463-5.334-2.944-2.033-.52-4.066-.789-6.143-1.026zm73.085.173c-3.405 1.231-6.612 2.982-9.959 4.387-3.623 1.731-7.483 2.391-11.228 3.79.09 1.705.186 3.418.301 5.123 3.777-.77 7.413-1.988 10.754-3.938 2.43-1.455 4.822-2.5 6.432-4.969 1.795-1.096 2.764-2.56 3.7-4.393zm25.73.863c-.54.007-1.088.049-1.644.132-1.635 2.86-3.148 5.739-4.123 8.9-.994 3.168-2.424 6.214-3.136 9.427-.93 4.27-2.135 8.47-3.161 12.722 2.578-.39 5.13-.871 7.74-1.019 1.469-5.733 3.732-11.132 5.611-16.724 1.533-4.18 3.597-7.913 5.463-11.908-2.204-.912-4.411-1.557-6.75-1.53zm-110.918.067c-2.007.763-4.425 1.482-5.907 3.13-.23 1.128.828 2.455 1.296 3.45 3.257 5.476 5.412 11.356 7.67 17.288.314 1.07.506 2.193.846 3.264 2.5 1.071 5.457 1.308 8.13 1.725-1.057-5.169-3.045-10.203-5.014-15.09-2.026-4.783-4.007-9.496-7.021-13.767zm107.44.065c-3.457.538-6.92 1.397-10.351 2.154-1.744 4.662-4.014 9.048-5.386 13.832-1.911 5.611-3.065 11.568-3.168 17.5 2.93-.814 5.912-1.391 8.894-1.956 1.058-4.604 2.386-9.144 3.373-13.768.776-3.437 2.277-6.61 3.29-10.029.789-2.75 2.322-5.085 3.348-7.733zm11.581 1.955c-2.533 4.592-4.88 9.42-6.477 14.422-1.41 4.496-3.463 8.465-4.213 13.172 2.777-.282 5.54-.667 8.26-1.295.576-1.783 1.205-3.534 2.032-5.214 1.686-3.43 2.488-7.156 4.194-10.58 1.2-2.38 2.488-4.702 3.63-7.113-2.213-2.007-4.386-3.193-7.426-3.392zm-24.022 1.443c-2.918.95-5.54 2.893-7.888 4.817-2.558 2.032-2.622 5.944-3.328 8.913-1.334 5.906-1.89 11.742-1.865 17.795 1.731-.352 3.462-.724 5.2-1.07-.02-3.008.275-5.67.994-8.575.602-4.207 1.75-8.228 3.206-12.21 1.083-3.322 2.873-6.252 3.681-9.67zm-69.007 1.321c.52 2.943 1.777 5.405 2.835 8.156 1.578 4.04 2.796 8.19 3.367 12.5.384 2.654.429 5.251 1.153 7.842 1.988.379 3.964.795 5.952 1.16.41-5.258-.456-10.266-1.354-15.422-.378-1.917-.756-3.815-2.07-5.347-1.566-1.834-3.535-3.29-5.157-5.093-1.379-1.513-2.899-2.84-4.726-3.796zm-33.217.122c-2.604.968-3.797 3.135-5.6 5.117 1.835 4.912 4.753 9.152 6.1 14.262 2.918 1.193 5.867 2.122 9.035 2.308-.366-2.494-1.488-4.63-2.373-6.951-1.79-5.15-4.328-10.087-7.163-14.736zm135.166 1.513c-.256.005-.474.116-.57.404-2.007 3.579-4.04 7.073-5.15 10.933-1.05 3.495-2.815 6.625-4.11 10.01 3.001.052 5.695-1.185 8.689-1.55 1.571-4.855 3.74-9.268 6.272-13.68-1.11-1.872-2.2-4.225-3.911-5.604-.257-.236-.792-.52-1.22-.513zm-141.289 6.003c-2.956 1.866-4.034 6.54-4.752 9.74 3.495.545 6.72 2 10.209 2.559-1.135-4.29-3.648-8.24-5.457-12.3zm96.359.5c-1.75 1.699-2.809 3.815-3.854 5.996-2.386 5.489-3.95 11.15-3.251 17.198 1.468-.218 2.93-.462 4.386-.712.257-4.598.533-9.26 1.257-13.806.456-2.925 1.257-5.714 1.462-8.676zm50.812 1.538c-2.16 3.52-4.187 7.311-5.303 11.3 3.238-.622 6.457-1.334 9.683-2.027-1.218-3.04-2.064-6.887-4.38-9.273zm-94.117 4.476c.308 5.297 1.301 10.421.833 15.762 1.065.334 2.13.662 3.2.989.398-6.035-.198-11.839-4.033-16.751zm-58.142 4.714c-1.527 3.116-1.744 6.97-1.5 10.376 2.847-1.129 5.001-2.988 7.585-4.585 1.347-.808 2.354-1.847 3.297-3.085-3.187-1.052-6.08-2.206-9.383-2.706zm156.982 1.462c-2.943 1.116-6.086 1.462-9.042 2.476-.487 1.295.898 1.673 1.667 2.423 3.046 2.11 5.708 4.31 9.267 5.528-.153-.314-.308-.622-.462-.936-.635-3.149-1.14-6.29-1.43-9.49zm-145.762 2.372c-4.251 2.86-7.99 6.17-12.915 8.036.147 2.815.352 5.457 1.667 8.016 7.022-3.803 14.531-8.016 20.348-13.525-2.937-.865-6.047-2.373-9.1-2.527zm133.296.836c-2.702.036-5.546 1.36-8.028 2.268 3.187 4.348 8.138 7.272 12.627 10.138 2.302 1.386 4.527 3.137 7.021 4.137 1.065-.301 1.071-1.058 1.405-1.969.506-1.667.731-3.347.975-5.065-4.893-2.617-9.248-5.926-13.461-9.498a8.051 8.051 0 0 0-.538-.01zm-121.892 2.474c-.584-.021-.998.422-1.534.75-4.072 3.155-8.311 6.535-12.87 8.952-2.623 1.526-5.111 3.174-8.01 4.162 1.238 2.667 2.507 5.271 4.264 7.644 3.585-1.699 6.708-4.066 10.094-6.1 3.52-2.135 6.835-4.667 9.728-7.598 1.75-1.808 3.739-2.943 4.97-5.213-2.084-.789-4.11-1.739-6.207-2.502a1.315 1.315 0 0 0-.435-.096zm112.379.127c-2.899 1.014-5.848 1.867-8.74 2.9 3.02 3.41 6.124 7.009 9.9 9.593 4.894 3.642 9.966 7.49 15.52 10.068 2.244-1.988 3.501-4.046 4.534-6.849-2.867-1.16-5.528-2.559-8.061-4.341-4.784-3.29-9.979-6.35-13.153-11.37zm-8.952 2.97c-2.584.635-4.944 1.699-7.291 2.917 3.25 5.4 7.574 9.53 11.857 14.07 2.206 2.27 4.796 4.22 7.297 6.15 1.834 1.417 3.906 1.995 6.054 2.745 2.142-1.276 4.008-2.745 5.829-4.45-1.058-2.001-3.046-2.143-4.835-3.419a254.068 254.068 0 0 1-11.581-8.324c-2.501-1.898-4.091-4.239-6.13-6.624-.828-.904-.988-1.892-1.2-3.065zm-95.012.578c-4.585 3.764-8.413 8.259-13.486 11.497-4.078 2.533-8.067 5.2-12.248 7.56 2.411 2.072 4.476 4.156 7.548 5.246 2.257-2.295 5.078-3.495 7.63-5.393 6.56-4.868 12.697-9.773 17.654-16.353-2.334-.872-4.662-2.019-7.099-2.558zm85.95 2.731c-2.577.847-5.122 1.776-7.604 2.898 2.097 2.982 4.27 5.926 6.656 8.684 2.86 3.321 6.348 5.95 9.6 8.984 2.308 1.885 4.707 3.963 7.375 5.31 1.968.082 3.988-.315 5.848-.95.603-.333 1.654-.352 1.673-1.211-3.482-1.809-6.213-4.407-9.195-6.907-5.56-4.945-10.222-10.639-14.352-16.807zm-77.298.744c-2.616 2.482-4.713 5.534-7.47 7.894-3.893 3.392-7.914 6.694-12.165 9.625-1.777 1.315-4.656 2.162-5.817 4.054 2.219 2.167 6.349 2.352 9.208 3.34 4.778-3.347 10.414-6.508 14.096-10.997 3.302-3.77 6.515-7.612 9.516-11.633-2.334-.776-4.886-2.283-7.368-2.283zm67.867 2.552a228.498 228.498 0 0 1-5.682 2.283c1.975 5.143 5.349 9.074 9.01 13.081 2.142 2.29 4.169 4.938 6.952 6.484 1.282.57 2.854.57 4.226.744 2.507.128 4.643.897 7.073-.129-1.994-1.54-4.04-2.981-5.836-4.751-2.623-2.559-5.49-4.714-7.907-7.478-2.924-3.219-5.168-6.822-7.836-10.234zm-58.604.366c-4.31 5.085-8.42 10.292-13.158 15.018-2.706 2.54-6.1 4.143-8.966 6.414-.506.711-.397 1.064.334 1.07 2.898.481 6.784.173 9.612-.7 4.508-2.11 8.46-6.393 11.974-9.869 2.353-2.654 5.225-5.463 6.598-8.772-1.308-1.764-4.38-2.475-6.394-3.161zm51.419 2.636c-.956.416-2.399.609-3.117 1.397.956 2.335 2.65 4.38 3.958 6.535 1.923 3.161 4.7 5.002 7.54 7.246.976.788 2.104 1.052 3.284 1.392-2.462-3.123-5.393-5.939-7.747-9.151-1.443-2.399-2.36-5.066-3.918-7.42zm-42.94 1.262c-3.693 5.265-7.823 10.158-12.787 14.281.27.622.54 1.238.796 1.867-.02-.456-.026-.91-.045-1.366 3.238-1.687 5.836-4.252 8.414-6.81 1.962-2.02 4.149-4.233 5.374-6.785-.205-1.225-.738-.988-1.751-1.187zm21.232 20.271c-.796.013-1.603.317-2.487.552.064.77.129 3.585.2 4.361 1.923.77 3.802 1.263 5.84 1.61-.493-1.245-.845-4.792-1.685-5.857-.637-.51-1.25-.676-1.869-.666z" fill="#fcdb00"/><path d="M361.112 66.934c-.678.01-1.36.066-2.03.138-2.957.918-4.931 3.27-6.04 6.085-2.918 6.779-4.464 13.962-5.163 21.291-.334 3.758-.923 7.394-.955 11.184.859.026 1.724.045 2.584.07.564-3.488.892-6.996 1.315-10.503 1-4.566 1.975-9.12 4.149-13.23.474-.853 1.18-1.898 2.129-2.244 2.481.39 4.277 1.756 6.925.91 4.771-1.437 6.194-8.445 2.603-11.786-1.496-1.568-3.485-1.946-5.518-1.915zm-219.348 2.35c-.584.5-.853.726-.904 1.527-.372 5.964-.917 11.895-.84 17.885-1.045 6.58-1.495 13.082-3.284 19.546-.744 2.322-1.815 4.508-2.668 6.797 2.424 1.924 4.771 3.463 6.368 6.214 3.816 7.26 5.156 14.763 6.76 22.689 1.206 7.887 2.398 15.788 3.898 23.618 3.322.045 6.426-.866 9.69-1.334.288-2.013-.45-4.258-.66-6.284-1.238-9.394-3.22-18.854-3.61-28.312-.238-4.22-.982-9.055.192-13.159.737-2.5 2.295-4.412 3.385-6.707-.673-1.674-2.058-3.072-3.013-4.599-3.585-5.816-5.958-12.08-8.562-18.365-2.545-6.407-4.284-13.083-6.753-19.514zm173.455 12.121c-.586-.009-1.228.131-1.767.141-5.931.962-11.492 3.905-15.987 7.848-2.66 2.533-4.835 5.47-6.758 8.587-1.277 2.104-1.745 4.413-2.014 6.83 1.808.597 3.385 1.36 4.995 2.36.686-3.18 1.129-6.406 1.745-9.606 3.571-1.552 7.297-3.169 10.465-5.458 1.655-1.193 3.444-2.174 5.143-3.296 2.494-1.668 4.047-4.143 5.605-6.657-.311-.583-.841-.74-1.427-.75zm5.206.083c-.232 0-.466.003-.702.013l-.038.814c.147 1.918 1.469 3.149 2.687 4.495 2.155 2.13 4.687 3.906 7.156 5.644 3.47 2.18 6.708 4.31 10.658 5.521.61 3.13.93 6.297 1.52 9.433.988-.539 1.975-1.084 2.963-1.629.07-2.482.551-5.393-.218-7.772-3.22-6.022-7.932-11.133-14.191-14.044-3.192-1.341-6.351-2.467-9.835-2.476zm-2.535 2.731c-2.117 2.45-3.893 4.951-6.734 6.664-3.54 2.07-6.688 4.566-10.395 6.278-1.23.622-2.597 1.16-3.693 2.007-1.052 3.668-1.11 7.644-2.219 11.3-.295.269-.597.532-.904.782-.975-1.11-1.744-2.456-3.245-2.886-1.667-.314-3.117-.84-4.425.597-1.719 2.167-2.726 5.174-2.591 7.938.09 2.315.18 5.047 1.764 6.888.962.994 2.129 2.167 3.642 1.955 1.481-.013 2.886-.865 3.348-2.314.609-1.783.756-3.81.923-5.682 2.206-2.296 4.406-4.457 7.176-6.092 6.714-4.104 15.525-4.938 23.163-3.636 6.323.833 12.498 4.04 16.654 8.9 1.795 1.956 1.417 4.393 2.398 6.708 1.148 2.014 4.444 2.54 6.316 1.315 1.93-.86 2.72-3.508 2.937-5.432.148-3.63.45-7.848-2.257-10.696-.68-.987-1.616-.616-2.622-.475-2.501.616-4.208 2.11-6.273 3.534-1.192-4.027-1.256-8.286-2.237-12.377a72.608 72.608 0 0 1-15.853-9.862c-1.943-1.552-3.34-3.49-4.873-5.413zm-3.399 10.96c-.173 1.026.449 2.911-.776 3.335a214.149 214.149 0 0 1-12.248 6.599c.192-1.058-.36-2.7.853-3.169 3.982-2.36 8.08-4.585 12.171-6.765zm5.706.115c4.265 2.457 8.53 4.887 12.73 7.452-.02.853-.038 1.712-.057 2.571-4.406-2.07-8.452-4.63-12.685-7.003 0-1.007.006-2.013.013-3.02zm-2.872 13.941c-7.353-.028-14.834 1.945-19.994 7.4 2.167.225 4.328.412 6.502.424 7.696.045 15.397.077 23.093.128 3.533.096 7.079.045 10.6-.211-3.091-4.245-9.145-6.348-14.109-7.278a43.568 43.568 0 0 0-6.092-.463zm-22.156 10.581c-1.43 5.836-1.212 11.678-.596 17.597.712 5.362 2.103 10.504 5.098 15.076 3.367 5.374 8.74 9.722 15.057 10.94 3.591.32 7.458.385 10.799-1.148 6.182-2.321 10.383-8.246 12.576-14.255 3.226-8.708 3.642-18.584 2.026-27.677a44.505 44.505 0 0 0-6.791-.404c-12.723-.058-25.446-.013-38.168-.129zm7.124 6.291c4.508 0 9.017.026 13.518.07.276.988.526 1.822.282 2.848-.994 5.027-1.667 10.094-2.346 15.166 2.706.147 5.418.122 8.124.199-.43.814-.525 1.526-1.525 1.815-2.655.865-5.92.295-8.62-.148-.07-5.419 1.579-10.786 2.066-16.192-2.264.122-4.432.923-6.683 1-.93-.27-1.763-.917-2.59-1.404-1.251-.02-2.495-.032-3.745-.051.5-1.103 1.012-2.206 1.519-3.303zm20.829.07c3.495.007 6.99.033 10.485.084.725 1.033 1.437 2.078 2.148 3.117-1.115.039-2.27-.026-3.38.141-1.032.436-1.98 1.115-2.91 1.718-2.078-.494-4.118-1.077-6.119-1.827-.077-1.077-.154-2.155-.224-3.232zm20.033.847c.026 4.829-.762 9.401-.281 14.242.545 4.932 1.186 9.806 2.09 14.685.833 2.7 3.463 2.13 5.605 1.617-.872-3.739-2.052-7.375-2.7-11.165-1.225-5.496-1.578-11.074-1.617-16.685.045-.654-.038-1.258-.25-1.803-.846-.493-1.917-.628-2.847-.891zm-50.754.2c-.924.121-1.847.262-2.77.41-.283 3.687-.405 7.419-.873 11.093-.391 2.578-1.077 5.117-1.596 7.676-.757 3.597-2.072 6.964-2.373 10.658 1.43.199 2.866.36 4.302.5 1.892-4.687 2.29-9.644 3.72-14.46.84-2.661.064-4.957-.174-7.618-.327-2.751-.083-5.477-.236-8.26zm22.322 25.027c1.693.058 3.354.18 5.047.072 1.603-.148 3.04 1.193 4.604 1.327.77-.147 1.52-.372 2.27-.578-.045.41-.09.822-.134 1.239-.436.185-.873.377-1.302.57-3.066-.981-5.137.288-7.875 1.404-3.117-1.635-5.259-1.923-8.748-1.763-.057-.513-.108-1.026-.166-1.539.815.218 1.623.442 2.457.609 1.314-.27 2.533-1.097 3.847-1.34zm-17.302.456c.898 2.7 1.667 5.92 3.578 8.08 3.752 4.432 9.184 7.368 15.02 7.753 3.713.128 7.374-.147 10.779-1.757 3.463-1.34 5.74-3.873 8.074-6.63 1.487-1.886 2.686-3.842 3.052-6.26-1.7 2.078-3.148 4.24-5.2 6.01-5.31 4.828-12.928 6.771-19.899 4.995-6.509-1.725-11.742-6.728-15.403-12.191zm19.065 6.322c1.74.006 3.49.179 5.189.431-.07.398-.148.796-.218 1.187-2.86.006-5.874.269-8.696-.167.186-.43.391-.853.615-1.264a23.253 23.253 0 0 1 3.11-.187zm-14.242 7.33c-1.186 2.431-.847 5.612-1.206 8.273 6.304 3.642 12.306 8.503 15.955 14.916 1.943-1.738 2.97-4.085 4.81-5.95 2.334-2.348 5.207-4.336 7.926-6.215.827-.609 1.82-1.282 2.36-2.173.269-2.315-.115-4.772-.423-7.074-3.386 1.11-6.246 2.803-9.876 3.194-4.008.391-8.362.263-12.184-1.116-2.738-.904-4.9-2.43-7.362-3.854zm-8.083.894c-1.65.002-3.316.117-5.095.03-1.232-.122-1.962.436-2.943 1.04-.052 1.557-.277 3.257.044 4.79.474 1.064 1.475 1.949 2.34 2.705 3.784 3.098 8.074 5.567 11.825 8.703 6.067 5.284 11.935 10.722 17.04 16.955 2.43-2.469 4.469-5.252 6.944-7.676a135.91 135.91 0 0 1 7.382-6.74c4.81-4.437 10.593-7.753 15.768-11.78 1.007-.853 1.725-2.155 2.456-3.258-.211-1.314-.128-3.007-.923-4.11-4.534-.898-9.42-.48-14.032-.539-.23 2.303-.121 4.348.34 6.612 2.88-1.193 5.291-3.02 7.709-4.944.872.802 1.686.942 1.416 2.34-2.097 2.661-5.072 4.15-8.009 5.676-4.386 2.225-8.515 5.06-12.094 8.432-2.558 2.43-3.86 5.496-5.912 8.253-.577 1.02-2.219.847-2.674-.224-1.79-2.777-3.091-5.624-5.406-8.08-2.116-2.194-4.501-4.162-7.009-5.893-3.276-2.251-7.015-3.7-10.337-5.676-1.629-.956-2.341-2.456-3.194-4.059.654-.18 1.308-.347 1.969-.5 2.418 1.134 4.04 2.924 6.9 3.2.155-1.533.327-3.072.494-4.605-1.716-.542-3.349-.654-4.999-.652zm-133.065 1.255c-2.668.225-5.246.808-7.862 1.302-.904.27-1.924.359-1.533 1.57 1.09 6.163 2.129 12.326 3.142 18.508.622 2.603.629 5.373 1.418 7.92.737.448 1.834.294 2.667.39 2.258.07 4.463.482 6.72.655-.826-7.676-1.955-15.326-3.135-22.963-.314-2.495-.673-4.964-1.417-7.382zm122.162 6.343c-3.316 1.135-6.65 2.41-9.722 4.11 2.27 6.521 4.572 13.025 6.45 19.681 2.194.802 4.522 1.218 6.67 2.122 4.489 2.18 8.035 5.541 11.03 9.485 4.393 6.323 6.497 13.762 6.9 21.405-.114 5.56-1.057 11.37-3.481 16.423a25.989 25.989 0 0 1-8.748 9.99c-1.962 1.277-4.142 1.738-6.194 2.732-.532.956-.366 1.931-.392 2.99.347 4.905-1.353 10.022-3.514 14.363-1.282 2.706-3.347 4.656-5.572 6.58.385 3.252.185 6.451-.013 9.709 4.598-.083 8.881-1.392 13.178-2.899 6.7-2.469 13.07-6.458 17.917-11.729 2.168-2.565 4.02-5.418 5.822-8.252 1.026-1.7 2.103-3.143 2.033-5.24.013-5.99-.02-11.972.077-17.962.25-7.259-.212-14.538.186-21.81.109-4.688.16-9.394-.064-14.082-.077-2.09.276-4.277-.038-6.342-.404-1.937-1.681-3.764-2.867-5.31-3.393-4.22-7.573-7.933-11.607-11.53-5.573-5.483-12.678-8.638-18.052-14.435zm70.21.652c-1.995-.106-3.456 1.662-5.013 2.708-4.797 3.854-10.216 6.785-14.699 10.985-5.175 4.386-10.043 9.24-14.294 14.538-.622.756-.77 1.295-.77 2.282-.025 8.132.155 16.257-.288 24.388-.013 12.396-.09 24.798-.052 37.194-.147 2.13.693 3.867 1.706 5.656 2.11 4.117 5.791 7.522 9.12 10.677 4.655 4.405 10.574 7.22 16.672 9.01 2.303.846 4.566 1.468 7.029 1.564.718-1.469 1.289-3.084 2.61-4.13 1.327-1.038 2.873-1.814 4.322-2.667-3.187-2.155-6.105-4.374-8.004-7.81-3.25-5.375-3.88-11.78-4.848-17.86-3.116-.975-6.047-1.808-8.631-3.918-5.714-4.983-8.369-11.967-9.093-19.373-.61-7.536.333-15.314 3.777-22.118 2.867-5.675 7.317-10.875 12.87-14.056 3.04-1.725 6.33-2.552 9.806-2.764 1.648-4.001 2.59-8.202 4.11-12.248.969-2.597 1.995-5.175 2.995-7.76-2.661-1.667-5.752-3.873-8.92-4.251a3.337 3.337 0 0 0-.406-.047zM269.3 179.5c-5.322.128-11.363.006-16.063 2.904-2.412 1.911-4.989 4.304-6.11 7.241-.578 1.353-1.052 2.847-1.81 4.11-1.166 1.944-3.469 3.04-4.604 4.92-2.514 4.488-4.572 9.176-6.695 13.857-2.54 4.264-5.65 8.541-9.619 11.581-3.104 3.816-6.636 6.618-8.535 11.312-2 3.957-1.956 8.016-2.161 12.325 10.093 4.778 18.956 11.89 25.728 20.772 1.763 2.5 3.213 5.162 4.591 7.887 1.655-.622 3.431-1.257 4.95-2.168 2.7-1.814 4.176-4.43 5.407-7.362 1.379-3.11 3.93-4.47 6.618-6.252 2.815-2.18 5.47-4.418 6.636-7.9-4.88-6.182-7.81-13.877-8.612-21.681-.211-5.214-.243-10.363 1.219-15.398 1.385-5.053 4.239-10.17 8.484-13.357 2.187-1.712 4.713-2.443 7.24-3.662-1.866-6.521-4.123-12.845-6.663-19.129zm102.818.223c-1.84-.055-3.663.099-5.397.546-1.507 3.912-3.078 7.792-4.393 11.78-.942 2.842-2.116 5.791-2.513 8.773 1.699 1.308 3.622 2.174 5.161 3.72 5.13 5.04 7.336 11.651 8.202 18.654.673 7.259-.513 14.601-3.399 21.296-1.07 2.29-2.328 4.502-3.56 6.702 1.226.307 2.45.602 3.676.891 1.917 1.885 4.27 2.732 6.708 3.707 2.834 1.058 6.22.057 8.727 2.09 2.45 1.827 4.932 3.283 7.747 4.476 2.892 1.186 6.694 2.578 9.785 1.533 3.585-1.36 7.31-2.04 10.76-3.764 7.407-3.04 14.295-7.195 20.259-12.543 1.52-1.61 3.077-3.284 4.302-5.131.43-1.007-.32-2.334-.75-3.238-.955-1.975-3.168-3.4-4.695-4.97-2.783-2.899-6.328-4.662-8.996-7.683-2.514-2.879-5.38-4.848-7.47-7.913-1.18-1.673-2.046-3.386-3.38-4.944-6.497-7.606-13.89-13.666-19.976-21.752-2.866-4.258-6.823-8.87-11.812-10.588-2.81-.874-5.92-1.55-8.986-1.642zm-212.994 21.285a5.982 5.982 0 0 0-2.267.404c-1.943.674-2.635 2.418-3.79 3.95-1.333 1.943-3.552 3.617-4.52 5.759-.212 3.63 0 7.336.179 10.96.051 3.058-.198 6.54.79 9.464 1.134 2.886 1.833 5.682 4.18 7.882 1.655 2.238 3.732 3.393 6.278 4.387-.365-4.092-1-8.273-2.398-12.133.814-1.559 2.071-3.29 3.296-4.541 2.2-1.045 5.386.82 7.753 1 .763-1.096 1.27-2.147 1.687-3.417-2.347-1.039-4.662-2.181-7.06-3.098-.847-.276-2.259-.79-3.022-.154-2.616 1.885-3.937 5.484-6.425 7.504l-.833-.29c.09-1.93 1.846-3.526 2.905-5.084 1.628-1.905 2.712-4.458 5.598-4.38 2.886.55 5.445 2.289 8.292 2.853.699-.596 1.263-1.276 1.885-1.949-1.622-2.95-4.418-3.52-7.26-4.816-1.43-.545-3-1.354-4.514-.61-2.661 1.315-4.546 4.38-6.688 6.195l-1.75.295c.448-1.135.936-2.02 1.782-2.886 1.693-1.834 3.482-4.001 5.624-5.29 1.789-.93 3.776-.289 5.52.397 2.31.943 4.606 1.911 6.985 2.668.346-.712 1.455-1.892.647-2.636-2.514-2.95-6.9-4.469-10.504-5.597-2.854-1.245-5.502 2.667-7.278 4.392-1.071.814-2.104 3.277-3.444 1.572 1.423-2.283 3.379-4.259 5.27-6.15 1.437-1.45 3.432-2.194 5.452-1.636 3.501.853 6.458 2.598 10.196 2.534.122-.66.224-1.329.308-1.996-1.604-1.853-3.566-3.372-6.015-3.891-2.17-.563-4.555-1.65-6.86-1.662zm119.113.883c-1.422.022-2.84.256-4.217.74-3.88 1.475-6.529 4.489-8.639 7.951-2.994 5.349-3.93 11.216-3.911 17.288.603 8.644 3.078 17.154 9.112 23.605 2.81 3.245 6.548 5.566 10.8 6.33 3.43.384 6.854-.398 9.727-2.328 5.439-3.796 8.645-9.664 9.921-16.09 2.283-11.889-1.456-25.175-10.998-32.986-3.246-2.727-7.532-4.574-11.795-4.51zm76.553 1.063a11.55 11.55 0 0 0-3.772.51c-4.361 1.366-8.304 4.265-11.145 7.817-5.926 6.894-8.562 16.5-8.242 25.478-.153 3.706 1.053 6.888 2.31 10.306 1.545 3.52 3.456 7.162 6.758 9.336 4.072 3.065 9.53 3.091 14.109 1.2 3.071-1.161 5.585-3.932 7.72-6.35 4.919-6.643 8.248-15.075 8.132-23.412.276-6.72-1.54-14.044-5.746-19.392-2.54-3.185-6.177-5.362-10.124-5.493zm-74.962 9.532c.815.385.898.513 1.2 1.366.871 2.61 1.102 5.477 1.308 8.215.224 3.36-1.014 6.208-2.534 9.1 2.302 3.122 3.45 6.733 4.271 10.485.552 2.629.084 5.598-.281 8.246-.744-6.124-2.36-13.794-6.997-18.23 2.264-2.86 3.918-6.003 4.22-9.69.199-3.117-.866-6.407-1.187-9.491zm76.15 1.187c-.289 2.45-1.039 4.624-1.026 7.112.006 4.2.885 8.291 3.848 11.433-3.2 2.976-4.617 6.882-5.727 11.005-.384 2.065-.782 4.11-1.474 6.104-.5-6.17 1.513-12.697 4.321-18.154-3.219-5.028-3.232-12.056-.135-17.147zm-182.705 13.402c-1.141 2.155.07 4.073 1.122 5.964-.045-2.052-.346-4.053-1.122-5.964zm-10.863 1.61c-.552.744-.975 1.545-1.405 2.366.86 5.771 1.707 11.576 2.95 17.277 1.11 7.233 1.956 14.511 3.053 21.745 1.353 10.94 3.225 21.816 4.47 32.775 1.404 8.94 2.411 17.904 3.873 26.837 1.61 8.727 2.225 17.602 3.867 26.311.686 4.2 1.481 8.369 1.892 12.614 1.513 10.344 3.424 20.694 4.623 31.083 2.867 19.5 5.726 38.841 8.394 58.373.808 4.463 1.494 8.939 1.917 13.46.41 4.854-.102 9.561-.454 14.396-.95 3.931-2.694 7.767-4.496 11.377-.93 1.937-2.81 4.11-2.899 6.278.95 2.783 4.605 4.489 6.81 6.252 7.965 4.637 19.656 4.08 25.908-3.238 1.718-2.135 3.937-4.732 4.335-7.509.423-1.93-2.463-2.63-3.495-3.835-1.616-1.834-3.515-3.303-5.26-4.99-5.052-5.848-7.687-13.786-8.964-21.302-3.546-24.638-7.695-49.139-11.21-73.754-1.532-11.164-3.27-22.298-5.008-33.43-1.738-9.337-3.417-18.693-4.649-28.107-1.66-10.048-3.117-20.13-4.61-30.204-1.303-8.792-2.81-17.551-4.137-26.337-.904-7.766-3.085-15.255-4.15-22.995-1.609-7.984-2.256-16.205-4.199-24.106-2.437-.237-4.759-.956-7.157-1.34zm12.575 10.235c.352 4.501 1.27 8.888 1.75 13.39.353 3.264 1.27 6.316 1.983 9.503.442 1.866.833 3.905 1.647 5.65.731 1.23 1.886 2.263 2.88 3.289 2.969-2.026 4.97-4.822 7.066-7.676 1.276-2.032 1.969-4.354 3.367-6.336a78.695 78.695 0 0 0-.282-4.078c-3.668-2.617-7.535-5.008-10.921-7.97-2.533-1.88-4.945-3.925-7.49-5.772zm266.159 4.514c-7.01 9.69-17.102 15.5-27.946 19.99-3.732 1.692-7.279 1.878-10.632 4.052 3.11 2.468 7.689 3.45 11.555 3 5.753-2.186 11.498-4.648 16.712-7.957 3.309-2.027 6.598-3.912 9.349-6.702 1.629-1.738 3.912-2.68 4.496-4.976 1.141-3.194-.418-6.227-3.534-7.407zm-229.742 6.548c-2.982 1.372-3.956 3.782-4.18 6.931 1.705.353 3.34.828 4.847 1.732 4.726 2.758 9.83 5.49 13.653 9.472 1.674 1.725 3.418 3.455 4.9 5.34 1.975 2.444 2.969 5.381 5.232 7.632 1.552-.334 2.944-.5 4.104-1.706.41-1.084.578-2.27.835-3.399-3.079-5.566-6.946-10.247-11.672-14.485-5.143-4.83-11.197-8.812-17.719-11.518zm-13.146 2.617c-.605-.006-1.115.3-1.282 1.192-1.475 7.458-4.963 14.3-10.53 19.526-.923.77-2.04 1.43-2.86 2.296-.795 1.648-.686 3.354.18 4.95 1.083.79 2.654.277 3.577-.544 2.713-2.347 5.355-4.419 7.362-7.4 3.38-4.778 6.22-10.652 6.477-16.578 0-1.083 0-2.173-1.07-2.763-.549-.356-1.249-.674-1.854-.68zm165.51 3.057c-2.7.815-4.284 2.982-6.791 4.117-1.969.892-4.13 1.431-6.176 2.13.654 5.643 1.578 11.485 4.508 16.455 1.238 2.103 3.06 3.514 5.22 4.591 1.347-3.642.962-7.098 1.514-10.875.449-2.982.122-5.952.77-8.895.487-2.495.917-4.977.955-7.523zm80.074 1.078c-2.616 1.943-4.975 4.155-7.746 5.893-3.392 2.34-7.08 4.168-10.517 6.425 3.841 1.052 7.797.706 11.6 1.822 3.341.968 6.766 2.032 9.928 3.5 1.718.79 3.22 1.88 5.002 2.54 1.282-.974.57-2.174.512-3.54-1.096-6.348-3.886-12.331-8.779-16.64zm-170.762.988c.154 2.995 1.385 5.642 1.795 8.599.635 4.168 1.552 8.266 2.488 12.37 3.444-5.329 5.047-11.39 4.547-17.738-3.194-.596-5.944-1.795-8.83-3.231zm-68.858 1.91c-1.058 4.15-2.341 7.901-4.412 11.666-1.802 4.61-5.053 7.842-8.17 11.561 5.983 3.784 9.748 9.915 15.597 13.711 1.436-4.373 2.154-9.003 2.532-13.582.045-5.554.462-11.973-1.552-17.212-.833-2.417-1.827-4.643-3.995-6.143zm5.553 1.469c.731 2.975 2.014 5.496 2.277 8.42.475 5.246.68 10.459.301 15.711-.596 4.54-1.462 8.985-1.436 13.589 6.2-1.494 12.114-4.919 16.596-9.44 1.944-1.815 4.021-3.296 5.502-5.56-1.135-2.802-2.309-5.509-4.11-7.965-5.028-6.483-11.505-11.658-19.13-14.756zm212.86 11.1c-2.41.031-4.823.328-7.309 1.116-1.122.34-1.667 1.193-2.5 1.969 3.911 1.66 7.708 3 11.157 5.572 3.65 2.815 6.932 5.9 9.466 9.773 1.141 1.911 2.02 3.919 3.418 5.676 4.566-5.137 9.388-9.89 13.55-15.385-.891-1.391-1.694-2.648-3.252-3.366-4.7-2.264-9.862-4.162-15.082-4.643-3.25-.353-6.348-.752-9.447-.712zm-107.54 4.181c-2.726 1.02-3.79 4.187-5.881 6.207-2.976 2.79-6.137 5.58-9.677 7.638-7.092 3.996-14.864 6.516-22.97 7.337a60.225 60.225 0 0 0-.68 6.259c7.016-.366 14.147-2.854 20.796-5.002 7.4-2.77 13.832-7.644 18.264-14.204.218-2.719.109-5.496.147-8.234zm3.34.225c-.91 2.706-.519 5.175-.673 8.003 2.161 3.31 4.566 6.374 7.734 8.785 3.63 2.995 8.087 5.06 12.44 6.779 5.086 2.033 10.472 3.347 15.91 3.995-.923-2.097-1.686-4.181-1.987-6.47-6.958-1.854-13.538-3.842-19.713-7.702-5.233-3.765-9.78-8.292-13.71-13.39zm86.86.667c-.914.024-1.85.153-2.82.429-.596 1.68-1.352 4.426.649 5.47 4.444.123 8.657.552 12.588 2.835 7.247 4.123 12.421 10.883 14.993 18.777 1.699-.59 3.366-1.296 4.072-3.098.14-1.084.14-2.148.147-3.238-1.936-2.084-2.75-4.694-4.34-6.984-4.348-5.887-10.095-10.569-17.187-12.678-2.794-.712-5.357-1.586-8.101-1.513zm.05 8.848c-.87.005-1.724.1-2.541.303-3.489 3.283-6.612 7.092-9.953 10.549-2.11 2.142-4.06 4.45-6.034 6.72 2.783 1.411 5.771 2.835 7.913 5.157 2.809 3.546 4.399 7.502 4.399 12.074 6.355-3.027 12.716-6.195 18.757-9.812 3.104-1.673 7.894-3.2 9.696-6.418-.128-1.565-1.032-3.149-1.77-4.515-2.975-5.297-7.316-9.69-12.838-12.294-2.28-.995-5.021-1.778-7.63-1.764zm-90.525 4.484c-2.527 1.564-4.355 3.892-6.856 5.495-7.393 5.528-17.404 7.863-26.228 10.12 1.315.866 2.565 1.378 4.13 1.616 5.97.987 12.043 1.629 18.09 1.68 1-.757.481-2.938 1.565-3.585 3.149-.039 6.265.148 9.408-.23.378-5.13.346-9.972-.11-15.096zm47.292.415c-.607-.006-1.206.087-1.769.334-3.02.93-5.034 3.932-4.726 7.062.654 2.25 2.065 4.79 4.624 5.155 2.776.802 5.63-.936 7.438-2.924 2.264-2.88.885-7.804-2.59-9.023-.93-.308-1.965-.594-2.977-.604zm-43.926.277c-.128 4.797-.699 9.78.135 14.52 3.38.377 6.759.313 10.151.383.199 1.187.41 2.373.64 3.56 8.215-.167 16.95-.039 24.946-2.097-3.552-.994-7.195-1.636-10.76-2.572-4.149-1.27-8.054-2.905-12.01-4.669-3.342-1.513-6.42-3.796-9.21-6.162-1.243-1.038-2.302-2.584-3.892-2.962zm58.787 10.993c-1.273.027-2.47.478-3.692 1.07.892 2.224 3.42 5.085 2.663 7.554-.757 2.238-3.085 3.988-5.111 5.034-2.841 1.61-6.407 1.705-9.453.654a62.232 62.232 0 0 0-2.43-5.951c-1.655 1.186-2.662 2.232-2.713 4.38-.122 2.475-.224 6.772 2.098 8.356 2.725 1.43 6.527 1.436 9.528 1.744.66.045 1.232.41 1.713 1.103-3.996 1.122-7.786.39-11.704-.616.295 2.91 2.245 4.559 5.04 5.065 3.11.302 6.22.142 9.318.732-.038.417-.07.827-.109 1.244-3.841.224-7.67.077-11.511-.186 1.064 1.314 2.366 3.476 4.156 3.745 3.29.564 6.745.43 10.073.513.039.442.071.878.103 1.32-3.2.27-6.419.251-9.625.495 1.436 1.648 2.84 3.033 5.175 3.058 3.559-.07 8.035-.359 10.638-3.116 2.565-2.559 4.88-5.387 7.382-8.016a45.004 45.004 0 0 0 6.117-8.015c1.379-2.2.507-4.99-.019-7.33-.699-3.168-4.008-5.124-6.586-6.67-1.75-1.135-3.694-1.5-5.605-2.212-1.192-1.218-1.904-3.245-3.655-3.7a5.638 5.638 0 0 0-1.791-.254zm-6.692 1.986c-2.84 1.616-5.56 3.31-8.715 4.271.48 1.995 1.2 3.893 2.014 5.772 2.135.07 4.06.263 5.964-.917 1.423-.853 3.597-2.174 3.507-4.085-.622-1.79-1.827-3.4-2.77-5.04zm-94.973 3.874c-.969 2.219-1.34 4.495-1.661 6.874 6.508 2.495 13.088 3.578 19.93 4.797 3.623.68 7.413 1.07 11.1.769.135-2.61.084-5.201-.032-7.81-4.7-.834-9.555-.333-14.28-1.34-5.176-.488-10.043-2.033-15.058-3.29zm39.167.719a251.87 251.87 0 0 0-6.578.07c-.57 2.917-.237 5.739-.366 8.676-.109 2.462-.122 4.924-.122 7.387 2.43.372 4.868.43 7.324.385 3.565-.051 7.15.154 10.696-.09.45-4.489.577-8.94.488-13.454-.013-.994-.238-1.943-.469-2.905-3.655-.012-7.315-.067-10.972-.07zm-2.421 2.012c3.58-.01 7.16.123 10.74.128.121 4.034.005 8.068.025 12.108-4.137.096-8.266.013-12.402-.039-.045-4.059-.02-8.119.103-12.184.511-.008 1.022-.012 1.534-.013zm41.674.455a459.368 459.368 0 0 1-25.016 1.597 165.243 165.243 0 0 0-.039 8.17c7.418.193 18.248-.18 24.44-.954-.071-2.642.365-6.184.615-8.813zm-37.716 1.298a39.15 39.15 0 0 0-4.197.235 43.53 43.53 0 0 0 .064 3.033c1.872.065 3.745.116 5.617.212.039.391.077.783.11 1.174-2.02.006-4.009.102-5.983.583l.172 3.302c3.226.494 6.439.706 9.658.052.077-2.79.141-5.573-.032-8.362a63.135 63.135 0 0 0-5.409-.229zm-44.277 7.18c-2.193 5.445-4.251 10.966-6.264 16.481-1.802 4.342-4.15 8.42-5.837 12.825 3.88 1.155 7.632 2.61 11.608 3.431 4.341.879 8.356 2.206 12.716 2.661 4.784.539 9.907 1.834 14.742 1.777 2.802-.058 5.534.532 8.337.462 3.027-.148 5.95.596 8.977.506 4.047-.09 8.054.25 12.094 0 3.675-.218 7.305-.577 10.992-.468-6.92-3.424-13.851-6.887-20.931-9.966-4.15-2.276-8.387-4.353-12.492-6.713-11.671-6.112-22.861-13.968-33.943-20.996zm6.355.129c.538.609 1.11 1.173 1.764 1.654 12.876 8.555 25.683 16.66 39.694 23.297 4.476 2.18 8.997 4.246 13.454 6.464 5.367 2.315 10.607 5.092 16.154 6.945-1.308-3.63-3.406-6.945-5.067-10.427-2.731-1.642-6.052-2.386-8.957-3.739-11.582-5.303-23.785-10.087-34.597-16.808-3.662-1.936-6.868-4.713-10.876-5.27-3.867-.616-7.683-1.642-11.57-2.117zm75.163 3.013c-3.908-.03-7.648.913-11.586 1.04-4.342.39-8.695.199-13.043.468-.039 1.218-.07 2.437-.11 3.655-6.412.513-12.947-.135-19.366.423 3.27 2.315 6.88 3.597 10.382 5.47 4.636 2.27 9.44 4.175 14.095 6.413 2.834 1.398 5.784 2.34 8.727 3.495 1 .353 2.06.84 3.124.891 2.283-.852 4.431-2.135 6.567-3.302 2.802-1.63 5.739-2.88 8.618-4.349-1.128-1.404-2.482-2.776-3.13-4.476-1.128-3.328-3-6.155-3.494-9.708a22.446 22.446 0 0 0-.784-.02zm-50.255.9c-.334.009-.661.103-.897.274-.538.994 2.296 2.052 2.316.635-.114-.636-.78-.926-1.419-.909zm102.708 6.128c-3.966-.062-7.37 1.36-11.345 1.751-1.41.289-3.444.251-4.425 1.424-2.47 2.578-4.887 5.284-6.92 8.227 4.412-1.225 8.876-2.167 13.256-3.507 3.822-.898 7.689-1.41 11.433-2.648-.41-1.732-.834-3.47-1.2-5.215-.269-.018-.535-.029-.8-.033zm-41.76 11.755c-2.752.353-5.284 2.187-7.837 3.232-2.289 1.225-5.078 2.174-6.95 4.002.403 1.526 1.352 4.373 2.84 5.04 2.54-.776 4.867-2.29 7.291-3.367 4.418-2.174 9.093-3.302 13.306-5.874-3.662.244-5.842-.917-8.65-3.033zm21.27 3.136c-1.14.083-2.193.379-3.257.79-3.527 1.365-7.106 2.493-10.517 4.147 3.52 10.325 7.56 20.445 11.254 30.724 1.321 3.925 3.24 7.586 4.419 11.568 4.733 12.8 9.164 25.703 13.94 38.496 1.982 5.547 4.04 11.081 5.868 16.68 3.726 11.543 8.426 23.021 12.364 34.474 3.706 10.126 7.662 20.142 11.414 30.249.705 1.808 1.462 3.592 2.2 5.387 2.5 1.655 4.604 3.405 7.65 4.027 1.308-2.129 2.174-4.533 3.239-6.79.596-1.097 0-2.11-.302-3.207-3.59-10.287-7.093-20.598-10.857-30.82-7.785-22.688-15.742-45.35-23.694-67.982-3.15-10.479-7.144-20.643-10.665-31.012-4.168-12.313-8.946-24.394-13.056-36.732zm-22.031 8.487a4.96 4.96 0 0 0-2.003.478c-3.546 1.513-6.933 3.577-10.357 5.328 6.246 3.059 12.672 5.771 19.078 8.471 1.648.84 3.251 1.469 5.06 1.892-1.546-5.047-3.675-9.946-5.522-14.897-1.972-.408-4.188-1.352-6.256-1.272zm-102.568.22c-1.616 9.164-4.226 19.111-3.29 28.596 1.231 6.227 3.88 12.28 7.246 17.647.821 1.475 1.75 2.79 3.014 3.918.474-3.257.814-6.534 1.116-9.811.57-7.131 2.154-14.114 3.11-21.226.712-5.258 2.2-10.363 3.078-15.577-4.739-1.237-9.484-2.572-14.275-3.547zm16.237 4.131c-1.135 3.245-2.116 6.528-2.662 9.933-2.135 12.229-4.36 24.695-4.957 37.11 1.63-.898 3.078-1.91 4.444-3.174 3.354-3.072 7.022-5.76 10.337-8.888 1.994-1.88 4.502-3.296 6.093-5.457 2.065-2.693 4.386-4.983 6.175-7.901 2.597-4.226 4.61-8.811 5.867-13.614.481-1.77.36-3.444.315-5.26-4.854-.275-9.76-.556-14.576-1.23-3.7-.474-7.304-1.282-11.037-1.52zm29.158 3.2c-.327 3.283-.724 6.355-2.141 9.375-1.982 5.695-4.784 11.011-8.594 15.699-1.301 1.577-2.667 3.09-3.911 4.72 9.074.794 18.135.564 27.222.904 7.547-.378 15.012-.052 22.528-1.136-4.015-5.29-7.721-10.619-9.914-16.961-1.565-3.925-1.668-8.42-2.976-12.319-7.387-.282-14.82-.257-22.213-.282zm28.674.194c-.846-.001-1.694.003-2.543.011-.256 8.927 4.496 16.923 9.286 24.098 1.975 2.463 4.162 4.803 6.298 7.138 5.496 5.22 10.633 11.203 16.705 15.73-.23-7.535-1.295-15.146-2.405-22.605-.237-2.11-.404-4.212-.956-6.27-1.16-4.47-1.32-9.062-2.61-13.513-2.648-1.295-5.392-2.36-8.092-3.546-2.334-1.16-5.483-.564-8.067-.769-2.54-.207-5.075-.27-7.615-.274zm25.834 5.872c.211 3.264 1.161 6.4 1.43 9.65.206 2.046.34 4.182.815 6.17 1.308 5.06 1.693 10.42 2.289 15.602.327 2.63.295 5.137 1.334 7.631 2.546-3.559 4.751-7.374 7.054-11.1 1.987-3.732 3.802-8.439 4.84-12.537.867-3.238-.486-5.733-1.724-8.6-5.297-2.283-10.491-5.213-16.039-6.817zm-16.998 27.553c-1.27-.007-2.685.365-3.78.38-5.77.809-11.522.404-17.3.808-.257 2.104-.193 4.176-.039 6.28 1.616 6.854 3.194 13.632 5.624 20.263 1.75 4.15 3.116 8.453 4.867 12.595.75 1.976.942 4.2 1.333 6.272 2.713.468 5.336.75 8.061.154 2.315-.533 4.778-.783 6.792-2.046 4.187-2.565 7.785-5.983 10.471-10.107 1.36-1.674 2.117-4.155 3.88-5.405 4.27.891 6.971 3.584 10.402 6.002 1.77 1.32 3.27 2.892 4.969 4.303.513-4.983.616-10.087.635-15.096-.391-4.399-.064-8.79-.77-13.152-.288-3.437-.147-6.708-1.487-9.978-1.161 1.532-2.168 3.16-3.175 4.802-1.673 2.79-3.816 5.227-5.342 8.12-.936 1.506-2.077 3.776-3.854 4.385-4.489-3.52-8.4-7.894-12.6-11.76-2.264-2.014-4.252-4.406-6.657-6.24-.557-.435-1.268-.575-2.03-.58zm-50.601.244c-2.058.004-4.114.055-6.153.118-6.304 4.989-12.536 10.754-18.93 15.717-3.45-3.732-5.483-8.683-8.459-12.806-2.116 5.656-1.532 12.518-2.423 18.507-.263 4.95-1.04 9.786-.803 14.742 3.636-3.213 8.645-7.534 13.737-7.58 3.226 6.708 8.772 13.993 15.98 16.629 4.483 1.173 9.363 1.725 13.647-.436.673-3.149 1.86-5.976 3.212-8.875 2.674-8.721 6.009-17.052 8.067-25.966.507-3.007 1.334-5.746 1.27-8.804-2.956-.552-5.912-.475-8.894-.706-3.382-.42-6.82-.546-10.25-.54zm-25.423 32.835c-5.066 2.43-9.433 6.47-12.357 11.254-1.007 1.488-2.603 2.732-3.283 4.367-1.097 2.578-1.149 5.644-1.18 8.407-.04 4.72-.04 9.78 1.147 14.372 2.232 6.188 7.452 11.549 12.12 16.044 4.509-2.559 9.177-4.733 14.25-5.92 4.81-1.256 9.349-1.384 13.331-4.732 2.501-2.231 5.625-5.36 5.984-8.85.827-5.553 1.538-11.144 1.872-16.756l.013-.814c-2.597-.186-5.682.577-8.298.211-6.323-.487-11.896-3.7-16.173-8.26-1.88-2.167-3.81-4.41-5.297-6.847-.59-.969-1.193-1.816-2.129-2.476zm97.1.43c-2.123 1.783-3.078 4.155-4.925 6.303-2.828 3.636-6.227 6.715-10.267 8.953-5.265 2.245-11.42 2.167-16.942.987-.077 4.137.532 8.285.93 12.408.66 3.848 1.128 8.311 3.013 11.774 2.34 2.257 5.323 4.021 8.337 5.227 4.65 1.994 9.663 2.783 14.37 4.713 3.117 1.148 5.888 2.854 8.793 4.425 3.43-3.13 6.643-6.548 9.497-10.216.885-1.141 2.167-2.34 2.577-3.745 1.174-4.617 2.021-9.24 1.694-14.024-.051-4.117-.103-9.593-2.552-13.107-2.232-2.142-3.483-4.97-5.714-7.087-2.668-2.552-5.548-4.86-8.812-6.61zm-97.797 4.68c1.44 2.925 5.304 8.456 10.844 12.391 2.814 1.996 5.74 3.42 8.724 4.146 2.979.728 5.665.625 7.585.356 1.91-.268 3.02-.65 3.02-.65s-1.067.484-2.976.897c-1.911.414-4.658.708-7.783.098-3.118-.612-6.228-2-9.128-4.062-4.81-3.418-8.371-7.987-10.268-11.17-2.756 15.315-3.684 26.652-2.146 41.406.29-.195.4-.276 1.02-.659.629-.393 1.5-.929 2.468-1.495.485-.283.994-.574 1.51-.86a46.72 46.72 0 0 1 1.935-1.015c.352-.173.697-.336 1.03-.483.369-.163.725-.308 1.057-.426 3.582-1.28 7.93-1.036 11.554-2.027a13.224 13.224 0 0 0 2.254-.82c1.668-.791 3.193-2.29 4.237-3.28a55.735 55.735 0 0 0 2.127-2.142l.131-.14a.408.408 0 0 0 .037-.036 26.841 26.841 0 0 1-.54.782c-.33.46-.814 1.11-1.424 1.844-.928 1.122-2.315 2.779-4.158 3.778-.76.407-1.572.714-2.41.942-3.736 1.022-8.04.773-11.485 2.004-.306.11-.638.245-.992.401-.318.14-.65.297-.993.465-.308.152-.623.313-.94.48-.571.3-1.15.62-1.71.94-.449.255-.885.51-1.296.755-1.172.697-.815.438-2.77 1.712l-.967.673a5.642 5.642 0 0 1-.52-.387l-.022.005c0-.008 0-.015-.002-.022-.193-.162-.383-.34-.607-.557-.133-.139-.214-.228-.637-.68a145.938 145.938 0 0 1-2.737-2.996c-.53-.597-1.08-1.23-1.633-1.88a37.813 37.813 0 0 1-3.068-4.126c-1.291-2.018-1.807-3.61-1.807-3.61s.843 1.431 2.319 3.24c1.165 1.422 1.917 2.258 3.289 3.873.547.644 1.094 1.272 1.62 1.865a145.421 145.421 0 0 0 2.718 2.976c.244.26.313.327.394.415-1.468-14.635-.499-26.048 2.261-41.325-2.361 1.42-4.313 2.905-6.028 4.568-2.851 2.764-5.422 5.943-5.422 5.943s1.753-3.721 4.753-6.633c1.903-1.847 4.073-3.472 6.733-5.02l-.014-.028.439-.217.18-.102.007.011zm98.47.6.237.117.006-.011.18.102c.139.035.358.204.425.244 2.66 1.548 4.83 3.174 6.734 5.02 3 2.913 4.753 6.634 4.753 6.634s-2.572-3.18-5.423-5.943c-1.75-1.698-3.748-3.21-6.176-4.656 2.779 15.396 3.738 26.443 2.21 41.244l.472-.506c.702-.747 1.667-1.79 2.719-2.977.526-.593 1.073-1.22 1.62-1.865 1.372-1.614 2.123-2.45 3.289-3.872 1.476-1.81 2.32-3.241 2.32-3.241s-.517 1.592-1.808 3.61a37.809 37.809 0 0 1-3.068 4.126c-.552.65-1.104 1.284-1.633 1.88a146.196 146.196 0 0 1-2.737 2.997c-.423.451-.504.54-.637.68-.421.409-.72.679-1.151.962l-.968-.672c-1.954-1.274-1.597-1.016-2.77-1.713a80.7 80.7 0 0 0-1.294-.755c-.561-.32-1.14-.638-1.711-.94a39.404 39.404 0 0 0-.94-.48 26.442 26.442 0 0 0-.993-.464 14.921 14.921 0 0 0-.992-.401c-3.445-1.231-7.749-.983-11.485-2.004a11.49 11.49 0 0 1-2.41-.942c-1.843-1-3.23-2.657-4.158-3.778a33.087 33.087 0 0 1-1.829-2.423 18.407 18.407 0 0 1-.135-.204l-.011-.015.012.014c.007.009.02.022.036.037l.131.14c.115.124.275.29.487.51.39.404.959.983 1.64 1.632 1.044.99 2.569 2.49 4.237 3.281.709.342 1.466.604 2.254.82 3.624.99 7.973.747 11.554 2.026.332.119.688.264 1.058.427.332.147.677.31 1.029.483.633.311 1.29.659 1.935 1.015.516.285 1.025.576 1.51.86.968.566 1.839 1.101 2.467 1.495.654.403.734.466 1.074.693 1.588-14.944.608-25.488-2.197-40.968-1.93 3.17-5.452 7.62-10.15 10.957-2.9 2.063-6.01 3.45-9.128 4.062-3.125.61-5.871.316-7.783-.098-1.908-.413-2.976-.897-2.976-.897s1.11.383 3.02.65c1.92.27 4.606.372 7.585-.356 2.985-.725 5.91-2.15 8.724-4.145 5.54-3.936 9.405-9.467 10.844-12.392zm-70.686 41.026c-.59.282-1.186.565-1.776.84-6.778 3.45-14.108 4.335-21.123 7.105-3.136.994-5.817 2.887-8.979 3.81-2.206-1.73-4.155-3.822-6.508-5.335.147 5.053 1.026 10.074 1.385 15.121.539 7.272 1.154 14.557 2.007 21.803.243 3.239-.494 6.375.006 9.613.731 5.547-.596 10.568-.814 16.044-.481 4.405-.539 8.542-1.918 12.8-1.032 2.975-1.301 5.783-2.924 8.503-.346.98-1.872 2.283-.064 2.636 4.008.416 7.663 1.763 10.825 4.283 1.122 1.116 1.77 2.687 2.924 3.752 1.27-1.847 2.22-3.726 3.912-5.272 1.52-1.443 3.29-2.224 5.162-3.084.75-3.578.404-7.182.096-10.787-.218-2.808.308-5.527.372-8.374.32-5.643 2.867-9.811 4.45-15.05 1.713-4.887 4.181-9.37 5.541-14.417 2.193-7.81 5.297-15.794 6.413-23.74.558-3.379.776-6.829.724-10.253-.07-3.348.476-6.644.29-9.998zm43.472.116c-.275 3.97-.02 7.9.41 11.85.436 3.951.295 7.644 1.225 11.517.468 2.841 1.52 5.502 2.052 8.324.898 4.11 1.873 8.177 3.233 12.166-.674.295-1.353.59-2.033.878.654.02 1.307.058 1.961.11.744.403.975 1.468 1.34 2.192 1.751 4.207 3.477 8.356 4.279 12.87 1.186 4.246 2.487 8.394 2.904 12.82 1.186 6.566.622 13.543.712 20.296 2.257.975 4.835 1.77 6.45 3.738 1.34 1.616 2.573 3.315 3.945 4.9 1.776-2.463 3.744-4.637 6.489-6.035 1.994-1.135 4.136-1.603 6.336-2.148-2.918-4.9-4.86-10.568-5.245-16.276-1.058-7.657-1.405-15.345-1.219-23.073.347-5.335.68-10.69.744-16.037.206-4.066.86-8.138 1.135-12.178.25-2.79.064-5.554.507-8.33.39-3.393 1.34-6.375.122-9.741-1.815 1.532-3.36 3.623-5.413 4.822-2.058-.885-3.853-2.328-5.847-3.354-5.63-2.931-11.416-3.296-17.194-5.855-2.43-.917-4.597-2.283-6.893-3.456zm-122.282 41.175c-4.425.75-8.715 1.424-13.236 1.283.135 5.239 1.36 10.177 2.058 15.506a37.144 37.144 0 0 0 2.046 8.734c.578 1.853 2.546 2.097 4.194 2.386 2.79.397 5.342-1.392 7.054-3.419.853-1.532 1.244-3.45.82-5.175-.962-6.438-2.025-12.877-2.936-19.315zm7.798 22.714c-1.379 3.136-3.168 5.978-6.355 7.53-2.007.859-4.2 1.538-6.387 1.699-1.616-.103-3.232-.5-4.79-.93-2.078-.603-3.515-2.053-5.086-3.444-.968 1.738-.43 3.412.648 4.925 2.444 2.122 5.438 2.943 8.612 3.155 3.591.423 7.26-.199 10.415-2.007 1.616-.91 3.745-1.976 4.694-3.637.712-1.372.987-3.276.788-4.796-.199-1.141-1.731-1.809-2.54-2.495zm2.391 11.396c-2.847.974-5.277 2.72-8.143 3.495-4.758 1.404-10.37.3-15.083-.911 1.32 6.72 3.713 13.268 5.322 19.905.628 3.02 1.616 5.939 2.302 8.94 1.552 5.945 2.59 11.568 5.021 17.314 1.103 1.892 2.867 4.591 5.444 3.501 1.155-.667 1.283-2.982 1.63-4.149.647-3.482 2.776-6.368 3.674-9.657.289-2.09.135-4.259.154-6.368-.122-7.041-.11-14.127-.097-21.155-.263-3.65-.243-7.266-.224-10.915zm27.61 19.216c-1.474-.034-2.901.335-4.113 1.44-4.137 3.494-8.58 6.86-12.19 10.907-2.393 3.245-5.477 5.752-7.478 9.208-1.533 2.38-2.225 4.88-3.354 7.497-.98 2.59-1.847 5.708-1.231 8.472 6.393-.917 12.896-2.002 19.02-4.105 4.188-1.27 8.708-2.617 12.517-4.803 2.25-1.302 3.098-3.649 5.285-4.99 3.193-2.244 7.906-2.276 11.4-4 2.822-1.726 5.156-4.143 6.074-7.395 1.34-3.892.776-8.157-1.18-11.722-1.142-.75-2.084-.135-3.193.32-1.905.834-3.367 2.733-4.56 4.38-2.116 3.162-2.244 6.477-3.296 10.094-.52-.11-1.039-.225-1.558-.34.064-2.976.807-5.457-.61-8.24-1.52-3.553-4.694-4.823-8.086-6.067-1.125-.359-2.3-.63-3.447-.656zm100.125.779c-.46-.013-.93.025-1.41.121-1.211 2.18-1.36 5.009-1.603 7.459-.385 3.956 1.552 8.29 4.925 10.413 4.31 1.462 8.414 2.181 11.89 5.426 3 3.097 6.303 5.777 10.195 7.688 4.573 2.136 9.389 3.463 14.314 4.495 4.264 1.167 8.536 2.194 12.941 2.61-.282-3.866-1.815-7.02-3.168-10.606-2.22-5.431-5.785-9.716-9.729-13.96-4.45-4.598-9.15-8.96-13.736-13.416-4.54.423-8.945 2.386-11.44 6.336-1.263 1.956-1.41 4.066-1.712 6.31-.5-.147-.994-.314-1.481-.487-.84-2.475-.686-4.886-2.43-7.054-1.639-2.654-4.339-5.244-7.557-5.335z" fill="#fff"/></g></svg>
