<?xml version="1.0" encoding="UTF-8" standalone="no"?>
<!-- Created with Inkscape (http://www.inkscape.org/) -->

<svg
   width="135.09497mm"
   height="149.87598mm"
   viewBox="0 0 135.09497 149.87598"
   version="1.1"
   id="svg5533"
   inkscape:version="1.2.2 (732a01da63, 2022-12-09)"
   sodipodi:docname="Wappen Brodersdorf2.svg"
   xmlns:inkscape="http://www.inkscape.org/namespaces/inkscape"
   xmlns:sodipodi="http://sodipodi.sourceforge.net/DTD/sodipodi-0.dtd"
   xmlns="http://www.w3.org/2000/svg"
   xmlns:svg="http://www.w3.org/2000/svg">
  <sodipodi:namedview
     id="namedview5535"
     pagecolor="#ffffff"
     bordercolor="#666666"
     borderopacity="1.0"
     inkscape:showpageshadow="2"
     inkscape:pageopacity="0.0"
     inkscape:pagecheckerboard="0"
     inkscape:deskcolor="#d1d1d1"
     inkscape:document-units="mm"
     showgrid="false"
     inkscape:zoom="0.94495546"
     inkscape:cx="255.5676"
     inkscape:cy="284.14038"
     inkscape:current-layer="layer1" />
  <defs
     id="defs5530" />
  <g
     inkscape:label="Ebene 1"
     inkscape:groupmode="layer"
     id="layer1"
     transform="translate(-530.22794,-81.11286)">
    <g
       id="g5372"
       transform="translate(488.16428,14.27139)">
      <path
         id="path4776"
         style="fill:#0000ff;stroke:#000000;stroke-width:1.70001;stroke-linecap:round;stroke-dasharray:none"
         d="m 42.91366,67.691475 v 81.478235 a 66.697495,66.697495 0 0 0 66.69722,66.69773 66.697495,66.697495 0 0 0 66.69774,-66.69722 66.697495,66.697495 0 0 0 0,-5.1e-4 V 67.691475 Z" />
      <path
         id="path4896"
         style="fill:#ff0000;stroke:#000000;stroke-width:1.7;stroke-linecap:round;stroke-dasharray:none"
         d="m 176.30862,136.04544 -133.39496,1.17874 v 11.94553 a 66.697495,66.697495 0 0 0 66.69722,66.69773 66.697495,66.697495 0 0 0 66.69774,-66.69722 66.697495,66.697495 0 0 0 0,-5.1e-4 z" />
      <g
         id="g5223">
        <path
           id="rect4891"
           style="fill:#ffffff;stroke:#000000;stroke-width:1.7;stroke-linecap:round;stroke-dasharray:none"
           d="m 42.91366,130.88245 v 13.69322 h 133.39496 v -13.69322 z" />
        <g
           id="g4091"
           transform="rotate(30.786161,191.34582,-274.59085)">
          <g
             id="g3606"
             transform="matrix(1.3600834,-0.00724592,0.00940232,1.3494487,-114.8539,-110.15772)"
             style="stroke-width:0.738127">
            <path
               style="fill:#ffffff;stroke:#000000;stroke-width:0.295251;stroke-linecap:round;stroke-dasharray:none"
               d="m 317.17028,213.09242 3.59935,3.93453 -0.94669,-4.05818 -1.22072,0.0456 z"
               id="path3415"
               sodipodi:nodetypes="ccccc" />
            <path
               style="fill:#000000;stroke:#000000;stroke-width:0.221438;stroke-linecap:round;stroke-dasharray:none"
               d="m 320.54625,216.55037 -2.11164,-3.54539"
               id="path3417"
               sodipodi:nodetypes="cc" />
          </g>
          <g
             id="g3624"
             transform="matrix(1.3600834,-0.00724592,0.00940232,1.3494487,-74.108056,-110.15772)"
             style="stroke-width:0.738127">
            <path
               style="fill:#ffffff;stroke:#000000;stroke-width:0.295251;stroke-linecap:round;stroke-dasharray:none"
               d="m 317.17028,213.09242 3.59935,3.93453 -0.99617,-4.27688 -1.17124,0.2643 z"
               id="path3620"
               sodipodi:nodetypes="ccccc" />
            <path
               style="fill:#000000;stroke:#000000;stroke-width:0.221438;stroke-linecap:round;stroke-dasharray:none"
               d="m 320.54625,216.55037 -2.11164,-3.54539"
               id="path3622"
               sodipodi:nodetypes="cc" />
          </g>
          <g
             id="g3618"
             transform="matrix(1.3600834,-0.00724592,0.00940232,1.3494487,-89.45389,-110.15772)"
             style="stroke-width:0.738127">
            <path
               style="fill:#ffffff;stroke:#000000;stroke-width:0.295251;stroke-linecap:round;stroke-dasharray:none"
               d="m 317.17028,213.09242 3.59935,3.93453 -0.94669,-4.05818 -1.22072,0.0456 z"
               id="path3614"
               sodipodi:nodetypes="ccccc" />
            <path
               style="fill:#000000;stroke:#000000;stroke-width:0.221438;stroke-linecap:round;stroke-dasharray:none"
               d="m 320.54625,216.55037 -2.11164,-3.54539"
               id="path3616"
               sodipodi:nodetypes="cc" />
          </g>
          <g
             id="g3612"
             transform="matrix(1.3600834,-0.00724592,0.00940232,1.3494487,-102.15388,-110.15772)"
             style="stroke-width:0.738127">
            <path
               style="fill:#ffffff;stroke:#000000;stroke-width:0.295251;stroke-linecap:round;stroke-dasharray:none"
               d="m 317.17028,213.09242 3.59935,3.93453 -0.94669,-4.05818 -1.22072,0.0456 z"
               id="path3608"
               sodipodi:nodetypes="ccccc" />
            <path
               style="fill:#000000;stroke:#000000;stroke-width:0.221438;stroke-linecap:round;stroke-dasharray:none"
               d="m 320.54625,216.55037 -2.11164,-3.54539"
               id="path3610"
               sodipodi:nodetypes="cc" />
          </g>
          <g
             id="g3811"
             transform="matrix(1.3600834,-0.00724592,0.00940232,1.3494487,-66.478869,-122.64184)"
             style="stroke-width:0.738127">
            <path
               style="fill:#ffffff;stroke:#000000;stroke-width:0.295251;stroke-linecap:round;stroke-dasharray:none"
               d="m 317.17028,213.09242 3.59935,3.93453 -0.99617,-4.27688 -1.17124,0.2643 z"
               id="path3807"
               sodipodi:nodetypes="ccccc" />
            <path
               style="fill:#000000;stroke:#000000;stroke-width:0.221438;stroke-linecap:round;stroke-dasharray:none"
               d="m 320.54625,216.55037 -2.11164,-3.54539"
               id="path3809"
               sodipodi:nodetypes="cc" />
          </g>
          <g
             id="g3805"
             transform="matrix(1.3600834,-0.00724592,0.00940232,1.3494487,-59.24202,-135.17356)"
             style="stroke-width:0.738127">
            <path
               style="fill:#ffffff;stroke:#000000;stroke-width:0.295251;stroke-linecap:round;stroke-dasharray:none"
               d="m 317.17028,213.09242 3.59935,3.93453 -0.99617,-4.27688 -1.17124,0.2643 z"
               id="path3801"
               sodipodi:nodetypes="ccccc" />
            <path
               style="fill:#000000;stroke:#000000;stroke-width:0.221438;stroke-linecap:round;stroke-dasharray:none"
               d="m 320.54625,216.55037 -2.11164,-3.54539"
               id="path3803"
               sodipodi:nodetypes="cc" />
          </g>
          <g
             id="g3799"
             transform="matrix(1.3600834,-0.00724592,0.00940232,1.3494487,-52.191482,-146.98591)"
             style="stroke-width:0.738127">
            <path
               style="fill:#ffffff;stroke:#000000;stroke-width:0.295251;stroke-linecap:round;stroke-dasharray:none"
               d="m 317.17028,213.09242 3.59935,3.93453 -0.99617,-4.27688 -1.17124,0.2643 z"
               id="path3795"
               sodipodi:nodetypes="ccccc" />
            <path
               style="fill:#000000;stroke:#000000;stroke-width:0.221438;stroke-linecap:round;stroke-dasharray:none"
               d="m 320.54625,216.55037 -2.11164,-3.54539"
               id="path3797"
               sodipodi:nodetypes="cc" />
          </g>
          <g
             id="g3285"
             transform="translate(1.9419749,23.026274)">
            <path
               style="fill:#ffffff;stroke:#000000;stroke-width:0.8;stroke-linecap:round;stroke-dasharray:none"
               d="m 381.31905,116.53634 -21.03,35.64183 h -46.46756 l -2.09795,-2.80415 23.14778,-39.4152 h 41.87243 l 2.64727,-1.47731 c 0,0 -2.0249,-3.49328 1.61593,-5.5029 3.70941,-2.04746 5.51972,2.02089 6.18179,3.02626 0.66207,1.00537 2.86897,3.60461 1.71648,5.46821 -1.15249,1.86361 -7.58617,5.06326 -7.58617,5.06326 z"
               id="path2490"
               sodipodi:nodetypes="cccccccsssc" />
            <path
               id="rect896"
               style="fill:#ffffff;stroke:#000000;stroke-width:0.3;stroke-linecap:round;stroke-dasharray:none"
               d="M 376.74831,109.95882 H 334.8713 l -23.14777,39.4152 h 47.1641 l 20.72707,-35.31767 5.55522,-3.29442 c 0,0 1.18629,-0.75279 0.53577,-1.76438 -0.928,-1.44308 -2.34549,-0.39714 -2.59912,0.55064 l -1.75125,1.1097 c 0,0 -0.75174,-2.97772 2.20206,-4.1267 2.92666,-1.13842 4.4388,1.09237 4.4388,1.09237"
               sodipodi:nodetypes="ccccccsccsc" />
            <path
               style="fill:#ff0000;stroke:none;stroke-width:0.7;stroke-linecap:round;stroke-dasharray:none"
               d="m 346.05299,115.3118 -6.90094,-0.0173 1.36977,4.62953 -3.45048,-3.38111 -3.25972,5.42712 8.13202,0.13871 z"
               id="path1830" />
            <path
               id="path1429"
               style="fill:none;stroke:#000000;stroke-width:0.3;stroke-linecap:round;stroke-dasharray:none"
               d="m 335.92809,112.69307 h 11.71845 l -5.70027,9.46127 h -11.61441 z"
               sodipodi:nodetypes="ccccc" />
            <path
               style="color:#000000;fill:#000000;stroke-linecap:round;-inkscape-stroke:none"
               d="m 337.56592,114.91018 -4.22482,7.14916 c -0.0978,0.16617 0.19937,-0.003 0.36519,0.095 0.16617,0.0978 0.27592,0.21478 0.3743,0.049 l 3.88377,-6.59392 h 7.87925 c 0.19299,-2.1e-4 0.36471,-0.15661 0.36493,-0.3496 -2.1e-4,-0.193 0.22654,-0.3494 0.0335,-0.34961 z"
               id="path1527"
               sodipodi:nodetypes="ccccccccc" />
            <path
               style="fill:#ffffff;stroke:#000000;stroke-width:0.4;stroke-linecap:round;stroke-dasharray:none"
               d="m 337.10874,116.58412 3.39575,3.32253 -1.30847,-4.50841 -1.41167,0.006 z"
               id="path1609"
               sodipodi:nodetypes="ccccc" />
            <path
               style="fill:#000000;stroke:#000000;stroke-width:0.3;stroke-linecap:round;stroke-dasharray:none"
               d="m 340.41833,119.80134 -2.706,-4.54028"
               id="path1634"
               sodipodi:nodetypes="cc" />
            <path
               style="fill:#000000;stroke:#000000;stroke-width:0.3;stroke-linecap:round;stroke-dasharray:none"
               d="m 335.97641,112.73458 1.69407,2.48277"
               id="path1662"
               sodipodi:nodetypes="cc" />
            <path
               style="color:#000000;fill:#000000;stroke-width:0.7;stroke-linecap:round;-inkscape-stroke:none"
               d="m 333.89208,121.93654 h 7.71552"
               id="path1691" />
            <path
               style="color:#000000;fill:#000000;stroke-linecap:round;-inkscape-stroke:none"
               d="m 333.89209,121.58596 c -0.193,2.1e-4 -0.3494,0.15661 -0.34961,0.34961 -8.6e-4,0.19376 0.15585,0.35135 0.34961,0.35156 h 7.71485 c 0.19452,8.7e-4 0.35243,-0.15704 0.35156,-0.35156 -2.1e-4,-0.19376 0.56447,-0.35047 0.37071,-0.34961 z"
               id="path1693"
               sodipodi:nodetypes="ccccccc" />
            <path
               style="fill:#ff0000;stroke:none;stroke-width:0.7;stroke-linecap:round;stroke-dasharray:none"
               d="m 360.94721,115.27029 -6.90094,-0.0173 1.36977,4.62953 -3.45048,-3.38111 -3.25972,5.42712 8.13202,0.13871 z"
               id="path1897" />
            <path
               id="path1899"
               style="fill:none;stroke:#000000;stroke-width:0.3;stroke-linecap:round;stroke-dasharray:none"
               d="m 350.82231,112.65156 h 11.71845 l -5.70027,9.46127 h -11.61441 z"
               sodipodi:nodetypes="ccccc" />
            <path
               style="color:#000000;fill:#000000;stroke-linecap:round;-inkscape-stroke:none"
               d="m 352.46014,114.86867 -4.22482,7.14916 c -0.0978,0.16617 0.19937,-0.003 0.36519,0.095 0.16617,0.0978 0.27592,0.21478 0.3743,0.049 l 3.88377,-6.59392 h 7.87925 c 0.19299,-2.1e-4 0.36471,-0.15661 0.36493,-0.3496 -2.1e-4,-0.193 0.22654,-0.3494 0.0335,-0.34961 z"
               id="path1901"
               sodipodi:nodetypes="ccccccccc" />
            <path
               style="fill:#ffffff;stroke:#000000;stroke-width:0.4;stroke-linecap:round;stroke-dasharray:none"
               d="m 352.00296,116.54261 3.39575,3.32253 -1.30847,-4.50841 -1.41167,0.006 z"
               id="path1903"
               sodipodi:nodetypes="ccccc" />
            <path
               style="fill:#000000;stroke:#000000;stroke-width:0.3;stroke-linecap:round;stroke-dasharray:none"
               d="m 355.31255,119.75983 -2.706,-4.54028"
               id="path1905"
               sodipodi:nodetypes="cc" />
            <path
               style="fill:#000000;stroke:#000000;stroke-width:0.3;stroke-linecap:round;stroke-dasharray:none"
               d="m 350.87063,112.69307 1.69407,2.48277"
               id="path1907"
               sodipodi:nodetypes="cc" />
            <path
               style="color:#000000;fill:#000000;stroke-width:0.7;stroke-linecap:round;-inkscape-stroke:none"
               d="m 348.7863,121.89503 h 7.71552"
               id="path1909" />
            <path
               style="color:#000000;fill:#000000;stroke-linecap:round;-inkscape-stroke:none"
               d="m 348.78631,121.54445 c -0.193,2.1e-4 -0.3494,0.15661 -0.34961,0.34961 -8.6e-4,0.19376 0.15585,0.35135 0.34961,0.35156 h 7.71485 c 0.19452,8.7e-4 0.35243,-0.15704 0.35156,-0.35156 -2.1e-4,-0.19376 0.56447,-0.35047 0.37071,-0.34961 z"
               id="path1911"
               sodipodi:nodetypes="ccccccc" />
            <path
               style="fill:#ff0000;stroke:none;stroke-width:0.7;stroke-linecap:round;stroke-dasharray:none"
               d="m 375.93807,115.3118 -6.90094,-0.0173 1.36977,4.62953 -3.45048,-3.38111 -3.25972,5.42712 8.13202,0.13871 z"
               id="path1923" />
            <path
               id="path1925"
               style="fill:none;stroke:#000000;stroke-width:0.3;stroke-linecap:round;stroke-dasharray:none"
               d="m 365.81317,112.69307 h 11.71845 l -5.70027,9.46127 h -11.61441 z"
               sodipodi:nodetypes="ccccc" />
            <path
               style="color:#000000;fill:#000000;stroke-linecap:round;-inkscape-stroke:none"
               d="m 367.451,114.91018 -4.22482,7.14916 c -0.0978,0.16617 0.19937,-0.003 0.36519,0.095 0.16617,0.0978 0.27592,0.21478 0.3743,0.049 l 3.88377,-6.59392 h 7.87925 c 0.19299,-2.1e-4 0.36471,-0.15661 0.36493,-0.3496 -2.1e-4,-0.193 0.22654,-0.3494 0.0335,-0.34961 z"
               id="path1927"
               sodipodi:nodetypes="ccccccccc" />
            <path
               style="fill:#ffffff;stroke:#000000;stroke-width:0.4;stroke-linecap:round;stroke-dasharray:none"
               d="m 366.99382,116.58412 3.39575,3.32253 -1.30847,-4.50841 -1.41167,0.006 z"
               id="path1929"
               sodipodi:nodetypes="ccccc" />
            <path
               style="fill:#000000;stroke:#000000;stroke-width:0.3;stroke-linecap:round;stroke-dasharray:none"
               d="m 370.30341,119.80134 -2.706,-4.54028"
               id="path1931"
               sodipodi:nodetypes="cc" />
            <path
               style="fill:#000000;stroke:#000000;stroke-width:0.3;stroke-linecap:round;stroke-dasharray:none"
               d="m 365.86149,112.73458 1.69407,2.48277"
               id="path1933"
               sodipodi:nodetypes="cc" />
            <path
               style="color:#000000;fill:#000000;stroke-width:0.7;stroke-linecap:round;-inkscape-stroke:none"
               d="m 363.77716,121.93654 h 7.71552"
               id="path1935" />
            <path
               style="color:#000000;fill:#000000;stroke-linecap:round;-inkscape-stroke:none"
               d="m 363.77717,121.58596 c -0.193,2.1e-4 -0.3494,0.15661 -0.34961,0.34961 -8.6e-4,0.19376 0.15585,0.35135 0.34961,0.35156 h 7.71485 c 0.19452,8.7e-4 0.35243,-0.15704 0.35156,-0.35156 -2.1e-4,-0.19376 0.56447,-0.35047 0.37071,-0.34961 z"
               id="path1937"
               sodipodi:nodetypes="ccccccc" />
            <path
               style="fill:#ff0000;stroke:none;stroke-width:0.7;stroke-linecap:round;stroke-dasharray:none"
               d="m 338.79143,127.62942 -6.90094,-0.0173 1.36977,4.62953 -3.45048,-3.38111 -3.25972,5.42712 8.13202,0.13871 z"
               id="path1988" />
            <path
               id="path1990"
               style="fill:none;stroke:#000000;stroke-width:0.3;stroke-linecap:round;stroke-dasharray:none"
               d="m 328.66653,125.01069 h 11.71845 l -5.70027,9.46127 H 323.0703 Z"
               sodipodi:nodetypes="ccccc" />
            <path
               style="color:#000000;fill:#000000;stroke-linecap:round;-inkscape-stroke:none"
               d="m 330.30436,127.2278 -4.22482,7.14916 c -0.0978,0.16617 0.19937,-0.003 0.36519,0.095 0.16617,0.0978 0.27592,0.21478 0.3743,0.049 l 3.88377,-6.59392 h 7.87925 c 0.19299,-2.1e-4 0.36471,-0.15661 0.36493,-0.3496 -2.1e-4,-0.193 0.22654,-0.3494 0.0335,-0.34961 z"
               id="path1992"
               sodipodi:nodetypes="ccccccccc" />
            <path
               style="fill:#ffffff;stroke:#000000;stroke-width:0.4;stroke-linecap:round;stroke-dasharray:none"
               d="m 329.84718,128.90174 3.39575,3.32253 -1.30847,-4.50841 -1.41167,0.006 z"
               id="path1994"
               sodipodi:nodetypes="ccccc" />
            <path
               style="fill:#000000;stroke:#000000;stroke-width:0.3;stroke-linecap:round;stroke-dasharray:none"
               d="m 333.15677,132.11896 -2.706,-4.54028"
               id="path1996"
               sodipodi:nodetypes="cc" />
            <path
               style="fill:#000000;stroke:#000000;stroke-width:0.3;stroke-linecap:round;stroke-dasharray:none"
               d="m 328.71485,125.0522 1.69407,2.48277"
               id="path1998"
               sodipodi:nodetypes="cc" />
            <path
               style="color:#000000;fill:#000000;stroke-width:0.7;stroke-linecap:round;-inkscape-stroke:none"
               d="m 326.63052,134.25416 h 7.71552"
               id="path2000" />
            <path
               style="color:#000000;fill:#000000;stroke-linecap:round;-inkscape-stroke:none"
               d="m 326.63053,133.90358 c -0.193,2.1e-4 -0.3494,0.15661 -0.34961,0.34961 -8.6e-4,0.19376 0.15585,0.35135 0.34961,0.35156 h 7.71485 c 0.19452,8.7e-4 0.35243,-0.15704 0.35156,-0.35156 -2.1e-4,-0.19376 0.56447,-0.35047 0.37071,-0.34961 z"
               id="path2002"
               sodipodi:nodetypes="ccccccc" />
            <path
               style="fill:#ff0000;stroke:none;stroke-width:0.7;stroke-linecap:round;stroke-dasharray:none"
               d="m 353.73397,127.62942 -6.90094,-0.0173 1.36977,4.62953 -3.45048,-3.38111 -3.25972,5.42712 8.13202,0.13871 z"
               id="path2008" />
            <path
               id="path2010"
               style="fill:none;stroke:#000000;stroke-width:0.3;stroke-linecap:round;stroke-dasharray:none"
               d="m 343.60907,125.01069 h 11.71845 l -5.70027,9.46127 h -11.61441 z"
               sodipodi:nodetypes="ccccc" />
            <path
               style="color:#000000;fill:#000000;stroke-linecap:round;-inkscape-stroke:none"
               d="m 345.2469,127.2278 -4.22482,7.14916 c -0.0978,0.16617 0.19937,-0.003 0.36519,0.095 0.16617,0.0978 0.27592,0.21478 0.3743,0.049 l 3.88377,-6.59392 h 7.87925 c 0.19299,-2.1e-4 0.36471,-0.15661 0.36493,-0.3496 -2.1e-4,-0.193 0.22654,-0.3494 0.0335,-0.34961 z"
               id="path2012"
               sodipodi:nodetypes="ccccccccc" />
            <path
               style="fill:#ffffff;stroke:#000000;stroke-width:0.4;stroke-linecap:round;stroke-dasharray:none"
               d="m 344.78972,128.90174 3.39575,3.32253 -1.30847,-4.50841 -1.41167,0.006 z"
               id="path2014"
               sodipodi:nodetypes="ccccc" />
            <path
               style="fill:#000000;stroke:#000000;stroke-width:0.3;stroke-linecap:round;stroke-dasharray:none"
               d="m 348.09931,132.11896 -2.706,-4.54028"
               id="path2016"
               sodipodi:nodetypes="cc" />
            <path
               style="fill:#000000;stroke:#000000;stroke-width:0.3;stroke-linecap:round;stroke-dasharray:none"
               d="m 343.65739,125.0522 1.69407,2.48277"
               id="path2018"
               sodipodi:nodetypes="cc" />
            <path
               style="color:#000000;fill:#000000;stroke-width:0.7;stroke-linecap:round;-inkscape-stroke:none"
               d="m 341.57306,134.25416 h 7.71552"
               id="path2020" />
            <path
               style="color:#000000;fill:#000000;stroke-linecap:round;-inkscape-stroke:none"
               d="m 341.57307,133.90358 c -0.193,2.1e-4 -0.3494,0.15661 -0.34961,0.34961 -8.6e-4,0.19376 0.15585,0.35135 0.34961,0.35156 h 7.71485 c 0.19452,8.7e-4 0.35243,-0.15704 0.35156,-0.35156 -2.1e-4,-0.19376 0.56447,-0.35047 0.37071,-0.34961 z"
               id="path2022"
               sodipodi:nodetypes="ccccccc" />
            <path
               style="fill:#ff0000;stroke:none;stroke-width:0.7;stroke-linecap:round;stroke-dasharray:none"
               d="m 368.67651,127.62942 -6.90094,-0.0173 1.36977,4.62953 -3.45048,-3.38111 -3.25972,5.42712 8.13202,0.13871 z"
               id="path2028" />
            <path
               id="path2030"
               style="fill:none;stroke:#000000;stroke-width:0.3;stroke-linecap:round;stroke-dasharray:none"
               d="m 358.55161,125.01069 h 11.71845 l -5.70027,9.46127 h -11.61441 z"
               sodipodi:nodetypes="ccccc" />
            <path
               style="color:#000000;fill:#000000;stroke-linecap:round;-inkscape-stroke:none"
               d="m 360.18944,127.2278 -4.22482,7.14916 c -0.0978,0.16617 0.19937,-0.003 0.36519,0.095 0.16617,0.0978 0.27592,0.21478 0.3743,0.049 l 3.88377,-6.59392 h 7.87925 c 0.19299,-2.1e-4 0.36471,-0.15661 0.36493,-0.3496 -2.1e-4,-0.193 0.22654,-0.3494 0.0335,-0.34961 z"
               id="path2032"
               sodipodi:nodetypes="ccccccccc" />
            <path
               style="fill:#ffffff;stroke:#000000;stroke-width:0.4;stroke-linecap:round;stroke-dasharray:none"
               d="m 359.73226,128.90174 3.39575,3.32253 -1.30847,-4.50841 -1.41167,0.006 z"
               id="path2034"
               sodipodi:nodetypes="ccccc" />
            <path
               style="fill:#000000;stroke:#000000;stroke-width:0.3;stroke-linecap:round;stroke-dasharray:none"
               d="m 363.04185,132.11896 -2.706,-4.54028"
               id="path2036"
               sodipodi:nodetypes="cc" />
            <path
               style="fill:#000000;stroke:#000000;stroke-width:0.3;stroke-linecap:round;stroke-dasharray:none"
               d="m 358.59993,125.0522 1.69407,2.48277"
               id="path2038"
               sodipodi:nodetypes="cc" />
            <path
               style="color:#000000;fill:#000000;stroke-width:0.7;stroke-linecap:round;-inkscape-stroke:none"
               d="m 356.5156,134.25416 h 7.71552"
               id="path2040" />
            <path
               style="color:#000000;fill:#000000;stroke-linecap:round;-inkscape-stroke:none"
               d="m 356.51561,133.90358 c -0.193,2.1e-4 -0.3494,0.15661 -0.34961,0.34961 -8.6e-4,0.19376 0.15585,0.35135 0.34961,0.35156 h 7.71485 c 0.19452,8.7e-4 0.35243,-0.15704 0.35156,-0.35156 -2.1e-4,-0.19376 0.56447,-0.35047 0.37071,-0.34961 z"
               id="path2042"
               sodipodi:nodetypes="ccccccc" />
            <path
               style="fill:#ff0000;stroke:none;stroke-width:0.7;stroke-linecap:round;stroke-dasharray:none"
               d="m 361.3666,139.94705 -6.90094,-0.0173 1.36977,4.62953 -3.45048,-3.38111 -3.25972,5.42712 8.13202,0.13871 z"
               id="path2048" />
            <path
               id="path2050"
               style="fill:none;stroke:#000000;stroke-width:0.3;stroke-linecap:round;stroke-dasharray:none"
               d="m 351.2417,137.32832 h 11.71845 l -5.70027,9.46127 h -11.61441 z"
               sodipodi:nodetypes="ccccc" />
            <path
               style="color:#000000;fill:#000000;stroke-linecap:round;-inkscape-stroke:none"
               d="m 352.87953,139.54543 -4.22482,7.14916 c -0.0978,0.16617 0.19937,-0.003 0.36519,0.095 0.16617,0.0978 0.27592,0.21478 0.3743,0.049 l 3.88377,-6.59392 h 7.87925 c 0.19299,-2.1e-4 0.36471,-0.15661 0.36493,-0.3496 -2.1e-4,-0.193 0.22654,-0.3494 0.0335,-0.34961 z"
               id="path2052"
               sodipodi:nodetypes="ccccccccc" />
            <path
               style="fill:#ffffff;stroke:#000000;stroke-width:0.4;stroke-linecap:round;stroke-dasharray:none"
               d="m 352.42235,141.21937 3.39575,3.32253 -1.30847,-4.50841 -1.41167,0.006 z"
               id="path2054"
               sodipodi:nodetypes="ccccc" />
            <path
               style="fill:#000000;stroke:#000000;stroke-width:0.3;stroke-linecap:round;stroke-dasharray:none"
               d="m 355.73194,144.43659 -2.706,-4.54028"
               id="path2056"
               sodipodi:nodetypes="cc" />
            <path
               style="fill:#000000;stroke:#000000;stroke-width:0.3;stroke-linecap:round;stroke-dasharray:none"
               d="m 351.29002,137.36983 1.69407,2.48277"
               id="path2058"
               sodipodi:nodetypes="cc" />
            <path
               style="color:#000000;fill:#000000;stroke-width:0.7;stroke-linecap:round;-inkscape-stroke:none"
               d="m 349.20569,146.57179 h 7.71552"
               id="path2060" />
            <path
               style="color:#000000;fill:#000000;stroke-linecap:round;-inkscape-stroke:none"
               d="m 349.2057,146.22121 c -0.193,2.1e-4 -0.3494,0.15661 -0.34961,0.34961 -8.6e-4,0.19376 0.15585,0.35135 0.34961,0.35156 h 7.71485 c 0.19452,8.7e-4 0.35243,-0.15704 0.35156,-0.35156 -2.1e-4,-0.19376 0.56447,-0.35047 0.37071,-0.34961 z"
               id="path2062"
               sodipodi:nodetypes="ccccccc" />
            <path
               style="fill:#ff0000;stroke:none;stroke-width:0.7;stroke-linecap:round;stroke-dasharray:none"
               d="m 346.42406,139.94705 -6.90094,-0.0173 1.36977,4.62953 -3.45048,-3.38111 -3.25972,5.42712 8.13202,0.13871 z"
               id="path2068" />
            <path
               id="path2070"
               style="fill:none;stroke:#000000;stroke-width:0.3;stroke-linecap:round;stroke-dasharray:none"
               d="m 336.29916,137.32832 h 11.71845 l -5.70027,9.46127 h -11.61441 z"
               sodipodi:nodetypes="ccccc" />
            <path
               style="color:#000000;fill:#000000;stroke-linecap:round;-inkscape-stroke:none"
               d="m 337.93699,139.54543 -4.22482,7.14916 c -0.0978,0.16617 0.19937,-0.003 0.36519,0.095 0.16617,0.0978 0.27592,0.21478 0.3743,0.049 l 3.88377,-6.59392 h 7.87925 c 0.19299,-2.1e-4 0.36471,-0.15661 0.36493,-0.3496 -2.1e-4,-0.193 0.22654,-0.3494 0.0335,-0.34961 z"
               id="path2072"
               sodipodi:nodetypes="ccccccccc" />
            <path
               style="fill:#ffffff;stroke:#000000;stroke-width:0.4;stroke-linecap:round;stroke-dasharray:none"
               d="m 337.47981,141.21937 3.39575,3.32253 -1.30847,-4.50841 -1.41167,0.006 z"
               id="path2074"
               sodipodi:nodetypes="ccccc" />
            <path
               style="fill:#000000;stroke:#000000;stroke-width:0.3;stroke-linecap:round;stroke-dasharray:none"
               d="m 340.7894,144.43659 -2.706,-4.54028"
               id="path2076"
               sodipodi:nodetypes="cc" />
            <path
               style="fill:#000000;stroke:#000000;stroke-width:0.3;stroke-linecap:round;stroke-dasharray:none"
               d="m 336.34748,137.36983 1.69407,2.48277"
               id="path2078"
               sodipodi:nodetypes="cc" />
            <path
               style="color:#000000;fill:#000000;stroke-width:0.7;stroke-linecap:round;-inkscape-stroke:none"
               d="m 334.26315,146.57179 h 7.71552"
               id="path2080" />
            <path
               style="color:#000000;fill:#000000;stroke-linecap:round;-inkscape-stroke:none"
               d="m 334.26316,146.22121 c -0.193,2.1e-4 -0.3494,0.15661 -0.34961,0.34961 -8.6e-4,0.19376 0.15585,0.35135 0.34961,0.35156 h 7.71485 c 0.19452,8.7e-4 0.35243,-0.15704 0.35156,-0.35156 -2.1e-4,-0.19376 0.56447,-0.35047 0.37071,-0.34961 z"
               id="path2082"
               sodipodi:nodetypes="ccccccc" />
            <path
               style="fill:#ff0000;stroke:none;stroke-width:0.7;stroke-linecap:round;stroke-dasharray:none"
               d="m 331.48152,139.94705 -6.90094,-0.0173 1.36977,4.62953 -3.45048,-3.38111 -3.25972,5.42712 8.13202,0.13871 z"
               id="path2088" />
            <path
               id="path2090"
               style="fill:none;stroke:#000000;stroke-width:0.3;stroke-linecap:round;stroke-dasharray:none"
               d="m 321.35662,137.32832 h 11.71845 l -5.70027,9.46127 h -11.61441 z"
               sodipodi:nodetypes="ccccc" />
            <path
               style="color:#000000;fill:#000000;stroke-linecap:round;-inkscape-stroke:none"
               d="m 322.99445,139.54543 -4.22482,7.14916 c -0.0978,0.16617 0.19937,-0.003 0.36519,0.095 0.16617,0.0978 0.27592,0.21478 0.3743,0.049 l 3.88377,-6.59392 h 7.87925 c 0.19299,-2.1e-4 0.36471,-0.15661 0.36493,-0.3496 -2.1e-4,-0.193 0.22654,-0.3494 0.0335,-0.34961 z"
               id="path2092"
               sodipodi:nodetypes="ccccccccc" />
            <path
               style="fill:#ffffff;stroke:#000000;stroke-width:0.4;stroke-linecap:round;stroke-dasharray:none"
               d="m 322.53727,141.21937 3.39575,3.32253 -1.30847,-4.50841 -1.41167,0.006 z"
               id="path2094"
               sodipodi:nodetypes="ccccc" />
            <path
               style="fill:#000000;stroke:#000000;stroke-width:0.3;stroke-linecap:round;stroke-dasharray:none"
               d="m 325.84686,144.43659 -2.706,-4.54028"
               id="path2096"
               sodipodi:nodetypes="cc" />
            <path
               style="fill:#000000;stroke:#000000;stroke-width:0.3;stroke-linecap:round;stroke-dasharray:none"
               d="m 321.40494,137.36983 1.69407,2.48277"
               id="path2098"
               sodipodi:nodetypes="cc" />
            <path
               style="color:#000000;fill:#000000;stroke-width:0.7;stroke-linecap:round;-inkscape-stroke:none"
               d="m 319.32061,146.57179 h 7.71552"
               id="path2100" />
            <path
               style="color:#000000;fill:#000000;stroke-linecap:round;-inkscape-stroke:none"
               d="m 319.32062,146.22121 c -0.193,2.1e-4 -0.3494,0.15661 -0.34961,0.34961 -8.6e-4,0.19376 0.15585,0.35135 0.34961,0.35156 h 7.71485 c 0.19452,8.7e-4 0.35243,-0.15704 0.35156,-0.35156 -2.1e-4,-0.19376 0.56447,-0.35047 0.37071,-0.34961 z"
               id="path2102"
               sodipodi:nodetypes="ccccccc" />
            <path
               style="fill:none;stroke:#000000;stroke-width:0.8;stroke-linecap:round;stroke-dasharray:none"
               d="m 381.31905,116.53634 -21.03,35.64183 h -46.46756 l -2.09795,-2.80415 23.14778,-39.4152 h 41.87243 l 2.64727,-1.47731 c 0,0 -2.0249,-3.49328 1.61593,-5.5029 3.70941,-2.04746 5.51972,2.02089 6.18179,3.02626 0.66207,1.00537 2.86897,3.60461 1.71648,5.46821 -1.15249,1.86361 -7.58617,5.06326 -7.58617,5.06326 z"
               id="path2951"
               sodipodi:nodetypes="cccccccsssc" />
            <path
               style="fill:none;stroke:#000000;stroke-width:0.4;stroke-linecap:round;stroke-dasharray:none"
               d="m 379.64847,108.56733 1.56936,2.12108"
               id="path3037"
               sodipodi:nodetypes="cc" />
          </g>
        </g>
        <g
           id="g4596"
           transform="rotate(46.529813,285.30779,-72.931122)">
          <path
             style="fill:#ffffff;stroke:#000000;stroke-width:0.8;stroke-linecap:round;stroke-dasharray:none"
             d="m 313.3515,187.43526 -2.15002,-0.0347 c 0,0 -0.11009,-1.77654 -0.0727,-3.51543 0.0298,-1.38592 -0.007,-3.10911 -0.49899,-3.41672 -1.1097,-0.69354 -2.17805,-0.80354 -2.80225,-1.28903 -0.62421,-0.4855 -1.66234,-1.97488 -2.37494,-2.47231 -1.08808,-0.75953 -1.93675,-0.14311 -2.8436,-0.76291 -0.84204,-0.5755 -1.74581,-2.78862 -2.40469,-3.58621 -0.65889,-0.7976 -2.97812,-1.22143 -3.84507,-2.33113 -0.86695,-1.1097 -1.49116,-3.46781 -2.04601,-4.30009 -0.55485,-0.83227 -3.08635,-2.5315 -3.22506,-4.36945 -0.13872,-1.83794 0.76239,-3.19597 0.90952,-4.76532 0.14713,-1.56936 -0.73564,-2.73303 -0.3433,-4.79281 0.39234,-2.05977 1.2751,-2.7597 1.47127,-4.08385 0.19617,-1.32414 -0.34329,-3.43296 0.29425,-4.80614 0.63755,-1.37318 1.52032,-3.18775 2.10882,-4.26668 0.58851,-1.07893 0.71149,-2.99871 1.38857,-4.88247 0.89118,-2.4794 2.78003,-2.81716 3.85896,-4.8279 1.07893,-2.01073 0.46514,-3.55976 1.59315,-4.93295 1.12797,-1.37318 1.79076,-1.88392 2.91873,-3.35519 1.12798,-1.47127 0.78468,-4.16859 2.25595,-5.54178 1.47127,-1.37318 2.15786,-1.76552 3.1387,-2.89349 0.98085,-1.12797 1.52031,-2.99158 1.52031,-2.99158 0,0 1.84198,2.16899 2.88233,3.13998 1.04034,0.97099 1.45648,0.7976 1.94197,1.83794 0.4855,1.04035 0.97099,2.87828 2.15004,4.33476 1.17906,1.45648 2.7049,1.94198 3.67589,3.39846 0.97098,1.45648 0.6242,3.05168 1.87262,5.20172 1.24841,2.15004 2.18471,2.39279 2.67021,3.71056 0.48549,1.31777 0.41608,2.04601 1.04034,3.36378 0.62421,1.31776 1.35245,1.31777 1.56052,2.42747 0.20807,1.1097 -0.34678,2.18471 0.13876,4.19605 0.48549,2.01133 1.17905,2.04601 1.17905,3.08635 0,1.04035 -0.55485,2.2194 -0.27743,4.23073 0.27743,2.01133 0.93632,2.70489 0.58954,3.95331 -0.34678,1.24841 -1.7686,3.57185 -1.90731,5.09769 -0.13871,1.52583 0.34679,2.32343 0.27743,3.50248 -0.0694,1.17906 -0.90163,2.5315 -1.52583,4.05734 -0.62421,1.52584 -10e-6,2.2194 -0.62421,3.19039 -0.62421,0.97099 -1.69923,1.62987 -2.63554,2.53151 -0.91712,0.88315 -0.83228,1.69922 -2.18472,3.08634 -1.04744,1.0743 -1.97666,1.07503 -3.08636,2.11537 -1.1097,1.04035 -1.1097,1.38713 -2.21939,2.2194 -1.1097,0.83228 -2.3928,1.21373 -3.57185,2.18472 -1.17906,0.97099 -0.7976,3.84928 -0.7976,3.84928 z"
             id="path4305"
             sodipodi:nodetypes="ccsssssssssssssssssssscssssssssssssssssssssscc" />
          <path
             style="fill:none;stroke:#000000;stroke-width:0.2;stroke-linecap:round;stroke-dasharray:none"
             d="m 311.72165,113.88295 -0.41614,64.3626"
             id="path4413" />
          <path
             style="fill:none;stroke:#000000;stroke-width:0.4;stroke-linecap:round;stroke-dasharray:none"
             d="m 312.62333,113.88295 -0.41614,64.3626"
             id="path4415" />
          <path
             style="fill:none;stroke:#000000;stroke-width:0.3;stroke-linecap:round;stroke-dasharray:none"
             d="M 312.30119,175.62037 328.4361,160.80961"
             id="path4417"
             sodipodi:nodetypes="cc" />
          <path
             style="fill:none;stroke:#000000;stroke-width:0.3;stroke-linecap:round;stroke-dasharray:none"
             d="m 312.35024,168.36212 17.80234,-15.8897"
             id="path4419"
             sodipodi:nodetypes="cc" />
          <path
             style="fill:none;stroke:#000000;stroke-width:0.3;stroke-linecap:round;stroke-dasharray:none"
             d="m 312.39926,161.49619 17.41003,-15.74256"
             id="path4421"
             sodipodi:nodetypes="cc" />
          <path
             style="fill:none;stroke:#000000;stroke-width:0.3;stroke-linecap:round;stroke-dasharray:none"
             d="m 328.7794,139.37814 -16.18396,14.90885"
             id="path4423" />
          <path
             style="fill:none;stroke:#000000;stroke-width:0.3;stroke-linecap:round;stroke-dasharray:none"
             d="m 312.54639,147.07777 14.22228,-13.14333"
             id="path4425" />
          <path
             style="fill:none;stroke:#000000;stroke-width:0.3;stroke-linecap:round;stroke-dasharray:none"
             d="m 312.54639,140.75132 12.1625,-11.1326"
             id="path4427" />
          <path
             style="fill:none;stroke:#000000;stroke-width:0.3;stroke-linecap:round;stroke-dasharray:none"
             d="m 312.69352,133.64019 9.66134,-8.92569"
             id="path4429" />
          <path
             style="fill:none;stroke:#000000;stroke-width:0.3;stroke-linecap:round;stroke-dasharray:none"
             d="m 312.74258,126.03864 6.42453,-5.88507"
             id="path4431" />
          <path
             style="fill:none;stroke:#000000;stroke-width:0.3;stroke-linecap:round;stroke-dasharray:none"
             d="m 312.59544,119.17272 3.92338,-3.04062"
             id="path4433" />
          <path
             style="fill:none;stroke:#000000;stroke-width:0.3;stroke-linecap:round;stroke-dasharray:none"
             d="m 311.6146,118.48613 -2.99159,-2.74637"
             id="path4435" />
          <path
             style="fill:none;stroke:#000000;stroke-width:0.3;stroke-linecap:round;stroke-dasharray:none"
             d="m 311.46747,125.79343 -4.85518,-4.46285"
             id="path4437" />
          <path
             style="fill:none;stroke:#000000;stroke-width:0.3;stroke-linecap:round;stroke-dasharray:none"
             d="m 311.5165,133.05168 -8.2391,-7.45442"
             id="path4439" />
          <path
             style="fill:none;stroke:#000000;stroke-width:0.3;stroke-linecap:round;stroke-dasharray:none"
             d="m 301.21764,131.04095 10.29886,9.02378"
             id="path4441" />
          <path
             style="fill:none;stroke:#000000;stroke-width:0.3;stroke-linecap:round;stroke-dasharray:none"
             d="M 311.32033,146.83256 297.98084,135.30763"
             id="path4443" />
          <path
             style="fill:none;stroke:#000000;stroke-width:0.3;stroke-linecap:round;stroke-dasharray:none"
             d="M 311.41842,154.09082 296.01916,140.94749"
             id="path4567" />
          <path
             style="fill:none;stroke:#000000;stroke-width:0.3;stroke-linecap:round;stroke-dasharray:none"
             d="m 295.08735,146.97969 16.28204,13.82992"
             id="path4569" />
          <path
             style="fill:none;stroke:#000000;stroke-width:0.3;stroke-linecap:round;stroke-dasharray:none"
             d="m 311.22225,167.96978 -18.0966,-15.44831"
             id="path4571" />
          <path
             style="fill:none;stroke:#000000;stroke-width:0.3;stroke-linecap:round;stroke-dasharray:none"
             d="m 292.83141,159.82876 18.34179,15.30119"
             id="path4573" />
        </g>
        <g
           id="g5077"
           transform="matrix(-0.68797704,0.72573245,0.72573245,0.68797704,183.12818,-229.81331)"
           inkscape:transform-center-x="33.294441"
           inkscape:transform-center-y="4.7716848">
          <path
             style="fill:#ffffff;stroke:#000000;stroke-width:0.8;stroke-linecap:round;stroke-dasharray:none"
             d="m 313.3515,187.43526 -2.15002,-0.0347 c 0,0 -0.11009,-1.77654 -0.0727,-3.51543 0.0298,-1.38592 -0.007,-3.10911 -0.49899,-3.41672 -1.1097,-0.69354 -2.17805,-0.80354 -2.80225,-1.28903 -0.62421,-0.4855 -1.66234,-1.97488 -2.37494,-2.47231 -1.08808,-0.75953 -1.93675,-0.14311 -2.8436,-0.76291 -0.84204,-0.5755 -1.74581,-2.78862 -2.40469,-3.58621 -0.65889,-0.7976 -2.97812,-1.22143 -3.84507,-2.33113 -0.86695,-1.1097 -1.49116,-3.46781 -2.04601,-4.30009 -0.55485,-0.83227 -3.08635,-2.5315 -3.22506,-4.36945 -0.13872,-1.83794 0.76239,-3.19597 0.90952,-4.76532 0.14713,-1.56936 -0.73564,-2.73303 -0.3433,-4.79281 0.39234,-2.05977 1.2751,-2.7597 1.47127,-4.08385 0.19617,-1.32414 -0.34329,-3.43296 0.29425,-4.80614 0.63755,-1.37318 1.52032,-3.18775 2.10882,-4.26668 0.58851,-1.07893 0.71149,-2.99871 1.38857,-4.88247 0.89118,-2.4794 2.78003,-2.81716 3.85896,-4.8279 1.07893,-2.01073 0.46514,-3.55976 1.59315,-4.93295 1.12797,-1.37318 1.79076,-1.88392 2.91873,-3.35519 1.12798,-1.47127 0.78468,-4.16859 2.25595,-5.54178 1.47127,-1.37318 2.15786,-1.76552 3.1387,-2.89349 0.98085,-1.12797 1.52031,-2.99158 1.52031,-2.99158 0,0 1.84198,2.16899 2.88233,3.13998 1.04034,0.97099 1.45648,0.7976 1.94197,1.83794 0.4855,1.04035 0.97099,2.87828 2.15004,4.33476 1.17906,1.45648 2.7049,1.94198 3.67589,3.39846 0.97098,1.45648 0.6242,3.05168 1.87262,5.20172 1.24841,2.15004 2.18471,2.39279 2.67021,3.71056 0.48549,1.31777 0.41608,2.04601 1.04034,3.36378 0.62421,1.31776 1.35245,1.31777 1.56052,2.42747 0.20807,1.1097 -0.34678,2.18471 0.13876,4.19605 0.48549,2.01133 1.17905,2.04601 1.17905,3.08635 0,1.04035 -0.55485,2.2194 -0.27743,4.23073 0.27743,2.01133 0.93632,2.70489 0.58954,3.95331 -0.34678,1.24841 -1.7686,3.57185 -1.90731,5.09769 -0.13871,1.52583 0.34679,2.32343 0.27743,3.50248 -0.0694,1.17906 -0.90163,2.5315 -1.52583,4.05734 -0.62421,1.52584 -10e-6,2.2194 -0.62421,3.19039 -0.62421,0.97099 -1.69923,1.62987 -2.63554,2.53151 -0.91712,0.88315 -0.83228,1.69922 -2.18472,3.08634 -1.04744,1.0743 -1.97666,1.07503 -3.08636,2.11537 -1.1097,1.04035 -1.1097,1.38713 -2.21939,2.2194 -1.1097,0.83228 -2.3928,1.21373 -3.57185,2.18472 -1.17906,0.97099 -0.7976,3.84928 -0.7976,3.84928 z"
             id="path5035"
             sodipodi:nodetypes="ccsssssssssssssssssssscssssssssssssssssssssscc" />
          <path
             style="fill:none;stroke:#000000;stroke-width:0.2;stroke-linecap:round;stroke-dasharray:none"
             d="m 311.72165,113.88295 -0.41614,64.3626"
             id="path5037" />
          <path
             style="fill:none;stroke:#000000;stroke-width:0.4;stroke-linecap:round;stroke-dasharray:none"
             d="m 312.62333,113.88295 -0.41614,64.3626"
             id="path5039" />
          <path
             style="fill:none;stroke:#000000;stroke-width:0.3;stroke-linecap:round;stroke-dasharray:none"
             d="M 312.30119,175.62037 328.4361,160.80961"
             id="path5041"
             sodipodi:nodetypes="cc" />
          <path
             style="fill:none;stroke:#000000;stroke-width:0.3;stroke-linecap:round;stroke-dasharray:none"
             d="m 312.35024,168.36212 17.80234,-15.8897"
             id="path5043"
             sodipodi:nodetypes="cc" />
          <path
             style="fill:none;stroke:#000000;stroke-width:0.3;stroke-linecap:round;stroke-dasharray:none"
             d="m 312.39926,161.49619 17.41003,-15.74256"
             id="path5045"
             sodipodi:nodetypes="cc" />
          <path
             style="fill:none;stroke:#000000;stroke-width:0.3;stroke-linecap:round;stroke-dasharray:none"
             d="m 328.7794,139.37814 -16.18396,14.90885"
             id="path5047" />
          <path
             style="fill:none;stroke:#000000;stroke-width:0.3;stroke-linecap:round;stroke-dasharray:none"
             d="m 312.54639,147.07777 14.22228,-13.14333"
             id="path5049" />
          <path
             style="fill:none;stroke:#000000;stroke-width:0.3;stroke-linecap:round;stroke-dasharray:none"
             d="m 312.54639,140.75132 12.1625,-11.1326"
             id="path5051" />
          <path
             style="fill:none;stroke:#000000;stroke-width:0.3;stroke-linecap:round;stroke-dasharray:none"
             d="m 312.69352,133.64019 9.66134,-8.92569"
             id="path5053" />
          <path
             style="fill:none;stroke:#000000;stroke-width:0.3;stroke-linecap:round;stroke-dasharray:none"
             d="m 312.74258,126.03864 6.42453,-5.88507"
             id="path5055" />
          <path
             style="fill:none;stroke:#000000;stroke-width:0.3;stroke-linecap:round;stroke-dasharray:none"
             d="m 312.59544,119.17272 3.92338,-3.04062"
             id="path5057" />
          <path
             style="fill:none;stroke:#000000;stroke-width:0.3;stroke-linecap:round;stroke-dasharray:none"
             d="m 311.6146,118.48613 -2.99159,-2.74637"
             id="path5059" />
          <path
             style="fill:none;stroke:#000000;stroke-width:0.3;stroke-linecap:round;stroke-dasharray:none"
             d="m 311.46747,125.79343 -4.85518,-4.46285"
             id="path5061" />
          <path
             style="fill:none;stroke:#000000;stroke-width:0.3;stroke-linecap:round;stroke-dasharray:none"
             d="m 311.5165,133.05168 -8.2391,-7.45442"
             id="path5063" />
          <path
             style="fill:none;stroke:#000000;stroke-width:0.3;stroke-linecap:round;stroke-dasharray:none"
             d="m 301.21764,131.04095 10.29886,9.02378"
             id="path5065" />
          <path
             style="fill:none;stroke:#000000;stroke-width:0.3;stroke-linecap:round;stroke-dasharray:none"
             d="M 311.32033,146.83256 297.98084,135.30763"
             id="path5067" />
          <path
             style="fill:none;stroke:#000000;stroke-width:0.3;stroke-linecap:round;stroke-dasharray:none"
             d="M 311.41842,154.09082 296.01916,140.94749"
             id="path5069" />
          <path
             style="fill:none;stroke:#000000;stroke-width:0.3;stroke-linecap:round;stroke-dasharray:none"
             d="m 295.08735,146.97969 16.28204,13.82992"
             id="path5071" />
          <path
             style="fill:none;stroke:#000000;stroke-width:0.3;stroke-linecap:round;stroke-dasharray:none"
             d="m 311.22225,167.96978 -18.0966,-15.44831"
             id="path5073" />
          <path
             style="fill:none;stroke:#000000;stroke-width:0.3;stroke-linecap:round;stroke-dasharray:none"
             d="m 292.83141,159.82876 18.34179,15.30119"
             id="path5075" />
        </g>
      </g>
    </g>
  </g>
</svg>
