<?xml version="1.0" encoding="UTF-8" standalone="no"?>
<!-- Created with Inkscape (http://www.inkscape.org/) -->

<svg
   xmlns:dc="http://purl.org/dc/elements/1.1/"
   xmlns:cc="http://creativecommons.org/ns#"
   xmlns:rdf="http://www.w3.org/1999/02/22-rdf-syntax-ns#"
   xmlns:svg="http://www.w3.org/2000/svg"
   xmlns="http://www.w3.org/2000/svg"
   xmlns:sodipodi="http://sodipodi.sourceforge.net/DTD/sodipodi-0.dtd"
   xmlns:inkscape="http://www.inkscape.org/namespaces/inkscape"
   width="67.178101mm"
   height="78.431664mm"
   viewBox="0 0 67.178101 78.431664"
   version="1.1"
   id="svg8"
   inkscape:version="0.92.2 (5c3e80d, 2017-08-06)"
   sodipodi:docname="Atzgersdorf_Wappen.svg">
  <title
     id="title4860">Wappen von Atzgersdorf</title>
  <defs
     id="defs2">
    <inkscape:path-effect
       effect="mirror_symmetry"
       start_point="78.585948,203.40889"
       end_point="78.585948,209.48079"
       center_point="78.585948,206.44484"
       id="path-effect4696"
       is_visible="true"
       mode="free"
       discard_orig_path="true"
       fuse_paths="false"
       oposite_fuse="false" />
  </defs>
  <sodipodi:namedview
     id="base"
     pagecolor="#ffffff"
     bordercolor="#666666"
     borderopacity="1.0"
     inkscape:pageopacity="0.0"
     inkscape:pageshadow="2"
     inkscape:zoom="2.8284271"
     inkscape:cx="52.30182"
     inkscape:cy="160.7264"
     inkscape:document-units="mm"
     inkscape:current-layer="layer1"
     showgrid="false"
     inkscape:snap-grids="false"
     inkscape:object-paths="false"
     showguides="false"
     inkscape:guide-bbox="true"
     inkscape:snap-intersection-paths="false"
     inkscape:lockguides="false"
     inkscape:snap-to-guides="false"
     inkscape:object-nodes="false"
     inkscape:snap-smooth-nodes="false"
     inkscape:snap-bbox="false"
     inkscape:window-width="2560"
     inkscape:window-height="1346"
     inkscape:window-x="-11"
     inkscape:window-y="-11"
     inkscape:window-maximized="1"
     fit-margin-top="0"
     fit-margin-left="0"
     fit-margin-right="0"
     fit-margin-bottom="0">
    <inkscape:grid
       type="xygrid"
       id="grid826"
       units="px"
       spacingx="6.6145834"
       spacingy="6.6145834"
       empspacing="4"
       originx="-25.858483"
       originy="-27.513734" />
    <sodipodi:guide
       position="32.934129,15.236028"
       orientation="0,1"
       id="guide875"
       inkscape:locked="false" />
    <sodipodi:guide
       position="40.08426,39.687376"
       orientation="18.826583,7.2136894"
       id="guide881"
       inkscape:locked="false" />
    <sodipodi:guide
       position="32.871252,59.142489"
       orientation="7.8569575,-2.8006224"
       id="guide885"
       inkscape:locked="false" />
    <sodipodi:guide
       position="40.174696,58.033549"
       orientation="0,1"
       id="guide887"
       inkscape:locked="false" />
    <sodipodi:guide
       position="26.581104,34.50841"
       orientation="6.1906394,5.3877392"
       id="guide903"
       inkscape:locked="false" />
    <sodipodi:guide
       position="40.409185,34.674445"
       orientation="-4.1670425,3.7291578"
       id="guide907"
       inkscape:locked="false" />
    <sodipodi:guide
       position="55.805718,66.077375"
       orientation="0,1"
       id="guide959"
       inkscape:locked="false" />
    <sodipodi:guide
       position="55.408155,66.077377"
       orientation="1,0"
       id="guide979"
       inkscape:locked="false" />
    <sodipodi:guide
       position="66.928096,78.181666"
       orientation="-0.70710678,0.70710678"
       id="guide4793"
       inkscape:locked="false" />
    <sodipodi:guide
       position="0.24999948,78.181666"
       orientation="0.70710678,0.70710678"
       id="guide4795"
       inkscape:locked="false" />
    <sodipodi:guide
       position="33.589046,44.842619"
       orientation="1,0"
       id="guide4813"
       inkscape:locked="false" />
  </sodipodi:namedview>
  <metadata
     id="metadata5">
    <rdf:RDF>
      <cc:Work
         rdf:about="">
        <dc:format>image/svg+xml</dc:format>
        <dc:type
           rdf:resource="http://purl.org/dc/dcmitype/StillImage" />
        <dc:title>Wappen von Atzgersdorf</dc:title>
      </cc:Work>
    </rdf:RDF>
  </metadata>
  <g
     inkscape:groupmode="layer"
     id="layer5"
     inkscape:label="Wappenschild"
     style="display:inline;opacity:1"
     transform="translate(-25.858483,-191.0546)">
    <path
       style="opacity:1;fill:#ffffff;fill-opacity:1;stroke:#000000;stroke-width:1.88976383;stroke-linecap:butt;stroke-linejoin:miter;stroke-miterlimit:4;stroke-dasharray:none;stroke-opacity:1;paint-order:normal"
       d="m 98.677734,723.04102 v 167.80273 1.69336 a 126.04048,126.04048 0 0 0 0.28125,7.92383 126.04048,126.04048 0 0 0 1.517576,12.50781 126.04048,126.04048 0 0 0 2.75977,12.29297 126.04048,126.04048 0 0 0 3.97265,11.95508 126.04048,126.04048 0 0 0 5.14649,11.5 126.04048,126.04048 0 0 0 6.26758,10.92968 126.04048,126.04048 0 0 0 7.33007,10.24805 126.04048,126.04048 0 0 0 8.31446,9.46485 126.04048,126.04048 0 0 0 9.21875,8.58789 126.04048,126.04048 0 0 0 10.02929,7.625 126.04048,126.04048 0 0 0 10.74024,6.58393 126.04048,126.04048 0 0 0 11.3457,5.4805 126.04048,126.04048 0 0 0 11.83399,4.3203 126.04048,126.04048 0 0 0 12.20703,3.1172 126.04048,126.04048 0 0 0 12.45703,1.8828 126.04048,126.04048 0 0 0 12.58398,0.6289 126.04048,126.04048 0 0 0 8.91602,-0.3144 126.04048,126.04048 0 0 0 12.50586,-1.5195 126.04048,126.04048 0 0 0 12.29297,-2.7579 126.04048,126.04048 0 0 0 11.95703,-3.9726 126.04048,126.04048 0 0 0 11.5,-5.1465 126.04048,126.04048 0 0 0 10.92773,-6.26953 126.04048,126.04048 0 0 0 10.24805,-7.32813 126.04048,126.04048 0 0 0 9.46484,-8.3164 126.04048,126.04048 0 0 0 8.58789,-9.2168 126.04048,126.04048 0 0 0 7.625,-10.03125 126.04048,126.04048 0 0 0 6.58594,-10.74023 126.04048,126.04048 0 0 0 5.47852,-11.34375 126.04048,126.04048 0 0 0 4.32031,-11.83594 126.04048,126.04048 0 0 0 3.11719,-12.20703 126.04048,126.04048 0 0 0 1.88281,-12.45703 126.04048,126.04048 0 0 0 0.5957,-11.88086 v -1.69141 -167.51562 z"
       id="path4754"
       inkscape:connector-curvature="0"
       transform="scale(0.26458333)" />
  </g>
  <g
     inkscape:groupmode="layer"
     id="layer4"
     inkscape:label="A"
     style="display:inline;opacity:1"
     transform="translate(-25.858483,-191.0546)">
    <path
       style="fill:#000000;fill-opacity:1;stroke:none;stroke-width:0.37795275;stroke-linecap:butt;stroke-linejoin:miter;stroke-miterlimit:4;stroke-dasharray:none;stroke-opacity:1"
       d="m 201.4375,758.66992 -7.24805,15.2461 c 11.37888,-1.37458 16.5346,14.23055 12.59766,25.27539 l -44.74609,125.53125 c -8.3231,23.34996 -27.73438,25.35156 -27.73438,25.35156 l 4.06445,10.87109 h 12.23243 c -0.24865,-0.83021 -0.37627,-1.69195 -0.37891,-2.55859 -3e-5,-4.97812 4.03555,-9.0137 9.01367,-9.01367 4.97812,-3e-5 9.0137,4.03555 9.01367,9.01367 -0.001,0.86645 -0.12767,1.72818 -0.375,2.55859 h 13.75782 l 3.45117,-8.04297 c -10.75066,-3.73609 -14.67889,-13.24399 -9.89989,-26.65115 l 16.33243,-45.81953 32.16902,36.96287 30.99631,-34.63601 16.8821,44.05959 c 6.70616,17.502 -9.49364,24.9358 -9.49364,24.9358 l 3.53515,9.1914 h 12.82422 c -0.22412,-0.83445 -0.33836,-1.69457 -0.33984,-2.55859 -10e-5,-5.48405 4.44563,-9.92979 9.92968,-9.92969 5.48406,-10e-5 9.92979,4.44563 9.92969,9.92969 -0.004,0.86436 -0.1209,1.72449 -0.34765,2.55859 h 18.17773 l 5.06836,-6.1875 c -14.04883,-6.21479 -18.91406,-18.91406 -18.91406,-18.91406 L 249.57422,799.19141 c -4.23199,-11.04484 -2.23655,-23.92833 8.61328,-25.54688 l -8.62305,-14.26758 -16.77343,5.25 c 0.79654,1.36908 1.21825,2.92389 1.22265,4.50782 3e-5,4.97812 -4.03555,9.0137 -9.01367,9.01367 -4.97812,3e-5 -9.0137,-4.03555 -9.01367,-9.01367 4.2e-4,-1.2194 0.24825,-2.42604 0.72851,-3.54688 z m 20.09324,37.56435 27.70168,72.29698 -25.92383,28.96875 -26.8694,-30.87306 z"
       id="path877"
       inkscape:connector-curvature="0"
       sodipodi:nodetypes="cccccccccccccccccccccccccccccccccccccccccc"
       transform="scale(0.26458333)" />
  </g>
  <g
     inkscape:groupmode="layer"
     id="layer1"
     inkscape:label="Blumen">
    <g
       id="g4785"
       style="display:inline;opacity:1;fill:#f93333;fill-opacity:1;stroke:#060606;stroke-width:0.5;stroke-miterlimit:4;stroke-dasharray:none;stroke-opacity:1"
       transform="translate(-26.442554,-191.05501)">
      <path
         transform="scale(0.26458333)"
         inkscape:transform-center-y="3.0361709"
         inkscape:transform-center-x="-6.2243653e-006"
         inkscape:connector-curvature="0"
         id="path1001"
         d="m 307.15039,768.79102 -9.76367,16.9082 c 0.84102,1.92908 3.37309,6.03906 9.76367,6.03906 6.39058,0 8.92123,-4.10998 9.76172,-6.03906 z"
         style="fill:#f93333;fill-opacity:1;stroke:#060606;stroke-width:1.88976383;stroke-linecap:butt;stroke-linejoin:miter;stroke-miterlimit:4;stroke-dasharray:none;stroke-opacity:1" />
      <path
         style="fill:#f93333;fill-opacity:1;stroke:#060606;stroke-width:0.5;stroke-linecap:butt;stroke-linejoin:miter;stroke-miterlimit:4;stroke-dasharray:none;stroke-opacity:1"
         d="m 81.26636,203.4093 -5.165927,-4e-4 c -0.330762,0.44791 -0.937534,1.57182 -0.09211,3.03613 0.845421,1.46431 2.121949,1.50046 2.67516,1.43784 z"
         id="path4720"
         inkscape:connector-curvature="0"
         inkscape:transform-center-x="2.8440639"
         inkscape:transform-center-y="2.245561" />
      <path
         inkscape:transform-center-y="-2.2454929"
         inkscape:transform-center-x="2.8442982"
         inkscape:connector-curvature="0"
         id="path4722"
         d="m 81.266093,203.40886 -2.582617,-4.47403 c -0.553282,-0.0625 -1.830003,-0.026 -2.67542,1.4383 -0.84542,1.46431 -0.238462,2.58789 0.09237,3.03568 z"
         style="fill:#f93333;fill-opacity:1;stroke:#060606;stroke-width:0.5;stroke-linecap:butt;stroke-linejoin:miter;stroke-miterlimit:4;stroke-dasharray:none;stroke-opacity:1" />
      <path
         style="fill:#f93333;fill-opacity:1;stroke:#060606;stroke-width:0.5;stroke-linecap:butt;stroke-linejoin:miter;stroke-miterlimit:4;stroke-dasharray:none;stroke-opacity:1"
         d="m 81.266341,203.40841 2.583315,-4.47363 c -0.222514,-0.51041 -0.892485,-1.59783 -2.583314,-1.59783 -1.69084,0 -2.36041,1.08743 -2.582791,1.59783 z"
         id="path4724"
         inkscape:connector-curvature="0"
         inkscape:transform-center-x="5.3524556e-006"
         inkscape:transform-center-y="-3.0361685" />
      <path
         inkscape:transform-center-y="-2.245561"
         inkscape:transform-center-x="-2.8440626"
         inkscape:connector-curvature="0"
         id="path4726"
         d="m 81.266855,203.4084 5.165934,4e-4 c 0.330771,-0.44791 0.937519,-1.57183 0.09211,-3.03613 -0.84542,-1.46431 -2.121947,-1.50046 -2.675157,-1.43785 z"
         style="fill:#f93333;fill-opacity:1;stroke:#060606;stroke-width:0.5;stroke-linecap:butt;stroke-linejoin:miter;stroke-miterlimit:4;stroke-dasharray:none;stroke-opacity:1" />
      <path
         style="fill:#f93333;fill-opacity:1;stroke:#060606;stroke-width:0.5;stroke-linecap:butt;stroke-linejoin:miter;stroke-miterlimit:4;stroke-dasharray:none;stroke-opacity:1"
         d="m 81.26712,203.40884 2.582621,4.47403 c 0.553287,0.0625 1.830004,0.026 2.675421,-1.4383 0.845419,-1.46431 0.238463,-2.58789 -0.09236,-3.03568 z"
         id="path4728"
         inkscape:connector-curvature="0"
         inkscape:transform-center-x="-2.8442962"
         inkscape:transform-center-y="2.2454959" />
      <circle
         r="2.1281314"
         cy="203.40889"
         cx="81.26664"
         id="path981"
         style="opacity:1;fill:#f93333;fill-opacity:1;stroke:#060606;stroke-width:0.5;stroke-linecap:butt;stroke-linejoin:miter;stroke-miterlimit:4;stroke-dasharray:none;stroke-opacity:1;paint-order:normal" />
    </g>
    <g
       transform="translate(-68.912581,-191.055)"
       style="display:inline;opacity:1;fill:#f93333;fill-opacity:1;stroke:#060606;stroke-width:0.5;stroke-miterlimit:4;stroke-dasharray:none;stroke-opacity:1"
       id="g4811">
      <path
         style="fill:#f93333;fill-opacity:1;stroke:#060606;stroke-width:1.88976383;stroke-linecap:butt;stroke-linejoin:miter;stroke-miterlimit:4;stroke-dasharray:none;stroke-opacity:1"
         d="m 307.15039,768.79102 -9.76367,16.9082 c 0.84102,1.92908 3.37309,6.03906 9.76367,6.03906 6.39058,0 8.92123,-4.10998 9.76172,-6.03906 z"
         id="path4797"
         inkscape:connector-curvature="0"
         inkscape:transform-center-x="-6.2243653e-006"
         inkscape:transform-center-y="3.0361709"
         transform="scale(0.26458333)" />
      <path
         inkscape:transform-center-y="2.245561"
         inkscape:transform-center-x="2.8440639"
         inkscape:connector-curvature="0"
         id="path4799"
         d="m 81.26636,203.4093 -5.165927,-4e-4 c -0.330762,0.44791 -0.937534,1.57182 -0.09211,3.03613 0.845421,1.46431 2.121949,1.50046 2.67516,1.43784 z"
         style="fill:#f93333;fill-opacity:1;stroke:#060606;stroke-width:0.5;stroke-linecap:butt;stroke-linejoin:miter;stroke-miterlimit:4;stroke-dasharray:none;stroke-opacity:1" />
      <path
         style="fill:#f93333;fill-opacity:1;stroke:#060606;stroke-width:0.5;stroke-linecap:butt;stroke-linejoin:miter;stroke-miterlimit:4;stroke-dasharray:none;stroke-opacity:1"
         d="m 81.266093,203.40886 -2.582617,-4.47403 c -0.553282,-0.0625 -1.830003,-0.026 -2.67542,1.4383 -0.84542,1.46431 -0.238462,2.58789 0.09237,3.03568 z"
         id="path4801"
         inkscape:connector-curvature="0"
         inkscape:transform-center-x="2.8442982"
         inkscape:transform-center-y="-2.2454929" />
      <path
         inkscape:transform-center-y="-3.0361685"
         inkscape:transform-center-x="5.3524556e-006"
         inkscape:connector-curvature="0"
         id="path4803"
         d="m 81.266341,203.40841 2.583315,-4.47363 c -0.222514,-0.51041 -0.892485,-1.59783 -2.583314,-1.59783 -1.69084,0 -2.36041,1.08743 -2.582791,1.59783 z"
         style="fill:#f93333;fill-opacity:1;stroke:#060606;stroke-width:0.5;stroke-linecap:butt;stroke-linejoin:miter;stroke-miterlimit:4;stroke-dasharray:none;stroke-opacity:1" />
      <path
         style="fill:#f93333;fill-opacity:1;stroke:#060606;stroke-width:0.5;stroke-linecap:butt;stroke-linejoin:miter;stroke-miterlimit:4;stroke-dasharray:none;stroke-opacity:1"
         d="m 81.266855,203.4084 5.165934,4e-4 c 0.330771,-0.44791 0.937519,-1.57183 0.09211,-3.03613 -0.84542,-1.46431 -2.121947,-1.50046 -2.675157,-1.43785 z"
         id="path4805"
         inkscape:connector-curvature="0"
         inkscape:transform-center-x="-2.8440626"
         inkscape:transform-center-y="-2.245561" />
      <path
         inkscape:transform-center-y="2.2454959"
         inkscape:transform-center-x="-2.8442962"
         inkscape:connector-curvature="0"
         id="path4807"
         d="m 81.26712,203.40884 2.582621,4.47403 c 0.553287,0.0625 1.830004,0.026 2.675421,-1.4383 0.845419,-1.46431 0.238463,-2.58789 -0.09236,-3.03568 z"
         style="fill:#f93333;fill-opacity:1;stroke:#060606;stroke-width:0.5;stroke-linecap:butt;stroke-linejoin:miter;stroke-miterlimit:4;stroke-dasharray:none;stroke-opacity:1" />
      <circle
         style="opacity:1;fill:#f93333;fill-opacity:1;stroke:#060606;stroke-width:0.5;stroke-linecap:butt;stroke-linejoin:miter;stroke-miterlimit:4;stroke-dasharray:none;stroke-opacity:1;paint-order:normal"
         id="circle4809"
         cx="81.26664"
         cy="203.40889"
         r="2.1281314" />
    </g>
    <g
       id="g4829"
       style="display:inline;opacity:1;fill:#f93333;fill-opacity:1;stroke:#060606;stroke-width:0.5;stroke-miterlimit:4;stroke-dasharray:none;stroke-opacity:1"
       transform="rotate(30,313.90948,45.716738)">
      <path
         transform="scale(0.26458333)"
         inkscape:transform-center-y="3.0361709"
         inkscape:transform-center-x="-6.2243653e-006"
         inkscape:connector-curvature="0"
         id="path4815"
         d="m 307.15039,768.79102 -9.76367,16.9082 c 0.84102,1.92908 3.37309,6.03906 9.76367,6.03906 6.39058,0 8.92123,-4.10998 9.76172,-6.03906 z"
         style="fill:#f93333;fill-opacity:1;stroke:#060606;stroke-width:1.88976383;stroke-linecap:butt;stroke-linejoin:miter;stroke-miterlimit:4;stroke-dasharray:none;stroke-opacity:1" />
      <path
         style="fill:#f93333;fill-opacity:1;stroke:#060606;stroke-width:0.5;stroke-linecap:butt;stroke-linejoin:miter;stroke-miterlimit:4;stroke-dasharray:none;stroke-opacity:1"
         d="m 81.26636,203.4093 -5.165927,-4e-4 c -0.330762,0.44791 -0.937534,1.57182 -0.09211,3.03613 0.845421,1.46431 2.121949,1.50046 2.67516,1.43784 z"
         id="path4817"
         inkscape:connector-curvature="0"
         inkscape:transform-center-x="2.8440639"
         inkscape:transform-center-y="2.245561" />
      <path
         inkscape:transform-center-y="-2.2454929"
         inkscape:transform-center-x="2.8442982"
         inkscape:connector-curvature="0"
         id="path4819"
         d="m 81.266093,203.40886 -2.582617,-4.47403 c -0.553282,-0.0625 -1.830003,-0.026 -2.67542,1.4383 -0.84542,1.46431 -0.238462,2.58789 0.09237,3.03568 z"
         style="fill:#f93333;fill-opacity:1;stroke:#060606;stroke-width:0.5;stroke-linecap:butt;stroke-linejoin:miter;stroke-miterlimit:4;stroke-dasharray:none;stroke-opacity:1" />
      <path
         style="fill:#f93333;fill-opacity:1;stroke:#060606;stroke-width:0.5;stroke-linecap:butt;stroke-linejoin:miter;stroke-miterlimit:4;stroke-dasharray:none;stroke-opacity:1"
         d="m 81.266341,203.40841 2.583315,-4.47363 c -0.222514,-0.51041 -0.892485,-1.59783 -2.583314,-1.59783 -1.69084,0 -2.36041,1.08743 -2.582791,1.59783 z"
         id="path4821"
         inkscape:connector-curvature="0"
         inkscape:transform-center-x="5.3524556e-006"
         inkscape:transform-center-y="-3.0361685" />
      <path
         inkscape:transform-center-y="-2.245561"
         inkscape:transform-center-x="-2.8440626"
         inkscape:connector-curvature="0"
         id="path4823"
         d="m 81.266855,203.4084 5.165934,4e-4 c 0.330771,-0.44791 0.937519,-1.57183 0.09211,-3.03613 -0.84542,-1.46431 -2.121947,-1.50046 -2.675157,-1.43785 z"
         style="fill:#f93333;fill-opacity:1;stroke:#060606;stroke-width:0.5;stroke-linecap:butt;stroke-linejoin:miter;stroke-miterlimit:4;stroke-dasharray:none;stroke-opacity:1" />
      <path
         style="fill:#f93333;fill-opacity:1;stroke:#060606;stroke-width:0.5;stroke-linecap:butt;stroke-linejoin:miter;stroke-miterlimit:4;stroke-dasharray:none;stroke-opacity:1"
         d="m 81.26712,203.40884 2.582621,4.47403 c 0.553287,0.0625 1.830004,0.026 2.675421,-1.4383 0.845419,-1.46431 0.238463,-2.58789 -0.09236,-3.03568 z"
         id="path4825"
         inkscape:connector-curvature="0"
         inkscape:transform-center-x="-2.8442962"
         inkscape:transform-center-y="2.2454959" />
      <circle
         r="2.1281314"
         cy="203.40889"
         cx="81.26664"
         id="circle4827"
         style="opacity:1;fill:#f93333;fill-opacity:1;stroke:#060606;stroke-width:0.5;stroke-linecap:butt;stroke-linejoin:miter;stroke-miterlimit:4;stroke-dasharray:none;stroke-opacity:1;paint-order:normal" />
    </g>
  </g>
</svg>
