<?xml version="1.0" encoding="UTF-8" standalone="no"?>
<svg
   xmlns:dc="http://purl.org/dc/elements/1.1/"
   xmlns:cc="http://creativecommons.org/ns#"
   xmlns:rdf="http://www.w3.org/1999/02/22-rdf-syntax-ns#"
   xmlns:svg="http://www.w3.org/2000/svg"
   xmlns="http://www.w3.org/2000/svg"
   xmlns:sodipodi="http://sodipodi.sourceforge.net/DTD/sodipodi-0.dtd"
   xmlns:inkscape="http://www.inkscape.org/namespaces/inkscape"
   height="638.09399"
   viewBox="0 0 132.29166 168.82904"
   width="500"
   version="1.1"
   id="svg69"
   sodipodi:docname="CHE Vully-les-Lacs COA.svg"
   inkscape:version="0.92.3 (2405546, 2018-03-11)">
  <metadata
     id="metadata75">
    <rdf:RDF>
      <cc:Work
         rdf:about="">
        <dc:format>image/svg+xml</dc:format>
        <dc:type
           rdf:resource="http://purl.org/dc/dcmitype/StillImage" />
      </cc:Work>
    </rdf:RDF>
  </metadata>
  <defs
     id="defs73" />
  <sodipodi:namedview
     pagecolor="#ffffff"
     bordercolor="#666666"
     borderopacity="1"
     objecttolerance="10"
     gridtolerance="10"
     guidetolerance="10"
     inkscape:pageopacity="0"
     inkscape:pageshadow="2"
     inkscape:window-width="1920"
     inkscape:window-height="1017"
     id="namedview71"
     showgrid="false"
     inkscape:zoom="0.81070927"
     inkscape:cx="-69.22936"
     inkscape:cy="319.047"
     inkscape:window-x="-8"
     inkscape:window-y="-8"
     inkscape:window-maximized="1"
     inkscape:current-layer="svg69" />
  <clipPath
     id="a">
    <path
       d="m39.686 377.009h250.866v53.858h-250.866z"
       id="path2" />
  </clipPath>
  <clipPath
     id="b">
    <path
       d="m151.436 386.399h27.365v35.077h-27.365z"
       id="path5" />
  </clipPath>
  <clipPath
     id="c">
    <path
       d="m39.686 377.009h250.866v53.858h-250.866z"
       id="path8" />
  </clipPath>
  <clipPath
     id="d">
    <path
       d="m151.436 386.399h27.365v35.077h-27.365z"
       id="path11" />
  </clipPath>
  <clipPath
     id="e">
    <path
       d="m39.686 377.009h250.866v53.858h-250.866z"
       id="path14" />
  </clipPath>
  <clipPath
     id="f">
    <path
       d="m151.436 386.399h27.365v35.077h-27.365z"
       id="path17" />
  </clipPath>
  <clipPath
     id="g">
    <path
       d="m39.686 377.009h250.866v53.858h-250.866z"
       id="path20" />
  </clipPath>
  <clipPath
     id="h">
    <path
       d="m151.436 386.399h27.365v35.077h-27.365z"
       id="path23" />
  </clipPath>
  <clipPath
     id="i">
    <path
       d="m39.686 377.009h250.866v53.858h-250.866z"
       id="path26" />
  </clipPath>
  <g
     clip-path="url(#i)"
     transform="matrix(4.7376688,0,0,-4.7376688,-716.1307,1998.1366)"
     id="g31">
    <path
       d="m 0,0 h 0.001 c 7.616,1.584 13.34,8.304 13.366,16.364 h 10e-4 v 2.809 H 0 Z"
       transform="translate(165.1182,386.7201)"
       id="path29"
       inkscape:connector-curvature="0"
       style="fill:#0093dd;fill-opacity:1" />
  </g>
  <g
     clip-path="url(#h)"
     transform="matrix(4.7376688 0 0 -4.7376688 -716.130696 1998.136612)"
     id="g35">
    <path
       d="m0 0h.001c7.616 1.584 13.34 8.304 13.366 16.364h.001v2.809h-13.368z"
       fill="none"
       stroke="#000"
       stroke-linecap="round"
       stroke-linejoin="round"
       stroke-width=".55"
       transform="translate(165.1182 386.7201)"
       id="path33" />
  </g>
  <g
     clip-path="url(#g)"
     transform="matrix(4.7376688,0,0,-4.7376688,-716.1307,1998.1366)"
     id="g39">
    <path
       d="m 165.118,405.893 h 13.368 v 15.269 h -13.368 z"
       id="path37"
       inkscape:connector-curvature="0"
       style="fill:#ffffff" />
  </g>
  <g
     clip-path="url(#f)"
     transform="matrix(4.7376688 0 0 -4.7376688 -716.130696 1998.136612)"
     id="g43">
    <path
       d="m165.118 405.893h13.368v15.269h-13.368z"
       fill="none"
       stroke="#000"
       stroke-linecap="round"
       stroke-linejoin="round"
       stroke-width=".55"
       id="path41" />
  </g>
  <g
     clip-path="url(#e)"
     transform="matrix(4.7376688,0,0,-4.7376688,-716.1307,1998.1366)"
     id="g47">
    <path
       d="m 0,0 v -2.809 h 0.001 c 0.026,-8.059 5.751,-14.779 13.367,-16.364 V 0 Z"
       transform="translate(151.7504,405.8932)"
       id="path45"
       inkscape:connector-curvature="0"
       style="fill:#009932;fill-opacity:1" />
  </g>
  <g
     clip-path="url(#d)"
     transform="matrix(4.7376688 0 0 -4.7376688 -716.130696 1998.136612)"
     id="g51">
    <path
       d="m0 0v-2.809h.001c.026-8.059 5.751-14.779 13.367-16.364v19.173z"
       fill="none"
       stroke="#000"
       stroke-linecap="round"
       stroke-linejoin="round"
       stroke-width=".55"
       transform="translate(151.7504 405.8932)"
       id="path49" />
  </g>
  <g
     clip-path="url(#c)"
     transform="matrix(4.7376688,0,0,-4.7376688,-716.1307,1998.1366)"
     id="g55">
    <path
       d="m 151.75,405.893 h 13.368 v 15.269 H 151.75 Z"
       id="path53"
       inkscape:connector-curvature="0"
       style="fill:#0093dd;fill-opacity:1" />
  </g>
  <g
     clip-path="url(#b)"
     fill="none"
     stroke="#000"
     transform="matrix(4.7376688 0 0 -4.7376688 -716.130696 1998.136612)"
     id="g61">
    <path
       d="m151.75 405.893h13.368v15.269h-13.368z"
       stroke-linecap="round"
       stroke-linejoin="round"
       stroke-width=".55"
       id="path57" />
    <path
       d="m0 0v-18.078h.001c.026-8.06 5.751-14.78 13.368-16.364 7.616 1.584 13.339 8.304 13.365 16.364h.002v18.078z"
       stroke-width=".629"
       transform="translate(151.7504 421.1622)"
       id="path59" />
  </g>
  <g
     clip-path="url(#a)"
     transform="matrix(4.7376688,0,0,-4.7376688,-716.1307,1998.1366)"
     id="g67">
    <g
       id="g925"
       transform="matrix(0.05584673,0,0,-0.05584673,149.48092,421.53008)">
      <circle
         id="circle890"
         r="46.599998"
         cy="280"
         cx="382.89999"
         class="st3"
         style="fill:#fcdb00;fill-opacity:1;stroke:#000000;stroke-width:5.00000048;stroke-miterlimit:4;stroke-dasharray:none;stroke-opacity:1" />
      <circle
         id="circle892"
         r="46.599998"
         cy="280"
         cx="279.10001"
         class="st3"
         style="fill:#fcdb00;fill-opacity:1;stroke:#000000;stroke-width:5.00000048;stroke-miterlimit:4;stroke-dasharray:none;stroke-opacity:1" />
      <circle
         id="circle894"
         r="46.599998"
         cy="280"
         cx="175.60001"
         class="st3"
         style="fill:#fcdb00;fill-opacity:1;stroke:#000000;stroke-width:5.00000048;stroke-miterlimit:4;stroke-dasharray:none;stroke-opacity:1" />
      <circle
         id="circle896"
         r="46.599998"
         cy="374.10001"
         cx="227.7"
         class="st3"
         style="fill:#fcdb00;fill-opacity:1;stroke:#000000;stroke-width:5.00000048;stroke-miterlimit:4;stroke-dasharray:none;stroke-opacity:1" />
      <circle
         id="circle898"
         r="46.599998"
         cy="374.10001"
         cx="331.39999"
         class="st3"
         style="fill:#fcdb00;fill-opacity:1;stroke:#000000;stroke-width:5.00000048;stroke-miterlimit:4;stroke-dasharray:none;stroke-opacity:1" />
      <circle
         id="circle900"
         r="46.599998"
         cy="468.10001"
         cx="279.10001"
         class="st3"
         style="fill:#fcdb00;fill-opacity:1;stroke:#000000;stroke-width:5.00000048;stroke-miterlimit:4;stroke-dasharray:none;stroke-opacity:1" />
      <circle
         id="circle902"
         r="46.599998"
         cy="184.7"
         cx="233.39999"
         class="st3"
         style="fill:#fcdb00;fill-opacity:1;stroke:#000000;stroke-width:5.00000048;stroke-miterlimit:4;stroke-dasharray:none;stroke-opacity:1" />
      <polygon
         id="polygon904"
         points="304.6,225 347.9,225 399,67.6 353.3,67.6 326.5,181.9 297.8,67.6 254.1,67.6 "
         class="st4"
         style="fill:#833d01;fill-opacity:1;stroke:#000000;stroke-width:5.00000048;stroke-miterlimit:4;stroke-dasharray:none;stroke-opacity:1" />
    </g>
  </g>
  <style
     id="style882"
     type="text/css">
	.st0{fill:#004C98;}
	.st1{fill:#FFFFFF;}
	.st2{fill:#019533;}
	.st3{fill:#FFDD00;}
	.st4{fill:#9C4B0C;}
</style>
</svg>
