<?xml version="1.0" encoding="UTF-8"?>
<svg width="540" height="670" version="1.1" viewBox="0 0 142.88 177.27" xml:space="preserve" xmlns="http://www.w3.org/2000/svg"><path d="m140.03 58.07c0 63.566-23.411 98.886-68.595 116.15-44.949-17.33-68.596-52.586-68.596-116.15v-55.1h137.19z" fill="#fcdb00" stroke="#000" stroke-opacity=".955" stroke-width="2.646"/><path d="m128.55 62.653c0 52.922-19.491 82.327-57.108 96.7-37.422-14.428-57.109-43.78-57.109-96.7v-45.873h114.22z" fill="#0093dd" stroke="#000" stroke-opacity=".955" stroke-width="1.323"/><g fill="none" stroke="#000" stroke-dashoffset="4.58" stroke-width="1.995"><g transform="translate(.088655)"><g fill="#feeb00"><path transform="matrix(.62285 0 0 .7062 4.134 -3.844)" d="m64.245 54.698c-3.129 0.045-10.779-0.309-13.555-1.32-2.053-0.75-3.618 1.117-2.877 2.513 1.923 3.621 9.78 6.25 11.859 9.326zm4.37 0c3.129 0.045 10.975-0.309 13.751-1.32 2.053-0.75 3.618 1.117 2.877 2.513-1.923 3.621-9.976 6.25-12.055 9.326z"/><path transform="matrix(.62285 0 0 .7062 4.134 -3.844)" d="m96.344 82.826c2.905 3.293-0.297 8.242-2.846 6.535 2.006 1.673 2.673 4.214 1.655 6.816-1.229 3.139-5.357 4.802-6.895 3.068 0.81 1.207 1.615 4.795-1.125 7.114-2.225 1.883-10.078 4.156-11.514 0.26 1.025 4.403-5.399 5.613-9.19 5.613s-10.214-1.21-9.189-5.614c-1.436 3.897-9.288 1.624-11.514-0.26-2.74-2.318-1.935-5.906-1.125-7.113-1.537 1.735-5.666 0.071-6.894-3.068-1.018-2.602-0.351-5.143 1.655-6.816-2.55 1.707-5.752-3.242-2.846-6.535 1.134-1.286 5.641-4.228 6.775-4.979-0.829 0.31-1.401-4.269-1.01-5.464 0.28-0.858 1.174-1.668 2.272-2.41 6.095-4.117 11.423-5.341 14.444-11.685 1.84-3.865 4.682-6.52 7.432-6.52s5.593 2.655 7.433 6.52c3.02 6.344 8.349 7.397 14.444 11.513 1.098 0.741 1.992 1.551 2.272 2.41 0.39 1.194-0.182 5.947-1.01 5.636 1.133 0.75 5.64 3.693 6.775 4.979z"/></g><path transform="matrix(.62285 0 0 .7062 4.134 -3.844)" d="m89.046 98.634a243.1 243.1 0 0 1-3.464-4.576c-5.429-7.35-11.208-14.566-11.208-14.566s4.1 8.3 9.604 15.752a244.96 244.96 0 0 0 3.492 4.613zm5.054-10.068a118.98 118.98 0 0 1-4.034-3.203c-6.248-5.169-12.815-10.14-12.815-10.14s5.189 6.417 11.544 11.677a120.88 120.88 0 0 0 4.102 3.257zm-3.984-11.552a54.03 54.03 0 0 1-1.992-1.381c-4.243-3.068-8.957-5.68-8.957-5.68s3.45 4.157 7.788 7.296c0.72 0.52 1.416 1.006 2.067 1.433zm-13.526 29.376c-0.464-1.93-0.92-3.746-1.364-5.502-1.01-3.994-2.595-9.34-3.418-12.189-0.958-3.318-1.576-5.553-1.576-5.553s0.125 2.316 0.6 5.76c0.496 3.59 1.292 7.857 2.46 12.472 0.444 1.754 0.897 3.56 1.358 5.478zm-18.379 0.46a515.09 515.09 0 0 1 1.568-6.308 105.47 105.47 0 0 0 2.306-11.905c0.436-3.287 0.544-5.497 0.544-5.497s-0.6 2.13-1.52 5.292c-0.8 2.757-2.29 7.776-3.264 11.62a515.2 515.2 0 0 0-1.574 6.332zm-12.821-6.994a245.78 245.78 0 0 0 3.605-4.767c5.442-7.379 9.49-15.599 9.49-15.599s-5.728 7.136-11.095 14.415a243.19 243.19 0 0 1-3.576 4.728zm-5.425-9.7c2.214-1.675 4.508-3.561 6.79-5.53 4.902-4.231 8.855-9.403 8.855-9.403s-5.328 3.724-10.159 7.893c-2.259 1.95-4.518 3.807-6.69 5.45zm3.873-11.474c0.548-0.36 1.13-0.761 1.729-1.19 4.528-3.239 8.126-7.539 8.126-7.539s-4.865 2.757-9.286 5.916c-0.584 0.418-1.142 0.803-1.663 1.145z" fill="#000" stroke="none"/></g><g transform="translate(51.772 -.011568)"><g fill="#feeb00"><path transform="matrix(.62285 0 0 .7062 4.134 -3.844)" d="m64.245 54.698c-3.129 0.045-10.779-0.309-13.555-1.32-2.053-0.75-3.618 1.117-2.877 2.513 1.923 3.621 9.78 6.25 11.859 9.326zm4.37 0c3.129 0.045 10.975-0.309 13.751-1.32 2.053-0.75 3.618 1.117 2.877 2.513-1.923 3.621-9.976 6.25-12.055 9.326z"/><path transform="matrix(.62285 0 0 .7062 4.134 -3.844)" d="m96.344 82.826c2.905 3.293-0.297 8.242-2.846 6.535 2.006 1.673 2.673 4.214 1.655 6.816-1.229 3.139-5.357 4.802-6.895 3.068 0.81 1.207 1.615 4.795-1.125 7.114-2.225 1.883-10.078 4.156-11.514 0.26 1.025 4.403-5.399 5.613-9.19 5.613s-10.214-1.21-9.189-5.614c-1.436 3.897-9.288 1.624-11.514-0.26-2.74-2.318-1.935-5.906-1.125-7.113-1.537 1.735-5.666 0.071-6.894-3.068-1.018-2.602-0.351-5.143 1.655-6.816-2.55 1.707-5.752-3.242-2.846-6.535 1.134-1.286 5.641-4.228 6.775-4.979-0.829 0.31-1.401-4.269-1.01-5.464 0.28-0.858 1.174-1.668 2.272-2.41 6.095-4.117 11.423-5.341 14.444-11.685 1.84-3.865 4.682-6.52 7.432-6.52s5.593 2.655 7.433 6.52c3.02 6.344 8.349 7.397 14.444 11.513 1.098 0.741 1.992 1.551 2.272 2.41 0.39 1.194-0.182 5.947-1.01 5.636 1.133 0.75 5.64 3.693 6.775 4.979z"/></g><path transform="matrix(.62285 0 0 .7062 4.134 -3.844)" d="m89.046 98.634a243.1 243.1 0 0 1-3.464-4.576c-5.429-7.35-11.208-14.566-11.208-14.566s4.1 8.3 9.604 15.752a244.96 244.96 0 0 0 3.492 4.613zm5.054-10.068a118.98 118.98 0 0 1-4.034-3.203c-6.248-5.169-12.815-10.14-12.815-10.14s5.189 6.417 11.544 11.677a120.88 120.88 0 0 0 4.102 3.257zm-3.984-11.552a54.03 54.03 0 0 1-1.992-1.381c-4.243-3.068-8.957-5.68-8.957-5.68s3.45 4.157 7.788 7.296c0.72 0.52 1.416 1.006 2.067 1.433zm-13.526 29.376c-0.464-1.93-0.92-3.746-1.364-5.502-1.01-3.994-2.595-9.34-3.418-12.189-0.958-3.318-1.576-5.553-1.576-5.553s0.125 2.316 0.6 5.76c0.496 3.59 1.292 7.857 2.46 12.472 0.444 1.754 0.897 3.56 1.358 5.478zm-18.379 0.46a515.09 515.09 0 0 1 1.568-6.308 105.47 105.47 0 0 0 2.306-11.905c0.436-3.287 0.544-5.497 0.544-5.497s-0.6 2.13-1.52 5.292c-0.8 2.757-2.29 7.776-3.264 11.62a515.2 515.2 0 0 0-1.574 6.332zm-12.821-6.994a245.78 245.78 0 0 0 3.605-4.767c5.442-7.379 9.49-15.599 9.49-15.599s-5.728 7.136-11.095 14.415a243.19 243.19 0 0 1-3.576 4.728zm-5.425-9.7c2.214-1.675 4.508-3.561 6.79-5.53 4.902-4.231 8.855-9.403 8.855-9.403s-5.328 3.724-10.159 7.893c-2.259 1.95-4.518 3.807-6.69 5.45zm3.873-11.474c0.548-0.36 1.13-0.761 1.729-1.19 4.528-3.239 8.126-7.539 8.126-7.539s-4.865 2.757-9.286 5.916c-0.584 0.418-1.142 0.803-1.663 1.145z" fill="#000" stroke="none"/></g><g transform="translate(25.93 55.553)"><g fill="#feeb00"><path transform="matrix(.62285 0 0 .7062 4.134 -3.844)" d="m64.245 54.698c-3.129 0.045-10.779-0.309-13.555-1.32-2.053-0.75-3.618 1.117-2.877 2.513 1.923 3.621 9.78 6.25 11.859 9.326zm4.37 0c3.129 0.045 10.975-0.309 13.751-1.32 2.053-0.75 3.618 1.117 2.877 2.513-1.923 3.621-9.976 6.25-12.055 9.326z"/><path transform="matrix(.62285 0 0 .7062 4.134 -3.844)" d="m96.344 82.826c2.905 3.293-0.297 8.242-2.846 6.535 2.006 1.673 2.673 4.214 1.655 6.816-1.229 3.139-5.357 4.802-6.895 3.068 0.81 1.207 1.615 4.795-1.125 7.114-2.225 1.883-10.078 4.156-11.514 0.26 1.025 4.403-5.399 5.613-9.19 5.613s-10.214-1.21-9.189-5.614c-1.436 3.897-9.288 1.624-11.514-0.26-2.74-2.318-1.935-5.906-1.125-7.113-1.537 1.735-5.666 0.071-6.894-3.068-1.018-2.602-0.351-5.143 1.655-6.816-2.55 1.707-5.752-3.242-2.846-6.535 1.134-1.286 5.641-4.228 6.775-4.979-0.829 0.31-1.401-4.269-1.01-5.464 0.28-0.858 1.174-1.668 2.272-2.41 6.095-4.117 11.423-5.341 14.444-11.685 1.84-3.865 4.682-6.52 7.432-6.52s5.593 2.655 7.433 6.52c3.02 6.344 8.349 7.397 14.444 11.513 1.098 0.741 1.992 1.551 2.272 2.41 0.39 1.194-0.182 5.947-1.01 5.636 1.133 0.75 5.64 3.693 6.775 4.979z"/></g><path transform="matrix(.62285 0 0 .7062 4.134 -3.844)" d="m89.046 98.634a243.1 243.1 0 0 1-3.464-4.576c-5.429-7.35-11.208-14.566-11.208-14.566s4.1 8.3 9.604 15.752a244.96 244.96 0 0 0 3.492 4.613zm5.054-10.068a118.98 118.98 0 0 1-4.034-3.203c-6.248-5.169-12.815-10.14-12.815-10.14s5.189 6.417 11.544 11.677a120.88 120.88 0 0 0 4.102 3.257zm-3.984-11.552a54.03 54.03 0 0 1-1.992-1.381c-4.243-3.068-8.957-5.68-8.957-5.68s3.45 4.157 7.788 7.296c0.72 0.52 1.416 1.006 2.067 1.433zm-13.526 29.376c-0.464-1.93-0.92-3.746-1.364-5.502-1.01-3.994-2.595-9.34-3.418-12.189-0.958-3.318-1.576-5.553-1.576-5.553s0.125 2.316 0.6 5.76c0.496 3.59 1.292 7.857 2.46 12.472 0.444 1.754 0.897 3.56 1.358 5.478zm-18.379 0.46a515.09 515.09 0 0 1 1.568-6.308 105.47 105.47 0 0 0 2.306-11.905c0.436-3.287 0.544-5.497 0.544-5.497s-0.6 2.13-1.52 5.292c-0.8 2.757-2.29 7.776-3.264 11.62a515.2 515.2 0 0 0-1.574 6.332zm-12.821-6.994a245.78 245.78 0 0 0 3.605-4.767c5.442-7.379 9.49-15.599 9.49-15.599s-5.728 7.136-11.095 14.415a243.19 243.19 0 0 1-3.576 4.728zm-5.425-9.7c2.214-1.675 4.508-3.561 6.79-5.53 4.902-4.231 8.855-9.403 8.855-9.403s-5.328 3.724-10.159 7.893c-2.259 1.95-4.518 3.807-6.69 5.45zm3.873-11.474c0.548-0.36 1.13-0.761 1.729-1.19 4.528-3.239 8.126-7.539 8.126-7.539s-4.865 2.757-9.286 5.916c-0.584 0.418-1.142 0.803-1.663 1.145z" fill="#000" stroke="none"/></g></g></svg>
