<?xml version="1.0" encoding="UTF-8"?>
<svg style="enable-background:new 0 0 226.8 264.6" version="1.1" viewBox="0 0 226.8 264.6" xml:space="preserve" xmlns="http://www.w3.org/2000/svg">
<style type="text/css">
	.st0{fill-rule:evenodd;clip-rule:evenodd;fill:#ED1C24;}
	.st1{fill:#231F20;}
	.st2{fill-rule:evenodd;clip-rule:evenodd;fill:#FDDD04;}
	.st3{fill:none;stroke:#231F20;stroke-width:1.5;stroke-miterlimit:1.3333;}
	.st4{fill-rule:evenodd;clip-rule:evenodd;fill:#231F20;}
	.st5{fill-rule:evenodd;clip-rule:evenodd;fill:#FFFFFF;}
</style>
<path class="st0" d="m113.39 262.24c-61.24 0-111.05-49.813-111.05-111.05v-148.85h222.11v148.85c0 61.24-49.813 111.05-111.05 111.05" style="stroke-width:.13333"/><path class="st1" d="m226.77 3.281e-6h-226.77v151.19c0 62.627 50.76 113.39 113.39 113.39 62.627 0 113.39-50.76 113.39-113.39zm-4.6667 4.6667v146.52c0 59.947-48.773 108.72-108.72 108.72-59.947 0-108.72-48.773-108.72-108.72v-146.52h217.44" style="stroke-width:.13333"/><g style="stroke-width:1.5"><g style="stroke-width:1.5"><path class="st2" d="m55.56 185.85s-3.24-3.6533-5.5867-3.8c0 0-5.28-4.5467 3.12-6.9067 0 0 3.2667-.0667 4.6667 0 1.4.08 5.5867-1.2267 5.5867-1.2267s3.6533-.0933 4.4667 4.4533c.81333 4.5467-5.7067 6.6-5.7067 6.6l-6.5467.88" style="stroke-width:1.5"/><path class="st3" d="m55.56 185.85s-3.24-3.6533-5.5867-3.8c0 0-5.28-4.5467 3.12-6.9067 0 0 3.2667-.0667 4.6667 0 1.4.08 5.5867-1.2267 5.5867-1.2267s3.6533-.0933 4.4667 4.4533c.81333 4.5467-5.7067 6.6-5.7067 6.6z" style="stroke-width:1.5"/><path class="st4" d="m54.6 175.01s2.1333-5.8-4.6267-8.2267c0 0 7.6267-3.04 12.987 7.1467.01333 0-2.4133 1.96-8.36 1.08" style="stroke-width:1.5"/><path class="st3" d="m54.6 175.01s2.1333-5.8-4.6267-8.2267c0 0 7.6267-3.04 12.987 7.1467.01333 0-2.4133 1.96-8.36 1.08z" style="stroke-width:1.5"/><path class="st2" d="m99.96 144.81s11.893 26.427-26.573 36.987l-16.147 2.9333s-4.9867.29334-7.6267 2.3467c0 0-3.8133.44-4.4-.58667 0 0-.88-6.16-6.3067-7.7867 0 0-4.9867-.29334-6.3067 6.6l.14667 1.4667-2.0533 3.6667s-2.0533 4.84 3.6667 5.4267c0 0 2.72.22666 5.0667-1.32 2.3467-1.5333 4.1067 1.6933 4.1067 1.6933s1.32 2.2-1.84 3.3067c-3.16 1.1067-5.28 1.2533-5.28 1.2533s-1.9867 1.0267-1.9067 3.08c.08 2.0533 2.0533 3.4533 2.0533 3.4533s2.7867 1.4667 4.84.73333c0 0 .96 4.84 6.24 5.0667 5.28.21333 3.4533-6.4533 3.4533-6.4533s-1.6133-1.76-.81333-2.4933c.81333-.73333 4.6267-2.2 6.3067-2.28 1.6933-.0667 6.9733 2.2 6.9733 2.2s-5.6533 1.32-5.5733 5.6533c.08 4.3333 8.6533 3.6 8.6533 3.6s4.5467 1.2533 8 .88c3.4533-.37334 3.2267-3.8133 3.2267-3.8133s.14667-4.6267-1.9067-5.4267c0 0 6.5333 2.0533 8.7333 2.0533 0 0 .14667 6.4533 8.3733 8.0667l1.4667.29333s-3.16-5.0667-2.9333-6.24c.21333-1.1733 7.12 6.4533 6.7467 11.667 0 0 4.8-5.2267.14667-13.453-.01333-.0267.01333-.0667.04-.04l5.0267 6.96s1.2533 1.9867 2.64 1.6133c1.4-.37334-.29334-6.6-.29334-6.6s4.6933 6.6 5.2133 12.987c0 0 2.5733-1.9867 3.6-6.0933 0 0 1.0667-4.48-2.6133-9.3067-.0267-.0267 0-.08.04-.0533 1.3067 1.1333 8.08 7.4 8.7333 15.893 0 0 6.5333-3.16 2.28-17.547 0 0 2.1333 8.6667 5.0667 9.9067 2.9333 1.2533 1.0267-6.72 1.0267-6.72s4.04 6.72 1.6133 12.96c0 0 5.5067-2.7867 4.4-13.36 0 0 6.9733 12.48 4.2533 16.88 0 0 1.4667-1.4 3.52-.66666 2.0533.73333 10.72 9.9867 13.8 16.507 0 0 22.093-28.84 41.027-35.747 0 0-9.76-12.653-11.413-27.853-1.6533-15.16 4.2933-39.467 4.2933-39.467l-90.787 7.1733" style="stroke-width:1.5"/><path class="st3" d="m99.96 144.81s11.893 26.427-26.573 36.987l-16.147 2.9333s-4.9867.29334-7.6267 2.3467c0 0-3.8133.44-4.4-.58667 0 0-.88-6.16-6.3067-7.7867 0 0-4.9867-.29334-6.3067 6.6l.14667 1.4667-2.0533 3.6667s-2.0533 4.84 3.6667 5.4267c0 0 2.72.22666 5.0667-1.32 2.3467-1.5333 4.1067 1.6933 4.1067 1.6933s1.32 2.2-1.84 3.3067c-3.16 1.1067-5.28 1.2533-5.28 1.2533s-1.9867 1.0267-1.9067 3.08c.08 2.0533 2.0533 3.4533 2.0533 3.4533s2.7867 1.4667 4.84.73333c0 0 .96 4.84 6.24 5.0667 5.28.21333 3.4533-6.4533 3.4533-6.4533s-1.6133-1.76-.81333-2.4933c.81333-.73333 4.6267-2.2 6.3067-2.28 1.6933-.0667 6.9733 2.2 6.9733 2.2s-5.6533 1.32-5.5733 5.6533c.08 4.3333 8.6533 3.6 8.6533 3.6s4.5467 1.2533 8 .88c3.4533-.37334 3.2267-3.8133 3.2267-3.8133s.14667-4.6267-1.9067-5.4267c0 0 6.5333 2.0533 8.7333 2.0533 0 0 .14667 6.4533 8.3733 8.0667l1.4667.29333s-3.16-5.0667-2.9333-6.24c.21333-1.1733 7.12 6.4533 6.7467 11.667 0 0 4.8-5.2267.14667-13.453-.01333-.0267.01333-.0667.04-.04l5.0267 6.96s1.2533 1.9867 2.64 1.6133c1.4-.37334-.29334-6.6-.29334-6.6s4.6933 6.6 5.2133 12.987c0 0 2.5733-1.9867 3.6-6.0933 0 0 1.0667-4.48-2.6133-9.3067-.0267-.0267 0-.08.04-.0533 1.3067 1.1333 8.08 7.4 8.7333 15.893 0 0 6.5333-3.16 2.28-17.547 0 0 2.1333 8.6667 5.0667 9.9067 2.9333 1.2533 1.0267-6.72 1.0267-6.72s4.04 6.72 1.6133 12.96c0 0 5.5067-2.7867 4.4-13.36 0 0 6.9733 12.48 4.2533 16.88 0 0 1.4667-1.4 3.52-.66666 2.0533.73333 10.72 9.9867 13.8 16.507 0 0 22.093-28.84 41.027-35.747 0 0-9.76-12.653-11.413-27.853-1.6533-15.16 4.2933-39.467 4.2933-39.467z" style="stroke-width:1.5"/><path class="st3" d="m141.11 223.93s11.227-5.84 2.64-20.92c0 0 4.7333-4.1867 3.4133-9.4667 0 0 2.2.98666 4.96-.66667" style="stroke-width:1.5"/><path class="st4" d="m31.707 188.29s-5.28-2.8933-10.04-.54666c0 0 2.2267-6.3733 12.293-5.5867-.01333 0 .65333 2.4933-2.2533 6.1333" style="stroke-width:1.5"/><path class="st3" d="m31.707 188.29s-5.28-2.8933-10.04-.54666c0 0 2.2267-6.3733 12.293-5.5867-.01333 0 .65333 2.4933-2.2533 6.1333z" style="stroke-width:1.5"/><path class="st4" d="m42.547 211.61s-4.2133 4.3067-3.2267 9.52c0 0-5.5467-3.8533-2.0667-13.347-.01333.0133 2.56.04 5.2933 3.8267" style="stroke-width:1.5"/><path class="st3" d="m42.547 211.61s-4.2133 4.3067-3.2267 9.52c0 0-5.5467-3.8533-2.0667-13.347-.01333.0133 2.56.04 5.2933 3.8267z" style="stroke-width:1.5"/><path class="st4" d="m64 214.12s.53333 6-3.5333 9.4267c0 0 6.7333.53334 10.053-9.0133 0 0-2.0133-1.6-6.52-.41333" style="stroke-width:1.5"/><path class="st3" d="m64 214.12s.53333 6-3.5333 9.4267c0 0 6.7333.53334 10.053-9.0133 0 0-2.0133-1.6-6.52-.41333z" style="stroke-width:1.5"/><path class="st5" d="m98.293 44.6 18.547-16.253-6.3067 23.093 10.52-1.8 11.84-41.733-42.933 6.24-3.1733 10.187 23.72-3.2133-18.547 16.253 6.3333 7.2267" style="stroke-width:1.5"/><path class="st3" d="m98.293 44.6 18.547-16.253-6.3067 23.093 10.52-1.8 11.84-41.733-42.933 6.24-3.1733 10.187 23.72-3.2133-18.547 16.253z" style="stroke-width:1.5"/><path class="st2" d="m27.627 100.43-1.96 4.4533c-4.08 9.24 5.6 18.707 14.653 14.227 3.28-1.6267 6.0533-4.4 7.6133-8.24l18.053-44.44.05333.05333-46.44 12.04c-4.8267 1.2533-8.3733 4.4533-10.28 8.4133-3.96 8.2 3.9467 17.213 12.747 14.893l5.52-1.4533.04.0533" style="stroke-width:1.5"/><path class="st3" d="m27.627 100.43-1.96 4.4533c-4.08 9.24 5.6 18.707 14.653 14.227 3.28-1.6267 6.0533-4.4 7.6133-8.24l18.053-44.44.05333.05333-46.44 12.04c-4.8267 1.2533-8.3733 4.4533-10.28 8.4133-3.96 8.2 3.9467 17.213 12.747 14.893l5.52-1.4533z" style="stroke-width:1.5"/><path class="st2" d="m13.933 118.49-6.3333-7.24 84.36-73.893 6.3333 7.24-84.36 73.893" style="stroke-width:1.5"/><path class="st3" d="m13.933 118.49-6.3333-7.24 84.36-73.893 6.3333 7.24z" style="stroke-width:1.5"/><path class="st4" d="m11.907 115.63-1.8133-2.0667 2.52-2.2133c.57333-.50667 1.44-.44 1.9467.13333.50667.57333.44 1.44-.13333 1.9467l-2.52 2.2" style="stroke-width:1.5"/><path class="st3" d="m11.907 115.63-1.8133-2.0667 2.52-2.2133c.57333-.50667 1.44-.44 1.9467.13333.50667.57333.44 1.44-.13333 1.9467z" style="stroke-width:1.5"/><path class="st4" d="m101.52 38.067c-.77334.68-1.96.6-2.64-.17333-.68-.77333-.6-1.96.17333-2.64s1.96-.6 2.64.17333.6 1.96-.17333 2.64" style="stroke-width:1.5"/><path class="st4" d="m66.893 71.907 2.24 3.9067 21.28-12.333-7.1867-5.5733-16.333 14" style="stroke-width:1.5"/><path class="st2" d="m107.45 120.73s-6.0133-18.493-10.867-27.307c-4.84-8.8133-5.1333-20.84-5.1333-20.84s3.96-2.3733 4.84-5.6667c.88-3.28.58667-4.4933.58667-4.4933s4.4667-5.4533-1.4267-10.427c-1.56-1.32-3.8667-1.3733-5.3867 0-.58667.52-1.1733 1.24-1.7067 2.24l-.98667.37333s-2.8267.66667-5.1733 2.28-.14667 5.28-.14667 5.28 1.1733 1.0267 2.2 1.1733c0 0-2.9333 1.3467-2.7467 3.1467 0 0-6-1.52-9.3067 5.28l-3.6267-1.04-8.0133 6.92s1.44 10.24 7.08 12.56c0 0-2.8667 2.8533-3.1333 6.08 0 0 .09333 5.4667-3.8533 6.8 0 0 2.7733 1.44 8.4133-1.6133 0 0-2.3333 4.2933-2.24 7.88 0 0 .45333 4.24-4.92 4.8133 0 0 4.84 4.32 11.907-2.48 0 0-4.2933 4.2133-3.8533 8.32 0 0 1.4267 5.28-4.84 5.0133 0 0 1.52 4.2133 7.3467 1.16 0 0 .72 5.4667-.62667 8.0533-1.3467 2.6-4.7467 4.3867-4.7467 4.3867s3.8533 1.4267 10.653-3.1333c0 0-2.3333 4.0267-2.96 8.28 0 0 .45333 6.2133-5.4667 9 0 0 4.2933 4.56 10.56-3.8533 0 0-1.96 4.9867-1.3333 9.3867.62667 4.4-5.4667 5.4667-5.4667 5.4667s4.12 3.4933 11.907-3.2267c0 0 3.4 2.1467 3.5867 5.0133.18667 2.88 18.88-44.827 18.88-44.827" style="stroke-width:1.5"/><path class="st3" d="m107.45 120.73s-6.0133-18.493-10.867-27.307c-4.84-8.8133-5.1333-20.84-5.1333-20.84s3.96-2.3733 4.84-5.6667c.88-3.28.58667-4.4933.58667-4.4933s4.4667-5.4533-1.4267-10.427c-1.56-1.32-3.8667-1.3733-5.3867 0-.58667.52-1.1733 1.24-1.7067 2.24l-.98667.37333s-2.8267.66667-5.1733 2.28-.14667 5.28-.14667 5.28 1.1733 1.0267 2.2 1.1733c0 0-2.9333 1.3467-2.7467 3.1467 0 0-6-1.52-9.3067 5.28l-3.6267-1.04-8.0133 6.92s1.44 10.24 7.08 12.56c0 0-2.8667 2.8533-3.1333 6.08 0 0 .09333 5.4667-3.8533 6.8 0 0 2.7733 1.44 8.4133-1.6133 0 0-2.3333 4.2933-2.24 7.88 0 0 .45333 4.24-4.92 4.8133 0 0 4.84 4.32 11.907-2.48 0 0-4.2933 4.2133-3.8533 8.32 0 0 1.4267 5.28-4.84 5.0133 0 0 1.52 4.2133 7.3467 1.16 0 0 .72 5.4667-.62667 8.0533-1.3467 2.6-4.7467 4.3867-4.7467 4.3867s3.8533 1.4267 10.653-3.1333c0 0-2.3333 4.0267-2.96 8.28 0 0 .45333 6.2133-5.4667 9 0 0 4.2933 4.56 10.56-3.8533 0 0-1.96 4.9867-1.3333 9.3867.62667 4.4-5.4667 5.4667-5.4667 5.4667s4.12 3.4933 11.907-3.2267c0 0 3.4 2.1467 3.5867 5.0133.18667 2.88 18.88-44.827 18.88-44.827z" style="stroke-width:1.5"/><path class="st3" d="m72.2 71.76s-2.32 6.1867 2.44 8.68" style="stroke-width:1.5"/><path class="st2" d="m55.933 55.733s-4.8133-.16-7.16 3.44c-2.0267 3.1333-1.0533 7.36 2.0533 9.4133.49333.32 1.0533.64 2.76 2.2667l8.5867-7.44-6.24-7.68" style="stroke-width:1.5"/><path class="st3" d="m55.933 55.733s-4.8133-.16-7.16 3.44c-2.0267 3.1333-1.0533 7.36 2.0533 9.4133.49333.32 1.0533.64 2.76 2.2667l8.5867-7.44z" style="stroke-width:1.5"/><path class="st2" d="m65.467 48.267s-6.1333-.6-9.16 3.3333c-3.0267 3.9333-1.9733 6.8133-1.9733 6.8133s1.2133 4.84 6.7867 5.9733l9.28-7.8933-4.9333-8.2267" style="stroke-width:1.5"/><path class="st3" d="m65.467 48.267s-6.1333-.6-9.16 3.3333c-3.0267 3.9333-1.9733 6.8133-1.9733 6.8133s1.2133 4.84 6.7867 5.9733l9.28-7.8933z" style="stroke-width:1.5"/><path class="st2" d="m79.413 48.44s-5.2-7.9733-12.693-3.04c-7.7867 5.1467 1.1067 13.253 1.1067 13.253l11.587-10.213" style="stroke-width:1.5"/><path class="st3" d="m79.413 48.44s-5.2-7.9733-12.693-3.04c-7.7867 5.1467 1.1067 13.253 1.1067 13.253z" style="stroke-width:1.5"/><path class="st4" d="m84.453 54.32s.08 4.3067 5 2.5733c0 0 4.0133-1.72 0-5.8933s-9-.46667-9-.46667 3.8533.14667 4 3.7867" style="stroke-width:1.5"/><path class="st4" d="m59.56 66.893s-.22667-4.3067-5.08-2.4c0 0-3.9467 1.8533.2 5.8933 4.1467 4.0267 9.0133.14667 9.0133.14667s-3.8533-.02667-4.1333-3.64" style="stroke-width:1.5"/><path class="st4" d="m74.16 54.333s-.22667-4.3067-5.08-2.4c0 0-3.9467 1.8533.2 5.8933 4.1467 4.0267 9.0133.14667 9.0133.14667s-3.8533-.02667-4.1333-3.64" style="stroke-width:1.5"/><path class="st4" d="m66.68 60.987s-.22667-4.3067-5.08-2.4c0 0-3.9467 1.8667.2 5.8933 4.1467 4.0267 9.0133.14667 9.0133.14667s-3.8667-.01333-4.1333-3.64" style="stroke-width:1.5"/><path class="st4" d="m151.67 64.84-1.96 20.48 12.747 11.12 10.24-.33333 5.6133-8.48-3.4133-12.44-11.013-7.7067-3.08-5.0667-9.1333 2.4267" style="stroke-width:1.5"/><path class="st2" d="m162.57 88.627s1.32 1.4933 5.0667 1.4267c3.7467-.05333 6.1067-2.8133 6.1067-2.8133s.16 5.2267-4.68 5.84c-4.84.6-7.3733-2.3067-7.3733-2.3067s-1.7733-1.8667.88-2.1467" style="stroke-width:1.5"/><path class="st2" d="m122.87 60.4s-3.3067 3.52-1.0267 8.2267c2.28 4.6933 13.72 4.04 13.72 4.04s19.16-1.5467 27.747 3.4533c8.5867 4.9867 8.44 8.1467 8.44 8.1467s.65334 3.52-3.0133 2.4933c0 0-2.44-1.4533-4.2133-3.24-1.4-1.44-4.0667-3.0667-6-3.6533-3.3867-1.0267-8.48-1.6533-18.867-1.6133-19.08.08-21.8-2.0533-21.8-2.0533s-6.7333-3.0267-5.56-8.6133c1.2-5.5867 10.573-7.1867 10.573-7.1867" style="stroke-width:1.5"/><path class="st3" d="m122.87 60.4s-3.3067 3.52-1.0267 8.2267c2.28 4.6933 13.72 4.04 13.72 4.04s19.16-1.5467 27.747 3.4533c8.5867 4.9867 8.44 8.1467 8.44 8.1467s.65334 3.52-3.0133 2.4933c0 0-2.44-1.4533-4.2133-3.24-1.4-1.44-4.0667-3.0667-6-3.6533-3.3867-1.0267-8.48-1.6533-18.867-1.6133-19.08.08-21.8-2.0533-21.8-2.0533s-6.7333-3.0267-5.56-8.6133c1.2-5.5867 10.573-7.1867 10.573-7.1867z" style="stroke-width:1.5"/><path class="st5" d="m153.67 67.413-2.1333 12.107-4.5467-10.973 2.7333-.26667 3.9467-.86667" style="stroke-width:1.5"/><path class="st3" d="m153.67 67.413-2.1333 12.107-4.5467-10.973 2.7333-.26667z" style="stroke-width:1.5"/><path class="st5" d="m147.53 69.52s-3.04 3.8133-2.0267 14.64l8.5467 1.6267-6.52-16.267" style="stroke-width:1.5"/><path class="st3" d="m147.53 69.52s-3.04 3.8133-2.0267 14.64l8.5467 1.6267z" style="stroke-width:1.5"/><path class="st2" d="m196.63 39.12s5.72-4.2533 12.04.29333c0 0 5.12 3.9867 2.2667 10.573l-8.28-1.7067-6.0267-9.16" style="stroke-width:1.5"/><path class="st3" d="m196.63 39.12s5.72-4.2533 12.04.29333c0 0 5.12 3.9867 2.2667 10.573l-8.28-1.7067z" style="stroke-width:1.5"/><path class="st2" d="m161.8 39.08s-8.1467 1.1067-14.427 5.1733c0 0-10.68-1.32-9.1333 5.9467 0 0 .28 1.08.88 1.5467 0 0-6.6 10.787 1.76 15.187 8.3733 4.4 18.72-2.2 18.72-2.2s.33333 3.6267 8.04 7.6c7.7067 3.96 7.92 12.88 7.92 12.88s.77333 9.2533-8.1467 9.8c0 0-5.8933.74667-11.293-8.6-.4-.69333-.92-1.3067-1.5733-1.76-.65333-.46667-1.6-1-2.7467-1.3333-.98667-.28-2.12-.42667-3.3733-.24-1.0933.16-2.2933.54667-3.5467 1.2933-.74667.45333-1.52 1.0267-2.3067 1.7467-1.3067 1.2133-2.2667 2.7867-2.4267 4.56-.25333 2.8267 1.4 6.4533 12.307 5.2667 0 0-1.76 5.2267-6.1733 5.7733 0 0-1.8533-.12-9.8-.66667-10.68-.73333-22.133 7.6-22.133 7.6s-15.853 9.1333-22.013 30.387c0 0-2.8667 18.493-5.1733 24.667-2.3067 6.16-7.2667 6.0533-7.2667 6.0533s10.893 7.0533 19.707-3.8533c0 0 3.4133-5.0133 3.8533-14.72 0 0 4.6267 17.693-5.6133 25.84 0 0 15.52-.77334 20.04-15.853 0 0 .98666-2.9733 1.2133-6.16 0 0 4.4 12.987-2.64 20.92 0 0 11.787 1.4267 18.053-17.613 0 0 5.1733 11.667-5.28 19.267 0 0 19.16-.54667 21.467-19.04 0 0 6.0533 9.1333-3.08 18.16 0 0 14.293-4.7867 19.027-25.507 0 0 3.9867 13.293-3.84 20.227 0 0 8.48-2.8667 13.987-13.76l-.22666 3.08s8.04-5.84 8.2533-16.947c0 0 2.9733 4.08 2.4267 10.453 0 0 12-9.2533 7.4933-27.307 0 0 5.1733.98666 5.1733 13.867 0 0 8.1467-9.0267 4.7333-26.64 0 0 4.96.33334 5.5067 9.0267 0 0 7.6-8.5867-.44-23.773 0 0 4.1867.54667 6.16 3.7467 0 0 3.6267-9.36.54667-14.64-3.08-5.28-10.347-9.4667-10.893-14.2 0 0 10.68 5.0667 11.347 6.72 0 0 1.76-7.04-3.4133-14.747 0 0 9.76-12.92-9.1333-19.6 0 0-.33333-4.2933-11.56-8.92-.0267-.02667-13.573-12.907-30.96 1.2933" style="stroke-width:1.5"/><path class="st3" d="m161.8 39.08s-8.1467 1.1067-14.427 5.1733c0 0-10.68-1.32-9.1333 5.9467 0 0 .28 1.08.88 1.5467 0 0-6.6 10.787 1.76 15.187 8.3733 4.4 18.72-2.2 18.72-2.2s.33333 3.6267 8.04 7.6c7.7067 3.96 7.92 12.88 7.92 12.88s.77333 9.2533-8.1467 9.8c0 0-5.8933.74667-11.293-8.6-.4-.69333-.92-1.3067-1.5733-1.76-.65333-.46667-1.6-1-2.7467-1.3333-.98667-.28-2.12-.42667-3.3733-.24-1.0933.16-2.2933.54667-3.5467 1.2933-.74667.45333-1.52 1.0267-2.3067 1.7467-1.3067 1.2133-2.2667 2.7867-2.4267 4.56-.25333 2.8267 1.4 6.4533 12.307 5.2667 0 0-1.76 5.2267-6.1733 5.7733 0 0-1.8533-.12-9.8-.66667-10.68-.73333-22.133 7.6-22.133 7.6s-15.853 9.1333-22.013 30.387c0 0-2.8667 18.493-5.1733 24.667-2.3067 6.16-7.2667 6.0533-7.2667 6.0533s10.893 7.0533 19.707-3.8533c0 0 3.4133-5.0133 3.8533-14.72 0 0 4.6267 17.693-5.6133 25.84 0 0 15.52-.77334 20.04-15.853 0 0 .98666-2.9733 1.2133-6.16 0 0 4.4 12.987-2.64 20.92 0 0 11.787 1.4267 18.053-17.613 0 0 5.1733 11.667-5.28 19.267 0 0 19.16-.54667 21.467-19.04 0 0 6.0533 9.1333-3.08 18.16 0 0 14.293-4.7867 19.027-25.507 0 0 3.9867 13.293-3.84 20.227 0 0 8.48-2.8667 13.987-13.76l-.22666 3.08s8.04-5.84 8.2533-16.947c0 0 2.9733 4.08 2.4267 10.453 0 0 12-9.2533 7.4933-27.307 0 0 5.1733.98666 5.1733 13.867 0 0 8.1467-9.0267 4.7333-26.64 0 0 4.96.33334 5.5067 9.0267 0 0 7.6-8.5867-.44-23.773 0 0 4.1867.54667 6.16 3.7467 0 0 3.6267-9.36.54667-14.64-3.08-5.28-10.347-9.4667-10.893-14.2 0 0 10.68 5.0667 11.347 6.72 0 0 1.76-7.04-3.4133-14.747 0 0 9.76-12.92-9.1333-19.6 0 0-.33333-4.2933-11.56-8.92-.0267-.02667-13.573-12.907-30.96 1.2933z" style="stroke-width:1.5"/><path class="st3" d="m103.61 152.59s-2.7733-23.187 18.813-38.013" style="stroke-width:1.5"/><path class="st3" d="m119.08 155.01s-5.6133-18.867 17.72-39.707" style="stroke-width:1.5"/><path class="st3" d="m134.49 158.32s-4.96-26.747 16.133-43.547" style="stroke-width:1.5"/><path class="st3" d="m150.79 159.08s-5.56-28.133 8.64-42.88" style="stroke-width:1.5"/><path class="st3" d="m166.89 152.23s-2.4267-8.2267-2.5733-19.667c-.14667-11.453 4.92-18.173 4.92-18.173" style="stroke-width:1.5"/><path class="st3" d="m180.19 110.24s-2.12 7.04-1.6133 16.733c.52 9.6933 6.24 16.813 6.24 16.813" style="stroke-width:1.5"/><path class="st3" d="m194.72 126.76s-4.5467-5.5733-5.8-13.427c-1.24-7.8533-.58667-15.04-.58667-15.04" style="stroke-width:1.5"/><path class="st3" d="m193.61 89.32c1.6133 19.16 11.013 24.84 11.013 24.84" style="stroke-width:1.5"/><path class="st3" d="m209.55 99.227s-4.6267-3.7467-7.04-8.2933c-2.4267-4.5467-2.7867-7.2667-3.08-11.893" style="stroke-width:1.5"/><path class="st3" d="m201.84 66.573s6.6133 3.56 11.827-.69333" style="stroke-width:1.5"/><path class="st3" d="m152.88 95.56s4.1067 5.4267 12.4 6.0933c8.2933.65334 13.2-6.68 13.2-6.68" style="stroke-width:1.5"/><path class="st3" d="m139.12 51.747s5.1067.96 7.2267-1.0267" style="stroke-width:1.5"/><path class="st3" d="m154.93 48.733s1.4-1.0267 5.6533-1.1067" style="stroke-width:1.5"/><path class="st3" d="m161.47 39.267s-.36 4.2667 3.7467 5.6533c3.3867 1.1467 12.253 1.4667 12.253 1.4667s6.0933-.53333 7.12 5.0533" style="stroke-width:1.5"/><path class="st5" d="m165.13 45.147s-3.4267 9.8 6.0933 11.013c10.413 1.32 10.2-8.88 10.2-8.88s-.8-.8-3.4533-.89333c-2.64-.10667-10.267-.36-12.84-1.24" style="stroke-width:1.5"/><path class="st3" d="m165.13 45.147s-3.4267 9.8 6.0933 11.013c10.413 1.32 10.2-8.88 10.2-8.88s-.8-.8-3.4533-.89333c-2.64-.10667-10.267-.36-12.84-1.24z" style="stroke-width:1.5"/><path class="st4" d="m168.83 45.973s-.41333 4.7067 3.8 5.4667c4.3333.78667 5.52-4.84 5.52-4.84l-9.32-.62667" style="stroke-width:1.5"/><path class="st3" d="m168.83 45.973s-.41333 4.7067 3.8 5.4667c4.3333.78667 5.52-4.84 5.52-4.84z" style="stroke-width:1.5"/><path class="st3" d="m195.96 46.173s2.2 2.2 8.3333.50667" style="stroke-width:1.5"/><path class="st4" d="m199.41 55.413s1.1067 1.32 5.36-1.0267c4.2533-2.3467 6.16 4.1067 6.16 4.1067s-.89334-.29333-6.3067 2.28c-5.44 2.5733-8-4.84-5.2133-5.36" style="stroke-width:1.5"/><path class="st3" d="m199.41 55.413s1.1067 1.32 5.36-1.0267c4.2533-2.3467 6.16 4.1067 6.16 4.1067s-.89334-.29333-6.3067 2.28c-5.44 2.5733-8-4.84-5.2133-5.36z" style="stroke-width:1.5"/></g></g>
</svg>
