<?xml version="1.0" encoding="UTF-8"?>
<!DOCTYPE svg PUBLIC "-//W3C//DTD SVG 1.0//EN" "http://www.w3.org/TR/2001/REC-SVG-20010904/DTD/svg10.dtd">
<!-- Creator: CorelDRAW X6 -->
<svg xmlns="http://www.w3.org/2000/svg" xml:space="preserve" width="420mm" height="594mm" version="1.0" style="shape-rendering:geometricPrecision; text-rendering:geometricPrecision; image-rendering:optimizeQuality; fill-rule:evenodd; clip-rule:evenodd"
viewBox="0 0 42000 59400"
 xmlns:xlink="http://www.w3.org/1999/xlink">
 <defs>
  <style type="text/css">
   <![CDATA[
    .fil2 {fill:#332B2B}
    .fil0 {fill:#343131}
    .fil5 {fill:#3B2A23}
    .fil9 {fill:#DC3333}
    .fil3 {fill:#E63334}
    .fil13 {fill:#ECBB48}
    .fil15 {fill:#EFC949}
    .fil16 {fill:#F0F0F1}
    .fil12 {fill:#F6F7F7}
    .fil11 {fill:#F6F8FB}
    .fil8 {fill:#F9B937}
    .fil7 {fill:#FAFBFC}
    .fil6 {fill:#FBBC30}
    .fil4 {fill:#FBBE2C}
    .fil10 {fill:#FCC536}
    .fil14 {fill:#FDFDF8}
    .fil1 {fill:#FEFEFE}
   ]]>
  </style>
 </defs>
 <g id="Ebene_x0020_1">
  <metadata id="CorelCorpID_0Corel-Layer"/>
  <g id="_317687592">
   <path class="fil0" d="M19304 5017c-419,92 -2172,173 -2546,40 -314,-490 31,-1363 -44,-2060 -58,-537 -74,-483 -399,-753 -240,-200 -407,-434 -781,-445 -557,-17 -3853,439 -4210,636 -105,385 -33,1182 348,1526 340,307 447,1254 392,1731 -320,115 -2055,509 -2308,334 -87,-98 -41,131 -104,-210 -34,-185 -8,-145 25,-312 235,-1202 -450,-1367 -1289,-1878 -237,-145 -537,-440 -815,-434 -381,8 -3749,985 -3961,1199 -50,289 151,943 268,1160 226,416 438,134 707,722 296,649 486,1474 721,2143 254,725 110,449 148,1151 28,511 364,595 541,881 579,935 446,1846 586,2351 288,1036 517,327 -793,1613l-1581 1352c-592,503 -1005,881 -1531,1331 -1946,1664 -1758,1140 -841,2627 616,997 919,1495 1163,2654 520,2473 152,2605 -2,5190 -109,1827 -755,4776 -1040,6661 -166,1096 -220,2324 -419,3399 -770,4160 270,8651 3116,11719 2218,2390 4001,3368 7195,4324 2221,665 2131,736 4105,1619 1544,691 1202,431 2347,1471 361,328 600,746 904,1058 481,5 860,-587 1547,-1112 3757,-2869 6833,-1852 9967,-3395 679,-334 1192,-500 1786,-872 2236,-1399 3944,-3056 5401,-5297 1029,-1585 1661,-4493 1677,-6356 46,-5275 -1229,-9326 -1163,-14926 28,-2408 866,-4044 2236,-5752 503,-627 -161,-970 -803,-1595l-1339 -1319c-894,-829 -2087,-2168 -2645,-2669 -199,-178 -562,-434 -502,-849 34,-234 113,-260 132,-559 62,-972 -70,-428 404,-1577 163,-395 247,-568 514,-850 428,-451 241,-901 759,-1970l774 -1886c232,-412 483,-103 732,-627 280,-589 379,-546 425,-943 -476,-392 -1129,-544 -1846,-786 -1666,-561 -1875,-946 -2942,-520 -368,147 -653,255 -805,554 -326,640 386,1624 -308,2151 -363,127 -2243,-438 -2531,-615 -26,-1330 797,-2099 721,-3080 -263,-219 -438,-265 -875,-338l-3149 -537c-428,-53 -593,155 -869,316 -324,189 -484,209 -521,687 -82,1021 -10,620 105,1108 81,343 4,821 -148,1046 -354,84 -1251,-21 -1642,-77 -733,-106 -533,-578 -475,-1291 143,-1762 613,-2173 -1060,-2200 -536,-8 -3233,-235 -3440,31 -273,349 301,2219 -14,3305l-1 1z"/>
   <path class="fil1" d="M7712 13883c-967,713 -1949,1730 -2895,2492l-2186 1900c-316,287 -459,372 -148,866 1822,2893 1966,4964 1344,8917 -302,1919 -1694,10320 -1744,11908 -93,2986 806,5921 2623,8168 447,553 803,1036 1282,1442 1629,1381 2887,2367 5126,3054 683,209 1435,356 2147,576 1325,408 4709,1720 5566,2617 676,707 598,918 1547,99 775,-669 2390,-1481 3620,-1833 3538,-1010 6233,-550 9899,-3663l1400 -1325c258,-260 374,-483 619,-746 497,-532 1278,-1881 1553,-2534 1417,-3369 1316,-5491 806,-9376 -481,-3663 -1542,-11312 193,-14570l781 -1268c564,-786 616,-442 -824,-1895 -896,-904 -1787,-1802 -2726,-2728 -167,-165 -186,-142 -356,-326 -154,-167 -191,-172 -347,-332 -1057,-1090 -749,-643 -2484,320 -2644,1467 -4673,2293 -8069,2831 -3048,483 -7013,13 -9643,-949 -2284,-835 -4304,-1894 -6177,-3364 -250,-196 -519,-569 -908,-282l0 1z"/>
   <path class="fil2" d="M18480 41331c172,-35 295,-80 483,-89 181,-71 53,-9 179,-251 494,-949 15,-1951 -11,-3001 -13,-529 -107,-1179 -164,-1757 -53,-542 -383,-922 -617,-1335 -283,-499 -487,-628 -705,-1201 -269,-709 -197,-2298 568,-3179 710,-817 731,-174 1455,-248 290,-283 305,-754 487,-1082 176,-317 543,-382 811,-829 307,-512 70,-891 521,-1109 899,-434 1174,-863 1190,-2004 7,-488 58,-1148 -109,-1511 -169,-366 -586,-678 -273,-1059 478,-583 365,-592 -65,-1042 137,-638 -170,-1369 -633,-1217 -210,147 -302,475 -545,661 -682,113 -942,-145 -862,-808 733,-598 1782,-188 2680,-38 1985,329 1811,-110 2782,-263 -8,749 -1425,812 -1879,1106 -22,287 -68,283 82,478 230,300 855,434 1007,758 -196,124 -392,173 -590,284 -92,757 439,1504 372,2229 -41,446 -321,428 -431,490l-50 559c493,2 157,-31 402,-112l35 213c-800,-45 -742,352 -1152,849 -141,171 -423,377 -524,505 -283,356 74,306 142,617 -362,88 -883,-46 -865,844 8,388 67,349 16,760 -39,313 -58,540 214,667 578,374 961,-614 1475,423 534,1076 224,2494 -293,3371l-583 1060c-439,1100 -719,1199 -1201,2623 -338,1000 -551,1001 -372,2764 180,1772 347,1080 546,1623 -322,429 -583,70 -1115,41 -309,857 135,2373 533,3067 779,1356 2168,1303 2362,778 -217,-119 -170,-29 -437,41 -467,122 -1150,-80 -1172,-625 464,301 1517,469 1910,-259 42,-78 26,-66 72,-137 65,-101 27,-59 98,-126 878,449 -31,1339 290,1652 95,93 483,-3 1012,470 148,133 463,770 602,966 506,713 191,1815 -741,1823 -21,-1022 311,-1112 -322,-1985 -200,-276 -318,-420 -668,-572 -632,-275 -558,-342 -971,-273 -59,424 172,600 484,910 842,838 -740,1897 -512,910 158,-688 83,-1112 -854,-1520 -191,-83 -587,-271 -676,-251 -342,-108 -187,28 -371,-272 -163,178 -113,-208 -102,269 314,418 779,639 1159,991 143,133 287,197 445,300 76,727 -179,492 -474,824 -244,583 941,730 1384,505 784,-400 622,-890 760,-1302l55 -110c111,315 406,768 223,1148 -218,455 -571,397 -911,647 -79,1168 1979,268 2482,-158 826,-699 467,-2103 -80,-2740 -210,-245 -364,-481 -563,-665 -299,-275 -562,-235 -832,-459 -23,-601 40,-1044 -309,-1399 -239,-243 -1210,-889 -1208,-105 1,191 47,250 73,424 -881,595 -1658,-1234 -1613,-1645 1812,-1164 491,-1763 322,-1970 -551,-675 -528,-1849 -146,-2607 294,1237 1581,2337 1231,3540 -124,424 -253,45 -179,550 499,141 812,-6 1153,-250 237,323 342,547 722,820 383,275 715,238 1040,598 269,298 451,553 737,831 260,253 607,518 622,1027 -298,256 -543,253 -678,667 -182,556 239,478 274,954 32,438 -25,626 445,917 443,275 770,-6 947,-306 -113,-181 -294,-358 -388,-545 370,-248 719,-143 1033,-619 395,-599 -262,-841 758,-912 127,224 116,575 287,769 253,286 439,53 856,104 -45,205 -95,186 15,374 267,-29 203,-17 333,-269 95,-185 110,-210 223,-388 292,-464 35,-596 254,-1042 94,-192 208,-674 376,-855 385,-412 559,152 933,-229 216,-275 -448,-1029 -624,-1289 -496,-734 -938,-161 -1451,-595 -183,-154 -395,-345 -731,-172 -261,135 -262,407 -461,574 -389,327 -359,-111 -685,803 -97,273 -6,229 -223,347 -385,173 -879,-371 -1045,-524 -350,-322 -556,-553 -857,-845 -370,-359 -1370,-1414 -1163,-2186 100,-148 329,-263 452,-376 164,-152 201,-252 376,-428 436,538 464,2305 1402,2417 160,-332 111,-293 -67,-560 -304,-457 -670,-1120 -788,-1675 -146,-691 -463,-2296 -104,-2888l632 2573c332,955 596,1218 1470,1866 185,137 443,288 718,373 604,185 515,-16 881,-133 -479,-823 -692,-1399 -785,-2606 -41,-527 -68,-1045 -169,-1549 -82,-410 -325,-874 -364,-1283 183,50 605,793 740,975 439,593 1148,3267 2170,3048 7,-17 14,-64 15,-53l18 -106c0,-14 1,-37 -1,-53 -32,-330 -701,-1054 -895,-1415 -400,-744 -320,-856 -914,-1747 -329,-492 -1792,-2882 -1765,-3457 452,57 512,188 670,602 154,403 503,822 697,1209 184,367 215,602 505,857 347,305 538,764 905,1075 277,235 460,328 748,544 158,119 156,163 385,226 937,259 2112,-211 1314,-898 -481,-413 -884,-841 -1202,-1458 -290,-564 -940,-1875 -1064,-2484 645,361 1682,2602 2689,2560 280,-591 -482,-999 -987,-1535 -374,-398 -1057,-979 -1305,-1436 711,136 2046,1495 2740,492 405,-586 -1074,-2092 -1425,-2473 -205,-221 -1155,-1252 -1168,-1472 77,143 968,731 1151,943 302,352 511,1047 1234,752 20,-310 -429,-722 -653,-926 -345,-314 -649,-458 -825,-805 881,86 1413,542 2240,-98 256,-198 305,-367 275,-664 -140,-88 -1627,-718 -1812,-1196 473,87 1685,544 1677,-235 -483,-469 -1483,-34 -2966,-1178 -162,-125 -220,-138 -314,-312 412,135 1484,515 1910,445 638,-104 1306,-538 1323,-1162 -332,-160 -1066,-330 -1493,-467 -399,-129 -964,-229 -1309,-466 -209,-143 -45,26 -182,-174 440,20 1991,439 2029,-166 38,-611 -1354,-424 -1872,-479 198,-320 756,-421 1078,-646 294,-205 1037,-1253 263,-1171 -292,31 -272,121 -977,137 -749,17 -2586,32 -3291,-200 -283,-94 -175,-156 -388,-353 -693,34 -1156,523 -2320,488 -999,-30 -1585,892 -2104,184 221,-257 388,-407 596,-760 101,-171 498,-727 484,-876 -121,-317 -334,-466 -732,-331 -1064,362 -2209,233 -3314,19 -1093,-212 -940,-455 -1911,145 -324,200 -448,345 -930,358 -427,12 -678,-214 -1030,-244l-513 683c-430,646 242,1560 363,1784 259,482 -93,400 319,907 618,-6 657,-517 1094,-416 265,62 333,212 494,325 539,382 836,-257 1187,656 124,322 268,373 137,674 -473,-159 -290,-583 -1148,-400 -873,187 -1016,-189 -1349,74 1,242 654,1254 806,1537 493,74 380,-85 805,-129 283,137 651,581 484,970 -90,211 -505,763 -753,677l-65 -545c-166,-124 -292,-140 -380,-375 -108,-285 -57,-404 -275,-544 -239,-152 -1052,-223 -1397,-153 -211,434 -84,445 205,731 -38,432 -191,188 -45,718 254,923 701,1171 1631,1371 -25,97 -376,970 -426,1040 -370,-31 -376,-464 -855,-709 -1042,-531 -1867,808 -2277,235 -313,-437 239,-720 520,-907 445,-296 473,-536 337,-1046 -158,-592 328,-698 -110,-1178 -265,-289 -673,-452 -1088,-203 -364,218 -418,715 -879,665 -67,-550 749,-533 941,-1283 197,-772 900,-539 1261,-1128 90,-146 314,-1031 318,-1256 16,-829 -811,-1486 -1561,-1578 -685,-83 -1381,92 -2023,-161 -322,-127 -260,-214 -377,-465 -876,227 358,824 -2225,614 -843,-68 -1872,-167 -2681,-188 -1766,-47 -1328,1097 -1063,1342 641,591 1301,443 1542,509 451,124 181,29 627,-14l106 283 -2437 110c20,542 358,491 814,487 1059,-10 2909,-456 3646,-352l-1096 256c-480,71 -830,178 -1321,197 -445,17 -2597,41 -2836,147 -602,269 -410,1318 720,1676 713,226 1928,-168 2635,-292 -243,355 -964,680 -1448,800 -511,127 -1736,-55 -1957,152 -239,224 -146,597 229,652 701,101 1956,-620 2710,-620 -304,559 -431,491 -982,767 -938,470 -2535,343 -2668,875 -232,925 610,2255 3210,688 445,-268 1925,-1199 2323,-1304 -275,475 -2729,2338 -3538,2546 -509,131 -1316,15 -1634,411 -224,411 347,870 1328,438 868,-382 1742,-837 2432,-1451 169,-150 175,-128 352,-263 341,-260 865,-842 1272,-976 -137,115 -210,274 -375,442 -217,219 -258,314 -448,511 -220,229 -263,257 -508,380 -284,143 -718,601 -1007,828l-1000 841c-196,149 -302,323 -506,448 -343,211 -1028,400 -1247,595 -745,663 505,1976 1395,1261 253,-204 188,-235 567,-322 367,-84 405,-185 696,-247 -314,511 -777,941 -1291,1289 -322,218 -1765,589 -1363,1163 551,487 1544,-505 1892,-771 454,-349 1222,-1330 1622,-1417 -277,877 -1135,1225 -1426,1679 -424,661 -798,1148 -1383,1686 -328,302 -899,601 -1085,935 290,956 1654,991 2617,118 192,-173 317,-323 520,-503 201,-179 332,-299 527,-497 308,-312 658,-909 1074,-950 68,500 -120,840 -281,1267 -189,502 -854,1430 -1332,1804 -428,334 -953,246 -872,722 1037,583 2393,-1714 2800,-2408 328,-558 576,-1168 893,-1765 299,-562 499,-1285 1045,-1673 -164,1277 -1315,3055 -1799,4192l-1288 2459c-317,384 -742,1089 -625,1640 529,218 1496,-151 1799,-533 143,-181 332,-503 471,-757 349,-638 221,-280 665,-631 318,-251 282,-492 433,-792 113,-224 151,-166 282,-331 110,-139 171,-307 253,-432 310,-478 626,-1072 1026,-1479 -17,836 -166,1849 -498,2555l-891 1563c-149,217 -239,284 -209,568 890,506 1007,-959 1547,-1303 259,98 632,376 739,633 -1033,578 -376,603 -812,1161 -138,177 -372,332 -497,517 -620,917 -1967,1947 -3371,1722 -4,-547 740,-821 -130,-1433 -282,-199 -1183,-524 -1561,-255 -40,553 208,179 289,674 40,241 80,512 -37,713 -146,-655 -873,-1093 -1330,-462 -223,308 -358,328 -584,569 -177,190 -366,750 -28,864 433,146 154,-549 721,-268 453,224 83,668 32,875 -53,218 184,1270 298,1464 124,212 143,203 434,214 117,-533 42,-680 578,-778 632,-116 374,-1062 1135,-843 400,115 269,190 794,74 -215,1082 0,1269 1091,1253 36,778 -439,841 -164,1298 787,-249 745,-877 996,-1190 151,-189 366,-323 425,-667 70,-412 -184,-559 -259,-857 14,-248 1659,-1517 1970,-1928 121,-160 227,-281 404,-413 182,-135 373,-173 536,-283 171,-114 239,-260 455,-403 94,472 941,1121 1213,1030 661,-548 -421,-902 -171,-1848 97,-369 226,-662 397,-974 170,-309 371,-654 796,-553 253,559 -143,1061 -322,1418l3 -2z"/>
   <path class="fil3" d="M18964 41242c-139,365 -442,402 -570,703 135,357 376,361 818,261l119 -224c217,61 482,67 418,580 -46,370 14,53 -97,269 10,-20 -112,-126 88,13 127,88 98,52 185,205 100,264 520,-77 599,803 77,870 85,428 236,842 151,415 25,544 500,1350 199,338 499,537 640,943 89,-19 485,168 676,251 937,409 1012,832 854,1520 -228,988 1354,-71 512,-910 -311,-310 -543,-485 -484,-910 413,-69 339,-2 971,273 350,152 467,296 668,572 633,873 301,963 322,1985 932,-8 1247,-1110 741,-1823 -139,-196 -454,-833 -602,-966 -529,-473 -916,-377 -1012,-470 -321,-314 589,-1204 -290,-1652 -71,68 -34,25 -98,126 -46,71 -30,59 -72,137 -393,728 -1446,559 -1910,259 22,545 705,748 1172,625 266,-70 220,-160 437,-41 -194,526 -1583,578 -2362,-778 -399,-694 -842,-2209 -533,-3067 532,29 793,388 1115,-41 -199,-543 -366,149 -546,-1623 -179,-1763 34,-1764 372,-2764 482,-1423 761,-1523 1201,-2623l583 -1060c517,-878 827,-2296 293,-3371 -515,-1037 -897,-49 -1475,-423 -271,-127 -253,-354 -214,-667 51,-411 -8,-372 -16,-760 -17,-890 503,-756 865,-844 -68,-311 -425,-262 -142,-617 101,-128 383,-334 524,-505 410,-497 352,-894 1152,-849l-35 -213c-245,80 91,113 -402,112l50 -559c110,-62 391,-44 431,-490 67,-725 -464,-1471 -372,-2229 197,-110 394,-160 590,-284 -152,-324 -776,-458 -1007,-758 -151,-196 -104,-191 -82,-478 454,-293 1871,-356 1879,-1106 -971,153 -796,593 -2782,263 -898,-149 -1946,-560 -2680,38 -80,663 181,920 862,808 244,-186 335,-514 545,-661 462,-153 770,578 633,1217 430,451 544,459 65,1042 -312,381 104,693 273,1059 167,362 116,1024 109,1511 -16,1141 -292,1569 -1190,2004 -451,218 -214,596 -521,1109 -268,448 -635,512 -811,829 -182,328 -197,799 -487,1082 -724,74 -745,-569 -1455,248 -765,881 -838,2470 -568,3179 218,573 422,703 705,1201 235,413 564,793 617,1335 56,578 151,1228 164,1757 26,1049 506,2052 11,3001 -126,242 2,180 -179,251l-2 1z"/>
   <path class="fil4" d="M15394 5869c-139,-354 161,-604 104,-1100 -173,-1514 -114,-1378 -1866,-1175 -417,49 -1117,74 -1372,321 -389,931 1331,2411 -443,2684 -627,97 -1175,171 -1786,265 -411,63 -1352,403 -1589,319 -156,-197 -242,-1885 -523,-2267 -550,-224 -2408,400 -2905,601 -114,538 217,1251 367,1797 131,479 334,1318 638,1616 445,91 2591,-609 3203,-755 3637,-871 7309,-1256 11080,-1256 1421,0 3441,23 4796,249 319,53 3140,460 3369,421 374,-64 345,-425 465,-776 17,205 -26,303 -32,457 -5,131 -17,86 20,224 117,434 882,434 1291,388 595,-1532 -535,-671 -215,-1626 108,-323 491,-1614 416,-1867 -247,-474 -719,-364 -876,112 -142,431 -222,854 -356,1250 -10,-697 646,-1641 -137,-1861 -115,-32 -334,-60 -454,-82 -300,-55 -702,-166 -940,-40 -365,418 -197,2016 -514,2536 -328,15 -589,-130 -931,-191 -624,-111 -2883,-211 -3069,-403 -553,-571 820,-2368 -497,-2502 -490,-50 -1975,-157 -2479,-112 -785,71 -251,850 -355,2096 -61,731 -480,598 -1141,617 -550,15 -3014,181 -3272,61l0 1z"/>
   <path class="fil4" d="M6540 10032c-47,574 316,1465 544,1856 530,20 1758,-349 2305,-480 699,-167 1675,-340 2410,-452 3801,-581 6882,-745 10753,-580 886,38 1780,140 2657,218 2515,221 2689,881 3119,-916 62,-260 143,-421 73,-700 -87,-342 -254,-278 -556,-334 -3058,-560 -6469,-658 -9586,-581 -2193,54 -4129,356 -6202,619 -939,119 -4996,1014 -5515,1349l-1 1z"/>
   <path class="fil1" d="M10011 13933c81,346 634,577 957,814 704,517 2837,1493 3661,1795 3682,1345 8809,1720 12488,461 593,-203 4696,-1541 4978,-2338 -406,-81 -2048,212 -2605,271 -3466,371 -5132,443 -8783,329 -1810,-56 -3854,-193 -5544,-494 -887,-158 -1730,-278 -2606,-452 -431,-86 -2305,-503 -2547,-386l0 1z"/>
   <path class="fil5" d="M18480 41331c-428,74 -740,329 -536,857 167,431 552,520 988,705 -60,399 -638,1043 -796,1453 -144,374 -154,442 -389,701 -314,347 -264,337 -727,168 169,-385 296,-301 274,-899 -327,-251 -761,-767 -1543,-174 -535,406 -469,1213 -456,1786 -979,148 -944,302 -1255,590 -187,173 -127,68 -308,308 -1274,1687 -441,3868 1112,3718 461,-44 721,-128 817,-504 -285,-212 -769,-439 -811,-944 -39,-463 356,-986 595,-1148 11,13 21,20 23,44l31 476c122,1435 1642,1454 1996,756 187,-369 -224,-624 286,-1010 565,101 304,343 1183,203 -75,634 -285,415 -562,892 -184,317 -335,695 -276,1178 85,76 253,217 370,277 244,125 272,54 510,173 545,273 310,439 615,747 399,-79 64,-59 371,-304 374,-298 1994,-344 1172,-2329 -93,-224 -158,-250 -233,-484 643,-86 745,45 1031,-492 -108,-220 -920,-827 -988,-1702 132,128 120,160 232,325 68,100 160,203 221,284 -11,-478 -61,-91 102,-269 184,300 29,164 371,272 -140,-406 -440,-606 -640,-943 -475,-806 -349,-934 -500,-1350 -151,-414 -158,27 -236,-842 -79,-880 -499,-539 -599,-803l-305 -2c-250,402 -274,1598 -868,2254 -1190,1316 -2420,1813 -2002,3412 188,722 -994,253 -801,-687 41,-200 187,-341 276,-487 598,-979 -877,-758 -1526,314 -613,1013 -35,1292 -4,1981 -693,13 -1609,-946 -979,-2214 279,-562 278,-616 827,-1013 205,-148 355,-292 604,-352 363,-86 467,63 794,-86 106,-361 -665,-620 -135,-1366 175,-247 216,-382 474,-472 259,-91 440,-108 659,65 -49,307 10,40 -219,301 -298,341 -288,748 155,1016 262,158 595,128 843,-14 284,-164 1888,-2424 1810,-3467l-316 -28c-442,100 -682,96 -818,-261 128,-301 431,-337 570,-703 -189,10 -311,54 -483,89l0 2z"/>
   <path class="fil3" d="M26505 30220c-295,73 -794,501 -1077,330 -161,-204 -96,-223 57,-386 817,-874 1294,-1403 1814,-2761 922,-2410 -125,-3420 -20,-4382 755,-213 868,819 1270,1090l596 -451c570,-518 -381,-994 -230,-1522 92,-323 357,-153 323,-797 -577,50 -819,427 -1916,427 -970,-1 -1070,211 -1663,648 14,340 107,473 210,741 221,575 25,756 802,843 1183,132 314,580 370,975 205,484 748,670 190,1407 -365,53 -873,-90 -1140,24 -188,332 22,344 -5,681 -25,314 -188,220 -314,545 159,382 424,334 472,887 39,442 -171,773 -478,900 -456,188 -706,-205 -993,-271 -366,-85 -682,309 -785,597 43,242 304,622 524,762 475,304 424,230 386,853 370,-2 198,-175 583,9 241,115 265,245 478,343 218,-58 490,-364 460,-652 -49,-458 -304,-346 88,-840l-1 0z"/>
   <path class="fil6" d="M7030 12252c-122,760 382,431 806,323l3656 -709c1390,-264 3818,-468 5277,-574 2164,-157 6236,-134 8422,202 449,69 2309,356 2641,223 229,-779 -1432,-738 -2041,-826 -1324,-191 -4222,-376 -5558,-349 -980,20 -1954,-41 -2925,61 -895,94 -1805,123 -2730,200 -1362,115 -6906,1016 -7548,1448l0 1z"/>
   <path class="fil7" d="M9161 13115c346,459 4652,1196 5453,1326 5747,934 12175,802 17926,-256 547,-101 521,-53 657,-253 -305,-497 -1906,-10 -2869,83 -4894,474 -7603,700 -12651,212 -3682,-355 -2149,-54 -5810,-866 -417,-92 -877,-193 -1333,-294 -412,-91 -1070,-331 -1374,47l1 0z"/>
   <path class="fil3" d="M27688 35470l40 1228c250,119 448,39 404,464 -22,216 -438,1170 227,2179 756,1148 183,686 1138,1520 170,148 332,287 557,340 2,-361 -505,-1995 -613,-2465l-379 -2704c-35,-306 -238,-809 -338,-1146 -127,-424 -171,-850 -292,-1283 -110,-397 -287,-733 -429,-1058 -143,-328 -313,-800 -476,-1078 -357,-19 -362,-69 -585,147 -952,926 -126,866 -107,1602 35,1351 323,574 467,1111 163,607 -280,672 386,1144z"/>
   <path class="fil3" d="M13973 23344c27,460 214,442 179,860l-518 42c-202,647 -297,395 -374,818 199,112 173,150 446,205 360,-792 590,-806 870,-1386 93,-193 113,-362 199,-545 271,-166 326,-67 415,-410 95,-367 28,-449 422,-416 222,802 -896,2188 -1038,3199 -123,871 39,1108 282,1782 141,389 473,1142 745,1412 54,-116 83,-783 855,-1171 715,-359 121,-614 49,-815 -82,-229 -14,-172 8,-350 13,-111 65,-200 -37,-293 -553,-353 -502,663 -1488,619 -898,-716 208,-1262 530,-1809 242,-410 151,-703 565,-919 1285,-670 705,-704 1061,-1264 145,-227 199,-197 92,-508 -457,-1333 -1555,-614 -3496,-1126 92,352 464,777 652,1099 416,715 64,728 -416,977l-2 -2z"/>
   <path class="fil3" d="M14372 31102c366,-327 212,-994 749,-742 343,311 -295,489 101,1201 135,242 246,330 563,292 492,-58 203,-589 596,-727 514,-182 442,373 285,635 -247,413 -945,656 -740,1544 95,413 104,586 42,1036 -59,428 11,726 29,1126 40,864 -176,1507 -115,2240 285,-188 439,-416 454,-879 28,-868 318,-20 362,-1016 23,-538 535,-1007 318,-2308 -200,-1203 -19,-2852 1042,-3611 191,-137 271,-169 403,-354 -120,-138 -216,-187 -342,-376 -992,72 -955,734 -1332,947 -155,88 -481,142 -665,162 -1042,115 -1385,-730 -1956,-1132 -359,119 -638,520 -577,1052 51,442 412,880 781,908l0 1z"/>
   <path class="fil3" d="M30496 34681l467 78 131 879 508 36c100,1238 483,769 844,1076 227,193 133,610 667,651 337,26 323,-30 324,-31 18,-4 42,-14 56,-17 14,-4 37,-11 55,-19 65,-187 -81,-311 -178,-490l-857 -1531c-158,-364 -321,-700 -493,-1067 -1004,-2141 -426,-763 -1220,-1912 -462,-668 -732,-1175 -1264,-1871 -284,-371 -350,-668 -899,-632 -248,601 -256,823 39,1358 295,535 -18,1048 383,1384 868,727 748,-449 1439,2109z"/>
   <path class="fil3" d="M6899 37310c789,341 1669,-329 1987,-785 812,-1161 662,119 1626,-1636 355,-645 701,107 730,-1124 689,-19 540,278 1264,-908 1260,-2068 863,-1020 512,-1960 -92,-245 -54,-518 -64,-822 -446,165 -877,931 -1387,1498 -89,99 -93,107 -181,229 -147,202 -521,726 -641,998 -142,322 -1480,1855 -1830,2323 -434,580 -1043,1304 -1642,1702 -209,139 -333,233 -374,485z"/>
   <path class="fil3" d="M10159 41046c1285,112 964,-1441 1752,-1839 235,-118 460,-33 573,-306 143,-343 -68,-302 280,-675 493,-527 388,-1049 401,-1313l494 -162c43,-328 -80,-414 42,-647 117,-223 307,-106 532,-94 329,-577 169,-547 301,-1204 47,-235 146,-269 264,-474 15,-26 540,-1497 435,-1834 -17,-54 -408,-750 -724,-832 -235,238 -342,752 -563,1124 -373,627 -249,550 -437,1265l-1267 3034c-525,919 -752,1616 -1154,2251 -412,650 -131,71 -672,1097 -110,209 -251,406 -256,610l0 -1z"/>
   <path class="fil3" d="M19211 42205l316 28c77,1043 -1526,3304 -1810,3467 -248,143 -580,173 -843,14 -443,-268 -452,-676 -155,-1016 229,-262 170,6 219,-301 -219,-173 -401,-157 -659,-65 -257,91 -298,225 -474,472 -530,747 240,1006 135,1366 -326,148 -431,-1 -794,86 -248,59 -399,203 -604,352 -548,397 -548,451 -827,1013 -629,1268 286,2227 979,2214 -31,-689 -609,-967 4,-1981 649,-1072 2123,-1293 1526,-314 -89,146 -235,287 -276,487 -193,940 990,1409 801,687 -418,-1600 812,-2096 2002,-3412 593,-656 619,-1852 868,-2254l305 2c-87,-152 -58,-116 -185,-205 -200,-139 -79,-34 -88,-13 110,-216 50,101 97,-269 64,-514 -201,-520 -418,-580l-119 224 2 -2z"/>
   <path class="fil8" d="M6111 9503c16,10 43,1 52,22 69,155 2276,-505 2377,-532 2299,-638 5699,-1132 8090,-1289 3994,-263 7206,-83 11070,469 100,14 280,48 373,50 115,2 83,10 191,-14 140,-30 80,-9 165,-68 -42,-353 -387,-353 -1117,-469 -454,-72 -966,-172 -1425,-209 -4489,-366 -7512,-496 -12044,78 -2697,341 -4139,790 -6615,1427l-908 318c-282,156 -124,20 -209,218l-1 0z"/>
   <path class="fil3" d="M29423 28021c89,370 178,366 238,895 266,160 386,125 572,445 145,250 151,707 232,785 349,334 532,-530 973,1070 689,133 384,157 637,595 98,169 509,291 769,458 311,200 411,481 688,538 294,60 269,-59 514,100 277,181 74,220 498,169 310,-536 -191,-791 -771,-1468 -462,-539 -760,-885 -1161,-1435 -168,-230 -356,-515 -511,-714 -191,-247 -355,-500 -554,-739 -253,-302 -1002,-1103 -1295,-1311l-85 62c-70,58 -59,50 -113,98l-632 448 1 1z"/>
   <path class="fil3" d="M15199 39832c104,250 411,343 598,613 -15,483 -269,414 -390,818 302,461 264,200 286,947 660,47 489,-518 723,-908 427,-45 366,161 422,558 37,262 119,571 418,584 72,-477 -156,-560 -86,-1102 41,-321 255,-775 237,-1076 -191,145 -352,149 -588,51 8,-697 503,35 1492,-1931 341,-679 394,-2145 -55,-2824 -249,188 -134,236 -296,564 -95,191 -220,452 -323,640 -267,482 -206,628 -541,1288 -640,1263 -1399,1354 -1898,1777l1 1z"/>
   <path class="fil7" d="M24715 22904c116,533 434,427 334,955 -55,288 -128,182 -53,440 386,1329 -202,281 160,1546 160,557 -55,610 -385,800 -223,128 -451,516 -589,708 -364,508 -1804,1985 -1441,2336l100 23c23,1 446,61 686,-221 86,-102 50,-161 207,-336 108,-121 229,-182 341,-273 980,-791 904,32 1556,41 487,-1056 -403,-416 -281,-1421 46,-380 243,-338 322,-637 79,-298 -22,-616 74,-961 595,-318 697,16 1044,-100 91,-234 -108,-845 -299,-1090 -155,-198 -278,-163 -511,-236 -808,-254 -287,-589 -489,-1075 -36,-87 -294,-580 -349,-673l-426 175 1 -1z"/>
   <path class="fil3" d="M23982 42212c366,-190 19,-570 428,-801 184,-104 660,51 1068,39 46,-635 -516,-913 -482,-1621 436,-31 959,236 1012,-325 -441,1 -663,229 -944,-3 -697,-576 -1154,232 -1034,-633 72,-520 -33,-676 -223,-1247 -112,-338 -414,-1226 -562,-1453 -218,346 -147,296 -298,719 -341,953 -887,812 -62,2270 239,423 523,835 794,1250 436,667 58,1310 303,1804l1 -1z"/>
   <path class="fil3" d="M18791 47817c415,105 440,1 820,198 -20,871 -832,1200 -1002,1903 184,312 287,322 637,512 541,295 385,-63 920,-21 34,94 20,115 30,140l208 148 507 -247c77,-554 -94,-1011 -309,-1450 -130,-265 -758,-927 -445,-1196 364,-158 560,132 994,158 -47,-444 -602,-446 -606,-1382 -2,-424 -23,-1526 -379,-1673 -415,791 -227,1210 -923,2311 -124,197 -422,520 -451,599l0 1z"/>
   <path class="fil4" d="M8390 43519c-416,46 -459,367 -227,682 400,542 455,122 802,434 14,345 -474,483 -715,786l170 523 883 -231c337,-1487 1067,-676 1439,-728 257,-37 605,-367 842,88 271,521 -491,1163 237,1143 106,-3 203,-48 364,-36 228,17 378,168 551,265 714,-770 -581,-910 -475,-1568l830 -886c-62,-114 -99,-160 -161,-277 -176,59 -1800,1376 -2767,343 56,-674 760,-1312 -551,-1237 -69,527 172,1394 -296,1520 -615,166 -747,-518 -927,-820l1 1z"/>
   <path class="fil9" d="M26505 30220l205 -6c244,560 377,545 1114,510 206,-294 275,-276 193,-795 -181,-1144 144,-651 862,-1013 113,-503 -108,-913 29,-1216 336,-179 808,-56 842,-485 47,-596 -668,-389 -191,-1432 73,-158 221,-332 252,-431 142,-452 -239,-670 -354,-1007 -276,58 -379,164 -768,158 -48,613 433,2004 -290,3524 -448,944 -1105,1542 -1894,2192l1 1z"/>
   <path class="fil3" d="M7975 21296c-105,1105 1851,950 1957,968 326,56 124,131 488,158 321,24 320,-110 509,-151 334,-71 104,63 376,257 518,-131 195,-248 613,-350 218,133 63,49 205,260l329 -248 309 215c238,-312 627,-251 914,-431 -435,-819 -1330,-580 -2711,-606 -839,-16 -2338,-437 -2989,-73l0 1z"/>
   <path class="fil4" d="M18434 21931c193,146 365,263 572,442 486,-79 738,-254 1222,408 431,2 712,-263 995,44 138,149 456,573 505,792 91,406 305,2098 141,2399 -706,1 -244,-814 -720,-1210 -483,-402 -888,-398 -1496,-106l96 324c239,-52 386,-303 687,-299 206,3 509,201 645,353 352,394 318,1198 310,1829 966,-234 1258,-2329 678,-3364 -263,-470 -480,-545 -247,-1192 -580,-136 -601,-441 -907,-680 -469,55 -798,508 -1283,292 -446,-199 -255,-738 -1141,-503l-56 469 1 1z"/>
   <path class="fil7" d="M14917 39209c815,70 917,-138 1331,-567 294,-305 515,-695 707,-1203 307,-814 533,-997 768,-2106 78,-369 101,-615 -178,-773 -116,754 -218,607 -367,928 -159,342 318,404 -61,956 -314,458 -247,290 -379,917 -215,1020 -1313,1211 -1355,493 -29,-490 459,-3204 146,-3621 -554,515 -608,3060 -720,3800 -83,554 -209,807 107,1175l-1 0z"/>
   <path class="fil3" d="M25413 37582c214,-278 541,-2254 550,-2793 11,-587 -46,-1065 -58,-1639 -4,-179 -37,-580 -112,-720 -92,-172 -338,-313 -585,-325l-50 111c-27,84 -28,68 -48,171l-124 2608c-31,688 -328,2462 426,2587z"/>
   <path class="fil3" d="M6553 28575c321,147 385,249 784,65 266,-123 638,-173 818,-274 313,-174 124,-286 618,-410 1036,-259 1228,-533 2175,-1018 533,-273 931,-393 961,-1133 -1186,-67 -2773,1627 -4202,1903 -381,74 -444,113 -799,225 -374,118 -404,198 -356,641l1 0z"/>
   <path class="fil7" d="M26703 38882l-355 -2465 -667 1895c-618,19 -621,-312 -860,-685 -179,-279 -521,-644 -557,-997 -92,-898 480,-1937 217,-2816l-852 1280c-151,509 227,1377 401,1822 476,1219 932,2150 2672,1966l0 -1z"/>
   <path class="fil6" d="M32101 11269l-31 558c661,220 706,223 943,-451 109,-311 366,-1047 303,-1396 -224,-149 -277,-142 -568,-149 -155,220 -372,508 -418,796 75,-526 442,-1156 -800,-1121 -100,209 -210,469 -262,747 -118,626 -633,1371 147,1450 400,41 533,-235 686,-434l-1 0z"/>
   <path class="fil4" d="M28401 45287c-13,224 -340,797 -344,800 -190,192 -567,118 -580,545 206,134 910,161 1135,80 110,-299 65,-706 251,-979 156,-227 506,-191 831,-395 971,-609 919,643 1102,946 224,-294 14,-255 388,-545 173,-134 365,-307 413,-586 -457,-80 -818,64 -1184,-32 -197,-52 -268,-157 -468,-202 -203,-46 -433,-14 -647,-41 -248,-32 -307,-105 -552,-122 -559,-41 -454,163 -1167,-887l-485 22c-241,-375 -86,-260 -220,-610l-520 -106c43,561 883,1162 1366,1716 287,329 353,232 682,398l0 -1z"/>
   <path class="fil3" d="M10292 30365l604 -58c317,-575 79,-340 386,-592 158,-129 503,-326 525,-601 57,-718 -675,128 -1105,505 -450,395 -744,654 -1138,971 -115,92 -211,150 -318,229 -312,227 -506,454 -933,707 -177,105 -1226,638 -1322,800 -170,289 52,576 424,545 328,-27 261,-262 725,-361 574,-122 312,-8 691,-331 217,-184 376,-307 536,-556 477,-736 803,-52 924,-1260l0 1z"/>
   <path class="fil6" d="M33053 12021c359,-34 32,18 334,-142 106,198 113,436 391,398 239,-33 289,-258 338,-484 127,181 45,365 157,559 320,-42 390,-334 532,-541 -57,263 -166,358 -97,727 322,64 280,18 398,-227 226,-470 482,-1044 462,-1573 -274,7 -326,125 -469,256l-32 -472c-521,38 -265,115 -523,397l59 -623c-581,-120 -722,-5 -953,985 -60,258 -48,259 -175,459 8,-455 523,-1130 253,-1556 -405,115 -700,1416 -674,1837l-2 1z"/>
   <path class="fil3" d="M31766 27019c111,100 241,398 370,570 277,370 274,164 638,392 148,264 -1,274 214,529 131,155 317,229 587,203 704,-67 532,257 1297,208 17,-605 -783,-1019 -1436,-1400 -34,-20 -1052,-798 -1349,-832 -259,-30 -273,110 -592,-31 -172,-309 -4,-557 -373,-694 -279,-103 -147,43 -375,-190 -168,-171 -6,-132 -290,-233 -523,456 -43,650 272,933 140,126 278,346 391,432 325,251 285,-75 647,113z"/>
   <path class="fil3" d="M7004 24565c257,192 339,136 686,170 672,65 446,410 1311,-85 508,-291 428,-95 601,-22 266,-122 61,-177 358,-227 169,-29 264,67 480,100 736,-709 446,152 915,-151 174,-112 193,-296 439,-322 290,-31 298,149 466,306 520,-20 1153,-328 1235,-792 -649,-434 -2453,401 -3169,499 -1615,220 -2103,24 -2769,61 -368,20 -529,136 -552,462l-1 -1z"/>
   <path class="fil3" d="M35145 25110c-264,-194 -1679,-493 -2018,-637 -247,-104 -411,-173 -694,-250 -266,-72 -2725,-1273 -2650,-349 21,255 247,358 440,447 711,328 860,-172 1380,392 263,285 362,141 763,182 317,32 380,173 606,292 422,223 339,44 653,-40 399,-108 930,394 1519,-37l1 0z"/>
   <path class="fil3" d="M29664 22430c338,19 329,-88 588,-221 227,53 248,110 260,113 422,125 156,-231 694,284l140 -157c479,-568 707,322 1487,191 125,-21 1308,-545 1369,-1074 -766,32 -1333,154 -2179,122l-1635 -50c-232,-22 -261,-71 -476,-124 -171,280 -325,531 -247,916l-1 -1z"/>
   <path class="fil6" d="M29363 11140c218,-481 628,-1487 487,-2070 -383,-165 -732,-258 -1248,-175l-425 1541c-188,737 599,732 1187,704l-1 0z"/>
   <path class="fil6" d="M15462 3036c11,-242 3,-454 -62,-629 -446,-134 -1477,71 -1993,136 -337,42 -679,85 -1016,141 -336,56 -720,62 -680,473 51,529 1061,304 1771,208 527,-71 1591,-161 1980,-329l1 0z"/>
   <path class="fil6" d="M4220 4669c-22,528 26,736 565,638 367,-66 691,-185 1007,-297 669,-237 1400,-352 2042,-545 82,-1120 -913,-570 -1631,-409 -619,139 -1438,399 -1983,613l0 -1z"/>
   <path class="fil6" d="M19686 2136c-44,457 -56,656 406,697 356,32 792,-8 1163,2 458,12 1924,295 2128,-68 423,-752 -1022,-636 -1482,-667 -570,-38 -1717,-85 -2216,37l1 0z"/>
   <path class="fil6" d="M27424 2647c-115,377 -155,647 262,767 1050,304 1780,133 2086,293 1133,593 1669,-279 913,-565 -244,-92 -2804,-580 -3261,-496l1 0z"/>
   <path class="fil6" d="M30714 11387c346,-436 592,-1363 496,-2021 -341,-113 -622,-214 -1025,-201 -178,456 -867,1886 -383,2153 183,101 683,119 911,70l0 -1z"/>
   <path class="fil6" d="M35041 9161c298,-532 1228,-2935 1000,-3472 -532,-186 -508,117 -661,557l-667 2130c-148,485 -365,802 328,785l1 0z"/>
   <path class="fil6" d="M35323 9338c550,88 456,-361 896,-1505 112,-290 634,-1646 420,-1861 -353,-353 -710,1034 -844,1445 -137,424 -611,1519 -472,1921z"/>
   <path class="fil3" d="M12668 27258c250,-13 434,-151 876,-190l107 -1526c-601,50 -1256,693 -1274,1209 -11,329 123,350 291,507l1 0z"/>
   <path class="fil4" d="M13168 43512c135,215 221,209 372,329 247,-478 535,-714 876,-969 278,-208 57,-98 228,-363 434,4 711,133 733,-499 21,-607 -155,-192 -335,-745l-57 -206c-462,452 381,568 -1258,1874 -173,138 -462,433 -559,578l0 1z"/>
   <path class="fil8" d="M35909 9499c265,-10 176,63 310,-233 307,-674 1007,-2519 995,-3111 -488,7 -520,589 -860,1552 -131,370 -632,1492 -446,1793l0 -1z"/>
   <path class="fil8" d="M34144 8878c572,-26 760,-1756 1019,-2443 110,-291 326,-505 158,-887 -379,-2 -263,3 -484,707 -223,710 -850,2280 -693,2624z"/>
   <path class="fil6" d="M31516 8181c199,-293 234,-533 142,-971 -355,-258 -1053,-477 -1189,198 -66,328 -91,580 232,693 208,73 594,121 815,80l0 1z"/>
   <path class="fil4" d="M15132 29202c-248,-505 -491,-976 -715,-1613 -280,-795 -211,-1216 -290,-2044 -137,799 -396,1259 -106,2165 172,535 618,1312 1111,1492z"/>
   <path class="fil7" d="M19781 11872c-512,41 -444,437 -446,902 -2,415 -158,1030 162,1094 709,143 422,-1645 284,-1996l0 -1z"/>
   <path class="fil6" d="M32791 8476c266,-607 119,-1229 -559,-1150 -565,65 -614,1551 559,1150z"/>
   <path class="fil4" d="M27152 29098c550,-325 1228,-1903 1238,-2830 4,-388 -144,-998 -137,-1114 -51,348 -60,769 -122,1108 -58,312 -242,454 -314,904 -135,849 -434,1205 -664,1933z"/>
   <path class="fil7" d="M19075 11917c-442,-55 -459,361 -473,787 -10,308 -133,999 175,1115 553,208 551,-1578 298,-1902l-1 0z"/>
   <path class="fil6" d="M26485 5370l425 58c153,-391 378,-1138 245,-1618 -989,-148 -775,1248 -671,1559l1 0z"/>
   <path class="fil4" d="M18797 26950c233,778 811,878 1537,779 -1056,-356 -512,-1342 -1174,-1651 -83,227 17,211 -86,460 -71,172 -184,262 -277,412l0 1z"/>
   <path class="fil6" d="M33784 8767c332,-190 335,-658 263,-805 -88,-178 -619,-295 -820,-189 -164,86 -317,529 -194,779 117,239 526,326 752,214l0 1z"/>
   <path class="fil3" d="M13009 29050c342,-13 -18,-7 811,-532l-202 -824c-260,28 -626,190 -739,418 -140,283 -85,696 130,937l0 1z"/>
   <path class="fil4" d="M30749 44398c422,212 955,140 1261,-71l69 -1121c-554,-179 -382,234 -636,611 -269,401 -385,317 -694,581z"/>
   <path class="fil7" d="M21460 11953c-247,222 -199,608 -213,1025 -8,254 -142,1157 294,910 253,-143 438,-1819 -81,-1935z"/>
   <path class="fil7" d="M20915 13890c155,-142 136,-100 184,-391 70,-424 53,-1242 -89,-1563l-258 11c-154,308 -112,683 -115,1103 -3,495 -219,806 278,841z"/>
   <path class="fil7" d="M20233 13853c408,-183 374,-1186 286,-1567 -72,-313 -34,-329 -298,-386 -206,247 -226,1182 -200,1562 20,301 31,301 212,392l0 -1z"/>
   <path class="fil2" d="M22622 32471c280,181 390,23 629,-122 368,-224 201,-53 652,-93 45,-265 87,-573 -132,-865 -170,-226 20,-125 -266,-157 -230,359 16,348 -380,652 -536,411 -490,296 -502,586l1 0z"/>
   <path class="fil7" d="M22073 13906c370,-107 266,-424 288,-859 20,-401 70,-859 -158,-1073 -482,95 -462,1664 -130,1931z"/>
   <path class="fil2" d="M19403 33159c397,51 477,36 580,-332 80,-288 103,-517 -60,-782 -232,79 -20,-30 -213,182l-90 112 -317 -284c-434,344 -131,809 100,1105l1 0z"/>
   <path class="fil2" d="M20230 32676c13,136 181,577 223,659 340,9 482,-216 649,-471 203,-310 652,-842 154,-800 -157,13 -64,2 -146,44 -457,236 -5,323 -778,531l-101 37z"/>
   <path class="fil7" d="M25553 13858c826,77 427,-1429 366,-1573 -422,12 -374,220 -424,631 -41,335 -52,682 59,941l-1 1z"/>
   <path class="fil7" d="M23096 13862c286,20 390,-27 422,-812 7,-168 8,-447 -19,-609 -43,-267 -47,-285 -277,-343 -176,276 -340,1368 -127,1764l1 0z"/>
   <path class="fil8" d="M30665 12363c17,-353 30,-544 -286,-671 -240,-96 -571,-125 -842,-41 -281,674 593,757 1129,712z"/>
   <path class="fil7" d="M24391 13884c344,-107 286,-304 284,-839 -2,-378 76,-575 -60,-881 -269,32 -293,-22 -422,757 -36,215 -59,561 32,765 102,228 -12,83 167,199l-1 0z"/>
   <path class="fil7" d="M22687 13883c148,-90 33,70 146,-146l143 -759c15,-175 -2,-361 -27,-538 -40,-286 -24,-291 -194,-412 -266,119 -215,358 -264,890 -36,386 -133,810 196,965l0 1z"/>
   <path class="fil4" d="M25549 42947c461,-184 919,-778 70,-854 -251,-23 -440,-81 -663,-61 59,650 79,586 593,916z"/>
   <path class="fil7" d="M18188 13729c383,-71 335,-394 341,-817 5,-334 80,-791 -205,-963 -327,208 -165,302 -236,867 -47,371 -140,641 100,913l0 -1z"/>
   <path class="fil7" d="M27049 13815c321,-103 338,-368 365,-698 37,-441 52,-722 -436,-662 -115,239 -410,1126 70,1361z"/>
   <path class="fil10" d="M33842 5028c598,277 1296,-355 973,-698 -152,-161 -1249,-43 -973,698z"/>
   <path class="fil7" d="M23914 13860c246,-214 149,-547 151,-949 8,-1997 -785,157 -351,811 150,226 -35,70 200,139l0 -1z"/>
   <path class="fil7" d="M24947 13855c585,-32 427,-1333 287,-1628 -373,59 -373,252 -373,680 0,334 -38,708 86,947z"/>
   <path class="fil8" d="M33712 6876c361,111 392,-160 511,-490 414,-1153 -136,-1274 -382,-380 -128,467 -287,515 -129,871l0 -1z"/>
   <path class="fil7" d="M26367 13827c224,-83 270,-127 325,-658 30,-295 -2,-593 -188,-788 -325,39 -334,292 -340,595 -2,130 -19,377 -13,483 14,255 43,268 217,368l-1 0z"/>
   <path class="fil7" d="M17573 13660c372,11 280,46 387,-781 44,-343 79,-802 -248,-895 -256,203 -139,467 -148,790 -11,365 -148,541 10,886l-1 0z"/>
   <path class="fil7" d="M17098 13620c160,-77 164,-37 235,-276 89,-300 134,-1177 -166,-1353 -289,214 -406,1361 -68,1629z"/>
   <path class="fil8" d="M28152 11815c270,168 1158,550 1057,-248 -143,-118 -378,-223 -667,-235 -404,-17 -413,118 -390,482z"/>
   <path class="fil7" d="M14898 13345c350,142 476,-121 500,-500 22,-351 16,-731 -375,-718 -209,266 -239,925 -125,1218z"/>
   <path class="fil4" d="M18048 20944c958,-207 732,-64 1634,91l2 -526c-671,-3 -640,231 -1285,-84 -176,169 -268,221 -351,519z"/>
   <path class="fil7" d="M16459 13553c463,-95 436,-680 362,-1119 -48,-291 -37,-236 -201,-345 -274,265 -281,1046 -161,1464z"/>
   <path class="fil7" d="M27646 13729c350,-11 374,-85 426,-413 34,-214 110,-666 -151,-736 -428,-115 -445,854 -275,1148z"/>
   <path class="fil2" d="M21496 34993l-4 300c341,62 352,-61 718,-88 350,-26 428,-66 398,-466 -371,-59 -863,23 -1112,254z"/>
   <path class="fil10" d="M26327 3544c549,130 712,-242 631,-757 -604,-179 -727,236 -631,757z"/>
   <path class="fil7" d="M28678 12726l-219 -21c-212,216 -374,939 25,967 392,28 413,-680 194,-946z"/>
   <path class="fil8" d="M30878 12427c934,644 1221,-604 155,-448 -143,194 -151,199 -155,448z"/>
   <path class="fil6" d="M28823 8208c150,280 773,377 1117,307 98,-355 -170,-377 -443,-439 -311,-69 -541,-142 -674,131z"/>
   <path class="fil7" d="M14508 13270c292,-227 274,-742 136,-1031 -338,-50 -307,59 -371,438 -61,358 -61,501 235,593z"/>
   <path class="fil2" d="M20795 34456l22 348c306,94 310,82 530,-58 116,-73 322,-179 319,-371 -7,-367 -511,-106 -871,80l1 1z"/>
   <path class="fil2" d="M20156 37318c350,106 242,59 523,-103 253,-146 392,-122 254,-466 -125,-145 -338,-36 -499,82 -277,202 -307,86 -278,487l1 0z"/>
   <path class="fil4" d="M30356 44371c-135,-328 41,-349 196,-587l-205 -371c-148,93 -50,12 -145,116 -299,329 -538,790 154,842z"/>
   <path class="fil2" d="M20377 35390c-783,256 -413,686 1,496 528,-242 552,-676 -1,-496z"/>
   <path class="fil7" d="M16076 13395c406,-221 184,-1127 130,-1222 -283,116 -351,946 -130,1222z"/>
   <path class="fil7" d="M15599 13374c139,-81 80,29 155,-172 77,-208 76,-785 -43,-1020 -316,169 -365,972 -112,1192z"/>
   <path class="fil2" d="M18193 32602c450,-199 474,-338 470,-461l-335 -170c-123,1 -264,25 -385,50 -43,361 71,411 250,581z"/>
   <path class="fil8" d="M36248 5274c109,-297 183,-430 -23,-650 -289,-40 -410,32 -442,326 -35,331 171,347 466,325l-1 0z"/>
   <path class="fil11" d="M13895 13201c318,-140 296,-505 220,-715 -79,-218 -89,-147 -152,-200 -207,110 -216,192 -244,445 -33,292 -13,352 176,470l-1 -1z"/>
   <path class="fil2" d="M20921 31570c179,25 335,34 517,-11 263,-65 230,-55 236,-315 -117,-83 -271,-148 -550,-74 -274,73 -248,107 -202,400l-1 0z"/>
   <path class="fil8" d="M30435 8481c80,259 79,202 360,278 238,64 309,131 541,-5 1,-116 109,-328 -608,-350 -5,0 -128,4 -129,4 -147,25 -67,14 -163,74l0 -1z"/>
   <path class="fil2" d="M26283 22929c-118,269 -15,706 386,710l1 -671c-235,-125 -145,-170 -388,-39z"/>
   <path class="fil10" d="M32011 12297c-195,427 -8,517 420,482 194,-581 -170,-634 -420,-482z"/>
   <path class="fil7" d="M13103 12843c-1,214 135,217 346,227 60,-146 144,-350 86,-550 -94,-320 14,-32 -117,-170 -179,43 -313,135 -315,493z"/>
   <path class="fil2" d="M18778 34770c-205,509 589,359 648,298 189,-195 -247,-482 -648,-298z"/>
   <path class="fil2" d="M19728 34475c804,206 574,-991 65,-397 -106,124 -95,235 -65,397z"/>
   <path class="fil2" d="M21940 32728c-494,214 -271,540 114,419 392,-124 307,-601 -114,-419z"/>
   <path class="fil12" d="M29084 13533c257,5 299,32 341,-226 34,-210 -48,-347 -110,-458 -350,96 -367,373 -230,685z"/>
   <path class="fil2" d="M19070 33621c6,-361 -223,-558 -575,-501 -88,335 242,549 575,501z"/>
   <path class="fil8" d="M31799 8725c43,274 51,373 702,374 -4,-257 39,-245 -216,-334 -134,-46 -356,-83 -486,-40z"/>
   <path class="fil2" d="M20438 38392l-46 251c894,367 683,-674 46,-251z"/>
   <path class="fil13" d="M33260 12979l146 174c452,2 490,-351 116,-520 -209,102 -207,117 -263,346z"/>
   <path class="fil8" d="M36635 5436c16,8 35,8 46,28l220 30c100,-208 180,-313 31,-569 -221,7 -179,-38 -283,148 -86,155 -56,242 -13,364l0 -1z"/>
   <path class="fil14" d="M29708 13445c476,70 456,-293 287,-425 -326,-107 -356,95 -287,425z"/>
   <path class="fil8" d="M32953 9067c64,373 164,319 565,295 -17,-191 -11,-215 -190,-286 -119,-47 -277,-62 -376,-9l1 0z"/>
   <path class="fil4" d="M30925 42951c-308,1020 966,80 0,0z"/>
   <path class="fil11" d="M12670 12918c308,130 406,-266 134,-490 -1,1 -380,55 -134,490z"/>
   <path class="fil15" d="M37308 5246l-65 371c350,-13 398,-145 455,-433 -277,-50 -166,-89 -390,62l0 -1z"/>
   <path class="fil2" d="M16259 23408c550,37 437,-472 50,-460l-50 460z"/>
   <path class="fil4" d="M21522 21419c403,-9 385,-181 211,-415 -104,68 -30,-86 -160,136 -59,101 -55,130 -51,279z"/>
   <path class="fil16" d="M12292 12810c56,-200 92,-92 -33,-298 -269,101 -299,335 33,298z"/>
  </g>
 </g>
</svg>
