<?xml version="1.0" encoding="UTF-8"?>
<svg width="540" height="670" viewBox="0 0 142.88 177.27" xml:space="preserve" xmlns="http://www.w3.org/2000/svg"><path d="M140.03 58.07c0 63.566-23.411 98.886-68.595 116.15C26.486 156.89 2.839 121.634 2.839 58.07V2.97h137.19z" fill="#0093dd"/><path d="M2.84 2.97v55.1c0 63.558 23.642 98.814 68.583 116.15V2.97z" fill="#fff" stroke="#000" stroke-width="1.058"/><path d="M140.03 58.07c0 63.566-23.411 98.886-68.595 116.15C26.486 156.89 2.839 121.634 2.839 58.07V2.97h137.19z" fill="none" stroke="#001400" stroke-width="2.381"/><g fill="#f00000" stroke="#000" stroke-miterlimit="9" stroke-width="4.542"><path d="m37.535 127.664-9.683-3.076 9.683-3.073-2.179-9.925 7.506 6.849 7.504-6.849-2.18 9.925 9.685 3.073-9.684 3.076 2.179 9.923-7.504-6.849-7.506 6.849zM53.905 81.032a12.022 12.022 0 0 1 1.652 6.086c0 6.817-5.684 12.343-12.695 12.343s-12.695-5.526-12.695-12.343c0-2.214.603-4.29 1.652-6.086a16.495 16.495 0 0 0-5.026 11.9c0 9.053 7.194 16.391 16.069 16.391s16.069-7.338 16.069-16.39c0-4.688-1.933-8.913-5.026-11.9z" stroke-width="1.05842226"/><path d="m37.535 77.52-9.683-3.074 9.683-3.074-2.179-9.925 7.506 6.849 7.504-6.849-2.18 9.925 9.685 3.074-9.684 3.073 2.179 9.925-7.504-6.849-7.506 6.849zM53.905 30.89a12.022 12.022 0 0 1 1.652 6.085c0 6.817-5.684 12.343-12.695 12.343s-12.695-5.526-12.695-12.343c0-2.214.603-4.29 1.652-6.086a16.495 16.495 0 0 0-5.026 11.9c0 9.053 7.194 16.391 16.069 16.391s16.069-7.338 16.069-16.39c0-4.688-1.933-8.914-5.026-11.9z" stroke-width="1.05842226"/><path d="m37.535 27.376-9.683-3.073 9.683-3.076-2.179-9.923 7.506 6.85 7.504-6.85-2.18 9.923 9.685 3.076-9.684 3.073 2.179 9.925-7.504-6.849-7.506 6.849z" stroke-width="1.05842226"/></g><path fill="#fcdb00" stroke="#000" stroke-miterlimit="20" stroke-width="1.0584126" d="M82.48 120.442h43.035v-24.64l-21.517-12.946L82.48 95.801z"/><path fill="#fcdb00" stroke="#000" stroke-miterlimit="20" stroke-width="1.0584126" d="M96.487 70.238h15.021v50.73H96.487z"/><path d="M104.44 79.186c-.899 0-2.38 2.484-2.38 4.273v5.47h4.762v-5.47c0-1.79-1.481-4.273-2.38-4.273z"/><path fill="#fcdb00" stroke="#000" stroke-miterlimit="20" stroke-width="1.0584126" d="m103.998 17.634-7.51 52.606h15.02z"/><path d="M103.997 106.703c-1.467 0-3.882 2.977-3.882 5.122v9.143h7.765v-9.143c0-2.145-2.416-5.122-3.883-5.122z"/><g fill="none" stroke="#000" stroke-width="3"><path d="M102.354 53.418v-8.873M101.125 65.54v-7.554M105.64 53.418v-8.873M103.997 39.801v-8.87M106.87 65.54v-7.554M82.48 116.685h13.975M82.48 111.638h14.007M82.48 106.59h14.007M82.48 101.543h14.007M82.48 96.493h14.007M89.721 91.445h6.766M85.982 111.638v5.047M92.985 111.638v5.047M89.484 106.59v5.048M85.982 101.543v5.047M92.985 101.543v5.047M85.982 93.661v2.832M92.985 91.445v5.048M89.484 96.493v5.05M125.514 116.685h-13.973M125.514 111.638h-14.006M125.514 106.59h-14.006M125.514 101.543h-14.006M125.514 96.493h-14.006M118.273 91.445h-6.765M122.012 111.638v5.047M115.01 111.638v5.047M118.51 106.59v5.048M122.012 101.543v5.047M115.01 101.543v5.047M122.012 93.661v2.832M115.01 91.445v5.048M118.51 96.493v5.05" stroke-width=".679"/></g></svg>
