<?xml version="1.0" encoding="UTF-8"?>
<svg width="540" height="670" version="1.1" viewBox="0 0 142.88 177.27" xml:space="preserve" xmlns="http://www.w3.org/2000/svg"><path d="m1.5254 1.6875v56.422c0 31.946 5.9447 56.911 17.637 76.102 11.692 19.191 29.124 32.538 51.807 41.283l0.47461 0.18359 0.47461-0.18164c22.802-8.7122 40.236-22.061 51.898-41.262 11.663-19.2 17.547-44.18 17.547-76.125l-0.00195-56.422z" color="#000000" style="-inkscape-stroke:none"/><path d="m4.1679 4.3891v53.777c0 31.618 5.881 56.064 17.25 74.725 5.9052 9.6926 13.3 17.838 22.161 24.633 0.02898-2.7078 1.5942-6.9578 2.6154-9.5455 1.226-3.2829 3.0277-6.1417 4.8929-9.0876 1.871-3.0389 4.5553-5.6248 7.2804-7.9083 1.8187-1.534 3.9917-2.1962 5.9905-3.3932 1.9581-1.3945 3.7188-3.1376 5.3167-4.9389 1.0226-1.6095 3.5737-1.3076 4.9275-0.39534 2.1731 2.4288 3.7125 5.0146 6.6236 6.7693 0.58104 0.42416 1.5667 1.2328 3.4804 2.9628-0.69748-1.6564-1.7661-4.654-2.1031-5.572-1.412-3.864-2.9457-7.8089-4.7818-11.493-0.62753-1.4236-3.1321-1.0288-3.9746-2.3943-1.4701-1.8187-2.4637-4.5323-5.0784-4.91-0.34718-0.0399-0.68924-0.0528-1.0268-0.0424-2.3633 0.0729-4.4982 1.297-6.4861 2.5121-1.1447 0.73502-2.8073 2.744-3.3058 3.7122-0.51222-0.35732-0.54847-1.4639-0.88249-1.6932-1.7199 0.79023-6.4682 2.9489-8.2346 3.6113-1.9523 0.71469-4.1311 0.78438-6.066 1.5281 0.01162 0.62172-0.12225 1.633 0.72608 1.7317 2.0685 0.71468 4.8462 0.68559 6.1885 2.6263 1.104 1.3016 0.81887 3.1664 0.63874 4.7353-0.26147 1.4584-0.65609 3.3585-1.8589 4.3405-0.56943-0.0174-0.84236-0.10422-1.3595-0.25529-0.26147-1.2028-0.58753-2.458-0.90711-3.6433-1.7896-1.1563-3.8231-1.883-5.5895-3.109-0.85414-0.45322-2.2832-1.3221-2.959-2.0587-2.0754 2.2183-4.2868 3.796-6.2681 5.086-1.6037 1.0749-3.4831 1.9047-5.1187 2.4578-0.85995 0.75535-0.69503 1.9639-1.4171 3.6791-3.553-3.629-1.753-8.1139-0.25055-10.547 2.3591-0.97034 6.0238-2.1753 8.1113-4.2778-2.4799-0.54765-5.8916-0.42298-7.5418-0.4869-1.871 0.13364-3.4865-0.55779-5.2877-0.88318-1.486-0.27518-3.0608 0.26072-4.5947 0.73848-1.3032-2.9411 1.6428-5.3127 3.787-6.5027 2.0802-0.4416 5.4734 1.5788 8.6539 1.3659-1.3278-1.5074-3.6684-3.7367-4.9583-4.5328-1.1679-0.23823-4.1835-0.0125-5.363-0.19261 0.6783-2.0008 2.1093-3.0203 3.376-3.5897 1.5688-0.69145 3.2712-1.453 4.9911-1.6041 2.6031 0.47646 3.6081 3.2367 4.8283 5.2355 1.1447 2.1208 3.2194 3.5967 5.6365 3.8175 2.4811-0.0697 5.0726-1.255 7.391-2.08 2.1615-0.84253 7.1888-2.3745 9.0772-3.7109-2.34-0.28797-5.7129-0.80394-7.4793-1.6523-6.1243-2.7832-10.471-8.4776-12.383-14.834-0.79604-4.8169-0.31916-9.8663 1.8656-14.282 1.4294-2.9692 3.9742-5.45 6.6412-7.3326 2.2545-1.5863 4.7124-2.3363 7.2458-3.3183 4.8227-2.1731 10.912-1.8999 16.13-2.08 3.5444 0.02324 9.0296 0.26164 11.778-2.417 1.2376-3.5502 0.66816-7.8673-0.54624-11.359-0.7205-2.2661-2.1613-3.9224-3.6836-5.6887-1.534-1.6909-4.429-4.072-6.4278-5.1934-4.6834 1.5791-8.9779 3.2149-13.45 3.4157-2.5799 0.02324-3.6047-0.49065-4.5983-1.0235-4.0092 1.441-10.666 4.0853-14.716 5.4043-2.8065 0.88319-5.9267 2.5917-8.8959 2.4697-1.0924-0.01162-1.3626-1.2598-1.7519-2.0674 2.6417-0.9741 6.8931-2.4427 10.367-3.9805 2.0379-1.1776 10.311-4.5438 11.003-5.0087-3.1202-0.10459-19.978 3.654-22.999 4.4733-1.0168 0.27309-2.0048 0.52304-3.0681 0.40102 0.0523-2.301 1.7081-3.4922 3.5152-4.5498 5.9325-3.2132 15.564-4.464 21.595-6.8463 0.60471-1.5708 0.2003-3.1073 2.5477-4.4728 3.6839-1.9814 7.5417-1.8474 11.417-2.5911 2.0453-0.37768 6.3246-1.4329 8.3641-2.4232-0.78502 2.7769-1.3935 3.3246-2.204 4.517 2.2072-0.15672 6.6986 1.3051 8.7671 2.2812 5.4967 2.3997 10.866 6.6239 13.492 12.121 0.84252 1.6444 3.2725 8.8323 4.0893 13.043 0.3885-7.142-0.3962-11.103-0.66717-14.6-0.52148-6.7302-2.0221-13.242-4.5554-19.465-0.76699-1.9523-1.5256-3.4176-2.5844-5.9099 2.5973-1.197 5.5421-0.10413 7.4189 1.7204 1.7445 1.9437 2.6362 3.743 4.0478 6.273 2.0845 0.697 4.9355 2.833 5.5648 6.1158 0.29537-4.7466-0.41836-11.341-0.40301-16.968 1.3794-0.22101 3.1323-0.26196 4.1549 0.54624 1.2667 1.0575 2.2544 2.487 3.0795 3.9048 0.9413 1.6386 0.97593 3.6487 1.6325 5.4035 1.1156 1.8942 2.8123 3.0334 3.5038 5.2588 1.4817 5.3108 0.18684 12.753-0.53089 18.085 1.3711-2.0948 2.5698-6.516 3.2845-8.6194 1.1679-4.1719 1.8652-8.7971 3.6722-12.76 0.91193-0.09623 2.0396 0.49972 2.8821 1.3829 1.3597 1.8071 2.121 4.1195 2.5219 6.3275 0.37187 2.4055-0.97613 4.9101-0.83668 7.2634 0.61592 2.638 1.6736 4.8048 1.017 7.6055-1.7373 6.1591-7.0448 15.595-10.764 20.385 2.8674-2.5028 7.266-6.492 9.7703-8.6535 1.8536-1.6328 3.8026-3.4742 5.8815-5.1322 0.67402 1.4817 1.1259 3.6156 0.84701 5.2541-0.56943 3.1086-3.4575 7.2065-5.554 9.6622 0.19281 1.2728 0.29117 1.7767 0.23772 3.5282-0.52294 1.749-2.5872 4.5055-5.8264 7.6726 1.9639-0.92968 7.7476-3.9731 9.7542-5.4128 1.8768 1.7431 1.8304 4.4393 0.56951 6.5311-1.0168 1.9872-3.8506 3.8221-5.4056 4.6189-0.56593 1.4614-1.6837 3.1106-3.1112 4.7738 1.7141 0.13364 4.4028-0.2063 6.0936 0.17138 0.31959 1.0633 0.50557 2.1211 0.0698 3.1844-0.69146 1.8535-3.1212 2.9428-5.0034 3.7969-1.0489 1.2858-2.2421 3.1348-4.1654 3.4602-2.2719 0.36025-6.0256 0.13181-8.5867-0.65325 0.52686 2.0572 1.2303 4.3257 1.945 5.9875 0.80765 1.7083 2.2253 3.1666 2.9632 4.8981-1.8594 2.9808-6.6203 2.4336-8.5827 1.5911-0.2301 1.1212-1.411 3.098-2.4278 4.202-1.0343 1.0924-2.5709 1.7844-4.1539 2.0335-0.46223-2.6315-0.61867-6.9391-1.7104-8.9013-0.39264 1.4808 0.05045 2.2085-2.2782 4.0762-0.90578-1.1366-3.4611-5.7426-6.6119-7.4812 0.93086 2.0791 1.7074 5.6463 1.8895 7.2743-1.2028 0.41255-2.7782 0.82484-3.9392 0.35171 1.6159 3.1474 2.4913 14.569 6.8636 22.504 2.8007 0.26147 6.6225-0.39252 9.0861-1.5779 1.6444-0.84252 3.5096-0.5345 5.0784 0.33126 1.4352 1.4003 2.2186 5.6534 1.1146 7.3733-1.1618-0.66005-1.7942-0.95322-2.9551-1.7203-1.9 0.31376-5.5275 0.88997-7.445 1.0585-1.2783 0.13946-2.4169 0.18594-3.3989 1.1214 0.24404 2.6728 1.8211 5.238 2.5939 7.8062 1.3715 4.0734 2.4072 7.8679 2.6809 10.305 9.4845-6.9922 17.328-15.47 23.517-25.659 11.339-18.667 17.161-43.132 17.161-74.752v-53.777z" fill="#f00000"/><path d="m100.27 11.432c-0.13448 0.0045-0.26771 0.035-0.39844 0.09819 0.0055 4.0563 0.05834 6.0315 0.44185 9.0297 0.21495 4.6426 0.22662 9.3085 0.19172 13.951-0.5055 9.1922-2.3241 18.181-4.8459 27.019-0.60429 2.1441-1.1369 3.932-1.7368 6.4224 1.1374-1.0451 1.8623-1.9024 2.8443-2.9775 4.4477-4.6846 7.8538-10.563 9.6013-15.99 1.8187-6.7866 3.5442-14.253 2.7772-21.296-0.20337-1.4759-0.5755-3.0566-1.3715-4.3291-0.66821-0.88319-1.6906-1.5281-2.4692-2.3183-0.552-2.8529-0.44185-5.456-2.493-7.7802-0.59993-0.59485-1.6002-1.8612-2.5415-1.8299zm-16.808 2.3064c0.9053 1.8067 2.3716 4.1139 3.0108 6.1011 1.9639 5.6245 3.2057 11.657 3.6588 17.588 0.50729 6.6409 1.1409 13.701-0.11421 20.244-0.36025 2.3591-0.97505 4.7257-1.464 6.9554 1.6131-0.93162 3.2158-1.6699 4.465-2.6924 0.46231 0.18745 0.96823 1.1381 0.93528 1.9288 1.3832-3.8066 2.4381-9.1378 3.4026-12.961 1.1389-7.1876 2.4637-15.154 0.28475-22.219-0.32593-4.4994-5.1198-6.2777-5.9389-6.844-1.3306-2.0511-2.6723-5.2364-4.4852-6.9504-1.1259-0.93366-2.478-1.2627-3.7549-1.1504zm-20.764 9.27c-3.37 1.2341-5.5334 1.728-8.3925 1.9441-2.7251 0.31376-6.2405 0.59817-8.4427 2.3762-0.99359 0.97616-1.1729 2.743-1.8237 3.9632-2.0569 1.0401-4.4688 1.4181-6.6536 2.156-5.5258 1.8303-10.82 2.1902-16.107 4.8107-0.82509 0.40092-1.3769 1.0397-1.9405 1.7369 8.4252-1.8071 16.996-2.9682 25.444-4.6707 0.6101-0.08135 1.2262-0.1283 1.8537-0.14573-0.03486 0.47064-0.08712 0.93008-0.16847 1.3891-7.6512 3.4349-15.873 6.5664-22.339 9.3217 0.7888 0.71004 2.5067 0.41426 3.4015 0.08889 6.9171-2.5958 14.474-4.7739 20.373-7.5926 0.83469 0.32932 3.3111 0.77199 4.9859 0.68009 4.4524-0.24432 9.0492-2.1724 12.977-3.2474 2.3919-0.10433 8.4614 5.3879 9.6079 7.0767 2.5624 3.8988 3.9807 8.4424 3.6263 13.131 0.11621 3.7477-1.8308 6.984-4.6314 9.314-0.49389 0.04648-0.98773 0.08774-1.4816 0.11679 0.45902-0.80765 0.95864-1.587 1.4118-2.4005-4.5089 0.92967-9.175 0.90137-13.754 1.3023-4.6251-0.11621-9.0935 0.19138-13.382 2.0682-4.5728 1.8303-8.4372 5.1601-10.86 9.454-2.0162 4.1777-2.8874 9.3959-1.2604 13.847 2.086 6.804 7.4727 12.37 14.486 13.962 2.165 0.28189 3.7197 0.1443 5.727-0.25787 2.0931-0.4466 3.3716-2.0076 5.1787-3.1116 0.0058 0.63334-0.04555 1.2661-0.1385 1.8878-0.92967 1.2783-2.4413 2.1142-4.2881 2.8062 0.91224 0.21499 2.3237 0.50543 3.236 0.71461 0.1685 1.04-1.0288 2.9897-1.2434 5.4035 2.7731-2.9791 6.3049-4.5602 9.4716-5.6758-2.6438-2.0337-5.2532-3.4571-6.6071-6.7109-0.7205-1.2783-0.61607-2.307-0.27906-3.6609 0.93548 2.0918 1.4528 4.2826 3.2134 5.8805 2.7542 2.3822 6.0491 3.7476 8.5941 6.5192 1.2492 1.2782 1.9693 2.8062 2.8816 4.311 1.1156-2.022 0.7551-3.9746 0.67957-6.1652 2.911 2.0976 5.7415 3.9286 9.4137 4.2831-1.0459-1.8245-2.3595-3.7135-3.6319-5.3869-0.88319-1.226-1.8109-2.1923-3.0733-3.5849 1.3007 0.12724 3.4457 1.339 4.6707 2.5627 0.59848 0.70307 1.1274 1.2931 2.0056 2.3358 0.15688-1.8535-0.83679-3.0157-1.4759-4.6252 4.1487 0.38349 7.2802 5.0491 9.2964 8.268 1.9891-1.4655 0.80545-4.9898 0.6324-5.9818 0.95873 0.74956 2.2905 1.8735 2.8657 2.9658 1.2376 2.2022 0.69736 5.0443 1.3075 7.5952 1.6676-0.1104 2.7311-1.8418 3.4283-3.1782 0.41254-1.4933 0.36005-3.2193 0.10439-4.7358-0.47066-1.4003-1.3541-2.6558-1.8248-4.0619 0.63335-0.70887 1.2785-0.65055 1.755 0.18035 1.5281 1.8129 1.6324 4.4505 3.1663 6.1471 1.3422 0.45321 4.021 0.68536 5.0879-0.54842-1.2046-1.8242-2.3568-3.6754-2.903-5.7672-0.71469-2.359-1.0233-4.5212-3.3358-5.8867-3.3759-1.6386-6.6578-3.4566-9.993-5.1823-0.98197-0.54038-1.9409-0.35419-3.0216-0.46459-0.3893-1.2725-0.54598-2.7658-1.2026-3.9105-0.80765-1.2609-1.9529-2.1967-3.0278-3.2077 1.656-0.07554 4.2765 0.68006 5.4619-0.72608-0.53456-2.7135-3.6317-3.3119-4.4045-5.5606 1.4991-0.10458 3.1031 0.09838 4.5673-0.24444 0.14526-2.7193-3.0567-2.6498-4.8986-3.2599 0.99544-0.62585 2.1501-1.2436 2.8532-1.7839 2.574-1.6734 3.1316-5.3396 3.0154-8.1693-2.5682 1.4352-4.8685 3.1204-7.7621 3.9281-8.0184 2.3068-16.154 3.823-24.387 5.0955-3.527 0.69145-7.4141 1.5053-8.9481 5.2066-1.6153 3.004 0.49123 6.2187 1.755 8.9135-1.6967-0.77279-2.3126-2.2489-3.0273-3.8526-0.87738-2.0801-0.98762-4.6372 0.27906-6.5895 1.7373-2.9459 5.3045-4.6019 8.5641-5.1539 6.438-1.1563 12.801-1.9346 19.158-3.6139 2.574-0.70887 5.4443-0.99947 7.8556-2.1441 1.3654-5.0551 1.9763-10.738 0.63409-15.863-0.97616-4.5786-3.4579-8.8843-6.0551-12.737-2.6844-3.0795-5.4326-6.1364-9.3372-7.56-4.8382-2.0347-9.0026-3.1042-12.579-2.8227 1.3336-0.79258 2.3154-1.9593 3.6557-3.5022zm55.134 0.45942c-1.2528 5.6952-3.0891 11.72-4.7704 16.557-1.6153 4.5206-4.1894 8.838-6.3451 13.178-1.6328 2.9285-3.0854 6.2344-5.2469 8.7677-1.3074 1.5863-2.7599 3.0567-4.1777 4.5384-2.1847 2.3126-4.5557 4.0382-6.1652 6.8505 0.85414 0.90062 1.755 1.772 2.7312 2.539 5.5083-1.6967 10.459-6.5658 14.428-10.592 6.1998-6.8157 11.17-13.572 12.425-22.886 0.22661-1.6792-1.0713-4.04-1.5768-5.6146 0.64496-3.2945 1.6503-6.1009 0.90075-9.5465-0.39512-1.3306-0.99509-2.8496-2.2025-3.7916zm-13.742 11.376c0.96139 3.6443-1.1291 14.813-2.4433 18.865s-2.0859 5.6463-4.0821 8.4049c1.7595-4.1599 3.1919-8.4317 4.1027-12.885 1.4003-4.3346 2.0392-9.9053 2.4227-14.385zm-10.385-1.3791c0.84833 0.889 1.3205 6.3692 1.3161 7.5365-0.01964 5.1394-0.44336 11.462-1.2202 14.619s-0.77478 4.4204-1.8165 5.1844c0.1821-0.85786 0.35192-1.7467 0.56434-2.5765 0.5578-2.667 0.52542-5.2815 0.92054-7.9776 1.076-6.3711 0.2229-13.283 0.23584-16.786zm33.263 19.734c-1.6577 1.8177-3.0984 2.5907-4.2314 3.8981-2.115 2.6554-4.8519 4.2996-7.2458 6.7109-2.5392 2.5276-5.636 3.8468-8.5006 5.9502-2.1906 1.319-4.4859 2.3879-6.5254 3.9684-2.8878 2.1266-6.1476 3.3878-9.2969 5.0205 0.74955 1.2609 1.6733 2.4868 2.7017 3.5327 1.0074 0.41625 1.8439 0.24714 2.8764 0.12196 5.3419-0.91553 10.803-2.4934 15.142-4.1255 2.975-1.1563 5.241-3.161 7.4432-5.4097 0.89481-0.97616 1.9524-2.2312 2.1441-3.5792 0.26148-1.3248-0.43591-2.4693-0.66252-3.7534 3.1377-3.3701 6.7069-7.3729 6.1549-12.335zm-0.30804 19.759c-1.6279 1.032-4.3769 2.8832-6.2711 3.778-2.8878 1.3771-5.9905 2.33-9.0468 3.2423-3.3119 0.87157-6.6007 2.1848-9.9475 2.8356-2.1789 0.37187-4.4684 0.3544-6.6241 0.83667-0.27891 0.23823-0.3428 0.58682-0.19173 1.0517 3.1783 1.6269 6.311 1.5596 9.7677 2.1441 4.3927 0.51714 8.1576 1.8306 12.417-0.32506 2.1906-1.133 2.8996-3.0969 4.3348-4.8924 2.7077-1.7722 5.27-2.9056 5.9905-6.4267-2e-3 -0.93187-0.0307-1.7302-0.42845-2.2442zm-35.933 11.733c-0.6101 1.0924 0.57497 2.51 1.1095 3.4397 2.3881 1.9465 5.5086 3.1205 8.1931 4.6138 3.5444 2.0162 7.6467 3.3987 11.731 3.5963 1.6153 0.03486 3.3931 0.12206 4.8748-0.59843 1.441-0.80766 1.6214-2.4923 3.3529-2.9281 1.3713-0.55781 4.1541-1.302 3.6428-3.295-4.3695-0.62753-8.9133 0.31413-13.335-0.27855-3.556-0.56362-7.141-1.0926-10.645-1.9235-3.1028-0.4997-5.8569-2.2312-8.9248-2.6263zm-64.745 19.193c-0.64404-5e-5 -1.2618 0.0816-1.8625 0.22377-0.0043 8.6e-4 -0.0086 2e-3 -0.01292 3e-3 -0.01841 3e-3 -0.03692 6e-3 -0.0553 0.0103-9.3e-4 1e-3 -0.0016 2e-3 -0.0026 3e-3 -1.266 0.40642-3.3326 0.97722-4.2397 2.155 1.1098 0.41835 2.8941 0.0513 4.0562 0.28372v-5.2e-4c2.2951 2.0162 4.5732 4.1251 6.4965 6.5016-0.49389 1.0575-1.8882 0.79602-2.847 0.85993-2.8529 0.093-5.2419-1.1737-7.9786-1.5281-1.534 1.3248-3.2652 1.911-3.8056 3.7994 0.87738-0.41835 1.7202-0.95224 2.6325-1.2951 1.656-0.23243 3.55 0.93559 5.113 1.3075 2.6902-0.0814 5.5606-0.33769 8.1579 0.38862 1.7838 0.22661 2.8582-0.88922 4.5317-1.2785-1.1272 3.8291-5.2465 5.2125-8.0065 7.6122-1.3728 0.15906-2.2427 0.51939-3.0387 1.0346-1.5169 1.4493-1.6068 4.3644-0.72572 6.9156 0.59535-2.6976 1.901-3.7361 4.2382-3.5935 1.2609-0.98779 5.4474-4.5251 6.7839-5.3154 0.91224-0.57524 1.3249-1.8308 1.9524-2.6966 0.79022 0.91225 1.1209 1.9008 2.3875 2.232 2.6554 0.86574 5.0553 2.1492 7.1238 4.0376 0.78441 0.99941 0.79587 2.4872 1.2956 3.6609 0.13944-1.7374 0.51762-3.4574 0.62221-5.1947 0.06973-1.3771-1.1684-2.2717-2.3653-2.6087-3.2074-1.0749-6.3161-1.1908-8.2509-4.3575 0.59266-1.1272 1.5865-0.94716 2.6614-1.2377 6.1267-0.98511 9.9965-2.5651 14.788-5.0789 1.2144-0.58105 1.8913-2.0185 1.4646-3.0685-0.3872-0.95273-1.7499-1.8348-2.8945-1.0678-3.0795 1.8071-6.1878 3.1781-9.5811 4.2821-2.574 0.81347-5.1537 1.8712-7.8091 2.3534-2.2022-0.2789-4.6133-1.1623-6.188-2.7834-1.6386-2.144-2.0513-4.7009-4.2361-6.5487v5.2e-4c-0.13618-7e-3 -0.27131-0.0103-0.40516-0.0103zm52.177 8.4359c3.5212 6.4322 5.7059 13.73 7.8732 20.784-0.69726-0.0291-1.6502 0.10416-2.2428-0.3142-2.2893-1.534-4.3696-3.4278-6.5078-5.1244-0.69726-0.57523-1.4409-0.52332-2.2718-0.6744-0.2208-1.1389-0.18065-2.2546-0.69197-3.2599-0.68564-0.65658-1.6498-1.3523-2.5855-1.1969-0.82574 0.13715-1.0803 1.2611-1.5219 1.9467-1.197 0.75537-2.4347 1.1219-3.1901 2.3653 1.5164 0.093 3.0209 0.058 4.543 0.0811h5.17e-4c1.6384 0.84252 2.9463 2.0456 4.4743 3.0914 2.4404 1.9523 5.5139 3.0562 8.1693 4.6309 0.47646 1.3306-1.1853 1.1099-2.0279 1.2377-4.3753-0.37768-8.5883-0.72054-12.72-2.3359-1.1853 0.85995-2.7652 2.1677-3.5322 3.417 2.33 0.0639 4.4271-0.22136 6.6758 0.59792 4.6232 1.2297 8.4566 1.1469 12.696 0.47699 0.42416 0.71465-0.70938 1.458-1.0987 1.9751-2.3707 2.0511-4.3428 3.6886-6.9724 5.1482-0.01743 1.6618-0.43387 4.9111 0.14814 6.4081 0.69138-1.2607 4.0504-4.1768 5.7732-6.1988 2.3939-2.0627 4.5265-4.4273 6.8158-6.5947 3.8117-1.2783 7.3151-0.79626 11.179-1.755 0.97035-0.0523 1.5347-1.2209 2.1622-1.8542 0.77861 0.82509 1.318 1.7431 1.9514 2.6728 0.69951-1.9326-0.22149-5.2663-2.7245-4.8805s-3.6083 2.2144-5.9384 2.3596c-2.1731 0.1104-4.4103 0.15602-6.5776-0.0589-3.7805-6.5463-3.9078-13.232-6.2438-20.272-0.7241-2.7995-0.9084-3.3703-1.5534-3.8697-1.4675-1.2094-2.9264-2.4726-4.0873-2.0183-1.0375 0.48106-0.30299 2.6334 0.02535 3.2152z" fill="#fff" stroke-width=".58105"/><g fill="#160906" stroke-width=".58105"><path d="m49.39 29.084c1.2434 0.36606 2.4386 0.72941 3.0952 1.9148-0.30796 0.65078-0.82906 1.682-1.4682 2.0713-1.441 0.28472-3.1125-0.24404-4.4373-0.73794 0.186-0.81347 0.73018-1.3306 1.1369-1.9756 0.6101 0.3312 1.6676 1.5049 2.3707 1.0982-0.19756-0.79604-0.48808-1.5688-0.69726-2.3707z"/><path d="m112.94 51.116c0.33799 3.7058-7.4582 13.964-11.299 18.02-2.1383 1.964-4.6424 3.8241-7.4489 4.748 1.8249-1.4578 2.9457-2.1798 4.503-3.644 4.0557-3.9047 7.8558-7.5885 10.72-12.516 0.73794-1.2783 2.7312-4.8878 3.5244-6.6082z"/><path d="m115.78 69.525c0.13857 3.0916-13.051 9.5332-18.19 10.993-1.1679 0.34863-2.9816 0.49031-3.4029-0.04218 4.8983-1.441 9.7861-4.0048 13.476-5.8962s5.4976-3.0663 8.1173-5.0551z"/><path d="m77.798 75.417c-0.15107 0.73794-0.40092 1.4468-0.54038 2.1848 0.71469 1.3364 2.0104 2.0395 1.778 3.6955-0.56943 0.63916-1.2783 1.1621-1.8071 1.8303 0.62172 1.0401 1.6618 1.8826 0.87158 3.1667-1.2376 1.993-2.9866 2.3068-5.2004 2.1383 1.1389-1.5979 3.2713-0.99941 3.9279-3.4108-0.51132-0.76118-3.004-1.3597-2.5973-2.4404 1.0749-0.37768 2.115-0.59848 3.0854-1.2144 0.04648-0.45322 0.04067-0.90644-0.0058-1.3655-1.0343-0.7728-3.4398-0.64497-3.8582-1.8826 0.86577-0.75537 2.0685-1.0633 2.9111-1.8245l-0.31377-0.8309c-1.6734-0.56943-3.649-0.42998-5.427-0.58686 2.0511-1.6967 5.398-1.3887 7.176 0.54038z"/><path d="m92.522 86.922c3.9976 1.4759 7.8616 3.2423 11.987 4.3869 2.9459 0.99941 6.0032 1.0144 9.785 1.5654-6.6596 0.42371-14.579-1.4317-20.476-4.4009-0.76118-0.36025-1.0052-0.79023-1.2957-1.5514z"/></g><path d="m69.596 128.26c-1.1 0.0121-2.2129 0.40726-3.2624 0.79585-4.8285 1.9581-9.7034 5.0841-12.649 9.4711-2.4695 3.5851-4.8405 7.0077-6.2582 11.174-0.7641 2.1624-1.9391 4.8399-1.9188 7.2541h-0.0047s-0.03774 1.788-0.03721 1.9855c6.7513 4.9222 14.305 9.0905 22.675 12.605 0.0049 2e-3 0.0096 4e-3 0.01447 6e-3 1.0932 0.45637 2.2353 0.9205 3.2873 1.3318 2.8247-1.106 5.8341-2.3784 8.3941-3.5782 5.4726-2.5713 11.11-5.8166 15.625-8.8958 0 0 0.08293-1.3456-0.10439-3.4542h-0.01033c-0.24018-2.1734-0.90405-4.3669-1.4429-6.4407-0.87738-2.8588-1.9522-5.9968-3.8697-8.3326-0.43579-0.0814-0.87167-0.0925-1.3075-0.046-1.4933 1.2318-2.6147 2.87-4.0557 4.1658-1.4178 1.3771-1.6328 1.8088-3.1784 2.9999-0.91806 0.83672-2.0574 3.1223-2.807 4.11-0.65078-0.0523-2.0739-0.82869-2.5969-1.2238-0.31377-2.423-0.42403-5.0842 0.01757-7.4897 1.6327-1.3074 6.332-3.4266 7.3198-5.3441-2.227 0.53857-4.9315 0.6604-6.8087 0.46925-2.3533-0.18012-4.4334-0.99387-6.7285-1.3948-1.656-0.31377-3.7369 0.0188-5.6634 0.8663-0.69726-0.81929-0.06595-2.4 0.16066-3.382 1.0575-1.2492 2.2838-2.4172 3.6725-3.2655 2.5508-1.9465 9.2696 2.7738 14.727 2.3732-3.0989-1.1908-9.1841-4.8687-11.241-6.2838-0.63407-0.35298-1.2893-0.48372-1.9493-0.47647z" fill="#094"/><path d="m118.36 81.778c-3.1561 0.92614-6.2029 1.4797-9.3848 1.8346-3.8493 0.42091-8.2386 0.79345-12.103 0.75075 0 0-0.05114 0.40555 0.49132 0.60932 6.3972 0.81065 20.108-0.50644 20.996-3.1947z" stroke-width=".58105"/></svg>
