<?xml version="1.0" encoding="UTF-8" standalone="no"?>
<!-- Created with Inkscape (http://www.inkscape.org/) -->

<svg
   xmlns:dc="http://purl.org/dc/elements/1.1/"
   xmlns:cc="http://creativecommons.org/ns#"
   xmlns:rdf="http://www.w3.org/1999/02/22-rdf-syntax-ns#"
   xmlns:svg="http://www.w3.org/2000/svg"
   xmlns="http://www.w3.org/2000/svg"
   xmlns:xlink="http://www.w3.org/1999/xlink"
   xmlns:sodipodi="http://sodipodi.sourceforge.net/DTD/sodipodi-0.dtd"
   xmlns:inkscape="http://www.inkscape.org/namespaces/inkscape"
   id="svg2985"
   version="1.1"
   inkscape:version="0.48.2 r9819"
   width="475"
   height="533"
   sodipodi:docname="Sankt_Peter-Ording_Wappen.png">
  <metadata
     id="metadata2991">
    <rdf:RDF>
      <cc:Work
         rdf:about="">
        <dc:format>image/svg+xml</dc:format>
        <dc:type
           rdf:resource="http://purl.org/dc/dcmitype/StillImage" />
        <dc:title></dc:title>
      </cc:Work>
    </rdf:RDF>
  </metadata>
  <defs
     id="defs2989">
    <linearGradient
       id="linearGradient3791">
      <stop
         style="stop-color:#7e8500;stop-opacity:1;"
         offset="0"
         id="stop3793" />
      <stop
         id="stop3799"
         offset="0.5"
         style="stop-color:#b7c201;stop-opacity:1;" />
      <stop
         style="stop-color:#f1ff03;stop-opacity:1;"
         offset="1"
         id="stop3795" />
    </linearGradient>
    <inkscape:perspective
       sodipodi:type="inkscape:persp3d"
       inkscape:vp_x="0 : 266.5 : 1"
       inkscape:vp_y="0 : 1000 : 0"
       inkscape:vp_z="475 : 266.5 : 1"
       inkscape:persp3d-origin="237.5 : 177.66667 : 1"
       id="perspective3773" />
    <linearGradient
       inkscape:collect="always"
       xlink:href="#linearGradient3791"
       id="linearGradient3797"
       x1="102.80387"
       y1="205.21931"
       x2="120.7737"
       y2="205.21931"
       gradientUnits="userSpaceOnUse"
       gradientTransform="matrix(1.0924452,0,0,1.1038272,-107.55163,44.388612)" />
    <linearGradient
       inkscape:collect="always"
       xlink:href="#linearGradient3791"
       id="linearGradient3803"
       gradientUnits="userSpaceOnUse"
       gradientTransform="matrix(1.299959,0,0,1.315105,-138.97011,14.711365)"
       x1="102.80387"
       y1="205.21931"
       x2="120.7737"
       y2="205.21931" />
    <linearGradient
       inkscape:collect="always"
       xlink:href="#linearGradient3791"
       id="linearGradient3850"
       gradientUnits="userSpaceOnUse"
       gradientTransform="matrix(1.299959,0,0,1.315105,-158.2006,309.01054)"
       x1="102.80387"
       y1="205.21931"
       x2="120.7737"
       y2="205.21931" />
    <linearGradient
       inkscape:collect="always"
       xlink:href="#linearGradient3791"
       id="linearGradient3856"
       gradientUnits="userSpaceOnUse"
       gradientTransform="matrix(1.299959,0,0,1.315105,-154.83643,321.60469)"
       x1="102.80387"
       y1="205.21931"
       x2="120.7737"
       y2="205.21931" />
    <linearGradient
       inkscape:collect="always"
       xlink:href="#linearGradient3791"
       id="linearGradient3862"
       gradientUnits="userSpaceOnUse"
       gradientTransform="matrix(1.299959,0,0,1.315105,-153.17606,301.92906)"
       x1="102.80387"
       y1="205.21931"
       x2="120.7737"
       y2="205.21931" />
    <linearGradient
       inkscape:collect="always"
       xlink:href="#linearGradient3791"
       id="linearGradient3868"
       gradientUnits="userSpaceOnUse"
       gradientTransform="matrix(1.299959,0,0,1.315105,-167.67116,461.83361)"
       x1="102.80387"
       y1="205.21931"
       x2="120.7737"
       y2="205.21931" />
    <linearGradient
       inkscape:collect="always"
       xlink:href="#linearGradient3791"
       id="linearGradient3870"
       gradientUnits="userSpaceOnUse"
       gradientTransform="matrix(1.299959,0,0,1.315105,-162.64662,454.75213)"
       x1="102.80387"
       y1="205.21931"
       x2="120.7737"
       y2="205.21931" />
    <linearGradient
       inkscape:collect="always"
       xlink:href="#linearGradient3791"
       id="linearGradient3916"
       gradientUnits="userSpaceOnUse"
       gradientTransform="matrix(1.299959,0,0,1.315105,-167.67116,461.83361)"
       x1="102.80387"
       y1="205.21931"
       x2="120.7737"
       y2="205.21931" />
    <linearGradient
       inkscape:collect="always"
       xlink:href="#linearGradient3791"
       id="linearGradient3918"
       gradientUnits="userSpaceOnUse"
       gradientTransform="matrix(1.299959,0,0,1.315105,-162.64662,454.75213)"
       x1="102.80387"
       y1="205.21931"
       x2="120.7737"
       y2="205.21931" />
    <linearGradient
       inkscape:collect="always"
       xlink:href="#linearGradient3791"
       id="linearGradient3926"
       gradientUnits="userSpaceOnUse"
       gradientTransform="matrix(1.299959,0,0,1.315105,-167.67116,461.83361)"
       x1="102.80387"
       y1="205.21931"
       x2="120.7737"
       y2="205.21931" />
    <linearGradient
       inkscape:collect="always"
       xlink:href="#linearGradient3791"
       id="linearGradient3928"
       gradientUnits="userSpaceOnUse"
       gradientTransform="matrix(1.299959,0,0,1.315105,-162.64662,454.75213)"
       x1="102.80387"
       y1="205.21931"
       x2="120.7737"
       y2="205.21931" />
    <linearGradient
       inkscape:collect="always"
       xlink:href="#linearGradient3791"
       id="linearGradient3982"
       gradientUnits="userSpaceOnUse"
       gradientTransform="matrix(1.0924452,0,0,1.1038272,-107.55163,44.388612)"
       x1="102.80387"
       y1="205.21931"
       x2="120.7737"
       y2="205.21931" />
    <linearGradient
       inkscape:collect="always"
       xlink:href="#linearGradient3791"
       id="linearGradient3984"
       gradientUnits="userSpaceOnUse"
       gradientTransform="matrix(1.299959,0,0,1.315105,-138.97011,14.711365)"
       x1="102.80387"
       y1="205.21931"
       x2="120.7737"
       y2="205.21931" />
    <linearGradient
       inkscape:collect="always"
       xlink:href="#linearGradient3791"
       id="linearGradient3986"
       gradientUnits="userSpaceOnUse"
       gradientTransform="matrix(1.299959,0,0,1.315105,-158.2006,309.01054)"
       x1="102.80387"
       y1="205.21931"
       x2="120.7737"
       y2="205.21931" />
    <linearGradient
       inkscape:collect="always"
       xlink:href="#linearGradient3791"
       id="linearGradient3988"
       gradientUnits="userSpaceOnUse"
       gradientTransform="matrix(1.299959,0,0,1.315105,-154.83643,321.60469)"
       x1="102.80387"
       y1="205.21931"
       x2="120.7737"
       y2="205.21931" />
    <linearGradient
       inkscape:collect="always"
       xlink:href="#linearGradient3791"
       id="linearGradient3990"
       gradientUnits="userSpaceOnUse"
       gradientTransform="matrix(1.299959,0,0,1.315105,-153.17606,301.92906)"
       x1="102.80387"
       y1="205.21931"
       x2="120.7737"
       y2="205.21931" />
    <linearGradient
       inkscape:collect="always"
       xlink:href="#linearGradient3791"
       id="linearGradient3992"
       gradientUnits="userSpaceOnUse"
       gradientTransform="matrix(1.299959,0,0,1.315105,-167.67116,461.83361)"
       x1="102.80387"
       y1="205.21931"
       x2="120.7737"
       y2="205.21931" />
    <linearGradient
       inkscape:collect="always"
       xlink:href="#linearGradient3791"
       id="linearGradient3994"
       gradientUnits="userSpaceOnUse"
       gradientTransform="matrix(1.299959,0,0,1.315105,-162.64662,454.75213)"
       x1="102.80387"
       y1="205.21931"
       x2="120.7737"
       y2="205.21931" />
    <linearGradient
       inkscape:collect="always"
       xlink:href="#linearGradient3791"
       id="linearGradient3996"
       gradientUnits="userSpaceOnUse"
       gradientTransform="matrix(1.299959,0,0,1.315105,-167.67116,461.83361)"
       x1="102.80387"
       y1="205.21931"
       x2="120.7737"
       y2="205.21931" />
    <linearGradient
       inkscape:collect="always"
       xlink:href="#linearGradient3791"
       id="linearGradient3998"
       gradientUnits="userSpaceOnUse"
       gradientTransform="matrix(1.299959,0,0,1.315105,-162.64662,454.75213)"
       x1="102.80387"
       y1="205.21931"
       x2="120.7737"
       y2="205.21931" />
    <linearGradient
       inkscape:collect="always"
       xlink:href="#linearGradient3791"
       id="linearGradient4000"
       gradientUnits="userSpaceOnUse"
       gradientTransform="matrix(1.299959,0,0,1.315105,-167.67116,461.83361)"
       x1="102.80387"
       y1="205.21931"
       x2="120.7737"
       y2="205.21931" />
    <linearGradient
       inkscape:collect="always"
       xlink:href="#linearGradient3791"
       id="linearGradient4002"
       gradientUnits="userSpaceOnUse"
       gradientTransform="matrix(1.299959,0,0,1.315105,-162.64662,454.75213)"
       x1="102.80387"
       y1="205.21931"
       x2="120.7737"
       y2="205.21931" />
  </defs>
  <sodipodi:namedview
     pagecolor="#ffffff"
     bordercolor="#666666"
     borderopacity="1"
     objecttolerance="10"
     gridtolerance="10"
     guidetolerance="10"
     inkscape:pageopacity="0"
     inkscape:pageshadow="2"
     inkscape:window-width="1280"
     inkscape:window-height="718"
     id="namedview2987"
     showgrid="false"
     inkscape:zoom="0.88555347"
     inkscape:cx="352.51652"
     inkscape:cy="307.61076"
     inkscape:window-x="-8"
     inkscape:window-y="-8"
     inkscape:window-maximized="1"
     inkscape:current-layer="svg2985" />
  <path
     style="opacity:1;fill:#0024ab;fill-opacity:1;stroke:#000000;stroke-width:5;stroke-miterlimit:4;stroke-opacity:1"
     d="m 3.8568826,1.7408667 469.7627374,0 0,318.4448933 C 429.57936,594.96684 45.378679,600.67448 2.7276456,314.53958 z"
     id="rect2995"
     inkscape:connector-curvature="0"
     sodipodi:nodetypes="ccccc" />
  <path
     sodipodi:type="star"
     style="fill:#f1ff03;fill-opacity:1;stroke:#000000;stroke-width:2;stroke-linecap:round;stroke-linejoin:round;stroke-miterlimit:4;stroke-opacity:1;stroke-dasharray:none"
     id="path3766"
     sodipodi:sides="6"
     sodipodi:cx="191.97034"
     sodipodi:cy="92.597458"
     sodipodi:r1="32.767345"
     sodipodi:r2="18.733328"
     sodipodi:arg1="1.5363272"
     sodipodi:arg2="2.0281635"
     inkscape:flatsided="false"
     inkscape:rounded="0"
     inkscape:randomized="0"
     d="m 193.09958,125.34534 -9.40165,-15.94 -19.52347,0.54401 9.10362,-16.112061 -10.23286,-16.635823 18.50526,-0.17206 9.29062,-17.17983 9.40164,15.939999 19.52348,-0.544007 -9.10363,16.112058 10.23286,16.635824 -18.50526,0.17206 z"
     inkscape:transform-center-x="-0.83936707"
     inkscape:transform-center-y="-2.1384455"
     transform="matrix(0.99940632,0.03445293,-0.03445293,0.99940632,8.6938369,0.10710571)" />
  <path
     style="opacity:1;fill:#f1ff03;fill-opacity:1;stroke:#000000;stroke-width:1.58237575999999990;stroke-linecap:round;stroke-linejoin:round;stroke-miterlimit:4;stroke-opacity:1;stroke-dasharray:none"
     d="M 226.78125 35.21875 C 221.95861 35.21875 217.2539 35.697342 212.71875 36.59375 C 245.57529 40.721771 270.90625 66.888313 270.90625 98.5625 C 270.90625 128.62153 248.0961 153.7395 217.6875 159.75 C 220.66241 160.12376 223.69613 160.3125 226.78125 160.3125 C 263.94012 160.3125 294.0625 132.3233 294.0625 97.78125 C 294.0625 63.239202 263.94012 35.21875 226.78125 35.21875 z "
     id="path3821" />
  <g
     id="g3930">
    <rect
       ry="0"
       transform="matrix(0.660581,-0.75075478,0.66889463,0.74335723,0,0)"
       y="133.01346"
       x="10.330008"
       height="276.16635"
       width="14.159792"
       id="rect3789"
       style="fill:url(#linearGradient3797);fill-opacity:1;stroke:#000000;stroke-width:2.19624305;stroke-linecap:round;stroke-linejoin:round;stroke-miterlimit:4;stroke-opacity:1;stroke-dasharray:none" />
    <rect
       style="fill:url(#linearGradient3803);fill-opacity:1;stroke:#000000;stroke-width:2.61502028;stroke-linecap:round;stroke-linejoin:round;stroke-miterlimit:4;stroke-opacity:1;stroke-dasharray:none"
       id="rect3801"
       width="17.601519"
       height="11.123573"
       x="1.3035494"
       y="120.29942"
       transform="matrix(0.70048399,-0.71366812,0.70843581,0.70577525,0,0)"
       ry="5.5617867" />
    <path
       sodipodi:nodetypes="ccccccccccccccccccccccccc"
       inkscape:connector-curvature="0"
       id="rect3805"
       d="m 83.0625,115.90625 -13.75,12.875 25.59375,27.28125 -15.28125,14 -25.3125,-27 c -0.131809,-0.006 -33.84375,30.75 -33.84375,30.75 L 33.3125,187.875 53.34375,169.5625 65.75,182.78125 47,199.96875 60.6875,214.9375 79.625,197.59375 94.1875,213.125 75.46875,230.28125 89.690733,244.76118 c 0,0 21.842547,-19.34746 32.496767,-29.32368 L 93.5,184.875 l 15.28125,-14 28.40625,30.3125 13.71875,-12.90625 -28.25,-30.125 18.65625,-17.09375 -13.71875,-14.96875 -18.8125,17.25 z"
       style="fill:#f1ff03;fill-opacity:1;stroke:#000000;stroke-width:2;stroke-linecap:round;stroke-linejoin:round;stroke-miterlimit:4;stroke-opacity:1;stroke-dasharray:none" />
    <path
       id="rect3874"
       d="M 295.84375 301.5625 C 294.54899 301.84222 293.59375 302.99673 293.59375 304.375 L 293.59375 311.6875 C 297.88256 324.51197 300.29633 338.90118 300.28125 354.09375 C 300.26628 369.17564 297.84924 383.44237 293.59375 396.1875 L 293.59375 409.875 C 293.59375 410.31271 293.69992 410.72234 293.875 411.09375 C 307.56055 406.01515 323.17986 403.125 339.78125 403.125 C 358.00751 403.125 375.06004 406.61507 389.65625 412.65625 C 390.91627 412.35109 391.84375 411.22862 391.84375 409.875 L 391.84375 400.34375 C 387.77829 387.79391 385.51659 373.79865 385.53125 359.03125 C 385.5458 344.37588 387.81151 330.49975 391.84375 318.03125 L 391.84375 304.375 C 391.84375 304.30161 391.81791 304.22826 391.8125 304.15625 C 378.42124 308.95737 363.23459 311.65625 347.125 311.65625 C 328.31854 311.65625 310.77271 307.96393 295.875 301.5625 C 295.86621 301.55872 295.85254 301.56628 295.84375 301.5625 z M 312.5 321.96875 C 318.85467 322.09569 340.34271 333.77473 344.15625 333.875 C 348.16653 333.98044 373.48155 321.01369 376.125 324.03125 C 378.89881 327.19762 364.67314 352.9482 364.5625 357.15625 C 364.45706 361.16653 377.42381 386.4503 374.40625 389.09375 C 371.23988 391.86756 345.4893 377.64189 341.28125 377.53125 C 337.27097 377.42581 311.9872 390.39256 309.34375 387.375 C 306.56994 384.20863 320.79561 358.4893 320.90625 354.28125 C 321.01169 350.27097 308.01369 324.95595 311.03125 322.3125 C 311.3281 322.05246 311.84262 321.95562 312.5 321.96875 z "
       style="fill:#f1ff03;fill-opacity:1;stroke:#000000;stroke-width:2;stroke-linecap:round;stroke-linejoin:round;stroke-miterlimit:4;stroke-opacity:1;stroke-dasharray:none;opacity:1" />
    <rect
       ry="5.5617867"
       transform="matrix(0.70048399,-0.71366812,0.70843581,0.70577525,0,0)"
       y="414.59863"
       x="-17.926937"
       height="11.542911"
       width="24.729349"
       id="rect3848"
       style="fill:url(#linearGradient3850);fill-opacity:1;stroke:#000000;stroke-width:2.61502028;stroke-linecap:round;stroke-linejoin:round;stroke-miterlimit:4;stroke-opacity:1;stroke-dasharray:none" />
    <rect
       style="fill:url(#linearGradient3856);fill-opacity:1;stroke:#000000;stroke-width:2.61502028;stroke-linecap:round;stroke-linejoin:round;stroke-miterlimit:4;stroke-opacity:1;stroke-dasharray:none"
       id="rect3854"
       width="15.211387"
       height="6.0197144"
       x="-14.562773"
       y="427.19278"
       transform="matrix(0.70048399,-0.71366812,0.70843581,0.70577525,0,0)"
       ry="2.8654149" />
    <rect
       ry="2.8654149"
       transform="matrix(0.70048399,-0.71366812,0.70843581,0.70577525,0,0)"
       y="407.51715"
       x="-12.902407"
       height="6.0197144"
       width="15.211387"
       id="rect3860"
       style="fill:url(#linearGradient3862);fill-opacity:1;stroke:#000000;stroke-width:2.61502028;stroke-linecap:round;stroke-linejoin:round;stroke-miterlimit:4;stroke-opacity:1;stroke-dasharray:none" />
    <g
       id="g3906">
      <rect
         ry="5.5617867"
         transform="matrix(0.70048399,-0.71366812,0.70843581,0.70577525,0,0)"
         y="567.42169"
         x="-27.397505"
         height="11.542911"
         width="24.729349"
         id="rect3864"
         style="fill:url(#linearGradient3868);fill-opacity:1;stroke:#000000;stroke-width:2.61502028;stroke-linecap:round;stroke-linejoin:round;stroke-miterlimit:4;stroke-opacity:1;stroke-dasharray:none" />
      <rect
         ry="2.8654149"
         transform="matrix(0.70048399,-0.71366812,0.70843581,0.70577525,0,0)"
         y="560.34021"
         x="-22.372974"
         height="6.0197144"
         width="15.211387"
         id="rect3866"
         style="fill:url(#linearGradient3870);fill-opacity:1;stroke:#000000;stroke-width:2.61502028;stroke-linecap:round;stroke-linejoin:round;stroke-miterlimit:4;stroke-opacity:1;stroke-dasharray:none" />
    </g>
    <g
       transform="matrix(-0.00783154,0.99996933,-0.99996933,-0.00783154,706.72783,18.643426)"
       id="g3910">
      <rect
         style="fill:url(#linearGradient3916);fill-opacity:1;stroke:#000000;stroke-width:2.61502028;stroke-linecap:round;stroke-linejoin:round;stroke-miterlimit:4;stroke-opacity:1;stroke-dasharray:none"
         id="rect3912"
         width="24.729349"
         height="11.542911"
         x="-27.397505"
         y="567.42169"
         transform="matrix(0.70048399,-0.71366812,0.70843581,0.70577525,0,0)"
         ry="5.5617867" />
      <rect
         style="fill:url(#linearGradient3918);fill-opacity:1;stroke:#000000;stroke-width:2.61502028;stroke-linecap:round;stroke-linejoin:round;stroke-miterlimit:4;stroke-opacity:1;stroke-dasharray:none"
         id="rect3914"
         width="15.211387"
         height="6.0197144"
         x="-22.372974"
         y="560.34021"
         transform="matrix(0.70048399,-0.71366812,0.70843581,0.70577525,0,0)"
         ry="2.8654149" />
    </g>
    <g
       id="g3920"
       transform="matrix(0.01330291,-0.99991151,0.99991151,0.01330291,-22.551115,693.56631)">
      <rect
         ry="5.5617867"
         transform="matrix(0.70048399,-0.71366812,0.70843581,0.70577525,0,0)"
         y="567.42169"
         x="-27.397505"
         height="11.542911"
         width="24.729349"
         id="rect3922"
         style="fill:url(#linearGradient3926);fill-opacity:1;stroke:#000000;stroke-width:2.61502028;stroke-linecap:round;stroke-linejoin:round;stroke-miterlimit:4;stroke-opacity:1;stroke-dasharray:none" />
      <rect
         ry="2.8654149"
         transform="matrix(0.70048399,-0.71366812,0.70843581,0.70577525,0,0)"
         y="560.34021"
         x="-22.372974"
         height="6.0197144"
         width="15.211387"
         id="rect3924"
         style="fill:url(#linearGradient3928);fill-opacity:1;stroke:#000000;stroke-width:2.61502028;stroke-linecap:round;stroke-linejoin:round;stroke-miterlimit:4;stroke-opacity:1;stroke-dasharray:none" />
    </g>
  </g>
  <g
     id="g3948"
     transform="matrix(-1,0,0,1,472.16386,0)">
    <rect
       style="fill:url(#linearGradient3982);fill-opacity:1;stroke:#000000;stroke-width:2.19624305;stroke-linecap:round;stroke-linejoin:round;stroke-miterlimit:4;stroke-opacity:1;stroke-dasharray:none"
       id="rect3950"
       width="14.159792"
       height="276.16635"
       x="10.330008"
       y="133.01346"
       transform="matrix(0.660581,-0.75075478,0.66889463,0.74335723,0,0)"
       ry="0" />
    <rect
       ry="5.5617867"
       transform="matrix(0.70048399,-0.71366812,0.70843581,0.70577525,0,0)"
       y="120.29942"
       x="1.3035494"
       height="11.123573"
       width="17.601519"
       id="rect3952"
       style="fill:url(#linearGradient3984);fill-opacity:1;stroke:#000000;stroke-width:2.61502028;stroke-linecap:round;stroke-linejoin:round;stroke-miterlimit:4;stroke-opacity:1;stroke-dasharray:none" />
    <path
       style="fill:#f1ff03;fill-opacity:1;stroke:#000000;stroke-width:2;stroke-linecap:round;stroke-linejoin:round;stroke-miterlimit:4;stroke-opacity:1;stroke-dasharray:none"
       d="m 83.0625,115.90625 -13.75,12.875 25.59375,27.28125 -15.28125,14 -25.3125,-27 c -0.131809,-0.006 -33.84375,30.75 -33.84375,30.75 L 33.3125,187.875 53.34375,169.5625 65.75,182.78125 47,199.96875 60.6875,214.9375 79.625,197.59375 94.1875,213.125 75.46875,230.28125 89.690733,244.76118 c 0,0 21.842547,-19.34746 32.496767,-29.32368 L 93.5,184.875 l 15.28125,-14 28.40625,30.3125 13.71875,-12.90625 -28.25,-30.125 18.65625,-17.09375 -13.71875,-14.96875 -18.8125,17.25 z"
       id="path3954"
       inkscape:connector-curvature="0"
       sodipodi:nodetypes="ccccccccccccccccccccccccc" />
    <path
       style="fill:#f1ff03;fill-opacity:1;stroke:#000000;stroke-width:2;stroke-linecap:round;stroke-linejoin:round;stroke-miterlimit:4;stroke-opacity:1;stroke-dasharray:none"
       d="m 295.84375,301.5625 c -1.29476,0.27972 -2.25,1.43423 -2.25,2.8125 l 0,7.3125 c 4.28881,12.82447 6.70258,27.21368 6.6875,42.40625 -0.015,15.08189 -2.43201,29.34862 -6.6875,42.09375 l 0,13.6875 c 0,0.43771 0.10617,0.84734 0.28125,1.21875 13.68555,-5.0786 29.30486,-7.96875 45.90625,-7.96875 18.22626,0 35.27879,3.49007 49.875,9.53125 1.26002,-0.30516 2.1875,-1.42763 2.1875,-2.78125 l 0,-9.53125 c -4.06546,-12.54984 -6.32716,-26.5451 -6.3125,-41.3125 0.0145,-14.65537 2.28026,-28.5315 6.3125,-41 l 0,-13.65625 c 0,-0.0734 -0.0258,-0.14674 -0.0312,-0.21875 -13.39126,4.80112 -28.57791,7.5 -44.6875,7.5 -18.80646,0 -36.35229,-3.69232 -51.25,-10.09375 -0.009,-0.004 -0.0225,0.004 -0.0312,0 z M 312.5,321.96875 c 6.35467,0.12694 27.84271,11.80598 31.65625,11.90625 4.01028,0.10544 29.3253,-12.86131 31.96875,-9.84375 2.77381,3.16637 -11.45186,28.91695 -11.5625,33.125 -0.10544,4.01028 12.86131,29.29405 9.84375,31.9375 -3.16637,2.77381 -28.91695,-11.45186 -33.125,-11.5625 -4.01028,-0.10544 -29.29405,12.86131 -31.9375,9.84375 -2.77381,-3.16637 11.45186,-28.8857 11.5625,-33.09375 0.10544,-4.01028 -12.89256,-29.3253 -9.875,-31.96875 0.29685,-0.26004 0.81137,-0.35688 1.46875,-0.34375 z"
       id="path3956"
       inkscape:connector-curvature="0" />
    <rect
       style="fill:url(#linearGradient3986);fill-opacity:1;stroke:#000000;stroke-width:2.61502028;stroke-linecap:round;stroke-linejoin:round;stroke-miterlimit:4;stroke-opacity:1;stroke-dasharray:none"
       id="rect3958"
       width="24.729349"
       height="11.542911"
       x="-17.926937"
       y="414.59863"
       transform="matrix(0.70048399,-0.71366812,0.70843581,0.70577525,0,0)"
       ry="5.5617867" />
    <rect
       ry="2.8654149"
       transform="matrix(0.70048399,-0.71366812,0.70843581,0.70577525,0,0)"
       y="427.19278"
       x="-14.562773"
       height="6.0197144"
       width="15.211387"
       id="rect3960"
       style="fill:url(#linearGradient3988);fill-opacity:1;stroke:#000000;stroke-width:2.61502028;stroke-linecap:round;stroke-linejoin:round;stroke-miterlimit:4;stroke-opacity:1;stroke-dasharray:none" />
    <rect
       style="fill:url(#linearGradient3990);fill-opacity:1;stroke:#000000;stroke-width:2.61502028;stroke-linecap:round;stroke-linejoin:round;stroke-miterlimit:4;stroke-opacity:1;stroke-dasharray:none"
       id="rect3962"
       width="15.211387"
       height="6.0197144"
       x="-12.902407"
       y="407.51715"
       transform="matrix(0.70048399,-0.71366812,0.70843581,0.70577525,0,0)"
       ry="2.8654149" />
    <g
       id="g3964">
      <rect
         style="fill:url(#linearGradient3992);fill-opacity:1;stroke:#000000;stroke-width:2.61502028;stroke-linecap:round;stroke-linejoin:round;stroke-miterlimit:4;stroke-opacity:1;stroke-dasharray:none"
         id="rect3966"
         width="24.729349"
         height="11.542911"
         x="-27.397505"
         y="567.42169"
         transform="matrix(0.70048399,-0.71366812,0.70843581,0.70577525,0,0)"
         ry="5.5617867" />
      <rect
         style="fill:url(#linearGradient3994);fill-opacity:1;stroke:#000000;stroke-width:2.61502028;stroke-linecap:round;stroke-linejoin:round;stroke-miterlimit:4;stroke-opacity:1;stroke-dasharray:none"
         id="rect3968"
         width="15.211387"
         height="6.0197144"
         x="-22.372974"
         y="560.34021"
         transform="matrix(0.70048399,-0.71366812,0.70843581,0.70577525,0,0)"
         ry="2.8654149" />
    </g>
    <g
       id="g3970"
       transform="matrix(-0.00783154,0.99996933,-0.99996933,-0.00783154,706.72783,18.643426)">
      <rect
         ry="5.5617867"
         transform="matrix(0.70048399,-0.71366812,0.70843581,0.70577525,0,0)"
         y="567.42169"
         x="-27.397505"
         height="11.542911"
         width="24.729349"
         id="rect3972"
         style="fill:url(#linearGradient3996);fill-opacity:1;stroke:#000000;stroke-width:2.61502028;stroke-linecap:round;stroke-linejoin:round;stroke-miterlimit:4;stroke-opacity:1;stroke-dasharray:none" />
      <rect
         ry="2.8654149"
         transform="matrix(0.70048399,-0.71366812,0.70843581,0.70577525,0,0)"
         y="560.34021"
         x="-22.372974"
         height="6.0197144"
         width="15.211387"
         id="rect3974"
         style="fill:url(#linearGradient3998);fill-opacity:1;stroke:#000000;stroke-width:2.61502028;stroke-linecap:round;stroke-linejoin:round;stroke-miterlimit:4;stroke-opacity:1;stroke-dasharray:none" />
    </g>
    <g
       transform="matrix(0.01330291,-0.99991151,0.99991151,0.01330291,-22.551115,693.56631)"
       id="g3976">
      <rect
         style="fill:url(#linearGradient4000);fill-opacity:1;stroke:#000000;stroke-width:2.61502028;stroke-linecap:round;stroke-linejoin:round;stroke-miterlimit:4;stroke-opacity:1;stroke-dasharray:none"
         id="rect3978"
         width="24.729349"
         height="11.542911"
         x="-27.397505"
         y="567.42169"
         transform="matrix(0.70048399,-0.71366812,0.70843581,0.70577525,0,0)"
         ry="5.5617867" />
      <rect
         style="fill:url(#linearGradient4002);fill-opacity:1;stroke:#000000;stroke-width:2.61502028;stroke-linecap:round;stroke-linejoin:round;stroke-miterlimit:4;stroke-opacity:1;stroke-dasharray:none"
         id="rect3980"
         width="15.211387"
         height="6.0197144"
         x="-22.372974"
         y="560.34021"
         transform="matrix(0.70048399,-0.71366812,0.70843581,0.70577525,0,0)"
         ry="2.8654149" />
    </g>
  </g>
</svg>
