<?xml version="1.0" encoding="UTF-8" standalone="no"?>
<svg
   inkscape:version="1.1.1 (3bf5ae0d25, 2021-09-20)"
   sodipodi:docname="CoA Bühler.svg"
   id="svg2130"
   version="1.1"
   viewBox="0 0 390.35298 450.69287"
   height="450.69287"
   width="390.353"
   xmlns:inkscape="http://www.inkscape.org/namespaces/inkscape"
   xmlns:sodipodi="http://sodipodi.sourceforge.net/DTD/sodipodi-0.dtd"
   xmlns="http://www.w3.org/2000/svg"
   xmlns:svg="http://www.w3.org/2000/svg">
  <defs
     id="defs2124" />
  <sodipodi:namedview
     inkscape:pagecheckerboard="false"
     fit-margin-bottom="5"
     fit-margin-right="5"
     fit-margin-left="5"
     fit-margin-top="5"
     lock-margins="true"
     units="px"
     inkscape:snap-smooth-nodes="true"
     inkscape:snap-object-midpoints="true"
     inkscape:window-maximized="1"
     inkscape:window-y="-11"
     inkscape:window-x="-11"
     inkscape:window-height="1506"
     inkscape:window-width="2560"
     showgrid="false"
     inkscape:document-rotation="0"
     inkscape:current-layer="layer1"
     inkscape:document-units="px"
     inkscape:cy="225.33333"
     inkscape:cx="194.66667"
     inkscape:zoom="1.5"
     inkscape:pageshadow="2"
     inkscape:pageopacity="0"
     borderopacity="1.0"
     bordercolor="#666666"
     pagecolor="#333333"
     id="base"
     showguides="true"
     inkscape:guide-bbox="true"
     inkscape:snap-intersection-paths="true"
     inkscape:object-paths="true"
     inkscape:snap-grids="false"
     inkscape:snap-global="false"
     inkscape:lockguides="false"
     guidecolor="#00ffff"
     guideopacity="0.49803922"
     inkscape:snap-midpoints="true" />
  <g
     transform="translate(21060.754,22049.02)"
     id="layer1"
     inkscape:groupmode="layer"
     inkscape:label="buehler">
    <g
       id="g139405"
       inkscape:label="coa"
       style="display:inline"
       transform="translate(120.88,-296.313)">
      <path
         style="opacity:1;fill:#ffffff;fill-opacity:1;fill-rule:evenodd;stroke:#000000;stroke-width:7;stroke-linecap:butt;stroke-linejoin:miter;stroke-miterlimit:4;stroke-dasharray:none"
         d="m -20986.458,-21310.515 c 112.096,0 186.677,-93.061 186.677,-188.09 v -245.602 h -373.353 v 245.602 c 0,95.029 74.58,188.09 186.676,188.09 z"
         id="path135716"
         sodipodi:nodetypes="ssccss"
         inkscape:label="coa-f" />
      <g
         id="g139409"
         inkscape:label="terrace">
        <path
           id="path137868"
           style="opacity:1;fill:#00a94d;fill-opacity:1;fill-rule:evenodd;stroke:#000000;stroke-width:7;stroke-linecap:round;stroke-linejoin:round"
           d="M 69.296875,680.94531 A 132.53198,66.46804 0 0 0 -31.291016,704.3418 c 28.1221933,18.21384 62.147518,29.16406 100.587891,29.16406 38.440375,0 72.463585,-10.95022 100.585935,-29.16406 A 132.53198,66.46804 0 0 0 69.296875,680.94531 Z"
           transform="translate(-21055.754,-22044.02)"
           inkscape:label="terrace-0" />
        <path
           id="path138636"
           style="opacity:1;fill:none;fill-opacity:1;fill-rule:evenodd;stroke:#000000;stroke-width:2.5;stroke-linecap:round;stroke-linejoin:round;stroke-miterlimit:4;stroke-dasharray:none"
           d="m -21007.421,-21341.187 c 1.964,5.74 3.147,11.871 3.334,18.5 m 10,-0.666 c 0.225,-3.752 2.999,-8.778 5.833,-13.834 m -12,15.834 c 0.794,-7.265 2.152,-13.12 3.833,-18.167 m -22,-0.333 c 5.032,5.991 8.599,10.427 9.833,21 m -20.166,-19 c 6.761,6.01 9.621,11.042 11,16"
           inkscape:label="grass"
           sodipodi:nodetypes="cccccccccc" />
      </g>
      <g
         id="g134393"
         inkscape:label="bear"
         transform="translate(0,1)"
         style="display:inline">
        <g
           id="g134370"
           inkscape:label="head">
          <path
             style="opacity:1;fill:#000000;fill-rule:evenodd;stroke:none;stroke-width:1;stroke-linecap:round;stroke-linejoin:round;stroke-miterlimit:4;stroke-dasharray:none"
             d="m -20965.7,-21727.227 c 9.139,1.244 17.598,3.981 25.821,7.238 0.991,0.393 1.971,-0.128 2.122,-1.183 3.786,-26.464 -31.008,-26.357 -29.042,-7.152 0.06,0.538 0.563,1.024 1.099,1.097 z"
             id="path45329"
             sodipodi:nodetypes="ccc"
             inkscape:label="ear-r" />
          <path
             style="opacity:1;fill:#e7423f;fill-opacity:1;fill-rule:evenodd;stroke:#000000;stroke-width:0.5;stroke-linecap:round;stroke-linejoin:round;stroke-miterlimit:4;stroke-dasharray:none;stroke-opacity:1"
             d="m -20998.655,-21684.597 c -4.044,0.999 -7.619,1.159 -9.683,-1.256 -6.108,-7.146 -16.923,-9.488 -24.583,-11.167 -6.65,-1.458 -10.859,-10.663 -8.839,-15.879 0.44,-1.137 0.243,-2.261 -0.965,-2.468 -9.577,-1.635 -9.944,13.571 -5.924,18.193 10.782,12.398 37.717,16.91 47.626,21.794 5.37,3.409 12.463,-9.222 2.368,-9.217 z"
             id="path124968"
             sodipodi:nodetypes="cssssccc"
             inkscape:label="tongue" />
          <g
             id="g134158"
             inkscape:label="teeth">
            <g
               id="g134146"
               inkscape:label="teeth-t">
              <path
                 style="opacity:1;fill:#ffffff;fill-opacity:1;fill-rule:evenodd;stroke:#000000;stroke-width:0.667;stroke-linecap:round;stroke-linejoin:round;stroke-miterlimit:4;stroke-dasharray:none"
                 d="m -21022.027,-21707.039 c -5.252,-0.04 -8.048,3.094 -7.227,8.353 1.633,-1.647 2.774,-3.201 5.25,-2.667 2.209,0.721 2.305,0 3.491,-0.07 0.702,0.792 1.854,2.342 3.926,1.151 -0.223,0.985 -0.583,2.632 -0.03,3.396 0.747,0.185 3.056,-0.139 3.913,-0.281 l 2.757,1.842 c 1.185,1.585 4.757,3.29 6.823,4.877 0.91,-7.027 -9.872,-10.926 -18.903,-16.602 z"
                 id="path122160"
                 sodipodi:nodetypes="ccccccccccc"
                 inkscape:label="teeth-t-r" />
              <path
                 style="opacity:1;fill:#ffffff;fill-opacity:1;fill-rule:evenodd;stroke:#000000;stroke-width:0.667;stroke-linecap:round;stroke-linejoin:round;stroke-miterlimit:4;stroke-dasharray:none"
                 d="m -21017.194,-21702.373 c -5.252,-0.04 -8.048,3.094 -7.227,8.353 1.633,-1.647 3.191,-3.784 5.25,-2.667 0.941,0.482 1.246,-0.218 1.417,-1.166 -0.197,0.893 -0.304,1.817 0.157,2.93 0.702,0.792 3.771,0.509 5.843,-0.682 -0.223,0.985 -0.583,2.632 -0.03,3.396 0.747,0.185 3.056,-0.139 3.913,-0.281 -0.138,0.356 -0.836,1.717 -0.469,2.602 1.419,0.259 2.405,-0.431 3.226,-0.76 0.368,2.402 4.257,3.79 6.823,4.877 0.91,-7.027 -9.872,-10.926 -18.903,-16.602 z"
                 id="path112412"
                 sodipodi:nodetypes="cccccccccccc"
                 inkscape:label="teeth-t-l" />
            </g>
            <g
               id="g134150"
               inkscape:label="teeth-b">
              <path
                 style="opacity:1;fill:#ffffff;fill-opacity:1;fill-rule:evenodd;stroke:#000000;stroke-width:0.667;stroke-linecap:round;stroke-linejoin:round;stroke-miterlimit:4;stroke-dasharray:none"
                 d="m -21022.915,-21682.532 c -2.536,1.35 -3.158,4.183 -3.158,7.407 5.541,3.161 10.691,3.149 13.677,-0.06 -1.656,-1.264 -2.839,-2.891 -9.144,-2.887 -1.378,-0.632 -2.684,-2.048 -1.375,-4.458 z"
                 id="path112221"
                 sodipodi:nodetypes="ccccc"
                 inkscape:label="teeth-b-r" />
              <path
                 style="opacity:1;fill:#ffffff;fill-opacity:1;fill-rule:evenodd;stroke:#000000;stroke-width:0.667;stroke-linecap:round;stroke-linejoin:round;stroke-miterlimit:4;stroke-dasharray:none"
                 d="m -21014.879,-21681.395 c -2.536,1.35 -3.158,4.183 -3.158,7.407 5.541,3.161 10.691,3.149 13.677,-0.06 -1.656,-1.264 -2.839,-2.891 -9.144,-2.887 -1.378,-0.632 -2.684,-2.048 -1.375,-4.458 z"
                 id="path109459"
                 sodipodi:nodetypes="ccccc"
                 inkscape:label="teeth-b-l" />
            </g>
          </g>
        </g>
        <g
           id="g134359"
           inkscape:label="body">
          <path
             style="display:inline;opacity:1;fill:#000000;fill-rule:evenodd;stroke:#000000;stroke-width:1;stroke-linecap:round;stroke-linejoin:round;stroke-miterlimit:4;stroke-dasharray:none;stroke-opacity:1"
             d="m -20912.513,-21445.58 c 0.359,0.399 0.36,1.04 -0.08,1.352 -0.553,0.397 -1.16,0.652 -1.832,0.752 -0.528,0.08 -0.795,0.425 -0.558,0.907 0.933,1.898 2.171,3.796 3.781,5.694 0.347,0.409 0.233,0.906 -0.297,0.986 -0.972,0.14 -2.098,-0.03 -3.33,-0.41 -0.514,-0.158 -0.718,0.07 -0.444,0.533 1.214,2.047 2.628,3.598 4.108,4.979 0.393,0.367 0.477,1.039 0.03,1.34 -0.29,0.197 -0.608,0.312 -0.96,0.322 -0.533,0.02 -0.982,0.269 -0.812,0.774 0.446,1.325 1.93,2.909 4.271,4.707 0.426,0.327 0.646,1.071 0.187,1.316 -0.394,0.215 -0.974,0.305 -1.74,0.285 -0.537,-0.01 -0.892,0.355 -0.717,0.862 0.475,1.375 1.43,2.75 3.104,4.125 0.415,0.34 0.855,1.077 0.592,1.537 -0.301,0.527 -0.946,0.667 -1.679,0.697 -0.539,0.02 -0.731,0.373 -0.469,0.841 0.644,1.151 1.167,2.272 3.399,3.821 0.441,0.306 0.481,0.823 0.01,1.09 -0.405,0.232 -0.9,0.392 -1.665,0.322 -0.536,-0.05 -0.778,0.226 -0.546,0.71 0.697,1.458 1.564,2.916 3.718,4.374 0.444,0.301 0.865,0.958 0.785,1.489 -0.204,1.396 -1.06,2.046 -1.974,2.63 -0.452,0.29 -0.537,0.864 -0.115,1.193 0.916,0.716 2.201,1.284 3.574,1.816 0.501,0.194 0.671,0.718 0.279,1.083 -0.493,0.457 -1.131,0.793 -2.053,0.893 -0.528,0.06 -0.772,0.408 -0.468,0.851 0.875,1.274 2.207,2.423 4.475,3.317 0.5,0.197 0.717,0.72 0.397,1.151 -0.886,1.192 -2.048,1.832 -3.361,2.169 -0.524,0.133 -0.845,0.62 -0.584,1.088 0.799,1.432 2.404,2.204 4.558,2.526 0.531,0.08 0.606,0.37 0.267,0.784 -0.727,0.887 -0.963,2.085 0,4.042 1.768,4.001 1.953,7.915 -1.037,11.651 -0.385,0.481 -1.008,1.257 -1.355,1.766 -6.712,9.863 -13.283,16.685 -19.484,15.551 -0.688,-0.126 -1.804,-0.453 -2.47,-0.275 -3.703,0.99 -12.649,7.57 -14.212,13.265 -0.175,0.637 -0.583,0.785 -0.997,0.27 -1.733,-2.152 -2.796,-4.526 -3.465,-7.032 -0.218,-0.817 -0.799,-0.97 -1.287,-0.281 -1.893,2.674 -2.824,5.588 -3.31,8.614 -0.152,0.949 -0.573,1.024 -0.934,0.132 -1.335,-3.295 -2.061,-6.894 -1.887,-10.944 0.04,-0.887 -0.415,-1.116 -1.034,-0.479 -1.608,1.655 -3.146,3.591 -4.6,5.861 -0.484,0.755 -0.973,0.666 -1.096,-0.222 -0.325,-2.355 -0.463,-4.803 0.196,-7.649 0.19,-0.821 -0.279,-1.377 -1.073,-1.103 -2.75,0.95 -5.168,3.231 -7.59,5.494 -0.717,0.671 -1.161,0.425 -0.973,-0.539 1.403,-7.16 3.331,-13.767 9.803,-15.577 4.147,-1.762 8.187,-3.739 12.021,-6.128 3.748,-3.829 6.094,-3.739 8.504,-3.819 0.642,-0.02 1.068,-0.583 0.988,-1.219 -0.291,-2.186 -0.32,-4.113 -0.09,-5.779 0.07,-0.472 -0.194,-1.037 -0.604,-1.278 -13.6,-7.969 -19.668,-22.14 -23.547,-38.114 -0.189,-0.778 -0.901,-1.729 -1.584,-2.147 -1.986,-1.215 -3.841,-2.565 -5.428,-4.193 -4.508,-5.775 5.501,0.914 7.454,-2.849 -8.157,-6.991 -10.757,-1.672 -11.751,-4.736 -0.469,-2.436 -1.066,-6.924 -0.694,-10.23 0.213,-1.892 0.553,-3.708 0.129,-5.426 -0.214,-0.866 -0.689,-2.222 -0.882,-3.096 -0.943,-4.286 -3.211,-7.62 -6.766,-10.196 -0.725,-0.525 -1.45,-0.168 -1.302,0.711 0.512,3.051 2.988,7.811 4.552,10.219 0.572,0.881 1.156,2.346 1.056,3.398 -0.62,6.761 -2.961,12.749 -8.508,15.147 -2.085,3.437 -4.868,6.209 -7.816,9.022 -0.916,0.839 -3.001,0.604 -4.132,-0.482 -1.054,2.136 1.239,2.922 1.104,3.378 -2.526,2.462 -5.044,5.123 -7.233,8.406 -2.048,0.788 -2.706,-0.41 -3.727,-1.089 0,2.802 0.114,5.667 0.59,8.78 -1.447,0.235 -2.086,-0.499 -2.77,-1.179 -0.158,2.095 -0.239,4.241 0.53,6.954 -1.021,0.555 -2.043,0.114 -3.064,-0.413 0.06,1.854 0.05,3.719 1.179,5.421 -0.838,0.145 -1.63,0.473 -2.77,-0.589 0.435,3.044 0.288,6.323 -2.357,9.31 -1.618,1.827 -2.388,5.156 -3.028,8.566 -2.954,13.148 -8.403,19.439 -32.416,21.833 -8.962,0.893 -20.143,-4.85 -20.041,5.21 0,0.529 -0.289,0.681 -0.666,0.31 -3.227,-3.173 -3.456,-6.884 0,-11.256 0.416,-0.526 0.242,-0.863 -0.418,-0.744 -8.501,1.531 -9.525,6.539 -10.657,11.498 -0.209,0.921 -0.571,0.919 -0.752,0 -1.758,-8.925 -0.153,-16.52 15.561,-18.53 1.178,-0.15 1.18,-0.328 0,-0.418 -7.886,-0.6 -16.197,-0.04 -20.072,6.635 -0.38,0.655 -0.652,0.605 -0.622,-0.151 0.306,-7.383 5.452,-11.199 20.634,-9.877 0.94,0.08 0.984,-0.104 0.1,-0.423 -4.351,-1.568 -8.509,-2.772 -13.28,-2.507 -1.037,0.06 -1.161,-0.274 -0.254,-0.782 5.778,-3.238 10.8,-3.899 14.391,0.333 0.136,0.16 0.411,0.298 0.62,0.318 2.018,0.191 4.315,1.413 5.293,3.995 0.173,0.458 0.716,0.722 0.894,0.292 0.447,-1.081 0.02,-3.449 -0.493,-4.671 -0.166,-0.396 -0.1,-0.86 0.252,-1.113 2.192,-1.582 4.443,-4.023 6.092,-6.944 0.925,-1.107 3.408,-2.559 4.679,-0.66 0.662,-0.164 0.417,-1.444 0.09,-2.174 -0.1,-0.222 -0.411,-0.435 -0.649,-0.485 -1.041,-0.231 -2.154,-0.356 -3.313,-0.406 -0.449,-0.02 -0.863,-0.386 -0.923,-0.832 -3.416,-26.757 14.677,-48.525 12.942,-62.36 -1.184,-9.441 2.035,-14.523 7.084,-18.75 2.445,-2.047 4.322,-4.514 5.5,-7.166 1.145,-2.579 2.951,-4.486 4.25,-6.584 4.832,-7.805 4.936,-15.12 4.732,-22.085 -0.03,-1.149 -0.363,-1.197 -0.73,-0.107 l -2.172,6.461 c -0.182,0.546 -0.514,0.56 -0.729,0.03 -2.42,-5.976 -3.375,-11.905 -0.486,-17.714 0.446,-0.896 0.113,-1.304 -0.736,-0.774 -2.869,1.789 -4.028,3.738 -4.705,9.289 -0.199,0 -0.422,-0.392 -0.502,-0.872 -1.919,-13.991 -16.585,-30.763 13.578,-34.83 3.238,-0.445 6.44,-0.91 9.378,-1.512 0.681,-0.139 1.683,0.08 2.096,0.639 0.605,0.811 1.241,1.924 1.662,2.593 0.112,0.179 0.266,0.158 0.296,-0.05 0.147,-1.08 -0.453,-2.631 -1.021,-3.514 -0.114,-0.177 -0.06,-0.357 0.148,-0.407 1.596,-0.425 3.07,-0.913 4.374,-1.487 0.942,-0.415 2.25,-0.236 3.062,0.396 1.455,1.133 3.056,1.942 4.225,1.972 0.564,0.01 0.982,-0.718 0.8,-1.258 -1.26,-3.729 -8.302,-7.007 -11.23,-5.934 -0.531,0.195 -1.187,0.894 -1.632,1.254 -2.409,1.95 -4.861,2.439 -10.575,2.824 -15.787,0.954 -20.993,4.553 -21.736,9.269 -0.112,0.721 -0.102,0.725 -0.172,0 -0.256,-2.714 -1.098,-4.307 -2.053,-5.683 -0.422,-0.608 -0.74,-0.485 -0.72,0.255 0.116,3.474 -0.328,5.955 -1.095,7.868 -0.197,0.498 -0.573,0.492 -0.769,0 -0.567,-1.418 -1.113,-2.87 -2.955,-2.284 -3.172,1.473 -6.372,2.792 -9.866,2.5 -0.676,-0.06 -1.29,0.39 -1.566,1.008 -1.765,3.946 -8.637,3.895 -14.901,6.575 -19.43,7.277 -38.231,8.851 -55.184,-6.368 -0.785,-0.704 -1.713,-0.5 -2.207,0.431 -1.71,3.221 -3.997,5.169 -6.261,7.171 -1.181,1.043 -1.493,0.808 -0.763,-0.588 2.962,-5.662 5.424,-11.112 3.574,-14.733 -0.3,-0.588 -1.048,-0.627 -1.506,-0.151 -2.539,2.637 -4.907,6.042 -7.167,9.931 -0.603,1.037 -1.013,0.916 -1.093,-0.28 -0.665,-3.566 -0.237,-8.22 7.023,-14.163 0.684,-1.781 1.883,-4.886 0.25,-5.25 -4.852,-0.706 -8.252,2.8 -11.263,7.429 -0.706,1.084 -1.2,0.94 -1.074,-0.347 0.698,-7.161 3.405,-12.897 14.508,-12.674 1.058,0.02 1.772,-0.77 1.325,-1.725 -1.898,-4.062 -6.696,-3.843 -11.325,-3.873 -1.291,0 -1.401,-0.531 -0.218,-1.047 6.288,-2.745 12.817,-3.743 20.373,2.702 1.004,0.857 2.007,0.529 1.741,-0.755 -0.562,-2.713 -2.844,-5.336 -5.175,-7.956 -0.493,-0.554 -0.296,-0.922 0.432,-0.781 7.703,1.486 11.898,5.848 10.978,14.406 -0.122,1.131 0.618,2.108 1.753,2.188 13.252,0.897 20.427,0.01 24.411,-1.806 v 0 c 0.879,-0.402 1.801,-1.588 2.28,-2.428 2.093,-3.667 6.24,-6.159 11.607,-7.954 0.36,-0.12 0.876,-0.425 1.153,-0.684 4.069,-3.795 8.62,-7.245 14.035,-10.079 0.302,-0.158 0.761,-0.462 1.019,-0.685 4.226,-3.656 7.856,-7.879 15.931,-7.869 0.515,0 1.336,-0.08 1.832,-0.223 3.789,-1.054 7.167,-2.419 9.77,-4.364 0.568,-0.425 1.332,-1.276 1.754,-1.847 0.364,-0.494 0.728,-0.978 1.092,-1.453 0.182,-0.237 -1.831,7.438 -0.898,11.463 3.951,-10.515 2.071,2.595 4.994,4.17 1.474,-2.739 2.165,-7.745 -0.08,-11.793 2.09,-3.171 0.332,-6.949 -0.746,-7.867 7.835,-9.097 15.541,-14.027 23.158,-16.024 2.563,-0.673 2.664,-1.636 0.02,-1.852 -5.743,-0.471 -11.906,2.397 -26.182,15.283 -0.526,0.474 -1.215,1.371 -1.59,1.972 -2.423,3.885 -6.382,7.042 -11.47,9.665 -1.483,0.765 -2.717,-0.05 -2.488,-1.703 0.674,-4.875 2.896,-10.75 8.185,-18.601 0.363,-0.539 0.593,-1.497 0.603,-2.146 0.09,-4.491 3.521,-10.776 7.319,-12.683 0.526,-0.265 1.277,-0.776 1.645,-1.237 1.639,-2.048 3.542,-3.943 5.831,-5.613 0.922,-0.729 1.728,0.416 2.496,1.342 0.431,-0.774 0.43,-3.174 2.012,-4.066 0.21,1.728 1.199,6.332 2.373,6.948 1.205,-1.76 0.995,-6.331 0.394,-8.981 1.111,-1.457 1.222,-2.577 0.716,-3.136 -0.62,-0.687 -2.416,0 -3.374,-0.1 -0.99,-0.113 -1.045,-1.128 1.866,-5.008 0.656,-3.729 3.138,-6.806 7.616,-9.17 0.539,-0.285 1.094,-0.977 1.271,-1.56 1.292,-4.275 3.727,-5.611 6.476,-6.141 0.817,-0.157 1.092,-0.767 0.513,-1.363 -2.252,-2.323 -4.691,-2.775 -7.155,-2.98 -25.733,-1.217 -29.074,-7.97 -29.329,-15.486 -0.03,-0.819 0.199,-0.846 0.632,-0.151 1.266,2.036 3.775,3.451 9.864,3.076 0.378,-0.02 0.945,0.112 1.273,0.303 5.888,3.428 9.965,3.001 13.01,0.48 0.378,-0.314 1.06,-0.596 1.551,-0.616 5.577,-0.205 8.679,-1.945 8.649,-5.873 0,-0.719 -0.684,-1.426 -1.345,-1.707 -2.596,-1.102 -3.725,-3.303 -4.079,-6.088 -0.09,-0.703 -0.576,-1.613 -1.156,-2.021 -8.97,-6.313 -19.914,-12.922 -24.514,-14.508 -0.329,-0.114 -0.66,-0.466 -0.71,-0.81 -1.713,-10.799 8.482,-10.618 9.773,-6.214 1.281,3.694 8.308,-2.177 -3.028,-5.658 -0.215,-0.07 -0.437,-0.291 -0.497,-0.509 -2.064,-8.1 9.333,-0.325 20.404,0.458 0.57,0.04 1.395,-0.24 1.855,-0.582 20.903,-15.567 59.324,-1.157 70.064,12.34 0.898,1.128 0.452,2.712 -0.798,3.433 -5.099,2.941 -10.11,6.349 -13.414,10.28 -0.463,0.551 -0.44,1.472 0.02,2.028 0.199,0.19 0.397,0.323 0.596,0.403 0.457,0.265 1.177,0.199 1.674,-0.322 30.902,-32.421 60.297,17.15 11.411,28.958 -1.368,0.33 -2.469,1.695 -2.389,3.101 0.307,5.484 1.159,8.854 2.502,10.32 0.336,0.367 0.295,0.634 -0.172,0.807 -0.808,0.299 -1.376,0.791 -1.487,1.647 -0.906,5.957 -3.797,8.189 -6.358,11.043 -0.131,0.149 -0.231,0.433 -0.231,0.634 0.07,3.36 -0.587,5.724 -1.825,7.288 -0.277,0.349 -0.641,0.946 -0.731,1.383 -0.695,3.44 0.616,6.127 4.219,7.955 0.253,0.124 0.388,0.435 0.253,0.675 -0.38,0.674 -0.99,0.808 -1.67,0.788 -0.404,-0.01 -0.797,0.253 -0.847,0.653 -0.449,3.337 0.866,4.657 2.676,5.41 0.34,0.141 0.508,0.51 0.31,0.82 -0.151,0.237 -0.317,0.442 -0.502,0.611 -0.231,0.218 -0.379,0.577 -0.231,0.865 0.707,1.377 1.905,2.754 3.332,4.131 0.234,0.226 0.261,0.612 0.03,0.84 -0.358,0.352 -0.813,0.675 -1.569,0.913 -0.404,0.127 -0.658,0.518 -0.522,0.92 0.532,1.57 1.423,2.961 3.354,3.832 0.361,0.163 0.366,0.385 0.03,0.591 -2.283,1.389 -3.157,4.619 -2.181,10.268 0.06,0.333 -0.153,0.685 -0.461,0.822 -0.478,0.213 -0.977,0.408 -2.149,0.07 -0.458,-0.134 -0.944,0.08 -1.077,0.54 -0.841,2.897 -0.921,5.793 -0.921,8.69 0,0.597 -0.428,0.857 -0.925,0.517 -1.232,-0.84 -2.174,-1.824 -2.978,-2.878 -0.327,-0.428 -0.641,-0.359 -0.691,0.178 -0.286,3.238 0.687,6.005 4.216,7.812 0.336,0.172 0.365,0.468 0.06,0.696 -7.105,5.397 -8.004,15.296 -4.206,17.048 0.394,0.182 0.418,0.349 0.04,0.565 -1.679,0.956 -2.202,2.592 -2.152,4.567 0,0.351 0.313,0.699 0.652,0.789 2.451,0.674 4.008,1.844 5.47,3.067 0.284,0.237 0.265,0.603 -0.03,0.825 -4.095,3.055 -6.652,7.187 -8.157,12.056 -0.147,0.476 0.09,0.66 0.529,0.416 3.389,-1.901 5.29,-2.232 6.765,-2.113 0.389,0.03 0.412,0.222 0.06,0.394 -1.054,0.519 -2.009,1.087 -2.739,1.767 -0.228,0.213 -0.157,0.491 0.129,0.616 2.495,1.084 3.735,2.763 3.602,5.092 0.992,4.466 2.869,8.373 6.835,10.96 -0.09,2.414 0.615,4.734 3.182,6.835 0.352,2.381 1.888,3.915 3.3,5.539 0.497,1.964 1.713,3.929 4.714,5.893 0.313,2.064 0.638,4.124 2.946,5.421 5.756,-0.883 8.711,6.438 10.187,18.089 0.04,0.293 -0.1,0.707 -0.289,0.932 -1.543,1.801 -2.335,3.506 -3.5,6.361 -0.15,0.366 -0.357,0.354 -0.499,-0.02 -0.16,-1.042 -1.256,-2.794 -2.366,-3.384 -0.197,-0.106 -1.28,-0.333 -1.23,-0.556 1.424,-4.442 -0.271,-12.58 -4.611,-17.852 -1.011,-1.013 -1.411,-0.659 -0.765,0.62 2.949,5.841 4.304,10.892 3.723,17.323 -0.02,0.228 -0.224,0.447 -0.441,0.517 -0.521,0.167 -1.317,0.49 -1.277,0.661 0.6,2.167 1.654,4.108 2.88,5.963 0.296,0.448 0.855,1.111 1.219,1.505 1.042,1.128 1.738,2.116 2.278,3.043 0.27,0.462 0.08,0.653 -0.384,0.382 -1.172,-0.686 -2.458,-1.603 -3.98,-2.989 -0.399,-0.362 -0.593,-0.245 -0.429,0.266 0.853,2.654 1.999,4.722 3.273,6.533 0.309,0.439 0.13,0.866 -0.395,0.766 -0.866,-0.158 -1.865,-0.67 -2.983,-1.501 -0.431,-0.32 -0.799,-0.162 -0.719,0.368 0.247,1.512 -0.722,3.223 -2.46,4.749 -0.415,2.033 -2.21,3.261 -3.917,4.541 1.199,0.62 2.776,0.332 5.083,-1.708 0.708,-1.949 1.67,-2.875 2.709,-3.5 0.811,1.464 1.805,2.503 2.949,3.19 z"
             id="path38109"
             sodipodi:nodetypes="ccccccccccccccccccccccccccccccccccccccccccccccccccssssssssssssssscccsssscccccccccccccccscccccccccccccccccccccccccccsssssssssssscccccccccccccccccccccccscscccccssccccccccccccccssscccccccccccccccscccccccccccccccccccccccccccccccccccccccccccccccccccssccccsccccccccccccccccssssssssssscccccccccccccccccccccccccccccccccccc"
             inkscape:label="body-f" />
          <path
             style="opacity:1;fill:#000000;fill-rule:evenodd;stroke:none;stroke-width:1;stroke-linecap:round;stroke-linejoin:round;stroke-miterlimit:4;stroke-dasharray:none"
             d="m -21082.042,-21683.813 c -0.413,12.919 -1.516,20.689 10.288,22.626 11.124,0.922 9.071,8.091 5.083,16.084 4.29,-1.927 5.886,-5.377 6.584,-9.334 12.378,12.257 28.4,18.015 46.583,19.917 1.038,0.57 0.378,1.383 -0.08,2.167 -6.213,0.07 -15.733,10.291 -22.084,24.333 -0.04,2.75 -0.825,3.247 -1.5,4.083 -1.764,2.39 -2.302,3.798 -3,5.334 -2.147,9.345 -7.88,10.155 -11.5,0.25 -4.307,1.333 -7.697,-1.528 -10.916,-5.167 -0.971,0.737 -1.399,1.881 -1.75,3.083 -1.423,-2.672 -2.127,-5.523 -1.667,-8.666 -4.506,1.337 -6.627,-0.192 -8.667,-6.917 -5.098,1.036 -6.208,-1.346 -5.833,-5 -2.613,-1.459 -2.632,-3.517 -1.167,-5.917 -2.818,-1.17 -5.778,-1.053 -8.75,-0.833 1.331,-1.197 2.791,-2.277 5.667,-2.083 -1.635,-2.715 -4.815,-4.401 -9.75,-4.917 0.61,-0.992 1.453,-1.789 3,-2 -1.614,-1.714 -4.23,-2.649 -8.667,-2.167 0.489,-0.899 0.718,-1.581 1.834,-2.083 -2.594,-1.36 -4.825,-2.995 -4.167,-6.833 -11.327,-1.635 -8.366,-49.427 -0.826,-37.111 0.549,0.897 0.745,0.844 0.608,-0.199 -0.232,-1.776 -0.209,-3.445 1.494,-4.413 0.423,-0.241 0.478,-0.588 0.03,-0.784 -2.781,-1.217 -4.949,1.117 -7.866,1.352 -0.369,0.03 -0.714,-0.282 -0.767,-0.649 -0.323,-2.206 -0.555,-4.412 1.72,-6.618 0.296,-0.287 0.634,-0.823 0.701,-1.23 0.963,-5.866 -3.616,-7.296 -7.809,-9.038 -0.323,-0.134 -0.379,-0.445 -0.09,-0.648 4.375,-3.12 14.773,0.327 12.616,4.811 -0.15,0.313 -0.49,0.765 -0.688,1.049 -1.721,2.467 -1.662,3.916 -1.368,5.23 0.166,0.739 0.582,0.776 0.929,0.103 0.732,-1.421 0.897,-3.241 2.383,-4.649 0.267,-0.252 1.529,-1.88 1.709,-2.2 2.388,-4.253 2.29,-7.408 -1.01,-11.958 -0.601,-0.684 -0.481,-0.871 0.316,-0.432 4.835,2.666 9.42,7.386 5.636,10.845 -0.238,0.217 -0.666,0.518 -0.921,0.715 -3.452,2.666 -3.348,6.626 -2.632,9.423 0.231,0.903 0.663,0.867 0.873,-0.04 0.869,-3.749 1.686,-6.698 5.192,-8.452 0.334,-0.167 1.424,-0.903 1.681,-1.172 4.415,-4.621 1.146,-10.726 0.944,-15.236 -0.02,-0.492 0.275,-0.59 0.598,-0.216 4.067,4.703 7.901,9.458 3.095,16.178 -0.236,0.33 -0.739,0.722 -1.104,0.9 -4.897,2.395 -6.754,5.497 -6.474,8.026 0.06,0.581 0.495,0.627 0.818,0.137 1.969,-2.98 4.259,-5.55 7.521,-6.884 0.342,-0.14 0.869,-0.411 1.164,-0.634 4.42,-3.35 6.694,-7.049 6.455,-11.156 -0.03,-0.52 0.213,-0.65 0.548,-0.251 3.834,4.554 3.114,13.164 -3.225,14.098 -0.331,0.05 -0.855,0.166 -1.16,0.304 -9.592,4.332 -12.942,16.673 -1.209,3.858 0.195,-0.213 0.54,-0.248 0.79,-0.105 2.436,1.388 5.788,0.613 9.606,-1.264 0.344,-0.17 0.601,0 0.553,0.379 -0.433,3.375 -2.394,6.75 -9.167,10.124 -0.638,0.318 -1.179,1.136 -1.202,1.848 z"
             id="path49401"
             sodipodi:nodetypes="cccccccccccccccccccccccccccccccccccccssccccccssccscccccccccscccccc"
             inkscape:label="foreleg-r" />
          <g
             id="g104968"
             inkscape:label="body-c">
            <path
               id="path95261"
               style="opacity:1;fill:none;fill-rule:evenodd;stroke:#ffffff;stroke-width:2.5;stroke-linecap:round;stroke-linejoin:round;stroke-miterlimit:4;stroke-dasharray:none"
               d="m -20942.337,-21467.353 c -0.138,2.788 -0.443,5.775 0.166,7.666 m -31.912,-50.232 c 1.288,0.413 2.572,0.396 4.242,0.06 m -9.074,32.585 c 2.003,-1.914 3.241,-4.254 3.83,-6.953 m -2.828,18.738 c 1.171,-2.57 1.381,-5.071 0.353,-7.483 m -41.424,-55.626 c -1.671,0.655 -3.199,1.517 -3.477,4.184 m -13.376,138.18 c 1.668,1.532 2.37,3.064 3.123,4.596 m 0.943,-9.133 c 1.368,0.892 2.52,2.073 3.417,3.594 m 52.444,-237.175 c -0.02,1.591 -0.03,3.182 0.413,4.773 m -3.654,7.542 c 6.336,-1.631 10.926,-3.614 13.141,-7.542 m -20.994,-15.691 c 1.117,2.348 1.355,4.319 0.917,6"
               inkscape:label="body-c-3" />
            <path
               id="path96141"
               style="opacity:1;fill:none;fill-rule:evenodd;stroke:#ffffff;stroke-width:2;stroke-linecap:round;stroke-linejoin:round;stroke-miterlimit:4;stroke-dasharray:none"
               d="m -20985.921,-21660.687 c 1.162,-0.292 1.904,-0.96 2.5,-1.5 m 8.417,6.417 c 0.778,0.665 1.553,1.678 2.083,3.75 m 8.167,-2.75 c 1.828,3.481 6.311,1.88 13.25,-4.417 m 19.75,197.667 c 0.727,1.639 1.646,3.278 3,4.917 m -6.833,-5.167 c -0.301,2.104 -0.235,4.136 0.25,6.083 m -11.667,-15.916 c 0.448,1.861 0.572,3.722 0.08,5.583 m 22.92,53.25 c 0.495,1.671 3.013,1.261 4.417,3.25 m -9.75,-14.083 c 2.657,0.496 4.015,2.051 5.083,4 m 2.084,33.369 c 5.909,1.573 4.935,3.53 -2.357,7.896 m -76.477,-57.432 c 2.139,0.95 3.445,4.152 5.167,4.333 m -35.25,-7.916 c 0.304,2.85 0.108,5.034 -0.25,7 m 56.841,-71.143 c 1.67,0.418 3.339,0.657 5.009,0.295 m -10.43,11.903 c 0.339,1.313 0.329,2.556 -0.118,3.712 m -20.093,-22.215 c 0.03,3.711 0.686,7.051 2.592,9.664 m -26.104,97.816 c 1.041,0.57 1.847,1.375 2.416,2.416 m -19.74,17.56 c 0.511,0.481 1.021,0.746 1.532,2.121 m 11.903,-15.202 c 1.092,0.817 2.086,1.699 2.711,2.828 m 53.622,-234.583 c -0.1,1.002 -0.24,2.004 0.118,3.006 m -11.255,-0.354 c -0.256,1.504 -0.346,3.075 0.177,4.891 m -22.265,-10.132 c 0.24,1.994 0.15,3.549 -0.08,4.917 m 27.997,-87.75 c 3.991,-0.429 6.926,-0.154 8.917,0.75 m 0.987,136.704 c -0.264,-2.442 0,-4.227 0.354,-5.893 m -4.655,0.354 c -0.112,-2.403 0.176,-4.008 0.53,-5.48 m -7.366,-2.534 c -0.296,1.375 -0.459,2.728 0.177,3.948 m -13.671,5.244 c 0.302,1.973 1.551,2.526 2.77,3.123 m -13.435,4.538 c -0.208,-2.311 0.537,-3.805 1.414,-5.186 3.417,0.39 2.271,3.793 4.832,5.48 m -8.662,-6.658 c 0.471,2.17 0.292,4.232 -0.177,6.246 m -4.36,-4.95 c -0.177,1.218 -0.197,2.435 -0.06,3.653 m -6.481,-5.774 c -0.176,0.943 -0.344,1.895 -0.06,3.299 m -11.387,19.386 c 0.494,1.379 0.365,2.882 0.08,4.416 1.774,-2.776 7.775,-3.499 7.25,0.08 m -38.164,3.17 c 0.699,1.683 1.017,3.296 0,4.667 m -10.916,-2.417 c -0.306,2.026 -0.546,4.131 -0.08,7.084 m -4.67,-6.5 c -0.595,1.833 -1.011,3.667 0.25,5.5 m 24.833,-76.25 c 2.543,0.251 4.123,-0.14 5.75,-0.5 m -9.714,-8.192 c 2.374,0.05 4.937,2.593 5.486,3.382 m -7.843,-8.332 c 1.366,0.85 3.435,0.813 4.831,0.118 m 5.422,-9.546 c 0.171,4.016 -1.685,5.626 -5.068,5.421 m -38.066,-26.634 c 1.886,0.273 3.771,0.422 5.657,-0.236"
               inkscape:label="body-c-2"
               sodipodi:nodetypes="cccccccccccccccccccccccccccccccccccccccccccccccccccccccccccccccccccccccccccccc" />
            <path
               id="path96137"
               style="opacity:1;fill:none;fill-rule:evenodd;stroke:#ffffff;stroke-width:1.5;stroke-linecap:round;stroke-linejoin:round;stroke-miterlimit:4;stroke-dasharray:none"
               d="m -20969.254,-21655.27 0.333,4.167 m 45.667,185.333 c 0.86,0.02 1.61,-0.113 2.917,0.5 m -6.75,1.917 c 0.554,1.156 0.657,1.709 0.75,2.25 m -3.417,30.5 c 1.565,0.5 2.794,1.503 3.917,2.666 m -2.084,-8.833 c 1.45,0.475 2.855,0.68 4.084,-0.167 m 0.916,31.25 c 1.471,0.322 2.26,0.19 3.084,0.08 m -3,4.42 c 1.333,0.355 2.667,0.228 4,-0.08 m -4.25,4.747 c 1.351,0.229 2.621,0.295 3.75,0.08 m 8.422,29.828 c -0.276,1.1 -0.313,2.2 -0.118,3.3 m -45.221,9.042 c 1.315,-0.181 2.917,0 2.917,0 m 2.416,4.583 c 1.043,-0.581 1.679,-1.499 2.25,-2.5 m 2.084,8.667 c 0.156,-1.536 0.08,-2.953 -0.08,-4.333 m -4.268,-72.298 c -1.344,5.458 4.763,4.25 4.478,-1.414 m -45.63,-26.538 c 3.095,0.74 4.376,2.816 3.25,6.666 m -7.584,0.25 c 1.822,1.215 3.116,2.762 3.167,5.084 m -11.667,4.666 c 1.583,2.529 3.167,3.47 4.75,4.25 m -10.666,-0.75 c 1.364,1.425 1.71,3.021 1.75,4.667 m -4.834,-2.5 c -0.93,1.042 -1.51,2.294 -1.333,4 m 10.833,-35.5 0.08,3.417 m -6.08,-3.334 1.584,4.417 m -7.084,-5.167 1.667,3.167 m -10.25,6.917 -0.25,3.166 m 0.08,10 c -1.957,0.311 -4.785,0.903 -6.521,2.542 m -4.229,-6.375 c -0.176,1.394 -0.264,2.744 0,3.917 m 61.102,-79.971 c 1.383,0.416 2.645,0.528 4.42,0.118 m -42.604,31.113 c 1.061,-0.353 2.121,-0.314 3.182,0.118 m 4.832,-26.576 c -0.292,2.836 -0.569,5.683 0.06,9.134 m -8.663,-16.676 c 0,1.015 0.02,2.026 0.177,2.887 m -4.361,-7.13 c -0.684,0.986 -1.399,1.94 -2.239,2.77 m 29.761,-17.871 c 1.163,-0.144 2.523,0 4,0.334 m -10.583,-3.25 c 1.918,1.198 3.348,2.674 4.166,4.5 m 5.183,-14.944 c 1.727,1.759 3.062,3.664 3.536,5.893 m -36.593,126.277 c -0.617,1.277 -0.696,2.553 -0.53,3.83 m 0.294,32.056 0.295,2.887 m -29.435,19.917 1.334,-0.416 m 9.833,-4.834 c -0.166,1.053 -0.309,2.069 0.167,3.334 m -4.167,-3.75 c -0.248,1.305 -0.251,2.611 0.167,3.916 m -16.667,4.25 c 1.716,-0.571 3.056,-0.387 4.333,-0.08 m -8.416,-4.336 c 1.944,-0.39 3.295,-0.186 4.583,0.08 m 93.167,-349.58 c 0.408,0.255 0.799,0.481 1.666,1.5 m -8.333,19.666 c -6.266,4.425 -11.496,4.705 -16.917,5.75 8.514,-0.278 15.695,0.848 20,5 m 6.084,-12.416 c -0.117,3.259 1.652,7.327 4.833,12 m 13.833,7.25 c -1.615,1.777 -3.329,1.693 -5.166,-0.75 -1.41,7.383 0.35,8.111 6.416,6.083 2.756,2.489 5,3.823 7.75,0.417 -1.049,1.932 -0.86,3.633 1.667,3.25 m -6.5,-15.584 c -0.207,0.698 -0.499,1.225 -0.5,2.334 m 7.75,-1.334 c -1.446,1.164 -2.765,2.519 -3.333,5 m 13.583,-20.666 c 2.347,3.153 2.264,5.819 0.167,8.083 m -46.929,75.164 c 0,0.943 0,1.885 0.472,2.828 m 15.085,-28.225 c 0.566,0.43 1.067,0.909 2.239,0.884 m -6.718,0 c 0.05,0.854 0,1.619 0.354,2.769 m -28.991,5.716 c -1.023,1.993 -1.216,4.194 -0.354,6.658 m 3.592,-19.544 c 0.389,0.657 0.777,1.238 1.166,2.5 m -9.166,3.583 -0.167,3.167 m -1.75,-3.417 -0.167,3.25 m -4.5,-1 c 0.2,1.026 0.339,2.082 -0.08,3.417 m -4.17,-3.583 c 0.207,0.994 0.185,1.913 -0.08,2.75 m 41.662,56.666 c -0.199,-1.819 0.303,-2.764 0.707,-3.83 m -25.161,-6.482 c 0.479,0.516 0.727,0.986 1.944,1.65 m -121.072,41.246 c 0.781,1.753 3.263,2.663 4.167,4.166 m -16.833,-2.083 3,-0.08 m 3.083,-10.92 c 0.78,-0.274 1.59,-0.498 2.833,0 m 53.699,-71.515 c 0.846,0.27 1.314,0.634 1.532,1.061 m -44.076,-38.655 c 0.982,0.14 1.964,0.452 2.946,0"
               inkscape:label="body-c-1" />
          </g>
        </g>
        <path
           style="display:inline;opacity:1;fill:#e7423f;fill-opacity:1;fill-rule:evenodd;stroke:none;stroke-width:1.5;stroke-linecap:round;stroke-linejoin:round;stroke-miterlimit:4;stroke-dasharray:none"
           d="m -20997.324,-21484.168 c -0.156,6.554 0.417,13.108 3.358,19.662 0.457,1.018 1.507,1.166 2.219,0.307 2.295,-2.773 4.079,-5.956 5.166,-9.695 0.312,-1.071 -0.316,-2.365 -1.272,-2.94 -3.78,-2.272 -6.199,-4.933 -8.234,-7.703 -0.661,-0.9 -1.21,-0.746 -1.237,0.369 z"
           id="path108651"
           sodipodi:nodetypes="cccc"
           inkscape:label="manhood" />
        <g
           id="g105008"
           inkscape:label="eye">
          <path
             id="path21440"
             style="display:inline;opacity:1;fill:#ffffff;fill-rule:evenodd;stroke:none;stroke-linecap:round;stroke-linejoin:round"
             transform="rotate(20.399788)"
             d="m -27217.078,-13027.854 c -0.108,2.66 -4.194,6.565 -9.369,6.565 -6.154,0 -9.369,-2.939 -9.369,-6.565 0,-3.625 5.202,-6.564 9.369,-6.564 5.174,0 9.477,3.904 9.369,6.564 z"
             sodipodi:nodetypes="zsssz"
             inkscape:label="eye-0" />
          <circle
             style="display:inline;opacity:1;fill:#000000;fill-rule:evenodd;stroke:none;stroke-width:1;stroke-linecap:round;stroke-linejoin:round;stroke-miterlimit:4;stroke-dasharray:none"
             id="path21646"
             cx="-20978.148"
             cy="-21701.191"
             r="3.5"
             inkscape:label="pupil" />
        </g>
      </g>
    </g>
  </g>
</svg>
