<?xml version="1.0" encoding="UTF-8"?>
<svg width="1221.3" height="1522.9" version="1.0" xml:space="preserve" xmlns="http://www.w3.org/2000/svg"><desc>Coat of Arms of Canton of Freiburg (Fribourg)</desc><g transform="matrix(2.02 0 0 2.02 2.5113 147.44)"><path d="m82.585 512.49c55.757 73.169 154.78 138.97 218.47 165.36 58.519-24.189 134.54-76.914 175.79-114.94 36.233-34.285 62.003-83.671 84.528-128.41 20.789-40.346 37.05-96.318 39.139-175.6h-598.92c0 98.875 39.577 199.25 80.987 253.59z" stroke="#000" stroke-width="3" style="paint-order:markers fill stroke"/><rect x="1.5978" y="-70.146" width="596.83" height="329.05" fill="#1c63b7" fill-rule="evenodd" style="paint-order:fill markers stroke"/></g><g transform="matrix(2.02 0 0 2.02 2.5285 147.45)"><g transform="matrix(2.8202 0 0 2.8202 -903.98 -392.24)"><path d="m426.67 235.4a11.774 11.241 0 0 0-11.774 11.241 11.774 11.241 0 0 0 11.774 11.241 11.774 11.241 0 0 0 11.774-11.241 11.774 11.241 0 0 0-11.774-11.241m0 3.7299a7.5103 7.5103 0 0 1 7.5107 7.5106 7.5103 7.5103 0 0 1-7.5107 7.5107 7.5103 7.5103 0 0 1-7.5107-7.5107 7.5103 7.5103 0 0 1 7.5107-7.5106" fill="#fff" stroke-width="1.0009"/><path d="m426.41 248.01c6.6302 0 7.4 82.893 7.4 82.893 0.1 1.7 0.2 2 1.6 2 17.6 1.2 32.9-5.6 47.6-17.6 1.4-1.4 2.6-3.5-1.7-3.9l-4.1 0.2 20.9-18.8c-0.7 8.2-2.4 18.4-3.6 27.3l-3.9-4.4c-0.8-1.2-2-2.1-3.2 0.1-14.5 23-50.981 23.646-61 41-10.247-17.748-34.6-11.5-62-41-1.5-2-1.9-1.9-3.5-0.3l-3.4 4.6-3.2-27.6 20.8 19-5.6-0.5c-1.5 0.3-3.3 1.2-1.2 3.2 12.3 14.5 29.4 17.8 47.8 18.7 2.1 0 2-0.4 2.2-2.5 0.98996-18.502 1.4698-82.393 8.1-82.393z" fill="#fff" stroke="#000" stroke-width=".41794"/><path d="m426.41 252.34c0 4.0134 1.2367 88.221 1.2367 88.221 9.0468 0 42.691-8.4778 54.784-22.207-8.1569 13.548-52.538 24.975-54.731 23.989l-1.2889 5.5877-0.99629-5.6323c-2.9658 0.79469-44.5-8.9329-55.602-23.788 13.229 13.444 44.743 22.116 55.558 22.116"/><path d="m401.42 263.16c23.095-3.3753 27.479-3.4237 50.664 0 1.8493 0.37776 1.8428 2.0124 0 2.3889-22.339 4.5632-28.631 4.5006-50.664 0-1.1368-0.23221-1.1368-2.1566 0-2.3889" fill="#fff" stroke="#000" stroke-width=".31335"/><path transform="matrix(.41794 0 0 .41794 300.89 99.774)" d="m299.28 393.38c-1.2796 5.4e-4 -2.558 2e-3 -3.8375 5e-3 -13.939 0.0265-44.369 0.15975-58.177 0.39887 11.683 0.14162 39.915 0.22341 51.652 0.24468 5.5406 0.0101 11.082 7e-3 16.622-5e-3 13.55-0.029 47.307-0.10891 60.818-0.23933-15.515-0.27579-51.405-0.41065-67.077-0.40343z" style="paint-order:markers fill stroke"/></g><g transform="matrix(1.2225 0 0 1.2225 -68.657 -92.754)" stroke="#000"><g class="UnoptimicedTransforms" stroke-linejoin="round" stroke-width="3"><g stroke-miterlimit="1.4"><path d="m89.43 219.45 47.801-54.953 48.605 54.953m329.59 0-47.801-54.953-48.605 54.953" fill="none" stroke-linecap="round" stroke-width="3"/><path d="m137.23 219.45v-54.953m330.39 54.953v-54.953" fill="none" stroke-linecap="square" stroke-width="3"/><path class="UnoptimicedTransforms" d="m93.793 219.27c0 2.3708-1.9219 4.2928-4.2928 4.2928s-4.2928-1.922-4.2928-4.2928c0-2.3708 1.9219-4.2928 4.2928-4.2928s4.2928 1.9219 4.2928 4.2928zm417.27 0c0 2.3708 1.922 4.2928 4.2928 4.2928 2.3708 0 4.2928-1.922 4.2928-4.2928 0-2.3708-1.922-4.2928-4.2928-4.2928-2.3708 0-4.2928 1.9219-4.2928 4.2928zm0 0c0 2.3708 1.922 4.2928 4.2928 4.2928 2.3708 0 4.2928-1.922 4.2928-4.2928 0-2.3708-1.922-4.2928-4.2928-4.2928-2.3708 0-4.2928 1.9219-4.2928 4.2928zm-417.27 0c0 2.3708-1.9219 4.2928-4.2928 4.2928s-4.2928-1.922-4.2928-4.2928c0-2.3708 1.9219-4.2928 4.2928-4.2928s4.2928 1.9219 4.2928 4.2928z" fill="#fcdb00" stroke-linecap="round" stroke-width="1.5"/><path class="UnoptimicedTransforms" d="m190.04 219.27c0 2.3206-1.8812 4.2018-4.2018 4.2018-2.3206 0-4.2018-1.8812-4.2018-4.2018s1.8812-4.2018 4.2018-4.2018c2.3206 0 4.2018 1.8812 4.2018 4.2018zm224.78 0c0 2.3206 1.8812 4.2018 4.2018 4.2018s4.2018-1.8812 4.2018-4.2018-1.8812-4.2018-4.2018-4.2018-4.2018 1.8812-4.2018 4.2018zm0 0c0 2.3206 1.8812 4.2018 4.2018 4.2018s4.2018-1.8812 4.2018-4.2018-1.8812-4.2018-4.2018-4.2018-4.2018 1.8812-4.2018 4.2018zm-224.78 0c0 2.3206-1.8812 4.2018-4.2018 4.2018-2.3206 0-4.2018-1.8812-4.2018-4.2018s1.8812-4.2018 4.2018-4.2018c2.3206 0 4.2018 1.8812 4.2018 4.2018z" fill="#fcdb00" stroke-linecap="round" stroke-width="1.5"/></g><g fill="#fcdd09" stroke-linecap="round" stroke-miterlimit="1.4" stroke-width="3"><path d="m185.91 219.45c0 48.637-96.476 48.637-96.476 0h47.801zm233.04 0c0 48.637 96.476 48.637 96.476 0h-47.801z"/><path d="m68.647 137.16s5.5422 12.393 10.344 16.948c5.4531 5.1717 10.985 4.4082 19.839 10.712l-7.1914 11.994s17.333-12.427 27.345-12.427c58.185 0 172.46-0.20783 172.46-0.20783l-0.83132-25.979h-33.253c7.0663 15.587-22.116 11.64-32.422 7.2741-19.625-8.3135-30.748-4.4931-41.566 0-14.973 6.2184-30.712 8.148-46.211 8.3227-15.499 0.17465-34.882-3.4782-49.892-6.795-8.224-1.8173-12.217-6.856-18.62-9.841zm467.56 0s-5.5422 12.393-10.344 16.948c-5.453 5.1717-10.985 4.4082-19.84 10.712l7.1914 11.994s-17.333-12.427-27.345-12.427c-58.185 0-172.46-0.20783-172.46-0.20783l0.83132-25.979h33.253c-7.0663 15.587 22.116 11.64 32.422 7.2741 19.625-8.3135 30.748-4.4931 41.566 0 14.973 6.2184 30.712 8.148 46.211 8.3227 15.499 0.17465 34.882-3.4782 49.892-6.795 8.224-1.8173 12.217-6.856 18.62-9.841z"/><path d="m133.07 151.71c0-2.2861 8.3132-2.0783 8.3132 0v15.587c0 4.1566-8.1054 4.1566-8.3132 0zm338.7 0c0-2.2861-8.3132-2.0783-8.3132 0v15.587c0 4.1566 8.1054 4.1566 8.3132 0z"/></g><path x="134.49014" y="214.97539" width="5.6076813" height="8.585598" rx="2.7596464" ry="2.8038406" d="m137.25 214.98h0.0884c1.5288 0 2.7596 1.2505 2.7596 2.8038v2.9779c0 1.5533-1.2308 2.8038-2.7596 2.8038h-0.0884c-1.5288 0-2.7596-1.2505-2.7596-2.8038v-2.9779c0-1.5533 1.2308-2.8038 2.7596-2.8038zm330.35 0h-0.0884c-1.5288 0-2.7596 1.2505-2.7596 2.8038v2.9779c0 1.5533 1.2308 2.8038 2.7596 2.8038h0.0884c1.5288 0 2.7596-1.2505 2.7596-2.8038v-2.9779c0-1.5533-1.2308-2.8038-2.7596-2.8038z" fill="#fcdb00" stroke-linecap="square" stroke-width="1.5" style="paint-order:markers fill stroke"/></g><g transform="matrix(2.0783 0 0 2.0783 20.846 -149.65)" fill="#fcdd09" stroke-linecap="round" stroke-linejoin="round" stroke-miterlimit="1.4"><circle transform="matrix(.48116 0 0 .48116 -10.03 72.004)" cx="301.42" cy="72.732" r="22.446" fill="#fcdd09" stroke="#000" stroke-linecap="round" stroke-linejoin="round" stroke-miterlimit="1.4" stroke-width="3"/><path transform="matrix(1.0009,0,0,1.0009,0,68)" d="m133 44v8.5l-5.9 5.8v22.9l7.7 8.3 7.8-8.3v-22.9l-5.8-5.8v-8.4z" stroke-width="1.4422"/><circle cx="135" cy="150" r="3.3" fill="#fcdb00" stroke-width="1.4435"/></g><path class="UnoptimicedTransforms" transform="translate(.026126 3.022)" d="m112.11 51.24 8.7662 24.539 26.052 0.53786-20.629 15.92 7.539 24.943-21.516-14.7-21.393 14.878 7.3315-25.005-20.76-15.748 26.047-0.75427zm380.59 0-8.7662 24.539-26.052 0.53786 20.629 15.92-7.539 24.943 21.516-14.7 21.393 14.878-7.3315-25.005 20.76-15.748-26.047-0.75427z" fill="#fcdb00" stroke-linecap="square" stroke-width="3" style="paint-order:markers fill stroke"/><path class="UnoptimicedTransforms" transform="translate(104.38 3.022)" d="m112.11 51.24 8.7662 24.539 26.052 0.53786-20.629 15.92 7.539 24.943-21.516-14.7-21.393 14.878 7.3315-25.005-20.76-15.748 26.047-0.75427zm171.88 0-8.7662 24.539-26.052 0.53786 20.629 15.92-7.539 24.943 21.516-14.7 21.393 14.878-7.3315-25.005 20.76-15.748-26.047-0.75427z" fill="#fcdb00" stroke-linecap="square" stroke-width="3" style="paint-order:markers fill stroke"/></g></g><g transform="translate(310.06 479.57)"><path d="m-304.33-473.83h1209.8v703.69c-1.6114 54.706-8.1361 106.71-20.406 160.06-26.257 114.54-76.777 223.14-146.59 317.76-40.218 54.812-87.079 105.03-138.44 149.55-88.399 76.565-191.06 136.42-299.47 179.89v0c-82.152-32.953-161.46-75.443-233.18-127.4-99.798-72.088-185.52-163.02-249.2-268.53-75.112-124.1-118.75-266.49-122.53-411.46z" fill="none" stroke="#000" stroke-linecap="round" stroke-miterlimit="1e3" stroke-width="11.478" style="paint-order:fill markers stroke"/></g></svg>
