<?xml version="1.0" encoding="UTF-8"?>
<svg width="1221.3" height="1522.9" version="1.1" viewBox="-2.5 -2.5 1225.4 1327.6" xmlns="http://www.w3.org/2000/svg">
 <path d="m3.6191-96.443h1213.8v706.03c-1.6167 54.888-8.1631 107.06-20.474 160.6-26.344 114.92-77.031 223.88-147.08 318.82-40.351 54.994-87.367 105.38-138.9 150.05-88.693 76.819-191.7 136.88-300.47 180.49-82.425-33.063-162-75.693-233.96-127.82-100.13-72.327-186.13-163.56-250.03-269.42-75.361-124.51-119.14-267.38-122.93-412.83z" fill="#fcdb00" style="paint-order:fill markers stroke"/>
 <g transform="matrix(2.2586 0 0 2.2586 -67.231 10.96)" fill="#094">
  <path d="m299.37 407.29c-10.94-0.045-19.74 7.994-25.68 16.42-12.29 22.52-12.99 23.42-19.85 49.39-5.608-11.62-13.29-22.81-21.87-32.47-5.438-5.891-12.56-11.93-21.13-11.28-8.29 0.106-14.638 5.2629-19.728 11.147-12.88 15.83-20.473 36.521-26.123 55.831-3.511 12.71-6.5294 25.04-8.2984 38.08 3.56 3.604 58.1 43.998 62.03 47.258 44.69 23.65 33.49 20.36 81.2 41.59 41.58-18.76 39.05-18.47 79.17-39.96 8.28-6.054 55.94-42.009 63.77-48.629-3.466-21.17-15.61-60.037-24.7-80.337-4.306-9.067-10.542-18.64-19.236-24.16-6.762-3.563-16.717 0.42902-22.177 5.1449-11.86 9.456-19.158 21.357-26.458 34.487-1.254-5.501-2.586-9.142-9.703-25.73-5.908-11.93-12.95-24.11-24.15-31.81-5.047-3.236-11.04-5.056-17.04-4.969z" style="paint-order:normal"/>
  <path d="m110.48 131.29-0.0118 4e-3c-3.744 0.034-5.6675 4.0492-5.8945 7.3132-0.6526 3.648 2.315 7.2502 0.7662 10.809-1.751 2.607-5.1386 1.1854-7.2956-0.0686-3.446-2.065-7.1054-4.7814-11.379-4.0074-4.889 0.5001-8.282 4.9634-10.041 9.1964-2.407 5.852-1.1545 13.459 4.1485 17.309 4.117 3.589 10.211 1.702 14.521 4.801 2.387 1.659 2.6211 5.3357 0.41544 7.2407-2.017 2.576-5.3324 4.39-6.3844 7.664-0.9926 3.198 1.3832 6.7294 4.6952 7.1094 5.827 1.008 11.57-1.5942 16.2-4.9382 2.291-1.786 6.3553-1.7876 7.5543 1.2894 1.07 1.954 0.72012 4.5345-1.1601 5.8475-2.295 1.607-4.8928 3.91-4.3758 7.035 0.392 3.735 4.6618 5.3599 7.9638 4.8559 6.402-0.6279 11.2-5.3487 15.82-9.3297 2.647-2.321 6.5986-4.5682 10.01-2.4162 2.454 1.637 1.7991 5.0385 0.15677 7.0095-1.612 2.198-3.0306 5.2675-1.3306 7.8325 2.339 3.944 7.7758 4.1637 11.701 2.8787 6.048-2.222 9.3267-8.7586 15.44-10.69 4.91-0.8873 9.8058 0.60318 14.711 1.0582 4.08 0.7659 8.3557 0.76606 12.14 2.4613 0.8675 0.764 1.4143 0.61185 1.5063 1.8478-0.5707 0.7874-0.79526 0.56344-1.6553 1.0582-10.587 2.9187-24.202 9.711-33.764 15.849-1.7155-1.0804-3.5647-1.9648-5.3713-2.7023-2.308-0.8643-4.7509-1.4831-7.2309-1.4521l-4e-3 -2e-3c-2.542 0.1288-5.2004 0.98191-7.1623 2.6141-2.4926 1.6656 0.25562 1.9067 0.0784 3.4411l-2e-3 2e-3c-1e-3 9.6e-4 -3e-3 9.5e-4 -4e-3 2e-3 -5.7983 5.4588-11.593 11.599-14.033 19.367-1.321 4.912-1.5562 10.54 0.95433 15.12 2.467 4.16 7.7437 5.2973 12.24 4.7893 6.116-0.3614 12.491-2.7798 16.051-8.0128 2.9887-2.8539 2.743-2.3997 5.1302-0.65842 1.696-0.2388 2.2348-2.4043 3.1158-3.6703 3.261-6.376 5.1876-14.04 3.0276-21.07-0.14016-0.3941-0.30409-0.77205-0.48011-1.1424 8.7306-5.8963 20.828-13.15 30.19-16.035 6.377-1.942 13.129-4.2898 19.829-2.7728 4.595 0.9776 9.4083 1.605 13.809 3.396 2.282 1.136 5.3407 3.1738 4.8187 6.1218-1.678 3.334-4.2896 6.4755-7.7346 8.0755-4.091 1.54-8.5564 0.62745-12.639-0.47815-3.486-1.042-6.1324-4.7023-10.019-4.2543-2.76 0.5494-5.5302 3.8967-3.9682 6.6607 2.424 2.722 6.522 4.8058 6.647 8.8888 0.1437 3.152-3.1812 5.3336-6.1042 4.8206-5.753 0.1273-11.669-0.57294-17.299 0.90926-3.174 1.328-5.6536 4.6985-5.6926 8.1735 0.57639 3.377 4.0867 5.0295 6.4157 7.1075 1.922 1.411 4.0865 3.5144 3.2275 6.1394-0.88 3.24-4.7331 3.5974-7.4191 4.4894-5.146 1.209-10.21 2.8566-14.74 5.6476-3.973 2.322-8.902 5.0315-9.7 10.019-0.5488 2.594 0.68879 5.648 3.4783 6.257 3.915 1.206 8.8847-0.0812 11.85 3.4215 2.561 2.888 2.0095 7.1622 0.85439 10.519-1.503 2.866-4.5664 4.6522-5.6574 7.8012-1.31 3.568-1.9151 7.5516-1.2561 11.321 1.116 3.523 3.2797 6.7522 5.9337 9.3022 3.379 2.52 8.4369 1.4756 11.26-1.4344 2.496-1.924 3.9816-4.8061 4.3856-7.9011 1.144-5.634 3.1234-11.731 7.6934-15.451 1.562-1.35 4.6981-2.0728 5.6241 0.31942 0.71 2.755-0.28564 5.887 1.5638 8.344 1.02 2.074 3.5032 4.078 5.8592 2.763 2.258-0.9141 3.587-3.164 3.782-5.532 1.045-5.32 1.7309-10.818 0.5722-16.178-0.7308-5.79-2.7739-11.35-3.2569-17.17-0.079-2.624-0.46976-6.1669 2.4965-7.4249 2.128-0.9427 3.9136 1.1944 4.2876 3.0864 1.579 4.59 2.7109 9.8693 6.6039 13.131 2.248 1.915 5.759 0.15166 6.255-2.569 1.04-5.135 0.32269-10.481-0.5526-15.591-0.8821-4.643-4.4635-8.54-4.0505-13.439 0.028-2.159 0.53518-5.2166 2.9551-5.8866 2.637 0.2661 2.7654 3.6402 3.4704 5.6182 0.8345 2.331 1.5929 5.7136 4.4699 6.1786 2.963-0.0995 4.4513-3.3269 5.2713-5.7769 1.203-3.274 0.51129-6.8278-1.0327-9.8568-2.255-4.918-2.0746-10.491-2.2026-15.781 0.038-2.824 0.14875-5.998 2.3986-8.054 3.153-3.532 8.4377-3.184 12.53-1.744 7.492 2.362 15.875 10.44 21.645 15.735 0.8671 1.029 0.21724-3.0674-0.36976-4.2246-0.9998-3.948-1.8637-7.9896-3.4097-11.76-1.959-2.645-5.1598-3.9925-7.7718-5.8945-10.56-6.488-22.581-9.9232-34.101-14.25-9.537-3.528-19.319-6.3938-29.339-8.1618-7.573-1.383-15.089-3.4541-21.759-7.3701-3.573-2.151-7.5535-3.913-10.502-6.935-2.582-3.504-2.0278-8.1749-3.2608-12.179-1.286-4.635-3.0289-9.8401-7.3289-12.51-1.773-1.202-4.4708 0.1501-4.2778 2.377-0.3036 2.725 0.63284 5.6958-0.54085 8.2558-1.503 2.538-5.1343 2.0065-6.6803-0.18029-2.341-2.723-1.536-6.3608-1.987-9.6628-0.2814-7.542-2.4301-15.631-8.2401-20.821-1.769-1.725-5.1773-2.7305-6.8273-0.30962-1.383 2.402-0.46077 5.39-0.82107 8.003 0.1563 2.869-3.0397 5.9719-5.7887 4.0779-2.906-1.897-2.407-5.894-3.006-8.877-0.6291-5.795-2.7297-12.151-8.1147-15.181-1.064-0.589-2.2641-0.98391-3.4901-0.96021z" style="paint-order:normal"/>
  <path d="m379.15 127.01c-6.355 0.0758-13.49 18.95-18.53 13.2-2.291-5.788-0.086-14.28-8.696-6.201-3.839 3.981-7.231 8.392-10.03 13.16-0.7662 1.128-1.832 2.447-3.369 2.25-2.095-5e-3 -4.144-0.5752-6.227-0.6597-1.25 0.5364-2.013 1.812-2.998 2.708-2.545 2.768-5.138 5.498-7.559 8.375-6.7661 2.3506 0.4941 1.577 1.293 1.328 4.315-0.2785 8.963-0.8562 12.97 1.163 2.711 1.405 4.033 4.355 6.304 6.26 1.593 1.195 3.807-0.0891 4.643-1.611 1.035-1.744 0.5321-3.882 1.212-5.716 0.7993-1.938 3.407-2.236 4.987-1.109 5.169 6.315 5.476 17.1 11 21.31 0.8945 1.25 2.661 1.336 3.896 0.5634 3.64-1.147 3.529-9.744 6.739-8.672 5.914 6.137 5.075 17.67 11.08 21.56 1.59 1.012 3.898 1.91 5.601 0.6477 1.751-1.506 1.436-4.106 1.127-6.147-0.8072-2.754-2.664-10.68 1.954-9.688 4.518 2.604 8.395 6.898 13.15 8.262 2.556 0.6618 5.511 0.2332 7.411-1.722 2.629-2.644 4.054-6.481 3.821-10.2-3.115-13.28-10.37-9.611-17.24-12.39-1.593-0.8783-1.855-3-1.104-4.523 4.009-5.722 9.714-14.07 1.485-18.59-2.498-1.123-5.598-0.5315-7.595 1.327-2.409 2.046-4.158 4.932-7.127 6.268-11.89 3.656-3.46-8.1-2.369-11.59 0.3537-2.603-0.4555-5.299-1.83-7.502-0.8883-1.258-2.461-2.072-4.002-2.068z" style="paint-order:normal"/>
  <path d="m335.8 175.69v6e-3c-2.963 0.108-5.7654 1.301-8.4224 2.524-4.529 2.418-7.922 6.9778-8.828 12.04-0.2158 2.475-0.12948 5.0358 0.91122 7.3368 1.693 4.231 4.1641 8.2231 7.6581 11.201 1.252 1.079 3.5149 3.0713 5.0599 3.6923 1.5971-1.2281 0.34582-2.0206 2.7104-1.1677 4.63 1.444 11.97 1.954 16.807 1.132 4.05-0.6694 6.8215-2.0153 9.2905-5.5163 1.333-1.743 2.0883-4.269 1.8303-6.453-0.2206-3.537-2.9798-6.529-5.2988-9.071-3.217-3.326-6.957-6.2077-10.784-8.7637-2.3378-2.3078-6.3089-1.6919-8.183-3.6759-0.22871-0.50951 0.4713-1.8727 0.76669-2.5767-1.0054-0.63864-1.8366-0.64521-2.6616-0.67821-0.2844-0.0232-0.57094-0.0324-0.85634-0.0294z" style="paint-order:normal"/>
  <path d="m437.8 5.1637c-2.571-0.0381-4.5969 2.0016-5.5339 4.2386-1.868 4.697-2.9989 9.6517-4.1289 14.57-0.5726 2.362-0.83312 4.8159-1.1777 7.1839-0.1635 1.544-1.6916 3.1373-3.3176 2.5063-1.684-0.6505-2.0256-2.5956-2.3966-4.1446-0.8389-2.987-1.5866-5.9905-2.1066-9.0455-0.2448-1.436-1.5298-2.9142-3.1138-2.5122-1.975 0.4528-2.7679 2.5795-3.6939 4.1485-2.759 5.039-4.5669 10.64-4.8089 16.4-0.2667 3.834 0.0938 7.668 0.24691 11.499-0.1263 2.495-0.74729 5.4546-3.1197 6.7626-1.845 1.091-4.2854-0.09525-4.9304-2.0497-0.9515-2.342-0.33808-5.0831-1.5775-7.3211-0.9839-1.681-3.3015-1.8081-4.8735-0.93473-3.594 1.827-5.4744 5.747-6.5274 9.457-1.989 7.005-0.51474 14.44-2.7924 21.34-2.093 6.496-7.0704 11.421-11.33 16.551-5.997 7.1-11.731 14.45-18.391 20.96-7.252 7.252-14.918 14.089-21.918 21.589-0.4773 1.072-0.0523 2.3535 0.31745 3.4195 0.4439 0.9637 0.98556 1.99 1.8989 2.571 1.124 0.0193 1.5594-1.2948 2.3084-1.9498 6.592-7.813 14.47-14.632 23.5-19.512 7.166-3.876 15.219-6.0694 23.319-6.0454 6.771-0.0419 16.279 2.6289 23.808 5.4384-0.47587 4.4664 2.0339 10.119 4.0457 14.105 2.008 4.05 4.7715 7.8022 8.4655 10.47 1.642 1.196 4.7508 3.535 6.6588 4.295 1.085 0.2456 7e-3 3.2e-4 0.697-3.2216 4.822-0.26 12.36-0.92558 17.077-2.014 4.969-1.15 9.8676-3.9289 12.34-8.5439 1.972-3.668 1.941-8.241 0.17244-11.981-2.662-5.903-5.9616-10.747-11.237-14.467-3.245-2.8528-7.6898-3.9658-11.58-5.424 0.1036-0.8817 1.6672-3.956 0.975-4.73-3.582-0.29008-7.9204 0.32386-11.039 1.3255-5.9553 3.0445-11.714 7.3423-14.127 12.893-1.9464-0.52746-2.6164-0.32708-3.0681-0.54006-6.395-1.934-12.881-3.7368-19.531-4.5228-5.046-0.5351-10.34-0.29421-15.06 1.6304-0.2591 0.2366-1.0711 0.18133-0.88966-0.30177 2.43-3.036 5.1561-5.8312 7.7581-8.7202 4.156-4.371 8.3015-9.0275 13.751-11.811 1.853-0.9874 4.1789-1.1769 6.0199-0.04507 2.746 1.588 5.1586 3.7212 8.0716 5.0342 2.155 1.099 4.8219 2.3289 7.1859 1.0739 1.783-0.9998 3.3068-2.4795 4.4738-4.1485 1.082-1.719 0.42502-3.947-0.89358-5.336-1.28-1.535-3.2445-3.0046-2.9845-5.2596-0.1171-1.663 1.58-2.9497 3.151-2.8297 2.253-0.0466 4.6472-0.19445 6.6842 0.95825 3.98 1.831 6.7123 5.6851 10.901 7.1271 2.376 0.6423 5.0373 0.61451 7.2133-0.65059 2.46-1.282 4.61-4.036 3.882-6.937-0.6968-2.513-3.0859-3.9646-4.6619-5.8906-1.499-1.473-2.0628-3.8692-1.0268-5.7632 0.7702-1.443 2.196-2.8827 3.978-2.6337 1.859-0.0932 3.1945 1.4702 4.5835 2.4652 1.796 1.362 3.2362 3.1685 5.1302 4.3915 2.45 0.9627 5.055-0.1414 7.129-1.4697 2.905-1.936 5.6221-4.5085 6.8841-7.8325 0.7402-2.109 0.50388-4.8115-1.4109-6.2335-1.943-1.528-4.5123-2.2161-6.0493-4.2621-1.682-1.944-2.0065-5.1195-0.21752-7.1055 3.215-3.769 7.8014-6.1511 10.699-10.229 1.808-2.5 3.0506-5.5207 2.8826-8.6516-0.056-4.127-0.97682-8.5424-3.7781-11.718-2.67-2.915-6.9696-3.4351-10.69-2.9041-2.295 0.4193-4.3565 1.7812-5.6495 3.7232-1.586 2.2-2.9722 4.589-4.9852 6.402-1.047 0.8969-1.8548 2.2158-3.2098 2.6788-1.605 0.5629-3.0415-1.0939-2.8845-2.6259-0.2672-3.478 0.99045-6.9782 0.13325-10.419-0.6187-2.364-2.6569-4.5459-5.2458-4.4699-0.1272-5e-3 -0.25483-2e-3 -0.38213 0z" style="paint-order:normal"/>
  <path d="m266.6 175.65v0.0118c-1.439 0.1466-4.5486-7e-3 -5.8196 0.73088-0.41647 0.50063 0.33187 0.8939 0.568 1.4725-5.0326 1.4257-9.4036 4.0766-13.165 6.9047-4.595 3.341-9.2616 7.7256-10.061 13.651-0.55139 3.792 1.5834 7.5886 4.8794 9.4276 4.99 2.84 10.979 3.484 16.619 2.961 2.336-0.3356 5.4715-0.061 7.6145-1.0965 0.6269 1.309-0.10074 2.7379 0.49176 2.8022 4.736-3.604 12.567-10.302 14.232-16.532 1.29-4.838-0.60647-11.166-3.6016-14.936-3.0135-3.3631-8.06-5.4085-11.758-5.3967z" style="paint-order:normal"/>
  <path d="m221.37 127.24c-3.244 0.0568-5.213 3.325-5.61 6.225-0.4359 1.886-0.1535 3.961 1.234 5.401 1.303 1.547 2.607 3.407 2.31 5.517 0.049 1.487 0.1563 3.497-1.593 4.086-2.313 0.6346-4.68-0.6311-6.498-1.985-2.668-2.045-4.628-5.172-7.884-6.354-2.31-0.578-5.002-0.3381-6.733 1.465-2.458 2.368-3.11 6.294-2.013 9.451 1.308 3.045 4.463 4.915 5.558 8.059 0.41 1.501-0.1518 3.288-1.718 3.836-3.036 0.8043-6.5579-0.29551-9.325 1.616-2.849 1.9681-5.4044 3.955-6.8553 7.1567-1.3711 3.0255-0.87198 6.9853 0.63222 9.8133 1.512 3.242 5.043 5.705 8.711 5.046 4.792-0.837 8.745-3.987 12.26-7.158 1.219-1.145 3.337-1.75 4.62-0.3849 1.596 1.93 0.4108 4.613-0.075 6.745-0.4914 2.445-1.304 5.426 0.3377 7.611 1.499 1.682 4.039 0.7293 5.722-0.154 2.448-1.184 4.136-3.46 4.996-5.995 1.84-4.633 3.112-9.483 5.099-14.05 0.8149-1.432 3.522-1.573 3.842 0.3156 0.4355 2.282 1.151 4.669 3.067 6.162 1.35 1.32 3.969 2.095 5.256 0.2799 1.599-2.147 3.532-3.973 4.783-6.385 1.446-3.152 2.3609-8.2006 4.2569-11.19 1.123-1.977 1.1952-1.7278 3.6112-2.2448 1.704-0.2829 2.7059-0.42812 2.8739 1.4257 0.2746 2.155 1.1045 4.6968 3.291 5.9048 1.342 0.9741 3.232 0.5164 4.155-0.8018 2.049-2.217 3.847-5.002 6.948-5.829 4.005-1.347 10.464 0.39208 14.562 0.41728 1.199-0.2392-1.584-2.6166-2.2889-3.1556-2.766-3.17-5.56-6.357-8.677-9.183-1.955-1.244-4.315-0.0442-6.421 0.0163-1.627 0.402-3.312-0.2736-4.263-1.639-2.361-3.532-4.779-7.101-7.673-10.26-2.012-2.086-3.887-4.471-6.452-5.896-1.603-0.7647-3.799 0.0881-4.045 1.968-0.6968 2.264 0.426 5.017-1.21 6.965-1.708 1.689-4.513 0.9362-5.916-0.7721-2.724-2.819-4.498-6.423-7.358-9.136-1.474-1.494-3.299-2.962-5.518-2.902z" style="paint-order:normal"/>
  <path d="m159.99 2.0205c-2.814-0.0418-5.0891 2.2501-5.6711 4.8931-0.4679 2.755 0.16523 5.5583 0.0666 8.3303-0.132 1.272 0.3451 2.7425-0.3253 3.9035-1.015 1.528-3.1691 1.1366-4.2151-0.13521-2.898-2.576-4.9874-5.862-7.3034-8.928-1.765-2.38-4.7593-3.4362-7.6503-3.2902-4.033-0.2005-8.3647 1.5744-10.249 5.3164-1.602 3.46-2.5326 7.3399-2.2986 11.16 0.4504 5.251 4.0558 9.5252 8.0148 12.7 2.171 2.025 4.872 3.6025 6.502 6.1375 1.799 2.906 0.0581 6.6059-2.5926 8.2989-2.117 1.571-5.3502 2.4248-6.0532 5.3438-0.775 3.675 1.7115 7.0603 4.2425 9.4453 2.532 2.218 5.6573 4.5357 9.2043 4.2367 2.176-0.5058 3.6047-2.4788 5.3027-3.7918 2.018-1.631 4.1725-4.1294 7.0565-3.5234 3.326 0.9353 4.712 5.6892 2.234 8.1892-1.571 2.025-3.9373 3.5166-4.9323 5.9396-0.8138 2.538 0.35046 5.353 2.5436 6.792 2.947 2.295 7.2156 2.7017 10.451 0.77404 4.364-2.442 7.7448-7.0031 13.01-7.5641 2.162-0.1665 5.0898-0.5313 6.3628 1.6931 0.8733 1.865-0.14281 3.8892-1.5324 5.1792-1.587 1.541-3.2457 3.6304-2.5867 5.9964 0.72489 2.147 2.674 3.6389 4.46 4.9029 2.618 1.707 5.8195 0.39831 8.2695-0.95629 3.095-1.467 5.6365-3.8519 8.7085-5.3399 2.87-1.357 5.9254 0.44877 8.2774 2.0439 5.562 3.914 10.029 9.1173 14.809 13.909 1.022 1.147 2.2736 2.2604 3.1236 3.4724-0.5825 0.5857-1.3425-0.37936-2.0145-0.29786-6.352-0.9789-12.849-1.6737-19.249-1.1091-3.9007 0.45652-11.999 2.4828-17.923 4.2543-2.4638-4.9569-6.5492-9.1396-11.524-11.564-3.1841-1.1095-7.4801-2.3515-10.364-0.7133-0.3258-0.5558-1.2546 3.1532-1.7636 3.2412v2e-3c-4.506 1.12-8.7472 3.299-12.459 6.065-5.11 4.094-9.5439 9.4013-11.601 15.7-1.68 5.136 0.49345 10.951 4.6697 14.221 5.249 4.224 12.289 5.0273 18.779 5.3693 1.7622-4.3e-4 5.2813 0.45883 8.0696 0.60552-0.0846 1.2243-0.17751 2.3856-0.28022 3.394 0.3701 1.498 3.014-1.1842 3.98-1.5206 4.685-1.735 8.1254-5.7349 10.799-9.8039 3.5121-5.5124 5.1071-12.361 3.8291-18.798 11.647-3.5089 27.597-5.2138 38.426-1.6049 7.469 2.534 14.22 7.0013 20.06 12.21 5.469 4.892 11.924 12.246 17.404 17.126 1.263 0.5831 0.0806-2.9577 0.0836-3.8677 0.076-2.081 0.39062-4.364-0.51538-6.304-3.13-3.441-6.6595-6.5181-9.9685-9.7921-7.632-7.219-15.071-14.62-21.701-22.78-4.529-5.59-9.3897-10.91-13.79-16.6-3.066-3.943-5.1152-8.6782-5.5712-13.67-0.8787-7.035-9.2e-4 -14.719-3.5939-21.189-1.479-2.737-4.0011-5.531-7.3211-5.628-1.976-0.0156-3.1954 1.9302-3.2784 3.7272-0.521 2.526-0.18153 5.8391-2.7297 7.3681-2.282 1.433-4.861-0.67937-5.677-2.8297-1.546-3.73-0.36205-7.7224-0.54085-11.62 0.1-5.489-0.43787-11.081-2.6259-16.171-1.371-3.009-2.5606-6.2704-4.9186-8.6654-1.25-1.363-3.5178-0.65624-4.1348 0.97196-0.78939 2.513-1.0553 5.1713-1.8303 7.6973-0.7035 2.036-0.74131 4.4342-2.1536 6.1492-1.195 1.432-3.5271 0.78374-4.1191-0.87986-0.8357-3.598-1.0444-7.3273-2.0654-10.899-1.228-4.43-2.1162-9.0159-4.0642-13.2-1.078-2.048-3.1236-3.7833-5.5476-3.7193z" style="paint-order:normal"/>
  <path d="m273.04 83.019-0.93669 2.6592c-1.1909 0.24003-2.4146-0.27551-3.5978-0.47226-2.684-0.4578-5.3817-0.97364-8.1167-0.91514l-6e-3 0.0039c-5.241 0.0594-10.891 1.6777-14.221 5.9807-2.618 3.125-2.3956 7.8504-0.10974 11.089 2.861 4.257 6.8068 7.5738 10.905 10.51 1.8148 1.1178 4.9349 3.2067 6.9334 3.9635 0.4879 1.255-0.25708 1.4992-0.74645 3.3611-0.027 1.455 2.7841-0.0157 3.7781 0.22732 5.154 0.86319 11.189 0.29372 14.979-3.6782 3.424-3.593 3.4308-8.9914 2.8708-13.611-1.402-6.68-3.9632-12.7-9.2062-17.08-0.2262-0.1436-2.2543-2.076-2.5259-2.038z" style="paint-order:normal"/>
  <path d="m321.06 88.484c-3.884 4.583-7.0209 10.385-7.4409 16.365-0.1496 4.134 0.0506 9.0209 3.2236 12.121 2.325 2.672 6.3261 4.5996 9.7961 4.7026 2.4 0.0432 6.4679-0.43172 8.8059-0.98422 0.80928-0.79497 0.26758-1.9185-0.037-2.9154 5.9585-4.4598 13.499-8.1753 17.542-13.24 2.32-3.205 2.5795-9.291 0.038-12.515-3.615-4.999-10.188-5.9498-16.008-5.7458-2.7524 0.4016-6.479 0.42834-9.5872 1.5988-1.2182-1.0996-1.1974-1.5525-1.951-3.3697-0.63691 0.13524-2.1051 1.7704-4.3817 3.9825z" style="paint-order:normal"/>
  <path d="m380.89-12.06c-4.585 0.0315-8.102 3.699-10.07 7.524-1.928 3.39-3.006 7.197-5.201 10.42-1.241 1.516-1.7938 2.5901-3.1308 1.1191-1.588-2.045-1.8474-5.8472-1.9305-8.2072 0.031-2.819-0.57572-6.2799-3.1697-8.0589-2.449-1.555-5.428 0.2714-6.94 2.308-2.758 3.38-2.444 7.995-2.721 12.09-0.015 3.816-0.4568 7.804 0.8126 11.45 0.5836 1.924 0.7361 4.529-1.288 5.659-2.438 1.402-5.22-0.5956-5.991-2.982-1.552-3.634-1.215-7.813-3.195-11.3-1.238-2.198-4.347-2.953-6.388-1.418-3.039 2.106-3.305 6.152-3.743 9.495-0.3212 4.183-0.819 8.728 1.393 12.52 1.307 2.695 3.784 5.526 2.602 8.72-0.6546 2.144-4.017 2.724-5.028 0.5646-1.295-2.219-0.7879-5.521-3.238-6.993-2.345-1.039-4.712 1.006-5.919 2.866-2.795 4.23-2.292 9.852-0.037 14.2 1.326 2.691 2.534 5.561 2.299 8.63-0.017 3.472-2.233 6.358-4.578 8.66-0.8583 1.03-3.4079 2.5174-3.9779 3.7414 3.2608 1.1788 3.8853 5.1576 5.5079 7.0763 1.302 0.3575 2.332-3.2127 3.309-3.8047 2.261-1.85 4.38-4.507 7.504-4.721 3.4-0.0559 5.624 2.959 8.164 4.744 2.51 2.097 6.68 2.694 9.18 0.2827 1.539-1.405 1.368-3.989-0.1867-5.323-1.298-1.519-3.371-3.14-2.669-5.41 0.7177-2.443 3.234-4.343 5.827-3.944 2.986-0.1713 5.243 2.178 7.783 3.367 3.051 1.867 6.776 1.551 10.19 1.355 1.734-0.1118 3.507-1.647 2.997-3.511-0.76-2.783-3.337-4.527-5.067-6.692-2.362-2.413-4.217-6.217-2.484-9.497 1.898-3.444 6.743-4.258 10-2.322 2.21 1.049 4.112 3.473 6.829 2.748 2.754-0.8343 5.497-2.139 7.546-4.2 2.248-2.431 1.107-6.228-0.8747-8.445-1.377-1.783-3.456-2.694-5.436-3.614-1.924-0.7312-2.401-3.533-0.712-4.768 4.18-3.593 9.843-5.711 12.74-10.66 2.35-3.81 2.466-8.662 0.778-12.75-1.531-3.85-3.614-7.941-7.394-9.997-1.262-0.6404-2.682-0.9558-4.097-0.9167z" style="paint-order:normal"/>
  <path d="m217.49-13.83c-3.98-0.0389-7.2 2.917-9.027 6.216-2.698 4.499-4.753 10.08-2.884 15.28 1.25 4.013 4.486 6.929 7.886 9.184 2.332 1.784 5.211 2.996 7.038 5.355 0.8022 1.591-0.056 3.61-1.746 4.174-2.662 0.9967-5.1 2.761-6.427 5.331-1.358 2.18-1.449 5.367 0.6162 7.151 2.232 2.028 5.024 3.576 7.999 4.145 2.646 0.3207 4.369-2.175 6.616-3.096 1.786-1.051 3.948-0.7382 5.894-0.5888 2.437 0.7678 4.801 3.108 4.477 5.757 0.3678 3.235-1.983 5.936-4.05 8.178-1.613 1.9-3.95 3.646-4.263 6.284-0.093 2.204 2.363 3.322 4.266 3.152 3.222 0.0383 6.73 0.2867 9.538-1.613 2.674-1.467 5.369-3.719 8.604-3.401 2.756 0.3864 5.615 3.106 4.902 6.054-0.8747 2.428-3.994 3.727-4.06 6.524 0.1607 3.086 3.759 4.661 6.489 4.13 4.332-0.6957 6.644-5.152 10.63-6.549 1.736-0.2086 3.621-0.1361 4.99 1.091 2.29 1.628 4.22 3.636 6.128 5.644 1.081 0.7156 1.694-0.6861 1.869-1.532 0.786-1.716 2.106-2.907 3.568-4.038 0.7042-1.208-1.1-1.972-1.668-2.873-2.5-2.581-5.286-5.515-5.322-9.352-0.4802-3.649 1.257-7.019 2.748-10.21 2.152-4.648 2.084-10.8-1.512-14.73-1.198-1.66-3.67-2.657-5.487-1.39-2.488 2.094-1.137 6.404-4.149 8.078-2.077 1.061-4.084-1.244-4.029-3.244-0.1529-3.517 2.698-6.144 3.736-9.326 1.592-4.384 0.7273-9.14 0.2309-13.64-0.3775-3.024-1.544-6.57-4.684-7.709-2.272-0.9032-4.599 0.699-5.571 2.717-1.872 3.959-1.33 8.655-3.684 12.44-1.147 1.91-3.964 2.742-5.747 1.23-1.477-1.296-1.536-3.436-0.9172-5.178 0.5655-1.914 1.145-3.827 0.8959-5.849-0.1307-5.26 0.3254-10.69-1.239-15.79-0.989-2.677-3.199-5.473-6.248-5.67-2.374-0.245-4.159 1.845-4.541 4.014-1.004 3.593 0.185 7.326-0.3188 10.95-0.5666 1.778-2.582 2.77-4.348 2.159-1.903-0.8246-2.541-3.083-3.478-4.763-2.245-4.558-3.862-9.993-8.318-12.98-1.584-1.076-3.477-1.738-5.404-1.708z" style="paint-order:normal"/>
  <path d="m300.19-28.7c-2.902 0.2336-4.6987 2.9268-6.2257 5.1008-3.918 6.464-5.3261 14.139-5.6241 21.609-1.0049 2.49 1.8338 7.1516-3.0731 7.1209-0.932 2.242 0.0747 6.476 0.2128 8.836 0.6683 5.839 2.3179 10.894 6.5299 15.154 2.036 2.097 6.4745 3.8592 9.2865 2.8482 6.054-1.75 9.9881-7.6263 12.018-13.319 1.28-3.697 1.8745-9.3276 1.4275-13.198-0.42379-0.43175-1.6101-0.075182-2.2248-0.1129-0.10549-1.5875-0.61852-3.2074-0.52451-3.8958-0.4994-7.702-0.84845-15.701-4.1014-22.831-1.449-2.752-3.1567-5.8351-6.1767-7.0761-0.4901-0.1673-1.0105-0.25007-1.5285-0.22927z" style="paint-order:normal"/>
  <path d="m490.7 133.3c-3.694 0.1797-6.4272 3.2366-8.3851 6.0846-3.057 4.718-2.893 10.55-3.831 15.89-0.5027 2.273-3.0653 4.5269-5.4163 3.3509-1.804-0.99999-2.856-3.07-2.622-5.093-0.179-2.263 0.34947-4.6631-0.43503-6.8331-1.099-2.43-4.4758-2.3044-6.2668-0.76033-5.638 4.217-8.2386 11.291-8.9456 18.081-0.5107 3.614-0.10653 7.3278-0.94453 10.829-0.7696 2.631-3.7348 5.1271-6.5098 3.7291-2.274-1.141-2.3139-4.0192-1.9439-6.1982 0.2301-2.053 0.51478-4.8758-1.6578-6.0238-2.021-0.8913-3.9464 0.90364-5.2184 2.2927-3.959 4.841-5.1647 11.25-6.0297 17.28-0.2481 2.767-1.4502 5.5697-3.8722 7.0957-6.079 3.985-12.38 7.6343-19.3 9.9763-7.911 2.455-16.21 3.1822-24.17 5.4712-10.97 3.096-11.587 2.9736-22.287 6.8866-8.057 2.993-26.093 10.659-33.013 15.845-1.532 1.224-3.3596 2.1608-4.6736 3.6018-1.355 4.477-2.4401 10.53-1.5361 15.168 0.8458 1.397 2.2189-1.6614 2.9509-2.2896 5.881-5.758 12.849-10.85 20.789-13.1 3.616-1.093 7.9921-0.96206 10.86 1.7832 2.189 1.922 2.8333 4.9395 2.7023 7.7365-0.046 4.469-0.063 9.0617-1.115 13.451-0.9686 3.17-3.2077 6.1025-2.6807 9.5825 0.3154 2.844 1.3396 5.8248 3.4646 7.8208 1.711 1.409 4.5177 0.6372 5.3517-1.407 0.9951-1.826 3.065-8.5576 5.53-7.6346 1.535 3.297 2.6571 7.2148 1.0131 10.341-1.778 3.458-3.0386 7.1904-3.3196 11.089-0.3226 3.96-1.1081 8.1898 0.42524 11.991 0.9465 2.465 4.4157 3.3103 6.3687 1.5363 3.268-3.151 4.6124-7.6927 5.9454-11.901 0.5345-1.805 1.3977-4.2487 3.6997-4.1387 2.49 0.201 3.5826 2.941 3.4626 5.144 0.2667 4.632-1.5535 9.1242-2.3045 13.67-1.109 5.738-2.379 11.659-1.164 17.489 0.5521 2.476 0.42563 5.2456 1.842 7.4406 1.337 2.002 4.439 3.538 6.551 1.797 1.981-1.675 3.5276-4.1775 3.1726-6.8625-0.01-1.702-0.30653-4.076 1.5442-4.995 2.439-1.008 4.7776 0.94344 6.3726 2.618 5.852 4.957 4.0687 15.2 8.3577 19.5 2.321 2.735 5.6954 5.2418 9.4864 4.6678 5.889-1.09 10.412-9.2518 9.9195-13.98-0.285-4.141-0.99204-8.6308-4.121-11.65-3.647-3.702-5.5809-10.779-2.0909-14.289 2.16-2.513 5.7195-2.6044 8.7555-2.6964 2.507-0.0289 5.5237-0.9759 6.3217-3.6429 1.147-3.761-1.3599-7.5454-4.3229-9.6804-3.906-2.804-8.1874-5.1364-12.688-6.8214-4.012-1.461-8.3238-1.9862-12.281-3.5822-2.476-1.151-3.7496-4.7185-1.6676-6.8175 2.436-2.762 6.1885-4.1893 8.1735-7.3603 1.618-2.715-0.1608-5.8897-2.1732-7.8267-1.561-1.99-4.1177-2.5917-6.5157-2.7787-4.798-0.5633-9.6157 0.0655-14.421 0.0372-2.306-0.185-5.0512-1.5365-5.2772-4.0975-0.1808-1.72 0.09-3.523 1.36-4.803 1.48-2.042 4.0286-3.0606 5.3536-5.2086 1.136-3.018-1.9144-6.2904-4.9304-6.2844-3.104 0.0978-5.4078 2.564-8.1088 3.786-3.089 1.496-6.7085 1.6781-10.019 1.7401-4.549 0.1135-8.2285-3.3167-10.551-6.8547-1.029-1.308-1.6726-3.2043-0.46246-4.6403 2.608-3.677 7.4242-4.3376 11.489-5.3066 5.502-1.225 11.25-2.6185 16.86-1.1895 10.03 2.235 19.769 5.7183 28.749 10.85 3.0343 1.6495 7.8022 5.5707 11.309 8.1892-0.9265 1.2663-1.6382 2.6764-2.0125 4.2465-1.097 4.634-0.35368 9.505 0.95432 14.021 1.089 3.278 3.6904 8.696 6.4314 10.962 0.7229 0.6224 1.515-3.0991 1.601-3.9016 1.8508 1.9151 5.8988 6.2287 8.293 7.5504 4.055 2.203 8.7258 3.373 13.351 2.959 3.994-0.0856 8.1386-2.2399 9.7706-6.0219 2.089-4.717 1.58-10.191 0-14.981-2.534-7.222-8.94-14.364-14.505-19.414 0.77187-1.4577 1.1724-1.6968 2.1399-2.7336-2.288-0.6892-6.6-1.4323-8.975-1.5226-3.882-6e-3 -7.5825 1.5742-10.89 3.4822-0.80227 0.48836-1.5949 1.0274-2.3613 1.6069-10.863-8.1196-14.552-10.754-24.834-16.302-0.2876-0.174-9.7712-4.7366-9.0577-5.0193 2.838-1.603 5.7023-3.3216 8.9423-3.5616 5.165-0.5894 10.35-1.6419 15.5-1.9439 3.149-0.2246 6.2621 1.0025 8.4851 3.2255 3.887 3.242 7.429 7.6925 12.759 8.4184 3.652 0.5872 8.242-0.6336 9.7529-4.3464 1.113-2.756-0.64536-5.4563-2.1556-7.6503-1.425-1.666-1.6698-4.4149 0.0392-5.9729 2.186-2.143 5.6716-1.3694 7.9756 0.15677 4.466 2.934 7.9125 7.2946 12.83 9.5746 3.046 1.481 6.6875 2.1376 9.9705 1.1346 2.698-0.9981 4.2679-4.1628 3.3039-6.8978-0.7016-2.634-3.5055-3.5955-5.1165-5.5045-1.628-2.014-0.55218-5.0337 1.0954-6.6626 2.187-1.638 5.0457-0.41244 7.0017 0.99155 2.458 1.719 5.0402 3.369 8.0402 3.927 3.445 0.9224 7.6903 1.554 10.609-1.019 2.338-2.068 2.2675-5.9911 0.0745-8.1441-1.924-2.37-4.4423-4.1755-6.0963-6.7175-0.7347-1.954-0.20989-4.2986 1.5128-5.5476 2.75-2.332 6.6146-1.8458 9.9176-2.6278 5.621-1.239 9.677-6.6105 10.039-12.249 0.5554-6.267-2.9594-12.57-8.3244-15.74-3.235-1.699-7.1665-1.0737-10.211 0.74269-2.996 1.505-5.7498 4.4038-9.3708 3.9368-2.176-0.4822-3.0817-3.0054-2.4397-4.9794 1.161-3.668 1.9968-7.9446-0.0372-11.47-1.003-1.764-2.8057-3.1681-4.9147-3.0981z" style="paint-order:normal"/>
 </g>
 <path d="m600.89 82.381 0.56149 104.16c-8.6116-7.5492-14.63-15.422-17.953-19.551-3.5262-0.17816-11.585 8.9422-13.798 16.208 13.687 15.426 27.496 34.265 29.099 55.203 1.5865 16.264 2.3128 32.637 0.7806 48.922-3.9571 1.8049-3.083-4.3479-5.0774-6.2338-4.174-8.0272-9.7394-21.009-15.799-27.658-2.1164 4.0323-4.7366 16.026-7.5102 19.622 5.2581 5.0436 7.3433 6.4712 9.4438 11.074 3.8487 6.2835 9.0887 12.633 7.5122 20.486-0.16263 20.8 0.2891 41.649-1.3963 62.316-6.1344 9e-3 -8.646-7.2254-12.901-10.668-11.408-12.23-27.777-31.561-39.759-43.08 1.1232 6.157 1.3509 18.701-0.39277 22.857-0.2078 5.764 6.361 6.8717 9.4169 11.249 12.219 12.45 26.407 24.323 37.136 38.078 4.3637 6.9159 10.99 13.694 12.422 21.665 0.81491 9.8792 0.42598 19.847 0.524 29.882-3.8081 1.2208-6.0464-3.7606-9.6331-4.4314-4.4427-1.9316-9.2197-4.5444-14.144-3.9232-1.3694 4.0768 2.3716 8.5015 1.9729 13.021 2.255 4.4744 8.4654 1.217 12.176 3.6725 9.3304 3.476 13.425 14.062 12.285 23.422-1.1024 23.422-1.7775 46.934-4.707 70.221-1.228 8.6551-11.402 9.938-18.015 6.7691-5.0638-1.2303-10.941-9.3507-16.221-8.6957-2.1071 4.043 3.3315 12.048 3.6567 16.316 2.8097 7.58 0.39187 17.211 7.0402 23.151 14.496 15.935 15.183 38.894 16.208 59.131 1.7536 63.851 2.2144 127.84-1.1113 191.64-1.233 35.641-4.7629 78.43-5.6121 114.07 7.0064-8.0902 28.493-11.821 35.009-11.822 5.2815-3.5e-4 23.589 5.0901 37.95 11.231-0.69137-7.1246-1.1985-10.311-0.74742-13.513-4.1898-76.161-9.1553-152.33-8.7352-228.72 0.45105-33.337-2.0772-67.894 8.0588-99.831 2.3603-7.9639 9.0955-14.017 13.732-20.506 0.10834-10.638-0.24665-22.857 1.4649-33.247-4.2688-2.0836-9.5043 4.7205-13.949 5.5359-6.0418 2.76-15.183 1.9889-17.344-5.4049-2.8481-10.704-1.6298-22.101-3.0108-33.044-0.52399-15.984-3.1892-32.005-1.4419-47.973 1.8837-8.8064 10.141-15.632 19.094-15.849 3.9707-3.0695 5.1345-13.901 6.8104-18.224-5.5384 0.40429-9.2159 0.99518-12.005 2.7307-4.1717 1.0611-6.4619 5.9357-10.53 6.4981-1.8909-4.4811-0.29499-10.636-0.78399-15.609 0.489-8.0724-1.2248-17.12 4.497-23.829 6.4665-10.988 14.186-20.863 23.309-29.678 9.7505-11.372 20.956-22.019 28.459-34.964-1.2725-3.4625-5.2694-6.1661-5.8386-10.365-4.4021-3.1644-7.3112 5.353-10.749 7.7335-10.159 10.862-19.063 22.925-29.249 33.676-3.0808 2.3761-2.812-4.2169-3.8013-6.0893-3.3721-18.243-4.9261-37.335-2.0784-55.901 1.5786-9.6059 11.008-16.715 15.559-24.984-2.3761-3.9844-8.1364-13.971-8.5986-20.04-5.039 2.2514-9.5036 12.888-13.309 16.942-2.3648 2.1861-3.4964 6.297-6.2067 7.8691-4.9238 0.42733-1.921-6.6991-2.9091-9.8386 0.12419-18.25-0.38669-36.906 4.7747-54.636 4.2575-14.024 15.193-25.292 23.988-36.721 3.0401-5.2468-8.0949-13.678-12.285-16.025-2.8487 2.865-4.7833 7.8169-8.3565 10.34-2.873 2.4167-5.7889 9.0729-10.216 7.1395-1.727-32.389-0.917-70.277-0.0573-102.76-8.9169 2.4153-12.5 1.0809-16.709 0.96941z" fill="#7a3f28" stroke-width="2.2586" style="paint-order:normal"/>
 <path d="m663.69 578.66c-1.8094-7.8916-1.9562-15.996-0.81852-24.001 0.74286-5.2378 2.3944-10.074 4.3584-14.984m-30.997-372.99c3.3292 0.889 5.2762 2.4167 7.7471 4.8177 2.6833 2.611 3.6319 7.5732 4.5376 11.207m40.633 152.01c-2.4597-1.6971-4.4676-4.0407-5.7685-6.7307-1.3292-2.7465-1.9162-5.8499-1.6825-8.8922m238.06 300.85c5.0616-18.089 12.709-35.46 22.654-51.406 6.9453-11.144 15.002-21.593 24.009-31.147m-4.8583 6.1909c5.8973 4.8493 11.417 10.157 16.493 15.862 12.443 14.198 21.163 31.192 20.319 49.035-0.21005 3.6906-0.81987 7.3767-2.0766 10.853-1.2576 3.476-3.1801 6.742-5.8114 9.3372-4.8109 4.7476-11.666 6.9453-18.406 7.4512-6.5997 0.49487-13.265-0.48696-19.594-2.4032-13.918-4.2259-21.055-12.416-29.114-22.586m43.027-73.722c-4.0294-4-8.7183-3.2344-14.311-4.201-5.5133-0.95247-11.21-0.22293-16.585 1.322-6.8188 1.9594-13.238 5.2197-18.988 9.3733-5.0729 3.6658-9.7324 8.1491-12.497 13.764-3.2637 6.6291-3.6454 14.322-3.0062 21.69 0.90886 10.46 3.7945 20.804 9.0142 29.927 2.821 4.9216 5.6827 6.6833 9.7098 10.679m-269.42 322.49c-2.5116-42.123-4.816-86.036-6.3948-128.23-0.79527-21.247-1.4724-40.226-2.0456-61.48-0.77537-28.775-1.3583-57.572-0.57278-86.347 0.48922-17.922 1.5153-35.89 4.6618-53.53 1.0234-5.7392 2.2902-11.496 4.7725-16.773 3.0988-6.5816 7.9594-12.151 12.951-17.441 14.439-15.314 31.101-29.453 51.135-35.89 6.1661-1.9824 12.879-3.1914 19.085-1.3416 10.227 3.9278 13.22 12.136 13.292 21.805-0.83997 10.692 0.23288 21.405-3.0672 30.853-3.7471 7.6025-6.7894 15.106-5.4546 23.151 1.6517 6.2903 3.921 13.784 9.5427 16.773 7.7674 2.9226 12.124-3.004 14.315-9.3914 1.3389-17.561 16.904-17.48 13.633 2.014-5.2355 12.156-9.6308 23.829-10.905 36.228-1.5282 11.203-0.59222 30.785 10.907 31.192 12.027-3.0604 16.653-17.373 19.429-27.171 1.4636-5.7098 2.7171-11.722 9.3959-11.253 7.3338 4.5489 6.2496 13.351 4.9893 20.231-1.0505 5.6624-2.62 11.216-3.8555 16.84-4.6234 16.639-4.9645 32.321-2.6516 48.38-0.14456 12.154 12.872 26.629 22.903 14.229 6.4778-7.4648 0.23513-30.062 14.943-23.015 10.541 7.1531 15.727 21.227 18.076 32.253 1.6375 13.965 12.321 27.194 26.584 27.804 4.0136 0.0437 8.0701-1.1727 11.248-3.6228 3.0175-2.3241 5.1158-5.6059 7.2299-8.7748 7.93-12.648 8.6573-26.178 3.6138-38.668-4.8335-9.3982-13.416-13.66-14.699-24.19-0.30515-2.5206-0.59991-5.0751-0.24101-7.589 0.47523-3.3292 2.1265-6.4732 4.5782-8.7748 8.8538-8.768 23.332-0.84744 31.485-9.7324 2.4032-2.6855 3.3541-6.471 3.0672-10.064-1.9481-12.072-12.242-18.81-21.471-23.987-12.59-8.0949-26.833-11.117-40.046-14.591-11.474-2.9114-15.108-11.487-6.1344-19.289 11.201-6.9069 20.538-18.665 12.951-29.52-9.5156-11.95-26.403-10.733-39.707-9.7279-9.5314 0.79684-20.533 1.252-22.286-9.5585 0.55519-16.856 18.29-15.036 15.921-26.471-1.8356-5.0751-6.6268-9.2197-11.528-9.7596-8.0724-0.37717-14.035 6.2926-20.463 9.231-12.463 3.3179-25.59 6.1706-35.664-1.6612-5.2084-5.222-13.297-11.467-10.164-19.185 12.077-12.002 34.557-15.106 49.328-15.919 13.694 0.4278 26.403 4.3162 38.442 8.183 23.151 7.4716 45.715 19.408 65.229 33.902m-255.68-105.25c-5.9809-1.8019-10.521 2.629-15.406 6.5184-3.2931 2.6223-5.7143 6.3942-6.4642 10.536-0.32389 1.79-0.34083 3.6183-0.34015 5.4365 0 15.659 1.2524 31.282 2.3828 46.912 0.45016 6.2248 0.882 12.454 1.0209 18.695 0.0519 2.3625 0.0655 4.7431 0.54433 7.056 2.9814 10.39 12.267 9.9086 20.438 5.8589 11.076-5.5269 20.497-13.818 30.808-20.669 19.361-12.867 42.889-17.661 63.513-28.368 45.616-23.683 140.46-23.806 158.31-58.634 4.1401-7.8916 4.6709-24.484 8.6618-35.099 2.41-17.143 28.03-26.765 25.5-5.2875 0.96849 26.652 18.074 11.182 18.286-7.6929-0.25998-21.396 15.079-54.885 30.492-55.517 9.7889 2.3399 7.659 12.481 7.5325 19.957-0.41964 10.345 13.242 15.067 15.35 7.0153 4.0429-16.816 3.3541-34.083 15.93-46.437 7.4061-7.1599 18.575-9.362 24.935-0.37606 4.1356 6.9024 4.5195 15.449 2.5026 22.489-0.6672 2.2573-1.5966 4.4518-1.9555 6.7782-0.81 4.8131 2.9158 8.3434 6.7826 8.9826 1.986 0.0481 3.9391-0.53891 5.7595-1.3398 16.183-10.137 32.547-18.444 47.16-0.96151 3.9052 4.7635 6.8301 10.356 8.314 16.334 5.1497 29.114-11.252 38.239-35.28 42.191-11.029 1.6226-16.795 11.103-9.1858 19.716 8.7815 7.5416 22.119 21.096 9.1881 31.259-10.699 6.2474-25.703 2.9001-35.393-2.7194-7.0785-5.0909-20.348-15.103-24.845-2.04-3.4828 10.299 9.9019 14.799 12.587 20.734 0.9917 2.5523 1.1602 5.4117 0.4903 8.0656-3.1756 9.6037-12.901 11.876-21.588 10.288-9.0277-1.694-17.213-6.5658-24.145-12.576-8.1333-6.1525-19.555-21.209-30.627-14.277-12.273 9.6782 16.194 29.949-5.1045 40.452-16.05 6.0757-29.114-3.8962-39.413-13.825-3.7968-3.6658-7.7132-7.4512-12.63-9.3733-3.4218-1.3389-7.1621-1.6974-10.835-1.5587-3.6726 0.13874-7.3067 0.75867-10.939 1.3184-9.9222 1.5289-19.901 2.6178-29.837 4.0859-2.7239 0.40338-11.302 5.0706-13.891 6.008m-139.94-88.809c-12.815 28.052-19.289 58.363-14.566 83.908m12.33-77.155c0.29905 0.0534 0.59718 0.11091 0.89443 0.17233 8.4812 1.7527 15.914 6.6742 23.083 11.539 9.8476 6.6901 19.919 13.775 26.11 23.941 3.3292 5.4636 5.432 11.935 4.4721 18.259-0.7982 5.2558-3.7041 10.092-7.6929 13.608-4.7928 4.2282-10.968 6.5704-17.175 8.0972-14.796 3.6364-27.849 0.60374-42.327-4.1514m0.32208 5.6985c-5.3936-2.2586-10.354-5.4433-14.699-9.3575-6.0486-5.4478-10.758-12.264-14.401-19.535-2.5387-5.0706-4.6031-10.489-4.9712-16.145-0.43096-6.6246 1.5185-13.265 4.8018-19.036 4.3253-7.6048 11.088-13.9 19.203-17.166 8.5376-3.4331 16.14-6.2067 24.642-2.6629m-67.691 30.65c0.80023-7.6997 0.43071-13.737-0.0271-21.459-0.17165-2.9227-0.43275-5.8882 0.1694-8.7522 0.56241-2.6832 1.8584-5.1564 3.3563-7.4512 1.4986-2.2948 3.2118-4.4405 4.7228-6.7284 2.2227-3.3608 4.0023-7.0085 6.3648-10.277 2.3625-3.2682 5.4365-6.2158 9.2897-7.4015 1.9018-0.58543 3.9074-0.71734 5.8905-0.87521 7.9233-0.63062 16.014-1.7233 23.716 0.17482 3.4196 0.84066 6.7307 2.2857 9.4253 4.5511 2.9949 2.5161 5.0887 5.9086 7.5732 8.9284 5.2219 6.0825 11.112 4.3614 15.264-1.5481 2.498-5.4049 0.33471-11.155 4.768-15.257 5.8273-2.6629 9.8928 2.2322 12.626 6.6517 5.3552 6.9905 4.9826 15.731 7.0695 23.106 2.4732 7.3902 7.8849 12.312 11.953 18.256 2.9769 3.7719 6.6449 3.6635 10.604 2.0474 6.3264-3.7267 9.1023-10.252 9.8747-16.764-0.0812-5.8611 6.2316-2.3286 8.1536 1.0672 5.0774 12.748 7.2864 30.04 14.959 39.684 2.115 2.4732 4.838 4.3637 7.6974 5.9176 17.312 7.7403 16.682-10.78 13.57-21.782-4.524-28.639 16.203-3.4038 26.065 1.9824 13.204 7.5619 26.449 3.6003 32.502-10.026 2.4574-5.6195 3.5596-12.009 2.0228-17.947-1.6483-6.3738-6.1186-11.618-10.83-16.215-3.1485-3.0717-6.6133-6.0486-10.83-7.3022-4.0158-1.1941-8.3095-0.70784-12.497-0.86641-17.893-3.6545 1.5133-19.137 4.8786-26.358 3.2931-9.8092 0.66696-21.294-7.7358-26.358-14.017-6.7465-22.026 6.864-30.717 13.988-5.4749 4.262-14.243 6.2451-16.619 0.4061-0.26742-3.336-0.30673-7.1689 0.67058-10.06 3.2886-6.0057 7.9165-10.148 7.8758-16.976-0.73587-4.917-2.2074-10.555-5.0209-14.089-4.6663-4.5331-9.1294-5.2626-14.577-3.3382-13.629 7.0379-24.348 35.348-35.528 29.588-0.92175-0.84677-1.5201-2.0034-1.8509-3.2118-1.0085-7.9684 1.3613-15.914-6.8369-19.194-3.869-0.29001-6.5771 1.8606-9.1633 4.0836-5.0955 4.6302-9.6376 9.8363-13.927 15.225-4.0836 5.1294-7.9571 10.446-11.216 16.133-0.80792 1.4092-1.584 2.8504-2.62 4.1017-1.0367 1.2506-2.3716 2.3151-3.9436 2.7262-1.6429 0.42892-3.3767 0.1127-5.0503-0.17482-4.1265-0.70944-8.2824-1.2352-12.456-1.5756m158.04 151.55c10.08 5.2062 20.016 10.701 29.791 16.477 15.716 9.2898 32.479 19.49 47.273 30.175m-20.328-196.12c0.89239-6.9814 1.8342-13.958 2.8256-20.919 4.4269-31.124 9.8408-62.112 16.231-92.875m-2.2022 10.683c10.175 2.4054 17.676 6.1164 26.155 12.251 9.5111 6.891 17.45 15.898 23.309 26.065 2.9204 5.0729 5.3665 10.534 6.096 16.343 0.8445 6.7081-0.70018 13.674-4.183 19.458-3.3744 5.615-8.4744 10.083-14.227 13.22-8.0317 4.3817-17.204 6.218-26.313 7.2096-9.1249 0.9947-16.962 1.8826-26.132 1.2876m17.482-106.52c-4.8357-2.2035-11.079-0.47972-16.371-9.4e-4 -8.2621 0.7485-15.932 4.8289-22.342 10.094-8.2508 6.7782-14.799 15.686-18.458 25.726-3.3744 9.2491-4.2598 19.402-2.428 29.069 1.5562 8.2169 5.0232 15.991 9.4704 23.083 4.1197 6.5613 9.1746 12.651 15.542 17.064 5.5427 3.8419 8.8425 7.8871 15.53 8.759m-214.68-2.087c11.341-16.98 25.364-32.163 41.356-44.834 15.438-12.215 32.999-22.189 52.152-26.697 16.029-3.7561 32.863-3.5867 49.035-0.48064 9.8996 1.9009 19.594 4.8899 28.843 8.8922m5.5291-16.472c-10.543-3.5957-21.285-6.6404-32.14-9.1226-15.198-3.4715-31.192-5.8092-46.257-1.8004-2.6155 0.69588-5.179 1.579-7.6703 2.6403m1.0082-0.9012c6.1796-7.0401 12.468-13.988 18.86-20.843 7.7087-8.262 15.691-16.481 25.387-22.284 13.791-8.6573 24.732 5.5427 36.432 11.061 12.384 6.8685 27.691-5.31 26.065-16.777-2.9249-6.6178-16.592-16.251-5.301-21.55 1.1767-0.33586 2.41-0.4314 3.6341-0.47296 3.5076-0.1188 7.0605 0.20148 10.385 1.3208 4.7544 1.6002 8.8154 4.7409 12.694 7.9233 11.11 10.695 32.502 16.1 40.113-0.97753 1.1212-2.5884 1.4753-5.5404 0.76295-8.2688-2.7329-7.8962-10.952-11.404-13.845-18.819-0.35528-1.5492-0.29699-3.1847 0.11751-4.7183 5.1858-14.2 17.577-3.5167 24.28 3.0717 1.8412 1.8205 3.6116 3.8103 5.9334 4.9532 19.018 5.2987 47.341-26.132 26.629-38.848-1.7247-0.94027-3.5235-1.7446-5.2016-2.76-19.853-13.247 2.4845-26.132 12.529-35.664 19.23-17.604 16.587-58.566-12.529-61.412-3.2615-0.29068-6.5771-0.16148-9.7573 0.61143-3.1802 0.7729-6.2248 2.2053-8.707 4.3411-7.7516 5.5336-12.917 25.613-24.077 24.438-8.3344-10.175 3.6837-24.018-4.0926-32.75-20.087-22.557-27.594 13.25-32.84 27.126-3.7572 9.9378 0.29385 26.268-9.231 30.717-2.2632-4e-3 -3.3744-1.3276-4.5873-2.8391-6.1706-9.7076-1.7757-25.5-10.579-32.502-1.1973-0.64709-2.611-0.87048-3.9571-0.66042-31.395 20.057-14.159 71.441-23.083 85.173-14.875 14.742-15.038-15.797-18.794-20.474-11.318-5.1339-20.364 8.2621-23.738 16.84-6.9724 18.408-2.3038 38.668-8.9013 56.127-4.6347 11.993-13.692 21.631-22.092 31.35-9.6534 11.192-18.683 22.925-28.504 33.947-16.465 18.482-35.077 34.918-52.694 52.31-19.221 18.966-36.974 41.627-53.755 62.767m1.0835-109.34c-3.2524 3.0378-6.3196 6.2744-9.1768 9.6872-4.3185 5.1587-8.1582 10.722-11.451 16.587m68.866-1.8209-22.79-83.185m22.79 83.185c-4.5579 1.4661-10.046 1.5865-14.832 1.7864-5.0096 0.20937-10.089-0.3004-14.835-1.9228-4.7454-1.6233-9.1497-4.3975-12.348-8.2621-4.9848-6.0283-6.6652-14.182-6.7104-21.997-0.0655-10.975 2.7759-21.9 7.7336-31.689 4.6663-9.2175 10.311-14.446 18.209-21.114m22.699 76.613c9.5811-5.1316 18.72-11.088 27.284-17.784 4.5579-3.5641 9.0007-7.3902 12.337-12.12 3.336-4.725 5.5066-10.476 5.0458-16.242-0.34986-4.3862-2.215-8.585-4.96-12.025-2.7465-3.4399-6.3422-6.1435-10.25-8.1649-8.9555-4.6279-19.402-5.6714-29.453-4.8064-6.1435 0.52942-12.228 1.741-18.107 3.6048m-50.706 75.958c-1.1054-14.347-1.0566-28.775 0.14682-43.117 0.60395-7.2028 1.5063-14.419 3.5528-21.342 2.8007-9.4908 7.7019-18.259 13.502-26.29 3.0424-4.2078 6.3422-8.2304 9.947-11.966 3.9006-4.0407 8.1491-7.729 12.316-11.496 1.8094-1.6343 3.6161-3.2931 5.6827-4.5873 2.0669-1.294 4.4314-2.215 6.8708-2.2171 13.545 2.279 21.581 20.861 36.387 13.518 15.009-11.14-8.5512-19.038-1.5607-30.401 2.1879-2.9091 5.6059-4.9306 9.2378-5.161 2.1132-0.13506 4.2327 0.31756 6.2112 1.0738 12.723 6.0306 26.787 13.364 38.645 9.3349 12.813-6.4416-2.3942-19.02-7.4219-24.732-7.4286-8.165-9.1294-21.565 2.6065-25.816 10.137-3.9549 15.908 4.637 23.693 7.5077 2.3083 0.80814 4.8651 0.66223 7.2254 0.0258 20.233-4.3343 27.262-27.262 6.2745-36.635-8.6415-2.7239-9.7708-8.5873-2.367-13.843 4.454-2.9678 9.091-5.6646 13.434-8.7906 4.3434-3.1259 8.4292-6.7239 11.438-11.153 3.7651-5.5449 5.6985-12.307 5.4478-19.002-0.28571-7.6455-3.3157-14.941-7.1056-21.593-25.545-38.08-43.682-3.1169-55.201 20.646-14.302 21.34-13.141-11.39-13.974-19.472-3.2163-18.006-21.152-12.716-26.539 0.70401-2.0843 5.3304-2.2767 11.178-2.6065 16.892-0.56826 9.8973-1.5894 20.034 1.1844 29.543 1.8225 4.8741 2.1545 9.03-1.2282 12.865-14.629 4.9916-15.061-15.463-17.01-23.896-1.5334-5.8928-5.0006-12.02-10.896-13.138-20.825 0.71011-20.201 36.838-15.634 49.283 1.4458 3.7312 3.7313 7.0673 5.685 10.557 3.065 5.4749 4.1627 11.442-0.74671 15.458-12.703 2.7713-7.257-14.315-14.649-18.509-2.0382-0.96941-4.4743-0.89285-6.5929-0.11037-6.9498 3.275-11.002 11.354-12.12 17.94-0.92875 5.8137-0.19198 11.856 1.8948 17.36 1.7299 4.5602 4.3569 8.7522 5.9221 13.373 2.1651 6.3987 2.1209 13.69-0.94749 19.709-2.115 4.1446-5.4998 7.4761-8.7635 10.792-8.3186 8.4473-16.226 17.299-23.693 26.516m-36.59-163.55c-0.69384-8.6573-0.52265-17.38 0.50978-25.997 1.1702-9.7686 3.4557-19.42 7.1373-28.549 2.6336-6.5229 6.0712-12.881 11.216-17.674 1.2739-1.1865 2.6539-2.2744 4.1965-3.083 1.5422-0.80768 3.2569-1.3272 4.9961-1.3358 1.9806-9e-3 3.9255 0.64327 5.633 1.6472 1.7075 1.004 3.1914 2.3467 4.5466 3.7922 5.9583 6.3377 9.5359 14.57 11.896 22.948 2.2496 7.9797 3.4918 16.217 4.2485 24.484 0.71914 7.851 1.2321 17.229 1.0787 25.116m-61.548-0.47002 66.584 0.72096m-66.584-0.72096c-0.59129 6.6404-0.42981 13.346 0.48064 19.957 1.4214 10.311 4.7318 20.477 10.575 29.069 8.7206 12.533 21.522 14.505 33.405 6.489 7.781-5.31 13.568-13.222 17.306-21.882 4.4518-10.299 6.1277-21.785 4.8064-32.908m-43.253 162.92c0.0836-16.707 0.16262-31.576 0.23941-48.29 0.0836-18.5 0.16488-36.996 0.24032-55.517m-17.391 84.608c-4.3208 1.1706-7.1328 3.6793-9.5066 7.4738-1.8925 3.0288-2.8527 6.6291-2.7194 10.195m27.352 104.12c1.1207-14.699 1.071-29.498-0.14907-44.179-0.61232-7.3767-1.5266-14.767-3.6048-21.882-2.8414-9.7098-7.8103-18.695-13.701-26.923-3.0853-4.3072-7.8058-8.7725-11.469-12.601-7.7945-7.711-18.27-23.806-30.695-16.226-10.193 8.3863-23.467 20.048-34.557 7.7968-1.1262-1.6484-1.7613-3.659-1.6169-5.6511 1.2151-7.8239 10.744-10.548 9.2852-18.69-0.358-1.0606-0.92447-2.042-1.5935-2.9407-2.2132-2.9678-5.6805-5.048-9.3733-5.2874-2.1457-0.13958-4.3004 0.32502-6.3061 1.1002-2.0075 0.77516-3.8803 1.8552-5.7098 2.9859-7.6048 7.4377-41.31 15.219-38.352-3.196 0.57325-1.8209 1.6219-3.4557 2.7804-4.9735 2.891-3.79 6.4958-6.9679 9.6127-10.575 2.2699-2.6268 4.3004-5.5269 5.4546-8.7996 1.1535-3.2728 1.3712-6.9679 0.0723-10.189-1.4222-3.5234-4.5828-6.1999-8.1717-7.4512-15.919-2.8775-22.767 12.698-38.216 4.8064-17.554-7.2299-16.005-27.126 0.48154-34.602 8.8041-4.2417 9.798-8.8719 2.4032-14.182-4.5195-3.0446-9.2242-5.8182-13.633-9.0232-19.063-13.224-20.179-34.535-9.9199-52.965 10.06-19.594 32.728-19.117 43.908-3.6635 2.428 3.5483 4.3275 7.4332 6.096 11.354 2.1491 6.6088 11.018 29.611 19.948 16.343 1.5031-7.5687-0.74965-16.007 0.24054-22.835 2.9836-17.778 21.794-11.187 26.923 0.72073 7.0627 17.279-8.253 60.712 7.6906 62.248 1.7443-0.17505 3.3744-1.0378 4.6641-2.2266 9.2784-9.6534 3.1101-34.241 18.65-37.177 13.958-0.40745 16.384 15.379 17.306 25.726 0.7379 8.3095 1.5478 16.967-1.4421 24.755-2.7352 7.4038-12.045 16.366-7.4512 24.28 2.9814 4.0994 6.943 3.4218 9.5585-0.2297 2.3716-5.5404 1.949-13.48 7.7448-16.352 10.923-2.8414 17.543 9.6579 18.988 18.266 2.9475 18.509-15.3 34.444-6.9702 51.677 2.1459 4.2372 5.5788 7.6545 8.8922 11.056 8.4382 8.6618 16.463 17.73 24.032 27.149m-71.621 86.37c-9.545-5.1271-19.614-11.896-28.12-18.595-4.5398-3.5732-8.9645-7.406-12.285-12.136-3.3179-4.7273-5.4772-10.466-5.0209-16.226 0.34692-4.3772 2.1976-8.5738 4.9306-12.016 2.7307-3.4399 6.3151-6.1502 10.211-8.174 8.9103-4.6234 19.325-5.6714 29.317-4.8064 6.1186 0.52898 13.662 1.9695 19.515 3.8352m-20.235 75.709 22.351-81.717m-22.351 81.717c4.8561 1.3506 9.8657 2.1592 14.902 2.4032 5.2242 0.25409 10.523-0.10545 15.535-1.6082 5.0097-1.5029 9.7325-4.1965 13.186-8.1265 4.9871-5.6737 6.9679-13.477 7.0921-21.035 0.17167-10.577-3.004-21.055-8.1717-30.288-5.0277-8.9803-11.953-16.897-20.19-23.083m-104.28 54.184c-5.8002-5.6443-11.521-11.365-17.166-17.163-8.1153-8.3388-16.203-16.944-26.178-22.948-17.94-11.598-30.604 15.275-47.928 13.936-2.2948-0.21773-4.4834-1.1336-6.4258-2.3761-1.9424-1.2425-3.6567-2.8052-5.301-4.4224-6.0396-5.8295-6.4213-11.774-1.8697-18.184 13.963-12.224 2.8775-20.965-11.896-16.145-4.9012 1.6465-9.0865 4.8809-13.087 8.1582-14.39 22.993-60.554 3.9255-35.009-19.375 1.4902-1.3581 3.013-2.6923 4.3117-4.2349 6.9182-8.2304 0.0517-20.757-10.293-16.734-1.525 0.79436-2.8775 1.8756-4.2169 2.9543-2.6878 2.1708-5.3597 4.3704-7.8171 6.7985-14.925 19.779-52.242-14.817-38.419-31.259 1.3294-1.5253 3.0582-2.6494 4.8335-3.6161 1.7778-0.96624 3.6296-1.7949 5.362-2.8414 10.672-6.7059 10.351-16.7 1.7005-24.461-4.7951-4.1694-10.026-7.842-14.616-12.237-19.844-18.137-17.075-60.283 12.915-63.219 15.013-1.8401 21.33 8.1311 28.888 18.354 3.3676 5.8024 16.578 18.257 18.015 5.7776-0.67307-11.77-4.856-34.715 13.254-34.851 16.316 1.9438 18.523 22.835 21.755 35.19 1.9535 7.4919 3.7335 15.061 4.4179 22.767 1.2836 10.99 9.432 9.8838 11.555 0.3406 1.1894-5.3688 3.2005-10.546 4.0791-15.975 0.3982-13.233 11.275-16.246 17.676-4.4179 15.831 22.112 9.9312 46.596 12.075 70.334 0.414 12.368 13.796 18.004 17.498 4.7725 0.7659-7.5506 1.1119-19.535 11.713-18.013 8.9284 2.2119 14.981 11.393 17.859 18.692 7.1824 18.948 2.3874 39.82 9.1768 57.798 4.777 12.352 14.112 22.266 22.767 32.276 9.956 11.517 19.284 23.58 29.407 34.964 16.951 19.051 36.025 36.07 54.32 53.846 19.573 19.029 39.21 41.062 56.94 61.819m-225.86-109.84c10.749-4.0407 21.938-6.8956 33.292-8.4969 16.908-2.3829 35.506-1.1264 52.287 2.0418m-139.61-15.126c-10.223 2.3987-19.957 6.8369-28.481 12.978-9.5495 6.8843-17.534 15.889-23.445 26.065-2.9362 5.0684-5.3959 10.532-6.1299 16.343-0.84766 6.7104 0.70853 13.678 4.2078 19.458 3.3947 5.6217 8.5263 10.087 14.302 13.22 8.0814 4.3863 17.297 6.2203 26.449 7.2096 9.1746 0.99402 18.433 1.1953 27.646 0.6008m-14.783-101.55c2.7013 5.6375 5.109 11.417 7.2095 17.306 10.494 29.407 13.172 61.57 7.6906 92.288m-14.902-109.59c5.4817-3.004 9.161-3.266 15.381-2.6448 8.1808 0.81627 15.772 4.8583 22.112 10.094 8.2033 6.7759 14.665 15.704 18.266 25.726 3.3292 9.2604 4.192 19.402 2.4032 29.069-1.5178 8.2146-4.9012 16.018-9.3733 23.083-4.122 6.5026-9.2197 12.447-15.381 17.064-6.1141 4.5828-11.036 5.6421-18.507 7.2118m213.44-5.4139c1.6913-5.7414 1.8871-10.726 1.516-16.7-0.15132-2.4235-0.63355-3.7809-1.1232-6.157m58.453 123.93c-0.93801-8.0972-1.0193-14.387-0.52785-22.53 0.17167-2.8391 0.42667-5.7188-0.1694-8.497-0.56442-2.629-1.8692-5.0435-3.3812-7.2683-1.511-2.2248-3.2389-4.2914-4.777-6.4981-2.2744-3.2637-4.1243-6.8143-6.5229-9.9877-2.3987-3.1734-5.4749-6.0283-9.283-7.1757-1.9217-0.57957-3.9481-0.70131-5.9492-0.84992-8.0001-0.59357-16.151-1.6624-23.964 0.16984-8.1537 1.6262-12.447 7.5664-17.166 13.087-7.0966 7.8668-15.368 1.9067-16.994-6.7985 0.29926-11.169-11.286-9.8521-15.975-3.0604-7.8623 14.521-10.424 32.773-22.089 42.666-8.0543 2.681-16.285-7.9752-17.504-14.446-0.0994-0.78082-0.14004-1.5711-0.31214-2.34-7.6613-8.1198-11.23 10.365-12.944 14.916-3.4376 8.3592-4.8154 18.227-10.367 24.642-6.6607 6.7714-18.532 12.481-23.151 1.582-2.8956-9.4908 6.7262-23.309 0.36048-29.498-0.78012-0.43184-1.6843-0.61795-2.5771-0.59559-3.589 0.2629-6.3558 3.1485-8.6009 5.2829-4.1062 3.8848-8.8064 7.1214-13.821 9.7324-32.344 12.84-44.748-19.419-23.919-42.891 9.2164-10.386 32.465-1.39 31.079-15.743-1.1428-11.836-18.399-20.474-12.206-34.738 7.4061-14.101 21.882-12.011 31.372-2.1631 2.3309 2.4416 4.5082 5.0639 7.2095 7.0921 5.3846 3.5867 13.69 8.1808 16.748 0.40001 0.23376-1.1553 0.0545-2.3554 0.19876-3.5235 0.95613-7.7355-7.5235-11.394-8.2914-17.784-3.1113-25.89 17.15-28.278 30.808-11.975 6.2496 6.7556 17.753 27.623 24.348 18.826 4.8515-7.1599-0.77584-26.042 13.807-20.809 7.1802 4.6234 13.446 11.953 18.279 17.805 4.0972 4.978 7.9775 10.153 11.325 15.664 5.2558 10.293 15.137 5.6353 24.303 4.9283m25.048 82.53c4.4495-0.0913 8.9148 0.64598 13.098 2.1631 4.6302 1.6791 8.9126 4.314 12.497 7.6906m-69.475-24.416c-8.1107 1.7394-17.748 5.7798-24.506 10.577-9.3914 6.6562-18.972 13.703-24.8 23.625-3.1892 5.4207-5.161 11.79-4.2485 18.015 0.75281 5.1406 3.4715 9.9199 7.3089 13.428 4.515 4.1265 10.39 6.4665 16.314 7.9865 14.035 3.6048 29.543 3.0062 43.23-1.6996m-14.582-75.258c15.381 30.514 19.98 56.285 13.563 83.343m0 0c5.222-2.349 11.688-7.4309 15.91-11.3 5.9809-5.484 10.663-12.278 14.277-19.535 2.5229-5.0729 4.5647-10.494 4.9283-16.145 0.42552-6.6178-1.502-13.258-4.7589-19.033-4.2756-7.5845-9.161-14.216-17.231-17.486-8.4563-3.4286-18.27-3.3654-26.697 0.16983m48.673 36.364c5.9741-1.8006 12.795-0.48878 17.674 3.3992 3.2908 2.6223 5.7098 6.3942 6.4597 10.537 0.32367 1.79 0.3406 3.6183 0.33992 5.4365 0 15.659-1.2495 31.282-2.3783 46.912-0.45036 6.2248-0.88267 12.454-1.0195 18.695-0.0519 2.3625-0.0632 4.7431-0.54186 7.056-2.9746 10.383-12.251 9.9086-20.42 5.8612-11.065-5.5224-20.459-13.818-30.763-20.669-19.343-12.867-41.581-20.497-63.445-28.368-23.716-8.5331-47.409-17.527-72.095-22.586-12.043-2.4709-24.325-4.0023-36.048-7.6906-14.186-4.4608-27.216-11.957-39.887-19.709-23.512-14.308-12.662-43.998-29.317-60.576-4.7747-3.5438-8.9984-4.6099-13.114-0.93688-4.1536 5.7595-0.9143 12.741-1.3333 18.771-1.2511 8.7319-10.437 9.9312-15.356 3.3134-5.8431-13.599-3.1914-30.424-7.2096-43.75-5.0345-11.377-10.317-25.184-22.11-28.707-5.3575-1.3116-8.9622 0.82169-11.478 5.1813-2.7397 8.9961 3.5438 23.964-8.7093 26.426-1.5347 0.0135-3.0469-0.55404-4.2778-1.4692-10.618-14.191-6.5455-61.57-35.619-56.217-11.587 4.4201-13.513 18.107-10.575 28.368 2.0434 5.7979 3.8013 11.58-1.9214 15.171-14.738 1.0455-24.213-14.783-39.413-12.285-19.187 5.2897-29.159 27.691-24.506 45.195 6.2496 25.184 26.019 17.995 41.852 25.997 2.0978 1.0826 3.9797 2.6652 5.1587 4.7092 6.8662 12.847-23.896 17.69-16.413 38.126 7.3812 14.645 28.843 9.7415 39.865 3.345 6.9679-4.4066 13.001-10.939 21.073-7.4783 12.881 11.91-5.1022 16.944-8.838 26.178-0.99131 2.5522-1.1605 5.4117-0.49148 8.0656 3.1689 9.6014 12.883 11.876 21.563 10.29 9.021-1.6928 17.195-6.5658 24.122-12.576 8.1198-6.1502 19.533-21.206 30.582-14.277 1.3782 0.89058 2.4958 2.1823 3.1621 3.6816 2.4551 9.825-9.161 15.587-7.58 25.545 3.3134 13.145 20.079 15.176 30.243 11.216 7.2186-2.9294 13.05-8.4112 18.652-13.825 10.101-11.16 20.983-11.684 34.376-9.6127 9.9109 1.5282 19.88 2.6155 29.814 4.0858 2.7239 0.40385 5.4614 0.84136 8.0475 1.7805 2.5884 0.93891 5.0412 2.419 6.733 4.5895m177.43 79.589c-0.0293-5.1407-0.8314-9.5811-1.9302-14.602-1.7509-7.9978-5.0458-16.611-6.934-24.582-0.0745-0.31848 0.0723 0.31914 0 0m-292.49 0.64528c-5.9289 4.847-9.877 9.24-14.981 14.948-6.3852 7.1373-12.122 14.979-15.862 23.806-3.3699 7.9391-5.0661 16.626-4.567 25.229 0.21434 3.6906 0.83343 7.3789 2.0996 10.855 1.2664 3.4738 3.1982 6.7375 5.8318 9.3327 4.838 4.7657 11.731 6.9747 18.507 7.4512 6.6358 0.46439 13.31-0.58452 19.709-2.4032 8.2304-2.3399 16.407-6.2038 21.631-12.978 2.2061-2.8611 7.1617-6.5557 9.8043-9.0176m-46.645-71.561c5.563 3.3292 8.8312 6.3964 13.278 11.115 12.05 12.782 18.857 29.475 26.178 45.421 3.2389 7.0402 6.6268 14.013 10.162 20.919m-49.618-77.455c4.0023-3.7764 10.6-7.6635 16.025-8.5918 5.5133-0.94344 11.207-0.21976 16.583 1.322 6.8188 1.9555 13.238 5.2174 18.988 9.3733 5.0729 3.6658 9.7257 8.1514 12.497 13.764 3.2728 6.6268 3.6816 14.324 3.004 21.69-0.9606 10.444-4.0355 20.775-9.0142 29.927-2.0836 3.8299-5.0255 5.9576-8.4654 9.9712m269.85 333.48c2.2401-42.711 4.2778-84.295 6.1186-127.01 0.92649-21.516 1.8024-43.05 2.04-64.574 0.31893-29.023-0.52107-58.002-0.85488-87.002-0.21006-18.29-0.22723-36.68-3.2253-54.727-0.96691-5.8228-2.2609-11.648-4.7589-16.996-3.1011-6.6404-7.9414-12.296-12.917-17.674-14.333-15.496-30.921-29.814-51-36.387-6.1457-2.0034-12.849-3.2344-19.033-1.3595-4.5941 1.3927-8.689 4.5669-10.878 8.838-9.8318 21.434 8.0001 53.801 6.1209 67.962-1.619 7.6364-6.9769 21.19-16.653 17.335-6.9995-4.2553-8.3389-13.389-10.195-20.395-6.3151-14.866-12.043 4.969-10.536 12.576 1.291 6.1277 4.9193 11.478 7.1373 17.335 4.3343 12.637 9.3982 50.367-7.1373 51-18.116-2.5139-18.708-38.374-28.752-38.916-3.7313 1.4543-5.2671 5.2242-5.694 8.7093 0.13106 15.325 4.9487 30.153 7.4512 44.472 2.3128 14.708 3.7877 44.472-9.6127 51.429-5.3146 2.41-10.033 0.7214-13.459-3.6048-5.1768-9.2084-4.1649-43.072-23.309-15.142-2.7352 4.0497-4.5737 8.6302-6.2496 13.22-4.5263 16.481-8.558 38.984-29.882 39.458-12.748-1.0518-21.931-13.918-24.913-25.048-9.1316-24.777 20.646-36.974 17.784-58.882-1.6072-7.5642-7.4286-12.377-14.421-13.459-10.945-0.31937-25.568-1.0302-24.619-15.492 4.7183-30.198 72.186-34.083 72.909-50.819-2.2245-8.0227-11.512-11.659-16.825-16.486-9.807-9.4591-4.043-23.422 6.9679-28.73 14.604-6.7533 32.073 1.3466 45.715-2.7194 13.694-5.6963 5.5246-18.358-2.7194-24.642-10.162-6.4845-4.8696-20.199 5.9492-21.414 1.862-0.17706 3.7493 0.1396 5.5178 0.74604 5.5156 1.942 10.137 6.4055 14.889 8.6054 11.612 3.9639 25.816 6.008 35.573-1.6816 6.7488-6.3354 15.406-14.356 7.5709-22.473-13.256-8.515-32.389-12.303-46.618-13.1-13.667 0.43208-26.336 4.3795-38.329 8.2914-23.128 7.5845-44.992 19.027-64.416 33.699m403.17 526.71c7.0537-12.614 13.71-24.822 22.171-36.522 10.932-15.115 23.061-29.475 37.267-41.559 7.8555-6.7014 16.614-12.824 26.697-15.142 6.0057-1.3827 12.38-1.3375 18.266 0.4807 7.2028 2.2245 13.378 6.9633 18.747 12.258 10.41 10.263 18.313 22.812 25.003 35.799 29.836 62.429 49.69 121.04 60.102 184.82m-444.72-25.387c4.3162-36.048 10.541-71.892 18.636-107.28 6.4303-28.12 14.098-56.127 26.449-82.191 6.925-14.631 15.341-28.64 25.952-40.859 7.9323-9.1248 17.256-17.333 28.368-22.112 15.377-6.6178 33.405-6.0712 48.922 0.24032 9.5088 3.8713 18.119 9.7889 25.59 16.825 7.7448 7.2863 14.295 15.745 20.305 24.506 19.842 28.933 34.105 61.638 42.011 95.834 2.751 11.89 4.7409 23.942 6.4597 36.025 3.5235 24.8 5.9041 49.758 7.1373 74.783m-450.37 28.82c5.9199-41.762 15.587-70.175 28.843-110.24 3.3789-10.204 6.9882-20.344 11.056-30.288 8.0226-19.632 17.852-38.6 30.288-55.766 8.5105-11.761 18.491-22.88 31.237-29.814 6.9385-3.7697 14.697-6.2384 22.586-6.2497 10.925-0.014 21.419 4.6686 30.288 11.056 10.704 7.7133 19.402 17.868 27.397 28.368 14.503 19.024 27.081 39.504 37.493 61.051m64.619-703.11c-8.8335-11.216-18.491-21.784-28.865-31.598-4.5444-4.2937-9.2288-8.4405-13.764-12.745-11.537-10.95-22.112-22.902-33.992-33.473-12.203-10.862-25.884-20.285-41.13-26.177-11.036-4.2643-22.79-6.6245-34.58-7.3202-18.622-1.0961-37.471 1.9632-54.794 8.8922m214.77-20.745c2.9927 3.537 5.7686 7.2592 8.3072 11.14 4.9916 7.6274 8.7116 15.826 11.736 24.416m83.343 56.917-35.438 38.713m4.122-105.48c-2.6765 2.9091-4.4698 4.7386-6.6472 8.0385-4.2394 6.4235-7.5032 13.624-8.4834 21.265-0.50729 3.9481-0.39933 7.9458-0.33925 11.926 0.19425 12.91-0.10377 25.974 2.8843 38.555 0.78376 3.2931 1.7909 6.5342 3.0108 9.6918m-55.585 0.47544c0.78463-7.9097 1.3057-15.849 1.5623-23.806 0.3659-11.334 0.19425-22.677 0.6008-34.015 0.13319-3.6929 0.32434-7.4241-0.36048-11.056-1.1277-5.9808-4.5398-11.255-8.052-16.224-2.6268-3.7177-5.3507-7.3631-8.1717-10.936m60.87 166.21c5.9515-6.0102 14.905-9.8928 21.922-9.3462m-36.387-348.51c-0.63874 23.061-0.63874 46.121 0 69.159 0.33473 12.072 1.5898 22.677 2.2744 34.738m-312.14 345.34c10.914-8.0091 22.496-15.092 34.602-21.15 13.764-6.8888 28.188-12.452 43.027-16.583" fill="none" stroke="#000" stroke-linecap="round" stroke-linejoin="round" stroke-width="4.2824"/>
 <path d="m3.258-96.888h1213.8v706.03c-1.6167 54.888-8.1631 107.06-20.474 160.6-26.344 114.92-77.031 223.88-147.08 318.82-40.351 54.994-87.367 105.38-138.9 150.05-88.693 76.819-191.7 136.88-300.47 180.49v0c-82.425-33.063-162-75.693-233.96-127.82-100.13-72.327-186.13-163.56-250.03-269.42-75.361-124.51-119.14-267.38-122.93-412.83z" fill="none" stroke="#000" stroke-linecap="round" stroke-miterlimit="1e3" stroke-width="11.516" style="paint-order:fill markers stroke"/>
</svg>
