<svg xmlns="http://www.w3.org/2000/svg" height="752" width="602"><path d="M7 372.618l588.908.002L595 445c-2.19 174.497-134.976 300.438-294 300-159.024-.438-288.755-122.94-294-300z" fill="#fcdd09" stroke="#00fb00"/><path d="M7 7h588v365.618H7z" opacity=".97" fill="#da121a"/><path d="M234 547.5c0-20 7.953-22.83 11.54-26.713L310 457.5l30-20c8.906-5.937 35 5 35-25h-53c-2.124 18.595-20.021 33.354-32 45l-72 70-66-70c-8.298-8.8-12.26-17.12-9.76-25.277 2.048-6.68 9.76-9.723 9.76-19.723H67c0 30 26.093 19.065 35 25 9.999 6.663 19.772 8.927 30 20l58.46 63.287C194.047 524.67 202 527.5 202 547.5z" stroke="#000" stroke-width="2" stroke-linecap="round" stroke-linejoin="round"/><path d="M368 547.5c0-20-7.953-22.83-11.54-26.713L292 457.5c-12.059-11.84-19.97-13.423-30-20-8.95-5.87-35 5-35-25h53c2.124 18.595 20.021 33.354 32 45l72 70 66-70c8.298-8.8 12.26-17.12 9.76-25.277-2.048-6.68-9.76-9.723-9.76-19.723h85c0 30-26.094 19.063-35 25l-30 20-58.46 63.287C407.953 524.67 400 527.5 400 547.5z" stroke="#000" stroke-width="2" stroke-linecap="round" stroke-linejoin="round"/><path d="M262.69 518.886L237 477.5l-5-18h-25l-5 18-61 94c-9.555 14.724-36 11-36 31h69c0-14-16.485-22.312-8-35l53.5-80 62.5 95v20h40v-20l62.5-95 53.5 80c8.485 12.688-8 21-8 35h69c0-20-26.445-16.276-36-31l-61-94-5-18h-25l-5 18-25.69 41.386L302 574.5z" stroke="#000" stroke-width="2" stroke-linejoin="round"/><path d="M415.412 490.711l-19.906 21.114m33.398-6.154l-20.292 21.321m-34.865-18.586l-12.724 19.339m-7.947-32.713l-12.82 20.65m-38.643-71.756l16.92 16.426m-31.514-4.183l15.496 15.226m-36.862 33.18l-22.28 21.598m6.329-32.897l-20.98 20.397m-21.018-4.145l-13.12 19.77m-5.43-36.625l-13.546 20.875" fill="none" stroke="#fcdd0b" stroke-width="3"/><g stroke="#000" stroke-linecap="round" stroke-linejoin="round"><path d="M258.75 85.863c-2.426 5.226.012 8.27 4.044 11.03.728-4.334 2.925-8.06 5.636-11.073 1.357 5.91.583 8.058 4.135 9.606 3.294 1.436 7.536-5.845 9.452-9.942-1.649 6.348-5.035 12.443-2.048 14.496 2.527 1.737 5.842 1.478 8.7-2.682-2.866-21.16-16.012-17.224-29.918-11.435z" fill="#fff" stroke-width="3"/><path d="M228.185 64.93c-4.937-20.826-20.91-5.181-9.67 7.934 17.795 20.765 43.35 31.576 67.439 40.166l2.41-5.99c-20.464-7.045-54.737-19.153-60.18-42.11z" fill="#fff" stroke-width="3"/><path d="M114.877 44.6c.337-9.977 13.183-13.667 16.736-1.612 4.709-9.135 18.406 9.556 11.033 16.24 30.467 13.82 47.709 40.02 72.646 58.513 6.859 5.086 5.88 16.947 11.9 17.603-1.502-3.615-1.92-11.96.485-10.221 12.406 12.538 25.814 10.662 41.17 8.238-1.323-.322-4.877-5.3-2.976-9.422-3.965 1.64-7.675 4.209-10.661-5.703-.126 3.54-3.984 8.968-8.182-2.727-13.184 5.362-8.98-14.539 0-10.165 11.562 5.631 20.192 7.39 30.744 10.165 10.447 2.748 13.5-15.16 9.422-23.058-8.281-16.034-15.638-7.282-25.042-5.95-3.779.534-7.836-3.489-8.737-7.59-.91-4.134.103-11.75-.002-9.492-.306 6.536-10.95 8.229-10.848 2.453.063-3.623 3.16-6.876 4.669-11.57 2.547-7.92 2.182-18.015 14.422-10.744 13.78 8.186 14.197-2.004 22.337-4.384 7.401-2.163 18.257-.754 25.515.169 2.748-14.67 20.491-10.724 15.124 8.182 7.619-.224 17.233-4.381 19.835-2.48 3.245 2.373 1.878 9.218.817 12.653-3.104 10.05-4.79 14.325-12.47 14.373 6.162 6.778 12.287 14.147 19.09 10.66 1.532 7.752-3.54 10.66-11.9 11.158 1.438 10.777 5.463 16.749 16.116 10.413.971 16.57-6.824 15.022-15.62 11.406 2.003 19.908 14.808 17.153 24.545 13.388 6.413 12.284-3.124 19.02-15.372 12.149 4.16 16.501 12.147 17.694 21.57 13.14 9.955 10.997-2.82 18.446-12.396 13.885 6.525 11.341 15.399 10.198 24.546 8.43 7.15 18.706-3.612 28.3-16.86 21.818 4.688 41.074 25.087 29.899 55.538 60.497 14.825 14.897 29.56 65.686 44.133 49.091 10.203-11.618 8.84-39.225-10.414-60-23.53-25.39-42.647-47.46-41.157-68.43 2.026-28.523 10.707-54.015 58.513-72.894 12.35-4.877 3.418-23.83-4.959-28.265-11.913 26.084-18.462 4.697-39.174 6.942 1.216-7.866 14.239-6.068 19.835-13.884-7.513-9.475-27.229 2.578-37.686-3.967-10.2-6.721-22.903-13.564-15.372-34.216 7.64 32.89 34.809 14.798 54.546 24.794-5.828-8.352-16.208-8.86-12.893-26.777 15.532 19.4 37.452 10.835 34.711 37.686 11.683 9.66 16.084 21.747 11.901 36.695 25.555-9.802 37.076 24.319 13.389 30.744 3.097-14.73-6.485-21.034-20.331-16.86-16.47 4.966-25.866 12.522-34.711 20.827-14.276 13.405-20.103 29.075-15.868 41.158 7.102-16.337 28.096-23.145 32.727-43.637 10.901 8.971 14.075 18.645-3.967 30.248 28.643-11.243 24.61 17.092 8.926 31.24-3.853-36.661-37.764-15.486-31.736.992 7.716 21.09 23.044 32.669 35.703 47.108 3.189-8.984 4.4-16.895 11.901-25.786 6.922-8.204 24.326-7.558 30.248-21.322 6.58 14.239 6.747 26.137-13.884 34.711-21.738 9.034-21.41 21.015-19.34 32.232 3-11.591 11.517-17.602 23.803-17.852 10.708-.217 17.887-1.391 19.339-7.438 5.518 8.701-.076 21.402-4.463 22.81-11.13 3.574-22.026 1.18-28.265 7.934-9.787 10.596-3.73 23.39-8.43 36.2-6.394 17.424-18.182 19.504-28.265 9.42-1.682 6.342-4.136 13.818-13.388 17.356-.456 18.577 8.552 17.985 15.372 14.38-3.18 19.206-24.629 8.988-25.29-7.437 1.388 6.875-10.67 10.785-14.876 23.8h-65.472c-.039-7.295 5.405-10.856 4.976-17.85-12.672 11.838-25.316 22.888-36.695-1.488 10.928 5.823 16.827 1.589 19.835-8.43-15.438-3.098-34.433-4.57-39.67-.991-9.466 6.47-12.06 18.017-14.876 23.306-3.196-3.306-6.021-6.851-8.43-13.885.684 6.07 4.322 6.231 1.488 19.338h-38.662c-2.033-11.35-9.265-22.587-.033-37.685 5.78-9.451 9.24-14.6 10.43-17.851-20.746.641-42.188 1.806-37.19-16.86 12.396 6.176 26.98 10.737 35.703.992 11.694-13.067 23.03-15.607 34.71-1.488 32.606-13.503 57.193 1.813 85.787-8.43-13.018-9.544-33.595-12.48-52.067-20.826-13.335-6.026-35.21-5.99-37.686-26.282-8.439-1.14-15.023-5.988-20.827-12.397 2.347 7.403 4.77 11.11-1.24 24.298-3.92-8.74-9.965-14.647-17.851-18.1 1.494 8.352 4.87 19.868-2.232 23.307-2.556-6.733-7.257-11.596-12.396-11.405-.796 6.87 2.039 13.014-4.711 21.074-4.779-.12-7.313-5.85-10.91-8.925-1.364 6.966-2.166 14.27-6.694 19.339-6.71-.892-9.78-5.427-11.9-10.91-4.421 7.94-5.803 15.446-.992 22.067-6.8 1.926-12.375-1.431-16.116-13.885-2.027 5.12-2.974 12.401-7.438 12.645-3.89.008-3.37-6.159-4.215-10.413-4.117 2.158-5.635 5.941-4.463 11.405-1.323 1.816-3.062 2.386-5.703.248.027 8.97 12.326 28.438-5.454 22.562 1.724 8.99-7.28 17.049-18.1 10.414 7.122-2.778 8.745-7.14 9.918-11.901-7.342-2.761 5.103-11.973-2.728-19.835-2.115-2.125-4.886 6.814-7.435 8.767-2.496 1.913 2.037 12.64-7.193 9.332-3.569 6.968-1.955 10.876 2.975 14.132-15.025 2.763-16.74-9.224-9.173-14.876-9.785-6.452 2.852-9.595 3.821-12.706 1.268-4.073 3.537-7.42 1.633-10.104-2.998-.816-6.411 3.254-9.408 7.181-3.199 4.192-10.664 10.696-13.402 3.976-7.885 3.908-6.07 7.903-7.19 12.645-5.105-2.48-12.666-19.34 5.95-18.595-2.303-11.391 10.575-4.78 18.596-14.133-4.905.452-16.02 7.28-12.302-1.594-5.769-2.252-9.655 3.027-14.228 5.561-1.912-13.566 10.935-18.792 17.356-10.661 2.03-9.951 10.739 1.728 16.34 2.426 8.087 1.008 15.9.833 20.85-4.657 11.043-12.245 16.867-26.967 36.943-32.976 15.542-12.82 40.502-9.934 42.15-45.125-6.312.713-12.677 1.965-18.348-3.719 3.711-1.953 7.13-4.347 6.942-12.148-7.76 6.743-13.893 6.975-18.347.495 6.497-3.322 11.528-7.376 10.165-14.628-5.167 5.431-10.808 8.14-18.595-1.487 7.53.092 9.41-5.467 10.413-11.901-7.533 3.533-14.195 2.711-19.09-6.943 5.557-.47 10.148-2.102 9.173-10.413-5.145 2.142-8.175-.65-11.405-2.975 3.272-2.822 6.094-5.793 5.455-9.918-5.285 1.02-9.671-.203-13.637-2.48 4.546-2.488 8.504-5.041 7.19-8.181-2.738-3.042-7.192-3.509-11.157-4.71 2.775-5.665.426-9.133-1.24-12.894-6.028 5.482-12.768 18.447-17.603 11.406-8.77 11.199-13.972 2.816-18.1-1.24 4.822-.494 12.151.762 12.645-4.71-6.031-8.679 12.793-11.959 10.166-18.596-1.41-3.562-12.17.374-13.637 3.719-2.137 4.87-10.552 11.433-11.653 2.975-9.91-1.905-10.152 4.278-14.628 8.43-4.723-9.34-.425-18.57 12.645-15.124-3.965-15.12 10.176-1.72 14.628-8.182-4.588-3.012-7.623-5.83-6.942-8.182-4.206 1.968-12.682 6.556-11.473.132.658-3.494-9.827-3.677-14.313 1.108-3.21-11.375 12.747-18.32 16.116-6.199 1.424-14.651 9.83-1.832 18.595-1.983-1.002-2.365-9.046-4.104-3.15-6.582-6.123-6.883-9.894-2.528-12.966-2.84z" fill="#fff" stroke-width="3"/><path d="M308.268 58.732c-1.13 6.938-5.687 8.606-12.893 6.198.433-3.999 2.302-7.28 12.893-6.198z"/><path d="M133.473 313.61c2.727-1.156 5.454-1.3 8.182 1.488m-31.736-3.967c1.482-1.504 3.397-1.708 6.198.744m-24.794-18.347c2.637.65 1.801 3.382 1.24 5.95m8.182-26.777c.22 1.52 1.096 2.945-3.128 5.1h0M131.49 95.922c1.845 3.535 6.155 2.852 5.455 5.95m-22.562-24.545c2.393 1.365 2.356 3.946 1.983 6.694m-3.967-28.017c.568 1.96-.035 3.453-1.805 4.478m21.02-17.494l-3.77 4.451m3.15 6.582c2.92 4.147 6.864 5.733 11.653 5.206M375.46 320.801l9.422-3.223m-12.397.495l11.9-3.967m-13.884.744l12.645-3.967m-16.86.744l14.629-4.215m-19.092 1.984l16.86-5.455m-23.802 2.975l21.075-6.198m-24.546 2.231l21.323-5.454m-24.05 1.983l20.827-4.71m-115.043 22.81c-1.516 5.371-.694 12.041-8.678 14.876-9.512 3.377-6.338 8.17-7.686 12.645m61.24-40.91c-7.218.224-14.289 7.863-19.835 6.198m55.786 34.464l9.67-14.877c11.46-10.38 34.757-.13 39.918-6.694 3.513-4.469-4.166-24.193-20.331-31.984m70.166 10.91c7.771 11.735 12.265 23.47-3.967 35.207M355.872 231.79c4.673-1.97 9.095-2.174 14.38-8.43m-16.116-.495c4.711-1.292 9.422-2.439 14.133-6.943M236.143 146.04c-4.619 12.026-12.03 5.45-15.397-4.002-3.484 17.418 3.126 26.18 14.38 26.282-14.907 4.05-5.3 10.33-15.371 16.611 14.052-4.155 18.586-3.787 24.05-6.446-10.145 7.145-7.308 12.127-10.414 18.1 5.478-2.55 9.96-2.112 16.612-8.182-4.331 13.045 3.25 9.92 1.736 20.826 3.907-10.193 10.496-8.63 12.644-17.603.851 11.14 7.13 11.029 4.463 23.554 9.825-5.17 13.921-6.387 14.876-19.091 1.844 16.973 13.86 11.619 15.868 22.066-.33-10.222 6.53-10.41 6.447-21.075 1.818 10.114 12.066 9.677 13.636 19.835 2.321-9.2 9.704-8.97 10.414-21.57 4.815 11.592 18.11 12.54 17.355 22.314.421-8.395 9.193-9.031 9.918-24.298.927 7.719 5.011 9.26 9.173 11.157m-29.504-67.438c3.165 7.388-.103 13.015 3.967 20.578-3.273-7.047-8.104-.045-14.628-9.917 3.768 7.248-.464 13.165 1.735 19.835-3.844-4.86-7.312-3.16-12.893-13.637 3.403 11.659-1.884 13.44-.496 21.075-3.92-5.202-8.663-3.564-11.405-10.91 2.074 11.413-4.744 11.455-3.719 20.827-.813-5.95-7.75-6.694-8.925-17.851-.746 14.667-10.82 10.754-13.637 22.81.5-10.534-4.303-10.21-2.231-22.562-4.077 6.2-7.044 13.42-17.356 8.182 5.462-6.938-.198-8.439 4.959-14.133-11.97 7.517-17.27 1.026-22.81-4.958 6.064 1.21 10.607.329 11.405-5.703-9.56-3.387-16.082-.966-24.546-15.62h0m93.968-49.219c4.525 3.15 8.669 10.158 7.19 20.706-2.567-3.937-7.435-1.864-12.397-6.446 2.167 6.76 3.87 14.357 3.72 25.29-3.206-4.141-6.486-8.196-12.893-8.678 3.8 3.802 2.127 11.436 1.487 18.347-2.806-4.716-10.81-3.372-11.157-12.645-1.795 5.915-6.855 12.24-6.694 17.356-2.03-4.56-6.284-7.67-5.455-16.612-1.972 8.813-8.403 6.232-10.661 15.372-1.125-4.38-3.535-3.801-5.95-5.702h0m62.48-71.158c-2.604 3.169-6.13 5.415-6.114 11.205m13.056-17.9l-.744 11.406m-30.236-6.494c1.516 2.76 2.321 9.402 3.459 12.196m-12.893-19.587c-.08 5.595 1.534 5.536 2.777 6.72m9.62-13.91c4.392 4.71 9.958 6.703 15.62 8.182-6.183 5.707-6.024 11.875-6.198 17.108M271.82 222.866c6.381 4.62 5.05 12.8 2.976 21.322" fill="none" stroke-width="3"/><path d="M249.534 106.525c1.6-2.254 1.043-6.667 5.014-6.55.582 4.61 2.253 8.219 4.818 10.516 1.952-2.86 3.756-6.081 7.92-4.639 2.826.979 1.528 3.927 1.725 7.286 2.871-2.11 5.323-4.169 7.88-3.296 2.458.839 2.323 3.393 2.174 5.908-10.246-2.136-20.27-4.79-29.531-9.225z" fill="#fff" stroke-width="3"/></g><path d="M7 7v438c0 165.686 128.315 300 294 300s294-134.314 294-300V7z" fill="none" stroke="#000" stroke-width="12" stroke-linecap="round" stroke-linejoin="round"/><path d="M7 372.618l588.908.002" fill="none" stroke="#000" stroke-width="6"/></svg>