<?xml version="1.0" encoding="UTF-8" standalone="no"?>
<svg
   xmlns:dc="http://purl.org/dc/elements/1.1/"
   xmlns:cc="http://creativecommons.org/ns#"
   xmlns:rdf="http://www.w3.org/1999/02/22-rdf-syntax-ns#"
   xmlns:svg="http://www.w3.org/2000/svg"
   xmlns="http://www.w3.org/2000/svg"
   xmlns:xlink="http://www.w3.org/1999/xlink"
   xmlns:sodipodi="http://sodipodi.sourceforge.net/DTD/sodipodi-0.dtd"
   xmlns:inkscape="http://www.inkscape.org/namespaces/inkscape"
   height="763"
   width="603"
   version="1.0"
   id="svg20"
   sodipodi:version="0.32"
   inkscape:version="0.46"
   sodipodi:docname="Orbe-coat_of_arms.svg"
   sodipodi:docbase="C:\Documents and Settings\Steve\Bureau\Blason Villages Suisse pour Wikipédia (par Delta-9)"
   inkscape:output_extension="org.inkscape.output.svg.inkscape">
  <metadata
     id="metadata31">
    <rdf:RDF>
      <cc:Work
         rdf:about="">
        <dc:format>image/svg+xml</dc:format>
        <dc:type
           rdf:resource="http://purl.org/dc/dcmitype/StillImage" />
        <dc:date>07-AUG-2006</dc:date>
        <dc:creator>
          <cc:Agent>
            <dc:title>Jérôme BLUM (wagner51)</dc:title>
          </cc:Agent>
        </dc:creator>
        <cc:license
           rdf:resource="http://creativecommons.org/licenses/GPL/2.0/" />
        <dc:coverage />
        <dc:description>Gabarit pour le Projet:Blasons de WIkipédia</dc:description>
        <dc:subject>
          <rdf:Bag>
            <rdf:li>blason suisse modèle gabarit projet blasons</rdf:li>
          </rdf:Bag>
        </dc:subject>
        <dc:language>fr</dc:language>
        <dc:title>Gabrit d'un blason suisse</dc:title>
      </cc:Work>
      <cc:License
         rdf:about="http://creativecommons.org/licenses/GPL/2.0/">
        <cc:permits
           rdf:resource="http://web.resource.org/cc/Reproduction" />
        <cc:permits
           rdf:resource="http://web.resource.org/cc/Distribution" />
        <cc:requires
           rdf:resource="http://web.resource.org/cc/Notice" />
        <cc:permits
           rdf:resource="http://web.resource.org/cc/DerivativeWorks" />
        <cc:requires
           rdf:resource="http://web.resource.org/cc/ShareAlike" />
        <cc:requires
           rdf:resource="http://web.resource.org/cc/SourceCode" />
      </cc:License>
    </rdf:RDF>
  </metadata>
  <defs
     id="defs29"><inkscape:perspective
   sodipodi:type="inkscape:persp3d"
   inkscape:vp_x="0 : 381.5 : 1"
   inkscape:vp_y="0 : 1000 : 0"
   inkscape:vp_z="603 : 381.5 : 1"
   inkscape:persp3d-origin="301.5 : 254.33333 : 1"
   id="perspective28" />
<linearGradient
   id="linearGradient2893">
  <stop
     style="stop-color:#ffffff;stop-opacity:0.3137255;"
     offset="0"
     id="stop2895" />
  <stop
     id="stop2897"
     offset="0.19"
     style="stop-color:#ffffff;stop-opacity:0.25098041;" />
  <stop
     style="stop-color:#6b6b6b;stop-opacity:0.1254902;"
     offset="0.60000002"
     id="stop2901" />
  <stop
     style="stop-color:#000000;stop-opacity:0.1254902;"
     offset="1"
     id="stop2899" />
</linearGradient>
<linearGradient
   id="linearGradient2955">
  <stop
     style="stop-color:white;stop-opacity:0;"
     offset="0"
     id="stop2965" />
  <stop
     style="stop-color:black;stop-opacity:0.64583331;"
     offset="1"
     id="stop2959" />
</linearGradient>
<radialGradient
   inkscape:collect="always"
   xlink:href="#linearGradient2893"
   id="radialGradient3236"
   gradientUnits="userSpaceOnUse"
   gradientTransform="matrix(1.215027,1.531577e-24,1.464684e-23,1.266667,-839.1924,-490.4894)"
   cx="858.04236"
   cy="579.93323"
   fx="858.04236"
   fy="579.93323"
   r="300" />
<inkscape:perspective
   id="perspective2814"
   inkscape:persp3d-origin="297.63751 : 280.63 : 1"
   inkscape:vp_z="595.27502 : 420.94501 : 1"
   inkscape:vp_y="0 : 1000 : 0"
   inkscape:vp_x="0 : 420.94501 : 1"
   sodipodi:type="inkscape:persp3d" />

	
	

	

		
		
		
	
		
		
		
	
			
			
		
			
			
		
			
			
			
			
		
			
			
		
			
			
		
			
			
			
			
		
				
				
				
				
				
				
				
				
				
				
				
			
				
				
				
				
				
					
				
				
				
				
				
				
				
				
				
				
				
				
				
				
				
				
			
				
				
				
				
				
				
				
				
				
				
				
			
				
				
				
				
				
					
				
				
				
				
				
				
				
				
				
				
				
				
				
				
				
				
			</defs>
  <sodipodi:namedview
     inkscape:window-height="968"
     inkscape:window-width="1280"
     inkscape:pageshadow="2"
     inkscape:pageopacity="0.0"
     guidetolerance="10.0"
     gridtolerance="10.0"
     objecttolerance="10.0"
     borderopacity="1.0"
     bordercolor="#666666"
     pagecolor="#ffffff"
     id="base"
     inkscape:zoom="0.92652193"
     inkscape:cx="173.53758"
     inkscape:cy="399.00713"
     inkscape:window-x="1280"
     inkscape:window-y="22"
     inkscape:current-layer="layer1"
     showgrid="false"
     showguides="true"
     inkscape:guide-bbox="true">
    <sodipodi:guide
       orientation="horizontal"
       position="761.5"
       id="guide1885" />
    <sodipodi:guide
       orientation="vertical"
       position="1.5"
       id="guide1887" />
    <sodipodi:guide
       orientation="horizontal"
       position="1.5"
       id="guide1889" />
    <sodipodi:guide
       orientation="vertical"
       position="601.5"
       id="guide1891" />
    <sodipodi:guide
       orientation="vertical"
       position="301.50081"
       id="guide1893" />
  </sodipodi:namedview>
  <desc
     id="desc22">Coat of Arms of Canton of Freiburg (Fribourg)</desc>
  <g
     inkscape:groupmode="layer"
     id="layer1"
     inkscape:label="Fond écu"
     style="opacity:1;display:inline"
     sodipodi:insensitive="true">
    <path
       id="path1899"
       d="M 1.5,1.49998 L 1.5,460.3679 C 1.5,626.6785 135.81456,761.5 301.49999,761.5 C 467.18543,761.5 601.5,626.6785 601.5,460.3679 L 601.5,1.49998 L 1.5,1.49998 z"
       style="fill:#e20909;fill-opacity:1" />
  </g>
  <g
     inkscape:groupmode="layer"
     id="layer2"
     inkscape:label="Meubles"
     style="opacity:1;display:inline"
     sodipodi:insensitive="true">
    <g
       id="g3402">
      <g
         id="g3362">
        <path
           id="path2637"
           d="M 64.1,83.9 C 64.1,83.9 61.85,88.9 60.975,93.65 C 60.975,93.65 65.35,93.775 69.475,92.025 C 69.475,92.025 67.225,97.025 66.35,101.775 C 66.35,101.775 70.725,101.9 74.85,100.15 C 74.85,100.15 72.6,105.15 71.725,109.9 C 71.725,109.9 76.1,110.025 80.225,108.275 C 80.225,108.275 77.975,113.275 77.1,118.025 C 77.1,118.025 81.475,118.15 85.6,116.4 L 86.85,115.15 L 65.1,83.15 L 64.1,83.9 z"
           style="fill:#fcef3c;stroke:#000000;stroke-width:3;stroke-linejoin:round" />
        <path
           id="path2639"
           d="M 225.767,450.4 C 225.767,460.561 233.767,501.733 263.1,541.4 C 247.767,544.733 226.767,536.067 214.1,520.4 L 214.1,481.067 L 225.767,450.4 z"
           style="fill:#fcef3c;stroke:#000000;stroke-width:3;stroke-linejoin:round" />
        <path
           id="path2641"
           d="M 263.249,329.364 C 263.204,329.072 263.423,328.26 263.578,328.142 C 266.724,325.742 270.099,321.982 270.099,316.024 C 270.099,309.819 265.249,305.817 260.873,303.459 C 260.686,303.358 260.255,302.355 260.227,301.953 C 258.944,283.828 258.725,269.814 258.725,268.775 C 258.725,266.587 262.579,265.004 262.579,259.754 C 262.579,255.629 260.183,249.566 253.766,245.4 C 253.766,233.733 257.599,191.4 257.599,191.4 C 220.099,191.4 209.056,184.693 200.222,175.859 L 196.599,176.566 L 215.432,218.899 L 234.099,317.232 L 232.932,410.732 C 256.599,390.232 273.099,368.732 273.099,368.732 C 268.421,356.528 265.312,342.722 263.249,329.364 z"
           style="fill:#fcef3c;stroke:#000000;stroke-width:3;stroke-linejoin:round" />
        <path
           id="path2643"
           d="M 183.22,470.146 C 151.59,480.642 133.6,453.4 133.6,453.4 C 159.1,449.65 178.719,420.221 169.321,388.398 C 160.144,357.323 148.845,322.227 146.6,300.15 C 146.6,300.15 120.1,336.15 96.1,336.15 C 84.1,336.15 73.85,322.15 73.85,322.15 C 73.85,322.15 95.6,307.4 106.1,285.4 C 116.6,263.4 118.85,248.9 116.6,243.65 C 114.35,238.4 99.35,204.65 90.1,186.4 C 80.85,168.15 50.6,121.4 50.6,105.15 C 50.6,100.9 51.601,99.317 53.35,99.317 C 57.267,99.317 56.897,104.191 62.267,112.734 C 69.6,124.401 85.431,147.532 95.1,155.567 C 103.253,162.342 108.747,161.617 112.445,163.715 C 110.434,158.234 115.1,158.567 107.6,147.4 C 100.1,136.233 70.338,99.199 62.1,81.9 C 57.1,71.4 55.988,69.445 59.1,66.65 C 63.6,62.608 67.1,65.4 76.35,74.65 C 85.6,83.9 101.35,97.9 118.6,105.15 C 135.85,112.4 144.8,110.944 164.85,133.9 C 182.1,153.65 188.85,164.15 197.85,173.15 C 212.6,187.9 239.767,256.733 239.767,331.067 C 239.767,407.067 236.767,417.734 234.1,428.067 C 231.433,438.4 216.767,488.4 216.767,523.067 C 216.767,557.734 225.767,606.733 243.434,639.733 C 204.767,637.733 187.101,616.067 176.767,580.4 C 176.767,580.4 137.767,580.066 110.434,540.733 C 110.434,540.733 150.101,547.734 168.434,522.4 C 178.201,508.903 182.575,490.107 183.22,470.146 z"
           style="fill:#fcef3c;stroke:#000000;stroke-width:3;stroke-linejoin:round" />
        <circle
           id="circle2647"
           r="11.25"
           cy="134.69501"
           cx="130.263"
           sodipodi:cx="130.263"
           sodipodi:cy="134.69501"
           sodipodi:rx="11.25"
           sodipodi:ry="11.25"
           style="fill:none;stroke:#000000;stroke-width:3;stroke-linejoin:round"
           transform="translate(-3.8e-2,-4.5e-2)" />
        <circle
           id="circle2649"
           r="3.875"
           cy="134.69501"
           cx="130.263"
           sodipodi:cx="130.263"
           sodipodi:cy="134.69501"
           sodipodi:rx="3.875"
           sodipodi:ry="3.875"
           style="stroke:#000000;stroke-width:3;stroke-linejoin:round"
           transform="translate(-3.8e-2,-4.5e-2)" />
        <path
           style="fill:none;stroke:#000000;stroke-width:3;stroke-linecap:round;stroke-linejoin:round"
           d="M 112.444,163.715 C 114.113,164.662 115.417,166.185 116.433,169.234 C 117.433,172.234 116.766,178.401 113.266,180.401"
           id="path2655" />
        <path
           style="fill:none;stroke:#000000;stroke-width:3;stroke-linecap:round;stroke-linejoin:round"
           d="M 183.22,470.146 C 183.785,452.641 181.483,434.241 177.433,417.733"
           id="path2657" />
        <path
           style="fill:none;stroke:#000000;stroke-width:3;stroke-linecap:round;stroke-linejoin:round"
           d="M 159.35,150.4 C 168.35,159.4 165.85,181.9 154.6,187.4 C 154.6,187.4 157.6,208.9 136.85,213.4"
           id="path2659" />
        <path
           style="fill:none;stroke:#000000;stroke-width:3;stroke-linecap:round;stroke-linejoin:round"
           d="M 217.6,612.9 C 217.6,612.9 206.041,585.312 205.476,549.372"
           id="path2661" />
        <line
           style="fill:none;stroke:#000000;stroke-width:3;stroke-linecap:round;stroke-linejoin:round"
           x1="188.75401"
           y1="546.44904"
           x2="180.82701"
           y2="568.90002"
           id="line2663" />
        <path
           style="fill:none;stroke:#000000;stroke-width:3;stroke-linecap:round;stroke-linejoin:round"
           d="M 138.6,551.4 C 138.6,551.4 158.247,551.567 172.877,536.937"
           id="path2665" />
        <path
           style="fill:none;stroke:#000000;stroke-width:3;stroke-linecap:round;stroke-linejoin:round"
           d="M 180.747,542.769 C 180.747,542.769 170.122,557.669 156.861,562.869"
           id="path2667" />
        <path
           style="fill:none;stroke:#000000;stroke-width:3;stroke-linecap:round;stroke-linejoin:round"
           d="M 197.282,548.619 C 197.282,548.619 190.608,573.451 195.771,597.593"
           id="path2669" />
        <path
           style="fill:none;stroke:#000000;stroke-width:3;stroke-linecap:round;stroke-linejoin:round"
           d="M 124.523,256.662 C 123.505,263.567 120.158,269.684 116.129,276.042"
           id="path2671" />
        <path
           style="fill:none;stroke:#000000;stroke-width:3;stroke-linecap:round;stroke-linejoin:round"
           d="M 131.912,267.535 C 129.422,275.233 122.361,284.262 122.361,284.262"
           id="path2673" />
        <path
           style="fill:none;stroke:#000000;stroke-width:3;stroke-linecap:round;stroke-linejoin:round"
           d="M 138.186,277.636 C 135.35,284.567 130.721,290.085 127.762,293.044"
           id="path2675" />
        <path
           style="fill:none;stroke:#000000;stroke-width:3;stroke-linecap:round;stroke-linejoin:round"
           d="M 144.302,290.605 C 140.17,297.051 133.14,304.081 133.14,304.081"
           id="path2677" />
        <path
           style="fill:none;stroke:#000000;stroke-width:3;stroke-linecap:round;stroke-linejoin:round"
           d="M 184.442,205.9 C 184.442,205.9 196.1,199.65 207.35,196.15"
           id="path2679" />
        <path
           style="fill:none;stroke:#000000;stroke-width:3;stroke-linecap:round;stroke-linejoin:round"
           d="M 191.885,224.869 C 191.885,224.869 201.635,218.619 212.885,215.119"
           id="path2681" />
        <path
           style="fill:none;stroke:#000000;stroke-width:3;stroke-linecap:round;stroke-linejoin:round"
           d="M 198.293,243.837 C 198.293,243.837 208.043,237.587 219.293,234.087"
           id="path2683" />
        <path
           style="fill:none;stroke:#000000;stroke-width:3;stroke-linecap:round;stroke-linejoin:round"
           d="M 203.769,262.806 C 203.769,262.806 213.519,256.556 224.769,253.056"
           id="path2685" />
        <path
           style="fill:none;stroke:#000000;stroke-width:3;stroke-linecap:round;stroke-linejoin:round"
           d="M 208.395,281.775 C 208.395,281.775 218.145,275.525 229.395,272.025"
           id="path2687" />
        <path
           style="fill:none;stroke:#000000;stroke-width:3;stroke-linecap:round;stroke-linejoin:round"
           d="M 212.236,300.744 C 212.236,300.744 221.986,294.494 233.236,290.994"
           id="path2689" />
        <path
           style="fill:none;stroke:#000000;stroke-width:3;stroke-linecap:round;stroke-linejoin:round"
           d="M 215.372,319.712 C 215.372,319.712 225.122,313.462 236.372,309.962"
           id="path2691" />
        <path
           style="fill:none;stroke:#000000;stroke-width:3;stroke-linecap:round;stroke-linejoin:round"
           d="M 217.817,338.681 C 217.817,338.681 227.567,332.431 238.817,328.931"
           id="path2693" />
        <path
           style="fill:none;stroke:#000000;stroke-width:3;stroke-linecap:round;stroke-linejoin:round"
           d="M 219.62,357.65 C 219.62,357.65 228.849,351.734 239.709,348.19"
           id="path2695" />
        <path
           style="fill:none;stroke:#000000;stroke-width:3;stroke-linejoin:round"
           d="M 199.811,389.894 C 200.432,394.477 201.03,399.145 201.6,403.899"
           id="path2699" />
        <path
           style="fill:none;stroke:#000000;stroke-width:3;stroke-linejoin:round"
           d="M 196.947,370.378 C 197.666,374.926 198.364,379.569 199.036,384.307"
           id="path2701" />
        <path
           style="fill:none;stroke:#000000;stroke-width:3;stroke-linejoin:round"
           d="M 193.649,350.973 C 194.47,355.483 195.272,360.099 196.05,364.823"
           id="path2703" />
        <path
           style="fill:none;stroke:#000000;stroke-width:3;stroke-linejoin:round"
           d="M 189.896,331.681 C 190.822,336.149 191.733,340.738 192.624,345.449"
           id="path2705" />
        <path
           style="fill:none;stroke:#000000;stroke-width:3;stroke-linejoin:round"
           d="M 185.667,312.514 C 186.703,316.932 187.728,321.492 188.738,326.193"
           id="path2707" />
        <path
           style="fill:none;stroke:#000000;stroke-width:3;stroke-linejoin:round"
           d="M 180.928,293.474 C 182.078,297.831 183.226,302.359 184.365,307.055"
           id="path2709" />
        <path
           style="fill:none;stroke:#000000;stroke-width:3;stroke-linejoin:round"
           d="M 175.637,274.57 C 176.908,278.854 178.19,283.351 179.475,288.059"
           id="path2711" />
        <path
           style="fill:none;stroke:#000000;stroke-width:3;stroke-linejoin:round"
           d="M 169.74,255.831 C 171.134,260.006 172.566,264.466 174.021,269.211"
           id="path2713" />
        <path
           style="fill:none;stroke:#000000;stroke-width:3;stroke-linejoin:round"
           d="M 163.138,237.271 C 164.646,241.247 166.255,245.662 167.932,250.513"
           id="path2715" />
        <path
           style="fill:none;stroke:#000000;stroke-width:3;stroke-linejoin:round"
           d="M 155.636,218.935 C 157.134,222.301 158.989,226.659 161.099,232.002"
           id="path2717" />
        <path
           style="fill:none;stroke:#000000;stroke-width:3;stroke-linejoin:round"
           d="M 151.6,210.4 C 151.6,210.4 152.193,211.522 153.258,213.757"
           id="path2719" />
      </g>
      <g
         id="g3322">
        <path
           id="path2725"
           d="M 538.899,83.9 C 538.899,83.9 541.149,88.9 542.024,93.65 C 542.024,93.65 537.649,93.775 533.524,92.025 C 533.524,92.025 535.774,97.025 536.649,101.775 C 536.649,101.775 532.274,101.9 528.149,100.15 C 528.149,100.15 530.399,105.15 531.274,109.9 C 531.274,109.9 526.899,110.025 522.774,108.275 C 522.774,108.275 525.024,113.275 525.899,118.025 C 525.899,118.025 521.524,118.15 517.399,116.4 L 516.149,115.15 L 537.899,83.15 L 538.899,83.9 z"
           style="fill:#fcef3c;stroke:#000000;stroke-width:3;stroke-linejoin:round" />
        <path
           id="path2727"
           d="M 377.232,450.4 C 377.232,460.561 369.232,501.733 339.899,541.4 C 355.232,544.733 376.232,536.067 388.899,520.4 L 388.899,481.067 L 377.232,450.4 z"
           style="fill:#fcef3c;stroke:#000000;stroke-width:3;stroke-linejoin:round" />
        <path
           id="path2729"
           d="M 339.749,329.364 C 339.794,329.072 339.574,328.26 339.42,328.142 C 336.274,325.742 332.899,321.982 332.899,316.024 C 332.899,309.819 337.749,305.817 342.125,303.459 C 342.313,303.358 342.743,302.355 342.771,301.953 C 344.054,283.828 344.274,269.814 344.274,268.775 C 344.274,266.587 340.42,265.004 340.42,259.754 C 340.42,255.629 342.816,249.566 349.233,245.4 C 349.233,233.733 345.4,191.4 345.4,191.4 C 382.9,191.4 393.943,184.693 402.777,175.859 L 406.4,176.566 L 387.566,218.899 L 368.9,317.232 L 370.066,410.732 C 346.4,390.232 329.9,368.732 329.9,368.732 C 334.577,356.528 337.686,342.722 339.749,329.364 z"
           style="fill:#fcef3c;stroke:#000000;stroke-width:3;stroke-linejoin:round" />
        <path
           id="path2731"
           d="M 419.778,470.146 C 451.408,480.642 469.398,453.4 469.398,453.4 C 443.898,449.65 424.279,420.221 433.677,388.398 C 442.854,357.323 454.153,322.227 456.398,300.15 C 456.398,300.15 482.898,336.15 506.898,336.15 C 518.898,336.15 529.148,322.15 529.148,322.15 C 529.148,322.15 507.398,307.4 496.898,285.4 C 486.398,263.4 484.148,248.9 486.398,243.65 C 488.648,238.4 503.648,204.65 512.898,186.4 C 522.148,168.15 552.398,121.4 552.398,105.15 C 552.398,100.9 551.397,99.317 549.647,99.317 C 545.731,99.317 546.1,104.191 540.731,112.734 C 533.398,124.401 517.567,147.532 507.898,155.567 C 499.745,162.342 494.251,161.617 490.553,163.715 C 492.564,158.234 487.898,158.567 495.398,147.4 C 502.898,136.233 532.66,99.199 540.898,81.9 C 545.898,71.4 547.01,69.445 543.898,66.65 C 539.398,62.608 535.898,65.4 526.648,74.65 C 517.398,83.9 501.648,97.9 484.398,105.15 C 467.148,112.4 458.198,110.944 438.148,133.9 C 420.898,153.65 414.148,164.15 405.148,173.15 C 390.398,187.9 363.231,256.733 363.231,331.067 C 363.231,407.067 366.231,417.734 368.898,428.067 C 371.564,438.4 386.231,488.4 386.231,523.067 C 386.231,557.734 377.231,606.733 359.564,639.733 C 398.231,637.733 415.897,616.067 426.231,580.4 C 426.231,580.4 465.231,580.066 492.564,540.733 C 492.564,540.733 452.898,547.734 434.564,522.4 C 424.797,508.903 420.423,490.107 419.778,470.146 z"
           style="fill:#fcef3c;stroke:#000000;stroke-width:3;stroke-linejoin:round" />
        <circle
           id="circle2735"
           r="11.25"
           cy="134.69501"
           cx="472.81201"
           sodipodi:cx="472.81201"
           sodipodi:cy="134.69501"
           sodipodi:rx="11.25"
           sodipodi:ry="11.25"
           style="fill:none;stroke:#000000;stroke-width:3;stroke-linejoin:round"
           transform="translate(-3.8e-2,-4.5e-2)" />
        <circle
           id="circle2737"
           r="3.875"
           cy="134.69501"
           cx="472.81201"
           sodipodi:cx="472.81201"
           sodipodi:cy="134.69501"
           sodipodi:rx="3.875"
           sodipodi:ry="3.875"
           style="stroke:#000000;stroke-width:3;stroke-linejoin:round"
           transform="translate(-3.8e-2,-4.5e-2)" />
        <path
           style="fill:none;stroke:#000000;stroke-width:3;stroke-linecap:round;stroke-linejoin:round"
           d="M 490.554,163.715 C 488.884,164.662 487.581,166.185 486.565,169.234 C 485.565,172.234 486.232,178.401 489.732,180.401"
           id="path2743" />
        <path
           style="fill:none;stroke:#000000;stroke-width:3;stroke-linecap:round;stroke-linejoin:round"
           d="M 419.778,470.146 C 419.213,452.641 421.515,434.241 425.564,417.733"
           id="path2745" />
        <path
           style="fill:none;stroke:#000000;stroke-width:3;stroke-linecap:round;stroke-linejoin:round"
           d="M 443.649,150.4 C 434.649,159.4 437.149,181.9 448.399,187.4 C 448.399,187.4 445.399,208.9 466.149,213.4"
           id="path2747" />
        <path
           style="fill:none;stroke:#000000;stroke-width:3;stroke-linecap:round;stroke-linejoin:round"
           d="M 385.399,612.9 C 385.399,612.9 396.958,585.312 397.523,549.372"
           id="path2749" />
        <line
           style="fill:none;stroke:#000000;stroke-width:3;stroke-linecap:round;stroke-linejoin:round"
           x1="414.24402"
           y1="546.44904"
           x2="422.17102"
           y2="568.90002"
           id="line2751" />
        <path
           style="fill:none;stroke:#000000;stroke-width:3;stroke-linecap:round;stroke-linejoin:round"
           d="M 464.399,551.4 C 464.399,551.4 444.752,551.567 430.122,536.937"
           id="path2753" />
        <path
           style="fill:none;stroke:#000000;stroke-width:3;stroke-linecap:round;stroke-linejoin:round"
           d="M 422.251,542.769 C 422.251,542.769 432.877,557.669 446.138,562.869"
           id="path2755" />
        <path
           style="fill:none;stroke:#000000;stroke-width:3;stroke-linecap:round;stroke-linejoin:round"
           d="M 405.716,548.619 C 405.716,548.619 412.39,573.451 407.228,597.593"
           id="path2757" />
        <path
           style="fill:none;stroke:#000000;stroke-width:3;stroke-linecap:round;stroke-linejoin:round"
           d="M 478.476,256.662 C 479.494,263.567 482.841,269.684 486.87,276.042"
           id="path2759" />
        <path
           style="fill:none;stroke:#000000;stroke-width:3;stroke-linecap:round;stroke-linejoin:round"
           d="M 471.086,267.535 C 473.576,275.233 480.638,284.262 480.638,284.262"
           id="path2761" />
        <path
           style="fill:none;stroke:#000000;stroke-width:3;stroke-linecap:round;stroke-linejoin:round"
           d="M 464.813,277.636 C 467.649,284.567 472.278,290.085 475.237,293.044"
           id="path2763" />
        <path
           style="fill:none;stroke:#000000;stroke-width:3;stroke-linecap:round;stroke-linejoin:round"
           d="M 458.695,290.605 C 462.827,297.051 469.857,304.081 469.857,304.081"
           id="path2765" />
        <path
           style="fill:none;stroke:#000000;stroke-width:3;stroke-linecap:round;stroke-linejoin:round"
           d="M 418.556,205.9 C 418.556,205.9 406.899,199.65 395.649,196.15"
           id="path2767" />
        <path
           style="fill:none;stroke:#000000;stroke-width:3;stroke-linecap:round;stroke-linejoin:round"
           d="M 411.112,224.869 C 411.112,224.869 401.362,218.619 390.112,215.119"
           id="path2769" />
        <path
           style="fill:none;stroke:#000000;stroke-width:3;stroke-linecap:round;stroke-linejoin:round"
           d="M 404.705,243.837 C 404.705,243.837 394.955,237.587 383.705,234.087"
           id="path2771" />
        <path
           style="fill:none;stroke:#000000;stroke-width:3;stroke-linecap:round;stroke-linejoin:round"
           d="M 399.229,262.806 C 399.229,262.806 389.479,256.556 378.229,253.056"
           id="path2773" />
        <path
           style="fill:none;stroke:#000000;stroke-width:3;stroke-linecap:round;stroke-linejoin:round"
           d="M 394.603,281.775 C 394.603,281.775 384.853,275.525 373.603,272.025"
           id="path2775" />
        <path
           style="fill:none;stroke:#000000;stroke-width:3;stroke-linecap:round;stroke-linejoin:round"
           d="M 390.762,300.744 C 390.762,300.744 381.012,294.494 369.762,290.994"
           id="path2777" />
        <path
           style="fill:none;stroke:#000000;stroke-width:3;stroke-linecap:round;stroke-linejoin:round"
           d="M 387.626,319.712 C 387.626,319.712 377.876,313.462 366.626,309.962"
           id="path2779" />
        <path
           style="fill:none;stroke:#000000;stroke-width:3;stroke-linecap:round;stroke-linejoin:round"
           d="M 385.181,338.681 C 385.181,338.681 375.431,332.431 364.181,328.931"
           id="path2781" />
        <path
           style="fill:none;stroke:#000000;stroke-width:3;stroke-linecap:round;stroke-linejoin:round"
           d="M 383.378,357.65 C 383.378,357.65 374.149,351.734 363.289,348.19"
           id="path2783" />
        <path
           style="fill:none;stroke:#000000;stroke-width:3;stroke-linejoin:round"
           d="M 403.188,389.894 C 402.567,394.477 401.969,399.145 401.399,403.899"
           id="path2787" />
        <path
           style="fill:none;stroke:#000000;stroke-width:3;stroke-linejoin:round"
           d="M 406.051,370.378 C 405.332,374.926 404.635,379.569 403.962,384.307"
           id="path2789" />
        <path
           style="fill:none;stroke:#000000;stroke-width:3;stroke-linejoin:round"
           d="M 409.35,350.973 C 408.529,355.483 407.727,360.099 406.949,364.823"
           id="path2791" />
        <path
           style="fill:none;stroke:#000000;stroke-width:3;stroke-linejoin:round"
           d="M 413.102,331.681 C 412.176,336.149 411.265,340.738 410.374,345.449"
           id="path2793" />
        <path
           style="fill:none;stroke:#000000;stroke-width:3;stroke-linejoin:round"
           d="M 417.331,312.514 C 416.296,316.932 415.27,321.492 414.261,326.193"
           id="path2795" />
        <path
           style="fill:none;stroke:#000000;stroke-width:3;stroke-linejoin:round"
           d="M 422.07,293.474 C 420.92,297.831 419.772,302.359 418.632,307.055"
           id="path2797" />
        <path
           style="fill:none;stroke:#000000;stroke-width:3;stroke-linejoin:round"
           d="M 427.361,274.57 C 426.09,278.854 424.807,283.351 423.523,288.059"
           id="path2799" />
        <path
           style="fill:none;stroke:#000000;stroke-width:3;stroke-linejoin:round"
           d="M 433.258,255.831 C 431.863,260.006 430.432,264.466 428.977,269.211"
           id="path2801" />
        <path
           style="fill:none;stroke:#000000;stroke-width:3;stroke-linejoin:round"
           d="M 439.859,237.271 C 438.351,241.247 436.743,245.662 435.065,250.513"
           id="path2803" />
        <path
           style="fill:none;stroke:#000000;stroke-width:3;stroke-linejoin:round"
           d="M 447.362,218.935 C 445.864,222.301 444.009,226.659 441.898,232.002"
           id="path2805" />
        <path
           style="fill:none;stroke:#000000;stroke-width:3;stroke-linejoin:round"
           d="M 451.399,210.4 C 451.399,210.4 450.806,211.522 449.741,213.757"
           id="path2807" />
      </g>
    </g>
  </g>
  <g
     inkscape:groupmode="layer"
     id="layer3"
     inkscape:label="Reflet final"
     style="display:inline"
     sodipodi:insensitive="true">
    <path
       style="fill:url(#radialGradient3236);fill-opacity:1"
       d="M 1.5,1.5 L 1.5,460.3679 C 1.5,626.67854 135.81454,761.5 301.49993,761.5 C 467.1854,761.5 601.5,626.67854 601.5,460.3679 L 601.5,1.5 L 1.5,1.5 z "
       id="path2346" />
  </g>
  <g
     inkscape:groupmode="layer"
     id="layer4"
     inkscape:label="Contour final"
     style="display:inline"
     sodipodi:insensitive="true">
    <path
       style="fill:none;fill-opacity:1;stroke:#000000;stroke-width:3;stroke-miterlimit:4;stroke-dasharray:none;stroke-opacity:1"
       d="M 1.5,1.5 L 1.5,460.36794 C 1.5,626.67854 135.81454,761.5 301.49993,761.5 C 467.1854,761.5 601.5,626.67854 601.5,460.36794 L 601.5,1.5 L 1.5,1.5 z "
       id="path3239" />
  </g>
</svg>
